%TF.GenerationSoftware,KiCad,Pcbnew,10.0.0*%
%TF.CreationDate,2026-08-18T13:50:20-04:00*%
%TF.ProjectId,PWR_RPM5.0_AP2114,5057525f-5250-44d3-952e-305f41503231,rev?*%
%TF.SameCoordinates,PX9610427PY6ca4418*%
%TF.FileFunction,Copper,L2,Inr*%
%TF.FilePolarity,Positive*%
%FSLAX46Y46*%
G04 Gerber Fmt 4.6, Leading zero omitted, Abs format (unit mm)*
G04 Created by KiCad (PCBNEW 10.0.0) date 2026-08-18 13:50:20*
%MOMM*%
%LPD*%
G01*
G04 APERTURE LIST*
%TA.AperFunction,ComponentPad*%
%ADD10C,1.600000*%
%TD*%
%TA.AperFunction,ComponentPad*%
%ADD11R,1.800000X1.800000*%
%TD*%
%TA.AperFunction,ComponentPad*%
%ADD12O,1.500000X2.500000*%
%TD*%
%TA.AperFunction,ComponentPad*%
%ADD13O,2.200000X3.500000*%
%TD*%
%TA.AperFunction,ComponentPad*%
%ADD14C,2.250000*%
%TD*%
%TA.AperFunction,ComponentPad*%
%ADD15R,6.540000X3.270000*%
%TD*%
%TA.AperFunction,ComponentPad*%
%ADD16C,2.100000*%
%TD*%
%TA.AperFunction,ViaPad*%
%ADD17C,0.800000*%
%TD*%
G04 APERTURE END LIST*
D10*
%TO.N,GND*%
%TO.C,C8*%
X26777002Y47117000D03*
%TD*%
D11*
%TO.N,GND*%
%TO.C,D1*%
X19317000Y8363999D03*
%TD*%
D10*
%TO.N,GND*%
%TO.C,C5*%
X11694801Y47117000D03*
%TD*%
D12*
%TO.N,GND*%
%TO.C,SW2*%
X21242000Y2434000D03*
D13*
X17142000Y2434000D03*
X25342000Y2434000D03*
%TD*%
D14*
%TO.N,GND*%
%TO.C,SW1*%
X2167000Y27483999D03*
X2167000Y15284000D03*
%TD*%
D15*
%TO.N,GND*%
%TO.C,J8*%
X3785357Y12064000D03*
%TD*%
D10*
%TO.N,GND*%
%TO.C,C7*%
X19235902Y47117000D03*
%TD*%
D16*
%TO.N,GND*%
%TO.C,J5*%
X30607001Y4699000D03*
X33147001Y4699000D03*
X35687001Y4699000D03*
X38227001Y4699000D03*
%TD*%
%TO.N,GND*%
%TO.C,J6*%
X30607001Y48387000D03*
X33147001Y48387000D03*
X35687001Y48387000D03*
X38227001Y48387000D03*
%TD*%
D17*
%TO.N,/PWR_IN*%
X9590694Y21098625D03*
%TO.N,GND*%
X9137402Y32105600D03*
X23825201Y42976800D03*
X18592801Y37592000D03*
X13813304Y41351289D03*
X9586053Y25659000D03*
X13037587Y26827680D03*
X12996054Y24529000D03*
X8442000Y16659000D03*
X20066001Y37592000D03*
X10751052Y26839000D03*
X13815023Y38151089D03*
X11876998Y25691986D03*
X13817601Y39751000D03*
X15327527Y26827651D03*
X4775026Y19324627D03*
X11865937Y23408754D03*
X10717000Y24521986D03*
X14156053Y25698999D03*
X20066001Y36499800D03*
X15288932Y24513456D03*
X23241001Y37668200D03*
X23241001Y36220400D03*
X13817601Y38951000D03*
X17500601Y17718800D03*
X18592801Y36499800D03*
X16449963Y25683240D03*
X16448662Y23392995D03*
X13011053Y22244000D03*
X11862356Y21117267D03*
X8442000Y14984858D03*
X14154147Y23394001D03*
X14478001Y31953200D03*
X15311053Y22244000D03*
X13817224Y40551001D03*
%TO.N,/PWR_IN*%
X9587355Y21100188D03*
%TD*%
%TA.AperFunction,Conductor*%
%TO.N,GND*%
G36*
X32446064Y4930093D02*
G01*
X32482028Y4880593D01*
X32484971Y4830686D01*
X32472001Y4765485D01*
X32472001Y4632516D01*
X32484971Y4567314D01*
X32477779Y4506553D01*
X32436247Y4461623D01*
X32387873Y4449000D01*
X31366129Y4449000D01*
X31307938Y4467907D01*
X31271974Y4517407D01*
X31269031Y4567314D01*
X31282001Y4632518D01*
X31282001Y4765482D01*
X31269031Y4830686D01*
X31276223Y4891447D01*
X31317755Y4936377D01*
X31366129Y4949000D01*
X32387873Y4949000D01*
X32446064Y4930093D01*
G37*
%TD.AperFunction*%
%TA.AperFunction,Conductor*%
G36*
X34951688Y4941263D02*
G01*
X34976247Y4936377D01*
X34980335Y4931955D01*
X34986064Y4930093D01*
X35000784Y4909832D01*
X35017779Y4891447D01*
X35018529Y4885408D01*
X35022028Y4880593D01*
X35024644Y4836229D01*
X35025191Y4831830D01*
X35025075Y4831211D01*
X35012001Y4765482D01*
X35012001Y4761185D01*
X35012001Y4632516D01*
X35024971Y4567314D01*
X35017779Y4506553D01*
X34976247Y4461623D01*
X34927873Y4449000D01*
X33906129Y4449000D01*
X33847938Y4467907D01*
X33811974Y4517407D01*
X33809031Y4567314D01*
X33822001Y4632518D01*
X33822001Y4765482D01*
X33809031Y4830686D01*
X33816223Y4891447D01*
X33857755Y4936377D01*
X33906129Y4949000D01*
X34927873Y4949000D01*
X34951688Y4941263D01*
G37*
%TD.AperFunction*%
%TA.AperFunction,Conductor*%
G36*
X37526064Y4930093D02*
G01*
X37562028Y4880593D01*
X37564971Y4830686D01*
X37552001Y4765485D01*
X37552001Y4632516D01*
X37564971Y4567314D01*
X37557779Y4506553D01*
X37516247Y4461623D01*
X37467873Y4449000D01*
X36446129Y4449000D01*
X36387938Y4467907D01*
X36351974Y4517407D01*
X36349031Y4567314D01*
X36362001Y4632518D01*
X36362001Y4765482D01*
X36349031Y4830686D01*
X36356223Y4891447D01*
X36397755Y4936377D01*
X36446129Y4949000D01*
X37467873Y4949000D01*
X37526064Y4930093D01*
G37*
%TD.AperFunction*%
%TA.AperFunction,Conductor*%
G36*
X32446064Y48618093D02*
G01*
X32482028Y48568593D01*
X32484971Y48518686D01*
X32472001Y48453485D01*
X32472001Y48320516D01*
X32484971Y48255314D01*
X32477779Y48194553D01*
X32436247Y48149623D01*
X32387873Y48137000D01*
X31366129Y48137000D01*
X31307938Y48155907D01*
X31271974Y48205407D01*
X31269031Y48255314D01*
X31272592Y48273216D01*
X31282001Y48320518D01*
X31282001Y48453482D01*
X31269031Y48518686D01*
X31276223Y48579447D01*
X31317755Y48624377D01*
X31366129Y48637000D01*
X32387873Y48637000D01*
X32446064Y48618093D01*
G37*
%TD.AperFunction*%
%TA.AperFunction,Conductor*%
G36*
X34951688Y48629263D02*
G01*
X34976247Y48624377D01*
X34980335Y48619955D01*
X34986064Y48618093D01*
X35000784Y48597832D01*
X35017779Y48579447D01*
X35018529Y48573408D01*
X35022028Y48568593D01*
X35024644Y48524229D01*
X35025191Y48519830D01*
X35025075Y48519211D01*
X35012001Y48453482D01*
X35012001Y48449185D01*
X35012001Y48320516D01*
X35024971Y48255314D01*
X35017779Y48194553D01*
X34976247Y48149623D01*
X34927873Y48137000D01*
X33906129Y48137000D01*
X33847938Y48155907D01*
X33811974Y48205407D01*
X33809031Y48255314D01*
X33812592Y48273216D01*
X33822001Y48320518D01*
X33822001Y48453482D01*
X33809031Y48518686D01*
X33816223Y48579447D01*
X33857755Y48624377D01*
X33906129Y48637000D01*
X34927873Y48637000D01*
X34951688Y48629263D01*
G37*
%TD.AperFunction*%
%TA.AperFunction,Conductor*%
G36*
X37526064Y48618093D02*
G01*
X37562028Y48568593D01*
X37564971Y48518686D01*
X37552001Y48453485D01*
X37552001Y48320516D01*
X37564971Y48255314D01*
X37557779Y48194553D01*
X37516247Y48149623D01*
X37467873Y48137000D01*
X36446129Y48137000D01*
X36387938Y48155907D01*
X36351974Y48205407D01*
X36349031Y48255314D01*
X36352592Y48273216D01*
X36362001Y48320518D01*
X36362001Y48453482D01*
X36349031Y48518686D01*
X36356223Y48579447D01*
X36397755Y48624377D01*
X36446129Y48637000D01*
X37467873Y48637000D01*
X37526064Y48618093D01*
G37*
%TD.AperFunction*%
%TA.AperFunction,Conductor*%
G36*
X40893609Y50167657D02*
G01*
X40906296Y50163534D01*
X40955796Y50127573D01*
X40955797Y50127572D01*
X40958792Y50123450D01*
X40977701Y50065260D01*
X40977701Y44177268D01*
X40972855Y44146675D01*
X40968733Y44133989D01*
X40932775Y44084493D01*
X40928674Y44081513D01*
X40870485Y44062602D01*
X40870299Y44062602D01*
X27732330Y44086363D01*
X27732318Y44086363D01*
X27721946Y44086383D01*
X27719976Y44086512D01*
X27714714Y44086512D01*
X27649080Y44086512D01*
X27649079Y44086512D01*
X27578488Y44086641D01*
X27576860Y44086589D01*
X27576858Y44086626D01*
X27573325Y44086512D01*
X27497547Y44086512D01*
X27197286Y44050052D01*
X27197263Y44050049D01*
X26903566Y43977659D01*
X26620701Y43870383D01*
X26352870Y43729815D01*
X26352851Y43729805D01*
X26107366Y43560358D01*
X26107350Y43560346D01*
X26103903Y43557966D01*
X26103900Y43557964D01*
X26103898Y43557962D01*
X26099742Y43554281D01*
X26099728Y43554269D01*
X26031930Y43494204D01*
X26031929Y43494204D01*
X25877486Y43357380D01*
X25877461Y43357355D01*
X25835716Y43310236D01*
X25835717Y43310235D01*
X25690124Y43145893D01*
X25690120Y43145889D01*
X25690118Y43145887D01*
X25676873Y43130938D01*
X25676862Y43130925D01*
X25505029Y42881983D01*
X25505019Y42881964D01*
X25364451Y42614133D01*
X25257175Y42331268D01*
X25184785Y42037571D01*
X25184782Y42037548D01*
X25148322Y41737287D01*
X25148322Y8858739D01*
X25184782Y8558478D01*
X25184785Y8558455D01*
X25257174Y8264763D01*
X25257176Y8264754D01*
X25285411Y8190305D01*
X25364451Y7981893D01*
X25505019Y7714062D01*
X25505029Y7714043D01*
X25645517Y7510513D01*
X25645517Y7510512D01*
X25676863Y7465099D01*
X25676866Y7465095D01*
X25676871Y7465090D01*
X25676872Y7465088D01*
X25877470Y7238660D01*
X26103898Y7038062D01*
X26201921Y6970401D01*
X26352849Y6866222D01*
X26352854Y6866219D01*
X26620709Y6725639D01*
X26903556Y6618369D01*
X27050413Y6582172D01*
X27197266Y6545976D01*
X27197267Y6545976D01*
X27197271Y6545975D01*
X27197276Y6545975D01*
X27197278Y6545974D01*
X27324422Y6530536D01*
X27497558Y6509513D01*
X27497566Y6509512D01*
X27648375Y6509512D01*
X40863203Y6485613D01*
X40893785Y6480711D01*
X40906463Y6476566D01*
X40955889Y6440523D01*
X40958892Y6436375D01*
X40977701Y6378320D01*
X40977701Y615181D01*
X40972855Y584588D01*
X40968733Y571902D01*
X40932781Y522411D01*
X40928660Y519416D01*
X40870472Y500500D01*
X26575929Y500500D01*
X26545335Y505346D01*
X26534933Y508726D01*
X26485433Y544691D01*
X26466527Y602882D01*
X26481104Y654588D01*
X26484119Y659509D01*
X26498521Y677782D01*
X26562412Y741672D01*
X26710444Y945420D01*
X26824778Y1169813D01*
X26902604Y1409337D01*
X26909705Y1454171D01*
X26942000Y1658071D01*
X26942000Y2183998D01*
X26942000Y2183999D01*
X26941999Y2184000D01*
X26941998Y2184000D01*
X26177598Y2184000D01*
X26119407Y2202907D01*
X26083443Y2252407D01*
X26080500Y2302313D01*
X26091999Y2360126D01*
X26092000Y2360133D01*
X26092000Y2507868D01*
X26091999Y2507875D01*
X26080500Y2565687D01*
X26087692Y2626448D01*
X26129225Y2671377D01*
X26177598Y2684000D01*
X26941998Y2684000D01*
X26941999Y2684000D01*
X26942000Y2684001D01*
X26942000Y3209927D01*
X26942000Y3209931D01*
X26902605Y3458660D01*
X26902603Y3458666D01*
X26824778Y3698188D01*
X26710444Y3922581D01*
X26562412Y4126329D01*
X26384328Y4304413D01*
X26254831Y4398498D01*
X26185322Y4449000D01*
X26180585Y4452442D01*
X26180579Y4452446D01*
X25956187Y4566779D01*
X25716658Y4644607D01*
X25592000Y4664351D01*
X25592000Y3269598D01*
X25573093Y3211407D01*
X25523593Y3175443D01*
X25473687Y3172500D01*
X25415874Y3184000D01*
X25415869Y3184000D01*
X25268131Y3184000D01*
X25268125Y3184000D01*
X25210313Y3172500D01*
X25149552Y3179692D01*
X25104623Y3221225D01*
X25092000Y3269598D01*
X25092000Y4664348D01*
X25092000Y4664349D01*
X25091999Y4664350D01*
X25091998Y4664350D01*
X24967340Y4644607D01*
X24727811Y4566779D01*
X24503421Y4452447D01*
X24299672Y4304414D01*
X24121586Y4126328D01*
X23973553Y3922579D01*
X23859221Y3698189D01*
X23781393Y3458660D01*
X23746770Y3240050D01*
X23737197Y3210590D01*
X23731413Y3199239D01*
X23688148Y3155975D01*
X23631572Y3145872D01*
X23622250Y3146975D01*
X23595998Y3153825D01*
X23475498Y3203737D01*
X23320844Y3234500D01*
X23320842Y3234500D01*
X23163158Y3234500D01*
X23163155Y3234500D01*
X23163154Y3234500D01*
X23100878Y3222112D01*
X23018065Y3205639D01*
X23018058Y3205639D01*
X23008499Y3203738D01*
X22862829Y3143400D01*
X22862806Y3143387D01*
X22731714Y3055793D01*
X22731714Y3055792D01*
X22731708Y3055787D01*
X22731695Y3055776D01*
X22670047Y2994129D01*
X22644989Y2975924D01*
X22634840Y2970753D01*
X22574408Y2961182D01*
X22519894Y2988959D01*
X22517651Y2991202D01*
X22489889Y3045704D01*
X22486278Y3068506D01*
X22461221Y3226711D01*
X22461220Y3226715D01*
X22400423Y3413827D01*
X22400421Y3413830D01*
X22400411Y3413849D01*
X22398545Y3417702D01*
X22397794Y3418985D01*
X22311097Y3589141D01*
X22311086Y3589158D01*
X22195454Y3748310D01*
X22195452Y3748312D01*
X22195450Y3748315D01*
X22056314Y3887451D01*
X22056310Y3887454D01*
X22056308Y3887456D01*
X21897156Y4003088D01*
X21897142Y4003097D01*
X21721832Y4092421D01*
X21595506Y4133466D01*
X21534706Y4153221D01*
X21492000Y4159986D01*
X21492000Y2961907D01*
X21473093Y2903716D01*
X21423593Y2867752D01*
X21367378Y2866280D01*
X21301244Y2884000D01*
X21182756Y2884000D01*
X21116622Y2866280D01*
X21055521Y2869483D01*
X21007971Y2907988D01*
X20992000Y2961907D01*
X20992000Y4159985D01*
X20992000Y4159986D01*
X20991999Y4159986D01*
X20949293Y4153221D01*
X20949292Y4153221D01*
X20762166Y4092421D01*
X20586856Y4003097D01*
X20586842Y4003088D01*
X20427690Y3887456D01*
X20288544Y3748310D01*
X20172912Y3589158D01*
X20172903Y3589144D01*
X20086204Y3418984D01*
X20085452Y3417700D01*
X20083576Y3413827D01*
X20022777Y3226711D01*
X20022776Y3226706D01*
X19995273Y3053049D01*
X19985701Y3023589D01*
X19980528Y3013437D01*
X19937262Y2970173D01*
X19876845Y2960601D01*
X19873736Y2961093D01*
X19819216Y2988863D01*
X19819206Y2988872D01*
X19752288Y3055790D01*
X19688157Y3098641D01*
X19621185Y3143391D01*
X19621174Y3143397D01*
X19621169Y3143400D01*
X19475498Y3203737D01*
X19320844Y3234500D01*
X19320842Y3234500D01*
X19163158Y3234500D01*
X19163155Y3234500D01*
X19163154Y3234500D01*
X19026442Y3207306D01*
X19026438Y3207305D01*
X19008503Y3203737D01*
X19008501Y3203737D01*
X18888758Y3154139D01*
X18887612Y3153696D01*
X18885694Y3153592D01*
X18859721Y3147355D01*
X18847021Y3146355D01*
X18829587Y3150541D01*
X18826517Y3150373D01*
X18824293Y3151811D01*
X18787526Y3160637D01*
X18749345Y3203599D01*
X18745413Y3212129D01*
X18737540Y3238085D01*
X18708889Y3418984D01*
X18702605Y3458659D01*
X18702604Y3458661D01*
X18702604Y3458664D01*
X18657876Y3596323D01*
X18657875Y3596323D01*
X17909631Y2848081D01*
X17855115Y2820304D01*
X17794683Y2829875D01*
X17757312Y2863084D01*
X17753036Y2869483D01*
X17724563Y2912097D01*
X17620097Y3016563D01*
X17620091Y3016567D01*
X17571080Y3049315D01*
X17533200Y3097365D01*
X17530798Y3158503D01*
X17556075Y3201633D01*
X18412219Y4057775D01*
X18362415Y4126326D01*
X18184328Y4304413D01*
X17980580Y4452445D01*
X17980579Y4452446D01*
X17980577Y4452447D01*
X17756187Y4566779D01*
X17516658Y4644607D01*
X17267929Y4684000D01*
X17267926Y4684000D01*
X17016074Y4684000D01*
X17016071Y4684000D01*
X16767339Y4644606D01*
X16527811Y4566779D01*
X16303421Y4452447D01*
X16099672Y4304414D01*
X15921586Y4126328D01*
X15871779Y4057776D01*
X15871779Y4057775D01*
X16333230Y3596324D01*
X16727920Y3201634D01*
X16755697Y3147117D01*
X16746126Y3086685D01*
X16712918Y3049315D01*
X16663907Y3016567D01*
X16559434Y2912094D01*
X16526687Y2863083D01*
X16478637Y2825203D01*
X16417499Y2822801D01*
X16374367Y2848080D01*
X15626123Y3596324D01*
X15581395Y3458664D01*
X15542000Y3209931D01*
X15542000Y1658071D01*
X15581394Y1409340D01*
X15626123Y1271678D01*
X16374365Y2019922D01*
X16428882Y2047699D01*
X16489314Y2038128D01*
X16526684Y2004920D01*
X16559433Y1955908D01*
X16559434Y1955907D01*
X16559437Y1955903D01*
X16663903Y1851437D01*
X16663906Y1851435D01*
X16663907Y1851434D01*
X16712916Y1818687D01*
X16750795Y1770637D01*
X16753197Y1709499D01*
X16727918Y1666369D01*
X15871779Y810228D01*
X15871779Y810227D01*
X15921579Y741681D01*
X15921584Y741675D01*
X15982668Y680590D01*
X16000875Y655530D01*
X16005839Y645787D01*
X16015409Y585355D01*
X15987630Y530839D01*
X15940751Y504582D01*
X15935156Y503238D01*
X15912033Y500500D01*
X615180Y500500D01*
X584587Y505346D01*
X571901Y509468D01*
X522401Y545432D01*
X522394Y545442D01*
X519400Y549564D01*
X500500Y607744D01*
X500500Y4949001D01*
X29077276Y4949001D01*
X29077276Y4949000D01*
X29847873Y4949000D01*
X29906064Y4930093D01*
X29942028Y4880593D01*
X29944971Y4830686D01*
X29932001Y4765485D01*
X29932001Y4632516D01*
X29944971Y4567314D01*
X29937779Y4506553D01*
X29896247Y4461623D01*
X29847873Y4449000D01*
X29077276Y4449000D01*
X29095163Y4336051D01*
X29170560Y4104006D01*
X29280899Y3887451D01*
X29281320Y3886626D01*
X29424726Y3689245D01*
X29597245Y3516726D01*
X29794626Y3373320D01*
X30012008Y3262559D01*
X30072596Y3242873D01*
X30100197Y3228809D01*
X30109414Y3222112D01*
X30145377Y3172611D01*
X30145375Y3111425D01*
X30145373Y3111420D01*
X30144670Y3109257D01*
X30119147Y3068506D01*
X30118256Y3067649D01*
X30104629Y3056686D01*
X29953287Y2955562D01*
X29953278Y2955555D01*
X29810439Y2812715D01*
X29698213Y2644756D01*
X29620912Y2458134D01*
X29620909Y2458124D01*
X29581501Y2260009D01*
X29581501Y2057993D01*
X29589074Y2019921D01*
X29620909Y1859876D01*
X29620910Y1859873D01*
X29620912Y1859868D01*
X29698213Y1673246D01*
X29724769Y1633502D01*
X29727166Y1629915D01*
X29810443Y1505282D01*
X29953283Y1362442D01*
X30121245Y1250214D01*
X30307874Y1172909D01*
X30505998Y1133500D01*
X30505999Y1133500D01*
X30708003Y1133500D01*
X30708004Y1133500D01*
X30906128Y1172909D01*
X31092757Y1250214D01*
X31260719Y1362442D01*
X31403559Y1505282D01*
X31515787Y1673244D01*
X31593092Y1859873D01*
X31632501Y2057997D01*
X31632501Y2260003D01*
X31593092Y2458127D01*
X31515787Y2644756D01*
X31403559Y2812718D01*
X31260719Y2955558D01*
X31260715Y2955561D01*
X31260712Y2955564D01*
X31253174Y2960601D01*
X31115118Y3052847D01*
X31092373Y3073872D01*
X31085318Y3082821D01*
X31064143Y3140224D01*
X31080751Y3199108D01*
X31082032Y3201025D01*
X31117622Y3233286D01*
X31118070Y3233527D01*
X31118722Y3233875D01*
X31134830Y3240737D01*
X31201994Y3262559D01*
X31419375Y3373320D01*
X31616756Y3516726D01*
X31789275Y3689245D01*
X31789282Y3689254D01*
X31791799Y3692200D01*
X31792356Y3691725D01*
X31809587Y3708963D01*
X31818810Y3715664D01*
X31876999Y3734571D01*
X31935185Y3715669D01*
X31944404Y3708971D01*
X31961647Y3691726D01*
X31962203Y3692200D01*
X31964719Y3689254D01*
X31964726Y3689245D01*
X32137245Y3516726D01*
X32334626Y3373320D01*
X32552008Y3262559D01*
X32612596Y3242873D01*
X32640197Y3228809D01*
X32649414Y3222112D01*
X32685377Y3172611D01*
X32685375Y3111425D01*
X32685373Y3111420D01*
X32684670Y3109257D01*
X32659147Y3068506D01*
X32658256Y3067649D01*
X32644629Y3056686D01*
X32493287Y2955562D01*
X32493278Y2955555D01*
X32350439Y2812715D01*
X32238213Y2644756D01*
X32160912Y2458134D01*
X32160909Y2458124D01*
X32121501Y2260009D01*
X32121501Y2057993D01*
X32129074Y2019921D01*
X32160909Y1859876D01*
X32160910Y1859873D01*
X32160912Y1859868D01*
X32238213Y1673246D01*
X32264769Y1633502D01*
X32267166Y1629915D01*
X32350443Y1505282D01*
X32493283Y1362442D01*
X32661245Y1250214D01*
X32847874Y1172909D01*
X33045998Y1133500D01*
X33045999Y1133500D01*
X33248003Y1133500D01*
X33248004Y1133500D01*
X33446128Y1172909D01*
X33632757Y1250214D01*
X33800719Y1362442D01*
X33943559Y1505282D01*
X34055787Y1673244D01*
X34133092Y1859873D01*
X34172501Y2057997D01*
X34172501Y2260003D01*
X34133092Y2458127D01*
X34055787Y2644756D01*
X33943559Y2812718D01*
X33800719Y2955558D01*
X33800715Y2955561D01*
X33800712Y2955564D01*
X33793174Y2960601D01*
X33655118Y3052847D01*
X33632373Y3073872D01*
X33625318Y3082821D01*
X33604143Y3140224D01*
X33620751Y3199108D01*
X33622032Y3201025D01*
X33657622Y3233286D01*
X33658070Y3233527D01*
X33658722Y3233875D01*
X33674830Y3240737D01*
X33741994Y3262559D01*
X33959375Y3373320D01*
X34156756Y3516726D01*
X34329275Y3689245D01*
X34329282Y3689254D01*
X34331799Y3692200D01*
X34332356Y3691725D01*
X34349587Y3708963D01*
X34358810Y3715664D01*
X34416999Y3734571D01*
X34475185Y3715669D01*
X34484404Y3708971D01*
X34501647Y3691726D01*
X34502203Y3692200D01*
X34504719Y3689254D01*
X34504726Y3689245D01*
X34677245Y3516726D01*
X34874626Y3373320D01*
X35092008Y3262559D01*
X35152596Y3242873D01*
X35180197Y3228809D01*
X35189414Y3222112D01*
X35225377Y3172611D01*
X35225375Y3111425D01*
X35225373Y3111420D01*
X35224670Y3109257D01*
X35199147Y3068506D01*
X35198256Y3067649D01*
X35184629Y3056686D01*
X35033287Y2955562D01*
X35033278Y2955555D01*
X34890439Y2812715D01*
X34778213Y2644756D01*
X34700912Y2458134D01*
X34700909Y2458124D01*
X34661501Y2260009D01*
X34661501Y2057993D01*
X34669074Y2019921D01*
X34700909Y1859876D01*
X34700910Y1859873D01*
X34700912Y1859868D01*
X34778213Y1673246D01*
X34804769Y1633502D01*
X34807166Y1629915D01*
X34890443Y1505282D01*
X35033283Y1362442D01*
X35201245Y1250214D01*
X35387874Y1172909D01*
X35585998Y1133500D01*
X35585999Y1133500D01*
X35788003Y1133500D01*
X35788004Y1133500D01*
X35986128Y1172909D01*
X36172757Y1250214D01*
X36340719Y1362442D01*
X36483559Y1505282D01*
X36595787Y1673244D01*
X36673092Y1859873D01*
X36712501Y2057997D01*
X36712501Y2260003D01*
X36673092Y2458127D01*
X36595787Y2644756D01*
X36483559Y2812718D01*
X36340719Y2955558D01*
X36340715Y2955561D01*
X36340712Y2955564D01*
X36333174Y2960601D01*
X36195118Y3052847D01*
X36172373Y3073872D01*
X36165318Y3082821D01*
X36144143Y3140224D01*
X36160751Y3199108D01*
X36162032Y3201025D01*
X36197622Y3233286D01*
X36198070Y3233527D01*
X36198722Y3233875D01*
X36214830Y3240737D01*
X36281994Y3262559D01*
X36499375Y3373320D01*
X36696756Y3516726D01*
X36869275Y3689245D01*
X36869282Y3689254D01*
X36871799Y3692200D01*
X36872356Y3691725D01*
X36889587Y3708963D01*
X36898810Y3715664D01*
X36956999Y3734571D01*
X37015185Y3715669D01*
X37024404Y3708971D01*
X37041647Y3691726D01*
X37042203Y3692200D01*
X37044719Y3689254D01*
X37044726Y3689245D01*
X37217245Y3516726D01*
X37414626Y3373320D01*
X37632008Y3262559D01*
X37692596Y3242873D01*
X37720197Y3228809D01*
X37729414Y3222112D01*
X37765377Y3172611D01*
X37765375Y3111425D01*
X37765373Y3111420D01*
X37764670Y3109257D01*
X37739147Y3068506D01*
X37738256Y3067649D01*
X37724629Y3056686D01*
X37573287Y2955562D01*
X37573278Y2955555D01*
X37430439Y2812715D01*
X37318213Y2644756D01*
X37240912Y2458134D01*
X37240909Y2458124D01*
X37201501Y2260009D01*
X37201501Y2057993D01*
X37209074Y2019921D01*
X37240909Y1859876D01*
X37240910Y1859873D01*
X37240912Y1859868D01*
X37318213Y1673246D01*
X37344769Y1633502D01*
X37347166Y1629915D01*
X37430443Y1505282D01*
X37573283Y1362442D01*
X37741245Y1250214D01*
X37927874Y1172909D01*
X38125998Y1133500D01*
X38125999Y1133500D01*
X38328003Y1133500D01*
X38328004Y1133500D01*
X38526128Y1172909D01*
X38712757Y1250214D01*
X38880719Y1362442D01*
X39023559Y1505282D01*
X39135787Y1673244D01*
X39213092Y1859873D01*
X39252501Y2057997D01*
X39252501Y2260003D01*
X39213092Y2458127D01*
X39135787Y2644756D01*
X39023559Y2812718D01*
X38880719Y2955558D01*
X38880715Y2955561D01*
X38880712Y2955564D01*
X38873174Y2960601D01*
X38735118Y3052847D01*
X38712373Y3073872D01*
X38705318Y3082821D01*
X38684143Y3140224D01*
X38700751Y3199108D01*
X38702032Y3201025D01*
X38737622Y3233286D01*
X38738070Y3233527D01*
X38738722Y3233875D01*
X38754830Y3240737D01*
X38821994Y3262559D01*
X39039375Y3373320D01*
X39236756Y3516726D01*
X39409275Y3689245D01*
X39552681Y3886626D01*
X39663441Y4104006D01*
X39738836Y4336046D01*
X39748728Y4398499D01*
X39756726Y4449000D01*
X38986129Y4449000D01*
X38927938Y4467907D01*
X38891974Y4517407D01*
X38889031Y4567314D01*
X38902001Y4632518D01*
X38902001Y4765482D01*
X38889031Y4830686D01*
X38896223Y4891447D01*
X38937755Y4936377D01*
X38986129Y4949000D01*
X39756726Y4949000D01*
X39738837Y5061951D01*
X39738836Y5061955D01*
X39663441Y5293995D01*
X39552681Y5511375D01*
X39409275Y5708756D01*
X39236756Y5881275D01*
X39039375Y6024681D01*
X39039374Y6024682D01*
X39039372Y6024683D01*
X38821995Y6135441D01*
X38589950Y6210838D01*
X38477001Y6228727D01*
X38477001Y5458128D01*
X38458094Y5399937D01*
X38408594Y5363973D01*
X38358687Y5361030D01*
X38293485Y5374000D01*
X38293483Y5374000D01*
X38160519Y5374000D01*
X38160516Y5374000D01*
X38095315Y5361030D01*
X38034554Y5368222D01*
X37989624Y5409754D01*
X37977001Y5458128D01*
X37977001Y6228727D01*
X37864050Y6210838D01*
X37632005Y6135441D01*
X37414628Y6024683D01*
X37217246Y5881276D01*
X37044719Y5708749D01*
X37042199Y5705797D01*
X37041648Y5706268D01*
X37024402Y5689031D01*
X37015186Y5682336D01*
X36956994Y5663432D01*
X36898812Y5682337D01*
X36889595Y5689033D01*
X36872353Y5706279D01*
X36871797Y5705803D01*
X36869271Y5708761D01*
X36696758Y5881273D01*
X36696756Y5881275D01*
X36499375Y6024681D01*
X36499374Y6024682D01*
X36499372Y6024683D01*
X36281995Y6135441D01*
X36049950Y6210838D01*
X35937001Y6228727D01*
X35937001Y5458128D01*
X35918094Y5399937D01*
X35868594Y5363973D01*
X35818687Y5361030D01*
X35753485Y5374000D01*
X35753483Y5374000D01*
X35620519Y5374000D01*
X35620516Y5374000D01*
X35555315Y5361030D01*
X35494554Y5368222D01*
X35449624Y5409754D01*
X35437001Y5458128D01*
X35437001Y6228727D01*
X35324050Y6210838D01*
X35092005Y6135441D01*
X34874628Y6024683D01*
X34677246Y5881276D01*
X34504719Y5708749D01*
X34502199Y5705797D01*
X34501648Y5706268D01*
X34484402Y5689031D01*
X34475186Y5682336D01*
X34416994Y5663432D01*
X34358812Y5682337D01*
X34349595Y5689033D01*
X34332353Y5706279D01*
X34331797Y5705803D01*
X34329271Y5708761D01*
X34156758Y5881273D01*
X34156756Y5881275D01*
X33959375Y6024681D01*
X33959374Y6024682D01*
X33959372Y6024683D01*
X33741995Y6135441D01*
X33509950Y6210838D01*
X33397001Y6228727D01*
X33397001Y5458128D01*
X33378094Y5399937D01*
X33328594Y5363973D01*
X33278687Y5361030D01*
X33213485Y5374000D01*
X33213483Y5374000D01*
X33080519Y5374000D01*
X33080516Y5374000D01*
X33015315Y5361030D01*
X32954554Y5368222D01*
X32909624Y5409754D01*
X32897001Y5458128D01*
X32897001Y6228727D01*
X32784050Y6210838D01*
X32552005Y6135441D01*
X32334628Y6024683D01*
X32137246Y5881276D01*
X31964719Y5708749D01*
X31962199Y5705797D01*
X31961648Y5706268D01*
X31944402Y5689031D01*
X31935186Y5682336D01*
X31876994Y5663432D01*
X31818812Y5682337D01*
X31809595Y5689033D01*
X31792353Y5706279D01*
X31791797Y5705803D01*
X31789271Y5708761D01*
X31616758Y5881273D01*
X31616756Y5881275D01*
X31419375Y6024681D01*
X31419374Y6024682D01*
X31419372Y6024683D01*
X31201995Y6135441D01*
X30969950Y6210838D01*
X30857001Y6228727D01*
X30857001Y5458128D01*
X30838094Y5399937D01*
X30788594Y5363973D01*
X30738687Y5361030D01*
X30673485Y5374000D01*
X30673483Y5374000D01*
X30540519Y5374000D01*
X30540516Y5374000D01*
X30475315Y5361030D01*
X30414554Y5368222D01*
X30369624Y5409754D01*
X30357001Y5458128D01*
X30357001Y6228727D01*
X30244050Y6210838D01*
X30012005Y6135441D01*
X29794628Y6024683D01*
X29597246Y5881276D01*
X29424725Y5708755D01*
X29281318Y5511373D01*
X29170560Y5293996D01*
X29095163Y5061952D01*
X29077276Y4949001D01*
X500500Y4949001D01*
X500500Y7416175D01*
X17916999Y7416175D01*
X17923401Y7356629D01*
X17923403Y7356618D01*
X17973645Y7221914D01*
X17973646Y7221911D01*
X17973650Y7221905D01*
X18059805Y7106817D01*
X18059807Y7106815D01*
X18059815Y7106807D01*
X18174909Y7020647D01*
X18174911Y7020646D01*
X18309618Y6970403D01*
X18309629Y6970401D01*
X18369176Y6963999D01*
X19066998Y6963999D01*
X19066999Y6963999D01*
X19067000Y6964000D01*
X19067000Y7836093D01*
X19085907Y7894284D01*
X19135407Y7930248D01*
X19191624Y7931719D01*
X19219186Y7924334D01*
X19257753Y7914000D01*
X19257755Y7913999D01*
X19376244Y7913999D01*
X19376245Y7913999D01*
X19376245Y7914000D01*
X19436886Y7930248D01*
X19442376Y7931719D01*
X19503478Y7928518D01*
X19551028Y7890013D01*
X19567000Y7836093D01*
X19567000Y6964000D01*
X19567001Y6963999D01*
X20264820Y6963999D01*
X20264824Y6963999D01*
X20324370Y6970401D01*
X20324381Y6970403D01*
X20459088Y7020646D01*
X20459090Y7020647D01*
X20574184Y7106807D01*
X20574192Y7106815D01*
X20660352Y7221909D01*
X20660353Y7221911D01*
X20710596Y7356618D01*
X20710598Y7356629D01*
X20717000Y7416175D01*
X20717000Y8113998D01*
X20716999Y8113999D01*
X20716998Y8113999D01*
X19844906Y8113999D01*
X19786715Y8132906D01*
X19750751Y8182406D01*
X19749280Y8238623D01*
X19753390Y8253965D01*
X19767000Y8304755D01*
X19767000Y8423243D01*
X19749280Y8489375D01*
X19752481Y8550477D01*
X19790986Y8598027D01*
X19844906Y8613999D01*
X20716998Y8613999D01*
X20716999Y8613999D01*
X20717000Y8614000D01*
X20717000Y9311824D01*
X20710598Y9371370D01*
X20710596Y9371381D01*
X20660353Y9506088D01*
X20660352Y9506090D01*
X20574192Y9621184D01*
X20574184Y9621192D01*
X20574182Y9621194D01*
X20459094Y9707349D01*
X20459088Y9707353D01*
X20459085Y9707354D01*
X20324381Y9757596D01*
X20324373Y9757598D01*
X20324371Y9757598D01*
X20304521Y9759732D01*
X20264824Y9763999D01*
X20264822Y9763999D01*
X19567002Y9763999D01*
X19567001Y9763999D01*
X19567000Y9763998D01*
X19567000Y9763997D01*
X19567000Y8891906D01*
X19548093Y8833715D01*
X19498593Y8797751D01*
X19442378Y8796279D01*
X19376244Y8813999D01*
X19257756Y8813999D01*
X19191622Y8796279D01*
X19130521Y8799482D01*
X19082971Y8837987D01*
X19067000Y8891906D01*
X19067000Y9763997D01*
X19067000Y9763998D01*
X19066999Y9763999D01*
X19066998Y9763999D01*
X18369177Y9763999D01*
X18369176Y9763999D01*
X18309629Y9757598D01*
X18309627Y9757598D01*
X18309620Y9757597D01*
X18309618Y9757596D01*
X18242264Y9732475D01*
X18174913Y9707354D01*
X18174910Y9707353D01*
X18174904Y9707349D01*
X18059816Y9621194D01*
X18059805Y9621183D01*
X17973650Y9506095D01*
X17973646Y9506089D01*
X17973645Y9506086D01*
X17923404Y9371383D01*
X17923403Y9371380D01*
X17923402Y9371373D01*
X17923401Y9371370D01*
X17917000Y9311824D01*
X17917000Y8614000D01*
X17917001Y8613999D01*
X18789094Y8613999D01*
X18847285Y8595092D01*
X18883249Y8545592D01*
X18884720Y8489375D01*
X18867000Y8423246D01*
X18867000Y8304753D01*
X18884720Y8238623D01*
X18881519Y8177521D01*
X18843014Y8129971D01*
X18789094Y8113999D01*
X17917001Y8113999D01*
X17917000Y8113998D01*
X17917000Y7416175D01*
X17916999Y7416175D01*
X500500Y7416175D01*
X500500Y9814320D01*
X505343Y9844906D01*
X509465Y9857595D01*
X545423Y9907094D01*
X546022Y9907529D01*
X549563Y9910100D01*
X607743Y9929000D01*
X3535355Y9929000D01*
X3535356Y9929000D01*
X3535357Y9929001D01*
X3535357Y11330000D01*
X3554264Y11388191D01*
X3603764Y11424155D01*
X3634357Y11429000D01*
X3936357Y11429000D01*
X3994548Y11410093D01*
X4030512Y11360593D01*
X4035357Y11330000D01*
X4035357Y9929001D01*
X4035358Y9929000D01*
X7103177Y9929000D01*
X7103181Y9929000D01*
X7162727Y9935402D01*
X7162738Y9935404D01*
X7297445Y9985647D01*
X7297447Y9985648D01*
X7412541Y10071808D01*
X7412549Y10071816D01*
X7498709Y10186910D01*
X7498710Y10186912D01*
X7548953Y10321619D01*
X7548955Y10321630D01*
X7555357Y10381176D01*
X7555357Y10982844D01*
X18516500Y10982844D01*
X18516500Y10825155D01*
X18517130Y10821988D01*
X18545361Y10680066D01*
X18545361Y10680062D01*
X18547262Y10670500D01*
X18607600Y10524830D01*
X18607603Y10524825D01*
X18607609Y10524814D01*
X18660312Y10445940D01*
X18695211Y10393710D01*
X18695214Y10393707D01*
X18695218Y10393702D01*
X18767291Y10321630D01*
X18806711Y10282210D01*
X18884876Y10229982D01*
X18937814Y10194609D01*
X18937825Y10194603D01*
X18991638Y10172314D01*
X18996296Y10170385D01*
X18996299Y10170383D01*
X19039494Y10152491D01*
X19083503Y10134262D01*
X19238158Y10103499D01*
X19238159Y10103499D01*
X19395841Y10103499D01*
X19395842Y10103499D01*
X19550497Y10134262D01*
X19696179Y10194605D01*
X19827289Y10282210D01*
X19938789Y10393710D01*
X20026394Y10524820D01*
X20086737Y10670502D01*
X20117500Y10825157D01*
X20117500Y10982841D01*
X20086737Y11137496D01*
X20026394Y11283178D01*
X20026393Y11283180D01*
X20026390Y11283185D01*
X19991017Y11336123D01*
X19938789Y11414288D01*
X19917292Y11435785D01*
X19827297Y11525781D01*
X19827292Y11525785D01*
X19827289Y11525788D01*
X19759978Y11570764D01*
X19696185Y11613390D01*
X19696174Y11613396D01*
X19696169Y11613399D01*
X19550498Y11673736D01*
X19395844Y11704499D01*
X19395842Y11704499D01*
X19238158Y11704499D01*
X19238155Y11704499D01*
X19238154Y11704499D01*
X19173680Y11691674D01*
X19093065Y11675638D01*
X19093058Y11675638D01*
X19083499Y11673737D01*
X18937829Y11613399D01*
X18937806Y11613386D01*
X18806711Y11525789D01*
X18695210Y11414288D01*
X18607613Y11283193D01*
X18607600Y11283170D01*
X18547906Y11139055D01*
X18547905Y11139049D01*
X18547263Y11137498D01*
X18547263Y11137496D01*
X18516500Y10982844D01*
X7555357Y10982844D01*
X7555357Y11813999D01*
X7555356Y11814000D01*
X7555355Y11814000D01*
X6483701Y11814000D01*
X6425510Y11832907D01*
X6389546Y11882407D01*
X6386603Y11932315D01*
X6393489Y11966933D01*
X6400357Y12001458D01*
X6400357Y12126542D01*
X6393489Y12161069D01*
X8719858Y12161069D01*
X8719858Y12161066D01*
X8719858Y11966935D01*
X8750279Y11813998D01*
X8757730Y11776543D01*
X8757730Y11776541D01*
X8832017Y11597195D01*
X8879728Y11525789D01*
X8896111Y11501271D01*
X8939870Y11435781D01*
X8939873Y11435778D01*
X8939877Y11435773D01*
X9015058Y11360593D01*
X9077139Y11298512D01*
X9238549Y11190662D01*
X9417898Y11116373D01*
X9608295Y11078500D01*
X9608296Y11078500D01*
X13762420Y11078500D01*
X13762421Y11078500D01*
X13952818Y11116373D01*
X14132167Y11190662D01*
X14293577Y11298512D01*
X14430846Y11435781D01*
X14538696Y11597191D01*
X14612985Y11776540D01*
X14650858Y11966937D01*
X14650858Y12161063D01*
X14612985Y12351460D01*
X14538696Y12530809D01*
X14430846Y12692219D01*
X14293577Y12829488D01*
X14293573Y12829491D01*
X14189307Y12899159D01*
X14176801Y12915022D01*
X14132168Y12937339D01*
X13952816Y13011628D01*
X13762425Y13049500D01*
X13762423Y13049500D01*
X13762421Y13049500D01*
X9608295Y13049500D01*
X9608292Y13049500D01*
X9608289Y13049500D01*
X9417899Y13011628D01*
X9417897Y13011628D01*
X9238551Y12937341D01*
X9077145Y12829494D01*
X8939864Y12692213D01*
X8832017Y12530807D01*
X8757730Y12351461D01*
X8757730Y12351459D01*
X8719858Y12161069D01*
X6393489Y12161069D01*
X6386603Y12195687D01*
X6393795Y12256447D01*
X6435327Y12301377D01*
X6483701Y12314000D01*
X7555355Y12314000D01*
X7555356Y12314000D01*
X7555357Y12314001D01*
X7555357Y13746825D01*
X7548955Y13806371D01*
X7548953Y13806379D01*
X7499821Y13938110D01*
X7499820Y13938113D01*
X7499820Y13938114D01*
X7498710Y13941090D01*
X7498709Y13941091D01*
X7498709Y13941092D01*
X7496794Y13944072D01*
X7494464Y13946761D01*
X7478680Y13967846D01*
X18516500Y13967846D01*
X18516500Y13810157D01*
X18517130Y13806990D01*
X18545361Y13665068D01*
X18545361Y13665064D01*
X18547262Y13655502D01*
X18607600Y13509832D01*
X18607603Y13509827D01*
X18607609Y13509816D01*
X18660312Y13430942D01*
X18695211Y13378712D01*
X18695214Y13378709D01*
X18695218Y13378704D01*
X18806707Y13267216D01*
X18806711Y13267212D01*
X18884876Y13214984D01*
X18937814Y13179611D01*
X18937825Y13179605D01*
X18991638Y13157316D01*
X18996296Y13155387D01*
X18996299Y13155385D01*
X19039494Y13137493D01*
X19083503Y13119264D01*
X19238158Y13088501D01*
X19238159Y13088501D01*
X19395841Y13088501D01*
X19395842Y13088501D01*
X19550497Y13119264D01*
X19696179Y13179607D01*
X19827289Y13267212D01*
X19938789Y13378712D01*
X20026394Y13509822D01*
X20086737Y13655504D01*
X20117500Y13810159D01*
X20117500Y13967843D01*
X20086737Y14122498D01*
X20078231Y14143032D01*
X20057701Y14192598D01*
X20026398Y14268172D01*
X20026396Y14268176D01*
X20026390Y14268187D01*
X19969617Y14353152D01*
X19969616Y14353154D01*
X19938791Y14399288D01*
X19827297Y14510783D01*
X19827292Y14510787D01*
X19827289Y14510790D01*
X19749418Y14562822D01*
X19696185Y14598392D01*
X19696174Y14598398D01*
X19696169Y14598401D01*
X19550498Y14658738D01*
X19395844Y14689501D01*
X19395842Y14689501D01*
X19238158Y14689501D01*
X19238155Y14689501D01*
X19238154Y14689501D01*
X19195926Y14681101D01*
X19093065Y14660640D01*
X19093058Y14660640D01*
X19083499Y14658739D01*
X18937829Y14598401D01*
X18937806Y14598388D01*
X18806711Y14510791D01*
X18695210Y14399290D01*
X18607613Y14268195D01*
X18607600Y14268172D01*
X18547906Y14124057D01*
X18547905Y14124051D01*
X18547263Y14122500D01*
X18547263Y14122498D01*
X18516500Y13967846D01*
X7478680Y13967846D01*
X7412550Y14056184D01*
X7412539Y14056195D01*
X7297451Y14142350D01*
X7297445Y14142354D01*
X7297442Y14142355D01*
X7162738Y14192597D01*
X7162730Y14192599D01*
X7162728Y14192599D01*
X7142878Y14194733D01*
X7103181Y14199000D01*
X7103179Y14199000D01*
X4035359Y14199000D01*
X4035358Y14199000D01*
X4035357Y14198999D01*
X4035357Y14198998D01*
X4035357Y12798000D01*
X4016450Y12739809D01*
X3966950Y12703845D01*
X3936357Y12699000D01*
X3634357Y12699000D01*
X3576166Y12717907D01*
X3540202Y12767407D01*
X3535357Y12798000D01*
X3535357Y14198999D01*
X3535356Y14199001D01*
X3520484Y14213873D01*
X3502282Y14238926D01*
X3496224Y14250815D01*
X3486653Y14311243D01*
X3487896Y14319090D01*
X3505582Y14361786D01*
X3556826Y14432317D01*
X3672947Y14660218D01*
X3751987Y14903481D01*
X3792000Y15156107D01*
X3792000Y15184875D01*
X12566500Y15184875D01*
X12566500Y15039926D01*
X12599585Y14916451D01*
X12604018Y14899907D01*
X12676485Y14774392D01*
X12676487Y14774390D01*
X12676489Y14774388D01*
X12676491Y14774385D01*
X12778985Y14671891D01*
X12778987Y14671890D01*
X12778989Y14671888D01*
X12779536Y14671493D01*
X12781538Y14670416D01*
X12904511Y14599418D01*
X12904512Y14599418D01*
X12904515Y14599416D01*
X13044525Y14561900D01*
X13044526Y14561900D01*
X13189474Y14561900D01*
X13189475Y14561900D01*
X13329485Y14599416D01*
X13329486Y14599417D01*
X13329488Y14599418D01*
X13329489Y14599418D01*
X13448880Y14668349D01*
X13451768Y14669752D01*
X13452554Y14670269D01*
X13457563Y14673363D01*
X13458862Y14674114D01*
X13464220Y14681097D01*
X13557509Y14774385D01*
X13557513Y14774392D01*
X13629982Y14899911D01*
X13629982Y14899913D01*
X13629984Y14899915D01*
X13667500Y15039925D01*
X13667500Y15184875D01*
X13629984Y15324885D01*
X13629982Y15324888D01*
X13629982Y15324890D01*
X13629977Y15324898D01*
X13629656Y15325608D01*
X13628397Y15327636D01*
X13558985Y15447861D01*
X13558985Y15447860D01*
X13557512Y15450411D01*
X13557510Y15450413D01*
X13557509Y15450415D01*
X13455015Y15552909D01*
X13455012Y15552911D01*
X13455010Y15552913D01*
X13455009Y15552914D01*
X13386775Y15592309D01*
X13365741Y15615670D01*
X13277707Y15639258D01*
X13251202Y15646360D01*
X13189475Y15662900D01*
X13189474Y15662900D01*
X13044523Y15662900D01*
X12982788Y15646359D01*
X12982787Y15646360D01*
X12904512Y15625385D01*
X12904506Y15625382D01*
X12778993Y15552917D01*
X12676483Y15450407D01*
X12604018Y15324895D01*
X12583042Y15246613D01*
X12566500Y15184875D01*
X3792000Y15184875D01*
X3792000Y15411894D01*
X3786303Y15447860D01*
X3758186Y15625383D01*
X3751987Y15664520D01*
X3672947Y15907783D01*
X3556825Y16135686D01*
X3556821Y16135692D01*
X3549320Y16146016D01*
X3479150Y16242597D01*
X3479149Y16242597D01*
X3479148Y16242597D01*
X3479147Y16242597D01*
X2934631Y15698082D01*
X2880115Y15670305D01*
X2819683Y15679876D01*
X2782313Y15713084D01*
X2749566Y15762093D01*
X2749565Y15762094D01*
X2749563Y15762097D01*
X2645097Y15866563D01*
X2645093Y15866566D01*
X2645092Y15866567D01*
X2596080Y15899316D01*
X2558201Y15947366D01*
X2555799Y16008504D01*
X2581076Y16051633D01*
X3125595Y16596150D01*
X3125595Y16596151D01*
X3125594Y16596152D01*
X3125595Y16596152D01*
X3040649Y16657870D01*
X3040649Y16657869D01*
X3027962Y16667086D01*
X3027961Y16667087D01*
X3027959Y16667088D01*
X3018690Y16673823D01*
X3018681Y16673828D01*
X2905542Y16731475D01*
X11016500Y16731475D01*
X11016500Y16586525D01*
X11037582Y16507846D01*
X11037581Y16507846D01*
X11054016Y16446512D01*
X11054018Y16446508D01*
X11126485Y16320992D01*
X11126487Y16320990D01*
X11126489Y16320988D01*
X11126491Y16320985D01*
X11228985Y16218491D01*
X11228987Y16218490D01*
X11228989Y16218488D01*
X11229536Y16218093D01*
X11231538Y16217016D01*
X11354511Y16146018D01*
X11354512Y16146018D01*
X11354515Y16146016D01*
X11494525Y16108500D01*
X11494526Y16108500D01*
X11639474Y16108500D01*
X11639475Y16108500D01*
X11779485Y16146016D01*
X11779486Y16146017D01*
X11779488Y16146018D01*
X11779489Y16146018D01*
X11898880Y16214949D01*
X11901768Y16216352D01*
X11902554Y16216869D01*
X11907563Y16219963D01*
X11908862Y16220714D01*
X11914220Y16227697D01*
X12007509Y16320985D01*
X12079984Y16446515D01*
X12096418Y16507846D01*
X18516500Y16507846D01*
X18516500Y16350157D01*
X18517107Y16347105D01*
X18517107Y16347102D01*
X18537896Y16242597D01*
X18543396Y16214943D01*
X18545361Y16205068D01*
X18545361Y16205064D01*
X18547262Y16195502D01*
X18607600Y16049832D01*
X18607613Y16049809D01*
X18647872Y15989559D01*
X18675213Y15948641D01*
X18695210Y15918713D01*
X18695212Y15918711D01*
X18806708Y15807214D01*
X18870666Y15764478D01*
X18870669Y15764477D01*
X18874230Y15762097D01*
X18937814Y15719611D01*
X18937825Y15719605D01*
X18991638Y15697316D01*
X19083503Y15659264D01*
X19238158Y15628501D01*
X19238159Y15628501D01*
X19395841Y15628501D01*
X19395842Y15628501D01*
X19550497Y15659264D01*
X19696179Y15719607D01*
X19827289Y15807212D01*
X19938789Y15918712D01*
X20026394Y16049822D01*
X20086737Y16195504D01*
X20117500Y16350159D01*
X20117500Y16507843D01*
X20117500Y16507846D01*
X20099042Y16600636D01*
X20086737Y16662498D01*
X20066622Y16711059D01*
X20026396Y16808176D01*
X20026390Y16808187D01*
X19984095Y16871485D01*
X19938789Y16939290D01*
X19827289Y17050790D01*
X19754370Y17099513D01*
X19754369Y17099514D01*
X19696194Y17138387D01*
X19696169Y17138401D01*
X19550498Y17198738D01*
X19395844Y17229501D01*
X19395842Y17229501D01*
X19238158Y17229501D01*
X19238155Y17229501D01*
X19238154Y17229501D01*
X19173680Y17216676D01*
X19093065Y17200640D01*
X19093058Y17200640D01*
X19083499Y17198739D01*
X18937829Y17138401D01*
X18937806Y17138388D01*
X18806711Y17050791D01*
X18695210Y16939290D01*
X18607613Y16808195D01*
X18607600Y16808172D01*
X18547262Y16662502D01*
X18546352Y16657925D01*
X18546350Y16657913D01*
X18516500Y16507846D01*
X12096418Y16507846D01*
X12104587Y16538331D01*
X12104587Y16538333D01*
X12117500Y16586526D01*
X12117500Y16731473D01*
X12117500Y16731475D01*
X12079984Y16871485D01*
X12079982Y16871488D01*
X12079982Y16871490D01*
X12079977Y16871498D01*
X12079656Y16872208D01*
X12078397Y16874236D01*
X12008985Y16994461D01*
X12008985Y16994460D01*
X12007512Y16997011D01*
X12007510Y16997013D01*
X12007509Y16997015D01*
X11905015Y17099509D01*
X11905012Y17099511D01*
X11905010Y17099513D01*
X11836774Y17138909D01*
X11815741Y17162269D01*
X11749897Y17179913D01*
X11749896Y17179913D01*
X11639475Y17209500D01*
X11639473Y17209500D01*
X11494526Y17209500D01*
X11494525Y17209500D01*
X11486038Y17207226D01*
X11454361Y17198739D01*
X11454361Y17198738D01*
X11354510Y17171983D01*
X11354508Y17171983D01*
X11354504Y17171981D01*
X11228993Y17099517D01*
X11126483Y16997007D01*
X11054016Y16871490D01*
X11053739Y16870756D01*
X11053192Y16868413D01*
X11033289Y16794133D01*
X11016500Y16731475D01*
X2905542Y16731475D01*
X2815918Y16777141D01*
X2790859Y16795347D01*
X2781425Y16804781D01*
X2753649Y16859296D01*
X2753308Y16861450D01*
X2758903Y16912976D01*
X2760662Y16917471D01*
X2770539Y16936396D01*
X2772473Y16939290D01*
X2832084Y17028504D01*
X2888658Y17165086D01*
X2917500Y17310081D01*
X2917500Y17457917D01*
X2888658Y17602912D01*
X2832084Y17739494D01*
X2749951Y17862415D01*
X2645416Y17966950D01*
X2522495Y18049083D01*
X2522493Y18049084D01*
X2385914Y18105657D01*
X2385912Y18105658D01*
X2240920Y18134499D01*
X2240918Y18134499D01*
X2093082Y18134499D01*
X2093081Y18134499D01*
X2093078Y18134499D01*
X1948085Y18105657D01*
X1948083Y18105657D01*
X1811510Y18049087D01*
X1811498Y18049081D01*
X1688586Y17966952D01*
X1584047Y17862413D01*
X1501918Y17739501D01*
X1501912Y17739489D01*
X1445342Y17602916D01*
X1445342Y17602914D01*
X1416500Y17457921D01*
X1416500Y17457918D01*
X1416500Y17310081D01*
X1442392Y17179913D01*
X1445342Y17165086D01*
X1445342Y17165084D01*
X1501912Y17028510D01*
X1560713Y16940508D01*
X1573680Y16912379D01*
X1577300Y16899543D01*
X1574906Y16838427D01*
X1574165Y16836417D01*
X1544082Y16794133D01*
X1540351Y16791071D01*
X1522490Y16779390D01*
X1315359Y16673851D01*
X1315333Y16673837D01*
X1315310Y16673824D01*
X1208403Y16596151D01*
X1752920Y16051634D01*
X1780697Y15997117D01*
X1771126Y15936685D01*
X1737918Y15899315D01*
X1688907Y15866567D01*
X1584433Y15762093D01*
X1551685Y15713082D01*
X1503635Y15675203D01*
X1442496Y15672801D01*
X1399366Y15698080D01*
X854849Y16242597D01*
X777168Y16135679D01*
X777164Y16135672D01*
X777034Y16135413D01*
X694829Y15974075D01*
X676623Y15949016D01*
X670793Y15943186D01*
X616276Y15915409D01*
X555844Y15924980D01*
X512579Y15968245D01*
X512571Y15968262D01*
X511282Y15970793D01*
X500500Y16015721D01*
X500500Y19457921D01*
X1416500Y19457921D01*
X1416500Y19310079D01*
X1417116Y19306983D01*
X1431532Y19234509D01*
X1445342Y19165086D01*
X1501916Y19028504D01*
X1584049Y18905583D01*
X1688584Y18801048D01*
X1811505Y18718915D01*
X1948087Y18662341D01*
X2093082Y18633499D01*
X2093083Y18633499D01*
X2240917Y18633499D01*
X2240918Y18633499D01*
X2385913Y18662341D01*
X2522495Y18718915D01*
X2645416Y18801048D01*
X2710843Y18866475D01*
X9033178Y18866475D01*
X9033178Y18721525D01*
X9034282Y18717404D01*
X9034282Y18717402D01*
X9056764Y18633503D01*
X9056764Y18633501D01*
X9056765Y18633501D01*
X9056765Y18633500D01*
X9070695Y18581511D01*
X9070696Y18581509D01*
X9070697Y18581506D01*
X9143163Y18455992D01*
X9143165Y18455990D01*
X9143167Y18455988D01*
X9143169Y18455985D01*
X9245663Y18353491D01*
X9245665Y18353490D01*
X9245667Y18353488D01*
X9246214Y18353093D01*
X9248216Y18352016D01*
X9371189Y18281018D01*
X9371190Y18281018D01*
X9371193Y18281016D01*
X9511203Y18243500D01*
X9511204Y18243500D01*
X9656152Y18243500D01*
X9656153Y18243500D01*
X9796163Y18281016D01*
X9796164Y18281017D01*
X9796166Y18281018D01*
X9796167Y18281018D01*
X9915558Y18349949D01*
X9918446Y18351352D01*
X9919232Y18351869D01*
X9924241Y18354963D01*
X9925540Y18355714D01*
X9930898Y18362697D01*
X10024187Y18455985D01*
X10096662Y18581515D01*
X10134178Y18721525D01*
X10134178Y18866475D01*
X10096662Y19006485D01*
X10096660Y19006488D01*
X10096660Y19006490D01*
X10096655Y19006498D01*
X10096334Y19007208D01*
X10095075Y19009236D01*
X10025663Y19129461D01*
X10025663Y19129460D01*
X10024190Y19132011D01*
X10024188Y19132013D01*
X10024187Y19132015D01*
X9921693Y19234509D01*
X9921690Y19234511D01*
X9921688Y19234513D01*
X9853452Y19273909D01*
X9832419Y19297269D01*
X9766575Y19314913D01*
X9766574Y19314913D01*
X9656153Y19344500D01*
X9656151Y19344500D01*
X9511201Y19344500D01*
X9449466Y19327959D01*
X9449465Y19327960D01*
X9371190Y19306985D01*
X9371184Y19306982D01*
X9245671Y19234517D01*
X9143161Y19132007D01*
X9071303Y19007546D01*
X9071302Y19007543D01*
X9070695Y19006490D01*
X9070694Y19006485D01*
X9033178Y18866475D01*
X2710843Y18866475D01*
X2749951Y18905583D01*
X2832084Y19028504D01*
X2888658Y19165086D01*
X2917500Y19310081D01*
X2917500Y19457917D01*
X2888658Y19602912D01*
X2832084Y19739494D01*
X2749951Y19862415D01*
X2645416Y19966950D01*
X2522495Y20049083D01*
X2522493Y20049084D01*
X2385914Y20105657D01*
X2385912Y20105658D01*
X2240920Y20134499D01*
X2240918Y20134499D01*
X2093082Y20134499D01*
X2093081Y20134499D01*
X2093078Y20134499D01*
X1948085Y20105657D01*
X1948083Y20105657D01*
X1811510Y20049087D01*
X1811498Y20049081D01*
X1688586Y19966952D01*
X1584047Y19862413D01*
X1501918Y19739501D01*
X1501912Y19739489D01*
X1445342Y19602916D01*
X1445342Y19602914D01*
X1416500Y19457921D01*
X500500Y19457921D01*
X500500Y21457921D01*
X1416500Y21457921D01*
X1416500Y21310079D01*
X1445341Y21165087D01*
X1501915Y21028506D01*
X1501915Y21028505D01*
X1501916Y21028504D01*
X1584049Y20905583D01*
X1688584Y20801048D01*
X1811505Y20718915D01*
X1948087Y20662341D01*
X2093082Y20633499D01*
X2093083Y20633499D01*
X2240917Y20633499D01*
X2240918Y20633499D01*
X2385913Y20662341D01*
X2522495Y20718915D01*
X2645416Y20801048D01*
X2749951Y20905583D01*
X2832084Y21028504D01*
X2888658Y21165086D01*
X2917500Y21310081D01*
X2917500Y21457917D01*
X2888658Y21602912D01*
X2832084Y21739494D01*
X2749951Y21862415D01*
X2645416Y21966950D01*
X2522495Y22049083D01*
X2522493Y22049084D01*
X2385914Y22105657D01*
X2385912Y22105658D01*
X2240920Y22134499D01*
X2240918Y22134499D01*
X2093082Y22134499D01*
X2093081Y22134499D01*
X2093078Y22134499D01*
X1948085Y22105657D01*
X1948083Y22105657D01*
X1811510Y22049087D01*
X1811498Y22049081D01*
X1688586Y21966952D01*
X1584047Y21862413D01*
X1501918Y21739501D01*
X1501912Y21739489D01*
X1445342Y21602916D01*
X1445342Y21602914D01*
X1416500Y21457921D01*
X500500Y21457921D01*
X500500Y22311028D01*
X7865454Y22311028D01*
X7865454Y22166079D01*
X7873916Y22134499D01*
X7902972Y22026060D01*
X7975439Y21900545D01*
X7975441Y21900543D01*
X7975443Y21900541D01*
X7975445Y21900538D01*
X8077939Y21798044D01*
X8114620Y21776867D01*
X8141146Y21761551D01*
X8165216Y21742060D01*
X8172839Y21733594D01*
X8197726Y21677698D01*
X8185005Y21617850D01*
X8185003Y21617847D01*
X8182567Y21613628D01*
X8146333Y21577394D01*
X8098042Y21549513D01*
X7995536Y21447007D01*
X7923071Y21321495D01*
X7917926Y21302294D01*
X7885553Y21181475D01*
X7885553Y21036526D01*
X7918638Y20913051D01*
X7923071Y20896507D01*
X7995538Y20770992D01*
X7995540Y20770990D01*
X7995542Y20770988D01*
X7995544Y20770985D01*
X8098038Y20668491D01*
X8101743Y20666352D01*
X8191209Y20614698D01*
X8215280Y20595207D01*
X8222903Y20586741D01*
X8247790Y20530845D01*
X8235069Y20470997D01*
X8235067Y20470994D01*
X8232631Y20466775D01*
X8196397Y20430541D01*
X8128113Y20391117D01*
X8025607Y20288611D01*
X7953142Y20163099D01*
X7952710Y20161485D01*
X7915624Y20023079D01*
X7915624Y19878130D01*
X7948709Y19754655D01*
X7953142Y19738111D01*
X8025609Y19612596D01*
X8025611Y19612594D01*
X8025613Y19612592D01*
X8025615Y19612589D01*
X8128109Y19510095D01*
X8128111Y19510094D01*
X8128113Y19510092D01*
X8128660Y19509697D01*
X8130662Y19508620D01*
X8253635Y19437622D01*
X8253636Y19437622D01*
X8253639Y19437620D01*
X8393649Y19400104D01*
X8393650Y19400104D01*
X8538598Y19400104D01*
X8538599Y19400104D01*
X8678609Y19437620D01*
X8678610Y19437621D01*
X8678612Y19437622D01*
X8678613Y19437622D01*
X8798004Y19506553D01*
X8800892Y19507956D01*
X8801678Y19508473D01*
X8806687Y19511567D01*
X8807986Y19512318D01*
X8813344Y19519301D01*
X8906633Y19612589D01*
X8914107Y19625534D01*
X8979106Y19738115D01*
X8979106Y19738117D01*
X8979108Y19738119D01*
X9016624Y19878129D01*
X9016624Y20023079D01*
X8979108Y20163089D01*
X8979106Y20163092D01*
X8979106Y20163094D01*
X8979101Y20163102D01*
X8978780Y20163812D01*
X8977521Y20165840D01*
X8908109Y20286065D01*
X8908109Y20286064D01*
X8906636Y20288615D01*
X8906634Y20288617D01*
X8906633Y20288619D01*
X8804139Y20391113D01*
X8804136Y20391115D01*
X8804134Y20391117D01*
X8710964Y20444909D01*
X8686892Y20464403D01*
X8679268Y20472870D01*
X8654385Y20528768D01*
X8667102Y20588602D01*
X8669542Y20592828D01*
X8705779Y20629066D01*
X8774068Y20668491D01*
X8800681Y20695106D01*
X8838315Y20718661D01*
X8839460Y20719058D01*
X8842266Y20719949D01*
X8842748Y20720195D01*
X8846122Y20721362D01*
X8873664Y20721884D01*
X8901778Y20724025D01*
X8901997Y20723972D01*
X8904860Y20722474D01*
X8907297Y20722520D01*
X8914844Y20717252D01*
X8944468Y20701756D01*
X8950956Y20695990D01*
X8967507Y20676992D01*
X9004404Y20621772D01*
X9004407Y20621769D01*
X9004411Y20621764D01*
X9058160Y20568016D01*
X9108939Y20517237D01*
X9169860Y20476531D01*
X9231863Y20435102D01*
X9233349Y20434308D01*
X9235196Y20433543D01*
X9235199Y20433541D01*
X9238816Y20432043D01*
X9238819Y20432041D01*
X9306375Y20404059D01*
X9371781Y20376967D01*
X9516776Y20348125D01*
X9516777Y20348125D01*
X9664611Y20348125D01*
X9664612Y20348125D01*
X9809607Y20376967D01*
X9946189Y20433541D01*
X10069110Y20515674D01*
X10173645Y20620209D01*
X10201829Y20662392D01*
X10222851Y20685134D01*
X10233328Y20693393D01*
X10290728Y20714568D01*
X10293634Y20714682D01*
X10352521Y20698072D01*
X10367521Y20685762D01*
X10386272Y20667012D01*
X10403980Y20649304D01*
X10456034Y20619251D01*
X10487481Y20590509D01*
X10491723Y20584484D01*
X10509763Y20526019D01*
X10496513Y20477995D01*
X10493865Y20473408D01*
X10457627Y20437168D01*
X10400281Y20404059D01*
X10297776Y20301554D01*
X10225311Y20176042D01*
X10221411Y20161485D01*
X10187793Y20036022D01*
X10187793Y19891073D01*
X10220878Y19767598D01*
X10225311Y19751054D01*
X10297778Y19625539D01*
X10297780Y19625537D01*
X10297782Y19625535D01*
X10297784Y19625532D01*
X10400278Y19523038D01*
X10400280Y19523037D01*
X10400282Y19523035D01*
X10400829Y19522640D01*
X10402831Y19521563D01*
X10525804Y19450565D01*
X10525805Y19450565D01*
X10525808Y19450563D01*
X10665818Y19413047D01*
X10665819Y19413047D01*
X10810767Y19413047D01*
X10810768Y19413047D01*
X10950778Y19450563D01*
X10950779Y19450564D01*
X10950781Y19450565D01*
X10950782Y19450565D01*
X11070173Y19519496D01*
X11073061Y19520899D01*
X11073847Y19521416D01*
X11078856Y19524510D01*
X11080155Y19525261D01*
X11085513Y19532244D01*
X11178802Y19625532D01*
X11242876Y19736511D01*
X11251275Y19751058D01*
X11251275Y19751060D01*
X11251277Y19751062D01*
X11288793Y19891072D01*
X11288793Y20021475D01*
X17046500Y20021475D01*
X17046500Y19876526D01*
X17050282Y19862413D01*
X17084018Y19736507D01*
X17156485Y19610992D01*
X17156487Y19610990D01*
X17156489Y19610988D01*
X17156491Y19610985D01*
X17258985Y19508491D01*
X17258987Y19508490D01*
X17258989Y19508488D01*
X17259536Y19508093D01*
X17261538Y19507016D01*
X17356561Y19452155D01*
X17381734Y19437621D01*
X17384511Y19436018D01*
X17384512Y19436018D01*
X17384515Y19436016D01*
X17524525Y19398500D01*
X17524526Y19398500D01*
X17669474Y19398500D01*
X17669475Y19398500D01*
X17809485Y19436016D01*
X17809486Y19436017D01*
X17809488Y19436018D01*
X17809489Y19436018D01*
X17928880Y19504949D01*
X17931768Y19506352D01*
X17932554Y19506869D01*
X17937563Y19509963D01*
X17938862Y19510714D01*
X17944220Y19517697D01*
X18037509Y19610985D01*
X18045910Y19625535D01*
X18109981Y19736510D01*
X18109982Y19736512D01*
X18109983Y19736512D01*
X18109984Y19736515D01*
X18147500Y19876525D01*
X18147500Y20021475D01*
X18109984Y20161485D01*
X18109982Y20161488D01*
X18109982Y20161490D01*
X18109977Y20161498D01*
X18109656Y20162208D01*
X18108397Y20164236D01*
X18038985Y20284461D01*
X18038985Y20284460D01*
X18037512Y20287011D01*
X18037510Y20287013D01*
X18037509Y20287015D01*
X17935015Y20389509D01*
X17935012Y20389511D01*
X17935010Y20389513D01*
X17935009Y20389514D01*
X17866775Y20428909D01*
X17845741Y20452270D01*
X17755195Y20476531D01*
X17749731Y20477995D01*
X17669475Y20499500D01*
X17669474Y20499500D01*
X17524526Y20499500D01*
X17524525Y20499500D01*
X17513362Y20496510D01*
X17471702Y20485347D01*
X17471702Y20485346D01*
X17384510Y20461983D01*
X17384508Y20461983D01*
X17384504Y20461981D01*
X17258993Y20389517D01*
X17156483Y20287007D01*
X17084018Y20161495D01*
X17063042Y20083213D01*
X17046500Y20021475D01*
X11288793Y20021475D01*
X11288793Y20036022D01*
X11251277Y20176032D01*
X11251275Y20176035D01*
X11251275Y20176037D01*
X11250787Y20176882D01*
X11250736Y20177099D01*
X11249690Y20178783D01*
X11180278Y20299008D01*
X11180278Y20299007D01*
X11178805Y20301558D01*
X11178803Y20301560D01*
X11178802Y20301562D01*
X11076308Y20404056D01*
X11076305Y20404058D01*
X11076303Y20404060D01*
X11027848Y20432036D01*
X11003775Y20451530D01*
X10996150Y20459999D01*
X10971266Y20515895D01*
X10983987Y20575738D01*
X10986421Y20579954D01*
X11022656Y20616192D01*
X11080010Y20649304D01*
X11182504Y20751798D01*
X11210939Y20801048D01*
X11254977Y20877324D01*
X11254977Y20877326D01*
X11254979Y20877328D01*
X11292495Y21017338D01*
X11292495Y21162288D01*
X11292495Y21162289D01*
X11292494Y21162294D01*
X11292493Y21162296D01*
X11292493Y21162300D01*
X11292481Y21162346D01*
X11292481Y21162347D01*
X11287355Y21181475D01*
X13610553Y21181475D01*
X13610553Y21036526D01*
X13643638Y20913051D01*
X13648071Y20896507D01*
X13720538Y20770992D01*
X13720540Y20770990D01*
X13720542Y20770988D01*
X13720544Y20770985D01*
X13823038Y20668491D01*
X13823040Y20668490D01*
X13823042Y20668488D01*
X13823589Y20668093D01*
X13825591Y20667016D01*
X13948564Y20596018D01*
X13948565Y20596018D01*
X13948568Y20596016D01*
X14088578Y20558500D01*
X14088579Y20558500D01*
X14233527Y20558500D01*
X14233528Y20558500D01*
X14373538Y20596016D01*
X14373539Y20596017D01*
X14373541Y20596018D01*
X14373542Y20596018D01*
X14492933Y20664949D01*
X14495821Y20666352D01*
X14496607Y20666869D01*
X14501616Y20669963D01*
X14502915Y20670714D01*
X14508273Y20677697D01*
X14601562Y20770985D01*
X14662957Y20877324D01*
X14674035Y20896511D01*
X14674035Y20896513D01*
X14674037Y20896515D01*
X14711553Y21036525D01*
X14711553Y21181475D01*
X14674037Y21321485D01*
X14674035Y21321488D01*
X14674035Y21321490D01*
X14674030Y21321498D01*
X14673709Y21322208D01*
X14672450Y21324236D01*
X14603038Y21444461D01*
X14603038Y21444460D01*
X14601565Y21447011D01*
X14601563Y21447013D01*
X14601562Y21447015D01*
X14499068Y21549509D01*
X14499065Y21549511D01*
X14499063Y21549513D01*
X14430827Y21588909D01*
X14409794Y21612269D01*
X14343950Y21629913D01*
X14343949Y21629913D01*
X14233528Y21659500D01*
X14233526Y21659500D01*
X14088579Y21659500D01*
X14088578Y21659500D01*
X14050381Y21649265D01*
X13948558Y21621982D01*
X13823046Y21549517D01*
X13720536Y21447007D01*
X13648071Y21321495D01*
X13642926Y21302294D01*
X13610553Y21181475D01*
X11287355Y21181475D01*
X11254980Y21302294D01*
X11254979Y21302298D01*
X11254977Y21302302D01*
X11254976Y21302303D01*
X11254975Y21302307D01*
X11218909Y21364774D01*
X11182507Y21427824D01*
X11182505Y21427826D01*
X11182504Y21427828D01*
X11080010Y21530322D01*
X11080007Y21530324D01*
X11080005Y21530326D01*
X11080004Y21530327D01*
X11000680Y21576125D01*
X10976611Y21595616D01*
X10968986Y21604084D01*
X10944100Y21659977D01*
X10956818Y21719818D01*
X10959258Y21724045D01*
X10995489Y21760278D01*
X11062614Y21799032D01*
X11165108Y21901526D01*
X11202881Y21966951D01*
X11237581Y22027052D01*
X11237581Y22027054D01*
X11237583Y22027056D01*
X11275099Y22167066D01*
X11275099Y22312016D01*
X11237583Y22452026D01*
X11237581Y22452029D01*
X11237581Y22452031D01*
X11237576Y22452039D01*
X11237255Y22452749D01*
X11235996Y22454777D01*
X11166584Y22575002D01*
X11166584Y22575001D01*
X11165111Y22577552D01*
X11165109Y22577554D01*
X11165108Y22577556D01*
X11062614Y22680050D01*
X11062611Y22680052D01*
X11062609Y22680054D01*
X10994373Y22719450D01*
X10973340Y22742810D01*
X10907496Y22760454D01*
X10907495Y22760454D01*
X10797074Y22790041D01*
X10797072Y22790041D01*
X10652122Y22790041D01*
X10590387Y22773500D01*
X10590386Y22773501D01*
X10512111Y22752526D01*
X10512105Y22752523D01*
X10386595Y22680059D01*
X10386591Y22680057D01*
X10284082Y22577548D01*
X10211617Y22452035D01*
X10211614Y22452027D01*
X10211350Y22451041D01*
X10211350Y22451038D01*
X10174099Y22312015D01*
X10174099Y22167064D01*
X10190553Y22105659D01*
X10190553Y22105657D01*
X10190554Y22105657D01*
X10211617Y22027048D01*
X10284084Y21901533D01*
X10284086Y21901531D01*
X10284088Y21901529D01*
X10284090Y21901526D01*
X10386584Y21799032D01*
X10388299Y21798042D01*
X10465909Y21753233D01*
X10489979Y21733742D01*
X10497603Y21725275D01*
X10522490Y21669380D01*
X10509770Y21609532D01*
X10509769Y21609530D01*
X10507332Y21605309D01*
X10471097Y21569073D01*
X10403978Y21530321D01*
X10377380Y21503724D01*
X10339798Y21480189D01*
X10338575Y21479766D01*
X10335816Y21478886D01*
X10335343Y21478646D01*
X10331970Y21477476D01*
X10304381Y21476939D01*
X10276264Y21474795D01*
X10276045Y21474848D01*
X10273208Y21476332D01*
X10270796Y21476285D01*
X10263281Y21481525D01*
X10233575Y21497063D01*
X10227094Y21502823D01*
X10210539Y21521825D01*
X10209495Y21523387D01*
X10192040Y21549511D01*
X10173645Y21577041D01*
X10173641Y21577045D01*
X10173637Y21577050D01*
X10069109Y21681577D01*
X10034146Y21704938D01*
X10034145Y21704939D01*
X9946197Y21763705D01*
X9946181Y21763715D01*
X9944689Y21764512D01*
X9944681Y21764516D01*
X9806269Y21821846D01*
X9661275Y21850688D01*
X9661273Y21850688D01*
X9513437Y21850688D01*
X9513436Y21850688D01*
X9513433Y21850688D01*
X9368440Y21821846D01*
X9368438Y21821846D01*
X9231865Y21765276D01*
X9231853Y21765270D01*
X9108938Y21683139D01*
X9004408Y21578610D01*
X8976220Y21536424D01*
X8955195Y21513680D01*
X8944721Y21505423D01*
X8887318Y21484246D01*
X8887317Y21484246D01*
X8884415Y21484132D01*
X8825527Y21500741D01*
X8810526Y21513052D01*
X8774069Y21549508D01*
X8774063Y21549513D01*
X8707530Y21587926D01*
X8676770Y21615702D01*
X8672284Y21621914D01*
X8653544Y21680159D01*
X8666811Y21729381D01*
X8667768Y21731040D01*
X8667775Y21731048D01*
X8669441Y21733935D01*
X8705673Y21770162D01*
X8753969Y21798044D01*
X8856463Y21900538D01*
X8856466Y21900543D01*
X8928936Y22026064D01*
X8928936Y22026066D01*
X8928938Y22026068D01*
X8966454Y22166078D01*
X8966454Y22311028D01*
X8928938Y22451038D01*
X8928936Y22451041D01*
X8928936Y22451043D01*
X8928931Y22451051D01*
X8928610Y22451761D01*
X8927351Y22453789D01*
X8857939Y22574014D01*
X8857939Y22574013D01*
X8856466Y22576564D01*
X8856464Y22576566D01*
X8856463Y22576568D01*
X8753969Y22679062D01*
X8753966Y22679064D01*
X8753964Y22679066D01*
X8685728Y22718462D01*
X8664695Y22741822D01*
X8598851Y22759466D01*
X8598850Y22759466D01*
X8488429Y22789053D01*
X8488427Y22789053D01*
X8343477Y22789053D01*
X8281742Y22772512D01*
X8281741Y22772513D01*
X8203466Y22751538D01*
X8203460Y22751535D01*
X8077947Y22679070D01*
X7975437Y22576560D01*
X7902972Y22451048D01*
X7881996Y22372766D01*
X7865454Y22311028D01*
X500500Y22311028D01*
X500500Y23471475D01*
X9030552Y23471475D01*
X9030552Y23326526D01*
X9063637Y23203051D01*
X9068070Y23186507D01*
X9140537Y23060992D01*
X9140539Y23060990D01*
X9140541Y23060988D01*
X9140543Y23060985D01*
X9243037Y22958491D01*
X9243039Y22958490D01*
X9243041Y22958488D01*
X9243588Y22958093D01*
X9245590Y22957016D01*
X9368563Y22886018D01*
X9368564Y22886018D01*
X9368567Y22886016D01*
X9508577Y22848500D01*
X9508578Y22848500D01*
X9653526Y22848500D01*
X9653527Y22848500D01*
X9793537Y22886016D01*
X9793538Y22886017D01*
X9793540Y22886018D01*
X9793541Y22886018D01*
X9912932Y22954949D01*
X9915820Y22956352D01*
X9916606Y22956869D01*
X9921615Y22959963D01*
X9922914Y22960714D01*
X9928272Y22967697D01*
X10021561Y23060985D01*
X10021565Y23060992D01*
X10094034Y23186511D01*
X10094034Y23186513D01*
X10094036Y23186515D01*
X10131552Y23326525D01*
X10131552Y23471475D01*
X10094036Y23611485D01*
X10094034Y23611488D01*
X10094034Y23611490D01*
X10094029Y23611498D01*
X10093708Y23612208D01*
X10092449Y23614236D01*
X10023037Y23734461D01*
X10023037Y23734460D01*
X10021564Y23737011D01*
X10021562Y23737013D01*
X10021561Y23737015D01*
X9919067Y23839509D01*
X9919064Y23839511D01*
X9919062Y23839513D01*
X9850826Y23878909D01*
X9829793Y23902269D01*
X9763949Y23919913D01*
X9763948Y23919913D01*
X9653527Y23949500D01*
X9653525Y23949500D01*
X9508575Y23949500D01*
X9446840Y23932959D01*
X9446839Y23932960D01*
X9368564Y23911985D01*
X9368558Y23911982D01*
X9243045Y23839517D01*
X9140535Y23737007D01*
X9068070Y23611495D01*
X9047094Y23533213D01*
X9030552Y23471475D01*
X500500Y23471475D01*
X500500Y26747273D01*
X507889Y26770018D01*
X507887Y26785689D01*
X507887Y26785692D01*
X517106Y26798385D01*
X519407Y26805464D01*
X521632Y26808409D01*
X526477Y26814580D01*
X528000Y26813384D01*
X543843Y26835196D01*
X602030Y26854113D01*
X660224Y26835216D01*
X662522Y26833547D01*
X692555Y26798389D01*
X777174Y26632314D01*
X777178Y26632308D01*
X777180Y26632305D01*
X777184Y26632299D01*
X854848Y26525405D01*
X854849Y26525404D01*
X854850Y26525404D01*
X1399367Y27069923D01*
X1453882Y27097698D01*
X1514314Y27088127D01*
X1551684Y27054919D01*
X1584433Y27005907D01*
X1584434Y27005906D01*
X1584437Y27005902D01*
X1688903Y26901436D01*
X1737916Y26868687D01*
X1775795Y26820639D01*
X1778197Y26759500D01*
X1752918Y26716369D01*
X1208403Y26171852D01*
X1208403Y26171850D01*
X1313441Y26095534D01*
X1315308Y26094178D01*
X1315314Y26094174D01*
X1518081Y25990859D01*
X1543139Y25972654D01*
X1552573Y25963220D01*
X1580350Y25908704D01*
X1580685Y25906589D01*
X1575092Y25855013D01*
X1573332Y25850517D01*
X1563460Y25831604D01*
X1501913Y25739492D01*
X1445343Y25602918D01*
X1445342Y25602912D01*
X1416500Y25457920D01*
X1416500Y25457918D01*
X1416500Y25457917D01*
X1416500Y25310081D01*
X1445342Y25165086D01*
X1501916Y25028504D01*
X1584049Y24905583D01*
X1688584Y24801048D01*
X1811505Y24718915D01*
X1948087Y24662341D01*
X2093082Y24633499D01*
X2093083Y24633499D01*
X2240917Y24633499D01*
X2240918Y24633499D01*
X2385913Y24662341D01*
X2522495Y24718915D01*
X2645416Y24801048D01*
X2749951Y24905583D01*
X2780615Y24951475D01*
X6406500Y24951475D01*
X6406500Y24806526D01*
X6439585Y24683051D01*
X6444018Y24666507D01*
X6516485Y24540992D01*
X6516487Y24540990D01*
X6516489Y24540988D01*
X6516491Y24540985D01*
X6618985Y24438491D01*
X6618987Y24438490D01*
X6618989Y24438488D01*
X6619536Y24438093D01*
X6621538Y24437016D01*
X6744511Y24366018D01*
X6744512Y24366018D01*
X6744515Y24366016D01*
X6884525Y24328500D01*
X6884526Y24328500D01*
X7029474Y24328500D01*
X7029475Y24328500D01*
X7169485Y24366016D01*
X7169486Y24366017D01*
X7169488Y24366018D01*
X7169489Y24366018D01*
X7288880Y24434949D01*
X7291768Y24436352D01*
X7292554Y24436869D01*
X7297563Y24439963D01*
X7298862Y24440714D01*
X7304220Y24447697D01*
X7397509Y24540985D01*
X7467575Y24662342D01*
X7469982Y24666511D01*
X7469982Y24666513D01*
X7469984Y24666515D01*
X7507500Y24806525D01*
X7507500Y24951475D01*
X7469984Y25091485D01*
X7469982Y25091488D01*
X7469982Y25091490D01*
X7469977Y25091498D01*
X7469656Y25092208D01*
X7468397Y25094236D01*
X7398985Y25214461D01*
X7398985Y25214460D01*
X7397512Y25217011D01*
X7397510Y25217013D01*
X7397509Y25217015D01*
X7295015Y25319509D01*
X7295012Y25319511D01*
X7295010Y25319513D01*
X7226774Y25358909D01*
X7205741Y25382269D01*
X7139897Y25399913D01*
X7139896Y25399913D01*
X7029475Y25429500D01*
X7029473Y25429500D01*
X6884523Y25429500D01*
X6822788Y25412959D01*
X6822787Y25412960D01*
X6744512Y25391985D01*
X6744506Y25391982D01*
X6618993Y25319517D01*
X6516483Y25217007D01*
X6444018Y25091495D01*
X6427140Y25028506D01*
X6406500Y24951475D01*
X2780615Y24951475D01*
X2832084Y25028504D01*
X2888658Y25165086D01*
X2917500Y25310081D01*
X2917500Y25457917D01*
X2888658Y25602912D01*
X2832084Y25739494D01*
X2773284Y25827494D01*
X2760317Y25855623D01*
X2756697Y25868459D01*
X2759098Y25929594D01*
X2759843Y25931614D01*
X2789918Y25973870D01*
X2793651Y25976934D01*
X2811500Y25988609D01*
X3018685Y26094174D01*
X3018690Y26094178D01*
X3018700Y26094186D01*
X3019245Y26094536D01*
X3020506Y26095498D01*
X3125595Y26171850D01*
X2581079Y26716366D01*
X2553302Y26770883D01*
X2562873Y26831315D01*
X2596083Y26868686D01*
X2645091Y26901432D01*
X2645090Y26901432D01*
X2645097Y26901436D01*
X2749563Y27005902D01*
X2782313Y27054916D01*
X2830362Y27092797D01*
X2891500Y27095199D01*
X2934633Y27069920D01*
X3479148Y26525405D01*
X3479149Y26525404D01*
X3555501Y26630493D01*
X3556463Y26631754D01*
X3556818Y26632305D01*
X3556821Y26632309D01*
X3556825Y26632314D01*
X3672947Y26860217D01*
X3751987Y27103480D01*
X3792000Y27356106D01*
X3792000Y27611893D01*
X3786600Y27645985D01*
X3751987Y27864517D01*
X3751987Y27864519D01*
X3672947Y28107782D01*
X3556825Y28335685D01*
X3556821Y28335691D01*
X3556814Y28335701D01*
X3479150Y28442596D01*
X3479149Y28442596D01*
X3479148Y28442596D01*
X3479147Y28442596D01*
X2934630Y27898081D01*
X2880114Y27870304D01*
X2819682Y27879875D01*
X2782312Y27913083D01*
X2749563Y27962096D01*
X2645097Y28066562D01*
X2645093Y28066565D01*
X2645092Y28066566D01*
X2596080Y28099315D01*
X2558201Y28147365D01*
X2555799Y28208503D01*
X2581076Y28251632D01*
X3125595Y28796149D01*
X3125595Y28796150D01*
X3125594Y28796151D01*
X3018700Y28873815D01*
X3018694Y28873819D01*
X3018688Y28873823D01*
X3018685Y28873825D01*
X2790782Y28989947D01*
X2790781Y28989948D01*
X2790780Y28989948D01*
X2547516Y29068988D01*
X2413693Y29090183D01*
X2294896Y29108999D01*
X2294893Y29108999D01*
X2039107Y29108999D01*
X2039104Y29108999D01*
X1786482Y29068988D01*
X1543217Y28989948D01*
X1315587Y28873965D01*
X1315328Y28873835D01*
X1315321Y28873831D01*
X1208403Y28796150D01*
X1752920Y28251633D01*
X1780697Y28197116D01*
X1771126Y28136684D01*
X1737918Y28099314D01*
X1688907Y28066566D01*
X1584433Y27962092D01*
X1551685Y27913081D01*
X1503635Y27875202D01*
X1442496Y27872800D01*
X1399366Y27898079D01*
X854849Y28442596D01*
X777168Y28335678D01*
X777164Y28335671D01*
X777034Y28335412D01*
X694829Y28174074D01*
X676623Y28149015D01*
X670793Y28143185D01*
X616276Y28115408D01*
X555844Y28124979D01*
X512579Y28168244D01*
X512571Y28168261D01*
X511282Y28170792D01*
X500500Y28215720D01*
X500500Y29181475D01*
X7901500Y29181475D01*
X7901500Y29036526D01*
X7913981Y28989948D01*
X7939018Y28896507D01*
X8011485Y28770992D01*
X8011487Y28770990D01*
X8011489Y28770988D01*
X8011491Y28770985D01*
X8113985Y28668491D01*
X8113987Y28668490D01*
X8113989Y28668488D01*
X8114536Y28668094D01*
X8116530Y28667021D01*
X8161369Y28641133D01*
X8185434Y28621647D01*
X8193058Y28613180D01*
X8217949Y28557287D01*
X8205232Y28497438D01*
X8205227Y28497429D01*
X8202791Y28493210D01*
X8166556Y28456976D01*
X8118991Y28429515D01*
X8016483Y28327007D01*
X7944018Y28201495D01*
X7923516Y28124979D01*
X7907863Y28066562D01*
X7906500Y28061475D01*
X7906500Y27916525D01*
X7936087Y27806104D01*
X7940665Y27789018D01*
X7944017Y27776509D01*
X7944018Y27776508D01*
X8016485Y27650992D01*
X8016487Y27650990D01*
X8016489Y27650988D01*
X8016491Y27650985D01*
X8118985Y27548491D01*
X8118987Y27548490D01*
X8118989Y27548488D01*
X8119536Y27548093D01*
X8121538Y27547016D01*
X8244511Y27476018D01*
X8244512Y27476018D01*
X8244515Y27476016D01*
X8384525Y27438500D01*
X8384526Y27438500D01*
X8529474Y27438500D01*
X8529475Y27438500D01*
X8669485Y27476016D01*
X8669486Y27476017D01*
X8669488Y27476018D01*
X8669489Y27476018D01*
X8788880Y27544949D01*
X8791768Y27546352D01*
X8792554Y27546869D01*
X8797563Y27549963D01*
X8798862Y27550714D01*
X8804220Y27557697D01*
X8897509Y27650985D01*
X8926509Y27701216D01*
X8945995Y27725278D01*
X8954469Y27732908D01*
X9010365Y27757791D01*
X9070196Y27745077D01*
X9074420Y27742638D01*
X9110662Y27706400D01*
X9142650Y27650996D01*
X9145540Y27645990D01*
X9145542Y27645988D01*
X9145544Y27645985D01*
X9248038Y27543491D01*
X9248040Y27543490D01*
X9248042Y27543488D01*
X9248589Y27543093D01*
X9250591Y27542016D01*
X9373564Y27471018D01*
X9373565Y27471018D01*
X9373568Y27471016D01*
X9513578Y27433500D01*
X9513579Y27433500D01*
X9658527Y27433500D01*
X9658528Y27433500D01*
X9798538Y27471016D01*
X9798539Y27471017D01*
X9798541Y27471018D01*
X9798542Y27471018D01*
X9917933Y27539949D01*
X9920821Y27541352D01*
X9921607Y27541869D01*
X9926616Y27544963D01*
X9927915Y27545714D01*
X9933273Y27552697D01*
X10026562Y27645985D01*
X10069396Y27720178D01*
X10088880Y27744239D01*
X10097353Y27751868D01*
X10153245Y27776753D01*
X10213085Y27764036D01*
X10217310Y27761597D01*
X10253550Y27725359D01*
X10296484Y27650996D01*
X10296486Y27650992D01*
X10296488Y27650989D01*
X10296489Y27650988D01*
X10296491Y27650985D01*
X10398985Y27548491D01*
X10398987Y27548490D01*
X10398989Y27548488D01*
X10399536Y27548093D01*
X10401538Y27547016D01*
X10524511Y27476018D01*
X10524512Y27476018D01*
X10524515Y27476016D01*
X10664525Y27438500D01*
X10664526Y27438500D01*
X10809474Y27438500D01*
X10809475Y27438500D01*
X10949485Y27476016D01*
X10949486Y27476017D01*
X10949488Y27476018D01*
X10949489Y27476018D01*
X11068880Y27544949D01*
X11071768Y27546352D01*
X11072554Y27546869D01*
X11077563Y27549963D01*
X11078862Y27550714D01*
X11084220Y27557697D01*
X11177509Y27650985D01*
X11203424Y27695874D01*
X11222908Y27719936D01*
X11231379Y27727563D01*
X11287269Y27752451D01*
X11347115Y27739735D01*
X11347133Y27739725D01*
X11351353Y27737288D01*
X11387580Y27701058D01*
X11416471Y27651019D01*
X11416489Y27650987D01*
X11416491Y27650984D01*
X11518985Y27548490D01*
X11518987Y27548489D01*
X11518989Y27548487D01*
X11519536Y27548092D01*
X11521538Y27547015D01*
X11644511Y27476017D01*
X11644512Y27476017D01*
X11644515Y27476015D01*
X11784525Y27438499D01*
X11784526Y27438499D01*
X11929474Y27438499D01*
X11929475Y27438499D01*
X12069485Y27476015D01*
X12069486Y27476016D01*
X12069488Y27476017D01*
X12069489Y27476017D01*
X12188880Y27544948D01*
X12191768Y27546351D01*
X12192554Y27546868D01*
X12197563Y27549962D01*
X12198862Y27550713D01*
X12204220Y27557696D01*
X12297509Y27650984D01*
X12297512Y27650989D01*
X12369982Y27776510D01*
X12369982Y27776512D01*
X12369984Y27776514D01*
X12407500Y27916524D01*
X12407500Y28061474D01*
X12369984Y28201484D01*
X12369982Y28201487D01*
X12369982Y28201489D01*
X12369977Y28201497D01*
X12369656Y28202207D01*
X12368397Y28204235D01*
X12298985Y28324460D01*
X12298985Y28324459D01*
X12297512Y28327010D01*
X12297510Y28327012D01*
X12297509Y28327014D01*
X12195015Y28429508D01*
X12195012Y28429510D01*
X12195010Y28429512D01*
X12195009Y28429513D01*
X12126775Y28468908D01*
X12105741Y28492269D01*
X11976222Y28526973D01*
X11948131Y28534500D01*
X11929475Y28539499D01*
X11929474Y28539499D01*
X11784526Y28539499D01*
X11784525Y28539499D01*
X11765869Y28534500D01*
X11644505Y28501981D01*
X11518993Y28429516D01*
X11416489Y28327012D01*
X11390575Y28282128D01*
X11371079Y28258055D01*
X11362613Y28250433D01*
X11306716Y28225550D01*
X11246871Y28238273D01*
X11242652Y28240709D01*
X11206418Y28276944D01*
X11178980Y28324468D01*
X11177907Y28326463D01*
X11177512Y28327011D01*
X11177510Y28327013D01*
X11177509Y28327015D01*
X11075015Y28429509D01*
X11075012Y28429511D01*
X11075010Y28429513D01*
X11075009Y28429514D01*
X11006775Y28468909D01*
X10985741Y28492270D01*
X10918905Y28510178D01*
X10889862Y28517960D01*
X10809475Y28539500D01*
X10809474Y28539500D01*
X10664526Y28539500D01*
X10664525Y28539500D01*
X10654646Y28536853D01*
X10617774Y28526974D01*
X10617774Y28526973D01*
X10524510Y28501983D01*
X10524508Y28501983D01*
X10524504Y28501981D01*
X10398993Y28429517D01*
X10296486Y28327010D01*
X10253658Y28252831D01*
X10234167Y28228762D01*
X10225700Y28221138D01*
X10169805Y28196251D01*
X10109960Y28208969D01*
X10105739Y28211406D01*
X10069502Y28247642D01*
X10028037Y28319462D01*
X10026961Y28321461D01*
X10026565Y28322011D01*
X10026563Y28322013D01*
X10026562Y28322015D01*
X9924068Y28424509D01*
X9924065Y28424511D01*
X9924063Y28424513D01*
X9924062Y28424514D01*
X9855828Y28463909D01*
X9834794Y28487270D01*
X9749298Y28510178D01*
X9720255Y28517960D01*
X9658528Y28534500D01*
X9658527Y28534500D01*
X9513576Y28534500D01*
X9451841Y28517959D01*
X9451840Y28517960D01*
X9373565Y28496985D01*
X9373559Y28496982D01*
X9248046Y28424517D01*
X9145538Y28322009D01*
X9116543Y28271789D01*
X9097052Y28247720D01*
X9088587Y28240098D01*
X9032692Y28215211D01*
X8972849Y28227929D01*
X8968629Y28230365D01*
X8932387Y28266605D01*
X8901870Y28319462D01*
X8897509Y28327015D01*
X8795015Y28429509D01*
X8795010Y28429512D01*
X8795001Y28429517D01*
X8747629Y28456868D01*
X8723556Y28476364D01*
X8715933Y28484831D01*
X8691049Y28540727D01*
X8703766Y28600562D01*
X8706207Y28604790D01*
X8742443Y28641027D01*
X8790015Y28668491D01*
X8892509Y28770985D01*
X8892512Y28770990D01*
X8964982Y28896511D01*
X8964982Y28896513D01*
X8964984Y28896515D01*
X9002500Y29036525D01*
X9002500Y29181475D01*
X8964984Y29321485D01*
X8964982Y29321488D01*
X8964982Y29321490D01*
X8964977Y29321498D01*
X8964656Y29322208D01*
X8963397Y29324236D01*
X8893985Y29444461D01*
X8893985Y29444460D01*
X8892512Y29447011D01*
X8892510Y29447013D01*
X8892509Y29447015D01*
X8790015Y29549509D01*
X8790012Y29549511D01*
X8790010Y29549513D01*
X8721774Y29588909D01*
X8700741Y29612269D01*
X8634897Y29629913D01*
X8634896Y29629913D01*
X8524475Y29659500D01*
X8524473Y29659500D01*
X8379523Y29659500D01*
X8317788Y29642959D01*
X8317787Y29642960D01*
X8239512Y29621985D01*
X8239506Y29621982D01*
X8113993Y29549517D01*
X8011483Y29447007D01*
X7939018Y29321495D01*
X7918042Y29243213D01*
X7901500Y29181475D01*
X500500Y29181475D01*
X500500Y30681475D01*
X15816500Y30681475D01*
X15816500Y30536526D01*
X15849585Y30413051D01*
X15854018Y30396507D01*
X15926485Y30270992D01*
X15926487Y30270990D01*
X15926489Y30270988D01*
X15926491Y30270985D01*
X16028985Y30168491D01*
X16028987Y30168490D01*
X16028989Y30168488D01*
X16029536Y30168093D01*
X16031538Y30167016D01*
X16154511Y30096018D01*
X16154512Y30096018D01*
X16154515Y30096016D01*
X16294525Y30058500D01*
X16294526Y30058500D01*
X16439474Y30058500D01*
X16439475Y30058500D01*
X16579485Y30096016D01*
X16579486Y30096017D01*
X16579488Y30096018D01*
X16579489Y30096018D01*
X16698880Y30164949D01*
X16701768Y30166352D01*
X16702554Y30166869D01*
X16707563Y30169963D01*
X16708862Y30170714D01*
X16714220Y30177697D01*
X16807509Y30270985D01*
X16807513Y30270992D01*
X16879982Y30396511D01*
X16879982Y30396513D01*
X16879984Y30396515D01*
X16917500Y30536525D01*
X16917500Y30681475D01*
X16879984Y30821485D01*
X16879982Y30821488D01*
X16879982Y30821490D01*
X16879977Y30821498D01*
X16879656Y30822208D01*
X16878397Y30824236D01*
X16808985Y30944461D01*
X16808985Y30944460D01*
X16807512Y30947011D01*
X16807510Y30947013D01*
X16807509Y30947015D01*
X16705015Y31049509D01*
X16705012Y31049511D01*
X16705010Y31049513D01*
X16636774Y31088909D01*
X16615741Y31112269D01*
X16549897Y31129913D01*
X16549896Y31129913D01*
X16439475Y31159500D01*
X16439473Y31159500D01*
X16294523Y31159500D01*
X16232788Y31142959D01*
X16232787Y31142960D01*
X16154512Y31121985D01*
X16154506Y31121982D01*
X16028993Y31049517D01*
X15926483Y30947007D01*
X15854018Y30821495D01*
X15833042Y30743213D01*
X15816500Y30681475D01*
X500500Y30681475D01*
X500500Y31652922D01*
X1356501Y31652922D01*
X1356501Y31505083D01*
X1385343Y31360087D01*
X1441916Y31223508D01*
X1441917Y31223506D01*
X1524050Y31100585D01*
X1628585Y30996050D01*
X1751506Y30913917D01*
X1888088Y30857343D01*
X2033083Y30828501D01*
X2033084Y30828501D01*
X2180918Y30828501D01*
X2180919Y30828501D01*
X2325914Y30857343D01*
X2462496Y30913917D01*
X2585417Y30996050D01*
X2689952Y31100585D01*
X2772085Y31223506D01*
X2828659Y31360088D01*
X2857501Y31505083D01*
X2857501Y31506128D01*
X18194701Y31506128D01*
X18194701Y31361178D01*
X18224288Y31250757D01*
X18228866Y31233671D01*
X18232218Y31221162D01*
X18232219Y31221161D01*
X18304686Y31095645D01*
X18304688Y31095643D01*
X18304690Y31095641D01*
X18304692Y31095638D01*
X18407186Y30993144D01*
X18407188Y30993143D01*
X18407190Y30993141D01*
X18407737Y30992746D01*
X18409739Y30991669D01*
X18532712Y30920671D01*
X18532713Y30920671D01*
X18532716Y30920669D01*
X18672726Y30883153D01*
X18672727Y30883153D01*
X18817675Y30883153D01*
X18817676Y30883153D01*
X18957686Y30920669D01*
X18957687Y30920670D01*
X18957689Y30920671D01*
X18957690Y30920671D01*
X19077081Y30989602D01*
X19079969Y30991005D01*
X19080755Y30991522D01*
X19085764Y30994616D01*
X19087063Y30995367D01*
X19092421Y31002350D01*
X19185710Y31095638D01*
X19200920Y31121983D01*
X19258183Y31221164D01*
X19258183Y31221166D01*
X19258185Y31221168D01*
X19295701Y31361178D01*
X19295701Y31506128D01*
X19258185Y31646138D01*
X19258183Y31646141D01*
X19258183Y31646143D01*
X19258178Y31646151D01*
X19257857Y31646861D01*
X19256598Y31648889D01*
X19187186Y31769114D01*
X19187186Y31769113D01*
X19185713Y31771664D01*
X19185711Y31771666D01*
X19185710Y31771668D01*
X19083216Y31874162D01*
X19083213Y31874164D01*
X19083211Y31874166D01*
X19014975Y31913562D01*
X18993942Y31936922D01*
X18928098Y31954566D01*
X18928097Y31954566D01*
X18817676Y31984153D01*
X18817674Y31984153D01*
X18672724Y31984153D01*
X18610989Y31967612D01*
X18610988Y31967613D01*
X18532713Y31946638D01*
X18532707Y31946635D01*
X18407194Y31874170D01*
X18304684Y31771660D01*
X18232826Y31647199D01*
X18232825Y31647196D01*
X18232218Y31646143D01*
X18232217Y31646138D01*
X18194701Y31506128D01*
X2857501Y31506128D01*
X2857501Y31652919D01*
X2828659Y31797914D01*
X2772085Y31934496D01*
X2689952Y32057417D01*
X2585417Y32161952D01*
X2462496Y32244085D01*
X2462494Y32244086D01*
X2325915Y32300659D01*
X2325913Y32300660D01*
X2180921Y32329501D01*
X2180919Y32329501D01*
X2033083Y32329501D01*
X2033082Y32329501D01*
X2033079Y32329501D01*
X1888086Y32300659D01*
X1888084Y32300659D01*
X1751511Y32244089D01*
X1751499Y32244083D01*
X1628587Y32161954D01*
X1524048Y32057415D01*
X1441919Y31934503D01*
X1441913Y31934491D01*
X1385343Y31797916D01*
X1385342Y31797915D01*
X1385343Y31797914D01*
X1356501Y31652922D01*
X500500Y31652922D01*
X500500Y32508275D01*
X12657501Y32508275D01*
X12657501Y32363325D01*
X12687088Y32252904D01*
X12689452Y32244083D01*
X12695018Y32223309D01*
X12695019Y32223308D01*
X12767486Y32097792D01*
X12767488Y32097790D01*
X12767490Y32097788D01*
X12767492Y32097785D01*
X12869986Y31995291D01*
X12869988Y31995290D01*
X12869990Y31995288D01*
X12870537Y31994893D01*
X12872539Y31993816D01*
X12995512Y31922818D01*
X12995513Y31922818D01*
X12995516Y31922816D01*
X13135526Y31885300D01*
X13135527Y31885300D01*
X13280475Y31885300D01*
X13280476Y31885300D01*
X13420486Y31922816D01*
X13420487Y31922817D01*
X13420489Y31922818D01*
X13420490Y31922818D01*
X13539881Y31991749D01*
X13542769Y31993152D01*
X13543555Y31993669D01*
X13548564Y31996763D01*
X13549863Y31997514D01*
X13555221Y32004497D01*
X13648510Y32097785D01*
X13720985Y32223315D01*
X13758501Y32363325D01*
X13758501Y32508275D01*
X13720985Y32648285D01*
X13720983Y32648288D01*
X13720983Y32648290D01*
X13720978Y32648298D01*
X13720657Y32649008D01*
X13719398Y32651036D01*
X13649986Y32771261D01*
X13649986Y32771260D01*
X13648513Y32773811D01*
X13648511Y32773813D01*
X13648510Y32773815D01*
X13546016Y32876309D01*
X13546013Y32876311D01*
X13546011Y32876313D01*
X13477775Y32915709D01*
X13456742Y32939069D01*
X13390898Y32956713D01*
X13390897Y32956713D01*
X13280476Y32986300D01*
X13280474Y32986300D01*
X13135524Y32986300D01*
X13073789Y32969759D01*
X13073788Y32969760D01*
X12995513Y32948785D01*
X12995507Y32948782D01*
X12869994Y32876317D01*
X12767484Y32773807D01*
X12695626Y32649346D01*
X12695625Y32649343D01*
X12695018Y32648290D01*
X12695017Y32648285D01*
X12657501Y32508275D01*
X500500Y32508275D01*
X500500Y34192922D01*
X3896501Y34192922D01*
X3896501Y34045080D01*
X3925342Y33900089D01*
X3925344Y33900083D01*
X3965278Y33803675D01*
X3981916Y33763507D01*
X3981920Y33763498D01*
X4050330Y33661118D01*
X4064050Y33640584D01*
X4168585Y33536049D01*
X4291506Y33453916D01*
X4428088Y33397342D01*
X4573083Y33368500D01*
X4573084Y33368500D01*
X4720918Y33368500D01*
X4720919Y33368500D01*
X4865914Y33397342D01*
X5002496Y33453916D01*
X5125417Y33536049D01*
X5229952Y33640584D01*
X5312085Y33763505D01*
X5328724Y33803675D01*
X11311301Y33803675D01*
X11311301Y33658725D01*
X11311902Y33656482D01*
X11311902Y33656480D01*
X11316161Y33640586D01*
X11316161Y33640585D01*
X11316162Y33640585D01*
X11316162Y33640584D01*
X11348818Y33518711D01*
X11348819Y33518709D01*
X11348820Y33518706D01*
X11421286Y33393192D01*
X11421288Y33393190D01*
X11421290Y33393188D01*
X11421292Y33393185D01*
X11523786Y33290691D01*
X11523788Y33290690D01*
X11523790Y33290688D01*
X11524337Y33290293D01*
X11526339Y33289216D01*
X11649312Y33218218D01*
X11649313Y33218218D01*
X11649316Y33218216D01*
X11789326Y33180700D01*
X11789327Y33180700D01*
X11934275Y33180700D01*
X11934276Y33180700D01*
X12074286Y33218216D01*
X12074287Y33218217D01*
X12074289Y33218218D01*
X12074290Y33218218D01*
X12193681Y33287149D01*
X12196569Y33288552D01*
X12197355Y33289069D01*
X12202364Y33292163D01*
X12203663Y33292914D01*
X12209021Y33299897D01*
X12302310Y33393185D01*
X12304711Y33397343D01*
X12374783Y33518711D01*
X12374783Y33518713D01*
X12374785Y33518715D01*
X12412301Y33658725D01*
X12412301Y33803675D01*
X12374785Y33943685D01*
X12374784Y33943686D01*
X12374784Y33943688D01*
X12374763Y33943736D01*
X12374374Y33944398D01*
X12360398Y33968605D01*
X12360397Y33968607D01*
X12360396Y33968609D01*
X12334625Y34013245D01*
X17233500Y34013245D01*
X17233500Y33855556D01*
X17251810Y33763506D01*
X17262361Y33710467D01*
X17262361Y33710463D01*
X17264262Y33700901D01*
X17324600Y33555231D01*
X17324613Y33555208D01*
X17348984Y33518735D01*
X17348998Y33518715D01*
X17349001Y33518711D01*
X17412211Y33424111D01*
X17412214Y33424108D01*
X17412218Y33424103D01*
X17523707Y33312615D01*
X17523711Y33312611D01*
X17601876Y33260383D01*
X17654814Y33225010D01*
X17654825Y33225004D01*
X17708638Y33202715D01*
X17713296Y33200786D01*
X17713299Y33200784D01*
X17756494Y33182892D01*
X17800503Y33164663D01*
X17955158Y33133900D01*
X17955159Y33133900D01*
X18112841Y33133900D01*
X18112842Y33133900D01*
X18267497Y33164663D01*
X18413179Y33225006D01*
X18544289Y33312611D01*
X18655789Y33424111D01*
X18743394Y33555221D01*
X18803737Y33700903D01*
X18834500Y33855558D01*
X18834500Y34013242D01*
X18834499Y34013245D01*
X19773500Y34013245D01*
X19773500Y33855556D01*
X19791810Y33763506D01*
X19802361Y33710467D01*
X19802361Y33710463D01*
X19804262Y33700901D01*
X19864600Y33555231D01*
X19864613Y33555208D01*
X19888984Y33518735D01*
X19888998Y33518715D01*
X19889001Y33518711D01*
X19952211Y33424111D01*
X19952214Y33424108D01*
X19952218Y33424103D01*
X20063707Y33312615D01*
X20063711Y33312611D01*
X20141876Y33260383D01*
X20194814Y33225010D01*
X20194825Y33225004D01*
X20248638Y33202715D01*
X20253296Y33200786D01*
X20253299Y33200784D01*
X20296494Y33182892D01*
X20340503Y33164663D01*
X20495158Y33133900D01*
X20495159Y33133900D01*
X20652841Y33133900D01*
X20652842Y33133900D01*
X20807497Y33164663D01*
X20953179Y33225006D01*
X21084289Y33312611D01*
X21195789Y33424111D01*
X21283394Y33555221D01*
X21343737Y33700903D01*
X21374500Y33855558D01*
X21374500Y34013242D01*
X21343737Y34167897D01*
X21283394Y34313579D01*
X21283393Y34313581D01*
X21283390Y34313586D01*
X21248017Y34366524D01*
X21195789Y34444689D01*
X21165976Y34474502D01*
X21084291Y34556188D01*
X21022589Y34597416D01*
X20953192Y34643787D01*
X20953169Y34643800D01*
X20807498Y34704137D01*
X20652844Y34734900D01*
X20652842Y34734900D01*
X20495158Y34734900D01*
X20495155Y34734900D01*
X20495154Y34734900D01*
X20430680Y34722075D01*
X20350065Y34706039D01*
X20350058Y34706039D01*
X20340499Y34704138D01*
X20194829Y34643800D01*
X20194806Y34643787D01*
X20063711Y34556190D01*
X19952210Y34444689D01*
X19864613Y34313594D01*
X19864600Y34313571D01*
X19804906Y34169456D01*
X19804905Y34169450D01*
X19804263Y34167899D01*
X19804263Y34167897D01*
X19773500Y34013245D01*
X18834499Y34013245D01*
X18823367Y34069211D01*
X18803737Y34167897D01*
X18743394Y34313579D01*
X18743393Y34313581D01*
X18743390Y34313586D01*
X18708017Y34366524D01*
X18655789Y34444689D01*
X18625976Y34474502D01*
X18544291Y34556188D01*
X18482589Y34597416D01*
X18413192Y34643787D01*
X18413169Y34643800D01*
X18267498Y34704137D01*
X18112844Y34734900D01*
X18112842Y34734900D01*
X17955158Y34734900D01*
X17955155Y34734900D01*
X17955154Y34734900D01*
X17890680Y34722075D01*
X17810065Y34706039D01*
X17810058Y34706039D01*
X17800499Y34704138D01*
X17654829Y34643800D01*
X17654806Y34643787D01*
X17523711Y34556190D01*
X17412210Y34444689D01*
X17324613Y34313594D01*
X17324600Y34313571D01*
X17264264Y34167904D01*
X17264264Y34167903D01*
X17264263Y34167896D01*
X17239833Y34045080D01*
X17233500Y34013245D01*
X12334625Y34013245D01*
X12302313Y34069211D01*
X12302311Y34069213D01*
X12302310Y34069215D01*
X12199816Y34171709D01*
X12199813Y34171711D01*
X12199811Y34171713D01*
X12131575Y34211109D01*
X12110542Y34234469D01*
X12044698Y34252113D01*
X12044697Y34252113D01*
X11934276Y34281700D01*
X11934274Y34281700D01*
X11789324Y34281700D01*
X11727589Y34265159D01*
X11727588Y34265160D01*
X11649313Y34244185D01*
X11649307Y34244182D01*
X11523794Y34171717D01*
X11421284Y34069207D01*
X11348819Y33943695D01*
X11327599Y33864499D01*
X11325204Y33855560D01*
X11311301Y33803675D01*
X5328724Y33803675D01*
X5368659Y33900087D01*
X5397501Y34045082D01*
X5397501Y34192918D01*
X5368659Y34337913D01*
X5312085Y34474495D01*
X5229952Y34597416D01*
X5125417Y34701951D01*
X5002496Y34784084D01*
X5002494Y34784085D01*
X4865915Y34840658D01*
X4865913Y34840659D01*
X4720921Y34869500D01*
X4720919Y34869500D01*
X4573083Y34869500D01*
X4573082Y34869500D01*
X4573079Y34869500D01*
X4428086Y34840658D01*
X4428084Y34840658D01*
X4291511Y34784088D01*
X4291499Y34784082D01*
X4168587Y34701953D01*
X4064048Y34597414D01*
X3981919Y34474502D01*
X3981913Y34474490D01*
X3925343Y34337917D01*
X3925343Y34337915D01*
X3896501Y34192922D01*
X500500Y34192922D01*
X500500Y36732921D01*
X1356501Y36732921D01*
X1356501Y36732919D01*
X1356501Y36732918D01*
X1356501Y36585082D01*
X1385343Y36440087D01*
X1441917Y36303505D01*
X1524050Y36180584D01*
X1628585Y36076049D01*
X1751506Y35993916D01*
X1888088Y35937342D01*
X2033083Y35908500D01*
X2033084Y35908500D01*
X2180918Y35908500D01*
X2180919Y35908500D01*
X2325914Y35937342D01*
X2462496Y35993916D01*
X2585417Y36076049D01*
X2689952Y36180584D01*
X2772085Y36303505D01*
X2828659Y36440087D01*
X2857501Y36585082D01*
X2857501Y36732918D01*
X2828659Y36877913D01*
X2772085Y37014495D01*
X2689952Y37137416D01*
X2585417Y37241951D01*
X2462496Y37324084D01*
X2462494Y37324085D01*
X2325915Y37380658D01*
X2325913Y37380659D01*
X2180921Y37409500D01*
X2180919Y37409500D01*
X2033083Y37409500D01*
X2033082Y37409500D01*
X2033079Y37409500D01*
X1888086Y37380658D01*
X1888084Y37380658D01*
X1751511Y37324088D01*
X1751499Y37324082D01*
X1628587Y37241953D01*
X1524048Y37137414D01*
X1441919Y37014502D01*
X1441913Y37014490D01*
X1385343Y36877915D01*
X1385342Y36877914D01*
X1385343Y36877913D01*
X1356501Y36732921D01*
X500500Y36732921D01*
X500500Y41018927D01*
X1054502Y41018927D01*
X1054502Y40851383D01*
X1070296Y40771983D01*
X1087185Y40687075D01*
X1087186Y40687072D01*
X1087188Y40687067D01*
X1151296Y40532295D01*
X1151297Y40532293D01*
X1151298Y40532292D01*
X1151299Y40532291D01*
X1244376Y40392992D01*
X1362840Y40274528D01*
X1502139Y40181451D01*
X1656920Y40117338D01*
X1821235Y40084654D01*
X1821236Y40084654D01*
X1988768Y40084654D01*
X1988769Y40084654D01*
X2153084Y40117338D01*
X2307865Y40181451D01*
X2447164Y40274528D01*
X2565628Y40392992D01*
X2658705Y40532291D01*
X2722818Y40687072D01*
X2755502Y40851387D01*
X2755502Y41018921D01*
X2755501Y41018924D01*
X2755500Y41018927D01*
X3594501Y41018927D01*
X3594501Y40851383D01*
X3610295Y40771983D01*
X3627184Y40687075D01*
X3627185Y40687072D01*
X3627187Y40687067D01*
X3691295Y40532295D01*
X3691296Y40532293D01*
X3691297Y40532292D01*
X3691298Y40532291D01*
X3784375Y40392992D01*
X3902839Y40274528D01*
X4042138Y40181451D01*
X4196919Y40117338D01*
X4361234Y40084654D01*
X4361235Y40084654D01*
X4528767Y40084654D01*
X4528768Y40084654D01*
X4693083Y40117338D01*
X4847864Y40181451D01*
X4987163Y40274528D01*
X5105627Y40392992D01*
X5198704Y40532291D01*
X5262817Y40687072D01*
X5295501Y40851387D01*
X5295501Y41018921D01*
X5295500Y41018924D01*
X5295499Y41018927D01*
X6134501Y41018927D01*
X6134501Y40851383D01*
X6150295Y40771983D01*
X6167184Y40687075D01*
X6167185Y40687072D01*
X6167187Y40687067D01*
X6231295Y40532295D01*
X6231296Y40532293D01*
X6231297Y40532292D01*
X6231298Y40532291D01*
X6324375Y40392992D01*
X6442839Y40274528D01*
X6582138Y40181451D01*
X6736919Y40117338D01*
X6901234Y40084654D01*
X6901235Y40084654D01*
X7068767Y40084654D01*
X7068768Y40084654D01*
X7233083Y40117338D01*
X7387864Y40181451D01*
X7527163Y40274528D01*
X7533310Y40280675D01*
X14816501Y40280675D01*
X14816501Y40135725D01*
X14817485Y40132052D01*
X14817485Y40132049D01*
X14821427Y40117340D01*
X14821427Y40117339D01*
X14821428Y40117339D01*
X14821428Y40117338D01*
X14854018Y39995711D01*
X14854019Y39995709D01*
X14854020Y39995706D01*
X14926487Y39870190D01*
X14964588Y39832088D01*
X14982792Y39807033D01*
X14988847Y39795150D01*
X14998419Y39734719D01*
X14998419Y39734714D01*
X14997622Y39729683D01*
X14969845Y39675170D01*
X14926492Y39631816D01*
X14926492Y39631815D01*
X14926484Y39631807D01*
X14854017Y39506290D01*
X14853740Y39505556D01*
X14853193Y39503213D01*
X14816501Y39366275D01*
X14816501Y39221323D01*
X14828777Y39175511D01*
X14828777Y39175509D01*
X14828778Y39175509D01*
X14854019Y39081307D01*
X14926487Y38955790D01*
X14964588Y38917688D01*
X14982792Y38892633D01*
X14988847Y38880750D01*
X14998419Y38820319D01*
X14998419Y38820314D01*
X14997622Y38815283D01*
X14969845Y38760770D01*
X14926492Y38717416D01*
X14926492Y38717415D01*
X14926484Y38717407D01*
X14854019Y38591895D01*
X14835429Y38522515D01*
X14816501Y38451875D01*
X14816501Y38306926D01*
X14839253Y38222016D01*
X14854019Y38166907D01*
X14926486Y38041392D01*
X14926488Y38041390D01*
X14926490Y38041388D01*
X14926492Y38041385D01*
X15028986Y37938891D01*
X15028988Y37938890D01*
X15028990Y37938888D01*
X15029537Y37938493D01*
X15031539Y37937416D01*
X15154512Y37866418D01*
X15154513Y37866418D01*
X15154516Y37866416D01*
X15294526Y37828900D01*
X15294527Y37828900D01*
X15439475Y37828900D01*
X15439476Y37828900D01*
X15579486Y37866416D01*
X15579487Y37866417D01*
X15579489Y37866418D01*
X15579490Y37866418D01*
X15698881Y37935349D01*
X15701769Y37936752D01*
X15702555Y37937269D01*
X15707564Y37940363D01*
X15708863Y37941114D01*
X15714221Y37948097D01*
X15807510Y38041385D01*
X15807514Y38041392D01*
X15879983Y38166911D01*
X15879983Y38166913D01*
X15879985Y38166915D01*
X15917501Y38306925D01*
X15917501Y38451875D01*
X15879985Y38591885D01*
X15879983Y38591888D01*
X15879983Y38591890D01*
X15879978Y38591898D01*
X15879657Y38592608D01*
X15878398Y38594636D01*
X15808986Y38714861D01*
X15808986Y38714860D01*
X15807513Y38717411D01*
X15807512Y38717412D01*
X15807511Y38717414D01*
X15780971Y38743955D01*
X15780965Y38743960D01*
X15769411Y38755514D01*
X15751207Y38780571D01*
X15745152Y38792455D01*
X15742773Y38807475D01*
X21166501Y38807475D01*
X21166501Y38662526D01*
X21185429Y38591885D01*
X21204019Y38522507D01*
X21276486Y38396992D01*
X21276488Y38396990D01*
X21276490Y38396988D01*
X21276492Y38396985D01*
X21378986Y38294491D01*
X21378988Y38294490D01*
X21378990Y38294488D01*
X21379537Y38294093D01*
X21381539Y38293016D01*
X21504512Y38222018D01*
X21504513Y38222018D01*
X21504516Y38222016D01*
X21644526Y38184500D01*
X21644527Y38184500D01*
X21789475Y38184500D01*
X21789476Y38184500D01*
X21929486Y38222016D01*
X21929487Y38222017D01*
X21929489Y38222018D01*
X21929490Y38222018D01*
X22048881Y38290949D01*
X22051769Y38292352D01*
X22052555Y38292869D01*
X22057564Y38295963D01*
X22058863Y38296714D01*
X22064221Y38303697D01*
X22157510Y38396985D01*
X22189201Y38451875D01*
X22229983Y38522511D01*
X22229983Y38522513D01*
X22229985Y38522515D01*
X22267501Y38662525D01*
X22267501Y38807475D01*
X22229985Y38947485D01*
X22229983Y38947488D01*
X22229983Y38947490D01*
X22229978Y38947498D01*
X22229657Y38948208D01*
X22228398Y38950236D01*
X22158986Y39070461D01*
X22158986Y39070460D01*
X22157513Y39073011D01*
X22157511Y39073013D01*
X22157510Y39073015D01*
X22055016Y39175509D01*
X22055013Y39175511D01*
X22055011Y39175513D01*
X21986775Y39214909D01*
X21965742Y39238269D01*
X21899898Y39255913D01*
X21899897Y39255913D01*
X21789476Y39285500D01*
X21789474Y39285500D01*
X21644524Y39285500D01*
X21582789Y39268959D01*
X21582788Y39268960D01*
X21504513Y39247985D01*
X21504507Y39247982D01*
X21378994Y39175517D01*
X21276484Y39073007D01*
X21204019Y38947495D01*
X21194625Y38912435D01*
X21166501Y38807475D01*
X15742773Y38807475D01*
X15742699Y38807940D01*
X15741634Y38810031D01*
X15742001Y38812349D01*
X15735581Y38852875D01*
X15736379Y38857914D01*
X15764150Y38912427D01*
X15807510Y38955785D01*
X15807511Y38955788D01*
X15807513Y38955789D01*
X15879983Y39081311D01*
X15879983Y39081313D01*
X15879985Y39081315D01*
X15917501Y39221325D01*
X15917501Y39366275D01*
X15879985Y39506285D01*
X15879983Y39506288D01*
X15879983Y39506290D01*
X15879978Y39506298D01*
X15879657Y39507008D01*
X15878398Y39509036D01*
X15808986Y39629261D01*
X15808986Y39629260D01*
X15807513Y39631811D01*
X15807512Y39631812D01*
X15807511Y39631814D01*
X15769411Y39669915D01*
X15751207Y39694971D01*
X15745152Y39706855D01*
X15735581Y39767275D01*
X15736379Y39772314D01*
X15764150Y39826827D01*
X15807510Y39870185D01*
X15809492Y39873618D01*
X15879983Y39995711D01*
X15879983Y39995713D01*
X15879985Y39995715D01*
X15917501Y40135725D01*
X15917501Y40280675D01*
X15879985Y40420685D01*
X15879983Y40420688D01*
X15879983Y40420690D01*
X15879982Y40420692D01*
X15879936Y40420864D01*
X15879782Y40421208D01*
X15878398Y40423436D01*
X15857822Y40459075D01*
X18863501Y40459075D01*
X18863501Y40314126D01*
X18896586Y40190651D01*
X18901019Y40174107D01*
X18973486Y40048592D01*
X18973488Y40048590D01*
X18973490Y40048588D01*
X18973492Y40048585D01*
X19075986Y39946091D01*
X19075988Y39946090D01*
X19075990Y39946088D01*
X19076537Y39945693D01*
X19078539Y39944616D01*
X19201512Y39873618D01*
X19201513Y39873618D01*
X19201516Y39873616D01*
X19341526Y39836100D01*
X19341527Y39836100D01*
X19486475Y39836100D01*
X19486476Y39836100D01*
X19626486Y39873616D01*
X19626487Y39873617D01*
X19626489Y39873618D01*
X19626490Y39873618D01*
X19745881Y39942549D01*
X19748769Y39943952D01*
X19749555Y39944469D01*
X19754564Y39947563D01*
X19755863Y39948314D01*
X19761221Y39955297D01*
X19854510Y40048585D01*
X19894206Y40117340D01*
X19926983Y40174111D01*
X19926983Y40174113D01*
X19926985Y40174115D01*
X19964501Y40314125D01*
X19964501Y40331475D01*
X22681501Y40331475D01*
X22681501Y40186523D01*
X22695112Y40135728D01*
X22695112Y40135726D01*
X22695113Y40135726D01*
X22719019Y40046507D01*
X22791486Y39920992D01*
X22791488Y39920990D01*
X22791490Y39920988D01*
X22791492Y39920985D01*
X22893986Y39818491D01*
X22893988Y39818490D01*
X22893990Y39818488D01*
X22894537Y39818093D01*
X22896539Y39817016D01*
X23019512Y39746018D01*
X23019513Y39746018D01*
X23019516Y39746016D01*
X23159526Y39708500D01*
X23159527Y39708500D01*
X23304475Y39708500D01*
X23304476Y39708500D01*
X23444486Y39746016D01*
X23444487Y39746017D01*
X23444489Y39746018D01*
X23444490Y39746018D01*
X23563881Y39814949D01*
X23566769Y39816352D01*
X23567555Y39816869D01*
X23572564Y39819963D01*
X23573863Y39820714D01*
X23579221Y39827697D01*
X23672510Y39920985D01*
X23687004Y39946089D01*
X23744983Y40046511D01*
X23744983Y40046513D01*
X23744985Y40046515D01*
X23782501Y40186525D01*
X23782501Y40331475D01*
X23744985Y40471485D01*
X23744983Y40471488D01*
X23744983Y40471490D01*
X23744978Y40471498D01*
X23744657Y40472208D01*
X23743398Y40474236D01*
X23673986Y40594461D01*
X23673986Y40594460D01*
X23672513Y40597011D01*
X23672511Y40597013D01*
X23672510Y40597015D01*
X23570016Y40699509D01*
X23570013Y40699511D01*
X23570011Y40699513D01*
X23501775Y40738909D01*
X23480742Y40762269D01*
X23414898Y40779913D01*
X23414897Y40779913D01*
X23304476Y40809500D01*
X23304474Y40809500D01*
X23159524Y40809500D01*
X23097789Y40792959D01*
X23097788Y40792960D01*
X23019513Y40771985D01*
X23019507Y40771982D01*
X22893994Y40699517D01*
X22791484Y40597007D01*
X22719020Y40471496D01*
X22719018Y40471492D01*
X22719018Y40471490D01*
X22705406Y40420688D01*
X22697984Y40392989D01*
X22681501Y40331475D01*
X19964501Y40331475D01*
X19964501Y40459075D01*
X19926985Y40599085D01*
X19926983Y40599088D01*
X19926983Y40599090D01*
X19926978Y40599098D01*
X19926657Y40599808D01*
X19925398Y40601836D01*
X19855986Y40722061D01*
X19855986Y40722060D01*
X19854513Y40724611D01*
X19854511Y40724613D01*
X19854510Y40724615D01*
X19752016Y40827109D01*
X19752013Y40827111D01*
X19752011Y40827113D01*
X19683775Y40866509D01*
X19662742Y40889869D01*
X19596898Y40907513D01*
X19596897Y40907513D01*
X19486476Y40937100D01*
X19486474Y40937100D01*
X19341524Y40937100D01*
X19279789Y40920559D01*
X19279788Y40920560D01*
X19201513Y40899585D01*
X19201507Y40899582D01*
X19075994Y40827117D01*
X18973484Y40724607D01*
X18901019Y40599095D01*
X18883120Y40532295D01*
X18863501Y40459075D01*
X15857822Y40459075D01*
X15808986Y40543661D01*
X15808986Y40543660D01*
X15807513Y40546211D01*
X15807511Y40546213D01*
X15807510Y40546215D01*
X15705016Y40648709D01*
X15705013Y40648711D01*
X15705011Y40648713D01*
X15636775Y40688109D01*
X15615742Y40711469D01*
X15549898Y40729113D01*
X15549897Y40729113D01*
X15439476Y40758700D01*
X15439474Y40758700D01*
X15294524Y40758700D01*
X15232789Y40742159D01*
X15232788Y40742160D01*
X15154513Y40721185D01*
X15154507Y40721182D01*
X15028994Y40648717D01*
X14926487Y40546210D01*
X14854016Y40420687D01*
X14848477Y40400012D01*
X14848476Y40400008D01*
X14846596Y40392989D01*
X14816501Y40280675D01*
X7533310Y40280675D01*
X7645627Y40392992D01*
X7738704Y40532291D01*
X7802817Y40687072D01*
X7835501Y40851387D01*
X7835501Y41018921D01*
X7802817Y41183236D01*
X7738704Y41338017D01*
X7645627Y41477316D01*
X7527163Y41595780D01*
X7445003Y41650678D01*
X7432497Y41666542D01*
X7410231Y41677675D01*
X14816501Y41677675D01*
X14816501Y41532726D01*
X14842422Y41435988D01*
X14854019Y41392707D01*
X14926486Y41267192D01*
X14926488Y41267190D01*
X14926490Y41267188D01*
X14926492Y41267185D01*
X15028986Y41164691D01*
X15028988Y41164690D01*
X15028990Y41164688D01*
X15029537Y41164293D01*
X15031539Y41163216D01*
X15154512Y41092218D01*
X15154513Y41092218D01*
X15154516Y41092216D01*
X15294526Y41054700D01*
X15294527Y41054700D01*
X15439475Y41054700D01*
X15439476Y41054700D01*
X15579486Y41092216D01*
X15579487Y41092217D01*
X15579489Y41092218D01*
X15579490Y41092218D01*
X15698881Y41161149D01*
X15701769Y41162552D01*
X15702555Y41163069D01*
X15707564Y41166163D01*
X15708863Y41166914D01*
X15714221Y41173897D01*
X15807510Y41267185D01*
X15821657Y41291688D01*
X15879983Y41392711D01*
X15879983Y41392713D01*
X15879985Y41392715D01*
X15917501Y41532725D01*
X15917501Y41677675D01*
X15879985Y41817685D01*
X15879983Y41817688D01*
X15879983Y41817690D01*
X15879982Y41817692D01*
X15879891Y41818032D01*
X15878398Y41820436D01*
X15863364Y41846475D01*
X21166501Y41846475D01*
X21166501Y41701525D01*
X21169896Y41688855D01*
X21179797Y41651904D01*
X21179796Y41651904D01*
X21204017Y41561512D01*
X21204019Y41561508D01*
X21276486Y41435992D01*
X21276488Y41435990D01*
X21276490Y41435988D01*
X21276492Y41435985D01*
X21378986Y41333491D01*
X21378988Y41333490D01*
X21378990Y41333488D01*
X21379537Y41333093D01*
X21381539Y41332016D01*
X21504512Y41261018D01*
X21504513Y41261018D01*
X21504516Y41261016D01*
X21644526Y41223500D01*
X21644527Y41223500D01*
X21789475Y41223500D01*
X21789476Y41223500D01*
X21929486Y41261016D01*
X21929487Y41261017D01*
X21929489Y41261018D01*
X21929490Y41261018D01*
X22048881Y41329949D01*
X22051769Y41331352D01*
X22052555Y41331869D01*
X22057564Y41334963D01*
X22058863Y41335714D01*
X22064221Y41342697D01*
X22157510Y41435985D01*
X22181375Y41477320D01*
X22229983Y41561511D01*
X22229983Y41561513D01*
X22229985Y41561515D01*
X22267501Y41701525D01*
X22267501Y41804675D01*
X22690501Y41804675D01*
X22690501Y41659726D01*
X22723586Y41536251D01*
X22728019Y41519707D01*
X22800486Y41394192D01*
X22800488Y41394190D01*
X22800490Y41394188D01*
X22800492Y41394185D01*
X22902986Y41291691D01*
X22902988Y41291690D01*
X22902990Y41291688D01*
X22903537Y41291293D01*
X22905539Y41290216D01*
X23028512Y41219218D01*
X23028513Y41219218D01*
X23028516Y41219216D01*
X23168526Y41181700D01*
X23168527Y41181700D01*
X23313475Y41181700D01*
X23313476Y41181700D01*
X23453486Y41219216D01*
X23453487Y41219217D01*
X23453489Y41219218D01*
X23453490Y41219218D01*
X23572881Y41288149D01*
X23575769Y41289552D01*
X23576555Y41290069D01*
X23581564Y41293163D01*
X23582863Y41293914D01*
X23588221Y41300897D01*
X23681510Y41394185D01*
X23705643Y41435985D01*
X23753983Y41519711D01*
X23753983Y41519713D01*
X23753985Y41519715D01*
X23791501Y41659725D01*
X23791501Y41804675D01*
X23753985Y41944685D01*
X23753983Y41944688D01*
X23753983Y41944690D01*
X23753978Y41944698D01*
X23753657Y41945408D01*
X23752398Y41947436D01*
X23682986Y42067661D01*
X23682986Y42067660D01*
X23681513Y42070211D01*
X23681511Y42070213D01*
X23681510Y42070215D01*
X23579016Y42172709D01*
X23579013Y42172711D01*
X23579011Y42172713D01*
X23510775Y42212109D01*
X23489742Y42235469D01*
X23423898Y42253113D01*
X23423897Y42253113D01*
X23313476Y42282700D01*
X23313474Y42282700D01*
X23168524Y42282700D01*
X23106789Y42266159D01*
X23106788Y42266160D01*
X23028513Y42245185D01*
X23028507Y42245182D01*
X22902994Y42172717D01*
X22800484Y42070207D01*
X22728019Y41944695D01*
X22726938Y41940661D01*
X22690501Y41804675D01*
X22267501Y41804675D01*
X22267501Y41846475D01*
X22229985Y41986485D01*
X22229983Y41986488D01*
X22229983Y41986490D01*
X22229978Y41986498D01*
X22229657Y41987208D01*
X22228398Y41989236D01*
X22158986Y42109461D01*
X22158986Y42109460D01*
X22157513Y42112011D01*
X22157511Y42112013D01*
X22157510Y42112015D01*
X22055016Y42214509D01*
X22055013Y42214511D01*
X22055011Y42214513D01*
X21986775Y42253909D01*
X21965742Y42277269D01*
X21899898Y42294913D01*
X21899897Y42294913D01*
X21789476Y42324500D01*
X21789474Y42324500D01*
X21644524Y42324500D01*
X21582789Y42307959D01*
X21582788Y42307960D01*
X21504513Y42286985D01*
X21504507Y42286982D01*
X21378994Y42214517D01*
X21276484Y42112007D01*
X21204019Y41986495D01*
X21193553Y41947436D01*
X21166501Y41846475D01*
X15863364Y41846475D01*
X15808986Y41940661D01*
X15808986Y41940660D01*
X15807513Y41943211D01*
X15807511Y41943213D01*
X15807510Y41943215D01*
X15705016Y42045709D01*
X15705013Y42045711D01*
X15705011Y42045713D01*
X15636775Y42085109D01*
X15615742Y42108469D01*
X15549898Y42126113D01*
X15549897Y42126113D01*
X15439476Y42155700D01*
X15439474Y42155700D01*
X15294524Y42155700D01*
X15232789Y42139159D01*
X15232788Y42139160D01*
X15154513Y42118185D01*
X15154507Y42118182D01*
X15028994Y42045717D01*
X14926484Y41943207D01*
X14854019Y41817695D01*
X14836676Y41752969D01*
X14816501Y41677675D01*
X7410231Y41677675D01*
X7387870Y41688855D01*
X7387863Y41688858D01*
X7233086Y41752969D01*
X7233080Y41752971D01*
X7150925Y41769313D01*
X7068772Y41785654D01*
X7068770Y41785654D01*
X7068768Y41785654D01*
X6901234Y41785654D01*
X6901231Y41785654D01*
X6901228Y41785654D01*
X6777998Y41761142D01*
X6736921Y41752971D01*
X6736915Y41752969D01*
X6736912Y41752968D01*
X6582138Y41688859D01*
X6442839Y41595781D01*
X6324374Y41477316D01*
X6231296Y41338017D01*
X6167187Y41183243D01*
X6167186Y41183240D01*
X6167184Y41183234D01*
X6163173Y41163069D01*
X6134501Y41018927D01*
X5295499Y41018927D01*
X5280605Y41093808D01*
X5262817Y41183236D01*
X5198704Y41338017D01*
X5105627Y41477316D01*
X4987163Y41595780D01*
X4905003Y41650678D01*
X4892497Y41666542D01*
X4847870Y41688855D01*
X4847863Y41688858D01*
X4693086Y41752969D01*
X4693080Y41752971D01*
X4610925Y41769313D01*
X4528772Y41785654D01*
X4528770Y41785654D01*
X4528768Y41785654D01*
X4361234Y41785654D01*
X4361231Y41785654D01*
X4361228Y41785654D01*
X4237998Y41761142D01*
X4196921Y41752971D01*
X4196915Y41752969D01*
X4196912Y41752968D01*
X4042138Y41688859D01*
X3902839Y41595781D01*
X3784374Y41477316D01*
X3691296Y41338017D01*
X3627187Y41183243D01*
X3627186Y41183240D01*
X3627184Y41183234D01*
X3623173Y41163069D01*
X3594501Y41018927D01*
X2755500Y41018927D01*
X2740606Y41093808D01*
X2722818Y41183236D01*
X2658705Y41338017D01*
X2565628Y41477316D01*
X2447164Y41595780D01*
X2365004Y41650678D01*
X2352498Y41666542D01*
X2307871Y41688855D01*
X2307864Y41688858D01*
X2153087Y41752969D01*
X2153081Y41752971D01*
X2070926Y41769313D01*
X1988773Y41785654D01*
X1988771Y41785654D01*
X1988769Y41785654D01*
X1821235Y41785654D01*
X1821232Y41785654D01*
X1821229Y41785654D01*
X1697999Y41761142D01*
X1656922Y41752971D01*
X1656916Y41752969D01*
X1656913Y41752968D01*
X1502139Y41688859D01*
X1362840Y41595781D01*
X1244375Y41477316D01*
X1151297Y41338017D01*
X1087188Y41183243D01*
X1087187Y41183240D01*
X1087185Y41183234D01*
X1083174Y41163069D01*
X1054502Y41018927D01*
X500500Y41018927D01*
X500500Y43659275D01*
X14917701Y43659275D01*
X14917701Y43514325D01*
X14921936Y43498520D01*
X14928681Y43473347D01*
X14928680Y43473347D01*
X14955217Y43374312D01*
X14955219Y43374308D01*
X15027686Y43248792D01*
X15027688Y43248790D01*
X15027690Y43248788D01*
X15027692Y43248785D01*
X15130186Y43146291D01*
X15130188Y43146290D01*
X15130190Y43146288D01*
X15130737Y43145893D01*
X15132739Y43144816D01*
X15255712Y43073818D01*
X15255713Y43073818D01*
X15255716Y43073816D01*
X15395726Y43036300D01*
X15395727Y43036300D01*
X15540675Y43036300D01*
X15540676Y43036300D01*
X15680686Y43073816D01*
X15680687Y43073817D01*
X15680689Y43073818D01*
X15680690Y43073818D01*
X15800081Y43142749D01*
X15802969Y43144152D01*
X15803755Y43144669D01*
X15808764Y43147763D01*
X15810063Y43148514D01*
X15815421Y43155497D01*
X15908710Y43248785D01*
X15954266Y43327690D01*
X15981183Y43374311D01*
X15981183Y43374313D01*
X15981185Y43374315D01*
X16003664Y43458211D01*
X16016256Y43486493D01*
X16020752Y43493416D01*
X16068298Y43531917D01*
X16129400Y43535120D01*
X16180714Y43501796D01*
X16180715Y43501795D01*
X16183367Y43498520D01*
X16202056Y43461841D01*
X16225615Y43373916D01*
X16225618Y43373911D01*
X16225626Y43373896D01*
X16297857Y43248790D01*
X16298088Y43248390D01*
X16298090Y43248388D01*
X16298092Y43248385D01*
X16400586Y43145891D01*
X16400588Y43145890D01*
X16400590Y43145888D01*
X16401137Y43145493D01*
X16403139Y43144416D01*
X16526112Y43073418D01*
X16526113Y43073418D01*
X16526116Y43073416D01*
X16666126Y43035900D01*
X16666127Y43035900D01*
X16811075Y43035900D01*
X16811076Y43035900D01*
X16951086Y43073416D01*
X16951087Y43073417D01*
X16951089Y43073418D01*
X16951090Y43073418D01*
X17070481Y43142349D01*
X17073369Y43143752D01*
X17074155Y43144269D01*
X17079164Y43147363D01*
X17080462Y43148113D01*
X17085820Y43155096D01*
X17118399Y43187675D01*
X17711701Y43187675D01*
X17711701Y43042726D01*
X17744786Y42919251D01*
X17749219Y42902707D01*
X17821686Y42777192D01*
X17821688Y42777190D01*
X17821690Y42777188D01*
X17821692Y42777185D01*
X17924186Y42674691D01*
X17924188Y42674690D01*
X17924190Y42674688D01*
X17924737Y42674293D01*
X17926739Y42673216D01*
X18049712Y42602218D01*
X18049713Y42602218D01*
X18049716Y42602216D01*
X18189726Y42564700D01*
X18189727Y42564700D01*
X18334675Y42564700D01*
X18334676Y42564700D01*
X18474686Y42602216D01*
X18474687Y42602217D01*
X18474689Y42602218D01*
X18474690Y42602218D01*
X18594081Y42671149D01*
X18596969Y42672552D01*
X18597755Y42673069D01*
X18602764Y42676163D01*
X18604063Y42676914D01*
X18609421Y42683897D01*
X18702710Y42777185D01*
X18702713Y42777190D01*
X18775183Y42902711D01*
X18775183Y42902713D01*
X18775185Y42902715D01*
X18812701Y43042725D01*
X18812701Y43187675D01*
X18775185Y43327685D01*
X18775183Y43327688D01*
X18775183Y43327690D01*
X18775180Y43327695D01*
X18774857Y43328408D01*
X18773598Y43330436D01*
X18704186Y43450661D01*
X18704186Y43450660D01*
X18702713Y43453211D01*
X18702711Y43453213D01*
X18702710Y43453215D01*
X18600216Y43555709D01*
X18600213Y43555711D01*
X18600211Y43555713D01*
X18600210Y43555714D01*
X18531976Y43595109D01*
X18510942Y43618470D01*
X18398721Y43648539D01*
X18384267Y43652412D01*
X18334676Y43665700D01*
X18334675Y43665700D01*
X18189724Y43665700D01*
X18127989Y43649159D01*
X18127988Y43649160D01*
X18049713Y43628185D01*
X18049707Y43628182D01*
X17924194Y43555717D01*
X17821684Y43453207D01*
X17749219Y43327695D01*
X17744541Y43310236D01*
X17711701Y43187675D01*
X17118399Y43187675D01*
X17179110Y43248385D01*
X17181753Y43252962D01*
X17251583Y43373911D01*
X17251583Y43373913D01*
X17251585Y43373915D01*
X17289101Y43513925D01*
X17289101Y43658875D01*
X17251585Y43798885D01*
X17251583Y43798889D01*
X17251583Y43798890D01*
X17180266Y43922413D01*
X17179960Y43922960D01*
X17179939Y43923063D01*
X17179406Y43924053D01*
X17179218Y43924306D01*
X17179111Y43924413D01*
X17179110Y43924415D01*
X17076616Y44026909D01*
X17076613Y44026911D01*
X17076611Y44026913D01*
X17008375Y44066309D01*
X16987342Y44089669D01*
X16921498Y44107313D01*
X16921497Y44107313D01*
X16811076Y44136900D01*
X16811074Y44136900D01*
X16666124Y44136900D01*
X16604389Y44120359D01*
X16604388Y44120360D01*
X16526113Y44099385D01*
X16526107Y44099382D01*
X16400594Y44026917D01*
X16298086Y43924409D01*
X16225626Y43798906D01*
X16225620Y43798894D01*
X16225614Y43798881D01*
X16203137Y43714997D01*
X16190107Y43694935D01*
X16186048Y43679787D01*
X16173863Y43669921D01*
X16169812Y43663683D01*
X16152456Y43652412D01*
X16151871Y43652115D01*
X16138496Y43641284D01*
X16077395Y43638084D01*
X16026082Y43671411D01*
X16023431Y43674685D01*
X16004744Y43711360D01*
X15981185Y43799285D01*
X15981183Y43799288D01*
X15981183Y43799290D01*
X15979598Y43802036D01*
X15910186Y43922261D01*
X15909110Y43924260D01*
X15908713Y43924811D01*
X15908711Y43924813D01*
X15908710Y43924815D01*
X15806216Y44027309D01*
X15806213Y44027311D01*
X15806211Y44027313D01*
X15737975Y44066709D01*
X15716942Y44090069D01*
X15651098Y44107713D01*
X15651097Y44107713D01*
X15540676Y44137300D01*
X15540674Y44137300D01*
X15395724Y44137300D01*
X15333989Y44120759D01*
X15333988Y44120760D01*
X15255713Y44099785D01*
X15255707Y44099782D01*
X15130194Y44027317D01*
X15027684Y43924807D01*
X14955219Y43799295D01*
X14936602Y43729815D01*
X14936600Y43729806D01*
X14917701Y43659275D01*
X500500Y43659275D01*
X500500Y46443694D01*
X1106501Y46443694D01*
X1106501Y46266307D01*
X1107131Y46263139D01*
X1107131Y46263136D01*
X1139205Y46101897D01*
X1139205Y46101894D01*
X1141106Y46092332D01*
X1204491Y45939307D01*
X1208986Y45928456D01*
X1208986Y45928455D01*
X1223004Y45907476D01*
X1224590Y45905102D01*
X1224595Y45905094D01*
X1307536Y45780966D01*
X1432966Y45655536D01*
X1581270Y45556442D01*
X1584939Y45555129D01*
X1591015Y45552613D01*
X1617579Y45541610D01*
X1617581Y45541609D01*
X1670084Y45519862D01*
X1744335Y45489106D01*
X1918310Y45454500D01*
X1918311Y45454500D01*
X2095691Y45454500D01*
X2095692Y45454500D01*
X2269667Y45489106D01*
X2433548Y45556987D01*
X2581036Y45655536D01*
X2706465Y45780965D01*
X2756977Y45856563D01*
X2778003Y45879307D01*
X2784475Y45884409D01*
X2841878Y45905586D01*
X2900766Y45888977D01*
X2938642Y45840934D01*
X2940881Y45834863D01*
X2947001Y45800599D01*
X2947001Y45455007D01*
X2957492Y45352314D01*
X2957492Y45352313D01*
X2957495Y45352303D01*
X3012640Y45185880D01*
X3012641Y45185879D01*
X3012643Y45185874D01*
X3017098Y45178653D01*
X3923731Y46085288D01*
X3978248Y46113065D01*
X4038680Y46103494D01*
X4079471Y46064784D01*
X4106889Y46017295D01*
X4106891Y46017292D01*
X4209293Y45914890D01*
X4256782Y45887473D01*
X4297722Y45842004D01*
X4304118Y45781154D01*
X4277285Y45731734D01*
X3370652Y44825100D01*
X3370652Y44825099D01*
X3370652Y44825098D01*
X3377871Y44820645D01*
X3377880Y44820641D01*
X3544307Y44765494D01*
X3564848Y44763396D01*
X3647005Y44755001D01*
X5446987Y44755001D01*
X5446995Y44755001D01*
X5549679Y44765492D01*
X5549679Y44765493D01*
X5549688Y44765493D01*
X5549703Y44765496D01*
X5716117Y44820639D01*
X5723347Y44825100D01*
X4816715Y45731732D01*
X4788938Y45786249D01*
X4798509Y45846681D01*
X4837219Y45887473D01*
X4884709Y45914890D01*
X4987111Y46017292D01*
X5014528Y46064782D01*
X5059997Y46105723D01*
X5120848Y46112119D01*
X5170269Y46085286D01*
X6076901Y45178654D01*
X6081362Y45185884D01*
X6136451Y45352139D01*
X6136479Y45352177D01*
X6136506Y45352303D01*
X6136506Y45352305D01*
X6136507Y45352307D01*
X6147001Y45455013D01*
X6147001Y46075257D01*
X6147000Y47190922D01*
X8444301Y47190922D01*
X8444301Y47043080D01*
X8473143Y46898087D01*
X8473143Y46898085D01*
X8515797Y46795109D01*
X8529713Y46761511D01*
X8529715Y46761508D01*
X8529716Y46761507D01*
X8529717Y46761505D01*
X8611850Y46638584D01*
X8716385Y46534049D01*
X8839306Y46451916D01*
X8975888Y46395342D01*
X9120883Y46366500D01*
X9120884Y46366500D01*
X9268718Y46366500D01*
X9268719Y46366500D01*
X9413714Y46395342D01*
X9550296Y46451916D01*
X9673217Y46534049D01*
X9777752Y46638584D01*
X9859885Y46761505D01*
X9916459Y46898087D01*
X9945301Y47043082D01*
X9945301Y47190918D01*
X9945299Y47190929D01*
X9942724Y47203876D01*
X9942721Y47203888D01*
X9939651Y47219320D01*
X10394801Y47219320D01*
X10394801Y47014682D01*
X10426807Y46812593D01*
X10490044Y46617973D01*
X10582939Y46435654D01*
X10583314Y46435074D01*
X10584287Y46433798D01*
X10615324Y46391080D01*
X10615325Y46391080D01*
X11181341Y46957097D01*
X11235856Y46984872D01*
X11296288Y46975301D01*
X11337079Y46936591D01*
X11370452Y46878788D01*
X11374721Y46871394D01*
X11449195Y46796920D01*
X11452330Y46795110D01*
X11514389Y46759280D01*
X11555330Y46713811D01*
X11561726Y46652961D01*
X11534893Y46603541D01*
X10968878Y46037526D01*
X10968879Y46037526D01*
X10968879Y46037525D01*
X11013448Y46005142D01*
X11013454Y46005139D01*
X11195775Y45912243D01*
X11195779Y45912241D01*
X11390382Y45849010D01*
X11390386Y45849009D01*
X11592483Y45817000D01*
X11797116Y45817000D01*
X11797119Y45817000D01*
X11999214Y45849009D01*
X11999218Y45849010D01*
X12193821Y45912241D01*
X12193823Y45912243D01*
X12193828Y45912244D01*
X12376143Y46005137D01*
X12376151Y46005142D01*
X12420721Y46037525D01*
X11854704Y46603542D01*
X11826929Y46658056D01*
X11836500Y46718488D01*
X11875209Y46759279D01*
X11940407Y46796920D01*
X12014881Y46871394D01*
X12052522Y46936592D01*
X12097990Y46977532D01*
X12158841Y46983928D01*
X12208259Y46957097D01*
X12774276Y46391080D01*
X12806659Y46435650D01*
X12806664Y46435658D01*
X12899557Y46617973D01*
X12899558Y46617978D01*
X12899560Y46617980D01*
X12962791Y46812583D01*
X12962792Y46812587D01*
X12994801Y47014682D01*
X12994801Y47190922D01*
X15985402Y47190922D01*
X15985402Y47043080D01*
X16014244Y46898087D01*
X16014244Y46898085D01*
X16056898Y46795109D01*
X16070814Y46761511D01*
X16070816Y46761508D01*
X16070817Y46761507D01*
X16070818Y46761505D01*
X16152951Y46638584D01*
X16257486Y46534049D01*
X16380407Y46451916D01*
X16516989Y46395342D01*
X16661984Y46366500D01*
X16661985Y46366500D01*
X16809819Y46366500D01*
X16809820Y46366500D01*
X16954815Y46395342D01*
X17091397Y46451916D01*
X17214318Y46534049D01*
X17318853Y46638584D01*
X17400986Y46761505D01*
X17457560Y46898087D01*
X17486402Y47043082D01*
X17486402Y47190918D01*
X17486400Y47190929D01*
X17483825Y47203876D01*
X17483822Y47203888D01*
X17480752Y47219320D01*
X17935902Y47219320D01*
X17935902Y47014682D01*
X17967908Y46812593D01*
X18031145Y46617973D01*
X18124040Y46435654D01*
X18124415Y46435074D01*
X18125388Y46433798D01*
X18156425Y46391080D01*
X18156426Y46391080D01*
X18722442Y46957097D01*
X18776957Y46984872D01*
X18837389Y46975301D01*
X18878180Y46936591D01*
X18911553Y46878788D01*
X18915822Y46871394D01*
X18990296Y46796920D01*
X18993431Y46795110D01*
X19055490Y46759280D01*
X19096431Y46713811D01*
X19102827Y46652961D01*
X19075994Y46603541D01*
X18509979Y46037526D01*
X18509980Y46037526D01*
X18509980Y46037525D01*
X18554549Y46005142D01*
X18554555Y46005139D01*
X18736876Y45912243D01*
X18736880Y45912241D01*
X18931483Y45849010D01*
X18931487Y45849009D01*
X19133584Y45817000D01*
X19338217Y45817000D01*
X19338220Y45817000D01*
X19540315Y45849009D01*
X19540319Y45849010D01*
X19734922Y45912241D01*
X19734924Y45912243D01*
X19734929Y45912244D01*
X19917244Y46005137D01*
X19917252Y46005142D01*
X19961822Y46037525D01*
X19395805Y46603542D01*
X19368030Y46658056D01*
X19377601Y46718488D01*
X19416310Y46759279D01*
X19481508Y46796920D01*
X19555982Y46871394D01*
X19593623Y46936592D01*
X19639091Y46977532D01*
X19699942Y46983928D01*
X19749360Y46957097D01*
X20315377Y46391080D01*
X20347760Y46435650D01*
X20347765Y46435658D01*
X20440658Y46617973D01*
X20440659Y46617978D01*
X20440661Y46617980D01*
X20503892Y46812583D01*
X20503893Y46812587D01*
X20535902Y47014682D01*
X20535902Y47190922D01*
X23526502Y47190922D01*
X23526502Y47043080D01*
X23555344Y46898087D01*
X23555344Y46898085D01*
X23597998Y46795109D01*
X23611914Y46761511D01*
X23611916Y46761508D01*
X23611917Y46761507D01*
X23611918Y46761505D01*
X23694051Y46638584D01*
X23798586Y46534049D01*
X23921507Y46451916D01*
X24058089Y46395342D01*
X24203084Y46366500D01*
X24203085Y46366500D01*
X24350919Y46366500D01*
X24350920Y46366500D01*
X24495915Y46395342D01*
X24632497Y46451916D01*
X24755418Y46534049D01*
X24859953Y46638584D01*
X24942086Y46761505D01*
X24998660Y46898087D01*
X25027502Y47043082D01*
X25027502Y47190918D01*
X25027500Y47190929D01*
X25024925Y47203876D01*
X25024922Y47203888D01*
X25021852Y47219320D01*
X25477002Y47219320D01*
X25477002Y47014682D01*
X25509008Y46812593D01*
X25572245Y46617973D01*
X25665140Y46435654D01*
X25665515Y46435074D01*
X25666488Y46433798D01*
X25697525Y46391080D01*
X25697526Y46391080D01*
X26263542Y46957097D01*
X26318057Y46984872D01*
X26378489Y46975301D01*
X26419280Y46936591D01*
X26452653Y46878788D01*
X26456922Y46871394D01*
X26531396Y46796920D01*
X26534531Y46795110D01*
X26596590Y46759280D01*
X26637531Y46713811D01*
X26643927Y46652961D01*
X26617094Y46603541D01*
X26051079Y46037526D01*
X26051080Y46037526D01*
X26051080Y46037525D01*
X26095649Y46005142D01*
X26095655Y46005139D01*
X26277976Y45912243D01*
X26277980Y45912241D01*
X26472583Y45849010D01*
X26472587Y45849009D01*
X26674684Y45817000D01*
X26879317Y45817000D01*
X26879320Y45817000D01*
X27081415Y45849009D01*
X27081419Y45849010D01*
X27276022Y45912241D01*
X27276024Y45912243D01*
X27276029Y45912244D01*
X27458344Y46005137D01*
X27458352Y46005142D01*
X27502922Y46037525D01*
X26936905Y46603542D01*
X26909130Y46658056D01*
X26918701Y46718488D01*
X26957410Y46759279D01*
X27022608Y46796920D01*
X27097082Y46871394D01*
X27134723Y46936592D01*
X27180191Y46977532D01*
X27241042Y46983928D01*
X27290460Y46957097D01*
X27856477Y46391080D01*
X27888860Y46435650D01*
X27888865Y46435658D01*
X27981758Y46617973D01*
X27981759Y46617978D01*
X27981761Y46617980D01*
X28044992Y46812583D01*
X28044993Y46812587D01*
X28077002Y47014682D01*
X28077002Y47219320D01*
X28044993Y47421415D01*
X28044992Y47421419D01*
X27981761Y47616022D01*
X27981759Y47616026D01*
X27888863Y47798347D01*
X27888862Y47798349D01*
X27888860Y47798353D01*
X27856477Y47842922D01*
X27856476Y47842922D01*
X27290461Y47276908D01*
X27235945Y47249131D01*
X27175513Y47258702D01*
X27134722Y47297412D01*
X27107188Y47345102D01*
X27097082Y47362606D01*
X27022608Y47437080D01*
X27022605Y47437082D01*
X26957411Y47474722D01*
X26916470Y47520191D01*
X26910074Y47581042D01*
X26936904Y47630458D01*
X27502922Y48196476D01*
X27502922Y48196477D01*
X27469193Y48220983D01*
X27460204Y48227514D01*
X27458928Y48228487D01*
X27458348Y48228862D01*
X27276029Y48321757D01*
X27081409Y48384994D01*
X26879320Y48417000D01*
X26879317Y48417000D01*
X26674687Y48417000D01*
X26674683Y48417000D01*
X26472594Y48384994D01*
X26277970Y48321756D01*
X26095914Y48228995D01*
X26095674Y48228874D01*
X26095643Y48228856D01*
X26051080Y48196478D01*
X26051080Y48196477D01*
X26617097Y47630460D01*
X26644873Y47575945D01*
X26635302Y47515513D01*
X26596593Y47474722D01*
X26531397Y47437081D01*
X26456921Y47362605D01*
X26419280Y47297409D01*
X26373810Y47256469D01*
X26312960Y47250074D01*
X26263542Y47276905D01*
X25697525Y47842922D01*
X25697524Y47842922D01*
X25665146Y47798359D01*
X25665128Y47798328D01*
X25665007Y47798088D01*
X25572246Y47616032D01*
X25509008Y47421409D01*
X25477002Y47219320D01*
X25021852Y47219320D01*
X25021539Y47220894D01*
X24998660Y47335913D01*
X24942086Y47472495D01*
X24859953Y47595416D01*
X24755418Y47699951D01*
X24632497Y47782084D01*
X24632487Y47782088D01*
X24616230Y47788822D01*
X24616229Y47788823D01*
X24495916Y47838658D01*
X24350922Y47867500D01*
X24350920Y47867500D01*
X24203084Y47867500D01*
X24203083Y47867500D01*
X24203080Y47867500D01*
X24058087Y47838658D01*
X24058085Y47838658D01*
X23921512Y47782088D01*
X23921500Y47782082D01*
X23798588Y47699953D01*
X23694049Y47595414D01*
X23611920Y47472502D01*
X23611914Y47472490D01*
X23555344Y47335917D01*
X23555344Y47335915D01*
X23526502Y47190922D01*
X20535902Y47190922D01*
X20535902Y47219320D01*
X20503893Y47421415D01*
X20503892Y47421419D01*
X20440661Y47616022D01*
X20440659Y47616026D01*
X20347763Y47798347D01*
X20347762Y47798349D01*
X20347760Y47798353D01*
X20315377Y47842922D01*
X20315376Y47842922D01*
X19749361Y47276908D01*
X19694845Y47249131D01*
X19634413Y47258702D01*
X19593622Y47297412D01*
X19566088Y47345102D01*
X19555982Y47362606D01*
X19481508Y47437080D01*
X19481505Y47437082D01*
X19416311Y47474722D01*
X19375370Y47520191D01*
X19368974Y47581042D01*
X19395804Y47630458D01*
X19961822Y48196476D01*
X19961822Y48196477D01*
X19928093Y48220983D01*
X19919104Y48227514D01*
X19917828Y48228487D01*
X19917248Y48228862D01*
X19734929Y48321757D01*
X19540309Y48384994D01*
X19338220Y48417000D01*
X19338217Y48417000D01*
X19133587Y48417000D01*
X19133583Y48417000D01*
X18931494Y48384994D01*
X18736870Y48321756D01*
X18554814Y48228995D01*
X18554574Y48228874D01*
X18554543Y48228856D01*
X18509980Y48196478D01*
X18509980Y48196477D01*
X19075997Y47630460D01*
X19103773Y47575945D01*
X19094202Y47515513D01*
X19055493Y47474722D01*
X18990297Y47437081D01*
X18915821Y47362605D01*
X18878180Y47297409D01*
X18832710Y47256469D01*
X18771860Y47250074D01*
X18722442Y47276905D01*
X18156425Y47842922D01*
X18156424Y47842922D01*
X18124046Y47798359D01*
X18124028Y47798328D01*
X18123907Y47798088D01*
X18031146Y47616032D01*
X17967908Y47421409D01*
X17935902Y47219320D01*
X17480752Y47219320D01*
X17480439Y47220894D01*
X17457560Y47335913D01*
X17400986Y47472495D01*
X17318853Y47595416D01*
X17214318Y47699951D01*
X17091397Y47782084D01*
X17091387Y47782088D01*
X17075130Y47788822D01*
X17075129Y47788823D01*
X16954816Y47838658D01*
X16809822Y47867500D01*
X16809820Y47867500D01*
X16661984Y47867500D01*
X16661983Y47867500D01*
X16661980Y47867500D01*
X16516987Y47838658D01*
X16516985Y47838658D01*
X16380412Y47782088D01*
X16380400Y47782082D01*
X16257488Y47699953D01*
X16152949Y47595414D01*
X16070820Y47472502D01*
X16070814Y47472490D01*
X16014244Y47335917D01*
X16014244Y47335915D01*
X15985402Y47190922D01*
X12994801Y47190922D01*
X12994801Y47219320D01*
X12962792Y47421415D01*
X12962791Y47421419D01*
X12899560Y47616022D01*
X12899558Y47616026D01*
X12806662Y47798347D01*
X12806661Y47798349D01*
X12806659Y47798353D01*
X12774276Y47842922D01*
X12774275Y47842922D01*
X12208260Y47276908D01*
X12153744Y47249131D01*
X12093312Y47258702D01*
X12052521Y47297412D01*
X12024987Y47345102D01*
X12014881Y47362606D01*
X11940407Y47437080D01*
X11940404Y47437082D01*
X11875210Y47474722D01*
X11834269Y47520191D01*
X11827873Y47581042D01*
X11854703Y47630458D01*
X12420721Y48196476D01*
X12420721Y48196477D01*
X12386992Y48220983D01*
X12378003Y48227514D01*
X12376727Y48228487D01*
X12376147Y48228862D01*
X12193828Y48321757D01*
X11999208Y48384994D01*
X11797119Y48417000D01*
X11797116Y48417000D01*
X11592486Y48417000D01*
X11592482Y48417000D01*
X11390393Y48384994D01*
X11195769Y48321756D01*
X11013713Y48228995D01*
X11013473Y48228874D01*
X11013442Y48228856D01*
X10968879Y48196478D01*
X10968879Y48196477D01*
X11534896Y47630460D01*
X11562672Y47575945D01*
X11553101Y47515513D01*
X11514392Y47474722D01*
X11449196Y47437081D01*
X11374720Y47362605D01*
X11337079Y47297409D01*
X11291609Y47256469D01*
X11230759Y47250074D01*
X11181341Y47276905D01*
X10615324Y47842922D01*
X10615323Y47842922D01*
X10582945Y47798359D01*
X10582927Y47798328D01*
X10582806Y47798088D01*
X10490045Y47616032D01*
X10426807Y47421409D01*
X10394801Y47219320D01*
X9939651Y47219320D01*
X9939338Y47220894D01*
X9916459Y47335913D01*
X9859885Y47472495D01*
X9777752Y47595416D01*
X9673217Y47699951D01*
X9550296Y47782084D01*
X9550286Y47782088D01*
X9534029Y47788822D01*
X9534028Y47788823D01*
X9413715Y47838658D01*
X9268721Y47867500D01*
X9268719Y47867500D01*
X9120883Y47867500D01*
X9120882Y47867500D01*
X9120879Y47867500D01*
X8975886Y47838658D01*
X8975884Y47838658D01*
X8839311Y47782088D01*
X8839299Y47782082D01*
X8716387Y47699953D01*
X8611848Y47595414D01*
X8529719Y47472502D01*
X8529713Y47472490D01*
X8473143Y47335917D01*
X8473143Y47335915D01*
X8444301Y47190922D01*
X6147000Y47190922D01*
X6147000Y47195782D01*
X6147000Y47254987D01*
X6147000Y47254988D01*
X6147000Y47254995D01*
X6136508Y47357688D01*
X6136508Y47357689D01*
X6136504Y47357703D01*
X6126547Y47387752D01*
X6081360Y47524121D01*
X6081356Y47524130D01*
X6076902Y47531349D01*
X6076901Y47531349D01*
X5170267Y46624716D01*
X5115751Y46596939D01*
X5055319Y46606510D01*
X5014528Y46645219D01*
X4987111Y46692708D01*
X4884709Y46795110D01*
X4881574Y46796920D01*
X4837217Y46822530D01*
X4796276Y46868000D01*
X4789880Y46928850D01*
X4816711Y46978268D01*
X5723348Y47884903D01*
X5723348Y47884904D01*
X5716127Y47889358D01*
X5549694Y47944507D01*
X5549691Y47944508D01*
X5446996Y47955000D01*
X5446988Y47955000D01*
X4882832Y47955000D01*
X4851470Y47962390D01*
X4844416Y47962388D01*
X4841025Y47964851D01*
X4838633Y47965414D01*
X4831520Y47968963D01*
X4832542Y47971012D01*
X4794910Y47998343D01*
X4775992Y48056531D01*
X4794889Y48114725D01*
X4795617Y48115727D01*
X4837830Y48149012D01*
X4925852Y48185471D01*
X4926171Y48185600D01*
X4926184Y48185609D01*
X4926187Y48185610D01*
X5009173Y48241060D01*
X5012967Y48243596D01*
X5020775Y48248813D01*
X5020777Y48248816D01*
X5057290Y48273211D01*
X5168790Y48384711D01*
X5256395Y48515821D01*
X5306589Y48637000D01*
X29077276Y48637000D01*
X29847873Y48637000D01*
X29906064Y48618093D01*
X29942028Y48568593D01*
X29944971Y48518686D01*
X29932001Y48453485D01*
X29932001Y48320516D01*
X29944971Y48255314D01*
X29937779Y48194553D01*
X29896247Y48149623D01*
X29847873Y48137000D01*
X29077276Y48137000D01*
X29095163Y48024051D01*
X29170560Y47792006D01*
X29280647Y47575945D01*
X29281320Y47574626D01*
X29424726Y47377245D01*
X29597245Y47204726D01*
X29794626Y47061320D01*
X30012008Y46950559D01*
X30072596Y46930873D01*
X30100197Y46916809D01*
X30109414Y46910112D01*
X30145377Y46860611D01*
X30145375Y46799425D01*
X30145373Y46799420D01*
X30144670Y46797257D01*
X30119147Y46756506D01*
X30118256Y46755649D01*
X30104629Y46744686D01*
X29953287Y46643562D01*
X29953278Y46643555D01*
X29810439Y46500715D01*
X29698213Y46332756D01*
X29620912Y46146134D01*
X29620911Y46146131D01*
X29620909Y46146125D01*
X29614333Y46113065D01*
X29581501Y45948009D01*
X29581501Y45745993D01*
X29584338Y45731732D01*
X29620909Y45547876D01*
X29620911Y45547870D01*
X29635189Y45513400D01*
X29698212Y45361248D01*
X29698213Y45361247D01*
X29698214Y45361245D01*
X29698215Y45361244D01*
X29810443Y45193282D01*
X29953283Y45050442D01*
X30121245Y44938214D01*
X30307874Y44860909D01*
X30505998Y44821500D01*
X30505999Y44821500D01*
X30708003Y44821500D01*
X30708004Y44821500D01*
X30906128Y44860909D01*
X31092757Y44938214D01*
X31260719Y45050442D01*
X31403559Y45193282D01*
X31515787Y45361244D01*
X31593092Y45547873D01*
X31632501Y45745997D01*
X31632501Y45948003D01*
X31593092Y46146127D01*
X31515787Y46332756D01*
X31403559Y46500718D01*
X31260719Y46643558D01*
X31260715Y46643561D01*
X31260712Y46643564D01*
X31258234Y46645220D01*
X31115118Y46740847D01*
X31092373Y46761872D01*
X31085318Y46770821D01*
X31064143Y46828224D01*
X31080751Y46887108D01*
X31082032Y46889025D01*
X31117622Y46921286D01*
X31118070Y46921527D01*
X31118722Y46921875D01*
X31134830Y46928737D01*
X31201994Y46950559D01*
X31419375Y47061320D01*
X31616756Y47204726D01*
X31789275Y47377245D01*
X31789282Y47377254D01*
X31791799Y47380200D01*
X31792356Y47379725D01*
X31809587Y47396963D01*
X31818810Y47403664D01*
X31876999Y47422571D01*
X31935185Y47403669D01*
X31944404Y47396971D01*
X31961647Y47379726D01*
X31962203Y47380200D01*
X31964719Y47377254D01*
X31964726Y47377245D01*
X32137245Y47204726D01*
X32334626Y47061320D01*
X32552008Y46950559D01*
X32612596Y46930873D01*
X32640197Y46916809D01*
X32649414Y46910112D01*
X32685377Y46860611D01*
X32685375Y46799425D01*
X32685373Y46799420D01*
X32684670Y46797257D01*
X32659147Y46756506D01*
X32658256Y46755649D01*
X32644629Y46744686D01*
X32493287Y46643562D01*
X32493278Y46643555D01*
X32350439Y46500715D01*
X32238213Y46332756D01*
X32160912Y46146134D01*
X32160911Y46146131D01*
X32160909Y46146125D01*
X32154333Y46113065D01*
X32121501Y45948009D01*
X32121501Y45745993D01*
X32124338Y45731732D01*
X32160909Y45547876D01*
X32160911Y45547870D01*
X32175189Y45513400D01*
X32238212Y45361248D01*
X32238213Y45361247D01*
X32238214Y45361245D01*
X32238215Y45361244D01*
X32350443Y45193282D01*
X32493283Y45050442D01*
X32661245Y44938214D01*
X32847874Y44860909D01*
X33045998Y44821500D01*
X33045999Y44821500D01*
X33248003Y44821500D01*
X33248004Y44821500D01*
X33446128Y44860909D01*
X33632757Y44938214D01*
X33800719Y45050442D01*
X33943559Y45193282D01*
X34055787Y45361244D01*
X34133092Y45547873D01*
X34172501Y45745997D01*
X34172501Y45948003D01*
X34133092Y46146127D01*
X34055787Y46332756D01*
X33943559Y46500718D01*
X33800719Y46643558D01*
X33800715Y46643561D01*
X33800712Y46643564D01*
X33798234Y46645220D01*
X33655118Y46740847D01*
X33632373Y46761872D01*
X33625318Y46770821D01*
X33604143Y46828224D01*
X33620751Y46887108D01*
X33622032Y46889025D01*
X33657622Y46921286D01*
X33658070Y46921527D01*
X33658722Y46921875D01*
X33674830Y46928737D01*
X33741994Y46950559D01*
X33959375Y47061320D01*
X34156756Y47204726D01*
X34329275Y47377245D01*
X34329282Y47377254D01*
X34331799Y47380200D01*
X34332356Y47379725D01*
X34349587Y47396963D01*
X34358810Y47403664D01*
X34416999Y47422571D01*
X34475185Y47403669D01*
X34484404Y47396971D01*
X34501647Y47379726D01*
X34502203Y47380200D01*
X34504719Y47377254D01*
X34504726Y47377245D01*
X34677245Y47204726D01*
X34874626Y47061320D01*
X35092008Y46950559D01*
X35152596Y46930873D01*
X35180197Y46916809D01*
X35189414Y46910112D01*
X35225377Y46860611D01*
X35225375Y46799425D01*
X35225373Y46799420D01*
X35224670Y46797257D01*
X35199147Y46756506D01*
X35198256Y46755649D01*
X35184629Y46744686D01*
X35033287Y46643562D01*
X35033278Y46643555D01*
X34890439Y46500715D01*
X34778213Y46332756D01*
X34700912Y46146134D01*
X34700911Y46146131D01*
X34700909Y46146125D01*
X34694333Y46113065D01*
X34661501Y45948009D01*
X34661501Y45745993D01*
X34664338Y45731732D01*
X34700909Y45547876D01*
X34700911Y45547870D01*
X34715189Y45513400D01*
X34778212Y45361248D01*
X34778213Y45361247D01*
X34778214Y45361245D01*
X34778215Y45361244D01*
X34890443Y45193282D01*
X35033283Y45050442D01*
X35201245Y44938214D01*
X35387874Y44860909D01*
X35585998Y44821500D01*
X35585999Y44821500D01*
X35788003Y44821500D01*
X35788004Y44821500D01*
X35986128Y44860909D01*
X36172757Y44938214D01*
X36340719Y45050442D01*
X36483559Y45193282D01*
X36595787Y45361244D01*
X36673092Y45547873D01*
X36712501Y45745997D01*
X36712501Y45948003D01*
X36673092Y46146127D01*
X36595787Y46332756D01*
X36483559Y46500718D01*
X36340719Y46643558D01*
X36340715Y46643561D01*
X36340712Y46643564D01*
X36338234Y46645220D01*
X36195118Y46740847D01*
X36172373Y46761872D01*
X36165318Y46770821D01*
X36144143Y46828224D01*
X36160751Y46887108D01*
X36162032Y46889025D01*
X36197622Y46921286D01*
X36198070Y46921527D01*
X36198722Y46921875D01*
X36214830Y46928737D01*
X36281994Y46950559D01*
X36499375Y47061320D01*
X36696756Y47204726D01*
X36869275Y47377245D01*
X36869282Y47377254D01*
X36871799Y47380200D01*
X36872356Y47379725D01*
X36889587Y47396963D01*
X36898810Y47403664D01*
X36956999Y47422571D01*
X37015185Y47403669D01*
X37024404Y47396971D01*
X37041647Y47379726D01*
X37042203Y47380200D01*
X37044719Y47377254D01*
X37044726Y47377245D01*
X37217245Y47204726D01*
X37414626Y47061320D01*
X37632008Y46950559D01*
X37692596Y46930873D01*
X37720197Y46916809D01*
X37729414Y46910112D01*
X37765377Y46860611D01*
X37765375Y46799425D01*
X37765373Y46799420D01*
X37764670Y46797257D01*
X37739147Y46756506D01*
X37738256Y46755649D01*
X37724629Y46744686D01*
X37573287Y46643562D01*
X37573278Y46643555D01*
X37430439Y46500715D01*
X37318213Y46332756D01*
X37240912Y46146134D01*
X37240911Y46146131D01*
X37240909Y46146125D01*
X37234333Y46113065D01*
X37201501Y45948009D01*
X37201501Y45745993D01*
X37204338Y45731732D01*
X37240909Y45547876D01*
X37240911Y45547870D01*
X37255189Y45513400D01*
X37318212Y45361248D01*
X37318213Y45361247D01*
X37318214Y45361245D01*
X37318215Y45361244D01*
X37430443Y45193282D01*
X37573283Y45050442D01*
X37741245Y44938214D01*
X37927874Y44860909D01*
X38125998Y44821500D01*
X38125999Y44821500D01*
X38328003Y44821500D01*
X38328004Y44821500D01*
X38526128Y44860909D01*
X38712757Y44938214D01*
X38880719Y45050442D01*
X39023559Y45193282D01*
X39135787Y45361244D01*
X39213092Y45547873D01*
X39252501Y45745997D01*
X39252501Y45948003D01*
X39213092Y46146127D01*
X39135787Y46332756D01*
X39023559Y46500718D01*
X38880719Y46643558D01*
X38880715Y46643561D01*
X38880712Y46643564D01*
X38878234Y46645220D01*
X38735118Y46740847D01*
X38712373Y46761872D01*
X38705318Y46770821D01*
X38684143Y46828224D01*
X38700751Y46887108D01*
X38702032Y46889025D01*
X38737622Y46921286D01*
X38738070Y46921527D01*
X38738722Y46921875D01*
X38754830Y46928737D01*
X38821994Y46950559D01*
X39039375Y47061320D01*
X39236756Y47204726D01*
X39409275Y47377245D01*
X39552681Y47574626D01*
X39663441Y47792006D01*
X39738836Y48024046D01*
X39756726Y48137000D01*
X38986129Y48137000D01*
X38927938Y48155907D01*
X38891974Y48205407D01*
X38889031Y48255314D01*
X38892592Y48273216D01*
X38902001Y48320518D01*
X38902001Y48453482D01*
X38889031Y48518686D01*
X38896223Y48579447D01*
X38937755Y48624377D01*
X38986129Y48637000D01*
X39756726Y48637000D01*
X39738837Y48749951D01*
X39738836Y48749955D01*
X39663441Y48981995D01*
X39552681Y49199375D01*
X39409275Y49396756D01*
X39236756Y49569275D01*
X39039375Y49712681D01*
X39039374Y49712682D01*
X39039372Y49712683D01*
X38821995Y49823441D01*
X38589950Y49898838D01*
X38477001Y49916727D01*
X38477001Y49146128D01*
X38458094Y49087937D01*
X38408594Y49051973D01*
X38358687Y49049030D01*
X38293485Y49062000D01*
X38293483Y49062000D01*
X38160519Y49062000D01*
X38160516Y49062000D01*
X38095315Y49049030D01*
X38034554Y49056222D01*
X37989624Y49097754D01*
X37977001Y49146128D01*
X37977001Y49916727D01*
X37864050Y49898838D01*
X37632005Y49823441D01*
X37414628Y49712683D01*
X37217246Y49569276D01*
X37044719Y49396749D01*
X37042199Y49393797D01*
X37041648Y49394268D01*
X37024402Y49377031D01*
X37015186Y49370336D01*
X36956994Y49351432D01*
X36898812Y49370337D01*
X36889595Y49377033D01*
X36872353Y49394279D01*
X36871797Y49393803D01*
X36869271Y49396761D01*
X36696758Y49569273D01*
X36696756Y49569275D01*
X36499375Y49712681D01*
X36499374Y49712682D01*
X36499372Y49712683D01*
X36281995Y49823441D01*
X36049950Y49898838D01*
X35937001Y49916727D01*
X35937001Y49146128D01*
X35918094Y49087937D01*
X35868594Y49051973D01*
X35818687Y49049030D01*
X35753485Y49062000D01*
X35753483Y49062000D01*
X35620519Y49062000D01*
X35620516Y49062000D01*
X35555315Y49049030D01*
X35494554Y49056222D01*
X35449624Y49097754D01*
X35437001Y49146128D01*
X35437001Y49916727D01*
X35324050Y49898838D01*
X35092005Y49823441D01*
X34874628Y49712683D01*
X34677246Y49569276D01*
X34504719Y49396749D01*
X34502199Y49393797D01*
X34501648Y49394268D01*
X34484402Y49377031D01*
X34475186Y49370336D01*
X34416994Y49351432D01*
X34358812Y49370337D01*
X34349595Y49377033D01*
X34332353Y49394279D01*
X34331797Y49393803D01*
X34329271Y49396761D01*
X34156758Y49569273D01*
X34156756Y49569275D01*
X33959375Y49712681D01*
X33959374Y49712682D01*
X33959372Y49712683D01*
X33741995Y49823441D01*
X33509950Y49898838D01*
X33397001Y49916727D01*
X33397001Y49146128D01*
X33378094Y49087937D01*
X33328594Y49051973D01*
X33278687Y49049030D01*
X33213485Y49062000D01*
X33213483Y49062000D01*
X33080519Y49062000D01*
X33080516Y49062000D01*
X33015315Y49049030D01*
X32954554Y49056222D01*
X32909624Y49097754D01*
X32897001Y49146128D01*
X32897001Y49916727D01*
X32784050Y49898838D01*
X32552005Y49823441D01*
X32334628Y49712683D01*
X32137246Y49569276D01*
X31964719Y49396749D01*
X31962199Y49393797D01*
X31961648Y49394268D01*
X31944402Y49377031D01*
X31935186Y49370336D01*
X31876994Y49351432D01*
X31818812Y49370337D01*
X31809595Y49377033D01*
X31792353Y49394279D01*
X31791797Y49393803D01*
X31789271Y49396761D01*
X31616758Y49569273D01*
X31616756Y49569275D01*
X31419375Y49712681D01*
X31419374Y49712682D01*
X31419372Y49712683D01*
X31201995Y49823441D01*
X30969950Y49898838D01*
X30857001Y49916727D01*
X30857001Y49146128D01*
X30838094Y49087937D01*
X30788594Y49051973D01*
X30738687Y49049030D01*
X30673485Y49062000D01*
X30673483Y49062000D01*
X30540519Y49062000D01*
X30540516Y49062000D01*
X30475315Y49049030D01*
X30414554Y49056222D01*
X30369624Y49097754D01*
X30357001Y49146128D01*
X30357001Y49916727D01*
X30244050Y49898838D01*
X30012005Y49823441D01*
X29794628Y49712683D01*
X29597246Y49569276D01*
X29424725Y49396755D01*
X29281318Y49199373D01*
X29170560Y48981996D01*
X29095163Y48749952D01*
X29081156Y48661502D01*
X29077276Y48637000D01*
X5306589Y48637000D01*
X5316738Y48661503D01*
X5347501Y48816158D01*
X5347501Y48973842D01*
X5316738Y49128497D01*
X5256395Y49274179D01*
X5256394Y49274181D01*
X5256391Y49274186D01*
X5205541Y49350287D01*
X5168790Y49405289D01*
X5168786Y49405293D01*
X5057298Y49516782D01*
X5057294Y49516785D01*
X5057290Y49516789D01*
X5005060Y49551688D01*
X4926186Y49604391D01*
X4926175Y49604397D01*
X4926170Y49604400D01*
X4780499Y49664737D01*
X4625845Y49695500D01*
X4625843Y49695500D01*
X4468159Y49695500D01*
X4468156Y49695500D01*
X4468155Y49695500D01*
X4403681Y49682675D01*
X4323066Y49666639D01*
X4323059Y49666639D01*
X4313500Y49664738D01*
X4167830Y49604400D01*
X4167807Y49604387D01*
X4036712Y49516790D01*
X3925211Y49405289D01*
X3837614Y49274194D01*
X3837601Y49274171D01*
X3777265Y49128504D01*
X3777265Y49128503D01*
X3777264Y49128496D01*
X3746501Y48973846D01*
X3746501Y48816156D01*
X3775362Y48671067D01*
X3775362Y48671063D01*
X3777263Y48661501D01*
X3837601Y48515831D01*
X3837604Y48515826D01*
X3837610Y48515815D01*
X3890313Y48436941D01*
X3925212Y48384711D01*
X3925215Y48384708D01*
X3925219Y48384703D01*
X3988166Y48321757D01*
X4036712Y48273211D01*
X4114877Y48220983D01*
X4167815Y48185610D01*
X4167826Y48185604D01*
X4214272Y48166366D01*
X4254079Y48149878D01*
X4257752Y48147983D01*
X4260560Y48145147D01*
X4276654Y48135284D01*
X4282924Y48129929D01*
X4294786Y48110574D01*
X4300798Y48104501D01*
X4301561Y48099519D01*
X4314895Y48077762D01*
X4310096Y48016766D01*
X4270445Y47970290D01*
X4269390Y47969642D01*
X4217576Y47955000D01*
X3647006Y47955000D01*
X3544321Y47944510D01*
X3544293Y47944504D01*
X3544291Y47944504D01*
X3377880Y47889361D01*
X3377876Y47889359D01*
X3370652Y47884904D01*
X3370652Y47884903D01*
X3831840Y47423715D01*
X4277286Y46978269D01*
X4305063Y46923752D01*
X4295492Y46863320D01*
X4256783Y46822529D01*
X4209294Y46795111D01*
X4106890Y46692707D01*
X4079472Y46645218D01*
X4034002Y46604277D01*
X3973151Y46597883D01*
X3923732Y46624715D01*
X3477891Y47070556D01*
X3017098Y47531349D01*
X3017097Y47531349D01*
X3012642Y47524125D01*
X3012639Y47524118D01*
X2957550Y47357865D01*
X2957496Y47357704D01*
X2957492Y47357686D01*
X2947001Y47254997D01*
X2947001Y46911088D01*
X2942153Y46880488D01*
X2939605Y46872648D01*
X2903638Y46823151D01*
X2845446Y46804248D01*
X2787260Y46823157D01*
X2782030Y46826957D01*
X2757908Y46852046D01*
X2706465Y46929035D01*
X2581038Y47054462D01*
X2581035Y47054465D01*
X2433545Y47153015D01*
X2433546Y47153015D01*
X2433544Y47153016D01*
X2269668Y47220894D01*
X2269667Y47220894D01*
X2211676Y47232430D01*
X2095696Y47255500D01*
X2095694Y47255500D01*
X2095692Y47255500D01*
X1918310Y47255500D01*
X1918307Y47255500D01*
X1918304Y47255500D01*
X1753897Y47222796D01*
X1753891Y47222796D01*
X1744331Y47220895D01*
X1584953Y47154878D01*
X1581272Y47153561D01*
X1432966Y47054466D01*
X1307535Y46929035D01*
X1208440Y46780729D01*
X1207123Y46777048D01*
X1141748Y46619219D01*
X1141747Y46619215D01*
X1141107Y46617668D01*
X1141107Y46617666D01*
X1106501Y46443694D01*
X500500Y46443694D01*
X500500Y48973845D01*
X1206501Y48973845D01*
X1206501Y48816156D01*
X1207131Y48812989D01*
X1235362Y48671067D01*
X1235362Y48671063D01*
X1237263Y48661501D01*
X1297601Y48515831D01*
X1297604Y48515826D01*
X1297610Y48515815D01*
X1350313Y48436941D01*
X1385212Y48384711D01*
X1385215Y48384708D01*
X1385219Y48384703D01*
X1448166Y48321757D01*
X1496712Y48273211D01*
X1574877Y48220983D01*
X1627815Y48185610D01*
X1627826Y48185604D01*
X1681639Y48163315D01*
X1686297Y48161386D01*
X1686300Y48161384D01*
X1699523Y48155907D01*
X1773504Y48125263D01*
X1928159Y48094500D01*
X1928160Y48094500D01*
X2085842Y48094500D01*
X2085843Y48094500D01*
X2240498Y48125263D01*
X2386180Y48185606D01*
X2517290Y48273211D01*
X2628790Y48384711D01*
X2716395Y48515821D01*
X2776738Y48661503D01*
X2807501Y48816158D01*
X2807501Y48973842D01*
X2776738Y49128497D01*
X2716395Y49274179D01*
X2716394Y49274181D01*
X2716391Y49274186D01*
X2665541Y49350287D01*
X2628790Y49405289D01*
X2628786Y49405293D01*
X2517298Y49516782D01*
X2517294Y49516785D01*
X2517290Y49516789D01*
X2465060Y49551688D01*
X2386186Y49604391D01*
X2386175Y49604397D01*
X2386170Y49604400D01*
X2240499Y49664737D01*
X2085845Y49695500D01*
X2085843Y49695500D01*
X1928159Y49695500D01*
X1928156Y49695500D01*
X1928155Y49695500D01*
X1863681Y49682675D01*
X1783066Y49666639D01*
X1783059Y49666639D01*
X1773500Y49664738D01*
X1627830Y49604400D01*
X1627807Y49604387D01*
X1496712Y49516790D01*
X1385211Y49405289D01*
X1297614Y49274194D01*
X1297601Y49274171D01*
X1237907Y49130056D01*
X1237906Y49130050D01*
X1237264Y49128499D01*
X1237264Y49128497D01*
X1206501Y48973845D01*
X500500Y48973845D01*
X500500Y50057820D01*
X505343Y50088406D01*
X509465Y50101095D01*
X545423Y50150594D01*
X546022Y50151029D01*
X549563Y50153600D01*
X607743Y50172500D01*
X40863021Y50172500D01*
X40893609Y50167657D01*
G37*
%TD.AperFunction*%
%TD*%
M02*
