%TF.GenerationSoftware,KiCad,Pcbnew,10.0.0*%
%TF.CreationDate,2026-08-14T11:22:35-04:00*%
%TF.ProjectId,PWR_RPM5.0_AP2114,5057525f-5250-44d3-952e-305f41503231,rev?*%
%TF.SameCoordinates,PX9610427PY6ca4418*%
%TF.FileFunction,Copper,L2,Inr*%
%TF.FilePolarity,Positive*%
%FSLAX46Y46*%
G04 Gerber Fmt 4.6, Leading zero omitted, Abs format (unit mm)*
G04 Created by KiCad (PCBNEW 10.0.0) date 2026-08-14 11:22:35*
%MOMM*%
%LPD*%
G01*
G04 APERTURE LIST*
%TA.AperFunction,ComponentPad*%
%ADD10O,2.200000X3.500000*%
%TD*%
%TA.AperFunction,ComponentPad*%
%ADD11O,1.500000X2.500000*%
%TD*%
%TA.AperFunction,ComponentPad*%
%ADD12C,1.600000*%
%TD*%
%TA.AperFunction,ComponentPad*%
%ADD13R,6.540000X3.270000*%
%TD*%
%TA.AperFunction,ComponentPad*%
%ADD14R,1.800000X1.800000*%
%TD*%
%TA.AperFunction,ComponentPad*%
%ADD15C,2.250000*%
%TD*%
%TA.AperFunction,ComponentPad*%
%ADD16C,1.700000*%
%TD*%
%TA.AperFunction,ViaPad*%
%ADD17C,0.800000*%
%TD*%
G04 APERTURE END LIST*
D10*
%TO.N,GND*%
%TO.C,SW2*%
X25342000Y2434000D03*
X17142000Y2434000D03*
D11*
X21242000Y2434000D03*
%TD*%
D12*
%TO.N,GND*%
%TO.C,C8*%
X22848442Y49019000D03*
%TD*%
%TO.N,GND*%
%TO.C,C7*%
X14048442Y49019000D03*
%TD*%
%TO.N,GND*%
%TO.C,C5*%
X5197002Y49019000D03*
%TD*%
D13*
%TO.N,GND*%
%TO.C,J8*%
X3785357Y12064000D03*
%TD*%
D14*
%TO.N,GND*%
%TO.C,D1*%
X18567000Y8363999D03*
%TD*%
D15*
%TO.N,GND*%
%TO.C,SW1*%
X2167000Y27483999D03*
X2167000Y15284000D03*
%TD*%
D16*
%TO.N,GND*%
%TO.C,J5*%
X30607001Y4699000D03*
X33147001Y4699000D03*
X35687001Y4699000D03*
X38227001Y4699000D03*
%TD*%
%TO.N,GND*%
%TO.C,J6*%
X30607001Y50419000D03*
X33147001Y50419000D03*
X35687001Y50419000D03*
X38227001Y50419000D03*
%TD*%
D17*
%TO.N,GND*%
X4775026Y19324627D03*
X13742000Y31434000D03*
X15042000Y31434000D03*
X15113001Y44909000D03*
X11312000Y32609001D03*
X9586053Y25659000D03*
X13037587Y26827680D03*
X13417000Y14859000D03*
X12996054Y24529000D03*
X8442000Y16659000D03*
X14097000Y41899000D03*
X10751052Y26839000D03*
X11876998Y25691986D03*
X15327527Y26827651D03*
X15097000Y41889000D03*
X11865937Y23408754D03*
X10717000Y24521986D03*
X14156053Y25698999D03*
X15288932Y24513456D03*
X16267000Y17884000D03*
X16449963Y25683240D03*
X16448662Y23392995D03*
X16113001Y44899000D03*
X13011053Y22244000D03*
X11862356Y21117267D03*
X13097000Y41909000D03*
X8442000Y14984858D03*
X14154147Y23394001D03*
X14113001Y44919000D03*
X20137000Y42129000D03*
X15311053Y22244000D03*
%TO.N,+3V3*%
X13331999Y35444001D03*
%TD*%
%TA.AperFunction,Conductor*%
%TO.N,GND*%
G36*
X39274408Y52192157D02*
G01*
X39287095Y52188034D01*
X39336595Y52152073D01*
X39336596Y52152072D01*
X39339591Y52147950D01*
X39358500Y52089760D01*
X39355567Y52080734D01*
X39358499Y51451838D01*
X39353654Y51420783D01*
X39350274Y51410381D01*
X39314309Y51360881D01*
X39256118Y51341975D01*
X39204400Y51356559D01*
X39203080Y51357368D01*
X39199494Y51359565D01*
X39181214Y51373975D01*
X39106467Y51448721D01*
X39106465Y51448723D01*
X38934553Y51573625D01*
X38934552Y51573626D01*
X38934550Y51573627D01*
X38745214Y51670097D01*
X38543119Y51735761D01*
X38477001Y51746234D01*
X38477001Y50998670D01*
X38458094Y50940479D01*
X38408594Y50904515D01*
X38352378Y50903043D01*
X38292827Y50919000D01*
X38292826Y50919000D01*
X38161176Y50919000D01*
X38161175Y50919000D01*
X38101624Y50903043D01*
X38040523Y50906245D01*
X37992973Y50944751D01*
X37977001Y50998670D01*
X37977001Y51746231D01*
X37977001Y51746232D01*
X37977000Y51746233D01*
X37976999Y51746233D01*
X37918577Y51736979D01*
X37910880Y51735760D01*
X37910879Y51735760D01*
X37861318Y51719658D01*
X37708785Y51670097D01*
X37519450Y51573627D01*
X37347537Y51448724D01*
X37197277Y51298464D01*
X37072373Y51126548D01*
X37052329Y51087209D01*
X37034124Y51062150D01*
X37026068Y51054094D01*
X36971551Y51026317D01*
X36911137Y51035879D01*
X36908331Y51037308D01*
X36865058Y51080564D01*
X36865048Y51080582D01*
X36841626Y51126550D01*
X36841625Y51126552D01*
X36716723Y51298465D01*
X36566465Y51448723D01*
X36394553Y51573625D01*
X36394552Y51573626D01*
X36394550Y51573627D01*
X36205214Y51670097D01*
X36003119Y51735761D01*
X35937001Y51746234D01*
X35937001Y50998670D01*
X35918094Y50940479D01*
X35868594Y50904515D01*
X35812378Y50903043D01*
X35752827Y50919000D01*
X35752826Y50919000D01*
X35621176Y50919000D01*
X35621175Y50919000D01*
X35561624Y50903043D01*
X35500523Y50906245D01*
X35452973Y50944751D01*
X35437001Y50998670D01*
X35437001Y51746231D01*
X35437001Y51746232D01*
X35437000Y51746233D01*
X35436999Y51746233D01*
X35378577Y51736979D01*
X35370880Y51735760D01*
X35370879Y51735760D01*
X35321318Y51719658D01*
X35168785Y51670097D01*
X34979450Y51573627D01*
X34807537Y51448724D01*
X34657277Y51298464D01*
X34532373Y51126548D01*
X34512329Y51087209D01*
X34494124Y51062150D01*
X34486068Y51054094D01*
X34431551Y51026317D01*
X34371137Y51035879D01*
X34368331Y51037308D01*
X34325058Y51080564D01*
X34325048Y51080582D01*
X34301626Y51126550D01*
X34301625Y51126552D01*
X34176723Y51298465D01*
X34026465Y51448723D01*
X33854553Y51573625D01*
X33854552Y51573626D01*
X33854550Y51573627D01*
X33665214Y51670097D01*
X33463119Y51735761D01*
X33397001Y51746234D01*
X33397001Y50998670D01*
X33378094Y50940479D01*
X33328594Y50904515D01*
X33272378Y50903043D01*
X33212827Y50919000D01*
X33212826Y50919000D01*
X33081176Y50919000D01*
X33081175Y50919000D01*
X33021624Y50903043D01*
X32960523Y50906245D01*
X32912973Y50944751D01*
X32897001Y50998670D01*
X32897001Y51746231D01*
X32897001Y51746232D01*
X32897000Y51746233D01*
X32896999Y51746233D01*
X32838577Y51736979D01*
X32830880Y51735760D01*
X32830879Y51735760D01*
X32781318Y51719658D01*
X32628785Y51670097D01*
X32439450Y51573627D01*
X32267537Y51448724D01*
X32117277Y51298464D01*
X31992373Y51126548D01*
X31972329Y51087209D01*
X31954124Y51062150D01*
X31946068Y51054094D01*
X31891551Y51026317D01*
X31831137Y51035879D01*
X31828331Y51037308D01*
X31785058Y51080564D01*
X31785048Y51080582D01*
X31761626Y51126550D01*
X31761625Y51126552D01*
X31636723Y51298465D01*
X31486465Y51448723D01*
X31314553Y51573625D01*
X31314552Y51573626D01*
X31314550Y51573627D01*
X31125214Y51670097D01*
X30923119Y51735761D01*
X30857001Y51746234D01*
X30857001Y50998670D01*
X30838094Y50940479D01*
X30788594Y50904515D01*
X30732378Y50903043D01*
X30672827Y50919000D01*
X30672826Y50919000D01*
X30541176Y50919000D01*
X30541175Y50919000D01*
X30481624Y50903043D01*
X30420523Y50906245D01*
X30372973Y50944751D01*
X30357001Y50998670D01*
X30357001Y51746231D01*
X30357001Y51746232D01*
X30357000Y51746233D01*
X30356999Y51746233D01*
X30298577Y51736979D01*
X30290880Y51735760D01*
X30290879Y51735760D01*
X30241318Y51719658D01*
X30088785Y51670097D01*
X29899450Y51573627D01*
X29727537Y51448724D01*
X29577277Y51298464D01*
X29452374Y51126551D01*
X29355904Y50937216D01*
X29290241Y50735121D01*
X29279769Y50669002D01*
X29279769Y50669001D01*
X29279770Y50669000D01*
X30027331Y50669000D01*
X30085522Y50650093D01*
X30121486Y50600593D01*
X30122958Y50544377D01*
X30107001Y50484826D01*
X30107001Y50353175D01*
X30122958Y50293623D01*
X30119756Y50232522D01*
X30081250Y50184972D01*
X30027331Y50169000D01*
X29279770Y50169000D01*
X29290241Y50102880D01*
X29355904Y49900786D01*
X29437493Y49740657D01*
X29452376Y49711448D01*
X29577278Y49539536D01*
X29727536Y49389278D01*
X29899448Y49264376D01*
X30088785Y49167905D01*
X30290878Y49102242D01*
X30357000Y49091769D01*
X30357001Y49091770D01*
X30357001Y49839331D01*
X30375908Y49897522D01*
X30425408Y49933486D01*
X30481624Y49934957D01*
X30541175Y49919000D01*
X30672827Y49919000D01*
X30732377Y49934957D01*
X30793478Y49931756D01*
X30841029Y49893252D01*
X30857001Y49839331D01*
X30857001Y49091769D01*
X30923123Y49102242D01*
X31125216Y49167905D01*
X31314553Y49264376D01*
X31486465Y49389278D01*
X31636723Y49539536D01*
X31761624Y49711448D01*
X31781671Y49750794D01*
X31799873Y49775848D01*
X31807936Y49783911D01*
X31862451Y49811686D01*
X31922879Y49802116D01*
X31925708Y49800675D01*
X31968952Y49757421D01*
X31977494Y49740657D01*
X31992377Y49711448D01*
X32117278Y49539536D01*
X32267536Y49389278D01*
X32439448Y49264376D01*
X32628785Y49167905D01*
X32830878Y49102242D01*
X32897000Y49091769D01*
X32897001Y49091770D01*
X32897001Y49839331D01*
X32915908Y49897522D01*
X32965408Y49933486D01*
X33021624Y49934957D01*
X33081175Y49919000D01*
X33212827Y49919000D01*
X33272377Y49934957D01*
X33333478Y49931756D01*
X33381029Y49893252D01*
X33397001Y49839331D01*
X33397001Y49091769D01*
X33463123Y49102242D01*
X33665216Y49167905D01*
X33854553Y49264376D01*
X34026465Y49389278D01*
X34176723Y49539536D01*
X34301624Y49711448D01*
X34321671Y49750794D01*
X34339873Y49775848D01*
X34347936Y49783911D01*
X34402451Y49811686D01*
X34462879Y49802116D01*
X34465708Y49800675D01*
X34508952Y49757421D01*
X34517494Y49740657D01*
X34532377Y49711448D01*
X34657278Y49539536D01*
X34807536Y49389278D01*
X34979448Y49264376D01*
X35168785Y49167905D01*
X35370878Y49102242D01*
X35437000Y49091769D01*
X35437001Y49091770D01*
X35437001Y49839331D01*
X35455908Y49897522D01*
X35505408Y49933486D01*
X35561624Y49934957D01*
X35621175Y49919000D01*
X35752827Y49919000D01*
X35812377Y49934957D01*
X35873478Y49931756D01*
X35921029Y49893252D01*
X35937001Y49839331D01*
X35937001Y49091769D01*
X36003123Y49102242D01*
X36205216Y49167905D01*
X36394553Y49264376D01*
X36566465Y49389278D01*
X36716723Y49539536D01*
X36841624Y49711448D01*
X36861671Y49750794D01*
X36879873Y49775848D01*
X36887936Y49783911D01*
X36942451Y49811686D01*
X37002879Y49802116D01*
X37005708Y49800675D01*
X37048952Y49757421D01*
X37057494Y49740657D01*
X37072377Y49711448D01*
X37197278Y49539536D01*
X37347536Y49389278D01*
X37519448Y49264376D01*
X37708785Y49167905D01*
X37910878Y49102242D01*
X37977000Y49091769D01*
X37977001Y49091770D01*
X37977001Y49839331D01*
X37995908Y49897522D01*
X38045408Y49933486D01*
X38101624Y49934957D01*
X38161175Y49919000D01*
X38292827Y49919000D01*
X38352377Y49934957D01*
X38413478Y49931756D01*
X38461029Y49893252D01*
X38477001Y49839331D01*
X38477001Y49091769D01*
X38543123Y49102242D01*
X38745216Y49167905D01*
X38934553Y49264376D01*
X39106465Y49389278D01*
X39178413Y49461226D01*
X39203462Y49479425D01*
X39213215Y49484394D01*
X39273646Y49493963D01*
X39328161Y49466184D01*
X39354418Y49419305D01*
X39355762Y49413710D01*
X39358500Y49390587D01*
X39358500Y46208181D01*
X39353654Y46177588D01*
X39349532Y46164902D01*
X39313580Y46115411D01*
X39309459Y46112416D01*
X39251271Y46093500D01*
X24962725Y46093500D01*
X24662464Y46057040D01*
X24662441Y46057037D01*
X24368744Y45984647D01*
X24085879Y45877371D01*
X23818048Y45736803D01*
X23818029Y45736793D01*
X23572544Y45567346D01*
X23572528Y45567334D01*
X23569081Y45564954D01*
X23569078Y45564952D01*
X23569076Y45564950D01*
X23564920Y45561269D01*
X23564896Y45561249D01*
X23471803Y45478775D01*
X23342664Y45364368D01*
X23342640Y45364344D01*
X23272956Y45285686D01*
X23180575Y45181409D01*
X23142042Y45137915D01*
X22970207Y44888971D01*
X22970197Y44888952D01*
X22829629Y44621121D01*
X22722353Y44338256D01*
X22649963Y44044559D01*
X22649960Y44044536D01*
X22613500Y43744275D01*
X22613500Y8833727D01*
X22649960Y8533466D01*
X22649963Y8533443D01*
X22722352Y8239751D01*
X22722354Y8239742D01*
X22770042Y8113999D01*
X22829629Y7956881D01*
X22970197Y7689050D01*
X22970206Y7689033D01*
X22970209Y7689028D01*
X23110696Y7485500D01*
X23142050Y7440076D01*
X23342648Y7213648D01*
X23569076Y7013050D01*
X23640137Y6964000D01*
X23818027Y6841210D01*
X23818032Y6841207D01*
X24085887Y6700627D01*
X24368734Y6593357D01*
X24515591Y6557160D01*
X24662444Y6520964D01*
X24662445Y6520964D01*
X24662449Y6520963D01*
X24662454Y6520963D01*
X24662456Y6520962D01*
X24789600Y6505524D01*
X24962736Y6484501D01*
X24962744Y6484500D01*
X24962748Y6484500D01*
X25048108Y6484500D01*
X39243820Y6484500D01*
X39274408Y6479657D01*
X39287095Y6475534D01*
X39336595Y6439573D01*
X39336596Y6439572D01*
X39339591Y6435450D01*
X39358500Y6377260D01*
X39358500Y5731377D01*
X39353654Y5700783D01*
X39350274Y5690381D01*
X39314309Y5640881D01*
X39256118Y5621975D01*
X39204400Y5636559D01*
X39203080Y5637368D01*
X39199494Y5639565D01*
X39181214Y5653975D01*
X39106467Y5728721D01*
X39106465Y5728723D01*
X38934553Y5853625D01*
X38934552Y5853626D01*
X38934550Y5853627D01*
X38745214Y5950097D01*
X38543119Y6015761D01*
X38477001Y6026234D01*
X38477001Y5278670D01*
X38458094Y5220479D01*
X38408594Y5184515D01*
X38352378Y5183043D01*
X38292827Y5199000D01*
X38292826Y5199000D01*
X38161176Y5199000D01*
X38161175Y5199000D01*
X38101624Y5183043D01*
X38040523Y5186245D01*
X37992973Y5224751D01*
X37977001Y5278670D01*
X37977001Y6026231D01*
X37977001Y6026232D01*
X37977000Y6026233D01*
X37976999Y6026233D01*
X37918577Y6016979D01*
X37910880Y6015760D01*
X37910879Y6015760D01*
X37861318Y5999658D01*
X37708785Y5950097D01*
X37519450Y5853627D01*
X37347537Y5728724D01*
X37197277Y5578464D01*
X37072373Y5406548D01*
X37052329Y5367209D01*
X37034124Y5342150D01*
X37026068Y5334094D01*
X36971551Y5306317D01*
X36911137Y5315879D01*
X36908331Y5317308D01*
X36865058Y5360564D01*
X36865048Y5360582D01*
X36841626Y5406550D01*
X36841625Y5406552D01*
X36716723Y5578465D01*
X36566465Y5728723D01*
X36394553Y5853625D01*
X36394552Y5853626D01*
X36394550Y5853627D01*
X36205214Y5950097D01*
X36003119Y6015761D01*
X35937001Y6026234D01*
X35937001Y5278670D01*
X35918094Y5220479D01*
X35868594Y5184515D01*
X35812378Y5183043D01*
X35752827Y5199000D01*
X35752826Y5199000D01*
X35621176Y5199000D01*
X35621175Y5199000D01*
X35561624Y5183043D01*
X35500523Y5186245D01*
X35452973Y5224751D01*
X35437001Y5278670D01*
X35437001Y6026231D01*
X35437001Y6026232D01*
X35437000Y6026233D01*
X35436999Y6026233D01*
X35378577Y6016979D01*
X35370880Y6015760D01*
X35370879Y6015760D01*
X35321318Y5999658D01*
X35168785Y5950097D01*
X34979450Y5853627D01*
X34807537Y5728724D01*
X34657277Y5578464D01*
X34532373Y5406548D01*
X34512329Y5367209D01*
X34494124Y5342150D01*
X34486068Y5334094D01*
X34431551Y5306317D01*
X34371137Y5315879D01*
X34368331Y5317308D01*
X34325058Y5360564D01*
X34325048Y5360582D01*
X34301626Y5406550D01*
X34301625Y5406552D01*
X34176723Y5578465D01*
X34026465Y5728723D01*
X33854553Y5853625D01*
X33854552Y5853626D01*
X33854550Y5853627D01*
X33665214Y5950097D01*
X33463119Y6015761D01*
X33397001Y6026234D01*
X33397001Y5278670D01*
X33378094Y5220479D01*
X33328594Y5184515D01*
X33272378Y5183043D01*
X33212827Y5199000D01*
X33212826Y5199000D01*
X33081176Y5199000D01*
X33081175Y5199000D01*
X33021624Y5183043D01*
X32960523Y5186245D01*
X32912973Y5224751D01*
X32897001Y5278670D01*
X32897001Y6026231D01*
X32897001Y6026232D01*
X32897000Y6026233D01*
X32896999Y6026233D01*
X32838577Y6016979D01*
X32830880Y6015760D01*
X32830879Y6015760D01*
X32781318Y5999658D01*
X32628785Y5950097D01*
X32439450Y5853627D01*
X32267537Y5728724D01*
X32117277Y5578464D01*
X31992373Y5406548D01*
X31972329Y5367209D01*
X31954124Y5342150D01*
X31946068Y5334094D01*
X31891551Y5306317D01*
X31831137Y5315879D01*
X31828331Y5317308D01*
X31785058Y5360564D01*
X31785048Y5360582D01*
X31761626Y5406550D01*
X31761625Y5406552D01*
X31636723Y5578465D01*
X31486465Y5728723D01*
X31314553Y5853625D01*
X31314552Y5853626D01*
X31314550Y5853627D01*
X31125214Y5950097D01*
X30923119Y6015761D01*
X30857001Y6026234D01*
X30857001Y5278670D01*
X30838094Y5220479D01*
X30788594Y5184515D01*
X30732378Y5183043D01*
X30672827Y5199000D01*
X30672826Y5199000D01*
X30541176Y5199000D01*
X30541175Y5199000D01*
X30481624Y5183043D01*
X30420523Y5186245D01*
X30372973Y5224751D01*
X30357001Y5278670D01*
X30357001Y6026231D01*
X30357001Y6026232D01*
X30357000Y6026233D01*
X30356999Y6026233D01*
X30298577Y6016979D01*
X30290880Y6015760D01*
X30290879Y6015760D01*
X30241318Y5999658D01*
X30088785Y5950097D01*
X29899450Y5853627D01*
X29727537Y5728724D01*
X29577277Y5578464D01*
X29452374Y5406551D01*
X29355904Y5217216D01*
X29290241Y5015121D01*
X29279769Y4949002D01*
X29279769Y4949001D01*
X29279770Y4949000D01*
X30027331Y4949000D01*
X30085522Y4930093D01*
X30121486Y4880593D01*
X30122958Y4824377D01*
X30107001Y4764826D01*
X30107001Y4633175D01*
X30122958Y4573623D01*
X30119756Y4512522D01*
X30081250Y4464972D01*
X30027331Y4449000D01*
X29279770Y4449000D01*
X29290241Y4382880D01*
X29355904Y4180786D01*
X29446445Y4003088D01*
X29452376Y3991448D01*
X29577278Y3819536D01*
X29727536Y3669278D01*
X29899448Y3544376D01*
X30088785Y3447905D01*
X30290878Y3382242D01*
X30357000Y3371769D01*
X30357001Y3371770D01*
X30357001Y4119331D01*
X30375908Y4177522D01*
X30425408Y4213486D01*
X30481624Y4214957D01*
X30541175Y4199000D01*
X30672827Y4199000D01*
X30732377Y4214957D01*
X30793478Y4211756D01*
X30841029Y4173252D01*
X30857001Y4119331D01*
X30857001Y3371769D01*
X30923123Y3382242D01*
X31125216Y3447905D01*
X31314553Y3544376D01*
X31486465Y3669278D01*
X31636723Y3819536D01*
X31761624Y3991448D01*
X31781671Y4030794D01*
X31799873Y4055848D01*
X31807936Y4063911D01*
X31862451Y4091686D01*
X31922879Y4082116D01*
X31925708Y4080675D01*
X31968952Y4037421D01*
X31986446Y4003088D01*
X31992377Y3991448D01*
X32117278Y3819536D01*
X32267536Y3669278D01*
X32439448Y3544376D01*
X32628785Y3447905D01*
X32830878Y3382242D01*
X32897000Y3371769D01*
X32897001Y3371770D01*
X32897001Y4119331D01*
X32915908Y4177522D01*
X32965408Y4213486D01*
X33021624Y4214957D01*
X33081175Y4199000D01*
X33212827Y4199000D01*
X33272377Y4214957D01*
X33333478Y4211756D01*
X33381029Y4173252D01*
X33397001Y4119331D01*
X33397001Y3371769D01*
X33463123Y3382242D01*
X33665216Y3447905D01*
X33854553Y3544376D01*
X34026465Y3669278D01*
X34176723Y3819536D01*
X34301624Y3991448D01*
X34321671Y4030794D01*
X34339873Y4055848D01*
X34347936Y4063911D01*
X34402451Y4091686D01*
X34462879Y4082116D01*
X34465708Y4080675D01*
X34508952Y4037421D01*
X34526446Y4003088D01*
X34532377Y3991448D01*
X34657278Y3819536D01*
X34807536Y3669278D01*
X34979448Y3544376D01*
X35168785Y3447905D01*
X35370878Y3382242D01*
X35437000Y3371769D01*
X35437001Y3371770D01*
X35437001Y4119331D01*
X35455908Y4177522D01*
X35505408Y4213486D01*
X35561624Y4214957D01*
X35621175Y4199000D01*
X35752827Y4199000D01*
X35812377Y4214957D01*
X35873478Y4211756D01*
X35921029Y4173252D01*
X35937001Y4119331D01*
X35937001Y3371769D01*
X36003123Y3382242D01*
X36205216Y3447905D01*
X36394553Y3544376D01*
X36566465Y3669278D01*
X36716723Y3819536D01*
X36841624Y3991448D01*
X36861671Y4030794D01*
X36879873Y4055848D01*
X36887936Y4063911D01*
X36942451Y4091686D01*
X37002879Y4082116D01*
X37005708Y4080675D01*
X37048952Y4037421D01*
X37066446Y4003088D01*
X37072377Y3991448D01*
X37197278Y3819536D01*
X37347536Y3669278D01*
X37519448Y3544376D01*
X37708785Y3447905D01*
X37910878Y3382242D01*
X37977000Y3371769D01*
X37977001Y3371770D01*
X37977001Y4119331D01*
X37995908Y4177522D01*
X38045408Y4213486D01*
X38101624Y4214957D01*
X38161175Y4199000D01*
X38292827Y4199000D01*
X38352377Y4214957D01*
X38413478Y4211756D01*
X38461029Y4173252D01*
X38477001Y4119331D01*
X38477001Y3371769D01*
X38543123Y3382242D01*
X38745216Y3447905D01*
X38934553Y3544376D01*
X39106465Y3669278D01*
X39178413Y3741226D01*
X39203462Y3759425D01*
X39213215Y3764394D01*
X39273646Y3773963D01*
X39328161Y3746184D01*
X39354418Y3699305D01*
X39355762Y3693710D01*
X39358500Y3670587D01*
X39358500Y615181D01*
X39353654Y584588D01*
X39349532Y571902D01*
X39313580Y522411D01*
X39309459Y519416D01*
X39251271Y500500D01*
X26575929Y500500D01*
X26545335Y505346D01*
X26534933Y508726D01*
X26485433Y544691D01*
X26466527Y602882D01*
X26481104Y654588D01*
X26484119Y659509D01*
X26498521Y677782D01*
X26562412Y741672D01*
X26710444Y945420D01*
X26824778Y1169813D01*
X26902604Y1409337D01*
X26909705Y1454171D01*
X26942000Y1658071D01*
X26942000Y2183998D01*
X26942000Y2183999D01*
X26941999Y2184000D01*
X26941998Y2184000D01*
X26177598Y2184000D01*
X26119407Y2202907D01*
X26090443Y2242773D01*
X29756501Y2242773D01*
X29756501Y2242770D01*
X29756501Y2075231D01*
X29789184Y1910921D01*
X29789186Y1910915D01*
X29792397Y1903164D01*
X29847820Y1769359D01*
X29853297Y1756138D01*
X29853298Y1756137D01*
X29946375Y1616838D01*
X30064839Y1498374D01*
X30204138Y1405297D01*
X30358919Y1341184D01*
X30523234Y1308500D01*
X30523235Y1308500D01*
X30690767Y1308500D01*
X30690768Y1308500D01*
X30855083Y1341184D01*
X31009864Y1405297D01*
X31149163Y1498374D01*
X31267627Y1616838D01*
X31360704Y1756137D01*
X31424817Y1910918D01*
X31457501Y2075233D01*
X31457501Y2242767D01*
X31457500Y2242770D01*
X31457499Y2242773D01*
X32296501Y2242773D01*
X32296501Y2242770D01*
X32296501Y2075231D01*
X32329184Y1910921D01*
X32329186Y1910915D01*
X32332397Y1903164D01*
X32387820Y1769359D01*
X32393297Y1756138D01*
X32393298Y1756137D01*
X32486375Y1616838D01*
X32604839Y1498374D01*
X32744138Y1405297D01*
X32898919Y1341184D01*
X33063234Y1308500D01*
X33063235Y1308500D01*
X33230767Y1308500D01*
X33230768Y1308500D01*
X33395083Y1341184D01*
X33549864Y1405297D01*
X33689163Y1498374D01*
X33807627Y1616838D01*
X33900704Y1756137D01*
X33964817Y1910918D01*
X33997501Y2075233D01*
X33997501Y2242767D01*
X33997500Y2242770D01*
X33997499Y2242773D01*
X34836501Y2242773D01*
X34836501Y2242770D01*
X34836501Y2075231D01*
X34869184Y1910921D01*
X34869186Y1910915D01*
X34872397Y1903164D01*
X34927820Y1769359D01*
X34933297Y1756138D01*
X34933298Y1756137D01*
X35026375Y1616838D01*
X35144839Y1498374D01*
X35284138Y1405297D01*
X35438919Y1341184D01*
X35603234Y1308500D01*
X35603235Y1308500D01*
X35770767Y1308500D01*
X35770768Y1308500D01*
X35935083Y1341184D01*
X36089864Y1405297D01*
X36229163Y1498374D01*
X36347627Y1616838D01*
X36440704Y1756137D01*
X36504817Y1910918D01*
X36537501Y2075233D01*
X36537501Y2242767D01*
X36537500Y2242770D01*
X36537499Y2242773D01*
X37376501Y2242773D01*
X37376501Y2242770D01*
X37376501Y2075231D01*
X37409184Y1910921D01*
X37409186Y1910915D01*
X37412397Y1903164D01*
X37467820Y1769359D01*
X37473297Y1756138D01*
X37473298Y1756137D01*
X37566375Y1616838D01*
X37684839Y1498374D01*
X37824138Y1405297D01*
X37978919Y1341184D01*
X38143234Y1308500D01*
X38143235Y1308500D01*
X38310767Y1308500D01*
X38310768Y1308500D01*
X38475083Y1341184D01*
X38629864Y1405297D01*
X38769163Y1498374D01*
X38887627Y1616838D01*
X38980704Y1756137D01*
X39044817Y1910918D01*
X39077501Y2075233D01*
X39077501Y2242767D01*
X39044817Y2407082D01*
X38980704Y2561863D01*
X38887627Y2701162D01*
X38769163Y2819626D01*
X38687003Y2874524D01*
X38674497Y2890388D01*
X38629870Y2912701D01*
X38629863Y2912704D01*
X38475086Y2976815D01*
X38475080Y2976817D01*
X38388046Y2994129D01*
X38310772Y3009500D01*
X38310770Y3009500D01*
X38310768Y3009500D01*
X38143234Y3009500D01*
X38143231Y3009500D01*
X38143228Y3009500D01*
X38019998Y2984988D01*
X37978921Y2976817D01*
X37978915Y2976815D01*
X37978912Y2976814D01*
X37824138Y2912705D01*
X37684839Y2819627D01*
X37566374Y2701162D01*
X37473296Y2561863D01*
X37409187Y2407089D01*
X37409184Y2407079D01*
X37376501Y2242773D01*
X36537499Y2242773D01*
X36514156Y2360131D01*
X36504817Y2407082D01*
X36440704Y2561863D01*
X36347627Y2701162D01*
X36229163Y2819626D01*
X36147003Y2874524D01*
X36134497Y2890388D01*
X36089870Y2912701D01*
X36089863Y2912704D01*
X35935086Y2976815D01*
X35935080Y2976817D01*
X35848046Y2994129D01*
X35770772Y3009500D01*
X35770770Y3009500D01*
X35770768Y3009500D01*
X35603234Y3009500D01*
X35603231Y3009500D01*
X35603228Y3009500D01*
X35479998Y2984988D01*
X35438921Y2976817D01*
X35438915Y2976815D01*
X35438912Y2976814D01*
X35284138Y2912705D01*
X35144839Y2819627D01*
X35026374Y2701162D01*
X34933296Y2561863D01*
X34869187Y2407089D01*
X34869184Y2407079D01*
X34836501Y2242773D01*
X33997499Y2242773D01*
X33974156Y2360131D01*
X33964817Y2407082D01*
X33900704Y2561863D01*
X33807627Y2701162D01*
X33689163Y2819626D01*
X33607003Y2874524D01*
X33594497Y2890388D01*
X33549870Y2912701D01*
X33549863Y2912704D01*
X33395086Y2976815D01*
X33395080Y2976817D01*
X33308046Y2994129D01*
X33230772Y3009500D01*
X33230770Y3009500D01*
X33230768Y3009500D01*
X33063234Y3009500D01*
X33063231Y3009500D01*
X33063228Y3009500D01*
X32939998Y2984988D01*
X32898921Y2976817D01*
X32898915Y2976815D01*
X32898912Y2976814D01*
X32744138Y2912705D01*
X32604839Y2819627D01*
X32486374Y2701162D01*
X32393296Y2561863D01*
X32329187Y2407089D01*
X32329184Y2407079D01*
X32296501Y2242773D01*
X31457499Y2242773D01*
X31434156Y2360131D01*
X31424817Y2407082D01*
X31360704Y2561863D01*
X31267627Y2701162D01*
X31149163Y2819626D01*
X31067003Y2874524D01*
X31054497Y2890388D01*
X31009870Y2912701D01*
X31009863Y2912704D01*
X30855086Y2976815D01*
X30855080Y2976817D01*
X30768046Y2994129D01*
X30690772Y3009500D01*
X30690770Y3009500D01*
X30690768Y3009500D01*
X30523234Y3009500D01*
X30523231Y3009500D01*
X30523228Y3009500D01*
X30399998Y2984988D01*
X30358921Y2976817D01*
X30358915Y2976815D01*
X30358912Y2976814D01*
X30204138Y2912705D01*
X30064839Y2819627D01*
X29946374Y2701162D01*
X29853296Y2561863D01*
X29789187Y2407089D01*
X29789184Y2407079D01*
X29756501Y2242773D01*
X26090443Y2242773D01*
X26083443Y2252407D01*
X26080500Y2302313D01*
X26091999Y2360126D01*
X26092000Y2360133D01*
X26092000Y2507868D01*
X26091999Y2507875D01*
X26080500Y2565687D01*
X26087692Y2626448D01*
X26129225Y2671377D01*
X26177598Y2684000D01*
X26941998Y2684000D01*
X26941999Y2684000D01*
X26942000Y2684001D01*
X26942000Y3209927D01*
X26942000Y3209931D01*
X26902605Y3458660D01*
X26902603Y3458666D01*
X26824778Y3698188D01*
X26710444Y3922581D01*
X26562412Y4126329D01*
X26384328Y4304413D01*
X26254831Y4398498D01*
X26185322Y4449000D01*
X26180585Y4452442D01*
X26180579Y4452446D01*
X25956187Y4566779D01*
X25716658Y4644607D01*
X25592000Y4664351D01*
X25592000Y3269598D01*
X25573093Y3211407D01*
X25523593Y3175443D01*
X25473687Y3172500D01*
X25415874Y3184000D01*
X25415869Y3184000D01*
X25268131Y3184000D01*
X25268125Y3184000D01*
X25210313Y3172500D01*
X25149552Y3179692D01*
X25104623Y3221225D01*
X25092000Y3269598D01*
X25092000Y4664348D01*
X25092000Y4664349D01*
X25091999Y4664350D01*
X25091998Y4664350D01*
X24967340Y4644607D01*
X24727811Y4566779D01*
X24503421Y4452447D01*
X24299672Y4304414D01*
X24121586Y4126328D01*
X23973553Y3922579D01*
X23859221Y3698189D01*
X23781393Y3458660D01*
X23746770Y3240050D01*
X23737197Y3210590D01*
X23731413Y3199239D01*
X23688148Y3155975D01*
X23631572Y3145872D01*
X23622250Y3146975D01*
X23595998Y3153825D01*
X23475498Y3203737D01*
X23320844Y3234500D01*
X23320842Y3234500D01*
X23163158Y3234500D01*
X23163155Y3234500D01*
X23163154Y3234500D01*
X23098680Y3221675D01*
X23018065Y3205639D01*
X23018058Y3205639D01*
X23008499Y3203738D01*
X22862829Y3143400D01*
X22862806Y3143387D01*
X22731714Y3055793D01*
X22731714Y3055792D01*
X22731708Y3055787D01*
X22731695Y3055776D01*
X22670047Y2994129D01*
X22644989Y2975924D01*
X22634840Y2970753D01*
X22574408Y2961182D01*
X22519894Y2988959D01*
X22517651Y2991202D01*
X22489889Y3045704D01*
X22488291Y3055793D01*
X22461221Y3226711D01*
X22461220Y3226715D01*
X22400423Y3413827D01*
X22400421Y3413830D01*
X22400411Y3413849D01*
X22398545Y3417702D01*
X22397794Y3418985D01*
X22333905Y3544376D01*
X22311096Y3589143D01*
X22311092Y3589149D01*
X22311090Y3589152D01*
X22311086Y3589158D01*
X22195454Y3748310D01*
X22195452Y3748312D01*
X22195450Y3748315D01*
X22056314Y3887451D01*
X22056310Y3887454D01*
X22056308Y3887456D01*
X21897156Y4003088D01*
X21897142Y4003097D01*
X21721832Y4092421D01*
X21595506Y4133466D01*
X21534706Y4153221D01*
X21492000Y4159986D01*
X21492000Y2961907D01*
X21473093Y2903716D01*
X21423593Y2867752D01*
X21367378Y2866280D01*
X21301244Y2884000D01*
X21182756Y2884000D01*
X21116622Y2866280D01*
X21055521Y2869483D01*
X21007971Y2907988D01*
X20992000Y2961907D01*
X20992000Y4159985D01*
X20992000Y4159986D01*
X20991999Y4159986D01*
X20949293Y4153221D01*
X20949292Y4153221D01*
X20762166Y4092421D01*
X20586856Y4003097D01*
X20586842Y4003088D01*
X20427690Y3887456D01*
X20288544Y3748310D01*
X20172912Y3589158D01*
X20172903Y3589144D01*
X20086204Y3418984D01*
X20085452Y3417700D01*
X20083576Y3413827D01*
X20022777Y3226711D01*
X20022776Y3226706D01*
X19995273Y3053049D01*
X19985701Y3023589D01*
X19980528Y3013437D01*
X19937262Y2970173D01*
X19876845Y2960601D01*
X19873736Y2961093D01*
X19819216Y2988863D01*
X19819206Y2988872D01*
X19752288Y3055790D01*
X19688157Y3098641D01*
X19621185Y3143391D01*
X19621174Y3143397D01*
X19621169Y3143400D01*
X19475498Y3203737D01*
X19320844Y3234500D01*
X19320842Y3234500D01*
X19163158Y3234500D01*
X19163155Y3234500D01*
X19163154Y3234500D01*
X19026442Y3207306D01*
X19026438Y3207305D01*
X19008503Y3203737D01*
X19008501Y3203737D01*
X18888758Y3154139D01*
X18887612Y3153696D01*
X18885694Y3153592D01*
X18859721Y3147355D01*
X18847021Y3146355D01*
X18829587Y3150541D01*
X18826517Y3150373D01*
X18824293Y3151811D01*
X18787526Y3160637D01*
X18749345Y3203599D01*
X18745413Y3212129D01*
X18737540Y3238085D01*
X18708889Y3418984D01*
X18702605Y3458659D01*
X18702604Y3458661D01*
X18702604Y3458664D01*
X18657876Y3596323D01*
X18657875Y3596323D01*
X17909631Y2848081D01*
X17855115Y2820304D01*
X17794683Y2829875D01*
X17757312Y2863084D01*
X17753036Y2869483D01*
X17724563Y2912097D01*
X17620097Y3016563D01*
X17620091Y3016567D01*
X17571080Y3049315D01*
X17533200Y3097365D01*
X17530798Y3158503D01*
X17556075Y3201633D01*
X18412219Y4057775D01*
X18387048Y4092421D01*
X18362419Y4126321D01*
X18362417Y4126323D01*
X18362415Y4126326D01*
X18184328Y4304413D01*
X17980580Y4452445D01*
X17980579Y4452446D01*
X17980577Y4452447D01*
X17756187Y4566779D01*
X17516658Y4644607D01*
X17267929Y4684000D01*
X17267926Y4684000D01*
X17016074Y4684000D01*
X17016071Y4684000D01*
X16767339Y4644606D01*
X16527811Y4566779D01*
X16303421Y4452447D01*
X16099672Y4304414D01*
X15921586Y4126328D01*
X15871779Y4057776D01*
X15871779Y4057775D01*
X16333230Y3596324D01*
X16727920Y3201634D01*
X16755697Y3147117D01*
X16746126Y3086685D01*
X16712918Y3049315D01*
X16663907Y3016567D01*
X16559434Y2912094D01*
X16526687Y2863083D01*
X16478637Y2825203D01*
X16417499Y2822801D01*
X16374367Y2848080D01*
X15626123Y3596324D01*
X15581395Y3458664D01*
X15542000Y3209931D01*
X15542000Y1658071D01*
X15581394Y1409340D01*
X15626123Y1271678D01*
X16374365Y2019922D01*
X16428882Y2047699D01*
X16489314Y2038128D01*
X16526684Y2004920D01*
X16559433Y1955908D01*
X16559434Y1955907D01*
X16559437Y1955903D01*
X16663903Y1851437D01*
X16663906Y1851435D01*
X16663907Y1851434D01*
X16712916Y1818687D01*
X16750795Y1770637D01*
X16753197Y1709499D01*
X16727918Y1666369D01*
X15871779Y810228D01*
X15871779Y810227D01*
X15921579Y741681D01*
X15921584Y741675D01*
X15982668Y680590D01*
X16000875Y655530D01*
X16005839Y645787D01*
X16015409Y585355D01*
X15987630Y530839D01*
X15940751Y504582D01*
X15935156Y503238D01*
X15912033Y500500D01*
X615180Y500500D01*
X584587Y505346D01*
X571901Y509468D01*
X522401Y545432D01*
X522394Y545442D01*
X519400Y549564D01*
X500500Y607744D01*
X500500Y7444678D01*
X17163934Y7444678D01*
X17166999Y7416175D01*
X17173401Y7356629D01*
X17173403Y7356618D01*
X17223645Y7221914D01*
X17223646Y7221911D01*
X17223650Y7221905D01*
X17309805Y7106817D01*
X17309807Y7106815D01*
X17309815Y7106807D01*
X17424909Y7020647D01*
X17424911Y7020646D01*
X17559618Y6970403D01*
X17559629Y6970401D01*
X17619176Y6963999D01*
X18316998Y6963999D01*
X18316999Y6963999D01*
X18317000Y6964000D01*
X18317000Y7836093D01*
X18335907Y7894284D01*
X18385407Y7930248D01*
X18441624Y7931719D01*
X18469186Y7924334D01*
X18507753Y7914000D01*
X18507755Y7913999D01*
X18626244Y7913999D01*
X18626245Y7913999D01*
X18626245Y7914000D01*
X18686886Y7930248D01*
X18692376Y7931719D01*
X18753478Y7928518D01*
X18801028Y7890013D01*
X18817000Y7836093D01*
X18817000Y6964000D01*
X18817001Y6963999D01*
X19514820Y6963999D01*
X19514824Y6963999D01*
X19574370Y6970401D01*
X19574381Y6970403D01*
X19709088Y7020646D01*
X19709090Y7020647D01*
X19824184Y7106807D01*
X19824192Y7106815D01*
X19910352Y7221909D01*
X19910353Y7221911D01*
X19960596Y7356618D01*
X19960598Y7356629D01*
X19967000Y7416175D01*
X19967000Y8113998D01*
X19966999Y8113999D01*
X19966998Y8113999D01*
X19094906Y8113999D01*
X19036715Y8132906D01*
X19000751Y8182406D01*
X18999280Y8238623D01*
X19016999Y8304753D01*
X19017000Y8304755D01*
X19017000Y8423244D01*
X19016999Y8423246D01*
X18999280Y8489375D01*
X19002481Y8550477D01*
X19040986Y8598027D01*
X19094906Y8613999D01*
X19966998Y8613999D01*
X19966999Y8613999D01*
X19967000Y8614000D01*
X19967000Y9311824D01*
X19960598Y9371370D01*
X19960596Y9371381D01*
X19910353Y9506088D01*
X19910352Y9506090D01*
X19824192Y9621184D01*
X19824184Y9621192D01*
X19824182Y9621194D01*
X19709094Y9707349D01*
X19709088Y9707353D01*
X19709085Y9707354D01*
X19574381Y9757596D01*
X19574373Y9757598D01*
X19574371Y9757598D01*
X19554521Y9759732D01*
X19514824Y9763999D01*
X19514822Y9763999D01*
X18817002Y9763999D01*
X18817001Y9763999D01*
X18817000Y9763998D01*
X18817000Y9763997D01*
X18817000Y8891906D01*
X18798093Y8833715D01*
X18748593Y8797751D01*
X18692378Y8796279D01*
X18626244Y8813999D01*
X18507756Y8813999D01*
X18441622Y8796279D01*
X18380521Y8799482D01*
X18332971Y8837987D01*
X18317000Y8891906D01*
X18317000Y9763997D01*
X18317000Y9763998D01*
X18316999Y9763999D01*
X18316998Y9763999D01*
X17619177Y9763999D01*
X17619176Y9763999D01*
X17559629Y9757598D01*
X17559627Y9757598D01*
X17559620Y9757597D01*
X17559618Y9757596D01*
X17492264Y9732475D01*
X17424913Y9707354D01*
X17424910Y9707353D01*
X17424904Y9707349D01*
X17309816Y9621194D01*
X17309805Y9621183D01*
X17223650Y9506095D01*
X17223646Y9506089D01*
X17223645Y9506086D01*
X17173404Y9371383D01*
X17173403Y9371380D01*
X17173402Y9371373D01*
X17173401Y9371370D01*
X17167000Y9311824D01*
X17167000Y8614000D01*
X17167001Y8613999D01*
X18039094Y8613999D01*
X18097285Y8595092D01*
X18133249Y8545592D01*
X18134720Y8489375D01*
X18117000Y8423246D01*
X18117000Y8304753D01*
X18134720Y8238623D01*
X18131519Y8177521D01*
X18093014Y8129971D01*
X18039094Y8113999D01*
X17167001Y8113999D01*
X17167000Y8113998D01*
X17167000Y8113997D01*
X17167000Y7454111D01*
X17163934Y7444678D01*
X500500Y7444678D01*
X500500Y9814320D01*
X505343Y9844906D01*
X509465Y9857595D01*
X545423Y9907094D01*
X546022Y9907529D01*
X549563Y9910100D01*
X607743Y9929000D01*
X3535355Y9929000D01*
X3535356Y9929000D01*
X3535357Y9929001D01*
X3535357Y11330000D01*
X3554264Y11388191D01*
X3603764Y11424155D01*
X3634357Y11429000D01*
X3936357Y11429000D01*
X3994548Y11410093D01*
X4030512Y11360593D01*
X4035357Y11330000D01*
X4035357Y9929001D01*
X4035358Y9929000D01*
X7103177Y9929000D01*
X7103181Y9929000D01*
X7162727Y9935402D01*
X7162738Y9935404D01*
X7297445Y9985647D01*
X7297447Y9985648D01*
X7412541Y10071808D01*
X7412549Y10071816D01*
X7498709Y10186910D01*
X7498710Y10186912D01*
X7548953Y10321619D01*
X7548955Y10321630D01*
X7555357Y10381176D01*
X7555357Y10982844D01*
X17766500Y10982844D01*
X17766500Y10825155D01*
X17767130Y10821988D01*
X17795361Y10680066D01*
X17795361Y10680062D01*
X17797262Y10670500D01*
X17857600Y10524830D01*
X17857603Y10524825D01*
X17857609Y10524814D01*
X17910312Y10445940D01*
X17945211Y10393710D01*
X17945214Y10393707D01*
X17945218Y10393702D01*
X18017291Y10321630D01*
X18056711Y10282210D01*
X18134876Y10229982D01*
X18187814Y10194609D01*
X18187825Y10194603D01*
X18241638Y10172314D01*
X18246296Y10170385D01*
X18246299Y10170383D01*
X18289494Y10152491D01*
X18333503Y10134262D01*
X18488158Y10103499D01*
X18488159Y10103499D01*
X18645841Y10103499D01*
X18645842Y10103499D01*
X18800497Y10134262D01*
X18946179Y10194605D01*
X19077289Y10282210D01*
X19188789Y10393710D01*
X19276394Y10524820D01*
X19336737Y10670502D01*
X19367500Y10825157D01*
X19367500Y10982841D01*
X19336737Y11137496D01*
X19276394Y11283178D01*
X19276393Y11283180D01*
X19276390Y11283185D01*
X19241017Y11336123D01*
X19188789Y11414288D01*
X19167292Y11435785D01*
X19077297Y11525781D01*
X19077292Y11525785D01*
X19077289Y11525788D01*
X19009978Y11570764D01*
X18946185Y11613390D01*
X18946174Y11613396D01*
X18946169Y11613399D01*
X18800498Y11673736D01*
X18645844Y11704499D01*
X18645842Y11704499D01*
X18488158Y11704499D01*
X18488155Y11704499D01*
X18488154Y11704499D01*
X18423680Y11691674D01*
X18343065Y11675638D01*
X18343058Y11675638D01*
X18333499Y11673737D01*
X18187829Y11613399D01*
X18187806Y11613386D01*
X18056711Y11525789D01*
X17945210Y11414288D01*
X17857613Y11283193D01*
X17857600Y11283170D01*
X17797906Y11139055D01*
X17797905Y11139049D01*
X17797263Y11137498D01*
X17797263Y11137496D01*
X17766500Y10982844D01*
X7555357Y10982844D01*
X7555357Y11813999D01*
X7555356Y11814000D01*
X7555355Y11814000D01*
X6483701Y11814000D01*
X6425510Y11832907D01*
X6389546Y11882407D01*
X6386603Y11932315D01*
X6393489Y11966933D01*
X6400357Y12001458D01*
X6400357Y12126542D01*
X6393489Y12161069D01*
X8719858Y12161069D01*
X8719858Y12161066D01*
X8719858Y11966935D01*
X8750279Y11813998D01*
X8757730Y11776543D01*
X8757730Y11776541D01*
X8832017Y11597195D01*
X8879728Y11525789D01*
X8896111Y11501271D01*
X8939870Y11435781D01*
X8939873Y11435778D01*
X8939877Y11435773D01*
X9015058Y11360593D01*
X9077139Y11298512D01*
X9238549Y11190662D01*
X9417898Y11116373D01*
X9608295Y11078500D01*
X9608296Y11078500D01*
X13762420Y11078500D01*
X13762421Y11078500D01*
X13952818Y11116373D01*
X14132167Y11190662D01*
X14293577Y11298512D01*
X14430846Y11435781D01*
X14538696Y11597191D01*
X14612985Y11776540D01*
X14650858Y11966937D01*
X14650858Y12161063D01*
X14612985Y12351460D01*
X14538696Y12530809D01*
X14430846Y12692219D01*
X14293577Y12829488D01*
X14293573Y12829491D01*
X14189307Y12899159D01*
X14176801Y12915022D01*
X14132168Y12937339D01*
X13952816Y13011628D01*
X13762425Y13049500D01*
X13762423Y13049500D01*
X13762421Y13049500D01*
X9608295Y13049500D01*
X9608292Y13049500D01*
X9608289Y13049500D01*
X9417899Y13011628D01*
X9417897Y13011628D01*
X9238551Y12937341D01*
X9077145Y12829494D01*
X8939864Y12692213D01*
X8832017Y12530807D01*
X8757730Y12351461D01*
X8757730Y12351459D01*
X8719858Y12161069D01*
X6393489Y12161069D01*
X6386603Y12195687D01*
X6393795Y12256447D01*
X6435327Y12301377D01*
X6483701Y12314000D01*
X7555355Y12314000D01*
X7555356Y12314000D01*
X7555357Y12314001D01*
X7555357Y13746825D01*
X7548955Y13806371D01*
X7548953Y13806379D01*
X7499821Y13938110D01*
X7499820Y13938113D01*
X7499820Y13938114D01*
X7498710Y13941090D01*
X7498709Y13941091D01*
X7498709Y13941092D01*
X7496794Y13944072D01*
X7494464Y13946761D01*
X7478680Y13967846D01*
X17766500Y13967846D01*
X17766500Y13810157D01*
X17767130Y13806990D01*
X17795361Y13665068D01*
X17795361Y13665064D01*
X17797262Y13655502D01*
X17857600Y13509832D01*
X17857603Y13509827D01*
X17857609Y13509816D01*
X17910312Y13430942D01*
X17945211Y13378712D01*
X17945214Y13378709D01*
X17945218Y13378704D01*
X18056707Y13267216D01*
X18056711Y13267212D01*
X18134876Y13214984D01*
X18187814Y13179611D01*
X18187825Y13179605D01*
X18241638Y13157316D01*
X18246296Y13155387D01*
X18246299Y13155385D01*
X18289494Y13137493D01*
X18333503Y13119264D01*
X18488158Y13088501D01*
X18488159Y13088501D01*
X18645841Y13088501D01*
X18645842Y13088501D01*
X18800497Y13119264D01*
X18946179Y13179607D01*
X19077289Y13267212D01*
X19188789Y13378712D01*
X19276394Y13509822D01*
X19336737Y13655504D01*
X19367500Y13810159D01*
X19367500Y13967843D01*
X19336737Y14122498D01*
X19328231Y14143032D01*
X19307701Y14192598D01*
X19276398Y14268172D01*
X19276396Y14268176D01*
X19276390Y14268187D01*
X19219617Y14353152D01*
X19219616Y14353154D01*
X19188791Y14399288D01*
X19077297Y14510783D01*
X19077292Y14510787D01*
X19077289Y14510790D01*
X18999418Y14562822D01*
X18946185Y14598392D01*
X18946174Y14598398D01*
X18946169Y14598401D01*
X18800498Y14658738D01*
X18645844Y14689501D01*
X18645842Y14689501D01*
X18488158Y14689501D01*
X18488155Y14689501D01*
X18488154Y14689501D01*
X18423680Y14676676D01*
X18343065Y14660640D01*
X18343058Y14660640D01*
X18333499Y14658739D01*
X18187829Y14598401D01*
X18187806Y14598388D01*
X18056711Y14510791D01*
X17945210Y14399290D01*
X17857613Y14268195D01*
X17857600Y14268172D01*
X17797906Y14124057D01*
X17797905Y14124051D01*
X17797263Y14122500D01*
X17797263Y14122498D01*
X17766500Y13967846D01*
X7478680Y13967846D01*
X7412550Y14056184D01*
X7412539Y14056195D01*
X7297451Y14142350D01*
X7297445Y14142354D01*
X7297442Y14142355D01*
X7162738Y14192597D01*
X7162730Y14192599D01*
X7162728Y14192599D01*
X7142878Y14194733D01*
X7103181Y14199000D01*
X7103179Y14199000D01*
X4035359Y14199000D01*
X4035358Y14199000D01*
X4035357Y14198999D01*
X4035357Y14198998D01*
X4035357Y12798000D01*
X4016450Y12739809D01*
X3966950Y12703845D01*
X3936357Y12699000D01*
X3634357Y12699000D01*
X3576166Y12717907D01*
X3540202Y12767407D01*
X3535357Y12798000D01*
X3535357Y14198999D01*
X3535356Y14199001D01*
X3520484Y14213873D01*
X3502282Y14238926D01*
X3496224Y14250815D01*
X3486653Y14311243D01*
X3487896Y14319090D01*
X3505582Y14361786D01*
X3556826Y14432317D01*
X3672947Y14660218D01*
X3751987Y14903481D01*
X3792000Y15156107D01*
X3792000Y15411894D01*
X3751987Y15664520D01*
X3672947Y15907783D01*
X3556825Y16135686D01*
X3556821Y16135692D01*
X3549320Y16146016D01*
X3479150Y16242597D01*
X3479149Y16242597D01*
X3479148Y16242597D01*
X3479147Y16242597D01*
X2934631Y15698082D01*
X2880115Y15670305D01*
X2819683Y15679876D01*
X2782313Y15713084D01*
X2749566Y15762093D01*
X2749565Y15762094D01*
X2749563Y15762097D01*
X2645097Y15866563D01*
X2645093Y15866566D01*
X2645092Y15866567D01*
X2596080Y15899316D01*
X2558201Y15947366D01*
X2555799Y16008504D01*
X2581076Y16051633D01*
X3125595Y16596150D01*
X3125595Y16596151D01*
X3125594Y16596152D01*
X3125595Y16596152D01*
X3040649Y16657870D01*
X3040649Y16657869D01*
X3027962Y16667086D01*
X3027961Y16667087D01*
X3027959Y16667088D01*
X3018690Y16673823D01*
X3018681Y16673828D01*
X2905542Y16731475D01*
X11016500Y16731475D01*
X11016500Y16586525D01*
X11037582Y16507846D01*
X11037581Y16507846D01*
X11054016Y16446512D01*
X11054018Y16446508D01*
X11126485Y16320992D01*
X11126487Y16320990D01*
X11126489Y16320988D01*
X11126491Y16320985D01*
X11228985Y16218491D01*
X11228987Y16218490D01*
X11228989Y16218488D01*
X11229536Y16218093D01*
X11231538Y16217016D01*
X11354511Y16146018D01*
X11354512Y16146018D01*
X11354515Y16146016D01*
X11494525Y16108500D01*
X11494526Y16108500D01*
X11639474Y16108500D01*
X11639475Y16108500D01*
X11779485Y16146016D01*
X11779486Y16146017D01*
X11779488Y16146018D01*
X11779489Y16146018D01*
X11898880Y16214949D01*
X11901768Y16216352D01*
X11902554Y16216869D01*
X11907563Y16219963D01*
X11908862Y16220714D01*
X11914220Y16227697D01*
X12007509Y16320985D01*
X12079984Y16446515D01*
X12096418Y16507846D01*
X17766500Y16507846D01*
X17766500Y16350157D01*
X17767107Y16347105D01*
X17767107Y16347102D01*
X17787896Y16242597D01*
X17793396Y16214943D01*
X17795361Y16205068D01*
X17795361Y16205064D01*
X17797262Y16195502D01*
X17857600Y16049832D01*
X17857613Y16049809D01*
X17897872Y15989559D01*
X17925213Y15948641D01*
X17945210Y15918713D01*
X17945212Y15918711D01*
X18056708Y15807214D01*
X18120666Y15764478D01*
X18120669Y15764477D01*
X18124230Y15762097D01*
X18187814Y15719611D01*
X18187825Y15719605D01*
X18241638Y15697316D01*
X18333503Y15659264D01*
X18488158Y15628501D01*
X18488159Y15628501D01*
X18645841Y15628501D01*
X18645842Y15628501D01*
X18800497Y15659264D01*
X18946179Y15719607D01*
X19077289Y15807212D01*
X19188789Y15918712D01*
X19276394Y16049822D01*
X19336737Y16195504D01*
X19367500Y16350159D01*
X19367500Y16507843D01*
X19367500Y16507846D01*
X19349042Y16600636D01*
X19336737Y16662498D01*
X19316622Y16711059D01*
X19276396Y16808176D01*
X19276390Y16808187D01*
X19234095Y16871485D01*
X19188789Y16939290D01*
X19077289Y17050790D01*
X19004370Y17099513D01*
X19004369Y17099514D01*
X18946194Y17138387D01*
X18946169Y17138401D01*
X18800498Y17198738D01*
X18645844Y17229501D01*
X18645842Y17229501D01*
X18488158Y17229501D01*
X18488155Y17229501D01*
X18488154Y17229501D01*
X18423680Y17216676D01*
X18343065Y17200640D01*
X18343058Y17200640D01*
X18333499Y17198739D01*
X18187829Y17138401D01*
X18187806Y17138388D01*
X18056711Y17050791D01*
X17945210Y16939290D01*
X17857613Y16808195D01*
X17857600Y16808172D01*
X17797262Y16662502D01*
X17796352Y16657925D01*
X17796350Y16657913D01*
X17766500Y16507846D01*
X12096418Y16507846D01*
X12104587Y16538331D01*
X12104587Y16538333D01*
X12117500Y16586526D01*
X12117500Y16731473D01*
X12117500Y16731475D01*
X12079984Y16871485D01*
X12079982Y16871488D01*
X12079982Y16871490D01*
X12079977Y16871498D01*
X12079656Y16872208D01*
X12078397Y16874236D01*
X12008985Y16994461D01*
X12008985Y16994460D01*
X12007512Y16997011D01*
X12007510Y16997013D01*
X12007509Y16997015D01*
X11905015Y17099509D01*
X11905012Y17099511D01*
X11905010Y17099513D01*
X11836774Y17138909D01*
X11815741Y17162269D01*
X11749897Y17179913D01*
X11749896Y17179913D01*
X11639475Y17209500D01*
X11639473Y17209500D01*
X11494526Y17209500D01*
X11494525Y17209500D01*
X11486038Y17207226D01*
X11454361Y17198739D01*
X11454361Y17198738D01*
X11354510Y17171983D01*
X11354508Y17171983D01*
X11354504Y17171981D01*
X11228993Y17099517D01*
X11126483Y16997007D01*
X11054016Y16871490D01*
X11053739Y16870756D01*
X11053192Y16868413D01*
X11033289Y16794133D01*
X11016500Y16731475D01*
X2905542Y16731475D01*
X2815918Y16777141D01*
X2790859Y16795347D01*
X2781425Y16804781D01*
X2753649Y16859296D01*
X2753308Y16861450D01*
X2758903Y16912976D01*
X2760662Y16917471D01*
X2770539Y16936396D01*
X2772473Y16939290D01*
X2832084Y17028504D01*
X2888658Y17165086D01*
X2917500Y17310081D01*
X2917500Y17457917D01*
X2888658Y17602912D01*
X2832084Y17739494D01*
X2749951Y17862415D01*
X2645416Y17966950D01*
X2522495Y18049083D01*
X2522493Y18049084D01*
X2385914Y18105657D01*
X2385912Y18105658D01*
X2240920Y18134499D01*
X2240918Y18134499D01*
X2093082Y18134499D01*
X2093081Y18134499D01*
X2093078Y18134499D01*
X1948085Y18105657D01*
X1948083Y18105657D01*
X1811510Y18049087D01*
X1811498Y18049081D01*
X1688586Y17966952D01*
X1584047Y17862413D01*
X1501918Y17739501D01*
X1501912Y17739489D01*
X1445342Y17602916D01*
X1445342Y17602914D01*
X1416500Y17457921D01*
X1416500Y17457918D01*
X1416500Y17310081D01*
X1442392Y17179913D01*
X1445342Y17165086D01*
X1445342Y17165084D01*
X1501912Y17028510D01*
X1560713Y16940508D01*
X1573680Y16912379D01*
X1577300Y16899543D01*
X1574906Y16838427D01*
X1574165Y16836417D01*
X1544082Y16794133D01*
X1540351Y16791071D01*
X1522490Y16779390D01*
X1315359Y16673851D01*
X1315333Y16673837D01*
X1315310Y16673824D01*
X1208403Y16596151D01*
X1752920Y16051634D01*
X1780697Y15997117D01*
X1771126Y15936685D01*
X1737918Y15899315D01*
X1688907Y15866567D01*
X1584433Y15762093D01*
X1551685Y15713082D01*
X1503635Y15675203D01*
X1442496Y15672801D01*
X1399366Y15698080D01*
X854849Y16242597D01*
X777168Y16135679D01*
X777164Y16135672D01*
X777034Y16135413D01*
X694829Y15974075D01*
X676623Y15949016D01*
X670793Y15943186D01*
X616276Y15915409D01*
X555844Y15924980D01*
X512579Y15968245D01*
X512571Y15968262D01*
X511282Y15970793D01*
X500500Y16015721D01*
X500500Y19457921D01*
X1416500Y19457921D01*
X1416500Y19310079D01*
X1417116Y19306983D01*
X1431532Y19234509D01*
X1445342Y19165086D01*
X1501916Y19028504D01*
X1584049Y18905583D01*
X1688584Y18801048D01*
X1811505Y18718915D01*
X1948087Y18662341D01*
X2093082Y18633499D01*
X2093083Y18633499D01*
X2240917Y18633499D01*
X2240918Y18633499D01*
X2385913Y18662341D01*
X2522495Y18718915D01*
X2645416Y18801048D01*
X2710843Y18866475D01*
X9033178Y18866475D01*
X9033178Y18721525D01*
X9034282Y18717405D01*
X9034282Y18717403D01*
X9052474Y18649512D01*
X9052473Y18649512D01*
X9070694Y18581512D01*
X9070696Y18581508D01*
X9143163Y18455992D01*
X9143165Y18455990D01*
X9143167Y18455988D01*
X9143169Y18455985D01*
X9245663Y18353491D01*
X9245665Y18353490D01*
X9245667Y18353488D01*
X9246214Y18353093D01*
X9248216Y18352016D01*
X9371189Y18281018D01*
X9371190Y18281018D01*
X9371193Y18281016D01*
X9511203Y18243500D01*
X9511204Y18243500D01*
X9656152Y18243500D01*
X9656153Y18243500D01*
X9796163Y18281016D01*
X9796164Y18281017D01*
X9796166Y18281018D01*
X9796167Y18281018D01*
X9796959Y18281475D01*
X12591500Y18281475D01*
X12591500Y18136526D01*
X12614929Y18049087D01*
X12629018Y17996507D01*
X12701485Y17870992D01*
X12701487Y17870990D01*
X12701489Y17870988D01*
X12701491Y17870985D01*
X12803985Y17768491D01*
X12803987Y17768490D01*
X12803989Y17768488D01*
X12804536Y17768093D01*
X12806538Y17767016D01*
X12929511Y17696018D01*
X12929512Y17696018D01*
X12929515Y17696016D01*
X13069525Y17658500D01*
X13069526Y17658500D01*
X13214474Y17658500D01*
X13214475Y17658500D01*
X13354485Y17696016D01*
X13354486Y17696017D01*
X13354488Y17696018D01*
X13354489Y17696018D01*
X13473880Y17764949D01*
X13476768Y17766352D01*
X13477554Y17766869D01*
X13482563Y17769963D01*
X13483862Y17770714D01*
X13489220Y17777697D01*
X13582509Y17870985D01*
X13637916Y17966952D01*
X13654982Y17996511D01*
X13654982Y17996513D01*
X13654984Y17996515D01*
X13692500Y18136525D01*
X13692500Y18281475D01*
X13654984Y18421485D01*
X13654982Y18421488D01*
X13654982Y18421490D01*
X13654977Y18421498D01*
X13654656Y18422208D01*
X13653397Y18424236D01*
X13583985Y18544461D01*
X13583985Y18544460D01*
X13582512Y18547011D01*
X13582510Y18547013D01*
X13582509Y18547015D01*
X13480015Y18649509D01*
X13480012Y18649511D01*
X13480010Y18649513D01*
X13411774Y18688909D01*
X13390741Y18712269D01*
X13324897Y18729913D01*
X13324896Y18729913D01*
X13214475Y18759500D01*
X13214473Y18759500D01*
X13069523Y18759500D01*
X13007788Y18742959D01*
X13007787Y18742960D01*
X12929512Y18721985D01*
X12929506Y18721982D01*
X12803993Y18649517D01*
X12701483Y18547007D01*
X12629018Y18421495D01*
X12609846Y18349943D01*
X12591500Y18281475D01*
X9796959Y18281475D01*
X9915558Y18349949D01*
X9918446Y18351352D01*
X9919232Y18351869D01*
X9924241Y18354963D01*
X9925540Y18355714D01*
X9930898Y18362697D01*
X10024187Y18455985D01*
X10076741Y18547011D01*
X10096660Y18581511D01*
X10096660Y18581513D01*
X10096662Y18581515D01*
X10134178Y18721525D01*
X10134178Y18866475D01*
X10096662Y19006485D01*
X10096660Y19006488D01*
X10096660Y19006490D01*
X10096655Y19006498D01*
X10096334Y19007208D01*
X10095075Y19009236D01*
X10025663Y19129461D01*
X10025663Y19129460D01*
X10024190Y19132011D01*
X10024188Y19132013D01*
X10024187Y19132015D01*
X9921693Y19234509D01*
X9921690Y19234511D01*
X9921688Y19234513D01*
X9853452Y19273909D01*
X9832419Y19297269D01*
X9766575Y19314913D01*
X9766574Y19314913D01*
X9656153Y19344500D01*
X9656151Y19344500D01*
X9511201Y19344500D01*
X9449466Y19327959D01*
X9449465Y19327960D01*
X9371190Y19306985D01*
X9371184Y19306982D01*
X9245671Y19234517D01*
X9143161Y19132007D01*
X9071303Y19007546D01*
X9071302Y19007543D01*
X9070695Y19006490D01*
X9070694Y19006485D01*
X9033178Y18866475D01*
X2710843Y18866475D01*
X2749951Y18905583D01*
X2832084Y19028504D01*
X2888658Y19165086D01*
X2917500Y19310081D01*
X2917500Y19457917D01*
X2888658Y19602912D01*
X2832084Y19739494D01*
X2749951Y19862415D01*
X2645416Y19966950D01*
X2522495Y20049083D01*
X2522493Y20049084D01*
X2385914Y20105657D01*
X2385912Y20105658D01*
X2240920Y20134499D01*
X2240918Y20134499D01*
X2093082Y20134499D01*
X2093081Y20134499D01*
X2093078Y20134499D01*
X1948085Y20105657D01*
X1948083Y20105657D01*
X1811510Y20049087D01*
X1811498Y20049081D01*
X1688586Y19966952D01*
X1584047Y19862413D01*
X1501918Y19739501D01*
X1501912Y19739489D01*
X1445342Y19602916D01*
X1445342Y19602914D01*
X1416500Y19457921D01*
X500500Y19457921D01*
X500500Y21457921D01*
X1416500Y21457921D01*
X1416500Y21310079D01*
X1445341Y21165087D01*
X1501915Y21028506D01*
X1501915Y21028505D01*
X1542703Y20967462D01*
X1584049Y20905583D01*
X1688584Y20801048D01*
X1811505Y20718915D01*
X1948087Y20662341D01*
X2093082Y20633499D01*
X2093083Y20633499D01*
X2240917Y20633499D01*
X2240918Y20633499D01*
X2385913Y20662341D01*
X2522495Y20718915D01*
X2645416Y20801048D01*
X2749951Y20905583D01*
X2832084Y21028504D01*
X2888658Y21165086D01*
X2917500Y21310081D01*
X2917500Y21457917D01*
X2888658Y21602912D01*
X2832084Y21739494D01*
X2749951Y21862415D01*
X2645416Y21966950D01*
X2522495Y22049083D01*
X2522493Y22049084D01*
X2385914Y22105657D01*
X2385912Y22105658D01*
X2240920Y22134499D01*
X2240918Y22134499D01*
X2093082Y22134499D01*
X2093081Y22134499D01*
X2093078Y22134499D01*
X1948085Y22105657D01*
X1948083Y22105657D01*
X1811510Y22049087D01*
X1811498Y22049081D01*
X1688586Y21966952D01*
X1584047Y21862413D01*
X1501918Y21739501D01*
X1501912Y21739489D01*
X1445342Y21602916D01*
X1445342Y21602914D01*
X1416500Y21457921D01*
X500500Y21457921D01*
X500500Y22311028D01*
X7865454Y22311028D01*
X7865454Y22166079D01*
X7873916Y22134499D01*
X7902972Y22026060D01*
X7975439Y21900545D01*
X7975441Y21900543D01*
X7975443Y21900541D01*
X7975445Y21900538D01*
X8077939Y21798044D01*
X8114620Y21776867D01*
X8141146Y21761551D01*
X8165216Y21742060D01*
X8172839Y21733594D01*
X8197726Y21677698D01*
X8185005Y21617850D01*
X8185003Y21617847D01*
X8182567Y21613628D01*
X8146333Y21577394D01*
X8098042Y21549513D01*
X7995536Y21447007D01*
X7923071Y21321495D01*
X7920709Y21312678D01*
X7885553Y21181475D01*
X7885553Y21036526D01*
X7918638Y20913051D01*
X7923071Y20896507D01*
X7995538Y20770992D01*
X7995540Y20770990D01*
X7995542Y20770988D01*
X7995544Y20770985D01*
X8098038Y20668491D01*
X8101743Y20666352D01*
X8167518Y20628376D01*
X8191588Y20608885D01*
X8199212Y20600418D01*
X8224099Y20544523D01*
X8211385Y20484684D01*
X8208949Y20480465D01*
X8172709Y20444220D01*
X8078491Y20389823D01*
X7975984Y20287316D01*
X7903519Y20161804D01*
X7903434Y20161485D01*
X7866001Y20021784D01*
X7866001Y19876835D01*
X7899086Y19753360D01*
X7903519Y19736816D01*
X7975986Y19611301D01*
X7975988Y19611299D01*
X7975990Y19611297D01*
X7975992Y19611294D01*
X8078486Y19508800D01*
X8078488Y19508799D01*
X8078490Y19508797D01*
X8079037Y19508402D01*
X8081039Y19507325D01*
X8204012Y19436327D01*
X8204013Y19436327D01*
X8204016Y19436325D01*
X8344026Y19398809D01*
X8344027Y19398809D01*
X8488975Y19398809D01*
X8488976Y19398809D01*
X8628986Y19436325D01*
X8628987Y19436326D01*
X8628989Y19436327D01*
X8628990Y19436327D01*
X8748381Y19505258D01*
X8751269Y19506661D01*
X8752055Y19507178D01*
X8757064Y19510272D01*
X8758363Y19511023D01*
X8763721Y19518006D01*
X8857010Y19611294D01*
X8865233Y19625537D01*
X8929483Y19736820D01*
X8929483Y19736822D01*
X8929485Y19736824D01*
X8967001Y19876834D01*
X8967001Y20021784D01*
X8967001Y20021785D01*
X8967000Y20021790D01*
X8963186Y20036022D01*
X10187793Y20036022D01*
X10187793Y19891073D01*
X10220878Y19767598D01*
X10225311Y19751054D01*
X10297778Y19625539D01*
X10297780Y19625537D01*
X10297782Y19625535D01*
X10297784Y19625532D01*
X10400278Y19523038D01*
X10400280Y19523037D01*
X10400282Y19523035D01*
X10400829Y19522640D01*
X10402831Y19521563D01*
X10525804Y19450565D01*
X10525805Y19450565D01*
X10525808Y19450563D01*
X10665818Y19413047D01*
X10665819Y19413047D01*
X10810767Y19413047D01*
X10810768Y19413047D01*
X10950778Y19450563D01*
X10950779Y19450564D01*
X10950781Y19450565D01*
X10950782Y19450565D01*
X11070173Y19519496D01*
X11073061Y19520899D01*
X11073847Y19521416D01*
X11078856Y19524510D01*
X11080155Y19525261D01*
X11085513Y19532244D01*
X11178802Y19625532D01*
X11242876Y19736511D01*
X11251275Y19751058D01*
X11251275Y19751060D01*
X11251277Y19751062D01*
X11288793Y19891072D01*
X11288793Y20021475D01*
X17046500Y20021475D01*
X17046500Y19876526D01*
X17050282Y19862413D01*
X17084018Y19736507D01*
X17156485Y19610992D01*
X17156487Y19610990D01*
X17156489Y19610988D01*
X17156491Y19610985D01*
X17258985Y19508491D01*
X17258987Y19508490D01*
X17258989Y19508488D01*
X17259536Y19508093D01*
X17261538Y19507016D01*
X17384511Y19436018D01*
X17384512Y19436018D01*
X17384515Y19436016D01*
X17524525Y19398500D01*
X17524526Y19398500D01*
X17669474Y19398500D01*
X17669475Y19398500D01*
X17809485Y19436016D01*
X17809486Y19436017D01*
X17809488Y19436018D01*
X17809489Y19436018D01*
X17928880Y19504949D01*
X17931768Y19506352D01*
X17932554Y19506869D01*
X17937563Y19509963D01*
X17938862Y19510714D01*
X17944220Y19517697D01*
X18037509Y19610985D01*
X18037512Y19610990D01*
X18109982Y19736511D01*
X18109982Y19736513D01*
X18109984Y19736515D01*
X18147500Y19876525D01*
X18147500Y20021475D01*
X18109984Y20161485D01*
X18109982Y20161488D01*
X18109982Y20161490D01*
X18109977Y20161498D01*
X18109656Y20162208D01*
X18108397Y20164236D01*
X18038985Y20284461D01*
X18038985Y20284460D01*
X18037512Y20287011D01*
X18037510Y20287013D01*
X18037509Y20287015D01*
X17935015Y20389509D01*
X17935012Y20389511D01*
X17935010Y20389513D01*
X17935009Y20389514D01*
X17866775Y20428909D01*
X17845741Y20452270D01*
X17755195Y20476531D01*
X17755191Y20476532D01*
X17669475Y20499500D01*
X17669474Y20499500D01*
X17524523Y20499500D01*
X17462788Y20482959D01*
X17462787Y20482960D01*
X17384512Y20461985D01*
X17384506Y20461982D01*
X17258993Y20389517D01*
X17156483Y20287007D01*
X17084018Y20161495D01*
X17063042Y20083213D01*
X17046500Y20021475D01*
X11288793Y20021475D01*
X11288793Y20036022D01*
X11251277Y20176032D01*
X11251275Y20176035D01*
X11251275Y20176037D01*
X11250787Y20176882D01*
X11250736Y20177099D01*
X11249690Y20178783D01*
X11180278Y20299008D01*
X11180278Y20299007D01*
X11178805Y20301558D01*
X11178803Y20301560D01*
X11178802Y20301562D01*
X11076308Y20404056D01*
X11076305Y20404058D01*
X11076303Y20404060D01*
X11008067Y20443456D01*
X10987034Y20466816D01*
X10921190Y20484460D01*
X10921189Y20484460D01*
X10810768Y20514047D01*
X10810766Y20514047D01*
X10665816Y20514047D01*
X10604081Y20497506D01*
X10604080Y20497507D01*
X10525805Y20476532D01*
X10525799Y20476529D01*
X10400286Y20404064D01*
X10297776Y20301554D01*
X10225311Y20176042D01*
X10221411Y20161485D01*
X10187793Y20036022D01*
X8963186Y20036022D01*
X8929485Y20161794D01*
X8929483Y20161798D01*
X8929482Y20161800D01*
X8929481Y20161803D01*
X8893415Y20224270D01*
X8857013Y20287320D01*
X8857011Y20287322D01*
X8857010Y20287324D01*
X8754516Y20389818D01*
X8754513Y20389820D01*
X8754511Y20389822D01*
X8754510Y20389823D01*
X8685031Y20429937D01*
X8660962Y20449428D01*
X8653337Y20457896D01*
X8628451Y20513789D01*
X8641171Y20573635D01*
X8643607Y20577854D01*
X8679841Y20614090D01*
X8774068Y20668491D01*
X8876562Y20770985D01*
X8915584Y20838575D01*
X8935079Y20862647D01*
X8943546Y20870270D01*
X8999442Y20895154D01*
X9059272Y20882441D01*
X9063494Y20880003D01*
X9099739Y20843764D01*
X9146846Y20762173D01*
X9249340Y20659679D01*
X9249342Y20659678D01*
X9249344Y20659676D01*
X9249891Y20659281D01*
X9251893Y20658204D01*
X9374866Y20587206D01*
X9374867Y20587206D01*
X9374870Y20587204D01*
X9514880Y20549688D01*
X9514881Y20549688D01*
X9659829Y20549688D01*
X9659830Y20549688D01*
X9799840Y20587204D01*
X9799841Y20587205D01*
X9799843Y20587206D01*
X9799844Y20587206D01*
X9919235Y20656137D01*
X9922123Y20657540D01*
X9922909Y20658057D01*
X9927918Y20661151D01*
X9929217Y20661902D01*
X9934575Y20668885D01*
X10027864Y20762173D01*
X10095895Y20880005D01*
X10100337Y20887699D01*
X10100337Y20887701D01*
X10100339Y20887703D01*
X10137855Y21027713D01*
X10137855Y21172663D01*
X10135494Y21181475D01*
X13610553Y21181475D01*
X13610553Y21036526D01*
X13643638Y20913051D01*
X13648071Y20896507D01*
X13720538Y20770992D01*
X13720540Y20770990D01*
X13720542Y20770988D01*
X13720544Y20770985D01*
X13823038Y20668491D01*
X13823040Y20668490D01*
X13823042Y20668488D01*
X13823589Y20668093D01*
X13825591Y20667016D01*
X13948564Y20596018D01*
X13948565Y20596018D01*
X13948568Y20596016D01*
X14088578Y20558500D01*
X14088579Y20558500D01*
X14233527Y20558500D01*
X14233528Y20558500D01*
X14373538Y20596016D01*
X14373539Y20596017D01*
X14373541Y20596018D01*
X14373542Y20596018D01*
X14492933Y20664949D01*
X14495821Y20666352D01*
X14496607Y20666869D01*
X14501616Y20669963D01*
X14502915Y20670714D01*
X14508273Y20677697D01*
X14601562Y20770985D01*
X14668947Y20887699D01*
X14674035Y20896511D01*
X14674035Y20896513D01*
X14674037Y20896515D01*
X14711553Y21036525D01*
X14711553Y21181475D01*
X14674037Y21321485D01*
X14674035Y21321488D01*
X14674035Y21321490D01*
X14674030Y21321498D01*
X14673709Y21322208D01*
X14672450Y21324236D01*
X14603038Y21444461D01*
X14603038Y21444460D01*
X14601565Y21447011D01*
X14601563Y21447013D01*
X14601562Y21447015D01*
X14499068Y21549509D01*
X14499065Y21549511D01*
X14499063Y21549513D01*
X14430827Y21588909D01*
X14409794Y21612269D01*
X14343950Y21629913D01*
X14343949Y21629913D01*
X14233528Y21659500D01*
X14233526Y21659500D01*
X14088579Y21659500D01*
X14088578Y21659500D01*
X14055692Y21650688D01*
X13948558Y21621982D01*
X13823046Y21549517D01*
X13720536Y21447007D01*
X13648071Y21321495D01*
X13645709Y21312678D01*
X13610553Y21181475D01*
X10135494Y21181475D01*
X10100339Y21312673D01*
X10100337Y21312676D01*
X10100337Y21312678D01*
X10100284Y21312770D01*
X10100198Y21313095D01*
X10098752Y21315424D01*
X10029340Y21435649D01*
X10029340Y21435648D01*
X10027867Y21438199D01*
X10027865Y21438201D01*
X10027864Y21438203D01*
X9925370Y21540697D01*
X9925367Y21540699D01*
X9925365Y21540701D01*
X9925364Y21540702D01*
X9857130Y21580097D01*
X9836096Y21603458D01*
X9702285Y21639312D01*
X9702284Y21639313D01*
X9671205Y21647641D01*
X9659830Y21650688D01*
X9659829Y21650688D01*
X9514881Y21650688D01*
X9514880Y21650688D01*
X9507473Y21648704D01*
X9472424Y21639313D01*
X9472425Y21639312D01*
X9374865Y21613171D01*
X9374863Y21613171D01*
X9374859Y21613169D01*
X9249348Y21540705D01*
X9146842Y21438199D01*
X9107823Y21370616D01*
X9088327Y21346543D01*
X9079860Y21338920D01*
X9023964Y21314036D01*
X8964125Y21326755D01*
X8959904Y21329192D01*
X8923666Y21365429D01*
X8878037Y21444460D01*
X8876562Y21447015D01*
X8774068Y21549509D01*
X8774065Y21549511D01*
X8774063Y21549513D01*
X8774062Y21549514D01*
X8710858Y21586005D01*
X8686789Y21605496D01*
X8679164Y21613964D01*
X8654278Y21669857D01*
X8666997Y21729701D01*
X8669439Y21733930D01*
X8705673Y21770162D01*
X8753969Y21798044D01*
X8856463Y21900538D01*
X8856466Y21900543D01*
X8928936Y22026064D01*
X8928936Y22026066D01*
X8928938Y22026068D01*
X8966454Y22166078D01*
X8966454Y22311028D01*
X8966190Y22312015D01*
X10174099Y22312015D01*
X10174099Y22167064D01*
X10190553Y22105659D01*
X10190553Y22105657D01*
X10190554Y22105657D01*
X10211617Y22027048D01*
X10284084Y21901533D01*
X10284086Y21901531D01*
X10284088Y21901529D01*
X10284090Y21901526D01*
X10386584Y21799032D01*
X10386586Y21799031D01*
X10386588Y21799029D01*
X10387135Y21798634D01*
X10389137Y21797557D01*
X10512110Y21726559D01*
X10512111Y21726559D01*
X10512114Y21726557D01*
X10652124Y21689041D01*
X10652125Y21689041D01*
X10797073Y21689041D01*
X10797074Y21689041D01*
X10937084Y21726557D01*
X10937085Y21726558D01*
X10937087Y21726559D01*
X10937088Y21726559D01*
X11056479Y21795490D01*
X11059367Y21796893D01*
X11060153Y21797410D01*
X11065162Y21800504D01*
X11066461Y21801255D01*
X11071819Y21808238D01*
X11165108Y21901526D01*
X11202881Y21966951D01*
X11237581Y22027052D01*
X11237581Y22027054D01*
X11237583Y22027056D01*
X11275099Y22167066D01*
X11275099Y22312016D01*
X11237583Y22452026D01*
X11237581Y22452029D01*
X11237581Y22452031D01*
X11237576Y22452039D01*
X11237255Y22452749D01*
X11235996Y22454777D01*
X11166584Y22575002D01*
X11166584Y22575001D01*
X11165111Y22577552D01*
X11165109Y22577554D01*
X11165108Y22577556D01*
X11062614Y22680050D01*
X11062611Y22680052D01*
X11062609Y22680054D01*
X10994373Y22719450D01*
X10973340Y22742810D01*
X10907496Y22760454D01*
X10907495Y22760454D01*
X10797074Y22790041D01*
X10797072Y22790041D01*
X10652122Y22790041D01*
X10590387Y22773500D01*
X10590386Y22773501D01*
X10512111Y22752526D01*
X10512105Y22752523D01*
X10386595Y22680059D01*
X10386591Y22680057D01*
X10284082Y22577548D01*
X10211617Y22452035D01*
X10211614Y22452027D01*
X10211350Y22451041D01*
X10211350Y22451038D01*
X10174099Y22312015D01*
X8966190Y22312015D01*
X8928938Y22451038D01*
X8928936Y22451041D01*
X8928936Y22451043D01*
X8928788Y22451299D01*
X8928711Y22451599D01*
X8927351Y22453789D01*
X8857939Y22574014D01*
X8857939Y22574013D01*
X8856466Y22576564D01*
X8856464Y22576566D01*
X8856463Y22576568D01*
X8753969Y22679062D01*
X8753966Y22679064D01*
X8753964Y22679066D01*
X8685728Y22718462D01*
X8664695Y22741822D01*
X8598851Y22759466D01*
X8598850Y22759466D01*
X8488429Y22789053D01*
X8488427Y22789053D01*
X8343477Y22789053D01*
X8281742Y22772512D01*
X8281741Y22772513D01*
X8203466Y22751538D01*
X8203460Y22751535D01*
X8077947Y22679070D01*
X7975437Y22576560D01*
X7902972Y22451048D01*
X7881996Y22372766D01*
X7865454Y22311028D01*
X500500Y22311028D01*
X500500Y23471475D01*
X9030552Y23471475D01*
X9030552Y23326526D01*
X9063637Y23203051D01*
X9068070Y23186507D01*
X9140537Y23060992D01*
X9140539Y23060990D01*
X9140541Y23060988D01*
X9140543Y23060985D01*
X9243037Y22958491D01*
X9243039Y22958490D01*
X9243041Y22958488D01*
X9243588Y22958093D01*
X9245590Y22957016D01*
X9368563Y22886018D01*
X9368564Y22886018D01*
X9368567Y22886016D01*
X9508577Y22848500D01*
X9508578Y22848500D01*
X9653526Y22848500D01*
X9653527Y22848500D01*
X9793537Y22886016D01*
X9793538Y22886017D01*
X9793540Y22886018D01*
X9793541Y22886018D01*
X9912932Y22954949D01*
X9915820Y22956352D01*
X9916606Y22956869D01*
X9921615Y22959963D01*
X9922914Y22960714D01*
X9928272Y22967697D01*
X10021561Y23060985D01*
X10021565Y23060992D01*
X10094034Y23186511D01*
X10094034Y23186513D01*
X10094036Y23186515D01*
X10131552Y23326525D01*
X10131552Y23471475D01*
X10094036Y23611485D01*
X10094034Y23611488D01*
X10094034Y23611490D01*
X10094029Y23611498D01*
X10093708Y23612208D01*
X10092449Y23614236D01*
X10023037Y23734461D01*
X10023037Y23734460D01*
X10021564Y23737011D01*
X10021562Y23737013D01*
X10021561Y23737015D01*
X9919067Y23839509D01*
X9919064Y23839511D01*
X9919062Y23839513D01*
X9850826Y23878909D01*
X9829793Y23902269D01*
X9763949Y23919913D01*
X9763948Y23919913D01*
X9653527Y23949500D01*
X9653525Y23949500D01*
X9508575Y23949500D01*
X9446840Y23932959D01*
X9446839Y23932960D01*
X9368564Y23911985D01*
X9368558Y23911982D01*
X9243045Y23839517D01*
X9140535Y23737007D01*
X9068070Y23611495D01*
X9047094Y23533213D01*
X9030552Y23471475D01*
X500500Y23471475D01*
X500500Y26747273D01*
X507889Y26770018D01*
X507887Y26785689D01*
X507887Y26785692D01*
X517106Y26798385D01*
X519407Y26805464D01*
X521632Y26808409D01*
X526477Y26814580D01*
X528000Y26813384D01*
X543843Y26835196D01*
X602030Y26854113D01*
X660224Y26835216D01*
X662522Y26833547D01*
X692555Y26798389D01*
X777174Y26632314D01*
X777178Y26632308D01*
X777180Y26632305D01*
X777184Y26632299D01*
X854848Y26525405D01*
X854849Y26525404D01*
X854850Y26525404D01*
X1399367Y27069923D01*
X1453882Y27097698D01*
X1514314Y27088127D01*
X1551684Y27054919D01*
X1584433Y27005907D01*
X1584434Y27005906D01*
X1584437Y27005902D01*
X1688903Y26901436D01*
X1737916Y26868687D01*
X1775795Y26820639D01*
X1778197Y26759500D01*
X1752918Y26716369D01*
X1208403Y26171852D01*
X1208403Y26171850D01*
X1313441Y26095534D01*
X1315308Y26094178D01*
X1315314Y26094174D01*
X1518081Y25990859D01*
X1543139Y25972654D01*
X1552573Y25963220D01*
X1580350Y25908704D01*
X1580685Y25906589D01*
X1575092Y25855013D01*
X1573332Y25850517D01*
X1563460Y25831604D01*
X1501913Y25739492D01*
X1445343Y25602918D01*
X1445342Y25602912D01*
X1416500Y25457920D01*
X1416500Y25457918D01*
X1416500Y25457917D01*
X1416500Y25310081D01*
X1445342Y25165086D01*
X1501916Y25028504D01*
X1584049Y24905583D01*
X1688584Y24801048D01*
X1811505Y24718915D01*
X1948087Y24662341D01*
X2093082Y24633499D01*
X2093083Y24633499D01*
X2240917Y24633499D01*
X2240918Y24633499D01*
X2385913Y24662341D01*
X2522495Y24718915D01*
X2645416Y24801048D01*
X2749951Y24905583D01*
X2780615Y24951475D01*
X6406500Y24951475D01*
X6406500Y24806526D01*
X6439585Y24683051D01*
X6444018Y24666507D01*
X6516485Y24540992D01*
X6516487Y24540990D01*
X6516489Y24540988D01*
X6516491Y24540985D01*
X6618985Y24438491D01*
X6618987Y24438490D01*
X6618989Y24438488D01*
X6619536Y24438093D01*
X6621538Y24437016D01*
X6744511Y24366018D01*
X6744512Y24366018D01*
X6744515Y24366016D01*
X6884525Y24328500D01*
X6884526Y24328500D01*
X7029474Y24328500D01*
X7029475Y24328500D01*
X7169485Y24366016D01*
X7169486Y24366017D01*
X7169488Y24366018D01*
X7169489Y24366018D01*
X7288880Y24434949D01*
X7291768Y24436352D01*
X7292554Y24436869D01*
X7297563Y24439963D01*
X7298862Y24440714D01*
X7304220Y24447697D01*
X7397509Y24540985D01*
X7467575Y24662342D01*
X7469982Y24666511D01*
X7469982Y24666513D01*
X7469984Y24666515D01*
X7507500Y24806525D01*
X7507500Y24951475D01*
X7469984Y25091485D01*
X7469982Y25091488D01*
X7469982Y25091490D01*
X7469977Y25091498D01*
X7469656Y25092208D01*
X7468397Y25094236D01*
X7398985Y25214461D01*
X7398985Y25214460D01*
X7397512Y25217011D01*
X7397510Y25217013D01*
X7397509Y25217015D01*
X7295015Y25319509D01*
X7295012Y25319511D01*
X7295010Y25319513D01*
X7226774Y25358909D01*
X7205741Y25382269D01*
X7139897Y25399913D01*
X7139896Y25399913D01*
X7029475Y25429500D01*
X7029473Y25429500D01*
X6884523Y25429500D01*
X6822788Y25412959D01*
X6822787Y25412960D01*
X6744512Y25391985D01*
X6744506Y25391982D01*
X6618993Y25319517D01*
X6516483Y25217007D01*
X6444018Y25091495D01*
X6427140Y25028506D01*
X6406500Y24951475D01*
X2780615Y24951475D01*
X2832084Y25028504D01*
X2888658Y25165086D01*
X2917500Y25310081D01*
X2917500Y25457917D01*
X2888658Y25602912D01*
X2832084Y25739494D01*
X2773284Y25827494D01*
X2760317Y25855623D01*
X2756697Y25868459D01*
X2759098Y25929594D01*
X2759843Y25931614D01*
X2789918Y25973870D01*
X2793651Y25976934D01*
X2811500Y25988609D01*
X3018685Y26094174D01*
X3018690Y26094178D01*
X3018700Y26094186D01*
X3019245Y26094536D01*
X3020506Y26095498D01*
X3125595Y26171850D01*
X2581079Y26716366D01*
X2553302Y26770883D01*
X2562873Y26831315D01*
X2596083Y26868686D01*
X2645091Y26901432D01*
X2645090Y26901432D01*
X2645097Y26901436D01*
X2749563Y27005902D01*
X2782313Y27054916D01*
X2830362Y27092797D01*
X2891500Y27095199D01*
X2934633Y27069920D01*
X3479148Y26525405D01*
X3479149Y26525404D01*
X3555501Y26630493D01*
X3556463Y26631754D01*
X3556818Y26632305D01*
X3556821Y26632309D01*
X3556825Y26632314D01*
X3672947Y26860217D01*
X3751987Y27103480D01*
X3792000Y27356106D01*
X3792000Y27611893D01*
X3786600Y27645985D01*
X3751987Y27864517D01*
X3751987Y27864519D01*
X3672947Y28107782D01*
X3556825Y28335685D01*
X3556821Y28335691D01*
X3556814Y28335701D01*
X3479150Y28442596D01*
X3479149Y28442596D01*
X3479148Y28442596D01*
X3479147Y28442596D01*
X2934630Y27898081D01*
X2880114Y27870304D01*
X2819682Y27879875D01*
X2782312Y27913083D01*
X2749563Y27962096D01*
X2645097Y28066562D01*
X2645093Y28066565D01*
X2645092Y28066566D01*
X2596080Y28099315D01*
X2558201Y28147365D01*
X2555799Y28208503D01*
X2581076Y28251632D01*
X3125595Y28796149D01*
X3125595Y28796150D01*
X3125594Y28796151D01*
X3018700Y28873815D01*
X3018694Y28873819D01*
X3018688Y28873823D01*
X3018685Y28873825D01*
X2790782Y28989947D01*
X2790781Y28989948D01*
X2790780Y28989948D01*
X2547516Y29068988D01*
X2413693Y29090183D01*
X2294896Y29108999D01*
X2294893Y29108999D01*
X2039107Y29108999D01*
X2039104Y29108999D01*
X1786482Y29068988D01*
X1543217Y28989948D01*
X1315587Y28873965D01*
X1315328Y28873835D01*
X1315321Y28873831D01*
X1208403Y28796150D01*
X1752920Y28251633D01*
X1780697Y28197116D01*
X1771126Y28136684D01*
X1737918Y28099314D01*
X1688907Y28066566D01*
X1584433Y27962092D01*
X1551685Y27913081D01*
X1503635Y27875202D01*
X1442496Y27872800D01*
X1399366Y27898079D01*
X854849Y28442596D01*
X777168Y28335678D01*
X777164Y28335671D01*
X777034Y28335412D01*
X694829Y28174074D01*
X676623Y28149015D01*
X670793Y28143185D01*
X616276Y28115408D01*
X555844Y28124979D01*
X512579Y28168244D01*
X512571Y28168261D01*
X511282Y28170792D01*
X500500Y28215720D01*
X500500Y29181475D01*
X7901500Y29181475D01*
X7901500Y29036526D01*
X7913981Y28989948D01*
X7939018Y28896507D01*
X8011485Y28770992D01*
X8011487Y28770990D01*
X8011489Y28770988D01*
X8011491Y28770985D01*
X8113985Y28668491D01*
X8113987Y28668490D01*
X8113989Y28668488D01*
X8114536Y28668094D01*
X8116530Y28667021D01*
X8161369Y28641133D01*
X8185434Y28621647D01*
X8193058Y28613180D01*
X8217949Y28557287D01*
X8205232Y28497438D01*
X8205227Y28497429D01*
X8202791Y28493210D01*
X8166556Y28456976D01*
X8118991Y28429515D01*
X8016483Y28327007D01*
X7944018Y28201495D01*
X7923516Y28124979D01*
X7907863Y28066562D01*
X7906500Y28061475D01*
X7906500Y27916525D01*
X7936087Y27806104D01*
X7940665Y27789018D01*
X7944017Y27776509D01*
X7944018Y27776508D01*
X8016485Y27650992D01*
X8016487Y27650990D01*
X8016489Y27650988D01*
X8016491Y27650985D01*
X8118985Y27548491D01*
X8118987Y27548490D01*
X8118989Y27548488D01*
X8119536Y27548093D01*
X8121538Y27547016D01*
X8244511Y27476018D01*
X8244512Y27476018D01*
X8244515Y27476016D01*
X8384525Y27438500D01*
X8384526Y27438500D01*
X8529474Y27438500D01*
X8529475Y27438500D01*
X8669485Y27476016D01*
X8669486Y27476017D01*
X8669488Y27476018D01*
X8669489Y27476018D01*
X8788880Y27544949D01*
X8791768Y27546352D01*
X8792554Y27546869D01*
X8797563Y27549963D01*
X8798862Y27550714D01*
X8804220Y27557697D01*
X8897509Y27650985D01*
X8926509Y27701216D01*
X8945995Y27725278D01*
X8954469Y27732908D01*
X9010365Y27757791D01*
X9070196Y27745077D01*
X9074420Y27742638D01*
X9110662Y27706400D01*
X9142650Y27650996D01*
X9145540Y27645990D01*
X9145542Y27645988D01*
X9145544Y27645985D01*
X9248038Y27543491D01*
X9248040Y27543490D01*
X9248042Y27543488D01*
X9248589Y27543093D01*
X9250591Y27542016D01*
X9373564Y27471018D01*
X9373565Y27471018D01*
X9373568Y27471016D01*
X9513578Y27433500D01*
X9513579Y27433500D01*
X9658527Y27433500D01*
X9658528Y27433500D01*
X9798538Y27471016D01*
X9798539Y27471017D01*
X9798541Y27471018D01*
X9798542Y27471018D01*
X9917933Y27539949D01*
X9920821Y27541352D01*
X9921607Y27541869D01*
X9926616Y27544963D01*
X9927915Y27545714D01*
X9933273Y27552697D01*
X10026562Y27645985D01*
X10069396Y27720178D01*
X10088880Y27744239D01*
X10097353Y27751868D01*
X10153245Y27776753D01*
X10213085Y27764036D01*
X10217310Y27761597D01*
X10253550Y27725359D01*
X10296484Y27650996D01*
X10296486Y27650992D01*
X10296488Y27650989D01*
X10296489Y27650988D01*
X10296491Y27650985D01*
X10398985Y27548491D01*
X10398987Y27548490D01*
X10398989Y27548488D01*
X10399536Y27548093D01*
X10401538Y27547016D01*
X10524511Y27476018D01*
X10524512Y27476018D01*
X10524515Y27476016D01*
X10664525Y27438500D01*
X10664526Y27438500D01*
X10809474Y27438500D01*
X10809475Y27438500D01*
X10949485Y27476016D01*
X10949486Y27476017D01*
X10949488Y27476018D01*
X10949489Y27476018D01*
X11068880Y27544949D01*
X11071768Y27546352D01*
X11072554Y27546869D01*
X11077563Y27549963D01*
X11078862Y27550714D01*
X11084220Y27557697D01*
X11177509Y27650985D01*
X11203424Y27695874D01*
X11222908Y27719936D01*
X11231379Y27727563D01*
X11287269Y27752451D01*
X11347115Y27739735D01*
X11347133Y27739725D01*
X11351353Y27737288D01*
X11387580Y27701058D01*
X11416471Y27651019D01*
X11416489Y27650987D01*
X11416491Y27650984D01*
X11518985Y27548490D01*
X11518987Y27548489D01*
X11518989Y27548487D01*
X11519536Y27548092D01*
X11521538Y27547015D01*
X11644511Y27476017D01*
X11644512Y27476017D01*
X11644515Y27476015D01*
X11784525Y27438499D01*
X11784526Y27438499D01*
X11929474Y27438499D01*
X11929475Y27438499D01*
X12069485Y27476015D01*
X12069486Y27476016D01*
X12069488Y27476017D01*
X12069489Y27476017D01*
X12188880Y27544948D01*
X12191768Y27546351D01*
X12192554Y27546868D01*
X12197563Y27549962D01*
X12198862Y27550713D01*
X12204220Y27557696D01*
X12297509Y27650984D01*
X12297512Y27650989D01*
X12369982Y27776510D01*
X12369982Y27776512D01*
X12369984Y27776514D01*
X12407500Y27916524D01*
X12407500Y28061474D01*
X12369984Y28201484D01*
X12369982Y28201487D01*
X12369982Y28201489D01*
X12369977Y28201497D01*
X12369656Y28202207D01*
X12368397Y28204235D01*
X12298985Y28324460D01*
X12298985Y28324459D01*
X12297512Y28327010D01*
X12297510Y28327012D01*
X12297509Y28327014D01*
X12195015Y28429508D01*
X12195012Y28429510D01*
X12195010Y28429512D01*
X12195009Y28429513D01*
X12126775Y28468908D01*
X12105741Y28492269D01*
X11976222Y28526973D01*
X11948131Y28534500D01*
X11929475Y28539499D01*
X11929474Y28539499D01*
X11784526Y28539499D01*
X11784525Y28539499D01*
X11765869Y28534500D01*
X11644505Y28501981D01*
X11518993Y28429516D01*
X11416489Y28327012D01*
X11390575Y28282128D01*
X11371079Y28258055D01*
X11362613Y28250433D01*
X11306716Y28225550D01*
X11246871Y28238273D01*
X11242652Y28240709D01*
X11206418Y28276944D01*
X11178980Y28324468D01*
X11177907Y28326463D01*
X11177512Y28327011D01*
X11177510Y28327013D01*
X11177509Y28327015D01*
X11075015Y28429509D01*
X11075012Y28429511D01*
X11075010Y28429513D01*
X11075009Y28429514D01*
X11006775Y28468909D01*
X10985741Y28492270D01*
X10918905Y28510178D01*
X10889862Y28517960D01*
X10809475Y28539500D01*
X10809474Y28539500D01*
X10664526Y28539500D01*
X10664525Y28539500D01*
X10654646Y28536853D01*
X10617774Y28526974D01*
X10617774Y28526973D01*
X10524510Y28501983D01*
X10524508Y28501983D01*
X10524504Y28501981D01*
X10398993Y28429517D01*
X10296486Y28327010D01*
X10253658Y28252831D01*
X10234167Y28228762D01*
X10225700Y28221138D01*
X10169805Y28196251D01*
X10109960Y28208969D01*
X10105739Y28211406D01*
X10069502Y28247642D01*
X10028037Y28319462D01*
X10026961Y28321461D01*
X10026565Y28322011D01*
X10026563Y28322013D01*
X10026562Y28322015D01*
X9924068Y28424509D01*
X9924065Y28424511D01*
X9924063Y28424513D01*
X9924062Y28424514D01*
X9855828Y28463909D01*
X9834794Y28487270D01*
X9749298Y28510178D01*
X9720255Y28517960D01*
X9658528Y28534500D01*
X9658527Y28534500D01*
X9513576Y28534500D01*
X9451841Y28517959D01*
X9451840Y28517960D01*
X9373565Y28496985D01*
X9373559Y28496982D01*
X9248046Y28424517D01*
X9145538Y28322009D01*
X9116543Y28271789D01*
X9097052Y28247720D01*
X9088587Y28240098D01*
X9032692Y28215211D01*
X8972849Y28227929D01*
X8968629Y28230365D01*
X8932387Y28266605D01*
X8901870Y28319462D01*
X8897509Y28327015D01*
X8795015Y28429509D01*
X8795010Y28429512D01*
X8795001Y28429517D01*
X8747629Y28456868D01*
X8723556Y28476364D01*
X8715933Y28484831D01*
X8691049Y28540727D01*
X8703766Y28600562D01*
X8706207Y28604790D01*
X8742443Y28641027D01*
X8790015Y28668491D01*
X8892509Y28770985D01*
X8892512Y28770990D01*
X8964982Y28896511D01*
X8964982Y28896513D01*
X8964984Y28896515D01*
X9002500Y29036525D01*
X9002500Y29181475D01*
X8964984Y29321485D01*
X8964982Y29321488D01*
X8964982Y29321490D01*
X8964977Y29321498D01*
X8964656Y29322208D01*
X8963397Y29324236D01*
X8893985Y29444461D01*
X8893985Y29444460D01*
X8892512Y29447011D01*
X8892510Y29447013D01*
X8892509Y29447015D01*
X8790015Y29549509D01*
X8790012Y29549511D01*
X8790010Y29549513D01*
X8721774Y29588909D01*
X8700741Y29612269D01*
X8634897Y29629913D01*
X8634896Y29629913D01*
X8524475Y29659500D01*
X8524473Y29659500D01*
X8379523Y29659500D01*
X8317788Y29642959D01*
X8317787Y29642960D01*
X8239512Y29621985D01*
X8239506Y29621982D01*
X8113993Y29549517D01*
X8011483Y29447007D01*
X7939018Y29321495D01*
X7918042Y29243213D01*
X7901500Y29181475D01*
X500500Y29181475D01*
X500500Y30681474D01*
X15816500Y30681474D01*
X15816500Y30536523D01*
X15831250Y30481477D01*
X15831250Y30481476D01*
X15831251Y30481476D01*
X15831251Y30481475D01*
X15854017Y30396511D01*
X15854018Y30396509D01*
X15854019Y30396506D01*
X15926485Y30270992D01*
X15926487Y30270990D01*
X15926489Y30270988D01*
X15926491Y30270985D01*
X16028985Y30168491D01*
X16028987Y30168490D01*
X16028989Y30168488D01*
X16029536Y30168093D01*
X16031538Y30167016D01*
X16154511Y30096018D01*
X16154512Y30096018D01*
X16154515Y30096016D01*
X16294525Y30058500D01*
X16294526Y30058500D01*
X16439474Y30058500D01*
X16439475Y30058500D01*
X16579485Y30096016D01*
X16579486Y30096017D01*
X16579488Y30096018D01*
X16579489Y30096018D01*
X16698880Y30164949D01*
X16701768Y30166352D01*
X16702554Y30166869D01*
X16707563Y30169963D01*
X16708862Y30170714D01*
X16714220Y30177697D01*
X16807509Y30270985D01*
X16845349Y30336526D01*
X16879982Y30396511D01*
X16879982Y30396513D01*
X16879984Y30396515D01*
X16902749Y30481475D01*
X18196500Y30481475D01*
X18196500Y30336526D01*
X18214061Y30270988D01*
X18234018Y30196507D01*
X18306485Y30070992D01*
X18306487Y30070990D01*
X18306489Y30070988D01*
X18306491Y30070985D01*
X18408985Y29968491D01*
X18408987Y29968490D01*
X18408989Y29968488D01*
X18409536Y29968093D01*
X18411538Y29967016D01*
X18534511Y29896018D01*
X18534512Y29896018D01*
X18534515Y29896016D01*
X18674525Y29858500D01*
X18674526Y29858500D01*
X18819474Y29858500D01*
X18819475Y29858500D01*
X18959485Y29896016D01*
X18959486Y29896017D01*
X18959488Y29896018D01*
X18959489Y29896018D01*
X19078880Y29964949D01*
X19081768Y29966352D01*
X19082554Y29966869D01*
X19087563Y29969963D01*
X19088862Y29970714D01*
X19094220Y29977697D01*
X19187509Y30070985D01*
X19243803Y30168488D01*
X19259982Y30196511D01*
X19259982Y30196513D01*
X19259984Y30196515D01*
X19297500Y30336525D01*
X19297500Y30481475D01*
X19259984Y30621485D01*
X19259982Y30621488D01*
X19259982Y30621490D01*
X19259977Y30621498D01*
X19259656Y30622208D01*
X19258397Y30624236D01*
X19188985Y30744461D01*
X19188985Y30744460D01*
X19187512Y30747011D01*
X19187510Y30747013D01*
X19187509Y30747015D01*
X19085015Y30849509D01*
X19085012Y30849511D01*
X19085010Y30849513D01*
X19016774Y30888909D01*
X18995741Y30912269D01*
X18929897Y30929913D01*
X18929896Y30929913D01*
X18819475Y30959500D01*
X18819473Y30959500D01*
X18674526Y30959500D01*
X18674525Y30959500D01*
X18627931Y30947015D01*
X18534505Y30921982D01*
X18408993Y30849517D01*
X18306483Y30747007D01*
X18234018Y30621495D01*
X18213042Y30543213D01*
X18196500Y30481475D01*
X16902749Y30481475D01*
X16917500Y30536525D01*
X16917500Y30681475D01*
X16879984Y30821485D01*
X16879982Y30821488D01*
X16879982Y30821490D01*
X16879977Y30821498D01*
X16879656Y30822208D01*
X16878397Y30824236D01*
X16808985Y30944461D01*
X16808985Y30944460D01*
X16807512Y30947011D01*
X16807510Y30947013D01*
X16807509Y30947015D01*
X16705015Y31049509D01*
X16705012Y31049511D01*
X16705010Y31049513D01*
X16636774Y31088909D01*
X16615741Y31112269D01*
X16549897Y31129913D01*
X16549896Y31129913D01*
X16439475Y31159500D01*
X16439473Y31159500D01*
X16294523Y31159500D01*
X16232788Y31142959D01*
X16232787Y31142960D01*
X16154512Y31121985D01*
X16154506Y31121982D01*
X16028993Y31049517D01*
X15926483Y30947007D01*
X15854018Y30821495D01*
X15816500Y30681474D01*
X500500Y30681474D01*
X500500Y31652922D01*
X1356501Y31652922D01*
X1356501Y31652920D01*
X1356501Y31652919D01*
X1356501Y31505083D01*
X1385343Y31360088D01*
X1441917Y31223506D01*
X1524050Y31100585D01*
X1628585Y30996050D01*
X1751506Y30913917D01*
X1888088Y30857343D01*
X2033083Y30828501D01*
X2033084Y30828501D01*
X2180918Y30828501D01*
X2180919Y30828501D01*
X2325914Y30857343D01*
X2462496Y30913917D01*
X2585417Y30996050D01*
X2689952Y31100585D01*
X2772085Y31223506D01*
X2828659Y31360088D01*
X2857501Y31505083D01*
X2857501Y31652919D01*
X2828659Y31797914D01*
X2772085Y31934496D01*
X2689952Y32057417D01*
X2585417Y32161952D01*
X2462496Y32244085D01*
X2462494Y32244086D01*
X2325915Y32300659D01*
X2325913Y32300660D01*
X2180921Y32329501D01*
X2180919Y32329501D01*
X2033083Y32329501D01*
X2033082Y32329501D01*
X2033079Y32329501D01*
X1888086Y32300659D01*
X1888084Y32300659D01*
X1751511Y32244089D01*
X1751499Y32244083D01*
X1628587Y32161954D01*
X1524048Y32057415D01*
X1441919Y31934503D01*
X1441913Y31934491D01*
X1385343Y31797916D01*
X1385342Y31797915D01*
X1385343Y31797914D01*
X1356501Y31652922D01*
X500500Y31652922D01*
X500500Y34192922D01*
X3896501Y34192922D01*
X3896501Y34045082D01*
X3925343Y33900086D01*
X3981916Y33763507D01*
X3981917Y33763505D01*
X4064050Y33640584D01*
X4168585Y33536049D01*
X4291506Y33453916D01*
X4428088Y33397342D01*
X4573083Y33368500D01*
X4573084Y33368500D01*
X4720918Y33368500D01*
X4720919Y33368500D01*
X4865914Y33397342D01*
X5002496Y33453916D01*
X5125417Y33536049D01*
X5229952Y33640584D01*
X5312085Y33763505D01*
X5368659Y33900087D01*
X5391089Y34012845D01*
X16646500Y34012845D01*
X16646500Y33855156D01*
X16647130Y33851989D01*
X16675361Y33710067D01*
X16675361Y33710063D01*
X16677262Y33700501D01*
X16737600Y33554831D01*
X16737603Y33554826D01*
X16737609Y33554815D01*
X16790312Y33475941D01*
X16825211Y33423711D01*
X16825214Y33423708D01*
X16825218Y33423703D01*
X16936707Y33312215D01*
X16936711Y33312211D01*
X17014876Y33259983D01*
X17067814Y33224610D01*
X17067825Y33224604D01*
X17121638Y33202315D01*
X17126296Y33200386D01*
X17126299Y33200384D01*
X17169494Y33182492D01*
X17213503Y33164263D01*
X17368158Y33133500D01*
X17368159Y33133500D01*
X17525841Y33133500D01*
X17525842Y33133500D01*
X17680497Y33164263D01*
X17826179Y33224606D01*
X17957289Y33312211D01*
X18068789Y33423711D01*
X18156394Y33554821D01*
X18216737Y33700503D01*
X18247500Y33855158D01*
X18247500Y34012842D01*
X18247499Y34012845D01*
X19186500Y34012845D01*
X19186500Y33855156D01*
X19187130Y33851989D01*
X19215361Y33710067D01*
X19215361Y33710063D01*
X19217262Y33700501D01*
X19277600Y33554831D01*
X19277603Y33554826D01*
X19277609Y33554815D01*
X19330312Y33475941D01*
X19365211Y33423711D01*
X19365214Y33423708D01*
X19365218Y33423703D01*
X19476707Y33312215D01*
X19476711Y33312211D01*
X19554876Y33259983D01*
X19607814Y33224610D01*
X19607825Y33224604D01*
X19661638Y33202315D01*
X19666296Y33200386D01*
X19666299Y33200384D01*
X19709494Y33182492D01*
X19753503Y33164263D01*
X19908158Y33133500D01*
X19908159Y33133500D01*
X20065841Y33133500D01*
X20065842Y33133500D01*
X20220497Y33164263D01*
X20366179Y33224606D01*
X20497289Y33312211D01*
X20608789Y33423711D01*
X20696394Y33554821D01*
X20756737Y33700503D01*
X20787500Y33855158D01*
X20787500Y34012842D01*
X20756737Y34167497D01*
X20696394Y34313179D01*
X20696393Y34313181D01*
X20696390Y34313186D01*
X20661017Y34366124D01*
X20608789Y34444289D01*
X20578576Y34474502D01*
X20497297Y34555782D01*
X20497293Y34555785D01*
X20497289Y34555789D01*
X20445059Y34590688D01*
X20366185Y34643391D01*
X20366174Y34643397D01*
X20366169Y34643400D01*
X20220498Y34703737D01*
X20065844Y34734500D01*
X20065842Y34734500D01*
X19908158Y34734500D01*
X19908155Y34734500D01*
X19908154Y34734500D01*
X19847044Y34722344D01*
X19763065Y34705639D01*
X19763058Y34705639D01*
X19753499Y34703738D01*
X19607829Y34643400D01*
X19607806Y34643387D01*
X19476711Y34555790D01*
X19365210Y34444289D01*
X19277613Y34313194D01*
X19277600Y34313171D01*
X19217906Y34169056D01*
X19217905Y34169050D01*
X19217263Y34167499D01*
X19217263Y34167497D01*
X19186500Y34012845D01*
X18247499Y34012845D01*
X18227120Y34115298D01*
X18216737Y34167497D01*
X18156394Y34313179D01*
X18156393Y34313181D01*
X18156390Y34313186D01*
X18121017Y34366124D01*
X18068789Y34444289D01*
X18038576Y34474502D01*
X17957297Y34555782D01*
X17957293Y34555785D01*
X17957289Y34555789D01*
X17905059Y34590688D01*
X17826185Y34643391D01*
X17826174Y34643397D01*
X17826169Y34643400D01*
X17680498Y34703737D01*
X17525844Y34734500D01*
X17525842Y34734500D01*
X17368158Y34734500D01*
X17368155Y34734500D01*
X17368154Y34734500D01*
X17307044Y34722344D01*
X17223065Y34705639D01*
X17223058Y34705639D01*
X17213499Y34703738D01*
X17067829Y34643400D01*
X17067806Y34643387D01*
X16936711Y34555790D01*
X16825210Y34444289D01*
X16737613Y34313194D01*
X16737600Y34313171D01*
X16677906Y34169056D01*
X16677905Y34169050D01*
X16677263Y34167499D01*
X16677263Y34167497D01*
X16646500Y34012845D01*
X5391089Y34012845D01*
X5397501Y34045082D01*
X5397501Y34192918D01*
X5368659Y34337913D01*
X5312085Y34474495D01*
X5229952Y34597416D01*
X5125417Y34701951D01*
X5002496Y34784084D01*
X5002494Y34784085D01*
X4865915Y34840658D01*
X4816689Y34850450D01*
X4816688Y34850451D01*
X4765979Y34860537D01*
X4720921Y34869500D01*
X4720919Y34869500D01*
X4573083Y34869500D01*
X4573082Y34869500D01*
X4573079Y34869500D01*
X4428086Y34840658D01*
X4428084Y34840658D01*
X4291511Y34784088D01*
X4291499Y34784082D01*
X4168587Y34701953D01*
X4064048Y34597414D01*
X3981919Y34474502D01*
X3981913Y34474490D01*
X3925343Y34337917D01*
X3925343Y34337915D01*
X3896501Y34192922D01*
X500500Y34192922D01*
X500500Y34952774D01*
X9326500Y34952774D01*
X9326500Y34785230D01*
X9327756Y34778917D01*
X9359183Y34620922D01*
X9359185Y34620916D01*
X9423296Y34466139D01*
X9423297Y34466138D01*
X9516374Y34326839D01*
X9634838Y34208375D01*
X9774137Y34115298D01*
X9928918Y34051185D01*
X10093233Y34018501D01*
X10093234Y34018501D01*
X10260766Y34018501D01*
X10260767Y34018501D01*
X10425082Y34051185D01*
X10579863Y34115298D01*
X10719162Y34208375D01*
X10837626Y34326839D01*
X10930703Y34466138D01*
X10994816Y34620919D01*
X11027500Y34785234D01*
X11027500Y34952768D01*
X10994816Y35117083D01*
X10930703Y35271864D01*
X10837626Y35411163D01*
X10730870Y35517919D01*
X12581499Y35517919D01*
X12581499Y35370083D01*
X12610341Y35225088D01*
X12666915Y35088506D01*
X12749048Y34965585D01*
X12853583Y34861050D01*
X12976504Y34778917D01*
X13113086Y34722343D01*
X13258081Y34693501D01*
X13258082Y34693501D01*
X13405916Y34693501D01*
X13405917Y34693501D01*
X13550912Y34722343D01*
X13687494Y34778917D01*
X13810415Y34861050D01*
X13914950Y34965585D01*
X13997083Y35088506D01*
X14053657Y35225088D01*
X14082499Y35370083D01*
X14082499Y35517919D01*
X14053657Y35662914D01*
X13997083Y35799496D01*
X13914950Y35922417D01*
X13810415Y36026952D01*
X13687494Y36109085D01*
X13687492Y36109086D01*
X13550913Y36165659D01*
X13550911Y36165660D01*
X13405919Y36194501D01*
X13405917Y36194501D01*
X13258081Y36194501D01*
X13258080Y36194501D01*
X13258077Y36194501D01*
X13113084Y36165659D01*
X13113082Y36165659D01*
X12976509Y36109089D01*
X12976497Y36109083D01*
X12853585Y36026954D01*
X12749046Y35922415D01*
X12666917Y35799503D01*
X12666911Y35799491D01*
X12610341Y35662918D01*
X12610341Y35662916D01*
X12583828Y35529633D01*
X12583828Y35529627D01*
X12581499Y35517919D01*
X10730870Y35517919D01*
X10719162Y35529627D01*
X10637002Y35584525D01*
X10624496Y35600389D01*
X10579869Y35622702D01*
X10579862Y35622705D01*
X10425085Y35686816D01*
X10425079Y35686818D01*
X10342924Y35703160D01*
X10260771Y35719501D01*
X10260769Y35719501D01*
X10260767Y35719501D01*
X10093233Y35719501D01*
X10093230Y35719501D01*
X10093227Y35719501D01*
X9969997Y35694989D01*
X9928920Y35686818D01*
X9928914Y35686816D01*
X9928911Y35686815D01*
X9774137Y35622706D01*
X9634839Y35529628D01*
X9634838Y35529628D01*
X9516373Y35411163D01*
X9423295Y35271864D01*
X9359186Y35117090D01*
X9359183Y35117080D01*
X9326500Y34952774D01*
X500500Y34952774D01*
X500500Y36732922D01*
X1356501Y36732922D01*
X1356501Y36732919D01*
X1356501Y36732918D01*
X1356501Y36585082D01*
X1385343Y36440087D01*
X1441917Y36303505D01*
X1524050Y36180584D01*
X1628585Y36076049D01*
X1751506Y35993916D01*
X1888088Y35937342D01*
X2033083Y35908500D01*
X2033084Y35908500D01*
X2180918Y35908500D01*
X2180919Y35908500D01*
X2325914Y35937342D01*
X2462496Y35993916D01*
X2585417Y36076049D01*
X2689952Y36180584D01*
X2772085Y36303505D01*
X2828659Y36440087D01*
X2857501Y36585082D01*
X2857501Y36732918D01*
X2828659Y36877913D01*
X2772085Y37014495D01*
X2689952Y37137416D01*
X2585417Y37241951D01*
X2462496Y37324084D01*
X2462494Y37324085D01*
X2325915Y37380658D01*
X2276689Y37390450D01*
X2276688Y37390451D01*
X2225979Y37400537D01*
X2180921Y37409500D01*
X2180919Y37409500D01*
X2033083Y37409500D01*
X2033082Y37409500D01*
X2033079Y37409500D01*
X1888086Y37380658D01*
X1888084Y37380658D01*
X1751511Y37324088D01*
X1751499Y37324082D01*
X1628587Y37241953D01*
X1524048Y37137414D01*
X1441919Y37014502D01*
X1441913Y37014490D01*
X1385343Y36877917D01*
X1385343Y36877915D01*
X1356501Y36732922D01*
X500500Y36732922D01*
X500500Y37492774D01*
X9326500Y37492774D01*
X9326500Y37325230D01*
X9342841Y37243077D01*
X9359183Y37160922D01*
X9359185Y37160916D01*
X9423296Y37006139D01*
X9423297Y37006138D01*
X9516374Y36866839D01*
X9634838Y36748375D01*
X9774137Y36655298D01*
X9928918Y36591185D01*
X10093233Y36558501D01*
X10093234Y36558501D01*
X10260766Y36558501D01*
X10260767Y36558501D01*
X10425082Y36591185D01*
X10579863Y36655298D01*
X10719162Y36748375D01*
X10837626Y36866839D01*
X10930703Y37006138D01*
X10994816Y37160919D01*
X11027500Y37325234D01*
X11027500Y37492768D01*
X10994816Y37657083D01*
X10930703Y37811864D01*
X10837626Y37951163D01*
X10719162Y38069627D01*
X10637002Y38124525D01*
X10624496Y38140389D01*
X10579869Y38162702D01*
X10579862Y38162705D01*
X10425085Y38226816D01*
X10425079Y38226818D01*
X10342924Y38243160D01*
X10260771Y38259501D01*
X10260769Y38259501D01*
X10260767Y38259501D01*
X10093233Y38259501D01*
X10093230Y38259501D01*
X10093227Y38259501D01*
X9969997Y38234989D01*
X9928920Y38226818D01*
X9928914Y38226816D01*
X9928911Y38226815D01*
X9774137Y38162706D01*
X9634838Y38069628D01*
X9516373Y37951163D01*
X9423295Y37811864D01*
X9359186Y37657090D01*
X9359183Y37657080D01*
X9326500Y37492774D01*
X500500Y37492774D01*
X500500Y40032773D01*
X9326500Y40032773D01*
X9326500Y39865229D01*
X9333215Y39831473D01*
X9359183Y39700921D01*
X9359184Y39700918D01*
X9359186Y39700913D01*
X9423140Y39546513D01*
X9423296Y39546138D01*
X9423297Y39546137D01*
X9516374Y39406838D01*
X9634838Y39288374D01*
X9774137Y39195297D01*
X9928918Y39131184D01*
X10093233Y39098500D01*
X10093234Y39098500D01*
X10260766Y39098500D01*
X10260767Y39098500D01*
X10300860Y39106475D01*
X16746500Y39106475D01*
X16746500Y38961526D01*
X16779585Y38838051D01*
X16784018Y38821507D01*
X16856485Y38695992D01*
X16856487Y38695990D01*
X16856489Y38695988D01*
X16856491Y38695985D01*
X16958985Y38593491D01*
X16958987Y38593490D01*
X16958989Y38593488D01*
X16959536Y38593093D01*
X16961538Y38592016D01*
X17084511Y38521018D01*
X17084512Y38521018D01*
X17084515Y38521016D01*
X17224525Y38483500D01*
X17224526Y38483500D01*
X17369474Y38483500D01*
X17369475Y38483500D01*
X17509485Y38521016D01*
X17509486Y38521017D01*
X17509488Y38521018D01*
X17509489Y38521018D01*
X17628880Y38589949D01*
X17631768Y38591352D01*
X17632554Y38591869D01*
X17637563Y38594963D01*
X17638862Y38595714D01*
X17644220Y38602697D01*
X17737509Y38695985D01*
X17737513Y38695992D01*
X17809982Y38821511D01*
X17809982Y38821513D01*
X17809984Y38821515D01*
X17847500Y38961525D01*
X17847500Y39106475D01*
X19071500Y39106475D01*
X19071500Y38961526D01*
X19104585Y38838051D01*
X19109018Y38821507D01*
X19181485Y38695992D01*
X19181487Y38695990D01*
X19181489Y38695988D01*
X19181491Y38695985D01*
X19283985Y38593491D01*
X19283987Y38593490D01*
X19283989Y38593488D01*
X19284536Y38593093D01*
X19286538Y38592016D01*
X19409511Y38521018D01*
X19409512Y38521018D01*
X19409515Y38521016D01*
X19549525Y38483500D01*
X19549526Y38483500D01*
X19694474Y38483500D01*
X19694475Y38483500D01*
X19834485Y38521016D01*
X19834486Y38521017D01*
X19834488Y38521018D01*
X19834489Y38521018D01*
X19953880Y38589949D01*
X19956768Y38591352D01*
X19957554Y38591869D01*
X19962563Y38594963D01*
X19963862Y38595714D01*
X19969220Y38602697D01*
X20062509Y38695985D01*
X20062513Y38695992D01*
X20134982Y38821511D01*
X20134982Y38821513D01*
X20134984Y38821515D01*
X20172500Y38961525D01*
X20172500Y39106475D01*
X20134984Y39246485D01*
X20134982Y39246488D01*
X20134982Y39246490D01*
X20134977Y39246498D01*
X20134656Y39247208D01*
X20133397Y39249236D01*
X20063985Y39369461D01*
X20063985Y39369460D01*
X20062512Y39372011D01*
X20062510Y39372013D01*
X20062509Y39372015D01*
X19960015Y39474509D01*
X19960012Y39474511D01*
X19960010Y39474513D01*
X19891774Y39513909D01*
X19870741Y39537269D01*
X19804897Y39554913D01*
X19804896Y39554913D01*
X19694475Y39584500D01*
X19694473Y39584500D01*
X19549523Y39584500D01*
X19487788Y39567959D01*
X19487787Y39567960D01*
X19409512Y39546985D01*
X19409506Y39546982D01*
X19283993Y39474517D01*
X19181483Y39372007D01*
X19109018Y39246495D01*
X19095300Y39195297D01*
X19071500Y39106475D01*
X17847500Y39106475D01*
X17809984Y39246485D01*
X17809982Y39246488D01*
X17809982Y39246490D01*
X17809822Y39246766D01*
X17809746Y39247064D01*
X17808397Y39249236D01*
X17738985Y39369461D01*
X17738985Y39369460D01*
X17737512Y39372011D01*
X17737510Y39372013D01*
X17737509Y39372015D01*
X17635015Y39474509D01*
X17635012Y39474511D01*
X17635010Y39474513D01*
X17566774Y39513909D01*
X17545741Y39537269D01*
X17479897Y39554913D01*
X17479896Y39554913D01*
X17369475Y39584500D01*
X17369473Y39584500D01*
X17224523Y39584500D01*
X17162788Y39567959D01*
X17162787Y39567960D01*
X17084512Y39546985D01*
X17084506Y39546982D01*
X16958993Y39474517D01*
X16856483Y39372007D01*
X16784018Y39246495D01*
X16770300Y39195297D01*
X16746500Y39106475D01*
X10300860Y39106475D01*
X10425082Y39131184D01*
X10579863Y39195297D01*
X10719162Y39288374D01*
X10837626Y39406838D01*
X10930703Y39546137D01*
X10994816Y39700918D01*
X11027500Y39865233D01*
X11027500Y40032767D01*
X10994816Y40197082D01*
X10930703Y40351863D01*
X10837626Y40491162D01*
X10719162Y40609626D01*
X10604075Y40686525D01*
X10579862Y40702704D01*
X10474129Y40746500D01*
X10460612Y40752099D01*
X10425092Y40766813D01*
X10425085Y40766815D01*
X10425079Y40766817D01*
X10342924Y40783159D01*
X10260771Y40799500D01*
X10260769Y40799500D01*
X10260767Y40799500D01*
X10093233Y40799500D01*
X10093230Y40799500D01*
X10093227Y40799500D01*
X9969997Y40774988D01*
X9928920Y40766817D01*
X9928914Y40766815D01*
X9928911Y40766814D01*
X9774137Y40702705D01*
X9634838Y40609627D01*
X9516373Y40491162D01*
X9423295Y40351863D01*
X9359186Y40197089D01*
X9359183Y40197079D01*
X9326500Y40032773D01*
X500500Y40032773D01*
X500500Y41190350D01*
X1206501Y41190350D01*
X1206501Y41032661D01*
X1229018Y40919461D01*
X1235362Y40887572D01*
X1235362Y40887568D01*
X1237263Y40878006D01*
X1297601Y40732336D01*
X1297615Y40732311D01*
X1328209Y40686526D01*
X1328210Y40686525D01*
X1385213Y40601214D01*
X1448957Y40537471D01*
X1496712Y40489716D01*
X1574877Y40437488D01*
X1627815Y40402115D01*
X1627826Y40402109D01*
X1681639Y40379820D01*
X1686297Y40377891D01*
X1686300Y40377889D01*
X1701708Y40371507D01*
X1773504Y40341768D01*
X1928159Y40311005D01*
X1928160Y40311005D01*
X2085842Y40311005D01*
X2085843Y40311005D01*
X2240498Y40341768D01*
X2386180Y40402111D01*
X2517290Y40489716D01*
X2628790Y40601216D01*
X2716395Y40732326D01*
X2776738Y40878008D01*
X2807501Y41032663D01*
X2807501Y41190347D01*
X2776738Y41345002D01*
X2716395Y41490684D01*
X2716394Y41490686D01*
X2716391Y41490691D01*
X2681018Y41543629D01*
X2628790Y41621794D01*
X2628786Y41621798D01*
X2517298Y41733287D01*
X2517294Y41733290D01*
X2517290Y41733294D01*
X2465060Y41768193D01*
X2386186Y41820896D01*
X2386175Y41820902D01*
X2386170Y41820905D01*
X2240499Y41881242D01*
X2085845Y41912005D01*
X2085843Y41912005D01*
X1928159Y41912005D01*
X1928156Y41912005D01*
X1928155Y41912005D01*
X1863681Y41899180D01*
X1783066Y41883144D01*
X1783059Y41883144D01*
X1773500Y41881243D01*
X1627830Y41820905D01*
X1627807Y41820892D01*
X1496712Y41733295D01*
X1385211Y41621794D01*
X1297614Y41490699D01*
X1297601Y41490676D01*
X1237907Y41346561D01*
X1237906Y41346555D01*
X1237264Y41345004D01*
X1237264Y41345002D01*
X1206501Y41190350D01*
X500500Y41190350D01*
X500500Y43730350D01*
X1206501Y43730350D01*
X1206501Y43572661D01*
X1207131Y43569494D01*
X1235362Y43427572D01*
X1235362Y43427568D01*
X1237263Y43418006D01*
X1297601Y43272336D01*
X1297614Y43272313D01*
X1338320Y43211394D01*
X1356639Y43183978D01*
X1385212Y43141216D01*
X1496712Y43029716D01*
X1574877Y42977488D01*
X1627815Y42942115D01*
X1627826Y42942109D01*
X1681639Y42919820D01*
X1686297Y42917891D01*
X1686300Y42917889D01*
X1729495Y42899997D01*
X1773504Y42881768D01*
X1928159Y42851005D01*
X1928160Y42851005D01*
X2085842Y42851005D01*
X2085843Y42851005D01*
X2240498Y42881768D01*
X2386180Y42942111D01*
X2517290Y43029716D01*
X2628790Y43141216D01*
X2716395Y43272326D01*
X2750538Y43354757D01*
X2769327Y43380843D01*
X2772033Y43387386D01*
X2772035Y43387388D01*
X2775632Y43389596D01*
X2777094Y43391624D01*
X2783093Y43396833D01*
X2784599Y43395098D01*
X2824183Y43419388D01*
X2885183Y43414624D01*
X2931733Y43374916D01*
X2932381Y43373860D01*
X2947001Y43322081D01*
X2947001Y42751512D01*
X2957492Y42648819D01*
X2957492Y42648818D01*
X2957495Y42648808D01*
X3012640Y42482385D01*
X3012641Y42482384D01*
X3012643Y42482379D01*
X3017098Y42475158D01*
X3923731Y43381793D01*
X3978248Y43409570D01*
X4038680Y43399999D01*
X4079471Y43361289D01*
X4083410Y43354467D01*
X4106891Y43313797D01*
X4209293Y43211395D01*
X4256782Y43183978D01*
X4297722Y43138509D01*
X4304118Y43077659D01*
X4277285Y43028239D01*
X3370652Y42121605D01*
X3370652Y42121604D01*
X3370652Y42121603D01*
X3377871Y42117150D01*
X3377880Y42117146D01*
X3544307Y42061999D01*
X3564848Y42059901D01*
X3647005Y42051506D01*
X3647013Y42051506D01*
X3990914Y42051506D01*
X4021502Y42046663D01*
X4029344Y42044115D01*
X4078844Y42008153D01*
X4097754Y41949963D01*
X4078849Y41891772D01*
X4078847Y41891769D01*
X4075048Y41886540D01*
X4049957Y41862415D01*
X3972966Y41810971D01*
X3847535Y41685540D01*
X3748440Y41537234D01*
X3747123Y41533553D01*
X3681106Y41374175D01*
X3679205Y41364612D01*
X3679205Y41364610D01*
X3646501Y41200202D01*
X3646501Y41022810D01*
X3679205Y40858402D01*
X3679205Y40858399D01*
X3681106Y40848837D01*
X3743826Y40697418D01*
X3748986Y40684961D01*
X3748986Y40684960D01*
X3804942Y40601217D01*
X3805575Y40600270D01*
X3841494Y40546513D01*
X3847537Y40537470D01*
X3972966Y40412041D01*
X4120454Y40313492D01*
X4121274Y40312944D01*
X4124975Y40311619D01*
X4126430Y40311016D01*
X4126447Y40311010D01*
X4126458Y40311005D01*
X4284335Y40245611D01*
X4458310Y40211005D01*
X4458311Y40211005D01*
X4635691Y40211005D01*
X4635692Y40211005D01*
X4809667Y40245611D01*
X4973548Y40313492D01*
X5121036Y40412041D01*
X5246465Y40537470D01*
X5345014Y40684958D01*
X5405703Y40831475D01*
X12536500Y40831475D01*
X12536500Y40686525D01*
X12537604Y40682405D01*
X12537604Y40682403D01*
X12559359Y40601215D01*
X12559358Y40601215D01*
X12574016Y40546512D01*
X12574018Y40546508D01*
X12646486Y40420990D01*
X12727387Y40340088D01*
X12745591Y40315033D01*
X12751646Y40303150D01*
X12761218Y40242719D01*
X12761218Y40242714D01*
X12760421Y40237683D01*
X12732644Y40183170D01*
X12646491Y40097016D01*
X12646491Y40097015D01*
X12646483Y40097007D01*
X12574018Y39971495D01*
X12553042Y39893213D01*
X12536500Y39831475D01*
X12536500Y39686526D01*
X12563838Y39584500D01*
X12574018Y39546507D01*
X12646485Y39420992D01*
X12646487Y39420990D01*
X12646489Y39420988D01*
X12646491Y39420985D01*
X12748985Y39318491D01*
X12748987Y39318490D01*
X12748989Y39318488D01*
X12749536Y39318093D01*
X12751538Y39317016D01*
X12874511Y39246018D01*
X12874512Y39246018D01*
X12874515Y39246016D01*
X13014525Y39208500D01*
X13014526Y39208500D01*
X13159474Y39208500D01*
X13159475Y39208500D01*
X13299485Y39246016D01*
X13299486Y39246017D01*
X13299488Y39246018D01*
X13299489Y39246018D01*
X13418880Y39314949D01*
X13421768Y39316352D01*
X13422557Y39316871D01*
X13427567Y39319965D01*
X13428860Y39320712D01*
X13434218Y39327695D01*
X13505914Y39399392D01*
X13530966Y39417592D01*
X13542853Y39423649D01*
X13603281Y39433219D01*
X13608319Y39432421D01*
X13662830Y39404645D01*
X13748985Y39318491D01*
X13749536Y39318093D01*
X13751538Y39317016D01*
X13874511Y39246018D01*
X13874512Y39246018D01*
X13874515Y39246016D01*
X14014525Y39208500D01*
X14014526Y39208500D01*
X14159474Y39208500D01*
X14159475Y39208500D01*
X14299485Y39246016D01*
X14299486Y39246017D01*
X14299488Y39246018D01*
X14299489Y39246018D01*
X14418880Y39314949D01*
X14421768Y39316352D01*
X14422557Y39316871D01*
X14427567Y39319965D01*
X14428860Y39320712D01*
X14434218Y39327695D01*
X14505914Y39399392D01*
X14530966Y39417592D01*
X14542853Y39423649D01*
X14603281Y39433219D01*
X14608319Y39432421D01*
X14662830Y39404645D01*
X14748985Y39318491D01*
X14749536Y39318093D01*
X14751538Y39317016D01*
X14874511Y39246018D01*
X14874512Y39246018D01*
X14874515Y39246016D01*
X15014525Y39208500D01*
X15014526Y39208500D01*
X15159475Y39208500D01*
X15299485Y39246016D01*
X15425015Y39318491D01*
X15527509Y39420985D01*
X15558411Y39474509D01*
X15599982Y39546511D01*
X15599982Y39546513D01*
X15599984Y39546515D01*
X15637500Y39686525D01*
X15637500Y39831475D01*
X15599984Y39971485D01*
X15599982Y39971488D01*
X15599982Y39971490D01*
X15599977Y39971498D01*
X15599656Y39972208D01*
X15598397Y39974236D01*
X15528985Y40094461D01*
X15528985Y40094460D01*
X15527512Y40097011D01*
X15527511Y40097012D01*
X15527510Y40097014D01*
X15446610Y40177915D01*
X15428406Y40202971D01*
X15422351Y40214855D01*
X15412780Y40275275D01*
X15413578Y40280314D01*
X15441349Y40334827D01*
X15527509Y40420985D01*
X15567192Y40489717D01*
X15599982Y40546511D01*
X15599982Y40546513D01*
X15599984Y40546515D01*
X15629448Y40656475D01*
X21086500Y40656475D01*
X21086500Y40511525D01*
X21092343Y40489720D01*
X21095113Y40479379D01*
X21095114Y40479378D01*
X21124018Y40371507D01*
X21196485Y40245992D01*
X21196487Y40245990D01*
X21196489Y40245988D01*
X21196491Y40245985D01*
X21298985Y40143491D01*
X21298987Y40143490D01*
X21298989Y40143488D01*
X21299536Y40143093D01*
X21301538Y40142016D01*
X21424511Y40071018D01*
X21424512Y40071018D01*
X21424515Y40071016D01*
X21564525Y40033500D01*
X21564526Y40033500D01*
X21709474Y40033500D01*
X21709475Y40033500D01*
X21849485Y40071016D01*
X21849486Y40071017D01*
X21849488Y40071018D01*
X21849489Y40071018D01*
X21968880Y40139949D01*
X21971768Y40141352D01*
X21972554Y40141869D01*
X21977563Y40144963D01*
X21978862Y40145714D01*
X21984220Y40152697D01*
X22077509Y40245985D01*
X22093965Y40274487D01*
X22149982Y40371511D01*
X22149982Y40371513D01*
X22149984Y40371515D01*
X22187500Y40511525D01*
X22187500Y40656475D01*
X22149984Y40796485D01*
X22149982Y40796488D01*
X22149982Y40796490D01*
X22149977Y40796498D01*
X22149656Y40797208D01*
X22148397Y40799236D01*
X22078985Y40919461D01*
X22078985Y40919460D01*
X22077512Y40922011D01*
X22077510Y40922013D01*
X22077509Y40922015D01*
X21975015Y41024509D01*
X21975012Y41024511D01*
X21975010Y41024513D01*
X21975009Y41024514D01*
X21906775Y41063909D01*
X21885741Y41087270D01*
X21810138Y41107527D01*
X21788384Y41113356D01*
X21709475Y41134500D01*
X21709474Y41134500D01*
X21564523Y41134500D01*
X21502788Y41117959D01*
X21502787Y41117960D01*
X21424512Y41096985D01*
X21424506Y41096982D01*
X21298993Y41024517D01*
X21196483Y40922007D01*
X21124019Y40796496D01*
X21124017Y40796492D01*
X21124017Y40796490D01*
X21094552Y40686526D01*
X21094552Y40686525D01*
X21094551Y40686526D01*
X21086847Y40657771D01*
X21086500Y40656475D01*
X15629448Y40656475D01*
X15637500Y40686525D01*
X15637500Y40831475D01*
X15599984Y40971485D01*
X15599982Y40971488D01*
X15599982Y40971490D01*
X15599977Y40971498D01*
X15599656Y40972208D01*
X15598397Y40974236D01*
X15528985Y41094461D01*
X15528985Y41094460D01*
X15527512Y41097011D01*
X15527510Y41097013D01*
X15527509Y41097015D01*
X15425015Y41199509D01*
X15425012Y41199511D01*
X15425010Y41199513D01*
X15356774Y41238909D01*
X15335741Y41262269D01*
X15269897Y41279913D01*
X15269896Y41279913D01*
X15159475Y41309500D01*
X15159473Y41309500D01*
X15014523Y41309500D01*
X14952788Y41292959D01*
X14952787Y41292960D01*
X14874512Y41271985D01*
X14874506Y41271982D01*
X14751721Y41201092D01*
X14751716Y41201088D01*
X14748989Y41199513D01*
X14748988Y41199512D01*
X14748985Y41199510D01*
X14748985Y41199509D01*
X14737198Y41187723D01*
X14737175Y41187701D01*
X14668089Y41118615D01*
X14643033Y41100410D01*
X14631148Y41094354D01*
X14570716Y41084782D01*
X14570712Y41084783D01*
X14565676Y41085580D01*
X14511169Y41113356D01*
X14425014Y41199510D01*
X14425011Y41199512D01*
X14425010Y41199513D01*
X14356774Y41238909D01*
X14335741Y41262269D01*
X14269897Y41279913D01*
X14269896Y41279913D01*
X14159475Y41309500D01*
X14159473Y41309500D01*
X14014523Y41309500D01*
X13952788Y41292959D01*
X13952787Y41292960D01*
X13874512Y41271985D01*
X13874506Y41271982D01*
X13751721Y41201092D01*
X13751716Y41201088D01*
X13748989Y41199513D01*
X13748988Y41199512D01*
X13748985Y41199510D01*
X13748985Y41199509D01*
X13737198Y41187723D01*
X13737175Y41187701D01*
X13668089Y41118615D01*
X13643033Y41100410D01*
X13631148Y41094354D01*
X13570716Y41084782D01*
X13570712Y41084783D01*
X13565676Y41085580D01*
X13511169Y41113356D01*
X13425014Y41199510D01*
X13425011Y41199512D01*
X13425010Y41199513D01*
X13356774Y41238909D01*
X13335741Y41262269D01*
X13269897Y41279913D01*
X13269896Y41279913D01*
X13159475Y41309500D01*
X13159473Y41309500D01*
X13014523Y41309500D01*
X12952788Y41292959D01*
X12952787Y41292960D01*
X12874512Y41271985D01*
X12874506Y41271982D01*
X12748993Y41199517D01*
X12646483Y41097007D01*
X12574625Y40972546D01*
X12574624Y40972543D01*
X12574017Y40971490D01*
X12574016Y40971485D01*
X12536500Y40831475D01*
X5405703Y40831475D01*
X5412895Y40848839D01*
X5447501Y41022814D01*
X5447501Y41200196D01*
X5412895Y41374171D01*
X5346869Y41533572D01*
X5345558Y41537238D01*
X5341288Y41543628D01*
X5246465Y41685540D01*
X5246463Y41685543D01*
X5121035Y41810970D01*
X5106170Y41820902D01*
X5106166Y41820905D01*
X5045436Y41861483D01*
X5022696Y41882506D01*
X5017590Y41888982D01*
X4996414Y41946383D01*
X5013023Y42005271D01*
X5061070Y42043148D01*
X5067150Y42045392D01*
X5101404Y42051506D01*
X5446995Y42051506D01*
X5549679Y42061997D01*
X5549679Y42061998D01*
X5549688Y42061998D01*
X5549703Y42062001D01*
X5716117Y42117144D01*
X5723347Y42121605D01*
X4816715Y43028237D01*
X4788938Y43082754D01*
X4798509Y43143186D01*
X4837219Y43183978D01*
X4884709Y43211395D01*
X4987111Y43313797D01*
X5014528Y43361287D01*
X5059997Y43402228D01*
X5120848Y43408624D01*
X5170269Y43381791D01*
X6076901Y42475159D01*
X6081362Y42482389D01*
X6136451Y42648644D01*
X6136478Y42648682D01*
X6136505Y42648806D01*
X6136506Y42648809D01*
X6136507Y42648812D01*
X6136508Y42648821D01*
X6147000Y42751510D01*
X6147000Y44551500D01*
X6136508Y44654193D01*
X6136508Y44654194D01*
X6136504Y44654208D01*
X6081362Y44820619D01*
X6081360Y44820625D01*
X6081360Y44820626D01*
X6081356Y44820635D01*
X6076902Y44827854D01*
X6076901Y44827854D01*
X5170267Y43921221D01*
X5115751Y43893444D01*
X5055319Y43903015D01*
X5014528Y43941724D01*
X4987111Y43989213D01*
X4884709Y44091615D01*
X4884706Y44091617D01*
X4837217Y44119035D01*
X4796276Y44164505D01*
X4789880Y44225355D01*
X4816711Y44274773D01*
X5723348Y45181408D01*
X5723348Y45181409D01*
X5716127Y45185863D01*
X5549694Y45241012D01*
X5549691Y45241013D01*
X5446996Y45251505D01*
X5446988Y45251505D01*
X3647014Y45251505D01*
X3647006Y45251505D01*
X3544321Y45241015D01*
X3544293Y45241009D01*
X3544291Y45241009D01*
X3377880Y45185866D01*
X3377876Y45185864D01*
X3370652Y45181409D01*
X3370652Y45181408D01*
X3897690Y44654370D01*
X4277286Y44274774D01*
X4305063Y44220257D01*
X4295492Y44159825D01*
X4256783Y44119034D01*
X4209294Y44091616D01*
X4106890Y43989212D01*
X4079472Y43941723D01*
X4034002Y43900782D01*
X3973151Y43894388D01*
X3923732Y43921220D01*
X3484047Y44360905D01*
X3017098Y44827854D01*
X3017097Y44827854D01*
X3012642Y44820630D01*
X3012639Y44820623D01*
X2957550Y44654370D01*
X2957496Y44654209D01*
X2957492Y44654191D01*
X2947001Y44551502D01*
X2947001Y43987338D01*
X2939611Y43955977D01*
X2939613Y43948922D01*
X2937150Y43945532D01*
X2936587Y43943139D01*
X2933038Y43936026D01*
X2930989Y43937049D01*
X2903658Y43899416D01*
X2845470Y43880498D01*
X2787276Y43899395D01*
X2786275Y43900122D01*
X2752988Y43942340D01*
X2716399Y44030676D01*
X2716397Y44030680D01*
X2716391Y44030691D01*
X2675682Y44091615D01*
X2628790Y44161794D01*
X2615290Y44175294D01*
X2517298Y44273287D01*
X2517294Y44273290D01*
X2517290Y44273294D01*
X2465060Y44308193D01*
X2386186Y44360896D01*
X2386175Y44360902D01*
X2386170Y44360905D01*
X2240499Y44421242D01*
X2085845Y44452005D01*
X2085843Y44452005D01*
X1928159Y44452005D01*
X1928156Y44452005D01*
X1928155Y44452005D01*
X1863681Y44439180D01*
X1783066Y44423144D01*
X1783059Y44423144D01*
X1773500Y44421243D01*
X1627830Y44360905D01*
X1627807Y44360892D01*
X1496712Y44273295D01*
X1385211Y44161794D01*
X1297614Y44030699D01*
X1297601Y44030676D01*
X1237907Y43886561D01*
X1237906Y43886555D01*
X1237264Y43885004D01*
X1237264Y43885002D01*
X1206501Y43730350D01*
X500500Y43730350D01*
X500500Y49092922D01*
X1946502Y49092922D01*
X1946502Y48945080D01*
X1975343Y48800089D01*
X1975345Y48800083D01*
X2031114Y48665446D01*
X2031114Y48665445D01*
X2031915Y48663510D01*
X2031921Y48663498D01*
X2100331Y48561118D01*
X2114051Y48540584D01*
X2218586Y48436049D01*
X2341507Y48353916D01*
X2478089Y48297342D01*
X2623084Y48268500D01*
X2623085Y48268500D01*
X2770919Y48268500D01*
X2770920Y48268500D01*
X2915915Y48297342D01*
X3052497Y48353916D01*
X3175418Y48436049D01*
X3279953Y48540584D01*
X3362086Y48663505D01*
X3418660Y48800087D01*
X3447502Y48945082D01*
X3447502Y49092918D01*
X3447500Y49092929D01*
X3444925Y49105876D01*
X3444922Y49105888D01*
X3441853Y49121316D01*
X3441852Y49121320D01*
X3897002Y49121320D01*
X3897002Y48916682D01*
X3929008Y48714593D01*
X3992245Y48519973D01*
X4085140Y48337654D01*
X4085515Y48337074D01*
X4086488Y48335798D01*
X4117525Y48293080D01*
X4117526Y48293080D01*
X4683542Y48859097D01*
X4738057Y48886872D01*
X4798489Y48877301D01*
X4839280Y48838591D01*
X4861511Y48800086D01*
X4876922Y48773394D01*
X4951396Y48698920D01*
X4951398Y48698919D01*
X5016590Y48661280D01*
X5057531Y48615811D01*
X5063927Y48554961D01*
X5037094Y48505541D01*
X4471079Y47939526D01*
X4471080Y47939526D01*
X4471080Y47939525D01*
X4515649Y47907142D01*
X4515655Y47907139D01*
X4697976Y47814243D01*
X4697980Y47814241D01*
X4892583Y47751010D01*
X4892587Y47751009D01*
X5094684Y47719000D01*
X5299317Y47719000D01*
X5299320Y47719000D01*
X5501415Y47751009D01*
X5501419Y47751010D01*
X5696022Y47814241D01*
X5696024Y47814243D01*
X5696029Y47814244D01*
X5878344Y47907137D01*
X5878352Y47907142D01*
X5922922Y47939525D01*
X5356905Y48505542D01*
X5329130Y48560056D01*
X5338701Y48620488D01*
X5377410Y48661279D01*
X5442608Y48698920D01*
X5517082Y48773394D01*
X5554723Y48838592D01*
X5600191Y48879532D01*
X5661042Y48885928D01*
X5710460Y48859097D01*
X6276477Y48293080D01*
X6308860Y48337650D01*
X6308865Y48337658D01*
X6401758Y48519973D01*
X6401759Y48519978D01*
X6401761Y48519980D01*
X6464992Y48714583D01*
X6464993Y48714587D01*
X6497002Y48916682D01*
X6497002Y49092922D01*
X10797942Y49092922D01*
X10797942Y48945080D01*
X10826783Y48800089D01*
X10826785Y48800083D01*
X10882554Y48665446D01*
X10882554Y48665445D01*
X10883355Y48663510D01*
X10883361Y48663498D01*
X10951771Y48561118D01*
X10965491Y48540584D01*
X11070026Y48436049D01*
X11192947Y48353916D01*
X11329529Y48297342D01*
X11474524Y48268500D01*
X11474525Y48268500D01*
X11622359Y48268500D01*
X11622360Y48268500D01*
X11767355Y48297342D01*
X11903937Y48353916D01*
X12026858Y48436049D01*
X12131393Y48540584D01*
X12213526Y48663505D01*
X12270100Y48800087D01*
X12298942Y48945082D01*
X12298942Y49092918D01*
X12298940Y49092929D01*
X12296365Y49105876D01*
X12296362Y49105888D01*
X12293293Y49121316D01*
X12293292Y49121320D01*
X12748442Y49121320D01*
X12748442Y48916682D01*
X12780448Y48714593D01*
X12843685Y48519973D01*
X12936580Y48337654D01*
X12936955Y48337074D01*
X12937928Y48335798D01*
X12968965Y48293080D01*
X12968966Y48293080D01*
X13534982Y48859097D01*
X13589497Y48886872D01*
X13649929Y48877301D01*
X13690720Y48838591D01*
X13712951Y48800086D01*
X13728362Y48773394D01*
X13802836Y48698920D01*
X13802838Y48698919D01*
X13868030Y48661280D01*
X13908971Y48615811D01*
X13915367Y48554961D01*
X13888534Y48505541D01*
X13322519Y47939526D01*
X13322520Y47939526D01*
X13322520Y47939525D01*
X13367089Y47907142D01*
X13367095Y47907139D01*
X13549416Y47814243D01*
X13549420Y47814241D01*
X13744023Y47751010D01*
X13744027Y47751009D01*
X13946124Y47719000D01*
X14150757Y47719000D01*
X14150760Y47719000D01*
X14352855Y47751009D01*
X14352859Y47751010D01*
X14547462Y47814241D01*
X14547464Y47814243D01*
X14547469Y47814244D01*
X14729784Y47907137D01*
X14729792Y47907142D01*
X14774362Y47939525D01*
X14208345Y48505542D01*
X14180570Y48560056D01*
X14190141Y48620488D01*
X14228850Y48661279D01*
X14294048Y48698920D01*
X14368522Y48773394D01*
X14406163Y48838592D01*
X14451631Y48879532D01*
X14512482Y48885928D01*
X14561900Y48859097D01*
X15127917Y48293080D01*
X15160300Y48337650D01*
X15160305Y48337658D01*
X15253198Y48519973D01*
X15253199Y48519978D01*
X15253201Y48519980D01*
X15316432Y48714583D01*
X15316433Y48714587D01*
X15348442Y48916682D01*
X15348442Y49092922D01*
X19597942Y49092922D01*
X19597942Y48945080D01*
X19626783Y48800089D01*
X19626785Y48800083D01*
X19682554Y48665446D01*
X19682554Y48665445D01*
X19683355Y48663510D01*
X19683361Y48663498D01*
X19751771Y48561118D01*
X19765491Y48540584D01*
X19870026Y48436049D01*
X19992947Y48353916D01*
X20129529Y48297342D01*
X20274524Y48268500D01*
X20274525Y48268500D01*
X20422359Y48268500D01*
X20422360Y48268500D01*
X20567355Y48297342D01*
X20703937Y48353916D01*
X20826858Y48436049D01*
X20931393Y48540584D01*
X21013526Y48663505D01*
X21070100Y48800087D01*
X21098942Y48945082D01*
X21098942Y49092918D01*
X21098940Y49092929D01*
X21096365Y49105876D01*
X21096362Y49105888D01*
X21093293Y49121316D01*
X21093292Y49121320D01*
X21548442Y49121320D01*
X21548442Y48916682D01*
X21580448Y48714593D01*
X21643685Y48519973D01*
X21736580Y48337654D01*
X21736955Y48337074D01*
X21737928Y48335798D01*
X21768965Y48293080D01*
X21768966Y48293080D01*
X22334982Y48859097D01*
X22389497Y48886872D01*
X22449929Y48877301D01*
X22490720Y48838591D01*
X22512951Y48800086D01*
X22528362Y48773394D01*
X22602836Y48698920D01*
X22602838Y48698919D01*
X22668030Y48661280D01*
X22708971Y48615811D01*
X22715367Y48554961D01*
X22688534Y48505541D01*
X22122519Y47939526D01*
X22122520Y47939526D01*
X22122520Y47939525D01*
X22167089Y47907142D01*
X22167095Y47907139D01*
X22349416Y47814243D01*
X22349420Y47814241D01*
X22544023Y47751010D01*
X22544027Y47751009D01*
X22746124Y47719000D01*
X22950757Y47719000D01*
X22950760Y47719000D01*
X23152855Y47751009D01*
X23152859Y47751010D01*
X23347462Y47814241D01*
X23347464Y47814243D01*
X23347469Y47814244D01*
X23529784Y47907137D01*
X23529792Y47907142D01*
X23574362Y47939525D01*
X23551114Y47962773D01*
X29756501Y47962773D01*
X29756501Y47962770D01*
X29756501Y47795231D01*
X29789184Y47630921D01*
X29789186Y47630915D01*
X29853297Y47476138D01*
X29853298Y47476137D01*
X29946375Y47336838D01*
X30064839Y47218374D01*
X30204138Y47125297D01*
X30358919Y47061184D01*
X30523234Y47028500D01*
X30523235Y47028500D01*
X30690767Y47028500D01*
X30690768Y47028500D01*
X30855083Y47061184D01*
X31009864Y47125297D01*
X31149163Y47218374D01*
X31267627Y47336838D01*
X31360704Y47476137D01*
X31424817Y47630918D01*
X31457501Y47795233D01*
X31457501Y47962767D01*
X31457500Y47962770D01*
X31457499Y47962773D01*
X32296501Y47962773D01*
X32296501Y47962770D01*
X32296501Y47795231D01*
X32329184Y47630921D01*
X32329186Y47630915D01*
X32393297Y47476138D01*
X32393298Y47476137D01*
X32486375Y47336838D01*
X32604839Y47218374D01*
X32744138Y47125297D01*
X32898919Y47061184D01*
X33063234Y47028500D01*
X33063235Y47028500D01*
X33230767Y47028500D01*
X33230768Y47028500D01*
X33395083Y47061184D01*
X33549864Y47125297D01*
X33689163Y47218374D01*
X33807627Y47336838D01*
X33900704Y47476137D01*
X33964817Y47630918D01*
X33997501Y47795233D01*
X33997501Y47962767D01*
X33997500Y47962770D01*
X33997499Y47962773D01*
X34836501Y47962773D01*
X34836501Y47962770D01*
X34836501Y47795231D01*
X34869184Y47630921D01*
X34869186Y47630915D01*
X34933297Y47476138D01*
X34933298Y47476137D01*
X35026375Y47336838D01*
X35144839Y47218374D01*
X35284138Y47125297D01*
X35438919Y47061184D01*
X35603234Y47028500D01*
X35603235Y47028500D01*
X35770767Y47028500D01*
X35770768Y47028500D01*
X35935083Y47061184D01*
X36089864Y47125297D01*
X36229163Y47218374D01*
X36347627Y47336838D01*
X36440704Y47476137D01*
X36504817Y47630918D01*
X36537501Y47795233D01*
X36537501Y47962767D01*
X36537500Y47962770D01*
X36537499Y47962773D01*
X37376501Y47962773D01*
X37376501Y47962770D01*
X37376501Y47795231D01*
X37409184Y47630921D01*
X37409186Y47630915D01*
X37473297Y47476138D01*
X37473298Y47476137D01*
X37566375Y47336838D01*
X37684839Y47218374D01*
X37824138Y47125297D01*
X37978919Y47061184D01*
X38143234Y47028500D01*
X38143235Y47028500D01*
X38310767Y47028500D01*
X38310768Y47028500D01*
X38475083Y47061184D01*
X38629864Y47125297D01*
X38769163Y47218374D01*
X38887627Y47336838D01*
X38980704Y47476137D01*
X39044817Y47630918D01*
X39077501Y47795233D01*
X39077501Y47962767D01*
X39044817Y48127082D01*
X38980704Y48281863D01*
X38887627Y48421162D01*
X38769163Y48539626D01*
X38687003Y48594524D01*
X38674497Y48610388D01*
X38629870Y48632701D01*
X38629863Y48632704D01*
X38475086Y48696815D01*
X38475080Y48696817D01*
X38392925Y48713159D01*
X38310772Y48729500D01*
X38310770Y48729500D01*
X38310768Y48729500D01*
X38143234Y48729500D01*
X38143231Y48729500D01*
X38143228Y48729500D01*
X38019998Y48704988D01*
X37978921Y48696817D01*
X37978915Y48696815D01*
X37978912Y48696814D01*
X37824138Y48632705D01*
X37684839Y48539627D01*
X37566374Y48421162D01*
X37473296Y48281863D01*
X37409187Y48127089D01*
X37409184Y48127079D01*
X37376501Y47962773D01*
X36537499Y47962773D01*
X36526606Y48017539D01*
X36504817Y48127082D01*
X36440704Y48281863D01*
X36347627Y48421162D01*
X36229163Y48539626D01*
X36147003Y48594524D01*
X36134497Y48610388D01*
X36089870Y48632701D01*
X36089863Y48632704D01*
X35935086Y48696815D01*
X35935080Y48696817D01*
X35852925Y48713159D01*
X35770772Y48729500D01*
X35770770Y48729500D01*
X35770768Y48729500D01*
X35603234Y48729500D01*
X35603231Y48729500D01*
X35603228Y48729500D01*
X35479998Y48704988D01*
X35438921Y48696817D01*
X35438915Y48696815D01*
X35438912Y48696814D01*
X35284138Y48632705D01*
X35144839Y48539627D01*
X35026374Y48421162D01*
X34933296Y48281863D01*
X34869187Y48127089D01*
X34869184Y48127079D01*
X34836501Y47962773D01*
X33997499Y47962773D01*
X33986606Y48017539D01*
X33964817Y48127082D01*
X33900704Y48281863D01*
X33807627Y48421162D01*
X33689163Y48539626D01*
X33607003Y48594524D01*
X33594497Y48610388D01*
X33549870Y48632701D01*
X33549863Y48632704D01*
X33395086Y48696815D01*
X33395080Y48696817D01*
X33312925Y48713159D01*
X33230772Y48729500D01*
X33230770Y48729500D01*
X33230768Y48729500D01*
X33063234Y48729500D01*
X33063231Y48729500D01*
X33063228Y48729500D01*
X32939998Y48704988D01*
X32898921Y48696817D01*
X32898915Y48696815D01*
X32898912Y48696814D01*
X32744138Y48632705D01*
X32604839Y48539627D01*
X32486374Y48421162D01*
X32393296Y48281863D01*
X32329187Y48127089D01*
X32329184Y48127079D01*
X32296501Y47962773D01*
X31457499Y47962773D01*
X31446606Y48017539D01*
X31424817Y48127082D01*
X31360704Y48281863D01*
X31267627Y48421162D01*
X31149163Y48539626D01*
X31067003Y48594524D01*
X31054497Y48610388D01*
X31009870Y48632701D01*
X31009863Y48632704D01*
X30855086Y48696815D01*
X30855080Y48696817D01*
X30772925Y48713159D01*
X30690772Y48729500D01*
X30690770Y48729500D01*
X30690768Y48729500D01*
X30523234Y48729500D01*
X30523231Y48729500D01*
X30523228Y48729500D01*
X30399998Y48704988D01*
X30358921Y48696817D01*
X30358915Y48696815D01*
X30358912Y48696814D01*
X30204138Y48632705D01*
X30064839Y48539627D01*
X29946374Y48421162D01*
X29853296Y48281863D01*
X29789187Y48127089D01*
X29789184Y48127079D01*
X29756501Y47962773D01*
X23551114Y47962773D01*
X23008345Y48505542D01*
X22980570Y48560056D01*
X22990141Y48620488D01*
X23028850Y48661279D01*
X23094048Y48698920D01*
X23168522Y48773394D01*
X23206163Y48838592D01*
X23251631Y48879532D01*
X23312482Y48885928D01*
X23361900Y48859097D01*
X23927917Y48293080D01*
X23960300Y48337650D01*
X23960305Y48337658D01*
X24053198Y48519973D01*
X24053199Y48519978D01*
X24053201Y48519980D01*
X24116432Y48714583D01*
X24116433Y48714587D01*
X24148442Y48916682D01*
X24148442Y49121320D01*
X24116433Y49323415D01*
X24116432Y49323419D01*
X24053201Y49518022D01*
X24053199Y49518026D01*
X23960302Y49700349D01*
X23960297Y49700357D01*
X23960296Y49700359D01*
X23927917Y49744922D01*
X23927916Y49744922D01*
X23361901Y49178908D01*
X23307385Y49151131D01*
X23246953Y49160702D01*
X23206162Y49199412D01*
X23168523Y49264604D01*
X23168522Y49264606D01*
X23094048Y49339080D01*
X23094045Y49339082D01*
X23028851Y49376722D01*
X22987910Y49422191D01*
X22981514Y49483042D01*
X23008344Y49532458D01*
X23574362Y50098476D01*
X23574362Y50098477D01*
X23566031Y50104530D01*
X23566030Y50104532D01*
X23529804Y50130852D01*
X23529797Y50130857D01*
X23529792Y50130860D01*
X23529790Y50130861D01*
X23347469Y50223757D01*
X23340544Y50226007D01*
X23152849Y50286994D01*
X22950760Y50319000D01*
X22950757Y50319000D01*
X22746127Y50319000D01*
X22746123Y50319000D01*
X22544034Y50286994D01*
X22349410Y50223756D01*
X22167354Y50130995D01*
X22167114Y50130874D01*
X22167083Y50130856D01*
X22122520Y50098478D01*
X22122520Y50098477D01*
X22688537Y49532460D01*
X22716313Y49477945D01*
X22706742Y49417513D01*
X22668033Y49376722D01*
X22602837Y49339081D01*
X22528361Y49264605D01*
X22490720Y49199409D01*
X22445250Y49158469D01*
X22384400Y49152074D01*
X22334982Y49178905D01*
X21768965Y49744922D01*
X21768964Y49744922D01*
X21736586Y49700359D01*
X21736568Y49700328D01*
X21736447Y49700088D01*
X21643686Y49518032D01*
X21580448Y49323409D01*
X21548442Y49121320D01*
X21093292Y49121320D01*
X21070100Y49237913D01*
X21013526Y49374495D01*
X20931393Y49497416D01*
X20826858Y49601951D01*
X20806324Y49615671D01*
X20703944Y49684081D01*
X20703935Y49684085D01*
X20664670Y49700349D01*
X20567359Y49740657D01*
X20567353Y49740659D01*
X20422362Y49769500D01*
X20422360Y49769500D01*
X20274524Y49769500D01*
X20274523Y49769500D01*
X20274520Y49769500D01*
X20129527Y49740658D01*
X20129525Y49740658D01*
X19992952Y49684088D01*
X19992940Y49684082D01*
X19870028Y49601953D01*
X19765489Y49497414D01*
X19683360Y49374502D01*
X19683354Y49374490D01*
X19626784Y49237917D01*
X19626784Y49237915D01*
X19597942Y49092922D01*
X15348442Y49092922D01*
X15348442Y49121320D01*
X15316433Y49323415D01*
X15316432Y49323419D01*
X15253201Y49518022D01*
X15253199Y49518026D01*
X15160302Y49700349D01*
X15160297Y49700357D01*
X15160296Y49700359D01*
X15127917Y49744922D01*
X15127916Y49744922D01*
X14561901Y49178908D01*
X14507385Y49151131D01*
X14446953Y49160702D01*
X14406162Y49199412D01*
X14368523Y49264604D01*
X14368522Y49264606D01*
X14294048Y49339080D01*
X14294045Y49339082D01*
X14228851Y49376722D01*
X14187910Y49422191D01*
X14181514Y49483042D01*
X14208344Y49532458D01*
X14774362Y50098476D01*
X14774362Y50098477D01*
X14746806Y50118498D01*
X14731644Y50129514D01*
X14730368Y50130487D01*
X14729788Y50130862D01*
X14547469Y50223757D01*
X14352849Y50286994D01*
X14150760Y50319000D01*
X14150757Y50319000D01*
X13946127Y50319000D01*
X13946123Y50319000D01*
X13744034Y50286994D01*
X13549410Y50223756D01*
X13367354Y50130995D01*
X13367114Y50130874D01*
X13367083Y50130856D01*
X13322520Y50098478D01*
X13322520Y50098477D01*
X13888537Y49532460D01*
X13916313Y49477945D01*
X13906742Y49417513D01*
X13868033Y49376722D01*
X13802837Y49339081D01*
X13728361Y49264605D01*
X13690720Y49199409D01*
X13645250Y49158469D01*
X13584400Y49152074D01*
X13534982Y49178905D01*
X12968965Y49744922D01*
X12968964Y49744922D01*
X12936586Y49700359D01*
X12936568Y49700328D01*
X12936447Y49700088D01*
X12843686Y49518032D01*
X12780448Y49323409D01*
X12748442Y49121320D01*
X12293292Y49121320D01*
X12270100Y49237913D01*
X12213526Y49374495D01*
X12131393Y49497416D01*
X12026858Y49601951D01*
X12006324Y49615671D01*
X11903944Y49684081D01*
X11903935Y49684085D01*
X11864670Y49700349D01*
X11767359Y49740657D01*
X11767353Y49740659D01*
X11622362Y49769500D01*
X11622360Y49769500D01*
X11474524Y49769500D01*
X11474523Y49769500D01*
X11474520Y49769500D01*
X11329527Y49740658D01*
X11329525Y49740658D01*
X11192952Y49684088D01*
X11192940Y49684082D01*
X11070028Y49601953D01*
X10965489Y49497414D01*
X10883360Y49374502D01*
X10883354Y49374490D01*
X10826784Y49237917D01*
X10826784Y49237915D01*
X10797942Y49092922D01*
X6497002Y49092922D01*
X6497002Y49121320D01*
X6464993Y49323415D01*
X6464992Y49323419D01*
X6401761Y49518022D01*
X6401759Y49518026D01*
X6308862Y49700349D01*
X6308857Y49700357D01*
X6308856Y49700359D01*
X6276477Y49744922D01*
X6276476Y49744922D01*
X5710461Y49178908D01*
X5655945Y49151131D01*
X5595513Y49160702D01*
X5554722Y49199412D01*
X5517083Y49264604D01*
X5517082Y49264606D01*
X5442608Y49339080D01*
X5442605Y49339082D01*
X5377411Y49376722D01*
X5336470Y49422191D01*
X5330074Y49483042D01*
X5356904Y49532458D01*
X5922922Y50098476D01*
X5922922Y50098477D01*
X5880204Y50129514D01*
X5878928Y50130487D01*
X5878348Y50130862D01*
X5696029Y50223757D01*
X5501409Y50286994D01*
X5299320Y50319000D01*
X5299317Y50319000D01*
X5094687Y50319000D01*
X5094683Y50319000D01*
X4892594Y50286994D01*
X4697970Y50223756D01*
X4515914Y50130995D01*
X4515674Y50130874D01*
X4515643Y50130856D01*
X4471080Y50098478D01*
X4471080Y50098477D01*
X5037097Y49532460D01*
X5064873Y49477945D01*
X5055302Y49417513D01*
X5016593Y49376722D01*
X4951397Y49339081D01*
X4876921Y49264605D01*
X4839280Y49199409D01*
X4793810Y49158469D01*
X4732960Y49152074D01*
X4683542Y49178905D01*
X4117525Y49744922D01*
X4117524Y49744922D01*
X4085146Y49700359D01*
X4085128Y49700328D01*
X4085007Y49700088D01*
X3992246Y49518032D01*
X3929008Y49323409D01*
X3897002Y49121320D01*
X3441852Y49121320D01*
X3418660Y49237913D01*
X3362086Y49374495D01*
X3279953Y49497416D01*
X3175418Y49601951D01*
X3154884Y49615671D01*
X3052504Y49684081D01*
X3052495Y49684085D01*
X3013230Y49700349D01*
X2915919Y49740657D01*
X2915913Y49740659D01*
X2770922Y49769500D01*
X2770920Y49769500D01*
X2623084Y49769500D01*
X2623083Y49769500D01*
X2623080Y49769500D01*
X2478087Y49740658D01*
X2478085Y49740658D01*
X2341512Y49684088D01*
X2341500Y49684082D01*
X2218588Y49601953D01*
X2114049Y49497414D01*
X2031920Y49374502D01*
X2031914Y49374490D01*
X1975344Y49237917D01*
X1975344Y49237915D01*
X1946502Y49092922D01*
X500500Y49092922D01*
X500500Y52082320D01*
X505343Y52112906D01*
X509465Y52125595D01*
X545423Y52175094D01*
X546022Y52175529D01*
X549563Y52178100D01*
X607743Y52197000D01*
X39243820Y52197000D01*
X39274408Y52192157D01*
G37*
%TD.AperFunction*%
%TA.AperFunction,Conductor*%
G36*
X32625522Y4930093D02*
G01*
X32661486Y4880593D01*
X32662958Y4824377D01*
X32647001Y4764826D01*
X32647001Y4633175D01*
X32662958Y4573623D01*
X32659756Y4512522D01*
X32621250Y4464972D01*
X32567331Y4449000D01*
X31186671Y4449000D01*
X31128480Y4467907D01*
X31092516Y4517407D01*
X31091044Y4573623D01*
X31107001Y4633175D01*
X31107001Y4764826D01*
X31091044Y4824377D01*
X31094246Y4885478D01*
X31132752Y4933028D01*
X31186671Y4949000D01*
X32567331Y4949000D01*
X32625522Y4930093D01*
G37*
%TD.AperFunction*%
%TA.AperFunction,Conductor*%
G36*
X35134091Y4940306D02*
G01*
X35161250Y4933028D01*
X35162950Y4930929D01*
X35165522Y4930093D01*
X35182061Y4907329D01*
X35199756Y4885478D01*
X35199928Y4882737D01*
X35201486Y4880593D01*
X35202501Y4841820D01*
X35203472Y4826382D01*
X35203216Y4825341D01*
X35187001Y4764826D01*
X35187001Y4759335D01*
X35187001Y4633175D01*
X35202958Y4573623D01*
X35199756Y4512522D01*
X35161250Y4464972D01*
X35107331Y4449000D01*
X33726671Y4449000D01*
X33668480Y4467907D01*
X33632516Y4517407D01*
X33631044Y4573623D01*
X33647001Y4633175D01*
X33647001Y4764826D01*
X33631044Y4824377D01*
X33634246Y4885478D01*
X33672752Y4933028D01*
X33726671Y4949000D01*
X35107331Y4949000D01*
X35134091Y4940306D01*
G37*
%TD.AperFunction*%
%TA.AperFunction,Conductor*%
G36*
X37705522Y4930093D02*
G01*
X37741486Y4880593D01*
X37742958Y4824377D01*
X37727001Y4764826D01*
X37727001Y4633175D01*
X37742958Y4573623D01*
X37739756Y4512522D01*
X37701250Y4464972D01*
X37647331Y4449000D01*
X36266671Y4449000D01*
X36208480Y4467907D01*
X36172516Y4517407D01*
X36171044Y4573623D01*
X36187001Y4633175D01*
X36187001Y4764826D01*
X36171044Y4824377D01*
X36174246Y4885478D01*
X36212752Y4933028D01*
X36266671Y4949000D01*
X37647331Y4949000D01*
X37705522Y4930093D01*
G37*
%TD.AperFunction*%
%TA.AperFunction,Conductor*%
G36*
X32594091Y50660306D02*
G01*
X32621250Y50653028D01*
X32622950Y50650929D01*
X32625522Y50650093D01*
X32642061Y50627329D01*
X32659756Y50605478D01*
X32659928Y50602737D01*
X32661486Y50600593D01*
X32662501Y50561820D01*
X32663472Y50546382D01*
X32663216Y50545341D01*
X32647001Y50484826D01*
X32647001Y50479335D01*
X32647001Y50353175D01*
X32662958Y50293623D01*
X32659756Y50232522D01*
X32621250Y50184972D01*
X32567331Y50169000D01*
X31186671Y50169000D01*
X31128480Y50187907D01*
X31092516Y50237407D01*
X31091044Y50293623D01*
X31107001Y50353175D01*
X31107001Y50484826D01*
X31091044Y50544377D01*
X31094246Y50605478D01*
X31132752Y50653028D01*
X31186671Y50669000D01*
X32567331Y50669000D01*
X32594091Y50660306D01*
G37*
%TD.AperFunction*%
%TA.AperFunction,Conductor*%
G36*
X35165522Y50650093D02*
G01*
X35201486Y50600593D01*
X35202958Y50544377D01*
X35187001Y50484826D01*
X35187001Y50353175D01*
X35202958Y50293623D01*
X35199756Y50232522D01*
X35161250Y50184972D01*
X35107331Y50169000D01*
X33726671Y50169000D01*
X33668480Y50187907D01*
X33632516Y50237407D01*
X33631044Y50293623D01*
X33647001Y50353175D01*
X33647001Y50484826D01*
X33631044Y50544377D01*
X33634246Y50605478D01*
X33672752Y50653028D01*
X33726671Y50669000D01*
X35107331Y50669000D01*
X35165522Y50650093D01*
G37*
%TD.AperFunction*%
%TA.AperFunction,Conductor*%
G36*
X37705522Y50650093D02*
G01*
X37741486Y50600593D01*
X37742958Y50544377D01*
X37727001Y50484826D01*
X37727001Y50353175D01*
X37742958Y50293623D01*
X37739756Y50232522D01*
X37701250Y50184972D01*
X37647331Y50169000D01*
X36266671Y50169000D01*
X36208480Y50187907D01*
X36172516Y50237407D01*
X36171044Y50293623D01*
X36187001Y50353175D01*
X36187001Y50484826D01*
X36171044Y50544377D01*
X36174246Y50605478D01*
X36212752Y50653028D01*
X36266671Y50669000D01*
X37647331Y50669000D01*
X37705522Y50650093D01*
G37*
%TD.AperFunction*%
%TD*%
M02*
