%TF.GenerationSoftware,KiCad,Pcbnew,10.0.0*%
%TF.CreationDate,2026-08-14T11:25:50-04:00*%
%TF.ProjectId,PWR_RPM5.0_AP2114,5057525f-5250-44d3-952e-305f41503231,rev?*%
%TF.SameCoordinates,PX9610427PY6ca4418*%
%TF.FileFunction,Soldermask,Top*%
%TF.FilePolarity,Negative*%
%FSLAX46Y46*%
G04 Gerber Fmt 4.6, Leading zero omitted, Abs format (unit mm)*
G04 Created by KiCad (PCBNEW 10.0.0) date 2026-08-14 11:25:50*
%MOMM*%
%LPD*%
G01*
G04 APERTURE LIST*
G04 Aperture macros list*
%AMRoundRect*
0 Rectangle with rounded corners*
0 $1 Rounding radius*
0 $2 $3 $4 $5 $6 $7 $8 $9 X,Y pos of 4 corners*
0 Add a 4 corners polygon primitive as box body*
4,1,4,$2,$3,$4,$5,$6,$7,$8,$9,$2,$3,0*
0 Add four circle primitives for the rounded corners*
1,1,$1+$1,$2,$3*
1,1,$1+$1,$4,$5*
1,1,$1+$1,$6,$7*
1,1,$1+$1,$8,$9*
0 Add four rect primitives between the rounded corners*
20,1,$1+$1,$2,$3,$4,$5,0*
20,1,$1+$1,$4,$5,$6,$7,0*
20,1,$1+$1,$6,$7,$8,$9,0*
20,1,$1+$1,$8,$9,$2,$3,0*%
G04 Aperture macros list end*
%ADD10O,2.200000X3.500000*%
%ADD11O,1.500000X2.500000*%
%ADD12R,1.500000X2.500000*%
%ADD13C,1.600000*%
%ADD14RoundRect,0.250000X-0.550000X-0.550000X0.550000X-0.550000X0.550000X0.550000X-0.550000X0.550000X0*%
%ADD15C,2.200000*%
%ADD16RoundRect,0.249999X-0.850001X0.850001X-0.850001X-0.850001X0.850001X-0.850001X0.850001X0.850001X0*%
%ADD17C,1.100000*%
%ADD18C,1.440000*%
%ADD19O,6.744000X3.474000*%
%ADD20RoundRect,0.102000X3.270000X1.635000X-3.270000X1.635000X-3.270000X-1.635000X3.270000X-1.635000X0*%
%ADD21RoundRect,0.135000X0.185000X-0.135000X0.185000X0.135000X-0.185000X0.135000X-0.185000X-0.135000X0*%
%ADD22R,1.800000X1.800000*%
%ADD23C,1.800000*%
%ADD24R,1.060000X1.060000*%
%ADD25RoundRect,0.250000X0.650000X-0.412500X0.650000X0.412500X-0.650000X0.412500X-0.650000X-0.412500X0*%
%ADD26RoundRect,0.135000X-0.135000X-0.185000X0.135000X-0.185000X0.135000X0.185000X-0.135000X0.185000X0*%
%ADD27RoundRect,0.225000X-0.250000X0.225000X-0.250000X-0.225000X0.250000X-0.225000X0.250000X0.225000X0*%
%ADD28RoundRect,0.135000X-0.185000X0.135000X-0.185000X-0.135000X0.185000X-0.135000X0.185000X0.135000X0*%
%ADD29RoundRect,0.225000X0.225000X0.250000X-0.225000X0.250000X-0.225000X-0.250000X0.225000X-0.250000X0*%
%ADD30C,1.300000*%
%ADD31C,2.250000*%
%ADD32RoundRect,0.375000X0.375000X-0.625000X0.375000X0.625000X-0.375000X0.625000X-0.375000X-0.625000X0*%
%ADD33RoundRect,0.500000X1.400000X-0.500000X1.400000X0.500000X-1.400000X0.500000X-1.400000X-0.500000X0*%
%ADD34RoundRect,0.250000X0.412500X0.650000X-0.412500X0.650000X-0.412500X-0.650000X0.412500X-0.650000X0*%
%ADD35R,1.700000X1.700000*%
%ADD36C,1.700000*%
G04 APERTURE END LIST*
D10*
%TO.C,SW2*%
X25342000Y2434000D03*
X17142000Y2434000D03*
D11*
X23242000Y2434000D03*
X21242000Y2434000D03*
D12*
X19242000Y2434000D03*
%TD*%
D13*
%TO.C,C8*%
X22848442Y49019000D03*
D14*
X20348442Y49019000D03*
%TD*%
D13*
%TO.C,C7*%
X14048442Y49019000D03*
D14*
X11548442Y49019000D03*
%TD*%
%TO.C,C5*%
X2697002Y49019000D03*
D13*
X5197002Y49019000D03*
%TD*%
D15*
%TO.C,J1*%
X4547001Y41111505D03*
D16*
X4547001Y43651505D03*
D17*
X2007001Y41111505D03*
X2007001Y43651505D03*
%TD*%
D18*
%TO.C,RV1*%
X2107001Y36659000D03*
X4647001Y34119000D03*
X2107001Y31579001D03*
%TD*%
D19*
%TO.C,J8*%
X11685358Y12064000D03*
D20*
X3785357Y12064000D03*
%TD*%
D21*
%TO.C,R4*%
X15417000Y16364002D03*
X15417000Y17384000D03*
%TD*%
D22*
%TO.C,D1*%
X18567000Y8363999D03*
D23*
X18567000Y10903999D03*
%TD*%
D24*
%TO.C,U1*%
X9581053Y19954000D03*
X9581052Y22244000D03*
X9581053Y24534000D03*
X9581052Y26824000D03*
X9581053Y29114000D03*
X11871053Y19953999D03*
X11871053Y22244000D03*
X11871052Y24534000D03*
X11871053Y26824000D03*
X11871053Y29114001D03*
X14161053Y19954000D03*
X14161053Y22243999D03*
X14161053Y24534000D03*
X14161053Y26824001D03*
X14161053Y29114000D03*
X16451053Y19953999D03*
X16451053Y22244000D03*
X16451054Y24534000D03*
X16451053Y26824000D03*
X16451053Y29114001D03*
X18741053Y19954000D03*
X18741054Y22244000D03*
X18741053Y24534000D03*
X18741054Y26824000D03*
X18741053Y29114000D03*
%TD*%
D25*
%TO.C,C12*%
X21697000Y39009000D03*
X21697000Y42134000D03*
%TD*%
D26*
%TO.C,R3*%
X5907001Y19332664D03*
X6926999Y19332664D03*
%TD*%
D27*
%TO.C,C11*%
X13742000Y34159000D03*
X13742000Y32609000D03*
%TD*%
D22*
%TO.C,D3*%
X19987000Y33934000D03*
D23*
X17447000Y33934000D03*
%TD*%
D27*
%TO.C,C13*%
X12492001Y34159000D03*
X12492001Y32609000D03*
%TD*%
D28*
%TO.C,R5*%
X14842000Y33443999D03*
X14842000Y32424001D03*
%TD*%
D25*
%TO.C,C10*%
X19597000Y37446500D03*
X19597000Y40571500D03*
%TD*%
D29*
%TO.C,C9*%
X11342000Y14984858D03*
X9792000Y14984858D03*
%TD*%
D30*
%TO.C,SW1*%
X2167000Y25383999D03*
X2167000Y21383999D03*
X2167000Y19383999D03*
X2167000Y17383999D03*
D31*
X2167000Y27483999D03*
X2167000Y15284000D03*
%TD*%
D32*
%TO.C,U2*%
X12697000Y37109000D03*
X14997000Y37109001D03*
X17297000Y37109000D03*
D33*
X14997000Y43408999D03*
%TD*%
D26*
%TO.C,R6*%
X5932001Y23963247D03*
X6951999Y23963247D03*
%TD*%
D34*
%TO.C,C6*%
X13129500Y16659000D03*
X10004500Y16659000D03*
%TD*%
D22*
%TO.C,D2*%
X18567000Y16429001D03*
D23*
X18567000Y13889001D03*
%TD*%
D35*
%TO.C,J9*%
X10177000Y34869001D03*
D36*
X10177000Y37409001D03*
X10177000Y39949000D03*
%TD*%
D28*
%TO.C,R1*%
X14417000Y17384000D03*
X14417000Y16364002D03*
%TD*%
D36*
%TO.C,J5*%
X30607001Y4699000D03*
X30607001Y2159000D03*
X33147001Y4699000D03*
X33147001Y2159000D03*
X35687001Y4699000D03*
X35687001Y2159000D03*
X38227001Y4699000D03*
X38227001Y2159000D03*
%TD*%
%TO.C,J6*%
X30607001Y50419000D03*
X30607001Y47879000D03*
X33147001Y50419000D03*
X33147001Y47879000D03*
X35687001Y50419000D03*
X35687001Y47879000D03*
X38227001Y50419000D03*
X38227001Y47879000D03*
%TD*%
M02*
