M48
; DRILL file KiCad 10.0.0 date 2026-08-13T17:01:21
; FORMAT={-:-/ absolute / metric / decimal}
; #@! TF.CreationDate,2026-08-13T17:01:21-04:00
; #@! TF.GenerationSoftware,Kicad,Pcbnew,10.0.0
; #@! TF.FileFunction,Plated,1,4,PTH
FMAT,2
METRIC
; #@! TA.AperFunction,Plated,PTH,ViaDrill
T1C0.400
; #@! TA.AperFunction,Plated,PTH,ComponentDrill
T2C0.800
; #@! TA.AperFunction,Plated,PTH,ComponentDrill
T3C0.900
; #@! TA.AperFunction,Plated,PTH,ComponentDrill
T4C1.000
; #@! TA.AperFunction,Plated,PTH,ComponentDrill
T5C1.100
; #@! TA.AperFunction,Plated,PTH,ComponentDrill
T6C1.270
; #@! TA.AperFunction,Plated,PTH,ComponentDrill
T7C1.500
%
G90
G05
T1
X164.31Y-89.04
X165.769Y-91.68
X165.769Y-93.97
X165.789Y-92.81
X165.795Y-97.26
X165.795Y-98.934
X165.805Y-84.81
X165.81Y-85.93
X166.934Y-90.52
X166.937Y-95.125
X166.939Y-85.935
X166.939Y-88.26
X166.94Y-92.819
X168.07Y-89.397
X168.09Y-85.93
X168.101Y-93.955
X168.104Y-87.08
X168.104Y-91.68
X168.665Y-81.31
X168.92Y-97.26
X169.21Y-85.93
X169.215Y-92.802
X169.219Y-90.51
X169.23Y-88.227
X170.349Y-89.39
X170.364Y-91.675
X170.391Y-87.091
X170.44Y-73.16
X170.44Y-74.16
X170.45Y-72.01
X170.495Y-95.71
X170.685Y-78.475
X170.77Y-99.06
X171.095Y-82.485
X171.44Y-73.16
X171.44Y-74.16
X171.45Y-72.02
X171.466Y-69.0
X171.507Y-90.525
X171.509Y-88.22
X171.514Y-92.81
X172.395Y-82.485
X172.44Y-73.16
X172.44Y-74.16
X172.45Y-72.03
X172.466Y-69.01
X172.642Y-89.406
X172.664Y-91.675
X172.681Y-87.091
X173.466Y-69.02
X173.62Y-96.035
X173.72Y-83.31
X173.802Y-90.526
X173.803Y-88.236
X174.65Y-74.885
X174.95Y-93.97
X176.1Y-83.51
X176.975Y-74.885
X177.49Y-71.79
X178.99Y-73.335
T2
X159.52Y-88.535
X159.52Y-92.535
X159.52Y-94.535
X159.52Y-96.535
X160.245Y-73.585
X162.745Y-73.585
X168.151Y-64.333
X168.151Y-66.833
X177.546Y-64.333
X177.546Y-66.833
T3
X174.8Y-79.985
X175.92Y-97.49
X175.92Y-100.03
X175.92Y-103.015
X175.92Y-105.555
X176.595Y-111.485
X177.34Y-79.985
X178.595Y-111.485
X180.595Y-111.485
T4
X158.595Y-78.91
X158.595Y-83.91
X163.595Y-81.41
X167.53Y-73.97
X167.53Y-76.51
X167.53Y-79.05
X187.96Y-63.5
X187.96Y-66.04
X187.96Y-109.22
X187.96Y-111.76
X190.5Y-63.5
X190.5Y-66.04
X190.5Y-109.22
X190.5Y-111.76
X193.04Y-63.5
X193.04Y-66.04
X193.04Y-109.22
X193.04Y-111.76
X195.58Y-63.5
X195.58Y-66.04
X195.58Y-109.22
X195.58Y-111.76
T5
X159.375Y-65.985
X161.915Y-65.985
T7
X159.52Y-86.435
X159.52Y-98.635
X174.495Y-111.485
X182.695Y-111.485
T6
G00X163.018Y-101.855
M15
G01X159.058Y-101.855
M16
G05
G00X170.918Y-101.855
M15
G01X166.958Y-101.855
M16
G05
M30
