%TF.GenerationSoftware,KiCad,Pcbnew,10.0.0*%
%TF.CreationDate,2026-08-18T13:50:20-04:00*%
%TF.ProjectId,PWR_RPM5.0_AP2114,5057525f-5250-44d3-952e-305f41503231,rev?*%
%TF.SameCoordinates,PX9610427PY6ca4418*%
%TF.FileFunction,Paste,Top*%
%TF.FilePolarity,Positive*%
%FSLAX46Y46*%
G04 Gerber Fmt 4.6, Leading zero omitted, Abs format (unit mm)*
G04 Created by KiCad (PCBNEW 10.0.0) date 2026-08-18 13:50:20*
%MOMM*%
%LPD*%
G01*
G04 APERTURE LIST*
G04 Aperture macros list*
%AMRoundRect*
0 Rectangle with rounded corners*
0 $1 Rounding radius*
0 $2 $3 $4 $5 $6 $7 $8 $9 X,Y pos of 4 corners*
0 Add a 4 corners polygon primitive as box body*
4,1,4,$2,$3,$4,$5,$6,$7,$8,$9,$2,$3,0*
0 Add four circle primitives for the rounded corners*
1,1,$1+$1,$2,$3*
1,1,$1+$1,$4,$5*
1,1,$1+$1,$6,$7*
1,1,$1+$1,$8,$9*
0 Add four rect primitives between the rounded corners*
20,1,$1+$1,$2,$3,$4,$5,0*
20,1,$1+$1,$4,$5,$6,$7,0*
20,1,$1+$1,$6,$7,$8,$9,0*
20,1,$1+$1,$8,$9,$2,$3,0*%
G04 Aperture macros list end*
%ADD10RoundRect,0.135000X0.185000X-0.135000X0.185000X0.135000X-0.185000X0.135000X-0.185000X-0.135000X0*%
%ADD11R,1.060000X1.060000*%
%ADD12RoundRect,0.250000X-0.650000X0.412500X-0.650000X-0.412500X0.650000X-0.412500X0.650000X0.412500X0*%
%ADD13RoundRect,0.135000X-0.135000X-0.185000X0.135000X-0.185000X0.135000X0.185000X-0.135000X0.185000X0*%
%ADD14RoundRect,0.225000X0.225000X0.250000X-0.225000X0.250000X-0.225000X-0.250000X0.225000X-0.250000X0*%
%ADD15RoundRect,0.225000X-0.225000X-0.250000X0.225000X-0.250000X0.225000X0.250000X-0.225000X0.250000X0*%
%ADD16RoundRect,0.135000X0.135000X0.185000X-0.135000X0.185000X-0.135000X-0.185000X0.135000X-0.185000X0*%
%ADD17RoundRect,0.375000X0.625000X0.375000X-0.625000X0.375000X-0.625000X-0.375000X0.625000X-0.375000X0*%
%ADD18RoundRect,0.500000X0.500000X1.400000X-0.500000X1.400000X-0.500000X-1.400000X0.500000X-1.400000X0*%
%ADD19RoundRect,0.250000X0.412500X0.650000X-0.412500X0.650000X-0.412500X-0.650000X0.412500X-0.650000X0*%
%ADD20RoundRect,0.135000X-0.185000X0.135000X-0.185000X-0.135000X0.185000X-0.135000X0.185000X0.135000X0*%
G04 APERTURE END LIST*
D10*
%TO.C,R4*%
X16408401Y16711201D03*
X16408401Y17731199D03*
%TD*%
D11*
%TO.C,U1*%
X9581053Y19954000D03*
X9581052Y22244000D03*
X9581053Y24534000D03*
X9581052Y26824000D03*
X9581053Y29114000D03*
X11871053Y19953999D03*
X11871053Y22244000D03*
X11871052Y24534000D03*
X11871053Y26824000D03*
X11871053Y29114001D03*
X14161053Y19954000D03*
X14161053Y22243999D03*
X14161053Y24534000D03*
X14161053Y26824001D03*
X14161053Y29114000D03*
X16451053Y19953999D03*
X16451053Y22244000D03*
X16451054Y24534000D03*
X16451053Y26824000D03*
X16451053Y29114001D03*
X18741053Y19954000D03*
X18741054Y22244000D03*
X18741053Y24534000D03*
X18741054Y26824000D03*
X18741053Y29114000D03*
%TD*%
D12*
%TO.C,C12*%
X21657001Y40310000D03*
X21657001Y37185000D03*
%TD*%
D13*
%TO.C,R3*%
X5907001Y19332664D03*
X6926999Y19332664D03*
%TD*%
D14*
%TO.C,C11*%
X11862401Y32105600D03*
X10312401Y32105600D03*
%TD*%
D15*
%TO.C,C13*%
X21207840Y42976800D03*
X22757840Y42976800D03*
%TD*%
D16*
%TO.C,R5*%
X16359600Y31953200D03*
X15339602Y31953200D03*
%TD*%
D12*
%TO.C,C10*%
X19439001Y41974100D03*
X19439001Y38849100D03*
%TD*%
D14*
%TO.C,C9*%
X11342000Y14984858D03*
X9792000Y14984858D03*
%TD*%
D17*
%TO.C,U2*%
X16993001Y37451000D03*
X16993000Y39751000D03*
X16993001Y42051000D03*
D18*
X10693002Y39751000D03*
%TD*%
D13*
%TO.C,R6*%
X5932001Y23963247D03*
X6951999Y23963247D03*
%TD*%
D19*
%TO.C,C6*%
X13129500Y16659000D03*
X10004500Y16659000D03*
%TD*%
D20*
%TO.C,R1*%
X15087601Y17731199D03*
X15087601Y16711201D03*
%TD*%
M02*
