%TF.GenerationSoftware,KiCad,Pcbnew,10.0.0*%
%TF.CreationDate,2026-08-18T13:50:20-04:00*%
%TF.ProjectId,PWR_RPM5.0_AP2114,5057525f-5250-44d3-952e-305f41503231,rev?*%
%TF.SameCoordinates,PX9610427PY6ca4418*%
%TF.FileFunction,Copper,L4,Bot*%
%TF.FilePolarity,Positive*%
%FSLAX46Y46*%
G04 Gerber Fmt 4.6, Leading zero omitted, Abs format (unit mm)*
G04 Created by KiCad (PCBNEW 10.0.0) date 2026-08-18 13:50:20*
%MOMM*%
%LPD*%
G01*
G04 APERTURE LIST*
G04 Aperture macros list*
%AMRoundRect*
0 Rectangle with rounded corners*
0 $1 Rounding radius*
0 $2 $3 $4 $5 $6 $7 $8 $9 X,Y pos of 4 corners*
0 Add a 4 corners polygon primitive as box body*
4,1,4,$2,$3,$4,$5,$6,$7,$8,$9,$2,$3,0*
0 Add four circle primitives for the rounded corners*
1,1,$1+$1,$2,$3*
1,1,$1+$1,$4,$5*
1,1,$1+$1,$6,$7*
1,1,$1+$1,$8,$9*
0 Add four rect primitives between the rounded corners*
20,1,$1+$1,$2,$3,$4,$5,0*
20,1,$1+$1,$4,$5,$6,$7,0*
20,1,$1+$1,$6,$7,$8,$9,0*
20,1,$1+$1,$8,$9,$2,$3,0*%
G04 Aperture macros list end*
%TA.AperFunction,ComponentPad*%
%ADD10RoundRect,0.250000X-0.550000X-0.550000X0.550000X-0.550000X0.550000X0.550000X-0.550000X0.550000X0*%
%TD*%
%TA.AperFunction,ComponentPad*%
%ADD11C,1.600000*%
%TD*%
%TA.AperFunction,ComponentPad*%
%ADD12RoundRect,0.249999X0.850001X0.850001X-0.850001X0.850001X-0.850001X-0.850001X0.850001X-0.850001X0*%
%TD*%
%TA.AperFunction,ComponentPad*%
%ADD13C,2.200000*%
%TD*%
%TA.AperFunction,ComponentPad*%
%ADD14R,1.800000X1.800000*%
%TD*%
%TA.AperFunction,ComponentPad*%
%ADD15C,1.800000*%
%TD*%
%TA.AperFunction,ComponentPad*%
%ADD16C,1.440000*%
%TD*%
%TA.AperFunction,ComponentPad*%
%ADD17R,1.500000X2.500000*%
%TD*%
%TA.AperFunction,ComponentPad*%
%ADD18O,1.500000X2.500000*%
%TD*%
%TA.AperFunction,ComponentPad*%
%ADD19O,2.200000X3.500000*%
%TD*%
%TA.AperFunction,ComponentPad*%
%ADD20C,1.300000*%
%TD*%
%TA.AperFunction,ComponentPad*%
%ADD21C,2.250000*%
%TD*%
%TA.AperFunction,ComponentPad*%
%ADD22O,6.540000X3.270000*%
%TD*%
%TA.AperFunction,ComponentPad*%
%ADD23R,6.540000X3.270000*%
%TD*%
%TA.AperFunction,ComponentPad*%
%ADD24R,1.700000X1.700000*%
%TD*%
%TA.AperFunction,ComponentPad*%
%ADD25C,1.700000*%
%TD*%
%TA.AperFunction,ComponentPad*%
%ADD26C,2.100000*%
%TD*%
%TA.AperFunction,ViaPad*%
%ADD27C,0.800000*%
%TD*%
%TA.AperFunction,Conductor*%
%ADD28C,0.400000*%
%TD*%
%TA.AperFunction,Conductor*%
%ADD29C,0.500000*%
%TD*%
%TA.AperFunction,Conductor*%
%ADD30C,1.500000*%
%TD*%
%TA.AperFunction,Conductor*%
%ADD31C,0.450000*%
%TD*%
G04 APERTURE END LIST*
D10*
%TO.P,C8,1*%
%TO.N,+3V3*%
X24277002Y47117000D03*
D11*
%TO.P,C8,2*%
%TO.N,GND*%
X26777002Y47117000D03*
%TD*%
D12*
%TO.P,J1,1,Pin_1_1*%
%TO.N,GND*%
X4547001Y46355000D03*
D13*
%TO.P,J1,2,Pin_2_2*%
%TO.N,/PWR_IN*%
X2007001Y46355000D03*
%TD*%
D14*
%TO.P,D1,1,K_1*%
%TO.N,GND*%
X19317000Y8363999D03*
D15*
%TO.P,D1,2,A_2*%
%TO.N,Net-(D1-A)*%
X19317000Y10903999D03*
%TD*%
D10*
%TO.P,C5,1*%
%TO.N,/PWR_IN*%
X9194801Y47117000D03*
D11*
%TO.P,C5,2*%
%TO.N,GND*%
X11694801Y47117000D03*
%TD*%
D16*
%TO.P,RV1,1,1_1*%
%TO.N,unconnected-(RV1-Pad1)*%
X2107001Y36659000D03*
%TO.P,RV1,2,2_2*%
%TO.N,Net-(U1-Trim)*%
X4647001Y34119000D03*
%TO.P,RV1,3,3_3*%
%TO.N,Net-(RV1-Pad3)*%
X2107001Y31579001D03*
%TD*%
D14*
%TO.P,D3,1,K_1*%
%TO.N,Net-(D3-K)*%
X18034000Y33934400D03*
D15*
%TO.P,D3,2,A_2*%
%TO.N,+3V3*%
X20574000Y33934400D03*
%TD*%
D17*
%TO.P,SW2,1,A_1*%
%TO.N,Net-(SW2-A)*%
X19242000Y2434000D03*
D18*
%TO.P,SW2,2,B_2*%
%TO.N,GND*%
X21242000Y2434000D03*
%TO.P,SW2,3,C_3*%
%TO.N,unconnected-(SW2-C-Pad3)*%
X23242000Y2434000D03*
D19*
%TO.P,SW2,MH1,MH1_MH1*%
%TO.N,GND*%
X17142000Y2434000D03*
%TO.P,SW2,MH2,MH2_MH2*%
X25342000Y2434000D03*
%TD*%
D20*
%TO.P,SW1,1,1_1*%
%TO.N,Net-(R6-Pad1)*%
X2167000Y25383999D03*
%TO.P,SW1,2,2_2*%
%TO.N,Net-(RV1-Pad3)*%
X2167000Y21383999D03*
%TO.P,SW1,3,3_3*%
%TO.N,unconnected-(SW1-Pad3)*%
X2167000Y19383999D03*
%TO.P,SW1,4,4_4*%
%TO.N,Net-(R3-Pad2)*%
X2167000Y17383999D03*
D21*
%TO.P,SW1,MH1,MH_MH1*%
%TO.N,GND*%
X2167000Y27483999D03*
%TO.P,SW1,MH2,MH_MH2*%
X2167000Y15284000D03*
%TD*%
D22*
%TO.P,J8,1,Pin_1_1*%
%TO.N,/PWR_IN*%
X11685358Y12064000D03*
D23*
%TO.P,J8,2,Pin_2_2*%
%TO.N,GND*%
X3785357Y12064000D03*
%TD*%
D10*
%TO.P,C7,1*%
%TO.N,+5V0*%
X16735902Y47117000D03*
D11*
%TO.P,C7,2*%
%TO.N,GND*%
X19235902Y47117000D03*
%TD*%
D14*
%TO.P,D2,1,K_1*%
%TO.N,Net-(D2-K)*%
X19317000Y16429001D03*
D15*
%TO.P,D2,2,A_2*%
%TO.N,+5V0*%
X19317000Y13889001D03*
%TD*%
D24*
%TO.P,J9,1,Pin_1_1*%
%TO.N,+5V0*%
X6985001Y40935154D03*
D25*
%TO.P,J9,2,Pin_2_2*%
%TO.N,Net-(J9-Pin_2)*%
X4445001Y40935154D03*
%TO.P,J9,3,Pin_3_3*%
%TO.N,Net-(J9-Pin_3)*%
X1905002Y40935154D03*
%TD*%
D26*
%TO.P,J5,1,Pin_1_1*%
%TO.N,GND*%
X30607001Y4699000D03*
%TO.P,J5,2,Pin_2_2*%
%TO.N,+5V0*%
X30607001Y2159000D03*
%TO.P,J5,3,Pin_3_3*%
%TO.N,GND*%
X33147001Y4699000D03*
%TO.P,J5,4,Pin_4_4*%
%TO.N,+5V0*%
X33147001Y2159000D03*
%TO.P,J5,5,Pin_5_5*%
%TO.N,GND*%
X35687001Y4699000D03*
%TO.P,J5,6,Pin_6_6*%
%TO.N,+5V0*%
X35687001Y2159000D03*
%TO.P,J5,7,Pin_7_7*%
%TO.N,GND*%
X38227001Y4699000D03*
%TO.P,J5,8,Pin_8_8*%
%TO.N,+5V0*%
X38227001Y2159000D03*
%TD*%
%TO.P,J6,1,Pin_1_1*%
%TO.N,GND*%
X30607001Y48387000D03*
%TO.P,J6,2,Pin_2_2*%
%TO.N,+3V3*%
X30607001Y45847000D03*
%TO.P,J6,3,Pin_3_3*%
%TO.N,GND*%
X33147001Y48387000D03*
%TO.P,J6,4,Pin_4_4*%
%TO.N,+3V3*%
X33147001Y45847000D03*
%TO.P,J6,5,Pin_5_5*%
%TO.N,GND*%
X35687001Y48387000D03*
%TO.P,J6,6,Pin_6_6*%
%TO.N,+3V3*%
X35687001Y45847000D03*
%TO.P,J6,7,Pin_7_7*%
%TO.N,GND*%
X38227001Y48387000D03*
%TO.P,J6,8,Pin_8_8*%
%TO.N,+3V3*%
X38227001Y45847000D03*
%TD*%
D27*
%TO.N,/PWR_IN*%
X9590694Y21098625D03*
X10741995Y21089813D03*
%TO.N,GND*%
X9137402Y32105600D03*
X23825201Y42976800D03*
X18592801Y37592000D03*
X13813304Y41351289D03*
X9586053Y25659000D03*
X13037587Y26827680D03*
X12996054Y24529000D03*
X8442000Y16659000D03*
X20066001Y37592000D03*
X10751052Y26839000D03*
X13815023Y38151089D03*
X11876998Y25691986D03*
X13817601Y39751000D03*
X15327527Y26827651D03*
X4775026Y19324627D03*
X11865937Y23408754D03*
X10717000Y24521986D03*
X14156053Y25698999D03*
X20066001Y36499800D03*
X15288932Y24513456D03*
X23241001Y37668200D03*
X23241001Y36220400D03*
X13817601Y38951000D03*
X17500601Y17718800D03*
X18592801Y36499800D03*
X16449963Y25683240D03*
X16448662Y23392995D03*
X13011053Y22244000D03*
X11862356Y21117267D03*
X8442000Y14984858D03*
X14154147Y23394001D03*
X14478001Y31953200D03*
X15311053Y22244000D03*
X13817224Y40551001D03*
%TO.N,+3V3*%
X23232001Y40259000D03*
X23241001Y41732200D03*
X15367001Y40208200D03*
X21717001Y41774000D03*
X15367001Y38379400D03*
X15367001Y39293800D03*
X21717001Y38735000D03*
%TO.N,/PWR_IN*%
X8415954Y22238553D03*
X9583678Y18794000D03*
X8436053Y21109000D03*
X10738293Y19963547D03*
X9581052Y23399000D03*
X8466124Y19950604D03*
X13117000Y15112400D03*
X10724599Y22239541D03*
X9587355Y21100188D03*
X11567000Y16659000D03*
%TO.N,+5V0*%
X11857000Y27988999D03*
X19414001Y40386600D03*
X8452000Y29109000D03*
X18262201Y43115200D03*
X10737000Y27989000D03*
X16738601Y43586400D03*
X11861801Y33731200D03*
X15367001Y41605200D03*
X8457000Y27989000D03*
X15468201Y43586800D03*
X6957000Y24879000D03*
X9586053Y27984000D03*
X13208001Y32435800D03*
%TO.N,Net-(SW2-A)*%
X14161053Y21109000D03*
%TO.N,Net-(J9-Pin_2)*%
X16367000Y30609000D03*
%TO.N,Net-(J9-Pin_3)*%
X17597000Y19949000D03*
%TO.N,Net-(U1-Trim)*%
X18745201Y31433653D03*
%TD*%
%TO.N,Net-(SW2-A)*%
D28*
X16560801Y6405199D02*
X19242000Y3724000D01*
X16560801Y17119600D02*
X16560801Y6405199D01*
X14161053Y19519348D02*
X16560801Y17119600D01*
X19242000Y3724000D02*
X19242000Y2434000D01*
X14161053Y21109000D02*
X14161053Y19519348D01*
%TO.N,GND*%
D29*
X3572475Y13871274D02*
X3572878Y13871274D01*
X3570800Y13869599D02*
X3572475Y13871274D01*
X2167000Y15273399D02*
X3570800Y13869599D01*
X2167000Y15284000D02*
X2167000Y15273399D01*
%TO.N,Net-(U1-Trim)*%
D28*
X14522801Y29089000D02*
X9492801Y34119000D01*
X17328801Y29089000D02*
X14522801Y29089000D01*
X18745201Y30505400D02*
X17328801Y29089000D01*
X18745201Y31433653D02*
X18745201Y30505400D01*
X9492801Y34119000D02*
X4647001Y34119000D01*
%TO.N,GND*%
D30*
X3685361Y12059000D02*
X7002004Y12059000D01*
D31*
X4210493Y12584132D02*
X7504262Y12584132D01*
D30*
X4667004Y12059000D02*
X4667004Y14312357D01*
X3685361Y8585643D02*
X3837004Y8434000D01*
D31*
X4217215Y11527146D02*
X7508612Y11527146D01*
D30*
X3685361Y12059000D02*
X3685361Y8585643D01*
%TO.N,+5V0*%
D28*
X11852001Y27984000D02*
X11857000Y27988999D01*
%TO.N,Net-(J9-Pin_2)*%
X16367000Y31893001D02*
X10693401Y37566600D01*
X16367000Y30609000D02*
X16367000Y31893001D01*
X6578601Y37566600D02*
X4445001Y39700200D01*
X4445001Y39700200D02*
X4445001Y40935154D01*
X10693401Y37566600D02*
X6578601Y37566600D01*
%TO.N,Net-(J9-Pin_3)*%
X3047001Y34746200D02*
X4089401Y35788600D01*
X17037000Y28029000D02*
X14037001Y28029000D01*
X11687601Y30378400D02*
X5887601Y30378400D01*
X4089401Y37592000D02*
X1905002Y39776399D01*
X17597000Y19949000D02*
X17597000Y27469000D01*
X14037001Y28029000D02*
X11687601Y30378400D01*
X17597000Y27469000D02*
X17037000Y28029000D01*
X5887601Y30378400D02*
X3047001Y33219000D01*
X4089401Y35788600D02*
X4089401Y37592000D01*
X3047001Y33219000D02*
X3047001Y34746200D01*
X1905002Y39776399D02*
X1905002Y40935154D01*
%TO.N,Net-(U1-Trim)*%
X18764254Y31414600D02*
X18745201Y31433653D01*
%TO.N,Net-(RV1-Pad3)*%
X2107001Y31579001D02*
X5117000Y28569002D01*
X2167000Y21684000D02*
X5117000Y24634000D01*
X5117000Y24634000D02*
X5117000Y28569002D01*
%TD*%
%TA.AperFunction,Conductor*%
%TO.N,GND*%
G36*
X32497941Y4895890D02*
G01*
X32472001Y4765482D01*
X32472001Y4632518D01*
X32497941Y4502110D01*
X32519940Y4449000D01*
X31234062Y4449000D01*
X31256061Y4502110D01*
X31282001Y4632518D01*
X31282001Y4765482D01*
X31256061Y4895890D01*
X31234062Y4949000D01*
X32519940Y4949000D01*
X32497941Y4895890D01*
G37*
%TD.AperFunction*%
%TA.AperFunction,Conductor*%
G36*
X35037941Y4895890D02*
G01*
X35012001Y4765482D01*
X35012001Y4632518D01*
X35037941Y4502110D01*
X35059940Y4449000D01*
X33774062Y4449000D01*
X33796061Y4502110D01*
X33822001Y4632518D01*
X33822001Y4765482D01*
X33796061Y4895890D01*
X33774062Y4949000D01*
X35059940Y4949000D01*
X35037941Y4895890D01*
G37*
%TD.AperFunction*%
%TA.AperFunction,Conductor*%
G36*
X37577941Y4895890D02*
G01*
X37552001Y4765482D01*
X37552001Y4632518D01*
X37577941Y4502110D01*
X37599940Y4449000D01*
X36314062Y4449000D01*
X36336061Y4502110D01*
X36362001Y4632518D01*
X36362001Y4765482D01*
X36336061Y4895890D01*
X36314062Y4949000D01*
X37599940Y4949000D01*
X37577941Y4895890D01*
G37*
%TD.AperFunction*%
%TA.AperFunction,Conductor*%
G36*
X9281959Y33549593D02*
G01*
X9293772Y33539504D01*
X11735372Y31097904D01*
X11763149Y31043387D01*
X11753578Y30982955D01*
X11710313Y30939690D01*
X11665368Y30928900D01*
X6156634Y30928900D01*
X6098443Y30947807D01*
X6086630Y30957896D01*
X4038218Y33006308D01*
X4010441Y33060825D01*
X4020012Y33121257D01*
X4063277Y33164522D01*
X4123709Y33174093D01*
X4146104Y33167777D01*
X4334748Y33089638D01*
X4541566Y33048500D01*
X4541567Y33048500D01*
X4752435Y33048500D01*
X4752436Y33048500D01*
X4959254Y33089638D01*
X5154073Y33170335D01*
X5154076Y33170338D01*
X5154080Y33170339D01*
X5204705Y33204167D01*
X5329405Y33287488D01*
X5478513Y33436596D01*
X5537249Y33524501D01*
X5585299Y33562381D01*
X5619565Y33568500D01*
X9223768Y33568500D01*
X9281959Y33549593D01*
G37*
%TD.AperFunction*%
%TA.AperFunction,Conductor*%
G36*
X32497941Y48583890D02*
G01*
X32472001Y48453482D01*
X32472001Y48320518D01*
X32497941Y48190110D01*
X32519940Y48137000D01*
X31234062Y48137000D01*
X31256061Y48190110D01*
X31282001Y48320518D01*
X31282001Y48453482D01*
X31256061Y48583890D01*
X31234062Y48637000D01*
X32519940Y48637000D01*
X32497941Y48583890D01*
G37*
%TD.AperFunction*%
%TA.AperFunction,Conductor*%
G36*
X35037941Y48583890D02*
G01*
X35012001Y48453482D01*
X35012001Y48320518D01*
X35037941Y48190110D01*
X35059940Y48137000D01*
X33774062Y48137000D01*
X33796061Y48190110D01*
X33822001Y48320518D01*
X33822001Y48453482D01*
X33796061Y48583890D01*
X33774062Y48637000D01*
X35059940Y48637000D01*
X35037941Y48583890D01*
G37*
%TD.AperFunction*%
%TA.AperFunction,Conductor*%
G36*
X37577941Y48583890D02*
G01*
X37552001Y48453482D01*
X37552001Y48320518D01*
X37577941Y48190110D01*
X37599940Y48137000D01*
X36314062Y48137000D01*
X36336061Y48190110D01*
X36362001Y48320518D01*
X36362001Y48453482D01*
X36336061Y48583890D01*
X36314062Y48637000D01*
X37599940Y48637000D01*
X37577941Y48583890D01*
G37*
%TD.AperFunction*%
%TA.AperFunction,Conductor*%
G36*
X40936892Y50153593D02*
G01*
X40972856Y50104093D01*
X40977701Y50073500D01*
X40977701Y44161587D01*
X40958794Y44103396D01*
X40909294Y44067432D01*
X40878522Y44062587D01*
X27722000Y44086381D01*
X27722000Y44086382D01*
X27715155Y44086395D01*
X27714714Y44086512D01*
X27649080Y44086512D01*
X27649079Y44086512D01*
X27578508Y44086640D01*
X27576529Y44086512D01*
X27497558Y44086512D01*
X27197282Y44050051D01*
X27197266Y44050049D01*
X26903561Y43977657D01*
X26620705Y43870384D01*
X26352854Y43729806D01*
X26352849Y43729803D01*
X26103903Y43557966D01*
X26103900Y43557964D01*
X26103898Y43557962D01*
X26031929Y43494203D01*
X25877475Y43357369D01*
X25877465Y43357359D01*
X25856873Y43334115D01*
X25703064Y43160500D01*
X25676868Y43130931D01*
X25505031Y42881985D01*
X25505028Y42881980D01*
X25364450Y42614129D01*
X25257177Y42331273D01*
X25184785Y42037568D01*
X25184783Y42037552D01*
X25148322Y41737276D01*
X25148322Y8858749D01*
X25184783Y8558473D01*
X25184785Y8558457D01*
X25257177Y8264752D01*
X25257178Y8264749D01*
X25257179Y8264746D01*
X25285411Y8190305D01*
X25364450Y7981896D01*
X25505028Y7714045D01*
X25505031Y7714040D01*
X25645517Y7510513D01*
X25676872Y7465088D01*
X25877470Y7238660D01*
X26103898Y7038062D01*
X26201921Y6970401D01*
X26352849Y6866222D01*
X26352854Y6866219D01*
X26620709Y6725639D01*
X26903556Y6618369D01*
X27050413Y6582172D01*
X27197266Y6545976D01*
X27197267Y6545976D01*
X27197271Y6545975D01*
X27324422Y6530536D01*
X27497558Y6509513D01*
X27497565Y6509513D01*
X27497570Y6509512D01*
X27497574Y6509512D01*
X27648375Y6509512D01*
X40878880Y6485584D01*
X40937036Y6466571D01*
X40972911Y6417006D01*
X40977701Y6386584D01*
X40977701Y599500D01*
X40958794Y541309D01*
X40909294Y505345D01*
X40878701Y500500D01*
X26560249Y500500D01*
X26502058Y519407D01*
X26466094Y568907D01*
X26466094Y630093D01*
X26490245Y669504D01*
X26562412Y741672D01*
X26710444Y945420D01*
X26824778Y1169813D01*
X26902604Y1409337D01*
X26942000Y1658074D01*
X26942000Y2183999D01*
X26941999Y2184000D01*
X26050241Y2184000D01*
X26063178Y2215233D01*
X26092000Y2360131D01*
X26092000Y2507869D01*
X26063178Y2652767D01*
X26050241Y2684000D01*
X26941999Y2684000D01*
X26942000Y2684001D01*
X26942000Y3209927D01*
X26902604Y3458664D01*
X26824778Y3698188D01*
X26710444Y3922581D01*
X26562412Y4126329D01*
X26384328Y4304413D01*
X26254831Y4398498D01*
X26180580Y4452445D01*
X25956187Y4566779D01*
X25716663Y4644605D01*
X25592000Y4664350D01*
X25592000Y3142241D01*
X25560767Y3155178D01*
X25415869Y3184000D01*
X25268131Y3184000D01*
X25123233Y3155178D01*
X25092000Y3142241D01*
X25092000Y4664349D01*
X25091999Y4664350D01*
X24967336Y4644605D01*
X24727812Y4566779D01*
X24503419Y4452445D01*
X24299671Y4304413D01*
X24121587Y4126329D01*
X23973558Y3922585D01*
X23966755Y3909234D01*
X23923487Y3865972D01*
X23863055Y3856405D01*
X23822183Y3873335D01*
X23822102Y3873201D01*
X23821261Y3873716D01*
X23820361Y3874089D01*
X23818788Y3875232D01*
X23664445Y3953873D01*
X23664444Y3953874D01*
X23664441Y3953875D01*
X23664438Y3953877D01*
X23499706Y4007402D01*
X23499702Y4007403D01*
X23328614Y4034500D01*
X23328611Y4034500D01*
X23155389Y4034500D01*
X23155386Y4034500D01*
X22984297Y4007403D01*
X22984293Y4007402D01*
X22819561Y3953877D01*
X22819558Y3953875D01*
X22665214Y3875234D01*
X22525069Y3773412D01*
X22405558Y3653901D01*
X22351042Y3626124D01*
X22290610Y3635696D01*
X22255462Y3665714D01*
X22195446Y3748319D01*
X22056314Y3887451D01*
X21897148Y4003093D01*
X21897142Y4003097D01*
X21721833Y4092420D01*
X21534706Y4153221D01*
X21492000Y4159986D01*
X21492000Y2809278D01*
X21415694Y2853333D01*
X21301244Y2884000D01*
X21182756Y2884000D01*
X21068306Y2853333D01*
X20992000Y2809278D01*
X20992000Y4159986D01*
X20991999Y4159986D01*
X20949293Y4153221D01*
X20762166Y4092420D01*
X20586857Y4003097D01*
X20586851Y4003093D01*
X20427679Y3887447D01*
X20425953Y3885720D01*
X20425223Y3885349D01*
X20424723Y3884921D01*
X20424620Y3885042D01*
X20371433Y3857948D01*
X20311002Y3867526D01*
X20285953Y3885727D01*
X20281198Y3890482D01*
X20281198Y3890483D01*
X20198483Y3973198D01*
X20198481Y3973199D01*
X20093395Y4024573D01*
X20066139Y4028544D01*
X20025260Y4034500D01*
X20025257Y4034500D01*
X19751032Y4034500D01*
X19692841Y4053407D01*
X19681034Y4063491D01*
X18795525Y4949000D01*
X29077276Y4949000D01*
X29979940Y4949000D01*
X29957941Y4895890D01*
X29932001Y4765482D01*
X29932001Y4632518D01*
X29957941Y4502110D01*
X29979940Y4449000D01*
X29077276Y4449000D01*
X29095165Y4336046D01*
X29170560Y4104006D01*
X29281320Y3886626D01*
X29424726Y3689245D01*
X29597245Y3516726D01*
X29734922Y3416698D01*
X29770886Y3367198D01*
X29770886Y3306012D01*
X29734923Y3256513D01*
X29694638Y3227244D01*
X29694636Y3227242D01*
X29538759Y3071365D01*
X29498943Y3016563D01*
X29409184Y2893020D01*
X29309103Y2696600D01*
X29240985Y2486949D01*
X29206501Y2269226D01*
X29206501Y2048775D01*
X29240985Y1831052D01*
X29309103Y1621401D01*
X29309105Y1621398D01*
X29309106Y1621394D01*
X29409186Y1424978D01*
X29538759Y1246635D01*
X29694636Y1090758D01*
X29872979Y961185D01*
X30069395Y861105D01*
X30279050Y792985D01*
X30366141Y779191D01*
X30496776Y758500D01*
X30496779Y758500D01*
X30717226Y758500D01*
X30826087Y775743D01*
X30934952Y792985D01*
X31144607Y861105D01*
X31341023Y961185D01*
X31519366Y1090758D01*
X31675243Y1246635D01*
X31796910Y1414097D01*
X31846408Y1450059D01*
X31907593Y1450059D01*
X31957091Y1414097D01*
X32078759Y1246635D01*
X32234636Y1090758D01*
X32412979Y961185D01*
X32609395Y861105D01*
X32819050Y792985D01*
X32906141Y779191D01*
X33036776Y758500D01*
X33036779Y758500D01*
X33257226Y758500D01*
X33366087Y775743D01*
X33474952Y792985D01*
X33684607Y861105D01*
X33881023Y961185D01*
X34059366Y1090758D01*
X34215243Y1246635D01*
X34336910Y1414097D01*
X34386408Y1450059D01*
X34447593Y1450059D01*
X34497091Y1414097D01*
X34618759Y1246635D01*
X34774636Y1090758D01*
X34952979Y961185D01*
X35149395Y861105D01*
X35359050Y792985D01*
X35446141Y779191D01*
X35576776Y758500D01*
X35576779Y758500D01*
X35797226Y758500D01*
X35906087Y775743D01*
X36014952Y792985D01*
X36224607Y861105D01*
X36421023Y961185D01*
X36599366Y1090758D01*
X36755243Y1246635D01*
X36876910Y1414097D01*
X36926408Y1450059D01*
X36987593Y1450059D01*
X37037091Y1414097D01*
X37158759Y1246635D01*
X37314636Y1090758D01*
X37492979Y961185D01*
X37689395Y861105D01*
X37899050Y792985D01*
X37986141Y779191D01*
X38116776Y758500D01*
X38116779Y758500D01*
X38337226Y758500D01*
X38446087Y775743D01*
X38554952Y792985D01*
X38764607Y861105D01*
X38961023Y961185D01*
X39139366Y1090758D01*
X39295243Y1246635D01*
X39424816Y1424978D01*
X39524896Y1621394D01*
X39593016Y1831049D01*
X39617241Y1984000D01*
X39627501Y2048775D01*
X39627501Y2269226D01*
X39593016Y2486949D01*
X39593016Y2486951D01*
X39524896Y2696606D01*
X39424816Y2893022D01*
X39295243Y3071365D01*
X39139366Y3227242D01*
X39099077Y3256514D01*
X39063115Y3306011D01*
X39063115Y3367197D01*
X39099079Y3416697D01*
X39236756Y3516726D01*
X39409275Y3689245D01*
X39552681Y3886626D01*
X39663441Y4104006D01*
X39738836Y4336046D01*
X39756726Y4449000D01*
X38854062Y4449000D01*
X38876061Y4502110D01*
X38902001Y4632518D01*
X38902001Y4765482D01*
X38876061Y4895890D01*
X38854062Y4949000D01*
X39756726Y4949000D01*
X39738836Y5061955D01*
X39663441Y5293995D01*
X39552681Y5511375D01*
X39409275Y5708756D01*
X39236756Y5881275D01*
X39039375Y6024681D01*
X38821995Y6135441D01*
X38589955Y6210836D01*
X38477001Y6228726D01*
X38477001Y5326062D01*
X38423891Y5348060D01*
X38293483Y5374000D01*
X38160519Y5374000D01*
X38030111Y5348060D01*
X37977001Y5326062D01*
X37977001Y6228726D01*
X37864046Y6210836D01*
X37632006Y6135441D01*
X37414626Y6024681D01*
X37217245Y5881275D01*
X37044723Y5708753D01*
X37037092Y5698249D01*
X36987591Y5662287D01*
X36926406Y5662288D01*
X36876910Y5698249D01*
X36869278Y5708753D01*
X36696756Y5881275D01*
X36499375Y6024681D01*
X36281995Y6135441D01*
X36049955Y6210836D01*
X35937001Y6228726D01*
X35937001Y5326062D01*
X35883891Y5348060D01*
X35753483Y5374000D01*
X35620519Y5374000D01*
X35490111Y5348060D01*
X35437001Y5326062D01*
X35437001Y6228726D01*
X35324046Y6210836D01*
X35092006Y6135441D01*
X34874626Y6024681D01*
X34677245Y5881275D01*
X34504723Y5708753D01*
X34497092Y5698249D01*
X34447591Y5662287D01*
X34386406Y5662288D01*
X34336910Y5698249D01*
X34329278Y5708753D01*
X34156756Y5881275D01*
X33959375Y6024681D01*
X33741995Y6135441D01*
X33509955Y6210836D01*
X33397001Y6228726D01*
X33397001Y5326062D01*
X33343891Y5348060D01*
X33213483Y5374000D01*
X33080519Y5374000D01*
X32950111Y5348060D01*
X32897001Y5326062D01*
X32897001Y6228726D01*
X32784046Y6210836D01*
X32552006Y6135441D01*
X32334626Y6024681D01*
X32137245Y5881275D01*
X31964723Y5708753D01*
X31957092Y5698249D01*
X31907591Y5662287D01*
X31846406Y5662288D01*
X31796910Y5698249D01*
X31789278Y5708753D01*
X31616756Y5881275D01*
X31419375Y6024681D01*
X31201995Y6135441D01*
X30969955Y6210836D01*
X30857001Y6228726D01*
X30857001Y5326062D01*
X30803891Y5348060D01*
X30673483Y5374000D01*
X30540519Y5374000D01*
X30410111Y5348060D01*
X30357001Y5326062D01*
X30357001Y6228726D01*
X30244046Y6210836D01*
X30012006Y6135441D01*
X29794626Y6024681D01*
X29597245Y5881275D01*
X29424726Y5708756D01*
X29281320Y5511375D01*
X29170560Y5293995D01*
X29095165Y5061955D01*
X29077276Y4949000D01*
X18795525Y4949000D01*
X17140297Y6604228D01*
X17112520Y6658745D01*
X17111301Y6674232D01*
X17111301Y7416175D01*
X17916999Y7416175D01*
X17923401Y7356629D01*
X17923403Y7356618D01*
X17973646Y7221911D01*
X17973647Y7221909D01*
X18059807Y7106815D01*
X18059815Y7106807D01*
X18174909Y7020647D01*
X18174911Y7020646D01*
X18309618Y6970403D01*
X18309629Y6970401D01*
X18369176Y6963999D01*
X19066999Y6963999D01*
X19067000Y6964000D01*
X19067000Y7988722D01*
X19143306Y7944666D01*
X19257756Y7913999D01*
X19376244Y7913999D01*
X19490694Y7944666D01*
X19567000Y7988722D01*
X19567000Y6964000D01*
X19567001Y6963999D01*
X20264824Y6963999D01*
X20324370Y6970401D01*
X20324381Y6970403D01*
X20459088Y7020646D01*
X20459090Y7020647D01*
X20574184Y7106807D01*
X20574192Y7106815D01*
X20660352Y7221909D01*
X20660353Y7221911D01*
X20710596Y7356618D01*
X20710598Y7356629D01*
X20717000Y7416175D01*
X20717000Y8113998D01*
X20716999Y8113999D01*
X19692278Y8113999D01*
X19736333Y8190305D01*
X19767000Y8304755D01*
X19767000Y8423243D01*
X19736333Y8537693D01*
X19692278Y8613999D01*
X20716999Y8613999D01*
X20717000Y8614000D01*
X20717000Y9311824D01*
X20710598Y9371370D01*
X20710596Y9371381D01*
X20660353Y9506088D01*
X20660352Y9506090D01*
X20574192Y9621184D01*
X20574184Y9621192D01*
X20459090Y9707352D01*
X20459088Y9707353D01*
X20324381Y9757596D01*
X20324370Y9757598D01*
X20264824Y9763999D01*
X20180093Y9763999D01*
X20121902Y9782906D01*
X20085938Y9832406D01*
X20085938Y9893592D01*
X20121902Y9943091D01*
X20131640Y9950167D01*
X20131646Y9950171D01*
X20270828Y10089353D01*
X20386524Y10248594D01*
X20475884Y10423974D01*
X20536709Y10611173D01*
X20567500Y10805582D01*
X20567500Y11002416D01*
X20567500Y11002420D01*
X20536710Y11196821D01*
X20536709Y11196825D01*
X20475884Y11384024D01*
X20386524Y11559404D01*
X20270828Y11718645D01*
X20131646Y11857827D01*
X19972405Y11973523D01*
X19972404Y11973524D01*
X19972402Y11973525D01*
X19797025Y12062883D01*
X19609821Y12123710D01*
X19415420Y12154499D01*
X19415417Y12154499D01*
X19218583Y12154499D01*
X19218580Y12154499D01*
X19024178Y12123710D01*
X18836974Y12062883D01*
X18661597Y11973525D01*
X18502355Y11857828D01*
X18363171Y11718644D01*
X18247474Y11559402D01*
X18158116Y11384025D01*
X18097289Y11196821D01*
X18066500Y11002420D01*
X18066500Y10805579D01*
X18097289Y10611178D01*
X18158116Y10423974D01*
X18231759Y10279439D01*
X18247476Y10248594D01*
X18363172Y10089353D01*
X18502354Y9950171D01*
X18502357Y9950169D01*
X18502359Y9950167D01*
X18512098Y9943091D01*
X18548062Y9893591D01*
X18548061Y9832406D01*
X18512097Y9782906D01*
X18453907Y9763999D01*
X18369176Y9763999D01*
X18309629Y9757598D01*
X18309618Y9757596D01*
X18174911Y9707353D01*
X18174909Y9707352D01*
X18059815Y9621192D01*
X18059807Y9621184D01*
X17973647Y9506090D01*
X17973646Y9506088D01*
X17923403Y9371381D01*
X17923401Y9371370D01*
X17917000Y9311824D01*
X17917000Y8614000D01*
X17917001Y8613999D01*
X18941722Y8613999D01*
X18897667Y8537693D01*
X18867000Y8423243D01*
X18867000Y8304755D01*
X18897667Y8190305D01*
X18941722Y8113999D01*
X17917001Y8113999D01*
X17917000Y8113998D01*
X17917000Y7416175D01*
X17916999Y7416175D01*
X17111301Y7416175D01*
X17111301Y17192075D01*
X17073785Y17332085D01*
X17056365Y17362258D01*
X17056363Y17362261D01*
X18066500Y17362261D01*
X18066500Y15495741D01*
X18073118Y15450319D01*
X18076427Y15427606D01*
X18110520Y15357869D01*
X18127802Y15322518D01*
X18210517Y15239803D01*
X18264285Y15213518D01*
X18315604Y15188429D01*
X18315605Y15188429D01*
X18315607Y15188428D01*
X18383740Y15178501D01*
X18383743Y15178501D01*
X18680957Y15178501D01*
X18739148Y15159594D01*
X18775112Y15110094D01*
X18775112Y15048908D01*
X18739148Y14999408D01*
X18725902Y14991291D01*
X18661597Y14958527D01*
X18502355Y14842830D01*
X18363171Y14703646D01*
X18247474Y14544404D01*
X18158116Y14369027D01*
X18097289Y14181823D01*
X18066500Y13987422D01*
X18066500Y13790581D01*
X18097289Y13596180D01*
X18158116Y13408976D01*
X18174948Y13375940D01*
X18247476Y13233596D01*
X18363172Y13074355D01*
X18502354Y12935173D01*
X18661595Y12819477D01*
X18836975Y12730117D01*
X19024174Y12669292D01*
X19024175Y12669292D01*
X19024178Y12669291D01*
X19218580Y12638501D01*
X19218583Y12638501D01*
X19415420Y12638501D01*
X19609821Y12669291D01*
X19609822Y12669292D01*
X19609826Y12669292D01*
X19797025Y12730117D01*
X19972405Y12819477D01*
X20131646Y12935173D01*
X20270828Y13074355D01*
X20386524Y13233596D01*
X20475884Y13408976D01*
X20536709Y13596175D01*
X20536710Y13596180D01*
X20567500Y13790581D01*
X20567500Y13987422D01*
X20536710Y14181823D01*
X20536709Y14181827D01*
X20475884Y14369026D01*
X20386524Y14544406D01*
X20270828Y14703647D01*
X20131646Y14842829D01*
X19972405Y14958525D01*
X19972404Y14958526D01*
X19972402Y14958527D01*
X19908098Y14991291D01*
X19864833Y15034556D01*
X19855262Y15094988D01*
X19883039Y15149505D01*
X19937556Y15177282D01*
X19953043Y15178501D01*
X20250257Y15178501D01*
X20250260Y15178501D01*
X20318393Y15188428D01*
X20423483Y15239803D01*
X20506198Y15322518D01*
X20557573Y15427608D01*
X20567500Y15495741D01*
X20567500Y17362261D01*
X20557573Y17430394D01*
X20506198Y17535484D01*
X20423483Y17618199D01*
X20423481Y17618200D01*
X20318395Y17669574D01*
X20291139Y17673545D01*
X20250260Y17679501D01*
X18383740Y17679501D01*
X18349673Y17674538D01*
X18315604Y17669574D01*
X18210518Y17618200D01*
X18127801Y17535483D01*
X18076427Y17430397D01*
X18076427Y17430394D01*
X18066500Y17362261D01*
X17056363Y17362261D01*
X17056363Y17362262D01*
X17056363Y17362263D01*
X17001312Y17457613D01*
X17001311Y17457615D01*
X14740549Y19718377D01*
X14712772Y19772894D01*
X14711553Y19788381D01*
X14711553Y20557126D01*
X14730460Y20615317D01*
X14740543Y20627124D01*
X14744004Y20630584D01*
X14826137Y20753505D01*
X14882711Y20890087D01*
X14911553Y21035082D01*
X14911553Y21182918D01*
X14882711Y21327913D01*
X14826137Y21464495D01*
X14744004Y21587416D01*
X14639469Y21691951D01*
X14516548Y21774084D01*
X14516546Y21774085D01*
X14379967Y21830658D01*
X14234971Y21859500D01*
X14087135Y21859500D01*
X14087134Y21859500D01*
X13942138Y21830658D01*
X13805559Y21774085D01*
X13682638Y21691952D01*
X13578101Y21587415D01*
X13495968Y21464494D01*
X13439395Y21327915D01*
X13410553Y21182919D01*
X13410553Y21182918D01*
X13410553Y21035082D01*
X13439395Y20890087D01*
X13495969Y20753505D01*
X13578102Y20630584D01*
X13581558Y20627128D01*
X13609334Y20572613D01*
X13610553Y20557126D01*
X13610553Y19446873D01*
X13613462Y19436016D01*
X13613463Y19436013D01*
X13613462Y19436013D01*
X13648067Y19306867D01*
X13648067Y19306866D01*
X13652920Y19298461D01*
X13720543Y19181333D01*
X15981306Y16920570D01*
X16009082Y16866055D01*
X16010301Y16850568D01*
X16010301Y6477673D01*
X16010301Y6332725D01*
X16047817Y6192714D01*
X16120291Y6067184D01*
X16813475Y5374000D01*
X17334471Y4853004D01*
X17362248Y4798487D01*
X17352677Y4738055D01*
X17309412Y4694790D01*
X17264467Y4684000D01*
X17016074Y4684000D01*
X16767336Y4644605D01*
X16527812Y4566779D01*
X16303419Y4452445D01*
X16099671Y4304413D01*
X15921587Y4126329D01*
X15871779Y4057775D01*
X16817974Y3111579D01*
X16786742Y3098641D01*
X16663903Y3016563D01*
X16559437Y2912097D01*
X16477359Y2789258D01*
X16464421Y2758026D01*
X15626123Y3596324D01*
X15581396Y3458666D01*
X15542000Y3209927D01*
X15542000Y1658074D01*
X15581396Y1409335D01*
X15626123Y1271678D01*
X16464421Y2109977D01*
X16477359Y2078742D01*
X16559437Y1955903D01*
X16663903Y1851437D01*
X16786742Y1769359D01*
X16817974Y1756422D01*
X15871779Y810227D01*
X15921583Y741676D01*
X15993755Y669504D01*
X16021532Y614987D01*
X16011961Y554555D01*
X15968696Y511290D01*
X15923751Y500500D01*
X599500Y500500D01*
X541309Y519407D01*
X505345Y568907D01*
X500500Y599500D01*
X500500Y9830000D01*
X519407Y9888191D01*
X568907Y9924155D01*
X599500Y9929000D01*
X3535356Y9929000D01*
X3535357Y9929001D01*
X3535357Y11429000D01*
X4035357Y11429000D01*
X4035357Y9929001D01*
X4035358Y9929000D01*
X7103181Y9929000D01*
X7162727Y9935402D01*
X7162738Y9935404D01*
X7297445Y9985647D01*
X7297447Y9985648D01*
X7412541Y10071808D01*
X7412549Y10071816D01*
X7498709Y10186910D01*
X7498710Y10186912D01*
X7548953Y10321619D01*
X7548955Y10321630D01*
X7555357Y10381176D01*
X7555357Y11813999D01*
X7555356Y11814000D01*
X6349122Y11814000D01*
X6375954Y11878777D01*
X6400357Y12001458D01*
X6400357Y12126542D01*
X6386911Y12194137D01*
X8064858Y12194137D01*
X8064858Y11933863D01*
X8093192Y11718645D01*
X8098830Y11675825D01*
X8098830Y11675820D01*
X8166194Y11424412D01*
X8265793Y11183956D01*
X8265796Y11183951D01*
X8370604Y11002420D01*
X8395933Y10958549D01*
X8554377Y10752060D01*
X8738418Y10568019D01*
X8944907Y10409575D01*
X8944909Y10409574D01*
X9170308Y10279439D01*
X9170313Y10279436D01*
X9366356Y10198233D01*
X9410771Y10179836D01*
X9662175Y10112473D01*
X9920221Y10078500D01*
X9920222Y10078500D01*
X13450494Y10078500D01*
X13450495Y10078500D01*
X13708541Y10112473D01*
X13959945Y10179836D01*
X14125949Y10248597D01*
X14200402Y10279436D01*
X14200403Y10279438D01*
X14200406Y10279438D01*
X14425809Y10409575D01*
X14632298Y10568019D01*
X14816339Y10752060D01*
X14974783Y10958549D01*
X15104920Y11183952D01*
X15204522Y11424413D01*
X15271885Y11675817D01*
X15305858Y11933863D01*
X15305858Y12194137D01*
X15271885Y12452183D01*
X15204522Y12703587D01*
X15186125Y12748002D01*
X15104922Y12944045D01*
X15104919Y12944050D01*
X14974784Y13169449D01*
X14974783Y13169451D01*
X14816339Y13375940D01*
X14632298Y13559981D01*
X14425809Y13718425D01*
X14425806Y13718427D01*
X14200407Y13848562D01*
X14200402Y13848565D01*
X13959946Y13948164D01*
X13813431Y13987422D01*
X13708541Y14015527D01*
X13708538Y14015528D01*
X13708536Y14015528D01*
X13450495Y14049500D01*
X9920221Y14049500D01*
X9920220Y14049500D01*
X9662182Y14015528D01*
X9662177Y14015528D01*
X9410769Y13948164D01*
X9170313Y13848565D01*
X9170308Y13848562D01*
X8944909Y13718427D01*
X8738421Y13559984D01*
X8554374Y13375937D01*
X8395931Y13169449D01*
X8265796Y12944050D01*
X8265793Y12944045D01*
X8166194Y12703589D01*
X8098830Y12452181D01*
X8098830Y12452176D01*
X8080639Y12314000D01*
X8064858Y12194137D01*
X6386911Y12194137D01*
X6375954Y12249223D01*
X6349122Y12314000D01*
X7555356Y12314000D01*
X7555357Y12314001D01*
X7555357Y13746825D01*
X7548955Y13806371D01*
X7548953Y13806382D01*
X7498710Y13941089D01*
X7498709Y13941091D01*
X7412549Y14056185D01*
X7412541Y14056193D01*
X7297447Y14142353D01*
X7297445Y14142354D01*
X7162738Y14192597D01*
X7162727Y14192599D01*
X7103181Y14199000D01*
X4035358Y14199000D01*
X4035357Y14198999D01*
X4035357Y12699000D01*
X3535357Y12699000D01*
X3535357Y14198999D01*
X3509399Y14224957D01*
X3481622Y14279474D01*
X3491193Y14339906D01*
X3499310Y14353152D01*
X3556826Y14432317D01*
X3672947Y14660218D01*
X3751987Y14903481D01*
X3792000Y15156107D01*
X3792000Y15186319D01*
X12366500Y15186319D01*
X12366500Y15038482D01*
X12395342Y14893486D01*
X12416325Y14842829D01*
X12451916Y14756905D01*
X12534049Y14633984D01*
X12638584Y14529449D01*
X12761505Y14447316D01*
X12898087Y14390742D01*
X13043082Y14361900D01*
X13043083Y14361900D01*
X13190917Y14361900D01*
X13190918Y14361900D01*
X13335913Y14390742D01*
X13472495Y14447316D01*
X13595416Y14529449D01*
X13699951Y14633984D01*
X13782084Y14756905D01*
X13838658Y14893487D01*
X13867500Y15038482D01*
X13867500Y15186318D01*
X13838658Y15331313D01*
X13782084Y15467895D01*
X13699951Y15590816D01*
X13595416Y15695351D01*
X13472495Y15777484D01*
X13472493Y15777485D01*
X13335914Y15834058D01*
X13190918Y15862900D01*
X13043082Y15862900D01*
X13043081Y15862900D01*
X12898085Y15834058D01*
X12761506Y15777485D01*
X12638585Y15695352D01*
X12534048Y15590815D01*
X12451915Y15467894D01*
X12395342Y15331315D01*
X12366500Y15186319D01*
X3792000Y15186319D01*
X3792000Y15411894D01*
X3751987Y15664520D01*
X3672947Y15907783D01*
X3556825Y16135686D01*
X3556821Y16135692D01*
X3479149Y16242597D01*
X3479148Y16242597D01*
X2844577Y15608026D01*
X2831641Y15639258D01*
X2749563Y15762097D01*
X2645097Y15866563D01*
X2522258Y15948641D01*
X2491023Y15961579D01*
X3125595Y16596150D01*
X3125595Y16596151D01*
X3041206Y16657464D01*
X3013391Y16677365D01*
X2997219Y16699287D01*
X2979531Y16719999D01*
X2979243Y16723653D01*
X2977068Y16726602D01*
X2977022Y16732918D01*
X10816500Y16732918D01*
X10816500Y16585082D01*
X10845342Y16440087D01*
X10901916Y16303505D01*
X10984049Y16180584D01*
X11088584Y16076049D01*
X11211505Y15993916D01*
X11348087Y15937342D01*
X11493082Y15908500D01*
X11493083Y15908500D01*
X11640917Y15908500D01*
X11640918Y15908500D01*
X11785913Y15937342D01*
X11922495Y15993916D01*
X12045416Y16076049D01*
X12149951Y16180584D01*
X12232084Y16303505D01*
X12288658Y16440087D01*
X12317500Y16585082D01*
X12317500Y16732918D01*
X12288658Y16877913D01*
X12232084Y17014495D01*
X12149951Y17137416D01*
X12045416Y17241951D01*
X11922495Y17324084D01*
X11903179Y17332085D01*
X11785914Y17380658D01*
X11640918Y17409500D01*
X11493082Y17409500D01*
X11493081Y17409500D01*
X11348085Y17380658D01*
X11211506Y17324085D01*
X11088585Y17241952D01*
X10984048Y17137415D01*
X10901915Y17014494D01*
X10845342Y16877915D01*
X10820692Y16753992D01*
X10816500Y16732918D01*
X2977022Y16732918D01*
X2976869Y16753843D01*
X2974734Y16780996D01*
X2976639Y16785353D01*
X2976622Y16787785D01*
X2979405Y16791677D01*
X2988682Y16812881D01*
X3053632Y16910085D01*
X3129051Y17092164D01*
X3167500Y17285458D01*
X3167500Y17482540D01*
X3129051Y17675834D01*
X3053632Y17857913D01*
X2944139Y18021781D01*
X2804782Y18161138D01*
X2640914Y18270631D01*
X2640915Y18270631D01*
X2640913Y18270632D01*
X2588033Y18292535D01*
X2541507Y18332271D01*
X2527223Y18391766D01*
X2550637Y18448294D01*
X2588033Y18475463D01*
X2601696Y18481123D01*
X2640914Y18497367D01*
X2804782Y18606860D01*
X2944139Y18746217D01*
X3053632Y18910085D01*
X3129051Y19092164D01*
X3167500Y19285458D01*
X3167500Y19482540D01*
X3129051Y19675834D01*
X3053632Y19857913D01*
X2944139Y20021781D01*
X2804782Y20161138D01*
X2640914Y20270631D01*
X2640915Y20270631D01*
X2640913Y20270632D01*
X2588033Y20292535D01*
X2541507Y20332271D01*
X2527223Y20391766D01*
X2550637Y20448294D01*
X2588033Y20475463D01*
X2612011Y20485395D01*
X2640914Y20497367D01*
X2804782Y20606860D01*
X2944139Y20746217D01*
X3053632Y20910085D01*
X3129051Y21092164D01*
X3167500Y21285458D01*
X3167500Y21482540D01*
X3129051Y21675834D01*
X3111033Y21719332D01*
X3098220Y21750268D01*
X3093420Y21811265D01*
X3119678Y21858155D01*
X3573995Y22312472D01*
X7665454Y22312472D01*
X7665454Y22164635D01*
X7694099Y22020627D01*
X7694296Y22019640D01*
X7750870Y21883058D01*
X7832343Y21761125D01*
X7833004Y21760136D01*
X7859410Y21733729D01*
X7887186Y21679212D01*
X7877614Y21618780D01*
X7859412Y21593727D01*
X7853104Y21587419D01*
X7770968Y21464494D01*
X7714395Y21327915D01*
X7685553Y21182919D01*
X7685553Y21182918D01*
X7685553Y21035082D01*
X7714395Y20890087D01*
X7770969Y20753505D01*
X7853102Y20630584D01*
X7898917Y20584769D01*
X7926693Y20530254D01*
X7917122Y20469822D01*
X7898917Y20444765D01*
X7883173Y20429021D01*
X7801038Y20306097D01*
X7744466Y20169519D01*
X7715624Y20024523D01*
X7715624Y19876686D01*
X7744466Y19731690D01*
X7795678Y19608054D01*
X7801040Y19595109D01*
X7883173Y19472188D01*
X7987708Y19367653D01*
X8110629Y19285520D01*
X8247211Y19228946D01*
X8392206Y19200104D01*
X8392207Y19200104D01*
X8540041Y19200104D01*
X8540042Y19200104D01*
X8685037Y19228946D01*
X8785879Y19270717D01*
X8846873Y19275517D01*
X8899042Y19243548D01*
X8922457Y19187020D01*
X8915226Y19141367D01*
X8862020Y19012915D01*
X8833178Y18867919D01*
X8833178Y18720082D01*
X8862020Y18575086D01*
X8914539Y18448294D01*
X8918594Y18438505D01*
X9000727Y18315584D01*
X9105262Y18211049D01*
X9228183Y18128916D01*
X9364765Y18072342D01*
X9509760Y18043500D01*
X9509761Y18043500D01*
X9657595Y18043500D01*
X9657596Y18043500D01*
X9802591Y18072342D01*
X9939173Y18128916D01*
X10062094Y18211049D01*
X10166629Y18315584D01*
X10248762Y18438505D01*
X10305336Y18575087D01*
X10334178Y18720082D01*
X10334178Y18867918D01*
X10305336Y19012913D01*
X10248762Y19149495D01*
X10237343Y19166584D01*
X10220735Y19225470D01*
X10241912Y19282874D01*
X10292785Y19316868D01*
X10353923Y19314466D01*
X10374657Y19303903D01*
X10382798Y19298463D01*
X10382801Y19298461D01*
X10449785Y19270716D01*
X10519380Y19241889D01*
X10664375Y19213047D01*
X10664376Y19213047D01*
X10812210Y19213047D01*
X10812211Y19213047D01*
X10957206Y19241889D01*
X11093788Y19298463D01*
X11216709Y19380596D01*
X11321244Y19485131D01*
X11403377Y19608052D01*
X11459951Y19744634D01*
X11488793Y19889629D01*
X11488793Y20037465D01*
X11459951Y20182460D01*
X11403377Y20319042D01*
X11321244Y20441963D01*
X11308379Y20454828D01*
X11280604Y20509342D01*
X11290175Y20569774D01*
X11308378Y20594830D01*
X11324946Y20611397D01*
X11407079Y20734318D01*
X11463653Y20870900D01*
X11492495Y21015895D01*
X11492495Y21163731D01*
X11463653Y21308726D01*
X11407079Y21445308D01*
X11324946Y21568229D01*
X11289800Y21603375D01*
X11262025Y21657889D01*
X11271596Y21718321D01*
X11289801Y21743377D01*
X11307550Y21761125D01*
X11389683Y21884046D01*
X11446257Y22020628D01*
X11475099Y22165623D01*
X11475099Y22313459D01*
X11446257Y22458454D01*
X11389683Y22595036D01*
X11307550Y22717957D01*
X11203015Y22822492D01*
X11080094Y22904625D01*
X11057676Y22913911D01*
X10943513Y22961199D01*
X10798517Y22990041D01*
X10650681Y22990041D01*
X10650680Y22990041D01*
X10505684Y22961199D01*
X10371451Y22905598D01*
X10310454Y22900798D01*
X10258285Y22932767D01*
X10234871Y22989295D01*
X10245192Y23038631D01*
X10244275Y23039011D01*
X10270346Y23101954D01*
X10302710Y23180087D01*
X10331552Y23325082D01*
X10331552Y23472918D01*
X10302710Y23617913D01*
X10246136Y23754495D01*
X10164003Y23877416D01*
X10059468Y23981951D01*
X9936547Y24064084D01*
X9936545Y24064085D01*
X9799966Y24120658D01*
X9654970Y24149500D01*
X9507134Y24149500D01*
X9507133Y24149500D01*
X9362137Y24120658D01*
X9225558Y24064085D01*
X9102637Y23981952D01*
X8998100Y23877415D01*
X8915967Y23754494D01*
X8859394Y23617915D01*
X8830552Y23472919D01*
X8830552Y23325082D01*
X8859394Y23180086D01*
X8915966Y23043508D01*
X8924856Y23030203D01*
X8941464Y22971314D01*
X8920286Y22913911D01*
X8869412Y22879919D01*
X8808274Y22882321D01*
X8787539Y22892886D01*
X8771446Y22903639D01*
X8634868Y22960211D01*
X8489872Y22989053D01*
X8342036Y22989053D01*
X8342035Y22989053D01*
X8197039Y22960211D01*
X8060460Y22903638D01*
X7937539Y22821505D01*
X7833002Y22716968D01*
X7750869Y22594047D01*
X7694296Y22457468D01*
X7665454Y22312472D01*
X3573995Y22312472D01*
X5557510Y24295985D01*
X5629984Y24421515D01*
X5667500Y24561526D01*
X5667500Y24706474D01*
X5667500Y24952919D01*
X6206500Y24952919D01*
X6206500Y24805082D01*
X6235342Y24660086D01*
X6257389Y24606861D01*
X6291916Y24523505D01*
X6374049Y24400584D01*
X6478584Y24296049D01*
X6601505Y24213916D01*
X6738087Y24157342D01*
X6883082Y24128500D01*
X6883083Y24128500D01*
X7030917Y24128500D01*
X7030918Y24128500D01*
X7175913Y24157342D01*
X7312495Y24213916D01*
X7435416Y24296049D01*
X7539951Y24400584D01*
X7622084Y24523505D01*
X7678658Y24660087D01*
X7707500Y24805082D01*
X7707500Y24952918D01*
X7678658Y25097913D01*
X7622084Y25234495D01*
X7539951Y25357416D01*
X7435416Y25461951D01*
X7312495Y25544084D01*
X7312493Y25544085D01*
X7175914Y25600658D01*
X7030918Y25629500D01*
X6883082Y25629500D01*
X6883081Y25629500D01*
X6738085Y25600658D01*
X6601506Y25544085D01*
X6478585Y25461952D01*
X6374048Y25357415D01*
X6291915Y25234494D01*
X6235342Y25097915D01*
X6206500Y24952919D01*
X5667500Y24952919D01*
X5667500Y28641477D01*
X5629984Y28781487D01*
X5557510Y28907017D01*
X3183969Y31280558D01*
X3156192Y31335075D01*
X3156874Y31369872D01*
X3177501Y31473566D01*
X3177501Y31684436D01*
X3136363Y31891254D01*
X3055666Y32086073D01*
X3055664Y32086075D01*
X3055662Y32086081D01*
X2988460Y32186654D01*
X2938513Y32261405D01*
X2789405Y32410513D01*
X2739456Y32443888D01*
X2614080Y32527663D01*
X2614071Y32527667D01*
X2419252Y32608364D01*
X2212438Y32649501D01*
X2212436Y32649501D01*
X2001566Y32649501D01*
X2001563Y32649501D01*
X1794749Y32608364D01*
X1599930Y32527667D01*
X1599921Y32527663D01*
X1424597Y32410513D01*
X1424593Y32410510D01*
X1275492Y32261409D01*
X1275489Y32261405D01*
X1158339Y32086081D01*
X1158335Y32086072D01*
X1077638Y31891253D01*
X1036501Y31684439D01*
X1036501Y31473564D01*
X1077638Y31266750D01*
X1158335Y31071931D01*
X1158339Y31071922D01*
X1234530Y30957896D01*
X1275489Y30896597D01*
X1424597Y30747489D01*
X1489041Y30704429D01*
X1599921Y30630340D01*
X1599927Y30630338D01*
X1599929Y30630336D01*
X1794748Y30549639D01*
X2001566Y30508501D01*
X2001567Y30508501D01*
X2212435Y30508501D01*
X2212436Y30508501D01*
X2316128Y30529127D01*
X2376887Y30521936D01*
X2405444Y30502033D01*
X4537504Y28369973D01*
X4565281Y28315456D01*
X4566500Y28299969D01*
X4566500Y24903033D01*
X4547593Y24844842D01*
X4537504Y24833029D01*
X2115303Y22410829D01*
X2064614Y22383735D01*
X1875163Y22346050D01*
X1693086Y22270632D01*
X1529218Y22161138D01*
X1529214Y22161135D01*
X1389864Y22021785D01*
X1389861Y22021781D01*
X1280367Y21857913D01*
X1204949Y21675836D01*
X1204949Y21675834D01*
X1166500Y21482543D01*
X1166500Y21285456D01*
X1204949Y21092165D01*
X1204949Y21092163D01*
X1280367Y20910086D01*
X1306551Y20870899D01*
X1389861Y20746217D01*
X1529218Y20606860D01*
X1693086Y20497367D01*
X1735514Y20479793D01*
X1745967Y20475463D01*
X1792492Y20435726D01*
X1806776Y20376232D01*
X1783361Y20319704D01*
X1745967Y20292535D01*
X1693085Y20270631D01*
X1529218Y20161138D01*
X1529214Y20161135D01*
X1389864Y20021785D01*
X1389861Y20021781D01*
X1280367Y19857913D01*
X1204949Y19675836D01*
X1204949Y19675834D01*
X1166500Y19482543D01*
X1166500Y19285456D01*
X1204949Y19092165D01*
X1204949Y19092163D01*
X1280367Y18910086D01*
X1280368Y18910085D01*
X1389861Y18746217D01*
X1529218Y18606860D01*
X1693086Y18497367D01*
X1735514Y18479793D01*
X1745967Y18475463D01*
X1792492Y18435726D01*
X1806776Y18376232D01*
X1783361Y18319704D01*
X1745967Y18292535D01*
X1693085Y18270631D01*
X1529218Y18161138D01*
X1529214Y18161135D01*
X1389864Y18021785D01*
X1389861Y18021781D01*
X1280367Y17857913D01*
X1204949Y17675836D01*
X1204949Y17675834D01*
X1166500Y17482543D01*
X1166500Y17285456D01*
X1204949Y17092165D01*
X1204949Y17092163D01*
X1280366Y16910088D01*
X1345318Y16812880D01*
X1361926Y16753992D01*
X1340748Y16696588D01*
X1318165Y16676517D01*
X1318460Y16676111D01*
X1208403Y16596151D01*
X1842975Y15961579D01*
X1811742Y15948641D01*
X1688903Y15866563D01*
X1584437Y15762097D01*
X1502359Y15639258D01*
X1489421Y15608025D01*
X854849Y16242597D01*
X777176Y16135690D01*
X777174Y16135686D01*
X687710Y15960102D01*
X644445Y15916837D01*
X584013Y15907266D01*
X529496Y15935044D01*
X501719Y15989560D01*
X500500Y16005047D01*
X500500Y26762953D01*
X519407Y26821144D01*
X568907Y26857108D01*
X630093Y26857108D01*
X679593Y26821144D01*
X687710Y26807898D01*
X777174Y26632314D01*
X777178Y26632308D01*
X854849Y26525404D01*
X854850Y26525404D01*
X1489421Y27159976D01*
X1502359Y27128741D01*
X1584437Y27005902D01*
X1688903Y26901436D01*
X1811742Y26819358D01*
X1842973Y26806422D01*
X1208403Y26171851D01*
X1208403Y26171850D01*
X1318461Y26091887D01*
X1317783Y26090955D01*
X1354464Y26048011D01*
X1359268Y25987014D01*
X1345318Y25955121D01*
X1280367Y25857914D01*
X1204949Y25675836D01*
X1204949Y25675834D01*
X1166500Y25482543D01*
X1166500Y25482540D01*
X1166500Y25285458D01*
X1203805Y25097913D01*
X1204949Y25092165D01*
X1204949Y25092163D01*
X1280367Y24910086D01*
X1280368Y24910085D01*
X1389861Y24746217D01*
X1529218Y24606860D01*
X1693086Y24497367D01*
X1875165Y24421948D01*
X2068459Y24383499D01*
X2068460Y24383499D01*
X2265540Y24383499D01*
X2265541Y24383499D01*
X2458835Y24421948D01*
X2640914Y24497367D01*
X2804782Y24606860D01*
X2944139Y24746217D01*
X3053632Y24910085D01*
X3129051Y25092164D01*
X3167500Y25285458D01*
X3167500Y25482540D01*
X3129051Y25675834D01*
X3053632Y25857913D01*
X2988680Y25955121D01*
X2972072Y26014006D01*
X2993249Y26071410D01*
X3015835Y26091479D01*
X3015539Y26091887D01*
X3125595Y26171850D01*
X2491024Y26806421D01*
X2522258Y26819358D01*
X2645097Y26901436D01*
X2749563Y27005902D01*
X2831641Y27128741D01*
X2844578Y27159975D01*
X3479149Y26525404D01*
X3556821Y26632309D01*
X3556825Y26632314D01*
X3672947Y26860217D01*
X3751987Y27103480D01*
X3792000Y27356106D01*
X3792000Y27611893D01*
X3751987Y27864519D01*
X3672947Y28107782D01*
X3556825Y28335685D01*
X3556821Y28335691D01*
X3479149Y28442596D01*
X3479148Y28442596D01*
X2844577Y27808026D01*
X2831641Y27839257D01*
X2749563Y27962096D01*
X2645097Y28066562D01*
X2522258Y28148640D01*
X2491023Y28161578D01*
X3125595Y28796149D01*
X3125595Y28796150D01*
X3018691Y28873821D01*
X3018685Y28873825D01*
X2790782Y28989947D01*
X2547519Y29068987D01*
X2294893Y29108999D01*
X2039107Y29108999D01*
X1786480Y29068987D01*
X1543217Y28989947D01*
X1315314Y28873825D01*
X1315310Y28873823D01*
X1208403Y28796150D01*
X1842975Y28161578D01*
X1811742Y28148640D01*
X1688903Y28066562D01*
X1584437Y27962096D01*
X1502359Y27839257D01*
X1489421Y27808024D01*
X854849Y28442596D01*
X777176Y28335689D01*
X777174Y28335685D01*
X687710Y28160101D01*
X644445Y28116836D01*
X584013Y28107265D01*
X529496Y28135043D01*
X501719Y28189559D01*
X500500Y28205046D01*
X500500Y36764438D01*
X1036501Y36764438D01*
X1036501Y36553563D01*
X1077638Y36346749D01*
X1158335Y36151930D01*
X1158339Y36151921D01*
X1242114Y36026545D01*
X1275489Y35976596D01*
X1424597Y35827488D01*
X1499348Y35777541D01*
X1599921Y35710339D01*
X1599927Y35710337D01*
X1599929Y35710335D01*
X1794748Y35629638D01*
X2001566Y35588500D01*
X2001567Y35588500D01*
X2212435Y35588500D01*
X2212436Y35588500D01*
X2419254Y35629638D01*
X2614073Y35710335D01*
X2614076Y35710338D01*
X2614080Y35710339D01*
X2664705Y35744167D01*
X2789405Y35827488D01*
X2938513Y35976596D01*
X3021834Y36101296D01*
X3055662Y36151921D01*
X3055663Y36151925D01*
X3055666Y36151928D01*
X3136363Y36346747D01*
X3177501Y36553565D01*
X3177501Y36764435D01*
X3136363Y36971253D01*
X3055666Y37166072D01*
X3055664Y37166074D01*
X3055662Y37166080D01*
X2988460Y37266653D01*
X2938513Y37341404D01*
X2789405Y37490512D01*
X2739456Y37523887D01*
X2614080Y37607662D01*
X2614071Y37607666D01*
X2419252Y37688363D01*
X2212438Y37729500D01*
X2212436Y37729500D01*
X2001566Y37729500D01*
X2001563Y37729500D01*
X1794749Y37688363D01*
X1599930Y37607666D01*
X1599921Y37607662D01*
X1424597Y37490512D01*
X1424593Y37490509D01*
X1275492Y37341408D01*
X1275489Y37341404D01*
X1158339Y37166080D01*
X1158335Y37166071D01*
X1077638Y36971252D01*
X1036501Y36764438D01*
X500500Y36764438D01*
X500500Y41029639D01*
X704502Y41029639D01*
X704502Y40840670D01*
X734060Y40654041D01*
X792455Y40474322D01*
X864503Y40332918D01*
X878242Y40305955D01*
X989312Y40153081D01*
X1122929Y40019464D01*
X1275803Y39908394D01*
X1300446Y39895838D01*
X1343711Y39852575D01*
X1354502Y39807628D01*
X1354502Y39703922D01*
X1374919Y39627727D01*
X1374919Y39627726D01*
X1374920Y39627726D01*
X1374920Y39627725D01*
X1392018Y39563914D01*
X1464492Y39438384D01*
X3509906Y37392970D01*
X3537682Y37338455D01*
X3538901Y37322968D01*
X3538901Y36057633D01*
X3519994Y35999442D01*
X3509905Y35987629D01*
X2606491Y35084215D01*
X2534017Y34958685D01*
X2496501Y34818675D01*
X2496501Y33146523D01*
X2508730Y33100886D01*
X2508730Y33100884D01*
X2508731Y33100884D01*
X2534017Y33006515D01*
X2606491Y32880985D01*
X5549586Y29937890D01*
X5637139Y29887342D01*
X5675116Y29865416D01*
X5815126Y29827900D01*
X5815127Y29827900D01*
X5960075Y29827900D01*
X7870526Y29827900D01*
X7928717Y29808993D01*
X7964681Y29759493D01*
X7964681Y29698307D01*
X7940531Y29658899D01*
X7869049Y29587416D01*
X7869048Y29587415D01*
X7786915Y29464494D01*
X7730342Y29327915D01*
X7701500Y29182919D01*
X7701500Y29035082D01*
X7730342Y28890086D01*
X7786915Y28753507D01*
X7786916Y28753505D01*
X7799615Y28734500D01*
X7869048Y28630585D01*
X7883131Y28616502D01*
X7910907Y28561984D01*
X7901333Y28501552D01*
X7883131Y28476499D01*
X7874051Y28467419D01*
X7791915Y28344494D01*
X7735342Y28207915D01*
X7720847Y28135043D01*
X7706500Y28062918D01*
X7706500Y27915082D01*
X7735342Y27770087D01*
X7791916Y27633505D01*
X7874049Y27510584D01*
X7978584Y27406049D01*
X8101505Y27323916D01*
X8238087Y27267342D01*
X8383082Y27238500D01*
X8383083Y27238500D01*
X8530917Y27238500D01*
X8530918Y27238500D01*
X8675913Y27267342D01*
X8812495Y27323916D01*
X8935416Y27406049D01*
X8949023Y27419657D01*
X9003536Y27447434D01*
X9063968Y27437864D01*
X9089026Y27419660D01*
X9107637Y27401049D01*
X9230558Y27318916D01*
X9367140Y27262342D01*
X9512135Y27233500D01*
X9512136Y27233500D01*
X9659970Y27233500D01*
X9659971Y27233500D01*
X9804966Y27262342D01*
X9941548Y27318916D01*
X10064469Y27401049D01*
X10094024Y27430605D01*
X10148538Y27458381D01*
X10208970Y27448810D01*
X10234026Y27430607D01*
X10258584Y27406049D01*
X10381505Y27323916D01*
X10518087Y27267342D01*
X10663082Y27238500D01*
X10663083Y27238500D01*
X10810917Y27238500D01*
X10810918Y27238500D01*
X10955913Y27267342D01*
X11092495Y27323916D01*
X11215416Y27406049D01*
X11226994Y27417628D01*
X11281509Y27445407D01*
X11341941Y27435837D01*
X11366999Y27417633D01*
X11378584Y27406048D01*
X11501505Y27323915D01*
X11638087Y27267341D01*
X11783082Y27238499D01*
X11783083Y27238499D01*
X11930917Y27238499D01*
X11930918Y27238499D01*
X12075913Y27267341D01*
X12212495Y27323915D01*
X12335416Y27406048D01*
X12439951Y27510583D01*
X12522084Y27633504D01*
X12578658Y27770086D01*
X12607500Y27915081D01*
X12607500Y28062917D01*
X12578658Y28207912D01*
X12522084Y28344494D01*
X12439951Y28467415D01*
X12335416Y28571950D01*
X12212495Y28654083D01*
X12212493Y28654084D01*
X12075914Y28710657D01*
X11930918Y28739499D01*
X11783082Y28739499D01*
X11783081Y28739499D01*
X11638085Y28710657D01*
X11501507Y28654085D01*
X11378583Y28571950D01*
X11367001Y28560368D01*
X11312484Y28532592D01*
X11252052Y28542166D01*
X11226999Y28560368D01*
X11215416Y28571951D01*
X11092495Y28654084D01*
X11092493Y28654085D01*
X10955914Y28710658D01*
X10810918Y28739500D01*
X10663082Y28739500D01*
X10663081Y28739500D01*
X10518085Y28710658D01*
X10381507Y28654086D01*
X10258587Y28571954D01*
X10229029Y28542396D01*
X10174512Y28514620D01*
X10114080Y28524192D01*
X10089025Y28542395D01*
X10064469Y28566951D01*
X9941548Y28649084D01*
X9941546Y28649085D01*
X9804967Y28705658D01*
X9659971Y28734500D01*
X9512135Y28734500D01*
X9512134Y28734500D01*
X9367138Y28705658D01*
X9262185Y28662185D01*
X9201188Y28657385D01*
X9149019Y28689354D01*
X9125605Y28745882D01*
X9132835Y28791534D01*
X9173658Y28890087D01*
X9202500Y29035082D01*
X9202500Y29182918D01*
X9173658Y29327913D01*
X9117084Y29464495D01*
X9034951Y29587416D01*
X8963468Y29658899D01*
X8935693Y29713413D01*
X8945264Y29773845D01*
X8988529Y29817110D01*
X9033474Y29827900D01*
X11418568Y29827900D01*
X11476759Y29808993D01*
X11488572Y29798904D01*
X13698986Y27588490D01*
X13824516Y27516016D01*
X13964526Y27478500D01*
X16767968Y27478500D01*
X16826159Y27459593D01*
X16837971Y27449504D01*
X17017503Y27269973D01*
X17045281Y27215456D01*
X17046500Y27199969D01*
X17046500Y20500875D01*
X17027593Y20442684D01*
X17017509Y20430877D01*
X17014051Y20427420D01*
X17014051Y20427419D01*
X16931915Y20304494D01*
X16875342Y20167915D01*
X16846500Y20022919D01*
X16846500Y19875082D01*
X16875342Y19730086D01*
X16931915Y19593507D01*
X16931916Y19593505D01*
X17014049Y19470584D01*
X17118584Y19366049D01*
X17241505Y19283916D01*
X17378087Y19227342D01*
X17523082Y19198500D01*
X17523083Y19198500D01*
X17670917Y19198500D01*
X17670918Y19198500D01*
X17815913Y19227342D01*
X17952495Y19283916D01*
X18075416Y19366049D01*
X18179951Y19470584D01*
X18262084Y19593505D01*
X18318658Y19730087D01*
X18347500Y19875082D01*
X18347500Y20022918D01*
X18318658Y20167913D01*
X18262084Y20304495D01*
X18179951Y20427416D01*
X18179948Y20427419D01*
X18179948Y20427420D01*
X18176491Y20430877D01*
X18148718Y20485395D01*
X18147500Y20500875D01*
X18147500Y27541475D01*
X18128631Y27611893D01*
X18109984Y27681485D01*
X18058830Y27770086D01*
X18037510Y27807014D01*
X17447401Y28397124D01*
X17419625Y28451639D01*
X17429196Y28512071D01*
X17472461Y28555336D01*
X17491773Y28562750D01*
X17541286Y28576016D01*
X17666816Y28648490D01*
X19185711Y30167385D01*
X19258185Y30292915D01*
X19295701Y30432926D01*
X19295701Y30577874D01*
X19295701Y30881779D01*
X19314608Y30939970D01*
X19324691Y30951777D01*
X19328152Y30955237D01*
X19410285Y31078158D01*
X19466859Y31214740D01*
X19495701Y31359735D01*
X19495701Y31507571D01*
X19466859Y31652566D01*
X19410285Y31789148D01*
X19328152Y31912069D01*
X19223617Y32016604D01*
X19100696Y32098737D01*
X19100694Y32098738D01*
X18964115Y32155311D01*
X18819119Y32184153D01*
X18671283Y32184153D01*
X18671282Y32184153D01*
X18526286Y32155311D01*
X18389707Y32098738D01*
X18266786Y32016605D01*
X18162249Y31912068D01*
X18080116Y31789147D01*
X18023543Y31652568D01*
X17994701Y31507572D01*
X17994701Y31359735D01*
X18023543Y31214739D01*
X18076281Y31087419D01*
X18080117Y31078158D01*
X18162250Y30955237D01*
X18165706Y30951781D01*
X18193482Y30897266D01*
X18194701Y30881779D01*
X18194701Y30774433D01*
X18175794Y30716242D01*
X18165705Y30704429D01*
X17129772Y29668496D01*
X17075255Y29640719D01*
X17059768Y29639500D01*
X14791834Y29639500D01*
X14733643Y29658407D01*
X14721830Y29668496D01*
X12806859Y31583467D01*
X12779082Y31637984D01*
X12788653Y31698416D01*
X12831918Y31741681D01*
X12892350Y31751252D01*
X12914742Y31744937D01*
X12989088Y31714142D01*
X13134083Y31685300D01*
X13134084Y31685300D01*
X13281918Y31685300D01*
X13281919Y31685300D01*
X13426914Y31714142D01*
X13563496Y31770716D01*
X13686417Y31852849D01*
X13790952Y31957384D01*
X13873085Y32080305D01*
X13929659Y32216887D01*
X13958501Y32361882D01*
X13958501Y32509718D01*
X13929659Y32654713D01*
X13873085Y32791295D01*
X13790952Y32914216D01*
X13686417Y33018751D01*
X13563496Y33100884D01*
X13563494Y33100885D01*
X13426915Y33157458D01*
X13281919Y33186300D01*
X13134083Y33186300D01*
X13134082Y33186300D01*
X12989086Y33157458D01*
X12852507Y33100885D01*
X12729586Y33018752D01*
X12625049Y32914215D01*
X12542916Y32791294D01*
X12486343Y32654715D01*
X12457501Y32509719D01*
X12457501Y32361882D01*
X12486343Y32216886D01*
X12517135Y32142548D01*
X12521936Y32081552D01*
X12489966Y32029383D01*
X12433438Y32005968D01*
X12373943Y32020252D01*
X12355667Y32034659D01*
X11979813Y32410513D01*
X11546122Y32844204D01*
X11518347Y32898718D01*
X11527918Y32959150D01*
X11571183Y33002415D01*
X11631615Y33011986D01*
X11638145Y33010486D01*
X11642885Y33009544D01*
X11642888Y33009542D01*
X11787883Y32980700D01*
X11787884Y32980700D01*
X11935718Y32980700D01*
X11935719Y32980700D01*
X12080714Y33009542D01*
X12217296Y33066116D01*
X12340217Y33148249D01*
X12444752Y33252784D01*
X12526885Y33375705D01*
X12583459Y33512287D01*
X12612301Y33657282D01*
X12612301Y33805118D01*
X12583459Y33950113D01*
X12526885Y34086695D01*
X12444752Y34209616D01*
X12340217Y34314151D01*
X12217296Y34396284D01*
X12173500Y34414425D01*
X12080715Y34452858D01*
X11935719Y34481700D01*
X11787883Y34481700D01*
X11787882Y34481700D01*
X11642886Y34452858D01*
X11506307Y34396285D01*
X11383386Y34314152D01*
X11278849Y34209615D01*
X11196716Y34086694D01*
X11140143Y33950115D01*
X11117440Y33835980D01*
X11111301Y33805118D01*
X11111301Y33657282D01*
X11140143Y33512287D01*
X11140143Y33512286D01*
X11141092Y33507518D01*
X11139407Y33507183D01*
X11138336Y33453078D01*
X11101399Y33404299D01*
X11042846Y33386547D01*
X10985041Y33406603D01*
X10974808Y33415518D01*
X9830816Y34559510D01*
X9705286Y34631984D01*
X9705285Y34631985D01*
X9705282Y34631986D01*
X9661211Y34643795D01*
X9661211Y34643794D01*
X9565276Y34669500D01*
X9565275Y34669500D01*
X5619565Y34669500D01*
X5561374Y34688407D01*
X5537249Y34713499D01*
X5478513Y34801404D01*
X5329413Y34950505D01*
X5329408Y34950509D01*
X5329405Y34950512D01*
X5279456Y34983887D01*
X5154080Y35067662D01*
X5154071Y35067666D01*
X4959252Y35148363D01*
X4752438Y35189500D01*
X4752436Y35189500D01*
X4541566Y35189500D01*
X4541558Y35189500D01*
X4521190Y35185448D01*
X4460429Y35192641D01*
X4415500Y35234174D01*
X4403564Y35294184D01*
X4429181Y35349749D01*
X4431856Y35352531D01*
X4529911Y35450585D01*
X4602385Y35576115D01*
X4639901Y35716125D01*
X4639901Y37664475D01*
X4602385Y37804485D01*
X4588289Y37828900D01*
X4588289Y37828901D01*
X4529912Y37930013D01*
X4529911Y37930015D01*
X2626202Y39833724D01*
X2598425Y39888241D01*
X2607996Y39948673D01*
X2638016Y39983821D01*
X2687069Y40019460D01*
X2687075Y40019464D01*
X2820692Y40153081D01*
X2931762Y40305955D01*
X3017549Y40474322D01*
X3075942Y40654036D01*
X3077219Y40662103D01*
X3104994Y40716619D01*
X3159509Y40744399D01*
X3219941Y40734831D01*
X3263208Y40691569D01*
X3272782Y40662109D01*
X3274060Y40654039D01*
X3332454Y40474322D01*
X3404502Y40332918D01*
X3418241Y40305955D01*
X3529311Y40153081D01*
X3662928Y40019464D01*
X3815802Y39908394D01*
X3840445Y39895838D01*
X3883710Y39852575D01*
X3894501Y39807628D01*
X3894501Y39627725D01*
X3898329Y39613438D01*
X3903559Y39593917D01*
X3932015Y39487719D01*
X3932015Y39487718D01*
X3932017Y39487715D01*
X4004491Y39362185D01*
X6240586Y37126090D01*
X6366116Y37053616D01*
X6506126Y37016100D01*
X6506127Y37016100D01*
X6651075Y37016100D01*
X10424368Y37016100D01*
X10482559Y36997193D01*
X10494372Y36987104D01*
X15787504Y31693973D01*
X15815281Y31639456D01*
X15816500Y31623969D01*
X15816500Y31160875D01*
X15797593Y31102684D01*
X15787509Y31090877D01*
X15784051Y31087420D01*
X15784051Y31087419D01*
X15701915Y30964494D01*
X15645342Y30827915D01*
X15616500Y30682919D01*
X15616500Y30535082D01*
X15636820Y30432926D01*
X15645342Y30390087D01*
X15701916Y30253505D01*
X15784049Y30130584D01*
X15888584Y30026049D01*
X16011505Y29943916D01*
X16148087Y29887342D01*
X16293082Y29858500D01*
X16293083Y29858500D01*
X16440917Y29858500D01*
X16440918Y29858500D01*
X16585913Y29887342D01*
X16722495Y29943916D01*
X16845416Y30026049D01*
X16949951Y30130584D01*
X17032084Y30253505D01*
X17088658Y30390087D01*
X17117500Y30535082D01*
X17117500Y30682918D01*
X17088658Y30827913D01*
X17032084Y30964495D01*
X16949951Y31087416D01*
X16949948Y31087419D01*
X16949948Y31087420D01*
X16946491Y31090877D01*
X16918718Y31145395D01*
X16917500Y31160875D01*
X16917500Y31965476D01*
X16903800Y32016605D01*
X16879984Y32105486D01*
X16878570Y32107934D01*
X16866120Y32129501D01*
X16807511Y32231013D01*
X16807510Y32231015D01*
X14170865Y34867660D01*
X16783500Y34867660D01*
X16783500Y33001140D01*
X16786478Y32980701D01*
X16793427Y32933005D01*
X16826734Y32864876D01*
X16844802Y32827917D01*
X16927517Y32745202D01*
X16981285Y32718917D01*
X17032604Y32693828D01*
X17032605Y32693828D01*
X17032607Y32693827D01*
X17100740Y32683900D01*
X17100743Y32683900D01*
X18967257Y32683900D01*
X18967260Y32683900D01*
X19035393Y32693827D01*
X19140483Y32745202D01*
X19223198Y32827917D01*
X19274573Y32933007D01*
X19284500Y33001140D01*
X19284500Y33298358D01*
X19303407Y33356549D01*
X19352907Y33392513D01*
X19414093Y33392513D01*
X19463593Y33356549D01*
X19471710Y33343302D01*
X19504472Y33279001D01*
X19504473Y33278999D01*
X19504474Y33278998D01*
X19504476Y33278995D01*
X19620172Y33119754D01*
X19759354Y32980572D01*
X19918595Y32864876D01*
X20093975Y32775516D01*
X20281174Y32714691D01*
X20281175Y32714691D01*
X20281178Y32714690D01*
X20475580Y32683900D01*
X20475583Y32683900D01*
X20672420Y32683900D01*
X20866821Y32714690D01*
X20866822Y32714691D01*
X20866826Y32714691D01*
X21054025Y32775516D01*
X21229405Y32864876D01*
X21388646Y32980572D01*
X21527828Y33119754D01*
X21643524Y33278995D01*
X21732884Y33454375D01*
X21793709Y33641574D01*
X21796197Y33657284D01*
X21824500Y33835980D01*
X21824500Y34032821D01*
X21793710Y34227222D01*
X21765465Y34314151D01*
X21732884Y34414425D01*
X21643524Y34589805D01*
X21527828Y34749046D01*
X21388646Y34888228D01*
X21229405Y35003924D01*
X21229404Y35003925D01*
X21229402Y35003926D01*
X21054025Y35093284D01*
X20866821Y35154111D01*
X20672420Y35184900D01*
X20672417Y35184900D01*
X20475583Y35184900D01*
X20475580Y35184900D01*
X20281178Y35154111D01*
X20093974Y35093284D01*
X19918597Y35003926D01*
X19759355Y34888229D01*
X19620171Y34749045D01*
X19504474Y34589803D01*
X19471710Y34525498D01*
X19428445Y34482233D01*
X19368013Y34472662D01*
X19313496Y34500439D01*
X19285719Y34554956D01*
X19284500Y34570443D01*
X19284500Y34867657D01*
X19281503Y34888229D01*
X19274573Y34935793D01*
X19267377Y34950512D01*
X19223198Y35040882D01*
X19223198Y35040883D01*
X19140483Y35123598D01*
X19140481Y35123599D01*
X19035395Y35174973D01*
X19008139Y35178944D01*
X18967260Y35184900D01*
X17100740Y35184900D01*
X17066673Y35179937D01*
X17032604Y35174973D01*
X16927518Y35123599D01*
X16844801Y35040882D01*
X16793427Y34935796D01*
X16793427Y34935793D01*
X16783500Y34867660D01*
X14170865Y34867660D01*
X11031416Y38007110D01*
X10905886Y38079584D01*
X10765876Y38117100D01*
X10765875Y38117100D01*
X6847634Y38117100D01*
X6789443Y38136007D01*
X6777630Y38146096D01*
X5122067Y39801659D01*
X5094290Y39856176D01*
X5103861Y39916608D01*
X5133878Y39951754D01*
X5227074Y40019464D01*
X5360691Y40153081D01*
X5471761Y40305955D01*
X5557548Y40474322D01*
X5591346Y40578343D01*
X5627310Y40627842D01*
X5685501Y40646749D01*
X5743692Y40627842D01*
X5779656Y40578342D01*
X5784501Y40547749D01*
X5784501Y40051894D01*
X5789227Y40019460D01*
X5794428Y39983759D01*
X5845802Y39878673D01*
X5845803Y39878671D01*
X5928518Y39795956D01*
X5982286Y39769671D01*
X6033605Y39744582D01*
X6033606Y39744582D01*
X6033608Y39744581D01*
X6101741Y39734654D01*
X6101744Y39734654D01*
X7868258Y39734654D01*
X7868261Y39734654D01*
X7936394Y39744581D01*
X8041484Y39795956D01*
X8124199Y39878671D01*
X8175574Y39983761D01*
X8185501Y40051894D01*
X8185501Y41679119D01*
X14616501Y41679119D01*
X14616501Y41531282D01*
X14645343Y41386286D01*
X14700227Y41253784D01*
X14701917Y41249705D01*
X14784050Y41126784D01*
X14888585Y41022249D01*
X14892749Y41019467D01*
X14938323Y40989015D01*
X14976202Y40940965D01*
X14978604Y40879827D01*
X14944611Y40828953D01*
X14938323Y40824385D01*
X14888586Y40791152D01*
X14784049Y40686615D01*
X14701916Y40563694D01*
X14645343Y40427115D01*
X14616501Y40282119D01*
X14616501Y40134282D01*
X14645343Y39989286D01*
X14701915Y39852708D01*
X14733123Y39806001D01*
X14749731Y39747112D01*
X14733123Y39695999D01*
X14701915Y39649293D01*
X14645343Y39512715D01*
X14616501Y39367719D01*
X14616501Y39219882D01*
X14645343Y39074886D01*
X14701915Y38938308D01*
X14733123Y38891601D01*
X14749731Y38832712D01*
X14733123Y38781599D01*
X14701915Y38734893D01*
X14645343Y38598315D01*
X14616501Y38453319D01*
X14616501Y38305482D01*
X14645343Y38160486D01*
X14701916Y38023907D01*
X14701917Y38023905D01*
X14784050Y37900984D01*
X14888585Y37796449D01*
X15011506Y37714316D01*
X15148088Y37657742D01*
X15293083Y37628900D01*
X15293084Y37628900D01*
X15440918Y37628900D01*
X15440919Y37628900D01*
X15585914Y37657742D01*
X15722496Y37714316D01*
X15845417Y37796449D01*
X15949952Y37900984D01*
X16032085Y38023905D01*
X16088659Y38160487D01*
X16117501Y38305482D01*
X16117501Y38453318D01*
X16088659Y38598313D01*
X16032085Y38734895D01*
X16000878Y38781599D01*
X15993173Y38808919D01*
X20966501Y38808919D01*
X20966501Y38661082D01*
X20995343Y38516086D01*
X21021343Y38453317D01*
X21051917Y38379505D01*
X21134050Y38256584D01*
X21238585Y38152049D01*
X21361506Y38069916D01*
X21498088Y38013342D01*
X21643083Y37984500D01*
X21643084Y37984500D01*
X21790918Y37984500D01*
X21790919Y37984500D01*
X21935914Y38013342D01*
X22072496Y38069916D01*
X22195417Y38152049D01*
X22299952Y38256584D01*
X22382085Y38379505D01*
X22438659Y38516087D01*
X22467501Y38661082D01*
X22467501Y38808918D01*
X22438659Y38953913D01*
X22382085Y39090495D01*
X22299952Y39213416D01*
X22195417Y39317951D01*
X22072496Y39400084D01*
X22072494Y39400085D01*
X21935915Y39456658D01*
X21790919Y39485500D01*
X21643083Y39485500D01*
X21643082Y39485500D01*
X21498086Y39456658D01*
X21361507Y39400085D01*
X21238586Y39317952D01*
X21134049Y39213415D01*
X21051916Y39090494D01*
X20995343Y38953915D01*
X20966501Y38808919D01*
X15993173Y38808919D01*
X15984270Y38840485D01*
X16000879Y38891602D01*
X16032085Y38938305D01*
X16088659Y39074887D01*
X16117501Y39219882D01*
X16117501Y39367718D01*
X16088659Y39512713D01*
X16032085Y39649295D01*
X16000878Y39695999D01*
X15984270Y39754886D01*
X16000879Y39806002D01*
X16032085Y39852705D01*
X16088659Y39989287D01*
X16117501Y40134282D01*
X16117501Y40282118D01*
X16088659Y40427113D01*
X16074822Y40460519D01*
X18663501Y40460519D01*
X18663501Y40312682D01*
X18692343Y40167686D01*
X18745197Y40040086D01*
X18748917Y40031105D01*
X18831050Y39908184D01*
X18935585Y39803649D01*
X19058506Y39721516D01*
X19195088Y39664942D01*
X19340083Y39636100D01*
X19340084Y39636100D01*
X19487918Y39636100D01*
X19487919Y39636100D01*
X19632914Y39664942D01*
X19769496Y39721516D01*
X19892417Y39803649D01*
X19996952Y39908184D01*
X20079085Y40031105D01*
X20135659Y40167687D01*
X20164501Y40312682D01*
X20164501Y40460518D01*
X20135659Y40605513D01*
X20079085Y40742095D01*
X19996952Y40865016D01*
X19892417Y40969551D01*
X19769496Y41051684D01*
X19769494Y41051685D01*
X19632915Y41108258D01*
X19487919Y41137100D01*
X19340083Y41137100D01*
X19340082Y41137100D01*
X19195086Y41108258D01*
X19058507Y41051685D01*
X18935586Y40969552D01*
X18831049Y40865015D01*
X18748916Y40742094D01*
X18692343Y40605515D01*
X18663501Y40460519D01*
X16074822Y40460519D01*
X16032085Y40563695D01*
X15949952Y40686616D01*
X15845417Y40791151D01*
X15795679Y40824385D01*
X15757799Y40872434D01*
X15755397Y40933573D01*
X15789390Y40984446D01*
X15795679Y40989015D01*
X15841253Y41019467D01*
X15845417Y41022249D01*
X15949952Y41126784D01*
X16032085Y41249705D01*
X16088659Y41386287D01*
X16117501Y41531282D01*
X16117501Y41679118D01*
X16088659Y41824113D01*
X16078798Y41847919D01*
X20966501Y41847919D01*
X20966501Y41700082D01*
X20995343Y41555086D01*
X21051916Y41418507D01*
X21051917Y41418505D01*
X21134050Y41295584D01*
X21238585Y41191049D01*
X21361506Y41108916D01*
X21498088Y41052342D01*
X21643083Y41023500D01*
X21643084Y41023500D01*
X21790918Y41023500D01*
X21790919Y41023500D01*
X21935914Y41052342D01*
X22072496Y41108916D01*
X22195417Y41191049D01*
X22299952Y41295584D01*
X22382085Y41418505D01*
X22382089Y41418517D01*
X22382858Y41419952D01*
X22383400Y41420475D01*
X22384788Y41422550D01*
X22385243Y41422246D01*
X22426959Y41462364D01*
X22487567Y41470753D01*
X22541530Y41441916D01*
X22561637Y41411179D01*
X22571948Y41386287D01*
X22575917Y41376705D01*
X22658050Y41253784D01*
X22762585Y41149249D01*
X22818958Y41111582D01*
X22864843Y41080922D01*
X22902722Y41032872D01*
X22905124Y40971734D01*
X22871131Y40920860D01*
X22864843Y40916292D01*
X22753586Y40841952D01*
X22649049Y40737415D01*
X22566916Y40614494D01*
X22539270Y40547749D01*
X22510343Y40477913D01*
X22500238Y40427113D01*
X22481501Y40332919D01*
X22481501Y40185082D01*
X22510343Y40040086D01*
X22564892Y39908394D01*
X22566917Y39903505D01*
X22649050Y39780584D01*
X22753585Y39676049D01*
X22876506Y39593916D01*
X23013088Y39537342D01*
X23158083Y39508500D01*
X23158084Y39508500D01*
X23305918Y39508500D01*
X23305919Y39508500D01*
X23450914Y39537342D01*
X23587496Y39593916D01*
X23710417Y39676049D01*
X23814952Y39780584D01*
X23897085Y39903505D01*
X23953659Y40040087D01*
X23982501Y40185082D01*
X23982501Y40332918D01*
X23953659Y40477913D01*
X23897085Y40614495D01*
X23814952Y40737416D01*
X23710417Y40841951D01*
X23663524Y40873284D01*
X23608158Y40910279D01*
X23570279Y40958329D01*
X23567877Y41019467D01*
X23601870Y41070341D01*
X23608140Y41074897D01*
X23719417Y41149249D01*
X23823952Y41253784D01*
X23906085Y41376705D01*
X23962659Y41513287D01*
X23991501Y41658282D01*
X23991501Y41806118D01*
X23962659Y41951113D01*
X23906085Y42087695D01*
X23823952Y42210616D01*
X23719417Y42315151D01*
X23596496Y42397284D01*
X23596494Y42397285D01*
X23459915Y42453858D01*
X23314919Y42482700D01*
X23167083Y42482700D01*
X23167082Y42482700D01*
X23022086Y42453858D01*
X22885507Y42397285D01*
X22762586Y42315152D01*
X22658049Y42210615D01*
X22575911Y42087687D01*
X22575133Y42086231D01*
X22574589Y42085709D01*
X22573214Y42083650D01*
X22572762Y42083952D01*
X22531023Y42043828D01*
X22470414Y42035452D01*
X22416456Y42064300D01*
X22396364Y42095023D01*
X22382085Y42129495D01*
X22342892Y42188151D01*
X22299952Y42252416D01*
X22195417Y42356951D01*
X22072496Y42439084D01*
X22072494Y42439085D01*
X21935915Y42495658D01*
X21790919Y42524500D01*
X21643083Y42524500D01*
X21643082Y42524500D01*
X21498086Y42495658D01*
X21361507Y42439085D01*
X21238586Y42356952D01*
X21134049Y42252415D01*
X21051916Y42129494D01*
X20995343Y41992915D01*
X20966501Y41847919D01*
X16078798Y41847919D01*
X16032085Y41960695D01*
X15949952Y42083616D01*
X15845417Y42188151D01*
X15722496Y42270284D01*
X15722494Y42270285D01*
X15585915Y42326858D01*
X15440919Y42355700D01*
X15293083Y42355700D01*
X15293082Y42355700D01*
X15148086Y42326858D01*
X15011507Y42270285D01*
X14888586Y42188152D01*
X14784049Y42083615D01*
X14701916Y41960694D01*
X14645343Y41824115D01*
X14616501Y41679119D01*
X8185501Y41679119D01*
X8185501Y41818414D01*
X8175574Y41886547D01*
X8124199Y41991637D01*
X8041484Y42074352D01*
X8022534Y42083616D01*
X7936396Y42125727D01*
X7909140Y42129698D01*
X7868261Y42135654D01*
X6101741Y42135654D01*
X6067674Y42130691D01*
X6033605Y42125727D01*
X5928519Y42074353D01*
X5845802Y41991636D01*
X5794428Y41886550D01*
X5794428Y41886547D01*
X5785332Y41824113D01*
X5784501Y41818411D01*
X5784501Y41322560D01*
X5765594Y41264369D01*
X5716094Y41228405D01*
X5654908Y41228405D01*
X5605408Y41264369D01*
X5591346Y41291967D01*
X5590170Y41295586D01*
X5557548Y41395986D01*
X5471761Y41564353D01*
X5360691Y41717227D01*
X5227074Y41850844D01*
X5074200Y41961914D01*
X5074199Y41961915D01*
X5074197Y41961916D01*
X4905833Y42047701D01*
X4726114Y42106096D01*
X4539485Y42135654D01*
X4539482Y42135654D01*
X4350520Y42135654D01*
X4350517Y42135654D01*
X4163887Y42106096D01*
X3984168Y42047701D01*
X3815804Y41961916D01*
X3662929Y41850845D01*
X3529310Y41717226D01*
X3418239Y41564351D01*
X3332454Y41395987D01*
X3274060Y41216271D01*
X3272782Y41208199D01*
X3245002Y41153684D01*
X3190484Y41125908D01*
X3130052Y41135482D01*
X3086790Y41178748D01*
X3077219Y41208207D01*
X3075942Y41216268D01*
X3075942Y41216272D01*
X3017549Y41395986D01*
X2931762Y41564353D01*
X2820692Y41717227D01*
X2687075Y41850844D01*
X2534201Y41961914D01*
X2534200Y41961915D01*
X2534198Y41961916D01*
X2365834Y42047701D01*
X2186115Y42106096D01*
X1999486Y42135654D01*
X1999483Y42135654D01*
X1810521Y42135654D01*
X1810518Y42135654D01*
X1623888Y42106096D01*
X1444169Y42047701D01*
X1275805Y41961916D01*
X1122930Y41850845D01*
X989311Y41717226D01*
X878240Y41564351D01*
X792455Y41395987D01*
X734060Y41216268D01*
X704502Y41029639D01*
X500500Y41029639D01*
X500500Y43660719D01*
X14717701Y43660719D01*
X14717701Y43512882D01*
X14746543Y43367886D01*
X14794146Y43252962D01*
X14803117Y43231305D01*
X14885250Y43108384D01*
X14989785Y43003849D01*
X15112706Y42921716D01*
X15249288Y42865142D01*
X15394283Y42836300D01*
X15394284Y42836300D01*
X15542118Y42836300D01*
X15542119Y42836300D01*
X15687114Y42865142D01*
X15823696Y42921716D01*
X15946617Y43003849D01*
X16033199Y43090432D01*
X16087714Y43118207D01*
X16148146Y43108636D01*
X16173201Y43090433D01*
X16260185Y43003449D01*
X16383106Y42921316D01*
X16519688Y42864742D01*
X16664683Y42835900D01*
X16664684Y42835900D01*
X16812518Y42835900D01*
X16812519Y42835900D01*
X16957514Y42864742D01*
X17094096Y42921316D01*
X17217017Y43003449D01*
X17321552Y43107984D01*
X17330387Y43121207D01*
X17378435Y43159085D01*
X17439573Y43161487D01*
X17490447Y43127495D01*
X17511625Y43070091D01*
X17511701Y43066204D01*
X17511701Y43041282D01*
X17540543Y42896286D01*
X17565556Y42835900D01*
X17597117Y42759705D01*
X17679250Y42636784D01*
X17783785Y42532249D01*
X17906706Y42450116D01*
X18043288Y42393542D01*
X18188283Y42364700D01*
X18188284Y42364700D01*
X18336118Y42364700D01*
X18336119Y42364700D01*
X18481114Y42393542D01*
X18617696Y42450116D01*
X18740617Y42532249D01*
X18845152Y42636784D01*
X18927285Y42759705D01*
X18983859Y42896287D01*
X19012701Y43041282D01*
X19012701Y43189118D01*
X18983859Y43334113D01*
X18927285Y43470695D01*
X18845152Y43593616D01*
X18740617Y43698151D01*
X18617696Y43780284D01*
X18557266Y43805315D01*
X18481115Y43836858D01*
X18336119Y43865700D01*
X18188283Y43865700D01*
X18188282Y43865700D01*
X18043286Y43836858D01*
X17906707Y43780285D01*
X17783786Y43698152D01*
X17679248Y43593614D01*
X17670415Y43580394D01*
X17622364Y43542515D01*
X17561226Y43540115D01*
X17510353Y43574108D01*
X17489177Y43631513D01*
X17489101Y43635397D01*
X17489101Y43660317D01*
X17489101Y43660318D01*
X17460259Y43805313D01*
X17403685Y43941895D01*
X17321552Y44064816D01*
X17217017Y44169351D01*
X17094096Y44251484D01*
X17094094Y44251485D01*
X16957515Y44308058D01*
X16812519Y44336900D01*
X16664683Y44336900D01*
X16664682Y44336900D01*
X16519686Y44308058D01*
X16383107Y44251485D01*
X16260183Y44169350D01*
X16173603Y44082771D01*
X16119086Y44054994D01*
X16058654Y44064566D01*
X16033599Y44082769D01*
X15946617Y44169751D01*
X15823696Y44251884D01*
X15823694Y44251885D01*
X15687115Y44308458D01*
X15542119Y44337300D01*
X15394283Y44337300D01*
X15394282Y44337300D01*
X15249286Y44308458D01*
X15112707Y44251885D01*
X14989786Y44169752D01*
X14885249Y44065215D01*
X14803116Y43942294D01*
X14746543Y43805715D01*
X14717701Y43660719D01*
X500500Y43660719D01*
X500500Y45704309D01*
X519407Y45762500D01*
X568907Y45798464D01*
X630093Y45798464D01*
X679593Y45762500D01*
X687710Y45749254D01*
X766421Y45594773D01*
X766425Y45594767D01*
X900617Y45410069D01*
X900619Y45410067D01*
X900622Y45410063D01*
X1062064Y45248621D01*
X1062067Y45248619D01*
X1062069Y45248617D01*
X1214238Y45138059D01*
X1246773Y45114421D01*
X1450202Y45010769D01*
X1667341Y44940216D01*
X1667342Y44940216D01*
X1667345Y44940215D01*
X1892841Y44904500D01*
X1892844Y44904500D01*
X2121161Y44904500D01*
X2346656Y44940215D01*
X2346657Y44940216D01*
X2346661Y44940216D01*
X2563800Y45010769D01*
X2767229Y45114421D01*
X2880742Y45196895D01*
X2938930Y45215801D01*
X2997121Y45196894D01*
X3013659Y45179055D01*
X3017098Y45178653D01*
X4023212Y46184768D01*
X4034483Y46142708D01*
X4106891Y46017292D01*
X4209293Y45914890D01*
X4334709Y45842482D01*
X4376765Y45831213D01*
X3370652Y44825099D01*
X3370652Y44825098D01*
X3377871Y44820645D01*
X3377880Y44820641D01*
X3544307Y44765494D01*
X3647013Y44755001D01*
X5446987Y44755001D01*
X5549688Y44765493D01*
X5549703Y44765496D01*
X5716117Y44820639D01*
X5723347Y44825100D01*
X4717234Y45831213D01*
X4759293Y45842482D01*
X4884709Y45914890D01*
X4987111Y46017292D01*
X5059519Y46142708D01*
X5070788Y46184767D01*
X6076901Y45178654D01*
X6081362Y45185884D01*
X6136506Y45352304D01*
X6136507Y45352307D01*
X6147000Y45455013D01*
X6147000Y47254987D01*
X6136508Y47357688D01*
X6136505Y47357700D01*
X6081360Y47524121D01*
X6081356Y47524130D01*
X6076902Y47531349D01*
X5070788Y46525236D01*
X5059519Y46567292D01*
X4987111Y46692708D01*
X4884709Y46795110D01*
X4759293Y46867518D01*
X4717233Y46878789D01*
X5544809Y47706363D01*
X8044301Y47706363D01*
X8044301Y46527643D01*
X8044302Y46527638D01*
X8059756Y46410242D01*
X8059758Y46410234D01*
X8120263Y46264162D01*
X8120263Y46264161D01*
X8188718Y46174949D01*
X8216519Y46138718D01*
X8341960Y46042464D01*
X8341961Y46042464D01*
X8341962Y46042463D01*
X8488034Y45981958D01*
X8488039Y45981956D01*
X8605440Y45966500D01*
X9784161Y45966501D01*
X9901563Y45981956D01*
X10047642Y46042464D01*
X10173083Y46138718D01*
X10269337Y46264159D01*
X10329845Y46410238D01*
X10342855Y46509066D01*
X10369195Y46564290D01*
X10422966Y46593485D01*
X10483628Y46585499D01*
X10528011Y46543382D01*
X10529218Y46541088D01*
X10582940Y46435652D01*
X10582944Y46435647D01*
X10615324Y46391080D01*
X10615325Y46391080D01*
X11294801Y47070556D01*
X11294801Y47064339D01*
X11322060Y46962606D01*
X11374721Y46871394D01*
X11449195Y46796920D01*
X11540407Y46744259D01*
X11642140Y46717000D01*
X11648354Y46717000D01*
X10968879Y46037525D01*
X11013448Y46005142D01*
X11195773Y45912244D01*
X11390388Y45849009D01*
X11592486Y45817000D01*
X11797116Y45817000D01*
X11999213Y45849009D01*
X12193828Y45912244D01*
X12376143Y46005137D01*
X12376151Y46005142D01*
X12420721Y46037525D01*
X11741246Y46717000D01*
X11747462Y46717000D01*
X11849195Y46744259D01*
X11940407Y46796920D01*
X12014881Y46871394D01*
X12067542Y46962606D01*
X12094801Y47064339D01*
X12094801Y47070555D01*
X12774276Y46391080D01*
X12806659Y46435650D01*
X12806664Y46435658D01*
X12899557Y46617973D01*
X12962792Y46812588D01*
X12994801Y47014685D01*
X12994801Y47219316D01*
X12962792Y47421413D01*
X12899557Y47616028D01*
X12874780Y47664657D01*
X12853530Y47706363D01*
X15585402Y47706363D01*
X15585402Y46527643D01*
X15585403Y46527638D01*
X15600857Y46410242D01*
X15600859Y46410234D01*
X15661364Y46264162D01*
X15661364Y46264161D01*
X15729819Y46174949D01*
X15757620Y46138718D01*
X15883061Y46042464D01*
X15883062Y46042464D01*
X15883063Y46042463D01*
X16029135Y45981958D01*
X16029140Y45981956D01*
X16146541Y45966500D01*
X17325262Y45966501D01*
X17442664Y45981956D01*
X17588743Y46042464D01*
X17714184Y46138718D01*
X17810438Y46264159D01*
X17870946Y46410238D01*
X17883956Y46509066D01*
X17910296Y46564290D01*
X17964067Y46593485D01*
X18024729Y46585499D01*
X18069112Y46543382D01*
X18070319Y46541088D01*
X18124041Y46435652D01*
X18124045Y46435647D01*
X18156425Y46391080D01*
X18156426Y46391080D01*
X18835902Y47070556D01*
X18835902Y47064339D01*
X18863161Y46962606D01*
X18915822Y46871394D01*
X18990296Y46796920D01*
X19081508Y46744259D01*
X19183241Y46717000D01*
X19189455Y46717000D01*
X18509980Y46037525D01*
X18554549Y46005142D01*
X18736874Y45912244D01*
X18931489Y45849009D01*
X19133587Y45817000D01*
X19338217Y45817000D01*
X19540314Y45849009D01*
X19734929Y45912244D01*
X19917244Y46005137D01*
X19917252Y46005142D01*
X19961822Y46037525D01*
X19282347Y46717000D01*
X19288563Y46717000D01*
X19390296Y46744259D01*
X19481508Y46796920D01*
X19555982Y46871394D01*
X19608643Y46962606D01*
X19635902Y47064339D01*
X19635902Y47070555D01*
X20315377Y46391080D01*
X20347760Y46435650D01*
X20347765Y46435658D01*
X20440658Y46617973D01*
X20503893Y46812588D01*
X20535902Y47014685D01*
X20535902Y47219316D01*
X20503893Y47421413D01*
X20440658Y47616028D01*
X20415881Y47664657D01*
X20394631Y47706363D01*
X23126502Y47706363D01*
X23126502Y46527643D01*
X23126503Y46527638D01*
X23141957Y46410242D01*
X23141959Y46410234D01*
X23202464Y46264162D01*
X23202464Y46264161D01*
X23270919Y46174949D01*
X23298720Y46138718D01*
X23424161Y46042464D01*
X23424162Y46042464D01*
X23424163Y46042463D01*
X23570235Y45981958D01*
X23570240Y45981956D01*
X23687641Y45966500D01*
X24866362Y45966501D01*
X24983764Y45981956D01*
X25129843Y46042464D01*
X25255284Y46138718D01*
X25351538Y46264159D01*
X25412046Y46410238D01*
X25425056Y46509066D01*
X25451396Y46564290D01*
X25505167Y46593485D01*
X25565829Y46585499D01*
X25610212Y46543382D01*
X25611419Y46541088D01*
X25665141Y46435652D01*
X25665145Y46435647D01*
X25697525Y46391080D01*
X25697526Y46391080D01*
X26377002Y47070556D01*
X26377002Y47064339D01*
X26404261Y46962606D01*
X26456922Y46871394D01*
X26531396Y46796920D01*
X26622608Y46744259D01*
X26724341Y46717000D01*
X26730555Y46717000D01*
X26051080Y46037525D01*
X26095649Y46005142D01*
X26277974Y45912244D01*
X26472589Y45849009D01*
X26674687Y45817000D01*
X26879317Y45817000D01*
X27081414Y45849009D01*
X27276029Y45912244D01*
X27458344Y46005137D01*
X27458352Y46005142D01*
X27502922Y46037525D01*
X26823447Y46717000D01*
X26829663Y46717000D01*
X26931396Y46744259D01*
X27022608Y46796920D01*
X27097082Y46871394D01*
X27149743Y46962606D01*
X27177002Y47064339D01*
X27177002Y47070555D01*
X27856477Y46391080D01*
X27888860Y46435650D01*
X27888865Y46435658D01*
X27981758Y46617973D01*
X28044993Y46812588D01*
X28077002Y47014685D01*
X28077002Y47219316D01*
X28044993Y47421413D01*
X27981758Y47616028D01*
X27888860Y47798353D01*
X27856477Y47842922D01*
X27177002Y47163447D01*
X27177002Y47169661D01*
X27149743Y47271394D01*
X27097082Y47362606D01*
X27022608Y47437080D01*
X26931396Y47489741D01*
X26829663Y47517000D01*
X26823447Y47517000D01*
X27502922Y48196476D01*
X27502922Y48196477D01*
X27458355Y48228857D01*
X27458350Y48228861D01*
X27276029Y48321757D01*
X27081414Y48384992D01*
X26879317Y48417000D01*
X26674687Y48417000D01*
X26472589Y48384992D01*
X26277974Y48321757D01*
X26095653Y48228861D01*
X26095649Y48228859D01*
X26051080Y48196477D01*
X26730557Y47517000D01*
X26724341Y47517000D01*
X26622608Y47489741D01*
X26531396Y47437080D01*
X26456922Y47362606D01*
X26404261Y47271394D01*
X26377002Y47169661D01*
X26377002Y47163445D01*
X25697525Y47842922D01*
X25665143Y47798353D01*
X25665135Y47798339D01*
X25611417Y47692911D01*
X25568153Y47649646D01*
X25507721Y47640075D01*
X25453204Y47667853D01*
X25425427Y47722369D01*
X25425061Y47724890D01*
X25412046Y47823762D01*
X25362031Y47944508D01*
X25351539Y47969839D01*
X25351539Y47969840D01*
X25255288Y48095277D01*
X25255287Y48095278D01*
X25255284Y48095282D01*
X25255279Y48095286D01*
X25255278Y48095287D01*
X25184106Y48149899D01*
X25129843Y48191536D01*
X25129842Y48191537D01*
X25129840Y48191538D01*
X24983768Y48252043D01*
X24983760Y48252045D01*
X24866363Y48267500D01*
X23687644Y48267500D01*
X23687639Y48267499D01*
X23570243Y48252045D01*
X23570235Y48252043D01*
X23424163Y48191538D01*
X23424162Y48191538D01*
X23298725Y48095287D01*
X23298715Y48095277D01*
X23202464Y47969840D01*
X23202464Y47969839D01*
X23141959Y47823767D01*
X23141957Y47823759D01*
X23126502Y47706363D01*
X20394631Y47706363D01*
X20347760Y47798353D01*
X20315377Y47842922D01*
X19635902Y47163447D01*
X19635902Y47169661D01*
X19608643Y47271394D01*
X19555982Y47362606D01*
X19481508Y47437080D01*
X19390296Y47489741D01*
X19288563Y47517000D01*
X19282347Y47517000D01*
X19961822Y48196476D01*
X19961822Y48196477D01*
X19917255Y48228857D01*
X19917250Y48228861D01*
X19734929Y48321757D01*
X19540314Y48384992D01*
X19338217Y48417000D01*
X19133587Y48417000D01*
X18931489Y48384992D01*
X18736874Y48321757D01*
X18554553Y48228861D01*
X18554549Y48228859D01*
X18509980Y48196477D01*
X19189457Y47517000D01*
X19183241Y47517000D01*
X19081508Y47489741D01*
X18990296Y47437080D01*
X18915822Y47362606D01*
X18863161Y47271394D01*
X18835902Y47169661D01*
X18835902Y47163445D01*
X18156425Y47842922D01*
X18124043Y47798353D01*
X18124035Y47798339D01*
X18070317Y47692911D01*
X18027053Y47649646D01*
X17966621Y47640075D01*
X17912104Y47667853D01*
X17884327Y47722369D01*
X17883961Y47724890D01*
X17870946Y47823762D01*
X17820931Y47944508D01*
X17810439Y47969839D01*
X17810439Y47969840D01*
X17714188Y48095277D01*
X17714187Y48095278D01*
X17714184Y48095282D01*
X17714179Y48095286D01*
X17714178Y48095287D01*
X17643006Y48149899D01*
X17588743Y48191536D01*
X17588742Y48191537D01*
X17588740Y48191538D01*
X17442668Y48252043D01*
X17442660Y48252045D01*
X17325263Y48267500D01*
X16146544Y48267500D01*
X16146539Y48267499D01*
X16029143Y48252045D01*
X16029135Y48252043D01*
X15883063Y48191538D01*
X15883062Y48191538D01*
X15757625Y48095287D01*
X15757615Y48095277D01*
X15661364Y47969840D01*
X15661364Y47969839D01*
X15600859Y47823767D01*
X15600857Y47823759D01*
X15585402Y47706363D01*
X12853530Y47706363D01*
X12806659Y47798353D01*
X12774276Y47842922D01*
X12094801Y47163447D01*
X12094801Y47169661D01*
X12067542Y47271394D01*
X12014881Y47362606D01*
X11940407Y47437080D01*
X11849195Y47489741D01*
X11747462Y47517000D01*
X11741246Y47517000D01*
X12420721Y48196476D01*
X12420721Y48196477D01*
X12376154Y48228857D01*
X12376149Y48228861D01*
X12193828Y48321757D01*
X11999213Y48384992D01*
X11797116Y48417000D01*
X11592486Y48417000D01*
X11390388Y48384992D01*
X11195773Y48321757D01*
X11013452Y48228861D01*
X11013448Y48228859D01*
X10968879Y48196477D01*
X11648356Y47517000D01*
X11642140Y47517000D01*
X11540407Y47489741D01*
X11449195Y47437080D01*
X11374721Y47362606D01*
X11322060Y47271394D01*
X11294801Y47169661D01*
X11294801Y47163445D01*
X10615324Y47842922D01*
X10582942Y47798353D01*
X10582934Y47798339D01*
X10529216Y47692911D01*
X10485952Y47649646D01*
X10425520Y47640075D01*
X10371003Y47667853D01*
X10343226Y47722369D01*
X10342860Y47724890D01*
X10329845Y47823762D01*
X10279830Y47944508D01*
X10269338Y47969839D01*
X10269338Y47969840D01*
X10173087Y48095277D01*
X10173086Y48095278D01*
X10173083Y48095282D01*
X10173078Y48095286D01*
X10173077Y48095287D01*
X10101905Y48149899D01*
X10047642Y48191536D01*
X10047641Y48191537D01*
X10047639Y48191538D01*
X9901567Y48252043D01*
X9901559Y48252045D01*
X9784162Y48267500D01*
X8605443Y48267500D01*
X8605438Y48267499D01*
X8488042Y48252045D01*
X8488034Y48252043D01*
X8341962Y48191538D01*
X8341961Y48191538D01*
X8216524Y48095287D01*
X8216514Y48095277D01*
X8120263Y47969840D01*
X8120263Y47969839D01*
X8059758Y47823767D01*
X8059756Y47823759D01*
X8044301Y47706363D01*
X5544809Y47706363D01*
X5618052Y47779606D01*
X5723348Y47884903D01*
X5723348Y47884904D01*
X5716127Y47889358D01*
X5549694Y47944507D01*
X5446988Y47955000D01*
X4867152Y47955000D01*
X4808961Y47973907D01*
X4772997Y48023407D01*
X4772997Y48084593D01*
X4808961Y48134093D01*
X4829264Y48145463D01*
X4926180Y48185606D01*
X5057290Y48273211D01*
X5168790Y48384711D01*
X5256395Y48515821D01*
X5306589Y48637000D01*
X29077276Y48637000D01*
X29979940Y48637000D01*
X29957941Y48583890D01*
X29932001Y48453482D01*
X29932001Y48320518D01*
X29957941Y48190110D01*
X29979940Y48137000D01*
X29077276Y48137000D01*
X29095165Y48024046D01*
X29170560Y47792006D01*
X29281320Y47574626D01*
X29424726Y47377245D01*
X29597245Y47204726D01*
X29734922Y47104698D01*
X29770886Y47055198D01*
X29770886Y46994012D01*
X29734923Y46944513D01*
X29694638Y46915244D01*
X29694636Y46915242D01*
X29538759Y46759365D01*
X29527784Y46744259D01*
X29409184Y46581020D01*
X29309103Y46384600D01*
X29240985Y46174949D01*
X29206501Y45957226D01*
X29206501Y45736775D01*
X29240985Y45519052D01*
X29309103Y45309401D01*
X29309105Y45309398D01*
X29309106Y45309394D01*
X29337001Y45254648D01*
X29408450Y45114421D01*
X29409186Y45112978D01*
X29538759Y44934635D01*
X29694636Y44778758D01*
X29872979Y44649185D01*
X30069395Y44549105D01*
X30279050Y44480985D01*
X30366141Y44467191D01*
X30496776Y44446500D01*
X30496779Y44446500D01*
X30717226Y44446500D01*
X30826087Y44463743D01*
X30934952Y44480985D01*
X31144607Y44549105D01*
X31341023Y44649185D01*
X31519366Y44778758D01*
X31675243Y44934635D01*
X31796910Y45102097D01*
X31846408Y45138059D01*
X31907593Y45138059D01*
X31957091Y45102097D01*
X32078759Y44934635D01*
X32234636Y44778758D01*
X32412979Y44649185D01*
X32609395Y44549105D01*
X32819050Y44480985D01*
X32906141Y44467191D01*
X33036776Y44446500D01*
X33036779Y44446500D01*
X33257226Y44446500D01*
X33366087Y44463743D01*
X33474952Y44480985D01*
X33684607Y44549105D01*
X33881023Y44649185D01*
X34059366Y44778758D01*
X34215243Y44934635D01*
X34336910Y45102097D01*
X34386408Y45138059D01*
X34447593Y45138059D01*
X34497091Y45102097D01*
X34618759Y44934635D01*
X34774636Y44778758D01*
X34952979Y44649185D01*
X35149395Y44549105D01*
X35359050Y44480985D01*
X35446141Y44467191D01*
X35576776Y44446500D01*
X35576779Y44446500D01*
X35797226Y44446500D01*
X35906087Y44463743D01*
X36014952Y44480985D01*
X36224607Y44549105D01*
X36421023Y44649185D01*
X36599366Y44778758D01*
X36755243Y44934635D01*
X36876910Y45102097D01*
X36926408Y45138059D01*
X36987593Y45138059D01*
X37037091Y45102097D01*
X37158759Y44934635D01*
X37314636Y44778758D01*
X37492979Y44649185D01*
X37689395Y44549105D01*
X37899050Y44480985D01*
X37986141Y44467191D01*
X38116776Y44446500D01*
X38116779Y44446500D01*
X38337226Y44446500D01*
X38446087Y44463743D01*
X38554952Y44480985D01*
X38764607Y44549105D01*
X38961023Y44649185D01*
X39139366Y44778758D01*
X39295243Y44934635D01*
X39424816Y45112978D01*
X39524896Y45309394D01*
X39593016Y45519049D01*
X39610258Y45627914D01*
X39627501Y45736775D01*
X39627501Y45957226D01*
X39593016Y46174949D01*
X39593016Y46174951D01*
X39524896Y46384606D01*
X39424816Y46581022D01*
X39295243Y46759365D01*
X39139366Y46915242D01*
X39099077Y46944514D01*
X39063115Y46994011D01*
X39063115Y47055197D01*
X39099079Y47104697D01*
X39236756Y47204726D01*
X39409275Y47377245D01*
X39552681Y47574626D01*
X39663441Y47792006D01*
X39738836Y48024046D01*
X39756726Y48137000D01*
X38854062Y48137000D01*
X38876061Y48190110D01*
X38902001Y48320518D01*
X38902001Y48453482D01*
X38876061Y48583890D01*
X38854062Y48637000D01*
X39756726Y48637000D01*
X39738836Y48749955D01*
X39663441Y48981995D01*
X39552681Y49199375D01*
X39409275Y49396756D01*
X39236756Y49569275D01*
X39039375Y49712681D01*
X38821995Y49823441D01*
X38589955Y49898836D01*
X38477001Y49916726D01*
X38477001Y49014062D01*
X38423891Y49036060D01*
X38293483Y49062000D01*
X38160519Y49062000D01*
X38030111Y49036060D01*
X37977001Y49014062D01*
X37977001Y49916726D01*
X37864046Y49898836D01*
X37632006Y49823441D01*
X37414626Y49712681D01*
X37217245Y49569275D01*
X37044723Y49396753D01*
X37037092Y49386249D01*
X36987591Y49350287D01*
X36926406Y49350288D01*
X36876910Y49386249D01*
X36869278Y49396753D01*
X36696756Y49569275D01*
X36499375Y49712681D01*
X36281995Y49823441D01*
X36049955Y49898836D01*
X35937001Y49916726D01*
X35937001Y49014062D01*
X35883891Y49036060D01*
X35753483Y49062000D01*
X35620519Y49062000D01*
X35490111Y49036060D01*
X35437001Y49014062D01*
X35437001Y49916726D01*
X35324046Y49898836D01*
X35092006Y49823441D01*
X34874626Y49712681D01*
X34677245Y49569275D01*
X34504723Y49396753D01*
X34497092Y49386249D01*
X34447591Y49350287D01*
X34386406Y49350288D01*
X34336910Y49386249D01*
X34329278Y49396753D01*
X34156756Y49569275D01*
X33959375Y49712681D01*
X33741995Y49823441D01*
X33509955Y49898836D01*
X33397001Y49916726D01*
X33397001Y49014062D01*
X33343891Y49036060D01*
X33213483Y49062000D01*
X33080519Y49062000D01*
X32950111Y49036060D01*
X32897001Y49014062D01*
X32897001Y49916726D01*
X32784046Y49898836D01*
X32552006Y49823441D01*
X32334626Y49712681D01*
X32137245Y49569275D01*
X31964723Y49396753D01*
X31957092Y49386249D01*
X31907591Y49350287D01*
X31846406Y49350288D01*
X31796910Y49386249D01*
X31789278Y49396753D01*
X31616756Y49569275D01*
X31419375Y49712681D01*
X31201995Y49823441D01*
X30969955Y49898836D01*
X30857001Y49916726D01*
X30857001Y49014062D01*
X30803891Y49036060D01*
X30673483Y49062000D01*
X30540519Y49062000D01*
X30410111Y49036060D01*
X30357001Y49014062D01*
X30357001Y49916726D01*
X30244046Y49898836D01*
X30012006Y49823441D01*
X29794626Y49712681D01*
X29597245Y49569275D01*
X29424726Y49396756D01*
X29281320Y49199375D01*
X29170560Y48981995D01*
X29095165Y48749955D01*
X29077276Y48637000D01*
X5306589Y48637000D01*
X5316738Y48661503D01*
X5347501Y48816158D01*
X5347501Y48973842D01*
X5316738Y49128497D01*
X5256395Y49274179D01*
X5256394Y49274181D01*
X5256391Y49274186D01*
X5205541Y49350287D01*
X5168790Y49405289D01*
X5057290Y49516789D01*
X5005060Y49551688D01*
X4926186Y49604391D01*
X4926175Y49604397D01*
X4780498Y49664737D01*
X4625845Y49695500D01*
X4625843Y49695500D01*
X4468159Y49695500D01*
X4468156Y49695500D01*
X4313504Y49664737D01*
X4313502Y49664737D01*
X4167826Y49604397D01*
X4167815Y49604391D01*
X4036712Y49516789D01*
X4036708Y49516786D01*
X3925215Y49405293D01*
X3925212Y49405289D01*
X3837610Y49274186D01*
X3837604Y49274175D01*
X3777264Y49128499D01*
X3777264Y49128497D01*
X3746501Y48973845D01*
X3746501Y48816156D01*
X3777264Y48661504D01*
X3777264Y48661502D01*
X3837604Y48515826D01*
X3837610Y48515815D01*
X3890313Y48436941D01*
X3925212Y48384711D01*
X4036712Y48273211D01*
X4114877Y48220983D01*
X4167815Y48185610D01*
X4167826Y48185604D01*
X4214272Y48166366D01*
X4264735Y48145464D01*
X4311261Y48105728D01*
X4325545Y48046234D01*
X4302131Y47989705D01*
X4249962Y47957736D01*
X4226850Y47955000D01*
X3647014Y47955000D01*
X3544313Y47944508D01*
X3544298Y47944505D01*
X3377881Y47889361D01*
X3370652Y47884903D01*
X4376767Y46878788D01*
X4334709Y46867518D01*
X4209293Y46795110D01*
X4106891Y46692708D01*
X4034483Y46567292D01*
X4023213Y46525234D01*
X3017098Y47531349D01*
X3010668Y47530598D01*
X2976553Y47501629D01*
X2915543Y47497003D01*
X2880739Y47513109D01*
X2767234Y47595576D01*
X2767228Y47595580D01*
X2563800Y47699231D01*
X2444666Y47737940D01*
X2377750Y47759683D01*
X2346656Y47769786D01*
X2121161Y47805500D01*
X2121158Y47805500D01*
X1892844Y47805500D01*
X1892841Y47805500D01*
X1667345Y47769786D01*
X1450201Y47699231D01*
X1246773Y47595580D01*
X1246767Y47595576D01*
X1062069Y47461384D01*
X900617Y47299932D01*
X766425Y47115234D01*
X766421Y47115228D01*
X687710Y46960747D01*
X644445Y46917482D01*
X584013Y46907911D01*
X529496Y46935688D01*
X501719Y46990205D01*
X500500Y47005692D01*
X500500Y48973845D01*
X1206501Y48973845D01*
X1206501Y48816156D01*
X1237264Y48661504D01*
X1237264Y48661502D01*
X1297604Y48515826D01*
X1297610Y48515815D01*
X1350313Y48436941D01*
X1385212Y48384711D01*
X1496712Y48273211D01*
X1574877Y48220983D01*
X1627815Y48185610D01*
X1627826Y48185604D01*
X1681639Y48163315D01*
X1773504Y48125263D01*
X1928159Y48094500D01*
X1928160Y48094500D01*
X2085842Y48094500D01*
X2085843Y48094500D01*
X2240498Y48125263D01*
X2386180Y48185606D01*
X2517290Y48273211D01*
X2628790Y48384711D01*
X2716395Y48515821D01*
X2776738Y48661503D01*
X2807501Y48816158D01*
X2807501Y48973842D01*
X2776738Y49128497D01*
X2716395Y49274179D01*
X2716394Y49274181D01*
X2716391Y49274186D01*
X2665541Y49350287D01*
X2628790Y49405289D01*
X2517290Y49516789D01*
X2465060Y49551688D01*
X2386186Y49604391D01*
X2386175Y49604397D01*
X2240498Y49664737D01*
X2085845Y49695500D01*
X2085843Y49695500D01*
X1928159Y49695500D01*
X1928156Y49695500D01*
X1773504Y49664737D01*
X1773502Y49664737D01*
X1627826Y49604397D01*
X1627815Y49604391D01*
X1496712Y49516789D01*
X1496708Y49516786D01*
X1385215Y49405293D01*
X1385212Y49405289D01*
X1297610Y49274186D01*
X1297604Y49274175D01*
X1237264Y49128499D01*
X1237264Y49128497D01*
X1206501Y48973845D01*
X500500Y48973845D01*
X500500Y50073500D01*
X519407Y50131691D01*
X568907Y50167655D01*
X599500Y50172500D01*
X40878701Y50172500D01*
X40936892Y50153593D01*
G37*
%TD.AperFunction*%
%TA.AperFunction,Conductor*%
G36*
X18112504Y1817049D02*
G01*
X18140281Y1762532D01*
X18141500Y1747045D01*
X18141500Y1319955D01*
X18122593Y1261764D01*
X18073093Y1225800D01*
X18011907Y1225800D01*
X17972496Y1249951D01*
X17466025Y1756422D01*
X17497258Y1769359D01*
X17620097Y1851437D01*
X17724563Y1955903D01*
X17806641Y2078742D01*
X17819578Y2109975D01*
X18112504Y1817049D01*
G37*
%TD.AperFunction*%
%TD*%
M02*
