%TF.GenerationSoftware,KiCad,Pcbnew,10.0.0*%
%TF.CreationDate,2026-08-14T11:25:50-04:00*%
%TF.ProjectId,PWR_RPM5.0_AP2114,5057525f-5250-44d3-952e-305f41503231,rev?*%
%TF.SameCoordinates,PX9610427PY6ca4418*%
%TF.FileFunction,Copper,L1,Top*%
%TF.FilePolarity,Positive*%
%FSLAX46Y46*%
G04 Gerber Fmt 4.6, Leading zero omitted, Abs format (unit mm)*
G04 Created by KiCad (PCBNEW 10.0.0) date 2026-08-14 11:25:50*
%MOMM*%
%LPD*%
G01*
G04 APERTURE LIST*
G04 Aperture macros list*
%AMRoundRect*
0 Rectangle with rounded corners*
0 $1 Rounding radius*
0 $2 $3 $4 $5 $6 $7 $8 $9 X,Y pos of 4 corners*
0 Add a 4 corners polygon primitive as box body*
4,1,4,$2,$3,$4,$5,$6,$7,$8,$9,$2,$3,0*
0 Add four circle primitives for the rounded corners*
1,1,$1+$1,$2,$3*
1,1,$1+$1,$4,$5*
1,1,$1+$1,$6,$7*
1,1,$1+$1,$8,$9*
0 Add four rect primitives between the rounded corners*
20,1,$1+$1,$2,$3,$4,$5,0*
20,1,$1+$1,$4,$5,$6,$7,0*
20,1,$1+$1,$6,$7,$8,$9,0*
20,1,$1+$1,$8,$9,$2,$3,0*%
G04 Aperture macros list end*
%TA.AperFunction,ComponentPad*%
%ADD10O,2.200000X3.500000*%
%TD*%
%TA.AperFunction,ComponentPad*%
%ADD11O,1.500000X2.500000*%
%TD*%
%TA.AperFunction,ComponentPad*%
%ADD12R,1.500000X2.500000*%
%TD*%
%TA.AperFunction,ComponentPad*%
%ADD13C,1.600000*%
%TD*%
%TA.AperFunction,ComponentPad*%
%ADD14RoundRect,0.250000X-0.550000X-0.550000X0.550000X-0.550000X0.550000X0.550000X-0.550000X0.550000X0*%
%TD*%
%TA.AperFunction,ComponentPad*%
%ADD15C,2.200000*%
%TD*%
%TA.AperFunction,ComponentPad*%
%ADD16RoundRect,0.249999X-0.850001X0.850001X-0.850001X-0.850001X0.850001X-0.850001X0.850001X0.850001X0*%
%TD*%
%TA.AperFunction,ComponentPad*%
%ADD17C,1.440000*%
%TD*%
%TA.AperFunction,ComponentPad*%
%ADD18O,6.540000X3.270000*%
%TD*%
%TA.AperFunction,ComponentPad*%
%ADD19R,6.540000X3.270000*%
%TD*%
%TA.AperFunction,SMDPad,CuDef*%
%ADD20RoundRect,0.135000X0.185000X-0.135000X0.185000X0.135000X-0.185000X0.135000X-0.185000X-0.135000X0*%
%TD*%
%TA.AperFunction,ComponentPad*%
%ADD21R,1.800000X1.800000*%
%TD*%
%TA.AperFunction,ComponentPad*%
%ADD22C,1.800000*%
%TD*%
%TA.AperFunction,SMDPad,CuDef*%
%ADD23R,1.060000X1.060000*%
%TD*%
%TA.AperFunction,SMDPad,CuDef*%
%ADD24RoundRect,0.250000X0.650000X-0.412500X0.650000X0.412500X-0.650000X0.412500X-0.650000X-0.412500X0*%
%TD*%
%TA.AperFunction,SMDPad,CuDef*%
%ADD25RoundRect,0.135000X-0.135000X-0.185000X0.135000X-0.185000X0.135000X0.185000X-0.135000X0.185000X0*%
%TD*%
%TA.AperFunction,SMDPad,CuDef*%
%ADD26RoundRect,0.225000X-0.250000X0.225000X-0.250000X-0.225000X0.250000X-0.225000X0.250000X0.225000X0*%
%TD*%
%TA.AperFunction,SMDPad,CuDef*%
%ADD27RoundRect,0.135000X-0.185000X0.135000X-0.185000X-0.135000X0.185000X-0.135000X0.185000X0.135000X0*%
%TD*%
%TA.AperFunction,SMDPad,CuDef*%
%ADD28RoundRect,0.225000X0.225000X0.250000X-0.225000X0.250000X-0.225000X-0.250000X0.225000X-0.250000X0*%
%TD*%
%TA.AperFunction,ComponentPad*%
%ADD29C,1.300000*%
%TD*%
%TA.AperFunction,ComponentPad*%
%ADD30C,2.250000*%
%TD*%
%TA.AperFunction,SMDPad,CuDef*%
%ADD31RoundRect,0.375000X0.375000X-0.625000X0.375000X0.625000X-0.375000X0.625000X-0.375000X-0.625000X0*%
%TD*%
%TA.AperFunction,SMDPad,CuDef*%
%ADD32RoundRect,0.500000X1.400000X-0.500000X1.400000X0.500000X-1.400000X0.500000X-1.400000X-0.500000X0*%
%TD*%
%TA.AperFunction,SMDPad,CuDef*%
%ADD33RoundRect,0.250000X0.412500X0.650000X-0.412500X0.650000X-0.412500X-0.650000X0.412500X-0.650000X0*%
%TD*%
%TA.AperFunction,ComponentPad*%
%ADD34R,1.700000X1.700000*%
%TD*%
%TA.AperFunction,ComponentPad*%
%ADD35C,1.700000*%
%TD*%
%TA.AperFunction,ViaPad*%
%ADD36C,0.800000*%
%TD*%
%TA.AperFunction,Conductor*%
%ADD37C,0.400000*%
%TD*%
%TA.AperFunction,Conductor*%
%ADD38C,0.800000*%
%TD*%
%TA.AperFunction,Conductor*%
%ADD39C,1.500000*%
%TD*%
%TA.AperFunction,Conductor*%
%ADD40C,0.450000*%
%TD*%
%TA.AperFunction,Conductor*%
%ADD41C,0.200000*%
%TD*%
G04 APERTURE END LIST*
D10*
%TO.P,SW2,MH2,MH2_MH2*%
%TO.N,GND*%
X25342000Y2434000D03*
%TO.P,SW2,MH1,MH1_MH1*%
X17142000Y2434000D03*
D11*
%TO.P,SW2,3,C_3*%
%TO.N,unconnected-(SW2-C-Pad3)*%
X23242000Y2434000D03*
%TO.P,SW2,2,B_2*%
%TO.N,GND*%
X21242000Y2434000D03*
D12*
%TO.P,SW2,1,A_1*%
%TO.N,Net-(SW2-A)*%
X19242000Y2434000D03*
%TD*%
D13*
%TO.P,C8,2*%
%TO.N,GND*%
X22848442Y49019000D03*
D14*
%TO.P,C8,1*%
%TO.N,+3V3*%
X20348442Y49019000D03*
%TD*%
D13*
%TO.P,C7,2*%
%TO.N,GND*%
X14048442Y49019000D03*
D14*
%TO.P,C7,1*%
%TO.N,+5V0*%
X11548442Y49019000D03*
%TD*%
%TO.P,C5,1*%
%TO.N,/PWR_IN*%
X2697002Y49019000D03*
D13*
%TO.P,C5,2*%
%TO.N,GND*%
X5197002Y49019000D03*
%TD*%
D15*
%TO.P,J1,2,Pin_2_2*%
%TO.N,/PWR_IN*%
X4547001Y41111505D03*
D16*
%TO.P,J1,1,Pin_1_1*%
%TO.N,GND*%
X4547001Y43651505D03*
%TD*%
D17*
%TO.P,RV1,1,1_1*%
%TO.N,unconnected-(RV1-Pad1)*%
X2107001Y36659000D03*
%TO.P,RV1,2,2_2*%
%TO.N,Net-(U1-Trim)*%
X4647001Y34119000D03*
%TO.P,RV1,3,3_3*%
%TO.N,Net-(RV1-Pad3)*%
X2107001Y31579001D03*
%TD*%
D18*
%TO.P,J8,1,Pin_1_1*%
%TO.N,/PWR_IN*%
X11685358Y12064000D03*
D19*
%TO.P,J8,2,Pin_2_2*%
%TO.N,GND*%
X3785357Y12064000D03*
%TD*%
D20*
%TO.P,R4,1*%
%TO.N,Net-(D2-K)*%
X15417000Y16364002D03*
%TO.P,R4,2*%
%TO.N,GND*%
X15417000Y17384000D03*
%TD*%
D21*
%TO.P,D1,1,K_1*%
%TO.N,GND*%
X18567000Y8363999D03*
D22*
%TO.P,D1,2,A_2*%
%TO.N,Net-(D1-A)*%
X18567000Y10903999D03*
%TD*%
D23*
%TO.P,U1,A1,+VIN_A1*%
%TO.N,/PWR_IN*%
X9581053Y19954000D03*
%TO.P,U1,A2,+VIN_A2*%
X9581052Y22244000D03*
%TO.P,U1,A3,GND_A3*%
%TO.N,GND*%
X9581053Y24534000D03*
%TO.P,U1,A4,GND_A4*%
X9581052Y26824000D03*
%TO.P,U1,A5,+VOUT_A5*%
%TO.N,+5V0*%
X9581053Y29114000D03*
%TO.P,U1,B1,GND_B1*%
%TO.N,GND*%
X11871053Y19953999D03*
%TO.P,U1,B2,GND_B2*%
X11871053Y22244000D03*
%TO.P,U1,B3,GND_B3*%
X11871052Y24534000D03*
%TO.P,U1,B4,GND_B4*%
X11871053Y26824000D03*
%TO.P,U1,B5,+VOUT_B5*%
%TO.N,+5V0*%
X11871053Y29114001D03*
%TO.P,U1,C1,CTRL_C1*%
%TO.N,Net-(SW2-A)*%
X14161053Y19954000D03*
%TO.P,U1,C2,GND_C2*%
%TO.N,GND*%
X14161053Y22243999D03*
%TO.P,U1,C3,GND_C3*%
X14161053Y24534000D03*
%TO.P,U1,C4,GND_C4*%
X14161053Y26824001D03*
%TO.P,U1,C5,Sense_C5*%
%TO.N,Net-(J9-Pin_2)*%
X14161053Y29114000D03*
%TO.P,U1,D1,PGood_D1*%
%TO.N,Net-(U1-PGood)*%
X16451053Y19953999D03*
%TO.P,U1,D2,GND_D2*%
%TO.N,GND*%
X16451053Y22244000D03*
%TO.P,U1,D3,GND_D3*%
X16451054Y24534000D03*
%TO.P,U1,D4,GND_D4*%
X16451053Y26824000D03*
%TO.P,U1,D5,GND_D5*%
X16451053Y29114001D03*
%TO.P,U1,E1,SEQ_E1*%
%TO.N,Net-(J9-Pin_3)*%
X18741053Y19954000D03*
%TO.P,U1,E2,NC_E2*%
%TO.N,unconnected-(U1-NC-PadE2)*%
X18741054Y22244000D03*
%TO.P,U1,E3,GND_E3*%
%TO.N,GND*%
X18741053Y24534000D03*
%TO.P,U1,E4,GND_E4*%
X18741054Y26824000D03*
%TO.P,U1,E5,Trim_E5*%
%TO.N,Net-(U1-Trim)*%
X18741053Y29114000D03*
%TD*%
D24*
%TO.P,C12,1*%
%TO.N,+3V3*%
X21697000Y39009000D03*
%TO.P,C12,2*%
%TO.N,GND*%
X21697000Y42134000D03*
%TD*%
D25*
%TO.P,R3,1*%
%TO.N,GND*%
X5907001Y19332664D03*
%TO.P,R3,2*%
%TO.N,Net-(R3-Pad2)*%
X6926999Y19332664D03*
%TD*%
D26*
%TO.P,C11,1*%
%TO.N,+5V0*%
X13742000Y34159000D03*
%TO.P,C11,2*%
%TO.N,GND*%
X13742000Y32609000D03*
%TD*%
D21*
%TO.P,D3,1,K_1*%
%TO.N,Net-(D3-K)*%
X19987000Y33934000D03*
D22*
%TO.P,D3,2,A_2*%
%TO.N,+3V3*%
X17447000Y33934000D03*
%TD*%
D26*
%TO.P,C13,1*%
%TO.N,+3V3*%
X12492001Y34159000D03*
%TO.P,C13,2*%
%TO.N,GND*%
X12492001Y32609000D03*
%TD*%
D27*
%TO.P,R5,1*%
%TO.N,Net-(D3-K)*%
X14842000Y33443999D03*
%TO.P,R5,2*%
%TO.N,GND*%
X14842000Y32424001D03*
%TD*%
D24*
%TO.P,C10,1*%
%TO.N,+5V0*%
X19597000Y37446500D03*
%TO.P,C10,2*%
%TO.N,GND*%
X19597000Y40571500D03*
%TD*%
D28*
%TO.P,C9,1*%
%TO.N,/PWR_IN*%
X11342000Y14984858D03*
%TO.P,C9,2*%
%TO.N,GND*%
X9792000Y14984858D03*
%TD*%
D29*
%TO.P,SW1,1,1_1*%
%TO.N,Net-(R6-Pad1)*%
X2167000Y25383999D03*
%TO.P,SW1,2,2_2*%
%TO.N,Net-(RV1-Pad3)*%
X2167000Y21383999D03*
%TO.P,SW1,3,3_3*%
%TO.N,unconnected-(SW1-Pad3)*%
X2167000Y19383999D03*
%TO.P,SW1,4,4_4*%
%TO.N,Net-(R3-Pad2)*%
X2167000Y17383999D03*
D30*
%TO.P,SW1,MH1,MH_MH1*%
%TO.N,GND*%
X2167000Y27483999D03*
%TO.P,SW1,MH2,MH_MH2*%
X2167000Y15284000D03*
%TD*%
D31*
%TO.P,U2,1,GND_1*%
%TO.N,GND*%
X12697000Y37109000D03*
%TO.P,U2,2,VOUT_2*%
%TO.N,+3V3*%
X14997000Y37109001D03*
%TO.P,U2,3,VIN_3*%
%TO.N,+5V0*%
X17297000Y37109000D03*
D32*
%TO.P,U2,4,GND_4*%
%TO.N,GND*%
X14997000Y43408999D03*
%TD*%
D25*
%TO.P,R6,1*%
%TO.N,Net-(R6-Pad1)*%
X5932001Y23963247D03*
%TO.P,R6,2*%
%TO.N,+5V0*%
X6951999Y23963247D03*
%TD*%
D33*
%TO.P,C6,1*%
%TO.N,/PWR_IN*%
X13129500Y16659000D03*
%TO.P,C6,2*%
%TO.N,GND*%
X10004500Y16659000D03*
%TD*%
D21*
%TO.P,D2,1,K_1*%
%TO.N,Net-(D2-K)*%
X18567000Y16429001D03*
D22*
%TO.P,D2,2,A_2*%
%TO.N,+5V0*%
X18567000Y13889001D03*
%TD*%
D34*
%TO.P,J9,1,Pin_1_1*%
%TO.N,+5V0*%
X10177000Y34869001D03*
D35*
%TO.P,J9,2,Pin_2_2*%
%TO.N,Net-(J9-Pin_2)*%
X10177000Y37409001D03*
%TO.P,J9,3,Pin_3_3*%
%TO.N,Net-(J9-Pin_3)*%
X10177000Y39949000D03*
%TD*%
D27*
%TO.P,R1,1*%
%TO.N,Net-(U1-PGood)*%
X14417000Y17384000D03*
%TO.P,R1,2*%
%TO.N,Net-(D1-A)*%
X14417000Y16364002D03*
%TD*%
D35*
%TO.P,J5,1,Pin_1_1*%
%TO.N,GND*%
X30607001Y4699000D03*
%TO.P,J5,2,Pin_2_2*%
%TO.N,+5V0*%
X30607001Y2159000D03*
%TO.P,J5,3,Pin_3_3*%
%TO.N,GND*%
X33147001Y4699000D03*
%TO.P,J5,4,Pin_4_4*%
%TO.N,+5V0*%
X33147001Y2159000D03*
%TO.P,J5,5,Pin_5_5*%
%TO.N,GND*%
X35687001Y4699000D03*
%TO.P,J5,6,Pin_6_6*%
%TO.N,+5V0*%
X35687001Y2159000D03*
%TO.P,J5,7,Pin_7_7*%
%TO.N,GND*%
X38227001Y4699000D03*
%TO.P,J5,8,Pin_8_8*%
%TO.N,+5V0*%
X38227001Y2159000D03*
%TD*%
%TO.P,J6,1,Pin_1_1*%
%TO.N,GND*%
X30607001Y50419000D03*
%TO.P,J6,2,Pin_2_2*%
%TO.N,+3V3*%
X30607001Y47879000D03*
%TO.P,J6,3,Pin_3_3*%
%TO.N,GND*%
X33147001Y50419000D03*
%TO.P,J6,4,Pin_4_4*%
%TO.N,+3V3*%
X33147001Y47879000D03*
%TO.P,J6,5,Pin_5_5*%
%TO.N,GND*%
X35687001Y50419000D03*
%TO.P,J6,6,Pin_6_6*%
%TO.N,+3V3*%
X35687001Y47879000D03*
%TO.P,J6,7,Pin_7_7*%
%TO.N,GND*%
X38227001Y50419000D03*
%TO.P,J6,8,Pin_8_8*%
%TO.N,+3V3*%
X38227001Y47879000D03*
%TD*%
D36*
%TO.N,GND*%
X4775026Y19324627D03*
%TO.N,Net-(SW2-A)*%
X14161053Y21109000D03*
%TO.N,GND*%
X13742000Y31434000D03*
X15042000Y31434000D03*
X15113001Y44909000D03*
X11312000Y32609001D03*
X9586053Y25659000D03*
X13037587Y26827680D03*
X13417000Y14859000D03*
X12996054Y24529000D03*
X8442000Y16659000D03*
X14097000Y41899000D03*
X10751052Y26839000D03*
X11876998Y25691986D03*
X15327527Y26827651D03*
X15097000Y41889000D03*
X11865937Y23408754D03*
X10717000Y24521986D03*
X14156053Y25698999D03*
X15288932Y24513456D03*
X16267000Y17884000D03*
X16449963Y25683240D03*
X16448662Y23392995D03*
X16113001Y44899000D03*
X13011053Y22244000D03*
X11862356Y21117267D03*
X13097000Y41909000D03*
X8442000Y14984858D03*
X14154147Y23394001D03*
X14113001Y44919000D03*
X20137000Y42129000D03*
X15311053Y22244000D03*
%TO.N,+3V3*%
X14087000Y39759000D03*
X13331999Y35444001D03*
X13087000Y39759000D03*
X14087000Y40759000D03*
X15087000Y39759000D03*
X13087000Y40759000D03*
X15087000Y40759000D03*
X21637000Y40584000D03*
%TO.N,Net-(U1-Trim)*%
X18747000Y30409000D03*
%TO.N,/PWR_IN*%
X8415954Y22238553D03*
X9583678Y18794000D03*
X8436053Y21109000D03*
X10738293Y19963547D03*
X9581052Y23399000D03*
X8416501Y19949309D03*
X13142000Y18209000D03*
X10724599Y22239541D03*
X9587355Y21100188D03*
X11567000Y16659000D03*
%TO.N,+5V0*%
X11857000Y27988999D03*
X19622000Y39034000D03*
X8452000Y29109000D03*
X10737000Y27989000D03*
X8457000Y27989000D03*
X6957000Y24879000D03*
X9586053Y27984000D03*
X17297000Y39034000D03*
%TO.N,Net-(J9-Pin_2)*%
X16367000Y30609000D03*
%TO.N,Net-(J9-Pin_3)*%
X17597000Y19949000D03*
%TD*%
%TO.N,GND*%
D37*
X4783063Y19332664D02*
X4775026Y19324627D01*
X5907001Y19332664D02*
X4783063Y19332664D01*
%TO.N,Net-(R3-Pad2)*%
X2167000Y17383999D02*
X6208000Y17383999D01*
X6208000Y17383999D02*
X6926999Y18102998D01*
X6926999Y18102998D02*
X6926999Y19332664D01*
%TO.N,Net-(SW2-A)*%
X14161053Y19954000D02*
X14161053Y21109000D01*
%TO.N,/PWR_IN*%
D38*
X8430739Y19963547D02*
X8416501Y19949309D01*
X10738293Y19963547D02*
X8430739Y19963547D01*
X9585511Y22239541D02*
X9581052Y22244000D01*
X10724599Y22239541D02*
X9585511Y22239541D01*
%TO.N,Net-(D1-A)*%
D37*
X16192000Y14074001D02*
X14417000Y15849001D01*
X14417000Y15849001D02*
X14417000Y16364002D01*
X16497001Y10903999D02*
X16192000Y11209000D01*
X16192000Y11209000D02*
X16192000Y14074001D01*
X18567000Y10903999D02*
X16497001Y10903999D01*
%TO.N,/PWR_IN*%
D38*
X11342000Y12307358D02*
X11585358Y12064000D01*
X11342000Y14984858D02*
X11342000Y12307358D01*
%TO.N,GND*%
D39*
X3685357Y12064000D02*
X3685357Y8590643D01*
D40*
X4210489Y12589132D02*
X7504258Y12589132D01*
X3685357Y12064000D02*
X4210489Y12589132D01*
D39*
X3685357Y12064000D02*
X7002000Y12064000D01*
D40*
X4217211Y11532146D02*
X7508608Y11532146D01*
X3685357Y12064000D02*
X4217211Y11532146D01*
D39*
X4667000Y12064000D02*
X4667000Y14317357D01*
X3685357Y8590643D02*
X3837000Y8439000D01*
%TO.N,Net-(D2-K)*%
D37*
X15417000Y16364002D02*
X18502001Y16364002D01*
X18502001Y16364002D02*
X18567000Y16429001D01*
%TO.N,GND*%
X14163932Y24518456D02*
X16453931Y24518456D01*
X16452855Y26822527D02*
X16452855Y27982526D01*
X11870937Y24533754D02*
X11870937Y22243755D01*
X15417000Y17384000D02*
X15767000Y17384000D01*
D38*
X9581052Y26824000D02*
X9581052Y24534001D01*
D37*
X14159148Y23389000D02*
X14154147Y23394001D01*
D38*
X13742000Y32609000D02*
X13742000Y31434000D01*
X18741053Y24534000D02*
X9581053Y24534000D01*
D37*
X16453662Y22227996D02*
X16453663Y22227995D01*
X14161053Y26823999D02*
X14161053Y24534000D01*
X16452855Y27982526D02*
X16447854Y27987527D01*
D38*
X16451053Y29114001D02*
X16451053Y22244000D01*
D37*
X11872587Y26822679D02*
X13032586Y26822679D01*
X16454963Y26808240D02*
X16454963Y24518241D01*
D41*
X13742000Y32609000D02*
X13742000Y31234000D01*
D37*
X11881998Y26816986D02*
X11881998Y24526987D01*
X18742689Y26822610D02*
X16452690Y26822610D01*
X13032586Y26822679D02*
X13037587Y26827680D01*
X14162527Y26822650D02*
X15322526Y26822650D01*
X14159147Y22229002D02*
X14159148Y22229001D01*
X18740023Y24518240D02*
X18740023Y25678239D01*
X16453663Y22227995D02*
X16453663Y23387994D01*
X9581052Y25664001D02*
X9586053Y25659000D01*
X9592000Y24526986D02*
X11881999Y24526986D01*
X16453662Y24517995D02*
X16453662Y22227996D01*
D38*
X9792000Y14984858D02*
X8442000Y14984858D01*
X11871053Y22244000D02*
X15311053Y22244000D01*
D37*
X18740022Y24518241D02*
X18740023Y24518240D01*
X16453663Y23387994D02*
X16448662Y23392995D01*
X14161054Y24534001D02*
X13001055Y24534001D01*
X11867357Y21112266D02*
X11862356Y21117267D01*
X11867357Y19952267D02*
X11867357Y21112266D01*
X17612688Y26822609D02*
X17617689Y26827610D01*
X11881999Y24526986D02*
X11882000Y24526987D01*
X16452527Y26822651D02*
X14162528Y26822651D01*
X18740023Y25678239D02*
X18735022Y25683240D01*
X18740022Y26808240D02*
X18740022Y24518241D01*
D38*
X14161053Y22243999D02*
X14161053Y26824001D01*
D37*
X11881999Y24526986D02*
X11881999Y25686985D01*
X20142000Y42134000D02*
X20137000Y42129000D01*
X14161054Y24533999D02*
X14161054Y25693998D01*
X16454963Y24518241D02*
X16454964Y24518240D01*
X14087000Y41919000D02*
X14097000Y41909000D01*
X11881998Y24526987D02*
X11881999Y24526986D01*
X17582144Y24521609D02*
X17577143Y24516608D01*
X15767000Y17384000D02*
X16267000Y17884000D01*
D38*
X14161053Y22243999D02*
X15311052Y22243999D01*
D37*
X18742142Y24521608D02*
X18742143Y24521609D01*
X14159148Y22229001D02*
X14159148Y23389000D01*
X11867356Y19952268D02*
X11867357Y19952267D01*
X9586053Y26834000D02*
X9586052Y26833999D01*
X10004500Y16659000D02*
X8442000Y16659000D01*
X16452854Y29112527D02*
X16452854Y26822528D01*
X13001055Y24534001D02*
X12996054Y24529000D01*
D38*
X15311052Y22243999D02*
X15311053Y22244000D01*
D37*
X11870938Y22243754D02*
X11870938Y23403753D01*
X16452143Y24521608D02*
X18742142Y24521608D01*
X11871054Y24534000D02*
X14161053Y24534000D01*
X16452854Y26822528D02*
X16452855Y26822527D01*
X14161053Y24534000D02*
X14161054Y24534001D01*
X15322526Y26822650D02*
X15327527Y26827651D01*
D38*
X9581052Y26824000D02*
X18741054Y26824000D01*
D37*
X14159147Y24519001D02*
X14159147Y22229002D01*
X9586052Y26833999D02*
X10746051Y26833999D01*
X18742143Y24521609D02*
X17582144Y24521609D01*
D38*
X11871053Y26824000D02*
X11871053Y19953999D01*
X12487000Y32609000D02*
X11312001Y32609000D01*
D37*
X11876052Y26834000D02*
X9586053Y26834000D01*
X11882000Y24526987D02*
X10722001Y24526987D01*
X11867356Y22242267D02*
X11867356Y19952268D01*
X14161053Y24534000D02*
X14161054Y24533999D01*
X14162528Y26822651D02*
X14162527Y26822650D01*
X16453931Y24518456D02*
X16453932Y24518457D01*
D38*
X15097000Y41889000D02*
X15097000Y43308999D01*
D37*
X11872588Y26822680D02*
X11872587Y26822679D01*
D38*
X9581052Y24534001D02*
X9581053Y24534000D01*
D37*
X14842000Y31484000D02*
X14892000Y31434000D01*
D38*
X15097000Y43308999D02*
X14997000Y43408999D01*
D37*
X16452690Y26822610D02*
X16452689Y26822609D01*
X14161054Y25693998D02*
X14156053Y25698999D01*
X16453932Y24518457D02*
X15293933Y24518457D01*
X16454964Y25678239D02*
X16449963Y25683240D01*
X9581052Y26824000D02*
X9581052Y25664001D01*
X14162587Y26822680D02*
X11872588Y26822680D01*
X16452689Y26822609D02*
X17612688Y26822609D01*
D38*
X15097000Y43508999D02*
X14997000Y43408999D01*
D37*
X14842000Y32424001D02*
X14842000Y31484000D01*
X15293933Y24518457D02*
X15288932Y24513456D01*
X10722001Y24526987D02*
X10717000Y24521986D01*
D38*
X15311053Y22244000D02*
X16451053Y22244000D01*
X15097000Y44899000D02*
X15097000Y43508999D01*
D37*
X11881999Y25686985D02*
X11876998Y25691986D01*
X11870938Y23403753D02*
X11865937Y23408754D01*
X11870937Y22243755D02*
X11870938Y22243754D01*
X21697000Y42134000D02*
X20142000Y42134000D01*
X16454964Y24518240D02*
X16454964Y25678239D01*
X10746051Y26833999D02*
X10751052Y26839000D01*
%TO.N,+3V3*%
D38*
X13087000Y39759000D02*
X15087000Y39759000D01*
D37*
X13331999Y35444001D02*
X14997000Y37109001D01*
D38*
X21637000Y40584000D02*
X21637000Y39069000D01*
X13087000Y39759000D02*
X13087000Y40234000D01*
X13087000Y40234000D02*
X15087000Y40234000D01*
D37*
X12492001Y34159000D02*
X12492001Y34594001D01*
D38*
X14997000Y37849000D02*
X14997000Y37109001D01*
X13087000Y39759000D02*
X14997000Y37849000D01*
X15087000Y40234000D02*
X15087000Y40759000D01*
X15087000Y40759000D02*
X15087000Y37199001D01*
X15087000Y39759000D02*
X15087000Y37199001D01*
D37*
X13331999Y35433999D02*
X13331999Y35444001D01*
D38*
X14997000Y37109001D02*
X14997000Y40234000D01*
X15087000Y37199001D02*
X14997000Y37109001D01*
X21637000Y39069000D02*
X21697000Y39009000D01*
D37*
X12492001Y34594001D02*
X13331999Y35433999D01*
D38*
X14997000Y37109001D02*
X14997000Y38484000D01*
X15087000Y40759000D02*
X13087000Y40759000D01*
X13087000Y40234000D02*
X13087000Y40759000D01*
X14997000Y38484000D02*
X14047000Y39434000D01*
%TO.N,Net-(U1-Trim)*%
D37*
X18741053Y30403053D02*
X18747000Y30409000D01*
X18741053Y29114000D02*
X18741053Y30403053D01*
%TO.N,/PWR_IN*%
D38*
X9581052Y18796626D02*
X9583678Y18794000D01*
X9578543Y21109000D02*
X9587355Y21100188D01*
X9581052Y23399000D02*
X9581052Y18796626D01*
X9581052Y22244000D02*
X9581052Y18796626D01*
D37*
X9580954Y22243554D02*
X8420955Y22243554D01*
D38*
X8436053Y21109000D02*
X9578543Y21109000D01*
D37*
X9581052Y22244000D02*
X9581052Y19954001D01*
X9581053Y21093886D02*
X9587355Y21100188D01*
X9578677Y19959000D02*
X9578677Y18799001D01*
D38*
X8416501Y19949309D02*
X8431193Y19964001D01*
D37*
X9586053Y22234000D02*
X9586053Y23393999D01*
D38*
X13129500Y16659000D02*
X13129500Y18146500D01*
X11567000Y16659000D02*
X11567000Y15209858D01*
D37*
X9581501Y19954310D02*
X8421502Y19954310D01*
X9581052Y19954001D02*
X9581053Y19954000D01*
D38*
X11567000Y15209858D02*
X11342000Y14984858D01*
X13129500Y18146500D02*
X13142000Y18159000D01*
D37*
X9581053Y19954000D02*
X9581053Y21093886D01*
X9586053Y22234000D02*
X10746052Y22234000D01*
D38*
X13129500Y16659000D02*
X11567000Y16659000D01*
X8415954Y22238553D02*
X8416402Y22239001D01*
%TO.N,+5V0*%
X9581053Y27989000D02*
X8967000Y27989000D01*
X9586053Y29109000D02*
X9581053Y29114000D01*
X9581053Y28539000D02*
X9581053Y27989000D01*
X11852001Y27984000D02*
X11857000Y27988999D01*
X8907000Y29109000D02*
X9577000Y29109000D01*
X11867000Y28549000D02*
X11867000Y29119000D01*
X8967000Y29049000D02*
X8907000Y29109000D01*
X9581053Y28539000D02*
X11857000Y28539000D01*
X11861053Y27984000D02*
X11871053Y27994000D01*
X11867000Y27998999D02*
X11867000Y28549000D01*
X8967000Y27989000D02*
X8967000Y29049000D01*
X8452000Y29109000D02*
X8452000Y27994000D01*
D37*
X17297000Y36659000D02*
X17297000Y37109000D01*
D38*
X8452000Y29109000D02*
X8907000Y29109000D01*
D37*
X14867000Y35284000D02*
X16167000Y35284000D01*
D38*
X9586053Y27984000D02*
X11852001Y27984000D01*
X11867000Y29119000D02*
X9586053Y29119000D01*
X8967000Y27989000D02*
X8457000Y27989000D01*
X9581053Y27989000D02*
X9586053Y27984000D01*
X9581053Y29114000D02*
X9581053Y28539000D01*
D37*
X17297000Y37109000D02*
X17297000Y39034000D01*
D38*
X19597000Y39009000D02*
X19597000Y37446500D01*
D37*
X6951999Y23963247D02*
X6951999Y24873999D01*
D38*
X8452000Y27994000D02*
X8457000Y27989000D01*
X11857000Y28539000D02*
X11867000Y28549000D01*
D37*
X16167000Y35284000D02*
X17542000Y36659000D01*
X6951999Y24873999D02*
X6957000Y24879000D01*
D38*
X9586053Y29119000D02*
X9581053Y29114000D01*
D37*
X13742000Y34159000D02*
X14867000Y35284000D01*
D38*
X19622000Y39034000D02*
X19597000Y39009000D01*
%TO.N,Net-(J9-Pin_2)*%
D37*
X14467000Y30269000D02*
X14161053Y29963053D01*
X16027000Y30269000D02*
X14467000Y30269000D01*
X14161053Y29963053D02*
X14161053Y29114000D01*
X16367000Y30609000D02*
X16027000Y30269000D01*
%TO.N,Net-(U1-PGood)*%
X15987000Y18649000D02*
X16451053Y19113053D01*
X14867000Y18649000D02*
X15987000Y18649000D01*
X14417000Y18199000D02*
X14867000Y18649000D01*
X16451053Y19113053D02*
X16451053Y19953999D01*
X14417000Y17384000D02*
X14417000Y18199000D01*
%TO.N,Net-(J9-Pin_3)*%
X18741053Y19954000D02*
X17602000Y19954000D01*
X17602000Y19954000D02*
X17597000Y19949000D01*
%TO.N,Net-(D3-K)*%
X15432001Y33443999D02*
X16717000Y32159000D01*
X19987000Y32629000D02*
X19987000Y33934000D01*
X14842000Y33443999D02*
X15432001Y33443999D01*
X19517000Y32159000D02*
X19987000Y32629000D01*
X16717000Y32159000D02*
X19517000Y32159000D01*
%TO.N,Net-(R6-Pad1)*%
X3587752Y23963247D02*
X5932001Y23963247D01*
X2167000Y25383999D02*
X3587752Y23963247D01*
%TD*%
%TA.AperFunction,Conductor*%
%TO.N,GND*%
G36*
X39274408Y52192157D02*
G01*
X39287095Y52188034D01*
X39336595Y52152073D01*
X39336596Y52152072D01*
X39339591Y52147950D01*
X39358500Y52089760D01*
X39355567Y52080734D01*
X39358499Y51451838D01*
X39353654Y51420783D01*
X39350274Y51410381D01*
X39314309Y51360881D01*
X39256118Y51341975D01*
X39204400Y51356559D01*
X39203080Y51357368D01*
X39199494Y51359565D01*
X39181214Y51373975D01*
X39106467Y51448721D01*
X39106465Y51448723D01*
X38934553Y51573625D01*
X38934552Y51573626D01*
X38934550Y51573627D01*
X38745214Y51670097D01*
X38543119Y51735761D01*
X38477001Y51746234D01*
X38477001Y50998670D01*
X38458094Y50940479D01*
X38408594Y50904515D01*
X38352378Y50903043D01*
X38292827Y50919000D01*
X38292826Y50919000D01*
X38161176Y50919000D01*
X38161175Y50919000D01*
X38101624Y50903043D01*
X38040523Y50906245D01*
X37992973Y50944751D01*
X37977001Y50998670D01*
X37977001Y51746231D01*
X37977001Y51746232D01*
X37977000Y51746233D01*
X37976999Y51746233D01*
X37918577Y51736979D01*
X37910880Y51735760D01*
X37910879Y51735760D01*
X37861318Y51719658D01*
X37708785Y51670097D01*
X37519450Y51573627D01*
X37347537Y51448724D01*
X37197277Y51298464D01*
X37072373Y51126548D01*
X37052329Y51087209D01*
X37034124Y51062150D01*
X37026068Y51054094D01*
X36971551Y51026317D01*
X36911137Y51035879D01*
X36908331Y51037308D01*
X36865058Y51080564D01*
X36865048Y51080582D01*
X36841626Y51126550D01*
X36841625Y51126552D01*
X36716723Y51298465D01*
X36566465Y51448723D01*
X36394553Y51573625D01*
X36394552Y51573626D01*
X36394550Y51573627D01*
X36205214Y51670097D01*
X36003119Y51735761D01*
X35937001Y51746234D01*
X35937001Y50998670D01*
X35918094Y50940479D01*
X35868594Y50904515D01*
X35812378Y50903043D01*
X35752827Y50919000D01*
X35752826Y50919000D01*
X35621176Y50919000D01*
X35621175Y50919000D01*
X35561624Y50903043D01*
X35500523Y50906245D01*
X35452973Y50944751D01*
X35437001Y50998670D01*
X35437001Y51746231D01*
X35437001Y51746232D01*
X35437000Y51746233D01*
X35436999Y51746233D01*
X35378577Y51736979D01*
X35370880Y51735760D01*
X35370879Y51735760D01*
X35321318Y51719658D01*
X35168785Y51670097D01*
X34979450Y51573627D01*
X34807537Y51448724D01*
X34657277Y51298464D01*
X34532373Y51126548D01*
X34512329Y51087209D01*
X34494124Y51062150D01*
X34486068Y51054094D01*
X34431551Y51026317D01*
X34371137Y51035879D01*
X34368331Y51037308D01*
X34325058Y51080564D01*
X34325048Y51080582D01*
X34301626Y51126550D01*
X34301625Y51126552D01*
X34176723Y51298465D01*
X34026465Y51448723D01*
X33854553Y51573625D01*
X33854552Y51573626D01*
X33854550Y51573627D01*
X33665214Y51670097D01*
X33463119Y51735761D01*
X33397001Y51746234D01*
X33397001Y50998670D01*
X33378094Y50940479D01*
X33328594Y50904515D01*
X33272378Y50903043D01*
X33212827Y50919000D01*
X33212826Y50919000D01*
X33081176Y50919000D01*
X33081175Y50919000D01*
X33021624Y50903043D01*
X32960523Y50906245D01*
X32912973Y50944751D01*
X32897001Y50998670D01*
X32897001Y51746231D01*
X32897001Y51746232D01*
X32897000Y51746233D01*
X32896999Y51746233D01*
X32838577Y51736979D01*
X32830880Y51735760D01*
X32830879Y51735760D01*
X32781318Y51719658D01*
X32628785Y51670097D01*
X32439450Y51573627D01*
X32267537Y51448724D01*
X32117277Y51298464D01*
X31992373Y51126548D01*
X31972329Y51087209D01*
X31954124Y51062150D01*
X31946068Y51054094D01*
X31891551Y51026317D01*
X31831137Y51035879D01*
X31828331Y51037308D01*
X31785058Y51080564D01*
X31785048Y51080582D01*
X31761626Y51126550D01*
X31761625Y51126552D01*
X31636723Y51298465D01*
X31486465Y51448723D01*
X31314553Y51573625D01*
X31314552Y51573626D01*
X31314550Y51573627D01*
X31125214Y51670097D01*
X30923119Y51735761D01*
X30857001Y51746234D01*
X30857001Y50998670D01*
X30838094Y50940479D01*
X30788594Y50904515D01*
X30732378Y50903043D01*
X30672827Y50919000D01*
X30672826Y50919000D01*
X30541176Y50919000D01*
X30541175Y50919000D01*
X30481624Y50903043D01*
X30420523Y50906245D01*
X30372973Y50944751D01*
X30357001Y50998670D01*
X30357001Y51746231D01*
X30357001Y51746232D01*
X30357000Y51746233D01*
X30356999Y51746233D01*
X30298577Y51736979D01*
X30290880Y51735760D01*
X30290879Y51735760D01*
X30241318Y51719658D01*
X30088785Y51670097D01*
X29899450Y51573627D01*
X29727537Y51448724D01*
X29577277Y51298464D01*
X29452374Y51126551D01*
X29355904Y50937216D01*
X29290241Y50735121D01*
X29279769Y50669002D01*
X29279769Y50669001D01*
X29279770Y50669000D01*
X30027331Y50669000D01*
X30085522Y50650093D01*
X30121486Y50600593D01*
X30122958Y50544377D01*
X30107001Y50484826D01*
X30107001Y50353175D01*
X30122958Y50293623D01*
X30119756Y50232522D01*
X30081250Y50184972D01*
X30027331Y50169000D01*
X29279770Y50169000D01*
X29290241Y50102880D01*
X29355904Y49900786D01*
X29452374Y49711451D01*
X29452376Y49711448D01*
X29577278Y49539536D01*
X29727536Y49389278D01*
X29899448Y49264376D01*
X30088790Y49167903D01*
X30092945Y49166553D01*
X30120544Y49152491D01*
X30129393Y49146062D01*
X30165357Y49096563D01*
X30165358Y49035378D01*
X30135499Y48990690D01*
X30131126Y48986955D01*
X30111775Y48974024D01*
X29977804Y48905763D01*
X29977798Y48905759D01*
X29824934Y48794696D01*
X29691305Y48661067D01*
X29580242Y48508203D01*
X29580238Y48508197D01*
X29494452Y48339830D01*
X29494450Y48339827D01*
X29436058Y48160115D01*
X29406501Y47973490D01*
X29406501Y47784513D01*
X29436058Y47597890D01*
X29436432Y47596535D01*
X29437072Y47594766D01*
X29494450Y47418175D01*
X29494452Y47418172D01*
X29494453Y47418169D01*
X29494454Y47418168D01*
X29580241Y47249801D01*
X29691311Y47096927D01*
X29824928Y46963310D01*
X29977802Y46852240D01*
X30146169Y46766453D01*
X30325883Y46708060D01*
X30325884Y46708060D01*
X30325887Y46708059D01*
X30445170Y46689167D01*
X30512514Y46678500D01*
X30701485Y46678500D01*
X30701488Y46678500D01*
X30775693Y46690254D01*
X30888114Y46708059D01*
X30888114Y46708060D01*
X30888116Y46708060D01*
X30888119Y46708060D01*
X30888122Y46708061D01*
X30890698Y46708469D01*
X30895505Y46710461D01*
X31067833Y46766453D01*
X31236200Y46852240D01*
X31389074Y46963310D01*
X31522691Y47096927D01*
X31633761Y47249801D01*
X31719548Y47418168D01*
X31777941Y47597882D01*
X31777942Y47597887D01*
X31777942Y47597893D01*
X31778218Y47598941D01*
X31778677Y47600150D01*
X31778834Y47600631D01*
X31778857Y47600624D01*
X31785783Y47618837D01*
X31790079Y47627268D01*
X31833338Y47670532D01*
X31893770Y47680107D01*
X31948288Y47652333D01*
X31973469Y47602919D01*
X31974588Y47603227D01*
X31976426Y47596553D01*
X31977073Y47594766D01*
X32034454Y47418168D01*
X32120241Y47249801D01*
X32231311Y47096927D01*
X32364928Y46963310D01*
X32517802Y46852240D01*
X32686169Y46766453D01*
X32865883Y46708060D01*
X32865884Y46708060D01*
X32865887Y46708059D01*
X32985170Y46689167D01*
X33052514Y46678500D01*
X33241485Y46678500D01*
X33241488Y46678500D01*
X33315693Y46690254D01*
X33428114Y46708059D01*
X33428114Y46708060D01*
X33428116Y46708060D01*
X33428119Y46708060D01*
X33428122Y46708061D01*
X33430698Y46708469D01*
X33435505Y46710461D01*
X33607833Y46766453D01*
X33776200Y46852240D01*
X33929074Y46963310D01*
X34062691Y47096927D01*
X34173761Y47249801D01*
X34259548Y47418168D01*
X34317941Y47597882D01*
X34317942Y47597887D01*
X34317942Y47597893D01*
X34318218Y47598941D01*
X34318677Y47600150D01*
X34318834Y47600631D01*
X34318857Y47600624D01*
X34325783Y47618837D01*
X34330079Y47627268D01*
X34373338Y47670532D01*
X34433770Y47680107D01*
X34488288Y47652333D01*
X34513469Y47602919D01*
X34514588Y47603227D01*
X34516426Y47596553D01*
X34517073Y47594766D01*
X34574454Y47418168D01*
X34660241Y47249801D01*
X34771311Y47096927D01*
X34904928Y46963310D01*
X35057802Y46852240D01*
X35226169Y46766453D01*
X35405883Y46708060D01*
X35405884Y46708060D01*
X35405887Y46708059D01*
X35525170Y46689167D01*
X35592514Y46678500D01*
X35781485Y46678500D01*
X35781488Y46678500D01*
X35855693Y46690254D01*
X35968114Y46708059D01*
X35968114Y46708060D01*
X35968116Y46708060D01*
X35968119Y46708060D01*
X35968122Y46708061D01*
X35970698Y46708469D01*
X35975505Y46710461D01*
X36147833Y46766453D01*
X36316200Y46852240D01*
X36469074Y46963310D01*
X36602691Y47096927D01*
X36713761Y47249801D01*
X36799548Y47418168D01*
X36857941Y47597882D01*
X36857942Y47597887D01*
X36857942Y47597893D01*
X36858218Y47598941D01*
X36858677Y47600150D01*
X36858834Y47600631D01*
X36858857Y47600624D01*
X36865783Y47618837D01*
X36870079Y47627268D01*
X36913338Y47670532D01*
X36973770Y47680107D01*
X37028288Y47652333D01*
X37053469Y47602919D01*
X37054588Y47603227D01*
X37056426Y47596553D01*
X37057073Y47594766D01*
X37114454Y47418168D01*
X37200241Y47249801D01*
X37311311Y47096927D01*
X37444928Y46963310D01*
X37597802Y46852240D01*
X37766169Y46766453D01*
X37945883Y46708060D01*
X37945884Y46708060D01*
X37945887Y46708059D01*
X38065170Y46689167D01*
X38132514Y46678500D01*
X38321485Y46678500D01*
X38321488Y46678500D01*
X38395693Y46690254D01*
X38508114Y46708059D01*
X38508114Y46708060D01*
X38508116Y46708060D01*
X38508119Y46708060D01*
X38508122Y46708061D01*
X38510698Y46708469D01*
X38515505Y46710461D01*
X38687833Y46766453D01*
X38856200Y46852240D01*
X39009074Y46963310D01*
X39142691Y47096927D01*
X39170192Y47134781D01*
X39192092Y47156680D01*
X39198762Y47161526D01*
X39256952Y47180433D01*
X39315143Y47161525D01*
X39351106Y47112029D01*
X39353654Y47104188D01*
X39358500Y47073592D01*
X39358500Y46208181D01*
X39353654Y46177588D01*
X39349532Y46164902D01*
X39313580Y46115411D01*
X39309459Y46112416D01*
X39251271Y46093500D01*
X24962725Y46093500D01*
X24662464Y46057040D01*
X24662441Y46057037D01*
X24368744Y45984647D01*
X24085879Y45877371D01*
X23818048Y45736803D01*
X23818029Y45736793D01*
X23572544Y45567346D01*
X23572528Y45567334D01*
X23569081Y45564954D01*
X23569078Y45564952D01*
X23569076Y45564950D01*
X23564920Y45561269D01*
X23564896Y45561249D01*
X23471803Y45478775D01*
X23342664Y45364368D01*
X23342640Y45364344D01*
X23272956Y45285686D01*
X23180575Y45181409D01*
X23142042Y45137915D01*
X22970207Y44888971D01*
X22970197Y44888952D01*
X22829629Y44621121D01*
X22722353Y44338256D01*
X22649963Y44044559D01*
X22649960Y44044536D01*
X22613500Y43744275D01*
X22613500Y40120666D01*
X22608654Y40090073D01*
X22604532Y40077387D01*
X22568568Y40027887D01*
X22568545Y40027870D01*
X22567092Y40026815D01*
X22517975Y40008340D01*
X22512583Y40007845D01*
X22490613Y40008277D01*
X22489124Y40008473D01*
X22459426Y40017269D01*
X22450976Y40021300D01*
X22447388Y40023011D01*
X22403006Y40065125D01*
X22399491Y40071600D01*
X22387500Y40118828D01*
X22387500Y40657919D01*
X22372948Y40731073D01*
X22358658Y40802913D01*
X22302084Y40939495D01*
X22219951Y41062416D01*
X22115416Y41166951D01*
X21992495Y41249084D01*
X21992493Y41249085D01*
X21855914Y41305658D01*
X21855912Y41305659D01*
X21710920Y41334500D01*
X21710918Y41334500D01*
X21563082Y41334500D01*
X21563081Y41334500D01*
X21563078Y41334500D01*
X21418085Y41305658D01*
X21418083Y41305658D01*
X21281510Y41249088D01*
X21281498Y41249082D01*
X21158586Y41166953D01*
X21054047Y41062414D01*
X20971918Y40939502D01*
X20971912Y40939490D01*
X20915342Y40802917D01*
X20915342Y40802915D01*
X20886500Y40657922D01*
X20886500Y40086827D01*
X20881654Y40056233D01*
X20876872Y40041516D01*
X20844007Y39994363D01*
X20836137Y39988159D01*
X20812735Y39974442D01*
X20744158Y39946037D01*
X20744158Y39946036D01*
X20618726Y39849790D01*
X20618707Y39849771D01*
X20522238Y39724049D01*
X20521220Y39721344D01*
X20461957Y39578270D01*
X20461957Y39578269D01*
X20461955Y39578260D01*
X20448790Y39478263D01*
X20439995Y39448571D01*
X20435731Y39439630D01*
X20393617Y39395245D01*
X20333457Y39384091D01*
X20281582Y39407391D01*
X20276375Y39411898D01*
X20258851Y39431750D01*
X20221155Y39488165D01*
X20221154Y39488166D01*
X20221153Y39488168D01*
X20204951Y39512416D01*
X20204948Y39512419D01*
X20204943Y39512425D01*
X20100417Y39616950D01*
X20100416Y39616951D01*
X19977495Y39699084D01*
X19977493Y39699085D01*
X19840914Y39755658D01*
X19840912Y39755659D01*
X19695920Y39784500D01*
X19695918Y39784500D01*
X19695917Y39784500D01*
X19548082Y39784500D01*
X19548081Y39784500D01*
X19548078Y39784500D01*
X19403085Y39755658D01*
X19403083Y39755658D01*
X19266509Y39699088D01*
X19143584Y39616953D01*
X19014055Y39487426D01*
X19014050Y39487421D01*
X19014045Y39487414D01*
X19014044Y39487412D01*
X18976854Y39431750D01*
X18970282Y39421914D01*
X18970252Y39421871D01*
X18931915Y39364498D01*
X18931914Y39364495D01*
X18875342Y39227917D01*
X18875342Y39227915D01*
X18846500Y39082922D01*
X18846500Y38549180D01*
X18841654Y38518586D01*
X18836872Y38503869D01*
X18804007Y38456716D01*
X18796137Y38450512D01*
X18772734Y38436795D01*
X18644161Y38383538D01*
X18518726Y38287290D01*
X18518717Y38287281D01*
X18429644Y38171199D01*
X18407177Y38149879D01*
X18397788Y38143426D01*
X18339122Y38126048D01*
X18281447Y38146472D01*
X18276988Y38149894D01*
X18274131Y38152086D01*
X18250145Y38178650D01*
X18244968Y38187044D01*
X18125044Y38306968D01*
X18078753Y38335521D01*
X17980703Y38396000D01*
X17980695Y38396004D01*
X17941080Y38409131D01*
X17933552Y38413167D01*
X17930966Y38415864D01*
X17921680Y38420663D01*
X17911860Y38427885D01*
X17876189Y38477593D01*
X17875868Y38536646D01*
X17878875Y38546457D01*
X17891208Y38572434D01*
X17962084Y38678505D01*
X18018658Y38815087D01*
X18047500Y38960082D01*
X18047500Y39107918D01*
X18018658Y39252913D01*
X17972441Y39364491D01*
X17962084Y39389496D01*
X17962083Y39389497D01*
X17952723Y39403505D01*
X17914399Y39460862D01*
X17914399Y39460861D01*
X17879951Y39512416D01*
X17879946Y39512421D01*
X17879943Y39512425D01*
X17775417Y39616950D01*
X17775416Y39616951D01*
X17652495Y39699084D01*
X17652493Y39699085D01*
X17515914Y39755658D01*
X17515912Y39755659D01*
X17370920Y39784500D01*
X17370918Y39784500D01*
X17223082Y39784500D01*
X17223081Y39784500D01*
X17223078Y39784500D01*
X17078085Y39755658D01*
X17078083Y39755658D01*
X16941510Y39699088D01*
X16941498Y39699082D01*
X16818586Y39616953D01*
X16714047Y39512414D01*
X16636352Y39396137D01*
X16632812Y39391665D01*
X16575342Y39252917D01*
X16575342Y39252915D01*
X16546500Y39107922D01*
X16546500Y38960080D01*
X16575342Y38815087D01*
X16575342Y38815085D01*
X16631913Y38678509D01*
X16631913Y38678508D01*
X16641930Y38663517D01*
X16697772Y38579944D01*
X16702152Y38573390D01*
X16715121Y38545257D01*
X16718427Y38533533D01*
X16716023Y38472395D01*
X16679988Y38425610D01*
X16671591Y38419721D01*
X16645886Y38406800D01*
X16613304Y38396004D01*
X16613302Y38396003D01*
X16613299Y38396002D01*
X16475712Y38311136D01*
X16470418Y38308430D01*
X16347571Y38185583D01*
X16344862Y38180285D01*
X16260918Y38044193D01*
X16259998Y38042760D01*
X16259587Y38041461D01*
X16245907Y38000177D01*
X16231685Y37972662D01*
X16226667Y37965839D01*
X16176959Y37930163D01*
X16115775Y37930519D01*
X16066827Y37966296D01*
X16062073Y37972838D01*
X16048186Y37999894D01*
X16034003Y38042698D01*
X15944968Y38187045D01*
X15944964Y38187049D01*
X15944963Y38187051D01*
X15940944Y38191070D01*
X15940938Y38191075D01*
X15877583Y38254431D01*
X15859378Y38279489D01*
X15848288Y38301253D01*
X15837500Y38346195D01*
X15837500Y40832917D01*
X15837500Y40832918D01*
X15808658Y40977913D01*
X15752084Y41114495D01*
X15669951Y41237416D01*
X15565416Y41341951D01*
X15442495Y41424084D01*
X15442493Y41424085D01*
X15377126Y41451161D01*
X15305912Y41480659D01*
X15160920Y41509500D01*
X15160918Y41509500D01*
X13160918Y41509500D01*
X13013082Y41509500D01*
X13013081Y41509500D01*
X13013078Y41509500D01*
X12868085Y41480658D01*
X12868083Y41480658D01*
X12731510Y41424088D01*
X12731498Y41424082D01*
X12608586Y41341953D01*
X12504047Y41237414D01*
X12421918Y41114502D01*
X12421912Y41114490D01*
X12365342Y40977917D01*
X12365342Y40977915D01*
X12336500Y40832922D01*
X12336500Y39685082D01*
X12365342Y39540087D01*
X12365342Y39540085D01*
X12420819Y39406150D01*
X12420821Y39406146D01*
X12421913Y39403511D01*
X12421914Y39403509D01*
X12421916Y39403505D01*
X12431278Y39389494D01*
X12431989Y39388429D01*
X12432006Y39388403D01*
X12477842Y39319803D01*
X12477843Y39319803D01*
X12477844Y39319801D01*
X12504048Y39280584D01*
X12504051Y39280581D01*
X13861953Y37922679D01*
X13880159Y37897619D01*
X13890337Y37877643D01*
X13900614Y37822638D01*
X13896500Y37782364D01*
X13896500Y36843717D01*
X13891654Y36813124D01*
X13884107Y36789897D01*
X13859957Y36750486D01*
X13344056Y36234584D01*
X13318996Y36216378D01*
X13297016Y36205179D01*
X13261779Y36194866D01*
X13258083Y36194502D01*
X13113084Y36165659D01*
X13113082Y36165659D01*
X12976509Y36109089D01*
X12976497Y36109083D01*
X12853585Y36026954D01*
X12749046Y35922415D01*
X12666917Y35799503D01*
X12666914Y35799495D01*
X12610341Y35662918D01*
X12610341Y35662916D01*
X12581499Y35517923D01*
X12581023Y35513084D01*
X12580613Y35513125D01*
X12576653Y35488120D01*
X12569106Y35464893D01*
X12544956Y35425482D01*
X12065464Y34945990D01*
X12050457Y34933675D01*
X12034555Y34923051D01*
X12017447Y34913907D01*
X11951771Y34886701D01*
X11831555Y34794456D01*
X11831542Y34794443D01*
X11739302Y34674234D01*
X11739300Y34674230D01*
X11681320Y34534252D01*
X11681313Y34534233D01*
X11678367Y34511853D01*
X11678367Y34511852D01*
X11666501Y34421722D01*
X11666501Y33896280D01*
X11681313Y33783768D01*
X11681315Y33783762D01*
X11737670Y33647708D01*
X11739303Y33643767D01*
X11831550Y33523549D01*
X11951768Y33431302D01*
X12091765Y33373313D01*
X12204281Y33358500D01*
X12204282Y33358500D01*
X12779720Y33358500D01*
X12779721Y33358500D01*
X12892237Y33373313D01*
X13032234Y33431302D01*
X13044293Y33440557D01*
X13071509Y33455334D01*
X13084087Y33459789D01*
X13145247Y33461390D01*
X13155845Y33458251D01*
X13187993Y33441871D01*
X13194510Y33436870D01*
X13196612Y33435257D01*
X13199066Y33433106D01*
X13201763Y33431303D01*
X13251263Y33410800D01*
X13251264Y33410800D01*
X13341764Y33373313D01*
X13341763Y33373313D01*
X13358821Y33371068D01*
X13454280Y33358500D01*
X13454281Y33358500D01*
X14029715Y33358500D01*
X14029719Y33358500D01*
X14029720Y33358500D01*
X14044036Y33360385D01*
X14074997Y33359574D01*
X14084806Y33357756D01*
X14088114Y33357142D01*
X14141861Y33327968D01*
X14143102Y33326661D01*
X14167865Y33280354D01*
X14169879Y33271458D01*
X14171756Y33260179D01*
X14176486Y33216174D01*
X14177715Y33204741D01*
X14177715Y33204739D01*
X14177716Y33204737D01*
X14181724Y33193990D01*
X14181726Y33193984D01*
X14191591Y33167537D01*
X14226505Y33073931D01*
X14310169Y32962168D01*
X14349659Y32932607D01*
X14349660Y32932605D01*
X14408454Y32888593D01*
X14421930Y32878505D01*
X14421934Y32878503D01*
X14459647Y32864437D01*
X14552738Y32829715D01*
X14610557Y32823499D01*
X15073442Y32823500D01*
X15131262Y32829715D01*
X15156379Y32839085D01*
X15186728Y32845235D01*
X15203150Y32845940D01*
X15257295Y32832532D01*
X15262121Y32829715D01*
X15264614Y32828260D01*
X15284711Y32812764D01*
X16378985Y31718490D01*
X16492559Y31652919D01*
X16504515Y31646016D01*
X16644525Y31608500D01*
X16644526Y31608500D01*
X19589474Y31608500D01*
X19589475Y31608500D01*
X19729485Y31646016D01*
X19741441Y31652919D01*
X19855015Y31718490D01*
X20427510Y32290985D01*
X20499984Y32416515D01*
X20537500Y32556525D01*
X20537500Y32568820D01*
X20542343Y32599406D01*
X20546465Y32612095D01*
X20582423Y32661594D01*
X20583022Y32662029D01*
X20586563Y32664600D01*
X20644743Y32683500D01*
X20920257Y32683500D01*
X20920260Y32683500D01*
X20988393Y32693427D01*
X21093483Y32744802D01*
X21176198Y32827517D01*
X21227573Y32932607D01*
X21237500Y33000740D01*
X21237500Y34867260D01*
X21227573Y34935393D01*
X21225763Y34939095D01*
X21177537Y35037742D01*
X21176387Y35040293D01*
X21176198Y35040482D01*
X21176198Y35040483D01*
X21093483Y35123198D01*
X21093481Y35123199D01*
X20988395Y35174573D01*
X20961139Y35178544D01*
X20961138Y35178545D01*
X20930655Y35182986D01*
X20920260Y35184500D01*
X20920258Y35184500D01*
X19053736Y35184500D01*
X19019670Y35179537D01*
X19019669Y35179538D01*
X18985606Y35174574D01*
X18985604Y35174574D01*
X18880520Y35123201D01*
X18797800Y35040481D01*
X18746427Y34935396D01*
X18745670Y34932126D01*
X18745393Y34928295D01*
X18739333Y34886701D01*
X18736500Y34867257D01*
X18736500Y34585724D01*
X18729109Y34562977D01*
X18729112Y34547307D01*
X18719894Y34534616D01*
X18717593Y34527533D01*
X18715362Y34524580D01*
X18710516Y34518409D01*
X18708992Y34519606D01*
X18693156Y34497801D01*
X18634969Y34478884D01*
X18576775Y34497781D01*
X18574477Y34499450D01*
X18544444Y34534608D01*
X18531748Y34559525D01*
X18516525Y34589403D01*
X18516524Y34589405D01*
X18516523Y34589407D01*
X18489884Y34626072D01*
X18489884Y34626073D01*
X18400832Y34748641D01*
X18400830Y34748643D01*
X18400828Y34748646D01*
X18261646Y34887828D01*
X18261642Y34887831D01*
X18261640Y34887833D01*
X18110864Y34997379D01*
X18110853Y34997387D01*
X18102405Y35003524D01*
X18102404Y35003525D01*
X18102402Y35003526D01*
X17927025Y35092884D01*
X17817135Y35128590D01*
X17739815Y35153713D01*
X17545424Y35184500D01*
X17545420Y35184500D01*
X17545417Y35184500D01*
X17348583Y35184500D01*
X17348580Y35184500D01*
X17348577Y35184500D01*
X17154178Y35153711D01*
X17059191Y35122848D01*
X17035279Y35122849D01*
X17020377Y35118003D01*
X17005453Y35122849D01*
X16998006Y35122849D01*
X16994471Y35124072D01*
X16987108Y35126776D01*
X16987773Y35128590D01*
X16962183Y35136899D01*
X16926209Y35186392D01*
X16926197Y35247577D01*
X16927076Y35250284D01*
X16951231Y35289709D01*
X17164556Y35503032D01*
X17379947Y35718423D01*
X17405002Y35736624D01*
X17426765Y35747712D01*
X17471707Y35758501D01*
X17720360Y35758501D01*
X17788275Y35765440D01*
X17819699Y35768650D01*
X17819699Y35768651D01*
X17819701Y35768651D01*
X17819708Y35768651D01*
X17819711Y35768653D01*
X17822557Y35768943D01*
X17822558Y35768943D01*
X17822568Y35768944D01*
X17834180Y35770131D01*
X17844507Y35776869D01*
X17980697Y35821997D01*
X18125044Y35911032D01*
X18244968Y36030956D01*
X18334003Y36175303D01*
X18387349Y36336292D01*
X18397500Y36435655D01*
X18397499Y36482303D01*
X18402342Y36512889D01*
X18402512Y36513412D01*
X18405862Y36523725D01*
X18441822Y36573225D01*
X18500009Y36592136D01*
X18502638Y36592136D01*
X18548718Y36580758D01*
X18549284Y36580460D01*
X18563461Y36571386D01*
X18586691Y36553561D01*
X18639014Y36513412D01*
X18639013Y36513412D01*
X18644447Y36509243D01*
X18647134Y36508232D01*
X18790233Y36448958D01*
X18790238Y36448956D01*
X18907639Y36433500D01*
X20286360Y36433501D01*
X20403762Y36448956D01*
X20549841Y36509464D01*
X20675282Y36605718D01*
X20771536Y36731159D01*
X20832044Y36877238D01*
X20847500Y36994639D01*
X20847499Y37885198D01*
X20850540Y37909544D01*
X20854677Y37925849D01*
X20887311Y37977600D01*
X20887441Y37977708D01*
X20888489Y37978565D01*
X20888520Y37978590D01*
X20938373Y37999761D01*
X20946639Y38000794D01*
X20971840Y38000714D01*
X21007639Y37996000D01*
X22386360Y37996001D01*
X22486037Y38009123D01*
X22516988Y38008314D01*
X22530110Y38005882D01*
X22583877Y37976690D01*
X22585130Y37975370D01*
X22609860Y37929100D01*
X22611056Y37923818D01*
X22613500Y37901955D01*
X22613500Y8833727D01*
X22649960Y8533466D01*
X22649963Y8533443D01*
X22722352Y8239751D01*
X22722354Y8239742D01*
X22770042Y8113999D01*
X22829629Y7956881D01*
X22970197Y7689050D01*
X22970206Y7689033D01*
X22970209Y7689028D01*
X23110696Y7485500D01*
X23142050Y7440076D01*
X23342648Y7213648D01*
X23569076Y7013050D01*
X23640137Y6964000D01*
X23818027Y6841210D01*
X23818032Y6841207D01*
X24085887Y6700627D01*
X24368734Y6593357D01*
X24515591Y6557160D01*
X24662444Y6520964D01*
X24662445Y6520964D01*
X24662449Y6520963D01*
X24662454Y6520963D01*
X24662456Y6520962D01*
X24789600Y6505524D01*
X24962736Y6484501D01*
X24962744Y6484500D01*
X24962748Y6484500D01*
X25048108Y6484500D01*
X39243820Y6484500D01*
X39274408Y6479657D01*
X39287095Y6475534D01*
X39336595Y6439573D01*
X39336596Y6439572D01*
X39339591Y6435450D01*
X39358500Y6377260D01*
X39358500Y5731377D01*
X39353654Y5700783D01*
X39350274Y5690381D01*
X39314309Y5640881D01*
X39256118Y5621975D01*
X39204400Y5636559D01*
X39203080Y5637368D01*
X39199494Y5639565D01*
X39181214Y5653975D01*
X39106467Y5728721D01*
X39106465Y5728723D01*
X38934553Y5853625D01*
X38934552Y5853626D01*
X38934550Y5853627D01*
X38745214Y5950097D01*
X38543119Y6015761D01*
X38477001Y6026234D01*
X38477001Y5278670D01*
X38458094Y5220479D01*
X38408594Y5184515D01*
X38352378Y5183043D01*
X38292827Y5199000D01*
X38292826Y5199000D01*
X38161176Y5199000D01*
X38161175Y5199000D01*
X38101624Y5183043D01*
X38040523Y5186245D01*
X37992973Y5224751D01*
X37977001Y5278670D01*
X37977001Y6026231D01*
X37977001Y6026232D01*
X37977000Y6026233D01*
X37976999Y6026233D01*
X37918577Y6016979D01*
X37910880Y6015760D01*
X37910879Y6015760D01*
X37861318Y5999658D01*
X37708785Y5950097D01*
X37519450Y5853627D01*
X37347537Y5728724D01*
X37197277Y5578464D01*
X37072373Y5406548D01*
X37052329Y5367209D01*
X37034124Y5342150D01*
X37026068Y5334094D01*
X36971551Y5306317D01*
X36911137Y5315879D01*
X36908331Y5317308D01*
X36865058Y5360564D01*
X36865048Y5360582D01*
X36841626Y5406550D01*
X36841625Y5406552D01*
X36716723Y5578465D01*
X36566465Y5728723D01*
X36394553Y5853625D01*
X36394552Y5853626D01*
X36394550Y5853627D01*
X36205214Y5950097D01*
X36003119Y6015761D01*
X35937001Y6026234D01*
X35937001Y5278670D01*
X35918094Y5220479D01*
X35868594Y5184515D01*
X35812378Y5183043D01*
X35752827Y5199000D01*
X35752826Y5199000D01*
X35621176Y5199000D01*
X35621175Y5199000D01*
X35561624Y5183043D01*
X35500523Y5186245D01*
X35452973Y5224751D01*
X35437001Y5278670D01*
X35437001Y6026231D01*
X35437001Y6026232D01*
X35437000Y6026233D01*
X35436999Y6026233D01*
X35378577Y6016979D01*
X35370880Y6015760D01*
X35370879Y6015760D01*
X35321318Y5999658D01*
X35168785Y5950097D01*
X34979450Y5853627D01*
X34807537Y5728724D01*
X34657277Y5578464D01*
X34532373Y5406548D01*
X34512329Y5367209D01*
X34494124Y5342150D01*
X34486068Y5334094D01*
X34431551Y5306317D01*
X34371137Y5315879D01*
X34368331Y5317308D01*
X34325058Y5360564D01*
X34325048Y5360582D01*
X34301626Y5406550D01*
X34301625Y5406552D01*
X34176723Y5578465D01*
X34026465Y5728723D01*
X33854553Y5853625D01*
X33854552Y5853626D01*
X33854550Y5853627D01*
X33665214Y5950097D01*
X33463119Y6015761D01*
X33397001Y6026234D01*
X33397001Y5278670D01*
X33378094Y5220479D01*
X33328594Y5184515D01*
X33272378Y5183043D01*
X33212827Y5199000D01*
X33212826Y5199000D01*
X33081176Y5199000D01*
X33081175Y5199000D01*
X33021624Y5183043D01*
X32960523Y5186245D01*
X32912973Y5224751D01*
X32897001Y5278670D01*
X32897001Y6026231D01*
X32897001Y6026232D01*
X32897000Y6026233D01*
X32896999Y6026233D01*
X32838577Y6016979D01*
X32830880Y6015760D01*
X32830879Y6015760D01*
X32781318Y5999658D01*
X32628785Y5950097D01*
X32439450Y5853627D01*
X32267537Y5728724D01*
X32117277Y5578464D01*
X31992373Y5406548D01*
X31972329Y5367209D01*
X31954124Y5342150D01*
X31946068Y5334094D01*
X31891551Y5306317D01*
X31831137Y5315879D01*
X31828331Y5317308D01*
X31785058Y5360564D01*
X31785048Y5360582D01*
X31761626Y5406550D01*
X31761625Y5406552D01*
X31636723Y5578465D01*
X31486465Y5728723D01*
X31314553Y5853625D01*
X31314552Y5853626D01*
X31314550Y5853627D01*
X31125214Y5950097D01*
X30923119Y6015761D01*
X30857001Y6026234D01*
X30857001Y5278670D01*
X30838094Y5220479D01*
X30788594Y5184515D01*
X30732378Y5183043D01*
X30672827Y5199000D01*
X30672826Y5199000D01*
X30541176Y5199000D01*
X30541175Y5199000D01*
X30481624Y5183043D01*
X30420523Y5186245D01*
X30372973Y5224751D01*
X30357001Y5278670D01*
X30357001Y6026231D01*
X30357001Y6026232D01*
X30357000Y6026233D01*
X30356999Y6026233D01*
X30298577Y6016979D01*
X30290880Y6015760D01*
X30290879Y6015760D01*
X30241318Y5999658D01*
X30088785Y5950097D01*
X29899450Y5853627D01*
X29727537Y5728724D01*
X29577277Y5578464D01*
X29452374Y5406551D01*
X29355904Y5217216D01*
X29290241Y5015121D01*
X29279769Y4949002D01*
X29279769Y4949001D01*
X29279770Y4949000D01*
X30027331Y4949000D01*
X30085522Y4930093D01*
X30121486Y4880593D01*
X30122958Y4824377D01*
X30107001Y4764826D01*
X30107001Y4633175D01*
X30122958Y4573623D01*
X30119756Y4512522D01*
X30081250Y4464972D01*
X30027331Y4449000D01*
X29279770Y4449000D01*
X29290241Y4382880D01*
X29355904Y4180786D01*
X29446445Y4003088D01*
X29452376Y3991448D01*
X29577278Y3819536D01*
X29727536Y3669278D01*
X29899448Y3544376D01*
X30088790Y3447903D01*
X30092945Y3446553D01*
X30120544Y3432491D01*
X30129393Y3426062D01*
X30165357Y3376563D01*
X30165358Y3315378D01*
X30135499Y3270690D01*
X30131126Y3266955D01*
X30111775Y3254024D01*
X29977804Y3185763D01*
X29977798Y3185759D01*
X29824934Y3074696D01*
X29691305Y2941067D01*
X29580242Y2788203D01*
X29580238Y2788197D01*
X29494452Y2619830D01*
X29494450Y2619827D01*
X29436058Y2440115D01*
X29406501Y2253490D01*
X29406501Y2064513D01*
X29436058Y1877887D01*
X29436059Y1877883D01*
X29471322Y1769359D01*
X29494450Y1698177D01*
X29494452Y1698173D01*
X29494454Y1698168D01*
X29525185Y1637854D01*
X29580239Y1529803D01*
X29628465Y1463427D01*
X29691311Y1376927D01*
X29824928Y1243310D01*
X29977802Y1132240D01*
X30146169Y1046453D01*
X30325883Y988060D01*
X30325884Y988060D01*
X30325887Y988059D01*
X30432414Y971187D01*
X30512514Y958500D01*
X30701485Y958500D01*
X30701488Y958500D01*
X30781588Y971187D01*
X30888114Y988059D01*
X30888114Y988060D01*
X30888116Y988060D01*
X30888119Y988060D01*
X30888122Y988061D01*
X30890698Y988469D01*
X30895505Y990461D01*
X31067833Y1046453D01*
X31236200Y1132240D01*
X31389074Y1243310D01*
X31522691Y1376927D01*
X31633761Y1529801D01*
X31719548Y1698168D01*
X31777941Y1877882D01*
X31777942Y1877887D01*
X31777942Y1877893D01*
X31778218Y1878941D01*
X31778677Y1880150D01*
X31778834Y1880631D01*
X31778857Y1880624D01*
X31785783Y1898837D01*
X31790079Y1907268D01*
X31833338Y1950532D01*
X31893770Y1960107D01*
X31948288Y1932333D01*
X31974217Y1881453D01*
X31975149Y1881676D01*
X31976055Y1877901D01*
X31976058Y1877891D01*
X31976059Y1877887D01*
X32011322Y1769359D01*
X32034450Y1698177D01*
X32034452Y1698173D01*
X32034454Y1698168D01*
X32065185Y1637854D01*
X32120239Y1529803D01*
X32168465Y1463427D01*
X32231311Y1376927D01*
X32364928Y1243310D01*
X32517802Y1132240D01*
X32686169Y1046453D01*
X32865883Y988060D01*
X32865884Y988060D01*
X32865887Y988059D01*
X32972414Y971187D01*
X33052514Y958500D01*
X33241485Y958500D01*
X33241488Y958500D01*
X33321588Y971187D01*
X33428114Y988059D01*
X33428114Y988060D01*
X33428116Y988060D01*
X33428119Y988060D01*
X33428122Y988061D01*
X33430698Y988469D01*
X33435505Y990461D01*
X33607833Y1046453D01*
X33776200Y1132240D01*
X33929074Y1243310D01*
X34062691Y1376927D01*
X34173761Y1529801D01*
X34259548Y1698168D01*
X34317941Y1877882D01*
X34317942Y1877887D01*
X34317942Y1877893D01*
X34318218Y1878941D01*
X34318677Y1880150D01*
X34318834Y1880631D01*
X34318857Y1880624D01*
X34325783Y1898837D01*
X34330079Y1907268D01*
X34373338Y1950532D01*
X34433770Y1960107D01*
X34488288Y1932333D01*
X34514217Y1881453D01*
X34515149Y1881676D01*
X34516055Y1877901D01*
X34516058Y1877891D01*
X34516059Y1877887D01*
X34551322Y1769359D01*
X34574450Y1698177D01*
X34574452Y1698173D01*
X34574454Y1698168D01*
X34605185Y1637854D01*
X34660239Y1529803D01*
X34708465Y1463427D01*
X34771311Y1376927D01*
X34904928Y1243310D01*
X35057802Y1132240D01*
X35226169Y1046453D01*
X35405883Y988060D01*
X35405884Y988060D01*
X35405887Y988059D01*
X35512414Y971187D01*
X35592514Y958500D01*
X35781485Y958500D01*
X35781488Y958500D01*
X35861588Y971187D01*
X35968114Y988059D01*
X35968114Y988060D01*
X35968116Y988060D01*
X35968119Y988060D01*
X35968122Y988061D01*
X35970698Y988469D01*
X35975505Y990461D01*
X36147833Y1046453D01*
X36316200Y1132240D01*
X36469074Y1243310D01*
X36602691Y1376927D01*
X36713761Y1529801D01*
X36799548Y1698168D01*
X36857941Y1877882D01*
X36857942Y1877887D01*
X36857942Y1877893D01*
X36858218Y1878941D01*
X36858677Y1880150D01*
X36858834Y1880631D01*
X36858857Y1880624D01*
X36865783Y1898837D01*
X36870079Y1907268D01*
X36913338Y1950532D01*
X36973770Y1960107D01*
X37028288Y1932333D01*
X37054217Y1881453D01*
X37055149Y1881676D01*
X37056055Y1877901D01*
X37056058Y1877891D01*
X37056059Y1877887D01*
X37091322Y1769359D01*
X37114450Y1698177D01*
X37114452Y1698173D01*
X37114454Y1698168D01*
X37145185Y1637854D01*
X37200239Y1529803D01*
X37248465Y1463427D01*
X37311311Y1376927D01*
X37444928Y1243310D01*
X37597802Y1132240D01*
X37766169Y1046453D01*
X37945883Y988060D01*
X37945884Y988060D01*
X37945887Y988059D01*
X38052414Y971187D01*
X38132514Y958500D01*
X38321485Y958500D01*
X38321488Y958500D01*
X38401588Y971187D01*
X38508114Y988059D01*
X38508114Y988060D01*
X38508116Y988060D01*
X38508119Y988060D01*
X38508122Y988061D01*
X38510698Y988469D01*
X38515505Y990461D01*
X38687833Y1046453D01*
X38856200Y1132240D01*
X39009074Y1243310D01*
X39142691Y1376927D01*
X39170192Y1414781D01*
X39192092Y1436680D01*
X39198762Y1441526D01*
X39256952Y1460433D01*
X39315143Y1441525D01*
X39351106Y1392029D01*
X39353654Y1384188D01*
X39358500Y1353592D01*
X39358500Y615181D01*
X39353654Y584588D01*
X39349532Y571902D01*
X39313580Y522411D01*
X39309459Y519416D01*
X39251271Y500500D01*
X26575929Y500500D01*
X26545335Y505346D01*
X26534933Y508726D01*
X26485433Y544691D01*
X26466527Y602882D01*
X26481104Y654588D01*
X26484119Y659509D01*
X26498521Y677782D01*
X26562412Y741672D01*
X26710444Y945420D01*
X26824778Y1169813D01*
X26902604Y1409337D01*
X26902605Y1409342D01*
X26942000Y1658071D01*
X26942000Y2183998D01*
X26942000Y2183999D01*
X26941999Y2184000D01*
X26941998Y2184000D01*
X26177598Y2184000D01*
X26119407Y2202907D01*
X26083443Y2252407D01*
X26080500Y2302313D01*
X26091999Y2360126D01*
X26092000Y2360133D01*
X26092000Y2507868D01*
X26091999Y2507875D01*
X26080500Y2565687D01*
X26087692Y2626448D01*
X26129225Y2671377D01*
X26177598Y2684000D01*
X26941998Y2684000D01*
X26941999Y2684000D01*
X26942000Y2684001D01*
X26942000Y3209927D01*
X26942000Y3209931D01*
X26902605Y3458660D01*
X26877369Y3536329D01*
X26824778Y3698188D01*
X26710444Y3922581D01*
X26562412Y4126329D01*
X26384328Y4304413D01*
X26180580Y4452445D01*
X26180579Y4452446D01*
X26180577Y4452447D01*
X25956187Y4566779D01*
X25716658Y4644607D01*
X25592000Y4664351D01*
X25592000Y3269598D01*
X25573093Y3211407D01*
X25523593Y3175443D01*
X25473687Y3172500D01*
X25415874Y3184000D01*
X25415869Y3184000D01*
X25268131Y3184000D01*
X25268125Y3184000D01*
X25210313Y3172500D01*
X25149552Y3179692D01*
X25104623Y3221225D01*
X25092000Y3269598D01*
X25092000Y4664348D01*
X25092000Y4664349D01*
X25091999Y4664350D01*
X25091998Y4664350D01*
X24967340Y4644607D01*
X24727811Y4566779D01*
X24503421Y4452447D01*
X24299672Y4304414D01*
X24121586Y4126328D01*
X23973554Y3922580D01*
X23971527Y3919271D01*
X23971173Y3919488D01*
X23955662Y3898143D01*
X23946231Y3888714D01*
X23891722Y3860944D01*
X23890636Y3860772D01*
X23837268Y3867087D01*
X23827535Y3871118D01*
X23820471Y3874374D01*
X23818790Y3875231D01*
X23818788Y3875232D01*
X23669590Y3951252D01*
X23666911Y3952669D01*
X23665105Y3953660D01*
X23664438Y3953877D01*
X23594841Y3976491D01*
X23499701Y4007404D01*
X23499696Y4007405D01*
X23328617Y4034500D01*
X23328614Y4034500D01*
X23328611Y4034500D01*
X23155389Y4034500D01*
X23155386Y4034500D01*
X23155383Y4034500D01*
X22984302Y4007405D01*
X22984297Y4007404D01*
X22819561Y3953877D01*
X22815685Y3952000D01*
X22814407Y3951251D01*
X22665214Y3875235D01*
X22665208Y3875231D01*
X22525070Y3773414D01*
X22416644Y3664989D01*
X22391588Y3646784D01*
X22379705Y3640729D01*
X22319273Y3631157D01*
X22319271Y3631157D01*
X22318185Y3631329D01*
X22269376Y3653831D01*
X22264369Y3658107D01*
X22248576Y3675193D01*
X22195450Y3748314D01*
X22195448Y3748316D01*
X22195446Y3748319D01*
X22056314Y3887451D01*
X22056310Y3887454D01*
X22056308Y3887456D01*
X21897156Y4003088D01*
X21897142Y4003097D01*
X21721832Y4092421D01*
X21595506Y4133466D01*
X21534706Y4153221D01*
X21492000Y4159986D01*
X21492000Y2961907D01*
X21473093Y2903716D01*
X21423593Y2867752D01*
X21367378Y2866280D01*
X21301244Y2884000D01*
X21182756Y2884000D01*
X21116622Y2866280D01*
X21055521Y2869483D01*
X21007971Y2907988D01*
X20992000Y2961907D01*
X20992000Y4159985D01*
X20992000Y4159986D01*
X20991999Y4159986D01*
X20949293Y4153221D01*
X20949292Y4153221D01*
X20762166Y4092421D01*
X20586857Y4003098D01*
X20430085Y3889196D01*
X20416833Y3881076D01*
X20400097Y3872550D01*
X20339664Y3862984D01*
X20334618Y3863783D01*
X20280125Y3891556D01*
X20198483Y3973198D01*
X20161152Y3991448D01*
X20161152Y3991449D01*
X20161150Y3991449D01*
X20093401Y4024571D01*
X20093397Y4024572D01*
X20093395Y4024573D01*
X20066139Y4028544D01*
X20066138Y4028545D01*
X20035655Y4032986D01*
X20025260Y4034500D01*
X20025258Y4034500D01*
X18495252Y4034500D01*
X18464661Y4039345D01*
X18444135Y4046014D01*
X18394636Y4081976D01*
X18383284Y4097601D01*
X18362420Y4126320D01*
X18362416Y4126324D01*
X18362414Y4126327D01*
X18184328Y4304413D01*
X17980580Y4452445D01*
X17980579Y4452446D01*
X17980577Y4452447D01*
X17756187Y4566779D01*
X17516658Y4644607D01*
X17267929Y4684000D01*
X17267926Y4684000D01*
X17016074Y4684000D01*
X17016071Y4684000D01*
X16767339Y4644606D01*
X16527811Y4566779D01*
X16303421Y4452447D01*
X16099672Y4304414D01*
X15921586Y4126328D01*
X15871779Y4057776D01*
X15871779Y4057775D01*
X16303430Y3626124D01*
X16727920Y3201634D01*
X16755697Y3147117D01*
X16746126Y3086685D01*
X16712918Y3049315D01*
X16663907Y3016567D01*
X16559434Y2912094D01*
X16526687Y2863083D01*
X16478637Y2825203D01*
X16417499Y2822801D01*
X16374367Y2848080D01*
X15626123Y3596324D01*
X15581395Y3458664D01*
X15542000Y3209931D01*
X15542000Y1658071D01*
X15581394Y1409340D01*
X15626123Y1271678D01*
X16374365Y2019922D01*
X16428882Y2047699D01*
X16489314Y2038128D01*
X16526684Y2004920D01*
X16559433Y1955908D01*
X16559434Y1955907D01*
X16559437Y1955903D01*
X16663903Y1851437D01*
X16712914Y1818689D01*
X16712916Y1818688D01*
X16750796Y1770638D01*
X16753198Y1709500D01*
X16727919Y1666369D01*
X15871779Y810228D01*
X15871779Y810227D01*
X15921579Y741681D01*
X15921584Y741675D01*
X15982668Y680590D01*
X16000875Y655530D01*
X16005839Y645787D01*
X16015409Y585355D01*
X15987630Y530839D01*
X15940751Y504582D01*
X15935156Y503238D01*
X15912033Y500500D01*
X615180Y500500D01*
X584587Y505346D01*
X571901Y509468D01*
X522401Y545432D01*
X522394Y545442D01*
X519400Y549564D01*
X500500Y607744D01*
X500500Y9814320D01*
X505343Y9844906D01*
X509465Y9857595D01*
X545423Y9907094D01*
X546022Y9907529D01*
X549563Y9910100D01*
X607743Y9929000D01*
X3535355Y9929000D01*
X3535356Y9929000D01*
X3535357Y9929001D01*
X3535357Y11330000D01*
X3554264Y11388191D01*
X3603764Y11424155D01*
X3634357Y11429000D01*
X3936357Y11429000D01*
X3994548Y11410093D01*
X4030512Y11360593D01*
X4035357Y11330000D01*
X4035357Y9929001D01*
X4035358Y9929000D01*
X7103177Y9929000D01*
X7103181Y9929000D01*
X7162727Y9935402D01*
X7162738Y9935404D01*
X7297445Y9985647D01*
X7297447Y9985648D01*
X7412541Y10071808D01*
X7412549Y10071816D01*
X7498709Y10186910D01*
X7498710Y10186912D01*
X7548953Y10321619D01*
X7548955Y10321630D01*
X7555357Y10381176D01*
X7555357Y11813999D01*
X7555356Y11814000D01*
X7555355Y11814000D01*
X6483701Y11814000D01*
X6425510Y11832907D01*
X6389546Y11882407D01*
X6386603Y11932315D01*
X6386911Y11933863D01*
X6400357Y12001458D01*
X6400357Y12126542D01*
X6386912Y12194136D01*
X8064858Y12194136D01*
X8064858Y11933862D01*
X8093192Y11718646D01*
X8097983Y11682259D01*
X8097983Y11682254D01*
X8098829Y11675823D01*
X8166194Y11424411D01*
X8265795Y11183951D01*
X8265839Y11183863D01*
X8266231Y11183197D01*
X8374013Y10996515D01*
X8395933Y10958549D01*
X8395935Y10958546D01*
X8463126Y10870981D01*
X8554377Y10752060D01*
X8738418Y10568019D01*
X8944907Y10409575D01*
X8944909Y10409574D01*
X8944921Y10409567D01*
X8946063Y10408852D01*
X8947481Y10408089D01*
X8956195Y10403058D01*
X9167299Y10281176D01*
X9169553Y10279875D01*
X9170224Y10279481D01*
X9170307Y10279439D01*
X9170310Y10279438D01*
X9170313Y10279436D01*
X9366356Y10198233D01*
X9410771Y10179836D01*
X9662175Y10112473D01*
X9920221Y10078500D01*
X9920222Y10078500D01*
X13450494Y10078500D01*
X13450495Y10078500D01*
X13708541Y10112473D01*
X13959945Y10179836D01*
X14125949Y10248597D01*
X14194435Y10276965D01*
X14200574Y10279048D01*
X14204890Y10281176D01*
X14210137Y10285057D01*
X14425809Y10409575D01*
X14632298Y10568019D01*
X14816339Y10752060D01*
X14974783Y10958549D01*
X15104920Y11183952D01*
X15204522Y11424413D01*
X15271885Y11675817D01*
X15305858Y11933863D01*
X15305858Y12194137D01*
X15271885Y12452183D01*
X15204522Y12703587D01*
X15186125Y12748002D01*
X15104922Y12944045D01*
X15104919Y12944050D01*
X15104919Y12944051D01*
X15104877Y12944134D01*
X15104483Y12944805D01*
X14976269Y13166877D01*
X14975506Y13168295D01*
X14974785Y13169447D01*
X14974784Y13169449D01*
X14974783Y13169451D01*
X14816339Y13375940D01*
X14632298Y13559981D01*
X14425809Y13718425D01*
X14425806Y13718427D01*
X14425800Y13718431D01*
X14425798Y13718432D01*
X14201161Y13848127D01*
X14200495Y13848519D01*
X14200407Y13848563D01*
X13959947Y13948164D01*
X13813431Y13987422D01*
X13813412Y13987427D01*
X13708541Y14015527D01*
X13708538Y14015528D01*
X13708536Y14015528D01*
X13699399Y14016731D01*
X13699388Y14016733D01*
X13450495Y14049500D01*
X12207180Y14049500D01*
X12176587Y14054346D01*
X12163901Y14058468D01*
X12114401Y14094432D01*
X12114394Y14094442D01*
X12111400Y14098564D01*
X12092500Y14156744D01*
X12092500Y14470230D01*
X12094402Y14489541D01*
X12098133Y14508301D01*
X12103767Y14526876D01*
X12111028Y14544404D01*
X12127687Y14584622D01*
X12141086Y14686404D01*
X12145486Y14705281D01*
X12154731Y14732524D01*
X12166160Y14755701D01*
X12224376Y14842827D01*
X12224381Y14842834D01*
X12226945Y14846673D01*
X12226957Y14846690D01*
X12229020Y14849780D01*
X12232084Y14854363D01*
X12288658Y14990945D01*
X12317500Y15135940D01*
X12317500Y15360658D01*
X12322347Y15391255D01*
X12325868Y15402090D01*
X12361834Y15451588D01*
X12420021Y15470493D01*
X12428195Y15470493D01*
X12466080Y15462957D01*
X12493528Y15451588D01*
X12560238Y15423956D01*
X12677639Y15408500D01*
X13581360Y15408501D01*
X13698762Y15423956D01*
X13844841Y15484464D01*
X13853017Y15490739D01*
X13880232Y15505518D01*
X13892812Y15509973D01*
X13953971Y15511575D01*
X13961022Y15509487D01*
X14002908Y15484568D01*
X15601418Y13886058D01*
X15619623Y13861000D01*
X15630709Y13839243D01*
X15641500Y13794297D01*
X15641500Y11281474D01*
X15641500Y11136526D01*
X15679016Y10996515D01*
X15751490Y10870985D01*
X15751491Y10870984D01*
X15751493Y10870981D01*
X16158986Y10463490D01*
X16158991Y10463486D01*
X16218571Y10429088D01*
X16252367Y10409575D01*
X16252368Y10409575D01*
X16263652Y10403060D01*
X16263656Y10403058D01*
X16284514Y10391016D01*
X16284516Y10391015D01*
X16424523Y10353500D01*
X16424525Y10353499D01*
X16424526Y10353499D01*
X16424527Y10353499D01*
X16569476Y10353499D01*
X17367677Y10353499D01*
X17398267Y10348655D01*
X17414994Y10343220D01*
X17459674Y10313369D01*
X17463951Y10308361D01*
X17476885Y10289006D01*
X17497472Y10248600D01*
X17497473Y10248599D01*
X17497476Y10248594D01*
X17613172Y10089353D01*
X17752354Y9950171D01*
X17752357Y9950169D01*
X17752410Y9950116D01*
X17752660Y9949908D01*
X17755049Y9947893D01*
X17755731Y9946795D01*
X17755812Y9946714D01*
X17755793Y9946696D01*
X17757098Y9944595D01*
X17771313Y9930407D01*
X17776159Y9923737D01*
X17782846Y9903156D01*
X17787340Y9895923D01*
X17786948Y9890529D01*
X17795066Y9865547D01*
X17776158Y9807356D01*
X17726662Y9771393D01*
X17718821Y9768845D01*
X17688225Y9763999D01*
X17619176Y9763999D01*
X17559629Y9757598D01*
X17559627Y9757598D01*
X17559620Y9757597D01*
X17559618Y9757596D01*
X17492264Y9732475D01*
X17424913Y9707354D01*
X17424910Y9707353D01*
X17424904Y9707349D01*
X17309816Y9621194D01*
X17309805Y9621183D01*
X17223650Y9506095D01*
X17223646Y9506089D01*
X17223645Y9506086D01*
X17173404Y9371383D01*
X17173403Y9371380D01*
X17173402Y9371373D01*
X17173401Y9371370D01*
X17167000Y9311824D01*
X17167000Y8614000D01*
X17167001Y8613999D01*
X18039094Y8613999D01*
X18097285Y8595092D01*
X18133249Y8545592D01*
X18134720Y8489375D01*
X18117000Y8423246D01*
X18117000Y8304753D01*
X18134720Y8238623D01*
X18131519Y8177521D01*
X18093014Y8129971D01*
X18039094Y8113999D01*
X17167001Y8113999D01*
X17167000Y8113998D01*
X17167000Y8113997D01*
X17167000Y7454111D01*
X17163934Y7444678D01*
X17166999Y7416175D01*
X17173401Y7356629D01*
X17173403Y7356618D01*
X17223645Y7221914D01*
X17223646Y7221911D01*
X17223650Y7221905D01*
X17309805Y7106817D01*
X17309807Y7106815D01*
X17309815Y7106807D01*
X17424909Y7020647D01*
X17424911Y7020646D01*
X17559618Y6970403D01*
X17559629Y6970401D01*
X17619176Y6963999D01*
X18316998Y6963999D01*
X18316999Y6963999D01*
X18317000Y6964000D01*
X18317000Y7836093D01*
X18335907Y7894284D01*
X18385407Y7930248D01*
X18441624Y7931719D01*
X18469186Y7924334D01*
X18507753Y7914000D01*
X18507755Y7913999D01*
X18626244Y7913999D01*
X18626245Y7913999D01*
X18626245Y7914000D01*
X18686886Y7930248D01*
X18692376Y7931719D01*
X18753478Y7928518D01*
X18801028Y7890013D01*
X18817000Y7836093D01*
X18817000Y6964000D01*
X18817001Y6963999D01*
X19514820Y6963999D01*
X19514824Y6963999D01*
X19574370Y6970401D01*
X19574381Y6970403D01*
X19709088Y7020646D01*
X19709090Y7020647D01*
X19824184Y7106807D01*
X19824192Y7106815D01*
X19910352Y7221909D01*
X19910353Y7221911D01*
X19960596Y7356618D01*
X19960598Y7356629D01*
X19967000Y7416175D01*
X19967000Y8113998D01*
X19966999Y8113999D01*
X19966998Y8113999D01*
X19094906Y8113999D01*
X19036715Y8132906D01*
X19000751Y8182406D01*
X18999280Y8238623D01*
X19016999Y8304753D01*
X19017000Y8304755D01*
X19017000Y8423244D01*
X19016999Y8423246D01*
X18999280Y8489375D01*
X19002481Y8550477D01*
X19040986Y8598027D01*
X19094906Y8613999D01*
X19966998Y8613999D01*
X19966999Y8613999D01*
X19967000Y8614000D01*
X19967000Y9311824D01*
X19960598Y9371370D01*
X19960596Y9371381D01*
X19910353Y9506088D01*
X19910352Y9506090D01*
X19824192Y9621184D01*
X19824184Y9621192D01*
X19824182Y9621194D01*
X19709094Y9707349D01*
X19709088Y9707353D01*
X19709085Y9707354D01*
X19574381Y9757596D01*
X19574373Y9757598D01*
X19574371Y9757598D01*
X19554521Y9759732D01*
X19514824Y9763999D01*
X19514822Y9763999D01*
X19445773Y9763999D01*
X19415173Y9768847D01*
X19407333Y9771395D01*
X19357836Y9807362D01*
X19338933Y9865554D01*
X19357839Y9923735D01*
X19362785Y9930543D01*
X19380119Y9948920D01*
X19381632Y9950162D01*
X19381640Y9950167D01*
X19381646Y9950171D01*
X19520828Y10089353D01*
X19636524Y10248594D01*
X19636528Y10248600D01*
X19684738Y10343220D01*
X19725884Y10423974D01*
X19786709Y10611173D01*
X19817500Y10805582D01*
X19817500Y11002416D01*
X19817500Y11002420D01*
X19817500Y11002424D01*
X19786711Y11196815D01*
X19786710Y11196821D01*
X19786709Y11196825D01*
X19725884Y11384024D01*
X19636524Y11559404D01*
X19520828Y11718645D01*
X19381646Y11857827D01*
X19381642Y11857830D01*
X19381640Y11857832D01*
X19230864Y11967378D01*
X19230853Y11967386D01*
X19222405Y11973523D01*
X19222404Y11973524D01*
X19222402Y11973525D01*
X19047025Y12062883D01*
X18859821Y12123710D01*
X18859815Y12123712D01*
X18665424Y12154499D01*
X18665420Y12154499D01*
X18665417Y12154499D01*
X18468583Y12154499D01*
X18468580Y12154499D01*
X18468576Y12154499D01*
X18274182Y12123712D01*
X18086973Y12062883D01*
X17911597Y11973526D01*
X17911591Y11973522D01*
X17752360Y11857833D01*
X17613166Y11718639D01*
X17497474Y11559404D01*
X17497472Y11559401D01*
X17478684Y11522526D01*
X17460479Y11497467D01*
X17448044Y11485032D01*
X17401162Y11458774D01*
X17398973Y11458249D01*
X17394759Y11457237D01*
X17371641Y11454499D01*
X16857180Y11454499D01*
X16826587Y11459345D01*
X16813901Y11463467D01*
X16764401Y11499431D01*
X16764394Y11499441D01*
X16761400Y11503563D01*
X16742500Y11561743D01*
X16742500Y14146475D01*
X16742500Y14146476D01*
X16733031Y14181817D01*
X16733029Y14181824D01*
X16733029Y14181825D01*
X16717491Y14239809D01*
X16704984Y14286486D01*
X16685765Y14319774D01*
X16632510Y14412016D01*
X15481113Y15563413D01*
X15462907Y15588472D01*
X15457941Y15598219D01*
X15448372Y15658649D01*
X15476151Y15713165D01*
X15523050Y15739426D01*
X15528646Y15740769D01*
X15551749Y15743503D01*
X15648437Y15743503D01*
X15648442Y15743503D01*
X15706262Y15749718D01*
X15837068Y15798507D01*
X15837070Y15798510D01*
X15843692Y15800979D01*
X15843700Y15800980D01*
X15843735Y15800995D01*
X15845182Y15801534D01*
X15855257Y15804686D01*
X15877751Y15810427D01*
X15902233Y15813502D01*
X17201820Y15813502D01*
X17232408Y15808659D01*
X17245095Y15804536D01*
X17294595Y15768575D01*
X17294596Y15768574D01*
X17297591Y15764452D01*
X17316500Y15706262D01*
X17316500Y15495735D01*
X17319032Y15478357D01*
X17319034Y15478351D01*
X17320179Y15470493D01*
X17326427Y15427606D01*
X17347212Y15385091D01*
X17350473Y15378419D01*
X17350475Y15378415D01*
X17377801Y15322520D01*
X17377802Y15322518D01*
X17460517Y15239803D01*
X17514285Y15213518D01*
X17565373Y15188542D01*
X17565600Y15188430D01*
X17565605Y15188429D01*
X17565607Y15188428D01*
X17565611Y15188428D01*
X17568875Y15187673D01*
X17572693Y15187396D01*
X17633740Y15178501D01*
X17633743Y15178501D01*
X17915277Y15178501D01*
X17938034Y15171107D01*
X17953720Y15171105D01*
X17966398Y15161891D01*
X17973468Y15159594D01*
X17976425Y15157359D01*
X17982594Y15152514D01*
X17981397Y15150991D01*
X18003215Y15135135D01*
X18022116Y15076943D01*
X18003202Y15018754D01*
X18001532Y15016456D01*
X17966392Y14986447D01*
X17911594Y14958526D01*
X17752360Y14842835D01*
X17613166Y14703641D01*
X17497477Y14544410D01*
X17497475Y14544407D01*
X17497474Y14544404D01*
X17479079Y14508301D01*
X17408116Y14369028D01*
X17347287Y14181818D01*
X17316500Y13987427D01*
X17316500Y13790577D01*
X17347287Y13596186D01*
X17347289Y13596181D01*
X17347289Y13596180D01*
X17408116Y13408976D01*
X17424948Y13375940D01*
X17497476Y13233596D01*
X17613172Y13074355D01*
X17752354Y12935173D01*
X17911595Y12819477D01*
X18086975Y12730117D01*
X18274174Y12669292D01*
X18274175Y12669292D01*
X18274178Y12669291D01*
X18398428Y12649612D01*
X18468577Y12638501D01*
X18665420Y12638501D01*
X18665423Y12638501D01*
X18742711Y12650743D01*
X18859821Y12669291D01*
X18859821Y12669292D01*
X18859823Y12669292D01*
X18859826Y12669292D01*
X18859829Y12669293D01*
X18862405Y12669701D01*
X18867212Y12671693D01*
X19047025Y12730117D01*
X19222405Y12819477D01*
X19381646Y12935173D01*
X19520828Y13074355D01*
X19636524Y13233596D01*
X19725884Y13408976D01*
X19786709Y13596175D01*
X19786710Y13596180D01*
X19806072Y13718427D01*
X19817500Y13790578D01*
X19817500Y13987426D01*
X19786711Y14181817D01*
X19786710Y14181824D01*
X19779555Y14203845D01*
X19725884Y14369026D01*
X19636524Y14544406D01*
X19520828Y14703647D01*
X19381646Y14842829D01*
X19381642Y14842832D01*
X19381640Y14842834D01*
X19230869Y14952377D01*
X19230850Y14952390D01*
X19222405Y14958525D01*
X19222404Y14958526D01*
X19222402Y14958527D01*
X19172069Y14984173D01*
X19147011Y15002378D01*
X19141181Y15008208D01*
X19113404Y15062725D01*
X19122975Y15123157D01*
X19166238Y15166421D01*
X19168773Y15167713D01*
X19213715Y15178501D01*
X19500257Y15178501D01*
X19500260Y15178501D01*
X19568393Y15188428D01*
X19673483Y15239803D01*
X19756198Y15322518D01*
X19807573Y15427608D01*
X19817500Y15495741D01*
X19817500Y17362261D01*
X19807573Y17430394D01*
X19756198Y17535484D01*
X19673483Y17618199D01*
X19673481Y17618200D01*
X19673480Y17618201D01*
X19663133Y17623259D01*
X19568395Y17669574D01*
X19541139Y17673545D01*
X19541138Y17673546D01*
X19510655Y17677987D01*
X19500260Y17679501D01*
X19500258Y17679501D01*
X17633736Y17679501D01*
X17599670Y17674538D01*
X17599669Y17674539D01*
X17565606Y17669575D01*
X17565604Y17669575D01*
X17460520Y17618202D01*
X17377800Y17535482D01*
X17326427Y17430397D01*
X17325670Y17427127D01*
X17325393Y17423297D01*
X17319181Y17380659D01*
X17316500Y17362258D01*
X17316500Y17029183D01*
X17311654Y16998590D01*
X17307532Y16985904D01*
X17271580Y16936413D01*
X17267459Y16933418D01*
X17209271Y16914502D01*
X15902233Y16914502D01*
X15877748Y16917578D01*
X15853635Y16923733D01*
X15842265Y16927378D01*
X15837706Y16929150D01*
X15837075Y16929494D01*
X15837069Y16929497D01*
X15837068Y16929497D01*
X15830664Y16931886D01*
X15830627Y16931900D01*
X15710408Y16976740D01*
X15706936Y16978215D01*
X15678157Y16981309D01*
X15667240Y16982482D01*
X15667238Y16982483D01*
X15648452Y16984502D01*
X15648443Y16984502D01*
X15648439Y16984502D01*
X15185563Y16984502D01*
X15185559Y16984502D01*
X15183803Y16984439D01*
X15183801Y16984502D01*
X15183798Y16984502D01*
X15183798Y16984580D01*
X15183792Y16984727D01*
X15158949Y16986424D01*
X15147510Y16988828D01*
X15094452Y17019299D01*
X15069438Y17075134D01*
X15068780Y17081257D01*
X15074456Y17126435D01*
X15081284Y17144738D01*
X15087500Y17202557D01*
X15087499Y17565442D01*
X15081284Y17623262D01*
X15032495Y17754068D01*
X15007608Y17787313D01*
X14996639Y17801967D01*
X14982189Y17829354D01*
X14972790Y17856934D01*
X14967500Y17888864D01*
X14967500Y17914287D01*
X14972344Y17944876D01*
X14972626Y17945743D01*
X14979891Y17968107D01*
X15004040Y18007516D01*
X15054945Y18058421D01*
X15079997Y18076622D01*
X15101764Y18087712D01*
X15146705Y18098500D01*
X16073207Y18098500D01*
X16085100Y18105367D01*
X16086183Y18105657D01*
X16199485Y18136016D01*
X16200367Y18136525D01*
X16325015Y18208490D01*
X16891563Y18775038D01*
X16964037Y18900568D01*
X16964038Y18900572D01*
X16964039Y18900573D01*
X16969544Y18921122D01*
X16975650Y18943907D01*
X16987202Y18987016D01*
X16989291Y18994814D01*
X16989299Y18994826D01*
X17001887Y19023104D01*
X17010518Y19036395D01*
X17053839Y19073165D01*
X17062473Y19076945D01*
X17075270Y19080605D01*
X17075100Y19081156D01*
X17082444Y19083425D01*
X17100322Y19092165D01*
X17187536Y19134801D01*
X17250927Y19198194D01*
X17275976Y19216393D01*
X17289766Y19223419D01*
X17346349Y19233522D01*
X17350580Y19233022D01*
X17356300Y19232344D01*
X17373163Y19227867D01*
X17373433Y19228754D01*
X17378084Y19227344D01*
X17378087Y19227342D01*
X17523082Y19198500D01*
X17523083Y19198500D01*
X17670917Y19198500D01*
X17670918Y19198500D01*
X17815913Y19227342D01*
X17815915Y19227344D01*
X17820686Y19228292D01*
X17820696Y19228240D01*
X17836838Y19231287D01*
X17853816Y19232624D01*
X17909960Y19220308D01*
X17918701Y19215413D01*
X17940332Y19199039D01*
X17973371Y19166001D01*
X18004570Y19134802D01*
X18028098Y19123300D01*
X18028100Y19123299D01*
X18067449Y19104062D01*
X18109346Y19083580D01*
X18109649Y19083430D01*
X18109656Y19083429D01*
X18109657Y19083428D01*
X18109658Y19083428D01*
X18109660Y19083427D01*
X18109665Y19083427D01*
X18112929Y19082671D01*
X18116746Y19082395D01*
X18177793Y19073500D01*
X18177796Y19073500D01*
X19304310Y19073500D01*
X19304313Y19073500D01*
X19372446Y19083427D01*
X19477536Y19134802D01*
X19560251Y19217517D01*
X19611626Y19322607D01*
X19621553Y19390740D01*
X19621553Y20517260D01*
X19611626Y20585393D01*
X19611625Y20585396D01*
X19601131Y20606861D01*
X19601130Y20606862D01*
X19572986Y20664433D01*
X19565341Y20680071D01*
X19560251Y20690483D01*
X19477536Y20773198D01*
X19477534Y20773199D01*
X19372448Y20824573D01*
X19345192Y20828544D01*
X19345191Y20828545D01*
X19314708Y20832986D01*
X19304313Y20834500D01*
X19304311Y20834500D01*
X18177789Y20834500D01*
X18143723Y20829537D01*
X18143722Y20829538D01*
X18109660Y20824574D01*
X18109658Y20824574D01*
X18109657Y20824573D01*
X18057143Y20798900D01*
X18004569Y20773198D01*
X17934666Y20703296D01*
X17909609Y20685092D01*
X17895820Y20678066D01*
X17839242Y20667961D01*
X17819008Y20670355D01*
X17811326Y20671571D01*
X17670920Y20699500D01*
X17670918Y20699500D01*
X17523082Y20699500D01*
X17523081Y20699500D01*
X17523078Y20699500D01*
X17380657Y20671170D01*
X17369091Y20669572D01*
X17345883Y20667750D01*
X17289758Y20680071D01*
X17281027Y20684961D01*
X17259404Y20701329D01*
X17187536Y20773197D01*
X17187532Y20773199D01*
X17082448Y20824572D01*
X17055192Y20828543D01*
X17055191Y20828544D01*
X17024708Y20832985D01*
X17014313Y20834499D01*
X17014311Y20834499D01*
X15887789Y20834499D01*
X15853723Y20829536D01*
X15853722Y20829537D01*
X15819659Y20824573D01*
X15819657Y20824573D01*
X15714573Y20773200D01*
X15631853Y20690480D01*
X15580480Y20585395D01*
X15579723Y20582124D01*
X15579446Y20578296D01*
X15570553Y20517259D01*
X15570553Y19390739D01*
X15572031Y19380596D01*
X15577836Y19340749D01*
X15578859Y19325035D01*
X15578500Y19300390D01*
X15558748Y19242481D01*
X15509422Y19207459D01*
X15498909Y19204127D01*
X15468998Y19199500D01*
X15143476Y19199500D01*
X15112879Y19204347D01*
X15101795Y19207949D01*
X15052297Y19243915D01*
X15033395Y19301375D01*
X15033217Y19325606D01*
X15034247Y19340600D01*
X15041553Y19390740D01*
X15041553Y20517260D01*
X15031626Y20585393D01*
X15031625Y20585396D01*
X15021131Y20606861D01*
X15021130Y20606862D01*
X14992986Y20664433D01*
X14985341Y20680071D01*
X14980251Y20690483D01*
X14947719Y20723015D01*
X14910674Y20760061D01*
X14892470Y20785117D01*
X14885446Y20798903D01*
X14875344Y20855485D01*
X14876524Y20865449D01*
X14881710Y20885314D01*
X14881300Y20885438D01*
X14882706Y20890077D01*
X14882711Y20890087D01*
X14903497Y20994584D01*
X14911553Y21035082D01*
X14911553Y21182918D01*
X14882711Y21327913D01*
X14826137Y21464495D01*
X14744004Y21587416D01*
X14639469Y21691951D01*
X14516548Y21774084D01*
X14516546Y21774085D01*
X14379967Y21830658D01*
X14379965Y21830659D01*
X14234973Y21859500D01*
X14234971Y21859500D01*
X14087135Y21859500D01*
X14087134Y21859500D01*
X14087131Y21859500D01*
X13942138Y21830658D01*
X13942136Y21830658D01*
X13805563Y21774088D01*
X13805551Y21774082D01*
X13682639Y21691953D01*
X13578100Y21587414D01*
X13495971Y21464502D01*
X13495965Y21464490D01*
X13439395Y21327917D01*
X13439395Y21327915D01*
X13410553Y21182922D01*
X13410553Y21035080D01*
X13439394Y20890089D01*
X13440807Y20885433D01*
X13439981Y20885183D01*
X13445204Y20863398D01*
X13446418Y20847972D01*
X13434098Y20791828D01*
X13429204Y20783090D01*
X13412834Y20761464D01*
X13341854Y20690483D01*
X13341852Y20690480D01*
X13290480Y20585397D01*
X13285967Y20554418D01*
X13280553Y20517259D01*
X13280553Y19390736D01*
X13282030Y19380596D01*
X13282031Y19380596D01*
X13290480Y19322605D01*
X13309244Y19284225D01*
X13320020Y19262182D01*
X13320021Y19262177D01*
X13341852Y19217522D01*
X13341853Y19217520D01*
X13341854Y19217519D01*
X13341855Y19217517D01*
X13424570Y19134802D01*
X13424571Y19134802D01*
X13424572Y19134801D01*
X13448098Y19123300D01*
X13448100Y19123299D01*
X13487449Y19104062D01*
X13529346Y19083580D01*
X13529649Y19083430D01*
X13529656Y19083429D01*
X13529657Y19083428D01*
X13529658Y19083428D01*
X13529660Y19083427D01*
X13529665Y19083427D01*
X13532929Y19082671D01*
X13536746Y19082395D01*
X13597793Y19073500D01*
X14258287Y19073500D01*
X14288875Y19068657D01*
X14299278Y19065277D01*
X14348778Y19029315D01*
X14367688Y18971125D01*
X14353095Y18919386D01*
X14350088Y18914480D01*
X14335685Y18896212D01*
X13986385Y18546911D01*
X13972447Y18535320D01*
X13955932Y18523972D01*
X13897265Y18506600D01*
X13839591Y18527030D01*
X13839587Y18527033D01*
X13835315Y18530312D01*
X13809101Y18562084D01*
X13808641Y18561816D01*
X13807085Y18564494D01*
X13800005Y18575090D01*
X13765877Y18626165D01*
X13724951Y18687416D01*
X13620416Y18791951D01*
X13497495Y18874084D01*
X13452878Y18892565D01*
X13417271Y18907314D01*
X13360917Y18930657D01*
X13360911Y18930659D01*
X13215920Y18959500D01*
X13215918Y18959500D01*
X13068082Y18959500D01*
X13068081Y18959500D01*
X13068078Y18959500D01*
X12923085Y18930658D01*
X12923083Y18930658D01*
X12786510Y18874088D01*
X12786498Y18874082D01*
X12663586Y18791953D01*
X12559047Y18687414D01*
X12476918Y18564502D01*
X12476914Y18564493D01*
X12420340Y18427913D01*
X12420339Y18427909D01*
X12409448Y18373154D01*
X12409347Y18372655D01*
X12408913Y18370536D01*
X12408657Y18369508D01*
X12407842Y18365415D01*
X12407842Y18365413D01*
X12406924Y18360799D01*
X12406850Y18360436D01*
X12393345Y18292536D01*
X12379000Y18220422D01*
X12379000Y17871061D01*
X12374154Y17840468D01*
X12367367Y17819580D01*
X12333480Y17771631D01*
X12288730Y17737294D01*
X12288707Y17737271D01*
X12192238Y17611550D01*
X12191218Y17608838D01*
X12139966Y17485102D01*
X12123783Y17458692D01*
X12113734Y17446926D01*
X12065333Y17415940D01*
X12055688Y17413219D01*
X12028808Y17409500D01*
X11493078Y17409500D01*
X11348085Y17380658D01*
X11348083Y17380658D01*
X11211510Y17324088D01*
X11211498Y17324082D01*
X11088586Y17241953D01*
X10984047Y17137414D01*
X10901918Y17014502D01*
X10901912Y17014490D01*
X10845342Y16877917D01*
X10845342Y16877915D01*
X10816500Y16732922D01*
X10816500Y15794181D01*
X10811654Y15763587D01*
X10804867Y15742700D01*
X10770981Y15694753D01*
X10706562Y15645322D01*
X10706541Y15645301D01*
X10614301Y15525092D01*
X10614299Y15525088D01*
X10556319Y15385110D01*
X10556315Y15385100D01*
X10556313Y15385094D01*
X10556312Y15385094D01*
X10541500Y15272581D01*
X10541500Y14697137D01*
X10556312Y14584625D01*
X10556312Y14584622D01*
X10580232Y14526876D01*
X10585865Y14508306D01*
X10589597Y14489546D01*
X10591500Y14470230D01*
X10591500Y14164181D01*
X10586654Y14133588D01*
X10582532Y14120902D01*
X10546580Y14071411D01*
X10542459Y14068416D01*
X10484271Y14049500D01*
X9920219Y14049500D01*
X9668615Y14016375D01*
X9668607Y14016375D01*
X9662179Y14015529D01*
X9410767Y13948164D01*
X9170307Y13848563D01*
X9170213Y13848516D01*
X9169553Y13848127D01*
X8944911Y13718429D01*
X8738424Y13559987D01*
X8554371Y13375934D01*
X8395929Y13169447D01*
X8266231Y12944805D01*
X8265842Y12944145D01*
X8265795Y12944051D01*
X8166194Y12703591D01*
X8098829Y12452179D01*
X8097983Y12445747D01*
X8097983Y12445743D01*
X8080639Y12314001D01*
X8080639Y12314000D01*
X8064858Y12194136D01*
X6386912Y12194136D01*
X6386603Y12195688D01*
X6393795Y12256448D01*
X6435329Y12301378D01*
X6483701Y12314000D01*
X7555355Y12314000D01*
X7555356Y12314000D01*
X7555357Y12314001D01*
X7555357Y13746825D01*
X7548955Y13806371D01*
X7548953Y13806382D01*
X7498710Y13941089D01*
X7498709Y13941091D01*
X7442083Y14016733D01*
X7412550Y14056184D01*
X7412539Y14056195D01*
X7297451Y14142350D01*
X7297445Y14142354D01*
X7297442Y14142355D01*
X7286393Y14146476D01*
X7162738Y14192597D01*
X7162730Y14192599D01*
X7162728Y14192599D01*
X7142878Y14194733D01*
X7103181Y14199000D01*
X7103179Y14199000D01*
X4035359Y14199000D01*
X4035358Y14199000D01*
X4035357Y14198999D01*
X4035357Y14198998D01*
X4035357Y12798000D01*
X4016450Y12739809D01*
X3966950Y12703845D01*
X3936357Y12699000D01*
X3634357Y12699000D01*
X3576166Y12717907D01*
X3540202Y12767407D01*
X3535357Y12798000D01*
X3535357Y14198999D01*
X3535356Y14199001D01*
X3520484Y14213873D01*
X3502282Y14238926D01*
X3496224Y14250815D01*
X3486653Y14311243D01*
X3487896Y14319090D01*
X3505582Y14361786D01*
X3556826Y14432317D01*
X3672947Y14660218D01*
X3751987Y14903481D01*
X3779461Y15076943D01*
X3792000Y15156105D01*
X3792000Y15411897D01*
X3755029Y15645315D01*
X3751987Y15664520D01*
X3672947Y15907783D01*
X3556825Y16135686D01*
X3556821Y16135692D01*
X3556814Y16135702D01*
X3479150Y16242597D01*
X3479149Y16242597D01*
X3479148Y16242597D01*
X3479147Y16242597D01*
X2934631Y15698082D01*
X2880115Y15670305D01*
X2819683Y15679876D01*
X2782313Y15713084D01*
X2749566Y15762093D01*
X2749565Y15762094D01*
X2749563Y15762097D01*
X2645097Y15866563D01*
X2645093Y15866566D01*
X2645092Y15866567D01*
X2596080Y15899316D01*
X2558201Y15947366D01*
X2555799Y16008504D01*
X2581079Y16051635D01*
X2772041Y16242597D01*
X3125595Y16596150D01*
X3125594Y16596151D01*
X3058096Y16645192D01*
X3036198Y16667090D01*
X3031353Y16673758D01*
X3012443Y16731948D01*
X3031348Y16790139D01*
X3080845Y16826105D01*
X3086560Y16827962D01*
X3088699Y16828656D01*
X3119284Y16833499D01*
X6280474Y16833499D01*
X6280475Y16833499D01*
X6420485Y16871015D01*
X6432433Y16877913D01*
X6546015Y16943489D01*
X7367509Y17764983D01*
X7439983Y17890513D01*
X7452096Y17935718D01*
X7466148Y17988158D01*
X7470528Y18004503D01*
X7471336Y18007518D01*
X7477499Y18030523D01*
X7477499Y18847432D01*
X7480573Y18871912D01*
X7481127Y18874082D01*
X7486317Y18894417D01*
X7489480Y18904518D01*
X7492492Y18912594D01*
X7492494Y18912596D01*
X7541283Y19043402D01*
X7547499Y19101221D01*
X7547498Y19564106D01*
X7546983Y19568899D01*
X7548527Y19599828D01*
X7550137Y19607492D01*
X7580599Y19660550D01*
X7636434Y19685573D01*
X7696313Y19672998D01*
X7737365Y19627629D01*
X7738486Y19625028D01*
X7751412Y19593822D01*
X7751414Y19593819D01*
X7771259Y19564118D01*
X7772416Y19562387D01*
X7772428Y19562368D01*
X7833542Y19470901D01*
X7833544Y19470899D01*
X7833546Y19470897D01*
X7833549Y19470893D01*
X7938085Y19366357D01*
X7989955Y19331700D01*
X7989954Y19331700D01*
X8003567Y19322605D01*
X8011769Y19317125D01*
X8011770Y19317123D01*
X8011771Y19317123D01*
X8061006Y19284225D01*
X8197588Y19227651D01*
X8342583Y19198809D01*
X8342584Y19198809D01*
X8490414Y19198809D01*
X8490418Y19198809D01*
X8490419Y19198809D01*
X8547676Y19210200D01*
X8557261Y19211622D01*
X8566925Y19212573D01*
X8576611Y19213047D01*
X8709637Y19213047D01*
X8740225Y19208203D01*
X8741007Y19207949D01*
X8756165Y19203024D01*
X8805666Y19167064D01*
X8813786Y19153813D01*
X8819762Y19142084D01*
X8830552Y19097140D01*
X8830552Y18722706D01*
X8859394Y18577713D01*
X8859394Y18577711D01*
X8892674Y18497366D01*
X8915965Y18441136D01*
X8915968Y18441131D01*
X8924798Y18427916D01*
X8924799Y18427913D01*
X8924800Y18427913D01*
X8972102Y18357119D01*
X8997097Y18319710D01*
X8998101Y18318208D01*
X9085994Y18230316D01*
X9105262Y18211048D01*
X9178948Y18161814D01*
X9228183Y18128916D01*
X9284335Y18105657D01*
X9364766Y18072341D01*
X9480919Y18049237D01*
X9509760Y18043500D01*
X9509761Y18043500D01*
X9657595Y18043500D01*
X9657596Y18043500D01*
X9802591Y18072341D01*
X9939173Y18128916D01*
X10062094Y18211048D01*
X10166630Y18315584D01*
X10248762Y18438505D01*
X10305337Y18575087D01*
X10334178Y18720082D01*
X10334178Y18867917D01*
X10334177Y18867919D01*
X10334064Y18869072D01*
X10332978Y18876394D01*
X10332029Y18886027D01*
X10331552Y18895733D01*
X10331552Y19092130D01*
X10336396Y19122720D01*
X10341576Y19138664D01*
X10377538Y19188162D01*
X10390778Y19196276D01*
X10402522Y19202260D01*
X10447461Y19213047D01*
X10812210Y19213047D01*
X10812211Y19213047D01*
X10957206Y19241889D01*
X11093788Y19298463D01*
X11216709Y19380596D01*
X11321244Y19485131D01*
X11403377Y19608052D01*
X11459951Y19744634D01*
X11488793Y19889629D01*
X11488793Y20037465D01*
X11459951Y20182460D01*
X11403377Y20319042D01*
X11321244Y20441963D01*
X11216709Y20546498D01*
X11158500Y20585392D01*
X11093789Y20628631D01*
X11091211Y20629699D01*
X11089076Y20630583D01*
X11089073Y20630586D01*
X11089073Y20630584D01*
X10957210Y20685204D01*
X10957204Y20685206D01*
X10812213Y20714047D01*
X10812211Y20714047D01*
X10446232Y20714047D01*
X10415639Y20718893D01*
X10402953Y20723015D01*
X10353453Y20758979D01*
X10353446Y20758989D01*
X10350452Y20763111D01*
X10331552Y20821291D01*
X10331552Y20979973D01*
X10332029Y20989676D01*
X10332977Y20999302D01*
X10334394Y21008872D01*
X10334969Y21011768D01*
X10334977Y21011781D01*
X10334977Y21011808D01*
X10337855Y21026270D01*
X10337855Y21174106D01*
X10334400Y21191472D01*
X10332977Y21201067D01*
X10332027Y21210715D01*
X10331552Y21220405D01*
X10331552Y21374361D01*
X10336395Y21404947D01*
X10340517Y21417636D01*
X10376475Y21467135D01*
X10377074Y21467570D01*
X10380615Y21470141D01*
X10438795Y21489041D01*
X10798516Y21489041D01*
X10798517Y21489041D01*
X10943512Y21517883D01*
X11080094Y21574457D01*
X11203015Y21656590D01*
X11307550Y21761125D01*
X11389683Y21884046D01*
X11446257Y22020628D01*
X11475099Y22165623D01*
X11475099Y22313459D01*
X11446257Y22458454D01*
X11389683Y22595036D01*
X11307550Y22717957D01*
X11218247Y22807260D01*
X17860554Y22807260D01*
X17860554Y21680740D01*
X17863033Y21663727D01*
X17870481Y21612605D01*
X17889131Y21574457D01*
X17921856Y21507517D01*
X18004571Y21424802D01*
X18058339Y21398517D01*
X18109427Y21373541D01*
X18109654Y21373429D01*
X18109659Y21373428D01*
X18109661Y21373427D01*
X18109665Y21373427D01*
X18112929Y21372672D01*
X18116747Y21372395D01*
X18177794Y21363500D01*
X18177797Y21363500D01*
X19304311Y21363500D01*
X19304314Y21363500D01*
X19372447Y21373427D01*
X19477537Y21424802D01*
X19560252Y21507517D01*
X19611627Y21612607D01*
X19621554Y21680740D01*
X19621554Y22807260D01*
X19611627Y22875393D01*
X19597600Y22904085D01*
X19569943Y22960659D01*
X19560252Y22980483D01*
X19477537Y23063198D01*
X19477535Y23063199D01*
X19372449Y23114573D01*
X19345193Y23118544D01*
X19345192Y23118545D01*
X19314709Y23122986D01*
X19304314Y23124500D01*
X19304312Y23124500D01*
X18177790Y23124500D01*
X18143724Y23119537D01*
X18143723Y23119538D01*
X18109660Y23114574D01*
X18109658Y23114574D01*
X18004574Y23063201D01*
X17921854Y22980481D01*
X17870481Y22875396D01*
X17870423Y22875148D01*
X17870421Y22874986D01*
X17860554Y22807260D01*
X11218247Y22807260D01*
X11203015Y22822492D01*
X11182481Y22836212D01*
X11080101Y22904622D01*
X11080092Y22904626D01*
X11041986Y22920410D01*
X11041986Y22920411D01*
X10943513Y22961199D01*
X10798519Y22990041D01*
X10798517Y22990041D01*
X10447380Y22990041D01*
X10416785Y22994887D01*
X10403835Y22999095D01*
X10354336Y23035060D01*
X10346216Y23048313D01*
X10342338Y23055926D01*
X10331552Y23100862D01*
X10331552Y23472917D01*
X10331552Y23472918D01*
X10302710Y23617913D01*
X10246136Y23754495D01*
X10164003Y23877416D01*
X10059468Y23981951D01*
X9936547Y24064084D01*
X9936545Y24064085D01*
X9799966Y24120658D01*
X9799964Y24120659D01*
X9654972Y24149500D01*
X9654970Y24149500D01*
X9507134Y24149500D01*
X9507133Y24149500D01*
X9507130Y24149500D01*
X9362137Y24120658D01*
X9362135Y24120658D01*
X9225562Y24064088D01*
X9225550Y24064082D01*
X9102638Y23981953D01*
X8998099Y23877414D01*
X8915970Y23754502D01*
X8915964Y23754490D01*
X8859394Y23617917D01*
X8859394Y23617915D01*
X8830552Y23472922D01*
X8830552Y23105870D01*
X8825706Y23075277D01*
X8818159Y23052050D01*
X8794009Y23012639D01*
X8768635Y22987265D01*
X8743575Y22969059D01*
X8729791Y22962036D01*
X8673211Y22951932D01*
X8663258Y22953110D01*
X8637015Y22959957D01*
X8635320Y22960659D01*
X8635314Y22960661D01*
X8490324Y22989501D01*
X8490322Y22989501D01*
X8490320Y22989501D01*
X8342485Y22989501D01*
X8342482Y22989501D01*
X8342479Y22989501D01*
X8239712Y22969059D01*
X8197492Y22960661D01*
X8197486Y22960659D01*
X8167893Y22948401D01*
X8060908Y22904087D01*
X7937987Y22821955D01*
X7833009Y22716979D01*
X7833004Y22716974D01*
X7832996Y22716963D01*
X7832994Y22716960D01*
X7799516Y22666853D01*
X7799514Y22666850D01*
X7750871Y22594054D01*
X7750865Y22594042D01*
X7694296Y22457470D01*
X7694296Y22457468D01*
X7665454Y22312475D01*
X7665454Y22164633D01*
X7666150Y22161135D01*
X7694099Y22020627D01*
X7694296Y22019640D01*
X7694296Y22019638D01*
X7750861Y21883077D01*
X7750869Y21883058D01*
X7750872Y21883053D01*
X7750874Y21883050D01*
X7770961Y21852989D01*
X7770965Y21852983D01*
X7772196Y21851141D01*
X7772506Y21850677D01*
X7772508Y21850674D01*
X7832342Y21761125D01*
X7833002Y21760137D01*
X7851611Y21741528D01*
X7874722Y21705148D01*
X7874984Y21704421D01*
X7876309Y21700561D01*
X7876546Y21700095D01*
X7877689Y21696931D01*
X7878595Y21668913D01*
X7880581Y21646079D01*
X7881903Y21645869D01*
X7881352Y21642394D01*
X7880967Y21641640D01*
X7881024Y21640990D01*
X7880576Y21639054D01*
X7879747Y21639246D01*
X7879567Y21638891D01*
X7879668Y21635778D01*
X7872889Y21625785D01*
X7855534Y21591719D01*
X7856190Y21591180D01*
X7853736Y21588191D01*
X7853595Y21587912D01*
X7853110Y21587428D01*
X7853104Y21587420D01*
X7770966Y21464493D01*
X7714395Y21327917D01*
X7714395Y21327915D01*
X7685553Y21182922D01*
X7685553Y21035080D01*
X7714394Y20890088D01*
X7770968Y20753507D01*
X7770968Y20753506D01*
X7805830Y20701332D01*
X7853102Y20630584D01*
X7863667Y20620019D01*
X7881870Y20594963D01*
X7886747Y20585392D01*
X7887925Y20583080D01*
X7897497Y20522652D01*
X7896700Y20517619D01*
X7868924Y20463101D01*
X7868923Y20463101D01*
X7833554Y20427731D01*
X7833548Y20427724D01*
X7806571Y20387348D01*
X7806557Y20387327D01*
X7804649Y20384473D01*
X7804612Y20384420D01*
X7751413Y20304801D01*
X7694843Y20168226D01*
X7694843Y20168224D01*
X7666001Y20023231D01*
X7666001Y19875386D01*
X7674426Y19833032D01*
X7673646Y19813547D01*
X7675313Y19808951D01*
X7673164Y19801491D01*
X7672573Y19786711D01*
X7670632Y19779866D01*
X7667214Y19780836D01*
X7658378Y19750156D01*
X7610118Y19712544D01*
X7548967Y19710482D01*
X7498283Y19744757D01*
X7497301Y19746017D01*
X7493202Y19751677D01*
X7492497Y19752726D01*
X7492495Y19752730D01*
X7492492Y19752735D01*
X7408830Y19864495D01*
X7394281Y19875386D01*
X7371858Y19892172D01*
X7297069Y19948158D01*
X7297070Y19948158D01*
X7170406Y19995402D01*
X7166934Y19996877D01*
X7139896Y19999784D01*
X7127239Y20001144D01*
X7127237Y20001145D01*
X7108451Y20003164D01*
X7108442Y20003164D01*
X7108438Y20003164D01*
X6745562Y20003164D01*
X6745560Y20003164D01*
X6744012Y20003036D01*
X6742699Y20002856D01*
X6687741Y19996950D01*
X6594643Y19962226D01*
X6556928Y19948158D01*
X6556927Y19948158D01*
X6556926Y19948157D01*
X6445174Y19864501D01*
X6445162Y19864489D01*
X6361506Y19752738D01*
X6361505Y19752736D01*
X6312713Y19621924D01*
X6306500Y19564118D01*
X6306499Y19564105D01*
X6306499Y19101227D01*
X6306627Y19099680D01*
X6306806Y19098368D01*
X6309479Y19073500D01*
X6312147Y19048681D01*
X6312346Y19044961D01*
X6313077Y19041863D01*
X6314559Y19038458D01*
X6363504Y18907234D01*
X6363076Y18907075D01*
X6367309Y18895872D01*
X6372870Y18874084D01*
X6373424Y18871916D01*
X6376499Y18847432D01*
X6376499Y18387712D01*
X6371653Y18357119D01*
X6364106Y18333892D01*
X6339956Y18294481D01*
X6020057Y17974582D01*
X5995000Y17956378D01*
X5973242Y17945291D01*
X5928295Y17934499D01*
X3071055Y17934499D01*
X3040464Y17939344D01*
X3020767Y17945744D01*
X2979969Y17971311D01*
X2979113Y17972202D01*
X2968196Y17985778D01*
X2966612Y17988148D01*
X2966605Y17988158D01*
X2944139Y18021781D01*
X2804790Y18161131D01*
X2804785Y18161135D01*
X2804782Y18161138D01*
X2733915Y18208490D01*
X2701251Y18230316D01*
X2701242Y18230321D01*
X2640914Y18270631D01*
X2640915Y18270631D01*
X2640913Y18270632D01*
X2597077Y18288789D01*
X2591946Y18291669D01*
X2589092Y18294762D01*
X2576115Y18302714D01*
X2567793Y18309822D01*
X2553140Y18333731D01*
X2550457Y18336639D01*
X2550243Y18338458D01*
X2535824Y18361986D01*
X2540623Y18422983D01*
X2573897Y18465194D01*
X2578555Y18468578D01*
X2593986Y18477219D01*
X2594639Y18477871D01*
X2597539Y18479208D01*
X2598863Y18479949D01*
X2601665Y18481110D01*
X2601670Y18481113D01*
X2601696Y18481123D01*
X2640914Y18497367D01*
X2804782Y18606860D01*
X2944139Y18746217D01*
X3053632Y18910085D01*
X3129051Y19092164D01*
X3167500Y19285458D01*
X3167500Y19482540D01*
X3129051Y19675834D01*
X3053632Y19857913D01*
X2944139Y20021781D01*
X2804782Y20161138D01*
X2759476Y20191411D01*
X2701251Y20230316D01*
X2701242Y20230321D01*
X2640914Y20270631D01*
X2640915Y20270631D01*
X2640913Y20270632D01*
X2597077Y20288789D01*
X2591946Y20291669D01*
X2589092Y20294762D01*
X2576115Y20302714D01*
X2567793Y20309822D01*
X2553140Y20333731D01*
X2550457Y20336639D01*
X2550243Y20338458D01*
X2535824Y20361986D01*
X2540623Y20422983D01*
X2573897Y20465194D01*
X2578555Y20468578D01*
X2593986Y20477219D01*
X2594639Y20477871D01*
X2597539Y20479208D01*
X2598863Y20479949D01*
X2601665Y20481110D01*
X2601670Y20481113D01*
X2601696Y20481123D01*
X2640914Y20497367D01*
X2804782Y20606860D01*
X2944139Y20746217D01*
X3053632Y20910085D01*
X3053633Y20910088D01*
X3053634Y20910088D01*
X3129050Y21092162D01*
X3129051Y21092164D01*
X3167500Y21285458D01*
X3167500Y21482540D01*
X3129051Y21675834D01*
X3053632Y21857913D01*
X2944139Y22021781D01*
X2804782Y22161138D01*
X2698053Y22232452D01*
X2685547Y22248316D01*
X2640915Y22270632D01*
X2458836Y22346050D01*
X2458835Y22346050D01*
X2394404Y22358867D01*
X2265545Y22384499D01*
X2265543Y22384499D01*
X2265541Y22384499D01*
X2068459Y22384499D01*
X2068456Y22384499D01*
X2068455Y22384499D01*
X1987027Y22368302D01*
X1884727Y22347952D01*
X1884720Y22347952D01*
X1875161Y22346051D01*
X1693088Y22270634D01*
X1693087Y22270634D01*
X1529220Y22161141D01*
X1389858Y22021779D01*
X1280365Y21857912D01*
X1280365Y21857911D01*
X1204948Y21675838D01*
X1204142Y21671781D01*
X1204142Y21671778D01*
X1166500Y21482546D01*
X1166500Y21482543D01*
X1166500Y21285456D01*
X1188649Y21174106D01*
X1203047Y21101728D01*
X1203047Y21101724D01*
X1204948Y21092162D01*
X1280364Y20910090D01*
X1280366Y20910088D01*
X1280367Y20910086D01*
X1296840Y20885433D01*
X1389861Y20746217D01*
X1529218Y20606860D01*
X1607702Y20554419D01*
X1693085Y20497367D01*
X1701246Y20493987D01*
X1731481Y20481464D01*
X1757887Y20465282D01*
X1766209Y20458175D01*
X1798175Y20406006D01*
X1793373Y20345009D01*
X1760103Y20302807D01*
X1755447Y20299424D01*
X1735140Y20288051D01*
X1693086Y20270632D01*
X1693077Y20270628D01*
X1529220Y20161141D01*
X1389858Y20021779D01*
X1280365Y19857912D01*
X1280365Y19857911D01*
X1204950Y19675841D01*
X1204950Y19675840D01*
X1204949Y19675838D01*
X1204949Y19675836D01*
X1204949Y19675834D01*
X1198051Y19641154D01*
X1182725Y19564107D01*
X1166500Y19482543D01*
X1166500Y19285456D01*
X1176129Y19237052D01*
X1183736Y19198808D01*
X1184238Y19196283D01*
X1201836Y19107810D01*
X1203047Y19101726D01*
X1203047Y19101724D01*
X1204948Y19092162D01*
X1280365Y18910089D01*
X1286723Y18900573D01*
X1307772Y18869072D01*
X1389861Y18746217D01*
X1529218Y18606860D01*
X1618938Y18546911D01*
X1693085Y18497367D01*
X1705724Y18492133D01*
X1731481Y18481464D01*
X1757887Y18465282D01*
X1766209Y18458175D01*
X1798175Y18406006D01*
X1793373Y18345009D01*
X1760103Y18302807D01*
X1755447Y18299424D01*
X1735140Y18288051D01*
X1693086Y18270632D01*
X1693077Y18270628D01*
X1529220Y18161141D01*
X1389858Y18021779D01*
X1280365Y17857912D01*
X1280365Y17857911D01*
X1204950Y17675841D01*
X1204950Y17675840D01*
X1204949Y17675838D01*
X1204949Y17675836D01*
X1204949Y17675834D01*
X1192219Y17611839D01*
X1166500Y17482544D01*
X1166500Y17285456D01*
X1175154Y17241952D01*
X1200149Y17116293D01*
X1202982Y17102051D01*
X1203046Y17101733D01*
X1203047Y17101724D01*
X1204948Y17092162D01*
X1280364Y16910091D01*
X1336607Y16825917D01*
X1349574Y16797788D01*
X1353194Y16784952D01*
X1350792Y16723814D01*
X1350787Y16723802D01*
X1349324Y16719838D01*
X1322218Y16680121D01*
X1317981Y16676355D01*
X1310401Y16670257D01*
X1208403Y16596152D01*
X1208403Y16596151D01*
X1561957Y16242597D01*
X1752920Y16051634D01*
X1780697Y15997117D01*
X1771126Y15936685D01*
X1737918Y15899315D01*
X1688907Y15866567D01*
X1584433Y15762093D01*
X1551685Y15713082D01*
X1503635Y15675203D01*
X1442496Y15672801D01*
X1399366Y15698080D01*
X854849Y16242597D01*
X777168Y16135679D01*
X777164Y16135672D01*
X777034Y16135413D01*
X694829Y15974075D01*
X676623Y15949016D01*
X670793Y15943186D01*
X616276Y15915409D01*
X555844Y15924980D01*
X512579Y15968245D01*
X512571Y15968262D01*
X511282Y15970793D01*
X500500Y16015721D01*
X500500Y26747273D01*
X507889Y26770018D01*
X507887Y26785689D01*
X507887Y26785692D01*
X517106Y26798385D01*
X519407Y26805464D01*
X521632Y26808409D01*
X526477Y26814580D01*
X528000Y26813384D01*
X543843Y26835196D01*
X602030Y26854113D01*
X660224Y26835216D01*
X662522Y26833547D01*
X692555Y26798389D01*
X777174Y26632314D01*
X777178Y26632308D01*
X777180Y26632305D01*
X777184Y26632299D01*
X854848Y26525405D01*
X854849Y26525404D01*
X854850Y26525404D01*
X1399367Y27069923D01*
X1453882Y27097698D01*
X1514314Y27088127D01*
X1551684Y27054919D01*
X1584433Y27005907D01*
X1584434Y27005906D01*
X1584437Y27005902D01*
X1688903Y26901436D01*
X1737916Y26868687D01*
X1775795Y26820639D01*
X1778197Y26759500D01*
X1752918Y26716369D01*
X1208403Y26171852D01*
X1208402Y26171851D01*
X1208403Y26171851D01*
X1208403Y26171850D01*
X1305103Y26101592D01*
X1322184Y26085803D01*
X1333573Y26072469D01*
X1356990Y26015941D01*
X1356990Y26015940D01*
X1357321Y26011735D01*
X1349329Y25964293D01*
X1348833Y25963159D01*
X1340446Y25947832D01*
X1280367Y25857915D01*
X1280366Y25857915D01*
X1204950Y25675841D01*
X1204950Y25675840D01*
X1204949Y25675838D01*
X1204949Y25675836D01*
X1204949Y25675834D01*
X1166500Y25482543D01*
X1166500Y25285456D01*
X1186979Y25182504D01*
X1203804Y25097917D01*
X1204950Y25092159D01*
X1280364Y24910090D01*
X1280366Y24910088D01*
X1280367Y24910086D01*
X1280368Y24910085D01*
X1389861Y24746217D01*
X1529218Y24606860D01*
X1693086Y24497367D01*
X1875165Y24421948D01*
X2068459Y24383499D01*
X2068460Y24383499D01*
X2265536Y24383499D01*
X2265541Y24383499D01*
X2301217Y24390597D01*
X2332160Y24391813D01*
X2352727Y24389380D01*
X2397693Y24372290D01*
X2398709Y24371582D01*
X2412112Y24360362D01*
X3249737Y23522737D01*
X3375267Y23450263D01*
X3515277Y23412747D01*
X3515278Y23412747D01*
X3660226Y23412747D01*
X5426479Y23412747D01*
X5457072Y23407901D01*
X5484777Y23398899D01*
X5513512Y23383999D01*
X5561929Y23347755D01*
X5561933Y23347752D01*
X5692739Y23298963D01*
X5750558Y23292747D01*
X6113443Y23292748D01*
X6171263Y23298963D01*
X6302069Y23347752D01*
X6370119Y23398695D01*
X6397507Y23413147D01*
X6410135Y23417451D01*
X6471307Y23418328D01*
X6482788Y23414779D01*
X6512867Y23399452D01*
X6581931Y23347752D01*
X6712737Y23298963D01*
X6770556Y23292747D01*
X7133441Y23292748D01*
X7191261Y23298963D01*
X7322067Y23347752D01*
X7433830Y23431416D01*
X7517494Y23543179D01*
X7566283Y23673985D01*
X7572499Y23731804D01*
X7572498Y24194689D01*
X7566283Y24252509D01*
X7544588Y24310672D01*
X7538438Y24341026D01*
X7537517Y24362541D01*
X7553918Y24421488D01*
X7553940Y24421522D01*
X7622084Y24523505D01*
X7678658Y24660087D01*
X7707500Y24805082D01*
X7707500Y24952918D01*
X7678658Y25097913D01*
X7622084Y25234495D01*
X7539951Y25357416D01*
X7435416Y25461951D01*
X7312495Y25544084D01*
X7312493Y25544085D01*
X7175914Y25600658D01*
X7175912Y25600659D01*
X7030920Y25629500D01*
X7030918Y25629500D01*
X6883082Y25629500D01*
X6883081Y25629500D01*
X6883078Y25629500D01*
X6738085Y25600658D01*
X6738083Y25600658D01*
X6601510Y25544088D01*
X6601498Y25544082D01*
X6478586Y25461953D01*
X6374047Y25357414D01*
X6291918Y25234502D01*
X6291912Y25234490D01*
X6235342Y25097917D01*
X6235342Y25097915D01*
X6206500Y24952922D01*
X6206500Y24805078D01*
X6214028Y24767231D01*
X6215244Y24736283D01*
X6213774Y24723863D01*
X6188158Y24668298D01*
X6137899Y24639075D01*
X6130826Y24637430D01*
X6126070Y24636323D01*
X6103634Y24633747D01*
X5750562Y24633747D01*
X5749014Y24633619D01*
X5747701Y24633439D01*
X5726555Y24631167D01*
X5692742Y24627532D01*
X5637330Y24606864D01*
X5561929Y24578741D01*
X5514039Y24542890D01*
X5486646Y24528436D01*
X5459070Y24519039D01*
X5427139Y24513747D01*
X3872465Y24513747D01*
X3841872Y24518593D01*
X3818645Y24526140D01*
X3779234Y24550290D01*
X3195523Y25134001D01*
X3177317Y25159061D01*
X3167917Y25177510D01*
X3157146Y25224373D01*
X3157170Y25225611D01*
X3159052Y25242995D01*
X3167500Y25285458D01*
X3167500Y25482540D01*
X3129051Y25675834D01*
X3053632Y25857913D01*
X2997390Y25942085D01*
X2984426Y25970206D01*
X2980805Y25983042D01*
X2983202Y26044179D01*
X2984668Y26048151D01*
X3011788Y26087884D01*
X3015835Y26091479D01*
X3015834Y26091480D01*
X3016050Y26091671D01*
X3023603Y26097747D01*
X3125595Y26171850D01*
X2581079Y26716366D01*
X2553302Y26770883D01*
X2562873Y26831315D01*
X2596083Y26868686D01*
X2645091Y26901432D01*
X2645090Y26901432D01*
X2645097Y26901436D01*
X2749563Y27005902D01*
X2782313Y27054916D01*
X2830362Y27092797D01*
X2891500Y27095199D01*
X2934633Y27069920D01*
X3479148Y26525405D01*
X3479149Y26525404D01*
X3555501Y26630493D01*
X3556463Y26631754D01*
X3556818Y26632305D01*
X3556821Y26632309D01*
X3556825Y26632314D01*
X3672947Y26860217D01*
X3751987Y27103480D01*
X3782421Y27295630D01*
X3792000Y27356104D01*
X3792000Y27611896D01*
X3751987Y27864517D01*
X3751987Y27864519D01*
X3672947Y28107782D01*
X3556825Y28335685D01*
X3556821Y28335691D01*
X3556814Y28335701D01*
X3479150Y28442596D01*
X3479149Y28442596D01*
X3479148Y28442596D01*
X3479147Y28442596D01*
X2934630Y27898081D01*
X2880114Y27870304D01*
X2819682Y27879875D01*
X2782312Y27913083D01*
X2749563Y27962096D01*
X2645097Y28066562D01*
X2645093Y28066565D01*
X2645092Y28066566D01*
X2596080Y28099315D01*
X2558201Y28147365D01*
X2555799Y28208503D01*
X2581076Y28251632D01*
X3125595Y28796149D01*
X3125595Y28796150D01*
X3125594Y28796151D01*
X3018700Y28873815D01*
X3018694Y28873819D01*
X3018691Y28873821D01*
X3018685Y28873825D01*
X2790782Y28989947D01*
X2790781Y28989948D01*
X2790780Y28989948D01*
X2547516Y29068988D01*
X2414842Y29090001D01*
X2414829Y29090003D01*
X2294896Y29108999D01*
X2294893Y29108999D01*
X2039107Y29108999D01*
X2039104Y29108999D01*
X1786482Y29068988D01*
X1739877Y29053845D01*
X1709285Y29049000D01*
X599500Y29049000D01*
X541309Y29067907D01*
X505345Y29117407D01*
X500500Y29148000D01*
X500500Y29182922D01*
X7701500Y29182922D01*
X7701500Y27920080D01*
X7730342Y27775087D01*
X7730342Y27775085D01*
X7786913Y27638508D01*
X7786914Y27638507D01*
X7786915Y27638506D01*
X7793599Y27628503D01*
X7840795Y27557868D01*
X7869048Y27515584D01*
X7978584Y27406048D01*
X8030454Y27371391D01*
X8030453Y27371391D01*
X8052268Y27356816D01*
X8052269Y27356814D01*
X8052270Y27356814D01*
X8101505Y27323916D01*
X8102321Y27323371D01*
X8105990Y27322058D01*
X8169796Y27295629D01*
X8238087Y27267342D01*
X8383082Y27238500D01*
X8383083Y27238500D01*
X8530917Y27238500D01*
X8530918Y27238500D01*
X8893082Y27238500D01*
X9040918Y27238500D01*
X9472385Y27238500D01*
X9482067Y27238026D01*
X9491724Y27237075D01*
X9501334Y27235649D01*
X9503553Y27235208D01*
X9512135Y27233500D01*
X9512136Y27233500D01*
X11934969Y27233500D01*
X11934970Y27233500D01*
X12079965Y27262342D01*
X12216547Y27318916D01*
X12339469Y27401048D01*
X12454004Y27515584D01*
X12536137Y27638506D01*
X12592711Y27775087D01*
X12621553Y27920082D01*
X12621553Y28067917D01*
X12620349Y28073968D01*
X12618925Y28083567D01*
X12617975Y28093213D01*
X12617500Y28102905D01*
X12617500Y28248080D01*
X12622345Y28278672D01*
X12629892Y28301900D01*
X12654045Y28341313D01*
X12690249Y28377516D01*
X12690249Y28377517D01*
X12690251Y28377518D01*
X12741626Y28482608D01*
X12751553Y28550741D01*
X12751553Y29677258D01*
X13280553Y29677258D01*
X13280553Y28550743D01*
X13287171Y28505317D01*
X13287170Y28505317D01*
X13290478Y28482612D01*
X13290482Y28482599D01*
X13338956Y28383448D01*
X13340456Y28379780D01*
X13341853Y28377520D01*
X13341854Y28377519D01*
X13341855Y28377517D01*
X13424570Y28294802D01*
X13478338Y28268517D01*
X13529426Y28243541D01*
X13529653Y28243429D01*
X13529658Y28243428D01*
X13529660Y28243427D01*
X13529664Y28243427D01*
X13532928Y28242672D01*
X13536746Y28242395D01*
X13597793Y28233500D01*
X13597796Y28233500D01*
X14724310Y28233500D01*
X14724313Y28233500D01*
X14792446Y28243427D01*
X14897536Y28294802D01*
X14980251Y28377517D01*
X15031626Y28482607D01*
X15041553Y28550740D01*
X15041553Y29603820D01*
X15046396Y29634406D01*
X15050518Y29647095D01*
X15072430Y29677258D01*
X17860553Y29677258D01*
X17860553Y28550743D01*
X17867171Y28505317D01*
X17867170Y28505317D01*
X17870478Y28482612D01*
X17870482Y28482599D01*
X17918956Y28383448D01*
X17920456Y28379780D01*
X17921853Y28377520D01*
X17921854Y28377519D01*
X17921855Y28377517D01*
X18004570Y28294802D01*
X18058338Y28268517D01*
X18109426Y28243541D01*
X18109653Y28243429D01*
X18109658Y28243428D01*
X18109660Y28243427D01*
X18109664Y28243427D01*
X18112928Y28242672D01*
X18116746Y28242395D01*
X18177793Y28233500D01*
X18177796Y28233500D01*
X19304310Y28233500D01*
X19304313Y28233500D01*
X19372446Y28243427D01*
X19477536Y28294802D01*
X19560251Y28377517D01*
X19611626Y28482607D01*
X19621553Y28550740D01*
X19621553Y29677260D01*
X19611626Y29745393D01*
X19611625Y29745395D01*
X19611622Y29745406D01*
X19611470Y29745712D01*
X19586536Y29796715D01*
X19586536Y29796716D01*
X19570506Y29829506D01*
X19560251Y29850483D01*
X19477536Y29933198D01*
X19477534Y29933199D01*
X19477533Y29933200D01*
X19471063Y29937863D01*
X19471128Y29937954D01*
X19454018Y29950073D01*
X19444399Y29959379D01*
X19415724Y30013425D01*
X19415150Y30016699D01*
X19414679Y30019385D01*
X19420725Y30074370D01*
X19468658Y30190087D01*
X19497500Y30335082D01*
X19497500Y30482918D01*
X19468658Y30627913D01*
X19412084Y30764495D01*
X19329951Y30887416D01*
X19225416Y30991951D01*
X19102495Y31074084D01*
X19102493Y31074085D01*
X18965914Y31130658D01*
X18965912Y31130659D01*
X18820920Y31159500D01*
X18820918Y31159500D01*
X18673082Y31159500D01*
X18673081Y31159500D01*
X18673078Y31159500D01*
X18528085Y31130658D01*
X18528083Y31130658D01*
X18391510Y31074088D01*
X18391498Y31074082D01*
X18268586Y30991953D01*
X18164047Y30887414D01*
X18081918Y30764502D01*
X18081912Y30764490D01*
X18025342Y30627917D01*
X18025342Y30627915D01*
X18006876Y30535082D01*
X17996500Y30482921D01*
X17996500Y30482919D01*
X17996500Y30482918D01*
X17996500Y30335082D01*
X18025342Y30190087D01*
X18038888Y30157384D01*
X18068725Y30085348D01*
X18068725Y30085344D01*
X18075955Y30055228D01*
X18077001Y30041932D01*
X18073340Y30026684D01*
X18073524Y30024351D01*
X18072302Y30022358D01*
X18062722Y29982448D01*
X18059563Y29977292D01*
X18018629Y29940072D01*
X18004573Y29933201D01*
X17921853Y29850481D01*
X17870480Y29745396D01*
X17869723Y29742125D01*
X17869446Y29738297D01*
X17860553Y29677258D01*
X15072430Y29677258D01*
X15086476Y29696594D01*
X15087075Y29697029D01*
X15090616Y29699600D01*
X15148796Y29718500D01*
X16099474Y29718500D01*
X16099475Y29718500D01*
X16239485Y29756016D01*
X16248115Y29760999D01*
X16257776Y29766576D01*
X16261459Y29768703D01*
X16279440Y29779084D01*
X16365015Y29828490D01*
X16365016Y29828492D01*
X16370111Y29831433D01*
X16374638Y29833892D01*
X16401984Y29847825D01*
X16437231Y29858137D01*
X16440915Y29858500D01*
X16440917Y29858500D01*
X16440918Y29858500D01*
X16585913Y29887342D01*
X16722495Y29943916D01*
X16845416Y30026049D01*
X16949951Y30130584D01*
X17032084Y30253505D01*
X17088658Y30390087D01*
X17117500Y30535082D01*
X17117500Y30682918D01*
X17088658Y30827913D01*
X17032084Y30964495D01*
X16949951Y31087416D01*
X16845416Y31191951D01*
X16722495Y31274084D01*
X16722493Y31274085D01*
X16585914Y31330658D01*
X16585912Y31330659D01*
X16440920Y31359500D01*
X16440918Y31359500D01*
X16293082Y31359500D01*
X16293081Y31359500D01*
X16293078Y31359500D01*
X16148085Y31330658D01*
X16148083Y31330658D01*
X16011510Y31274088D01*
X16011498Y31274082D01*
X15888583Y31191951D01*
X15784055Y31087424D01*
X15784048Y31087415D01*
X15701919Y30964503D01*
X15701915Y30964495D01*
X15673170Y30895099D01*
X15656987Y30868691D01*
X15646939Y30856926D01*
X15598534Y30825938D01*
X15588891Y30823218D01*
X15562015Y30819500D01*
X14394525Y30819500D01*
X14254515Y30781984D01*
X14128985Y30709510D01*
X13720543Y30301068D01*
X13656469Y30190087D01*
X13648069Y30175538D01*
X13619389Y30068508D01*
X13618603Y30066080D01*
X13616096Y30062624D01*
X13604818Y30038815D01*
X13598609Y30030175D01*
X13598013Y30029302D01*
X13582797Y30016699D01*
X13582686Y30016545D01*
X13582563Y30016506D01*
X13556006Y29994507D01*
X13547233Y29990666D01*
X13536764Y29986770D01*
X13529664Y29984576D01*
X13424572Y29933200D01*
X13341853Y29850481D01*
X13290480Y29745396D01*
X13289723Y29742125D01*
X13289446Y29738297D01*
X13280553Y29677258D01*
X12751553Y29677258D01*
X12751553Y29677261D01*
X12741626Y29745394D01*
X12736433Y29756016D01*
X12699363Y29831845D01*
X12690251Y29850484D01*
X12607536Y29933199D01*
X12597996Y29937863D01*
X12585615Y29943916D01*
X12585614Y29943916D01*
X12502448Y29984574D01*
X12475192Y29988545D01*
X12475191Y29988546D01*
X12444708Y29992987D01*
X12434313Y29994501D01*
X12434311Y29994501D01*
X11307789Y29994501D01*
X11273723Y29989538D01*
X11273722Y29989539D01*
X11239660Y29984575D01*
X11239658Y29984575D01*
X11239657Y29984574D01*
X11184680Y29957697D01*
X11134569Y29933199D01*
X11134568Y29933199D01*
X11134567Y29933197D01*
X11110949Y29909581D01*
X11085895Y29891379D01*
X11064137Y29880292D01*
X11019190Y29869500D01*
X10437922Y29869500D01*
X10407328Y29874346D01*
X10384102Y29881893D01*
X10344694Y29906042D01*
X10317543Y29933192D01*
X10317540Y29933195D01*
X10317538Y29933196D01*
X10317537Y29933197D01*
X10317536Y29933198D01*
X10317530Y29933201D01*
X10212448Y29984573D01*
X10185192Y29988544D01*
X10185191Y29988545D01*
X10154708Y29992986D01*
X10144313Y29994500D01*
X10144311Y29994500D01*
X9017789Y29994500D01*
X8983723Y29989537D01*
X8983722Y29989538D01*
X8949660Y29984574D01*
X8949658Y29984574D01*
X8949657Y29984573D01*
X8854111Y29937863D01*
X8844569Y29933198D01*
X8844568Y29933198D01*
X8844568Y29933197D01*
X8810951Y29899582D01*
X8785896Y29881379D01*
X8764138Y29870292D01*
X8719191Y29859500D01*
X8378078Y29859500D01*
X8233085Y29830658D01*
X8233083Y29830658D01*
X8096510Y29774088D01*
X8096498Y29774082D01*
X7973586Y29691953D01*
X7869047Y29587414D01*
X7786918Y29464502D01*
X7786912Y29464490D01*
X7730342Y29327917D01*
X7730342Y29327915D01*
X7701500Y29182922D01*
X500500Y29182922D01*
X500500Y31684442D01*
X1036501Y31684442D01*
X1036501Y31473562D01*
X1077637Y31266752D01*
X1077638Y31266750D01*
X1158335Y31071931D01*
X1158339Y31071922D01*
X1242114Y30946546D01*
X1275489Y30896597D01*
X1275492Y30896594D01*
X1275496Y30896589D01*
X1352586Y30819500D01*
X1424597Y30747489D01*
X1481437Y30709510D01*
X1599921Y30630340D01*
X1599927Y30630338D01*
X1599929Y30630336D01*
X1599931Y30630335D01*
X1600376Y30630038D01*
X1603148Y30629003D01*
X1794748Y30549639D01*
X2001566Y30508501D01*
X2001567Y30508501D01*
X2212435Y30508501D01*
X2212436Y30508501D01*
X2419254Y30549639D01*
X2614073Y30630336D01*
X2614074Y30630338D01*
X2614076Y30630338D01*
X2614078Y30630340D01*
X2614080Y30630340D01*
X2692766Y30682917D01*
X2692768Y30682918D01*
X2732565Y30709510D01*
X2789405Y30747489D01*
X2938513Y30896597D01*
X3021834Y31021297D01*
X3055662Y31071922D01*
X3055663Y31071926D01*
X3055666Y31071929D01*
X3055667Y31071934D01*
X3055707Y31071992D01*
X3056170Y31073071D01*
X3057899Y31076974D01*
X3058464Y31078684D01*
X3136363Y31266748D01*
X3177501Y31473566D01*
X3177501Y31684436D01*
X3136363Y31891254D01*
X3055666Y32086073D01*
X3055664Y32086078D01*
X2988460Y32186654D01*
X2938513Y32261405D01*
X2789405Y32410513D01*
X2739456Y32443888D01*
X2614082Y32527662D01*
X2614080Y32527663D01*
X2614071Y32527667D01*
X2473585Y32585859D01*
X2419250Y32608365D01*
X2212440Y32649501D01*
X2212438Y32649501D01*
X2212436Y32649501D01*
X2001566Y32649501D01*
X2001563Y32649501D01*
X2001560Y32649501D01*
X1794750Y32608365D01*
X1599919Y32527663D01*
X1424597Y32410514D01*
X1275488Y32261405D01*
X1158339Y32086083D01*
X1077637Y31891252D01*
X1036501Y31684442D01*
X500500Y31684442D01*
X500500Y34224441D01*
X3576501Y34224441D01*
X3576501Y34013561D01*
X3617637Y33806751D01*
X3640143Y33752416D01*
X3698335Y33611930D01*
X3698339Y33611921D01*
X3698340Y33611919D01*
X3775565Y33496346D01*
X3812845Y33440552D01*
X3815489Y33436596D01*
X3964597Y33287488D01*
X4039348Y33237541D01*
X4139921Y33170339D01*
X4139927Y33170337D01*
X4139929Y33170335D01*
X4139943Y33170329D01*
X4141066Y33169779D01*
X4143148Y33169002D01*
X4334748Y33089638D01*
X4541566Y33048500D01*
X4541567Y33048500D01*
X4752435Y33048500D01*
X4752436Y33048500D01*
X4959254Y33089638D01*
X5154073Y33170335D01*
X5154074Y33170337D01*
X5154076Y33170337D01*
X5154078Y33170339D01*
X5154080Y33170339D01*
X5189466Y33193984D01*
X5205564Y33204740D01*
X5205565Y33204741D01*
X5254652Y33237540D01*
X5329405Y33287488D01*
X5478513Y33436596D01*
X5570754Y33574645D01*
X5595662Y33611921D01*
X5595663Y33611925D01*
X5595666Y33611928D01*
X5595667Y33611933D01*
X5595707Y33611991D01*
X5596170Y33613070D01*
X5597899Y33616973D01*
X5598464Y33618683D01*
X5608855Y33643769D01*
X5676363Y33806747D01*
X5717501Y34013565D01*
X5717501Y34224435D01*
X5676363Y34431253D01*
X5595666Y34626072D01*
X5595664Y34626077D01*
X5520416Y34738691D01*
X5520415Y34738692D01*
X5519147Y34740589D01*
X5478513Y34801404D01*
X5412657Y34867260D01*
X5329413Y34950505D01*
X5329409Y34950508D01*
X5329405Y34950512D01*
X5250064Y35003526D01*
X5250062Y35003527D01*
X5250062Y35003528D01*
X5154081Y35067662D01*
X4959250Y35148364D01*
X4752440Y35189500D01*
X4752438Y35189500D01*
X4752436Y35189500D01*
X4541566Y35189500D01*
X4541563Y35189500D01*
X4541560Y35189500D01*
X4334750Y35148364D01*
X4139919Y35067662D01*
X3964597Y34950513D01*
X3815488Y34801404D01*
X3698339Y34626082D01*
X3617637Y34431251D01*
X3576501Y34224441D01*
X500500Y34224441D01*
X500500Y36764441D01*
X1036501Y36764441D01*
X1036501Y36553561D01*
X1077637Y36346751D01*
X1077638Y36346749D01*
X1158335Y36151930D01*
X1158339Y36151921D01*
X1158340Y36151919D01*
X1186143Y36110310D01*
X1239166Y36030957D01*
X1275489Y35976596D01*
X1275492Y35976593D01*
X1275496Y35976588D01*
X1424597Y35827488D01*
X1466492Y35799495D01*
X1599921Y35710339D01*
X1599927Y35710337D01*
X1599929Y35710335D01*
X1599931Y35710334D01*
X1600376Y35710037D01*
X1603148Y35709002D01*
X1794748Y35629638D01*
X2001566Y35588500D01*
X2001567Y35588500D01*
X2212435Y35588500D01*
X2212436Y35588500D01*
X2419254Y35629638D01*
X2614073Y35710335D01*
X2614074Y35710337D01*
X2614076Y35710337D01*
X2614078Y35710339D01*
X2614080Y35710339D01*
X2684334Y35757282D01*
X2789405Y35827488D01*
X2938513Y35976596D01*
X3027858Y36110310D01*
X3055662Y36151921D01*
X3055663Y36151925D01*
X3055666Y36151928D01*
X3055667Y36151932D01*
X3055708Y36151992D01*
X3056171Y36153072D01*
X3057899Y36156974D01*
X3058464Y36158683D01*
X3073301Y36194502D01*
X3136363Y36346747D01*
X3177501Y36553565D01*
X3177501Y36764435D01*
X3136363Y36971253D01*
X3055666Y37166072D01*
X3055664Y37166077D01*
X2956476Y37314520D01*
X2956475Y37314522D01*
X2938515Y37341403D01*
X2789413Y37490505D01*
X2789408Y37490509D01*
X2789405Y37490512D01*
X2739456Y37523887D01*
X2614082Y37607661D01*
X2614080Y37607662D01*
X2614071Y37607666D01*
X2419252Y37688363D01*
X2419250Y37688364D01*
X2212440Y37729500D01*
X2212438Y37729500D01*
X2212436Y37729500D01*
X2001566Y37729500D01*
X2001563Y37729500D01*
X2001560Y37729500D01*
X1794750Y37688364D01*
X1599919Y37607662D01*
X1424597Y37490513D01*
X1275488Y37341404D01*
X1158339Y37166082D01*
X1077637Y36971251D01*
X1036501Y36764441D01*
X500500Y36764441D01*
X500500Y41190350D01*
X1206501Y41190350D01*
X1206501Y41032661D01*
X1225034Y40939490D01*
X1235362Y40887572D01*
X1235362Y40887568D01*
X1237263Y40878006D01*
X1297601Y40732336D01*
X1297614Y40732313D01*
X1347324Y40657919D01*
X1385213Y40601214D01*
X1496708Y40489720D01*
X1496712Y40489716D01*
X1574877Y40437488D01*
X1627815Y40402115D01*
X1627826Y40402109D01*
X1681639Y40379820D01*
X1686297Y40377891D01*
X1686300Y40377889D01*
X1729495Y40359997D01*
X1773504Y40341768D01*
X1928159Y40311005D01*
X1928160Y40311005D01*
X2085842Y40311005D01*
X2085843Y40311005D01*
X2240498Y40341768D01*
X2386180Y40402111D01*
X2517290Y40489716D01*
X2628790Y40601216D01*
X2716395Y40732326D01*
X2776738Y40878008D01*
X2807501Y41032663D01*
X2807501Y41190347D01*
X2807500Y41190353D01*
X2803545Y41210239D01*
X2784564Y41305658D01*
X2776738Y41345002D01*
X2756623Y41393563D01*
X2716397Y41490680D01*
X2716391Y41490691D01*
X2681018Y41543629D01*
X2628790Y41621794D01*
X2582278Y41668306D01*
X2517298Y41733287D01*
X2517294Y41733290D01*
X2517290Y41733294D01*
X2465060Y41768193D01*
X2386186Y41820896D01*
X2386175Y41820902D01*
X2386170Y41820905D01*
X2240499Y41881242D01*
X2085845Y41912005D01*
X2085843Y41912005D01*
X1928159Y41912005D01*
X1928156Y41912005D01*
X1928155Y41912005D01*
X1863681Y41899180D01*
X1783066Y41883144D01*
X1783059Y41883144D01*
X1773500Y41881243D01*
X1627830Y41820905D01*
X1627807Y41820892D01*
X1496712Y41733295D01*
X1385211Y41621794D01*
X1297614Y41490699D01*
X1297601Y41490676D01*
X1237907Y41346561D01*
X1237906Y41346555D01*
X1237264Y41345004D01*
X1237264Y41345002D01*
X1206501Y41190350D01*
X500500Y41190350D01*
X500500Y43730350D01*
X1206501Y43730350D01*
X1206501Y43572661D01*
X1207131Y43569494D01*
X1235362Y43427572D01*
X1235362Y43427568D01*
X1237263Y43418006D01*
X1297601Y43272336D01*
X1297614Y43272313D01*
X1338320Y43211394D01*
X1356639Y43183978D01*
X1385212Y43141216D01*
X1496712Y43029716D01*
X1574877Y42977488D01*
X1627815Y42942115D01*
X1627826Y42942109D01*
X1681639Y42919820D01*
X1686297Y42917891D01*
X1686300Y42917889D01*
X1729495Y42899997D01*
X1773504Y42881768D01*
X1928159Y42851005D01*
X1928160Y42851005D01*
X2085842Y42851005D01*
X2085843Y42851005D01*
X2240498Y42881768D01*
X2386180Y42942111D01*
X2517290Y43029716D01*
X2628790Y43141216D01*
X2716395Y43272326D01*
X2750538Y43354757D01*
X2769327Y43380843D01*
X2772033Y43387386D01*
X2772035Y43387388D01*
X2775632Y43389596D01*
X2777094Y43391624D01*
X2783093Y43396833D01*
X2784599Y43395098D01*
X2824183Y43419388D01*
X2885183Y43414624D01*
X2931733Y43374916D01*
X2932381Y43373860D01*
X2947001Y43322081D01*
X2947001Y42751512D01*
X2957492Y42648819D01*
X2957492Y42648818D01*
X2957495Y42648808D01*
X3012640Y42482385D01*
X3012641Y42482384D01*
X3012643Y42482379D01*
X3017098Y42475158D01*
X3923731Y43381793D01*
X3978248Y43409570D01*
X4038680Y43399999D01*
X4079471Y43361289D01*
X4083410Y43354467D01*
X4106891Y43313797D01*
X4209293Y43211395D01*
X4256782Y43183978D01*
X4297722Y43138509D01*
X4304118Y43077659D01*
X4277285Y43028239D01*
X3370652Y42121605D01*
X3370651Y42121604D01*
X3371402Y42115182D01*
X3371403Y42115181D01*
X3379559Y42105574D01*
X3402806Y42048977D01*
X3402807Y42048967D01*
X3403053Y42045714D01*
X3394182Y41996674D01*
X3392959Y41994031D01*
X3383204Y41977415D01*
X3306423Y41871737D01*
X3306419Y41871731D01*
X3202770Y41668306D01*
X3132213Y41451157D01*
X3096501Y41225670D01*
X3096501Y40997342D01*
X3132213Y40771855D01*
X3187658Y40601216D01*
X3202770Y40554706D01*
X3292862Y40377889D01*
X3306423Y40351275D01*
X3306430Y40351264D01*
X3440611Y40166581D01*
X3440615Y40166576D01*
X3440617Y40166574D01*
X3440619Y40166572D01*
X3440622Y40166568D01*
X3602064Y40005126D01*
X3602067Y40005124D01*
X3602073Y40005118D01*
X3602456Y40004804D01*
X3603670Y40003959D01*
X3786767Y39870930D01*
X3786773Y39870926D01*
X3990202Y39767274D01*
X4207341Y39696721D01*
X4207342Y39696721D01*
X4207345Y39696720D01*
X4351469Y39673894D01*
X4432838Y39661005D01*
X4661161Y39661005D01*
X4661164Y39661005D01*
X4750830Y39675208D01*
X4886656Y39696720D01*
X4886656Y39696721D01*
X4886658Y39696721D01*
X4886661Y39696721D01*
X4886664Y39696722D01*
X4889240Y39697130D01*
X4894047Y39699122D01*
X5103800Y39767274D01*
X5307229Y39870926D01*
X5491938Y40005126D01*
X5530302Y40043490D01*
X8976500Y40043490D01*
X8976500Y39854512D01*
X9006057Y39667887D01*
X9064449Y39488175D01*
X9064453Y39488166D01*
X9114727Y39389496D01*
X9114728Y39389496D01*
X9114729Y39389494D01*
X9150240Y39319801D01*
X9261310Y39166927D01*
X9394927Y39033310D01*
X9547801Y38922240D01*
X9716168Y38836453D01*
X9895882Y38778060D01*
X9895885Y38778060D01*
X9899583Y38776858D01*
X9899502Y38776611D01*
X9916831Y38770220D01*
X9925272Y38765919D01*
X9968534Y38722655D01*
X9978104Y38662223D01*
X9950325Y38607707D01*
X9899448Y38581786D01*
X9899673Y38580852D01*
X9895888Y38579944D01*
X9716166Y38521548D01*
X9547803Y38435764D01*
X9547797Y38435760D01*
X9394933Y38324697D01*
X9261304Y38191068D01*
X9150241Y38038204D01*
X9150237Y38038198D01*
X9064451Y37869831D01*
X9064449Y37869828D01*
X9006057Y37690116D01*
X8976500Y37503491D01*
X8976500Y37314513D01*
X9006057Y37127888D01*
X9064449Y36948176D01*
X9064451Y36948172D01*
X9125662Y36828038D01*
X9150241Y36779800D01*
X9166057Y36758032D01*
X9261310Y36626928D01*
X9394927Y36493311D01*
X9547801Y36382241D01*
X9716168Y36296454D01*
X9805276Y36267501D01*
X9832877Y36253436D01*
X9839546Y36248590D01*
X9875507Y36199087D01*
X9875503Y36137902D01*
X9839535Y36088404D01*
X9781350Y36069501D01*
X9293736Y36069501D01*
X9259670Y36064538D01*
X9259669Y36064539D01*
X9225606Y36059575D01*
X9225604Y36059575D01*
X9120520Y36008202D01*
X9037800Y35925482D01*
X8986427Y35820397D01*
X8985670Y35817126D01*
X8985393Y35813298D01*
X8976500Y35752261D01*
X8976500Y33985741D01*
X8980690Y33956983D01*
X8986427Y33917606D01*
X9026526Y33835583D01*
X9037802Y33812518D01*
X9120517Y33729803D01*
X9174285Y33703518D01*
X9225373Y33678542D01*
X9225600Y33678430D01*
X9225605Y33678429D01*
X9225607Y33678428D01*
X9225611Y33678428D01*
X9228875Y33677673D01*
X9232693Y33677396D01*
X9293740Y33668501D01*
X9293743Y33668501D01*
X11060257Y33668501D01*
X11060260Y33668501D01*
X11128393Y33678428D01*
X11233483Y33729803D01*
X11316198Y33812518D01*
X11367573Y33917608D01*
X11377500Y33985741D01*
X11377500Y35752261D01*
X11367573Y35820394D01*
X11366789Y35821997D01*
X11323263Y35911032D01*
X11316198Y35925484D01*
X11233483Y36008199D01*
X11233481Y36008200D01*
X11128395Y36059574D01*
X11101139Y36063545D01*
X11101138Y36063546D01*
X11070655Y36067987D01*
X11060260Y36069501D01*
X11060258Y36069501D01*
X10580086Y36069501D01*
X10549486Y36074349D01*
X10541646Y36076897D01*
X10492149Y36112864D01*
X10473246Y36171056D01*
X10492158Y36229246D01*
X10541653Y36265204D01*
X10637832Y36296454D01*
X10806199Y36382241D01*
X10959073Y36493311D01*
X11092690Y36626928D01*
X11203760Y36779802D01*
X11289547Y36948169D01*
X11347940Y37127883D01*
X11347941Y37127888D01*
X11355330Y37174546D01*
X11377500Y37314514D01*
X11377500Y37503490D01*
X11347941Y37690113D01*
X11347941Y37690115D01*
X11335144Y37729500D01*
X11289547Y37869833D01*
X11203760Y38038200D01*
X11092690Y38191074D01*
X10959073Y38324691D01*
X10959069Y38324694D01*
X10959067Y38324696D01*
X10814658Y38429616D01*
X10814647Y38429623D01*
X10806199Y38435761D01*
X10806198Y38435762D01*
X10806196Y38435763D01*
X10637832Y38521548D01*
X10458115Y38579942D01*
X10458113Y38579943D01*
X10454415Y38581144D01*
X10454494Y38581390D01*
X10437156Y38587788D01*
X10428729Y38592082D01*
X10385465Y38635348D01*
X10375895Y38695780D01*
X10403672Y38750293D01*
X10403677Y38750298D01*
X10454556Y38776221D01*
X10454333Y38777152D01*
X10458103Y38778058D01*
X10458118Y38778060D01*
X10637832Y38836453D01*
X10806199Y38922240D01*
X10959073Y39033310D01*
X11092690Y39166927D01*
X11203760Y39319801D01*
X11289547Y39488168D01*
X11347940Y39667882D01*
X11350664Y39685082D01*
X11361842Y39755658D01*
X11377500Y39854514D01*
X11377500Y40043489D01*
X11347941Y40230112D01*
X11347941Y40230114D01*
X11321658Y40311005D01*
X11289547Y40409832D01*
X11203760Y40578199D01*
X11092690Y40731073D01*
X10959073Y40864690D01*
X10959069Y40864693D01*
X10959067Y40864695D01*
X10814658Y40969615D01*
X10814647Y40969622D01*
X10806199Y40975760D01*
X10806198Y40975761D01*
X10806196Y40975762D01*
X10763842Y40997342D01*
X10694524Y41032661D01*
X10637832Y41061547D01*
X10637831Y41061548D01*
X10637828Y41061549D01*
X10637825Y41061551D01*
X10458113Y41119943D01*
X10458114Y41119943D01*
X10271488Y41149500D01*
X10271484Y41149500D01*
X10271481Y41149500D01*
X10082519Y41149500D01*
X10082516Y41149500D01*
X10082512Y41149500D01*
X9895887Y41119943D01*
X9895881Y41119942D01*
X9716173Y41061551D01*
X9716170Y41061549D01*
X9547803Y40975763D01*
X9547797Y40975759D01*
X9394933Y40864696D01*
X9261304Y40731067D01*
X9150241Y40578203D01*
X9150237Y40578197D01*
X9064451Y40409830D01*
X9064449Y40409827D01*
X9006057Y40230115D01*
X8976500Y40043490D01*
X5530302Y40043490D01*
X5653380Y40166568D01*
X5787580Y40351277D01*
X5891232Y40554706D01*
X5961785Y40771845D01*
X5976490Y40864690D01*
X5997501Y40997345D01*
X5997501Y41225666D01*
X5997501Y41225670D01*
X5961787Y41451157D01*
X5952202Y41480657D01*
X5952202Y41480658D01*
X5891232Y41668304D01*
X5787580Y41871733D01*
X5787576Y41871739D01*
X5714322Y41972564D01*
X5700261Y42000159D01*
X5696138Y42012850D01*
X5696138Y42074025D01*
X5697147Y42077131D01*
X5721301Y42114932D01*
X5722944Y42118169D01*
X5722947Y42118171D01*
X5723348Y42121604D01*
X4816715Y43028237D01*
X4788938Y43082754D01*
X4798509Y43143186D01*
X4837219Y43183978D01*
X4884709Y43211395D01*
X4987111Y43313797D01*
X5014528Y43361287D01*
X5059997Y43402228D01*
X5120848Y43408624D01*
X5170269Y43381791D01*
X6076901Y42475159D01*
X6081362Y42482389D01*
X6136451Y42648644D01*
X6136478Y42648682D01*
X6136505Y42648806D01*
X6136506Y42648809D01*
X6136507Y42648812D01*
X6136508Y42648821D01*
X6147000Y42751510D01*
X6147000Y44551500D01*
X6136508Y44654193D01*
X6136508Y44654194D01*
X6136504Y44654208D01*
X6081362Y44820619D01*
X6081360Y44820625D01*
X6081360Y44820626D01*
X6081356Y44820635D01*
X6076902Y44827854D01*
X6076901Y44827854D01*
X5170267Y43921221D01*
X5115751Y43893444D01*
X5055319Y43903015D01*
X5014528Y43941724D01*
X4987111Y43989213D01*
X4884709Y44091615D01*
X4884706Y44091617D01*
X4837217Y44119035D01*
X4796276Y44164505D01*
X4789880Y44225355D01*
X4816711Y44274773D01*
X5723348Y45181408D01*
X5723348Y45181409D01*
X5716127Y45185863D01*
X5549694Y45241012D01*
X5549691Y45241013D01*
X5446996Y45251505D01*
X5446988Y45251505D01*
X3647014Y45251505D01*
X3647006Y45251505D01*
X3544321Y45241015D01*
X3544293Y45241009D01*
X3544291Y45241009D01*
X3377880Y45185866D01*
X3377876Y45185864D01*
X3370652Y45181409D01*
X3370652Y45181408D01*
X3897690Y44654370D01*
X4277286Y44274774D01*
X4305063Y44220257D01*
X4295492Y44159825D01*
X4256783Y44119034D01*
X4209294Y44091616D01*
X4106890Y43989212D01*
X4079472Y43941723D01*
X4034002Y43900782D01*
X3973151Y43894388D01*
X3923732Y43921220D01*
X3484047Y44360905D01*
X3017098Y44827854D01*
X3017097Y44827854D01*
X3012642Y44820630D01*
X3012639Y44820623D01*
X2957550Y44654370D01*
X2957496Y44654209D01*
X2957492Y44654191D01*
X2947001Y44551502D01*
X2947001Y43987338D01*
X2939611Y43955977D01*
X2939613Y43948922D01*
X2937150Y43945532D01*
X2936587Y43943139D01*
X2933038Y43936026D01*
X2930989Y43937049D01*
X2903658Y43899416D01*
X2845470Y43880498D01*
X2787276Y43899395D01*
X2786275Y43900122D01*
X2752988Y43942340D01*
X2716399Y44030676D01*
X2716397Y44030680D01*
X2716391Y44030691D01*
X2675682Y44091615D01*
X2628790Y44161794D01*
X2615290Y44175294D01*
X2517298Y44273287D01*
X2517294Y44273290D01*
X2517290Y44273294D01*
X2465060Y44308193D01*
X2386186Y44360896D01*
X2386175Y44360902D01*
X2386170Y44360905D01*
X2240499Y44421242D01*
X2085845Y44452005D01*
X2085843Y44452005D01*
X1928159Y44452005D01*
X1928156Y44452005D01*
X1928155Y44452005D01*
X1863681Y44439180D01*
X1783066Y44423144D01*
X1783059Y44423144D01*
X1773500Y44421243D01*
X1627830Y44360905D01*
X1627807Y44360892D01*
X1496712Y44273295D01*
X1385211Y44161794D01*
X1297614Y44030699D01*
X1297601Y44030676D01*
X1237907Y43886561D01*
X1237906Y43886555D01*
X1237264Y43885004D01*
X1237264Y43885002D01*
X1206501Y43730350D01*
X500500Y43730350D01*
X500500Y49608365D01*
X1546502Y49608365D01*
X1546502Y48429648D01*
X1546668Y48427971D01*
X1546932Y48426378D01*
X1561955Y48312248D01*
X1561956Y48312245D01*
X1561959Y48312234D01*
X1561959Y48312232D01*
X1621222Y48169158D01*
X1622240Y48166453D01*
X1689096Y48079323D01*
X1689097Y48079323D01*
X1718719Y48040718D01*
X1801616Y47977110D01*
X1844161Y47944464D01*
X1844450Y47944242D01*
X1847136Y47943232D01*
X1934264Y47907142D01*
X1934263Y47907142D01*
X1990235Y47883958D01*
X1990240Y47883956D01*
X2107641Y47868500D01*
X3286362Y47868501D01*
X3403764Y47883956D01*
X3549843Y47944464D01*
X3675284Y48040718D01*
X3771538Y48166159D01*
X3832046Y48312238D01*
X3843009Y48395523D01*
X3851801Y48425210D01*
X3855353Y48432656D01*
X3897465Y48477038D01*
X3957625Y48488193D01*
X4012852Y48461856D01*
X4012862Y48461846D01*
X4017950Y48457017D01*
X4038007Y48430156D01*
X4069518Y48368313D01*
X4085141Y48337652D01*
X4085145Y48337647D01*
X4085151Y48337639D01*
X4085515Y48337074D01*
X4086488Y48335798D01*
X4117525Y48293080D01*
X4117526Y48293080D01*
X4683542Y48859097D01*
X4738057Y48886872D01*
X4798489Y48877301D01*
X4839280Y48838591D01*
X4876920Y48773397D01*
X4876922Y48773394D01*
X4951396Y48698920D01*
X4951398Y48698919D01*
X5016590Y48661280D01*
X5057531Y48615811D01*
X5063927Y48554961D01*
X5037094Y48505541D01*
X4471079Y47939526D01*
X4471080Y47939526D01*
X4471080Y47939525D01*
X4515649Y47907142D01*
X4515655Y47907139D01*
X4697976Y47814243D01*
X4697980Y47814241D01*
X4892583Y47751010D01*
X4892587Y47751009D01*
X5094684Y47719000D01*
X5299317Y47719000D01*
X5299320Y47719000D01*
X5501415Y47751009D01*
X5501419Y47751010D01*
X5696022Y47814241D01*
X5696024Y47814243D01*
X5696029Y47814244D01*
X5878344Y47907137D01*
X5878352Y47907142D01*
X5922922Y47939525D01*
X5356905Y48505542D01*
X5329130Y48560056D01*
X5338701Y48620488D01*
X5377410Y48661279D01*
X5442608Y48698920D01*
X5517082Y48773394D01*
X5554723Y48838592D01*
X5600191Y48879532D01*
X5661042Y48885928D01*
X5710460Y48859097D01*
X6276477Y48293080D01*
X6308860Y48337650D01*
X6308865Y48337658D01*
X6401758Y48519973D01*
X6401759Y48519978D01*
X6401761Y48519980D01*
X6464992Y48714583D01*
X6464993Y48714587D01*
X6497002Y48916682D01*
X6497002Y49121320D01*
X6464993Y49323415D01*
X6464992Y49323419D01*
X6401761Y49518022D01*
X6401759Y49518025D01*
X6401758Y49518026D01*
X6401758Y49518028D01*
X6376981Y49566657D01*
X6355730Y49608365D01*
X10397942Y49608365D01*
X10397942Y48429648D01*
X10398108Y48427971D01*
X10398372Y48426378D01*
X10413395Y48312248D01*
X10413396Y48312245D01*
X10413399Y48312234D01*
X10413399Y48312232D01*
X10472662Y48169158D01*
X10473680Y48166453D01*
X10540536Y48079323D01*
X10540537Y48079323D01*
X10570159Y48040718D01*
X10653056Y47977110D01*
X10695601Y47944464D01*
X10695890Y47944242D01*
X10698576Y47943232D01*
X10785704Y47907142D01*
X10785703Y47907142D01*
X10841675Y47883958D01*
X10841680Y47883956D01*
X10959081Y47868500D01*
X12137802Y47868501D01*
X12255204Y47883956D01*
X12401283Y47944464D01*
X12526724Y48040718D01*
X12622978Y48166159D01*
X12683486Y48312238D01*
X12694449Y48395523D01*
X12703241Y48425210D01*
X12706793Y48432656D01*
X12748905Y48477038D01*
X12809065Y48488193D01*
X12864292Y48461856D01*
X12864302Y48461846D01*
X12869390Y48457017D01*
X12889447Y48430156D01*
X12920958Y48368313D01*
X12936581Y48337652D01*
X12936585Y48337647D01*
X12936591Y48337639D01*
X12936955Y48337074D01*
X12937928Y48335798D01*
X12968965Y48293080D01*
X12968966Y48293080D01*
X13534982Y48859097D01*
X13589497Y48886872D01*
X13649929Y48877301D01*
X13690720Y48838591D01*
X13728360Y48773397D01*
X13728362Y48773394D01*
X13802836Y48698920D01*
X13802838Y48698919D01*
X13868030Y48661280D01*
X13908971Y48615811D01*
X13915367Y48554961D01*
X13888534Y48505541D01*
X13322519Y47939526D01*
X13322520Y47939526D01*
X13322520Y47939525D01*
X13367089Y47907142D01*
X13367095Y47907139D01*
X13549416Y47814243D01*
X13549420Y47814241D01*
X13744023Y47751010D01*
X13744027Y47751009D01*
X13946124Y47719000D01*
X14150757Y47719000D01*
X14150760Y47719000D01*
X14352855Y47751009D01*
X14352859Y47751010D01*
X14547462Y47814241D01*
X14547464Y47814243D01*
X14547469Y47814244D01*
X14729784Y47907137D01*
X14729792Y47907142D01*
X14774362Y47939525D01*
X14208345Y48505542D01*
X14180570Y48560056D01*
X14190141Y48620488D01*
X14228850Y48661279D01*
X14294048Y48698920D01*
X14368522Y48773394D01*
X14406163Y48838592D01*
X14451631Y48879532D01*
X14512482Y48885928D01*
X14561900Y48859097D01*
X15127917Y48293080D01*
X15160300Y48337650D01*
X15160305Y48337658D01*
X15253198Y48519973D01*
X15253199Y48519978D01*
X15253201Y48519980D01*
X15316432Y48714583D01*
X15316433Y48714587D01*
X15348442Y48916682D01*
X15348442Y49121320D01*
X15316433Y49323415D01*
X15316432Y49323419D01*
X15253201Y49518022D01*
X15253199Y49518025D01*
X15253198Y49518026D01*
X15253198Y49518028D01*
X15228421Y49566657D01*
X15207170Y49608365D01*
X19197942Y49608365D01*
X19197942Y48429648D01*
X19198108Y48427971D01*
X19198372Y48426378D01*
X19213395Y48312248D01*
X19213396Y48312245D01*
X19213399Y48312234D01*
X19213399Y48312232D01*
X19272662Y48169158D01*
X19273680Y48166453D01*
X19340536Y48079323D01*
X19340537Y48079323D01*
X19370159Y48040718D01*
X19453056Y47977110D01*
X19495601Y47944464D01*
X19495890Y47944242D01*
X19498576Y47943232D01*
X19585704Y47907142D01*
X19585703Y47907142D01*
X19641675Y47883958D01*
X19641680Y47883956D01*
X19759081Y47868500D01*
X20937802Y47868501D01*
X21055204Y47883956D01*
X21201283Y47944464D01*
X21326724Y48040718D01*
X21422978Y48166159D01*
X21483486Y48312238D01*
X21494449Y48395523D01*
X21503241Y48425210D01*
X21506793Y48432656D01*
X21548905Y48477038D01*
X21609065Y48488193D01*
X21664292Y48461856D01*
X21664302Y48461846D01*
X21669390Y48457017D01*
X21689447Y48430156D01*
X21720958Y48368313D01*
X21736581Y48337652D01*
X21736585Y48337647D01*
X21736591Y48337639D01*
X21736955Y48337074D01*
X21737928Y48335798D01*
X21768965Y48293080D01*
X21768966Y48293080D01*
X22334982Y48859097D01*
X22389497Y48886872D01*
X22449929Y48877301D01*
X22490720Y48838591D01*
X22528360Y48773397D01*
X22528362Y48773394D01*
X22602836Y48698920D01*
X22602838Y48698919D01*
X22668030Y48661280D01*
X22708971Y48615811D01*
X22715367Y48554961D01*
X22688534Y48505541D01*
X22122519Y47939526D01*
X22122520Y47939526D01*
X22122520Y47939525D01*
X22167089Y47907142D01*
X22167095Y47907139D01*
X22349416Y47814243D01*
X22349420Y47814241D01*
X22544023Y47751010D01*
X22544027Y47751009D01*
X22746124Y47719000D01*
X22950757Y47719000D01*
X22950760Y47719000D01*
X23152855Y47751009D01*
X23152859Y47751010D01*
X23347462Y47814241D01*
X23347464Y47814243D01*
X23347469Y47814244D01*
X23529784Y47907137D01*
X23529792Y47907142D01*
X23574362Y47939525D01*
X23008345Y48505542D01*
X22980570Y48560056D01*
X22990141Y48620488D01*
X23028850Y48661279D01*
X23094048Y48698920D01*
X23168522Y48773394D01*
X23206163Y48838592D01*
X23251631Y48879532D01*
X23312482Y48885928D01*
X23361900Y48859097D01*
X23927917Y48293080D01*
X23960300Y48337650D01*
X23960305Y48337658D01*
X24053198Y48519973D01*
X24053199Y48519978D01*
X24053201Y48519980D01*
X24116432Y48714583D01*
X24116433Y48714587D01*
X24148442Y48916682D01*
X24148442Y49121320D01*
X24116433Y49323415D01*
X24116432Y49323419D01*
X24053201Y49518022D01*
X24053199Y49518026D01*
X23960303Y49700347D01*
X23960300Y49700353D01*
X23927917Y49744922D01*
X23927916Y49744922D01*
X23361901Y49178908D01*
X23307385Y49151131D01*
X23246953Y49160702D01*
X23206162Y49199412D01*
X23168523Y49264604D01*
X23168522Y49264606D01*
X23094048Y49339080D01*
X23094045Y49339082D01*
X23028851Y49376722D01*
X22987910Y49422191D01*
X22981514Y49483042D01*
X23008344Y49532458D01*
X23574362Y50098476D01*
X23574362Y50098477D01*
X23546428Y50118772D01*
X23531644Y50129514D01*
X23530368Y50130487D01*
X23529788Y50130862D01*
X23347469Y50223757D01*
X23152849Y50286994D01*
X22950760Y50319000D01*
X22950757Y50319000D01*
X22746127Y50319000D01*
X22746123Y50319000D01*
X22544034Y50286994D01*
X22349410Y50223756D01*
X22167354Y50130995D01*
X22167114Y50130874D01*
X22167083Y50130856D01*
X22122520Y50098478D01*
X22122520Y50098477D01*
X22688537Y49532460D01*
X22716313Y49477945D01*
X22706742Y49417513D01*
X22668033Y49376722D01*
X22602837Y49339081D01*
X22528361Y49264605D01*
X22490720Y49199409D01*
X22445250Y49158469D01*
X22384400Y49152074D01*
X22334982Y49178905D01*
X21768965Y49744922D01*
X21768964Y49744922D01*
X21736584Y49700356D01*
X21736576Y49700341D01*
X21689974Y49608880D01*
X21671764Y49583819D01*
X21667943Y49579998D01*
X21665935Y49577989D01*
X21611416Y49550217D01*
X21550984Y49559793D01*
X21507727Y49603054D01*
X21504543Y49609303D01*
X21494600Y49641328D01*
X21483486Y49725762D01*
X21475550Y49744922D01*
X21424220Y49868844D01*
X21423200Y49871552D01*
X21328239Y49995308D01*
X21328237Y49995311D01*
X21326728Y49997277D01*
X21326727Y49997278D01*
X21326724Y49997282D01*
X21326719Y49997286D01*
X21326718Y49997287D01*
X21322099Y50000831D01*
X21201281Y50093538D01*
X21201278Y50093539D01*
X21055207Y50154044D01*
X21055201Y50154045D01*
X21055200Y50154045D01*
X20976935Y50164349D01*
X20937804Y50169500D01*
X20937803Y50169500D01*
X19759084Y50169500D01*
X19759079Y50169500D01*
X19757413Y50169335D01*
X19755818Y50169070D01*
X19641688Y50154047D01*
X19641685Y50154046D01*
X19641674Y50154043D01*
X19641672Y50154043D01*
X19498598Y50094780D01*
X19495893Y50093762D01*
X19370171Y49997293D01*
X19370149Y49997271D01*
X19273680Y49871549D01*
X19272662Y49868844D01*
X19213399Y49725770D01*
X19213399Y49725769D01*
X19213399Y49725767D01*
X19213397Y49725759D01*
X19208245Y49686627D01*
X19197942Y49608365D01*
X15207170Y49608365D01*
X15190375Y49641328D01*
X15160306Y49700342D01*
X15160303Y49700347D01*
X15160300Y49700353D01*
X15127917Y49744922D01*
X15127916Y49744922D01*
X14561901Y49178908D01*
X14507385Y49151131D01*
X14446953Y49160702D01*
X14406162Y49199412D01*
X14368523Y49264604D01*
X14368522Y49264606D01*
X14294048Y49339080D01*
X14294045Y49339082D01*
X14228851Y49376722D01*
X14187910Y49422191D01*
X14181514Y49483042D01*
X14208344Y49532458D01*
X14774362Y50098476D01*
X14774362Y50098477D01*
X14731644Y50129514D01*
X14730368Y50130487D01*
X14729788Y50130862D01*
X14547469Y50223757D01*
X14352849Y50286994D01*
X14150760Y50319000D01*
X14150757Y50319000D01*
X13946127Y50319000D01*
X13946123Y50319000D01*
X13744034Y50286994D01*
X13549410Y50223756D01*
X13367354Y50130995D01*
X13367114Y50130874D01*
X13367083Y50130856D01*
X13322520Y50098478D01*
X13322520Y50098477D01*
X13888537Y49532460D01*
X13916313Y49477945D01*
X13906742Y49417513D01*
X13868033Y49376722D01*
X13802837Y49339081D01*
X13728361Y49264605D01*
X13690720Y49199409D01*
X13645250Y49158469D01*
X13584400Y49152074D01*
X13534982Y49178905D01*
X12968965Y49744922D01*
X12968964Y49744922D01*
X12936584Y49700356D01*
X12936576Y49700341D01*
X12889974Y49608880D01*
X12871764Y49583819D01*
X12867943Y49579998D01*
X12865935Y49577989D01*
X12811416Y49550217D01*
X12750984Y49559793D01*
X12707727Y49603054D01*
X12704543Y49609303D01*
X12694600Y49641328D01*
X12683486Y49725762D01*
X12675550Y49744922D01*
X12624220Y49868844D01*
X12623200Y49871552D01*
X12528239Y49995308D01*
X12528237Y49995311D01*
X12526728Y49997277D01*
X12526727Y49997278D01*
X12526724Y49997282D01*
X12526719Y49997286D01*
X12526718Y49997287D01*
X12522099Y50000831D01*
X12401281Y50093538D01*
X12401278Y50093539D01*
X12255207Y50154044D01*
X12255201Y50154045D01*
X12255200Y50154045D01*
X12176935Y50164349D01*
X12137804Y50169500D01*
X12137803Y50169500D01*
X10959084Y50169500D01*
X10959079Y50169500D01*
X10957413Y50169335D01*
X10955818Y50169070D01*
X10841688Y50154047D01*
X10841685Y50154046D01*
X10841674Y50154043D01*
X10841672Y50154043D01*
X10698598Y50094780D01*
X10695893Y50093762D01*
X10570171Y49997293D01*
X10570149Y49997271D01*
X10473680Y49871549D01*
X10472662Y49868844D01*
X10413399Y49725770D01*
X10413399Y49725769D01*
X10413399Y49725767D01*
X10413397Y49725759D01*
X10408245Y49686627D01*
X10397942Y49608365D01*
X6355730Y49608365D01*
X6338935Y49641328D01*
X6308866Y49700342D01*
X6308863Y49700347D01*
X6308860Y49700353D01*
X6276477Y49744922D01*
X6276476Y49744922D01*
X5710461Y49178908D01*
X5655945Y49151131D01*
X5595513Y49160702D01*
X5554722Y49199412D01*
X5517083Y49264604D01*
X5517082Y49264606D01*
X5442608Y49339080D01*
X5442605Y49339082D01*
X5377411Y49376722D01*
X5336470Y49422191D01*
X5330074Y49483042D01*
X5356904Y49532458D01*
X5922922Y50098476D01*
X5922922Y50098477D01*
X5894988Y50118772D01*
X5880204Y50129514D01*
X5878928Y50130487D01*
X5878348Y50130862D01*
X5696029Y50223757D01*
X5501409Y50286994D01*
X5299320Y50319000D01*
X5299317Y50319000D01*
X5094687Y50319000D01*
X5094683Y50319000D01*
X4892594Y50286994D01*
X4697970Y50223756D01*
X4515914Y50130995D01*
X4515674Y50130874D01*
X4515643Y50130856D01*
X4471080Y50098478D01*
X4471080Y50098477D01*
X5037097Y49532460D01*
X5064873Y49477945D01*
X5055302Y49417513D01*
X5016593Y49376722D01*
X4951397Y49339081D01*
X4876921Y49264605D01*
X4839280Y49199409D01*
X4793810Y49158469D01*
X4732960Y49152074D01*
X4683542Y49178905D01*
X4117525Y49744922D01*
X4117524Y49744922D01*
X4085144Y49700356D01*
X4085136Y49700341D01*
X4038534Y49608880D01*
X4020324Y49583819D01*
X4016503Y49579998D01*
X4014495Y49577989D01*
X3959976Y49550217D01*
X3899544Y49559793D01*
X3856287Y49603054D01*
X3853103Y49609303D01*
X3843160Y49641328D01*
X3832046Y49725762D01*
X3824110Y49744922D01*
X3772780Y49868844D01*
X3771760Y49871552D01*
X3676799Y49995308D01*
X3676797Y49995311D01*
X3675288Y49997277D01*
X3675287Y49997278D01*
X3675284Y49997282D01*
X3675279Y49997286D01*
X3675278Y49997287D01*
X3670659Y50000831D01*
X3549841Y50093538D01*
X3549838Y50093539D01*
X3403767Y50154044D01*
X3403761Y50154045D01*
X3403760Y50154045D01*
X3325495Y50164349D01*
X3286364Y50169500D01*
X3286363Y50169500D01*
X2107644Y50169500D01*
X2107639Y50169500D01*
X2105973Y50169335D01*
X2104378Y50169070D01*
X1990248Y50154047D01*
X1990245Y50154046D01*
X1990234Y50154043D01*
X1990232Y50154043D01*
X1847158Y50094780D01*
X1844453Y50093762D01*
X1718731Y49997293D01*
X1718709Y49997271D01*
X1622240Y49871549D01*
X1621222Y49868844D01*
X1561959Y49725770D01*
X1561959Y49725769D01*
X1561959Y49725767D01*
X1561957Y49725759D01*
X1556805Y49686627D01*
X1546502Y49608365D01*
X500500Y49608365D01*
X500500Y52082320D01*
X505343Y52112906D01*
X509465Y52125595D01*
X545423Y52175094D01*
X546022Y52175529D01*
X549563Y52178100D01*
X607743Y52197000D01*
X39243820Y52197000D01*
X39274408Y52192157D01*
G37*
%TD.AperFunction*%
%TA.AperFunction,Conductor*%
G36*
X17909633Y2019921D02*
G01*
X18101417Y1828137D01*
X18119622Y1803079D01*
X18130709Y1781320D01*
X18141500Y1736374D01*
X18141500Y1335636D01*
X18136654Y1305042D01*
X18133274Y1294640D01*
X18097309Y1245140D01*
X18039118Y1226234D01*
X17987400Y1240818D01*
X17983333Y1243310D01*
X17982494Y1243824D01*
X17964213Y1258234D01*
X17556079Y1666368D01*
X17528302Y1720885D01*
X17537873Y1781317D01*
X17571081Y1818686D01*
X17620097Y1851437D01*
X17724563Y1955903D01*
X17757313Y2004917D01*
X17805362Y2042798D01*
X17866500Y2045200D01*
X17909633Y2019921D01*
G37*
%TD.AperFunction*%
%TA.AperFunction,Conductor*%
G36*
X18111161Y3611926D02*
G01*
X18137418Y3565047D01*
X18138762Y3559452D01*
X18141500Y3536329D01*
X18141500Y3136636D01*
X18136654Y3106042D01*
X18129106Y3082813D01*
X18104956Y3043404D01*
X17909631Y2848080D01*
X17855116Y2820303D01*
X17794684Y2829874D01*
X17757313Y2863083D01*
X17724565Y2912094D01*
X17724563Y2912097D01*
X17620097Y3016563D01*
X17620091Y3016567D01*
X17571081Y3049314D01*
X17533201Y3097364D01*
X17530799Y3158502D01*
X17556079Y3201634D01*
X17731009Y3376563D01*
X17961410Y3606964D01*
X17986464Y3625168D01*
X17996215Y3630136D01*
X18056645Y3639705D01*
X18111161Y3611926D01*
G37*
%TD.AperFunction*%
%TA.AperFunction,Conductor*%
G36*
X32625522Y4930093D02*
G01*
X32661486Y4880593D01*
X32662958Y4824377D01*
X32647001Y4764826D01*
X32647001Y4633175D01*
X32662958Y4573623D01*
X32659756Y4512522D01*
X32621250Y4464972D01*
X32567331Y4449000D01*
X31186671Y4449000D01*
X31128480Y4467907D01*
X31092516Y4517407D01*
X31091044Y4573623D01*
X31107001Y4633175D01*
X31107001Y4764826D01*
X31091044Y4824377D01*
X31094246Y4885478D01*
X31132752Y4933028D01*
X31186671Y4949000D01*
X32567331Y4949000D01*
X32625522Y4930093D01*
G37*
%TD.AperFunction*%
%TA.AperFunction,Conductor*%
G36*
X35134091Y4940306D02*
G01*
X35161250Y4933028D01*
X35162950Y4930929D01*
X35165522Y4930093D01*
X35182061Y4907329D01*
X35199756Y4885478D01*
X35199928Y4882737D01*
X35201486Y4880593D01*
X35202501Y4841820D01*
X35203472Y4826382D01*
X35203216Y4825341D01*
X35187001Y4764826D01*
X35187001Y4759335D01*
X35187001Y4633175D01*
X35202958Y4573623D01*
X35199756Y4512522D01*
X35161250Y4464972D01*
X35107331Y4449000D01*
X33726671Y4449000D01*
X33668480Y4467907D01*
X33632516Y4517407D01*
X33631044Y4573623D01*
X33647001Y4633175D01*
X33647001Y4764826D01*
X33631044Y4824377D01*
X33634246Y4885478D01*
X33672752Y4933028D01*
X33726671Y4949000D01*
X35107331Y4949000D01*
X35134091Y4940306D01*
G37*
%TD.AperFunction*%
%TA.AperFunction,Conductor*%
G36*
X37705522Y4930093D02*
G01*
X37741486Y4880593D01*
X37742958Y4824377D01*
X37727001Y4764826D01*
X37727001Y4633175D01*
X37742958Y4573623D01*
X37739756Y4512522D01*
X37701250Y4464972D01*
X37647331Y4449000D01*
X36266671Y4449000D01*
X36208480Y4467907D01*
X36172516Y4517407D01*
X36171044Y4573623D01*
X36187001Y4633175D01*
X36187001Y4764826D01*
X36171044Y4824377D01*
X36174246Y4885478D01*
X36212752Y4933028D01*
X36266671Y4949000D01*
X37647331Y4949000D01*
X37705522Y4930093D01*
G37*
%TD.AperFunction*%
%TA.AperFunction,Conductor*%
G36*
X32625522Y50650093D02*
G01*
X32661486Y50600593D01*
X32662958Y50544377D01*
X32647001Y50484826D01*
X32647001Y50353175D01*
X32662958Y50293623D01*
X32659756Y50232522D01*
X32621250Y50184972D01*
X32567331Y50169000D01*
X31186671Y50169000D01*
X31128480Y50187907D01*
X31092516Y50237407D01*
X31091044Y50293623D01*
X31107001Y50353175D01*
X31107001Y50484826D01*
X31091044Y50544377D01*
X31094246Y50605478D01*
X31132752Y50653028D01*
X31186671Y50669000D01*
X32567331Y50669000D01*
X32625522Y50650093D01*
G37*
%TD.AperFunction*%
%TA.AperFunction,Conductor*%
G36*
X35134091Y50660306D02*
G01*
X35161250Y50653028D01*
X35162950Y50650929D01*
X35165522Y50650093D01*
X35182061Y50627329D01*
X35199756Y50605478D01*
X35199928Y50602737D01*
X35201486Y50600593D01*
X35202501Y50561820D01*
X35203472Y50546382D01*
X35203216Y50545341D01*
X35187001Y50484826D01*
X35187001Y50479335D01*
X35187001Y50353175D01*
X35202958Y50293623D01*
X35199756Y50232522D01*
X35161250Y50184972D01*
X35107331Y50169000D01*
X33726671Y50169000D01*
X33668480Y50187907D01*
X33632516Y50237407D01*
X33631044Y50293623D01*
X33647001Y50353175D01*
X33647001Y50484826D01*
X33631044Y50544377D01*
X33634246Y50605478D01*
X33672752Y50653028D01*
X33726671Y50669000D01*
X35107331Y50669000D01*
X35134091Y50660306D01*
G37*
%TD.AperFunction*%
%TA.AperFunction,Conductor*%
G36*
X37705522Y50650093D02*
G01*
X37741486Y50600593D01*
X37742958Y50544377D01*
X37727001Y50484826D01*
X37727001Y50353175D01*
X37742958Y50293623D01*
X37739756Y50232522D01*
X37701250Y50184972D01*
X37647331Y50169000D01*
X36266671Y50169000D01*
X36208480Y50187907D01*
X36172516Y50237407D01*
X36171044Y50293623D01*
X36187001Y50353175D01*
X36187001Y50484826D01*
X36171044Y50544377D01*
X36174246Y50605478D01*
X36212752Y50653028D01*
X36266671Y50669000D01*
X37647331Y50669000D01*
X37705522Y50650093D01*
G37*
%TD.AperFunction*%
%TD*%
M02*
