M48
; DRILL file KiCad 10.0.0 date 2026-08-18T13:50:23
; FORMAT={-:-/ absolute / metric / decimal}
; #@! TF.CreationDate,2026-08-18T13:50:23-04:00
; #@! TF.GenerationSoftware,Kicad,Pcbnew,10.0.0
; #@! TF.FileFunction,Plated,1,4,PTH
FMAT,2
METRIC
; #@! TA.AperFunction,Plated,PTH,ViaDrill
T1C0.400
; #@! TA.AperFunction,Plated,PTH,ComponentDrill
T2C0.800
; #@! TA.AperFunction,Plated,PTH,ComponentDrill
T3C0.900
; #@! TA.AperFunction,Plated,PTH,ComponentDrill
T4C1.000
; #@! TA.AperFunction,Plated,PTH,ComponentDrill
T5C1.100
; #@! TA.AperFunction,Plated,PTH,ComponentDrill
T6C1.270
; #@! TA.AperFunction,Plated,PTH,ComponentDrill
T7C1.350
; #@! TA.AperFunction,Plated,PTH,ComponentDrill
T8C1.500
%
G90
G05
T1
X4.775Y19.325
X6.957Y24.879
X8.416Y22.239
X8.436Y21.109
X8.442Y16.659
X8.442Y14.985
X8.452Y29.109
X8.457Y27.989
X8.466Y19.951
X9.137Y32.106
X9.581Y23.399
X9.584Y18.794
X9.586Y27.984
X9.586Y25.659
X9.587Y21.1
X9.591Y21.099
X10.717Y24.522
X10.725Y22.24
X10.737Y27.989
X10.738Y19.964
X10.742Y21.09
X10.751Y26.839
X11.567Y16.659
X11.857Y27.989
X11.862Y33.731
X11.862Y21.117
X11.866Y23.409
X11.877Y25.692
X12.996Y24.529
X13.011Y22.244
X13.038Y26.828
X13.117Y15.112
X13.208Y32.436
X13.813Y41.351
X13.815Y38.151
X13.817Y40.551
X13.818Y39.751
X13.818Y38.951
X14.154Y23.394
X14.156Y25.699
X14.161Y21.109
X14.478Y31.953
X15.289Y24.513
X15.311Y22.244
X15.328Y26.828
X15.367Y41.605
X15.367Y40.208
X15.367Y39.294
X15.367Y38.379
X15.468Y43.587
X16.367Y30.609
X16.449Y23.393
X16.45Y25.683
X16.739Y43.586
X17.501Y17.719
X17.597Y19.949
X18.262Y43.115
X18.593Y37.592
X18.593Y36.5
X18.745Y31.434
X19.414Y40.387
X20.066Y37.592
X20.066Y36.5
X21.717Y41.774
X21.717Y38.735
X23.232Y40.259
X23.241Y41.732
X23.241Y37.668
X23.241Y36.22
X23.825Y42.977
T2
X2.107Y36.659
X2.107Y31.579
X2.167Y25.384
X2.167Y21.384
X2.167Y19.384
X2.167Y17.384
X4.647Y34.119
X9.195Y47.117
X11.695Y47.117
X16.736Y47.117
X19.236Y47.117
X24.277Y47.117
X26.777Y47.117
T3
X18.034Y33.934
X19.242Y2.434
X19.317Y16.429
X19.317Y13.889
X19.317Y10.904
X19.317Y8.364
X20.574Y33.934
X21.242Y2.434
X23.242Y2.434
T4
X1.905Y40.935
X4.445Y40.935
X6.985Y40.935
T5
X2.007Y46.355
X4.547Y46.355
T7
X30.607Y48.387
X30.607Y45.847
X30.607Y4.699
X30.607Y2.159
X33.147Y48.387
X33.147Y45.847
X33.147Y4.699
X33.147Y2.159
X35.687Y48.387
X35.687Y45.847
X35.687Y4.699
X35.687Y2.159
X38.227Y48.387
X38.227Y45.847
X38.227Y4.699
X38.227Y2.159
T8
X2.167Y27.484
X2.167Y15.284
X17.142Y2.434
X25.342Y2.434
T6
G00X5.765Y12.064
M15
G01X1.805Y12.064
M16
G05
G00X13.665Y12.064
M15
G01X9.705Y12.064
M16
G05
M30
