%TF.GenerationSoftware,KiCad,Pcbnew,10.0.0*%
%TF.CreationDate,2026-08-14T11:22:35-04:00*%
%TF.ProjectId,PWR_RPM5.0_AP2114,5057525f-5250-44d3-952e-305f41503231,rev?*%
%TF.SameCoordinates,PX9610427PY6ca4418*%
%TF.FileFunction,Legend,Top*%
%TF.FilePolarity,Positive*%
%FSLAX46Y46*%
G04 Gerber Fmt 4.6, Leading zero omitted, Abs format (unit mm)*
G04 Created by KiCad (PCBNEW 10.0.0) date 2026-08-14 11:22:35*
%MOMM*%
%LPD*%
G01*
G04 APERTURE LIST*
G04 Aperture macros list*
%AMRoundRect*
0 Rectangle with rounded corners*
0 $1 Rounding radius*
0 $2 $3 $4 $5 $6 $7 $8 $9 X,Y pos of 4 corners*
0 Add a 4 corners polygon primitive as box body*
4,1,4,$2,$3,$4,$5,$6,$7,$8,$9,$2,$3,0*
0 Add four circle primitives for the rounded corners*
1,1,$1+$1,$2,$3*
1,1,$1+$1,$4,$5*
1,1,$1+$1,$6,$7*
1,1,$1+$1,$8,$9*
0 Add four rect primitives between the rounded corners*
20,1,$1+$1,$2,$3,$4,$5,0*
20,1,$1+$1,$4,$5,$6,$7,0*
20,1,$1+$1,$6,$7,$8,$9,0*
20,1,$1+$1,$8,$9,$2,$3,0*%
G04 Aperture macros list end*
%ADD10C,0.100000*%
%ADD11C,0.120000*%
%ADD12O,2.200000X3.500000*%
%ADD13O,1.500000X2.500000*%
%ADD14R,1.500000X2.500000*%
%ADD15C,1.600000*%
%ADD16RoundRect,0.250000X-0.550000X-0.550000X0.550000X-0.550000X0.550000X0.550000X-0.550000X0.550000X0*%
%ADD17C,2.200000*%
%ADD18RoundRect,0.249999X-0.850001X0.850001X-0.850001X-0.850001X0.850001X-0.850001X0.850001X0.850001X0*%
%ADD19C,1.100000*%
%ADD20C,1.440000*%
%ADD21O,6.744000X3.474000*%
%ADD22RoundRect,0.102000X3.270000X1.635000X-3.270000X1.635000X-3.270000X-1.635000X3.270000X-1.635000X0*%
%ADD23RoundRect,0.135000X0.185000X-0.135000X0.185000X0.135000X-0.185000X0.135000X-0.185000X-0.135000X0*%
%ADD24R,1.800000X1.800000*%
%ADD25C,1.800000*%
%ADD26R,1.060000X1.060000*%
%ADD27RoundRect,0.250000X0.650000X-0.412500X0.650000X0.412500X-0.650000X0.412500X-0.650000X-0.412500X0*%
%ADD28RoundRect,0.135000X-0.135000X-0.185000X0.135000X-0.185000X0.135000X0.185000X-0.135000X0.185000X0*%
%ADD29RoundRect,0.225000X-0.250000X0.225000X-0.250000X-0.225000X0.250000X-0.225000X0.250000X0.225000X0*%
%ADD30RoundRect,0.135000X-0.185000X0.135000X-0.185000X-0.135000X0.185000X-0.135000X0.185000X0.135000X0*%
%ADD31RoundRect,0.225000X0.225000X0.250000X-0.225000X0.250000X-0.225000X-0.250000X0.225000X-0.250000X0*%
%ADD32C,1.300000*%
%ADD33C,2.250000*%
%ADD34RoundRect,0.375000X0.375000X-0.625000X0.375000X0.625000X-0.375000X0.625000X-0.375000X-0.625000X0*%
%ADD35RoundRect,0.500000X1.400000X-0.500000X1.400000X0.500000X-1.400000X0.500000X-1.400000X-0.500000X0*%
%ADD36RoundRect,0.250000X0.412500X0.650000X-0.412500X0.650000X-0.412500X-0.650000X0.412500X-0.650000X0*%
%ADD37R,1.700000X1.700000*%
%ADD38C,1.700000*%
G04 APERTURE END LIST*
D10*
G36*
X2017590Y35122935D02*
G01*
X982001Y35122935D01*
X982001Y34959170D01*
X1592485Y34959170D01*
X1670014Y34961177D01*
X1746110Y34967410D01*
X1824333Y34977366D01*
X1824333Y34950744D01*
X1009356Y34718347D01*
X1009356Y34599400D01*
X1824333Y34368347D01*
X1824333Y34340381D01*
X1722279Y34350650D01*
X1592424Y34352959D01*
X982001Y34352959D01*
X982001Y34189195D01*
X2017590Y34189195D01*
X2017590Y34452366D01*
X1454183Y34602148D01*
X1335950Y34624964D01*
X1241753Y34634388D01*
X1241753Y34683359D01*
X1327114Y34691977D01*
X1399389Y34703205D01*
X1454122Y34715599D01*
X2017590Y34865381D01*
X2017590Y35122935D01*
G37*
G36*
X1117738Y33825822D02*
G01*
X1117738Y34019018D01*
X982001Y34019018D01*
X982001Y33657844D01*
X1081346Y33657844D01*
X1121480Y33704567D01*
X1182068Y33750011D01*
X1219732Y33770687D01*
X1261684Y33789106D01*
X1307296Y33804721D01*
X1356722Y33817296D01*
X1408279Y33826220D01*
X1463075Y33831499D01*
X1509016Y33832844D01*
X1558655Y33830913D01*
X1605874Y33825213D01*
X1649700Y33816048D01*
X1690551Y33803492D01*
X1726918Y33788256D01*
X1759933Y33770095D01*
X1788007Y33750185D01*
X1812541Y33727832D01*
X1832313Y33704475D01*
X1848478Y33679103D01*
X1860373Y33653032D01*
X1868597Y33625274D01*
X1873670Y33578038D01*
X1871754Y33548997D01*
X1866159Y33521766D01*
X1844497Y33472176D01*
X1808838Y33428353D01*
X1758271Y33390440D01*
X1691899Y33359876D01*
X1610342Y33339262D01*
X1516037Y33331658D01*
X1456677Y33333558D01*
X1401566Y33339046D01*
X1349950Y33347946D01*
X1302587Y33359872D01*
X1258645Y33374786D01*
X1218992Y33392138D01*
X1182803Y33412040D01*
X1150969Y33433745D01*
X1122797Y33457456D01*
X1099053Y33482252D01*
X1081346Y33505254D01*
X982001Y33505254D01*
X982001Y33144018D01*
X1117738Y33144018D01*
X1117738Y33340023D01*
X1121952Y33340023D01*
X1153508Y33309872D01*
X1190204Y33280511D01*
X1230431Y33253554D01*
X1274995Y33228811D01*
X1320419Y33208300D01*
X1369232Y33190955D01*
X1417413Y33178203D01*
X1468186Y33169168D01*
X1551086Y33163619D01*
X1640419Y33171377D01*
X1685105Y33181118D01*
X1728888Y33194708D01*
X1770563Y33211766D01*
X1810447Y33232456D01*
X1846665Y33255721D01*
X1880405Y33282264D01*
X1909773Y33310458D01*
X1936196Y33341541D01*
X1958216Y33373648D01*
X1976985Y33408295D01*
X1991609Y33443747D01*
X2002739Y33481470D01*
X2009943Y33520125D01*
X2013400Y33560864D01*
X2013682Y33576633D01*
X2011755Y33617664D01*
X2006081Y33657178D01*
X1983839Y33731969D01*
X1947619Y33800304D01*
X1897983Y33861136D01*
X1835634Y33913032D01*
X1761663Y33954269D01*
X1677692Y33983043D01*
X1632597Y33992239D01*
X1585833Y33997740D01*
X1541256Y33999418D01*
X1446836Y33992042D01*
X1356653Y33970331D01*
X1271389Y33934859D01*
X1192692Y33886549D01*
X1123723Y33827611D01*
X1121952Y33825822D01*
X1117738Y33825822D01*
G37*
G36*
X2496854Y34474837D02*
G01*
X2304940Y34474837D01*
X2272804Y34412836D01*
X2248516Y34331459D01*
X2240851Y34285062D01*
X2236881Y34236585D01*
X2236369Y34211665D01*
X2238302Y34168329D01*
X2244019Y34127114D01*
X2253244Y34088683D01*
X2265911Y34052599D01*
X2281655Y34019450D01*
X2300517Y33988853D01*
X2322113Y33961248D01*
X2346533Y33936398D01*
X2373478Y33914568D01*
X2402994Y33895712D01*
X2434961Y33879962D01*
X2469281Y33867438D01*
X2544994Y33852536D01*
X2587895Y33850491D01*
X2627064Y33852416D01*
X2664062Y33858074D01*
X2698586Y33867231D01*
X2730724Y33879736D01*
X2760278Y33895368D01*
X2787222Y33913989D01*
X2832852Y33959563D01*
X2866741Y34015369D01*
X2887779Y34080365D01*
X2894664Y34150055D01*
X2887142Y34227224D01*
X2875064Y34274680D01*
X2894664Y34294280D01*
X2910713Y34284057D01*
X2926222Y34278200D01*
X2965739Y34274680D01*
X3053544Y34274680D01*
X3089280Y34277130D01*
X3107074Y34282949D01*
X3126024Y34294280D01*
X3145624Y34274680D01*
X3119302Y34223957D01*
X3104853Y34161894D01*
X3100867Y34091254D01*
X3100867Y33863070D01*
X3275867Y33863070D01*
X3275867Y34427271D01*
X2733647Y34427271D01*
X2733647Y34348869D01*
X2745864Y34310064D01*
X2753248Y34273541D01*
X2756118Y34234075D01*
X2754198Y34203970D01*
X2748579Y34175905D01*
X2739538Y34150247D01*
X2727255Y34126994D01*
X2712040Y34106465D01*
X2694022Y34088697D01*
X2673478Y34073927D01*
X2650546Y34062280D01*
X2625400Y34053939D01*
X2598257Y34049109D01*
X2575317Y34047900D01*
X2544618Y34049827D01*
X2516519Y34055499D01*
X2491947Y34064386D01*
X2470032Y34076472D01*
X2451253Y34091267D01*
X2435236Y34108851D01*
X2411876Y34151941D01*
X2400787Y34205992D01*
X2400134Y34224244D01*
X2402058Y34255650D01*
X2407708Y34284605D01*
X2416629Y34310275D01*
X2428750Y34333239D01*
X2443493Y34352851D01*
X2460964Y34369541D01*
X2496854Y34390878D01*
X2496854Y34474837D01*
G37*
X8763001Y38659764D02*
X11583984Y38659764D01*
X11583984Y33411058D01*
X8763001Y33411058D01*
X8763001Y38659764D01*
G36*
X7645660Y33014477D02*
G01*
X8428214Y33231823D01*
X8428214Y33367286D01*
X7645660Y33597225D01*
X7645660Y33455488D01*
X8143091Y33334725D01*
X8192026Y33324576D01*
X8242282Y33317827D01*
X8307497Y33314758D01*
X8307497Y33292731D01*
X8220917Y33287163D01*
X8143091Y33272764D01*
X7645660Y33152047D01*
X7645660Y33014477D01*
G37*
G36*
X8092181Y34251275D02*
G01*
X8177373Y34239312D01*
X8247456Y34219087D01*
X8304433Y34191757D01*
X8350054Y34157920D01*
X8385612Y34117541D01*
X8399914Y34094586D01*
X8411732Y34069964D01*
X8421307Y34042861D01*
X8428227Y34014041D01*
X8432612Y33982099D01*
X8434076Y33948340D01*
X8432183Y33909717D01*
X8420826Y33851390D01*
X8399830Y33800874D01*
X8385708Y33778136D01*
X8369170Y33757075D01*
X8349835Y33737357D01*
X8328003Y33719422D01*
X8302734Y33702730D01*
X8274793Y33688002D01*
X8242616Y33674686D01*
X8207514Y33663585D01*
X8167317Y33654304D01*
X8123884Y33647550D01*
X8074511Y33643198D01*
X8021550Y33641739D01*
X7966253Y33643694D01*
X7885071Y33654994D01*
X7817019Y33675046D01*
X7760831Y33702683D01*
X7715321Y33737220D01*
X7679614Y33778519D01*
X7665245Y33801903D01*
X7653349Y33826951D01*
X7643763Y33854274D01*
X7636825Y33883259D01*
X7632466Y33914956D01*
X7631052Y33947286D01*
X7751768Y33947286D01*
X7752981Y33929349D01*
X7763645Y33894002D01*
X7773342Y33877565D01*
X7785882Y33862352D01*
X7802153Y33847715D01*
X7821541Y33834580D01*
X7845594Y33822326D01*
X7873133Y33811949D01*
X7906161Y33803086D01*
X7943059Y33796546D01*
X7985972Y33792294D01*
X8033090Y33790849D01*
X8093742Y33793268D01*
X8166654Y33804527D01*
X8221848Y33822925D01*
X8262050Y33846741D01*
X8289728Y33875133D01*
X8299449Y33891132D01*
X8306457Y33908298D01*
X8310842Y33927226D01*
X8312306Y33947286D01*
X8311178Y33965137D01*
X8300858Y34000976D01*
X8291467Y34017441D01*
X8279300Y34032626D01*
X8263491Y34047180D01*
X8244621Y34060204D01*
X8221045Y34072383D01*
X8193987Y34082675D01*
X8161156Y34091525D01*
X8124361Y34098044D01*
X8080945Y34102321D01*
X8033090Y34103770D01*
X7971540Y34101243D01*
X7898506Y34089764D01*
X7842902Y34071088D01*
X7802307Y34047014D01*
X7774396Y34018515D01*
X7764640Y34002593D01*
X7757606Y33985559D01*
X7753231Y33966948D01*
X7751768Y33947286D01*
X7631052Y33947286D01*
X7631006Y33948340D01*
X7632416Y33980559D01*
X7643200Y34038991D01*
X7664023Y34090542D01*
X7678157Y34113950D01*
X7694734Y34135720D01*
X7714024Y34156089D01*
X7735769Y34174675D01*
X7760625Y34191855D01*
X7788008Y34207052D01*
X7818959Y34220631D01*
X7852543Y34231973D01*
X7890121Y34241314D01*
X7930452Y34248121D01*
X7975094Y34252434D01*
X8022603Y34253887D01*
X8092181Y34251275D01*
G37*
G36*
X8137550Y34369888D02*
G01*
X8216541Y34372746D01*
X8251985Y34377886D01*
X8285065Y34386894D01*
X8308210Y34396683D01*
X8330300Y34409596D01*
X8340653Y34417103D01*
X8375532Y34451794D01*
X8403451Y34496272D01*
X8423125Y34550158D01*
X8429436Y34580531D01*
X8433114Y34612802D01*
X8434076Y34640768D01*
X8432632Y34674244D01*
X8428389Y34706029D01*
X8421507Y34735868D01*
X8412106Y34763747D01*
X8400454Y34789261D01*
X8386587Y34812584D01*
X8370916Y34833249D01*
X8353345Y34851536D01*
X8340653Y34862327D01*
X8299978Y34886767D01*
X8253147Y34901803D01*
X8193389Y34909285D01*
X8137550Y34910595D01*
X7645660Y34910595D01*
X7645660Y34764645D01*
X8151151Y34764645D01*
X8188619Y34763137D01*
X8220828Y34758443D01*
X8243213Y34752109D01*
X8262286Y34743368D01*
X8276331Y34733623D01*
X8287937Y34721833D01*
X8303514Y34693248D01*
X8310802Y34654299D01*
X8311253Y34639715D01*
X8309792Y34613428D01*
X8305431Y34591054D01*
X8299178Y34574279D01*
X8290700Y34560120D01*
X8268360Y34539567D01*
X8236036Y34525760D01*
X8187293Y34517741D01*
X8130223Y34515792D01*
X7645660Y34515792D01*
X7645660Y34369888D01*
X8137550Y34369888D01*
G37*
G36*
X7768530Y35198833D02*
G01*
X8422353Y35198833D01*
X8422353Y35345790D01*
X7768530Y35345790D01*
X7768530Y35551596D01*
X7645660Y35551596D01*
X7645660Y34997195D01*
X7768530Y34997195D01*
X7768530Y35198833D01*
G37*
G36*
X8213754Y35886773D02*
G01*
X8352423Y35886773D01*
X8371100Y35914513D01*
X8387180Y35943656D01*
X8411680Y36006259D01*
X8426436Y36076396D01*
X8431145Y36151380D01*
X8429704Y36185729D01*
X8425476Y36218167D01*
X8418634Y36248502D01*
X8409311Y36276757D01*
X8397719Y36302710D01*
X8383955Y36326429D01*
X8368276Y36347686D01*
X8350731Y36366568D01*
X8331601Y36382879D01*
X8310904Y36396678D01*
X8288905Y36407824D01*
X8265622Y36416319D01*
X8241262Y36422069D01*
X8215889Y36425019D01*
X8202213Y36425420D01*
X8172857Y36423944D01*
X8145820Y36419476D01*
X8122807Y36412660D01*
X8101454Y36403205D01*
X8064028Y36376991D01*
X8030234Y36338783D01*
X7997692Y36283888D01*
X7967969Y36214394D01*
X7959781Y36192086D01*
X7938658Y36136939D01*
X7916252Y36094631D01*
X7902972Y36079028D01*
X7887455Y36067518D01*
X7869065Y36060396D01*
X7847161Y36057957D01*
X7816753Y36063612D01*
X7788723Y36080485D01*
X7776418Y36093035D01*
X7765898Y36107986D01*
X7757444Y36125189D01*
X7751376Y36144432D01*
X7747372Y36179727D01*
X7748835Y36203311D01*
X7753217Y36225338D01*
X7760117Y36244942D01*
X7769658Y36263146D01*
X7796428Y36295228D01*
X7834567Y36322518D01*
X7834567Y36373992D01*
X7680144Y36373992D01*
X7663890Y36333302D01*
X7651095Y36292805D01*
X7642363Y36255176D01*
X7636686Y36217242D01*
X7633937Y36166080D01*
X7635384Y36132759D01*
X7639654Y36101068D01*
X7646556Y36071441D01*
X7656014Y36043699D01*
X7667709Y36018387D01*
X7681676Y35995175D01*
X7697465Y35974603D01*
X7715244Y35956306D01*
X7734502Y35940709D01*
X7755492Y35927541D01*
X7777760Y35917067D01*
X7801535Y35909179D01*
X7826533Y35904020D01*
X7852850Y35901634D01*
X7861861Y35901473D01*
X7890761Y35902942D01*
X7916869Y35907360D01*
X7938635Y35914038D01*
X7958490Y35923237D01*
X7992724Y35948688D01*
X8023507Y35986237D01*
X8054098Y36042142D01*
X8082458Y36111492D01*
X8085571Y36119822D01*
X8110957Y36185052D01*
X8135807Y36232429D01*
X8149873Y36249224D01*
X8166016Y36261319D01*
X8184972Y36268633D01*
X8207480Y36271089D01*
X8225425Y36269634D01*
X8241763Y36265312D01*
X8255833Y36258557D01*
X8268339Y36249293D01*
X8288558Y36223309D01*
X8302399Y36185743D01*
X8308270Y36134165D01*
X8308322Y36128299D01*
X8306835Y36097018D01*
X8302287Y36068385D01*
X8295511Y36044847D01*
X8286082Y36023176D01*
X8274569Y36004182D01*
X8260492Y35986661D01*
X8223915Y35955336D01*
X8213754Y35948734D01*
X8213754Y35886773D01*
G37*
G36*
X7645660Y36527040D02*
G01*
X8422353Y36527040D01*
X8422353Y36979546D01*
X8301635Y36979546D01*
X8301635Y36672945D01*
X8067712Y36672945D01*
X8067712Y36936498D01*
X7956429Y36936498D01*
X7956429Y36672945D01*
X7768530Y36672945D01*
X7768530Y36970112D01*
X7645660Y36970112D01*
X7645660Y36527040D01*
G37*
G36*
X7645660Y37110292D02*
G01*
X8422353Y37110292D01*
X8422353Y37233116D01*
X7977953Y37233116D01*
X7882441Y37226085D01*
X7787443Y37212142D01*
X7787443Y37233116D01*
X7870899Y37257036D01*
X7926662Y37279324D01*
X8422353Y37498776D01*
X8422353Y37664647D01*
X7645660Y37664647D01*
X7645660Y37541824D01*
X8064873Y37541824D01*
X8159788Y37547701D01*
X8243887Y37560737D01*
X8243887Y37541824D01*
X8152932Y37509526D01*
X8084748Y37481969D01*
X7645660Y37288758D01*
X7645660Y37110292D01*
G37*
G36*
X8213754Y37766954D02*
G01*
X8352423Y37766954D01*
X8371100Y37794695D01*
X8387180Y37823838D01*
X8411680Y37886440D01*
X8426436Y37956577D01*
X8431145Y38031561D01*
X8429704Y38065911D01*
X8425476Y38098348D01*
X8418634Y38128683D01*
X8409311Y38156939D01*
X8397719Y38182891D01*
X8383955Y38206610D01*
X8368276Y38227868D01*
X8350731Y38246750D01*
X8331601Y38263061D01*
X8310904Y38276860D01*
X8288905Y38288005D01*
X8265622Y38296501D01*
X8241262Y38302250D01*
X8215889Y38305201D01*
X8202213Y38305602D01*
X8172857Y38304126D01*
X8145820Y38299658D01*
X8122807Y38292842D01*
X8101454Y38283387D01*
X8064028Y38257172D01*
X8030234Y38218965D01*
X7997692Y38164070D01*
X7967969Y38094576D01*
X7959781Y38072267D01*
X7938658Y38017120D01*
X7916252Y37974812D01*
X7902972Y37959209D01*
X7887455Y37947699D01*
X7869065Y37940578D01*
X7847161Y37938138D01*
X7816753Y37943793D01*
X7788723Y37960667D01*
X7776418Y37973216D01*
X7765898Y37988167D01*
X7757444Y38005370D01*
X7751376Y38024613D01*
X7747372Y38059909D01*
X7748835Y38083493D01*
X7753217Y38105520D01*
X7760117Y38125123D01*
X7769658Y38143327D01*
X7796428Y38175410D01*
X7834567Y38202699D01*
X7834567Y38254173D01*
X7680144Y38254173D01*
X7663890Y38213483D01*
X7651095Y38172987D01*
X7642363Y38135357D01*
X7636686Y38097423D01*
X7633937Y38046261D01*
X7635384Y38012941D01*
X7639654Y37981249D01*
X7646556Y37951622D01*
X7656014Y37923880D01*
X7667709Y37898568D01*
X7681676Y37875356D01*
X7697465Y37854784D01*
X7715244Y37836487D01*
X7734502Y37820891D01*
X7755492Y37807723D01*
X7777760Y37797249D01*
X7801535Y37789360D01*
X7826533Y37784202D01*
X7852850Y37781815D01*
X7861861Y37781655D01*
X7890761Y37783123D01*
X7916869Y37787542D01*
X7938635Y37794219D01*
X7958490Y37803418D01*
X7992724Y37828869D01*
X8023507Y37866418D01*
X8054098Y37922323D01*
X8082458Y37991673D01*
X8085571Y38000003D01*
X8110957Y38065234D01*
X8135807Y38112610D01*
X8149873Y38129405D01*
X8166016Y38141500D01*
X8184972Y38148815D01*
X8207480Y38151271D01*
X8225425Y38149816D01*
X8241763Y38145494D01*
X8255833Y38138738D01*
X8268339Y38129475D01*
X8288558Y38103490D01*
X8302399Y38065924D01*
X8308270Y38014347D01*
X8308322Y38008480D01*
X8306835Y37977199D01*
X8302287Y37948566D01*
X8295511Y37925029D01*
X8286082Y37903357D01*
X8274569Y37884363D01*
X8260492Y37866843D01*
X8223915Y37835517D01*
X8213754Y37828916D01*
X8213754Y37766954D01*
G37*
G36*
X7645660Y38407222D02*
G01*
X8422353Y38407222D01*
X8422353Y38859728D01*
X8301635Y38859728D01*
X8301635Y38553126D01*
X8067712Y38553126D01*
X8067712Y38816680D01*
X7956429Y38816680D01*
X7956429Y38553126D01*
X7768530Y38553126D01*
X7768530Y38850294D01*
X7645660Y38850294D01*
X7645660Y38407222D01*
G37*
G36*
X4433179Y6045427D02*
G01*
X4428545Y5873005D01*
X4407095Y5717779D01*
X4365890Y5597486D01*
X4348212Y5563724D01*
X4315011Y5513912D01*
X4276197Y5469656D01*
X4183564Y5399179D01*
X4130828Y5373709D01*
X4074333Y5355118D01*
X4014834Y5343784D01*
X3952509Y5339932D01*
X3884225Y5344403D01*
X3771833Y5374771D01*
X3718977Y5401459D01*
X3669128Y5435751D01*
X3619360Y5480572D01*
X3572803Y5534072D01*
X3525468Y5602543D01*
X3481731Y5681505D01*
X3459260Y5681505D01*
X3428820Y5568960D01*
X3372234Y5442510D01*
X3301093Y5349909D01*
X3258939Y5313539D01*
X3212147Y5283559D01*
X3157846Y5258845D01*
X3098104Y5240965D01*
X3026023Y5229070D01*
X2946961Y5225138D01*
X2809833Y5239285D01*
X2746043Y5257232D01*
X2687429Y5281827D01*
X2631826Y5314009D01*
X2581678Y5352390D01*
X2534174Y5399507D01*
X2492671Y5452450D01*
X2454521Y5515367D01*
X2423117Y5583557D01*
X2396738Y5661864D01*
X2377867Y5744395D01*
X2365937Y5834871D01*
X2362000Y5927824D01*
X2362000Y6000731D01*
X2641902Y6000731D01*
X2642561Y5966250D01*
X2661112Y5833698D01*
X2701208Y5738202D01*
X2729259Y5700674D01*
X2761869Y5670283D01*
X2802982Y5644301D01*
X2848700Y5625895D01*
X2909380Y5612822D01*
X2975049Y5608721D01*
X2984205Y5608813D01*
X3085119Y5624740D01*
X3127251Y5642480D01*
X3164051Y5666354D01*
X3197407Y5698076D01*
X3225049Y5736040D01*
X3249319Y5785317D01*
X3266877Y5841453D01*
X3278958Y5913095D01*
X3282917Y5992304D01*
X3282917Y6045427D01*
X3526549Y6045427D01*
X3539721Y5935801D01*
X3556519Y5887321D01*
X3579218Y5845391D01*
X3609133Y5807637D01*
X3644124Y5776763D01*
X3687762Y5750257D01*
X3735450Y5731429D01*
X3791439Y5719085D01*
X3849438Y5715089D01*
X3948560Y5724748D01*
X4021675Y5754223D01*
X4050697Y5777044D01*
X4075608Y5806497D01*
X4096885Y5845112D01*
X4112923Y5892510D01*
X4124052Y5955700D01*
X4127875Y6031505D01*
X4127875Y6219084D01*
X3526549Y6219084D01*
X3526549Y6045427D01*
X3282917Y6045427D01*
X3282917Y6219084D01*
X2641902Y6219084D01*
X2641902Y6000731D01*
X2362000Y6000731D01*
X2362000Y6608285D01*
X4433179Y6608285D01*
X4433179Y6045427D01*
G37*
G36*
X4433179Y4915315D02*
G01*
X2362000Y4915315D01*
X2362000Y3787036D01*
X2686720Y3787036D01*
X2686720Y4526237D01*
X4433179Y4526237D01*
X4433179Y4915315D01*
G37*
G36*
X4433179Y3516292D02*
G01*
X2362000Y3516292D01*
X2362000Y3127214D01*
X3164093Y3127214D01*
X3320653Y2987140D01*
X2362000Y2491572D01*
X2362000Y1998812D01*
X3222833Y2511111D01*
X3385276Y2623062D01*
X3496752Y2712733D01*
X3646305Y2587147D01*
X3779096Y2488763D01*
X4433179Y2060361D01*
X4433179Y2477528D01*
X3653311Y2967601D01*
X3638993Y2976636D01*
X3509984Y3053400D01*
X3428153Y3093832D01*
X3331888Y3132709D01*
X3343001Y3174719D01*
X3479385Y3148908D01*
X3613951Y3132880D01*
X3753939Y3127214D01*
X4433179Y3127214D01*
X4433179Y3516292D01*
G37*
G36*
X13058179Y6322154D02*
G01*
X13052598Y6153279D01*
X13024691Y5942056D01*
X12977572Y5779913D01*
X12914170Y5656264D01*
X12835032Y5563189D01*
X12788827Y5526347D01*
X12737958Y5495817D01*
X12680531Y5470983D01*
X12617975Y5452947D01*
X12545839Y5441283D01*
X12467722Y5437384D01*
X12424141Y5438770D01*
X12297013Y5461429D01*
X12239773Y5483017D01*
X12186288Y5511499D01*
X12134980Y5548116D01*
X12087489Y5592116D01*
X12040914Y5647252D01*
X11998481Y5710859D01*
X11956654Y5790230D01*
X11919519Y5879830D01*
X11897048Y5879830D01*
X11805689Y5774128D01*
X11712645Y5706173D01*
X10987000Y5303051D01*
X10987000Y5762227D01*
X11684801Y6109418D01*
X11761515Y6145845D01*
X11866274Y6173776D01*
X11865185Y6178852D01*
X11850995Y6270739D01*
X11849857Y6294188D01*
X12076323Y6294188D01*
X12083163Y6168422D01*
X12110725Y6043683D01*
X12156248Y5954983D01*
X12186097Y5920511D01*
X12221077Y5891965D01*
X12263833Y5868143D01*
X12312681Y5850795D01*
X12374952Y5838938D01*
X12445374Y5835011D01*
X12454438Y5835119D01*
X12558088Y5851900D01*
X12644805Y5892801D01*
X12708973Y5952545D01*
X12749509Y6029633D01*
X12760331Y6075261D01*
X12764110Y6126149D01*
X12764110Y6392252D01*
X12079009Y6392252D01*
X12076323Y6294188D01*
X11849857Y6294188D01*
X11846734Y6358546D01*
X11846734Y6392252D01*
X10987000Y6392252D01*
X10987000Y6781330D01*
X13058179Y6781330D01*
X13058179Y6322154D01*
G37*
G36*
X13058179Y5071630D02*
G01*
X10987000Y5071630D01*
X10987000Y3864949D01*
X11308912Y3864949D01*
X11308912Y4682552D01*
X11932708Y4682552D01*
X11932708Y3979743D01*
X12229463Y3979743D01*
X12229463Y4682552D01*
X12730527Y4682552D01*
X12730527Y3890106D01*
X13058179Y3890106D01*
X13058179Y5071630D01*
G37*
G36*
X13058179Y3115978D02*
G01*
X13056473Y2990315D01*
X13039338Y2775104D01*
X13002277Y2607056D01*
X12942366Y2462543D01*
X12902131Y2394983D01*
X12853748Y2329150D01*
X12800742Y2270553D01*
X12742147Y2217466D01*
X12676818Y2169121D01*
X12605919Y2126645D01*
X12527382Y2089188D01*
X12443215Y2058092D01*
X12350363Y2032707D01*
X12251764Y2014307D01*
X12143592Y2002702D01*
X12029550Y1998811D01*
X11919992Y2001869D01*
X11714343Y2027566D01*
X11541856Y2076890D01*
X11395619Y2148611D01*
X11270526Y2243713D01*
X11214451Y2301404D01*
X11163343Y2365542D01*
X11096133Y2474471D01*
X11060441Y2553736D01*
X11033445Y2634874D01*
X11008792Y2747266D01*
X10994759Y2864393D01*
X10990024Y3017914D01*
X11303294Y3017914D01*
X11304321Y2970691D01*
X11324864Y2816985D01*
X11369149Y2692454D01*
X11436237Y2591055D01*
X11479339Y2547420D01*
X11528536Y2509089D01*
X11586745Y2474549D01*
X11651708Y2445819D01*
X11729027Y2421416D01*
X11814187Y2403678D01*
X11915790Y2391924D01*
X12026741Y2388012D01*
X12107642Y2390179D01*
X12282962Y2413410D01*
X12421954Y2458739D01*
X12532078Y2524161D01*
X12578172Y2564702D01*
X12618516Y2610585D01*
X12654061Y2663425D01*
X12683547Y2721973D01*
X12708202Y2790275D01*
X12726095Y2865042D01*
X12737850Y2953120D01*
X12741762Y3048811D01*
X12738953Y3127213D01*
X11306103Y3127213D01*
X11303294Y3017914D01*
X10990024Y3017914D01*
X10987000Y3115978D01*
X10987000Y3516292D01*
X13058179Y3516292D01*
X13058179Y3115978D01*
G37*
X14772000Y34299000D02*
X15197000Y34299000D01*
X15197000Y34624000D02*
X15197000Y33974000D01*
X15472000Y14909001D02*
X16122000Y14909001D01*
X15479500Y9358999D02*
X16129500Y9358999D01*
X15697000Y34299000D02*
X15197000Y34624000D01*
X15697000Y34299000D02*
X15197000Y33974000D01*
X15697000Y34299000D02*
X16122000Y34299000D01*
X15722000Y33974000D02*
X15722000Y34624000D01*
X15797000Y15409001D02*
X15472000Y14909001D01*
X15797000Y15409001D02*
X15797000Y15834000D01*
X15797000Y15409001D02*
X16122000Y14909001D01*
X15797000Y14484001D02*
X15797000Y14909002D01*
X15804500Y10308999D02*
X15804500Y9883999D01*
X15804500Y9383999D02*
X15479500Y9883999D01*
X15804500Y9383999D02*
X15804500Y8958999D01*
X15804500Y9383999D02*
X16129500Y9883999D01*
X16122000Y15434001D02*
X15472000Y15434001D01*
X16129500Y9883999D02*
X15479500Y9883999D01*
X27397315Y3577963D02*
X29210002Y3577963D01*
X29210002Y3425563D01*
X27397315Y3425563D01*
X27397315Y3577963D01*
G36*
X27397315Y3577963D02*
G01*
X29210002Y3577963D01*
X29210002Y3425563D01*
X27397315Y3425563D01*
X27397315Y3577963D01*
G37*
X27398754Y954107D02*
X29211441Y954107D01*
X29211441Y-899D01*
X27398754Y-899D01*
X27398754Y954107D01*
G36*
X27398754Y954107D02*
G01*
X29211441Y954107D01*
X29211441Y-899D01*
X27398754Y-899D01*
X27398754Y954107D01*
G37*
X29210001Y49170963D02*
X39759000Y49170963D01*
X39759000Y45593000D01*
X29210001Y45593000D01*
X29210001Y49170963D01*
G36*
X29210001Y49170963D02*
G01*
X39759000Y49170963D01*
X39759000Y45593000D01*
X29210001Y45593000D01*
X29210001Y49170963D01*
G37*
X29210002Y3577963D02*
X39759001Y3577963D01*
X39759001Y0D01*
X29210002Y0D01*
X29210002Y3577963D01*
G36*
X29210002Y3577963D02*
G01*
X39759001Y3577963D01*
X39759001Y0D01*
X29210002Y0D01*
X29210002Y3577963D01*
G37*
G36*
X1122972Y41650523D02*
G01*
X496929Y41476647D01*
X496929Y41368276D01*
X1122972Y41184325D01*
X1122972Y41297715D01*
X725027Y41394325D01*
X685879Y41402444D01*
X645675Y41407843D01*
X593503Y41410298D01*
X593503Y41427920D01*
X662767Y41432375D01*
X725027Y41443894D01*
X1122972Y41540468D01*
X1122972Y41650523D01*
G37*
G36*
X1122972Y41109000D02*
G01*
X501619Y41109000D01*
X501619Y40992277D01*
X1122972Y40992277D01*
X1122972Y41109000D01*
G37*
G36*
X1122972Y40875700D02*
G01*
X501619Y40875700D01*
X501619Y40777441D01*
X857138Y40777441D01*
X933548Y40783066D01*
X1009546Y40794220D01*
X1009546Y40777441D01*
X942781Y40758305D01*
X898171Y40740475D01*
X501619Y40564913D01*
X501619Y40432216D01*
X1122972Y40432216D01*
X1122972Y40530475D01*
X787602Y40530475D01*
X711670Y40525772D01*
X644391Y40515344D01*
X644391Y40530475D01*
X717155Y40556312D01*
X771702Y40578358D01*
X1122972Y40732927D01*
X1122972Y40875700D01*
G37*
G36*
X834132Y44202297D02*
G01*
X750161Y44202297D01*
X750161Y44161118D01*
X751301Y44135931D01*
X756865Y44105687D01*
X721057Y44110984D01*
X689638Y44111586D01*
X614863Y44111586D01*
X602739Y44136056D01*
X594161Y44159504D01*
X589763Y44178709D01*
X588004Y44197671D01*
X587972Y44200612D01*
X589145Y44220027D01*
X592669Y44237793D01*
X598069Y44252874D01*
X605516Y44266568D01*
X625949Y44289357D01*
X655086Y44307502D01*
X695463Y44321202D01*
X750792Y44329669D01*
X802221Y44331661D01*
X842392Y44330487D01*
X878956Y44326959D01*
X909122Y44321689D01*
X936295Y44314451D01*
X958564Y44306086D01*
X978321Y44296059D01*
X994443Y44285235D01*
X1008393Y44272963D01*
X1019697Y44259873D01*
X1029016Y44245453D01*
X1041627Y44212891D01*
X1046448Y44173857D01*
X1046476Y44170387D01*
X1045308Y44150305D01*
X1041819Y44131376D01*
X1036279Y44114257D01*
X1028625Y44098299D01*
X1007431Y44070409D01*
X977921Y44047312D01*
X963385Y44039339D01*
X963385Y43994825D01*
X1090990Y43994825D01*
X1104190Y44020737D01*
X1114835Y44046839D01*
X1128863Y44099648D01*
X1134538Y44157299D01*
X1134697Y44169544D01*
X1133527Y44200354D01*
X1130030Y44229443D01*
X1124521Y44255642D01*
X1116913Y44280242D01*
X1107578Y44302486D01*
X1096309Y44323214D01*
X1083384Y44342069D01*
X1068622Y44359445D01*
X1033674Y44389691D01*
X990762Y44414271D01*
X938779Y44433017D01*
X876358Y44445298D01*
X801999Y44450085D01*
X796360Y44450106D01*
X755277Y44448939D01*
X716984Y44445460D01*
X683339Y44440064D01*
X652277Y44432651D01*
X625345Y44423821D01*
X600789Y44413240D01*
X579746Y44401620D01*
X560894Y44388469D01*
X544929Y44374466D01*
X531022Y44359094D01*
X519480Y44342822D01*
X509939Y44325284D01*
X496990Y44286643D01*
X492251Y44242352D01*
X492241Y44240106D01*
X493419Y44215949D01*
X496975Y44193734D01*
X502382Y44174947D01*
X509861Y44157713D01*
X518990Y44142621D01*
X530067Y44128873D01*
X558237Y44105195D01*
X562766Y44102317D01*
X562253Y44088908D01*
X501620Y44088908D01*
X501620Y43994825D01*
X834132Y43994825D01*
X834132Y44202297D01*
G37*
G36*
X1122973Y43879311D02*
G01*
X501620Y43879311D01*
X501620Y43781052D01*
X857139Y43781052D01*
X933549Y43786677D01*
X1009547Y43797831D01*
X1009547Y43781052D01*
X942782Y43761916D01*
X898172Y43744086D01*
X501620Y43568524D01*
X501620Y43435827D01*
X1122973Y43435827D01*
X1122973Y43534086D01*
X787603Y43534086D01*
X711671Y43529383D01*
X644392Y43518955D01*
X644392Y43534086D01*
X717156Y43559924D01*
X771703Y43581969D01*
X1122973Y43736539D01*
X1122973Y43879311D01*
G37*
G36*
X1122973Y43199412D02*
G01*
X1122462Y43161713D01*
X1117321Y43097150D01*
X1106203Y43046735D01*
X1088229Y43003381D01*
X1076159Y42983113D01*
X1061644Y42963363D01*
X1045742Y42945785D01*
X1028164Y42929858D01*
X1008565Y42915355D01*
X987295Y42902612D01*
X963734Y42891375D01*
X938484Y42882046D01*
X910628Y42874430D01*
X881049Y42868911D01*
X848597Y42865429D01*
X814385Y42864262D01*
X781517Y42865179D01*
X719822Y42872888D01*
X668076Y42887686D01*
X624205Y42909202D01*
X586677Y42937732D01*
X569855Y42955040D01*
X554523Y42974281D01*
X534360Y43006960D01*
X523652Y43030739D01*
X515553Y43055081D01*
X508157Y43088798D01*
X503947Y43123937D01*
X502527Y43169993D01*
X596508Y43169993D01*
X596816Y43155826D01*
X602979Y43109714D01*
X616264Y43072355D01*
X636391Y43041935D01*
X649321Y43028845D01*
X664081Y43017345D01*
X681543Y43006983D01*
X701032Y42998364D01*
X724228Y42991043D01*
X749776Y42985722D01*
X780257Y42982196D01*
X813542Y42981022D01*
X837812Y42981672D01*
X890408Y42988642D01*
X932106Y43002240D01*
X965143Y43021867D01*
X978971Y43034029D01*
X991075Y43047794D01*
X1001738Y43063646D01*
X1010584Y43081210D01*
X1017980Y43101701D01*
X1023348Y43124131D01*
X1026875Y43150554D01*
X1028048Y43179262D01*
X1027206Y43202782D01*
X597350Y43202782D01*
X596508Y43169993D01*
X502527Y43169993D01*
X501620Y43199412D01*
X501620Y43319506D01*
X1122973Y43319506D01*
X1122973Y43199412D01*
G37*
G36*
X10375525Y41573101D02*
G01*
X10514194Y41573101D01*
X10532871Y41600842D01*
X10548951Y41629985D01*
X10573451Y41692587D01*
X10588207Y41762724D01*
X10592916Y41837708D01*
X10591475Y41872058D01*
X10587247Y41904495D01*
X10580405Y41934830D01*
X10571082Y41963086D01*
X10559490Y41989038D01*
X10545726Y42012757D01*
X10530047Y42034015D01*
X10512502Y42052897D01*
X10493372Y42069208D01*
X10472675Y42083007D01*
X10450676Y42094152D01*
X10427393Y42102648D01*
X10403033Y42108397D01*
X10377660Y42111348D01*
X10363984Y42111749D01*
X10334628Y42110273D01*
X10307591Y42105804D01*
X10284578Y42098989D01*
X10263225Y42089533D01*
X10225799Y42063319D01*
X10192005Y42025111D01*
X10159463Y41970217D01*
X10129740Y41900723D01*
X10121552Y41878414D01*
X10100429Y41823267D01*
X10078023Y41780959D01*
X10064743Y41765356D01*
X10049226Y41753846D01*
X10030836Y41746725D01*
X10008932Y41744285D01*
X9978524Y41749940D01*
X9950494Y41766814D01*
X9938189Y41779363D01*
X9927669Y41794314D01*
X9919215Y41811517D01*
X9913147Y41830760D01*
X9909143Y41866055D01*
X9910606Y41889640D01*
X9914988Y41911667D01*
X9921888Y41931270D01*
X9931429Y41949474D01*
X9958199Y41981557D01*
X9996338Y42008846D01*
X9996338Y42060320D01*
X9841915Y42060320D01*
X9825661Y42019630D01*
X9812866Y41979134D01*
X9804134Y41941504D01*
X9798457Y41903570D01*
X9795708Y41852408D01*
X9797155Y41819088D01*
X9801425Y41787396D01*
X9808327Y41757769D01*
X9817785Y41730027D01*
X9829480Y41704715D01*
X9843447Y41681503D01*
X9859236Y41660931D01*
X9877015Y41642634D01*
X9896273Y41627038D01*
X9917263Y41613870D01*
X9939531Y41603396D01*
X9963306Y41595507D01*
X9988304Y41590349D01*
X10014621Y41587962D01*
X10023632Y41587802D01*
X10052532Y41589270D01*
X10078640Y41593689D01*
X10100406Y41600366D01*
X10120261Y41609565D01*
X10154495Y41635016D01*
X10185278Y41672565D01*
X10215869Y41728470D01*
X10244229Y41797820D01*
X10247342Y41806150D01*
X10272728Y41871380D01*
X10297578Y41918757D01*
X10311644Y41935552D01*
X10327787Y41947647D01*
X10346743Y41954962D01*
X10369251Y41957418D01*
X10387196Y41955963D01*
X10403534Y41951641D01*
X10417604Y41944885D01*
X10430110Y41935622D01*
X10450329Y41909637D01*
X10464170Y41872071D01*
X10470041Y41820494D01*
X10470093Y41814627D01*
X10468606Y41783346D01*
X10464058Y41754713D01*
X10457282Y41731175D01*
X10447853Y41709504D01*
X10436340Y41690510D01*
X10422263Y41672990D01*
X10385686Y41641664D01*
X10375525Y41635063D01*
X10375525Y41573101D01*
G37*
G36*
X9807431Y42213369D02*
G01*
X10584124Y42213369D01*
X10584124Y42665874D01*
X10463406Y42665874D01*
X10463406Y42359273D01*
X10229483Y42359273D01*
X10229483Y42622827D01*
X10118200Y42622827D01*
X10118200Y42359273D01*
X9930301Y42359273D01*
X9930301Y42656441D01*
X9807431Y42656441D01*
X9807431Y42213369D01*
G37*
G36*
X10674982Y43297441D02*
G01*
X10609769Y43247066D01*
X10588057Y43234900D01*
X10572033Y43230650D01*
X10553853Y43229205D01*
X10548632Y43229205D01*
X10542312Y43222886D01*
X10544886Y43219900D01*
X10572902Y43178311D01*
X10582792Y43155767D01*
X10589856Y43132175D01*
X10594366Y43105768D01*
X10595847Y43077988D01*
X10594768Y43050965D01*
X10584673Y42994897D01*
X10564456Y42945428D01*
X10550527Y42922885D01*
X10534090Y42901908D01*
X10514756Y42882163D01*
X10492850Y42864134D01*
X10467523Y42847344D01*
X10439490Y42832480D01*
X10407436Y42819097D01*
X10372496Y42807908D01*
X10332965Y42798627D01*
X10290342Y42791858D01*
X10242669Y42787542D01*
X10191702Y42786088D01*
X10139430Y42787576D01*
X10052663Y42797949D01*
X9981286Y42816808D01*
X9923374Y42842860D01*
X9877174Y42875351D01*
X9841329Y42914158D01*
X9826977Y42936162D01*
X9815113Y42959787D01*
X9805538Y42985696D01*
X9798615Y43013257D01*
X9794239Y43043704D01*
X9792918Y43072768D01*
X9911433Y43072768D01*
X9911644Y43065628D01*
X9919254Y43031733D01*
X9927353Y43016073D01*
X9938285Y43001603D01*
X9953007Y42987574D01*
X9970911Y42974995D01*
X9993850Y42963081D01*
X10020486Y42952994D01*
X10053405Y42944228D01*
X10090605Y42937761D01*
X10135066Y42933486D01*
X10184374Y42932038D01*
X10268272Y42935922D01*
X10341744Y42948266D01*
X10396120Y42967020D01*
X10435270Y42990825D01*
X10462232Y43019336D01*
X10471797Y43035683D01*
X10478708Y43053376D01*
X10483099Y43073360D01*
X10484564Y43094795D01*
X10484133Y43105453D01*
X10480865Y43125783D01*
X10474077Y43147277D01*
X10464643Y43147277D01*
X10457838Y43130525D01*
X10448745Y43117429D01*
X10426197Y43096890D01*
X10418435Y43090582D01*
X10334446Y43023400D01*
X10266257Y43099009D01*
X10337606Y43156757D01*
X10340087Y43158776D01*
X10369775Y43179751D01*
X10402682Y43191378D01*
X10402682Y43199805D01*
X10327384Y43211337D01*
X10259552Y43216141D01*
X10183321Y43217665D01*
X10136182Y43216265D01*
X10060175Y43206484D01*
X10003086Y43189431D01*
X9961966Y43167045D01*
X9934007Y43140365D01*
X9917269Y43109302D01*
X9912895Y43091586D01*
X9911433Y43072768D01*
X9792918Y43072768D01*
X9792777Y43075882D01*
X9793403Y43096411D01*
X9802437Y43152993D01*
X9821686Y43202966D01*
X9835136Y43225744D01*
X9851076Y43246929D01*
X9869874Y43266865D01*
X9891197Y43285059D01*
X9915852Y43301989D01*
X9943130Y43316968D01*
X9974271Y43330437D01*
X10008172Y43341690D01*
X10046414Y43351007D01*
X10087563Y43357797D01*
X10133396Y43362115D01*
X10182268Y43363569D01*
X10286819Y43358618D01*
X10362010Y43345778D01*
X10420106Y43326110D01*
X10465880Y43299788D01*
X10502424Y43265933D01*
X10510805Y43272253D01*
X10522323Y43297301D01*
X10533168Y43311972D01*
X10546525Y43324735D01*
X10602304Y43369889D01*
X10674982Y43297441D01*
G37*
G36*
X10258047Y31421024D02*
G01*
X10258047Y31211052D01*
X10367224Y31211052D01*
X10367224Y31421024D01*
X10578250Y31421024D01*
X10578250Y31530247D01*
X10367224Y31530247D01*
X10367224Y31740219D01*
X10258047Y31740219D01*
X10258047Y31530247D01*
X10047021Y31530247D01*
X10047021Y31421024D01*
X10258047Y31421024D01*
G37*
G36*
X10394609Y31970754D02*
G01*
X10538545Y31970754D01*
X10562647Y32017255D01*
X10580863Y32078288D01*
X10586612Y32113085D01*
X10589589Y32149443D01*
X10589973Y32168133D01*
X10588523Y32200635D01*
X10584235Y32231546D01*
X10577317Y32260369D01*
X10567817Y32287433D01*
X10556008Y32312294D01*
X10541862Y32335242D01*
X10525665Y32355946D01*
X10507350Y32374583D01*
X10487141Y32390956D01*
X10465004Y32405098D01*
X10441029Y32416910D01*
X10415289Y32426303D01*
X10358504Y32437480D01*
X10326328Y32439013D01*
X10296952Y32437570D01*
X10269203Y32433326D01*
X10243310Y32426458D01*
X10219207Y32417080D01*
X10197041Y32405355D01*
X10176833Y32391390D01*
X10142611Y32357209D01*
X10117194Y32315355D01*
X10101416Y32266608D01*
X10096252Y32214340D01*
X10101893Y32156464D01*
X10110952Y32120872D01*
X10096252Y32106171D01*
X10084215Y32113839D01*
X10072583Y32118231D01*
X10042946Y32120872D01*
X9977092Y32120872D01*
X9950290Y32119034D01*
X9936945Y32114670D01*
X9922732Y32106171D01*
X9908032Y32120872D01*
X9927773Y32158914D01*
X9938610Y32205461D01*
X9941600Y32258441D01*
X9941600Y32429579D01*
X9810350Y32429579D01*
X9810350Y32006429D01*
X10217014Y32006429D01*
X10217014Y32065230D01*
X10207852Y32094333D01*
X10202314Y32121726D01*
X10200162Y32151326D01*
X10201601Y32173904D01*
X10205816Y32194952D01*
X10212596Y32214196D01*
X10221808Y32231636D01*
X10233220Y32247033D01*
X10246733Y32260359D01*
X10262142Y32271436D01*
X10279340Y32280172D01*
X10298200Y32286427D01*
X10318557Y32290050D01*
X10335762Y32290956D01*
X10358786Y32289511D01*
X10379861Y32285257D01*
X10398290Y32278592D01*
X10414726Y32269528D01*
X10428810Y32258431D01*
X10440823Y32245243D01*
X10458343Y32212926D01*
X10466660Y32172388D01*
X10467150Y32158699D01*
X10465707Y32135144D01*
X10461469Y32113428D01*
X10454778Y32094176D01*
X10445687Y32076952D01*
X10434630Y32062243D01*
X10421527Y32049725D01*
X10394609Y32033723D01*
X10394609Y31970754D01*
G37*
G36*
X9801557Y32518285D02*
G01*
X10584111Y32735631D01*
X10584111Y32871094D01*
X9801557Y33101033D01*
X9801557Y32959296D01*
X10298988Y32838533D01*
X10347923Y32828384D01*
X10398179Y32821635D01*
X10463394Y32818567D01*
X10463394Y32796539D01*
X10376814Y32790971D01*
X10298988Y32776572D01*
X9801557Y32655855D01*
X9801557Y32518285D01*
G37*
G36*
X18627867Y6322249D02*
G01*
X18705777Y6307871D01*
X18774511Y6280107D01*
X18805722Y6261262D01*
X18834749Y6239158D01*
X18861907Y6213439D01*
X18886688Y6184445D01*
X18909595Y6151303D01*
X18929858Y6114794D01*
X18947963Y6073525D01*
X18963087Y6028746D01*
X18975540Y5978642D01*
X18984617Y5924867D01*
X18990367Y5865345D01*
X18992305Y5801999D01*
X18988822Y5709229D01*
X18972872Y5595640D01*
X18945905Y5502196D01*
X18909465Y5426227D01*
X18864349Y5365399D01*
X18810510Y5317988D01*
X18779903Y5298918D01*
X18747074Y5283161D01*
X18710937Y5270394D01*
X18672510Y5261168D01*
X18629921Y5255321D01*
X18584908Y5253369D01*
X18533411Y5255893D01*
X18455642Y5271036D01*
X18388287Y5299031D01*
X18357971Y5317859D01*
X18329889Y5339911D01*
X18303599Y5365690D01*
X18279685Y5394799D01*
X18257429Y5428492D01*
X18237791Y5465747D01*
X18220037Y5508650D01*
X18205236Y5555451D01*
X18192860Y5609048D01*
X18183855Y5666959D01*
X18178052Y5732790D01*
X18176531Y5788017D01*
X18374921Y5788017D01*
X18378146Y5707148D01*
X18393158Y5609932D01*
X18417689Y5536340D01*
X18449444Y5482738D01*
X18487299Y5445833D01*
X18508632Y5432872D01*
X18531519Y5423528D01*
X18556756Y5417681D01*
X18583504Y5415729D01*
X18607305Y5417233D01*
X18655091Y5430994D01*
X18677044Y5443514D01*
X18697289Y5459737D01*
X18716696Y5480816D01*
X18734061Y5505975D01*
X18750300Y5537410D01*
X18764022Y5573488D01*
X18775822Y5617262D01*
X18784514Y5666323D01*
X18790217Y5724210D01*
X18792148Y5788017D01*
X18788779Y5870083D01*
X18773474Y5967463D01*
X18748573Y6041601D01*
X18716475Y6095728D01*
X18678475Y6132942D01*
X18657247Y6145951D01*
X18634534Y6155329D01*
X18609720Y6161163D01*
X18583504Y6163113D01*
X18559588Y6161495D01*
X18512459Y6147277D01*
X18490543Y6134348D01*
X18470259Y6117628D01*
X18450742Y6095933D01*
X18433229Y6070083D01*
X18416890Y6038012D01*
X18403054Y6001293D01*
X18391236Y5957256D01*
X18382516Y5908058D01*
X18376847Y5850841D01*
X18374921Y5788017D01*
X18176531Y5788017D01*
X18176107Y5803404D01*
X18178714Y5877134D01*
X18193781Y5985376D01*
X18220517Y6076111D01*
X18257366Y6151030D01*
X18303416Y6211709D01*
X18358480Y6259319D01*
X18389659Y6278478D01*
X18423056Y6294338D01*
X18459488Y6307120D01*
X18498134Y6316370D01*
X18540396Y6322183D01*
X18584908Y6324130D01*
X18627867Y6322249D01*
G37*
G36*
X19146972Y6304590D02*
G01*
X19146972Y5269000D01*
X19341512Y5269000D01*
X19341512Y5695876D01*
X19729308Y5695876D01*
X19729308Y5851275D01*
X19341512Y5851275D01*
X19341512Y6139360D01*
X19750313Y6139360D01*
X19750313Y6304590D01*
X19146972Y6304590D01*
G37*
G36*
X19905102Y6304590D02*
G01*
X19905102Y5269000D01*
X20099641Y5269000D01*
X20099641Y5695876D01*
X20487438Y5695876D01*
X20487438Y5851275D01*
X20099641Y5851275D01*
X20099641Y6139360D01*
X20508443Y6139360D01*
X20508443Y6304590D01*
X19905102Y6304590D01*
G37*
G36*
X22716588Y6322249D02*
G01*
X22794498Y6307871D01*
X22863232Y6280107D01*
X22894443Y6261262D01*
X22923470Y6239158D01*
X22950628Y6213439D01*
X22975409Y6184445D01*
X22998316Y6151303D01*
X23018579Y6114794D01*
X23036684Y6073525D01*
X23051808Y6028746D01*
X23064261Y5978642D01*
X23073338Y5924867D01*
X23079088Y5865345D01*
X23081026Y5801999D01*
X23077543Y5709229D01*
X23061593Y5595640D01*
X23034626Y5502196D01*
X22998186Y5426227D01*
X22953070Y5365399D01*
X22899231Y5317988D01*
X22868624Y5298918D01*
X22835795Y5283161D01*
X22799658Y5270394D01*
X22761231Y5261168D01*
X22718642Y5255321D01*
X22673629Y5253369D01*
X22622132Y5255893D01*
X22544363Y5271036D01*
X22477008Y5299031D01*
X22446692Y5317859D01*
X22418610Y5339911D01*
X22392320Y5365690D01*
X22368406Y5394799D01*
X22346150Y5428492D01*
X22326512Y5465747D01*
X22308758Y5508650D01*
X22293957Y5555451D01*
X22281581Y5609048D01*
X22272576Y5666959D01*
X22266773Y5732790D01*
X22265252Y5788017D01*
X22463642Y5788017D01*
X22466867Y5707148D01*
X22481879Y5609932D01*
X22506410Y5536340D01*
X22538165Y5482738D01*
X22576020Y5445833D01*
X22597353Y5432872D01*
X22620240Y5423528D01*
X22645477Y5417681D01*
X22672225Y5415729D01*
X22696026Y5417233D01*
X22743812Y5430994D01*
X22765765Y5443514D01*
X22786010Y5459737D01*
X22805417Y5480816D01*
X22822782Y5505975D01*
X22839021Y5537410D01*
X22852743Y5573488D01*
X22864543Y5617262D01*
X22873235Y5666323D01*
X22878938Y5724210D01*
X22880869Y5788017D01*
X22877500Y5870083D01*
X22862195Y5967463D01*
X22837294Y6041601D01*
X22805196Y6095728D01*
X22767196Y6132942D01*
X22745968Y6145951D01*
X22723255Y6155329D01*
X22698441Y6161163D01*
X22672225Y6163113D01*
X22648309Y6161495D01*
X22601180Y6147277D01*
X22579264Y6134348D01*
X22558980Y6117628D01*
X22539463Y6095933D01*
X22521950Y6070083D01*
X22505611Y6038012D01*
X22491775Y6001293D01*
X22479957Y5957256D01*
X22471237Y5908058D01*
X22465568Y5850841D01*
X22463642Y5788017D01*
X22265252Y5788017D01*
X22264828Y5803404D01*
X22267435Y5877134D01*
X22282502Y5985376D01*
X22309238Y6076111D01*
X22346087Y6151030D01*
X22392137Y6211709D01*
X22447201Y6259319D01*
X22478380Y6278478D01*
X22511777Y6294338D01*
X22548209Y6307120D01*
X22586855Y6316370D01*
X22629117Y6322183D01*
X22673629Y6324130D01*
X22716588Y6322249D01*
G37*
G36*
X23235693Y6304590D02*
G01*
X23235693Y5269000D01*
X23399458Y5269000D01*
X23399458Y5861534D01*
X23390083Y5988883D01*
X23371492Y6115546D01*
X23399458Y6115546D01*
X23431351Y6004272D01*
X23461068Y5929922D01*
X23753671Y5269000D01*
X23974833Y5269000D01*
X23974833Y6304590D01*
X23811068Y6304590D01*
X23811068Y5745640D01*
X23818905Y5619087D01*
X23836286Y5506954D01*
X23811068Y5506954D01*
X23768005Y5628228D01*
X23731262Y5719140D01*
X23473647Y6304590D01*
X23235693Y6304590D01*
G37*
G36*
X4870236Y15283950D02*
G01*
X5742000Y15283950D01*
X5742000Y15479894D01*
X4870236Y15479894D01*
X4870236Y15754301D01*
X4706410Y15754301D01*
X4706410Y15015100D01*
X4870236Y15015100D01*
X4870236Y15283950D01*
G37*
G36*
X5742000Y16379379D02*
G01*
X5393099Y16205784D01*
X5354742Y16187570D01*
X5302362Y16173605D01*
X5302907Y16171067D01*
X5310002Y16125124D01*
X5312132Y16081220D01*
X5312132Y16064367D01*
X5742000Y16064367D01*
X5742000Y15869828D01*
X4706410Y15869828D01*
X4706410Y16099416D01*
X4709200Y16183854D01*
X4710992Y16197418D01*
X4853444Y16197418D01*
X4853444Y16064367D01*
X5195995Y16064367D01*
X5197338Y16113399D01*
X5193918Y16176282D01*
X5180137Y16238652D01*
X5157375Y16283001D01*
X5142451Y16300237D01*
X5124961Y16314510D01*
X5103583Y16326421D01*
X5079159Y16335095D01*
X5048023Y16341024D01*
X5012812Y16342987D01*
X5008280Y16342933D01*
X4956455Y16334543D01*
X4913097Y16314092D01*
X4881013Y16284221D01*
X4860745Y16245676D01*
X4855334Y16222862D01*
X4853444Y16197418D01*
X4710992Y16197418D01*
X4723154Y16289465D01*
X4746713Y16370537D01*
X4778414Y16432361D01*
X4817983Y16478898D01*
X4841086Y16497319D01*
X4866520Y16512585D01*
X4895234Y16525001D01*
X4926512Y16534019D01*
X4962580Y16539851D01*
X5001638Y16541801D01*
X5023429Y16541108D01*
X5086993Y16529778D01*
X5115613Y16518984D01*
X5142355Y16504743D01*
X5168009Y16486435D01*
X5191755Y16464435D01*
X5215042Y16436867D01*
X5236259Y16405064D01*
X5257172Y16365378D01*
X5275740Y16320578D01*
X5286975Y16320578D01*
X5332655Y16373429D01*
X5379177Y16407406D01*
X5742000Y16608968D01*
X5742000Y16379379D01*
G37*
G36*
X4706410Y16724678D02*
G01*
X5742000Y16724678D01*
X5742000Y16919217D01*
X4706410Y16919217D01*
X4706410Y16724678D01*
G37*
G36*
X4706410Y17133113D02*
G01*
X5742000Y17133113D01*
X5742000Y17296878D01*
X5131515Y17296878D01*
X5053986Y17294871D01*
X4977890Y17288638D01*
X4899667Y17278682D01*
X4899667Y17305304D01*
X5714644Y17537701D01*
X5714644Y17656647D01*
X4899667Y17887701D01*
X4899667Y17915667D01*
X5001721Y17905398D01*
X5131576Y17903088D01*
X5742000Y17903088D01*
X5742000Y18066853D01*
X4706410Y18066853D01*
X4706410Y17803682D01*
X5269817Y17653900D01*
X5388050Y17631084D01*
X5482247Y17621660D01*
X5482247Y17572689D01*
X5396886Y17564071D01*
X5324611Y17552842D01*
X5269878Y17540449D01*
X4706410Y17390667D01*
X4706410Y17133113D01*
G37*
G36*
X6955503Y15421457D02*
G01*
X7058328Y15408609D01*
X7144571Y15383946D01*
X7217690Y15348086D01*
X7280236Y15300535D01*
X7308274Y15271690D01*
X7333828Y15239621D01*
X7367433Y15185156D01*
X7385279Y15145523D01*
X7398777Y15104954D01*
X7411103Y15048758D01*
X7418120Y14990195D01*
X7422000Y14864403D01*
X7422000Y14664246D01*
X6386410Y14664246D01*
X6386410Y14864403D01*
X6386866Y14897986D01*
X6544618Y14897986D01*
X6546023Y14858785D01*
X7262448Y14858785D01*
X7263852Y14913434D01*
X7263339Y14937046D01*
X7253067Y15013899D01*
X7230925Y15076165D01*
X7197381Y15126864D01*
X7175830Y15148681D01*
X7151231Y15167847D01*
X7122127Y15185117D01*
X7089645Y15199482D01*
X7050986Y15211683D01*
X7008406Y15220553D01*
X6957604Y15226429D01*
X6902129Y15228385D01*
X6861678Y15227302D01*
X6774018Y15215687D01*
X6704522Y15193022D01*
X6649460Y15160311D01*
X6626413Y15140040D01*
X6606241Y15117099D01*
X6588469Y15090679D01*
X6573726Y15061405D01*
X6561398Y15027254D01*
X6552452Y14989870D01*
X6546574Y14945832D01*
X6544618Y14897986D01*
X6386866Y14897986D01*
X6387263Y14927234D01*
X6395830Y15034840D01*
X6414361Y15118863D01*
X6444316Y15191120D01*
X6464434Y15224900D01*
X6488625Y15257817D01*
X6515128Y15287115D01*
X6544426Y15313658D01*
X6577090Y15337831D01*
X6612540Y15359069D01*
X6651808Y15377797D01*
X6693892Y15393345D01*
X6740318Y15406038D01*
X6789617Y15415238D01*
X6843703Y15421040D01*
X6900724Y15422986D01*
X6955503Y15421457D01*
G37*
G36*
X6981771Y16372110D02*
G01*
X7095360Y16356160D01*
X7188804Y16329193D01*
X7264773Y16292754D01*
X7325601Y16247638D01*
X7373012Y16193799D01*
X7392082Y16163192D01*
X7407839Y16130362D01*
X7420606Y16094226D01*
X7429832Y16055799D01*
X7435679Y16013210D01*
X7437631Y15968197D01*
X7435107Y15916699D01*
X7419964Y15838931D01*
X7391969Y15771576D01*
X7373141Y15741259D01*
X7351089Y15713178D01*
X7325310Y15686887D01*
X7296201Y15662974D01*
X7262508Y15640718D01*
X7225253Y15621080D01*
X7182350Y15603326D01*
X7135549Y15588524D01*
X7081952Y15576149D01*
X7024041Y15567144D01*
X6958210Y15561341D01*
X6887596Y15559396D01*
X6813866Y15562003D01*
X6705624Y15577070D01*
X6614889Y15603806D01*
X6539970Y15640655D01*
X6479291Y15686705D01*
X6431681Y15741769D01*
X6412522Y15772948D01*
X6396662Y15806345D01*
X6383880Y15842777D01*
X6374630Y15881423D01*
X6368817Y15923685D01*
X6366931Y15966793D01*
X6527887Y15966793D01*
X6529505Y15942876D01*
X6543723Y15895747D01*
X6556652Y15873831D01*
X6573372Y15853547D01*
X6595067Y15834031D01*
X6620917Y15816518D01*
X6652988Y15800179D01*
X6689707Y15786343D01*
X6733744Y15774525D01*
X6782942Y15765805D01*
X6840159Y15760136D01*
X6902983Y15758209D01*
X6983852Y15761434D01*
X7081068Y15776447D01*
X7154660Y15800978D01*
X7208262Y15832732D01*
X7245167Y15870588D01*
X7258128Y15891920D01*
X7267472Y15914808D01*
X7273319Y15940045D01*
X7275271Y15966793D01*
X7273767Y15990593D01*
X7260006Y16038379D01*
X7247486Y16060333D01*
X7231263Y16080578D01*
X7210184Y16099985D01*
X7185025Y16117350D01*
X7153590Y16133589D01*
X7117512Y16147310D01*
X7073738Y16159110D01*
X7024677Y16167803D01*
X6966790Y16173506D01*
X6902983Y16175437D01*
X6820917Y16172068D01*
X6723537Y16156763D01*
X6649399Y16131861D01*
X6595272Y16099763D01*
X6558058Y16061764D01*
X6545049Y16040535D01*
X6535671Y16017822D01*
X6529837Y15993008D01*
X6527887Y15966793D01*
X6366931Y15966793D01*
X6366870Y15968197D01*
X6368751Y16011156D01*
X6383129Y16089065D01*
X6410893Y16157800D01*
X6429738Y16189011D01*
X6451842Y16218038D01*
X6477561Y16245196D01*
X6506555Y16269977D01*
X6539697Y16292884D01*
X6576206Y16313146D01*
X6617475Y16331252D01*
X6662254Y16346375D01*
X6712358Y16358829D01*
X6766133Y16367906D01*
X6825655Y16373656D01*
X6889001Y16375594D01*
X6981771Y16372110D01*
G37*
G36*
X6386410Y16453202D02*
G01*
X7429815Y16706604D01*
X7429815Y16890031D01*
X6913058Y17003420D01*
X6764711Y17031951D01*
X6691643Y17041030D01*
X6609037Y17046835D01*
X6609037Y17079014D01*
X6758905Y17092547D01*
X6802905Y17100018D01*
X7429815Y17234413D01*
X7429815Y17399643D01*
X6386410Y17658602D01*
X6386410Y17473832D01*
X7021869Y17347803D01*
X7112629Y17331687D01*
X7216576Y17319820D01*
X7235276Y17318433D01*
X7235276Y17289001D01*
X7066088Y17267951D01*
X6893580Y17237222D01*
X6386410Y17142028D01*
X6386410Y16978202D01*
X7021869Y16852234D01*
X7186339Y16827253D01*
X7235276Y16822803D01*
X7235276Y16793433D01*
X7029849Y16767457D01*
X7017655Y16765406D01*
X6386410Y16645055D01*
X6386410Y16453202D01*
G37*
G36*
X6386410Y17773945D02*
G01*
X7422000Y17773945D01*
X7422000Y17937710D01*
X6829466Y17937710D01*
X6702117Y17928335D01*
X6575454Y17909744D01*
X6575454Y17937710D01*
X6686728Y17969604D01*
X6761078Y17999321D01*
X7422000Y18291923D01*
X7422000Y18513085D01*
X6386410Y18513085D01*
X6386410Y18349321D01*
X6945360Y18349321D01*
X7071913Y18357158D01*
X7184046Y18374539D01*
X7184046Y18349321D01*
X7062772Y18306257D01*
X6971860Y18269514D01*
X6386410Y18011899D01*
X6386410Y17773945D01*
G37*
G36*
X4920236Y24933950D02*
G01*
X5792000Y24933950D01*
X5792000Y25129894D01*
X4920236Y25129894D01*
X4920236Y25404301D01*
X4756410Y25404301D01*
X4756410Y24665100D01*
X4920236Y24665100D01*
X4920236Y24933950D01*
G37*
G36*
X5792000Y26029379D02*
G01*
X5443099Y25855784D01*
X5404742Y25837570D01*
X5352362Y25823605D01*
X5352907Y25821067D01*
X5360002Y25775124D01*
X5362132Y25731220D01*
X5362132Y25714367D01*
X5792000Y25714367D01*
X5792000Y25519828D01*
X4756410Y25519828D01*
X4756410Y25749416D01*
X4759200Y25833854D01*
X4760992Y25847418D01*
X4903444Y25847418D01*
X4903444Y25714367D01*
X5245995Y25714367D01*
X5247338Y25763399D01*
X5243918Y25826282D01*
X5230137Y25888652D01*
X5207375Y25933001D01*
X5192451Y25950237D01*
X5174961Y25964510D01*
X5153583Y25976421D01*
X5129159Y25985095D01*
X5098023Y25991024D01*
X5062812Y25992987D01*
X5058280Y25992933D01*
X5006455Y25984543D01*
X4963097Y25964092D01*
X4931013Y25934221D01*
X4910745Y25895676D01*
X4905334Y25872862D01*
X4903444Y25847418D01*
X4760992Y25847418D01*
X4773154Y25939465D01*
X4796713Y26020537D01*
X4828414Y26082361D01*
X4867983Y26128898D01*
X4891086Y26147319D01*
X4916520Y26162585D01*
X4945234Y26175001D01*
X4976512Y26184019D01*
X5012580Y26189851D01*
X5051638Y26191801D01*
X5073429Y26191108D01*
X5136993Y26179778D01*
X5165613Y26168984D01*
X5192355Y26154743D01*
X5218009Y26136435D01*
X5241755Y26114435D01*
X5265042Y26086867D01*
X5286259Y26055064D01*
X5307172Y26015378D01*
X5325740Y25970578D01*
X5336975Y25970578D01*
X5382655Y26023429D01*
X5429177Y26057406D01*
X5792000Y26258968D01*
X5792000Y26029379D01*
G37*
G36*
X4756410Y26374678D02*
G01*
X5792000Y26374678D01*
X5792000Y26569217D01*
X4756410Y26569217D01*
X4756410Y26374678D01*
G37*
G36*
X4756410Y26783113D02*
G01*
X5792000Y26783113D01*
X5792000Y26946878D01*
X5181515Y26946878D01*
X5103986Y26944871D01*
X5027890Y26938638D01*
X4949667Y26928682D01*
X4949667Y26955304D01*
X5764644Y27187701D01*
X5764644Y27306647D01*
X4949667Y27537701D01*
X4949667Y27565667D01*
X5051721Y27555398D01*
X5181576Y27553088D01*
X5792000Y27553088D01*
X5792000Y27716853D01*
X4756410Y27716853D01*
X4756410Y27453682D01*
X5319817Y27303900D01*
X5438050Y27281084D01*
X5532247Y27271660D01*
X5532247Y27222689D01*
X5446886Y27214071D01*
X5374611Y27202842D01*
X5319878Y27190449D01*
X4756410Y27040667D01*
X4756410Y26783113D01*
G37*
G36*
X7092263Y25451440D02*
G01*
X7197585Y25455251D01*
X7244843Y25462105D01*
X7288950Y25474115D01*
X7319810Y25487166D01*
X7349263Y25504384D01*
X7363067Y25514393D01*
X7409572Y25560649D01*
X7446798Y25619952D01*
X7473029Y25691800D01*
X7481444Y25732298D01*
X7486348Y25775326D01*
X7487631Y25812614D01*
X7485706Y25857249D01*
X7480048Y25899628D01*
X7470872Y25939413D01*
X7458337Y25976585D01*
X7442801Y26010604D01*
X7424312Y26041702D01*
X7403417Y26069255D01*
X7379989Y26093637D01*
X7363067Y26108025D01*
X7308833Y26140612D01*
X7246392Y26160660D01*
X7166715Y26170636D01*
X7092263Y26172383D01*
X6436410Y26172383D01*
X6436410Y25977783D01*
X7110398Y25977783D01*
X7160354Y25975772D01*
X7203300Y25969513D01*
X7233146Y25961068D01*
X7258577Y25949413D01*
X7277305Y25936420D01*
X7292779Y25920700D01*
X7313548Y25882587D01*
X7323266Y25830654D01*
X7323866Y25811209D01*
X7321919Y25776160D01*
X7316104Y25746328D01*
X7307767Y25723961D01*
X7296463Y25705083D01*
X7266676Y25677679D01*
X7223578Y25659269D01*
X7158587Y25648577D01*
X7082493Y25645979D01*
X6436410Y25645979D01*
X6436410Y25451440D01*
X7092263Y25451440D01*
G37*
G36*
X6806914Y27064359D02*
G01*
X6881403Y27050402D01*
X6944993Y27024140D01*
X6998126Y26986420D01*
X7020850Y26963322D01*
X7041124Y26937163D01*
X7058806Y26907867D01*
X7073710Y26875420D01*
X7085839Y26839190D01*
X7094766Y26799622D01*
X7100414Y26755554D01*
X7102338Y26707886D01*
X7102338Y26559447D01*
X7472000Y26559447D01*
X7472000Y26364908D01*
X6436410Y26364908D01*
X6436410Y26654702D01*
X6437746Y26699459D01*
X6603045Y26699459D01*
X6603045Y26559447D01*
X6966539Y26559447D01*
X6967882Y26615501D01*
X6962412Y26698245D01*
X6946567Y26761434D01*
X6921996Y26806677D01*
X6906271Y26824257D01*
X6888072Y26838795D01*
X6866183Y26850847D01*
X6841422Y26859609D01*
X6810436Y26865535D01*
X6775724Y26867499D01*
X6749584Y26865914D01*
X6700228Y26853797D01*
X6659976Y26831322D01*
X6629878Y26799181D01*
X6618759Y26779294D01*
X6610296Y26756153D01*
X6604928Y26729637D01*
X6603045Y26699459D01*
X6437746Y26699459D01*
X6438259Y26716627D01*
X6451388Y26817021D01*
X6475082Y26894887D01*
X6508019Y26955102D01*
X6528107Y26979960D01*
X6550372Y27001290D01*
X6576128Y27020165D01*
X6604088Y27035502D01*
X6637432Y27048586D01*
X6673178Y27057865D01*
X6717500Y27064226D01*
X6764611Y27066251D01*
X6806914Y27064359D01*
G37*
G36*
X22458742Y32274391D02*
G01*
X21185299Y32274391D01*
X21185299Y32811095D01*
X21623695Y32811095D01*
X21623695Y32665465D01*
X21905063Y32665465D01*
X21905063Y32385502D01*
X22050632Y32385502D01*
X22050632Y32665465D01*
X22332000Y32665465D01*
X22332000Y32811095D01*
X22050632Y32811095D01*
X22050632Y33091058D01*
X21905063Y33091058D01*
X21905063Y32811095D01*
X21623695Y32811095D01*
X21185299Y32811095D01*
X21185299Y33682614D01*
X21296410Y33682614D01*
X21303892Y33592346D01*
X21327055Y33495963D01*
X21355211Y33416634D01*
X21537050Y33416634D01*
X21537050Y33485205D01*
X21510161Y33511629D01*
X21488121Y33539054D01*
X21472034Y33565380D01*
X21460026Y33592741D01*
X21448271Y33648833D01*
X21447657Y33665823D01*
X21449564Y33692466D01*
X21455093Y33717120D01*
X21464025Y33739629D01*
X21476047Y33759543D01*
X21490757Y33776462D01*
X21507944Y33790248D01*
X21526934Y33800451D01*
X21547765Y33807094D01*
X21574725Y33809987D01*
X21598889Y33808033D01*
X21620761Y33802171D01*
X21639171Y33793142D01*
X21655599Y33780689D01*
X21682715Y33745221D01*
X21703046Y33691714D01*
X21715144Y33613484D01*
X21715775Y33604213D01*
X21866961Y33604213D01*
X21869814Y33651809D01*
X21876503Y33693699D01*
X21885631Y33725965D01*
X21897805Y33753796D01*
X21911431Y33775119D01*
X21927577Y33792841D01*
X21945188Y33806296D01*
X21965086Y33816539D01*
X22012241Y33827442D01*
X22030299Y33828183D01*
X22055830Y33826251D01*
X22079966Y33820543D01*
X22102224Y33811296D01*
X22122568Y33798601D01*
X22140600Y33782720D01*
X22156214Y33763694D01*
X22169119Y33741704D01*
X22179091Y33716835D01*
X22185882Y33689122D01*
X22189193Y33658762D01*
X22189484Y33646222D01*
X22182151Y33577501D01*
X22173365Y33547060D01*
X22161673Y33520419D01*
X22148157Y33499093D01*
X22132671Y33482289D01*
X22116883Y33471222D01*
X22116883Y33395629D01*
X22298660Y33395629D01*
X22316460Y33446062D01*
X22329809Y33495362D01*
X22344972Y33594285D01*
X22347631Y33663014D01*
X22345702Y33710001D01*
X22340014Y33754131D01*
X22330935Y33794518D01*
X22318528Y33831975D01*
X22303271Y33865761D01*
X22285084Y33896560D01*
X22264455Y33923866D01*
X22241241Y33948115D01*
X22215792Y33969062D01*
X22188049Y33986841D01*
X22126055Y34012611D01*
X22055492Y34024764D01*
X22030299Y34025592D01*
X21990175Y34023628D01*
X21953893Y34017691D01*
X21924345Y34008852D01*
X21897830Y33996668D01*
X21865618Y33973813D01*
X21846346Y33954620D01*
X21829670Y33932463D01*
X21803675Y33878125D01*
X21788620Y33815605D01*
X21756380Y33815605D01*
X21747572Y33849795D01*
X21735580Y33880772D01*
X21721000Y33907777D01*
X21703728Y33931557D01*
X21684337Y33951659D01*
X21662669Y33968497D01*
X21613473Y33991949D01*
X21556560Y34001588D01*
X21546820Y34001779D01*
X21514253Y33999839D01*
X21483435Y33994074D01*
X21455128Y33984823D01*
X21428735Y33972075D01*
X21382549Y33936774D01*
X21345041Y33888217D01*
X21317079Y33825775D01*
X21300313Y33748630D01*
X21296410Y33682614D01*
X21185299Y33682614D01*
X21185299Y34716494D01*
X21296410Y34716494D01*
X21959651Y34555477D01*
X22024898Y34541945D01*
X22091906Y34532947D01*
X22178859Y34528855D01*
X22178859Y34499485D01*
X22063418Y34492060D01*
X21959651Y34472862D01*
X21296410Y34311906D01*
X21296410Y34128480D01*
X22339815Y34418274D01*
X22339815Y34598892D01*
X21296410Y34905477D01*
X21296410Y34716494D01*
X21185299Y34716494D01*
X21185299Y35295594D01*
X21296410Y35295594D01*
X21303892Y35205326D01*
X21327055Y35108942D01*
X21355211Y35029614D01*
X21537050Y35029614D01*
X21537050Y35098185D01*
X21510161Y35124609D01*
X21488121Y35152033D01*
X21472034Y35178360D01*
X21460026Y35205721D01*
X21448271Y35261813D01*
X21447657Y35278803D01*
X21449564Y35305446D01*
X21455093Y35330100D01*
X21464025Y35352609D01*
X21476047Y35372522D01*
X21490757Y35389442D01*
X21507944Y35403227D01*
X21526934Y35413430D01*
X21547765Y35420074D01*
X21574725Y35422967D01*
X21598889Y35421013D01*
X21620761Y35415151D01*
X21639171Y35406122D01*
X21655599Y35393669D01*
X21682715Y35358201D01*
X21703046Y35304694D01*
X21715144Y35226464D01*
X21715775Y35217192D01*
X21866961Y35217192D01*
X21869814Y35264789D01*
X21876503Y35306679D01*
X21885631Y35338945D01*
X21897805Y35366776D01*
X21911431Y35388099D01*
X21927577Y35405821D01*
X21945188Y35419276D01*
X21965086Y35429519D01*
X22012241Y35440422D01*
X22030299Y35441163D01*
X22055830Y35439231D01*
X22079966Y35433523D01*
X22102224Y35424276D01*
X22122568Y35411581D01*
X22140600Y35395699D01*
X22156214Y35376674D01*
X22169119Y35354684D01*
X22179091Y35329815D01*
X22185882Y35302102D01*
X22189193Y35271742D01*
X22189484Y35259202D01*
X22182151Y35190481D01*
X22173365Y35160039D01*
X22161673Y35133399D01*
X22148157Y35112073D01*
X22132671Y35095268D01*
X22116883Y35084202D01*
X22116883Y35008609D01*
X22298660Y35008609D01*
X22316460Y35059042D01*
X22329809Y35108342D01*
X22344972Y35207265D01*
X22347631Y35275994D01*
X22345702Y35322981D01*
X22340014Y35367111D01*
X22330935Y35407497D01*
X22318528Y35444955D01*
X22303271Y35478741D01*
X22285084Y35509539D01*
X22264455Y35536846D01*
X22241241Y35561095D01*
X22215792Y35582042D01*
X22188049Y35599821D01*
X22126055Y35625591D01*
X22055492Y35637744D01*
X22030299Y35638572D01*
X21990175Y35636608D01*
X21953893Y35630671D01*
X21924345Y35621832D01*
X21897830Y35609648D01*
X21865618Y35586793D01*
X21846346Y35567600D01*
X21829670Y35545443D01*
X21803675Y35491105D01*
X21788620Y35428584D01*
X21756380Y35428584D01*
X21747572Y35462775D01*
X21735580Y35493751D01*
X21721000Y35520757D01*
X21703728Y35544537D01*
X21684337Y35564639D01*
X21662669Y35581477D01*
X21613473Y35604928D01*
X21556560Y35614567D01*
X21546820Y35614759D01*
X21514253Y35612819D01*
X21483435Y35607054D01*
X21455128Y35597803D01*
X21428735Y35585054D01*
X21382549Y35549754D01*
X21345041Y35501197D01*
X21317079Y35438755D01*
X21300313Y35361610D01*
X21296410Y35295594D01*
X21185299Y35295594D01*
X21185299Y35749683D01*
X22458742Y35749683D01*
X22458742Y32274391D01*
G37*
G36*
X22458742Y13863225D02*
G01*
X21185299Y13863225D01*
X21185299Y14399929D01*
X21623695Y14399929D01*
X21623695Y14254299D01*
X21905063Y14254299D01*
X21905063Y13974336D01*
X22050632Y13974336D01*
X22050632Y14254299D01*
X22332000Y14254299D01*
X22332000Y14399929D01*
X22050632Y14399929D01*
X22050632Y14679892D01*
X21905063Y14679892D01*
X21905063Y14399929D01*
X21623695Y14399929D01*
X21185299Y14399929D01*
X21185299Y15599039D01*
X21308133Y15599039D01*
X21308133Y15034838D01*
X21850353Y15034838D01*
X21850353Y15113240D01*
X21838136Y15152044D01*
X21830752Y15188568D01*
X21827882Y15228034D01*
X21829802Y15258139D01*
X21835421Y15286203D01*
X21844462Y15311862D01*
X21856745Y15335115D01*
X21871960Y15355644D01*
X21889978Y15373412D01*
X21910522Y15388182D01*
X21933454Y15399829D01*
X21958600Y15408169D01*
X21985743Y15413000D01*
X22008683Y15414208D01*
X22039382Y15412282D01*
X22067481Y15406610D01*
X22092053Y15397723D01*
X22113968Y15385637D01*
X22132747Y15370842D01*
X22148764Y15353257D01*
X22172124Y15310168D01*
X22183213Y15256117D01*
X22183866Y15237865D01*
X22181942Y15206459D01*
X22176292Y15177504D01*
X22167371Y15151834D01*
X22155250Y15128870D01*
X22140507Y15109258D01*
X22123036Y15092567D01*
X22087146Y15071230D01*
X22087146Y14987272D01*
X22279060Y14987272D01*
X22311196Y15049273D01*
X22335484Y15130650D01*
X22343149Y15177047D01*
X22347119Y15225524D01*
X22347631Y15250444D01*
X22345698Y15293780D01*
X22339981Y15334995D01*
X22330756Y15373426D01*
X22318089Y15409510D01*
X22302345Y15442659D01*
X22283483Y15473256D01*
X22261887Y15500861D01*
X22237467Y15525711D01*
X22210522Y15547541D01*
X22181006Y15566397D01*
X22149039Y15582147D01*
X22114719Y15594671D01*
X22039006Y15609573D01*
X21996105Y15611618D01*
X21956936Y15609693D01*
X21919938Y15604035D01*
X21885414Y15594878D01*
X21853276Y15582373D01*
X21823722Y15566741D01*
X21796778Y15548120D01*
X21751148Y15502546D01*
X21717259Y15446740D01*
X21696221Y15381744D01*
X21689336Y15312054D01*
X21696858Y15234885D01*
X21708936Y15187429D01*
X21689336Y15167828D01*
X21673287Y15178052D01*
X21657778Y15183908D01*
X21618261Y15187429D01*
X21530456Y15187429D01*
X21494720Y15184979D01*
X21476926Y15179160D01*
X21457976Y15167828D01*
X21438376Y15187429D01*
X21464698Y15238152D01*
X21479147Y15300215D01*
X21483133Y15370855D01*
X21483133Y15599039D01*
X21308133Y15599039D01*
X21185299Y15599039D01*
X21185299Y16305328D01*
X21296410Y16305328D01*
X21959651Y16144311D01*
X22024898Y16130779D01*
X22091906Y16121781D01*
X22178859Y16117689D01*
X22178859Y16088319D01*
X22063418Y16080894D01*
X21959651Y16061696D01*
X21296410Y15900740D01*
X21296410Y15717314D01*
X22339815Y16007108D01*
X22339815Y16187726D01*
X21296410Y16494311D01*
X21296410Y16305328D01*
X21185299Y16305328D01*
X21185299Y16605422D01*
X22458742Y16605422D01*
X22458742Y13863225D01*
G37*
G36*
X21695436Y8222556D02*
G01*
X21726422Y8216629D01*
X21751183Y8207868D01*
X21773072Y8195816D01*
X21791271Y8181278D01*
X21806996Y8163698D01*
X21831567Y8118455D01*
X21847412Y8055265D01*
X21852882Y7972522D01*
X21851539Y7916468D01*
X21488045Y7916468D01*
X21488045Y8056480D01*
X21489928Y8086658D01*
X21495296Y8113173D01*
X21503759Y8136315D01*
X21514878Y8156202D01*
X21544976Y8188343D01*
X21585228Y8210817D01*
X21634584Y8222935D01*
X21660724Y8224519D01*
X21695436Y8222556D01*
G37*
G36*
X21901790Y10066499D02*
G01*
X21959677Y10060796D01*
X22008738Y10052104D01*
X22052512Y10040304D01*
X22088590Y10026582D01*
X22120025Y10010343D01*
X22145184Y9992978D01*
X22166263Y9973572D01*
X22182486Y9953326D01*
X22195006Y9931373D01*
X22208767Y9883587D01*
X22210271Y9859786D01*
X22208319Y9833039D01*
X22202472Y9807801D01*
X22193128Y9784914D01*
X22180167Y9763581D01*
X22143262Y9725726D01*
X22089660Y9693971D01*
X22016068Y9669440D01*
X21918852Y9654428D01*
X21837983Y9651203D01*
X21775159Y9653129D01*
X21717942Y9658799D01*
X21668744Y9667519D01*
X21624707Y9679337D01*
X21587988Y9693172D01*
X21555917Y9709511D01*
X21530067Y9727024D01*
X21508372Y9746541D01*
X21491652Y9766825D01*
X21478723Y9788741D01*
X21464505Y9835870D01*
X21462887Y9859786D01*
X21464837Y9886002D01*
X21470671Y9910816D01*
X21480049Y9933529D01*
X21493058Y9954757D01*
X21530272Y9992757D01*
X21584399Y10024855D01*
X21658537Y10049756D01*
X21755917Y10065062D01*
X21837983Y10068431D01*
X21901790Y10066499D01*
G37*
G36*
X21901790Y10999507D02*
G01*
X21959677Y10993804D01*
X22008738Y10985112D01*
X22052512Y10973311D01*
X22088590Y10959590D01*
X22120025Y10943351D01*
X22145184Y10925986D01*
X22166263Y10906579D01*
X22182486Y10886334D01*
X22195006Y10864380D01*
X22208767Y10816594D01*
X22210271Y10792794D01*
X22208319Y10766046D01*
X22202472Y10740809D01*
X22193128Y10717922D01*
X22180167Y10696589D01*
X22143262Y10658733D01*
X22089660Y10626979D01*
X22016068Y10602448D01*
X21918852Y10587435D01*
X21837983Y10584210D01*
X21775159Y10586137D01*
X21717942Y10591806D01*
X21668744Y10600526D01*
X21624707Y10612344D01*
X21587988Y10626180D01*
X21555917Y10642519D01*
X21530067Y10660032D01*
X21508372Y10679548D01*
X21491652Y10699833D01*
X21478723Y10721749D01*
X21464505Y10768878D01*
X21462887Y10792794D01*
X21464837Y10819010D01*
X21470671Y10843823D01*
X21480049Y10866537D01*
X21493058Y10887765D01*
X21530272Y10925765D01*
X21584399Y10957862D01*
X21658537Y10982764D01*
X21755917Y10998069D01*
X21837983Y11001438D01*
X21901790Y10999507D01*
G37*
G36*
X21892604Y11918446D02*
G01*
X21943406Y11912569D01*
X21985986Y11903700D01*
X22024645Y11891499D01*
X22057127Y11877134D01*
X22086231Y11859863D01*
X22110830Y11840698D01*
X22132381Y11818881D01*
X22165925Y11768181D01*
X22188067Y11705916D01*
X22198339Y11629062D01*
X22198852Y11605451D01*
X22197448Y11550802D01*
X21481023Y11550802D01*
X21479618Y11590003D01*
X21481574Y11637848D01*
X21487452Y11681887D01*
X21496398Y11719271D01*
X21508726Y11753422D01*
X21523469Y11782696D01*
X21541241Y11809115D01*
X21561413Y11832057D01*
X21584460Y11852328D01*
X21639522Y11885038D01*
X21709018Y11907703D01*
X21796678Y11919318D01*
X21837129Y11920402D01*
X21892604Y11918446D01*
G37*
G36*
X22483742Y7610818D02*
G01*
X21190759Y7610818D01*
X21190759Y8011723D01*
X21321410Y8011723D01*
X21321410Y7721929D01*
X22357000Y7721929D01*
X22357000Y7916468D01*
X21987338Y7916468D01*
X21987338Y8064907D01*
X21985414Y8112575D01*
X21979766Y8156643D01*
X21970839Y8196211D01*
X21958710Y8232440D01*
X21943806Y8264888D01*
X21926124Y8294184D01*
X21905850Y8320343D01*
X21883126Y8343441D01*
X21829993Y8381161D01*
X21766403Y8407422D01*
X21691914Y8421380D01*
X21649611Y8423272D01*
X21602500Y8421247D01*
X21558178Y8414886D01*
X21522432Y8405607D01*
X21489088Y8392523D01*
X21461128Y8377186D01*
X21435372Y8358310D01*
X21413107Y8336981D01*
X21393019Y8312123D01*
X21360082Y8251908D01*
X21336388Y8174042D01*
X21323259Y8073648D01*
X21322746Y8056480D01*
X21321410Y8011723D01*
X21190759Y8011723D01*
X21190759Y9006524D01*
X21301870Y9006524D01*
X21303820Y8955174D01*
X21309649Y8906693D01*
X21318830Y8863028D01*
X21331510Y8822028D01*
X21347068Y8784955D01*
X21365851Y8750408D01*
X21387392Y8718983D01*
X21411996Y8690023D01*
X21470243Y8639613D01*
X21541762Y8598646D01*
X21628400Y8567403D01*
X21732436Y8546934D01*
X21856366Y8538956D01*
X21865766Y8538921D01*
X21934237Y8540866D01*
X21998058Y8546664D01*
X22054134Y8555659D01*
X22105904Y8568014D01*
X22150790Y8582730D01*
X22191717Y8600365D01*
X22226789Y8619731D01*
X22258209Y8641649D01*
X22284818Y8664989D01*
X22307995Y8690608D01*
X22327232Y8717728D01*
X22343134Y8746957D01*
X22364715Y8811359D01*
X22372614Y8885179D01*
X22372631Y8888921D01*
X22370668Y8929183D01*
X22364740Y8966208D01*
X22355728Y8997520D01*
X22343264Y9026244D01*
X22328048Y9051396D01*
X22309587Y9074310D01*
X22262637Y9113772D01*
X22255089Y9118570D01*
X22255944Y9140918D01*
X22357000Y9140918D01*
X22357000Y9297722D01*
X21802812Y9297722D01*
X21802812Y8951936D01*
X21942764Y8951936D01*
X21942764Y9020568D01*
X21940863Y9062547D01*
X21931590Y9112953D01*
X21991270Y9104124D01*
X22043636Y9103122D01*
X22168261Y9103122D01*
X22188467Y9062338D01*
X22202764Y9023258D01*
X22210093Y8991250D01*
X22213025Y8959646D01*
X22213079Y8954744D01*
X22211124Y8922387D01*
X22205250Y8892776D01*
X22196251Y8867642D01*
X22183839Y8844819D01*
X22149784Y8806836D01*
X22101221Y8776595D01*
X22033927Y8753761D01*
X21941712Y8739649D01*
X21855996Y8736330D01*
X21789045Y8738287D01*
X21728105Y8744167D01*
X21677828Y8752950D01*
X21632540Y8765013D01*
X21595426Y8778954D01*
X21562497Y8795666D01*
X21535627Y8813707D01*
X21512377Y8834160D01*
X21493537Y8855976D01*
X21478005Y8880010D01*
X21456987Y8934280D01*
X21448952Y8999336D01*
X21448905Y9005119D01*
X21450852Y9038589D01*
X21456666Y9070137D01*
X21465900Y9098669D01*
X21478657Y9125266D01*
X21513981Y9171750D01*
X21563164Y9210245D01*
X21587390Y9223534D01*
X21587390Y9297722D01*
X21374716Y9297722D01*
X21352716Y9254536D01*
X21334974Y9211032D01*
X21311594Y9123018D01*
X21302135Y9026934D01*
X21301870Y9006524D01*
X21190759Y9006524D01*
X21190759Y9861191D01*
X21301870Y9861191D01*
X21301931Y9859786D01*
X21303817Y9816678D01*
X21309630Y9774416D01*
X21318880Y9735770D01*
X21331662Y9699339D01*
X21347522Y9665941D01*
X21366681Y9634762D01*
X21414291Y9579698D01*
X21474970Y9533648D01*
X21549889Y9496799D01*
X21640624Y9470064D01*
X21748866Y9454996D01*
X21822596Y9452389D01*
X21893210Y9454335D01*
X21959041Y9460138D01*
X22016952Y9469142D01*
X22070549Y9481518D01*
X22117350Y9496319D01*
X22160253Y9514073D01*
X22197508Y9533711D01*
X22231201Y9555968D01*
X22260310Y9579881D01*
X22286089Y9606171D01*
X22308141Y9634253D01*
X22326969Y9664569D01*
X22354964Y9731924D01*
X22370107Y9809693D01*
X22372631Y9861191D01*
X22370679Y9906203D01*
X22364832Y9948793D01*
X22355606Y9987220D01*
X22342839Y10023356D01*
X22327082Y10056185D01*
X22308012Y10086792D01*
X22260601Y10140632D01*
X22199773Y10185747D01*
X22123804Y10222187D01*
X22030360Y10249154D01*
X21916771Y10265104D01*
X21824001Y10268588D01*
X21760655Y10266650D01*
X21701133Y10260900D01*
X21647358Y10251823D01*
X21597254Y10239369D01*
X21552475Y10224245D01*
X21511206Y10206140D01*
X21474697Y10185877D01*
X21441555Y10162970D01*
X21412561Y10138189D01*
X21386842Y10111031D01*
X21364738Y10082004D01*
X21345893Y10050793D01*
X21318129Y9982059D01*
X21303751Y9904149D01*
X21301870Y9861191D01*
X21190759Y9861191D01*
X21190759Y10794198D01*
X21301870Y10794198D01*
X21301931Y10792794D01*
X21303817Y10749686D01*
X21309630Y10707424D01*
X21318880Y10668778D01*
X21331662Y10632346D01*
X21347522Y10598949D01*
X21366681Y10567770D01*
X21414291Y10512706D01*
X21474970Y10466656D01*
X21549889Y10429807D01*
X21640624Y10403071D01*
X21748866Y10388004D01*
X21822596Y10385397D01*
X21893210Y10387342D01*
X21959041Y10393145D01*
X22016952Y10402150D01*
X22070549Y10414526D01*
X22117350Y10429327D01*
X22160253Y10447081D01*
X22197508Y10466719D01*
X22231201Y10488975D01*
X22260310Y10512889D01*
X22286089Y10539179D01*
X22308141Y10567260D01*
X22326969Y10597577D01*
X22354964Y10664932D01*
X22370107Y10742701D01*
X22372631Y10794198D01*
X22370679Y10839211D01*
X22364832Y10881800D01*
X22355606Y10920227D01*
X22342839Y10956364D01*
X22327082Y10989193D01*
X22308012Y11019800D01*
X22260601Y11073639D01*
X22199773Y11118755D01*
X22123804Y11155195D01*
X22030360Y11182162D01*
X21916771Y11198111D01*
X21824001Y11201595D01*
X21760655Y11199657D01*
X21701133Y11193907D01*
X21647358Y11184830D01*
X21597254Y11172376D01*
X21552475Y11157253D01*
X21511206Y11139147D01*
X21474697Y11118885D01*
X21441555Y11095978D01*
X21412561Y11071197D01*
X21386842Y11044039D01*
X21364738Y11015012D01*
X21345893Y10983801D01*
X21318129Y10915066D01*
X21303751Y10837157D01*
X21301870Y10794198D01*
X21190759Y10794198D01*
X21190759Y11556419D01*
X21321410Y11556419D01*
X21321410Y11356262D01*
X22357000Y11356262D01*
X22357000Y11556419D01*
X22353120Y11682211D01*
X22346103Y11740775D01*
X22333777Y11796971D01*
X22320279Y11837540D01*
X22302433Y11877173D01*
X22268828Y11931637D01*
X22243274Y11963706D01*
X22215236Y11992551D01*
X22152690Y12040103D01*
X22079571Y12075963D01*
X21993328Y12100625D01*
X21890503Y12113474D01*
X21835724Y12115003D01*
X21778703Y12113057D01*
X21724617Y12107255D01*
X21675318Y12098055D01*
X21628892Y12085362D01*
X21586808Y12069814D01*
X21547540Y12051086D01*
X21512090Y12029848D01*
X21479426Y12005675D01*
X21450128Y11979131D01*
X21423625Y11949833D01*
X21399434Y11916917D01*
X21379316Y11883137D01*
X21349361Y11810880D01*
X21330830Y11726856D01*
X21322263Y11619251D01*
X21321866Y11590003D01*
X21321410Y11556419D01*
X21190759Y11556419D01*
X21190759Y12226114D01*
X22483742Y12226114D01*
X22483742Y7610818D01*
G37*
G36*
X29254079Y45522631D02*
G01*
X27343913Y45522631D01*
X27343913Y46119776D01*
X27510580Y46119776D01*
X27521803Y45984373D01*
X27556548Y45839798D01*
X27598782Y45720805D01*
X27871540Y45720805D01*
X27871540Y45823662D01*
X27831206Y45863297D01*
X27798147Y45904434D01*
X27774016Y45943924D01*
X27756005Y45984965D01*
X27738372Y46069103D01*
X27737451Y46094588D01*
X27740311Y46134554D01*
X27748605Y46171534D01*
X27762003Y46205298D01*
X27780036Y46235168D01*
X27802101Y46260547D01*
X27827881Y46281225D01*
X27856367Y46296530D01*
X27887613Y46306495D01*
X27928052Y46310835D01*
X27964299Y46307904D01*
X27997107Y46299110D01*
X28024722Y46285567D01*
X28049364Y46266888D01*
X28090038Y46213686D01*
X28120534Y46133425D01*
X28138682Y46016080D01*
X28139627Y46002173D01*
X28366407Y46002173D01*
X28370686Y46073568D01*
X28380720Y46136403D01*
X28394412Y46184802D01*
X28412673Y46226548D01*
X28433112Y46258533D01*
X28457331Y46285115D01*
X28483747Y46305299D01*
X28513594Y46320662D01*
X28584327Y46337017D01*
X28611413Y46338129D01*
X28649710Y46335231D01*
X28685914Y46326669D01*
X28719302Y46312798D01*
X28749818Y46293756D01*
X28776865Y46269933D01*
X28800286Y46241395D01*
X28819643Y46208411D01*
X28834601Y46171106D01*
X28844789Y46129537D01*
X28849755Y46083997D01*
X28850191Y46065187D01*
X28839191Y45962106D01*
X28826013Y45916443D01*
X28808475Y45876482D01*
X28788201Y45844494D01*
X28764971Y45819287D01*
X28741289Y45802687D01*
X28741289Y45689298D01*
X29013956Y45689298D01*
X29040655Y45764947D01*
X29060679Y45838897D01*
X29083424Y45987282D01*
X29087412Y46090375D01*
X29084518Y46160856D01*
X29075986Y46227051D01*
X29062367Y46287630D01*
X29043757Y46343816D01*
X29020872Y46394496D01*
X28993591Y46440693D01*
X28962647Y46481653D01*
X28927827Y46518027D01*
X28889654Y46549447D01*
X28848038Y46576116D01*
X28755047Y46614771D01*
X28649204Y46633001D01*
X28611413Y46634243D01*
X28551228Y46631296D01*
X28496805Y46622390D01*
X28452482Y46609132D01*
X28412711Y46590856D01*
X28364392Y46556573D01*
X28335484Y46527785D01*
X28310471Y46494548D01*
X28271478Y46413042D01*
X28248896Y46319261D01*
X28200536Y46319261D01*
X28187324Y46370547D01*
X28169336Y46417011D01*
X28147466Y46457520D01*
X28121557Y46493190D01*
X28092470Y46523343D01*
X28059969Y46548600D01*
X27986175Y46583777D01*
X27900805Y46598236D01*
X27886195Y46598522D01*
X27837344Y46595612D01*
X27791118Y46586965D01*
X27748657Y46573088D01*
X27709068Y46553966D01*
X27639789Y46501015D01*
X27583527Y46428180D01*
X27541584Y46334517D01*
X27516435Y46218800D01*
X27510580Y46119776D01*
X27343913Y46119776D01*
X27343913Y47670596D01*
X27510580Y47670596D01*
X28505442Y47429070D01*
X28603312Y47408772D01*
X28703824Y47395274D01*
X28834254Y47389136D01*
X28834254Y47345081D01*
X28661093Y47333945D01*
X28505442Y47305147D01*
X27510580Y47063713D01*
X27510580Y46788574D01*
X29075688Y47223265D01*
X29075688Y47494191D01*
X27510580Y47954070D01*
X27510580Y47670596D01*
X27343913Y47670596D01*
X27343913Y48539245D01*
X27510580Y48539245D01*
X27521803Y48403843D01*
X27556548Y48259268D01*
X27598782Y48140275D01*
X27871540Y48140275D01*
X27871540Y48243131D01*
X27831206Y48282767D01*
X27798147Y48323904D01*
X27774016Y48363394D01*
X27756005Y48404435D01*
X27738372Y48488573D01*
X27737451Y48514058D01*
X27740311Y48554023D01*
X27748605Y48591003D01*
X27762003Y48624768D01*
X27780036Y48654638D01*
X27802101Y48680017D01*
X27827881Y48700695D01*
X27856367Y48716000D01*
X27887613Y48725964D01*
X27928052Y48730304D01*
X27964299Y48727373D01*
X27997107Y48718580D01*
X28024722Y48705037D01*
X28049364Y48686357D01*
X28090038Y48633156D01*
X28120534Y48552894D01*
X28138682Y48435550D01*
X28139627Y48421642D01*
X28366407Y48421642D01*
X28370686Y48493037D01*
X28380720Y48555873D01*
X28394412Y48604271D01*
X28412673Y48646018D01*
X28433112Y48678003D01*
X28457331Y48704585D01*
X28483747Y48724768D01*
X28513594Y48740132D01*
X28584327Y48756487D01*
X28611413Y48757598D01*
X28649710Y48754700D01*
X28685914Y48746139D01*
X28719302Y48732268D01*
X28749818Y48713226D01*
X28776865Y48689403D01*
X28800286Y48660864D01*
X28819643Y48627880D01*
X28834601Y48590576D01*
X28844789Y48549007D01*
X28849755Y48503467D01*
X28850191Y48484657D01*
X28839191Y48381575D01*
X28826013Y48335913D01*
X28808475Y48295952D01*
X28788201Y48263963D01*
X28764971Y48238757D01*
X28741289Y48222157D01*
X28741289Y48108767D01*
X29013956Y48108767D01*
X29040655Y48184417D01*
X29060679Y48258367D01*
X29083424Y48406751D01*
X29087412Y48509845D01*
X29084518Y48580326D01*
X29075986Y48646520D01*
X29062367Y48707100D01*
X29043757Y48763286D01*
X29020872Y48813965D01*
X28993591Y48860163D01*
X28962647Y48901123D01*
X28927827Y48937496D01*
X28889654Y48968916D01*
X28848038Y48995585D01*
X28755047Y49034241D01*
X28649204Y49052470D01*
X28611413Y49053712D01*
X28551228Y49050765D01*
X28496805Y49041860D01*
X28452482Y49028602D01*
X28412711Y49010325D01*
X28364392Y48976043D01*
X28335484Y48947254D01*
X28310471Y48914018D01*
X28271478Y48832511D01*
X28248896Y48738731D01*
X28200536Y48738731D01*
X28187324Y48790016D01*
X28169336Y48836481D01*
X28147466Y48876990D01*
X28121557Y48912660D01*
X28092470Y48942813D01*
X28059969Y48968070D01*
X27986175Y49003247D01*
X27900805Y49017705D01*
X27886195Y49017992D01*
X27837344Y49015082D01*
X27791118Y49006435D01*
X27748657Y48992558D01*
X27709068Y48973436D01*
X27639789Y48920484D01*
X27583527Y48847650D01*
X27541584Y48753986D01*
X27516435Y48638269D01*
X27510580Y48539245D01*
X27343913Y48539245D01*
X27343913Y49220379D01*
X29254079Y49220379D01*
X29254079Y45522631D01*
G37*
G36*
X29257507Y898096D02*
G01*
X27347341Y898096D01*
X27347341Y1982414D01*
X27531593Y1982414D01*
X27531593Y1136112D01*
X28344922Y1136112D01*
X28344922Y1253715D01*
X28326598Y1311922D01*
X28315521Y1366707D01*
X28311217Y1425906D01*
X28314096Y1471063D01*
X28322525Y1513160D01*
X28336086Y1551648D01*
X28354510Y1586528D01*
X28377334Y1617321D01*
X28404360Y1643973D01*
X28435177Y1666128D01*
X28469574Y1683598D01*
X28507294Y1696109D01*
X28548008Y1703355D01*
X28582418Y1705168D01*
X28628466Y1702277D01*
X28670615Y1693770D01*
X28707473Y1680439D01*
X28740346Y1662311D01*
X28768514Y1640117D01*
X28792539Y1613741D01*
X28827580Y1549106D01*
X28844213Y1468030D01*
X28845193Y1440653D01*
X28842307Y1393543D01*
X28833831Y1350111D01*
X28820450Y1311606D01*
X28802268Y1277159D01*
X28780154Y1247742D01*
X28753947Y1222706D01*
X28700112Y1190701D01*
X28700112Y1064763D01*
X28987983Y1064763D01*
X29036187Y1157765D01*
X29072619Y1279830D01*
X29084117Y1349425D01*
X29090071Y1422141D01*
X29090840Y1459520D01*
X29087940Y1524525D01*
X29079364Y1586347D01*
X29065527Y1643993D01*
X29046527Y1698120D01*
X29022910Y1747844D01*
X28994618Y1793739D01*
X28962224Y1835146D01*
X28925594Y1872422D01*
X28885176Y1905167D01*
X28840902Y1933451D01*
X28792951Y1957076D01*
X28741472Y1975861D01*
X28627902Y1998215D01*
X28563550Y2001282D01*
X28504797Y1998394D01*
X28449300Y1989907D01*
X28397514Y1976172D01*
X28349307Y1957415D01*
X28304976Y1933966D01*
X28264560Y1906035D01*
X28196116Y1837673D01*
X28145282Y1753965D01*
X28113725Y1656471D01*
X28103397Y1551936D01*
X28114680Y1436183D01*
X28132797Y1364998D01*
X28103397Y1335598D01*
X28079324Y1350933D01*
X28056060Y1359718D01*
X27996785Y1364998D01*
X27865077Y1364998D01*
X27811473Y1361323D01*
X27784783Y1352595D01*
X27756358Y1335598D01*
X27726957Y1364998D01*
X27766440Y1441083D01*
X27788113Y1534177D01*
X27794093Y1640138D01*
X27794093Y1982414D01*
X27531593Y1982414D01*
X27347341Y1982414D01*
X27347341Y3041848D01*
X27514008Y3041848D01*
X28508870Y2800322D01*
X28606740Y2780024D01*
X28707252Y2766526D01*
X28837682Y2760388D01*
X28837682Y2716333D01*
X28664521Y2705197D01*
X28508870Y2676399D01*
X27514008Y2434965D01*
X27514008Y2159826D01*
X29079116Y2594517D01*
X29079116Y2865443D01*
X27514008Y3325322D01*
X27514008Y3041848D01*
X27347341Y3041848D01*
X27347341Y3491989D01*
X29257507Y3491989D01*
X29257507Y898096D01*
G37*
G36*
X6627907Y20188972D02*
G01*
X7011734Y20188972D01*
X7076006Y20312974D01*
X7124582Y20475728D01*
X7139913Y20568521D01*
X7147852Y20665475D01*
X7148877Y20715315D01*
X7145010Y20801988D01*
X7133576Y20884417D01*
X7115126Y20961279D01*
X7089793Y21033448D01*
X7058304Y21099746D01*
X7020581Y21160940D01*
X6977389Y21216150D01*
X6928549Y21265850D01*
X6874658Y21309510D01*
X6815626Y21347222D01*
X6751692Y21378722D01*
X6683053Y21403769D01*
X6531627Y21433574D01*
X6445824Y21437663D01*
X6367486Y21433814D01*
X6293490Y21422498D01*
X6224442Y21404184D01*
X6160166Y21379174D01*
X6101058Y21347909D01*
X6047170Y21310668D01*
X5955911Y21219519D01*
X5888133Y21107908D01*
X5846057Y20977915D01*
X5832286Y20838535D01*
X5847330Y20684198D01*
X5871486Y20589286D01*
X5832286Y20550085D01*
X5800189Y20570532D01*
X5769170Y20582245D01*
X5690136Y20589286D01*
X5514526Y20589286D01*
X5443054Y20584386D01*
X5407467Y20572748D01*
X5369567Y20550085D01*
X5330366Y20589286D01*
X5383010Y20690731D01*
X5411908Y20814857D01*
X5419881Y20956138D01*
X5419881Y21412506D01*
X5069881Y21412506D01*
X5069881Y20284104D01*
X6154320Y20284104D01*
X6154320Y20440908D01*
X6129887Y20518517D01*
X6115118Y20591564D01*
X6109379Y20670496D01*
X6113218Y20730705D01*
X6124457Y20786835D01*
X6142538Y20838152D01*
X6167104Y20884658D01*
X6197535Y20925716D01*
X6233570Y20961252D01*
X6274659Y20990792D01*
X6320522Y21014086D01*
X6370815Y21030767D01*
X6425101Y21040427D01*
X6470981Y21042845D01*
X6532378Y21038991D01*
X6588577Y21027648D01*
X6637721Y21009874D01*
X6681551Y20985702D01*
X6719109Y20956111D01*
X6751142Y20920943D01*
X6797863Y20834763D01*
X6820040Y20726662D01*
X6821347Y20690158D01*
X6817499Y20627345D01*
X6806198Y20569436D01*
X6788357Y20518096D01*
X6764114Y20472167D01*
X6734628Y20432944D01*
X6699686Y20399563D01*
X6627907Y20356889D01*
X6627907Y20188972D01*
G37*
G36*
X5046434Y21649055D02*
G01*
X7133245Y22228644D01*
X7133245Y22589879D01*
X5046434Y23203050D01*
X5046434Y22825085D01*
X6372917Y22503050D01*
X6503411Y22475986D01*
X6637426Y22457989D01*
X6811333Y22449806D01*
X6811333Y22391065D01*
X6580451Y22376217D01*
X6372917Y22337820D01*
X5046434Y22015908D01*
X5046434Y21649055D01*
G37*
%TO.C,SW2*%
D11*
X16942000Y4734000D02*
X25542000Y4734000D01*
%TO.C,C8*%
X24868442Y49019000D02*
G75*
G02*
X18328440Y49019000I-3270001J0D01*
G01*
X18328440Y49019000D02*
G75*
G02*
X24868442Y49019000I3270001J0D01*
G01*
X24838442Y49420999D02*
X24838442Y48617001D01*
X24798442Y49652000D02*
X24798442Y48386000D01*
X24758441Y49820000D02*
X24758441Y48218000D01*
X24718442Y49958000D02*
X24718442Y48080000D01*
X24678441Y50077000D02*
X24678441Y47961000D01*
X24638442Y50183999D02*
X24638442Y47854001D01*
X24598442Y50280000D02*
X24598442Y47758000D01*
X24558442Y50369000D02*
X24558442Y47669000D01*
X24518442Y50451000D02*
X24518442Y47587000D01*
X24478442Y50528000D02*
X24478442Y47510000D01*
X24438442Y50600000D02*
X24438442Y47438000D01*
X24398442Y50668001D02*
X24398442Y47369999D01*
X24358442Y50733000D02*
X24358442Y47305000D01*
X24318441Y50794000D02*
X24318441Y47244000D01*
X24278442Y50853000D02*
X24278442Y47185000D01*
X24238442Y50909000D02*
X24238442Y47129000D01*
X24198443Y50962000D02*
X24198443Y47076000D01*
X24158442Y51014000D02*
X24158442Y47024000D01*
X24118442Y51063000D02*
X24118442Y46975000D01*
X24078442Y51110000D02*
X24078442Y46928000D01*
X24038442Y51156000D02*
X24038442Y46882000D01*
X23998442Y51200000D02*
X23998442Y46838000D01*
X23958442Y51242000D02*
X23958442Y46796000D01*
X23918442Y51283000D02*
X23918442Y46755000D01*
X23878442Y47979000D02*
X23878442Y46715000D01*
X23878442Y51323000D02*
X23878442Y50059000D01*
X23838442Y47979000D02*
X23838442Y46677000D01*
X23838442Y51361000D02*
X23838442Y50059000D01*
X23798441Y47979000D02*
X23798441Y46640000D01*
X23798441Y51398000D02*
X23798441Y50059000D01*
X23758442Y47979000D02*
X23758442Y46604000D01*
X23758442Y51434000D02*
X23758442Y50059000D01*
X23718442Y47979000D02*
X23718442Y46569000D01*
X23718442Y51469000D02*
X23718442Y50059000D01*
X23678443Y47979000D02*
X23678442Y46535999D01*
X23678442Y51502001D02*
X23678443Y50059000D01*
X23638442Y47979000D02*
X23638442Y46503000D01*
X23638442Y51535000D02*
X23638442Y50059000D01*
X23598442Y47979000D02*
X23598442Y46472000D01*
X23598442Y51566000D02*
X23598442Y50059000D01*
X23558442Y47979000D02*
X23558442Y46442000D01*
X23558442Y51596000D02*
X23558442Y50059000D01*
X23518442Y47978999D02*
X23518442Y46412000D01*
X23518442Y51626000D02*
X23518442Y50059001D01*
X23478442Y47979000D02*
X23478442Y46383000D01*
X23478442Y51655000D02*
X23478442Y50059000D01*
X23438442Y47979000D02*
X23438442Y46356001D01*
X23438442Y51681999D02*
X23438442Y50059000D01*
X23398442Y47979000D02*
X23398442Y46329000D01*
X23398442Y51709000D02*
X23398442Y50059000D01*
X23358441Y47979000D02*
X23358441Y46303000D01*
X23358441Y51735000D02*
X23358441Y50059000D01*
X23318442Y47979000D02*
X23318442Y46278000D01*
X23318442Y51760000D02*
X23318442Y50059000D01*
X23278442Y47979000D02*
X23278442Y46254000D01*
X23278442Y51784000D02*
X23278442Y50059000D01*
X23238443Y47979000D02*
X23238442Y46230000D01*
X23238442Y51808000D02*
X23238443Y50059000D01*
X23198442Y47979000D02*
X23198442Y46207000D01*
X23198442Y51831000D02*
X23198442Y50059000D01*
X23158442Y47979000D02*
X23158442Y46184999D01*
X23158442Y51853001D02*
X23158442Y50059000D01*
X23118442Y47979000D02*
X23118442Y46164000D01*
X23118442Y51874000D02*
X23118442Y50059000D01*
X23078442Y47978999D02*
X23078442Y46142999D01*
X23078442Y51895001D02*
X23078442Y50059001D01*
X23038442Y47979000D02*
X23038442Y46123000D01*
X23038442Y51915000D02*
X23038442Y50059000D01*
X22998442Y47979000D02*
X22998442Y46104000D01*
X22998442Y51934000D02*
X22998442Y50059000D01*
X22958442Y47979000D02*
X22958442Y46085000D01*
X22958442Y51953000D02*
X22958442Y50059000D01*
X22918441Y47979000D02*
X22918442Y46067000D01*
X22918442Y51971000D02*
X22918441Y50059000D01*
X22878442Y47979000D02*
X22878442Y46050000D01*
X22878442Y51988000D02*
X22878442Y50059000D01*
X22838442Y47979000D02*
X22838442Y46033000D01*
X22838442Y52005000D02*
X22838442Y50059000D01*
X22798443Y47979000D02*
X22798442Y46017000D01*
X22798442Y52021000D02*
X22798443Y50059000D01*
X22758442Y47979000D02*
X22758442Y46002000D01*
X22758442Y52036000D02*
X22758442Y50059000D01*
X22718442Y47979000D02*
X22718442Y45987000D01*
X22718442Y52051000D02*
X22718442Y50059000D01*
X22678442Y47979000D02*
X22678442Y45972000D01*
X22678442Y52066000D02*
X22678442Y50059000D01*
X22638442Y47978999D02*
X22638442Y45959000D01*
X22638442Y52079000D02*
X22638442Y50059001D01*
X22598442Y47979000D02*
X22598442Y45946000D01*
X22598442Y52092000D02*
X22598442Y50059000D01*
X22558442Y47979000D02*
X22558442Y45932999D01*
X22558442Y52105001D02*
X22558442Y50059000D01*
X22518442Y47979000D02*
X22518442Y45921000D01*
X22518442Y52117000D02*
X22518442Y50059000D01*
X22478441Y47979000D02*
X22478441Y45910000D01*
X22478441Y52128000D02*
X22478441Y50059000D01*
X22438442Y47979000D02*
X22438442Y45899000D01*
X22438442Y52139000D02*
X22438442Y50059000D01*
X22398442Y47979000D02*
X22398442Y45888000D01*
X22398442Y52150000D02*
X22398442Y50059000D01*
X22358443Y47979000D02*
X22358442Y45879000D01*
X22358442Y52159000D02*
X22358443Y50059000D01*
X22318441Y47979000D02*
X22318442Y45869000D01*
X22318442Y52169000D02*
X22318441Y50059000D01*
X22278442Y47979000D02*
X22278442Y45860000D01*
X22278442Y52178000D02*
X22278442Y50059000D01*
X22238442Y47979000D02*
X22238442Y45852000D01*
X22238442Y52186000D02*
X22238442Y50059000D01*
X22198442Y47978999D02*
X22198442Y45845001D01*
X22198442Y52192999D02*
X22198442Y50059001D01*
X22158442Y47979000D02*
X22158442Y45837000D01*
X22158442Y52201000D02*
X22158442Y50059000D01*
X22118442Y47979000D02*
X22118442Y45831001D01*
X22118442Y52206999D02*
X22118442Y50059000D01*
X22078442Y47979000D02*
X22078442Y45824000D01*
X22078442Y52214000D02*
X22078442Y50059000D01*
X22038442Y47978999D02*
X22038442Y45819000D01*
X22038442Y52219000D02*
X22038442Y50059001D01*
X21998442Y47979000D02*
X21998442Y45814000D01*
X21998442Y52224000D02*
X21998442Y50059000D01*
X21958442Y47979000D02*
X21958442Y45809000D01*
X21958442Y52229000D02*
X21958442Y50059000D01*
X21918442Y47979000D02*
X21918442Y45805000D01*
X21918442Y52233000D02*
X21918442Y50059000D01*
X21878441Y47979000D02*
X21878442Y45801000D01*
X21878442Y52237000D02*
X21878441Y50059000D01*
X21838442Y47979000D02*
X21838442Y45798000D01*
X21838442Y52240000D02*
X21838442Y50059000D01*
X21798442Y52243000D02*
X21798442Y45795000D01*
X21758442Y52245000D02*
X21758442Y45793000D01*
X21718442Y52247000D02*
X21718442Y45791000D01*
X21678442Y52248000D02*
X21678442Y45790000D01*
X21638442Y52249000D02*
X21638442Y45789000D01*
X21598442Y52248999D02*
X21598442Y45789001D01*
X20413202Y51173000D02*
X20413201Y50543000D01*
X20098201Y50857999D02*
X20728201Y50858000D01*
%TO.C,C7*%
X16068442Y49019000D02*
G75*
G02*
X9528440Y49019000I-3270001J0D01*
G01*
X9528440Y49019000D02*
G75*
G02*
X16068442Y49019000I3270001J0D01*
G01*
X16038442Y49420999D02*
X16038442Y48617001D01*
X15998442Y49652000D02*
X15998442Y48386000D01*
X15958441Y49820000D02*
X15958441Y48218000D01*
X15918442Y49958000D02*
X15918442Y48080000D01*
X15878441Y50077000D02*
X15878441Y47961000D01*
X15838442Y50183999D02*
X15838442Y47854001D01*
X15798442Y50280000D02*
X15798442Y47758000D01*
X15758442Y50369000D02*
X15758442Y47669000D01*
X15718442Y50451000D02*
X15718442Y47587000D01*
X15678442Y50528000D02*
X15678442Y47510000D01*
X15638442Y50600000D02*
X15638442Y47438000D01*
X15598442Y50668001D02*
X15598442Y47369999D01*
X15558442Y50733000D02*
X15558442Y47305000D01*
X15518441Y50794000D02*
X15518441Y47244000D01*
X15478442Y50853000D02*
X15478442Y47185000D01*
X15438442Y50909000D02*
X15438442Y47129000D01*
X15398443Y50962000D02*
X15398443Y47076000D01*
X15358442Y51014000D02*
X15358442Y47024000D01*
X15318442Y51063000D02*
X15318442Y46975000D01*
X15278442Y51110000D02*
X15278442Y46928000D01*
X15238442Y51156000D02*
X15238442Y46882000D01*
X15198442Y51200000D02*
X15198442Y46838000D01*
X15158442Y51242000D02*
X15158442Y46796000D01*
X15118442Y51283000D02*
X15118442Y46755000D01*
X15078442Y47979000D02*
X15078442Y46715000D01*
X15078442Y51323000D02*
X15078442Y50059000D01*
X15038442Y47979000D02*
X15038442Y46677000D01*
X15038442Y51361000D02*
X15038442Y50059000D01*
X14998441Y47979000D02*
X14998441Y46640000D01*
X14998441Y51398000D02*
X14998441Y50059000D01*
X14958442Y47979000D02*
X14958442Y46604000D01*
X14958442Y51434000D02*
X14958442Y50059000D01*
X14918442Y47979000D02*
X14918442Y46569000D01*
X14918442Y51469000D02*
X14918442Y50059000D01*
X14878443Y47979000D02*
X14878442Y46535999D01*
X14878442Y51502001D02*
X14878443Y50059000D01*
X14838442Y47979000D02*
X14838442Y46503000D01*
X14838442Y51535000D02*
X14838442Y50059000D01*
X14798442Y47979000D02*
X14798442Y46472000D01*
X14798442Y51566000D02*
X14798442Y50059000D01*
X14758442Y47979000D02*
X14758442Y46442000D01*
X14758442Y51596000D02*
X14758442Y50059000D01*
X14718442Y47978999D02*
X14718442Y46412000D01*
X14718442Y51626000D02*
X14718442Y50059001D01*
X14678442Y47979000D02*
X14678442Y46383000D01*
X14678442Y51655000D02*
X14678442Y50059000D01*
X14638442Y47979000D02*
X14638442Y46356001D01*
X14638442Y51681999D02*
X14638442Y50059000D01*
X14598442Y47979000D02*
X14598442Y46329000D01*
X14598442Y51709000D02*
X14598442Y50059000D01*
X14558441Y47979000D02*
X14558441Y46303000D01*
X14558441Y51735000D02*
X14558441Y50059000D01*
X14518442Y47979000D02*
X14518442Y46278000D01*
X14518442Y51760000D02*
X14518442Y50059000D01*
X14478442Y47979000D02*
X14478442Y46254000D01*
X14478442Y51784000D02*
X14478442Y50059000D01*
X14438443Y47979000D02*
X14438442Y46230000D01*
X14438442Y51808000D02*
X14438443Y50059000D01*
X14398442Y47979000D02*
X14398442Y46207000D01*
X14398442Y51831000D02*
X14398442Y50059000D01*
X14358442Y47979000D02*
X14358442Y46184999D01*
X14358442Y51853001D02*
X14358442Y50059000D01*
X14318442Y47979000D02*
X14318442Y46164000D01*
X14318442Y51874000D02*
X14318442Y50059000D01*
X14278442Y47978999D02*
X14278442Y46142999D01*
X14278442Y51895001D02*
X14278442Y50059001D01*
X14238442Y47979000D02*
X14238442Y46123000D01*
X14238442Y51915000D02*
X14238442Y50059000D01*
X14198442Y47979000D02*
X14198442Y46104000D01*
X14198442Y51934000D02*
X14198442Y50059000D01*
X14158442Y47979000D02*
X14158442Y46085000D01*
X14158442Y51953000D02*
X14158442Y50059000D01*
X14118441Y47979000D02*
X14118442Y46067000D01*
X14118442Y51971000D02*
X14118441Y50059000D01*
X14078442Y47979000D02*
X14078442Y46050000D01*
X14078442Y51988000D02*
X14078442Y50059000D01*
X14038442Y47979000D02*
X14038442Y46033000D01*
X14038442Y52005000D02*
X14038442Y50059000D01*
X13998443Y47979000D02*
X13998442Y46017000D01*
X13998442Y52021000D02*
X13998443Y50059000D01*
X13958442Y47979000D02*
X13958442Y46002000D01*
X13958442Y52036000D02*
X13958442Y50059000D01*
X13918442Y47979000D02*
X13918442Y45987000D01*
X13918442Y52051000D02*
X13918442Y50059000D01*
X13878442Y47979000D02*
X13878442Y45972000D01*
X13878442Y52066000D02*
X13878442Y50059000D01*
X13838442Y47978999D02*
X13838442Y45959000D01*
X13838442Y52079000D02*
X13838442Y50059001D01*
X13798442Y47979000D02*
X13798442Y45946000D01*
X13798442Y52092000D02*
X13798442Y50059000D01*
X13758442Y47979000D02*
X13758442Y45932999D01*
X13758442Y52105001D02*
X13758442Y50059000D01*
X13718442Y47979000D02*
X13718442Y45921000D01*
X13718442Y52117000D02*
X13718442Y50059000D01*
X13678441Y47979000D02*
X13678441Y45910000D01*
X13678441Y52128000D02*
X13678441Y50059000D01*
X13638442Y47979000D02*
X13638442Y45899000D01*
X13638442Y52139000D02*
X13638442Y50059000D01*
X13598442Y47979000D02*
X13598442Y45888000D01*
X13598442Y52150000D02*
X13598442Y50059000D01*
X13558443Y47979000D02*
X13558442Y45879000D01*
X13558442Y52159000D02*
X13558443Y50059000D01*
X13518441Y47979000D02*
X13518442Y45869000D01*
X13518442Y52169000D02*
X13518441Y50059000D01*
X13478442Y47979000D02*
X13478442Y45860000D01*
X13478442Y52178000D02*
X13478442Y50059000D01*
X13438442Y47979000D02*
X13438442Y45852000D01*
X13438442Y52186000D02*
X13438442Y50059000D01*
X13398442Y47978999D02*
X13398442Y45845001D01*
X13398442Y52192999D02*
X13398442Y50059001D01*
X13358442Y47979000D02*
X13358442Y45837000D01*
X13358442Y52201000D02*
X13358442Y50059000D01*
X13318442Y47979000D02*
X13318442Y45831001D01*
X13318442Y52206999D02*
X13318442Y50059000D01*
X13278442Y47979000D02*
X13278442Y45824000D01*
X13278442Y52214000D02*
X13278442Y50059000D01*
X13238442Y47978999D02*
X13238442Y45819000D01*
X13238442Y52219000D02*
X13238442Y50059001D01*
X13198442Y47979000D02*
X13198442Y45814000D01*
X13198442Y52224000D02*
X13198442Y50059000D01*
X13158442Y47979000D02*
X13158442Y45809000D01*
X13158442Y52229000D02*
X13158442Y50059000D01*
X13118442Y47979000D02*
X13118442Y45805000D01*
X13118442Y52233000D02*
X13118442Y50059000D01*
X13078441Y47979000D02*
X13078442Y45801000D01*
X13078442Y52237000D02*
X13078441Y50059000D01*
X13038442Y47979000D02*
X13038442Y45798000D01*
X13038442Y52240000D02*
X13038442Y50059000D01*
X12998442Y52243000D02*
X12998442Y45795000D01*
X12958442Y52245000D02*
X12958442Y45793000D01*
X12918442Y52247000D02*
X12918442Y45791000D01*
X12878442Y52248000D02*
X12878442Y45790000D01*
X12838442Y52249000D02*
X12838442Y45789000D01*
X12798442Y52248999D02*
X12798442Y45789001D01*
X11613202Y51173000D02*
X11613201Y50543000D01*
X11298201Y50857999D02*
X11928201Y50858000D01*
%TO.C,C5*%
X2446761Y50857999D02*
X3076761Y50858000D01*
X2761762Y51173000D02*
X2761761Y50543000D01*
X3947002Y52248999D02*
X3947002Y45789001D01*
X3987002Y52249000D02*
X3987002Y45789000D01*
X4027002Y52248000D02*
X4027002Y45790000D01*
X4067002Y52247000D02*
X4067002Y45791000D01*
X4107002Y52245000D02*
X4107002Y45793000D01*
X4147002Y52243000D02*
X4147002Y45795000D01*
X4187002Y52240000D02*
X4187002Y50059000D01*
X4187002Y47979000D02*
X4187002Y45798000D01*
X4227002Y52237000D02*
X4227001Y50059000D01*
X4227001Y47979000D02*
X4227002Y45801000D01*
X4267002Y52233000D02*
X4267002Y50059000D01*
X4267002Y47979000D02*
X4267002Y45805000D01*
X4307002Y52229000D02*
X4307002Y50059000D01*
X4307002Y47979000D02*
X4307002Y45809000D01*
X4347002Y52224000D02*
X4347002Y50059000D01*
X4347002Y47979000D02*
X4347002Y45814000D01*
X4387002Y52219000D02*
X4387002Y50059001D01*
X4387002Y47978999D02*
X4387002Y45819000D01*
X4427002Y52214000D02*
X4427002Y50059000D01*
X4427002Y47979000D02*
X4427002Y45824000D01*
X4467002Y52206999D02*
X4467002Y50059000D01*
X4467002Y47979000D02*
X4467002Y45831001D01*
X4507002Y52201000D02*
X4507002Y50059000D01*
X4507002Y47979000D02*
X4507002Y45837000D01*
X4547002Y52192999D02*
X4547002Y50059001D01*
X4547002Y47978999D02*
X4547002Y45845001D01*
X4587002Y52186000D02*
X4587002Y50059000D01*
X4587002Y47979000D02*
X4587002Y45852000D01*
X4627002Y52178000D02*
X4627002Y50059000D01*
X4627002Y47979000D02*
X4627002Y45860000D01*
X4667002Y52169000D02*
X4667001Y50059000D01*
X4667001Y47979000D02*
X4667002Y45869000D01*
X4707002Y52159000D02*
X4707003Y50059000D01*
X4707003Y47979000D02*
X4707002Y45879000D01*
X4747002Y52150000D02*
X4747002Y50059000D01*
X4747002Y47979000D02*
X4747002Y45888000D01*
X4787002Y52139000D02*
X4787002Y50059000D01*
X4787002Y47979000D02*
X4787002Y45899000D01*
X4827001Y52128000D02*
X4827001Y50059000D01*
X4827001Y47979000D02*
X4827001Y45910000D01*
X4867002Y52117000D02*
X4867002Y50059000D01*
X4867002Y47979000D02*
X4867002Y45921000D01*
X4907002Y52105001D02*
X4907002Y50059000D01*
X4907002Y47979000D02*
X4907002Y45932999D01*
X4947002Y52092000D02*
X4947002Y50059000D01*
X4947002Y47979000D02*
X4947002Y45946000D01*
X4987002Y52079000D02*
X4987002Y50059001D01*
X4987002Y47978999D02*
X4987002Y45959000D01*
X5027002Y52066000D02*
X5027002Y50059000D01*
X5027002Y47979000D02*
X5027002Y45972000D01*
X5067002Y52051000D02*
X5067002Y50059000D01*
X5067002Y47979000D02*
X5067002Y45987000D01*
X5107002Y52036000D02*
X5107002Y50059000D01*
X5107002Y47979000D02*
X5107002Y46002000D01*
X5147002Y52021000D02*
X5147003Y50059000D01*
X5147003Y47979000D02*
X5147002Y46017000D01*
X5187002Y52005000D02*
X5187002Y50059000D01*
X5187002Y47979000D02*
X5187002Y46033000D01*
X5227002Y51988000D02*
X5227002Y50059000D01*
X5227002Y47979000D02*
X5227002Y46050000D01*
X5267002Y51971000D02*
X5267001Y50059000D01*
X5267001Y47979000D02*
X5267002Y46067000D01*
X5307002Y51953000D02*
X5307002Y50059000D01*
X5307002Y47979000D02*
X5307002Y46085000D01*
X5347002Y51934000D02*
X5347002Y50059000D01*
X5347002Y47979000D02*
X5347002Y46104000D01*
X5387002Y51915000D02*
X5387002Y50059000D01*
X5387002Y47979000D02*
X5387002Y46123000D01*
X5427002Y51895001D02*
X5427002Y50059001D01*
X5427002Y47978999D02*
X5427002Y46142999D01*
X5467002Y51874000D02*
X5467002Y50059000D01*
X5467002Y47979000D02*
X5467002Y46164000D01*
X5507002Y51853001D02*
X5507002Y50059000D01*
X5507002Y47979000D02*
X5507002Y46184999D01*
X5547002Y51831000D02*
X5547002Y50059000D01*
X5547002Y47979000D02*
X5547002Y46207000D01*
X5587002Y51808000D02*
X5587003Y50059000D01*
X5587003Y47979000D02*
X5587002Y46230000D01*
X5627002Y51784000D02*
X5627002Y50059000D01*
X5627002Y47979000D02*
X5627002Y46254000D01*
X5667002Y51760000D02*
X5667002Y50059000D01*
X5667002Y47979000D02*
X5667002Y46278000D01*
X5707001Y51735000D02*
X5707001Y50059000D01*
X5707001Y47979000D02*
X5707001Y46303000D01*
X5747002Y51709000D02*
X5747002Y50059000D01*
X5747002Y47979000D02*
X5747002Y46329000D01*
X5787002Y51681999D02*
X5787002Y50059000D01*
X5787002Y47979000D02*
X5787002Y46356001D01*
X5827002Y51655000D02*
X5827002Y50059000D01*
X5827002Y47979000D02*
X5827002Y46383000D01*
X5867002Y51626000D02*
X5867002Y50059001D01*
X5867002Y47978999D02*
X5867002Y46412000D01*
X5907002Y51596000D02*
X5907002Y50059000D01*
X5907002Y47979000D02*
X5907002Y46442000D01*
X5947002Y51566000D02*
X5947002Y50059000D01*
X5947002Y47979000D02*
X5947002Y46472000D01*
X5987002Y51535000D02*
X5987002Y50059000D01*
X5987002Y47979000D02*
X5987002Y46503000D01*
X6027002Y51502001D02*
X6027003Y50059000D01*
X6027003Y47979000D02*
X6027002Y46535999D01*
X6067002Y51469000D02*
X6067002Y50059000D01*
X6067002Y47979000D02*
X6067002Y46569000D01*
X6107002Y51434000D02*
X6107002Y50059000D01*
X6107002Y47979000D02*
X6107002Y46604000D01*
X6147001Y51398000D02*
X6147001Y50059000D01*
X6147001Y47979000D02*
X6147001Y46640000D01*
X6187002Y51361000D02*
X6187002Y50059000D01*
X6187002Y47979000D02*
X6187002Y46677000D01*
X6227002Y51323000D02*
X6227002Y50059000D01*
X6227002Y47979000D02*
X6227002Y46715000D01*
X6267002Y51283000D02*
X6267002Y46755000D01*
X6307002Y51242000D02*
X6307002Y46796000D01*
X6347002Y51200000D02*
X6347002Y46838000D01*
X6387002Y51156000D02*
X6387002Y46882000D01*
X6427002Y51110000D02*
X6427002Y46928000D01*
X6467002Y51063000D02*
X6467002Y46975000D01*
X6507002Y51014000D02*
X6507002Y47024000D01*
X6547003Y50962000D02*
X6547003Y47076000D01*
X6587002Y50909000D02*
X6587002Y47129000D01*
X6627002Y50853000D02*
X6627002Y47185000D01*
X6667001Y50794000D02*
X6667001Y47244000D01*
X6707002Y50733000D02*
X6707002Y47305000D01*
X6747002Y50668001D02*
X6747002Y47369999D01*
X6787002Y50600000D02*
X6787002Y47438000D01*
X6827002Y50528000D02*
X6827002Y47510000D01*
X6867002Y50451000D02*
X6867002Y47587000D01*
X6907002Y50369000D02*
X6907002Y47669000D01*
X6947002Y50280000D02*
X6947002Y47758000D01*
X6987002Y50183999D02*
X6987002Y47854001D01*
X7027001Y50077000D02*
X7027001Y47961000D01*
X7067002Y49958000D02*
X7067002Y48080000D01*
X7107001Y49820000D02*
X7107001Y48218000D01*
X7147002Y49652000D02*
X7147002Y48386000D01*
X7187002Y49420999D02*
X7187002Y48617001D01*
X7217002Y49019000D02*
G75*
G02*
X677000Y49019000I-3270001J0D01*
G01*
X677000Y49019000D02*
G75*
G02*
X7217002Y49019000I3270001J0D01*
G01*
%TO.C,J1*%
X7767001Y45271505D02*
X7767001Y39491505D01*
X7247001Y45271505D02*
X7247001Y39491505D01*
X1947000Y45271505D02*
X1947000Y44681505D01*
X1327001Y45271505D02*
X7767001Y45271505D01*
X1327001Y44681505D02*
X1327001Y45271505D01*
X1947000Y42621505D02*
X1947001Y42141505D01*
X1327001Y42141505D02*
X1327001Y42621505D01*
X1947001Y40081505D02*
X1947001Y39491505D01*
X7767001Y39491505D02*
X1327001Y39491505D01*
X1327001Y39491505D02*
X1327001Y40081505D01*
%TO.C,RV1*%
X87001Y29244000D02*
X87001Y38994000D01*
X6407001Y29244000D02*
X87001Y29244000D01*
X87001Y38994000D02*
X6407001Y38994000D01*
X6407001Y38994000D02*
X6407001Y29244000D01*
%TO.C,J8*%
D10*
X-664642Y8524000D02*
X-664642Y-4836000D01*
X-664642Y8524000D02*
X16135358Y8524000D01*
X-664642Y-7436000D02*
X-664642Y-16076000D01*
X35358Y-4836001D02*
X-664642Y-4836000D01*
X35358Y-7436000D02*
X-664642Y-7436000D01*
X7735358Y8524000D02*
X7735358Y-16076000D01*
X7935358Y-4836000D02*
X7535357Y-4836000D01*
X7935358Y-7436000D02*
X7535358Y-7436000D01*
X15435358Y-4836000D02*
X16135358Y-4836000D01*
X15435358Y-7436000D02*
X16135358Y-7436000D01*
X16135358Y8524000D02*
X16135358Y-4836000D01*
X16135358Y-7436000D02*
X16135358Y-16076000D01*
X16135358Y-16076000D02*
X-664642Y-16076000D01*
X35358Y-4836001D02*
G75*
G02*
X35358Y-7435999I0J-1299999D01*
G01*
X7535358Y-7436000D02*
G75*
G02*
X7535357Y-4836000I0J1300000D01*
G01*
X7935358Y-4836000D02*
G75*
G02*
X7935358Y-7436000I0J-1300000D01*
G01*
X15435358Y-7436000D02*
G75*
G02*
X15435358Y-4836000I0J1300000D01*
G01*
%TO.C,R4*%
D11*
X15037000Y16720360D02*
X15037000Y17027642D01*
X15797000Y16720360D02*
X15797000Y17027642D01*
%TO.C,D1*%
X17331000Y8073999D02*
X17487000Y8073999D01*
X19647000Y8073999D02*
X19803000Y8073999D01*
X17331484Y8073999D02*
G75*
G02*
X17487000Y11305436I1235516J1560000D01*
G01*
X19647000Y11305436D02*
G75*
G02*
X19802516Y8073999I-1080000J-1671437D01*
G01*
%TO.C,U1*%
X7661053Y18834000D02*
X7661053Y18034000D01*
X7661053Y18034000D02*
X8461053Y18034000D01*
X7861053Y30834000D02*
X20461053Y30834000D01*
X7861053Y18234000D02*
X7861053Y30834000D01*
X20461053Y30834000D02*
X20461053Y18234000D01*
X20461053Y18234000D02*
X7861053Y18234000D01*
%TO.C,C12*%
X20787000Y39860248D02*
X20787000Y41282752D01*
X22607000Y39860248D02*
X22607000Y41282752D01*
%TO.C,R3*%
X6263359Y18952664D02*
X6570641Y18952664D01*
X6263359Y19712664D02*
X6570641Y19712664D01*
%TO.C,C11*%
X13232000Y33524581D02*
X13232000Y33243419D01*
X14252000Y33524581D02*
X14252000Y33243419D01*
%TO.C,D3*%
X20277000Y35014000D02*
X20277000Y35170000D01*
X20277000Y32698000D02*
X20277000Y32854000D01*
X17045563Y35014000D02*
G75*
G02*
X20277000Y35169516I1671437J-1080000D01*
G01*
X20277000Y32698484D02*
G75*
G02*
X17045563Y32854000I-1560000J1235516D01*
G01*
%TO.C,C13*%
X11982001Y33524581D02*
X11982001Y33243419D01*
X13002001Y33524581D02*
X13002001Y33243419D01*
%TO.C,R5*%
X14462000Y33087641D02*
X14462000Y32780359D01*
X15222000Y33087641D02*
X15222000Y32780359D01*
%TO.C,C10*%
X18687000Y38297748D02*
X18687000Y39720252D01*
X20507000Y38297748D02*
X20507000Y39720252D01*
%TO.C,C9*%
X10707581Y15494858D02*
X10426419Y15494858D01*
X10707581Y14474858D02*
X10426419Y14474858D01*
%TO.C,SW1*%
D10*
X17000Y27683999D02*
X17000Y15083999D01*
X17000Y15083999D02*
X667000Y15083999D01*
X667000Y27683999D02*
X17000Y27683999D01*
X3667000Y27683999D02*
X4317000Y27683999D01*
X4317000Y27683999D02*
X4317000Y15083999D01*
X4317000Y15083999D02*
X3667000Y15083999D01*
%TO.C,U2*%
D11*
X11586999Y38409000D02*
X11587000Y42169000D01*
X11587000Y42169000D02*
X12846999Y42169000D01*
X18407000Y42169000D02*
X17147001Y42169000D01*
X18407001Y38409000D02*
X18407000Y42169000D01*
%TO.C,R6*%
X6288359Y24343247D02*
X6595641Y24343247D01*
X6288359Y23583247D02*
X6595641Y23583247D01*
%TO.C,C6*%
X12278252Y17569000D02*
X10855748Y17569000D01*
X12278252Y15749000D02*
X10855748Y15749000D01*
%TO.C,D2*%
X17487000Y16719001D02*
X17331000Y16719001D01*
X19803000Y16719001D02*
X19647000Y16719001D01*
X17487000Y13487564D02*
G75*
G02*
X17331484Y16719001I1080000J1671437D01*
G01*
X19802516Y16719001D02*
G75*
G02*
X19647000Y13487564I-1235516J-1560000D01*
G01*
%TO.C,R1*%
X14037000Y17027642D02*
X14037000Y16720360D01*
X14797000Y17027642D02*
X14797000Y16720360D01*
%TD*%
%LPC*%
D12*
%TO.C,SW2*%
X25342000Y2434000D03*
X17142000Y2434000D03*
D13*
X23242000Y2434000D03*
X21242000Y2434000D03*
D14*
X19242000Y2434000D03*
%TD*%
D15*
%TO.C,C8*%
X22848442Y49019000D03*
D16*
X20348442Y49019000D03*
%TD*%
D15*
%TO.C,C7*%
X14048442Y49019000D03*
D16*
X11548442Y49019000D03*
%TD*%
%TO.C,C5*%
X2697002Y49019000D03*
D15*
X5197002Y49019000D03*
%TD*%
D17*
%TO.C,J1*%
X4547001Y41111505D03*
D18*
X4547001Y43651505D03*
D19*
X2007001Y41111505D03*
X2007001Y43651505D03*
%TD*%
D20*
%TO.C,RV1*%
X2107001Y36659000D03*
X4647001Y34119000D03*
X2107001Y31579001D03*
%TD*%
D21*
%TO.C,J8*%
X11685358Y12064000D03*
D22*
X3785357Y12064000D03*
%TD*%
D23*
%TO.C,R4*%
X15417000Y16364002D03*
X15417000Y17384000D03*
%TD*%
D24*
%TO.C,D1*%
X18567000Y8363999D03*
D25*
X18567000Y10903999D03*
%TD*%
D26*
%TO.C,U1*%
X9581053Y19954000D03*
X9581052Y22244000D03*
X9581053Y24534000D03*
X9581052Y26824000D03*
X9581053Y29114000D03*
X11871053Y19953999D03*
X11871053Y22244000D03*
X11871052Y24534000D03*
X11871053Y26824000D03*
X11871053Y29114001D03*
X14161053Y19954000D03*
X14161053Y22243999D03*
X14161053Y24534000D03*
X14161053Y26824001D03*
X14161053Y29114000D03*
X16451053Y19953999D03*
X16451053Y22244000D03*
X16451054Y24534000D03*
X16451053Y26824000D03*
X16451053Y29114001D03*
X18741053Y19954000D03*
X18741054Y22244000D03*
X18741053Y24534000D03*
X18741054Y26824000D03*
X18741053Y29114000D03*
%TD*%
D27*
%TO.C,C12*%
X21697000Y39009000D03*
X21697000Y42134000D03*
%TD*%
D28*
%TO.C,R3*%
X5907001Y19332664D03*
X6926999Y19332664D03*
%TD*%
D29*
%TO.C,C11*%
X13742000Y34159000D03*
X13742000Y32609000D03*
%TD*%
D24*
%TO.C,D3*%
X19987000Y33934000D03*
D25*
X17447000Y33934000D03*
%TD*%
D29*
%TO.C,C13*%
X12492001Y34159000D03*
X12492001Y32609000D03*
%TD*%
D30*
%TO.C,R5*%
X14842000Y33443999D03*
X14842000Y32424001D03*
%TD*%
D27*
%TO.C,C10*%
X19597000Y37446500D03*
X19597000Y40571500D03*
%TD*%
D31*
%TO.C,C9*%
X11342000Y14984858D03*
X9792000Y14984858D03*
%TD*%
D32*
%TO.C,SW1*%
X2167000Y25383999D03*
X2167000Y21383999D03*
X2167000Y19383999D03*
X2167000Y17383999D03*
D33*
X2167000Y27483999D03*
X2167000Y15284000D03*
%TD*%
D34*
%TO.C,U2*%
X12697000Y37109000D03*
X14997000Y37109001D03*
X17297000Y37109000D03*
D35*
X14997000Y43408999D03*
%TD*%
D28*
%TO.C,R6*%
X5932001Y23963247D03*
X6951999Y23963247D03*
%TD*%
D36*
%TO.C,C6*%
X13129500Y16659000D03*
X10004500Y16659000D03*
%TD*%
D24*
%TO.C,D2*%
X18567000Y16429001D03*
D25*
X18567000Y13889001D03*
%TD*%
D37*
%TO.C,J9*%
X10177000Y34869001D03*
D38*
X10177000Y37409001D03*
X10177000Y39949000D03*
%TD*%
D30*
%TO.C,R1*%
X14417000Y17384000D03*
X14417000Y16364002D03*
%TD*%
D38*
%TO.C,J5*%
X30607001Y4699000D03*
X30607001Y2159000D03*
X33147001Y4699000D03*
X33147001Y2159000D03*
X35687001Y4699000D03*
X35687001Y2159000D03*
X38227001Y4699000D03*
X38227001Y2159000D03*
%TD*%
%TO.C,J6*%
X30607001Y50419000D03*
X30607001Y47879000D03*
X33147001Y50419000D03*
X33147001Y47879000D03*
X35687001Y50419000D03*
X35687001Y47879000D03*
X38227001Y50419000D03*
X38227001Y47879000D03*
%TD*%
%LPD*%
M02*
