%TF.GenerationSoftware,KiCad,Pcbnew,10.0.0*%
%TF.CreationDate,2026-08-13T17:01:19-04:00*%
%TF.ProjectId,PWR_RPM5.0_AP2114,5057525f-5250-44d3-952e-305f41503231,rev?*%
%TF.SameCoordinates,Original*%
%TF.FileFunction,Copper,L1,Top*%
%TF.FilePolarity,Positive*%
%FSLAX46Y46*%
G04 Gerber Fmt 4.6, Leading zero omitted, Abs format (unit mm)*
G04 Created by KiCad (PCBNEW 10.0.0) date 2026-08-13 17:01:19*
%MOMM*%
%LPD*%
G01*
G04 APERTURE LIST*
G04 Aperture macros list*
%AMRoundRect*
0 Rectangle with rounded corners*
0 $1 Rounding radius*
0 $2 $3 $4 $5 $6 $7 $8 $9 X,Y pos of 4 corners*
0 Add a 4 corners polygon primitive as box body*
4,1,4,$2,$3,$4,$5,$6,$7,$8,$9,$2,$3,0*
0 Add four circle primitives for the rounded corners*
1,1,$1+$1,$2,$3*
1,1,$1+$1,$4,$5*
1,1,$1+$1,$6,$7*
1,1,$1+$1,$8,$9*
0 Add four rect primitives between the rounded corners*
20,1,$1+$1,$2,$3,$4,$5,0*
20,1,$1+$1,$4,$5,$6,$7,0*
20,1,$1+$1,$6,$7,$8,$9,0*
20,1,$1+$1,$8,$9,$2,$3,0*%
G04 Aperture macros list end*
%TA.AperFunction,ComponentPad*%
%ADD10R,1.700000X1.700000*%
%TD*%
%TA.AperFunction,ComponentPad*%
%ADD11C,1.700000*%
%TD*%
%TA.AperFunction,SMDPad,CuDef*%
%ADD12RoundRect,0.135000X0.185000X-0.135000X0.185000X0.135000X-0.185000X0.135000X-0.185000X-0.135000X0*%
%TD*%
%TA.AperFunction,ComponentPad*%
%ADD13RoundRect,0.250000X0.550000X-0.550000X0.550000X0.550000X-0.550000X0.550000X-0.550000X-0.550000X0*%
%TD*%
%TA.AperFunction,ComponentPad*%
%ADD14C,1.600000*%
%TD*%
%TA.AperFunction,ComponentPad*%
%ADD15C,1.560000*%
%TD*%
%TA.AperFunction,ComponentPad*%
%ADD16R,1.560000X1.560000*%
%TD*%
%TA.AperFunction,ComponentPad*%
%ADD17C,2.200000*%
%TD*%
%TA.AperFunction,ComponentPad*%
%ADD18RoundRect,0.249999X0.850001X0.850001X-0.850001X0.850001X-0.850001X-0.850001X0.850001X-0.850001X0*%
%TD*%
%TA.AperFunction,ComponentPad*%
%ADD19C,1.800000*%
%TD*%
%TA.AperFunction,ComponentPad*%
%ADD20R,1.800000X1.800000*%
%TD*%
%TA.AperFunction,ComponentPad*%
%ADD21RoundRect,0.250000X-0.550000X-0.550000X0.550000X-0.550000X0.550000X0.550000X-0.550000X0.550000X0*%
%TD*%
%TA.AperFunction,SMDPad,CuDef*%
%ADD22R,1.060000X1.060000*%
%TD*%
%TA.AperFunction,SMDPad,CuDef*%
%ADD23RoundRect,0.250000X0.650000X-0.412500X0.650000X0.412500X-0.650000X0.412500X-0.650000X-0.412500X0*%
%TD*%
%TA.AperFunction,SMDPad,CuDef*%
%ADD24RoundRect,0.135000X0.135000X0.185000X-0.135000X0.185000X-0.135000X-0.185000X0.135000X-0.185000X0*%
%TD*%
%TA.AperFunction,SMDPad,CuDef*%
%ADD25RoundRect,0.225000X-0.250000X0.225000X-0.250000X-0.225000X0.250000X-0.225000X0.250000X0.225000X0*%
%TD*%
%TA.AperFunction,SMDPad,CuDef*%
%ADD26RoundRect,0.135000X-0.185000X0.135000X-0.185000X-0.135000X0.185000X-0.135000X0.185000X0.135000X0*%
%TD*%
%TA.AperFunction,SMDPad,CuDef*%
%ADD27RoundRect,0.225000X0.225000X0.250000X-0.225000X0.250000X-0.225000X-0.250000X0.225000X-0.250000X0*%
%TD*%
%TA.AperFunction,ComponentPad*%
%ADD28O,2.200000X3.500000*%
%TD*%
%TA.AperFunction,ComponentPad*%
%ADD29O,1.500000X2.500000*%
%TD*%
%TA.AperFunction,ComponentPad*%
%ADD30R,1.500000X2.500000*%
%TD*%
%TA.AperFunction,ComponentPad*%
%ADD31C,2.250000*%
%TD*%
%TA.AperFunction,ComponentPad*%
%ADD32C,1.300000*%
%TD*%
%TA.AperFunction,SMDPad,CuDef*%
%ADD33RoundRect,0.500000X1.400000X-0.500000X1.400000X0.500000X-1.400000X0.500000X-1.400000X-0.500000X0*%
%TD*%
%TA.AperFunction,SMDPad,CuDef*%
%ADD34RoundRect,0.375000X0.375000X-0.625000X0.375000X0.625000X-0.375000X0.625000X-0.375000X-0.625000X0*%
%TD*%
%TA.AperFunction,ComponentPad*%
%ADD35R,6.540000X3.270000*%
%TD*%
%TA.AperFunction,ComponentPad*%
%ADD36O,6.540000X3.270000*%
%TD*%
%TA.AperFunction,SMDPad,CuDef*%
%ADD37RoundRect,0.135000X-0.135000X-0.185000X0.135000X-0.185000X0.135000X0.185000X-0.135000X0.185000X0*%
%TD*%
%TA.AperFunction,SMDPad,CuDef*%
%ADD38RoundRect,0.250000X0.412500X0.650000X-0.412500X0.650000X-0.412500X-0.650000X0.412500X-0.650000X0*%
%TD*%
%TA.AperFunction,ViaPad*%
%ADD39C,0.800000*%
%TD*%
%TA.AperFunction,Conductor*%
%ADD40C,0.400000*%
%TD*%
%TA.AperFunction,Conductor*%
%ADD41C,0.800000*%
%TD*%
%TA.AperFunction,Conductor*%
%ADD42C,1.500000*%
%TD*%
%TA.AperFunction,Conductor*%
%ADD43C,0.200000*%
%TD*%
%TA.AperFunction,Conductor*%
%ADD44C,0.450000*%
%TD*%
G04 APERTURE END LIST*
D10*
%TO.P,J9,1,Pin_1_1*%
%TO.N,+5V0*%
X167529999Y-79049999D03*
D11*
%TO.P,J9,2,Pin_2_2*%
%TO.N,Net-(J9-Pin_2)*%
X167529999Y-76509999D03*
%TO.P,J9,3,Pin_3_3*%
%TO.N,Net-(J9-Pin_3)*%
X167529999Y-73970000D03*
%TD*%
D12*
%TO.P,R4,2*%
%TO.N,GND*%
X172769999Y-96535000D03*
%TO.P,R4,1*%
%TO.N,Net-(D2-K)*%
X172769999Y-97554998D03*
%TD*%
D13*
%TO.P,C8,1*%
%TO.N,+3V3*%
X177546000Y-66832748D03*
D14*
%TO.P,C8,2*%
%TO.N,GND*%
X177546000Y-64332748D03*
%TD*%
D15*
%TO.P,RV1,3,3_3*%
%TO.N,Net-(RV1-Pad3)*%
X158594999Y-78910000D03*
%TO.P,RV1,2,2_2*%
%TO.N,Net-(U1-Trim)*%
X163594999Y-81410000D03*
D16*
%TO.P,RV1,1,1_1*%
%TO.N,unconnected-(RV1-Pad1)*%
X158594999Y-83910000D03*
%TD*%
D17*
%TO.P,J1,2,Pin_2_2*%
%TO.N,/PWR_IN*%
X159374999Y-65985000D03*
D18*
%TO.P,J1,1,Pin_1_1*%
%TO.N,GND*%
X161914999Y-65985000D03*
%TD*%
D19*
%TO.P,D1,2,A_2*%
%TO.N,Net-(D1-A)*%
X175919999Y-103015001D03*
D20*
%TO.P,D1,1,K_1*%
%TO.N,GND*%
X175919999Y-105555001D03*
%TD*%
D14*
%TO.P,C5,2*%
%TO.N,GND*%
X162745000Y-73585000D03*
D21*
%TO.P,C5,1*%
%TO.N,/PWR_IN*%
X160245000Y-73585000D03*
%TD*%
D22*
%TO.P,U1,E5,Trim_E5*%
%TO.N,Net-(U1-Trim)*%
X176094052Y-84805000D03*
%TO.P,U1,E4,GND_E4*%
%TO.N,GND*%
X176094053Y-87095000D03*
%TO.P,U1,E3,GND_E3*%
X176094052Y-89385000D03*
%TO.P,U1,E2,NC_E2*%
%TO.N,unconnected-(U1-NC-PadE2)*%
X176094053Y-91675000D03*
%TO.P,U1,E1,SEQ_E1*%
%TO.N,Net-(J9-Pin_3)*%
X176094052Y-93965000D03*
%TO.P,U1,D5,GND_D5*%
%TO.N,GND*%
X173804052Y-84804999D03*
%TO.P,U1,D4,GND_D4*%
X173804052Y-87095000D03*
%TO.P,U1,D3,GND_D3*%
X173804053Y-89385000D03*
%TO.P,U1,D2,GND_D2*%
X173804052Y-91675000D03*
%TO.P,U1,D1,PGood_D1*%
%TO.N,Net-(U1-PGood)*%
X173804052Y-93965001D03*
%TO.P,U1,C5,Sense_C5*%
%TO.N,Net-(J9-Pin_2)*%
X171514052Y-84805000D03*
%TO.P,U1,C4,GND_C4*%
%TO.N,GND*%
X171514052Y-87094999D03*
%TO.P,U1,C3,GND_C3*%
X171514052Y-89385000D03*
%TO.P,U1,C2,GND_C2*%
X171514052Y-91675001D03*
%TO.P,U1,C1,CTRL_C1*%
%TO.N,Net-(SW2-A)*%
X171514052Y-93965000D03*
%TO.P,U1,B5,+VOUT_B5*%
%TO.N,+5V0*%
X169224052Y-84804999D03*
%TO.P,U1,B4,GND_B4*%
%TO.N,GND*%
X169224052Y-87095000D03*
%TO.P,U1,B3,GND_B3*%
X169224051Y-89385000D03*
%TO.P,U1,B2,GND_B2*%
X169224052Y-91675000D03*
%TO.P,U1,B1,GND_B1*%
X169224052Y-93965001D03*
%TO.P,U1,A5,+VOUT_A5*%
%TO.N,+5V0*%
X166934052Y-84805000D03*
%TO.P,U1,A4,GND_A4*%
%TO.N,GND*%
X166934051Y-87095000D03*
%TO.P,U1,A3,GND_A3*%
X166934052Y-89385000D03*
%TO.P,U1,A2,+VIN_A2*%
%TO.N,/PWR_IN*%
X166934051Y-91675000D03*
%TO.P,U1,A1,+VIN_A1*%
X166934052Y-93965000D03*
%TD*%
D23*
%TO.P,C12,2*%
%TO.N,GND*%
X179049999Y-71785000D03*
%TO.P,C12,1*%
%TO.N,+3V3*%
X179049999Y-74910000D03*
%TD*%
D24*
%TO.P,R3,2*%
%TO.N,Net-(R3-Pad2)*%
X163260000Y-94586336D03*
%TO.P,R3,1*%
%TO.N,GND*%
X164279998Y-94586336D03*
%TD*%
D25*
%TO.P,C11,2*%
%TO.N,GND*%
X171094999Y-81310000D03*
%TO.P,C11,1*%
%TO.N,+5V0*%
X171094999Y-79760000D03*
%TD*%
D19*
%TO.P,D3,2,A_2*%
%TO.N,+3V3*%
X174799999Y-79985000D03*
D20*
%TO.P,D3,1,K_1*%
%TO.N,Net-(D3-K)*%
X177339999Y-79985000D03*
%TD*%
D25*
%TO.P,C13,2*%
%TO.N,GND*%
X169845000Y-81310000D03*
%TO.P,C13,1*%
%TO.N,+3V3*%
X169845000Y-79760000D03*
%TD*%
D26*
%TO.P,R5,2*%
%TO.N,GND*%
X172194999Y-81494999D03*
%TO.P,R5,1*%
%TO.N,Net-(D3-K)*%
X172194999Y-80475001D03*
%TD*%
D23*
%TO.P,C10,2*%
%TO.N,GND*%
X176949999Y-73347500D03*
%TO.P,C10,1*%
%TO.N,+5V0*%
X176949999Y-76472500D03*
%TD*%
D27*
%TO.P,C9,2*%
%TO.N,GND*%
X167144999Y-98934142D03*
%TO.P,C9,1*%
%TO.N,/PWR_IN*%
X168694999Y-98934142D03*
%TD*%
D28*
%TO.P,SW2,MH2,MH2_MH2*%
%TO.N,GND*%
X182694999Y-111485000D03*
%TO.P,SW2,MH1,MH1_MH1*%
X174494999Y-111485000D03*
D29*
%TO.P,SW2,3,C_3*%
%TO.N,unconnected-(SW2-C-Pad3)*%
X180594999Y-111485000D03*
%TO.P,SW2,2,B_2*%
%TO.N,GND*%
X178594999Y-111485000D03*
D30*
%TO.P,SW2,1,A_1*%
%TO.N,Net-(SW2-A)*%
X176594999Y-111485000D03*
%TD*%
D31*
%TO.P,SW1,MH2,MH_MH2*%
%TO.N,GND*%
X159519999Y-98635000D03*
%TO.P,SW1,MH1,MH_MH1*%
X159519999Y-86435001D03*
D32*
%TO.P,SW1,4,4_4*%
%TO.N,Net-(R3-Pad2)*%
X159519999Y-96535001D03*
%TO.P,SW1,3,3_3*%
%TO.N,unconnected-(SW1-Pad3)*%
X159519999Y-94535001D03*
%TO.P,SW1,2,2_2*%
%TO.N,Net-(RV1-Pad3)*%
X159519999Y-92535001D03*
%TO.P,SW1,1,1_1*%
%TO.N,Net-(R6-Pad1)*%
X159519999Y-88535001D03*
%TD*%
D33*
%TO.P,U2,4,GND_4*%
%TO.N,GND*%
X172349999Y-70510001D03*
D34*
%TO.P,U2,3,VIN_3*%
%TO.N,+5V0*%
X174649999Y-76810000D03*
%TO.P,U2,2,VOUT_2*%
%TO.N,+3V3*%
X172349999Y-76809999D03*
%TO.P,U2,1,GND_1*%
%TO.N,GND*%
X170049999Y-76810000D03*
%TD*%
D35*
%TO.P,J8,2,Pin_2_2*%
%TO.N,GND*%
X161038356Y-101855000D03*
D36*
%TO.P,J8,1,Pin_1_1*%
%TO.N,/PWR_IN*%
X168938357Y-101855000D03*
%TD*%
D13*
%TO.P,C7,1*%
%TO.N,+5V0*%
X168151133Y-66832748D03*
D14*
%TO.P,C7,2*%
%TO.N,GND*%
X168151133Y-64332748D03*
%TD*%
D37*
%TO.P,R6,2*%
%TO.N,+5V0*%
X164304998Y-89955753D03*
%TO.P,R6,1*%
%TO.N,Net-(R6-Pad1)*%
X163285000Y-89955753D03*
%TD*%
D38*
%TO.P,C6,2*%
%TO.N,GND*%
X167357499Y-97260000D03*
%TO.P,C6,1*%
%TO.N,/PWR_IN*%
X170482499Y-97260000D03*
%TD*%
D19*
%TO.P,D2,2,A_2*%
%TO.N,+5V0*%
X175919999Y-100029999D03*
D20*
%TO.P,D2,1,K_1*%
%TO.N,Net-(D2-K)*%
X175919999Y-97489999D03*
%TD*%
D26*
%TO.P,R1,2*%
%TO.N,Net-(D1-A)*%
X171769999Y-97554998D03*
%TO.P,R1,1*%
%TO.N,Net-(U1-PGood)*%
X171769999Y-96535000D03*
%TD*%
D11*
%TO.P,J5,8,Pin_8_8*%
%TO.N,+5V0*%
X195580000Y-111760000D03*
%TO.P,J5,7,Pin_7_7*%
%TO.N,GND*%
X195580000Y-109220000D03*
%TO.P,J5,6,Pin_6_6*%
%TO.N,+5V0*%
X193040000Y-111760000D03*
%TO.P,J5,5,Pin_5_5*%
%TO.N,GND*%
X193040000Y-109220000D03*
%TO.P,J5,4,Pin_4_4*%
%TO.N,+5V0*%
X190500000Y-111760000D03*
%TO.P,J5,3,Pin_3_3*%
%TO.N,GND*%
X190500000Y-109220000D03*
%TO.P,J5,2,Pin_2_2*%
%TO.N,+5V0*%
X187960000Y-111760000D03*
%TO.P,J5,1,Pin_1_1*%
%TO.N,GND*%
X187960000Y-109220000D03*
%TD*%
%TO.P,J6,8,Pin_8_8*%
%TO.N,+3V3*%
X195580000Y-66040000D03*
%TO.P,J6,7,Pin_7_7*%
%TO.N,GND*%
X195580000Y-63500000D03*
%TO.P,J6,6,Pin_6_6*%
%TO.N,+3V3*%
X193040000Y-66040000D03*
%TO.P,J6,5,Pin_5_5*%
%TO.N,GND*%
X193040000Y-63500000D03*
%TO.P,J6,4,Pin_4_4*%
%TO.N,+3V3*%
X190500000Y-66040000D03*
%TO.P,J6,3,Pin_3_3*%
%TO.N,GND*%
X190500000Y-63500000D03*
%TO.P,J6,2,Pin_2_2*%
%TO.N,+3V3*%
X187960000Y-66040000D03*
%TO.P,J6,1,Pin_1_1*%
%TO.N,GND*%
X187960000Y-63500000D03*
%TD*%
D39*
%TO.N,GND*%
X171094999Y-82485000D03*
X172394999Y-82485000D03*
X172466000Y-69010000D03*
X168664999Y-81309999D03*
X170769999Y-99060000D03*
X165794999Y-97260000D03*
X171449999Y-72020000D03*
X172449999Y-72030000D03*
X173619999Y-96035000D03*
X173466000Y-69020000D03*
X170449999Y-72010000D03*
X165794999Y-98934142D03*
X171466000Y-69000000D03*
X177489999Y-71790000D03*
%TO.N,Net-(U1-Trim)*%
X176099999Y-83510000D03*
%TO.N,+5V0*%
X169209999Y-85930001D03*
X176974999Y-74885000D03*
X165804999Y-84810000D03*
X168089999Y-85930000D03*
X165809999Y-85930000D03*
X164309999Y-89040000D03*
X166939052Y-85935000D03*
X174649999Y-74885000D03*
%TO.N,/PWR_IN*%
X165768953Y-91680447D03*
X166936677Y-95125000D03*
X165789052Y-92810000D03*
X168101393Y-93954999D03*
X166934051Y-90520000D03*
X165769500Y-93969691D03*
X170494999Y-95710000D03*
X168104052Y-91679999D03*
X166940354Y-92818812D03*
X168919999Y-97260000D03*
%TO.N,+3V3*%
X171439999Y-74160000D03*
X170684998Y-78474999D03*
X170439999Y-74160000D03*
X171439999Y-73160000D03*
X172439999Y-74160000D03*
X170439999Y-73160000D03*
X172439999Y-73160000D03*
X178989999Y-73335000D03*
%TO.N,Net-(SW2-A)*%
X171514052Y-92810000D03*
%TO.N,Net-(J9-Pin_2)*%
X173719999Y-83310000D03*
%TO.N,Net-(J9-Pin_3)*%
X174949999Y-93970000D03*
%TO.N,GND*%
X166939052Y-88260000D03*
X170390586Y-87091320D03*
X170349053Y-89390000D03*
X168104051Y-87080000D03*
X169229997Y-88227014D03*
X172680526Y-87091349D03*
X169218936Y-90510246D03*
X168069999Y-89397014D03*
X171509052Y-88220001D03*
X172641931Y-89405544D03*
X173802962Y-88235760D03*
X173801661Y-90526005D03*
X170364052Y-91675000D03*
X169215355Y-92801733D03*
X171507146Y-90524999D03*
X172664052Y-91675000D03*
%TD*%
%TO.N,Net-(J9-Pin_2)*%
D40*
X171819999Y-83650000D02*
X171514052Y-83955947D01*
X171514052Y-83955947D02*
X171514052Y-84805000D01*
X173719999Y-83310000D02*
X173379999Y-83650000D01*
X173379999Y-83650000D02*
X171819999Y-83650000D01*
%TO.N,GND*%
X172769999Y-96535000D02*
X173119999Y-96535000D01*
D41*
X171094999Y-81310000D02*
X171094999Y-82485000D01*
D42*
X161038356Y-101855000D02*
X161038356Y-105328357D01*
D43*
X171094999Y-81310000D02*
X171094999Y-82685000D01*
D44*
X161563488Y-101329868D02*
X164857257Y-101329868D01*
X161038356Y-101855000D02*
X161563488Y-101329868D01*
D41*
X167144999Y-98934142D02*
X165794999Y-98934142D01*
D42*
X161038356Y-101855000D02*
X164354999Y-101855000D01*
D40*
X177494999Y-71785000D02*
X177489999Y-71790000D01*
X171439999Y-72000000D02*
X171449999Y-72010000D01*
X173119999Y-96535000D02*
X173619999Y-96035000D01*
X167357499Y-97260000D02*
X165794999Y-97260000D01*
D44*
X161570210Y-102386854D02*
X164861607Y-102386854D01*
D41*
X169839999Y-81310000D02*
X168665000Y-81310000D01*
D42*
X161038356Y-105328357D02*
X161189999Y-105480000D01*
D44*
X161038356Y-101855000D02*
X161570210Y-102386854D01*
D41*
X172449999Y-72030000D02*
X172449999Y-70610001D01*
D40*
X172194999Y-82435000D02*
X172244999Y-82485000D01*
D41*
X172449999Y-70610001D02*
X172349999Y-70510001D01*
X172449999Y-70410001D02*
X172349999Y-70510001D01*
D40*
X172194999Y-81494999D02*
X172194999Y-82435000D01*
D41*
X172449999Y-69020000D02*
X172449999Y-70410001D01*
D42*
X162019999Y-101855000D02*
X162019999Y-99601643D01*
D40*
X179049999Y-71785000D02*
X177494999Y-71785000D01*
%TO.N,Net-(U1-Trim)*%
X176094052Y-83515947D02*
X176099999Y-83510000D01*
X176094052Y-84805000D02*
X176094052Y-83515947D01*
%TO.N,+5V0*%
D41*
X166934052Y-85930000D02*
X166319999Y-85930000D01*
X166939052Y-84810000D02*
X166934052Y-84805000D01*
X166934052Y-85380000D02*
X166934052Y-85930000D01*
X169205000Y-85935000D02*
X169209999Y-85930001D01*
X166259999Y-84810000D02*
X166929999Y-84810000D01*
X169219999Y-85370000D02*
X169219999Y-84800000D01*
X166319999Y-84870000D02*
X166259999Y-84810000D01*
X166934052Y-85380000D02*
X169209999Y-85380000D01*
X169214052Y-85935000D02*
X169224052Y-85925000D01*
X169219999Y-85920001D02*
X169219999Y-85370000D01*
X166319999Y-85930000D02*
X166319999Y-84870000D01*
X165804999Y-84810000D02*
X165804999Y-85925000D01*
D40*
X174649999Y-77260000D02*
X174649999Y-76810000D01*
D41*
X165804999Y-84810000D02*
X166259999Y-84810000D01*
D40*
X172219999Y-78635000D02*
X173519999Y-78635000D01*
D41*
X166939052Y-85935000D02*
X169205000Y-85935000D01*
X169219999Y-84800000D02*
X166939052Y-84800000D01*
X166319999Y-85930000D02*
X165809999Y-85930000D01*
X166934052Y-85930000D02*
X166939052Y-85935000D01*
X166934052Y-84805000D02*
X166934052Y-85380000D01*
D40*
X174649999Y-76810000D02*
X174649999Y-74885000D01*
D41*
X176949999Y-74910000D02*
X176949999Y-76472500D01*
D40*
X164304998Y-89955753D02*
X164304998Y-89045001D01*
D41*
X165804999Y-85925000D02*
X165809999Y-85930000D01*
X169209999Y-85380000D02*
X169219999Y-85370000D01*
D40*
X173519999Y-78635000D02*
X174894999Y-77260000D01*
X164304998Y-89045001D02*
X164309999Y-89040000D01*
D41*
X166939052Y-84800000D02*
X166934052Y-84805000D01*
D40*
X171094999Y-79760000D02*
X172219999Y-78635000D01*
D41*
X176974999Y-74885000D02*
X176949999Y-74910000D01*
%TO.N,/PWR_IN*%
X165769401Y-91679999D02*
X168094052Y-91679999D01*
X166934051Y-95122374D02*
X166936677Y-95125000D01*
X166931542Y-92810000D02*
X166940354Y-92818812D01*
X166934051Y-90520000D02*
X166934051Y-95122374D01*
X166934051Y-91675000D02*
X166934051Y-95122374D01*
D40*
X166933953Y-91675446D02*
X165773954Y-91675446D01*
D41*
X165784192Y-93954999D02*
X168094052Y-93954999D01*
X165789052Y-92810000D02*
X166931542Y-92810000D01*
D40*
X166934051Y-91675000D02*
X166934051Y-93964999D01*
X166934052Y-92825114D02*
X166940354Y-92818812D01*
X166931676Y-93960000D02*
X166931676Y-95119999D01*
D41*
X165769500Y-93969691D02*
X165784192Y-93954999D01*
D40*
X166939052Y-91685000D02*
X166939052Y-90525001D01*
D41*
X170482499Y-97260000D02*
X170482499Y-95772500D01*
X168919999Y-97260000D02*
X168919999Y-98709142D01*
D40*
X166934500Y-93964690D02*
X165774501Y-93964690D01*
X166934051Y-93964999D02*
X166934052Y-93965000D01*
D41*
X168919999Y-98709142D02*
X168694999Y-98934142D01*
X170482499Y-95772500D02*
X170494999Y-95760000D01*
D40*
X166936393Y-93960000D02*
X168096392Y-93960000D01*
X166934052Y-93965000D02*
X166934052Y-92825114D01*
X166939052Y-91685000D02*
X168099051Y-91685000D01*
D41*
X170482499Y-97260000D02*
X168919999Y-97260000D01*
X165768953Y-91680447D02*
X165769401Y-91679999D01*
%TO.N,+3V3*%
X170439999Y-74160000D02*
X172439999Y-74160000D01*
D40*
X170684998Y-78474999D02*
X172349999Y-76809999D01*
D41*
X178989999Y-73335000D02*
X178989999Y-74850000D01*
X170439999Y-74160000D02*
X170439999Y-73685000D01*
X170439999Y-73685000D02*
X172439999Y-73685000D01*
D40*
X169845000Y-79760000D02*
X169845000Y-79324999D01*
D41*
X172349999Y-76070000D02*
X172349999Y-76809999D01*
X170439999Y-74160000D02*
X172349999Y-76070000D01*
X172439999Y-73685000D02*
X172439999Y-73160000D01*
X172439999Y-73160000D02*
X172439999Y-76719999D01*
X172439999Y-74160000D02*
X172439999Y-76719999D01*
D40*
X170684998Y-78485001D02*
X170684998Y-78474999D01*
D41*
X172349999Y-76809999D02*
X172349999Y-73685000D01*
X172439999Y-76719999D02*
X172349999Y-76809999D01*
X178989999Y-74850000D02*
X179049999Y-74910000D01*
D40*
X169845000Y-79324999D02*
X170684998Y-78485001D01*
D41*
X172349999Y-76809999D02*
X172349999Y-75435000D01*
X172439999Y-73160000D02*
X170439999Y-73160000D01*
X170439999Y-73685000D02*
X170439999Y-73160000D01*
X172349999Y-75435000D02*
X171399999Y-74485000D01*
%TO.N,Net-(D1-A)*%
D40*
X173850000Y-103015001D02*
X173544999Y-102710000D01*
X175919999Y-103015001D02*
X173850000Y-103015001D01*
X171769999Y-98310000D02*
X171769999Y-97554998D01*
X173544999Y-100085000D02*
X171769999Y-98310000D01*
X173544999Y-102710000D02*
X173544999Y-100085000D01*
%TO.N,Net-(R3-Pad2)*%
X162269999Y-96535001D02*
X159519999Y-96535001D01*
X163260000Y-94586336D02*
X163260000Y-95545000D01*
X163260000Y-95545000D02*
X162269999Y-96535001D01*
%TO.N,Net-(R6-Pad1)*%
X160940751Y-89955753D02*
X163285000Y-89955753D01*
X159519999Y-88535001D02*
X160940751Y-89955753D01*
%TO.N,Net-(U1-PGood)*%
X173339999Y-95270000D02*
X173804052Y-94805947D01*
X172219999Y-95270000D02*
X173339999Y-95270000D01*
X171769999Y-95720000D02*
X172219999Y-95270000D01*
X173804052Y-94805947D02*
X173804052Y-93965001D01*
X171769999Y-96535000D02*
X171769999Y-95720000D01*
%TO.N,Net-(SW2-A)*%
X171514052Y-93965000D02*
X171514052Y-92810000D01*
%TO.N,Net-(D2-K)*%
X172769999Y-97554998D02*
X175855000Y-97554998D01*
X175855000Y-97554998D02*
X175919999Y-97489999D01*
%TO.N,Net-(D3-K)*%
X172785000Y-80475001D02*
X174069999Y-81760000D01*
X177339999Y-81290000D02*
X177339999Y-79985000D01*
X172194999Y-80475001D02*
X172785000Y-80475001D01*
X176869999Y-81760000D02*
X177339999Y-81290000D01*
X174069999Y-81760000D02*
X176869999Y-81760000D01*
%TO.N,Net-(J9-Pin_3)*%
X176094052Y-93965000D02*
X174954999Y-93965000D01*
X174954999Y-93965000D02*
X174949999Y-93970000D01*
%TO.N,GND*%
X171516931Y-89400544D02*
X173806930Y-89400544D01*
X173805854Y-87096473D02*
X173805854Y-85936474D01*
X169223936Y-89385246D02*
X169223936Y-91675245D01*
D41*
X166934051Y-87095000D02*
X166934051Y-89384999D01*
D40*
X171512147Y-90530000D02*
X171507146Y-90524999D01*
D41*
X176094052Y-89385000D02*
X166934052Y-89385000D01*
D40*
X173806661Y-91691004D02*
X173806662Y-91691005D01*
X171514052Y-87095001D02*
X171514052Y-89385000D01*
X173805854Y-85936474D02*
X173800853Y-85931473D01*
D41*
X173804052Y-84804999D02*
X173804052Y-91675000D01*
D40*
X169225586Y-87096321D02*
X170385585Y-87096321D01*
X173807962Y-87110760D02*
X173807962Y-89400759D01*
X169234997Y-87102014D02*
X169234997Y-89392013D01*
X176095688Y-87096390D02*
X173805689Y-87096390D01*
X170385585Y-87096321D02*
X170390586Y-87091320D01*
X171515526Y-87096350D02*
X172675525Y-87096350D01*
X171512146Y-91689998D02*
X171512147Y-91689999D01*
X176093022Y-89400760D02*
X176093022Y-88240761D01*
X173806662Y-91691005D02*
X173806662Y-90531006D01*
X166934051Y-88254999D02*
X166939052Y-88260000D01*
X166944999Y-89392014D02*
X169234998Y-89392014D01*
X173806661Y-89401005D02*
X173806661Y-91691004D01*
D41*
X169224052Y-91675000D02*
X172664052Y-91675000D01*
D40*
X176093021Y-89400759D02*
X176093022Y-89400760D01*
X173806662Y-90531006D02*
X173801661Y-90526005D01*
X171514053Y-89384999D02*
X170354054Y-89384999D01*
X169220356Y-92806734D02*
X169215355Y-92801733D01*
X169220356Y-93966733D02*
X169220356Y-92806734D01*
X174965687Y-87096391D02*
X174970688Y-87091390D01*
X169234998Y-89392014D02*
X169234999Y-89392013D01*
X173805526Y-87096349D02*
X171515527Y-87096349D01*
X176093022Y-88240761D02*
X176088021Y-88235760D01*
X176093021Y-87110760D02*
X176093021Y-89400759D01*
D41*
X171514052Y-91675001D02*
X171514052Y-87094999D01*
D40*
X169234998Y-89392014D02*
X169234998Y-88232015D01*
X171514053Y-89385001D02*
X171514053Y-88225002D01*
X173807962Y-89400759D02*
X173807963Y-89400760D01*
X169234997Y-89392013D02*
X169234998Y-89392014D01*
X174935143Y-89397391D02*
X174930142Y-89402392D01*
D41*
X171514052Y-91675001D02*
X172664051Y-91675001D01*
D40*
X176095141Y-89397392D02*
X176095142Y-89397391D01*
X171512147Y-91689999D02*
X171512147Y-90530000D01*
X169220355Y-93966732D02*
X169220356Y-93966733D01*
X166939052Y-87085000D02*
X166939051Y-87085001D01*
X173805853Y-84806473D02*
X173805853Y-87096472D01*
X170354054Y-89384999D02*
X170349053Y-89390000D01*
D41*
X172664051Y-91675001D02*
X172664052Y-91675000D01*
D40*
X169223937Y-91675246D02*
X169223937Y-90515247D01*
X173805142Y-89397392D02*
X176095141Y-89397392D01*
X169224053Y-89385000D02*
X171514052Y-89385000D01*
X173805853Y-87096472D02*
X173805854Y-87096473D01*
X171514052Y-89385000D02*
X171514053Y-89384999D01*
X172675525Y-87096350D02*
X172680526Y-87091349D01*
D41*
X166934051Y-87095000D02*
X176094053Y-87095000D01*
D40*
X171512146Y-89399999D02*
X171512146Y-91689998D01*
X166939051Y-87085001D02*
X168099050Y-87085001D01*
X176095142Y-89397391D02*
X174935143Y-89397391D01*
D41*
X169224052Y-87095000D02*
X169224052Y-93965001D01*
D40*
X169229051Y-87085000D02*
X166939052Y-87085000D01*
X169234999Y-89392013D02*
X168075000Y-89392013D01*
X169220355Y-91676733D02*
X169220355Y-93966732D01*
X171514052Y-89385000D02*
X171514053Y-89385001D01*
X171515527Y-87096349D02*
X171515526Y-87096350D01*
X173806930Y-89400544D02*
X173806931Y-89400543D01*
X169225587Y-87096320D02*
X169225586Y-87096321D01*
D41*
X166934051Y-89384999D02*
X166934052Y-89385000D01*
D40*
X173805689Y-87096390D02*
X173805688Y-87096391D01*
X171514053Y-88225002D02*
X171509052Y-88220001D01*
X173806931Y-89400543D02*
X172646932Y-89400543D01*
X173807963Y-88240761D02*
X173802962Y-88235760D01*
X166934051Y-87095000D02*
X166934051Y-88254999D01*
X171515586Y-87096320D02*
X169225587Y-87096320D01*
X173805688Y-87096391D02*
X174965687Y-87096391D01*
X172646932Y-89400543D02*
X172641931Y-89405544D01*
X168075000Y-89392013D02*
X168069999Y-89397014D01*
D41*
X172664052Y-91675000D02*
X173804052Y-91675000D01*
D40*
X169234998Y-88232015D02*
X169229997Y-88227014D01*
X169223937Y-90515247D02*
X169218936Y-90510246D01*
X169223936Y-91675245D02*
X169223937Y-91675246D01*
X173807963Y-89400760D02*
X173807963Y-88240761D01*
X168099050Y-87085001D02*
X168104051Y-87080000D01*
%TD*%
%TA.AperFunction,Conductor*%
%TO.N,GND*%
G36*
X196527407Y-61726843D02*
G01*
X196540094Y-61730966D01*
X196589594Y-61766927D01*
X196589595Y-61766928D01*
X196592590Y-61771050D01*
X196611499Y-61829240D01*
X196608577Y-61838230D01*
X196611498Y-62370214D01*
X196606653Y-62401351D01*
X196603132Y-62412187D01*
X196567168Y-62461687D01*
X196508978Y-62480593D01*
X196505830Y-62480593D01*
X196447639Y-62461686D01*
X196424162Y-62444629D01*
X196287552Y-62345375D01*
X196287551Y-62345374D01*
X196287549Y-62345373D01*
X196098213Y-62248903D01*
X195896118Y-62183239D01*
X195830000Y-62172766D01*
X195830000Y-62920330D01*
X195811093Y-62978521D01*
X195761593Y-63014485D01*
X195705377Y-63015957D01*
X195645826Y-63000000D01*
X195645825Y-63000000D01*
X195514175Y-63000000D01*
X195514174Y-63000000D01*
X195454623Y-63015957D01*
X195393522Y-63012755D01*
X195345972Y-62974249D01*
X195330000Y-62920330D01*
X195330000Y-62172769D01*
X195330000Y-62172768D01*
X195329999Y-62172767D01*
X195329998Y-62172767D01*
X195271576Y-62182021D01*
X195263879Y-62183240D01*
X195263878Y-62183240D01*
X195214317Y-62199342D01*
X195061784Y-62248903D01*
X194872449Y-62345373D01*
X194700536Y-62470276D01*
X194550276Y-62620536D01*
X194425372Y-62792452D01*
X194405328Y-62831791D01*
X194387123Y-62856850D01*
X194379067Y-62864906D01*
X194324550Y-62892683D01*
X194264136Y-62883121D01*
X194261330Y-62881692D01*
X194218057Y-62838436D01*
X194218047Y-62838418D01*
X194194625Y-62792450D01*
X194194624Y-62792448D01*
X194069722Y-62620535D01*
X193919464Y-62470277D01*
X193747552Y-62345375D01*
X193747551Y-62345374D01*
X193747549Y-62345373D01*
X193558213Y-62248903D01*
X193356118Y-62183239D01*
X193290000Y-62172766D01*
X193290000Y-62920330D01*
X193271093Y-62978521D01*
X193221593Y-63014485D01*
X193165377Y-63015957D01*
X193105826Y-63000000D01*
X193105825Y-63000000D01*
X192974175Y-63000000D01*
X192974174Y-63000000D01*
X192914623Y-63015957D01*
X192853522Y-63012755D01*
X192805972Y-62974249D01*
X192790000Y-62920330D01*
X192790000Y-62172769D01*
X192790000Y-62172768D01*
X192789999Y-62172767D01*
X192789998Y-62172767D01*
X192731576Y-62182021D01*
X192723879Y-62183240D01*
X192723878Y-62183240D01*
X192674317Y-62199342D01*
X192521784Y-62248903D01*
X192332449Y-62345373D01*
X192160536Y-62470276D01*
X192010276Y-62620536D01*
X191885372Y-62792452D01*
X191865328Y-62831791D01*
X191847123Y-62856850D01*
X191839067Y-62864906D01*
X191784550Y-62892683D01*
X191724136Y-62883121D01*
X191721330Y-62881692D01*
X191678057Y-62838436D01*
X191678047Y-62838418D01*
X191654625Y-62792450D01*
X191654624Y-62792448D01*
X191529722Y-62620535D01*
X191379464Y-62470277D01*
X191207552Y-62345375D01*
X191207551Y-62345374D01*
X191207549Y-62345373D01*
X191018213Y-62248903D01*
X190816118Y-62183239D01*
X190750000Y-62172766D01*
X190750000Y-62920330D01*
X190731093Y-62978521D01*
X190681593Y-63014485D01*
X190625377Y-63015957D01*
X190565826Y-63000000D01*
X190565825Y-63000000D01*
X190434175Y-63000000D01*
X190434174Y-63000000D01*
X190374623Y-63015957D01*
X190313522Y-63012755D01*
X190265972Y-62974249D01*
X190250000Y-62920330D01*
X190250000Y-62172769D01*
X190250000Y-62172768D01*
X190249999Y-62172767D01*
X190249998Y-62172767D01*
X190191576Y-62182021D01*
X190183879Y-62183240D01*
X190183878Y-62183240D01*
X190134317Y-62199342D01*
X189981784Y-62248903D01*
X189792449Y-62345373D01*
X189620536Y-62470276D01*
X189470276Y-62620536D01*
X189345372Y-62792452D01*
X189325328Y-62831791D01*
X189307123Y-62856850D01*
X189299067Y-62864906D01*
X189244550Y-62892683D01*
X189184136Y-62883121D01*
X189181330Y-62881692D01*
X189138057Y-62838436D01*
X189138047Y-62838418D01*
X189114625Y-62792450D01*
X189114624Y-62792448D01*
X188989722Y-62620535D01*
X188839464Y-62470277D01*
X188667552Y-62345375D01*
X188667551Y-62345374D01*
X188667549Y-62345373D01*
X188478213Y-62248903D01*
X188276118Y-62183239D01*
X188210000Y-62172766D01*
X188210000Y-62920330D01*
X188191093Y-62978521D01*
X188141593Y-63014485D01*
X188085377Y-63015957D01*
X188025826Y-63000000D01*
X188025825Y-63000000D01*
X187894175Y-63000000D01*
X187894174Y-63000000D01*
X187834623Y-63015957D01*
X187773522Y-63012755D01*
X187725972Y-62974249D01*
X187710000Y-62920330D01*
X187710000Y-62172769D01*
X187710000Y-62172768D01*
X187709999Y-62172767D01*
X187709998Y-62172767D01*
X187651576Y-62182021D01*
X187643879Y-62183240D01*
X187643878Y-62183240D01*
X187594317Y-62199342D01*
X187441784Y-62248903D01*
X187252449Y-62345373D01*
X187080536Y-62470276D01*
X186930276Y-62620536D01*
X186805373Y-62792449D01*
X186708903Y-62981784D01*
X186643240Y-63183879D01*
X186637164Y-63222242D01*
X186632768Y-63249999D01*
X186632769Y-63250000D01*
X187380330Y-63250000D01*
X187438521Y-63268907D01*
X187474485Y-63318407D01*
X187475957Y-63374623D01*
X187460000Y-63434174D01*
X187460000Y-63565825D01*
X187475957Y-63625377D01*
X187472755Y-63686478D01*
X187434249Y-63734028D01*
X187380330Y-63750000D01*
X186632769Y-63750000D01*
X186643240Y-63816120D01*
X186708903Y-64018214D01*
X186805373Y-64207549D01*
X186805375Y-64207552D01*
X186930277Y-64379464D01*
X187080535Y-64529722D01*
X187252447Y-64654624D01*
X187441789Y-64751097D01*
X187445944Y-64752447D01*
X187473543Y-64766509D01*
X187482392Y-64772938D01*
X187518356Y-64822437D01*
X187518357Y-64883622D01*
X187488498Y-64928310D01*
X187484125Y-64932045D01*
X187464774Y-64944976D01*
X187330803Y-65013237D01*
X187330797Y-65013241D01*
X187177933Y-65124304D01*
X187044304Y-65257933D01*
X186933241Y-65410797D01*
X186933237Y-65410803D01*
X186847451Y-65579170D01*
X186847449Y-65579173D01*
X186789057Y-65758885D01*
X186759500Y-65945510D01*
X186759500Y-66134488D01*
X186789057Y-66321113D01*
X186847449Y-66500825D01*
X186847451Y-66500828D01*
X186847452Y-66500831D01*
X186847453Y-66500832D01*
X186928500Y-66659898D01*
X186933240Y-66669199D01*
X186933242Y-66669202D01*
X186933247Y-66669210D01*
X187044305Y-66822067D01*
X187044307Y-66822069D01*
X187044310Y-66822073D01*
X187177927Y-66955690D01*
X187330801Y-67066760D01*
X187499168Y-67152547D01*
X187678882Y-67210940D01*
X187678883Y-67210940D01*
X187678886Y-67210941D01*
X187798169Y-67229833D01*
X187865513Y-67240500D01*
X188054484Y-67240500D01*
X188054487Y-67240500D01*
X188128692Y-67228746D01*
X188241113Y-67210941D01*
X188241113Y-67210940D01*
X188241115Y-67210940D01*
X188241118Y-67210940D01*
X188241121Y-67210939D01*
X188243697Y-67210531D01*
X188248504Y-67208539D01*
X188420832Y-67152547D01*
X188589199Y-67066760D01*
X188742073Y-66955690D01*
X188875690Y-66822073D01*
X188986760Y-66669199D01*
X189072547Y-66500832D01*
X189130940Y-66321118D01*
X189130941Y-66321113D01*
X189130941Y-66321107D01*
X189131217Y-66320059D01*
X189131676Y-66318850D01*
X189131833Y-66318369D01*
X189131856Y-66318376D01*
X189138782Y-66300163D01*
X189143078Y-66291732D01*
X189186337Y-66248468D01*
X189246769Y-66238893D01*
X189301287Y-66266667D01*
X189327218Y-66317550D01*
X189328149Y-66317327D01*
X189329055Y-66321105D01*
X189385012Y-66493319D01*
X189387453Y-66500832D01*
X189468500Y-66659898D01*
X189473240Y-66669199D01*
X189473242Y-66669202D01*
X189473247Y-66669210D01*
X189584305Y-66822067D01*
X189584307Y-66822069D01*
X189584310Y-66822073D01*
X189717927Y-66955690D01*
X189870801Y-67066760D01*
X190039168Y-67152547D01*
X190218882Y-67210940D01*
X190218883Y-67210940D01*
X190218886Y-67210941D01*
X190338169Y-67229833D01*
X190405513Y-67240500D01*
X190594484Y-67240500D01*
X190594487Y-67240500D01*
X190668692Y-67228746D01*
X190781113Y-67210941D01*
X190781113Y-67210940D01*
X190781115Y-67210940D01*
X190781118Y-67210940D01*
X190781121Y-67210939D01*
X190783697Y-67210531D01*
X190788504Y-67208539D01*
X190960832Y-67152547D01*
X191129199Y-67066760D01*
X191282073Y-66955690D01*
X191415690Y-66822073D01*
X191526760Y-66669199D01*
X191612547Y-66500832D01*
X191670940Y-66321118D01*
X191670941Y-66321113D01*
X191670941Y-66321107D01*
X191671217Y-66320059D01*
X191671676Y-66318850D01*
X191671833Y-66318369D01*
X191671856Y-66318376D01*
X191678782Y-66300163D01*
X191683078Y-66291732D01*
X191726337Y-66248468D01*
X191786769Y-66238893D01*
X191841287Y-66266667D01*
X191867218Y-66317550D01*
X191868149Y-66317327D01*
X191869055Y-66321105D01*
X191925012Y-66493319D01*
X191927453Y-66500832D01*
X192008500Y-66659898D01*
X192013240Y-66669199D01*
X192013242Y-66669202D01*
X192013247Y-66669210D01*
X192124305Y-66822067D01*
X192124307Y-66822069D01*
X192124310Y-66822073D01*
X192257927Y-66955690D01*
X192410801Y-67066760D01*
X192579168Y-67152547D01*
X192758882Y-67210940D01*
X192758883Y-67210940D01*
X192758886Y-67210941D01*
X192878169Y-67229833D01*
X192945513Y-67240500D01*
X193134484Y-67240500D01*
X193134487Y-67240500D01*
X193208692Y-67228746D01*
X193321113Y-67210941D01*
X193321113Y-67210940D01*
X193321115Y-67210940D01*
X193321118Y-67210940D01*
X193321121Y-67210939D01*
X193323697Y-67210531D01*
X193328504Y-67208539D01*
X193500832Y-67152547D01*
X193669199Y-67066760D01*
X193822073Y-66955690D01*
X193955690Y-66822073D01*
X194066760Y-66669199D01*
X194152547Y-66500832D01*
X194210940Y-66321118D01*
X194210941Y-66321113D01*
X194210941Y-66321107D01*
X194211217Y-66320059D01*
X194211676Y-66318850D01*
X194211833Y-66318369D01*
X194211856Y-66318376D01*
X194218782Y-66300163D01*
X194223078Y-66291732D01*
X194266337Y-66248468D01*
X194326769Y-66238893D01*
X194381287Y-66266667D01*
X194407218Y-66317550D01*
X194408149Y-66317327D01*
X194409055Y-66321105D01*
X194465012Y-66493319D01*
X194467453Y-66500832D01*
X194548500Y-66659898D01*
X194553240Y-66669199D01*
X194553242Y-66669202D01*
X194553247Y-66669210D01*
X194664305Y-66822067D01*
X194664307Y-66822069D01*
X194664310Y-66822073D01*
X194797927Y-66955690D01*
X194950801Y-67066760D01*
X195119168Y-67152547D01*
X195298882Y-67210940D01*
X195298883Y-67210940D01*
X195298886Y-67210941D01*
X195418169Y-67229833D01*
X195485513Y-67240500D01*
X195674484Y-67240500D01*
X195674487Y-67240500D01*
X195748692Y-67228746D01*
X195861113Y-67210941D01*
X195861113Y-67210940D01*
X195861115Y-67210940D01*
X195861118Y-67210940D01*
X195861121Y-67210939D01*
X195863697Y-67210531D01*
X195868504Y-67208539D01*
X196040832Y-67152547D01*
X196209199Y-67066760D01*
X196362073Y-66955690D01*
X196431410Y-66886351D01*
X196456468Y-66868146D01*
X196466216Y-66863179D01*
X196526649Y-66853613D01*
X196581163Y-66881394D01*
X196607417Y-66928270D01*
X196608761Y-66933865D01*
X196611499Y-66956988D01*
X196611499Y-67710819D01*
X196606653Y-67741412D01*
X196602531Y-67754098D01*
X196566579Y-67803589D01*
X196562458Y-67806584D01*
X196504270Y-67825500D01*
X182315724Y-67825500D01*
X182015463Y-67861960D01*
X182015440Y-67861963D01*
X181721743Y-67934353D01*
X181438878Y-68041629D01*
X181171047Y-68182197D01*
X181171028Y-68182207D01*
X180925543Y-68351654D01*
X180925527Y-68351666D01*
X180922080Y-68354046D01*
X180922077Y-68354048D01*
X180922075Y-68354050D01*
X180917919Y-68357731D01*
X180917895Y-68357751D01*
X180824802Y-68440225D01*
X180695663Y-68554632D01*
X180695639Y-68554656D01*
X180495041Y-68781086D01*
X180323206Y-69030029D01*
X180323196Y-69030048D01*
X180182628Y-69297879D01*
X180075352Y-69580744D01*
X180002962Y-69874441D01*
X180002959Y-69874464D01*
X179966499Y-70174725D01*
X179966499Y-73798334D01*
X179961653Y-73828927D01*
X179957531Y-73841613D01*
X179921567Y-73891113D01*
X179921544Y-73891130D01*
X179920091Y-73892185D01*
X179870974Y-73910660D01*
X179865582Y-73911155D01*
X179843612Y-73910723D01*
X179842123Y-73910527D01*
X179812425Y-73901731D01*
X179803975Y-73897700D01*
X179800387Y-73895989D01*
X179756005Y-73853875D01*
X179752490Y-73847400D01*
X179740499Y-73800172D01*
X179740499Y-73261083D01*
X179740499Y-73261082D01*
X179711657Y-73116087D01*
X179655083Y-72979505D01*
X179572950Y-72856584D01*
X179468415Y-72752049D01*
X179345494Y-72669916D01*
X179345492Y-72669915D01*
X179208913Y-72613342D01*
X179208911Y-72613341D01*
X179063919Y-72584500D01*
X179063917Y-72584500D01*
X178916081Y-72584500D01*
X178916080Y-72584500D01*
X178916077Y-72584500D01*
X178771084Y-72613342D01*
X178771082Y-72613342D01*
X178634509Y-72669912D01*
X178634497Y-72669918D01*
X178511585Y-72752047D01*
X178407046Y-72856586D01*
X178324917Y-72979498D01*
X178324911Y-72979510D01*
X178268341Y-73116083D01*
X178268341Y-73116085D01*
X178239499Y-73261078D01*
X178239499Y-73832173D01*
X178234653Y-73862767D01*
X178229871Y-73877484D01*
X178197006Y-73924637D01*
X178189136Y-73930841D01*
X178165734Y-73944558D01*
X178097157Y-73972963D01*
X178097157Y-73972964D01*
X177971725Y-74069210D01*
X177971706Y-74069229D01*
X177875237Y-74194951D01*
X177874219Y-74197656D01*
X177814956Y-74340730D01*
X177814956Y-74340731D01*
X177814954Y-74340740D01*
X177801789Y-74440737D01*
X177792994Y-74470429D01*
X177788730Y-74479370D01*
X177746616Y-74523755D01*
X177686456Y-74534909D01*
X177634581Y-74511609D01*
X177629374Y-74507102D01*
X177611850Y-74487250D01*
X177574154Y-74430835D01*
X177574153Y-74430834D01*
X177574152Y-74430832D01*
X177557950Y-74406584D01*
X177557947Y-74406581D01*
X177557942Y-74406575D01*
X177453416Y-74302050D01*
X177453415Y-74302049D01*
X177330494Y-74219916D01*
X177330492Y-74219915D01*
X177265354Y-74192934D01*
X177193911Y-74163341D01*
X177048919Y-74134500D01*
X177048917Y-74134500D01*
X177048916Y-74134500D01*
X176901081Y-74134500D01*
X176901080Y-74134500D01*
X176901077Y-74134500D01*
X176756084Y-74163342D01*
X176756082Y-74163342D01*
X176619508Y-74219912D01*
X176496583Y-74302047D01*
X176367054Y-74431574D01*
X176367049Y-74431579D01*
X176367044Y-74431586D01*
X176367043Y-74431588D01*
X176329853Y-74487250D01*
X176323281Y-74497086D01*
X176323251Y-74497129D01*
X176310850Y-74515689D01*
X176284918Y-74554497D01*
X176284918Y-74554498D01*
X176284913Y-74554505D01*
X176228341Y-74691083D01*
X176228341Y-74691085D01*
X176199499Y-74836078D01*
X176199499Y-75369820D01*
X176194653Y-75400414D01*
X176189871Y-75415131D01*
X176157006Y-75462284D01*
X176149136Y-75468488D01*
X176125733Y-75482205D01*
X175997160Y-75535462D01*
X175871725Y-75631710D01*
X175871716Y-75631719D01*
X175782643Y-75747801D01*
X175760176Y-75769121D01*
X175750787Y-75775574D01*
X175692121Y-75792952D01*
X175634446Y-75772528D01*
X175629987Y-75769106D01*
X175627130Y-75766914D01*
X175603144Y-75740350D01*
X175597967Y-75731956D01*
X175478043Y-75612032D01*
X175431752Y-75583479D01*
X175333702Y-75523000D01*
X175333694Y-75522996D01*
X175294079Y-75509869D01*
X175286551Y-75505833D01*
X175283965Y-75503136D01*
X175274679Y-75498337D01*
X175264859Y-75491115D01*
X175229188Y-75441407D01*
X175228867Y-75382354D01*
X175231874Y-75372543D01*
X175244207Y-75346566D01*
X175315083Y-75240495D01*
X175371657Y-75103913D01*
X175400499Y-74958918D01*
X175400499Y-74811082D01*
X175371657Y-74666087D01*
X175329072Y-74563278D01*
X175315083Y-74529504D01*
X175315082Y-74529503D01*
X175305722Y-74515495D01*
X175267398Y-74458138D01*
X175267398Y-74458139D01*
X175232950Y-74406584D01*
X175232945Y-74406579D01*
X175232942Y-74406575D01*
X175128416Y-74302050D01*
X175128415Y-74302049D01*
X175005494Y-74219916D01*
X175005492Y-74219915D01*
X174940354Y-74192934D01*
X174868911Y-74163341D01*
X174723919Y-74134500D01*
X174723917Y-74134500D01*
X174576081Y-74134500D01*
X174576080Y-74134500D01*
X174576077Y-74134500D01*
X174431084Y-74163342D01*
X174431082Y-74163342D01*
X174294509Y-74219912D01*
X174294497Y-74219918D01*
X174171585Y-74302047D01*
X174067046Y-74406586D01*
X173989351Y-74522863D01*
X173985811Y-74527335D01*
X173928341Y-74666083D01*
X173928341Y-74666085D01*
X173899499Y-74811078D01*
X173899499Y-74958920D01*
X173928341Y-75103913D01*
X173928341Y-75103915D01*
X173984912Y-75240491D01*
X173984912Y-75240492D01*
X173994929Y-75255483D01*
X174050771Y-75339056D01*
X174055151Y-75345610D01*
X174068120Y-75373743D01*
X174071426Y-75385467D01*
X174069022Y-75446605D01*
X174032987Y-75493390D01*
X174024590Y-75499279D01*
X173998885Y-75512200D01*
X173966303Y-75522996D01*
X173966301Y-75522997D01*
X173966298Y-75522998D01*
X173828711Y-75607864D01*
X173823417Y-75610570D01*
X173700570Y-75733417D01*
X173697861Y-75738715D01*
X173613917Y-75874807D01*
X173612997Y-75876240D01*
X173612586Y-75877539D01*
X173598906Y-75918823D01*
X173584684Y-75946338D01*
X173579666Y-75953161D01*
X173529958Y-75988837D01*
X173468774Y-75988481D01*
X173419826Y-75952704D01*
X173415072Y-75946162D01*
X173401185Y-75919106D01*
X173387002Y-75876302D01*
X173297967Y-75731955D01*
X173297963Y-75731951D01*
X173297962Y-75731949D01*
X173293943Y-75727930D01*
X173293937Y-75727925D01*
X173230582Y-75664569D01*
X173212377Y-75639511D01*
X173201287Y-75617747D01*
X173190499Y-75572805D01*
X173190499Y-73086083D01*
X173190499Y-73086082D01*
X173161657Y-72941087D01*
X173105083Y-72804505D01*
X173022950Y-72681584D01*
X172918415Y-72577049D01*
X172795494Y-72494916D01*
X172795492Y-72494915D01*
X172686952Y-72449956D01*
X172658911Y-72438341D01*
X172513919Y-72409500D01*
X172513917Y-72409500D01*
X170513917Y-72409500D01*
X170366081Y-72409500D01*
X170366080Y-72409500D01*
X170366077Y-72409500D01*
X170221084Y-72438342D01*
X170221082Y-72438342D01*
X170084509Y-72494912D01*
X170084497Y-72494918D01*
X169961585Y-72577047D01*
X169857046Y-72681586D01*
X169774917Y-72804498D01*
X169774911Y-72804510D01*
X169718341Y-72941083D01*
X169718341Y-72941085D01*
X169689499Y-73086078D01*
X169689499Y-74233920D01*
X169718341Y-74378913D01*
X169718341Y-74378915D01*
X169773818Y-74512850D01*
X169773820Y-74512854D01*
X169774912Y-74515489D01*
X169774913Y-74515491D01*
X169774915Y-74515495D01*
X169784277Y-74529506D01*
X169784988Y-74530571D01*
X169785005Y-74530597D01*
X169830841Y-74599197D01*
X169830842Y-74599197D01*
X169830843Y-74599199D01*
X169857047Y-74638416D01*
X169857050Y-74638419D01*
X171214952Y-75996321D01*
X171233158Y-76021381D01*
X171243336Y-76041357D01*
X171253613Y-76096362D01*
X171249499Y-76136636D01*
X171249499Y-77075283D01*
X171244653Y-77105876D01*
X171237106Y-77129103D01*
X171212956Y-77168514D01*
X170697055Y-77684416D01*
X170671995Y-77702622D01*
X170650015Y-77713821D01*
X170614778Y-77724134D01*
X170611082Y-77724498D01*
X170466083Y-77753341D01*
X170466081Y-77753341D01*
X170329508Y-77809911D01*
X170329496Y-77809917D01*
X170206584Y-77892046D01*
X170102045Y-77996585D01*
X170019916Y-78119497D01*
X170019910Y-78119509D01*
X169963340Y-78256082D01*
X169963340Y-78256084D01*
X169934498Y-78401077D01*
X169934022Y-78405916D01*
X169933612Y-78405875D01*
X169929652Y-78430880D01*
X169922105Y-78454107D01*
X169897955Y-78493518D01*
X169418463Y-78973010D01*
X169403456Y-78985325D01*
X169387554Y-78995949D01*
X169370446Y-79005093D01*
X169304770Y-79032299D01*
X169184554Y-79124544D01*
X169184541Y-79124557D01*
X169092301Y-79244766D01*
X169092299Y-79244770D01*
X169034319Y-79384748D01*
X169034312Y-79384767D01*
X169031366Y-79407147D01*
X169031366Y-79407148D01*
X169019500Y-79497278D01*
X169019500Y-80022720D01*
X169034312Y-80135232D01*
X169034314Y-80135238D01*
X169090669Y-80271292D01*
X169092302Y-80275233D01*
X169184549Y-80395451D01*
X169304767Y-80487698D01*
X169444764Y-80545687D01*
X169557280Y-80560500D01*
X169557281Y-80560500D01*
X170132719Y-80560500D01*
X170132720Y-80560500D01*
X170245236Y-80545687D01*
X170385233Y-80487698D01*
X170397292Y-80478443D01*
X170424508Y-80463666D01*
X170437086Y-80459211D01*
X170498246Y-80457610D01*
X170508844Y-80460749D01*
X170540992Y-80477129D01*
X170547509Y-80482130D01*
X170549611Y-80483743D01*
X170552065Y-80485894D01*
X170554762Y-80487697D01*
X170604262Y-80508200D01*
X170604263Y-80508200D01*
X170694763Y-80545687D01*
X170694762Y-80545687D01*
X170710000Y-80547693D01*
X170807279Y-80560500D01*
X170807280Y-80560500D01*
X171382714Y-80560500D01*
X171382718Y-80560500D01*
X171382719Y-80560500D01*
X171397035Y-80558615D01*
X171427996Y-80559426D01*
X171437805Y-80561244D01*
X171441113Y-80561858D01*
X171494860Y-80591032D01*
X171496101Y-80592339D01*
X171520864Y-80638646D01*
X171522878Y-80647542D01*
X171524755Y-80658821D01*
X171526337Y-80673535D01*
X171530714Y-80714259D01*
X171530714Y-80714261D01*
X171530715Y-80714263D01*
X171534723Y-80725010D01*
X171534725Y-80725016D01*
X171562561Y-80799644D01*
X171579504Y-80845069D01*
X171663168Y-80956832D01*
X171702658Y-80986393D01*
X171702659Y-80986395D01*
X171761453Y-81030407D01*
X171774929Y-81040495D01*
X171774933Y-81040497D01*
X171812646Y-81054563D01*
X171905737Y-81089285D01*
X171963556Y-81095501D01*
X172426441Y-81095500D01*
X172484261Y-81089285D01*
X172509378Y-81079915D01*
X172539727Y-81073765D01*
X172556149Y-81073060D01*
X172610294Y-81086468D01*
X172615120Y-81089285D01*
X172617613Y-81090740D01*
X172637710Y-81106236D01*
X173731984Y-82200510D01*
X173731986Y-82200511D01*
X173732535Y-82200906D01*
X173734533Y-82201981D01*
X173835888Y-82260499D01*
X173835889Y-82260499D01*
X173835891Y-82260500D01*
X173847176Y-82267015D01*
X173847177Y-82267016D01*
X173856327Y-82272299D01*
X173857514Y-82272984D01*
X173997524Y-82310500D01*
X173997525Y-82310500D01*
X176942473Y-82310500D01*
X176942474Y-82310500D01*
X177082484Y-82272984D01*
X177104107Y-82260500D01*
X177208014Y-82200510D01*
X177780509Y-81628015D01*
X177852983Y-81502485D01*
X177855319Y-81493767D01*
X177890499Y-81362475D01*
X177890499Y-81350180D01*
X177895342Y-81319594D01*
X177899464Y-81306905D01*
X177935422Y-81257406D01*
X177936021Y-81256971D01*
X177939562Y-81254400D01*
X177997742Y-81235500D01*
X178273256Y-81235500D01*
X178273259Y-81235500D01*
X178341392Y-81225573D01*
X178446482Y-81174198D01*
X178529197Y-81091483D01*
X178580572Y-80986393D01*
X178590499Y-80918260D01*
X178590499Y-79051740D01*
X178580572Y-78983607D01*
X178578762Y-78979905D01*
X178530536Y-78881258D01*
X178529386Y-78878707D01*
X178529197Y-78878518D01*
X178529197Y-78878517D01*
X178446482Y-78795802D01*
X178446480Y-78795801D01*
X178341394Y-78744427D01*
X178314138Y-78740456D01*
X178314137Y-78740455D01*
X178283654Y-78736014D01*
X178273259Y-78734500D01*
X178273257Y-78734500D01*
X176406735Y-78734500D01*
X176372669Y-78739463D01*
X176372668Y-78739462D01*
X176338605Y-78744426D01*
X176338603Y-78744426D01*
X176233519Y-78795799D01*
X176150799Y-78878519D01*
X176099426Y-78983604D01*
X176098669Y-78986874D01*
X176098392Y-78990705D01*
X176092332Y-79032299D01*
X176089499Y-79051743D01*
X176089499Y-79333276D01*
X176082108Y-79356023D01*
X176082111Y-79371693D01*
X176072893Y-79384384D01*
X176070592Y-79391467D01*
X176068361Y-79394420D01*
X176063515Y-79400591D01*
X176061991Y-79399394D01*
X176046155Y-79421199D01*
X175987968Y-79440116D01*
X175929774Y-79421219D01*
X175927476Y-79419550D01*
X175897443Y-79384392D01*
X175890973Y-79371693D01*
X175869524Y-79329597D01*
X175869522Y-79329594D01*
X175869521Y-79329592D01*
X175866626Y-79325608D01*
X175866625Y-79325607D01*
X175866623Y-79325604D01*
X175753827Y-79170354D01*
X175614645Y-79031172D01*
X175614641Y-79031169D01*
X175614639Y-79031167D01*
X175463863Y-78921621D01*
X175463852Y-78921613D01*
X175455404Y-78915476D01*
X175455403Y-78915475D01*
X175455401Y-78915474D01*
X175280024Y-78826116D01*
X175170134Y-78790410D01*
X175092814Y-78765287D01*
X174898423Y-78734500D01*
X174898419Y-78734500D01*
X174898416Y-78734500D01*
X174701582Y-78734500D01*
X174701579Y-78734500D01*
X174701576Y-78734500D01*
X174507177Y-78765289D01*
X174412190Y-78796152D01*
X174388278Y-78796151D01*
X174373376Y-78800997D01*
X174358452Y-78796151D01*
X174351005Y-78796151D01*
X174347470Y-78794928D01*
X174340107Y-78792224D01*
X174340772Y-78790410D01*
X174315182Y-78782101D01*
X174279208Y-78732608D01*
X174279196Y-78671423D01*
X174280075Y-78668716D01*
X174304230Y-78629291D01*
X174517555Y-78415968D01*
X174732946Y-78200577D01*
X174758001Y-78182376D01*
X174779764Y-78171288D01*
X174824706Y-78160499D01*
X175073359Y-78160499D01*
X175141274Y-78153560D01*
X175172698Y-78150350D01*
X175172698Y-78150349D01*
X175172700Y-78150349D01*
X175172707Y-78150349D01*
X175172710Y-78150347D01*
X175175556Y-78150057D01*
X175175557Y-78150057D01*
X175175567Y-78150056D01*
X175187179Y-78148869D01*
X175197506Y-78142131D01*
X175333696Y-78097003D01*
X175478043Y-78007968D01*
X175597967Y-77888044D01*
X175687002Y-77743697D01*
X175740348Y-77582708D01*
X175750499Y-77483345D01*
X175750498Y-77436697D01*
X175755341Y-77406111D01*
X175755511Y-77405588D01*
X175758861Y-77395275D01*
X175794821Y-77345775D01*
X175853008Y-77326864D01*
X175855637Y-77326864D01*
X175901717Y-77338242D01*
X175902283Y-77338540D01*
X175916460Y-77347614D01*
X175978577Y-77395278D01*
X175992013Y-77405588D01*
X175992012Y-77405588D01*
X175997446Y-77409757D01*
X176000133Y-77410768D01*
X176143232Y-77470042D01*
X176143237Y-77470044D01*
X176260638Y-77485500D01*
X177639359Y-77485499D01*
X177756761Y-77470044D01*
X177902840Y-77409536D01*
X178028281Y-77313282D01*
X178124535Y-77187841D01*
X178185043Y-77041762D01*
X178200499Y-76924361D01*
X178200498Y-76033802D01*
X178203539Y-76009456D01*
X178207676Y-75993151D01*
X178240310Y-75941400D01*
X178240440Y-75941292D01*
X178241488Y-75940435D01*
X178241519Y-75940410D01*
X178291372Y-75919239D01*
X178299638Y-75918206D01*
X178324839Y-75918286D01*
X178360638Y-75923000D01*
X179739359Y-75922999D01*
X179839036Y-75909877D01*
X179869987Y-75910686D01*
X179883109Y-75913118D01*
X179936876Y-75942310D01*
X179938129Y-75943630D01*
X179962859Y-75989900D01*
X179964055Y-75995182D01*
X179966499Y-76017045D01*
X179966499Y-105085273D01*
X180002959Y-105385534D01*
X180002962Y-105385557D01*
X180075351Y-105679249D01*
X180075353Y-105679258D01*
X180123041Y-105805001D01*
X180182628Y-105962119D01*
X180323196Y-106229950D01*
X180323205Y-106229967D01*
X180323208Y-106229972D01*
X180463695Y-106433500D01*
X180495049Y-106478924D01*
X180695647Y-106705352D01*
X180922075Y-106905950D01*
X180993136Y-106955000D01*
X181171026Y-107077790D01*
X181171031Y-107077793D01*
X181438886Y-107218373D01*
X181721733Y-107325643D01*
X181868590Y-107361840D01*
X182015443Y-107398036D01*
X182015444Y-107398036D01*
X182015448Y-107398037D01*
X182015453Y-107398037D01*
X182015455Y-107398038D01*
X182142599Y-107413476D01*
X182315735Y-107434499D01*
X182315743Y-107434500D01*
X182315747Y-107434500D01*
X182401107Y-107434500D01*
X196496819Y-107434500D01*
X196527407Y-107439343D01*
X196540094Y-107443466D01*
X196589594Y-107479427D01*
X196589595Y-107479428D01*
X196592590Y-107483550D01*
X196611499Y-107541740D01*
X196611499Y-108090757D01*
X196606653Y-108121351D01*
X196603132Y-108132187D01*
X196567168Y-108181687D01*
X196508978Y-108200593D01*
X196505830Y-108200593D01*
X196447639Y-108181686D01*
X196424162Y-108164629D01*
X196287552Y-108065375D01*
X196287551Y-108065374D01*
X196287549Y-108065373D01*
X196098213Y-107968903D01*
X195896118Y-107903239D01*
X195830000Y-107892766D01*
X195830000Y-108640330D01*
X195811093Y-108698521D01*
X195761593Y-108734485D01*
X195705377Y-108735957D01*
X195645826Y-108720000D01*
X195645825Y-108720000D01*
X195514175Y-108720000D01*
X195514174Y-108720000D01*
X195454623Y-108735957D01*
X195393522Y-108732755D01*
X195345972Y-108694249D01*
X195330000Y-108640330D01*
X195330000Y-107892769D01*
X195330000Y-107892768D01*
X195329999Y-107892767D01*
X195329998Y-107892767D01*
X195271576Y-107902021D01*
X195263879Y-107903240D01*
X195263878Y-107903240D01*
X195214317Y-107919342D01*
X195061784Y-107968903D01*
X194872449Y-108065373D01*
X194700536Y-108190276D01*
X194550276Y-108340536D01*
X194425372Y-108512452D01*
X194405328Y-108551791D01*
X194387123Y-108576850D01*
X194379067Y-108584906D01*
X194324550Y-108612683D01*
X194264136Y-108603121D01*
X194261330Y-108601692D01*
X194218057Y-108558436D01*
X194218047Y-108558418D01*
X194194625Y-108512450D01*
X194194624Y-108512448D01*
X194069722Y-108340535D01*
X193919464Y-108190277D01*
X193747552Y-108065375D01*
X193747551Y-108065374D01*
X193747549Y-108065373D01*
X193558213Y-107968903D01*
X193356118Y-107903239D01*
X193290000Y-107892766D01*
X193290000Y-108640330D01*
X193271093Y-108698521D01*
X193221593Y-108734485D01*
X193165377Y-108735957D01*
X193105826Y-108720000D01*
X193105825Y-108720000D01*
X192974175Y-108720000D01*
X192974174Y-108720000D01*
X192914623Y-108735957D01*
X192853522Y-108732755D01*
X192805972Y-108694249D01*
X192790000Y-108640330D01*
X192790000Y-107892769D01*
X192790000Y-107892768D01*
X192789999Y-107892767D01*
X192789998Y-107892767D01*
X192731576Y-107902021D01*
X192723879Y-107903240D01*
X192723878Y-107903240D01*
X192674317Y-107919342D01*
X192521784Y-107968903D01*
X192332449Y-108065373D01*
X192160536Y-108190276D01*
X192010276Y-108340536D01*
X191885372Y-108512452D01*
X191865328Y-108551791D01*
X191847123Y-108576850D01*
X191839067Y-108584906D01*
X191784550Y-108612683D01*
X191724136Y-108603121D01*
X191721330Y-108601692D01*
X191678057Y-108558436D01*
X191678047Y-108558418D01*
X191654625Y-108512450D01*
X191654624Y-108512448D01*
X191529722Y-108340535D01*
X191379464Y-108190277D01*
X191207552Y-108065375D01*
X191207551Y-108065374D01*
X191207549Y-108065373D01*
X191018213Y-107968903D01*
X190816118Y-107903239D01*
X190750000Y-107892766D01*
X190750000Y-108640330D01*
X190731093Y-108698521D01*
X190681593Y-108734485D01*
X190625377Y-108735957D01*
X190565826Y-108720000D01*
X190565825Y-108720000D01*
X190434175Y-108720000D01*
X190434174Y-108720000D01*
X190374623Y-108735957D01*
X190313522Y-108732755D01*
X190265972Y-108694249D01*
X190250000Y-108640330D01*
X190250000Y-107892769D01*
X190250000Y-107892768D01*
X190249999Y-107892767D01*
X190249998Y-107892767D01*
X190191576Y-107902021D01*
X190183879Y-107903240D01*
X190183878Y-107903240D01*
X190134317Y-107919342D01*
X189981784Y-107968903D01*
X189792449Y-108065373D01*
X189620536Y-108190276D01*
X189470276Y-108340536D01*
X189345372Y-108512452D01*
X189325328Y-108551791D01*
X189307123Y-108576850D01*
X189299067Y-108584906D01*
X189244550Y-108612683D01*
X189184136Y-108603121D01*
X189181330Y-108601692D01*
X189138057Y-108558436D01*
X189138047Y-108558418D01*
X189114625Y-108512450D01*
X189114624Y-108512448D01*
X188989722Y-108340535D01*
X188839464Y-108190277D01*
X188667552Y-108065375D01*
X188667551Y-108065374D01*
X188667549Y-108065373D01*
X188478213Y-107968903D01*
X188276118Y-107903239D01*
X188210000Y-107892766D01*
X188210000Y-108640330D01*
X188191093Y-108698521D01*
X188141593Y-108734485D01*
X188085377Y-108735957D01*
X188025826Y-108720000D01*
X188025825Y-108720000D01*
X187894175Y-108720000D01*
X187894174Y-108720000D01*
X187834623Y-108735957D01*
X187773522Y-108732755D01*
X187725972Y-108694249D01*
X187710000Y-108640330D01*
X187710000Y-107892769D01*
X187710000Y-107892768D01*
X187709999Y-107892767D01*
X187709998Y-107892767D01*
X187651576Y-107902021D01*
X187643879Y-107903240D01*
X187643878Y-107903240D01*
X187594317Y-107919342D01*
X187441784Y-107968903D01*
X187252449Y-108065373D01*
X187080536Y-108190276D01*
X186930276Y-108340536D01*
X186805373Y-108512449D01*
X186708903Y-108701784D01*
X186643240Y-108903879D01*
X186632768Y-108969998D01*
X186632768Y-108969999D01*
X186632769Y-108970000D01*
X187380330Y-108970000D01*
X187438521Y-108988907D01*
X187474485Y-109038407D01*
X187475957Y-109094623D01*
X187460000Y-109154174D01*
X187460000Y-109285825D01*
X187475957Y-109345377D01*
X187472755Y-109406478D01*
X187434249Y-109454028D01*
X187380330Y-109470000D01*
X186632769Y-109470000D01*
X186643240Y-109536120D01*
X186708903Y-109738214D01*
X186799444Y-109915912D01*
X186805375Y-109927552D01*
X186930277Y-110099464D01*
X187080535Y-110249722D01*
X187252447Y-110374624D01*
X187441789Y-110471097D01*
X187445944Y-110472447D01*
X187473543Y-110486509D01*
X187482392Y-110492938D01*
X187518356Y-110542437D01*
X187518357Y-110603622D01*
X187488498Y-110648310D01*
X187484125Y-110652045D01*
X187464774Y-110664976D01*
X187330803Y-110733237D01*
X187330797Y-110733241D01*
X187177933Y-110844304D01*
X187044304Y-110977933D01*
X186933241Y-111130797D01*
X186933237Y-111130803D01*
X186847451Y-111299170D01*
X186847449Y-111299173D01*
X186789057Y-111478885D01*
X186759500Y-111665510D01*
X186759500Y-111854488D01*
X186789057Y-112041113D01*
X186847449Y-112220825D01*
X186847451Y-112220828D01*
X186847452Y-112220831D01*
X186847453Y-112220832D01*
X186928500Y-112379898D01*
X186933240Y-112389199D01*
X186933242Y-112389202D01*
X186933247Y-112389210D01*
X187044305Y-112542067D01*
X187044307Y-112542069D01*
X187044310Y-112542073D01*
X187177927Y-112675690D01*
X187330801Y-112786760D01*
X187499168Y-112872547D01*
X187678882Y-112930940D01*
X187678883Y-112930940D01*
X187678886Y-112930941D01*
X187785413Y-112947813D01*
X187865513Y-112960500D01*
X188054484Y-112960500D01*
X188054487Y-112960500D01*
X188134587Y-112947813D01*
X188241113Y-112930941D01*
X188241113Y-112930940D01*
X188241115Y-112930940D01*
X188241118Y-112930940D01*
X188241121Y-112930939D01*
X188243697Y-112930531D01*
X188248504Y-112928539D01*
X188420832Y-112872547D01*
X188589199Y-112786760D01*
X188742073Y-112675690D01*
X188875690Y-112542073D01*
X188986760Y-112389199D01*
X189072547Y-112220832D01*
X189130940Y-112041118D01*
X189130941Y-112041113D01*
X189130941Y-112041107D01*
X189131217Y-112040059D01*
X189131676Y-112038850D01*
X189131833Y-112038369D01*
X189131856Y-112038376D01*
X189138782Y-112020163D01*
X189143078Y-112011732D01*
X189186337Y-111968468D01*
X189246769Y-111958893D01*
X189301287Y-111986667D01*
X189327218Y-112037550D01*
X189328149Y-112037327D01*
X189329055Y-112041105D01*
X189337652Y-112067563D01*
X189387453Y-112220832D01*
X189468500Y-112379898D01*
X189473240Y-112389199D01*
X189473242Y-112389202D01*
X189473247Y-112389210D01*
X189584305Y-112542067D01*
X189584307Y-112542069D01*
X189584310Y-112542073D01*
X189717927Y-112675690D01*
X189870801Y-112786760D01*
X190039168Y-112872547D01*
X190218882Y-112930940D01*
X190218883Y-112930940D01*
X190218886Y-112930941D01*
X190325413Y-112947813D01*
X190405513Y-112960500D01*
X190594484Y-112960500D01*
X190594487Y-112960500D01*
X190674587Y-112947813D01*
X190781113Y-112930941D01*
X190781113Y-112930940D01*
X190781115Y-112930940D01*
X190781118Y-112930940D01*
X190781121Y-112930939D01*
X190783697Y-112930531D01*
X190788504Y-112928539D01*
X190960832Y-112872547D01*
X191129199Y-112786760D01*
X191282073Y-112675690D01*
X191415690Y-112542073D01*
X191526760Y-112389199D01*
X191612547Y-112220832D01*
X191670940Y-112041118D01*
X191670941Y-112041113D01*
X191670941Y-112041107D01*
X191671217Y-112040059D01*
X191671676Y-112038850D01*
X191671833Y-112038369D01*
X191671856Y-112038376D01*
X191678782Y-112020163D01*
X191683078Y-112011732D01*
X191726337Y-111968468D01*
X191786769Y-111958893D01*
X191841287Y-111986667D01*
X191867218Y-112037550D01*
X191868149Y-112037327D01*
X191869055Y-112041105D01*
X191877652Y-112067563D01*
X191927453Y-112220832D01*
X192008500Y-112379898D01*
X192013240Y-112389199D01*
X192013242Y-112389202D01*
X192013247Y-112389210D01*
X192124305Y-112542067D01*
X192124307Y-112542069D01*
X192124310Y-112542073D01*
X192257927Y-112675690D01*
X192410801Y-112786760D01*
X192579168Y-112872547D01*
X192758882Y-112930940D01*
X192758883Y-112930940D01*
X192758886Y-112930941D01*
X192865413Y-112947813D01*
X192945513Y-112960500D01*
X193134484Y-112960500D01*
X193134487Y-112960500D01*
X193214587Y-112947813D01*
X193321113Y-112930941D01*
X193321113Y-112930940D01*
X193321115Y-112930940D01*
X193321118Y-112930940D01*
X193321121Y-112930939D01*
X193323697Y-112930531D01*
X193328504Y-112928539D01*
X193500832Y-112872547D01*
X193669199Y-112786760D01*
X193822073Y-112675690D01*
X193955690Y-112542073D01*
X194066760Y-112389199D01*
X194152547Y-112220832D01*
X194210940Y-112041118D01*
X194210941Y-112041113D01*
X194210941Y-112041107D01*
X194211217Y-112040059D01*
X194211676Y-112038850D01*
X194211833Y-112038369D01*
X194211856Y-112038376D01*
X194218782Y-112020163D01*
X194223078Y-112011732D01*
X194266337Y-111968468D01*
X194326769Y-111958893D01*
X194381287Y-111986667D01*
X194407218Y-112037550D01*
X194408149Y-112037327D01*
X194409055Y-112041105D01*
X194417652Y-112067563D01*
X194467453Y-112220832D01*
X194548500Y-112379898D01*
X194553240Y-112389199D01*
X194553242Y-112389202D01*
X194553247Y-112389210D01*
X194664305Y-112542067D01*
X194664307Y-112542069D01*
X194664310Y-112542073D01*
X194797927Y-112675690D01*
X194950801Y-112786760D01*
X195119168Y-112872547D01*
X195298882Y-112930940D01*
X195298883Y-112930940D01*
X195298886Y-112930941D01*
X195405413Y-112947813D01*
X195485513Y-112960500D01*
X195674484Y-112960500D01*
X195674487Y-112960500D01*
X195754587Y-112947813D01*
X195861113Y-112930941D01*
X195861113Y-112930940D01*
X195861115Y-112930940D01*
X195861118Y-112930940D01*
X195861121Y-112930939D01*
X195863697Y-112930531D01*
X195868504Y-112928539D01*
X196040832Y-112872547D01*
X196209199Y-112786760D01*
X196362073Y-112675690D01*
X196431410Y-112606351D01*
X196456468Y-112588146D01*
X196466216Y-112583179D01*
X196526649Y-112573613D01*
X196581163Y-112601394D01*
X196607417Y-112648270D01*
X196608761Y-112653865D01*
X196611499Y-112676988D01*
X196611499Y-113303819D01*
X196606653Y-113334412D01*
X196602531Y-113347098D01*
X196566579Y-113396589D01*
X196562458Y-113399584D01*
X196504270Y-113418500D01*
X183928928Y-113418500D01*
X183898334Y-113413654D01*
X183887932Y-113410274D01*
X183838432Y-113374309D01*
X183819526Y-113316118D01*
X183834103Y-113264412D01*
X183837118Y-113259491D01*
X183851520Y-113241218D01*
X183915411Y-113177328D01*
X184063443Y-112973580D01*
X184177777Y-112749187D01*
X184255603Y-112509663D01*
X184294999Y-112260926D01*
X184294999Y-111735001D01*
X184294998Y-111735000D01*
X184294997Y-111735000D01*
X183530597Y-111735000D01*
X183472406Y-111716093D01*
X183436442Y-111666593D01*
X183433499Y-111616687D01*
X183444998Y-111558874D01*
X183444999Y-111558867D01*
X183444999Y-111411132D01*
X183444998Y-111411125D01*
X183433499Y-111353313D01*
X183440691Y-111292552D01*
X183482224Y-111247623D01*
X183530597Y-111235000D01*
X184294997Y-111235000D01*
X184294998Y-111235000D01*
X184294999Y-111234999D01*
X184294999Y-110709073D01*
X184294999Y-110709069D01*
X184255604Y-110460340D01*
X184230368Y-110382671D01*
X184177777Y-110220812D01*
X184063443Y-109996419D01*
X183915411Y-109792671D01*
X183737327Y-109614587D01*
X183533579Y-109466555D01*
X183533578Y-109466554D01*
X183533576Y-109466553D01*
X183309186Y-109352221D01*
X183069657Y-109274393D01*
X182944999Y-109254649D01*
X182944999Y-110649402D01*
X182926092Y-110707593D01*
X182876592Y-110743557D01*
X182826686Y-110746500D01*
X182768873Y-110735000D01*
X182768868Y-110735000D01*
X182621130Y-110735000D01*
X182621124Y-110735000D01*
X182563312Y-110746500D01*
X182502551Y-110739308D01*
X182457622Y-110697775D01*
X182444999Y-110649402D01*
X182444999Y-109254652D01*
X182444999Y-109254651D01*
X182444998Y-109254650D01*
X182444997Y-109254650D01*
X182320339Y-109274393D01*
X182080810Y-109352221D01*
X181856420Y-109466553D01*
X181652671Y-109614586D01*
X181474585Y-109792672D01*
X181326553Y-109996420D01*
X181324526Y-109999729D01*
X181324172Y-109999512D01*
X181308661Y-110020857D01*
X181299230Y-110030286D01*
X181244721Y-110058056D01*
X181243635Y-110058228D01*
X181190267Y-110051913D01*
X181180534Y-110047882D01*
X181173470Y-110044626D01*
X181171789Y-110043769D01*
X181171787Y-110043768D01*
X181022589Y-109967748D01*
X181019910Y-109966331D01*
X181018104Y-109965340D01*
X181017437Y-109965123D01*
X180947840Y-109942509D01*
X180852700Y-109911596D01*
X180852695Y-109911595D01*
X180681616Y-109884500D01*
X180681613Y-109884500D01*
X180681610Y-109884500D01*
X180508388Y-109884500D01*
X180508385Y-109884500D01*
X180508382Y-109884500D01*
X180337301Y-109911595D01*
X180337296Y-109911596D01*
X180172560Y-109965123D01*
X180168684Y-109967000D01*
X180167406Y-109967749D01*
X180018213Y-110043765D01*
X180018207Y-110043769D01*
X179878069Y-110145586D01*
X179769643Y-110254011D01*
X179744587Y-110272216D01*
X179732704Y-110278271D01*
X179672272Y-110287843D01*
X179672270Y-110287843D01*
X179671184Y-110287671D01*
X179622375Y-110265169D01*
X179617368Y-110260893D01*
X179601575Y-110243807D01*
X179548449Y-110170686D01*
X179548447Y-110170684D01*
X179548445Y-110170681D01*
X179409313Y-110031549D01*
X179409309Y-110031546D01*
X179409307Y-110031544D01*
X179250155Y-109915912D01*
X179250141Y-109915903D01*
X179074831Y-109826579D01*
X178948505Y-109785534D01*
X178887705Y-109765779D01*
X178844999Y-109759014D01*
X178844999Y-110957093D01*
X178826092Y-111015284D01*
X178776592Y-111051248D01*
X178720377Y-111052720D01*
X178654243Y-111035000D01*
X178535755Y-111035000D01*
X178469621Y-111052720D01*
X178408520Y-111049517D01*
X178360970Y-111011012D01*
X178344999Y-110957093D01*
X178344999Y-109759015D01*
X178344999Y-109759014D01*
X178344998Y-109759014D01*
X178302292Y-109765779D01*
X178302291Y-109765779D01*
X178115165Y-109826579D01*
X177939856Y-109915902D01*
X177783084Y-110029804D01*
X177769832Y-110037924D01*
X177753096Y-110046450D01*
X177692663Y-110056016D01*
X177687617Y-110055217D01*
X177633124Y-110027444D01*
X177551482Y-109945802D01*
X177514151Y-109927552D01*
X177514151Y-109927551D01*
X177514149Y-109927551D01*
X177446400Y-109894429D01*
X177446396Y-109894428D01*
X177446394Y-109894427D01*
X177419138Y-109890456D01*
X177419137Y-109890455D01*
X177388654Y-109886014D01*
X177378259Y-109884500D01*
X177378257Y-109884500D01*
X175848251Y-109884500D01*
X175817660Y-109879655D01*
X175797134Y-109872986D01*
X175747635Y-109837024D01*
X175736283Y-109821399D01*
X175715419Y-109792680D01*
X175715415Y-109792676D01*
X175715413Y-109792673D01*
X175537327Y-109614587D01*
X175333579Y-109466555D01*
X175333578Y-109466554D01*
X175333576Y-109466553D01*
X175109186Y-109352221D01*
X174869657Y-109274393D01*
X174620928Y-109235000D01*
X174620925Y-109235000D01*
X174369073Y-109235000D01*
X174369070Y-109235000D01*
X174120338Y-109274394D01*
X173880810Y-109352221D01*
X173656420Y-109466553D01*
X173452671Y-109614586D01*
X173274585Y-109792672D01*
X173224778Y-109861224D01*
X173224778Y-109861225D01*
X173656429Y-110292876D01*
X174080919Y-110717366D01*
X174108696Y-110771883D01*
X174099125Y-110832315D01*
X174065917Y-110869685D01*
X174016906Y-110902433D01*
X173912433Y-111006906D01*
X173879686Y-111055917D01*
X173831636Y-111093797D01*
X173770498Y-111096199D01*
X173727366Y-111070920D01*
X172979122Y-110322676D01*
X172934394Y-110460336D01*
X172894999Y-110709069D01*
X172894999Y-112260929D01*
X172934393Y-112509660D01*
X172979122Y-112647322D01*
X173727364Y-111899078D01*
X173781881Y-111871301D01*
X173842313Y-111880872D01*
X173879683Y-111914080D01*
X173912432Y-111963092D01*
X173912433Y-111963093D01*
X173912436Y-111963097D01*
X174016902Y-112067563D01*
X174065913Y-112100311D01*
X174065915Y-112100312D01*
X174103795Y-112148362D01*
X174106197Y-112209500D01*
X174080918Y-112252631D01*
X173224778Y-113108772D01*
X173224778Y-113108773D01*
X173274578Y-113177319D01*
X173274583Y-113177325D01*
X173335667Y-113238410D01*
X173353874Y-113263470D01*
X173358838Y-113273213D01*
X173368408Y-113333645D01*
X173340629Y-113388161D01*
X173293750Y-113414418D01*
X173288155Y-113415762D01*
X173265032Y-113418500D01*
X157968179Y-113418500D01*
X157937586Y-113413654D01*
X157924900Y-113409532D01*
X157875400Y-113373568D01*
X157875393Y-113373558D01*
X157872399Y-113369436D01*
X157853499Y-113311256D01*
X157853499Y-104104680D01*
X157858342Y-104074094D01*
X157862464Y-104061405D01*
X157898422Y-104011906D01*
X157899021Y-104011471D01*
X157902562Y-104008900D01*
X157960742Y-103990000D01*
X160788354Y-103990000D01*
X160788355Y-103990000D01*
X160788356Y-103989999D01*
X160788356Y-102589000D01*
X160807263Y-102530809D01*
X160856763Y-102494845D01*
X160887356Y-102490000D01*
X161189356Y-102490000D01*
X161247547Y-102508907D01*
X161283511Y-102558407D01*
X161288356Y-102589000D01*
X161288356Y-103989999D01*
X161288357Y-103990000D01*
X164356176Y-103990000D01*
X164356180Y-103990000D01*
X164415726Y-103983598D01*
X164415737Y-103983596D01*
X164550444Y-103933353D01*
X164550446Y-103933352D01*
X164665540Y-103847192D01*
X164665548Y-103847184D01*
X164751708Y-103732090D01*
X164751709Y-103732088D01*
X164801952Y-103597381D01*
X164801954Y-103597370D01*
X164808356Y-103537824D01*
X164808356Y-102105001D01*
X164808355Y-102105000D01*
X164808354Y-102105000D01*
X163736700Y-102105000D01*
X163678509Y-102086093D01*
X163642545Y-102036593D01*
X163639602Y-101986685D01*
X163639910Y-101985137D01*
X163653356Y-101917542D01*
X163653356Y-101792458D01*
X163639911Y-101724864D01*
X165317857Y-101724864D01*
X165317857Y-101985138D01*
X165346191Y-102200354D01*
X165350982Y-102236741D01*
X165350982Y-102236746D01*
X165351828Y-102243177D01*
X165419193Y-102494589D01*
X165518794Y-102735049D01*
X165518838Y-102735137D01*
X165519230Y-102735803D01*
X165627012Y-102922485D01*
X165648932Y-102960451D01*
X165648934Y-102960454D01*
X165716125Y-103048019D01*
X165807376Y-103166940D01*
X165991417Y-103350981D01*
X166197906Y-103509425D01*
X166197908Y-103509426D01*
X166197920Y-103509433D01*
X166199062Y-103510148D01*
X166200480Y-103510911D01*
X166209194Y-103515942D01*
X166420298Y-103637824D01*
X166422552Y-103639125D01*
X166423223Y-103639519D01*
X166423306Y-103639561D01*
X166423309Y-103639562D01*
X166423312Y-103639564D01*
X166619355Y-103720767D01*
X166663770Y-103739164D01*
X166915174Y-103806527D01*
X167173220Y-103840500D01*
X167173221Y-103840500D01*
X170703493Y-103840500D01*
X170703494Y-103840500D01*
X170961540Y-103806527D01*
X171212944Y-103739164D01*
X171378948Y-103670403D01*
X171447434Y-103642035D01*
X171453573Y-103639952D01*
X171457889Y-103637824D01*
X171463136Y-103633943D01*
X171678808Y-103509425D01*
X171885297Y-103350981D01*
X172069338Y-103166940D01*
X172227782Y-102960451D01*
X172357919Y-102735048D01*
X172457521Y-102494587D01*
X172524884Y-102243183D01*
X172558857Y-101985137D01*
X172558857Y-101724863D01*
X172524884Y-101466817D01*
X172457521Y-101215413D01*
X172439124Y-101170998D01*
X172357921Y-100974955D01*
X172357918Y-100974950D01*
X172357918Y-100974949D01*
X172357876Y-100974866D01*
X172357482Y-100974195D01*
X172229268Y-100752123D01*
X172228505Y-100750705D01*
X172227784Y-100749553D01*
X172227783Y-100749551D01*
X172227782Y-100749549D01*
X172069338Y-100543060D01*
X171885297Y-100359019D01*
X171678808Y-100200575D01*
X171678805Y-100200573D01*
X171678799Y-100200569D01*
X171678797Y-100200568D01*
X171454160Y-100070873D01*
X171453494Y-100070481D01*
X171453406Y-100070437D01*
X171212946Y-99970836D01*
X171066430Y-99931578D01*
X171066411Y-99931573D01*
X170961540Y-99903473D01*
X170961537Y-99903472D01*
X170961535Y-99903472D01*
X170952398Y-99902269D01*
X170952387Y-99902267D01*
X170703494Y-99869500D01*
X169279009Y-99869500D01*
X169248409Y-99864652D01*
X169240569Y-99862104D01*
X169191072Y-99826137D01*
X169172169Y-99767945D01*
X169191076Y-99709761D01*
X169196140Y-99702791D01*
X169215966Y-99682440D01*
X169220200Y-99679191D01*
X169330450Y-99594593D01*
X169422697Y-99474375D01*
X169480686Y-99334378D01*
X169494085Y-99232596D01*
X169498485Y-99213719D01*
X169507730Y-99186476D01*
X169519159Y-99163299D01*
X169577375Y-99076173D01*
X169577380Y-99076166D01*
X169579944Y-99072327D01*
X169579956Y-99072310D01*
X169582019Y-99069220D01*
X169585083Y-99064637D01*
X169641657Y-98928055D01*
X169670499Y-98783060D01*
X169670499Y-98558342D01*
X169675346Y-98527745D01*
X169678867Y-98516910D01*
X169714833Y-98467412D01*
X169773020Y-98448507D01*
X169781194Y-98448507D01*
X169819079Y-98456043D01*
X169887711Y-98484471D01*
X169913237Y-98495044D01*
X170030638Y-98510500D01*
X170934359Y-98510499D01*
X171051761Y-98495044D01*
X171111304Y-98470379D01*
X171141421Y-98463148D01*
X171154721Y-98462102D01*
X171214206Y-98476382D01*
X171217906Y-98478649D01*
X171248347Y-98514286D01*
X171250952Y-98512677D01*
X171256234Y-98521223D01*
X171257757Y-98523772D01*
X171329487Y-98648012D01*
X171329489Y-98648015D01*
X172155847Y-99474373D01*
X172954417Y-100272943D01*
X172972622Y-100298001D01*
X172983708Y-100319758D01*
X172994499Y-100364704D01*
X172994499Y-102637526D01*
X172994499Y-102782474D01*
X173032015Y-102922485D01*
X173104489Y-103048015D01*
X173104490Y-103048016D01*
X173104492Y-103048019D01*
X173511985Y-103455510D01*
X173511990Y-103455514D01*
X173571570Y-103489912D01*
X173605366Y-103509425D01*
X173605367Y-103509425D01*
X173616651Y-103515940D01*
X173616655Y-103515942D01*
X173637513Y-103527984D01*
X173637515Y-103527985D01*
X173777522Y-103565500D01*
X173777524Y-103565501D01*
X173777525Y-103565501D01*
X173777526Y-103565501D01*
X173922475Y-103565501D01*
X174720676Y-103565501D01*
X174751266Y-103570345D01*
X174767993Y-103575780D01*
X174812673Y-103605631D01*
X174816950Y-103610639D01*
X174829884Y-103629994D01*
X174850471Y-103670400D01*
X174850472Y-103670401D01*
X174850475Y-103670406D01*
X174966171Y-103829647D01*
X175105353Y-103968829D01*
X175105356Y-103968831D01*
X175105409Y-103968884D01*
X175105659Y-103969092D01*
X175108048Y-103971107D01*
X175108730Y-103972205D01*
X175108811Y-103972286D01*
X175108792Y-103972304D01*
X175110097Y-103974405D01*
X175124312Y-103988593D01*
X175129158Y-103995263D01*
X175135845Y-104015844D01*
X175140339Y-104023077D01*
X175139947Y-104028471D01*
X175148065Y-104053453D01*
X175129157Y-104111644D01*
X175079661Y-104147607D01*
X175071820Y-104150155D01*
X175041224Y-104155001D01*
X174972175Y-104155001D01*
X174912628Y-104161402D01*
X174912626Y-104161402D01*
X174912619Y-104161403D01*
X174912617Y-104161404D01*
X174845263Y-104186525D01*
X174777912Y-104211646D01*
X174777909Y-104211647D01*
X174777903Y-104211651D01*
X174662815Y-104297806D01*
X174662804Y-104297817D01*
X174576649Y-104412905D01*
X174576645Y-104412911D01*
X174576644Y-104412914D01*
X174526403Y-104547617D01*
X174526402Y-104547620D01*
X174526401Y-104547627D01*
X174526400Y-104547630D01*
X174519999Y-104607176D01*
X174519999Y-105305000D01*
X174520000Y-105305001D01*
X175392093Y-105305001D01*
X175450284Y-105323908D01*
X175486248Y-105373408D01*
X175487719Y-105429625D01*
X175469999Y-105495754D01*
X175469999Y-105614247D01*
X175487719Y-105680377D01*
X175484518Y-105741479D01*
X175446013Y-105789029D01*
X175392093Y-105805001D01*
X174520000Y-105805001D01*
X174519999Y-105805002D01*
X174519999Y-105805003D01*
X174519999Y-106464889D01*
X174516933Y-106474322D01*
X174519998Y-106502825D01*
X174526400Y-106562371D01*
X174526402Y-106562382D01*
X174576644Y-106697086D01*
X174576645Y-106697089D01*
X174576649Y-106697095D01*
X174662804Y-106812183D01*
X174662806Y-106812185D01*
X174662814Y-106812193D01*
X174777908Y-106898353D01*
X174777910Y-106898354D01*
X174912617Y-106948597D01*
X174912628Y-106948599D01*
X174972175Y-106955001D01*
X175669997Y-106955001D01*
X175669998Y-106955001D01*
X175669999Y-106955000D01*
X175669999Y-106082907D01*
X175688906Y-106024716D01*
X175738406Y-105988752D01*
X175794623Y-105987281D01*
X175822185Y-105994666D01*
X175860752Y-106005000D01*
X175860754Y-106005001D01*
X175979243Y-106005001D01*
X175979244Y-106005001D01*
X175979244Y-106005000D01*
X176039885Y-105988752D01*
X176045375Y-105987281D01*
X176106477Y-105990482D01*
X176154027Y-106028987D01*
X176169999Y-106082907D01*
X176169999Y-106955000D01*
X176170000Y-106955001D01*
X176867819Y-106955001D01*
X176867823Y-106955001D01*
X176927369Y-106948599D01*
X176927380Y-106948597D01*
X177062087Y-106898354D01*
X177062089Y-106898353D01*
X177177183Y-106812193D01*
X177177191Y-106812185D01*
X177263351Y-106697091D01*
X177263352Y-106697089D01*
X177313595Y-106562382D01*
X177313597Y-106562371D01*
X177319999Y-106502825D01*
X177319999Y-105805002D01*
X177319998Y-105805001D01*
X177319997Y-105805001D01*
X176447905Y-105805001D01*
X176389714Y-105786094D01*
X176353750Y-105736594D01*
X176352279Y-105680377D01*
X176369998Y-105614247D01*
X176369999Y-105614245D01*
X176369999Y-105495756D01*
X176369998Y-105495754D01*
X176352279Y-105429625D01*
X176355480Y-105368523D01*
X176393985Y-105320973D01*
X176447905Y-105305001D01*
X177319997Y-105305001D01*
X177319998Y-105305001D01*
X177319999Y-105305000D01*
X177319999Y-104607176D01*
X177313597Y-104547630D01*
X177313595Y-104547619D01*
X177263352Y-104412912D01*
X177263351Y-104412910D01*
X177177191Y-104297816D01*
X177177183Y-104297808D01*
X177177181Y-104297806D01*
X177062093Y-104211651D01*
X177062087Y-104211647D01*
X177062084Y-104211646D01*
X176927380Y-104161404D01*
X176927372Y-104161402D01*
X176927370Y-104161402D01*
X176907520Y-104159268D01*
X176867823Y-104155001D01*
X176867821Y-104155001D01*
X176798772Y-104155001D01*
X176768172Y-104150153D01*
X176760332Y-104147605D01*
X176710835Y-104111638D01*
X176691932Y-104053446D01*
X176710838Y-103995265D01*
X176715784Y-103988457D01*
X176733118Y-103970080D01*
X176734631Y-103968838D01*
X176734639Y-103968833D01*
X176734645Y-103968829D01*
X176873827Y-103829647D01*
X176989523Y-103670406D01*
X176989527Y-103670400D01*
X177037737Y-103575780D01*
X177078883Y-103495026D01*
X177139708Y-103307827D01*
X177170499Y-103113418D01*
X177170499Y-102916584D01*
X177170499Y-102916580D01*
X177170499Y-102916576D01*
X177139710Y-102722185D01*
X177139709Y-102722179D01*
X177139708Y-102722175D01*
X177078883Y-102534976D01*
X176989523Y-102359596D01*
X176873827Y-102200355D01*
X176734645Y-102061173D01*
X176734641Y-102061170D01*
X176734639Y-102061168D01*
X176583863Y-101951622D01*
X176583852Y-101951614D01*
X176575404Y-101945477D01*
X176575403Y-101945476D01*
X176575401Y-101945475D01*
X176400024Y-101856117D01*
X176212820Y-101795290D01*
X176212814Y-101795288D01*
X176018423Y-101764501D01*
X176018419Y-101764501D01*
X176018416Y-101764501D01*
X175821582Y-101764501D01*
X175821579Y-101764501D01*
X175821575Y-101764501D01*
X175627181Y-101795288D01*
X175439972Y-101856117D01*
X175264596Y-101945474D01*
X175264590Y-101945478D01*
X175105359Y-102061167D01*
X174966165Y-102200361D01*
X174850473Y-102359596D01*
X174850471Y-102359599D01*
X174831683Y-102396474D01*
X174813478Y-102421533D01*
X174801043Y-102433968D01*
X174754161Y-102460226D01*
X174751972Y-102460751D01*
X174747758Y-102461763D01*
X174724640Y-102464501D01*
X174210179Y-102464501D01*
X174179586Y-102459655D01*
X174166900Y-102455533D01*
X174117400Y-102419569D01*
X174117393Y-102419559D01*
X174114399Y-102415437D01*
X174095499Y-102357257D01*
X174095499Y-100012524D01*
X174086224Y-99977910D01*
X174073808Y-99931574D01*
X174057983Y-99872515D01*
X174056242Y-99869500D01*
X173992816Y-99759641D01*
X173992814Y-99759639D01*
X173985509Y-99746985D01*
X172594111Y-98355587D01*
X172575906Y-98330529D01*
X172570941Y-98320785D01*
X172561369Y-98260353D01*
X172589145Y-98205836D01*
X172636039Y-98179575D01*
X172641641Y-98178230D01*
X172664741Y-98175497D01*
X173001436Y-98175497D01*
X173001441Y-98175497D01*
X173059261Y-98169282D01*
X173190067Y-98120493D01*
X173190069Y-98120490D01*
X173196691Y-98118021D01*
X173196699Y-98118020D01*
X173196734Y-98118005D01*
X173198181Y-98117466D01*
X173208256Y-98114314D01*
X173230750Y-98108573D01*
X173255232Y-98105498D01*
X174554819Y-98105498D01*
X174585407Y-98110341D01*
X174598094Y-98114464D01*
X174647594Y-98150425D01*
X174647595Y-98150426D01*
X174650590Y-98154548D01*
X174669499Y-98212738D01*
X174669499Y-98423265D01*
X174672031Y-98440643D01*
X174672033Y-98440649D01*
X174673178Y-98448507D01*
X174679426Y-98491394D01*
X174700211Y-98533909D01*
X174703472Y-98540581D01*
X174703474Y-98540585D01*
X174730800Y-98596480D01*
X174730801Y-98596482D01*
X174813516Y-98679197D01*
X174867284Y-98705482D01*
X174918372Y-98730458D01*
X174918599Y-98730570D01*
X174918604Y-98730571D01*
X174918606Y-98730572D01*
X174918610Y-98730572D01*
X174921874Y-98731327D01*
X174925692Y-98731604D01*
X174986739Y-98740499D01*
X174986742Y-98740499D01*
X175268276Y-98740499D01*
X175291033Y-98747893D01*
X175306719Y-98747895D01*
X175319397Y-98757109D01*
X175326467Y-98759406D01*
X175329424Y-98761641D01*
X175335593Y-98766486D01*
X175334396Y-98768009D01*
X175356214Y-98783865D01*
X175375115Y-98842057D01*
X175356201Y-98900246D01*
X175354531Y-98902544D01*
X175319391Y-98932553D01*
X175264593Y-98960474D01*
X175105359Y-99076165D01*
X174966165Y-99215359D01*
X174850476Y-99374590D01*
X174850472Y-99374596D01*
X174761115Y-99549972D01*
X174700286Y-99737182D01*
X174669499Y-99931573D01*
X174669499Y-100128423D01*
X174700286Y-100322814D01*
X174712048Y-100359013D01*
X174761115Y-100510024D01*
X174777947Y-100543060D01*
X174850475Y-100685404D01*
X174966171Y-100844645D01*
X175105353Y-100983827D01*
X175264594Y-101099523D01*
X175439974Y-101188883D01*
X175627173Y-101249708D01*
X175627174Y-101249708D01*
X175627177Y-101249709D01*
X175751427Y-101269388D01*
X175821576Y-101280499D01*
X176018419Y-101280499D01*
X176018422Y-101280499D01*
X176095710Y-101268257D01*
X176212820Y-101249709D01*
X176212820Y-101249708D01*
X176212822Y-101249708D01*
X176212825Y-101249708D01*
X176212828Y-101249707D01*
X176215404Y-101249299D01*
X176220211Y-101247307D01*
X176400024Y-101188883D01*
X176575404Y-101099523D01*
X176734645Y-100983827D01*
X176873827Y-100844645D01*
X176989523Y-100685404D01*
X177078883Y-100510024D01*
X177139708Y-100322825D01*
X177145853Y-100284028D01*
X177159071Y-100200573D01*
X177170499Y-100128422D01*
X177170499Y-99931574D01*
X177139710Y-99737181D01*
X177137453Y-99730235D01*
X177137453Y-99730234D01*
X177133942Y-99719428D01*
X177078883Y-99549974D01*
X176989523Y-99374594D01*
X176873827Y-99215353D01*
X176734645Y-99076171D01*
X176734641Y-99076168D01*
X176734639Y-99076166D01*
X176583868Y-98966623D01*
X176583849Y-98966610D01*
X176575404Y-98960475D01*
X176575403Y-98960474D01*
X176575401Y-98960473D01*
X176525068Y-98934827D01*
X176500010Y-98916622D01*
X176494180Y-98910792D01*
X176466403Y-98856275D01*
X176475974Y-98795843D01*
X176519237Y-98752579D01*
X176521772Y-98751287D01*
X176566714Y-98740499D01*
X176853256Y-98740499D01*
X176853259Y-98740499D01*
X176921392Y-98730572D01*
X177026482Y-98679197D01*
X177109197Y-98596482D01*
X177160572Y-98491392D01*
X177170499Y-98423259D01*
X177170499Y-96556739D01*
X177160572Y-96488606D01*
X177109197Y-96383516D01*
X177026482Y-96300801D01*
X177026480Y-96300800D01*
X177026479Y-96300799D01*
X177016132Y-96295741D01*
X176921394Y-96249426D01*
X176894138Y-96245455D01*
X176894137Y-96245454D01*
X176863654Y-96241013D01*
X176853259Y-96239499D01*
X176853257Y-96239499D01*
X174986735Y-96239499D01*
X174952669Y-96244462D01*
X174952668Y-96244461D01*
X174918605Y-96249425D01*
X174918603Y-96249425D01*
X174813519Y-96300798D01*
X174730799Y-96383518D01*
X174679426Y-96488603D01*
X174678669Y-96491873D01*
X174678392Y-96495703D01*
X174672180Y-96538341D01*
X174669499Y-96556742D01*
X174669499Y-96889817D01*
X174664653Y-96920410D01*
X174660531Y-96933096D01*
X174624579Y-96982587D01*
X174620458Y-96985582D01*
X174562270Y-97004498D01*
X173255232Y-97004498D01*
X173230747Y-97001422D01*
X173206634Y-96995267D01*
X173195264Y-96991622D01*
X173190705Y-96989850D01*
X173190074Y-96989506D01*
X173190068Y-96989503D01*
X173190067Y-96989503D01*
X173183663Y-96987114D01*
X173183626Y-96987100D01*
X173063407Y-96942260D01*
X173059935Y-96940785D01*
X173031156Y-96937691D01*
X173020239Y-96936518D01*
X173020237Y-96936517D01*
X173001451Y-96934498D01*
X173001442Y-96934498D01*
X173001438Y-96934498D01*
X172538562Y-96934498D01*
X172538558Y-96934498D01*
X172536802Y-96934561D01*
X172536800Y-96934498D01*
X172536797Y-96934498D01*
X172536797Y-96934420D01*
X172536791Y-96934273D01*
X172511948Y-96932576D01*
X172500509Y-96930172D01*
X172447451Y-96899701D01*
X172422437Y-96843866D01*
X172421779Y-96837743D01*
X172427455Y-96792565D01*
X172434283Y-96774262D01*
X172440499Y-96716443D01*
X172440498Y-96353558D01*
X172434283Y-96295738D01*
X172385494Y-96164932D01*
X172360607Y-96131687D01*
X172349638Y-96117033D01*
X172335188Y-96089646D01*
X172325789Y-96062066D01*
X172320499Y-96030136D01*
X172320499Y-96004713D01*
X172325343Y-95974124D01*
X172325625Y-95973257D01*
X172332890Y-95950893D01*
X172357039Y-95911484D01*
X172407944Y-95860579D01*
X172432996Y-95842378D01*
X172454763Y-95831288D01*
X172499704Y-95820500D01*
X173426206Y-95820500D01*
X173438099Y-95813633D01*
X173439182Y-95813343D01*
X173552484Y-95782984D01*
X173553366Y-95782475D01*
X173678014Y-95710510D01*
X174244562Y-95143962D01*
X174317036Y-95018432D01*
X174317037Y-95018428D01*
X174317038Y-95018427D01*
X174322543Y-94997878D01*
X174328649Y-94975093D01*
X174340201Y-94931984D01*
X174342290Y-94924186D01*
X174342298Y-94924174D01*
X174354886Y-94895896D01*
X174363517Y-94882605D01*
X174406838Y-94845835D01*
X174415472Y-94842055D01*
X174428269Y-94838395D01*
X174428099Y-94837844D01*
X174435443Y-94835575D01*
X174453321Y-94826835D01*
X174540535Y-94784199D01*
X174603926Y-94720806D01*
X174628975Y-94702607D01*
X174642765Y-94695581D01*
X174699348Y-94685478D01*
X174703579Y-94685978D01*
X174709299Y-94686656D01*
X174726162Y-94691133D01*
X174726432Y-94690246D01*
X174731083Y-94691656D01*
X174731086Y-94691658D01*
X174876081Y-94720500D01*
X174876082Y-94720500D01*
X175023916Y-94720500D01*
X175023917Y-94720500D01*
X175168912Y-94691658D01*
X175168914Y-94691656D01*
X175173685Y-94690708D01*
X175173695Y-94690760D01*
X175189837Y-94687713D01*
X175206815Y-94686376D01*
X175262959Y-94698692D01*
X175271700Y-94703587D01*
X175293331Y-94719961D01*
X175326370Y-94752999D01*
X175357569Y-94784198D01*
X175381097Y-94795700D01*
X175381099Y-94795701D01*
X175420448Y-94814938D01*
X175462345Y-94835420D01*
X175462648Y-94835570D01*
X175462655Y-94835571D01*
X175462656Y-94835572D01*
X175462657Y-94835572D01*
X175462659Y-94835573D01*
X175462664Y-94835573D01*
X175465928Y-94836329D01*
X175469745Y-94836605D01*
X175530792Y-94845500D01*
X175530795Y-94845500D01*
X176657309Y-94845500D01*
X176657312Y-94845500D01*
X176725445Y-94835573D01*
X176830535Y-94784198D01*
X176913250Y-94701483D01*
X176964625Y-94596393D01*
X176974552Y-94528260D01*
X176974552Y-93401740D01*
X176964625Y-93333607D01*
X176964624Y-93333604D01*
X176954130Y-93312139D01*
X176954129Y-93312138D01*
X176925985Y-93254567D01*
X176918340Y-93238929D01*
X176913250Y-93228517D01*
X176830535Y-93145802D01*
X176830533Y-93145801D01*
X176830532Y-93145800D01*
X176810674Y-93136092D01*
X176810673Y-93136092D01*
X176725447Y-93094427D01*
X176698191Y-93090456D01*
X176698190Y-93090455D01*
X176667707Y-93086014D01*
X176657312Y-93084500D01*
X176657310Y-93084500D01*
X175530788Y-93084500D01*
X175496722Y-93089463D01*
X175496721Y-93089462D01*
X175462659Y-93094426D01*
X175462657Y-93094426D01*
X175462656Y-93094427D01*
X175410142Y-93120100D01*
X175357568Y-93145802D01*
X175287665Y-93215704D01*
X175262608Y-93233908D01*
X175248819Y-93240934D01*
X175192241Y-93251039D01*
X175172007Y-93248645D01*
X175164325Y-93247429D01*
X175023919Y-93219500D01*
X175023917Y-93219500D01*
X174876081Y-93219500D01*
X174876080Y-93219500D01*
X174876077Y-93219500D01*
X174733656Y-93247830D01*
X174722090Y-93249428D01*
X174698882Y-93251250D01*
X174642757Y-93238929D01*
X174634026Y-93234039D01*
X174612403Y-93217671D01*
X174540535Y-93145803D01*
X174520671Y-93136092D01*
X174435447Y-93094428D01*
X174408191Y-93090457D01*
X174408190Y-93090456D01*
X174377707Y-93086015D01*
X174367312Y-93084501D01*
X174367310Y-93084501D01*
X173240788Y-93084501D01*
X173206722Y-93089464D01*
X173206721Y-93089463D01*
X173172658Y-93094427D01*
X173172656Y-93094427D01*
X173067572Y-93145800D01*
X172984852Y-93228520D01*
X172933479Y-93333605D01*
X172932722Y-93336876D01*
X172932445Y-93340704D01*
X172923605Y-93401381D01*
X172923552Y-93401743D01*
X172923552Y-94528260D01*
X172930835Y-94578251D01*
X172931858Y-94593965D01*
X172931499Y-94618610D01*
X172911747Y-94676519D01*
X172862421Y-94711541D01*
X172851908Y-94714873D01*
X172821997Y-94719500D01*
X172496475Y-94719500D01*
X172465878Y-94714653D01*
X172454794Y-94711051D01*
X172405296Y-94675085D01*
X172386394Y-94617625D01*
X172386216Y-94593394D01*
X172387246Y-94578400D01*
X172394552Y-94528260D01*
X172394552Y-93401740D01*
X172384625Y-93333607D01*
X172384624Y-93333604D01*
X172374130Y-93312139D01*
X172374129Y-93312138D01*
X172345985Y-93254567D01*
X172338340Y-93238929D01*
X172333250Y-93228517D01*
X172300264Y-93195531D01*
X172263673Y-93158939D01*
X172245469Y-93133883D01*
X172238445Y-93120097D01*
X172228343Y-93063515D01*
X172229523Y-93053551D01*
X172234709Y-93033686D01*
X172234299Y-93033562D01*
X172235705Y-93028923D01*
X172235710Y-93028913D01*
X172256496Y-92924416D01*
X172264552Y-92883918D01*
X172264552Y-92736082D01*
X172235710Y-92591087D01*
X172179136Y-92454505D01*
X172097003Y-92331584D01*
X171992468Y-92227049D01*
X171869547Y-92144916D01*
X171869545Y-92144915D01*
X171732966Y-92088342D01*
X171732964Y-92088341D01*
X171587972Y-92059500D01*
X171587970Y-92059500D01*
X171440134Y-92059500D01*
X171440133Y-92059500D01*
X171440130Y-92059500D01*
X171295137Y-92088342D01*
X171295135Y-92088342D01*
X171158562Y-92144912D01*
X171158550Y-92144918D01*
X171035638Y-92227047D01*
X170931099Y-92331586D01*
X170848970Y-92454498D01*
X170848964Y-92454510D01*
X170792394Y-92591083D01*
X170792394Y-92591085D01*
X170763552Y-92736078D01*
X170763552Y-92883920D01*
X170792393Y-93028911D01*
X170793806Y-93033567D01*
X170792980Y-93033817D01*
X170798203Y-93055602D01*
X170799417Y-93071028D01*
X170787097Y-93127172D01*
X170782203Y-93135910D01*
X170765833Y-93157536D01*
X170694853Y-93228517D01*
X170694851Y-93228520D01*
X170643479Y-93333603D01*
X170643002Y-93336876D01*
X170638966Y-93364581D01*
X170633552Y-93401740D01*
X170633552Y-94528260D01*
X170634964Y-94537950D01*
X170643479Y-94596395D01*
X170673019Y-94656819D01*
X170676214Y-94663356D01*
X170676218Y-94663366D01*
X170694851Y-94701478D01*
X170694852Y-94701480D01*
X170694853Y-94701481D01*
X170694854Y-94701483D01*
X170777569Y-94784198D01*
X170777570Y-94784198D01*
X170777571Y-94784199D01*
X170801097Y-94795700D01*
X170801099Y-94795701D01*
X170840448Y-94814938D01*
X170882345Y-94835420D01*
X170882648Y-94835570D01*
X170882655Y-94835571D01*
X170882656Y-94835572D01*
X170882657Y-94835572D01*
X170882659Y-94835573D01*
X170882664Y-94835573D01*
X170885928Y-94836329D01*
X170889745Y-94836605D01*
X170950792Y-94845500D01*
X171611286Y-94845500D01*
X171641874Y-94850343D01*
X171652277Y-94853723D01*
X171701777Y-94889685D01*
X171720687Y-94947875D01*
X171706094Y-94999614D01*
X171703087Y-95004520D01*
X171688684Y-95022788D01*
X171339384Y-95372089D01*
X171325446Y-95383680D01*
X171308931Y-95395028D01*
X171250264Y-95412400D01*
X171192590Y-95391970D01*
X171192586Y-95391967D01*
X171188314Y-95388688D01*
X171162106Y-95356922D01*
X171161644Y-95357191D01*
X171160076Y-95354493D01*
X171107606Y-95275966D01*
X171107606Y-95275967D01*
X171077948Y-95231581D01*
X170973416Y-95127050D01*
X170973413Y-95127048D01*
X170850494Y-95044916D01*
X170805877Y-95026435D01*
X170770270Y-95011686D01*
X170713916Y-94988343D01*
X170713910Y-94988341D01*
X170568919Y-94959500D01*
X170568917Y-94959500D01*
X170421081Y-94959500D01*
X170421080Y-94959500D01*
X170421077Y-94959500D01*
X170276084Y-94988342D01*
X170276082Y-94988342D01*
X170139509Y-95044912D01*
X170139497Y-95044918D01*
X170016585Y-95127047D01*
X169912046Y-95231586D01*
X169829917Y-95354498D01*
X169829913Y-95354507D01*
X169773339Y-95491087D01*
X169773338Y-95491091D01*
X169762447Y-95545846D01*
X169762347Y-95546338D01*
X169761912Y-95548467D01*
X169761656Y-95549492D01*
X169760841Y-95553585D01*
X169760841Y-95553587D01*
X169759881Y-95558409D01*
X169759859Y-95558521D01*
X169751452Y-95600788D01*
X169751452Y-95600789D01*
X169731999Y-95698582D01*
X169731999Y-96047939D01*
X169727153Y-96078532D01*
X169720366Y-96099420D01*
X169686479Y-96147369D01*
X169641729Y-96181706D01*
X169641706Y-96181729D01*
X169545237Y-96307450D01*
X169544217Y-96310162D01*
X169492965Y-96433898D01*
X169476782Y-96460308D01*
X169466733Y-96472074D01*
X169418332Y-96503060D01*
X169408687Y-96505781D01*
X169381807Y-96509500D01*
X168846077Y-96509500D01*
X168701084Y-96538342D01*
X168701082Y-96538342D01*
X168564509Y-96594912D01*
X168564497Y-96594918D01*
X168441585Y-96677047D01*
X168337046Y-96781586D01*
X168254917Y-96904498D01*
X168254911Y-96904510D01*
X168198341Y-97041083D01*
X168198341Y-97041085D01*
X168169499Y-97186078D01*
X168169499Y-98124819D01*
X168164653Y-98155413D01*
X168157866Y-98176300D01*
X168123980Y-98224247D01*
X168059561Y-98273678D01*
X168059540Y-98273699D01*
X167967300Y-98393908D01*
X167967298Y-98393912D01*
X167909318Y-98533890D01*
X167909314Y-98533900D01*
X167909312Y-98533906D01*
X167909311Y-98533906D01*
X167894499Y-98646419D01*
X167894499Y-99221864D01*
X167906247Y-99311100D01*
X167909311Y-99334375D01*
X167909312Y-99334378D01*
X167967301Y-99474375D01*
X168059548Y-99594593D01*
X168166965Y-99677018D01*
X168185339Y-99698590D01*
X168192165Y-99702530D01*
X168199692Y-99719428D01*
X168201887Y-99723497D01*
X168201578Y-99723663D01*
X168217061Y-99758421D01*
X168204350Y-99818272D01*
X168158887Y-99859220D01*
X168155039Y-99860934D01*
X168114757Y-99869500D01*
X167173218Y-99869500D01*
X166921614Y-99902625D01*
X166921606Y-99902625D01*
X166915178Y-99903471D01*
X166663766Y-99970836D01*
X166423306Y-100070437D01*
X166423212Y-100070484D01*
X166422552Y-100070873D01*
X166197910Y-100200571D01*
X165991423Y-100359013D01*
X165807370Y-100543066D01*
X165648928Y-100749553D01*
X165519230Y-100974195D01*
X165518841Y-100974855D01*
X165518794Y-100974949D01*
X165419193Y-101215409D01*
X165351828Y-101466821D01*
X165350982Y-101473253D01*
X165350982Y-101473257D01*
X165333638Y-101604999D01*
X165333638Y-101605000D01*
X165317857Y-101724864D01*
X163639911Y-101724864D01*
X163639602Y-101723312D01*
X163646794Y-101662552D01*
X163688328Y-101617622D01*
X163736700Y-101605000D01*
X164808354Y-101605000D01*
X164808355Y-101605000D01*
X164808356Y-101604999D01*
X164808356Y-100172175D01*
X164801954Y-100112629D01*
X164801952Y-100112618D01*
X164751709Y-99977911D01*
X164751708Y-99977909D01*
X164695082Y-99902267D01*
X164665549Y-99862816D01*
X164665538Y-99862805D01*
X164550450Y-99776650D01*
X164550444Y-99776646D01*
X164550441Y-99776645D01*
X164415737Y-99726403D01*
X164415729Y-99726401D01*
X164415727Y-99726401D01*
X164388711Y-99723497D01*
X164356180Y-99720000D01*
X164356178Y-99720000D01*
X161288358Y-99720000D01*
X161288357Y-99720000D01*
X161288356Y-99720001D01*
X161288356Y-99720002D01*
X161288356Y-101121000D01*
X161269449Y-101179191D01*
X161219949Y-101215155D01*
X161189356Y-101220000D01*
X160887356Y-101220000D01*
X160829165Y-101201093D01*
X160793201Y-101151593D01*
X160788356Y-101121000D01*
X160788356Y-99701719D01*
X160792707Y-99672691D01*
X160792938Y-99671935D01*
X160798321Y-99655370D01*
X160798321Y-99654385D01*
X160800683Y-99646684D01*
X160801839Y-99645035D01*
X160803882Y-99637794D01*
X160804511Y-99636277D01*
X160815868Y-99616005D01*
X160909823Y-99486686D01*
X160909825Y-99486683D01*
X161025946Y-99258782D01*
X161104986Y-99015519D01*
X161132460Y-98842057D01*
X161144999Y-98762895D01*
X161144999Y-98507103D01*
X161108028Y-98273685D01*
X161104986Y-98254480D01*
X161025946Y-98011217D01*
X160909824Y-97783314D01*
X160909820Y-97783308D01*
X160909813Y-97783298D01*
X160832149Y-97676403D01*
X160832148Y-97676403D01*
X160832147Y-97676403D01*
X160832146Y-97676403D01*
X160287630Y-98220918D01*
X160233114Y-98248695D01*
X160172682Y-98239124D01*
X160135312Y-98205916D01*
X160102565Y-98156907D01*
X160102564Y-98156906D01*
X160102562Y-98156903D01*
X159998096Y-98052437D01*
X159998092Y-98052434D01*
X159998091Y-98052433D01*
X159949079Y-98019684D01*
X159911200Y-97971634D01*
X159908798Y-97910496D01*
X159934078Y-97867365D01*
X160125040Y-97676403D01*
X160478594Y-97322850D01*
X160478593Y-97322849D01*
X160411095Y-97273808D01*
X160389197Y-97251910D01*
X160384352Y-97245242D01*
X160365442Y-97187052D01*
X160384347Y-97128861D01*
X160433844Y-97092895D01*
X160439559Y-97091038D01*
X160441698Y-97090344D01*
X160472283Y-97085501D01*
X162342473Y-97085501D01*
X162342474Y-97085501D01*
X162482484Y-97047985D01*
X162494432Y-97041087D01*
X162608014Y-96975511D01*
X163700510Y-95883015D01*
X163772984Y-95757485D01*
X163779930Y-95731559D01*
X163786257Y-95707953D01*
X163788767Y-95698585D01*
X163788767Y-95698584D01*
X163792558Y-95684433D01*
X163810500Y-95617474D01*
X163810500Y-95071568D01*
X163813574Y-95047088D01*
X163814128Y-95044918D01*
X163819318Y-95024583D01*
X163822481Y-95014482D01*
X163825493Y-95006406D01*
X163825495Y-95006404D01*
X163874284Y-94875598D01*
X163880500Y-94817779D01*
X163880499Y-94354894D01*
X163874284Y-94297074D01*
X163825495Y-94166268D01*
X163746758Y-94061087D01*
X163741832Y-94054506D01*
X163704859Y-94026828D01*
X163630070Y-93970842D01*
X163630071Y-93970842D01*
X163503407Y-93923598D01*
X163499935Y-93922123D01*
X163472897Y-93919216D01*
X163460240Y-93917856D01*
X163460238Y-93917855D01*
X163441452Y-93915836D01*
X163441443Y-93915836D01*
X163441439Y-93915836D01*
X163078563Y-93915836D01*
X163078561Y-93915836D01*
X163077013Y-93915964D01*
X163075700Y-93916144D01*
X163020742Y-93922050D01*
X162927644Y-93956774D01*
X162889929Y-93970842D01*
X162889928Y-93970842D01*
X162889927Y-93970843D01*
X162778175Y-94054499D01*
X162778163Y-94054511D01*
X162694507Y-94166262D01*
X162694506Y-94166264D01*
X162645714Y-94297076D01*
X162639500Y-94354892D01*
X162639500Y-94817773D01*
X162639628Y-94819320D01*
X162639807Y-94820632D01*
X162642480Y-94845500D01*
X162645148Y-94870319D01*
X162645347Y-94874039D01*
X162646078Y-94877137D01*
X162647560Y-94880542D01*
X162696505Y-95011766D01*
X162696077Y-95011925D01*
X162700310Y-95023128D01*
X162705871Y-95044916D01*
X162706425Y-95047084D01*
X162709500Y-95071568D01*
X162709500Y-95260286D01*
X162704654Y-95290879D01*
X162697107Y-95314106D01*
X162672957Y-95353517D01*
X162082056Y-95944418D01*
X162056999Y-95962622D01*
X162035241Y-95973709D01*
X161990294Y-95984501D01*
X160424054Y-95984501D01*
X160393463Y-95979656D01*
X160373766Y-95973256D01*
X160332968Y-95947689D01*
X160332112Y-95946798D01*
X160321195Y-95933222D01*
X160319611Y-95930852D01*
X160319604Y-95930842D01*
X160297138Y-95897219D01*
X160157789Y-95757869D01*
X160157784Y-95757865D01*
X160157781Y-95757862D01*
X160086914Y-95710510D01*
X160054250Y-95688684D01*
X160054241Y-95688679D01*
X159993913Y-95648369D01*
X159993914Y-95648369D01*
X159993912Y-95648368D01*
X159950076Y-95630211D01*
X159944945Y-95627331D01*
X159942091Y-95624238D01*
X159929114Y-95616286D01*
X159920792Y-95609178D01*
X159906139Y-95585269D01*
X159903456Y-95582361D01*
X159903242Y-95580542D01*
X159888823Y-95557014D01*
X159893622Y-95496017D01*
X159926896Y-95453806D01*
X159931554Y-95450422D01*
X159946985Y-95441781D01*
X159947638Y-95441129D01*
X159950538Y-95439792D01*
X159951862Y-95439051D01*
X159954664Y-95437890D01*
X159954669Y-95437887D01*
X159954695Y-95437877D01*
X159993913Y-95421633D01*
X160157781Y-95312140D01*
X160297138Y-95172783D01*
X160406631Y-95008915D01*
X160482050Y-94826836D01*
X160520499Y-94633542D01*
X160520499Y-94436460D01*
X160482050Y-94243166D01*
X160406631Y-94061087D01*
X160297138Y-93897219D01*
X160157781Y-93757862D01*
X160112475Y-93727589D01*
X160054250Y-93688684D01*
X160054241Y-93688679D01*
X159993913Y-93648369D01*
X159993914Y-93648369D01*
X159993912Y-93648368D01*
X159950076Y-93630211D01*
X159944945Y-93627331D01*
X159942091Y-93624238D01*
X159929114Y-93616286D01*
X159920792Y-93609178D01*
X159906139Y-93585269D01*
X159903456Y-93582361D01*
X159903242Y-93580542D01*
X159888823Y-93557014D01*
X159893622Y-93496017D01*
X159926896Y-93453806D01*
X159931554Y-93450422D01*
X159946985Y-93441781D01*
X159947638Y-93441129D01*
X159950538Y-93439792D01*
X159951862Y-93439051D01*
X159954664Y-93437890D01*
X159954669Y-93437887D01*
X159954695Y-93437877D01*
X159993913Y-93421633D01*
X160157781Y-93312140D01*
X160297138Y-93172783D01*
X160406631Y-93008915D01*
X160406632Y-93008912D01*
X160406633Y-93008912D01*
X160482049Y-92826838D01*
X160482050Y-92826836D01*
X160520499Y-92633542D01*
X160520499Y-92436460D01*
X160482050Y-92243166D01*
X160406631Y-92061087D01*
X160297138Y-91897219D01*
X160157781Y-91757862D01*
X160097078Y-91717301D01*
X160047208Y-91683979D01*
X159995369Y-91649341D01*
X159994107Y-91648465D01*
X159993911Y-91648367D01*
X159892894Y-91606525D01*
X165018453Y-91606525D01*
X165018453Y-91754367D01*
X165019149Y-91757865D01*
X165046869Y-91897221D01*
X165047295Y-91899360D01*
X165047295Y-91899362D01*
X165103860Y-92035923D01*
X165103868Y-92035942D01*
X165103871Y-92035947D01*
X165103873Y-92035950D01*
X165123960Y-92066011D01*
X165123964Y-92066017D01*
X165125195Y-92067859D01*
X165125505Y-92068323D01*
X165125507Y-92068326D01*
X165185998Y-92158859D01*
X165186001Y-92158863D01*
X165204610Y-92177472D01*
X165227721Y-92213852D01*
X165227983Y-92214579D01*
X165229308Y-92218439D01*
X165229545Y-92218905D01*
X165230688Y-92222069D01*
X165231594Y-92250087D01*
X165233580Y-92272921D01*
X165234902Y-92273131D01*
X165234351Y-92276606D01*
X165233966Y-92277360D01*
X165234023Y-92278010D01*
X165233575Y-92279946D01*
X165232746Y-92279754D01*
X165232566Y-92280109D01*
X165232667Y-92283222D01*
X165225888Y-92293215D01*
X165208533Y-92327281D01*
X165209189Y-92327820D01*
X165206735Y-92330809D01*
X165206594Y-92331088D01*
X165206109Y-92331572D01*
X165206103Y-92331580D01*
X165123965Y-92454507D01*
X165067394Y-92591083D01*
X165067394Y-92591085D01*
X165038552Y-92736078D01*
X165038552Y-92883920D01*
X165067393Y-93028912D01*
X165123967Y-93165493D01*
X165123967Y-93165494D01*
X165158829Y-93217668D01*
X165206101Y-93288416D01*
X165216666Y-93298981D01*
X165234869Y-93324037D01*
X165239746Y-93333608D01*
X165240924Y-93335920D01*
X165250496Y-93396348D01*
X165249699Y-93401381D01*
X165221923Y-93455899D01*
X165221922Y-93455899D01*
X165186553Y-93491269D01*
X165186547Y-93491276D01*
X165159570Y-93531652D01*
X165159556Y-93531673D01*
X165157648Y-93534527D01*
X165157611Y-93534580D01*
X165104412Y-93614199D01*
X165047842Y-93750774D01*
X165047842Y-93750776D01*
X165019000Y-93895769D01*
X165019000Y-94043611D01*
X165047842Y-94188604D01*
X165047842Y-94188606D01*
X165104412Y-94325180D01*
X165104413Y-94325182D01*
X165104414Y-94325183D01*
X165124266Y-94354893D01*
X165124267Y-94354895D01*
X165186543Y-94448101D01*
X165186545Y-94448103D01*
X165186548Y-94448107D01*
X165291084Y-94552643D01*
X165342954Y-94587300D01*
X165342953Y-94587300D01*
X165356566Y-94596395D01*
X165364768Y-94601875D01*
X165364769Y-94601877D01*
X165364770Y-94601877D01*
X165414005Y-94634775D01*
X165550587Y-94691349D01*
X165695582Y-94720191D01*
X165695583Y-94720191D01*
X165843413Y-94720191D01*
X165843417Y-94720191D01*
X165843418Y-94720191D01*
X165902957Y-94708346D01*
X165912542Y-94706924D01*
X165922206Y-94705973D01*
X165931892Y-94705499D01*
X166062182Y-94705499D01*
X166092770Y-94710342D01*
X166108978Y-94715609D01*
X166158479Y-94751570D01*
X166166598Y-94764820D01*
X166172761Y-94776916D01*
X166183551Y-94821860D01*
X166183551Y-95196294D01*
X166212393Y-95341287D01*
X166212393Y-95341289D01*
X166245673Y-95421634D01*
X166268964Y-95477864D01*
X166268967Y-95477869D01*
X166277797Y-95491084D01*
X166277798Y-95491087D01*
X166277799Y-95491087D01*
X166301951Y-95527234D01*
X166350096Y-95599290D01*
X166351097Y-95600788D01*
X166351100Y-95600792D01*
X166438993Y-95688684D01*
X166458261Y-95707952D01*
X166531947Y-95757186D01*
X166581182Y-95790084D01*
X166637334Y-95813343D01*
X166717765Y-95846659D01*
X166833918Y-95869763D01*
X166862759Y-95875500D01*
X166862760Y-95875500D01*
X167010594Y-95875500D01*
X167010595Y-95875500D01*
X167155590Y-95846659D01*
X167292172Y-95790084D01*
X167415093Y-95707952D01*
X167519629Y-95603416D01*
X167601761Y-95480495D01*
X167658336Y-95343913D01*
X167687177Y-95198918D01*
X167687177Y-95051083D01*
X167687176Y-95051081D01*
X167687063Y-95049928D01*
X167685977Y-95042606D01*
X167685028Y-95032973D01*
X167684551Y-95023267D01*
X167684551Y-94826870D01*
X167689396Y-94796279D01*
X167694662Y-94780071D01*
X167730625Y-94730570D01*
X167743864Y-94722457D01*
X167755975Y-94716286D01*
X167800914Y-94705499D01*
X168175310Y-94705499D01*
X168175311Y-94705499D01*
X168320306Y-94676657D01*
X168456888Y-94620083D01*
X168579809Y-94537950D01*
X168684344Y-94433415D01*
X168766477Y-94310494D01*
X168823051Y-94173912D01*
X168851893Y-94028917D01*
X168851893Y-93881081D01*
X168823051Y-93736086D01*
X168766477Y-93599504D01*
X168684344Y-93476583D01*
X168579809Y-93372048D01*
X168456888Y-93289915D01*
X168456886Y-93289914D01*
X168359929Y-93249753D01*
X168320305Y-93233340D01*
X168175313Y-93204499D01*
X168175311Y-93204499D01*
X168167970Y-93204499D01*
X167799231Y-93204499D01*
X167768638Y-93199653D01*
X167755952Y-93195531D01*
X167706452Y-93159567D01*
X167706445Y-93159557D01*
X167703451Y-93155435D01*
X167684551Y-93097255D01*
X167684551Y-92939027D01*
X167685028Y-92929324D01*
X167685976Y-92919698D01*
X167687393Y-92910128D01*
X167687968Y-92907232D01*
X167687976Y-92907219D01*
X167687976Y-92907192D01*
X167690854Y-92892730D01*
X167690854Y-92744894D01*
X167687399Y-92727528D01*
X167685976Y-92717933D01*
X167685026Y-92708285D01*
X167684551Y-92698595D01*
X167684551Y-92545179D01*
X167689394Y-92514593D01*
X167693516Y-92501904D01*
X167729474Y-92452405D01*
X167730073Y-92451970D01*
X167733614Y-92449399D01*
X167791794Y-92430499D01*
X168177969Y-92430499D01*
X168177970Y-92430499D01*
X168322965Y-92401657D01*
X168459547Y-92345083D01*
X168582468Y-92262950D01*
X168687003Y-92158415D01*
X168769136Y-92035494D01*
X168825710Y-91898912D01*
X168854552Y-91753917D01*
X168854552Y-91606081D01*
X168825710Y-91461086D01*
X168769136Y-91324504D01*
X168687003Y-91201583D01*
X168597160Y-91111740D01*
X175213553Y-91111740D01*
X175213553Y-92238260D01*
X175219132Y-92276552D01*
X175223480Y-92306395D01*
X175233954Y-92327820D01*
X175242393Y-92345080D01*
X175242393Y-92345082D01*
X175242394Y-92345082D01*
X175242394Y-92345083D01*
X175274855Y-92411483D01*
X175357570Y-92494198D01*
X175411338Y-92520483D01*
X175462426Y-92545459D01*
X175462653Y-92545571D01*
X175462658Y-92545572D01*
X175462660Y-92545573D01*
X175462664Y-92545573D01*
X175465928Y-92546328D01*
X175469746Y-92546605D01*
X175530793Y-92555500D01*
X175530796Y-92555500D01*
X176657310Y-92555500D01*
X176657313Y-92555500D01*
X176725446Y-92545573D01*
X176830536Y-92494198D01*
X176913251Y-92411483D01*
X176964626Y-92306393D01*
X176974553Y-92238260D01*
X176974553Y-91111740D01*
X176964626Y-91043607D01*
X176950599Y-91014915D01*
X176922942Y-90958341D01*
X176913251Y-90938517D01*
X176830536Y-90855802D01*
X176830534Y-90855801D01*
X176725448Y-90804427D01*
X176698192Y-90800456D01*
X176698191Y-90800455D01*
X176667708Y-90796014D01*
X176657313Y-90794500D01*
X176657311Y-90794500D01*
X175530789Y-90794500D01*
X175496723Y-90799463D01*
X175496722Y-90799462D01*
X175462659Y-90804426D01*
X175462657Y-90804426D01*
X175357573Y-90855799D01*
X175274853Y-90938519D01*
X175223480Y-91043604D01*
X175223422Y-91043852D01*
X175223420Y-91044014D01*
X175213553Y-91111740D01*
X168597160Y-91111740D01*
X168582468Y-91097048D01*
X168459547Y-91014915D01*
X168459545Y-91014914D01*
X168451820Y-91011714D01*
X168322964Y-90958340D01*
X168177972Y-90929499D01*
X168177970Y-90929499D01*
X168167970Y-90929499D01*
X167800919Y-90929499D01*
X167770324Y-90924653D01*
X167757057Y-90920342D01*
X167707558Y-90884377D01*
X167699442Y-90871133D01*
X167695337Y-90863076D01*
X167684551Y-90818138D01*
X167684551Y-90446083D01*
X167684551Y-90446082D01*
X167655709Y-90301087D01*
X167599135Y-90164505D01*
X167517002Y-90041584D01*
X167412467Y-89937049D01*
X167289546Y-89854916D01*
X167289544Y-89854915D01*
X167152965Y-89798342D01*
X167152963Y-89798341D01*
X167007971Y-89769500D01*
X167007969Y-89769500D01*
X166860133Y-89769500D01*
X166860132Y-89769500D01*
X166860129Y-89769500D01*
X166715136Y-89798342D01*
X166715134Y-89798342D01*
X166578561Y-89854912D01*
X166578549Y-89854918D01*
X166455637Y-89937047D01*
X166351098Y-90041586D01*
X166268969Y-90164498D01*
X166268963Y-90164510D01*
X166212393Y-90301083D01*
X166212393Y-90301085D01*
X166183551Y-90446078D01*
X166183551Y-90813130D01*
X166178705Y-90843725D01*
X166174394Y-90856992D01*
X166138429Y-90906491D01*
X166125192Y-90914603D01*
X166117143Y-90918705D01*
X166072191Y-90929499D01*
X165695471Y-90929499D01*
X165631900Y-90942144D01*
X165550490Y-90958338D01*
X165421626Y-91011714D01*
X165421594Y-91011729D01*
X165413908Y-91014912D01*
X165331774Y-91069793D01*
X165290987Y-91097045D01*
X165290980Y-91097051D01*
X165186008Y-91202021D01*
X165186003Y-91202026D01*
X165185995Y-91202037D01*
X165185993Y-91202040D01*
X165152515Y-91252147D01*
X165152513Y-91252150D01*
X165103870Y-91324946D01*
X165103864Y-91324958D01*
X165047295Y-91461530D01*
X165047295Y-91461532D01*
X165018453Y-91606525D01*
X159892894Y-91606525D01*
X159811835Y-91572950D01*
X159811834Y-91572950D01*
X159747403Y-91560133D01*
X159618544Y-91534501D01*
X159618542Y-91534501D01*
X159618540Y-91534501D01*
X159421458Y-91534501D01*
X159421455Y-91534501D01*
X159421454Y-91534501D01*
X159340026Y-91550698D01*
X159237726Y-91571048D01*
X159237719Y-91571048D01*
X159228160Y-91572949D01*
X159046087Y-91648366D01*
X159046086Y-91648366D01*
X158882219Y-91757859D01*
X158742857Y-91897221D01*
X158633364Y-92061088D01*
X158633364Y-92061089D01*
X158557947Y-92243162D01*
X158557141Y-92247219D01*
X158557141Y-92247222D01*
X158519499Y-92436454D01*
X158519499Y-92436457D01*
X158519499Y-92633544D01*
X158541648Y-92744894D01*
X158556046Y-92817272D01*
X158556046Y-92817276D01*
X158557947Y-92826838D01*
X158633363Y-93008910D01*
X158633365Y-93008912D01*
X158633366Y-93008914D01*
X158649839Y-93033567D01*
X158742860Y-93172783D01*
X158882217Y-93312140D01*
X158960701Y-93364581D01*
X159046084Y-93421633D01*
X159054245Y-93425013D01*
X159084480Y-93437536D01*
X159110886Y-93453718D01*
X159119208Y-93460825D01*
X159151174Y-93512994D01*
X159146372Y-93573991D01*
X159113102Y-93616193D01*
X159108446Y-93619576D01*
X159088139Y-93630949D01*
X159046085Y-93648368D01*
X159046076Y-93648372D01*
X158882219Y-93757859D01*
X158742857Y-93897221D01*
X158633364Y-94061088D01*
X158633364Y-94061089D01*
X158557949Y-94243159D01*
X158557949Y-94243160D01*
X158557948Y-94243167D01*
X158520105Y-94433413D01*
X158519499Y-94436457D01*
X158519499Y-94633544D01*
X158528048Y-94676519D01*
X158536735Y-94720192D01*
X158537184Y-94722450D01*
X158554835Y-94811190D01*
X158556046Y-94817274D01*
X158556046Y-94817276D01*
X158557947Y-94826838D01*
X158633364Y-95008911D01*
X158639722Y-95018427D01*
X158660771Y-95049928D01*
X158742860Y-95172783D01*
X158882217Y-95312140D01*
X158971937Y-95372089D01*
X159046084Y-95421633D01*
X159058723Y-95426867D01*
X159084480Y-95437536D01*
X159110886Y-95453718D01*
X159119208Y-95460825D01*
X159151174Y-95512994D01*
X159146372Y-95573991D01*
X159113102Y-95616193D01*
X159108446Y-95619576D01*
X159088139Y-95630949D01*
X159046085Y-95648368D01*
X159046076Y-95648372D01*
X158882219Y-95757859D01*
X158742857Y-95897221D01*
X158633364Y-96061088D01*
X158633364Y-96061089D01*
X158557949Y-96243159D01*
X158557949Y-96243160D01*
X158557948Y-96243162D01*
X158557948Y-96243164D01*
X158557948Y-96243166D01*
X158545218Y-96307161D01*
X158519499Y-96436456D01*
X158519499Y-96633544D01*
X158528153Y-96677048D01*
X158553148Y-96802707D01*
X158555981Y-96816949D01*
X158556045Y-96817267D01*
X158556046Y-96817276D01*
X158557947Y-96826838D01*
X158633363Y-97008909D01*
X158689606Y-97093083D01*
X158702573Y-97121212D01*
X158706193Y-97134048D01*
X158703791Y-97195186D01*
X158703786Y-97195198D01*
X158702323Y-97199162D01*
X158675217Y-97238879D01*
X158670980Y-97242645D01*
X158663400Y-97248743D01*
X158561402Y-97322848D01*
X158561402Y-97322849D01*
X158914956Y-97676403D01*
X159105919Y-97867366D01*
X159133696Y-97921883D01*
X159124125Y-97982315D01*
X159090917Y-98019685D01*
X159041906Y-98052433D01*
X158937432Y-98156907D01*
X158904684Y-98205918D01*
X158856634Y-98243797D01*
X158795495Y-98246199D01*
X158752365Y-98220920D01*
X158207848Y-97676403D01*
X158130167Y-97783321D01*
X158130163Y-97783328D01*
X158130033Y-97783587D01*
X158047828Y-97944925D01*
X158029622Y-97969984D01*
X158023792Y-97975814D01*
X157969275Y-98003591D01*
X157908843Y-97994020D01*
X157865578Y-97950755D01*
X157865570Y-97950738D01*
X157864281Y-97948207D01*
X157853499Y-97903279D01*
X157853499Y-87171727D01*
X157860888Y-87148982D01*
X157860886Y-87133311D01*
X157860886Y-87133308D01*
X157870105Y-87120615D01*
X157872406Y-87113536D01*
X157874631Y-87110591D01*
X157879476Y-87104420D01*
X157880999Y-87105616D01*
X157896842Y-87083804D01*
X157955029Y-87064887D01*
X158013223Y-87083784D01*
X158015521Y-87085453D01*
X158045554Y-87120611D01*
X158130173Y-87286686D01*
X158130177Y-87286692D01*
X158130179Y-87286695D01*
X158130183Y-87286701D01*
X158207847Y-87393595D01*
X158207848Y-87393596D01*
X158207849Y-87393596D01*
X158752366Y-86849077D01*
X158806881Y-86821302D01*
X158867313Y-86830873D01*
X158904683Y-86864081D01*
X158937432Y-86913093D01*
X158937433Y-86913094D01*
X158937436Y-86913098D01*
X159041902Y-87017564D01*
X159090915Y-87050313D01*
X159128794Y-87098361D01*
X159131196Y-87159500D01*
X159105917Y-87202631D01*
X158561402Y-87747148D01*
X158561401Y-87747149D01*
X158561402Y-87747149D01*
X158561402Y-87747150D01*
X158658102Y-87817408D01*
X158675183Y-87833197D01*
X158686572Y-87846531D01*
X158709989Y-87903059D01*
X158709989Y-87903060D01*
X158710320Y-87907265D01*
X158702328Y-87954707D01*
X158701832Y-87955841D01*
X158693445Y-87971168D01*
X158633366Y-88061085D01*
X158633365Y-88061085D01*
X158557949Y-88243159D01*
X158557949Y-88243160D01*
X158557948Y-88243162D01*
X158557948Y-88243164D01*
X158557948Y-88243166D01*
X158519499Y-88436457D01*
X158519499Y-88633544D01*
X158539978Y-88736496D01*
X158556803Y-88821083D01*
X158557949Y-88826841D01*
X158633363Y-89008910D01*
X158633365Y-89008912D01*
X158633366Y-89008914D01*
X158633367Y-89008915D01*
X158742860Y-89172783D01*
X158882217Y-89312140D01*
X159046085Y-89421633D01*
X159228164Y-89497052D01*
X159421458Y-89535501D01*
X159421459Y-89535501D01*
X159618535Y-89535501D01*
X159618540Y-89535501D01*
X159654216Y-89528403D01*
X159685159Y-89527187D01*
X159705726Y-89529620D01*
X159750692Y-89546710D01*
X159751708Y-89547418D01*
X159765111Y-89558638D01*
X160602736Y-90396263D01*
X160728266Y-90468737D01*
X160868276Y-90506253D01*
X160868277Y-90506253D01*
X161013225Y-90506253D01*
X162779478Y-90506253D01*
X162810071Y-90511099D01*
X162837776Y-90520101D01*
X162866511Y-90535001D01*
X162914928Y-90571245D01*
X162914932Y-90571248D01*
X163045738Y-90620037D01*
X163103557Y-90626253D01*
X163466442Y-90626252D01*
X163524262Y-90620037D01*
X163655068Y-90571248D01*
X163723118Y-90520305D01*
X163750506Y-90505853D01*
X163763134Y-90501549D01*
X163824306Y-90500672D01*
X163835787Y-90504221D01*
X163865866Y-90519548D01*
X163934930Y-90571248D01*
X164065736Y-90620037D01*
X164123555Y-90626253D01*
X164486440Y-90626252D01*
X164544260Y-90620037D01*
X164675066Y-90571248D01*
X164786829Y-90487584D01*
X164870493Y-90375821D01*
X164919282Y-90245015D01*
X164925498Y-90187196D01*
X164925497Y-89724311D01*
X164919282Y-89666491D01*
X164897587Y-89608328D01*
X164891437Y-89577974D01*
X164890516Y-89556459D01*
X164906917Y-89497512D01*
X164906939Y-89497478D01*
X164975083Y-89395495D01*
X165031657Y-89258913D01*
X165060499Y-89113918D01*
X165060499Y-88966082D01*
X165031657Y-88821087D01*
X164975083Y-88684505D01*
X164892950Y-88561584D01*
X164788415Y-88457049D01*
X164665494Y-88374916D01*
X164665492Y-88374915D01*
X164528913Y-88318342D01*
X164528911Y-88318341D01*
X164383919Y-88289500D01*
X164383917Y-88289500D01*
X164236081Y-88289500D01*
X164236080Y-88289500D01*
X164236077Y-88289500D01*
X164091084Y-88318342D01*
X164091082Y-88318342D01*
X163954509Y-88374912D01*
X163954497Y-88374918D01*
X163831585Y-88457047D01*
X163727046Y-88561586D01*
X163644917Y-88684498D01*
X163644911Y-88684510D01*
X163588341Y-88821083D01*
X163588341Y-88821085D01*
X163559499Y-88966078D01*
X163559499Y-89113922D01*
X163567027Y-89151769D01*
X163568243Y-89182717D01*
X163566773Y-89195137D01*
X163541157Y-89250702D01*
X163490898Y-89279925D01*
X163483825Y-89281570D01*
X163479069Y-89282677D01*
X163456633Y-89285253D01*
X163103561Y-89285253D01*
X163102013Y-89285381D01*
X163100700Y-89285561D01*
X163079554Y-89287833D01*
X163045741Y-89291468D01*
X162990329Y-89312136D01*
X162914928Y-89340259D01*
X162867038Y-89376110D01*
X162839645Y-89390564D01*
X162812069Y-89399961D01*
X162780138Y-89405253D01*
X161225464Y-89405253D01*
X161194871Y-89400407D01*
X161171644Y-89392860D01*
X161132233Y-89368710D01*
X160548522Y-88784999D01*
X160530316Y-88759939D01*
X160520916Y-88741490D01*
X160510145Y-88694627D01*
X160510169Y-88693389D01*
X160512051Y-88676005D01*
X160520499Y-88633542D01*
X160520499Y-88436460D01*
X160482050Y-88243166D01*
X160406631Y-88061087D01*
X160350389Y-87976915D01*
X160337425Y-87948794D01*
X160333804Y-87935958D01*
X160336201Y-87874821D01*
X160337667Y-87870849D01*
X160364787Y-87831116D01*
X160368834Y-87827521D01*
X160368833Y-87827520D01*
X160369049Y-87827329D01*
X160376602Y-87821253D01*
X160478594Y-87747150D01*
X159934078Y-87202634D01*
X159906301Y-87148117D01*
X159915872Y-87087685D01*
X159949082Y-87050314D01*
X159998090Y-87017568D01*
X159998089Y-87017568D01*
X159998096Y-87017564D01*
X160102562Y-86913098D01*
X160135312Y-86864084D01*
X160183361Y-86826203D01*
X160244499Y-86823801D01*
X160287632Y-86849080D01*
X160832147Y-87393595D01*
X160832148Y-87393596D01*
X160908500Y-87288507D01*
X160909462Y-87287246D01*
X160909817Y-87286695D01*
X160909820Y-87286691D01*
X160909824Y-87286686D01*
X161025946Y-87058783D01*
X161104986Y-86815520D01*
X161135420Y-86623370D01*
X161144999Y-86562896D01*
X161144999Y-86307104D01*
X161104986Y-86054483D01*
X161104986Y-86054481D01*
X161025946Y-85811218D01*
X160909824Y-85583315D01*
X160909820Y-85583309D01*
X160909813Y-85583299D01*
X160832149Y-85476404D01*
X160832148Y-85476404D01*
X160832147Y-85476404D01*
X160832146Y-85476404D01*
X160287629Y-86020919D01*
X160233113Y-86048696D01*
X160172681Y-86039125D01*
X160135311Y-86005917D01*
X160102562Y-85956904D01*
X159998096Y-85852438D01*
X159998092Y-85852435D01*
X159998091Y-85852434D01*
X159949079Y-85819685D01*
X159911200Y-85771635D01*
X159908798Y-85710497D01*
X159934075Y-85667368D01*
X160478594Y-85122851D01*
X160478594Y-85122850D01*
X160478593Y-85122849D01*
X160371699Y-85045185D01*
X160371693Y-85045181D01*
X160371690Y-85045179D01*
X160371684Y-85045175D01*
X160143781Y-84929053D01*
X160143780Y-84929052D01*
X160143779Y-84929052D01*
X159900515Y-84850012D01*
X159823458Y-84837807D01*
X159794007Y-84828239D01*
X159782121Y-84822184D01*
X159773065Y-84813129D01*
X159767465Y-84811310D01*
X159745371Y-84785440D01*
X159738853Y-84778923D01*
X159738846Y-84778910D01*
X159737443Y-84776156D01*
X159737364Y-84776000D01*
X159736152Y-84773622D01*
X159728576Y-84736078D01*
X165054499Y-84736078D01*
X165054499Y-85998920D01*
X165083341Y-86143913D01*
X165083341Y-86143915D01*
X165139912Y-86280492D01*
X165139913Y-86280493D01*
X165139914Y-86280494D01*
X165146598Y-86290497D01*
X165193794Y-86361132D01*
X165222047Y-86403416D01*
X165331583Y-86512952D01*
X165383453Y-86547609D01*
X165383452Y-86547609D01*
X165405267Y-86562184D01*
X165405268Y-86562186D01*
X165405269Y-86562186D01*
X165454504Y-86595084D01*
X165455320Y-86595629D01*
X165458989Y-86596942D01*
X165522795Y-86623371D01*
X165591086Y-86651658D01*
X165736081Y-86680500D01*
X165736082Y-86680500D01*
X165883916Y-86680500D01*
X165883917Y-86680500D01*
X166246081Y-86680500D01*
X166393917Y-86680500D01*
X166825384Y-86680500D01*
X166835066Y-86680974D01*
X166844723Y-86681925D01*
X166854333Y-86683351D01*
X166856552Y-86683792D01*
X166865134Y-86685500D01*
X166865135Y-86685500D01*
X169287968Y-86685500D01*
X169287969Y-86685500D01*
X169432964Y-86656658D01*
X169569546Y-86600084D01*
X169692468Y-86517952D01*
X169807003Y-86403416D01*
X169889136Y-86280494D01*
X169945710Y-86143913D01*
X169974552Y-85998918D01*
X169974552Y-85851083D01*
X169973348Y-85845032D01*
X169971924Y-85835433D01*
X169970974Y-85825787D01*
X169970499Y-85816095D01*
X169970499Y-85670920D01*
X169975344Y-85640328D01*
X169982891Y-85617100D01*
X170007044Y-85577687D01*
X170043248Y-85541484D01*
X170043248Y-85541483D01*
X170043250Y-85541482D01*
X170094625Y-85436392D01*
X170104552Y-85368259D01*
X170104552Y-84241742D01*
X170633552Y-84241742D01*
X170633552Y-85368257D01*
X170640170Y-85413683D01*
X170640169Y-85413683D01*
X170643477Y-85436388D01*
X170643481Y-85436401D01*
X170691955Y-85535552D01*
X170693455Y-85539220D01*
X170694852Y-85541480D01*
X170694853Y-85541481D01*
X170694854Y-85541483D01*
X170777569Y-85624198D01*
X170831337Y-85650483D01*
X170882425Y-85675459D01*
X170882652Y-85675571D01*
X170882657Y-85675572D01*
X170882659Y-85675573D01*
X170882663Y-85675573D01*
X170885927Y-85676328D01*
X170889745Y-85676605D01*
X170950792Y-85685500D01*
X170950795Y-85685500D01*
X172077309Y-85685500D01*
X172077312Y-85685500D01*
X172145445Y-85675573D01*
X172250535Y-85624198D01*
X172333250Y-85541483D01*
X172384625Y-85436393D01*
X172394552Y-85368260D01*
X172394552Y-84315180D01*
X172399395Y-84284594D01*
X172403517Y-84271905D01*
X172425430Y-84241740D01*
X175213552Y-84241740D01*
X175213552Y-84244974D01*
X175213552Y-85368257D01*
X175220170Y-85413683D01*
X175220169Y-85413683D01*
X175223477Y-85436388D01*
X175223481Y-85436401D01*
X175271955Y-85535552D01*
X175273455Y-85539220D01*
X175274852Y-85541480D01*
X175274853Y-85541481D01*
X175274854Y-85541483D01*
X175357569Y-85624198D01*
X175411337Y-85650483D01*
X175462425Y-85675459D01*
X175462652Y-85675571D01*
X175462657Y-85675572D01*
X175462659Y-85675573D01*
X175462663Y-85675573D01*
X175465927Y-85676328D01*
X175469745Y-85676605D01*
X175530792Y-85685500D01*
X175530795Y-85685500D01*
X176657309Y-85685500D01*
X176657312Y-85685500D01*
X176725445Y-85675573D01*
X176830535Y-85624198D01*
X176913250Y-85541483D01*
X176964625Y-85436393D01*
X176974552Y-85368260D01*
X176974552Y-84241740D01*
X176964625Y-84173607D01*
X176964624Y-84173605D01*
X176964621Y-84173594D01*
X176964469Y-84173288D01*
X176939535Y-84122285D01*
X176939535Y-84122284D01*
X176919158Y-84080603D01*
X176913250Y-84068517D01*
X176830535Y-83985802D01*
X176830533Y-83985801D01*
X176830532Y-83985800D01*
X176824062Y-83981137D01*
X176824127Y-83981046D01*
X176807017Y-83968927D01*
X176797398Y-83959621D01*
X176768723Y-83905575D01*
X176768149Y-83902301D01*
X176767678Y-83899615D01*
X176773724Y-83844630D01*
X176821657Y-83728913D01*
X176850499Y-83583918D01*
X176850499Y-83436082D01*
X176821657Y-83291087D01*
X176765083Y-83154505D01*
X176682950Y-83031584D01*
X176578415Y-82927049D01*
X176557881Y-82913329D01*
X176455501Y-82844919D01*
X176455489Y-82844913D01*
X176445563Y-82840802D01*
X176445562Y-82840802D01*
X176318916Y-82788343D01*
X176318910Y-82788341D01*
X176173919Y-82759500D01*
X176173917Y-82759500D01*
X176026081Y-82759500D01*
X176026080Y-82759500D01*
X176026077Y-82759500D01*
X175881084Y-82788342D01*
X175881082Y-82788342D01*
X175744509Y-82844912D01*
X175744497Y-82844918D01*
X175621585Y-82927047D01*
X175517046Y-83031586D01*
X175434917Y-83154498D01*
X175434911Y-83154510D01*
X175378341Y-83291083D01*
X175378341Y-83291085D01*
X175359875Y-83383918D01*
X175349499Y-83436079D01*
X175349499Y-83436081D01*
X175349499Y-83436082D01*
X175349499Y-83583918D01*
X175378341Y-83728913D01*
X175391887Y-83761616D01*
X175421724Y-83833652D01*
X175421724Y-83833656D01*
X175428954Y-83863772D01*
X175430000Y-83877068D01*
X175426339Y-83892316D01*
X175426523Y-83894649D01*
X175425301Y-83896642D01*
X175415721Y-83936552D01*
X175412562Y-83941708D01*
X175371628Y-83978928D01*
X175357572Y-83985799D01*
X175274852Y-84068519D01*
X175223479Y-84173604D01*
X175222775Y-84176646D01*
X175222544Y-84180002D01*
X175222482Y-84180446D01*
X175213552Y-84241740D01*
X172425430Y-84241740D01*
X172439475Y-84222406D01*
X172440074Y-84221971D01*
X172443615Y-84219400D01*
X172501795Y-84200500D01*
X173452473Y-84200500D01*
X173452474Y-84200500D01*
X173592484Y-84162984D01*
X173718014Y-84090510D01*
X173721869Y-84086654D01*
X173732092Y-84080603D01*
X173740117Y-84078638D01*
X173752102Y-84072855D01*
X173751812Y-84072078D01*
X173757062Y-84070114D01*
X173757065Y-84070114D01*
X173757067Y-84070112D01*
X173762327Y-84068146D01*
X173762624Y-84068942D01*
X173790230Y-84060862D01*
X173793903Y-84060500D01*
X173793916Y-84060500D01*
X173793917Y-84060500D01*
X173938912Y-84031658D01*
X174075494Y-83975084D01*
X174198415Y-83892951D01*
X174302950Y-83788416D01*
X174385083Y-83665495D01*
X174441657Y-83528913D01*
X174470499Y-83383918D01*
X174470499Y-83236082D01*
X174441657Y-83091087D01*
X174385083Y-82954505D01*
X174302950Y-82831584D01*
X174198415Y-82727049D01*
X174075494Y-82644916D01*
X174075492Y-82644915D01*
X173938913Y-82588342D01*
X173938911Y-82588341D01*
X173793919Y-82559500D01*
X173793917Y-82559500D01*
X173646081Y-82559500D01*
X173646080Y-82559500D01*
X173646077Y-82559500D01*
X173501084Y-82588342D01*
X173501082Y-82588342D01*
X173364509Y-82644912D01*
X173364497Y-82644918D01*
X173241582Y-82727049D01*
X173137054Y-82831576D01*
X173137047Y-82831585D01*
X173054918Y-82954497D01*
X173054914Y-82954505D01*
X173026169Y-83023901D01*
X173009986Y-83050309D01*
X172999938Y-83062074D01*
X172951533Y-83093062D01*
X172941890Y-83095782D01*
X172915014Y-83099500D01*
X171747524Y-83099500D01*
X171607514Y-83137016D01*
X171481984Y-83209490D01*
X171073542Y-83617932D01*
X171009468Y-83728913D01*
X171001068Y-83743462D01*
X170972388Y-83850492D01*
X170971602Y-83852920D01*
X170969095Y-83856376D01*
X170957817Y-83880185D01*
X170951608Y-83888825D01*
X170951012Y-83889698D01*
X170935796Y-83902301D01*
X170935685Y-83902455D01*
X170935562Y-83902494D01*
X170909005Y-83924493D01*
X170900232Y-83928334D01*
X170889763Y-83932230D01*
X170882663Y-83934424D01*
X170777571Y-83985800D01*
X170694852Y-84068519D01*
X170643479Y-84173604D01*
X170642722Y-84176875D01*
X170642445Y-84180703D01*
X170633552Y-84241742D01*
X170104552Y-84241742D01*
X170104552Y-84241739D01*
X170094625Y-84173606D01*
X170089432Y-84162984D01*
X170052942Y-84088342D01*
X170043250Y-84068516D01*
X169960535Y-83985801D01*
X169950995Y-83981137D01*
X169938614Y-83975084D01*
X169938613Y-83975084D01*
X169855447Y-83934426D01*
X169828191Y-83930455D01*
X169828190Y-83930454D01*
X169797707Y-83926013D01*
X169787312Y-83924499D01*
X169787310Y-83924499D01*
X168660788Y-83924499D01*
X168626722Y-83929462D01*
X168626721Y-83929461D01*
X168592659Y-83934425D01*
X168592657Y-83934425D01*
X168592656Y-83934426D01*
X168537679Y-83961303D01*
X168487568Y-83985801D01*
X168487567Y-83985801D01*
X168487566Y-83985803D01*
X168463948Y-84009419D01*
X168438894Y-84027621D01*
X168417136Y-84038708D01*
X168372189Y-84049500D01*
X167790921Y-84049500D01*
X167760327Y-84044654D01*
X167737101Y-84037107D01*
X167697693Y-84012958D01*
X167670542Y-83985808D01*
X167670539Y-83985805D01*
X167670537Y-83985804D01*
X167670536Y-83985803D01*
X167670535Y-83985802D01*
X167670529Y-83985799D01*
X167565447Y-83934427D01*
X167538191Y-83930456D01*
X167538190Y-83930455D01*
X167507707Y-83926014D01*
X167497312Y-83924500D01*
X167497310Y-83924500D01*
X166370788Y-83924500D01*
X166336722Y-83929463D01*
X166336721Y-83929462D01*
X166302659Y-83934426D01*
X166302657Y-83934426D01*
X166302656Y-83934427D01*
X166207110Y-83981137D01*
X166197568Y-83985802D01*
X166197567Y-83985802D01*
X166197567Y-83985803D01*
X166163950Y-84019418D01*
X166138895Y-84037621D01*
X166117137Y-84048708D01*
X166072190Y-84059500D01*
X165731077Y-84059500D01*
X165586084Y-84088342D01*
X165586082Y-84088342D01*
X165449509Y-84144912D01*
X165449497Y-84144918D01*
X165326585Y-84227047D01*
X165222046Y-84331586D01*
X165139917Y-84454498D01*
X165139911Y-84454510D01*
X165083341Y-84591083D01*
X165083341Y-84591085D01*
X165054499Y-84736078D01*
X159728576Y-84736078D01*
X159726714Y-84726849D01*
X159725499Y-84726849D01*
X159725499Y-83096743D01*
X159724675Y-83091085D01*
X159715572Y-83028607D01*
X159713271Y-83023901D01*
X159679346Y-82954505D01*
X159664197Y-82923517D01*
X159581482Y-82840802D01*
X159581480Y-82840801D01*
X159476394Y-82789427D01*
X159449138Y-82785456D01*
X159449137Y-82785455D01*
X159418654Y-82781014D01*
X159408259Y-82779500D01*
X159408257Y-82779500D01*
X157968179Y-82779500D01*
X157937586Y-82774654D01*
X157924900Y-82770532D01*
X157875400Y-82734568D01*
X157875393Y-82734558D01*
X157872399Y-82730436D01*
X157853499Y-82672256D01*
X157853499Y-81321019D01*
X162464499Y-81321019D01*
X162464499Y-81498979D01*
X162492331Y-81674716D01*
X162547323Y-81843961D01*
X162628111Y-82002517D01*
X162628116Y-82002524D01*
X162732691Y-82146457D01*
X162732697Y-82146465D01*
X162732699Y-82146467D01*
X162732702Y-82146471D01*
X162858528Y-82272297D01*
X162858531Y-82272299D01*
X162858537Y-82272305D01*
X162858913Y-82272614D01*
X162860111Y-82273448D01*
X162911109Y-82310500D01*
X163002489Y-82376892D01*
X163080254Y-82416514D01*
X163161038Y-82457676D01*
X163330273Y-82512664D01*
X163330274Y-82512664D01*
X163330277Y-82512665D01*
X163374213Y-82519623D01*
X163506021Y-82540500D01*
X163683974Y-82540500D01*
X163683977Y-82540500D01*
X163753651Y-82529464D01*
X163859720Y-82512665D01*
X163859720Y-82512664D01*
X163859722Y-82512664D01*
X163859725Y-82512664D01*
X163859728Y-82512662D01*
X163862304Y-82512255D01*
X163867111Y-82510263D01*
X164028960Y-82457676D01*
X164187510Y-82376891D01*
X164331470Y-82272297D01*
X164457296Y-82146471D01*
X164561890Y-82002511D01*
X164642675Y-81843961D01*
X164697663Y-81674726D01*
X164705061Y-81628015D01*
X164724943Y-81502485D01*
X164725499Y-81498977D01*
X164725499Y-81321020D01*
X164697664Y-81145278D01*
X164696583Y-81141950D01*
X164642675Y-80976039D01*
X164561890Y-80817489D01*
X164561886Y-80817483D01*
X164458466Y-80675138D01*
X164457301Y-80673535D01*
X164457298Y-80673532D01*
X164457296Y-80673529D01*
X164331470Y-80547703D01*
X164331466Y-80547700D01*
X164331464Y-80547698D01*
X164331461Y-80547695D01*
X164187523Y-80443117D01*
X164187516Y-80443112D01*
X164187511Y-80443109D01*
X164187509Y-80443108D01*
X164028960Y-80362324D01*
X163973658Y-80344355D01*
X163859715Y-80307332D01*
X163683978Y-80279500D01*
X163683974Y-80279500D01*
X163683971Y-80279500D01*
X163506027Y-80279500D01*
X163506024Y-80279500D01*
X163506020Y-80279500D01*
X163330281Y-80307332D01*
X163161036Y-80362324D01*
X163002480Y-80443112D01*
X163002473Y-80443117D01*
X162858538Y-80547693D01*
X162732692Y-80673539D01*
X162628116Y-80817474D01*
X162628111Y-80817481D01*
X162547323Y-80976037D01*
X162492331Y-81145282D01*
X162464499Y-81321019D01*
X157853499Y-81321019D01*
X157853499Y-79978047D01*
X157858346Y-79947450D01*
X157861867Y-79936615D01*
X157897833Y-79887117D01*
X157956020Y-79868212D01*
X157961360Y-79868212D01*
X158002815Y-79877310D01*
X158006274Y-79878905D01*
X158009732Y-79880582D01*
X158161038Y-79957676D01*
X158330273Y-80012664D01*
X158330274Y-80012664D01*
X158330277Y-80012665D01*
X158374213Y-80019623D01*
X158506021Y-80040500D01*
X158683974Y-80040500D01*
X158683977Y-80040500D01*
X158753651Y-80029464D01*
X158859720Y-80012665D01*
X158859720Y-80012664D01*
X158859722Y-80012664D01*
X158859725Y-80012664D01*
X158859728Y-80012662D01*
X158862304Y-80012255D01*
X158867111Y-80010263D01*
X159028960Y-79957676D01*
X159187510Y-79876891D01*
X159331470Y-79772297D01*
X159457296Y-79646471D01*
X159561890Y-79502511D01*
X159642675Y-79343961D01*
X159697663Y-79174726D01*
X159698354Y-79170360D01*
X159698355Y-79170360D01*
X159698355Y-79170354D01*
X159725499Y-78998975D01*
X159725499Y-78821024D01*
X159725499Y-78821020D01*
X159701805Y-78671423D01*
X159697664Y-78645278D01*
X159694922Y-78636838D01*
X159642675Y-78476039D01*
X159561890Y-78317489D01*
X159561888Y-78317485D01*
X159517279Y-78256087D01*
X159468896Y-78189495D01*
X159457300Y-78173534D01*
X159457298Y-78173532D01*
X159457296Y-78173529D01*
X159331470Y-78047703D01*
X159331466Y-78047700D01*
X159331464Y-78047698D01*
X159331461Y-78047695D01*
X159187523Y-77943117D01*
X159187516Y-77943112D01*
X159187511Y-77943109D01*
X159187509Y-77943108D01*
X159028960Y-77862324D01*
X159004764Y-77854462D01*
X158859715Y-77807332D01*
X158683978Y-77779500D01*
X158683974Y-77779500D01*
X158683971Y-77779500D01*
X158506027Y-77779500D01*
X158506024Y-77779500D01*
X158506020Y-77779500D01*
X158330281Y-77807332D01*
X158161038Y-77862323D01*
X158015336Y-77936561D01*
X157993505Y-77944615D01*
X157977903Y-77948361D01*
X157916906Y-77943562D01*
X157870380Y-77903826D01*
X157870376Y-77903820D01*
X157868085Y-77900081D01*
X157853499Y-77848358D01*
X157853499Y-72995635D01*
X159094500Y-72995635D01*
X159094500Y-74174352D01*
X159094666Y-74176029D01*
X159094930Y-74177622D01*
X159109953Y-74291752D01*
X159109954Y-74291755D01*
X159109957Y-74291766D01*
X159109957Y-74291768D01*
X159169220Y-74434842D01*
X159170238Y-74437547D01*
X159259975Y-74554495D01*
X159259983Y-74554505D01*
X159266718Y-74563282D01*
X159392159Y-74659536D01*
X159392448Y-74659758D01*
X159395134Y-74660768D01*
X159482262Y-74696858D01*
X159482261Y-74696858D01*
X159538233Y-74720042D01*
X159538238Y-74720044D01*
X159655639Y-74735500D01*
X160834360Y-74735499D01*
X160951762Y-74720044D01*
X161097841Y-74659536D01*
X161223282Y-74563282D01*
X161319536Y-74437841D01*
X161380044Y-74291762D01*
X161391007Y-74208477D01*
X161399799Y-74178790D01*
X161403351Y-74171344D01*
X161445463Y-74126962D01*
X161505623Y-74115807D01*
X161560850Y-74142144D01*
X161560860Y-74142154D01*
X161565948Y-74146983D01*
X161586005Y-74173844D01*
X161609479Y-74219912D01*
X161633139Y-74266348D01*
X161633143Y-74266353D01*
X161633149Y-74266361D01*
X161633513Y-74266926D01*
X161634486Y-74268202D01*
X161665523Y-74310920D01*
X161665524Y-74310920D01*
X162231540Y-73744903D01*
X162286055Y-73717128D01*
X162346487Y-73726699D01*
X162387278Y-73765409D01*
X162424918Y-73830603D01*
X162424920Y-73830606D01*
X162499394Y-73905080D01*
X162504746Y-73908170D01*
X162564588Y-73942720D01*
X162605529Y-73988189D01*
X162611925Y-74049039D01*
X162585092Y-74098459D01*
X162019077Y-74664474D01*
X162019078Y-74664474D01*
X162019078Y-74664475D01*
X162063647Y-74696858D01*
X162063653Y-74696861D01*
X162245974Y-74789757D01*
X162245978Y-74789759D01*
X162440581Y-74852990D01*
X162440585Y-74852991D01*
X162642682Y-74885000D01*
X162847315Y-74885000D01*
X162847318Y-74885000D01*
X163049413Y-74852991D01*
X163049417Y-74852990D01*
X163244020Y-74789759D01*
X163244022Y-74789757D01*
X163244027Y-74789756D01*
X163426342Y-74696863D01*
X163426350Y-74696858D01*
X163470920Y-74664475D01*
X162904903Y-74098458D01*
X162877128Y-74043944D01*
X162886699Y-73983512D01*
X162925408Y-73942721D01*
X162990606Y-73905080D01*
X163065080Y-73830606D01*
X163102721Y-73765408D01*
X163148189Y-73724468D01*
X163209040Y-73718072D01*
X163258458Y-73744903D01*
X163824475Y-74310920D01*
X163856858Y-74266350D01*
X163856863Y-74266342D01*
X163949756Y-74084027D01*
X164012990Y-73889413D01*
X164015193Y-73875510D01*
X166329499Y-73875510D01*
X166329499Y-74064488D01*
X166359056Y-74251113D01*
X166417448Y-74430825D01*
X166417452Y-74430834D01*
X166467726Y-74529504D01*
X166467727Y-74529504D01*
X166467728Y-74529506D01*
X166503239Y-74599199D01*
X166614309Y-74752073D01*
X166747926Y-74885690D01*
X166900800Y-74996760D01*
X167069167Y-75082547D01*
X167248881Y-75140940D01*
X167248884Y-75140940D01*
X167252582Y-75142142D01*
X167252501Y-75142389D01*
X167269830Y-75148780D01*
X167278271Y-75153081D01*
X167321533Y-75196345D01*
X167331103Y-75256777D01*
X167303324Y-75311293D01*
X167252447Y-75337214D01*
X167252672Y-75338148D01*
X167248887Y-75339056D01*
X167069165Y-75397452D01*
X166900802Y-75483236D01*
X166900796Y-75483240D01*
X166747932Y-75594303D01*
X166614303Y-75727932D01*
X166503240Y-75880796D01*
X166503236Y-75880802D01*
X166417450Y-76049169D01*
X166417448Y-76049172D01*
X166359056Y-76228884D01*
X166329499Y-76415509D01*
X166329499Y-76604487D01*
X166359056Y-76791112D01*
X166417448Y-76970824D01*
X166417450Y-76970828D01*
X166453595Y-77041766D01*
X166478662Y-77090964D01*
X166503239Y-77139198D01*
X166614309Y-77292072D01*
X166747926Y-77425689D01*
X166900800Y-77536759D01*
X167069167Y-77622546D01*
X167158275Y-77651499D01*
X167185876Y-77665564D01*
X167192545Y-77670410D01*
X167228506Y-77719913D01*
X167228502Y-77781098D01*
X167192534Y-77830596D01*
X167134349Y-77849499D01*
X166646735Y-77849499D01*
X166612669Y-77854462D01*
X166612668Y-77854461D01*
X166578605Y-77859425D01*
X166578603Y-77859425D01*
X166473519Y-77910798D01*
X166390799Y-77993518D01*
X166339426Y-78098603D01*
X166338669Y-78101874D01*
X166338392Y-78105702D01*
X166329499Y-78166741D01*
X166329499Y-79933265D01*
X166331628Y-79947878D01*
X166331630Y-79947883D01*
X166333057Y-79957676D01*
X166339426Y-80001394D01*
X166379525Y-80083417D01*
X166390801Y-80106482D01*
X166473516Y-80189197D01*
X166527284Y-80215482D01*
X166578372Y-80240458D01*
X166578599Y-80240570D01*
X166578604Y-80240571D01*
X166578606Y-80240572D01*
X166578610Y-80240572D01*
X166581874Y-80241327D01*
X166585692Y-80241604D01*
X166646739Y-80250499D01*
X166646742Y-80250499D01*
X168413256Y-80250499D01*
X168413259Y-80250499D01*
X168481392Y-80240572D01*
X168586482Y-80189197D01*
X168669197Y-80106482D01*
X168720572Y-80001392D01*
X168730499Y-79933259D01*
X168730499Y-78166739D01*
X168720572Y-78098606D01*
X168719788Y-78097003D01*
X168676262Y-78007968D01*
X168669197Y-77993516D01*
X168586482Y-77910801D01*
X168586480Y-77910800D01*
X168481394Y-77859426D01*
X168454138Y-77855455D01*
X168454137Y-77855454D01*
X168423654Y-77851013D01*
X168413259Y-77849499D01*
X168413257Y-77849499D01*
X167933085Y-77849499D01*
X167902485Y-77844651D01*
X167894645Y-77842103D01*
X167845148Y-77806136D01*
X167826245Y-77747944D01*
X167845157Y-77689754D01*
X167894652Y-77653796D01*
X167990831Y-77622546D01*
X168159198Y-77536759D01*
X168312072Y-77425689D01*
X168445689Y-77292072D01*
X168556759Y-77139198D01*
X168642546Y-76970831D01*
X168700939Y-76791117D01*
X168730499Y-76604480D01*
X168730499Y-76415518D01*
X168730499Y-76415514D01*
X168730499Y-76415510D01*
X168700941Y-76228891D01*
X168700940Y-76228885D01*
X168700939Y-76228881D01*
X168642546Y-76049167D01*
X168556759Y-75880800D01*
X168445689Y-75727926D01*
X168312072Y-75594309D01*
X168312068Y-75594306D01*
X168312066Y-75594304D01*
X168167657Y-75489384D01*
X168167646Y-75489377D01*
X168159198Y-75483239D01*
X168159197Y-75483238D01*
X168159195Y-75483237D01*
X167990831Y-75397452D01*
X167811114Y-75339058D01*
X167811112Y-75339057D01*
X167807414Y-75337856D01*
X167807493Y-75337610D01*
X167790155Y-75331212D01*
X167781728Y-75326918D01*
X167738464Y-75283652D01*
X167728894Y-75223220D01*
X167756671Y-75168707D01*
X167756676Y-75168702D01*
X167807555Y-75142779D01*
X167807332Y-75141848D01*
X167811102Y-75140942D01*
X167811117Y-75140940D01*
X167990831Y-75082547D01*
X168159198Y-74996760D01*
X168312072Y-74885690D01*
X168445689Y-74752073D01*
X168556759Y-74599199D01*
X168642546Y-74430832D01*
X168700939Y-74251118D01*
X168705881Y-74219914D01*
X168715226Y-74160913D01*
X168715226Y-74160911D01*
X168730499Y-74064485D01*
X168730499Y-73875511D01*
X168700941Y-73688890D01*
X168700939Y-73688885D01*
X168667185Y-73584999D01*
X168642546Y-73509168D01*
X168556759Y-73340801D01*
X168445689Y-73187927D01*
X168312072Y-73054310D01*
X168312068Y-73054307D01*
X168312066Y-73054305D01*
X168167657Y-72949385D01*
X168167646Y-72949378D01*
X168159198Y-72943240D01*
X168159197Y-72943239D01*
X168159195Y-72943238D01*
X167990831Y-72857453D01*
X167990830Y-72857452D01*
X167990827Y-72857451D01*
X167990824Y-72857449D01*
X167811112Y-72799057D01*
X167811113Y-72799057D01*
X167624487Y-72769500D01*
X167624483Y-72769500D01*
X167624480Y-72769500D01*
X167435518Y-72769500D01*
X167435515Y-72769500D01*
X167435511Y-72769500D01*
X167248886Y-72799057D01*
X167248880Y-72799058D01*
X167069172Y-72857449D01*
X167069169Y-72857451D01*
X166900802Y-72943237D01*
X166900796Y-72943241D01*
X166747932Y-73054304D01*
X166614303Y-73187933D01*
X166503240Y-73340797D01*
X166503236Y-73340803D01*
X166417450Y-73509170D01*
X166417448Y-73509173D01*
X166359056Y-73688885D01*
X166329499Y-73875510D01*
X164015193Y-73875510D01*
X164018261Y-73856141D01*
X164018261Y-73856140D01*
X164044751Y-73688890D01*
X164045000Y-73687318D01*
X164045000Y-73482680D01*
X164012991Y-73280585D01*
X164012990Y-73280581D01*
X163949759Y-73085978D01*
X163949757Y-73085974D01*
X163895509Y-72979505D01*
X163856858Y-72903647D01*
X163824475Y-72859078D01*
X163824474Y-72859078D01*
X163258459Y-73425092D01*
X163203943Y-73452869D01*
X163143511Y-73443298D01*
X163102720Y-73404588D01*
X163065081Y-73339396D01*
X163065080Y-73339394D01*
X162990606Y-73264920D01*
X162990603Y-73264918D01*
X162925409Y-73227278D01*
X162884468Y-73181809D01*
X162878072Y-73120958D01*
X162904902Y-73071542D01*
X163470920Y-72505524D01*
X163470920Y-72505523D01*
X163428202Y-72474486D01*
X163426926Y-72473513D01*
X163426346Y-72473138D01*
X163244027Y-72380243D01*
X163049407Y-72317006D01*
X162847318Y-72285000D01*
X162847315Y-72285000D01*
X162642685Y-72285000D01*
X162642681Y-72285000D01*
X162440592Y-72317006D01*
X162245968Y-72380244D01*
X162063912Y-72473005D01*
X162063672Y-72473126D01*
X162063641Y-72473144D01*
X162019078Y-72505522D01*
X162019078Y-72505523D01*
X162585095Y-73071540D01*
X162612871Y-73126055D01*
X162603300Y-73186487D01*
X162564591Y-73227278D01*
X162499395Y-73264919D01*
X162424919Y-73339395D01*
X162387278Y-73404591D01*
X162341808Y-73445531D01*
X162280958Y-73451926D01*
X162231540Y-73425095D01*
X161665523Y-72859078D01*
X161665522Y-72859078D01*
X161633142Y-72903644D01*
X161633134Y-72903659D01*
X161586532Y-72995120D01*
X161568322Y-73020181D01*
X161564501Y-73024002D01*
X161562493Y-73026011D01*
X161507974Y-73053783D01*
X161447542Y-73044207D01*
X161404285Y-73000946D01*
X161401101Y-72994697D01*
X161391158Y-72962672D01*
X161389409Y-72949385D01*
X161380044Y-72878238D01*
X161371075Y-72856586D01*
X161325331Y-72746149D01*
X161319537Y-72732161D01*
X161319537Y-72732160D01*
X161223286Y-72606723D01*
X161223285Y-72606722D01*
X161223282Y-72606718D01*
X161223277Y-72606714D01*
X161223276Y-72606713D01*
X161184614Y-72577047D01*
X161097839Y-72510462D01*
X161097836Y-72510461D01*
X160951765Y-72449956D01*
X160951759Y-72449955D01*
X160951758Y-72449955D01*
X160863545Y-72438342D01*
X160834362Y-72434500D01*
X160834361Y-72434500D01*
X159655642Y-72434500D01*
X159655637Y-72434500D01*
X159653971Y-72434665D01*
X159652376Y-72434930D01*
X159538246Y-72449953D01*
X159538243Y-72449954D01*
X159538232Y-72449957D01*
X159538230Y-72449957D01*
X159395156Y-72509220D01*
X159392451Y-72510238D01*
X159266729Y-72606707D01*
X159266707Y-72606729D01*
X159170238Y-72732451D01*
X159169220Y-72735156D01*
X159109957Y-72878230D01*
X159109957Y-72878231D01*
X159109957Y-72878233D01*
X159109955Y-72878241D01*
X159104803Y-72917373D01*
X159094500Y-72995635D01*
X157853499Y-72995635D01*
X157853499Y-66621934D01*
X157860888Y-66599189D01*
X157860886Y-66583518D01*
X157860886Y-66583515D01*
X157870105Y-66570822D01*
X157872406Y-66563743D01*
X157874631Y-66560798D01*
X157879476Y-66554627D01*
X157880999Y-66555823D01*
X157896842Y-66534011D01*
X157955029Y-66515094D01*
X158013223Y-66533991D01*
X158015521Y-66535660D01*
X158045554Y-66570818D01*
X158134423Y-66745234D01*
X158134428Y-66745241D01*
X158268609Y-66929924D01*
X158268613Y-66929929D01*
X158268615Y-66929931D01*
X158268617Y-66929933D01*
X158268620Y-66929937D01*
X158430062Y-67091379D01*
X158430065Y-67091381D01*
X158430071Y-67091387D01*
X158430454Y-67091701D01*
X158431668Y-67092546D01*
X158614765Y-67225575D01*
X158614771Y-67225579D01*
X158818200Y-67329231D01*
X159035339Y-67399784D01*
X159035340Y-67399784D01*
X159035343Y-67399785D01*
X159176298Y-67422110D01*
X159260836Y-67435500D01*
X159489159Y-67435500D01*
X159489162Y-67435500D01*
X159578828Y-67421297D01*
X159714654Y-67399785D01*
X159714654Y-67399784D01*
X159714656Y-67399784D01*
X159714659Y-67399784D01*
X159714662Y-67399783D01*
X159717238Y-67399375D01*
X159722045Y-67397383D01*
X159931798Y-67329231D01*
X160135227Y-67225579D01*
X160236056Y-67152319D01*
X160263646Y-67138261D01*
X160276335Y-67134138D01*
X160337517Y-67134138D01*
X160337518Y-67134138D01*
X160340624Y-67135147D01*
X160378403Y-67159293D01*
X160381657Y-67160945D01*
X160385094Y-67161347D01*
X160385094Y-67161346D01*
X160385096Y-67161347D01*
X161291731Y-66254710D01*
X161346246Y-66226935D01*
X161406678Y-66236506D01*
X161447469Y-66275216D01*
X161473967Y-66321111D01*
X161474889Y-66322708D01*
X161577291Y-66425110D01*
X161624780Y-66452527D01*
X161665720Y-66497996D01*
X161672116Y-66558846D01*
X161645283Y-66608266D01*
X160738650Y-67514900D01*
X160738650Y-67514901D01*
X160738650Y-67514902D01*
X160745869Y-67519355D01*
X160745878Y-67519359D01*
X160912305Y-67574506D01*
X160932846Y-67576604D01*
X161015003Y-67584999D01*
X162814985Y-67584999D01*
X162814993Y-67584999D01*
X162917677Y-67574508D01*
X162917677Y-67574507D01*
X162917686Y-67574507D01*
X162917701Y-67574504D01*
X163084115Y-67519361D01*
X163091345Y-67514900D01*
X162184713Y-66608268D01*
X162156936Y-66553751D01*
X162166507Y-66493319D01*
X162205217Y-66452527D01*
X162252707Y-66425110D01*
X162355109Y-66322708D01*
X162382526Y-66275218D01*
X162427995Y-66234277D01*
X162488846Y-66227881D01*
X162538267Y-66254714D01*
X163444899Y-67161346D01*
X163449360Y-67154116D01*
X163504449Y-66987861D01*
X163504477Y-66987823D01*
X163504504Y-66987697D01*
X163504504Y-66987695D01*
X163504505Y-66987693D01*
X163514999Y-66884987D01*
X163514999Y-66240146D01*
X163514998Y-65085013D01*
X163514998Y-65085005D01*
X163504506Y-64982312D01*
X163504506Y-64982311D01*
X163504503Y-64982301D01*
X163487850Y-64932045D01*
X163449358Y-64815879D01*
X163449354Y-64815870D01*
X163444900Y-64808651D01*
X163444899Y-64808651D01*
X162538265Y-65715284D01*
X162483749Y-65743061D01*
X162423317Y-65733490D01*
X162382526Y-65694781D01*
X162355109Y-65647292D01*
X162252707Y-65544890D01*
X162252704Y-65544888D01*
X162205215Y-65517470D01*
X162164274Y-65472000D01*
X162157878Y-65411150D01*
X162184709Y-65361732D01*
X163091346Y-64455097D01*
X163091346Y-64455096D01*
X163084125Y-64450642D01*
X162917692Y-64395493D01*
X162917689Y-64395492D01*
X162814994Y-64385000D01*
X162814986Y-64385000D01*
X162250830Y-64385000D01*
X162219468Y-64377610D01*
X162212414Y-64377612D01*
X162209023Y-64375149D01*
X162206631Y-64374586D01*
X162199518Y-64371037D01*
X162200540Y-64368988D01*
X162162908Y-64341657D01*
X162143990Y-64283469D01*
X162161214Y-64230428D01*
X166851133Y-64230428D01*
X166851133Y-64435066D01*
X166883139Y-64637155D01*
X166946376Y-64831775D01*
X167039271Y-65014094D01*
X167039646Y-65014674D01*
X167040619Y-65015950D01*
X167071656Y-65058668D01*
X167071657Y-65058668D01*
X167637673Y-64492651D01*
X167692188Y-64464876D01*
X167752620Y-64474447D01*
X167793411Y-64513157D01*
X167826352Y-64570212D01*
X167831053Y-64578354D01*
X167905527Y-64652828D01*
X167905529Y-64652829D01*
X167970721Y-64690468D01*
X168011662Y-64735937D01*
X168018058Y-64796787D01*
X167991225Y-64846207D01*
X167425210Y-65412222D01*
X167425211Y-65412222D01*
X167425211Y-65412223D01*
X167469780Y-65444606D01*
X167469786Y-65444609D01*
X167469791Y-65444612D01*
X167561248Y-65491211D01*
X167586308Y-65509417D01*
X167592138Y-65515247D01*
X167619915Y-65569764D01*
X167610344Y-65630196D01*
X167567079Y-65673461D01*
X167567073Y-65673464D01*
X167560823Y-65676648D01*
X167528805Y-65686588D01*
X167444379Y-65697701D01*
X167444376Y-65697702D01*
X167444365Y-65697705D01*
X167444363Y-65697705D01*
X167301289Y-65756968D01*
X167298584Y-65757986D01*
X167172862Y-65854455D01*
X167172840Y-65854477D01*
X167076371Y-65980199D01*
X167075353Y-65982904D01*
X167016090Y-66125978D01*
X167016090Y-66125979D01*
X167016088Y-66125990D01*
X167000633Y-66243383D01*
X167000633Y-67422100D01*
X167000799Y-67423777D01*
X167001063Y-67425370D01*
X167016086Y-67539500D01*
X167016087Y-67539503D01*
X167016089Y-67539513D01*
X167056794Y-67637782D01*
X167076595Y-67685586D01*
X167076595Y-67685587D01*
X167076597Y-67685589D01*
X167172851Y-67811030D01*
X167172852Y-67811031D01*
X167172854Y-67811033D01*
X167172864Y-67811044D01*
X167173252Y-67811338D01*
X167191709Y-67825500D01*
X167298292Y-67907284D01*
X167444371Y-67967792D01*
X167561772Y-67983248D01*
X168740493Y-67983247D01*
X168857895Y-67967792D01*
X169003974Y-67907284D01*
X169129415Y-67811030D01*
X169225669Y-67685589D01*
X169286177Y-67539510D01*
X169301633Y-67422109D01*
X169301632Y-66243388D01*
X169286177Y-66125986D01*
X169275064Y-66099157D01*
X169225670Y-65979909D01*
X169225670Y-65979908D01*
X169129419Y-65854471D01*
X169129418Y-65854470D01*
X169129415Y-65854466D01*
X169129410Y-65854462D01*
X169129409Y-65854461D01*
X169053757Y-65796412D01*
X169053756Y-65796411D01*
X169010056Y-65762878D01*
X169009120Y-65762160D01*
X169007588Y-65760817D01*
X169003972Y-65758210D01*
X168857898Y-65697704D01*
X168857891Y-65697703D01*
X168774613Y-65686739D01*
X168744917Y-65677943D01*
X168737476Y-65674394D01*
X168693093Y-65632277D01*
X168681942Y-65572117D01*
X168708279Y-65516894D01*
X168713110Y-65511803D01*
X168739976Y-65491741D01*
X168832475Y-65444611D01*
X168832483Y-65444606D01*
X168877053Y-65412223D01*
X168311036Y-64846206D01*
X168283261Y-64791692D01*
X168292832Y-64731260D01*
X168331541Y-64690469D01*
X168396739Y-64652828D01*
X168471213Y-64578354D01*
X168508854Y-64513156D01*
X168554322Y-64472216D01*
X168615173Y-64465820D01*
X168664591Y-64492651D01*
X169230608Y-65058668D01*
X169262991Y-65014098D01*
X169262996Y-65014090D01*
X169355889Y-64831775D01*
X169355890Y-64831770D01*
X169355892Y-64831768D01*
X169419123Y-64637165D01*
X169419125Y-64637160D01*
X169451133Y-64435066D01*
X169451133Y-64230428D01*
X176246000Y-64230428D01*
X176246000Y-64435066D01*
X176278006Y-64637155D01*
X176341243Y-64831775D01*
X176434138Y-65014094D01*
X176434513Y-65014674D01*
X176435486Y-65015950D01*
X176466523Y-65058668D01*
X176466524Y-65058668D01*
X177032540Y-64492651D01*
X177087055Y-64464876D01*
X177147487Y-64474447D01*
X177188278Y-64513157D01*
X177221219Y-64570212D01*
X177225920Y-64578354D01*
X177300394Y-64652828D01*
X177300396Y-64652829D01*
X177365588Y-64690468D01*
X177406529Y-64735937D01*
X177412925Y-64796787D01*
X177386092Y-64846207D01*
X176820077Y-65412222D01*
X176820078Y-65412222D01*
X176820078Y-65412223D01*
X176864647Y-65444606D01*
X176864653Y-65444609D01*
X176864658Y-65444612D01*
X176956115Y-65491211D01*
X176981175Y-65509417D01*
X176987005Y-65515247D01*
X177014782Y-65569764D01*
X177005211Y-65630196D01*
X176961946Y-65673461D01*
X176961940Y-65673464D01*
X176955690Y-65676648D01*
X176923672Y-65686588D01*
X176839246Y-65697701D01*
X176839243Y-65697702D01*
X176839232Y-65697705D01*
X176839230Y-65697705D01*
X176696156Y-65756968D01*
X176693451Y-65757986D01*
X176567729Y-65854455D01*
X176567707Y-65854477D01*
X176471238Y-65980199D01*
X176470220Y-65982904D01*
X176410957Y-66125978D01*
X176410957Y-66125979D01*
X176410955Y-66125990D01*
X176395500Y-66243383D01*
X176395500Y-67422100D01*
X176395666Y-67423777D01*
X176395930Y-67425370D01*
X176410953Y-67539500D01*
X176410954Y-67539503D01*
X176410956Y-67539513D01*
X176451661Y-67637782D01*
X176471462Y-67685586D01*
X176471462Y-67685587D01*
X176471464Y-67685589D01*
X176567718Y-67811030D01*
X176567719Y-67811031D01*
X176567721Y-67811033D01*
X176567731Y-67811044D01*
X176568119Y-67811338D01*
X176586576Y-67825500D01*
X176693159Y-67907284D01*
X176839238Y-67967792D01*
X176956639Y-67983248D01*
X178135360Y-67983247D01*
X178252762Y-67967792D01*
X178398841Y-67907284D01*
X178524282Y-67811030D01*
X178620536Y-67685589D01*
X178681044Y-67539510D01*
X178696500Y-67422109D01*
X178696499Y-66243388D01*
X178681044Y-66125986D01*
X178669931Y-66099157D01*
X178620537Y-65979909D01*
X178620537Y-65979908D01*
X178524286Y-65854471D01*
X178524285Y-65854470D01*
X178524282Y-65854466D01*
X178524277Y-65854462D01*
X178524276Y-65854461D01*
X178448624Y-65796412D01*
X178448623Y-65796411D01*
X178404923Y-65762878D01*
X178403987Y-65762160D01*
X178402455Y-65760817D01*
X178398839Y-65758210D01*
X178252765Y-65697704D01*
X178252758Y-65697703D01*
X178169480Y-65686739D01*
X178139784Y-65677943D01*
X178132343Y-65674394D01*
X178087960Y-65632277D01*
X178076809Y-65572117D01*
X178103146Y-65516894D01*
X178107977Y-65511803D01*
X178134843Y-65491741D01*
X178227342Y-65444611D01*
X178227350Y-65444606D01*
X178271920Y-65412223D01*
X177705903Y-64846206D01*
X177678128Y-64791692D01*
X177687699Y-64731260D01*
X177726408Y-64690469D01*
X177791606Y-64652828D01*
X177866080Y-64578354D01*
X177903721Y-64513156D01*
X177949189Y-64472216D01*
X178010040Y-64465820D01*
X178059458Y-64492651D01*
X178625475Y-65058668D01*
X178657858Y-65014098D01*
X178657863Y-65014090D01*
X178750756Y-64831775D01*
X178750757Y-64831770D01*
X178750759Y-64831768D01*
X178813990Y-64637165D01*
X178813992Y-64637160D01*
X178846000Y-64435066D01*
X178846000Y-64230428D01*
X178813991Y-64028333D01*
X178813990Y-64028329D01*
X178750759Y-63833726D01*
X178750757Y-63833722D01*
X178657861Y-63651401D01*
X178657860Y-63651399D01*
X178657858Y-63651395D01*
X178625475Y-63606826D01*
X178625474Y-63606826D01*
X178059459Y-64172840D01*
X178004943Y-64200617D01*
X177944511Y-64191046D01*
X177903720Y-64152336D01*
X177866081Y-64087144D01*
X177866080Y-64087142D01*
X177791606Y-64012668D01*
X177791603Y-64012666D01*
X177726409Y-63975026D01*
X177685468Y-63929557D01*
X177679072Y-63868706D01*
X177705902Y-63819290D01*
X178271921Y-63253271D01*
X178271920Y-63253270D01*
X178229213Y-63222242D01*
X178227925Y-63221260D01*
X178227346Y-63220886D01*
X178045027Y-63127991D01*
X177850407Y-63064754D01*
X177648318Y-63032748D01*
X177648315Y-63032748D01*
X177443685Y-63032748D01*
X177443681Y-63032748D01*
X177241592Y-63064754D01*
X177046968Y-63127992D01*
X176864912Y-63220753D01*
X176864672Y-63220874D01*
X176864641Y-63220892D01*
X176820078Y-63253270D01*
X176820078Y-63253271D01*
X177386095Y-63819288D01*
X177413871Y-63873803D01*
X177404300Y-63934235D01*
X177365591Y-63975026D01*
X177300395Y-64012667D01*
X177225919Y-64087143D01*
X177188278Y-64152339D01*
X177142808Y-64193279D01*
X177081958Y-64199674D01*
X177032540Y-64172843D01*
X176466523Y-63606826D01*
X176466522Y-63606826D01*
X176434144Y-63651389D01*
X176434126Y-63651420D01*
X176434005Y-63651660D01*
X176341244Y-63833716D01*
X176278006Y-64028339D01*
X176246000Y-64230428D01*
X169451133Y-64230428D01*
X169419124Y-64028333D01*
X169419123Y-64028329D01*
X169355892Y-63833726D01*
X169355890Y-63833722D01*
X169262994Y-63651401D01*
X169262993Y-63651399D01*
X169262991Y-63651395D01*
X169230608Y-63606826D01*
X169230607Y-63606826D01*
X168664592Y-64172840D01*
X168610076Y-64200617D01*
X168549644Y-64191046D01*
X168508853Y-64152336D01*
X168471214Y-64087144D01*
X168471213Y-64087142D01*
X168396739Y-64012668D01*
X168396736Y-64012666D01*
X168331542Y-63975026D01*
X168290601Y-63929557D01*
X168284205Y-63868706D01*
X168311035Y-63819290D01*
X168877053Y-63253272D01*
X168877053Y-63253271D01*
X168849119Y-63232976D01*
X168834335Y-63222234D01*
X168833059Y-63221261D01*
X168832479Y-63220886D01*
X168650160Y-63127991D01*
X168455540Y-63064754D01*
X168253451Y-63032748D01*
X168253448Y-63032748D01*
X168048818Y-63032748D01*
X168048814Y-63032748D01*
X167846725Y-63064754D01*
X167652101Y-63127992D01*
X167470045Y-63220753D01*
X167469805Y-63220874D01*
X167469774Y-63220892D01*
X167425211Y-63253270D01*
X167425211Y-63253271D01*
X167991228Y-63819288D01*
X168019004Y-63873803D01*
X168009433Y-63934235D01*
X167970724Y-63975026D01*
X167905528Y-64012667D01*
X167831052Y-64087143D01*
X167793411Y-64152339D01*
X167747941Y-64193279D01*
X167687091Y-64199674D01*
X167637673Y-64172843D01*
X167071656Y-63606826D01*
X167071655Y-63606826D01*
X167039277Y-63651389D01*
X167039259Y-63651420D01*
X167039138Y-63651660D01*
X166946377Y-63833716D01*
X166883139Y-64028339D01*
X166851133Y-64230428D01*
X162161214Y-64230428D01*
X162162887Y-64225275D01*
X162163615Y-64224273D01*
X162205830Y-64190988D01*
X162294178Y-64154394D01*
X162315899Y-64139880D01*
X162315902Y-64139879D01*
X162359165Y-64110971D01*
X162425288Y-64066789D01*
X162536788Y-63955289D01*
X162624393Y-63824179D01*
X162684736Y-63678497D01*
X162715499Y-63523842D01*
X162715499Y-63366158D01*
X162712451Y-63350836D01*
X162704392Y-63310317D01*
X162693044Y-63253271D01*
X162684736Y-63211503D01*
X162664621Y-63162942D01*
X162650144Y-63127991D01*
X162624397Y-63065829D01*
X162624384Y-63065806D01*
X162568241Y-62981784D01*
X162568240Y-62981783D01*
X162566060Y-62978521D01*
X162536788Y-62934711D01*
X162483769Y-62881692D01*
X162425296Y-62823218D01*
X162425292Y-62823215D01*
X162425288Y-62823211D01*
X162373058Y-62788312D01*
X162294184Y-62735609D01*
X162294173Y-62735603D01*
X162294168Y-62735600D01*
X162148497Y-62675263D01*
X161993843Y-62644500D01*
X161993841Y-62644500D01*
X161836157Y-62644500D01*
X161836154Y-62644500D01*
X161836153Y-62644500D01*
X161771679Y-62657325D01*
X161691064Y-62673361D01*
X161691057Y-62673361D01*
X161681498Y-62675262D01*
X161535828Y-62735600D01*
X161535805Y-62735613D01*
X161404710Y-62823210D01*
X161293209Y-62934711D01*
X161205612Y-63065806D01*
X161205599Y-63065829D01*
X161145263Y-63211496D01*
X161145263Y-63211497D01*
X161145262Y-63211499D01*
X161145262Y-63211501D01*
X161145262Y-63211503D01*
X161135875Y-63258694D01*
X161114499Y-63366154D01*
X161114499Y-63523845D01*
X161122850Y-63565826D01*
X161139792Y-63651000D01*
X161143359Y-63668933D01*
X161143360Y-63668937D01*
X161145261Y-63678499D01*
X161205599Y-63824169D01*
X161205612Y-63824192D01*
X161238762Y-63873803D01*
X161256333Y-63900099D01*
X161293210Y-63955289D01*
X161404710Y-64066789D01*
X161470833Y-64110971D01*
X161535813Y-64154390D01*
X161535824Y-64154396D01*
X161582270Y-64173634D01*
X161622483Y-64190290D01*
X161626520Y-64192418D01*
X161629378Y-64195356D01*
X161644652Y-64204716D01*
X161650922Y-64210071D01*
X161663234Y-64230161D01*
X161669183Y-64236276D01*
X161669860Y-64240972D01*
X161682893Y-64262238D01*
X161678094Y-64323234D01*
X161638443Y-64369710D01*
X161637388Y-64370358D01*
X161585574Y-64385000D01*
X161015004Y-64385000D01*
X160912319Y-64395490D01*
X160912291Y-64395496D01*
X160912289Y-64395496D01*
X160745878Y-64450639D01*
X160745874Y-64450641D01*
X160738650Y-64455096D01*
X160738650Y-64455097D01*
X161193190Y-64909637D01*
X161645284Y-65361731D01*
X161673061Y-65416248D01*
X161663490Y-65476680D01*
X161624781Y-65517471D01*
X161577292Y-65544889D01*
X161474888Y-65647293D01*
X161447470Y-65694782D01*
X161402000Y-65735723D01*
X161341149Y-65742117D01*
X161291730Y-65715285D01*
X160929517Y-65353072D01*
X160385096Y-64808651D01*
X160385095Y-64808651D01*
X160378664Y-64809402D01*
X160369071Y-64817549D01*
X160312477Y-64840803D01*
X160312461Y-64840804D01*
X160309210Y-64841050D01*
X160260165Y-64832179D01*
X160257522Y-64830956D01*
X160240906Y-64821201D01*
X160135240Y-64744429D01*
X160135229Y-64744422D01*
X160135226Y-64744420D01*
X159931798Y-64640769D01*
X159920691Y-64637160D01*
X159920676Y-64637155D01*
X159739709Y-64578354D01*
X159739705Y-64578354D01*
X159714654Y-64570214D01*
X159714652Y-64570213D01*
X159714647Y-64570212D01*
X159489162Y-64534500D01*
X159489159Y-64534500D01*
X159489156Y-64534500D01*
X159260842Y-64534500D01*
X159260839Y-64534500D01*
X159260836Y-64534500D01*
X159035347Y-64570212D01*
X158818198Y-64640769D01*
X158614767Y-64744422D01*
X158614756Y-64744429D01*
X158430072Y-64878611D01*
X158268610Y-65040073D01*
X158134428Y-65224757D01*
X158134423Y-65224765D01*
X158134420Y-65224769D01*
X158134419Y-65224772D01*
X158117523Y-65257933D01*
X158047828Y-65394717D01*
X158030908Y-65411636D01*
X158023789Y-65425608D01*
X158009819Y-65432725D01*
X158004563Y-65437982D01*
X158001254Y-65439591D01*
X157994135Y-65442891D01*
X157993319Y-65441131D01*
X157969272Y-65453384D01*
X157908840Y-65443810D01*
X157865577Y-65400544D01*
X157864288Y-65398014D01*
X157853499Y-65353072D01*
X157853499Y-63366154D01*
X158574499Y-63366154D01*
X158574499Y-63523845D01*
X158582850Y-63565826D01*
X158599792Y-63651000D01*
X158603359Y-63668933D01*
X158603360Y-63668937D01*
X158605261Y-63678499D01*
X158665599Y-63824169D01*
X158665612Y-63824192D01*
X158698762Y-63873803D01*
X158716333Y-63900099D01*
X158753210Y-63955289D01*
X158864710Y-64066789D01*
X158930833Y-64110971D01*
X158995813Y-64154390D01*
X158995824Y-64154396D01*
X159049637Y-64176685D01*
X159141502Y-64214737D01*
X159296157Y-64245500D01*
X159296158Y-64245500D01*
X159453840Y-64245500D01*
X159453841Y-64245500D01*
X159608496Y-64214737D01*
X159754178Y-64154394D01*
X159885288Y-64066789D01*
X159996788Y-63955289D01*
X160084393Y-63824179D01*
X160144736Y-63678497D01*
X160175499Y-63523842D01*
X160175499Y-63366158D01*
X160144736Y-63211503D01*
X160124621Y-63162942D01*
X160110144Y-63127991D01*
X160084397Y-63065829D01*
X160084384Y-63065806D01*
X160028241Y-62981784D01*
X160028240Y-62981783D01*
X160026060Y-62978521D01*
X159996788Y-62934711D01*
X159943769Y-62881692D01*
X159885296Y-62823218D01*
X159885292Y-62823215D01*
X159885288Y-62823211D01*
X159833058Y-62788312D01*
X159754184Y-62735609D01*
X159754173Y-62735603D01*
X159754168Y-62735600D01*
X159608497Y-62675263D01*
X159453843Y-62644500D01*
X159453841Y-62644500D01*
X159296157Y-62644500D01*
X159296154Y-62644500D01*
X159296153Y-62644500D01*
X159231679Y-62657325D01*
X159151064Y-62673361D01*
X159151057Y-62673361D01*
X159141498Y-62675262D01*
X158995828Y-62735600D01*
X158995805Y-62735613D01*
X158864710Y-62823210D01*
X158753209Y-62934711D01*
X158665612Y-63065806D01*
X158665599Y-63065829D01*
X158605263Y-63211496D01*
X158605263Y-63211497D01*
X158605262Y-63211499D01*
X158605262Y-63211501D01*
X158605262Y-63211503D01*
X158595875Y-63258694D01*
X158574499Y-63366154D01*
X157853499Y-63366154D01*
X157853499Y-61836680D01*
X157858342Y-61806094D01*
X157862464Y-61793405D01*
X157898422Y-61743906D01*
X157899021Y-61743471D01*
X157902562Y-61740900D01*
X157960742Y-61722000D01*
X196496819Y-61722000D01*
X196527407Y-61726843D01*
G37*
%TD.AperFunction*%
%TA.AperFunction,Conductor*%
G36*
X175262632Y-111899079D02*
G01*
X175454416Y-112090863D01*
X175472621Y-112115921D01*
X175483708Y-112137680D01*
X175494499Y-112182626D01*
X175494499Y-112583364D01*
X175489653Y-112613958D01*
X175486273Y-112624360D01*
X175450308Y-112673860D01*
X175392117Y-112692766D01*
X175340399Y-112678182D01*
X175336324Y-112675685D01*
X175335493Y-112675176D01*
X175317212Y-112660766D01*
X174909078Y-112252632D01*
X174881301Y-112198115D01*
X174890872Y-112137683D01*
X174924080Y-112100314D01*
X174973096Y-112067563D01*
X175077562Y-111963097D01*
X175110312Y-111914083D01*
X175158361Y-111876202D01*
X175219499Y-111873800D01*
X175262632Y-111899079D01*
G37*
%TD.AperFunction*%
%TA.AperFunction,Conductor*%
G36*
X175464160Y-110307074D02*
G01*
X175490417Y-110353953D01*
X175491761Y-110359548D01*
X175494499Y-110382671D01*
X175494499Y-110782364D01*
X175489653Y-110812958D01*
X175482105Y-110836187D01*
X175457955Y-110875596D01*
X175262630Y-111070920D01*
X175208115Y-111098697D01*
X175147683Y-111089126D01*
X175110312Y-111055917D01*
X175077564Y-111006906D01*
X175077562Y-111006903D01*
X174973096Y-110902437D01*
X174973090Y-110902433D01*
X174924080Y-110869686D01*
X174886200Y-110821636D01*
X174883798Y-110760498D01*
X174909078Y-110717366D01*
X175084008Y-110542437D01*
X175314409Y-110312036D01*
X175339463Y-110293832D01*
X175349214Y-110288864D01*
X175409644Y-110279295D01*
X175464160Y-110307074D01*
G37*
%TD.AperFunction*%
%TA.AperFunction,Conductor*%
G36*
X189978521Y-108988907D02*
G01*
X190014485Y-109038407D01*
X190015957Y-109094623D01*
X190000000Y-109154174D01*
X190000000Y-109285825D01*
X190015957Y-109345377D01*
X190012755Y-109406478D01*
X189974249Y-109454028D01*
X189920330Y-109470000D01*
X188539670Y-109470000D01*
X188481479Y-109451093D01*
X188445515Y-109401593D01*
X188444043Y-109345377D01*
X188460000Y-109285825D01*
X188460000Y-109154174D01*
X188444043Y-109094623D01*
X188447245Y-109033522D01*
X188485751Y-108985972D01*
X188539670Y-108970000D01*
X189920330Y-108970000D01*
X189978521Y-108988907D01*
G37*
%TD.AperFunction*%
%TA.AperFunction,Conductor*%
G36*
X192487090Y-108978694D02*
G01*
X192514249Y-108985972D01*
X192515949Y-108988071D01*
X192518521Y-108988907D01*
X192535060Y-109011671D01*
X192552755Y-109033522D01*
X192552927Y-109036263D01*
X192554485Y-109038407D01*
X192555500Y-109077180D01*
X192556471Y-109092618D01*
X192556215Y-109093659D01*
X192540000Y-109154174D01*
X192540000Y-109159665D01*
X192540000Y-109285825D01*
X192555957Y-109345377D01*
X192552755Y-109406478D01*
X192514249Y-109454028D01*
X192460330Y-109470000D01*
X191079670Y-109470000D01*
X191021479Y-109451093D01*
X190985515Y-109401593D01*
X190984043Y-109345377D01*
X191000000Y-109285825D01*
X191000000Y-109154174D01*
X190984043Y-109094623D01*
X190987245Y-109033522D01*
X191025751Y-108985972D01*
X191079670Y-108970000D01*
X192460330Y-108970000D01*
X192487090Y-108978694D01*
G37*
%TD.AperFunction*%
%TA.AperFunction,Conductor*%
G36*
X195058521Y-108988907D02*
G01*
X195094485Y-109038407D01*
X195095957Y-109094623D01*
X195080000Y-109154174D01*
X195080000Y-109285825D01*
X195095957Y-109345377D01*
X195092755Y-109406478D01*
X195054249Y-109454028D01*
X195000330Y-109470000D01*
X193619670Y-109470000D01*
X193561479Y-109451093D01*
X193525515Y-109401593D01*
X193524043Y-109345377D01*
X193540000Y-109285825D01*
X193540000Y-109154174D01*
X193524043Y-109094623D01*
X193527245Y-109033522D01*
X193565751Y-108985972D01*
X193619670Y-108970000D01*
X195000330Y-108970000D01*
X195058521Y-108988907D01*
G37*
%TD.AperFunction*%
%TA.AperFunction,Conductor*%
G36*
X189978521Y-63268907D02*
G01*
X190014485Y-63318407D01*
X190015957Y-63374623D01*
X190000000Y-63434174D01*
X190000000Y-63565825D01*
X190015957Y-63625377D01*
X190012755Y-63686478D01*
X189974249Y-63734028D01*
X189920330Y-63750000D01*
X188539670Y-63750000D01*
X188481479Y-63731093D01*
X188445515Y-63681593D01*
X188444043Y-63625377D01*
X188460000Y-63565825D01*
X188460000Y-63434174D01*
X188444043Y-63374623D01*
X188447245Y-63313522D01*
X188485751Y-63265972D01*
X188539670Y-63250000D01*
X189920330Y-63250000D01*
X189978521Y-63268907D01*
G37*
%TD.AperFunction*%
%TA.AperFunction,Conductor*%
G36*
X192487090Y-63258694D02*
G01*
X192514249Y-63265972D01*
X192515949Y-63268071D01*
X192518521Y-63268907D01*
X192535060Y-63291671D01*
X192552755Y-63313522D01*
X192552927Y-63316263D01*
X192554485Y-63318407D01*
X192555500Y-63357180D01*
X192556471Y-63372618D01*
X192556215Y-63373659D01*
X192540000Y-63434174D01*
X192540000Y-63439665D01*
X192540000Y-63565825D01*
X192555957Y-63625377D01*
X192552755Y-63686478D01*
X192514249Y-63734028D01*
X192460330Y-63750000D01*
X191079670Y-63750000D01*
X191021479Y-63731093D01*
X190985515Y-63681593D01*
X190984043Y-63625377D01*
X191000000Y-63565825D01*
X191000000Y-63434174D01*
X190984043Y-63374623D01*
X190987245Y-63313522D01*
X191025751Y-63265972D01*
X191079670Y-63250000D01*
X192460330Y-63250000D01*
X192487090Y-63258694D01*
G37*
%TD.AperFunction*%
%TA.AperFunction,Conductor*%
G36*
X195058521Y-63268907D02*
G01*
X195094485Y-63318407D01*
X195095957Y-63374623D01*
X195080000Y-63434174D01*
X195080000Y-63565825D01*
X195095957Y-63625377D01*
X195092755Y-63686478D01*
X195054249Y-63734028D01*
X195000330Y-63750000D01*
X193619670Y-63750000D01*
X193561479Y-63731093D01*
X193525515Y-63681593D01*
X193524043Y-63625377D01*
X193540000Y-63565825D01*
X193540000Y-63434174D01*
X193524043Y-63374623D01*
X193527245Y-63313522D01*
X193565751Y-63265972D01*
X193619670Y-63250000D01*
X195000330Y-63250000D01*
X195058521Y-63268907D01*
G37*
%TD.AperFunction*%
%TD*%
M02*
