%TF.GenerationSoftware,KiCad,Pcbnew,10.0.0*%
%TF.CreationDate,2026-08-18T13:50:21-04:00*%
%TF.ProjectId,PWR_RPM5.0_AP2114,5057525f-5250-44d3-952e-305f41503231,rev?*%
%TF.SameCoordinates,PX9610427PY6ca4418*%
%TF.FileFunction,Legend,Top*%
%TF.FilePolarity,Positive*%
%FSLAX46Y46*%
G04 Gerber Fmt 4.6, Leading zero omitted, Abs format (unit mm)*
G04 Created by KiCad (PCBNEW 10.0.0) date 2026-08-18 13:50:21*
%MOMM*%
%LPD*%
G01*
G04 APERTURE LIST*
G04 Aperture macros list*
%AMRoundRect*
0 Rectangle with rounded corners*
0 $1 Rounding radius*
0 $2 $3 $4 $5 $6 $7 $8 $9 X,Y pos of 4 corners*
0 Add a 4 corners polygon primitive as box body*
4,1,4,$2,$3,$4,$5,$6,$7,$8,$9,$2,$3,0*
0 Add four circle primitives for the rounded corners*
1,1,$1+$1,$2,$3*
1,1,$1+$1,$4,$5*
1,1,$1+$1,$6,$7*
1,1,$1+$1,$8,$9*
0 Add four rect primitives between the rounded corners*
20,1,$1+$1,$2,$3,$4,$5,0*
20,1,$1+$1,$4,$5,$6,$7,0*
20,1,$1+$1,$6,$7,$8,$9,0*
20,1,$1+$1,$8,$9,$2,$3,0*%
G04 Aperture macros list end*
%ADD10C,0.100000*%
%ADD11C,0.120000*%
%ADD12RoundRect,0.135000X0.185000X-0.135000X0.185000X0.135000X-0.185000X0.135000X-0.185000X-0.135000X0*%
%ADD13RoundRect,0.250000X-0.550000X-0.550000X0.550000X-0.550000X0.550000X0.550000X-0.550000X0.550000X0*%
%ADD14C,1.600000*%
%ADD15C,1.100000*%
%ADD16RoundRect,0.249999X0.850001X0.850001X-0.850001X0.850001X-0.850001X-0.850001X0.850001X-0.850001X0*%
%ADD17C,2.200000*%
%ADD18R,1.800000X1.800000*%
%ADD19C,1.800000*%
%ADD20R,1.060000X1.060000*%
%ADD21RoundRect,0.250000X-0.650000X0.412500X-0.650000X-0.412500X0.650000X-0.412500X0.650000X0.412500X0*%
%ADD22C,1.440000*%
%ADD23RoundRect,0.135000X-0.135000X-0.185000X0.135000X-0.185000X0.135000X0.185000X-0.135000X0.185000X0*%
%ADD24RoundRect,0.225000X0.225000X0.250000X-0.225000X0.250000X-0.225000X-0.250000X0.225000X-0.250000X0*%
%ADD25RoundRect,0.225000X-0.225000X-0.250000X0.225000X-0.250000X0.225000X0.250000X-0.225000X0.250000X0*%
%ADD26RoundRect,0.135000X0.135000X0.185000X-0.135000X0.185000X-0.135000X-0.185000X0.135000X-0.185000X0*%
%ADD27R,1.500000X2.500000*%
%ADD28O,1.500000X2.500000*%
%ADD29O,2.200000X3.500000*%
%ADD30C,1.300000*%
%ADD31C,2.250000*%
%ADD32RoundRect,0.375000X0.625000X0.375000X-0.625000X0.375000X-0.625000X-0.375000X0.625000X-0.375000X0*%
%ADD33RoundRect,0.500000X0.500000X1.400000X-0.500000X1.400000X-0.500000X-1.400000X0.500000X-1.400000X0*%
%ADD34O,6.744000X3.474000*%
%ADD35RoundRect,0.102000X3.270000X1.635000X-3.270000X1.635000X-3.270000X-1.635000X3.270000X-1.635000X0*%
%ADD36RoundRect,0.250000X0.412500X0.650000X-0.412500X0.650000X-0.412500X-0.650000X0.412500X-0.650000X0*%
%ADD37R,1.700000X1.700000*%
%ADD38C,1.700000*%
%ADD39RoundRect,0.135000X-0.185000X0.135000X-0.185000X-0.135000X0.185000X-0.135000X0.185000X0.135000X0*%
%ADD40C,2.100000*%
G04 APERTURE END LIST*
D10*
G36*
X21903401Y19035056D02*
G01*
X21554500Y18861461D01*
X21516143Y18843247D01*
X21463763Y18829282D01*
X21464308Y18826744D01*
X21471403Y18780800D01*
X21473533Y18736897D01*
X21473533Y18720044D01*
X21903401Y18720044D01*
X21903401Y18525505D01*
X20867811Y18525505D01*
X20867811Y18755093D01*
X20870601Y18839530D01*
X20872393Y18853095D01*
X21014845Y18853095D01*
X21014845Y18720044D01*
X21357396Y18720044D01*
X21358739Y18769076D01*
X21355319Y18831959D01*
X21341538Y18894328D01*
X21318776Y18938678D01*
X21303852Y18955914D01*
X21286362Y18970187D01*
X21264984Y18982098D01*
X21240560Y18990772D01*
X21209424Y18996701D01*
X21174213Y18998664D01*
X21169681Y18998610D01*
X21117856Y18990220D01*
X21074498Y18969769D01*
X21042414Y18939897D01*
X21022146Y18901353D01*
X21016735Y18878539D01*
X21014845Y18853095D01*
X20872393Y18853095D01*
X20884555Y18945142D01*
X20908114Y19026213D01*
X20939815Y19088038D01*
X20979384Y19134575D01*
X21002487Y19152996D01*
X21027921Y19168261D01*
X21056635Y19180678D01*
X21087913Y19189696D01*
X21123981Y19195528D01*
X21163039Y19197478D01*
X21184830Y19196785D01*
X21248394Y19185455D01*
X21277014Y19174661D01*
X21303756Y19160420D01*
X21329410Y19142112D01*
X21353156Y19120112D01*
X21376443Y19092544D01*
X21397660Y19060740D01*
X21418573Y19021055D01*
X21437141Y18976255D01*
X21448376Y18976255D01*
X21494056Y19029106D01*
X21540578Y19063083D01*
X21903401Y19264644D01*
X21903401Y19035056D01*
G37*
G36*
X21238315Y20079805D02*
G01*
X21312804Y20065848D01*
X21376394Y20039586D01*
X21429527Y20001867D01*
X21452251Y19978769D01*
X21472525Y19952610D01*
X21490207Y19923314D01*
X21505111Y19890866D01*
X21517240Y19854637D01*
X21526167Y19815069D01*
X21531815Y19771001D01*
X21533739Y19723333D01*
X21533739Y19574894D01*
X21903401Y19574894D01*
X21903401Y19380355D01*
X20867811Y19380355D01*
X20867811Y19670149D01*
X20869147Y19714906D01*
X21034446Y19714906D01*
X21034446Y19574894D01*
X21397940Y19574894D01*
X21399283Y19630948D01*
X21393813Y19713691D01*
X21377968Y19776881D01*
X21353397Y19822124D01*
X21337672Y19839704D01*
X21319473Y19854242D01*
X21297584Y19866294D01*
X21272823Y19875055D01*
X21241837Y19880982D01*
X21207125Y19882945D01*
X21180985Y19881361D01*
X21131629Y19869243D01*
X21091377Y19846769D01*
X21061279Y19814628D01*
X21050160Y19794741D01*
X21041697Y19771599D01*
X21036329Y19745084D01*
X21034446Y19714906D01*
X20869147Y19714906D01*
X20869660Y19732074D01*
X20882789Y19832468D01*
X20906483Y19910334D01*
X20939420Y19970549D01*
X20959508Y19995407D01*
X20981773Y20016736D01*
X21007529Y20035612D01*
X21035489Y20050949D01*
X21068833Y20064033D01*
X21104579Y20073312D01*
X21148901Y20079673D01*
X21196012Y20081698D01*
X21238315Y20079805D01*
G37*
G36*
X20867811Y20254805D02*
G01*
X21903401Y20254805D01*
X21903401Y20418570D01*
X21292916Y20418570D01*
X21215387Y20416563D01*
X21139291Y20410330D01*
X21061068Y20400374D01*
X21061068Y20426996D01*
X21876045Y20659393D01*
X21876045Y20778340D01*
X21061068Y21009393D01*
X21061068Y21037359D01*
X21163122Y21027090D01*
X21292977Y21024781D01*
X21903401Y21024781D01*
X21903401Y21188545D01*
X20867811Y21188545D01*
X20867811Y20925374D01*
X21431218Y20775592D01*
X21549451Y20752776D01*
X21643648Y20743352D01*
X21643648Y20694381D01*
X21558287Y20685763D01*
X21486012Y20674534D01*
X21431279Y20662141D01*
X20867811Y20512359D01*
X20867811Y20254805D01*
G37*
G36*
X21238315Y22489017D02*
G01*
X21312804Y22475060D01*
X21376394Y22448798D01*
X21429527Y22411078D01*
X21452251Y22387981D01*
X21472525Y22361821D01*
X21490207Y22332525D01*
X21505111Y22300078D01*
X21517240Y22263848D01*
X21526167Y22224280D01*
X21531815Y22180213D01*
X21533739Y22132544D01*
X21533739Y21984105D01*
X21903401Y21984105D01*
X21903401Y21789566D01*
X20867811Y21789566D01*
X20867811Y22079360D01*
X20869147Y22124118D01*
X21034446Y22124118D01*
X21034446Y21984105D01*
X21397940Y21984105D01*
X21399283Y22040159D01*
X21393813Y22122903D01*
X21377968Y22186093D01*
X21353397Y22231335D01*
X21337672Y22248915D01*
X21319473Y22263453D01*
X21297584Y22275506D01*
X21272823Y22284267D01*
X21241837Y22290193D01*
X21207125Y22292157D01*
X21180985Y22290572D01*
X21131629Y22278455D01*
X21091377Y22255981D01*
X21061279Y22223839D01*
X21050160Y22203952D01*
X21041697Y22180811D01*
X21036329Y22154295D01*
X21034446Y22124118D01*
X20869147Y22124118D01*
X20869660Y22141286D01*
X20882789Y22241679D01*
X20906483Y22319545D01*
X20939420Y22379761D01*
X20959508Y22404618D01*
X20981773Y22425948D01*
X21007529Y22444823D01*
X21035489Y22460160D01*
X21068833Y22473245D01*
X21104579Y22482523D01*
X21148901Y22488884D01*
X21196012Y22490909D01*
X21238315Y22489017D01*
G37*
G36*
X21589616Y23264577D02*
G01*
X21679748Y23249505D01*
X21753449Y23223142D01*
X21812717Y23186815D01*
X21859120Y23140911D01*
X21877861Y23114077D01*
X21893398Y23084871D01*
X21906025Y23052347D01*
X21915178Y23017418D01*
X21920993Y22978434D01*
X21922940Y22936958D01*
X21920720Y22892768D01*
X21906101Y22821828D01*
X21878762Y22761349D01*
X21860350Y22734593D01*
X21838815Y22710219D01*
X21813649Y22687853D01*
X21785296Y22668079D01*
X21752552Y22650363D01*
X21716453Y22635558D01*
X21675107Y22623246D01*
X21630169Y22614264D01*
X21579211Y22608499D01*
X21524397Y22606558D01*
X21459115Y22609344D01*
X21368974Y22624426D01*
X21295257Y22650800D01*
X21235974Y22687139D01*
X21189560Y22733051D01*
X21170815Y22759887D01*
X21155275Y22789093D01*
X21142647Y22821612D01*
X21133493Y22856532D01*
X21127678Y22895501D01*
X21125731Y22936958D01*
X21268552Y22936958D01*
X21270165Y22915724D01*
X21275453Y22894342D01*
X21284356Y22874545D01*
X21297378Y22855724D01*
X21314157Y22838805D01*
X21336170Y22822922D01*
X21362292Y22809438D01*
X21394775Y22797774D01*
X21431759Y22789147D01*
X21475692Y22783484D01*
X21524397Y22781558D01*
X21587487Y22784717D01*
X21661075Y22799251D01*
X21714214Y22822757D01*
X21750495Y22853343D01*
X21763213Y22871251D01*
X21772427Y22890909D01*
X21778234Y22913069D01*
X21780180Y22936958D01*
X21778651Y22958486D01*
X21764987Y23000104D01*
X21752475Y23018810D01*
X21736305Y23035544D01*
X21714929Y23051243D01*
X21689447Y23064525D01*
X21657140Y23076137D01*
X21620116Y23084704D01*
X21574919Y23090424D01*
X21524397Y23092357D01*
X21461964Y23089113D01*
X21388554Y23074250D01*
X21334974Y23050257D01*
X21298307Y23019293D01*
X21276269Y22981863D01*
X21270494Y22960196D01*
X21268552Y22936958D01*
X21125731Y22936958D01*
X21127944Y22980879D01*
X21142590Y23051728D01*
X21170020Y23112246D01*
X21188507Y23139056D01*
X21210118Y23163478D01*
X21235377Y23185904D01*
X21263814Y23205728D01*
X21296634Y23223488D01*
X21332785Y23238326D01*
X21374131Y23250657D01*
X21419022Y23259651D01*
X21469820Y23265417D01*
X21524397Y23267357D01*
X21589616Y23264577D01*
G37*
G36*
X21149179Y23331349D02*
G01*
X21903401Y23532971D01*
X21903401Y23696797D01*
X21483669Y23780756D01*
X21418991Y23792838D01*
X21352205Y23801761D01*
X21352205Y23834001D01*
X21468381Y23849053D01*
X21483669Y23852197D01*
X21903401Y23944582D01*
X21903401Y24112560D01*
X21149179Y24322547D01*
X21149179Y24139182D01*
X21489287Y24074763D01*
X21537459Y24065384D01*
X21651772Y24044591D01*
X21713813Y24036814D01*
X21778837Y24032753D01*
X21778837Y24000574D01*
X21623107Y23984118D01*
X21595593Y23979569D01*
X21149179Y23906785D01*
X21149179Y23748577D01*
X21595593Y23668770D01*
X21659394Y23659848D01*
X21778837Y23647766D01*
X21778837Y23616991D01*
X21687565Y23609687D01*
X21614281Y23600666D01*
X21499086Y23579795D01*
X21468282Y23573577D01*
X21149179Y23513371D01*
X21149179Y23331349D01*
G37*
G36*
X21539799Y25021000D02*
G01*
X21552301Y25020471D01*
X21552301Y24576682D01*
X21609976Y24586295D01*
X21673901Y24608908D01*
X21722427Y24640804D01*
X21757309Y24681314D01*
X21769964Y24705115D01*
X21779137Y24730944D01*
X21784950Y24759918D01*
X21786897Y24790883D01*
X21786873Y24794436D01*
X21779183Y24850145D01*
X21769688Y24876078D01*
X21756259Y24900721D01*
X21735752Y24928009D01*
X21709655Y24954709D01*
X21709655Y25020471D01*
X21865299Y25020471D01*
X21896701Y24949501D01*
X21909704Y24905930D01*
X21919088Y24860333D01*
X21924901Y24811801D01*
X21926848Y24761513D01*
X21922014Y24691585D01*
X21904039Y24618174D01*
X21873796Y24556027D01*
X21854060Y24528652D01*
X21831317Y24503820D01*
X21804977Y24481068D01*
X21775577Y24461033D01*
X21741770Y24443093D01*
X21704746Y24428158D01*
X21662391Y24415728D01*
X21616593Y24406693D01*
X21564591Y24400881D01*
X21508887Y24398934D01*
X21453609Y24401186D01*
X21366549Y24415656D01*
X21294353Y24441848D01*
X21235673Y24478411D01*
X21189422Y24524836D01*
X21170722Y24551933D01*
X21155173Y24581456D01*
X21142591Y24614121D01*
X21133445Y24649210D01*
X21127672Y24688008D01*
X21125926Y24725121D01*
X21240586Y24725121D01*
X21240963Y24714093D01*
X21251016Y24672576D01*
X21261969Y24653681D01*
X21276813Y24636718D01*
X21299940Y24618446D01*
X21328748Y24602195D01*
X21384684Y24579956D01*
X21454299Y24559890D01*
X21471091Y24576682D01*
X21457888Y24632054D01*
X21452038Y24674935D01*
X21450086Y24718099D01*
X21454485Y24798248D01*
X21471091Y24874903D01*
X21454299Y24891694D01*
X21367735Y24864966D01*
X21306970Y24836437D01*
X21269913Y24806431D01*
X21248403Y24771339D01*
X21242541Y24749484D01*
X21240586Y24725121D01*
X21125926Y24725121D01*
X21125731Y24729273D01*
X21125761Y24734263D01*
X21133781Y24806674D01*
X21154920Y24868154D01*
X21188430Y24919757D01*
X21210005Y24942145D01*
X21234667Y24961985D01*
X21263187Y24979634D01*
X21294890Y24994420D01*
X21331175Y25006660D01*
X21370813Y25015613D01*
X21415695Y25021345D01*
X21464130Y25023280D01*
X21539799Y25021000D01*
G37*
G36*
X21149179Y25176726D02*
G01*
X21903401Y25176726D01*
X21903401Y25351665D01*
X21528488Y25351665D01*
X21448280Y25355494D01*
X21416992Y25362389D01*
X21391406Y25374480D01*
X21377298Y25386284D01*
X21365686Y25401525D01*
X21350065Y25442791D01*
X21343312Y25509620D01*
X21343230Y25519704D01*
X21343230Y25605067D01*
X21156994Y25605067D01*
X21156994Y25586871D01*
X21159008Y25544623D01*
X21165290Y25507329D01*
X21174146Y25479324D01*
X21186493Y25454006D01*
X21220172Y25412115D01*
X21271182Y25374389D01*
X21302624Y25357282D01*
X21298411Y25327912D01*
X21149179Y25327912D01*
X21149179Y25176726D01*
G37*
G36*
X20867811Y26129334D02*
G01*
X21903401Y26129334D01*
X21903401Y26293099D01*
X21292916Y26293099D01*
X21215387Y26291092D01*
X21139291Y26284859D01*
X21061068Y26274903D01*
X21061068Y26301525D01*
X21876045Y26533922D01*
X21876045Y26652868D01*
X21061068Y26883922D01*
X21061068Y26911888D01*
X21163122Y26901619D01*
X21292977Y26899310D01*
X21903401Y26899310D01*
X21903401Y27063074D01*
X20867811Y27063074D01*
X20867811Y26799903D01*
X21431218Y26650121D01*
X21549451Y26627305D01*
X21643648Y26617881D01*
X21643648Y26568910D01*
X21558287Y26560292D01*
X21486012Y26549063D01*
X21431279Y26536670D01*
X20867811Y26386888D01*
X20867811Y26129334D01*
G37*
G36*
X21589616Y27895422D02*
G01*
X21679748Y27880350D01*
X21753449Y27853986D01*
X21812717Y27817660D01*
X21859120Y27771756D01*
X21877861Y27744921D01*
X21893398Y27715715D01*
X21906025Y27683191D01*
X21915178Y27648263D01*
X21920993Y27609279D01*
X21922940Y27567802D01*
X21920720Y27523613D01*
X21906101Y27452673D01*
X21878762Y27392194D01*
X21860350Y27365437D01*
X21838815Y27341064D01*
X21813649Y27318697D01*
X21785296Y27298923D01*
X21752552Y27281207D01*
X21716453Y27266403D01*
X21675107Y27254091D01*
X21630169Y27245109D01*
X21579211Y27239343D01*
X21524397Y27237403D01*
X21459115Y27240188D01*
X21368974Y27255270D01*
X21295257Y27281645D01*
X21235974Y27317983D01*
X21189560Y27363896D01*
X21170815Y27390731D01*
X21155275Y27419937D01*
X21142647Y27452456D01*
X21133493Y27487377D01*
X21127678Y27526345D01*
X21125731Y27567802D01*
X21268552Y27567802D01*
X21270165Y27546568D01*
X21275453Y27525186D01*
X21284356Y27505389D01*
X21297378Y27486569D01*
X21314157Y27469649D01*
X21336170Y27453766D01*
X21362292Y27440283D01*
X21394775Y27428618D01*
X21431759Y27419991D01*
X21475692Y27414328D01*
X21524397Y27412403D01*
X21587487Y27415562D01*
X21661075Y27430096D01*
X21714214Y27453601D01*
X21750495Y27484188D01*
X21763213Y27502095D01*
X21772427Y27521753D01*
X21778234Y27543913D01*
X21780180Y27567802D01*
X21778651Y27589331D01*
X21764987Y27630948D01*
X21752475Y27649654D01*
X21736305Y27666388D01*
X21714929Y27682088D01*
X21689447Y27695370D01*
X21657140Y27706982D01*
X21620116Y27715548D01*
X21574919Y27721268D01*
X21524397Y27723202D01*
X21461964Y27719957D01*
X21388554Y27705095D01*
X21334974Y27681102D01*
X21298307Y27650137D01*
X21276269Y27612708D01*
X21270494Y27591041D01*
X21268552Y27567802D01*
X21125731Y27567802D01*
X21127944Y27611723D01*
X21142590Y27682572D01*
X21170020Y27743090D01*
X21188507Y27769900D01*
X21210118Y27794323D01*
X21235377Y27816748D01*
X21263814Y27836572D01*
X21296634Y27854332D01*
X21332785Y27869170D01*
X21374131Y27881501D01*
X21419022Y27890495D01*
X21469820Y27896261D01*
X21524397Y27898202D01*
X21589616Y27895422D01*
G37*
G36*
X21903401Y28461670D02*
G01*
X21824144Y28461670D01*
X21818526Y28446283D01*
X21846686Y28423658D01*
X21884819Y28380169D01*
X21897855Y28357062D01*
X21907203Y28332599D01*
X21913157Y28305007D01*
X21915124Y28275496D01*
X21915123Y28274884D01*
X21907419Y28216478D01*
X21897939Y28189108D01*
X21884812Y28163265D01*
X21867677Y28138514D01*
X21846887Y28115616D01*
X21821644Y28094029D01*
X21792678Y28074697D01*
X21758875Y28057214D01*
X21721288Y28042454D01*
X21678729Y28030266D01*
X21632378Y28021302D01*
X21581224Y28015652D01*
X21526351Y28013729D01*
X21504235Y28014003D01*
X21399983Y28023750D01*
X21314675Y28045532D01*
X21247190Y28076945D01*
X21195989Y28116178D01*
X21159627Y28162285D01*
X21146711Y28187933D01*
X21137368Y28215210D01*
X21131582Y28244602D01*
X21129639Y28275496D01*
X21132286Y28309822D01*
X21146367Y28355302D01*
X21265438Y28355302D01*
X21267306Y28328022D01*
X21280710Y28284352D01*
X21292450Y28265611D01*
X21307567Y28249070D01*
X21327690Y28233668D01*
X21351815Y28220772D01*
X21383782Y28209225D01*
X21420915Y28200774D01*
X21469943Y28194844D01*
X21525923Y28192881D01*
X21586577Y28195717D01*
X21661200Y28209757D01*
X21714770Y28232672D01*
X21751116Y28262485D01*
X21772995Y28299079D01*
X21778786Y28320696D01*
X21780730Y28344067D01*
X21780668Y28348874D01*
X21772754Y28393607D01*
X21763696Y28412871D01*
X21751147Y28430168D01*
X21733313Y28446976D01*
X21711120Y28461670D01*
X21336513Y28461670D01*
X21328454Y28457957D01*
X21294269Y28433162D01*
X21282050Y28417443D01*
X21273113Y28399546D01*
X21267375Y28378548D01*
X21265438Y28355302D01*
X21146367Y28355302D01*
X21147631Y28359386D01*
X21160945Y28382597D01*
X21178319Y28404726D01*
X21201186Y28426803D01*
X21229046Y28447687D01*
X21226298Y28461670D01*
X20848271Y28461670D01*
X20848271Y28636670D01*
X21903401Y28636670D01*
X21903401Y28461670D01*
G37*
G36*
X21903401Y29414339D02*
G01*
X21149179Y29414339D01*
X21149179Y29239339D01*
X21711731Y29239339D01*
X21749310Y29204013D01*
X21764884Y29181600D01*
X21776656Y29157681D01*
X21783600Y29134743D01*
X21786042Y29111967D01*
X21784000Y29083713D01*
X21777520Y29058736D01*
X21768553Y29040817D01*
X21755976Y29025213D01*
X21721585Y29002357D01*
X21668892Y28987808D01*
X21600906Y28983189D01*
X21149179Y28983189D01*
X21149179Y28812342D01*
X21549004Y28812342D01*
X21624531Y28812999D01*
X21691375Y28816547D01*
X21749803Y28825350D01*
X21800086Y28841773D01*
X21827516Y28856153D01*
X21851419Y28873236D01*
X21870809Y28891927D01*
X21886969Y28913021D01*
X21909244Y28961521D01*
X21918761Y29020660D01*
X21919032Y29033565D01*
X21917033Y29066089D01*
X21910855Y29095101D01*
X21901687Y29118633D01*
X21888848Y29140867D01*
X21849082Y29186388D01*
X21822434Y29209969D01*
X21826403Y29239339D01*
X21903401Y29239339D01*
X21903401Y29414339D01*
G37*
G36*
X20848271Y29793038D02*
G01*
X20848271Y29618038D01*
X21903401Y29618038D01*
X21903401Y29793038D01*
X20848271Y29793038D01*
G37*
G36*
X21539799Y30579967D02*
G01*
X21552301Y30579439D01*
X21552301Y30135649D01*
X21609976Y30145262D01*
X21673901Y30167875D01*
X21722427Y30199771D01*
X21757309Y30240281D01*
X21769964Y30264083D01*
X21779137Y30289911D01*
X21784950Y30318885D01*
X21786897Y30349850D01*
X21786873Y30353403D01*
X21779183Y30409112D01*
X21769688Y30435045D01*
X21756259Y30459688D01*
X21735752Y30486976D01*
X21709655Y30513676D01*
X21709655Y30579439D01*
X21865299Y30579439D01*
X21896701Y30508468D01*
X21909704Y30464897D01*
X21919088Y30419300D01*
X21924901Y30370768D01*
X21926848Y30320480D01*
X21922014Y30250552D01*
X21904039Y30177142D01*
X21873796Y30114994D01*
X21854060Y30087619D01*
X21831317Y30062787D01*
X21804977Y30040035D01*
X21775577Y30020000D01*
X21741770Y30002060D01*
X21704746Y29987126D01*
X21662391Y29974695D01*
X21616593Y29965660D01*
X21564591Y29959848D01*
X21508887Y29957902D01*
X21453609Y29960153D01*
X21366549Y29974623D01*
X21294353Y30000815D01*
X21235673Y30037378D01*
X21189422Y30083804D01*
X21170722Y30110900D01*
X21155173Y30140423D01*
X21142591Y30173088D01*
X21133445Y30208177D01*
X21127672Y30246976D01*
X21125926Y30284088D01*
X21240586Y30284088D01*
X21240963Y30273060D01*
X21251016Y30231544D01*
X21261969Y30212648D01*
X21276813Y30195685D01*
X21299940Y30177413D01*
X21328748Y30161162D01*
X21384684Y30138923D01*
X21454299Y30118858D01*
X21471091Y30135649D01*
X21457888Y30191021D01*
X21452038Y30233903D01*
X21450086Y30277066D01*
X21454485Y30357215D01*
X21471091Y30433870D01*
X21454299Y30450662D01*
X21367735Y30423933D01*
X21306970Y30395405D01*
X21269913Y30365398D01*
X21248403Y30330306D01*
X21242541Y30308451D01*
X21240586Y30284088D01*
X21125926Y30284088D01*
X21125731Y30288240D01*
X21125761Y30293230D01*
X21133781Y30365641D01*
X21154920Y30427121D01*
X21188430Y30478724D01*
X21210005Y30501112D01*
X21234667Y30520952D01*
X21263187Y30538601D01*
X21294890Y30553387D01*
X21331175Y30565627D01*
X21370813Y30574580D01*
X21415695Y30580312D01*
X21464130Y30582247D01*
X21539799Y30579967D01*
G37*
G36*
X41478015Y43571183D02*
G01*
X39567849Y43571183D01*
X39567849Y44168328D01*
X39734516Y44168328D01*
X39745739Y44032925D01*
X39780484Y43888350D01*
X39822718Y43769357D01*
X40095476Y43769357D01*
X40095476Y43872214D01*
X40055142Y43911849D01*
X40022083Y43952986D01*
X39997952Y43992476D01*
X39979941Y44033517D01*
X39962308Y44117655D01*
X39961387Y44143140D01*
X39964247Y44183106D01*
X39972541Y44220086D01*
X39985939Y44253850D01*
X40003972Y44283720D01*
X40026037Y44309099D01*
X40051817Y44329777D01*
X40080303Y44345082D01*
X40111549Y44355047D01*
X40151988Y44359387D01*
X40188235Y44356456D01*
X40221043Y44347662D01*
X40248658Y44334119D01*
X40273300Y44315440D01*
X40313974Y44262238D01*
X40344470Y44181977D01*
X40362618Y44064632D01*
X40363563Y44050725D01*
X40590343Y44050725D01*
X40594622Y44122120D01*
X40604656Y44184955D01*
X40618348Y44233354D01*
X40636609Y44275100D01*
X40657048Y44307085D01*
X40681267Y44333667D01*
X40707683Y44353851D01*
X40737530Y44369214D01*
X40808263Y44385569D01*
X40835349Y44386681D01*
X40873646Y44383783D01*
X40909850Y44375221D01*
X40943238Y44361350D01*
X40973754Y44342308D01*
X41000801Y44318485D01*
X41024222Y44289947D01*
X41043579Y44256963D01*
X41058537Y44219658D01*
X41068725Y44178089D01*
X41073691Y44132549D01*
X41074127Y44113739D01*
X41063127Y44010658D01*
X41049949Y43964995D01*
X41032411Y43925034D01*
X41012137Y43893046D01*
X40988907Y43867839D01*
X40965225Y43851239D01*
X40965225Y43737850D01*
X41237892Y43737850D01*
X41264591Y43813499D01*
X41284615Y43887449D01*
X41307360Y44035834D01*
X41311348Y44138927D01*
X41308454Y44209408D01*
X41299922Y44275603D01*
X41286303Y44336182D01*
X41267693Y44392368D01*
X41244808Y44443048D01*
X41217527Y44489245D01*
X41186583Y44530205D01*
X41151763Y44566579D01*
X41113590Y44597999D01*
X41071974Y44624668D01*
X40978983Y44663323D01*
X40873140Y44681553D01*
X40835349Y44682795D01*
X40775164Y44679848D01*
X40720741Y44670942D01*
X40676418Y44657684D01*
X40636647Y44639408D01*
X40588328Y44605125D01*
X40559420Y44576337D01*
X40534407Y44543100D01*
X40495414Y44461594D01*
X40472832Y44367813D01*
X40424472Y44367813D01*
X40411260Y44419099D01*
X40393272Y44465563D01*
X40371402Y44506072D01*
X40345493Y44541742D01*
X40316406Y44571895D01*
X40283905Y44597152D01*
X40210111Y44632329D01*
X40124741Y44646788D01*
X40110131Y44647074D01*
X40061280Y44644164D01*
X40015054Y44635517D01*
X39972593Y44621640D01*
X39933004Y44602518D01*
X39863725Y44549567D01*
X39807463Y44476732D01*
X39765520Y44383069D01*
X39740371Y44267352D01*
X39734516Y44168328D01*
X39567849Y44168328D01*
X39567849Y45719148D01*
X39734516Y45719148D01*
X40729378Y45477622D01*
X40827248Y45457324D01*
X40927760Y45443826D01*
X41058190Y45437688D01*
X41058190Y45393633D01*
X40885029Y45382497D01*
X40729378Y45353699D01*
X39734516Y45112265D01*
X39734516Y44837126D01*
X41299624Y45271817D01*
X41299624Y45542743D01*
X39734516Y46002622D01*
X39734516Y45719148D01*
X39567849Y45719148D01*
X39567849Y46587797D01*
X39734516Y46587797D01*
X39745739Y46452395D01*
X39780484Y46307820D01*
X39822718Y46188827D01*
X40095476Y46188827D01*
X40095476Y46291683D01*
X40055142Y46331319D01*
X40022083Y46372456D01*
X39997952Y46411946D01*
X39979941Y46452987D01*
X39962308Y46537125D01*
X39961387Y46562610D01*
X39964247Y46602575D01*
X39972541Y46639555D01*
X39985939Y46673320D01*
X40003972Y46703190D01*
X40026037Y46728569D01*
X40051817Y46749247D01*
X40080303Y46764552D01*
X40111549Y46774516D01*
X40151988Y46778856D01*
X40188235Y46775925D01*
X40221043Y46767132D01*
X40248658Y46753589D01*
X40273300Y46734909D01*
X40313974Y46681708D01*
X40344470Y46601446D01*
X40362618Y46484102D01*
X40363563Y46470194D01*
X40590343Y46470194D01*
X40594622Y46541589D01*
X40604656Y46604425D01*
X40618348Y46652823D01*
X40636609Y46694570D01*
X40657048Y46726555D01*
X40681267Y46753137D01*
X40707683Y46773320D01*
X40737530Y46788684D01*
X40808263Y46805039D01*
X40835349Y46806150D01*
X40873646Y46803252D01*
X40909850Y46794691D01*
X40943238Y46780820D01*
X40973754Y46761778D01*
X41000801Y46737955D01*
X41024222Y46709416D01*
X41043579Y46676432D01*
X41058537Y46639128D01*
X41068725Y46597559D01*
X41073691Y46552019D01*
X41074127Y46533209D01*
X41063127Y46430127D01*
X41049949Y46384465D01*
X41032411Y46344504D01*
X41012137Y46312515D01*
X40988907Y46287309D01*
X40965225Y46270709D01*
X40965225Y46157319D01*
X41237892Y46157319D01*
X41264591Y46232969D01*
X41284615Y46306919D01*
X41307360Y46455303D01*
X41311348Y46558397D01*
X41308454Y46628878D01*
X41299922Y46695072D01*
X41286303Y46755652D01*
X41267693Y46811838D01*
X41244808Y46862517D01*
X41217527Y46908715D01*
X41186583Y46949675D01*
X41151763Y46986048D01*
X41113590Y47017468D01*
X41071974Y47044137D01*
X40978983Y47082793D01*
X40873140Y47101022D01*
X40835349Y47102264D01*
X40775164Y47099317D01*
X40720741Y47090412D01*
X40676418Y47077154D01*
X40636647Y47058877D01*
X40588328Y47024595D01*
X40559420Y46995806D01*
X40534407Y46962570D01*
X40495414Y46881063D01*
X40472832Y46787283D01*
X40424472Y46787283D01*
X40411260Y46838568D01*
X40393272Y46885033D01*
X40371402Y46925542D01*
X40345493Y46961212D01*
X40316406Y46991365D01*
X40283905Y47016622D01*
X40210111Y47051799D01*
X40124741Y47066257D01*
X40110131Y47066544D01*
X40061280Y47063634D01*
X40015054Y47054987D01*
X39972593Y47041110D01*
X39933004Y47021988D01*
X39863725Y46969036D01*
X39807463Y46896202D01*
X39765520Y46802538D01*
X39740371Y46686821D01*
X39734516Y46587797D01*
X39567849Y46587797D01*
X39567849Y47268931D01*
X41478015Y47268931D01*
X41478015Y43571183D01*
G37*
X3090648Y42345645D02*
X8339354Y42345645D01*
X8339354Y39524662D01*
X3090648Y39524662D01*
X3090648Y42345645D01*
X15687001Y34300100D02*
X15687001Y33650100D01*
X15712001Y33975100D02*
X15287001Y33975100D01*
X15712001Y33975100D02*
X16212001Y34300100D01*
X15712001Y33975100D02*
X16212001Y33650100D01*
X16212001Y33650100D02*
X16212001Y34300100D01*
X16222000Y14909001D02*
X16872000Y14909001D01*
X16229500Y9358999D02*
X16879500Y9358999D01*
X16547000Y15409001D02*
X16222000Y14909001D01*
X16547000Y15409001D02*
X16547000Y15834000D01*
X16547000Y15409001D02*
X16872000Y14909001D01*
X16547000Y14484001D02*
X16547000Y14909002D01*
X16554500Y10308999D02*
X16554500Y9883999D01*
X16554500Y9383999D02*
X16229500Y9883999D01*
X16554500Y9383999D02*
X16554500Y8958999D01*
X16554500Y9383999D02*
X16879500Y9883999D01*
X16637001Y33975100D02*
X16212001Y33975100D01*
X16872000Y15434001D02*
X16222000Y15434001D01*
X16879500Y9883999D02*
X16229500Y9883999D01*
X23495001Y39854314D02*
X23495001Y39854314D01*
G75*
G02*
X23695001Y40054314I200000J-14D01*
G01*
X25581001Y40054314D01*
G75*
G02*
X25781001Y39854314I0J-200014D01*
G01*
X25781001Y39647686D01*
G75*
G02*
X25581001Y39447686I-200000J14D01*
G01*
X23695001Y39447686D01*
G75*
G02*
X23495001Y39647686I0J200014D01*
G01*
X23495001Y39854314D01*
G36*
X23495001Y39854314D02*
G01*
X23495001Y39854314D01*
G75*
G02*
X23695001Y40054314I200000J-14D01*
G01*
X25581001Y40054314D01*
G75*
G02*
X25781001Y39854314I0J-200014D01*
G01*
X25781001Y39647686D01*
G75*
G02*
X25581001Y39447686I-200000J14D01*
G01*
X23695001Y39447686D01*
G75*
G02*
X23495001Y39647686I0J200014D01*
G01*
X23495001Y39854314D01*
G37*
X23495001Y39751000D02*
X23622001Y39751000D01*
X23622001Y10845282D01*
X23495001Y10845282D01*
X23495001Y39751000D01*
G36*
X23495001Y39751000D02*
G01*
X23622001Y39751000D01*
X23622001Y10845282D01*
X23495001Y10845282D01*
X23495001Y39751000D01*
G37*
X23495001Y29412063D02*
X23845998Y29412063D01*
X23845998Y28245937D01*
X23495001Y28245937D01*
X23495001Y29412063D01*
G36*
X23495001Y29412063D02*
G01*
X23845998Y29412063D01*
X23845998Y28245937D01*
X23495001Y28245937D01*
X23495001Y29412063D01*
G37*
X23495001Y14605000D02*
X23875186Y14605000D01*
X23875186Y11811000D01*
X23495001Y11811000D01*
X23495001Y14605000D01*
G36*
X23495001Y14605000D02*
G01*
X23875186Y14605000D01*
X23875186Y11811000D01*
X23495001Y11811000D01*
X23495001Y14605000D01*
G37*
X23495001Y11506553D02*
X23495001Y11506553D01*
G75*
G02*
X23695001Y11706553I200000J47D01*
G01*
X23966718Y11706553D01*
G75*
G02*
X24166718Y11506553I-17J-199953D01*
G01*
X24166718Y10800305D01*
G75*
G02*
X23966718Y10600305I-200017J-5D01*
G01*
X23695001Y10600305D01*
G75*
G02*
X23495001Y10800305I0J199995D01*
G01*
X23495001Y11506553D01*
G36*
X23495001Y11506553D02*
G01*
X23495001Y11506553D01*
G75*
G02*
X23695001Y11706553I200000J47D01*
G01*
X23966718Y11706553D01*
G75*
G02*
X24166718Y11506553I-17J-199953D01*
G01*
X24166718Y10800305D01*
G75*
G02*
X23966718Y10600305I-200017J-5D01*
G01*
X23695001Y10600305D01*
G75*
G02*
X23495001Y10800305I0J199995D01*
G01*
X23495001Y11506553D01*
G37*
X23513040Y16881940D02*
X24184757Y16881940D01*
X24184757Y15715814D01*
X23513040Y15715814D01*
X23513040Y16881940D01*
G36*
X23513040Y16881940D02*
G01*
X24184757Y16881940D01*
X24184757Y15715814D01*
X23513040Y15715814D01*
X23513040Y16881940D01*
G37*
X23518207Y37180435D02*
X23869204Y37180435D01*
X23869204Y36014309D01*
X23518207Y36014309D01*
X23518207Y37180435D01*
G36*
X23518207Y37180435D02*
G01*
X23869204Y37180435D01*
X23869204Y36014309D01*
X23518207Y36014309D01*
X23518207Y37180435D01*
G37*
X23547215Y34613217D02*
X23898212Y34613217D01*
X23898212Y33447091D01*
X23547215Y33447091D01*
X23547215Y34613217D01*
G36*
X23547215Y34613217D02*
G01*
X23898212Y34613217D01*
X23898212Y33447091D01*
X23547215Y33447091D01*
X23547215Y34613217D01*
G37*
X23579124Y32127222D02*
X23930121Y32127222D01*
X23930121Y30961096D01*
X23579124Y30961096D01*
X23579124Y32127222D01*
G36*
X23579124Y32127222D02*
G01*
X23930121Y32127222D01*
X23930121Y30961096D01*
X23579124Y30961096D01*
X23579124Y32127222D01*
G37*
X23597254Y18515182D02*
X25164766Y18515182D01*
X25164766Y16780988D01*
X23597254Y16780988D01*
X23597254Y18515182D01*
G36*
X23597254Y18515182D02*
G01*
X25164766Y18515182D01*
X25164766Y16780988D01*
X23597254Y16780988D01*
X23597254Y18515182D01*
G37*
X23597254Y16008882D02*
X25164766Y16008882D01*
X25164766Y14274688D01*
X23597254Y14274688D01*
X23597254Y16008882D01*
G36*
X23597254Y16008882D02*
G01*
X25164766Y16008882D01*
X25164766Y14274688D01*
X23597254Y14274688D01*
X23597254Y16008882D01*
G37*
X23597979Y28754247D02*
X25165491Y28754247D01*
X25165491Y21902341D01*
X23597979Y21902341D01*
X23597979Y28754247D01*
G36*
X23597979Y28754247D02*
G01*
X25165491Y28754247D01*
X25165491Y21902341D01*
X23597979Y21902341D01*
X23597979Y28754247D01*
G37*
X23616835Y31160152D02*
X25184347Y31160152D01*
X25184347Y29425958D01*
X23616835Y29425958D01*
X23616835Y31160152D01*
G36*
X23616835Y31160152D02*
G01*
X25184347Y31160152D01*
X25184347Y29425958D01*
X23616835Y29425958D01*
X23616835Y31160152D01*
G37*
X23627167Y33792064D02*
X25194679Y33792064D01*
X25194679Y32012963D01*
X23627167Y32012963D01*
X23627167Y33792064D01*
G36*
X23627167Y33792064D02*
G01*
X25194679Y33792064D01*
X25194679Y32012963D01*
X23627167Y32012963D01*
X23627167Y33792064D01*
G37*
X23639128Y36515890D02*
X25206640Y36515890D01*
X25206640Y34558934D01*
X23639128Y34558934D01*
X23639128Y36515890D01*
G36*
X23639128Y36515890D02*
G01*
X25206640Y36515890D01*
X25206640Y34558934D01*
X23639128Y34558934D01*
X23639128Y36515890D01*
G37*
X23644573Y19330224D02*
X23853430Y19330224D01*
X23853430Y18164098D01*
X23644573Y18164098D01*
X23644573Y19330224D01*
G36*
X23644573Y19330224D02*
G01*
X23853430Y19330224D01*
X23853430Y18164098D01*
X23644573Y18164098D01*
X23644573Y19330224D01*
G37*
X23662522Y21054117D02*
X25230034Y21054117D01*
X25230034Y19319923D01*
X23662522Y19319923D01*
X23662522Y21054117D01*
G36*
X23662522Y21054117D02*
G01*
X25230034Y21054117D01*
X25230034Y19319923D01*
X23662522Y19319923D01*
X23662522Y21054117D01*
G37*
X23675030Y21960149D02*
X24137887Y21960149D01*
X24137887Y20794023D01*
X23675030Y20794023D01*
X23675030Y21960149D01*
G36*
X23675030Y21960149D02*
G01*
X24137887Y21960149D01*
X24137887Y20794023D01*
X23675030Y20794023D01*
X23675030Y21960149D01*
G37*
X23682103Y13417733D02*
X25249615Y13417733D01*
X25249615Y11683539D01*
X23682103Y11683539D01*
X23682103Y13417733D01*
G36*
X23682103Y13417733D02*
G01*
X25249615Y13417733D01*
X25249615Y11683539D01*
X23682103Y11683539D01*
X23682103Y13417733D01*
G37*
X23705489Y38913956D02*
X25273001Y38913956D01*
X25273001Y36957000D01*
X23705489Y36957000D01*
X23705489Y38913956D01*
G36*
X23705489Y38913956D02*
G01*
X25273001Y38913956D01*
X25273001Y36957000D01*
X23705489Y36957000D01*
X23705489Y38913956D01*
G37*
X23720655Y10943927D02*
X25408372Y10943927D01*
X25408372Y10599679D01*
X23720655Y10599679D01*
X23720655Y10943927D01*
G36*
X23720655Y10943927D02*
G01*
X25408372Y10943927D01*
X25408372Y10599679D01*
X23720655Y10599679D01*
X23720655Y10943927D01*
G37*
X25185977Y39755686D02*
X25185977Y39755686D01*
G75*
G02*
X25385977Y39955686I200024J14D01*
G01*
X25581001Y39955686D01*
G75*
G02*
X25781001Y39755686I0J-199986D01*
G01*
X25781001Y10799447D01*
G75*
G02*
X25581001Y10599447I-200000J-47D01*
G01*
X25385977Y10599447D01*
G75*
G02*
X25185977Y10799447I24J199953D01*
G01*
X25185977Y39755686D01*
G36*
X25185977Y39755686D02*
G01*
X25185977Y39755686D01*
G75*
G02*
X25385977Y39955686I200024J14D01*
G01*
X25581001Y39955686D01*
G75*
G02*
X25781001Y39755686I0J-199986D01*
G01*
X25781001Y10799447D01*
G75*
G02*
X25581001Y10599447I-200000J-47D01*
G01*
X25385977Y10599447D01*
G75*
G02*
X25185977Y10799447I24J199953D01*
G01*
X25185977Y39755686D01*
G37*
X29438600Y2577963D02*
X29438600Y2577963D01*
G75*
G02*
X30438600Y3577963I1000001J37D01*
G01*
X38759001Y3577963D01*
G75*
G02*
X39759001Y2577963I0J-999963D01*
G01*
X39759001Y1000000D01*
G75*
G02*
X38759001Y0I-1000000J0D01*
G01*
X30438600Y0D01*
G75*
G02*
X29438600Y1000000I1J1000000D01*
G01*
X29438600Y2577963D01*
G36*
X29438600Y2577963D02*
G01*
X29438600Y2577963D01*
G75*
G02*
X30438600Y3577963I1000001J37D01*
G01*
X38759001Y3577963D01*
G75*
G02*
X39759001Y2577963I0J-999963D01*
G01*
X39759001Y1000000D01*
G75*
G02*
X38759001Y0I-1000000J0D01*
G01*
X30438600Y0D01*
G75*
G02*
X29438600Y1000000I1J1000000D01*
G01*
X29438600Y2577963D01*
G37*
X29464001Y46214079D02*
X29464001Y46214079D01*
G75*
G02*
X30464001Y47214079I1000000J21D01*
G01*
X38551582Y47214079D01*
G75*
G02*
X39551582Y46214079I19J-999979D01*
G01*
X39551582Y44510201D01*
G75*
G02*
X38551582Y43510201I-999981J-1D01*
G01*
X30464001Y43510201D01*
G75*
G02*
X29464001Y44510201I0J999999D01*
G01*
X29464001Y46214079D01*
G36*
X29464001Y46214079D02*
G01*
X29464001Y46214079D01*
G75*
G02*
X30464001Y47214079I1000000J21D01*
G01*
X38551582Y47214079D01*
G75*
G02*
X39551582Y46214079I19J-999979D01*
G01*
X39551582Y44510201D01*
G75*
G02*
X38551582Y43510201I-999981J-1D01*
G01*
X30464001Y43510201D01*
G75*
G02*
X29464001Y44510201I0J999999D01*
G01*
X29464001Y46214079D01*
G37*
X37983527Y47215259D02*
X39624001Y47215259D01*
X39624001Y46470077D01*
X37983527Y46470077D01*
X37983527Y47215259D01*
G36*
X37983527Y47215259D02*
G01*
X39624001Y47215259D01*
X39624001Y46470077D01*
X37983527Y46470077D01*
X37983527Y47215259D01*
G37*
X38069313Y3577636D02*
X41579800Y3577636D01*
X41579800Y3425236D01*
X38069313Y3425236D01*
X38069313Y3577636D01*
G36*
X38069313Y3577636D02*
G01*
X41579800Y3577636D01*
X41579800Y3425236D01*
X38069313Y3425236D01*
X38069313Y3577636D01*
G37*
X38313627Y552993D02*
X41594776Y552993D01*
X41594776Y5097D01*
X38313627Y5097D01*
X38313627Y552993D01*
G36*
X38313627Y552993D02*
G01*
X41594776Y552993D01*
X41594776Y5097D01*
X38313627Y5097D01*
X38313627Y552993D01*
G37*
X38410374Y45047676D02*
X39624001Y45047676D01*
X39624001Y43510200D01*
X38410374Y43510200D01*
X38410374Y45047676D01*
G36*
X38410374Y45047676D02*
G01*
X39624001Y45047676D01*
X39624001Y43510200D01*
X38410374Y43510200D01*
X38410374Y45047676D01*
G37*
X39395401Y3505200D02*
X41579800Y3505200D01*
X41579800Y3022600D01*
X39395401Y3022600D01*
X39395401Y3505200D01*
G36*
X39395401Y3505200D02*
G01*
X41579800Y3505200D01*
X41579800Y3022600D01*
X39395401Y3022600D01*
X39395401Y3505200D01*
G37*
G36*
X2546019Y49779029D02*
G01*
X2372143Y50405072D01*
X2263772Y50405072D01*
X2079821Y49779029D01*
X2193211Y49779029D01*
X2289821Y50176974D01*
X2297940Y50216122D01*
X2303339Y50256326D01*
X2305794Y50308498D01*
X2323416Y50308498D01*
X2327871Y50239234D01*
X2339390Y50176974D01*
X2435964Y49779029D01*
X2546019Y49779029D01*
G37*
G36*
X2004496Y49779029D02*
G01*
X2004496Y50400382D01*
X1887773Y50400382D01*
X1887773Y49779029D01*
X2004496Y49779029D01*
G37*
G36*
X1771196Y49779029D02*
G01*
X1771196Y50400382D01*
X1672937Y50400382D01*
X1672937Y50044863D01*
X1678562Y49968453D01*
X1689716Y49892455D01*
X1672937Y49892455D01*
X1653801Y49959220D01*
X1635971Y50003830D01*
X1460409Y50400382D01*
X1327712Y50400382D01*
X1327712Y49779029D01*
X1425971Y49779029D01*
X1425971Y50114399D01*
X1421268Y50190331D01*
X1410840Y50257610D01*
X1425971Y50257610D01*
X1451808Y50184846D01*
X1473854Y50130299D01*
X1628423Y49779029D01*
X1771196Y49779029D01*
G37*
G36*
X5097792Y50067869D02*
G01*
X5097792Y50151840D01*
X5056613Y50151840D01*
X5031426Y50150700D01*
X5001182Y50145136D01*
X5006479Y50180944D01*
X5007081Y50212363D01*
X5007081Y50287138D01*
X5031551Y50299262D01*
X5054999Y50307840D01*
X5074204Y50312238D01*
X5093166Y50313997D01*
X5096107Y50314029D01*
X5115522Y50312856D01*
X5133288Y50309332D01*
X5148369Y50303932D01*
X5162063Y50296485D01*
X5184852Y50276052D01*
X5202997Y50246915D01*
X5216697Y50206538D01*
X5225164Y50151209D01*
X5227156Y50099780D01*
X5225982Y50059609D01*
X5222454Y50023045D01*
X5217184Y49992879D01*
X5209946Y49965706D01*
X5201581Y49943437D01*
X5191554Y49923680D01*
X5180730Y49907558D01*
X5168458Y49893608D01*
X5155368Y49882304D01*
X5140948Y49872985D01*
X5108386Y49860374D01*
X5069352Y49855553D01*
X5065882Y49855525D01*
X5045800Y49856693D01*
X5026871Y49860182D01*
X5009752Y49865722D01*
X4993794Y49873376D01*
X4965904Y49894570D01*
X4942807Y49924080D01*
X4934834Y49938616D01*
X4890320Y49938616D01*
X4890320Y49811011D01*
X4916232Y49797811D01*
X4942334Y49787166D01*
X4995143Y49773138D01*
X5052794Y49767463D01*
X5065039Y49767304D01*
X5095849Y49768474D01*
X5124938Y49771971D01*
X5151137Y49777480D01*
X5175737Y49785088D01*
X5197981Y49794423D01*
X5218709Y49805692D01*
X5237564Y49818617D01*
X5254940Y49833379D01*
X5285186Y49868327D01*
X5309766Y49911239D01*
X5328512Y49963222D01*
X5340793Y50025643D01*
X5345580Y50100002D01*
X5345601Y50105641D01*
X5344434Y50146724D01*
X5340955Y50185017D01*
X5335559Y50218662D01*
X5328146Y50249724D01*
X5319316Y50276656D01*
X5308735Y50301212D01*
X5297115Y50322255D01*
X5283964Y50341107D01*
X5269961Y50357072D01*
X5254589Y50370979D01*
X5238317Y50382521D01*
X5220779Y50392062D01*
X5182138Y50405011D01*
X5137847Y50409750D01*
X5135601Y50409760D01*
X5111444Y50408582D01*
X5089229Y50405026D01*
X5070442Y50399619D01*
X5053208Y50392140D01*
X5038116Y50383011D01*
X5024368Y50371934D01*
X5000690Y50343764D01*
X4997812Y50339235D01*
X4984403Y50339748D01*
X4984403Y50400381D01*
X4890320Y50400381D01*
X4890320Y50067869D01*
X5097792Y50067869D01*
G37*
G36*
X4774806Y49779028D02*
G01*
X4774806Y50400381D01*
X4676547Y50400381D01*
X4676547Y50044862D01*
X4682172Y49968452D01*
X4693326Y49892454D01*
X4676547Y49892454D01*
X4657411Y49959219D01*
X4639581Y50003829D01*
X4464019Y50400381D01*
X4331322Y50400381D01*
X4331322Y49779028D01*
X4429581Y49779028D01*
X4429581Y50114398D01*
X4424878Y50190330D01*
X4414450Y50257609D01*
X4429581Y50257609D01*
X4455419Y50184845D01*
X4477464Y50130298D01*
X4632034Y49779028D01*
X4774806Y49779028D01*
G37*
G36*
X4215001Y49779028D02*
G01*
X4094907Y49779028D01*
X4057208Y49779539D01*
X3992645Y49784680D01*
X3942230Y49795798D01*
X3898876Y49813772D01*
X3878608Y49825842D01*
X3858858Y49840357D01*
X3841280Y49856259D01*
X3825353Y49873837D01*
X3810850Y49893436D01*
X3798107Y49914706D01*
X3786870Y49938267D01*
X3777541Y49963517D01*
X3769925Y49991373D01*
X3764406Y50020952D01*
X3760924Y50053404D01*
X3759757Y50087616D01*
X3759781Y50088459D01*
X3876517Y50088459D01*
X3877167Y50064189D01*
X3884137Y50011593D01*
X3897735Y49969895D01*
X3917362Y49936858D01*
X3929524Y49923030D01*
X3943289Y49910926D01*
X3959141Y49900263D01*
X3976705Y49891417D01*
X3997196Y49884021D01*
X4019626Y49878653D01*
X4046049Y49875126D01*
X4074757Y49873953D01*
X4098277Y49874795D01*
X4098277Y50304651D01*
X4065488Y50305493D01*
X4051321Y50305185D01*
X4005209Y50299022D01*
X3967850Y50285737D01*
X3937430Y50265610D01*
X3924340Y50252680D01*
X3912840Y50237920D01*
X3902478Y50220458D01*
X3893859Y50200969D01*
X3886538Y50177773D01*
X3881217Y50152225D01*
X3877691Y50121744D01*
X3876517Y50088459D01*
X3759781Y50088459D01*
X3760674Y50120484D01*
X3768383Y50182179D01*
X3783181Y50233925D01*
X3804697Y50277796D01*
X3833227Y50315324D01*
X3850535Y50332146D01*
X3869776Y50347478D01*
X3902455Y50367641D01*
X3926234Y50378349D01*
X3950576Y50386448D01*
X3984293Y50393844D01*
X4019432Y50398054D01*
X4094907Y50400381D01*
X4215001Y50400381D01*
X4215001Y49779028D01*
G37*
G36*
X18627867Y6322249D02*
G01*
X18705777Y6307871D01*
X18774511Y6280107D01*
X18805722Y6261262D01*
X18834749Y6239158D01*
X18861907Y6213439D01*
X18886688Y6184445D01*
X18909595Y6151303D01*
X18929858Y6114794D01*
X18947963Y6073525D01*
X18963087Y6028746D01*
X18975540Y5978642D01*
X18984617Y5924867D01*
X18990367Y5865345D01*
X18992305Y5801999D01*
X18988822Y5709229D01*
X18972872Y5595640D01*
X18945905Y5502196D01*
X18909465Y5426227D01*
X18864349Y5365399D01*
X18810510Y5317988D01*
X18779903Y5298918D01*
X18747074Y5283161D01*
X18710937Y5270394D01*
X18672510Y5261168D01*
X18629921Y5255321D01*
X18584908Y5253369D01*
X18533411Y5255893D01*
X18455642Y5271036D01*
X18388287Y5299031D01*
X18357971Y5317859D01*
X18329889Y5339911D01*
X18303599Y5365690D01*
X18279685Y5394799D01*
X18257429Y5428492D01*
X18237791Y5465747D01*
X18220037Y5508650D01*
X18205236Y5555451D01*
X18192860Y5609048D01*
X18183855Y5666959D01*
X18178052Y5732790D01*
X18176531Y5788017D01*
X18374921Y5788017D01*
X18378146Y5707148D01*
X18393158Y5609932D01*
X18417689Y5536340D01*
X18449444Y5482738D01*
X18487299Y5445833D01*
X18508632Y5432872D01*
X18531519Y5423528D01*
X18556756Y5417681D01*
X18583504Y5415729D01*
X18607305Y5417233D01*
X18655091Y5430994D01*
X18677044Y5443514D01*
X18697289Y5459737D01*
X18716696Y5480816D01*
X18734061Y5505975D01*
X18750300Y5537410D01*
X18764022Y5573488D01*
X18775822Y5617262D01*
X18784514Y5666323D01*
X18790217Y5724210D01*
X18792148Y5788017D01*
X18788779Y5870083D01*
X18773474Y5967463D01*
X18748573Y6041601D01*
X18716475Y6095728D01*
X18678475Y6132942D01*
X18657247Y6145951D01*
X18634534Y6155329D01*
X18609720Y6161163D01*
X18583504Y6163113D01*
X18559588Y6161495D01*
X18512459Y6147277D01*
X18490543Y6134348D01*
X18470259Y6117628D01*
X18450742Y6095933D01*
X18433229Y6070083D01*
X18416890Y6038012D01*
X18403054Y6001293D01*
X18391236Y5957256D01*
X18382516Y5908058D01*
X18376847Y5850841D01*
X18374921Y5788017D01*
X18176531Y5788017D01*
X18176107Y5803404D01*
X18178714Y5877134D01*
X18193781Y5985376D01*
X18220517Y6076111D01*
X18257366Y6151030D01*
X18303416Y6211709D01*
X18358480Y6259319D01*
X18389659Y6278478D01*
X18423056Y6294338D01*
X18459488Y6307120D01*
X18498134Y6316370D01*
X18540396Y6322183D01*
X18584908Y6324130D01*
X18627867Y6322249D01*
G37*
G36*
X19146972Y6304590D02*
G01*
X19146972Y5269000D01*
X19341512Y5269000D01*
X19341512Y5695876D01*
X19729308Y5695876D01*
X19729308Y5851275D01*
X19341512Y5851275D01*
X19341512Y6139360D01*
X19750313Y6139360D01*
X19750313Y6304590D01*
X19146972Y6304590D01*
G37*
G36*
X19905102Y6304590D02*
G01*
X19905102Y5269000D01*
X20099641Y5269000D01*
X20099641Y5695876D01*
X20487438Y5695876D01*
X20487438Y5851275D01*
X20099641Y5851275D01*
X20099641Y6139360D01*
X20508443Y6139360D01*
X20508443Y6304590D01*
X19905102Y6304590D01*
G37*
G36*
X22716588Y6322249D02*
G01*
X22794498Y6307871D01*
X22863232Y6280107D01*
X22894443Y6261262D01*
X22923470Y6239158D01*
X22950628Y6213439D01*
X22975409Y6184445D01*
X22998316Y6151303D01*
X23018579Y6114794D01*
X23036684Y6073525D01*
X23051808Y6028746D01*
X23064261Y5978642D01*
X23073338Y5924867D01*
X23079088Y5865345D01*
X23081026Y5801999D01*
X23077543Y5709229D01*
X23061593Y5595640D01*
X23034626Y5502196D01*
X22998186Y5426227D01*
X22953070Y5365399D01*
X22899231Y5317988D01*
X22868624Y5298918D01*
X22835795Y5283161D01*
X22799658Y5270394D01*
X22761231Y5261168D01*
X22718642Y5255321D01*
X22673629Y5253369D01*
X22622132Y5255893D01*
X22544363Y5271036D01*
X22477008Y5299031D01*
X22446692Y5317859D01*
X22418610Y5339911D01*
X22392320Y5365690D01*
X22368406Y5394799D01*
X22346150Y5428492D01*
X22326512Y5465747D01*
X22308758Y5508650D01*
X22293957Y5555451D01*
X22281581Y5609048D01*
X22272576Y5666959D01*
X22266773Y5732790D01*
X22265252Y5788017D01*
X22463642Y5788017D01*
X22466867Y5707148D01*
X22481879Y5609932D01*
X22506410Y5536340D01*
X22538165Y5482738D01*
X22576020Y5445833D01*
X22597353Y5432872D01*
X22620240Y5423528D01*
X22645477Y5417681D01*
X22672225Y5415729D01*
X22696026Y5417233D01*
X22743812Y5430994D01*
X22765765Y5443514D01*
X22786010Y5459737D01*
X22805417Y5480816D01*
X22822782Y5505975D01*
X22839021Y5537410D01*
X22852743Y5573488D01*
X22864543Y5617262D01*
X22873235Y5666323D01*
X22878938Y5724210D01*
X22880869Y5788017D01*
X22877500Y5870083D01*
X22862195Y5967463D01*
X22837294Y6041601D01*
X22805196Y6095728D01*
X22767196Y6132942D01*
X22745968Y6145951D01*
X22723255Y6155329D01*
X22698441Y6161163D01*
X22672225Y6163113D01*
X22648309Y6161495D01*
X22601180Y6147277D01*
X22579264Y6134348D01*
X22558980Y6117628D01*
X22539463Y6095933D01*
X22521950Y6070083D01*
X22505611Y6038012D01*
X22491775Y6001293D01*
X22479957Y5957256D01*
X22471237Y5908058D01*
X22465568Y5850841D01*
X22463642Y5788017D01*
X22265252Y5788017D01*
X22264828Y5803404D01*
X22267435Y5877134D01*
X22282502Y5985376D01*
X22309238Y6076111D01*
X22346087Y6151030D01*
X22392137Y6211709D01*
X22447201Y6259319D01*
X22478380Y6278478D01*
X22511777Y6294338D01*
X22548209Y6307120D01*
X22586855Y6316370D01*
X22629117Y6322183D01*
X22673629Y6324130D01*
X22716588Y6322249D01*
G37*
G36*
X23235693Y6304590D02*
G01*
X23235693Y5269000D01*
X23399458Y5269000D01*
X23399458Y5861534D01*
X23390083Y5988883D01*
X23371492Y6115546D01*
X23399458Y6115546D01*
X23431351Y6004272D01*
X23461068Y5929922D01*
X23753671Y5269000D01*
X23974833Y5269000D01*
X23974833Y6304590D01*
X23811068Y6304590D01*
X23811068Y5745640D01*
X23818905Y5619087D01*
X23836286Y5506954D01*
X23811068Y5506954D01*
X23768005Y5628228D01*
X23731262Y5719140D01*
X23473647Y6304590D01*
X23235693Y6304590D01*
G37*
G36*
X1567147Y33851164D02*
G01*
X1759061Y33851164D01*
X1791197Y33913165D01*
X1815485Y33994542D01*
X1823150Y34040939D01*
X1827120Y34089416D01*
X1827632Y34114336D01*
X1825699Y34157672D01*
X1819982Y34198887D01*
X1810757Y34237318D01*
X1798090Y34273402D01*
X1782346Y34306551D01*
X1763484Y34337148D01*
X1741888Y34364753D01*
X1717468Y34389603D01*
X1690523Y34411433D01*
X1661007Y34430289D01*
X1629040Y34446039D01*
X1594720Y34458563D01*
X1519007Y34473465D01*
X1476106Y34475510D01*
X1436937Y34473585D01*
X1399939Y34467927D01*
X1365415Y34458770D01*
X1333277Y34446265D01*
X1303723Y34430633D01*
X1276779Y34412012D01*
X1231149Y34366438D01*
X1197260Y34310632D01*
X1176222Y34245636D01*
X1169337Y34175946D01*
X1176859Y34098777D01*
X1188937Y34051321D01*
X1169337Y34031721D01*
X1153288Y34041944D01*
X1137779Y34047801D01*
X1098262Y34051321D01*
X1010457Y34051321D01*
X974721Y34048871D01*
X956927Y34043052D01*
X937977Y34031721D01*
X918377Y34051321D01*
X944699Y34102044D01*
X959148Y34164107D01*
X963134Y34234747D01*
X963134Y34462931D01*
X788134Y34462931D01*
X788134Y33898730D01*
X1330354Y33898730D01*
X1330354Y33977132D01*
X1318137Y34015937D01*
X1310753Y34052460D01*
X1307883Y34091926D01*
X1309803Y34122031D01*
X1315422Y34150096D01*
X1324463Y34175754D01*
X1336746Y34199007D01*
X1351961Y34219536D01*
X1369979Y34237304D01*
X1390523Y34252074D01*
X1413455Y34263721D01*
X1438601Y34272062D01*
X1465744Y34276892D01*
X1488684Y34278101D01*
X1519383Y34276174D01*
X1547482Y34270502D01*
X1572054Y34261615D01*
X1593969Y34249529D01*
X1612748Y34234734D01*
X1628765Y34217150D01*
X1652125Y34174060D01*
X1663214Y34120009D01*
X1663867Y34101757D01*
X1661943Y34070351D01*
X1656293Y34041396D01*
X1647372Y34015726D01*
X1635251Y33992762D01*
X1620508Y33973150D01*
X1603037Y33956460D01*
X1567147Y33935123D01*
X1567147Y33851164D01*
G37*
G36*
X2046412Y33203066D02*
G01*
X3082002Y33203066D01*
X3082002Y33366831D01*
X2471517Y33366831D01*
X2393988Y33364824D01*
X2317892Y33358591D01*
X2239669Y33348635D01*
X2239669Y33375257D01*
X3054646Y33607654D01*
X3054646Y33726601D01*
X2239669Y33957654D01*
X2239669Y33985620D01*
X2341723Y33975351D01*
X2471578Y33973042D01*
X3082002Y33973042D01*
X3082002Y34136806D01*
X2046412Y34136806D01*
X2046412Y33873635D01*
X2609819Y33723853D01*
X2728052Y33701037D01*
X2822249Y33691613D01*
X2822249Y33642642D01*
X2736888Y33634024D01*
X2664613Y33622796D01*
X2609880Y33610402D01*
X2046412Y33460620D01*
X2046412Y33203066D01*
G37*
G36*
X2946264Y34500179D02*
G01*
X2946264Y34306983D01*
X3082002Y34306983D01*
X3082002Y34668157D01*
X2982656Y34668157D01*
X2942522Y34621434D01*
X2881934Y34575990D01*
X2844270Y34555314D01*
X2802318Y34536895D01*
X2756706Y34521280D01*
X2707280Y34508705D01*
X2655723Y34499781D01*
X2600927Y34494502D01*
X2554986Y34493157D01*
X2505347Y34495088D01*
X2458128Y34500788D01*
X2414302Y34509953D01*
X2373451Y34522509D01*
X2337084Y34537745D01*
X2304069Y34555906D01*
X2275995Y34575816D01*
X2251461Y34598169D01*
X2231689Y34621526D01*
X2215524Y34646898D01*
X2203629Y34672969D01*
X2195405Y34700727D01*
X2190332Y34747963D01*
X2192248Y34777004D01*
X2197843Y34804235D01*
X2219505Y34853825D01*
X2255164Y34897648D01*
X2305731Y34935561D01*
X2372103Y34966125D01*
X2453660Y34986739D01*
X2547965Y34994343D01*
X2607325Y34992443D01*
X2662436Y34986955D01*
X2714052Y34978055D01*
X2761415Y34966129D01*
X2805357Y34951215D01*
X2845010Y34933863D01*
X2881199Y34913961D01*
X2913033Y34892256D01*
X2941205Y34868545D01*
X2964949Y34843749D01*
X2982656Y34820747D01*
X3082002Y34820747D01*
X3082002Y35181983D01*
X2946264Y35181983D01*
X2946264Y34985978D01*
X2942050Y34985978D01*
X2910494Y35016129D01*
X2873798Y35045490D01*
X2833571Y35072447D01*
X2789007Y35097190D01*
X2743583Y35117701D01*
X2694770Y35135046D01*
X2646589Y35147798D01*
X2595816Y35156833D01*
X2512916Y35162382D01*
X2423583Y35154624D01*
X2378897Y35144883D01*
X2335114Y35131293D01*
X2293439Y35114235D01*
X2253555Y35093545D01*
X2217337Y35070280D01*
X2183597Y35043737D01*
X2154229Y35015543D01*
X2127806Y34984460D01*
X2105786Y34952353D01*
X2087017Y34917706D01*
X2072393Y34882254D01*
X2061263Y34844531D01*
X2054059Y34805876D01*
X2050602Y34765137D01*
X2050320Y34749367D01*
X2052247Y34708337D01*
X2057921Y34668823D01*
X2080163Y34594032D01*
X2116383Y34525697D01*
X2166019Y34464865D01*
X2228368Y34412969D01*
X2302339Y34371732D01*
X2386310Y34342958D01*
X2431405Y34333762D01*
X2478169Y34328261D01*
X2522746Y34326583D01*
X2617166Y34333959D01*
X2707349Y34355670D01*
X2792613Y34391142D01*
X2871310Y34439452D01*
X2940279Y34498390D01*
X2942050Y34500179D01*
X2946264Y34500179D01*
G37*
G36*
X4870236Y15283950D02*
G01*
X5742000Y15283950D01*
X5742000Y15479894D01*
X4870236Y15479894D01*
X4870236Y15754301D01*
X4706410Y15754301D01*
X4706410Y15015100D01*
X4870236Y15015100D01*
X4870236Y15283950D01*
G37*
G36*
X5742000Y16379379D02*
G01*
X5393099Y16205784D01*
X5354742Y16187570D01*
X5302362Y16173605D01*
X5302907Y16171067D01*
X5310002Y16125124D01*
X5312132Y16081220D01*
X5312132Y16064367D01*
X5742000Y16064367D01*
X5742000Y15869828D01*
X4706410Y15869828D01*
X4706410Y16099416D01*
X4709200Y16183854D01*
X4710992Y16197418D01*
X4853444Y16197418D01*
X4853444Y16064367D01*
X5195995Y16064367D01*
X5197338Y16113399D01*
X5193918Y16176282D01*
X5180137Y16238652D01*
X5157375Y16283001D01*
X5142451Y16300237D01*
X5124961Y16314510D01*
X5103583Y16326421D01*
X5079159Y16335095D01*
X5048023Y16341024D01*
X5012812Y16342987D01*
X5008280Y16342933D01*
X4956455Y16334543D01*
X4913097Y16314092D01*
X4881013Y16284221D01*
X4860745Y16245676D01*
X4855334Y16222862D01*
X4853444Y16197418D01*
X4710992Y16197418D01*
X4723154Y16289465D01*
X4746713Y16370537D01*
X4778414Y16432361D01*
X4817983Y16478898D01*
X4841086Y16497319D01*
X4866520Y16512585D01*
X4895234Y16525001D01*
X4926512Y16534019D01*
X4962580Y16539851D01*
X5001638Y16541801D01*
X5023429Y16541108D01*
X5086993Y16529778D01*
X5115613Y16518984D01*
X5142355Y16504743D01*
X5168009Y16486435D01*
X5191755Y16464435D01*
X5215042Y16436867D01*
X5236259Y16405064D01*
X5257172Y16365378D01*
X5275740Y16320578D01*
X5286975Y16320578D01*
X5332655Y16373429D01*
X5379177Y16407406D01*
X5742000Y16608968D01*
X5742000Y16379379D01*
G37*
G36*
X4706410Y16724678D02*
G01*
X5742000Y16724678D01*
X5742000Y16919217D01*
X4706410Y16919217D01*
X4706410Y16724678D01*
G37*
G36*
X4706410Y17133113D02*
G01*
X5742000Y17133113D01*
X5742000Y17296878D01*
X5131515Y17296878D01*
X5053986Y17294871D01*
X4977890Y17288638D01*
X4899667Y17278682D01*
X4899667Y17305304D01*
X5714644Y17537701D01*
X5714644Y17656647D01*
X4899667Y17887701D01*
X4899667Y17915667D01*
X5001721Y17905398D01*
X5131576Y17903088D01*
X5742000Y17903088D01*
X5742000Y18066853D01*
X4706410Y18066853D01*
X4706410Y17803682D01*
X5269817Y17653900D01*
X5388050Y17631084D01*
X5482247Y17621660D01*
X5482247Y17572689D01*
X5396886Y17564071D01*
X5324611Y17552842D01*
X5269878Y17540449D01*
X4706410Y17390667D01*
X4706410Y17133113D01*
G37*
G36*
X6955503Y15421457D02*
G01*
X7058328Y15408609D01*
X7144571Y15383946D01*
X7217690Y15348086D01*
X7280236Y15300535D01*
X7308274Y15271690D01*
X7333828Y15239621D01*
X7367433Y15185156D01*
X7385279Y15145523D01*
X7398777Y15104954D01*
X7411103Y15048758D01*
X7418120Y14990195D01*
X7422000Y14864403D01*
X7422000Y14664246D01*
X6386410Y14664246D01*
X6386410Y14864403D01*
X6386866Y14897986D01*
X6544618Y14897986D01*
X6546023Y14858785D01*
X7262448Y14858785D01*
X7263852Y14913434D01*
X7263339Y14937046D01*
X7253067Y15013899D01*
X7230925Y15076165D01*
X7197381Y15126864D01*
X7175830Y15148681D01*
X7151231Y15167847D01*
X7122127Y15185117D01*
X7089645Y15199482D01*
X7050986Y15211683D01*
X7008406Y15220553D01*
X6957604Y15226429D01*
X6902129Y15228385D01*
X6861678Y15227302D01*
X6774018Y15215687D01*
X6704522Y15193022D01*
X6649460Y15160311D01*
X6626413Y15140040D01*
X6606241Y15117099D01*
X6588469Y15090679D01*
X6573726Y15061405D01*
X6561398Y15027254D01*
X6552452Y14989870D01*
X6546574Y14945832D01*
X6544618Y14897986D01*
X6386866Y14897986D01*
X6387263Y14927234D01*
X6395830Y15034840D01*
X6414361Y15118863D01*
X6444316Y15191120D01*
X6464434Y15224900D01*
X6488625Y15257817D01*
X6515128Y15287115D01*
X6544426Y15313658D01*
X6577090Y15337831D01*
X6612540Y15359069D01*
X6651808Y15377797D01*
X6693892Y15393345D01*
X6740318Y15406038D01*
X6789617Y15415238D01*
X6843703Y15421040D01*
X6900724Y15422986D01*
X6955503Y15421457D01*
G37*
G36*
X6981771Y16372110D02*
G01*
X7095360Y16356160D01*
X7188804Y16329193D01*
X7264773Y16292754D01*
X7325601Y16247638D01*
X7373012Y16193799D01*
X7392082Y16163192D01*
X7407839Y16130362D01*
X7420606Y16094226D01*
X7429832Y16055799D01*
X7435679Y16013210D01*
X7437631Y15968197D01*
X7435107Y15916699D01*
X7419964Y15838931D01*
X7391969Y15771576D01*
X7373141Y15741259D01*
X7351089Y15713178D01*
X7325310Y15686887D01*
X7296201Y15662974D01*
X7262508Y15640718D01*
X7225253Y15621080D01*
X7182350Y15603326D01*
X7135549Y15588524D01*
X7081952Y15576149D01*
X7024041Y15567144D01*
X6958210Y15561341D01*
X6887596Y15559396D01*
X6813866Y15562003D01*
X6705624Y15577070D01*
X6614889Y15603806D01*
X6539970Y15640655D01*
X6479291Y15686705D01*
X6431681Y15741769D01*
X6412522Y15772948D01*
X6396662Y15806345D01*
X6383880Y15842777D01*
X6374630Y15881423D01*
X6368817Y15923685D01*
X6366931Y15966793D01*
X6527887Y15966793D01*
X6529505Y15942876D01*
X6543723Y15895747D01*
X6556652Y15873831D01*
X6573372Y15853547D01*
X6595067Y15834031D01*
X6620917Y15816518D01*
X6652988Y15800179D01*
X6689707Y15786343D01*
X6733744Y15774525D01*
X6782942Y15765805D01*
X6840159Y15760136D01*
X6902983Y15758209D01*
X6983852Y15761434D01*
X7081068Y15776447D01*
X7154660Y15800978D01*
X7208262Y15832732D01*
X7245167Y15870588D01*
X7258128Y15891920D01*
X7267472Y15914808D01*
X7273319Y15940045D01*
X7275271Y15966793D01*
X7273767Y15990593D01*
X7260006Y16038379D01*
X7247486Y16060333D01*
X7231263Y16080578D01*
X7210184Y16099985D01*
X7185025Y16117350D01*
X7153590Y16133589D01*
X7117512Y16147310D01*
X7073738Y16159110D01*
X7024677Y16167803D01*
X6966790Y16173506D01*
X6902983Y16175437D01*
X6820917Y16172068D01*
X6723537Y16156763D01*
X6649399Y16131861D01*
X6595272Y16099763D01*
X6558058Y16061764D01*
X6545049Y16040535D01*
X6535671Y16017822D01*
X6529837Y15993008D01*
X6527887Y15966793D01*
X6366931Y15966793D01*
X6366870Y15968197D01*
X6368751Y16011156D01*
X6383129Y16089065D01*
X6410893Y16157800D01*
X6429738Y16189011D01*
X6451842Y16218038D01*
X6477561Y16245196D01*
X6506555Y16269977D01*
X6539697Y16292884D01*
X6576206Y16313146D01*
X6617475Y16331252D01*
X6662254Y16346375D01*
X6712358Y16358829D01*
X6766133Y16367906D01*
X6825655Y16373656D01*
X6889001Y16375594D01*
X6981771Y16372110D01*
G37*
G36*
X6386410Y16453202D02*
G01*
X7429815Y16706604D01*
X7429815Y16890031D01*
X6913058Y17003420D01*
X6764711Y17031951D01*
X6691643Y17041030D01*
X6609037Y17046835D01*
X6609037Y17079014D01*
X6758905Y17092547D01*
X6802905Y17100018D01*
X7429815Y17234413D01*
X7429815Y17399643D01*
X6386410Y17658602D01*
X6386410Y17473832D01*
X7021869Y17347803D01*
X7112629Y17331687D01*
X7216576Y17319820D01*
X7235276Y17318433D01*
X7235276Y17289001D01*
X7066088Y17267951D01*
X6893580Y17237222D01*
X6386410Y17142028D01*
X6386410Y16978202D01*
X7021869Y16852234D01*
X7186339Y16827253D01*
X7235276Y16822803D01*
X7235276Y16793433D01*
X7029849Y16767457D01*
X7017655Y16765406D01*
X6386410Y16645055D01*
X6386410Y16453202D01*
G37*
G36*
X6386410Y17773945D02*
G01*
X7422000Y17773945D01*
X7422000Y17937710D01*
X6829466Y17937710D01*
X6702117Y17928335D01*
X6575454Y17909744D01*
X6575454Y17937710D01*
X6686728Y17969604D01*
X6761078Y17999321D01*
X7422000Y18291923D01*
X7422000Y18513085D01*
X6386410Y18513085D01*
X6386410Y18349321D01*
X6945360Y18349321D01*
X7071913Y18357158D01*
X7184046Y18374539D01*
X7184046Y18349321D01*
X7062772Y18306257D01*
X6971860Y18269514D01*
X6386410Y18011899D01*
X6386410Y17773945D01*
G37*
G36*
X4920236Y24933950D02*
G01*
X5792000Y24933950D01*
X5792000Y25129894D01*
X4920236Y25129894D01*
X4920236Y25404301D01*
X4756410Y25404301D01*
X4756410Y24665100D01*
X4920236Y24665100D01*
X4920236Y24933950D01*
G37*
G36*
X5792000Y26029379D02*
G01*
X5443099Y25855784D01*
X5404742Y25837570D01*
X5352362Y25823605D01*
X5352907Y25821067D01*
X5360002Y25775124D01*
X5362132Y25731220D01*
X5362132Y25714367D01*
X5792000Y25714367D01*
X5792000Y25519828D01*
X4756410Y25519828D01*
X4756410Y25749416D01*
X4759200Y25833854D01*
X4760992Y25847418D01*
X4903444Y25847418D01*
X4903444Y25714367D01*
X5245995Y25714367D01*
X5247338Y25763399D01*
X5243918Y25826282D01*
X5230137Y25888652D01*
X5207375Y25933001D01*
X5192451Y25950237D01*
X5174961Y25964510D01*
X5153583Y25976421D01*
X5129159Y25985095D01*
X5098023Y25991024D01*
X5062812Y25992987D01*
X5058280Y25992933D01*
X5006455Y25984543D01*
X4963097Y25964092D01*
X4931013Y25934221D01*
X4910745Y25895676D01*
X4905334Y25872862D01*
X4903444Y25847418D01*
X4760992Y25847418D01*
X4773154Y25939465D01*
X4796713Y26020537D01*
X4828414Y26082361D01*
X4867983Y26128898D01*
X4891086Y26147319D01*
X4916520Y26162585D01*
X4945234Y26175001D01*
X4976512Y26184019D01*
X5012580Y26189851D01*
X5051638Y26191801D01*
X5073429Y26191108D01*
X5136993Y26179778D01*
X5165613Y26168984D01*
X5192355Y26154743D01*
X5218009Y26136435D01*
X5241755Y26114435D01*
X5265042Y26086867D01*
X5286259Y26055064D01*
X5307172Y26015378D01*
X5325740Y25970578D01*
X5336975Y25970578D01*
X5382655Y26023429D01*
X5429177Y26057406D01*
X5792000Y26258968D01*
X5792000Y26029379D01*
G37*
G36*
X4756410Y26374678D02*
G01*
X5792000Y26374678D01*
X5792000Y26569217D01*
X4756410Y26569217D01*
X4756410Y26374678D01*
G37*
G36*
X4756410Y26783113D02*
G01*
X5792000Y26783113D01*
X5792000Y26946878D01*
X5181515Y26946878D01*
X5103986Y26944871D01*
X5027890Y26938638D01*
X4949667Y26928682D01*
X4949667Y26955304D01*
X5764644Y27187701D01*
X5764644Y27306647D01*
X4949667Y27537701D01*
X4949667Y27565667D01*
X5051721Y27555398D01*
X5181576Y27553088D01*
X5792000Y27553088D01*
X5792000Y27716853D01*
X4756410Y27716853D01*
X4756410Y27453682D01*
X5319817Y27303900D01*
X5438050Y27281084D01*
X5532247Y27271660D01*
X5532247Y27222689D01*
X5446886Y27214071D01*
X5374611Y27202842D01*
X5319878Y27190449D01*
X4756410Y27040667D01*
X4756410Y26783113D01*
G37*
G36*
X7092263Y25451440D02*
G01*
X7197585Y25455251D01*
X7244843Y25462105D01*
X7288950Y25474115D01*
X7319810Y25487166D01*
X7349263Y25504384D01*
X7363067Y25514393D01*
X7409572Y25560649D01*
X7446798Y25619952D01*
X7473029Y25691800D01*
X7481444Y25732298D01*
X7486348Y25775326D01*
X7487631Y25812614D01*
X7485706Y25857249D01*
X7480048Y25899628D01*
X7470872Y25939413D01*
X7458337Y25976585D01*
X7442801Y26010604D01*
X7424312Y26041702D01*
X7403417Y26069255D01*
X7379989Y26093637D01*
X7363067Y26108025D01*
X7308833Y26140612D01*
X7246392Y26160660D01*
X7166715Y26170636D01*
X7092263Y26172383D01*
X6436410Y26172383D01*
X6436410Y25977783D01*
X7110398Y25977783D01*
X7160354Y25975772D01*
X7203300Y25969513D01*
X7233146Y25961068D01*
X7258577Y25949413D01*
X7277305Y25936420D01*
X7292779Y25920700D01*
X7313548Y25882587D01*
X7323266Y25830654D01*
X7323866Y25811209D01*
X7321919Y25776160D01*
X7316104Y25746328D01*
X7307767Y25723961D01*
X7296463Y25705083D01*
X7266676Y25677679D01*
X7223578Y25659269D01*
X7158587Y25648577D01*
X7082493Y25645979D01*
X6436410Y25645979D01*
X6436410Y25451440D01*
X7092263Y25451440D01*
G37*
G36*
X6806914Y27064359D02*
G01*
X6881403Y27050402D01*
X6944993Y27024140D01*
X6998126Y26986420D01*
X7020850Y26963322D01*
X7041124Y26937163D01*
X7058806Y26907867D01*
X7073710Y26875420D01*
X7085839Y26839190D01*
X7094766Y26799622D01*
X7100414Y26755554D01*
X7102338Y26707886D01*
X7102338Y26559447D01*
X7472000Y26559447D01*
X7472000Y26364908D01*
X6436410Y26364908D01*
X6436410Y26654702D01*
X6437746Y26699459D01*
X6603045Y26699459D01*
X6603045Y26559447D01*
X6966539Y26559447D01*
X6967882Y26615501D01*
X6962412Y26698245D01*
X6946567Y26761434D01*
X6921996Y26806677D01*
X6906271Y26824257D01*
X6888072Y26838795D01*
X6866183Y26850847D01*
X6841422Y26859609D01*
X6810436Y26865535D01*
X6775724Y26867499D01*
X6749584Y26865914D01*
X6700228Y26853797D01*
X6659976Y26831322D01*
X6629878Y26799181D01*
X6618759Y26779294D01*
X6610296Y26756153D01*
X6604928Y26729637D01*
X6603045Y26699459D01*
X6437746Y26699459D01*
X6438259Y26716627D01*
X6451388Y26817021D01*
X6475082Y26894887D01*
X6508019Y26955102D01*
X6528107Y26979960D01*
X6550372Y27001290D01*
X6576128Y27020165D01*
X6604088Y27035502D01*
X6637432Y27048586D01*
X6673178Y27057865D01*
X6717500Y27064226D01*
X6764611Y27066251D01*
X6806914Y27064359D01*
G37*
G36*
X22251063Y32665465D02*
G01*
X22251063Y32385502D01*
X22396632Y32385502D01*
X22396632Y32665465D01*
X22678000Y32665465D01*
X22678000Y32811095D01*
X22396632Y32811095D01*
X22396632Y33091058D01*
X22251063Y33091058D01*
X22251063Y32811095D01*
X21969695Y32811095D01*
X21969695Y32665465D01*
X22251063Y32665465D01*
G37*
G36*
X22462883Y33395629D02*
G01*
X22644660Y33395629D01*
X22662460Y33446062D01*
X22675809Y33495362D01*
X22690972Y33594285D01*
X22693631Y33663014D01*
X22691702Y33710001D01*
X22686014Y33754131D01*
X22676935Y33794518D01*
X22664528Y33831975D01*
X22649271Y33865761D01*
X22631084Y33896560D01*
X22610455Y33923866D01*
X22587241Y33948115D01*
X22561792Y33969062D01*
X22534049Y33986841D01*
X22472055Y34012611D01*
X22401492Y34024764D01*
X22376299Y34025592D01*
X22336175Y34023628D01*
X22299893Y34017691D01*
X22270345Y34008852D01*
X22243830Y33996668D01*
X22211618Y33973813D01*
X22192346Y33954620D01*
X22175670Y33932463D01*
X22149675Y33878125D01*
X22134620Y33815605D01*
X22102380Y33815605D01*
X22093572Y33849795D01*
X22081580Y33880772D01*
X22067000Y33907777D01*
X22049728Y33931557D01*
X22030337Y33951659D01*
X22008669Y33968497D01*
X21959473Y33991949D01*
X21902560Y34001588D01*
X21892820Y34001779D01*
X21860253Y33999839D01*
X21829435Y33994074D01*
X21801128Y33984823D01*
X21774735Y33972075D01*
X21728549Y33936774D01*
X21691041Y33888217D01*
X21663079Y33825775D01*
X21646313Y33748630D01*
X21642410Y33682614D01*
X21649892Y33592346D01*
X21673055Y33495963D01*
X21701211Y33416634D01*
X21883050Y33416634D01*
X21883050Y33485205D01*
X21856161Y33511629D01*
X21834121Y33539054D01*
X21818034Y33565380D01*
X21806026Y33592741D01*
X21794271Y33648833D01*
X21793657Y33665823D01*
X21795564Y33692466D01*
X21801093Y33717120D01*
X21810025Y33739629D01*
X21822047Y33759543D01*
X21836757Y33776462D01*
X21853944Y33790248D01*
X21872934Y33800451D01*
X21893765Y33807094D01*
X21920725Y33809987D01*
X21944889Y33808033D01*
X21966761Y33802171D01*
X21985171Y33793142D01*
X22001599Y33780689D01*
X22028715Y33745221D01*
X22049046Y33691714D01*
X22061144Y33613484D01*
X22061775Y33604213D01*
X22212961Y33604213D01*
X22215814Y33651809D01*
X22222503Y33693699D01*
X22231631Y33725965D01*
X22243805Y33753796D01*
X22257431Y33775119D01*
X22273577Y33792841D01*
X22291188Y33806296D01*
X22311086Y33816539D01*
X22358241Y33827442D01*
X22376299Y33828183D01*
X22401830Y33826251D01*
X22425966Y33820543D01*
X22448224Y33811296D01*
X22468568Y33798601D01*
X22486600Y33782720D01*
X22502214Y33763694D01*
X22515119Y33741704D01*
X22525091Y33716835D01*
X22531882Y33689122D01*
X22535193Y33658762D01*
X22535484Y33646222D01*
X22528151Y33577501D01*
X22519365Y33547060D01*
X22507673Y33520419D01*
X22494157Y33499093D01*
X22478671Y33482289D01*
X22462883Y33471222D01*
X22462883Y33395629D01*
G37*
G36*
X21642410Y34128480D02*
G01*
X22685815Y34418274D01*
X22685815Y34598892D01*
X21642410Y34905477D01*
X21642410Y34716494D01*
X22305651Y34555477D01*
X22370898Y34541945D01*
X22437906Y34532947D01*
X22524859Y34528855D01*
X22524859Y34499485D01*
X22409418Y34492060D01*
X22305651Y34472862D01*
X21642410Y34311906D01*
X21642410Y34128480D01*
G37*
G36*
X22462883Y35008609D02*
G01*
X22644660Y35008609D01*
X22662460Y35059042D01*
X22675809Y35108342D01*
X22690972Y35207265D01*
X22693631Y35275994D01*
X22691702Y35322981D01*
X22686014Y35367111D01*
X22676935Y35407497D01*
X22664528Y35444955D01*
X22649271Y35478741D01*
X22631084Y35509539D01*
X22610455Y35536846D01*
X22587241Y35561095D01*
X22561792Y35582042D01*
X22534049Y35599821D01*
X22472055Y35625591D01*
X22401492Y35637744D01*
X22376299Y35638572D01*
X22336175Y35636608D01*
X22299893Y35630671D01*
X22270345Y35621832D01*
X22243830Y35609648D01*
X22211618Y35586793D01*
X22192346Y35567600D01*
X22175670Y35545443D01*
X22149675Y35491105D01*
X22134620Y35428584D01*
X22102380Y35428584D01*
X22093572Y35462775D01*
X22081580Y35493751D01*
X22067000Y35520757D01*
X22049728Y35544537D01*
X22030337Y35564639D01*
X22008669Y35581477D01*
X21959473Y35604928D01*
X21902560Y35614567D01*
X21892820Y35614759D01*
X21860253Y35612819D01*
X21829435Y35607054D01*
X21801128Y35597803D01*
X21774735Y35585054D01*
X21728549Y35549754D01*
X21691041Y35501197D01*
X21663079Y35438755D01*
X21646313Y35361610D01*
X21642410Y35295594D01*
X21649892Y35205326D01*
X21673055Y35108942D01*
X21701211Y35029614D01*
X21883050Y35029614D01*
X21883050Y35098185D01*
X21856161Y35124609D01*
X21834121Y35152033D01*
X21818034Y35178360D01*
X21806026Y35205721D01*
X21794271Y35261813D01*
X21793657Y35278803D01*
X21795564Y35305446D01*
X21801093Y35330100D01*
X21810025Y35352609D01*
X21822047Y35372522D01*
X21836757Y35389442D01*
X21853944Y35403227D01*
X21872934Y35413430D01*
X21893765Y35420074D01*
X21920725Y35422967D01*
X21944889Y35421013D01*
X21966761Y35415151D01*
X21985171Y35406122D01*
X22001599Y35393669D01*
X22028715Y35358201D01*
X22049046Y35304694D01*
X22061144Y35226464D01*
X22061775Y35217192D01*
X22212961Y35217192D01*
X22215814Y35264789D01*
X22222503Y35306679D01*
X22231631Y35338945D01*
X22243805Y35366776D01*
X22257431Y35388099D01*
X22273577Y35405821D01*
X22291188Y35419276D01*
X22311086Y35429519D01*
X22358241Y35440422D01*
X22376299Y35441163D01*
X22401830Y35439231D01*
X22425966Y35433523D01*
X22448224Y35424276D01*
X22468568Y35411581D01*
X22486600Y35395699D01*
X22502214Y35376674D01*
X22515119Y35354684D01*
X22525091Y35329815D01*
X22531882Y35302102D01*
X22535193Y35271742D01*
X22535484Y35259202D01*
X22528151Y35190481D01*
X22519365Y35160039D01*
X22507673Y35133399D01*
X22494157Y35112073D01*
X22478671Y35095268D01*
X22462883Y35084202D01*
X22462883Y35008609D01*
G37*
G36*
X22401063Y14254299D02*
G01*
X22401063Y13974336D01*
X22546632Y13974336D01*
X22546632Y14254299D01*
X22828000Y14254299D01*
X22828000Y14399929D01*
X22546632Y14399929D01*
X22546632Y14679892D01*
X22401063Y14679892D01*
X22401063Y14399929D01*
X22119695Y14399929D01*
X22119695Y14254299D01*
X22401063Y14254299D01*
G37*
G36*
X22583146Y14987272D02*
G01*
X22775060Y14987272D01*
X22807196Y15049273D01*
X22831484Y15130650D01*
X22839149Y15177047D01*
X22843119Y15225524D01*
X22843631Y15250444D01*
X22841698Y15293780D01*
X22835981Y15334995D01*
X22826756Y15373426D01*
X22814089Y15409510D01*
X22798345Y15442659D01*
X22779483Y15473256D01*
X22757887Y15500861D01*
X22733467Y15525711D01*
X22706522Y15547541D01*
X22677006Y15566397D01*
X22645039Y15582147D01*
X22610719Y15594671D01*
X22535006Y15609573D01*
X22492105Y15611618D01*
X22452936Y15609693D01*
X22415938Y15604035D01*
X22381414Y15594878D01*
X22349276Y15582373D01*
X22319722Y15566741D01*
X22292778Y15548120D01*
X22247148Y15502546D01*
X22213259Y15446740D01*
X22192221Y15381744D01*
X22185336Y15312054D01*
X22192858Y15234885D01*
X22204936Y15187429D01*
X22185336Y15167828D01*
X22169287Y15178052D01*
X22153778Y15183908D01*
X22114261Y15187429D01*
X22026456Y15187429D01*
X21990720Y15184979D01*
X21972926Y15179160D01*
X21953976Y15167828D01*
X21934376Y15187429D01*
X21960698Y15238152D01*
X21975147Y15300215D01*
X21979133Y15370855D01*
X21979133Y15599039D01*
X21804133Y15599039D01*
X21804133Y15034838D01*
X22346353Y15034838D01*
X22346353Y15113240D01*
X22334136Y15152044D01*
X22326752Y15188568D01*
X22323882Y15228034D01*
X22325802Y15258139D01*
X22331421Y15286203D01*
X22340462Y15311862D01*
X22352745Y15335115D01*
X22367960Y15355644D01*
X22385978Y15373412D01*
X22406522Y15388182D01*
X22429454Y15399829D01*
X22454600Y15408169D01*
X22481743Y15413000D01*
X22504683Y15414208D01*
X22535382Y15412282D01*
X22563481Y15406610D01*
X22588053Y15397723D01*
X22609968Y15385637D01*
X22628747Y15370842D01*
X22644764Y15353257D01*
X22668124Y15310168D01*
X22679213Y15256117D01*
X22679866Y15237865D01*
X22677942Y15206459D01*
X22672292Y15177504D01*
X22663371Y15151834D01*
X22651250Y15128870D01*
X22636507Y15109258D01*
X22619036Y15092567D01*
X22583146Y15071230D01*
X22583146Y14987272D01*
G37*
G36*
X21792410Y15717314D02*
G01*
X22835815Y16007108D01*
X22835815Y16187726D01*
X21792410Y16494311D01*
X21792410Y16305328D01*
X22455651Y16144311D01*
X22520898Y16130779D01*
X22587906Y16121781D01*
X22674859Y16117689D01*
X22674859Y16088319D01*
X22559418Y16080894D01*
X22455651Y16061696D01*
X21792410Y15900740D01*
X21792410Y15717314D01*
G37*
G36*
X22187914Y8421380D02*
G01*
X22262403Y8407422D01*
X22325993Y8381161D01*
X22379126Y8343441D01*
X22401850Y8320343D01*
X22422124Y8294184D01*
X22439806Y8264888D01*
X22454710Y8232440D01*
X22466839Y8196211D01*
X22475766Y8156643D01*
X22481414Y8112575D01*
X22483338Y8064907D01*
X22483338Y7916468D01*
X22853000Y7916468D01*
X22853000Y7721929D01*
X21817410Y7721929D01*
X21817410Y8011723D01*
X21818746Y8056480D01*
X21984045Y8056480D01*
X21984045Y7916468D01*
X22347539Y7916468D01*
X22348882Y7972522D01*
X22343412Y8055265D01*
X22327567Y8118455D01*
X22302996Y8163698D01*
X22287271Y8181278D01*
X22269072Y8195816D01*
X22247183Y8207868D01*
X22222422Y8216629D01*
X22191436Y8222556D01*
X22156724Y8224519D01*
X22130584Y8222935D01*
X22081228Y8210817D01*
X22040976Y8188343D01*
X22010878Y8156202D01*
X21999759Y8136315D01*
X21991296Y8113173D01*
X21985928Y8086658D01*
X21984045Y8056480D01*
X21818746Y8056480D01*
X21819259Y8073648D01*
X21832388Y8174042D01*
X21856082Y8251908D01*
X21889019Y8312123D01*
X21909107Y8336981D01*
X21931372Y8358310D01*
X21957128Y8377186D01*
X21985088Y8392523D01*
X22018432Y8405607D01*
X22054178Y8414886D01*
X22098500Y8421247D01*
X22145611Y8423272D01*
X22187914Y8421380D01*
G37*
G36*
X22298812Y8951936D02*
G01*
X22438764Y8951936D01*
X22438764Y9020568D01*
X22436863Y9062547D01*
X22427590Y9112953D01*
X22487270Y9104124D01*
X22539636Y9103122D01*
X22664261Y9103122D01*
X22684467Y9062338D01*
X22698764Y9023258D01*
X22706093Y8991250D01*
X22709025Y8959646D01*
X22709079Y8954744D01*
X22707124Y8922387D01*
X22701250Y8892776D01*
X22692251Y8867642D01*
X22679839Y8844819D01*
X22645784Y8806836D01*
X22597221Y8776595D01*
X22529927Y8753761D01*
X22437712Y8739649D01*
X22351996Y8736330D01*
X22285045Y8738287D01*
X22224105Y8744167D01*
X22173828Y8752950D01*
X22128540Y8765013D01*
X22091426Y8778954D01*
X22058497Y8795666D01*
X22031627Y8813707D01*
X22008377Y8834160D01*
X21989537Y8855976D01*
X21974005Y8880010D01*
X21952987Y8934280D01*
X21944952Y8999336D01*
X21944905Y9005119D01*
X21946852Y9038589D01*
X21952666Y9070137D01*
X21961900Y9098669D01*
X21974657Y9125266D01*
X22009981Y9171750D01*
X22059164Y9210245D01*
X22083390Y9223534D01*
X22083390Y9297722D01*
X21870716Y9297722D01*
X21848716Y9254536D01*
X21830974Y9211032D01*
X21807594Y9123018D01*
X21798135Y9026934D01*
X21797870Y9006524D01*
X21799820Y8955174D01*
X21805649Y8906693D01*
X21814830Y8863028D01*
X21827510Y8822028D01*
X21843068Y8784955D01*
X21861851Y8750408D01*
X21883392Y8718983D01*
X21907996Y8690023D01*
X21966243Y8639613D01*
X22037762Y8598646D01*
X22124400Y8567403D01*
X22228436Y8546934D01*
X22352366Y8538956D01*
X22361766Y8538921D01*
X22430237Y8540866D01*
X22494058Y8546664D01*
X22550134Y8555659D01*
X22601904Y8568014D01*
X22646790Y8582730D01*
X22687717Y8600365D01*
X22722789Y8619731D01*
X22754209Y8641649D01*
X22780818Y8664989D01*
X22803995Y8690608D01*
X22823232Y8717728D01*
X22839134Y8746957D01*
X22860715Y8811359D01*
X22868614Y8885179D01*
X22868631Y8888921D01*
X22866668Y8929183D01*
X22860740Y8966208D01*
X22851728Y8997520D01*
X22839264Y9026244D01*
X22824048Y9051396D01*
X22805587Y9074310D01*
X22758637Y9113772D01*
X22751089Y9118570D01*
X22751944Y9140918D01*
X22853000Y9140918D01*
X22853000Y9297722D01*
X22298812Y9297722D01*
X22298812Y8951936D01*
G37*
G36*
X22412771Y10265104D02*
G01*
X22526360Y10249154D01*
X22619804Y10222187D01*
X22695773Y10185747D01*
X22756601Y10140632D01*
X22804012Y10086792D01*
X22823082Y10056185D01*
X22838839Y10023356D01*
X22851606Y9987220D01*
X22860832Y9948793D01*
X22866679Y9906203D01*
X22868631Y9861191D01*
X22866107Y9809693D01*
X22850964Y9731924D01*
X22822969Y9664569D01*
X22804141Y9634253D01*
X22782089Y9606171D01*
X22756310Y9579881D01*
X22727201Y9555968D01*
X22693508Y9533711D01*
X22656253Y9514073D01*
X22613350Y9496319D01*
X22566549Y9481518D01*
X22512952Y9469142D01*
X22455041Y9460138D01*
X22389210Y9454335D01*
X22318596Y9452389D01*
X22244866Y9454996D01*
X22136624Y9470064D01*
X22045889Y9496799D01*
X21970970Y9533648D01*
X21910291Y9579698D01*
X21862681Y9634762D01*
X21843522Y9665941D01*
X21827662Y9699339D01*
X21814880Y9735770D01*
X21805630Y9774416D01*
X21799817Y9816678D01*
X21797931Y9859786D01*
X21958887Y9859786D01*
X21960505Y9835870D01*
X21974723Y9788741D01*
X21987652Y9766825D01*
X22004372Y9746541D01*
X22026067Y9727024D01*
X22051917Y9709511D01*
X22083988Y9693172D01*
X22120707Y9679337D01*
X22164744Y9667519D01*
X22213942Y9658799D01*
X22271159Y9653129D01*
X22333983Y9651203D01*
X22414852Y9654428D01*
X22512068Y9669440D01*
X22585660Y9693971D01*
X22639262Y9725726D01*
X22676167Y9763581D01*
X22689128Y9784914D01*
X22698472Y9807801D01*
X22704319Y9833039D01*
X22706271Y9859786D01*
X22704767Y9883587D01*
X22691006Y9931373D01*
X22678486Y9953326D01*
X22662263Y9973572D01*
X22641184Y9992978D01*
X22616025Y10010343D01*
X22584590Y10026582D01*
X22548512Y10040304D01*
X22504738Y10052104D01*
X22455677Y10060796D01*
X22397790Y10066499D01*
X22333983Y10068431D01*
X22251917Y10065062D01*
X22154537Y10049756D01*
X22080399Y10024855D01*
X22026272Y9992757D01*
X21989058Y9954757D01*
X21976049Y9933529D01*
X21966671Y9910816D01*
X21960837Y9886002D01*
X21958887Y9859786D01*
X21797931Y9859786D01*
X21797870Y9861191D01*
X21799751Y9904149D01*
X21814129Y9982059D01*
X21841893Y10050793D01*
X21860738Y10082004D01*
X21882842Y10111031D01*
X21908561Y10138189D01*
X21937555Y10162970D01*
X21970697Y10185877D01*
X22007206Y10206140D01*
X22048475Y10224245D01*
X22093254Y10239369D01*
X22143358Y10251823D01*
X22197133Y10260900D01*
X22256655Y10266650D01*
X22320001Y10268588D01*
X22412771Y10265104D01*
G37*
G36*
X22412771Y11198111D02*
G01*
X22526360Y11182162D01*
X22619804Y11155195D01*
X22695773Y11118755D01*
X22756601Y11073639D01*
X22804012Y11019800D01*
X22823082Y10989193D01*
X22838839Y10956364D01*
X22851606Y10920227D01*
X22860832Y10881800D01*
X22866679Y10839211D01*
X22868631Y10794198D01*
X22866107Y10742701D01*
X22850964Y10664932D01*
X22822969Y10597577D01*
X22804141Y10567260D01*
X22782089Y10539179D01*
X22756310Y10512889D01*
X22727201Y10488975D01*
X22693508Y10466719D01*
X22656253Y10447081D01*
X22613350Y10429327D01*
X22566549Y10414526D01*
X22512952Y10402150D01*
X22455041Y10393145D01*
X22389210Y10387342D01*
X22318596Y10385397D01*
X22244866Y10388004D01*
X22136624Y10403071D01*
X22045889Y10429807D01*
X21970970Y10466656D01*
X21910291Y10512706D01*
X21862681Y10567770D01*
X21843522Y10598949D01*
X21827662Y10632346D01*
X21814880Y10668778D01*
X21805630Y10707424D01*
X21799817Y10749686D01*
X21797931Y10792794D01*
X21958887Y10792794D01*
X21960505Y10768878D01*
X21974723Y10721749D01*
X21987652Y10699833D01*
X22004372Y10679548D01*
X22026067Y10660032D01*
X22051917Y10642519D01*
X22083988Y10626180D01*
X22120707Y10612344D01*
X22164744Y10600526D01*
X22213942Y10591806D01*
X22271159Y10586137D01*
X22333983Y10584210D01*
X22414852Y10587435D01*
X22512068Y10602448D01*
X22585660Y10626979D01*
X22639262Y10658733D01*
X22676167Y10696589D01*
X22689128Y10717922D01*
X22698472Y10740809D01*
X22704319Y10766046D01*
X22706271Y10792794D01*
X22704767Y10816594D01*
X22691006Y10864380D01*
X22678486Y10886334D01*
X22662263Y10906579D01*
X22641184Y10925986D01*
X22616025Y10943351D01*
X22584590Y10959590D01*
X22548512Y10973311D01*
X22504738Y10985112D01*
X22455677Y10993804D01*
X22397790Y10999507D01*
X22333983Y11001438D01*
X22251917Y10998069D01*
X22154537Y10982764D01*
X22080399Y10957862D01*
X22026272Y10925765D01*
X21989058Y10887765D01*
X21976049Y10866537D01*
X21966671Y10843823D01*
X21960837Y10819010D01*
X21958887Y10792794D01*
X21797931Y10792794D01*
X21797870Y10794198D01*
X21799751Y10837157D01*
X21814129Y10915066D01*
X21841893Y10983801D01*
X21860738Y11015012D01*
X21882842Y11044039D01*
X21908561Y11071197D01*
X21937555Y11095978D01*
X21970697Y11118885D01*
X22007206Y11139147D01*
X22048475Y11157253D01*
X22093254Y11172376D01*
X22143358Y11184830D01*
X22197133Y11193907D01*
X22256655Y11199657D01*
X22320001Y11201595D01*
X22412771Y11198111D01*
G37*
G36*
X22386503Y12113474D02*
G01*
X22489328Y12100625D01*
X22575571Y12075963D01*
X22648690Y12040103D01*
X22711236Y11992551D01*
X22739274Y11963706D01*
X22764828Y11931637D01*
X22798433Y11877173D01*
X22816279Y11837540D01*
X22829777Y11796971D01*
X22842103Y11740775D01*
X22849120Y11682211D01*
X22853000Y11556419D01*
X22853000Y11356262D01*
X21817410Y11356262D01*
X21817410Y11556419D01*
X21817866Y11590003D01*
X21975618Y11590003D01*
X21977023Y11550802D01*
X22693448Y11550802D01*
X22694852Y11605451D01*
X22694339Y11629062D01*
X22684067Y11705916D01*
X22661925Y11768181D01*
X22628381Y11818881D01*
X22606830Y11840698D01*
X22582231Y11859863D01*
X22553127Y11877134D01*
X22520645Y11891499D01*
X22481986Y11903700D01*
X22439406Y11912569D01*
X22388604Y11918446D01*
X22333129Y11920402D01*
X22292678Y11919318D01*
X22205018Y11907703D01*
X22135522Y11885038D01*
X22080460Y11852328D01*
X22057413Y11832057D01*
X22037241Y11809115D01*
X22019469Y11782696D01*
X22004726Y11753422D01*
X21992398Y11719271D01*
X21983452Y11681887D01*
X21977574Y11637848D01*
X21975618Y11590003D01*
X21817866Y11590003D01*
X21818263Y11619251D01*
X21826830Y11726856D01*
X21845361Y11810880D01*
X21875316Y11883137D01*
X21895434Y11916917D01*
X21919625Y11949833D01*
X21946128Y11979131D01*
X21975426Y12005675D01*
X22008090Y12029848D01*
X22043540Y12051086D01*
X22082808Y12069814D01*
X22124892Y12085362D01*
X22171318Y12098055D01*
X22220617Y12107255D01*
X22274703Y12113057D01*
X22331724Y12115003D01*
X22386503Y12113474D01*
G37*
G36*
X25143785Y38936068D02*
G01*
X23631960Y38936068D01*
X23631960Y39150738D01*
X23743071Y39150738D01*
X23887297Y39150738D01*
X23887297Y39164782D01*
X24063518Y39164782D01*
X24758267Y39164782D01*
X24842066Y39161235D01*
X24867006Y39155009D01*
X24882900Y39144223D01*
X24892805Y39121524D01*
X24892722Y39065375D01*
X24891318Y39047179D01*
X25031330Y39047179D01*
X25032674Y39094745D01*
X25032329Y39148707D01*
X25027505Y39195035D01*
X25020076Y39227302D01*
X25009314Y39255019D01*
X24996960Y39275804D01*
X24981779Y39293382D01*
X24944308Y39318667D01*
X24892419Y39334216D01*
X24819877Y39339721D01*
X24063518Y39339721D01*
X24063518Y39164782D01*
X23887297Y39164782D01*
X23887297Y39357978D01*
X23743071Y39357978D01*
X23743071Y39150738D01*
X23631960Y39150738D01*
X23631960Y39469089D01*
X25143785Y39469089D01*
X25143785Y38936068D01*
G37*
G36*
X24545243Y31721410D02*
G01*
X24560829Y31701613D01*
X24571462Y31681646D01*
X24578585Y31659869D01*
X24582900Y31620559D01*
X24580960Y31594906D01*
X24575195Y31571457D01*
X24566184Y31551165D01*
X24553826Y31533009D01*
X24519443Y31503394D01*
X24470345Y31482347D01*
X24403624Y31471532D01*
X24376454Y31470716D01*
X24336516Y31472638D01*
X24300310Y31478275D01*
X24269357Y31486962D01*
X24242163Y31498701D01*
X24220068Y31512450D01*
X24201624Y31528631D01*
X24187607Y31546138D01*
X24177140Y31565593D01*
X24170458Y31586366D01*
X24167396Y31608769D01*
X24167199Y31616345D01*
X24169145Y31640892D01*
X24174947Y31664257D01*
X24197872Y31708175D01*
X24224779Y31739505D01*
X24525320Y31739505D01*
X24545243Y31721410D01*
G37*
G36*
X25143785Y31180453D02*
G01*
X23932868Y31180453D01*
X23932868Y31739505D01*
X24043979Y31739505D01*
X24122381Y31739505D01*
X24127998Y31724118D01*
X24102361Y31699743D01*
X24081375Y31674001D01*
X24066295Y31649178D01*
X24055085Y31622917D01*
X24053817Y31616345D01*
X24044388Y31567485D01*
X24043979Y31553331D01*
X24045915Y31521034D01*
X24051657Y31490290D01*
X24060965Y31461571D01*
X24073788Y31434630D01*
X24109559Y31386617D01*
X24158840Y31346853D01*
X24221888Y31316524D01*
X24298924Y31297407D01*
X24379263Y31291564D01*
X24428675Y31293493D01*
X24474624Y31299184D01*
X24515729Y31308146D01*
X24553379Y31320369D01*
X24586343Y31335131D01*
X24615903Y31352686D01*
X24641177Y31372215D01*
X24663096Y31394137D01*
X24681203Y31417776D01*
X24695950Y31443496D01*
X24714985Y31500401D01*
X24720043Y31553331D01*
X24718084Y31584489D01*
X24712185Y31613889D01*
X24702860Y31640295D01*
X24689895Y31665102D01*
X24653233Y31709639D01*
X24634680Y31725522D01*
X24636084Y31739505D01*
X24732621Y31739505D01*
X24765449Y31737556D01*
X24794566Y31731733D01*
X24817825Y31723091D01*
X24837976Y31711290D01*
X24854160Y31697246D01*
X24867534Y31680419D01*
X24885854Y31638303D01*
X24892722Y31579953D01*
X24890734Y31537990D01*
X24884629Y31501103D01*
X24876009Y31473582D01*
X24864111Y31449642D01*
X24850375Y31430980D01*
X24833738Y31415183D01*
X24818900Y31404953D01*
X24818900Y31325147D01*
X24990725Y31325147D01*
X25006986Y31382835D01*
X25019280Y31440671D01*
X25027624Y31498555D01*
X25031977Y31556049D01*
X25032674Y31589723D01*
X25030705Y31642850D01*
X25024743Y31690606D01*
X25015995Y31728787D01*
X25003946Y31762980D01*
X24989870Y31791071D01*
X24972892Y31815990D01*
X24953761Y31837082D01*
X24931853Y31855420D01*
X24878802Y31884506D01*
X24809478Y31904281D01*
X24717169Y31913916D01*
X24683651Y31914505D01*
X24043979Y31914505D01*
X24043979Y31739505D01*
X23932868Y31739505D01*
X23932868Y32025616D01*
X25143785Y32025616D01*
X25143785Y31180453D01*
G37*
G36*
X24569091Y21627071D02*
G01*
X24552485Y21550416D01*
X24548086Y21470267D01*
X24550038Y21427103D01*
X24555888Y21384222D01*
X24569091Y21328850D01*
X24552299Y21312059D01*
X24482684Y21332124D01*
X24426748Y21354363D01*
X24397940Y21370614D01*
X24374813Y21388886D01*
X24359969Y21405849D01*
X24349016Y21424745D01*
X24338963Y21466261D01*
X24338586Y21477289D01*
X24340541Y21501652D01*
X24346403Y21523507D01*
X24367913Y21558599D01*
X24404970Y21588605D01*
X24465735Y21617134D01*
X24552299Y21643863D01*
X24569091Y21627071D01*
G37*
G36*
X25135959Y21039992D02*
G01*
X24112620Y21039992D01*
X24112620Y21481441D01*
X24223731Y21481441D01*
X24223926Y21477289D01*
X24225672Y21440177D01*
X24231445Y21401378D01*
X24240591Y21366289D01*
X24253173Y21333624D01*
X24268722Y21304101D01*
X24287422Y21277004D01*
X24333673Y21230579D01*
X24392353Y21194016D01*
X24464549Y21167824D01*
X24551609Y21153354D01*
X24606887Y21151103D01*
X24662591Y21153049D01*
X24714593Y21158861D01*
X24760391Y21167896D01*
X24802746Y21180326D01*
X24839770Y21195261D01*
X24873577Y21213201D01*
X24902977Y21233236D01*
X24929317Y21255988D01*
X24952060Y21280820D01*
X24971796Y21308195D01*
X25002039Y21370343D01*
X25020014Y21443753D01*
X25024848Y21513681D01*
X25022901Y21563969D01*
X25017088Y21612501D01*
X25007704Y21658098D01*
X24994701Y21701669D01*
X24963299Y21772640D01*
X24807655Y21772640D01*
X24807655Y21706877D01*
X24833752Y21680177D01*
X24854259Y21652889D01*
X24867688Y21628246D01*
X24877183Y21602313D01*
X24884873Y21546604D01*
X24884897Y21543051D01*
X24882950Y21512086D01*
X24877137Y21483112D01*
X24867964Y21457283D01*
X24855309Y21433482D01*
X24820427Y21392972D01*
X24771901Y21361076D01*
X24707976Y21338463D01*
X24650301Y21328850D01*
X24650301Y21772640D01*
X24637799Y21773168D01*
X24562130Y21775448D01*
X24513695Y21773513D01*
X24468813Y21767781D01*
X24429175Y21758828D01*
X24392890Y21746588D01*
X24361187Y21731802D01*
X24332667Y21714153D01*
X24308005Y21694313D01*
X24286430Y21671925D01*
X24252920Y21620322D01*
X24231781Y21558842D01*
X24223761Y21486431D01*
X24223731Y21481441D01*
X24112620Y21481441D01*
X24112620Y21886559D01*
X25135959Y21886559D01*
X25135959Y21039992D01*
G37*
G36*
X24682784Y11430175D02*
G01*
X24744285Y11427809D01*
X24843692Y11427809D01*
X24869222Y11385768D01*
X24886770Y11347316D01*
X24894784Y11319588D01*
X24898160Y11292573D01*
X24898280Y11286454D01*
X24896376Y11263200D01*
X24890857Y11242009D01*
X24882036Y11223201D01*
X24870200Y11207030D01*
X24855788Y11193896D01*
X24838989Y11183918D01*
X24820327Y11177437D01*
X24799887Y11174583D01*
X24794721Y11174468D01*
X24773230Y11176419D01*
X24752833Y11182262D01*
X24716132Y11205079D01*
X24683323Y11244556D01*
X24654768Y11304688D01*
X24632427Y11390411D01*
X24626743Y11426466D01*
X24633765Y11440449D01*
X24682784Y11430175D01*
G37*
G36*
X25146534Y10888357D02*
G01*
X24134919Y10888357D01*
X24134919Y11327059D01*
X24246030Y11327059D01*
X24253642Y11241659D01*
X24278041Y11143828D01*
X24311853Y11052652D01*
X24470001Y11052652D01*
X24470001Y11121223D01*
X24445041Y11139274D01*
X24423808Y11159548D01*
X24406902Y11181105D01*
X24393442Y11204638D01*
X24376910Y11257204D01*
X24373464Y11299032D01*
X24375334Y11328270D01*
X24380610Y11353095D01*
X24388725Y11373684D01*
X24399213Y11390514D01*
X24426552Y11414815D01*
X24461270Y11427467D01*
X24481236Y11429213D01*
X24530206Y11429213D01*
X24530655Y11426466D01*
X24544423Y11342237D01*
X24561523Y11265257D01*
X24578241Y11208657D01*
X24597409Y11158919D01*
X24616198Y11121264D01*
X24637119Y11088726D01*
X24657848Y11063830D01*
X24680502Y11043026D01*
X24703574Y11027220D01*
X24728501Y11014978D01*
X24783446Y11001210D01*
X24814261Y10999468D01*
X24874762Y11006993D01*
X24929263Y11028850D01*
X24953421Y11044728D01*
X24974993Y11063550D01*
X24993652Y11085005D01*
X25009209Y11108917D01*
X25021247Y11134658D01*
X25029759Y11162337D01*
X25035423Y11212265D01*
X25033477Y11242393D01*
X25027675Y11271816D01*
X25004327Y11329962D01*
X24962594Y11391422D01*
X24945847Y11411017D01*
X25011976Y11411017D01*
X25011976Y11601466D01*
X24935618Y11591126D01*
X24898586Y11590231D01*
X24518300Y11590231D01*
X24475132Y11588283D01*
X24435525Y11582462D01*
X24401805Y11573564D01*
X24371271Y11561350D01*
X24345331Y11546755D01*
X24322318Y11529236D01*
X24302777Y11509420D01*
X24286068Y11486884D01*
X24261162Y11433420D01*
X24247842Y11366712D01*
X24246030Y11327059D01*
X24134919Y11327059D01*
X24134919Y11712577D01*
X25146534Y11712577D01*
X25146534Y10888357D01*
G37*
G36*
X25149689Y15980875D02*
G01*
X24130258Y15980875D01*
X24130258Y16435025D01*
X24241369Y16435025D01*
X24243315Y16391779D01*
X24249116Y16351268D01*
X24258228Y16315106D01*
X24270778Y16281519D01*
X24286183Y16251450D01*
X24304735Y16223869D01*
X24350523Y16176777D01*
X24408817Y16139449D01*
X24481179Y16112060D01*
X24569668Y16095765D01*
X24645591Y16091986D01*
X24696017Y16093917D01*
X24743402Y16099618D01*
X24786666Y16108697D01*
X24826839Y16121115D01*
X24862964Y16136326D01*
X24895973Y16154472D01*
X24925157Y16174946D01*
X24951196Y16198004D01*
X24973689Y16223131D01*
X24992975Y16250550D01*
X25021512Y16311540D01*
X25036470Y16380860D01*
X25038578Y16420981D01*
X25036623Y16470919D01*
X25030757Y16518554D01*
X25021436Y16562179D01*
X25008499Y16603758D01*
X24975624Y16674383D01*
X24797938Y16674383D01*
X24797938Y16607216D01*
X24827281Y16587551D01*
X24851446Y16566404D01*
X24869035Y16545790D01*
X24882473Y16523842D01*
X24891512Y16501542D01*
X24896876Y16477932D01*
X24898627Y16453221D01*
X24896691Y16427901D01*
X24890960Y16403832D01*
X24868690Y16360319D01*
X24832117Y16323363D01*
X24780859Y16294388D01*
X24714584Y16275651D01*
X24642782Y16269795D01*
X24596421Y16271719D01*
X24554082Y16277371D01*
X24517340Y16286136D01*
X24484513Y16298011D01*
X24456979Y16312069D01*
X24433181Y16328668D01*
X24414010Y16346781D01*
X24398409Y16366969D01*
X24386729Y16388499D01*
X24378577Y16411771D01*
X24373016Y16456030D01*
X24374955Y16481695D01*
X24380713Y16505995D01*
X24403017Y16549787D01*
X24440284Y16588236D01*
X24468088Y16607216D01*
X24468088Y16674383D01*
X24302980Y16674383D01*
X24281885Y16632170D01*
X24265470Y16590188D01*
X24253981Y16549938D01*
X24246295Y16508847D01*
X24241369Y16435025D01*
X24130258Y16435025D01*
X24130258Y16785494D01*
X25149689Y16785494D01*
X25149689Y15980875D01*
G37*
G36*
X25137912Y36488453D02*
G01*
X23860560Y36488453D01*
X23860560Y36599564D01*
X23971671Y36599564D01*
X24115897Y36599564D01*
X24115897Y36613547D01*
X24292118Y36613547D01*
X25026801Y36613547D01*
X25026801Y36788547D01*
X24292118Y36788547D01*
X24292118Y36613547D01*
X24115897Y36613547D01*
X24115897Y36806743D01*
X23971671Y36806743D01*
X23971671Y36599564D01*
X23860560Y36599564D01*
X23860560Y36917854D01*
X25137912Y36917854D01*
X25137912Y36488453D01*
G37*
G36*
X25137912Y33759654D02*
G01*
X23860560Y33759654D01*
X23860560Y34045703D01*
X23971671Y34045703D01*
X23971671Y33870765D01*
X25026801Y33870765D01*
X25026801Y34045703D01*
X24465164Y34045703D01*
X24438942Y34070829D01*
X24418909Y34095955D01*
X24406345Y34118101D01*
X24398186Y34140727D01*
X24393906Y34174542D01*
X24395881Y34201039D01*
X24401891Y34224350D01*
X24410670Y34242344D01*
X24422792Y34257907D01*
X24456248Y34281314D01*
X24506775Y34296488D01*
X24578310Y34301914D01*
X25026801Y34301914D01*
X25026801Y34474105D01*
X24659337Y34474105D01*
X24549037Y34471603D01*
X24455095Y34461901D01*
X24411242Y34452436D01*
X24372667Y34439342D01*
X24345362Y34425692D01*
X24321718Y34409023D01*
X24303823Y34391424D01*
X24288953Y34371012D01*
X24269029Y34322954D01*
X24260951Y34260128D01*
X24260855Y34251539D01*
X24262853Y34219131D01*
X24269027Y34190335D01*
X24291009Y34144928D01*
X24331211Y34098820D01*
X24357514Y34075135D01*
X24351896Y34045703D01*
X23971671Y34045703D01*
X23860560Y34045703D01*
X23860560Y34585216D01*
X25137912Y34585216D01*
X25137912Y33759654D01*
G37*
G36*
X25137912Y28769657D02*
G01*
X23860560Y28769657D01*
X23860560Y29190163D01*
X23971671Y29190163D01*
X23973638Y29149149D01*
X23979592Y29113273D01*
X23988147Y29085875D01*
X23999874Y29062073D01*
X24013644Y29043057D01*
X24030235Y29026869D01*
X24072086Y29002439D01*
X24130348Y28987022D01*
X24210419Y28981579D01*
X24292118Y28981579D01*
X24292118Y28880768D01*
X24409721Y28880768D01*
X24409721Y28981579D01*
X25026801Y28981579D01*
X25026801Y29156579D01*
X24409721Y29156579D01*
X24409721Y29309170D01*
X24292118Y29309170D01*
X24292118Y29204146D01*
X24294400Y29171417D01*
X24306162Y29135574D01*
X24292118Y29117378D01*
X24229349Y29127669D01*
X24196066Y29129265D01*
X24166699Y29131361D01*
X24144016Y29137619D01*
X24127534Y29147516D01*
X24112363Y29171339D01*
X24105517Y29214081D01*
X24104723Y29248964D01*
X24104723Y29309170D01*
X23971671Y29309170D01*
X23971671Y29190163D01*
X23860560Y29190163D01*
X23860560Y29420281D01*
X25137912Y29420281D01*
X25137912Y28769657D01*
G37*
G36*
X24856713Y19024811D02*
G01*
X24874547Y19008003D01*
X24887096Y18990706D01*
X24896154Y18971442D01*
X24904068Y18926709D01*
X24904130Y18921902D01*
X24902186Y18898531D01*
X24896395Y18876914D01*
X24874516Y18840320D01*
X24838170Y18810507D01*
X24784600Y18787592D01*
X24709977Y18773552D01*
X24649323Y18770716D01*
X24593343Y18772679D01*
X24544315Y18778609D01*
X24507182Y18787060D01*
X24475215Y18798607D01*
X24451090Y18811503D01*
X24430967Y18826905D01*
X24415850Y18843446D01*
X24404110Y18862187D01*
X24390706Y18905857D01*
X24388838Y18933137D01*
X24390775Y18956383D01*
X24396513Y18977381D01*
X24405450Y18995278D01*
X24417669Y19010997D01*
X24451854Y19035792D01*
X24459913Y19039505D01*
X24834520Y19039505D01*
X24856713Y19024811D01*
G37*
G36*
X25149635Y18480453D02*
G01*
X23860560Y18480453D01*
X23860560Y19039505D01*
X23971671Y19039505D01*
X24349698Y19039505D01*
X24352446Y19025522D01*
X24324586Y19004638D01*
X24301719Y18982561D01*
X24284345Y18960432D01*
X24271031Y18937221D01*
X24269767Y18933137D01*
X24255686Y18887658D01*
X24253039Y18853331D01*
X24254982Y18822437D01*
X24260768Y18793045D01*
X24270111Y18765768D01*
X24283027Y18740120D01*
X24319389Y18694013D01*
X24370590Y18654780D01*
X24438075Y18623367D01*
X24523383Y18601585D01*
X24627635Y18591838D01*
X24649751Y18591564D01*
X24704624Y18593487D01*
X24755778Y18599137D01*
X24802129Y18608101D01*
X24844688Y18620289D01*
X24882275Y18635049D01*
X24916078Y18652532D01*
X24945044Y18671864D01*
X24970287Y18693451D01*
X24991077Y18716349D01*
X25008212Y18741100D01*
X25021339Y18766943D01*
X25030819Y18794313D01*
X25038523Y18852719D01*
X25038524Y18853331D01*
X25036557Y18882842D01*
X25030603Y18910434D01*
X25021255Y18934897D01*
X25008219Y18958004D01*
X24970086Y19001493D01*
X24941926Y19024118D01*
X24947544Y19039505D01*
X25026801Y19039505D01*
X25026801Y19214505D01*
X23971671Y19214505D01*
X23971671Y19039505D01*
X23860560Y19039505D01*
X23860560Y19325616D01*
X25149635Y19325616D01*
X25149635Y18480453D01*
G37*
G36*
X24699275Y13994028D02*
G01*
X24744086Y13988333D01*
X24781147Y13979751D01*
X24813531Y13968133D01*
X24839186Y13954815D01*
X24860695Y13939099D01*
X24876921Y13922399D01*
X24889427Y13903774D01*
X24897902Y13884072D01*
X24902808Y13862717D01*
X24904130Y13843306D01*
X24902161Y13816830D01*
X24896196Y13793299D01*
X24887262Y13774302D01*
X24874906Y13757327D01*
X24839239Y13728437D01*
X24834520Y13725703D01*
X24459913Y13725703D01*
X24440075Y13735653D01*
X24423333Y13748397D01*
X24410009Y13763407D01*
X24399844Y13780692D01*
X24389309Y13821777D01*
X24388838Y13833537D01*
X24390799Y13861451D01*
X24396707Y13886648D01*
X24405648Y13907424D01*
X24417986Y13925952D01*
X24452160Y13955848D01*
X24502353Y13978172D01*
X24574524Y13992280D01*
X24649323Y13995958D01*
X24699275Y13994028D01*
G37*
G36*
X25149635Y13439654D02*
G01*
X23860560Y13439654D01*
X23860560Y13725703D01*
X23971671Y13725703D01*
X23971671Y13550765D01*
X25026801Y13550765D01*
X25026801Y13725703D01*
X24947544Y13725703D01*
X24941926Y13742556D01*
X24971654Y13766499D01*
X24995777Y13791507D01*
X25012320Y13814469D01*
X25024769Y13838778D01*
X25037416Y13889611D01*
X25038524Y13911939D01*
X25036583Y13942106D01*
X25030813Y13970975D01*
X25008413Y14023817D01*
X24971629Y14070478D01*
X24919881Y14110420D01*
X24852174Y14142324D01*
X24767667Y14164170D01*
X24666077Y14173533D01*
X24649323Y14173706D01*
X24591770Y14171779D01*
X24538342Y14166103D01*
X24490606Y14157179D01*
X24446941Y14145032D01*
X24408886Y14130449D01*
X24374769Y14113150D01*
X24345849Y14094143D01*
X24320698Y14072875D01*
X24300113Y14050363D01*
X24283163Y14025961D01*
X24270176Y14000395D01*
X24260786Y13973216D01*
X24253042Y13914557D01*
X24253039Y13913343D01*
X24255001Y13883805D01*
X24260917Y13856066D01*
X24269405Y13833537D01*
X24270247Y13831303D01*
X24283232Y13808038D01*
X24320511Y13765586D01*
X24352446Y13741152D01*
X24349698Y13725703D01*
X23971671Y13725703D01*
X23860560Y13725703D01*
X23860560Y14284817D01*
X25149635Y14284817D01*
X25149635Y13439654D01*
G37*
G36*
X41478015Y517096D02*
G01*
X39567849Y517096D01*
X39567849Y1601414D01*
X39752101Y1601414D01*
X39752101Y755112D01*
X40565430Y755112D01*
X40565430Y872715D01*
X40547106Y930922D01*
X40536029Y985707D01*
X40531725Y1044906D01*
X40534604Y1090063D01*
X40543033Y1132160D01*
X40556594Y1170648D01*
X40575018Y1205528D01*
X40597842Y1236321D01*
X40624868Y1262973D01*
X40655685Y1285128D01*
X40690082Y1302598D01*
X40727802Y1315109D01*
X40768516Y1322355D01*
X40802926Y1324168D01*
X40848974Y1321277D01*
X40891123Y1312770D01*
X40927981Y1299439D01*
X40960854Y1281311D01*
X40989022Y1259117D01*
X41013047Y1232741D01*
X41048088Y1168106D01*
X41064721Y1087030D01*
X41065701Y1059653D01*
X41062815Y1012543D01*
X41054339Y969111D01*
X41040958Y930606D01*
X41022776Y896159D01*
X41000662Y866742D01*
X40974455Y841706D01*
X40920620Y809701D01*
X40920620Y683763D01*
X41208491Y683763D01*
X41256695Y776765D01*
X41293127Y898830D01*
X41304625Y968425D01*
X41310579Y1041141D01*
X41311348Y1078520D01*
X41308448Y1143525D01*
X41299872Y1205347D01*
X41286035Y1262993D01*
X41267035Y1317120D01*
X41243418Y1366844D01*
X41215126Y1412739D01*
X41182732Y1454146D01*
X41146102Y1491422D01*
X41105684Y1524167D01*
X41061410Y1552451D01*
X41013459Y1576076D01*
X40961980Y1594861D01*
X40848410Y1617215D01*
X40784058Y1620282D01*
X40725305Y1617394D01*
X40669808Y1608907D01*
X40618022Y1595172D01*
X40569815Y1576415D01*
X40525484Y1552966D01*
X40485068Y1525035D01*
X40416624Y1456673D01*
X40365790Y1372965D01*
X40334233Y1275471D01*
X40323905Y1170936D01*
X40335188Y1055183D01*
X40353305Y983998D01*
X40323905Y954598D01*
X40299832Y969933D01*
X40276568Y978718D01*
X40217293Y983998D01*
X40085585Y983998D01*
X40031981Y980323D01*
X40005291Y971595D01*
X39976866Y954598D01*
X39947465Y983998D01*
X39986948Y1060083D01*
X40008621Y1153177D01*
X40014601Y1259138D01*
X40014601Y1601414D01*
X39752101Y1601414D01*
X39567849Y1601414D01*
X39567849Y2660848D01*
X39734516Y2660848D01*
X40729378Y2419322D01*
X40827248Y2399024D01*
X40927760Y2385526D01*
X41058190Y2379388D01*
X41058190Y2335333D01*
X40885029Y2324197D01*
X40729378Y2295399D01*
X39734516Y2053965D01*
X39734516Y1778826D01*
X41299624Y2213517D01*
X41299624Y2484443D01*
X39734516Y2944322D01*
X39734516Y2660848D01*
X39567849Y2660848D01*
X39567849Y3110989D01*
X41478015Y3110989D01*
X41478015Y517096D01*
G37*
G36*
X4522367Y3578716D02*
G01*
X4586157Y3560769D01*
X4644771Y3536174D01*
X4700374Y3503992D01*
X4750522Y3465611D01*
X4798026Y3418494D01*
X4839529Y3365551D01*
X4877679Y3302634D01*
X4909083Y3234444D01*
X4935462Y3156137D01*
X4954333Y3073606D01*
X4966263Y2983130D01*
X4970201Y2890177D01*
X4970201Y2209716D01*
X2899021Y2209716D01*
X2899021Y2772574D01*
X2899395Y2786496D01*
X3204325Y2786496D01*
X3204325Y2598917D01*
X3805651Y2598917D01*
X3805651Y2772574D01*
X3799268Y2825697D01*
X4049283Y2825697D01*
X4049283Y2598917D01*
X4690298Y2598917D01*
X4690298Y2817270D01*
X4689639Y2851751D01*
X4671088Y2984303D01*
X4630992Y3079799D01*
X4602941Y3117327D01*
X4570331Y3147718D01*
X4529218Y3173700D01*
X4483500Y3192106D01*
X4422820Y3205179D01*
X4357151Y3209280D01*
X4347995Y3209188D01*
X4247081Y3193261D01*
X4204949Y3175521D01*
X4168149Y3151647D01*
X4134793Y3119925D01*
X4107151Y3081961D01*
X4082881Y3032684D01*
X4065323Y2976548D01*
X4053242Y2904906D01*
X4049283Y2825697D01*
X3799268Y2825697D01*
X3792479Y2882200D01*
X3775681Y2930680D01*
X3752982Y2972610D01*
X3723067Y3010364D01*
X3688076Y3041238D01*
X3644438Y3067744D01*
X3596750Y3086572D01*
X3540761Y3098916D01*
X3482762Y3102912D01*
X3383640Y3093253D01*
X3310525Y3063778D01*
X3281503Y3040957D01*
X3256592Y3011504D01*
X3235315Y2972889D01*
X3219277Y2925491D01*
X3208148Y2862301D01*
X3204325Y2786496D01*
X2899395Y2786496D01*
X2903655Y2944996D01*
X2925105Y3100222D01*
X2966310Y3220515D01*
X2983988Y3254277D01*
X3017189Y3304089D01*
X3056003Y3348345D01*
X3148636Y3418822D01*
X3201372Y3444292D01*
X3257867Y3462883D01*
X3317366Y3474217D01*
X3379691Y3478069D01*
X3447975Y3473598D01*
X3560367Y3443230D01*
X3613223Y3416542D01*
X3663072Y3382250D01*
X3712840Y3337429D01*
X3759397Y3283929D01*
X3806732Y3215458D01*
X3850469Y3136496D01*
X3872940Y3136496D01*
X3903380Y3249041D01*
X3959966Y3375491D01*
X4031107Y3468092D01*
X4073261Y3504462D01*
X4120053Y3534442D01*
X4174354Y3559156D01*
X4234096Y3577036D01*
X4306177Y3588931D01*
X4385239Y3592863D01*
X4522367Y3578716D01*
G37*
G36*
X2899021Y3902686D02*
G01*
X4970201Y3902686D01*
X4970201Y5030965D01*
X4645480Y5030965D01*
X4645480Y4291764D01*
X2899021Y4291764D01*
X2899021Y3902686D01*
G37*
G36*
X2899021Y5301709D02*
G01*
X4970201Y5301709D01*
X4970201Y5690787D01*
X4168107Y5690787D01*
X4011547Y5830861D01*
X4970201Y6326429D01*
X4970201Y6819189D01*
X4109367Y6306890D01*
X3946924Y6194939D01*
X3835448Y6105268D01*
X3685895Y6230854D01*
X3553104Y6329238D01*
X2899021Y6757640D01*
X2899021Y6340473D01*
X3678889Y5850400D01*
X3693207Y5841365D01*
X3822216Y5764601D01*
X3904047Y5724169D01*
X4000312Y5685292D01*
X3989199Y5643282D01*
X3852815Y5669093D01*
X3718249Y5685121D01*
X3578261Y5690787D01*
X2899021Y5690787D01*
X2899021Y5301709D01*
G37*
G36*
X6627907Y20188972D02*
G01*
X7011734Y20188972D01*
X7076006Y20312974D01*
X7124582Y20475728D01*
X7139913Y20568521D01*
X7147852Y20665475D01*
X7148877Y20715315D01*
X7145010Y20801988D01*
X7133576Y20884417D01*
X7115126Y20961279D01*
X7089793Y21033448D01*
X7058304Y21099746D01*
X7020581Y21160940D01*
X6977389Y21216150D01*
X6928549Y21265850D01*
X6874658Y21309510D01*
X6815626Y21347222D01*
X6751692Y21378722D01*
X6683053Y21403769D01*
X6531627Y21433574D01*
X6445824Y21437663D01*
X6367486Y21433814D01*
X6293490Y21422498D01*
X6224442Y21404184D01*
X6160166Y21379174D01*
X6101058Y21347909D01*
X6047170Y21310668D01*
X5955911Y21219519D01*
X5888133Y21107908D01*
X5846057Y20977915D01*
X5832286Y20838535D01*
X5847330Y20684198D01*
X5871486Y20589286D01*
X5832286Y20550085D01*
X5800189Y20570532D01*
X5769170Y20582245D01*
X5690136Y20589286D01*
X5514526Y20589286D01*
X5443054Y20584386D01*
X5407467Y20572748D01*
X5369567Y20550085D01*
X5330366Y20589286D01*
X5383010Y20690731D01*
X5411908Y20814857D01*
X5419881Y20956138D01*
X5419881Y21412506D01*
X5069881Y21412506D01*
X5069881Y20284104D01*
X6154320Y20284104D01*
X6154320Y20440908D01*
X6129887Y20518517D01*
X6115118Y20591564D01*
X6109379Y20670496D01*
X6113218Y20730705D01*
X6124457Y20786835D01*
X6142538Y20838152D01*
X6167104Y20884658D01*
X6197535Y20925716D01*
X6233570Y20961252D01*
X6274659Y20990792D01*
X6320522Y21014086D01*
X6370815Y21030767D01*
X6425101Y21040427D01*
X6470981Y21042845D01*
X6532378Y21038991D01*
X6588577Y21027648D01*
X6637721Y21009874D01*
X6681551Y20985702D01*
X6719109Y20956111D01*
X6751142Y20920943D01*
X6797863Y20834763D01*
X6820040Y20726662D01*
X6821347Y20690158D01*
X6817499Y20627345D01*
X6806198Y20569436D01*
X6788357Y20518096D01*
X6764114Y20472167D01*
X6734628Y20432944D01*
X6699686Y20399563D01*
X6627907Y20356889D01*
X6627907Y20188972D01*
G37*
G36*
X5046434Y21649055D02*
G01*
X7133245Y22228644D01*
X7133245Y22589879D01*
X5046434Y23203050D01*
X5046434Y22825085D01*
X6372917Y22503050D01*
X6503411Y22475986D01*
X6637426Y22457989D01*
X6811333Y22449806D01*
X6811333Y22391065D01*
X6580451Y22376217D01*
X6372917Y22337820D01*
X5046434Y22015908D01*
X5046434Y21649055D01*
G37*
G36*
X12945801Y3055774D02*
G01*
X12247999Y2708583D01*
X12171285Y2672156D01*
X12066526Y2644225D01*
X12067615Y2639149D01*
X12081805Y2547262D01*
X12086066Y2459455D01*
X12086066Y2425749D01*
X12945801Y2425749D01*
X12945801Y2036671D01*
X10874621Y2036671D01*
X10874621Y2495847D01*
X10880202Y2664722D01*
X10883786Y2691852D01*
X11168690Y2691852D01*
X11168690Y2425749D01*
X11853791Y2425749D01*
X11856477Y2523813D01*
X11849637Y2649579D01*
X11822075Y2774318D01*
X11776552Y2863018D01*
X11746703Y2897490D01*
X11711723Y2926036D01*
X11668967Y2949858D01*
X11620119Y2967206D01*
X11557848Y2979063D01*
X11487426Y2982990D01*
X11478362Y2982882D01*
X11374712Y2966101D01*
X11287995Y2925200D01*
X11223827Y2865456D01*
X11183291Y2788368D01*
X11172469Y2742740D01*
X11168690Y2691852D01*
X10883786Y2691852D01*
X10908109Y2875945D01*
X10955228Y3038088D01*
X11018630Y3161737D01*
X11097768Y3254812D01*
X11143973Y3291654D01*
X11194842Y3322184D01*
X11252269Y3347018D01*
X11314825Y3365054D01*
X11386961Y3376718D01*
X11465078Y3380617D01*
X11508659Y3379231D01*
X11635787Y3356572D01*
X11693027Y3334984D01*
X11746512Y3306502D01*
X11797820Y3269885D01*
X11845311Y3225885D01*
X11891886Y3170749D01*
X11934319Y3107142D01*
X11976146Y3027771D01*
X12013281Y2938171D01*
X12035752Y2938171D01*
X12127111Y3043873D01*
X12220155Y3111828D01*
X12945801Y3514950D01*
X12945801Y3055774D01*
G37*
G36*
X10874621Y3746371D02*
G01*
X12945801Y3746371D01*
X12945801Y4953052D01*
X12623888Y4953052D01*
X12623888Y4135449D01*
X12000092Y4135449D01*
X12000092Y4838258D01*
X11703337Y4838258D01*
X11703337Y4135449D01*
X11202273Y4135449D01*
X11202273Y4927895D01*
X10874621Y4927895D01*
X10874621Y3746371D01*
G37*
G36*
X12012808Y6816132D02*
G01*
X12218457Y6790435D01*
X12390944Y6741111D01*
X12537181Y6669390D01*
X12662274Y6574288D01*
X12718349Y6516597D01*
X12769457Y6452459D01*
X12836667Y6343530D01*
X12872359Y6264265D01*
X12899355Y6183127D01*
X12924008Y6070735D01*
X12938041Y5953608D01*
X12945801Y5702023D01*
X12945801Y5301709D01*
X10874621Y5301709D01*
X10874621Y5702023D01*
X10875533Y5769190D01*
X11191038Y5769190D01*
X11193847Y5690788D01*
X12626697Y5690788D01*
X12629506Y5800087D01*
X12628479Y5847310D01*
X12607936Y6001016D01*
X12563651Y6125547D01*
X12496563Y6226946D01*
X12453461Y6270581D01*
X12404264Y6308912D01*
X12346055Y6343452D01*
X12281092Y6372182D01*
X12203773Y6396585D01*
X12118613Y6414323D01*
X12017010Y6426077D01*
X11906059Y6429989D01*
X11825158Y6427822D01*
X11649838Y6404591D01*
X11510846Y6359262D01*
X11400722Y6293840D01*
X11354628Y6253299D01*
X11314284Y6207416D01*
X11278739Y6154576D01*
X11249253Y6096028D01*
X11224598Y6027726D01*
X11206705Y5952959D01*
X11194950Y5864881D01*
X11191038Y5769190D01*
X10875533Y5769190D01*
X10876327Y5827686D01*
X10893462Y6042897D01*
X10930523Y6210945D01*
X10990434Y6355458D01*
X11030669Y6423018D01*
X11079052Y6488851D01*
X11132058Y6547448D01*
X11190653Y6600535D01*
X11255982Y6648880D01*
X11326881Y6691356D01*
X11405418Y6728813D01*
X11489585Y6759909D01*
X11582437Y6785294D01*
X11681036Y6803694D01*
X11789208Y6815299D01*
X11903250Y6819190D01*
X12012808Y6816132D01*
G37*
%TO.C,R4*%
D11*
X16028401Y17067559D02*
X16028401Y17374841D01*
X16788401Y17067559D02*
X16788401Y17374841D01*
%TO.C,C8*%
X24026761Y48955999D02*
X24656761Y48956000D01*
X24341762Y49271000D02*
X24341761Y48641000D01*
X25527002Y50346999D02*
X25527002Y43887001D01*
X25567002Y50347000D02*
X25567002Y43887000D01*
X25607002Y50346000D02*
X25607002Y43888000D01*
X25647002Y50345000D02*
X25647002Y43889000D01*
X25687002Y50343000D02*
X25687002Y43891000D01*
X25727002Y50341000D02*
X25727002Y43893000D01*
X25767002Y50338000D02*
X25767002Y48157000D01*
X25767002Y46077000D02*
X25767002Y43896000D01*
X25807001Y46077000D02*
X25807002Y43899000D01*
X25807002Y50335000D02*
X25807001Y48157000D01*
X25847002Y50331000D02*
X25847002Y48157000D01*
X25847002Y46077000D02*
X25847002Y43903000D01*
X25887002Y50327000D02*
X25887002Y48157000D01*
X25887002Y46077000D02*
X25887002Y43907000D01*
X25927002Y50322000D02*
X25927002Y48157000D01*
X25927002Y46077000D02*
X25927002Y43912000D01*
X25967002Y50317000D02*
X25967002Y48157001D01*
X25967002Y46076999D02*
X25967002Y43917000D01*
X26007002Y50312000D02*
X26007002Y48157000D01*
X26007002Y46077000D02*
X26007002Y43922000D01*
X26047002Y50304999D02*
X26047002Y48157000D01*
X26047002Y46077000D02*
X26047002Y43929001D01*
X26087002Y50299000D02*
X26087002Y48157000D01*
X26087002Y46077000D02*
X26087002Y43935000D01*
X26127002Y50290999D02*
X26127002Y48157001D01*
X26127002Y46076999D02*
X26127002Y43943001D01*
X26167002Y50284000D02*
X26167002Y48157000D01*
X26167002Y46077000D02*
X26167002Y43950000D01*
X26207002Y50276000D02*
X26207002Y48157000D01*
X26207002Y46077000D02*
X26207002Y43958000D01*
X26247001Y46077000D02*
X26247002Y43967000D01*
X26247002Y50267000D02*
X26247001Y48157000D01*
X26287002Y50257000D02*
X26287003Y48157000D01*
X26287003Y46077000D02*
X26287002Y43977000D01*
X26327002Y50248000D02*
X26327002Y48157000D01*
X26327002Y46077000D02*
X26327002Y43986000D01*
X26367002Y50237000D02*
X26367002Y48157000D01*
X26367002Y46077000D02*
X26367002Y43997000D01*
X26407001Y50226000D02*
X26407001Y48157000D01*
X26407001Y46077000D02*
X26407001Y44008000D01*
X26447002Y50215000D02*
X26447002Y48157000D01*
X26447002Y46077000D02*
X26447002Y44019000D01*
X26487002Y50203001D02*
X26487002Y48157000D01*
X26487002Y46077000D02*
X26487002Y44030999D01*
X26527002Y50190000D02*
X26527002Y48157000D01*
X26527002Y46077000D02*
X26527002Y44044000D01*
X26567002Y50177000D02*
X26567002Y48157001D01*
X26567002Y46076999D02*
X26567002Y44057000D01*
X26607002Y50164000D02*
X26607002Y48157000D01*
X26607002Y46077000D02*
X26607002Y44070000D01*
X26647002Y50149000D02*
X26647002Y48157000D01*
X26647002Y46077000D02*
X26647002Y44085000D01*
X26687002Y50134000D02*
X26687002Y48157000D01*
X26687002Y46077000D02*
X26687002Y44100000D01*
X26727002Y50119000D02*
X26727003Y48157000D01*
X26727003Y46077000D02*
X26727002Y44115000D01*
X26767002Y50103000D02*
X26767002Y48157000D01*
X26767002Y46077000D02*
X26767002Y44131000D01*
X26807002Y50086000D02*
X26807002Y48157000D01*
X26807002Y46077000D02*
X26807002Y44148000D01*
X26847001Y46077000D02*
X26847002Y44165000D01*
X26847002Y50069000D02*
X26847001Y48157000D01*
X26887002Y50051000D02*
X26887002Y48157000D01*
X26887002Y46077000D02*
X26887002Y44183000D01*
X26927002Y50032000D02*
X26927002Y48157000D01*
X26927002Y46077000D02*
X26927002Y44202000D01*
X26967002Y50013000D02*
X26967002Y48157000D01*
X26967002Y46077000D02*
X26967002Y44221000D01*
X27007002Y49993001D02*
X27007002Y48157001D01*
X27007002Y46076999D02*
X27007002Y44240999D01*
X27047002Y49972000D02*
X27047002Y48157000D01*
X27047002Y46077000D02*
X27047002Y44262000D01*
X27087002Y49951001D02*
X27087002Y48157000D01*
X27087002Y46077000D02*
X27087002Y44282999D01*
X27127002Y49929000D02*
X27127002Y48157000D01*
X27127002Y46077000D02*
X27127002Y44305000D01*
X27167002Y49906000D02*
X27167003Y48157000D01*
X27167003Y46077000D02*
X27167002Y44328000D01*
X27207002Y49882000D02*
X27207002Y48157000D01*
X27207002Y46077000D02*
X27207002Y44352000D01*
X27247002Y49858000D02*
X27247002Y48157000D01*
X27247002Y46077000D02*
X27247002Y44376000D01*
X27287001Y49833000D02*
X27287001Y48157000D01*
X27287001Y46077000D02*
X27287001Y44401000D01*
X27327002Y49807000D02*
X27327002Y48157000D01*
X27327002Y46077000D02*
X27327002Y44427000D01*
X27367002Y49779999D02*
X27367002Y48157000D01*
X27367002Y46077000D02*
X27367002Y44454001D01*
X27407002Y49753000D02*
X27407002Y48157000D01*
X27407002Y46077000D02*
X27407002Y44481000D01*
X27447002Y49724000D02*
X27447002Y48157001D01*
X27447002Y46076999D02*
X27447002Y44510000D01*
X27487002Y49694000D02*
X27487002Y48157000D01*
X27487002Y46077000D02*
X27487002Y44540000D01*
X27527002Y49664000D02*
X27527002Y48157000D01*
X27527002Y46077000D02*
X27527002Y44570000D01*
X27567002Y49633000D02*
X27567002Y48157000D01*
X27567002Y46077000D02*
X27567002Y44601000D01*
X27607002Y49600001D02*
X27607003Y48157000D01*
X27607003Y46077000D02*
X27607002Y44633999D01*
X27647002Y49567000D02*
X27647002Y48157000D01*
X27647002Y46077000D02*
X27647002Y44667000D01*
X27687002Y49532000D02*
X27687002Y48157000D01*
X27687002Y46077000D02*
X27687002Y44702000D01*
X27727001Y49496000D02*
X27727001Y48157000D01*
X27727001Y46077000D02*
X27727001Y44738000D01*
X27767002Y49459000D02*
X27767002Y48157000D01*
X27767002Y46077000D02*
X27767002Y44775000D01*
X27807002Y49421000D02*
X27807002Y48157000D01*
X27807002Y46077000D02*
X27807002Y44813000D01*
X27847002Y49381000D02*
X27847002Y44853000D01*
X27887002Y49340000D02*
X27887002Y44894000D01*
X27927002Y49298000D02*
X27927002Y44936000D01*
X27967002Y49254000D02*
X27967002Y44980000D01*
X28007002Y49208000D02*
X28007002Y45026000D01*
X28047002Y49161000D02*
X28047002Y45073000D01*
X28087002Y49112000D02*
X28087002Y45122000D01*
X28127003Y49060000D02*
X28127003Y45174000D01*
X28167002Y49007000D02*
X28167002Y45227000D01*
X28207002Y48951000D02*
X28207002Y45283000D01*
X28247001Y48892000D02*
X28247001Y45342000D01*
X28287002Y48831000D02*
X28287002Y45403000D01*
X28327002Y48766001D02*
X28327002Y45467999D01*
X28367002Y48698000D02*
X28367002Y45536000D01*
X28407002Y48626000D02*
X28407002Y45608000D01*
X28447002Y48549000D02*
X28447002Y45685000D01*
X28487002Y48467000D02*
X28487002Y45767000D01*
X28527002Y48378000D02*
X28527002Y45856000D01*
X28567002Y48281999D02*
X28567002Y45952001D01*
X28607001Y48175000D02*
X28607001Y46059000D01*
X28647002Y48056000D02*
X28647002Y46178000D01*
X28687001Y47918000D02*
X28687001Y46316000D01*
X28727002Y47750000D02*
X28727002Y46484000D01*
X28767002Y47518999D02*
X28767002Y46715001D01*
X28797002Y47117000D02*
G75*
G02*
X22257000Y47117000I-3270001J0D01*
G01*
X22257000Y47117000D02*
G75*
G02*
X28797002Y47117000I3270001J0D01*
G01*
%TO.C,J1*%
X387001Y49575000D02*
X977001Y49575000D01*
X387001Y43135000D02*
X387001Y49575000D01*
X977001Y48955000D02*
X387001Y48955000D01*
X3037001Y49575000D02*
X3517001Y49575000D01*
X3517001Y48955001D02*
X3037001Y48955000D01*
X5577001Y49575000D02*
X6167001Y49575000D01*
X6167001Y49575000D02*
X6167001Y43135000D01*
X6167001Y48955001D02*
X5577001Y48955001D01*
X6167001Y43655000D02*
X387001Y43655000D01*
X6167001Y43135000D02*
X387001Y43135000D01*
%TO.C,D1*%
X18081000Y8073999D02*
X18237000Y8073999D01*
X20397000Y8073999D02*
X20553000Y8073999D01*
X18081484Y8073999D02*
G75*
G02*
X18237000Y11305436I1235516J1560000D01*
G01*
X20397000Y11305436D02*
G75*
G02*
X20552516Y8073999I-1080000J-1671437D01*
G01*
%TO.C,C5*%
X8944560Y48955999D02*
X9574560Y48956000D01*
X9259561Y49271000D02*
X9259560Y48641000D01*
X10444801Y50346999D02*
X10444801Y43887001D01*
X10484801Y50347000D02*
X10484801Y43887000D01*
X10524801Y50346000D02*
X10524801Y43888000D01*
X10564801Y50345000D02*
X10564801Y43889000D01*
X10604801Y50343000D02*
X10604801Y43891000D01*
X10644801Y50341000D02*
X10644801Y43893000D01*
X10684801Y50338000D02*
X10684801Y48157000D01*
X10684801Y46077000D02*
X10684801Y43896000D01*
X10724800Y46077000D02*
X10724801Y43899000D01*
X10724801Y50335000D02*
X10724800Y48157000D01*
X10764801Y50331000D02*
X10764801Y48157000D01*
X10764801Y46077000D02*
X10764801Y43903000D01*
X10804801Y50327000D02*
X10804801Y48157000D01*
X10804801Y46077000D02*
X10804801Y43907000D01*
X10844801Y50322000D02*
X10844801Y48157000D01*
X10844801Y46077000D02*
X10844801Y43912000D01*
X10884801Y50317000D02*
X10884801Y48157001D01*
X10884801Y46076999D02*
X10884801Y43917000D01*
X10924801Y50312000D02*
X10924801Y48157000D01*
X10924801Y46077000D02*
X10924801Y43922000D01*
X10964801Y50304999D02*
X10964801Y48157000D01*
X10964801Y46077000D02*
X10964801Y43929001D01*
X11004801Y50299000D02*
X11004801Y48157000D01*
X11004801Y46077000D02*
X11004801Y43935000D01*
X11044801Y50290999D02*
X11044801Y48157001D01*
X11044801Y46076999D02*
X11044801Y43943001D01*
X11084801Y50284000D02*
X11084801Y48157000D01*
X11084801Y46077000D02*
X11084801Y43950000D01*
X11124801Y50276000D02*
X11124801Y48157000D01*
X11124801Y46077000D02*
X11124801Y43958000D01*
X11164800Y46077000D02*
X11164801Y43967000D01*
X11164801Y50267000D02*
X11164800Y48157000D01*
X11204801Y50257000D02*
X11204802Y48157000D01*
X11204802Y46077000D02*
X11204801Y43977000D01*
X11244801Y50248000D02*
X11244801Y48157000D01*
X11244801Y46077000D02*
X11244801Y43986000D01*
X11284801Y50237000D02*
X11284801Y48157000D01*
X11284801Y46077000D02*
X11284801Y43997000D01*
X11324800Y50226000D02*
X11324800Y48157000D01*
X11324800Y46077000D02*
X11324800Y44008000D01*
X11364801Y50215000D02*
X11364801Y48157000D01*
X11364801Y46077000D02*
X11364801Y44019000D01*
X11404801Y50203001D02*
X11404801Y48157000D01*
X11404801Y46077000D02*
X11404801Y44030999D01*
X11444801Y50190000D02*
X11444801Y48157000D01*
X11444801Y46077000D02*
X11444801Y44044000D01*
X11484801Y50177000D02*
X11484801Y48157001D01*
X11484801Y46076999D02*
X11484801Y44057000D01*
X11524801Y50164000D02*
X11524801Y48157000D01*
X11524801Y46077000D02*
X11524801Y44070000D01*
X11564801Y50149000D02*
X11564801Y48157000D01*
X11564801Y46077000D02*
X11564801Y44085000D01*
X11604801Y50134000D02*
X11604801Y48157000D01*
X11604801Y46077000D02*
X11604801Y44100000D01*
X11644801Y50119000D02*
X11644802Y48157000D01*
X11644802Y46077000D02*
X11644801Y44115000D01*
X11684801Y50103000D02*
X11684801Y48157000D01*
X11684801Y46077000D02*
X11684801Y44131000D01*
X11724801Y50086000D02*
X11724801Y48157000D01*
X11724801Y46077000D02*
X11724801Y44148000D01*
X11764800Y46077000D02*
X11764801Y44165000D01*
X11764801Y50069000D02*
X11764800Y48157000D01*
X11804801Y50051000D02*
X11804801Y48157000D01*
X11804801Y46077000D02*
X11804801Y44183000D01*
X11844801Y50032000D02*
X11844801Y48157000D01*
X11844801Y46077000D02*
X11844801Y44202000D01*
X11884801Y50013000D02*
X11884801Y48157000D01*
X11884801Y46077000D02*
X11884801Y44221000D01*
X11924801Y49993001D02*
X11924801Y48157001D01*
X11924801Y46076999D02*
X11924801Y44240999D01*
X11964801Y49972000D02*
X11964801Y48157000D01*
X11964801Y46077000D02*
X11964801Y44262000D01*
X12004801Y49951001D02*
X12004801Y48157000D01*
X12004801Y46077000D02*
X12004801Y44282999D01*
X12044801Y49929000D02*
X12044801Y48157000D01*
X12044801Y46077000D02*
X12044801Y44305000D01*
X12084801Y49906000D02*
X12084802Y48157000D01*
X12084802Y46077000D02*
X12084801Y44328000D01*
X12124801Y49882000D02*
X12124801Y48157000D01*
X12124801Y46077000D02*
X12124801Y44352000D01*
X12164801Y49858000D02*
X12164801Y48157000D01*
X12164801Y46077000D02*
X12164801Y44376000D01*
X12204800Y49833000D02*
X12204800Y48157000D01*
X12204800Y46077000D02*
X12204800Y44401000D01*
X12244801Y49807000D02*
X12244801Y48157000D01*
X12244801Y46077000D02*
X12244801Y44427000D01*
X12284801Y49779999D02*
X12284801Y48157000D01*
X12284801Y46077000D02*
X12284801Y44454001D01*
X12324801Y49753000D02*
X12324801Y48157000D01*
X12324801Y46077000D02*
X12324801Y44481000D01*
X12364801Y49724000D02*
X12364801Y48157001D01*
X12364801Y46076999D02*
X12364801Y44510000D01*
X12404801Y49694000D02*
X12404801Y48157000D01*
X12404801Y46077000D02*
X12404801Y44540000D01*
X12444801Y49664000D02*
X12444801Y48157000D01*
X12444801Y46077000D02*
X12444801Y44570000D01*
X12484801Y49633000D02*
X12484801Y48157000D01*
X12484801Y46077000D02*
X12484801Y44601000D01*
X12524801Y49600001D02*
X12524802Y48157000D01*
X12524802Y46077000D02*
X12524801Y44633999D01*
X12564801Y49567000D02*
X12564801Y48157000D01*
X12564801Y46077000D02*
X12564801Y44667000D01*
X12604801Y49532000D02*
X12604801Y48157000D01*
X12604801Y46077000D02*
X12604801Y44702000D01*
X12644800Y49496000D02*
X12644800Y48157000D01*
X12644800Y46077000D02*
X12644800Y44738000D01*
X12684801Y49459000D02*
X12684801Y48157000D01*
X12684801Y46077000D02*
X12684801Y44775000D01*
X12724801Y49421000D02*
X12724801Y48157000D01*
X12724801Y46077000D02*
X12724801Y44813000D01*
X12764801Y49381000D02*
X12764801Y44853000D01*
X12804801Y49340000D02*
X12804801Y44894000D01*
X12844801Y49298000D02*
X12844801Y44936000D01*
X12884801Y49254000D02*
X12884801Y44980000D01*
X12924801Y49208000D02*
X12924801Y45026000D01*
X12964801Y49161000D02*
X12964801Y45073000D01*
X13004801Y49112000D02*
X13004801Y45122000D01*
X13044802Y49060000D02*
X13044802Y45174000D01*
X13084801Y49007000D02*
X13084801Y45227000D01*
X13124801Y48951000D02*
X13124801Y45283000D01*
X13164800Y48892000D02*
X13164800Y45342000D01*
X13204801Y48831000D02*
X13204801Y45403000D01*
X13244801Y48766001D02*
X13244801Y45467999D01*
X13284801Y48698000D02*
X13284801Y45536000D01*
X13324801Y48626000D02*
X13324801Y45608000D01*
X13364801Y48549000D02*
X13364801Y45685000D01*
X13404801Y48467000D02*
X13404801Y45767000D01*
X13444801Y48378000D02*
X13444801Y45856000D01*
X13484801Y48281999D02*
X13484801Y45952001D01*
X13524800Y48175000D02*
X13524800Y46059000D01*
X13564801Y48056000D02*
X13564801Y46178000D01*
X13604800Y47918000D02*
X13604800Y46316000D01*
X13644801Y47750000D02*
X13644801Y46484000D01*
X13684801Y47518999D02*
X13684801Y46715001D01*
X13714801Y47117000D02*
G75*
G02*
X7174799Y47117000I-3270001J0D01*
G01*
X7174799Y47117000D02*
G75*
G02*
X13714801Y47117000I3270001J0D01*
G01*
%TO.C,U1*%
X7661053Y18834000D02*
X7661053Y18034000D01*
X7661053Y18034000D02*
X8461053Y18034000D01*
X7861053Y30834000D02*
X20461053Y30834000D01*
X7861053Y18234000D02*
X7861053Y30834000D01*
X20461053Y30834000D02*
X20461053Y18234000D01*
X20461053Y18234000D02*
X7861053Y18234000D01*
%TO.C,C12*%
X20747001Y39458752D02*
X20747001Y38036248D01*
X22567001Y39458752D02*
X22567001Y38036248D01*
%TO.C,RV1*%
X87001Y38994000D02*
X6407001Y38994000D01*
X87001Y29244000D02*
X87001Y38994000D01*
X6407001Y38994000D02*
X6407001Y29244000D01*
X6407001Y29244000D02*
X87001Y29244000D01*
%TO.C,R3*%
X6263359Y19712664D02*
X6570641Y19712664D01*
X6263359Y18952664D02*
X6570641Y18952664D01*
%TO.C,C11*%
X11227982Y32615600D02*
X10946820Y32615600D01*
X11227982Y31595600D02*
X10946820Y31595600D01*
%TO.C,D3*%
X17744000Y35170400D02*
X17744000Y35014400D01*
X17744000Y32854400D02*
X17744000Y32698400D01*
X17744000Y35169916D02*
G75*
G02*
X20975437Y35014400I1560000J-1235516D01*
G01*
X20975437Y32854400D02*
G75*
G02*
X17744000Y32698884I-1671437J1080000D01*
G01*
%TO.C,C13*%
X21842259Y43486800D02*
X22123421Y43486800D01*
X21842259Y42466800D02*
X22123421Y42466800D01*
%TO.C,R5*%
X16003242Y32333200D02*
X15695960Y32333200D01*
X16003242Y31573200D02*
X15695960Y31573200D01*
%TO.C,C10*%
X18529001Y41122852D02*
X18529001Y39700348D01*
X20349001Y41122852D02*
X20349001Y39700348D01*
%TO.C,C9*%
X10707581Y15494858D02*
X10426419Y15494858D01*
X10707581Y14474858D02*
X10426419Y14474858D01*
%TO.C,SW2*%
X16942000Y4734000D02*
X25542000Y4734000D01*
%TO.C,SW1*%
D10*
X17000Y27683999D02*
X17000Y15083999D01*
X17000Y15083999D02*
X667000Y15083999D01*
X667000Y27683999D02*
X17000Y27683999D01*
X3667000Y27683999D02*
X4317000Y27683999D01*
X4317000Y27683999D02*
X4317000Y15083999D01*
X4317000Y15083999D02*
X3667000Y15083999D01*
%TO.C,U2*%
D11*
X11933001Y43161000D02*
X11933001Y41901001D01*
X11933001Y36341000D02*
X11933001Y37600999D01*
X15693001Y43161001D02*
X11933001Y43161000D01*
X15693001Y36340999D02*
X11933001Y36341000D01*
%TO.C,J8*%
D10*
X-664642Y8524000D02*
X-664642Y-4836000D01*
X-664642Y8524000D02*
X16135358Y8524000D01*
X-664642Y-7436000D02*
X-664642Y-16076000D01*
X35358Y-4836001D02*
X-664642Y-4836000D01*
X35358Y-7436000D02*
X-664642Y-7436000D01*
X7735358Y8524000D02*
X7735358Y-16076000D01*
X7935358Y-4836000D02*
X7535357Y-4836000D01*
X7935358Y-7436000D02*
X7535358Y-7436000D01*
X15435358Y-4836000D02*
X16135358Y-4836000D01*
X15435358Y-7436000D02*
X16135358Y-7436000D01*
X16135358Y8524000D02*
X16135358Y-4836000D01*
X16135358Y-7436000D02*
X16135358Y-16076000D01*
X16135358Y-16076000D02*
X-664642Y-16076000D01*
X35358Y-4836001D02*
G75*
G02*
X35358Y-7435999I0J-1299999D01*
G01*
X7535358Y-7436000D02*
G75*
G02*
X7535357Y-4836000I0J1300000D01*
G01*
X7935358Y-4836000D02*
G75*
G02*
X7935358Y-7436000I0J-1300000D01*
G01*
X15435358Y-7436000D02*
G75*
G02*
X15435358Y-4836000I0J1300000D01*
G01*
%TO.C,C7*%
D11*
X16485661Y48955999D02*
X17115661Y48956000D01*
X16800662Y49271000D02*
X16800661Y48641000D01*
X17985902Y50346999D02*
X17985902Y43887001D01*
X18025902Y50347000D02*
X18025902Y43887000D01*
X18065902Y50346000D02*
X18065902Y43888000D01*
X18105902Y50345000D02*
X18105902Y43889000D01*
X18145902Y50343000D02*
X18145902Y43891000D01*
X18185902Y50341000D02*
X18185902Y43893000D01*
X18225902Y50338000D02*
X18225902Y48157000D01*
X18225902Y46077000D02*
X18225902Y43896000D01*
X18265901Y46077000D02*
X18265902Y43899000D01*
X18265902Y50335000D02*
X18265901Y48157000D01*
X18305902Y50331000D02*
X18305902Y48157000D01*
X18305902Y46077000D02*
X18305902Y43903000D01*
X18345902Y50327000D02*
X18345902Y48157000D01*
X18345902Y46077000D02*
X18345902Y43907000D01*
X18385902Y50322000D02*
X18385902Y48157000D01*
X18385902Y46077000D02*
X18385902Y43912000D01*
X18425902Y50317000D02*
X18425902Y48157001D01*
X18425902Y46076999D02*
X18425902Y43917000D01*
X18465902Y50312000D02*
X18465902Y48157000D01*
X18465902Y46077000D02*
X18465902Y43922000D01*
X18505902Y50304999D02*
X18505902Y48157000D01*
X18505902Y46077000D02*
X18505902Y43929001D01*
X18545902Y50299000D02*
X18545902Y48157000D01*
X18545902Y46077000D02*
X18545902Y43935000D01*
X18585902Y50290999D02*
X18585902Y48157001D01*
X18585902Y46076999D02*
X18585902Y43943001D01*
X18625902Y50284000D02*
X18625902Y48157000D01*
X18625902Y46077000D02*
X18625902Y43950000D01*
X18665902Y50276000D02*
X18665902Y48157000D01*
X18665902Y46077000D02*
X18665902Y43958000D01*
X18705901Y46077000D02*
X18705902Y43967000D01*
X18705902Y50267000D02*
X18705901Y48157000D01*
X18745902Y50257000D02*
X18745903Y48157000D01*
X18745903Y46077000D02*
X18745902Y43977000D01*
X18785902Y50248000D02*
X18785902Y48157000D01*
X18785902Y46077000D02*
X18785902Y43986000D01*
X18825902Y50237000D02*
X18825902Y48157000D01*
X18825902Y46077000D02*
X18825902Y43997000D01*
X18865901Y50226000D02*
X18865901Y48157000D01*
X18865901Y46077000D02*
X18865901Y44008000D01*
X18905902Y50215000D02*
X18905902Y48157000D01*
X18905902Y46077000D02*
X18905902Y44019000D01*
X18945902Y50203001D02*
X18945902Y48157000D01*
X18945902Y46077000D02*
X18945902Y44030999D01*
X18985902Y50190000D02*
X18985902Y48157000D01*
X18985902Y46077000D02*
X18985902Y44044000D01*
X19025902Y50177000D02*
X19025902Y48157001D01*
X19025902Y46076999D02*
X19025902Y44057000D01*
X19065902Y50164000D02*
X19065902Y48157000D01*
X19065902Y46077000D02*
X19065902Y44070000D01*
X19105902Y50149000D02*
X19105902Y48157000D01*
X19105902Y46077000D02*
X19105902Y44085000D01*
X19145902Y50134000D02*
X19145902Y48157000D01*
X19145902Y46077000D02*
X19145902Y44100000D01*
X19185902Y50119000D02*
X19185903Y48157000D01*
X19185903Y46077000D02*
X19185902Y44115000D01*
X19225902Y50103000D02*
X19225902Y48157000D01*
X19225902Y46077000D02*
X19225902Y44131000D01*
X19265902Y50086000D02*
X19265902Y48157000D01*
X19265902Y46077000D02*
X19265902Y44148000D01*
X19305901Y46077000D02*
X19305902Y44165000D01*
X19305902Y50069000D02*
X19305901Y48157000D01*
X19345902Y50051000D02*
X19345902Y48157000D01*
X19345902Y46077000D02*
X19345902Y44183000D01*
X19385902Y50032000D02*
X19385902Y48157000D01*
X19385902Y46077000D02*
X19385902Y44202000D01*
X19425902Y50013000D02*
X19425902Y48157000D01*
X19425902Y46077000D02*
X19425902Y44221000D01*
X19465902Y49993001D02*
X19465902Y48157001D01*
X19465902Y46076999D02*
X19465902Y44240999D01*
X19505902Y49972000D02*
X19505902Y48157000D01*
X19505902Y46077000D02*
X19505902Y44262000D01*
X19545902Y49951001D02*
X19545902Y48157000D01*
X19545902Y46077000D02*
X19545902Y44282999D01*
X19585902Y49929000D02*
X19585902Y48157000D01*
X19585902Y46077000D02*
X19585902Y44305000D01*
X19625902Y49906000D02*
X19625903Y48157000D01*
X19625903Y46077000D02*
X19625902Y44328000D01*
X19665902Y49882000D02*
X19665902Y48157000D01*
X19665902Y46077000D02*
X19665902Y44352000D01*
X19705902Y49858000D02*
X19705902Y48157000D01*
X19705902Y46077000D02*
X19705902Y44376000D01*
X19745901Y49833000D02*
X19745901Y48157000D01*
X19745901Y46077000D02*
X19745901Y44401000D01*
X19785902Y49807000D02*
X19785902Y48157000D01*
X19785902Y46077000D02*
X19785902Y44427000D01*
X19825902Y49779999D02*
X19825902Y48157000D01*
X19825902Y46077000D02*
X19825902Y44454001D01*
X19865902Y49753000D02*
X19865902Y48157000D01*
X19865902Y46077000D02*
X19865902Y44481000D01*
X19905902Y49724000D02*
X19905902Y48157001D01*
X19905902Y46076999D02*
X19905902Y44510000D01*
X19945902Y49694000D02*
X19945902Y48157000D01*
X19945902Y46077000D02*
X19945902Y44540000D01*
X19985902Y49664000D02*
X19985902Y48157000D01*
X19985902Y46077000D02*
X19985902Y44570000D01*
X20025902Y49633000D02*
X20025902Y48157000D01*
X20025902Y46077000D02*
X20025902Y44601000D01*
X20065902Y49600001D02*
X20065903Y48157000D01*
X20065903Y46077000D02*
X20065902Y44633999D01*
X20105902Y49567000D02*
X20105902Y48157000D01*
X20105902Y46077000D02*
X20105902Y44667000D01*
X20145902Y49532000D02*
X20145902Y48157000D01*
X20145902Y46077000D02*
X20145902Y44702000D01*
X20185901Y49496000D02*
X20185901Y48157000D01*
X20185901Y46077000D02*
X20185901Y44738000D01*
X20225902Y49459000D02*
X20225902Y48157000D01*
X20225902Y46077000D02*
X20225902Y44775000D01*
X20265902Y49421000D02*
X20265902Y48157000D01*
X20265902Y46077000D02*
X20265902Y44813000D01*
X20305902Y49381000D02*
X20305902Y44853000D01*
X20345902Y49340000D02*
X20345902Y44894000D01*
X20385902Y49298000D02*
X20385902Y44936000D01*
X20425902Y49254000D02*
X20425902Y44980000D01*
X20465902Y49208000D02*
X20465902Y45026000D01*
X20505902Y49161000D02*
X20505902Y45073000D01*
X20545902Y49112000D02*
X20545902Y45122000D01*
X20585903Y49060000D02*
X20585903Y45174000D01*
X20625902Y49007000D02*
X20625902Y45227000D01*
X20665902Y48951000D02*
X20665902Y45283000D01*
X20705901Y48892000D02*
X20705901Y45342000D01*
X20745902Y48831000D02*
X20745902Y45403000D01*
X20785902Y48766001D02*
X20785902Y45467999D01*
X20825902Y48698000D02*
X20825902Y45536000D01*
X20865902Y48626000D02*
X20865902Y45608000D01*
X20905902Y48549000D02*
X20905902Y45685000D01*
X20945902Y48467000D02*
X20945902Y45767000D01*
X20985902Y48378000D02*
X20985902Y45856000D01*
X21025902Y48281999D02*
X21025902Y45952001D01*
X21065901Y48175000D02*
X21065901Y46059000D01*
X21105902Y48056000D02*
X21105902Y46178000D01*
X21145901Y47918000D02*
X21145901Y46316000D01*
X21185902Y47750000D02*
X21185902Y46484000D01*
X21225902Y47518999D02*
X21225902Y46715001D01*
X21255902Y47117000D02*
G75*
G02*
X14715900Y47117000I-3270001J0D01*
G01*
X14715900Y47117000D02*
G75*
G02*
X21255902Y47117000I3270001J0D01*
G01*
%TO.C,R6*%
X6288359Y24343247D02*
X6595641Y24343247D01*
X6288359Y23583247D02*
X6595641Y23583247D01*
%TO.C,C6*%
X12278252Y17569000D02*
X10855748Y17569000D01*
X12278252Y15749000D02*
X10855748Y15749000D01*
%TO.C,D2*%
X18237000Y16719001D02*
X18081000Y16719001D01*
X20553000Y16719001D02*
X20397000Y16719001D01*
X18237000Y13487564D02*
G75*
G02*
X18081484Y16719001I1080000J1671437D01*
G01*
X20552516Y16719001D02*
G75*
G02*
X20397000Y13487564I-1235516J-1560000D01*
G01*
%TO.C,R1*%
X14707601Y17374841D02*
X14707601Y17067559D01*
X15467601Y17374841D02*
X15467601Y17067559D01*
%TD*%
%LPC*%
D12*
%TO.C,R4*%
X16408401Y16711201D03*
X16408401Y17731199D03*
%TD*%
D13*
%TO.C,C8*%
X24277002Y47117000D03*
D14*
X26777002Y47117000D03*
%TD*%
D15*
%TO.C,J1*%
X4547001Y48895000D03*
X2007001Y48895000D03*
D16*
X4547001Y46355000D03*
D17*
X2007001Y46355000D03*
%TD*%
D18*
%TO.C,D1*%
X19317000Y8363999D03*
D19*
X19317000Y10903999D03*
%TD*%
D13*
%TO.C,C5*%
X9194801Y47117000D03*
D14*
X11694801Y47117000D03*
%TD*%
D20*
%TO.C,U1*%
X9581053Y19954000D03*
X9581052Y22244000D03*
X9581053Y24534000D03*
X9581052Y26824000D03*
X9581053Y29114000D03*
X11871053Y19953999D03*
X11871053Y22244000D03*
X11871052Y24534000D03*
X11871053Y26824000D03*
X11871053Y29114001D03*
X14161053Y19954000D03*
X14161053Y22243999D03*
X14161053Y24534000D03*
X14161053Y26824001D03*
X14161053Y29114000D03*
X16451053Y19953999D03*
X16451053Y22244000D03*
X16451054Y24534000D03*
X16451053Y26824000D03*
X16451053Y29114001D03*
X18741053Y19954000D03*
X18741054Y22244000D03*
X18741053Y24534000D03*
X18741054Y26824000D03*
X18741053Y29114000D03*
%TD*%
D21*
%TO.C,C12*%
X21657001Y40310000D03*
X21657001Y37185000D03*
%TD*%
D22*
%TO.C,RV1*%
X2107001Y36659000D03*
X4647001Y34119000D03*
X2107001Y31579001D03*
%TD*%
D23*
%TO.C,R3*%
X5907001Y19332664D03*
X6926999Y19332664D03*
%TD*%
D24*
%TO.C,C11*%
X11862401Y32105600D03*
X10312401Y32105600D03*
%TD*%
D18*
%TO.C,D3*%
X18034000Y33934400D03*
D19*
X20574000Y33934400D03*
%TD*%
D25*
%TO.C,C13*%
X21207840Y42976800D03*
X22757840Y42976800D03*
%TD*%
D26*
%TO.C,R5*%
X16359600Y31953200D03*
X15339602Y31953200D03*
%TD*%
D21*
%TO.C,C10*%
X19439001Y41974100D03*
X19439001Y38849100D03*
%TD*%
D24*
%TO.C,C9*%
X11342000Y14984858D03*
X9792000Y14984858D03*
%TD*%
D27*
%TO.C,SW2*%
X19242000Y2434000D03*
D28*
X21242000Y2434000D03*
X23242000Y2434000D03*
D29*
X17142000Y2434000D03*
X25342000Y2434000D03*
%TD*%
D30*
%TO.C,SW1*%
X2167000Y25383999D03*
X2167000Y21383999D03*
X2167000Y19383999D03*
X2167000Y17383999D03*
D31*
X2167000Y27483999D03*
X2167000Y15284000D03*
%TD*%
D32*
%TO.C,U2*%
X16993001Y37451000D03*
X16993000Y39751000D03*
X16993001Y42051000D03*
D33*
X10693002Y39751000D03*
%TD*%
D34*
%TO.C,J8*%
X11685358Y12064000D03*
D35*
X3785357Y12064000D03*
%TD*%
D13*
%TO.C,C7*%
X16735902Y47117000D03*
D14*
X19235902Y47117000D03*
%TD*%
D23*
%TO.C,R6*%
X5932001Y23963247D03*
X6951999Y23963247D03*
%TD*%
D36*
%TO.C,C6*%
X13129500Y16659000D03*
X10004500Y16659000D03*
%TD*%
D18*
%TO.C,D2*%
X19317000Y16429001D03*
D19*
X19317000Y13889001D03*
%TD*%
D37*
%TO.C,J9*%
X6985001Y40935154D03*
D38*
X4445001Y40935154D03*
X1905002Y40935154D03*
%TD*%
D39*
%TO.C,R1*%
X15087601Y17731199D03*
X15087601Y16711201D03*
%TD*%
D40*
%TO.C,J5*%
X30607001Y4699000D03*
X30607001Y2159000D03*
X33147001Y4699000D03*
X33147001Y2159000D03*
X35687001Y4699000D03*
X35687001Y2159000D03*
X38227001Y4699000D03*
X38227001Y2159000D03*
%TD*%
%TO.C,J6*%
X30607001Y48387000D03*
X30607001Y45847000D03*
X33147001Y48387000D03*
X33147001Y45847000D03*
X35687001Y48387000D03*
X35687001Y45847000D03*
X38227001Y48387000D03*
X38227001Y45847000D03*
%TD*%
%LPD*%
M02*
