%TF.GenerationSoftware,KiCad,Pcbnew,10.0.0*%
%TF.CreationDate,2026-08-14T09:29:28-04:00*%
%TF.ProjectId,PWR_RPM5.0_AP2114,5057525f-5250-44d3-952e-305f41503231,rev?*%
%TF.SameCoordinates,Original*%
%TF.FileFunction,Soldermask,Bot*%
%TF.FilePolarity,Negative*%
%FSLAX46Y46*%
G04 Gerber Fmt 4.6, Leading zero omitted, Abs format (unit mm)*
G04 Created by KiCad (PCBNEW 10.0.0) date 2026-08-14 09:29:28*
%MOMM*%
%LPD*%
G01*
G04 APERTURE LIST*
G04 Aperture macros list*
%AMRoundRect*
0 Rectangle with rounded corners*
0 $1 Rounding radius*
0 $2 $3 $4 $5 $6 $7 $8 $9 X,Y pos of 4 corners*
0 Add a 4 corners polygon primitive as box body*
4,1,4,$2,$3,$4,$5,$6,$7,$8,$9,$2,$3,0*
0 Add four circle primitives for the rounded corners*
1,1,$1+$1,$2,$3*
1,1,$1+$1,$4,$5*
1,1,$1+$1,$6,$7*
1,1,$1+$1,$8,$9*
0 Add four rect primitives between the rounded corners*
20,1,$1+$1,$2,$3,$4,$5,0*
20,1,$1+$1,$4,$5,$6,$7,0*
20,1,$1+$1,$6,$7,$8,$9,0*
20,1,$1+$1,$8,$9,$2,$3,0*%
G04 Aperture macros list end*
%ADD10R,1.700000X1.700000*%
%ADD11C,1.700000*%
%ADD12RoundRect,0.250000X0.550000X-0.550000X0.550000X0.550000X-0.550000X0.550000X-0.550000X-0.550000X0*%
%ADD13C,1.600000*%
%ADD14C,1.560000*%
%ADD15R,1.560000X1.560000*%
%ADD16C,2.200000*%
%ADD17RoundRect,0.249999X0.850001X0.850001X-0.850001X0.850001X-0.850001X-0.850001X0.850001X-0.850001X0*%
%ADD18C,1.100000*%
%ADD19C,1.800000*%
%ADD20R,1.800000X1.800000*%
%ADD21RoundRect,0.250000X-0.550000X-0.550000X0.550000X-0.550000X0.550000X0.550000X-0.550000X0.550000X0*%
%ADD22O,2.200000X3.500000*%
%ADD23O,1.500000X2.500000*%
%ADD24R,1.500000X2.500000*%
%ADD25C,2.250000*%
%ADD26C,1.300000*%
%ADD27RoundRect,0.102000X3.270000X1.635000X-3.270000X1.635000X-3.270000X-1.635000X3.270000X-1.635000X0*%
%ADD28O,6.744000X3.474000*%
G04 APERTURE END LIST*
D10*
%TO.C,J9*%
X167529999Y-79049999D03*
D11*
X167529999Y-76509999D03*
X167529999Y-73970000D03*
%TD*%
D12*
%TO.C,C8*%
X177546000Y-66832748D03*
D13*
X177546000Y-64332748D03*
%TD*%
D14*
%TO.C,RV1*%
X158594999Y-78910000D03*
X163594999Y-81410000D03*
D15*
X158594999Y-83910000D03*
%TD*%
D16*
%TO.C,J1*%
X159374999Y-65985000D03*
D17*
X161914999Y-65985000D03*
D18*
X159374999Y-63445000D03*
X161914999Y-63445000D03*
%TD*%
D19*
%TO.C,D1*%
X175919999Y-103015001D03*
D20*
X175919999Y-105555001D03*
%TD*%
D13*
%TO.C,C5*%
X162745000Y-73585000D03*
D21*
X160245000Y-73585000D03*
%TD*%
D19*
%TO.C,D3*%
X174799999Y-79985000D03*
D20*
X177339999Y-79985000D03*
%TD*%
D22*
%TO.C,SW2*%
X182694999Y-111485000D03*
X174494999Y-111485000D03*
D23*
X180594999Y-111485000D03*
X178594999Y-111485000D03*
D24*
X176594999Y-111485000D03*
%TD*%
D25*
%TO.C,SW1*%
X159519999Y-98635000D03*
X159519999Y-86435001D03*
D26*
X159519999Y-96535001D03*
X159519999Y-94535001D03*
X159519999Y-92535001D03*
X159519999Y-88535001D03*
%TD*%
D27*
%TO.C,J8*%
X161038356Y-101855000D03*
D28*
X168938357Y-101855000D03*
%TD*%
D12*
%TO.C,C7*%
X168151133Y-66832748D03*
D13*
X168151133Y-64332748D03*
%TD*%
D19*
%TO.C,D2*%
X175919999Y-100029999D03*
D20*
X175919999Y-97489999D03*
%TD*%
D11*
%TO.C,J5*%
X195580000Y-111760000D03*
X195580000Y-109220000D03*
X193040000Y-111760000D03*
X193040000Y-109220000D03*
X190500000Y-111760000D03*
X190500000Y-109220000D03*
X187960000Y-111760000D03*
X187960000Y-109220000D03*
%TD*%
%TO.C,J6*%
X195580000Y-66040000D03*
X195580000Y-63500000D03*
X193040000Y-66040000D03*
X193040000Y-63500000D03*
X190500000Y-66040000D03*
X190500000Y-63500000D03*
X187960000Y-66040000D03*
X187960000Y-63500000D03*
%TD*%
M02*
