%TF.GenerationSoftware,KiCad,Pcbnew,10.0.0*%
%TF.CreationDate,2026-08-14T11:25:50-04:00*%
%TF.ProjectId,PWR_RPM5.0_AP2114,5057525f-5250-44d3-952e-305f41503231,rev?*%
%TF.SameCoordinates,PX9610427PY6ca4418*%
%TF.FileFunction,Legend,Bot*%
%TF.FilePolarity,Positive*%
%FSLAX46Y46*%
G04 Gerber Fmt 4.6, Leading zero omitted, Abs format (unit mm)*
G04 Created by KiCad (PCBNEW 10.0.0) date 2026-08-14 11:25:50*
%MOMM*%
%LPD*%
G01*
G04 APERTURE LIST*
G04 Aperture macros list*
%AMRoundRect*
0 Rectangle with rounded corners*
0 $1 Rounding radius*
0 $2 $3 $4 $5 $6 $7 $8 $9 X,Y pos of 4 corners*
0 Add a 4 corners polygon primitive as box body*
4,1,4,$2,$3,$4,$5,$6,$7,$8,$9,$2,$3,0*
0 Add four circle primitives for the rounded corners*
1,1,$1+$1,$2,$3*
1,1,$1+$1,$4,$5*
1,1,$1+$1,$6,$7*
1,1,$1+$1,$8,$9*
0 Add four rect primitives between the rounded corners*
20,1,$1+$1,$2,$3,$4,$5,0*
20,1,$1+$1,$4,$5,$6,$7,0*
20,1,$1+$1,$6,$7,$8,$9,0*
20,1,$1+$1,$8,$9,$2,$3,0*%
G04 Aperture macros list end*
%ADD10C,0.100000*%
%ADD11C,0.000000*%
%ADD12O,2.200000X3.500000*%
%ADD13O,1.500000X2.500000*%
%ADD14R,1.500000X2.500000*%
%ADD15C,1.600000*%
%ADD16RoundRect,0.250000X-0.550000X-0.550000X0.550000X-0.550000X0.550000X0.550000X-0.550000X0.550000X0*%
%ADD17C,2.200000*%
%ADD18RoundRect,0.249999X-0.850001X0.850001X-0.850001X-0.850001X0.850001X-0.850001X0.850001X0.850001X0*%
%ADD19C,1.100000*%
%ADD20C,1.440000*%
%ADD21O,6.744000X3.474000*%
%ADD22RoundRect,0.102000X3.270000X1.635000X-3.270000X1.635000X-3.270000X-1.635000X3.270000X-1.635000X0*%
%ADD23R,1.800000X1.800000*%
%ADD24C,1.800000*%
%ADD25C,1.300000*%
%ADD26C,2.250000*%
%ADD27R,1.700000X1.700000*%
%ADD28C,1.700000*%
G04 APERTURE END LIST*
D10*
G36*
X6545001Y29201314D02*
G01*
X5685266Y29201314D01*
X5685266Y29167608D01*
X5681005Y29079801D01*
X5666815Y28987914D01*
X5665726Y28982838D01*
X5770485Y28954907D01*
X5847199Y28918480D01*
X6545001Y28571289D01*
X6545001Y28112113D01*
X5819355Y28515235D01*
X5726311Y28583190D01*
X5634952Y28688892D01*
X5612481Y28688892D01*
X5575346Y28599292D01*
X5533519Y28519921D01*
X5491086Y28456314D01*
X5444511Y28401178D01*
X5397020Y28357178D01*
X5345712Y28320561D01*
X5292227Y28292079D01*
X5234987Y28270491D01*
X5107859Y28247832D01*
X5064278Y28246446D01*
X4986161Y28250345D01*
X4914025Y28262009D01*
X4851469Y28280045D01*
X4794042Y28304879D01*
X4743173Y28335409D01*
X4696968Y28372251D01*
X4617830Y28465326D01*
X4554428Y28588975D01*
X4507309Y28751118D01*
X4482986Y28935211D01*
X4767890Y28935211D01*
X4771669Y28884323D01*
X4782491Y28838695D01*
X4823027Y28761607D01*
X4887195Y28701863D01*
X4973912Y28660962D01*
X5077562Y28644181D01*
X5086626Y28644073D01*
X5157048Y28648000D01*
X5219319Y28659857D01*
X5268167Y28677205D01*
X5310923Y28701027D01*
X5345903Y28729573D01*
X5375752Y28764045D01*
X5421275Y28852745D01*
X5448837Y28977484D01*
X5455677Y29103250D01*
X5452991Y29201314D01*
X4767890Y29201314D01*
X4767890Y28935211D01*
X4482986Y28935211D01*
X4479402Y28962341D01*
X4473821Y29131216D01*
X4473821Y29590392D01*
X6545001Y29590392D01*
X6545001Y29201314D01*
G37*
G36*
X5867381Y27955201D02*
G01*
X5971385Y27943577D01*
X6062982Y27925507D01*
X6147692Y27900647D01*
X6221739Y27870777D01*
X6289353Y27834898D01*
X6348153Y27794828D01*
X6400834Y27749324D01*
X6446320Y27699659D01*
X6485792Y27644910D01*
X6546277Y27520615D01*
X6582227Y27373794D01*
X6591895Y27233937D01*
X6588001Y27133362D01*
X6576376Y27036297D01*
X6557607Y26945104D01*
X6531601Y26857961D01*
X6468797Y26716020D01*
X6157509Y26716020D01*
X6157509Y26847545D01*
X6209703Y26900945D01*
X6250717Y26955522D01*
X6277576Y27004807D01*
X6296565Y27056673D01*
X6311946Y27168091D01*
X6311993Y27175197D01*
X6308099Y27237128D01*
X6296473Y27295076D01*
X6278128Y27346733D01*
X6252817Y27394336D01*
X6183053Y27475355D01*
X6086002Y27539148D01*
X5958152Y27584373D01*
X5842802Y27603599D01*
X5842802Y26716020D01*
X5817798Y26714964D01*
X5666459Y26710403D01*
X5569590Y26714274D01*
X5479826Y26725737D01*
X5400549Y26743643D01*
X5327979Y26768124D01*
X5264573Y26797695D01*
X5207533Y26832993D01*
X5158209Y26872673D01*
X5115059Y26917450D01*
X5048040Y27020655D01*
X5005761Y27143616D01*
X4989722Y27288438D01*
X4989662Y27298418D01*
X4990053Y27306722D01*
X5219372Y27306722D01*
X5223281Y27257996D01*
X5235006Y27214286D01*
X5278025Y27144102D01*
X5352139Y27084089D01*
X5473669Y27027032D01*
X5646797Y26973575D01*
X5680381Y27007158D01*
X5647169Y27160468D01*
X5638371Y27320766D01*
X5642275Y27407093D01*
X5653975Y27492856D01*
X5680381Y27603599D01*
X5646797Y27637182D01*
X5507567Y27597051D01*
X5395696Y27552574D01*
X5338079Y27520071D01*
X5291826Y27483527D01*
X5262137Y27449601D01*
X5240231Y27411811D01*
X5220126Y27328778D01*
X5219372Y27306722D01*
X4990053Y27306722D01*
X4993544Y27380947D01*
X5005089Y27458544D01*
X5023381Y27528721D01*
X5048546Y27594052D01*
X5079644Y27653097D01*
X5117043Y27707291D01*
X5209546Y27800142D01*
X5326905Y27873267D01*
X5471298Y27925651D01*
X5645417Y27954591D01*
X5755974Y27959094D01*
X5867381Y27955201D01*
G37*
G36*
X5036557Y26557629D02*
G01*
X6545001Y26115183D01*
X6545001Y25787531D01*
X5036557Y25353634D01*
X5036557Y25714747D01*
X5940499Y25877168D01*
X6081745Y25899234D01*
X6226500Y25912798D01*
X6312603Y25916369D01*
X6312603Y25952762D01*
X6058776Y25984467D01*
X5963297Y26001729D01*
X5940499Y26006007D01*
X5036557Y26162810D01*
X5036557Y26557629D01*
G37*
G36*
X6545001Y24117277D02*
G01*
X6115133Y24024953D01*
X6115133Y23389311D01*
X6545001Y23294178D01*
X6545001Y22865776D01*
X4473821Y23476139D01*
X4473821Y23730884D01*
X4723071Y23730884D01*
X4723071Y23672144D01*
X4931558Y23642627D01*
X4963406Y23635752D01*
X5561435Y23506914D01*
X5714773Y23467423D01*
X5801535Y23439646D01*
X5874432Y23408972D01*
X5874432Y23994178D01*
X5780554Y23956084D01*
X5684387Y23925895D01*
X5606131Y23907350D01*
X4963406Y23767277D01*
X4963188Y23767231D01*
X4852542Y23745945D01*
X4723071Y23730884D01*
X4473821Y23730884D01*
X4473821Y23907350D01*
X6545001Y24498173D01*
X6545001Y24117277D01*
G37*
G36*
X11517075Y7455690D02*
G01*
X11517075Y7875635D01*
X11735428Y7875635D01*
X11735428Y7455690D01*
X12157480Y7455690D01*
X12157480Y7237245D01*
X11735428Y7237245D01*
X11735428Y6817300D01*
X11517075Y6817300D01*
X11517075Y7237245D01*
X11095023Y7237245D01*
X11095023Y7455690D01*
X11517075Y7455690D01*
G37*
G36*
X11646228Y6403792D02*
G01*
X11720651Y6395179D01*
X11787783Y6381575D01*
X11850080Y6362922D01*
X11905551Y6340239D01*
X11956281Y6313099D01*
X12000881Y6282611D01*
X12040805Y6248155D01*
X12075323Y6210614D01*
X12105147Y6169474D01*
X12150152Y6077301D01*
X12175561Y5970984D01*
X12180927Y5888017D01*
X12178038Y5829374D01*
X12169542Y5773249D01*
X12155596Y5719550D01*
X12136491Y5668838D01*
X12083386Y5576637D01*
X12011920Y5498747D01*
X11924020Y5437452D01*
X11874582Y5413741D01*
X11821939Y5395043D01*
X11766390Y5381598D01*
X11708193Y5373636D01*
X11654828Y5371352D01*
X11595395Y5374235D01*
X11538542Y5382688D01*
X11484069Y5396583D01*
X11432877Y5415564D01*
X11385156Y5439411D01*
X11341394Y5467770D01*
X11302144Y5500136D01*
X11267456Y5536366D01*
X11238049Y5575566D01*
X11213698Y5617948D01*
X11195030Y5662325D01*
X11181816Y5709221D01*
X11172692Y5795602D01*
X11175706Y5851046D01*
X11185080Y5902182D01*
X11185934Y5904778D01*
X11353310Y5904778D01*
X11356211Y5866817D01*
X11364792Y5831307D01*
X11378582Y5799044D01*
X11397510Y5769626D01*
X11450336Y5720109D01*
X11523728Y5684282D01*
X11618547Y5665250D01*
X11665269Y5663253D01*
X11715155Y5666113D01*
X11761056Y5674413D01*
X11802527Y5687674D01*
X11839431Y5705497D01*
X11871058Y5727137D01*
X11897656Y5752407D01*
X11918533Y5780262D01*
X11934040Y5810832D01*
X11943763Y5843051D01*
X11947812Y5877160D01*
X11947919Y5883804D01*
X11945033Y5919062D01*
X11936554Y5952625D01*
X11903189Y6014516D01*
X11848046Y6067500D01*
X11771378Y6108054D01*
X11725212Y6122310D01*
X11674904Y6131629D01*
X11608757Y6135771D01*
X11560118Y6132879D01*
X11516118Y6124361D01*
X11478712Y6111236D01*
X11445850Y6093426D01*
X11418677Y6072058D01*
X11396011Y6046722D01*
X11365024Y5985634D01*
X11353343Y5909411D01*
X11353310Y5904778D01*
X11185934Y5904778D01*
X11199154Y5944978D01*
X11218996Y5986142D01*
X11278243Y6067888D01*
X11290295Y6081183D01*
X11256773Y6110584D01*
X10836095Y5751455D01*
X10804164Y5721306D01*
X10776873Y5687516D01*
X10734808Y5607693D01*
X10716202Y5547757D01*
X10621680Y5547757D01*
X10621680Y5885911D01*
X10748531Y6005794D01*
X10870660Y6111000D01*
X10963399Y6182462D01*
X11054762Y6244491D01*
X11133392Y6290471D01*
X11211903Y6329031D01*
X11283760Y6357598D01*
X11356194Y6379752D01*
X11425574Y6394710D01*
X11496034Y6403724D01*
X11566900Y6406698D01*
X11646228Y6403792D01*
G37*
G36*
X11260620Y5101616D02*
G01*
X11493719Y5101616D01*
X11493719Y4459013D01*
X11260620Y4459013D01*
X11260620Y5101616D01*
G37*
G36*
X10621680Y3510496D02*
G01*
X10621680Y4098511D01*
X10827486Y4098511D01*
X10827486Y3966162D01*
X10824337Y3873781D01*
X10808618Y3806610D01*
X10827486Y3789849D01*
X10879333Y3801581D01*
X11031367Y3806610D01*
X11634403Y3806610D01*
X11864800Y3804515D01*
X11916655Y3799539D01*
X11951766Y3789849D01*
X11972740Y3806610D01*
X11962290Y3846870D01*
X11953516Y3966025D01*
X11951766Y4098511D01*
X12157480Y4098511D01*
X12157480Y3222809D01*
X11951766Y3222809D01*
X11954388Y3380048D01*
X11960615Y3460522D01*
X11972740Y3510496D01*
X11951766Y3525243D01*
X11846095Y3512496D01*
X11760524Y3510496D01*
X10621680Y3510496D01*
G37*
G36*
X10884180Y2997128D02*
G01*
X10884180Y2518290D01*
X10879200Y2404122D01*
X10867372Y2338460D01*
X10844338Y2266323D01*
X10884180Y2249471D01*
X10953002Y2314138D01*
X11016230Y2365394D01*
X11073316Y2402794D01*
X12157480Y3015996D01*
X12157480Y2675827D01*
X10844338Y1995397D01*
X10621680Y1995397D01*
X10621680Y2997128D01*
X10884180Y2997128D01*
G37*
G36*
X10604095Y1878893D02*
G01*
X12169203Y1444202D01*
X12169203Y1173276D01*
X10604095Y713397D01*
X10604095Y996871D01*
X11598957Y1238397D01*
X11696827Y1258695D01*
X11797339Y1272193D01*
X11927769Y1278330D01*
X11927769Y1322386D01*
X11754608Y1333522D01*
X11598957Y1362319D01*
X10604095Y1603754D01*
X10604095Y1878893D01*
G37*
G36*
X3531626Y6280972D02*
G01*
X3811529Y6280972D01*
X3811529Y6143708D01*
X3807728Y6059749D01*
X3789181Y5958938D01*
X3908542Y5976595D01*
X4013273Y5978600D01*
X4262523Y5978600D01*
X4302935Y6060167D01*
X4331529Y6138327D01*
X4346188Y6202344D01*
X4352051Y6265552D01*
X4352160Y6275355D01*
X4348249Y6340070D01*
X4336502Y6399291D01*
X4318503Y6449560D01*
X4293679Y6495206D01*
X4225570Y6571172D01*
X4128444Y6631654D01*
X3993855Y6677322D01*
X3809425Y6705545D01*
X3637994Y6712183D01*
X3504091Y6708270D01*
X3382211Y6696510D01*
X3281658Y6678943D01*
X3191081Y6654817D01*
X3116853Y6626936D01*
X3050996Y6593511D01*
X2997255Y6557430D01*
X2950756Y6516523D01*
X2913075Y6472891D01*
X2882012Y6424823D01*
X2839975Y6316283D01*
X2823905Y6186172D01*
X2823811Y6174605D01*
X2827705Y6107665D01*
X2839334Y6044569D01*
X2857802Y5987505D01*
X2883316Y5934311D01*
X2953963Y5841343D01*
X3052329Y5764354D01*
X3100782Y5737776D01*
X3100782Y5589399D01*
X2675433Y5589399D01*
X2631433Y5675771D01*
X2595950Y5762779D01*
X2549190Y5938808D01*
X2530271Y6130976D01*
X2529742Y6171796D01*
X2533641Y6274495D01*
X2545300Y6371457D01*
X2563661Y6458787D01*
X2589022Y6540787D01*
X2620138Y6614933D01*
X2657704Y6684028D01*
X2700786Y6746877D01*
X2749994Y6804797D01*
X2866487Y6905617D01*
X3009526Y6987551D01*
X3182802Y7050038D01*
X3390874Y7090975D01*
X3638734Y7106930D01*
X3657534Y7107002D01*
X3794475Y7103112D01*
X3922117Y7091514D01*
X4034270Y7073526D01*
X4137809Y7048816D01*
X4227581Y7019384D01*
X4309435Y6984114D01*
X4379579Y6945382D01*
X4442420Y6901545D01*
X4495637Y6854866D01*
X4541991Y6803628D01*
X4580465Y6749387D01*
X4612269Y6690929D01*
X4655432Y6562125D01*
X4671230Y6414486D01*
X4671264Y6407002D01*
X4667337Y6326477D01*
X4655482Y6252427D01*
X4637458Y6189803D01*
X4612529Y6132356D01*
X4582098Y6082051D01*
X4545175Y6036224D01*
X4451275Y5957299D01*
X4436180Y5947703D01*
X4437890Y5903007D01*
X4640001Y5903007D01*
X4640001Y5589399D01*
X3531626Y5589399D01*
X3531626Y6280972D01*
G37*
G36*
X2568821Y5204350D02*
G01*
X4640001Y5204350D01*
X4640001Y4876820D01*
X3454934Y4876820D01*
X3200236Y4895570D01*
X2946909Y4932752D01*
X2946909Y4876820D01*
X3169458Y4813034D01*
X3318158Y4753600D01*
X4640001Y4168394D01*
X4640001Y3726070D01*
X2568821Y3726070D01*
X2568821Y4053600D01*
X3686721Y4053600D01*
X3939828Y4037926D01*
X4164093Y4003164D01*
X4164093Y4053600D01*
X3921545Y4139726D01*
X3739721Y4213212D01*
X2568821Y4728443D01*
X2568821Y5204350D01*
G37*
G36*
X4640001Y2938021D02*
G01*
X4632241Y2686436D01*
X4618208Y2569309D01*
X4593555Y2456917D01*
X4566559Y2375779D01*
X4530867Y2296513D01*
X4463657Y2187584D01*
X4412549Y2123446D01*
X4356474Y2065756D01*
X4231381Y1970654D01*
X4085144Y1898933D01*
X3912657Y1849609D01*
X3707008Y1823912D01*
X3597450Y1820854D01*
X3483408Y1824745D01*
X3375236Y1836349D01*
X3276637Y1854749D01*
X3183785Y1880135D01*
X3099618Y1911231D01*
X3021081Y1948687D01*
X2950182Y1991164D01*
X2884853Y2039509D01*
X2826258Y2092596D01*
X2773252Y2151192D01*
X2724869Y2217025D01*
X2684634Y2284585D01*
X2624723Y2429099D01*
X2587662Y2597146D01*
X2570527Y2812357D01*
X2569733Y2870854D01*
X2885238Y2870854D01*
X2889150Y2775162D01*
X2900905Y2687085D01*
X2918798Y2612318D01*
X2943453Y2544015D01*
X2972939Y2485468D01*
X3008484Y2432628D01*
X3048828Y2386745D01*
X3094922Y2346203D01*
X3205046Y2280782D01*
X3344038Y2235453D01*
X3519358Y2212222D01*
X3600259Y2210055D01*
X3711210Y2213967D01*
X3812813Y2225720D01*
X3897973Y2243459D01*
X3975292Y2267862D01*
X4040255Y2296591D01*
X4098464Y2331132D01*
X4147661Y2369463D01*
X4190763Y2413098D01*
X4257851Y2514497D01*
X4302136Y2639027D01*
X4322679Y2792734D01*
X4323706Y2839957D01*
X4320897Y2949256D01*
X2888047Y2949256D01*
X2885238Y2870854D01*
X2569733Y2870854D01*
X2568821Y2938021D01*
X2568821Y3338335D01*
X4640001Y3338335D01*
X4640001Y2938021D01*
G37*
G36*
X21676294Y16118173D02*
G01*
X22060121Y16118173D01*
X22124393Y15994171D01*
X22172969Y15831417D01*
X22188300Y15738624D01*
X22196239Y15641670D01*
X22197264Y15591830D01*
X22193397Y15505157D01*
X22181963Y15422728D01*
X22163513Y15345866D01*
X22138180Y15273697D01*
X22106691Y15207399D01*
X22068968Y15146205D01*
X22025776Y15090995D01*
X21976936Y15041295D01*
X21923045Y14997635D01*
X21864013Y14959923D01*
X21800079Y14928423D01*
X21731440Y14903376D01*
X21580014Y14873571D01*
X21494211Y14869482D01*
X21415873Y14873331D01*
X21341877Y14884647D01*
X21272829Y14902961D01*
X21208553Y14927971D01*
X21149445Y14959236D01*
X21095557Y14996477D01*
X21004298Y15087626D01*
X20936520Y15199237D01*
X20894444Y15329230D01*
X20880673Y15468610D01*
X20895717Y15622947D01*
X20919873Y15717859D01*
X20880673Y15757060D01*
X20848576Y15736613D01*
X20817557Y15724900D01*
X20738523Y15717859D01*
X20562913Y15717859D01*
X20491441Y15722759D01*
X20455854Y15734397D01*
X20417954Y15757060D01*
X20378753Y15717859D01*
X20431397Y15616414D01*
X20460295Y15492288D01*
X20468268Y15351007D01*
X20468268Y14894639D01*
X20118268Y14894639D01*
X20118268Y16023041D01*
X21202707Y16023041D01*
X21202707Y15866237D01*
X21178274Y15788628D01*
X21163505Y15715581D01*
X21157766Y15636649D01*
X21161605Y15576440D01*
X21172844Y15520310D01*
X21190925Y15468993D01*
X21215491Y15422487D01*
X21245922Y15381429D01*
X21281957Y15345893D01*
X21323046Y15316353D01*
X21368909Y15293059D01*
X21419202Y15276378D01*
X21473488Y15266718D01*
X21519368Y15264300D01*
X21580765Y15268154D01*
X21636964Y15279497D01*
X21686108Y15297271D01*
X21729938Y15321443D01*
X21767496Y15351034D01*
X21799529Y15386202D01*
X21846250Y15472382D01*
X21868427Y15580483D01*
X21869734Y15616987D01*
X21865886Y15679800D01*
X21854585Y15737709D01*
X21836744Y15789049D01*
X21812501Y15834978D01*
X21783015Y15874201D01*
X21748073Y15907582D01*
X21676294Y15950256D01*
X21676294Y16118173D01*
G37*
G36*
X20094821Y14658090D02*
G01*
X22181632Y14078501D01*
X22181632Y13717266D01*
X20094821Y13104095D01*
X20094821Y13482060D01*
X21421304Y13804095D01*
X21551798Y13831159D01*
X21685813Y13849156D01*
X21859720Y13857339D01*
X21859720Y13916080D01*
X21628838Y13930928D01*
X21421304Y13969325D01*
X20094821Y14291237D01*
X20094821Y14658090D01*
G37*
G36*
X20046217Y11931851D02*
G01*
X22244158Y12914684D01*
X22244158Y12603885D01*
X20046217Y11621052D01*
X20046217Y11931851D01*
G37*
G36*
X20777114Y10995302D02*
G01*
X20686114Y10989352D01*
X20607665Y10975826D01*
X20549646Y10957874D01*
X20501117Y10934137D01*
X20465957Y10908167D01*
X20438292Y10877591D01*
X20406503Y10807286D01*
X20400125Y10748983D01*
X20403970Y10697321D01*
X20415259Y10650878D01*
X20432805Y10611294D01*
X20456567Y10576904D01*
X20520719Y10524796D01*
X20608050Y10494660D01*
X20679416Y10488498D01*
X20739983Y10492340D01*
X20797899Y10503601D01*
X20911161Y10548600D01*
X21030889Y10628938D01*
X21175498Y10761819D01*
X21285383Y10877699D01*
X21355437Y10955384D01*
X21511402Y11124157D01*
X21585920Y11195414D01*
X21661160Y11256351D01*
X21739395Y11305792D01*
X21822900Y11342563D01*
X21913948Y11365487D01*
X22014814Y11373390D01*
X22166001Y11373390D01*
X22166001Y10051792D01*
X21810505Y10051792D01*
X21810505Y10522203D01*
X21812810Y10667955D01*
X21825036Y10803648D01*
X21855149Y10931838D01*
X21911118Y11055084D01*
X21922490Y11073704D01*
X21874863Y11115714D01*
X21622020Y10797525D01*
X21388698Y10502542D01*
X21293773Y10394615D01*
X21199263Y10302005D01*
X21124247Y10240377D01*
X21047650Y10188810D01*
X20978297Y10151970D01*
X20906543Y10123315D01*
X20836525Y10104030D01*
X20763451Y10092270D01*
X20684912Y10088184D01*
X20612015Y10092062D01*
X20542054Y10103575D01*
X20476289Y10122261D01*
X20414264Y10148044D01*
X20357240Y10180216D01*
X20304686Y10218940D01*
X20257634Y10263393D01*
X20215735Y10313899D01*
X20179699Y10369750D01*
X20149502Y10431232D01*
X20125600Y10497961D01*
X20108269Y10569976D01*
X20094821Y10720895D01*
X20098726Y10815277D01*
X20110429Y10902319D01*
X20128340Y10976819D01*
X20152995Y11044931D01*
X20182551Y11103547D01*
X20218133Y11156422D01*
X20258484Y11202313D01*
X20304506Y11242768D01*
X20413912Y11307530D01*
X20550809Y11351400D01*
X20721580Y11372247D01*
X20777114Y11373390D01*
X20777114Y10995302D01*
G37*
G36*
X22166001Y9515556D02*
G01*
X21736133Y9423233D01*
X21736133Y8787591D01*
X22166001Y8692458D01*
X22166001Y8264056D01*
X20094821Y8874419D01*
X20094821Y9129164D01*
X20344071Y9129164D01*
X20344071Y9070424D01*
X20552558Y9040907D01*
X20584406Y9034032D01*
X21182435Y8905194D01*
X21335773Y8865703D01*
X21422535Y8837926D01*
X21495432Y8807252D01*
X21495432Y9392458D01*
X21401554Y9354364D01*
X21305387Y9324175D01*
X21227131Y9305630D01*
X20584406Y9165556D01*
X20584188Y9165511D01*
X20473542Y9144225D01*
X20344071Y9129164D01*
X20094821Y9129164D01*
X20094821Y9305630D01*
X22166001Y9896453D01*
X22166001Y9515556D01*
G37*
G36*
X21757787Y44346460D02*
G01*
X22121342Y44346460D01*
X22156941Y44245594D01*
X22183639Y44146994D01*
X22213966Y43949148D01*
X22219284Y43811690D01*
X22215425Y43717716D01*
X22204049Y43629456D01*
X22185891Y43548683D01*
X22161077Y43473768D01*
X22130564Y43406196D01*
X22094190Y43344599D01*
X22052931Y43289986D01*
X22006503Y43241488D01*
X21955606Y43199595D01*
X21900119Y43164036D01*
X21776131Y43112496D01*
X21635006Y43088189D01*
X21584619Y43086533D01*
X21504372Y43090463D01*
X21431808Y43102336D01*
X21372711Y43120014D01*
X21319682Y43144383D01*
X21255257Y43190092D01*
X21216713Y43228477D01*
X21183362Y43272792D01*
X21131371Y43381468D01*
X21101262Y43506509D01*
X21036782Y43506509D01*
X21019166Y43438128D01*
X20995182Y43376175D01*
X20966022Y43322164D01*
X20931477Y43274603D01*
X20892695Y43234400D01*
X20849359Y43200724D01*
X20750968Y43153821D01*
X20637141Y43134543D01*
X20617661Y43134161D01*
X20552527Y43138041D01*
X20490892Y43149570D01*
X20434277Y43168073D01*
X20381491Y43193569D01*
X20289120Y43264170D01*
X20214104Y43361283D01*
X20158180Y43486168D01*
X20124648Y43640457D01*
X20116841Y43772489D01*
X20131805Y43953026D01*
X20178132Y44145793D01*
X20234444Y44304450D01*
X20598122Y44304450D01*
X20598122Y44167308D01*
X20544343Y44114461D01*
X20500264Y44059611D01*
X20468089Y44006958D01*
X20444074Y43952237D01*
X20420564Y43840052D01*
X20419336Y43806073D01*
X20423149Y43752785D01*
X20434207Y43703479D01*
X20452072Y43658460D01*
X20476116Y43618633D01*
X20505536Y43584794D01*
X20539909Y43557223D01*
X20577890Y43536817D01*
X20619552Y43523531D01*
X20673471Y43517744D01*
X20721799Y43521652D01*
X20765544Y43533376D01*
X20802364Y43551434D01*
X20835219Y43576340D01*
X20889451Y43647276D01*
X20930113Y43754290D01*
X20954310Y43910750D01*
X20955571Y43929293D01*
X21257944Y43929293D01*
X21263649Y43834100D01*
X21277028Y43750319D01*
X21295284Y43685788D01*
X21319631Y43630126D01*
X21346884Y43587480D01*
X21379175Y43552037D01*
X21414398Y43525125D01*
X21454193Y43504640D01*
X21548503Y43482834D01*
X21584619Y43481352D01*
X21635682Y43485216D01*
X21683953Y43496632D01*
X21728470Y43515126D01*
X21769158Y43540516D01*
X21805221Y43572279D01*
X21836449Y43610331D01*
X21862259Y43654309D01*
X21882203Y43704048D01*
X21895786Y43759474D01*
X21902408Y43820194D01*
X21902989Y43845274D01*
X21888323Y43982716D01*
X21870752Y44043599D01*
X21847368Y44096881D01*
X21820336Y44139532D01*
X21789363Y44173141D01*
X21757787Y44195274D01*
X21757787Y44346460D01*
G37*
G36*
X20116841Y42880759D02*
G01*
X22203652Y42301170D01*
X22203652Y41939935D01*
X20116841Y41326764D01*
X20116841Y41704729D01*
X21443324Y42026764D01*
X21573818Y42053828D01*
X21707833Y42071825D01*
X21881740Y42080008D01*
X21881740Y42138749D01*
X21650858Y42153597D01*
X21443324Y42191994D01*
X20116841Y42513906D01*
X20116841Y42880759D01*
G37*
G36*
X21757787Y41120500D02*
G01*
X22121342Y41120500D01*
X22156941Y41019634D01*
X22183639Y40921034D01*
X22213966Y40723188D01*
X22219284Y40585731D01*
X22215425Y40491756D01*
X22204049Y40403497D01*
X22185891Y40322723D01*
X22161077Y40247809D01*
X22130564Y40180236D01*
X22094190Y40118640D01*
X22052931Y40064026D01*
X22006503Y40015529D01*
X21955606Y39973635D01*
X21900119Y39938077D01*
X21776131Y39886536D01*
X21635006Y39862230D01*
X21584619Y39860574D01*
X21504372Y39864503D01*
X21431808Y39876377D01*
X21372711Y39894054D01*
X21319682Y39918423D01*
X21255257Y39964133D01*
X21216713Y40002518D01*
X21183362Y40046833D01*
X21131371Y40155509D01*
X21101262Y40280549D01*
X21036782Y40280549D01*
X21019166Y40212168D01*
X20995182Y40150215D01*
X20966022Y40096204D01*
X20931477Y40048644D01*
X20892695Y40008440D01*
X20849359Y39974764D01*
X20750968Y39927861D01*
X20637141Y39908583D01*
X20617661Y39908201D01*
X20552527Y39912081D01*
X20490892Y39923611D01*
X20434277Y39942113D01*
X20381491Y39967609D01*
X20289120Y40038211D01*
X20214104Y40135324D01*
X20158180Y40260208D01*
X20124648Y40414498D01*
X20116841Y40546530D01*
X20131805Y40727066D01*
X20178132Y40919833D01*
X20234444Y41078491D01*
X20598122Y41078491D01*
X20598122Y40941348D01*
X20544343Y40888501D01*
X20500264Y40833651D01*
X20468089Y40780998D01*
X20444074Y40726277D01*
X20420564Y40614093D01*
X20419336Y40580113D01*
X20423149Y40526826D01*
X20434207Y40477519D01*
X20452072Y40432500D01*
X20476116Y40392673D01*
X20505536Y40358835D01*
X20539909Y40331263D01*
X20577890Y40310857D01*
X20619552Y40297571D01*
X20673471Y40291784D01*
X20721799Y40295692D01*
X20765544Y40307417D01*
X20802364Y40325474D01*
X20835219Y40350380D01*
X20889451Y40421316D01*
X20930113Y40528331D01*
X20954310Y40684790D01*
X20955571Y40703334D01*
X21257944Y40703334D01*
X21263649Y40608141D01*
X21277028Y40524360D01*
X21295284Y40459828D01*
X21319631Y40404166D01*
X21346884Y40361520D01*
X21379175Y40326077D01*
X21414398Y40299166D01*
X21454193Y40278681D01*
X21548503Y40256874D01*
X21584619Y40255392D01*
X21635682Y40259256D01*
X21683953Y40270672D01*
X21728470Y40289167D01*
X21769158Y40314556D01*
X21805221Y40346319D01*
X21836449Y40384371D01*
X21862259Y40428350D01*
X21882203Y40478089D01*
X21895786Y40533515D01*
X21902408Y40594235D01*
X21902989Y40619314D01*
X21888323Y40756756D01*
X21870752Y40817640D01*
X21847368Y40870921D01*
X21820336Y40913572D01*
X21789363Y40947181D01*
X21757787Y40969314D01*
X21757787Y41120500D01*
G37*
G36*
X20068237Y38599182D02*
G01*
X22266178Y39582015D01*
X22266178Y39271216D01*
X20068237Y38288383D01*
X20068237Y38599182D01*
G37*
G36*
X20140288Y37164255D02*
G01*
X20140288Y37948274D01*
X20414695Y37948274D01*
X20414695Y37771809D01*
X20410497Y37648634D01*
X20389538Y37559073D01*
X20414695Y37536725D01*
X20483826Y37552368D01*
X20686538Y37559073D01*
X21490585Y37559073D01*
X21797781Y37556280D01*
X21866921Y37549645D01*
X21913736Y37536725D01*
X21941702Y37559073D01*
X21927768Y37612753D01*
X21916069Y37771626D01*
X21913736Y37948274D01*
X22188021Y37948274D01*
X22188021Y36780671D01*
X21913736Y36780671D01*
X21917232Y36990323D01*
X21925534Y37097622D01*
X21941702Y37164255D01*
X21913736Y37183916D01*
X21772841Y37166921D01*
X21658746Y37164255D01*
X20140288Y37164255D01*
G37*
G36*
X22188021Y36182887D02*
G01*
X21758153Y36090563D01*
X21758153Y35454921D01*
X22188021Y35359789D01*
X22188021Y34931387D01*
X20116841Y35541750D01*
X20116841Y35796495D01*
X20366091Y35796495D01*
X20366091Y35737754D01*
X20574578Y35708237D01*
X20606426Y35701362D01*
X21204455Y35572524D01*
X21357793Y35533033D01*
X21444555Y35505256D01*
X21517452Y35474583D01*
X21517452Y36059789D01*
X21423574Y36021695D01*
X21327407Y35991505D01*
X21249151Y35972960D01*
X20606426Y35832887D01*
X20606208Y35832842D01*
X20495562Y35811555D01*
X20366091Y35796495D01*
X20116841Y35796495D01*
X20116841Y35972960D01*
X22188021Y36563784D01*
X22188021Y36182887D01*
G37*
%TO.C,J8*%
X16135357Y8524000D02*
X16135357Y-4836000D01*
X16135357Y8524000D02*
X-664643Y8524000D01*
X16135357Y-7436000D02*
X16135357Y-16076000D01*
X15435357Y-4836001D02*
X16135357Y-4836000D01*
X15435357Y-7436000D02*
X16135357Y-7436000D01*
X7735357Y8524000D02*
X7735357Y-16076000D01*
X7535357Y-4836000D02*
X7935358Y-4836000D01*
X7535357Y-7436000D02*
X7935357Y-7436000D01*
X35357Y-4836000D02*
X-664643Y-4836000D01*
X35357Y-7436000D02*
X-664643Y-7436000D01*
X-664643Y8524000D02*
X-664643Y-4836000D01*
X-664643Y-7436000D02*
X-664643Y-16076000D01*
X-664643Y-16076000D02*
X16135357Y-16076000D01*
X15435357Y-7436000D02*
G75*
G02*
X15435357Y-4836000I0J1300000D01*
G01*
X7935358Y-4836000D02*
G75*
G02*
X7935357Y-7436000I-1J-1300000D01*
G01*
X7535357Y-7436000D02*
G75*
G02*
X7535357Y-4836000I0J1300000D01*
G01*
X35357Y-4836000D02*
G75*
G02*
X35357Y-7436000I0J-1300000D01*
G01*
D11*
%TO.C,G\u002A\u002A\u002A*%
G36*
X12928126Y31268347D02*
G01*
X12928403Y31268085D01*
X12930481Y31266132D01*
X12962548Y31235972D01*
X12995699Y31204775D01*
X13028172Y31174193D01*
X13060284Y31143926D01*
X13092352Y31113673D01*
X13124692Y31083135D01*
X13157621Y31052011D01*
X13191456Y31020000D01*
X13226512Y30986803D01*
X13263107Y30952118D01*
X13301556Y30915646D01*
X13342178Y30877085D01*
X13385288Y30836136D01*
X13431202Y30792498D01*
X13480238Y30745871D01*
X13532711Y30695954D01*
X13588939Y30642447D01*
X13649238Y30585050D01*
X13713924Y30523462D01*
X13783314Y30457383D01*
X13857726Y30386512D01*
X13937474Y30310549D01*
X14240647Y30021753D01*
X14232164Y30009749D01*
X14229032Y30005414D01*
X14218904Y29991917D01*
X14204395Y29973032D01*
X14185870Y29949229D01*
X14163695Y29920971D01*
X14138234Y29888725D01*
X14109853Y29852961D01*
X14078918Y29814140D01*
X14068326Y29800856D01*
X14037170Y29761506D01*
X14009898Y29726548D01*
X13985613Y29694788D01*
X13963421Y29665033D01*
X13942429Y29636088D01*
X13921741Y29606755D01*
X13900464Y29575844D01*
X13833283Y29472467D01*
X13761635Y29349644D01*
X13697397Y29224718D01*
X13640610Y29097799D01*
X13591313Y28968997D01*
X13549551Y28838416D01*
X13515360Y28706168D01*
X13488786Y28572361D01*
X13469867Y28437103D01*
X13461918Y28351451D01*
X13455534Y28224820D01*
X13455193Y28096700D01*
X13460826Y27968458D01*
X13472362Y27841463D01*
X13489731Y27717082D01*
X13512864Y27596684D01*
X13513994Y27591580D01*
X13547264Y27459247D01*
X13587640Y27329457D01*
X13635194Y27202065D01*
X13690000Y27076927D01*
X13752131Y26953897D01*
X13821659Y26832831D01*
X13898657Y26713583D01*
X13983199Y26596011D01*
X14075357Y26479967D01*
X14077344Y26477583D01*
X14110801Y26438001D01*
X14140900Y26403539D01*
X14167406Y26374448D01*
X14190087Y26350978D01*
X14208710Y26333377D01*
X14223041Y26321896D01*
X14232695Y26314653D01*
X14241731Y26305922D01*
X14245008Y26299554D01*
X14244989Y26299333D01*
X14242122Y26293792D01*
X14234929Y26283531D01*
X14224205Y26269584D01*
X14210741Y26252985D01*
X14195331Y26234769D01*
X14182154Y26219497D01*
X14162765Y26197020D01*
X14143500Y26174685D01*
X14126020Y26154415D01*
X14111984Y26138133D01*
X14101571Y26125956D01*
X14055858Y26070381D01*
X14009498Y26010779D01*
X13963186Y25948200D01*
X13917620Y25883695D01*
X13873495Y25818315D01*
X13831509Y25753110D01*
X13792358Y25689130D01*
X13756736Y25627426D01*
X13725342Y25569049D01*
X13698873Y25515048D01*
X13696633Y25510203D01*
X13688681Y25493032D01*
X13679546Y25473340D01*
X13670792Y25454497D01*
X13659349Y25429430D01*
X13613399Y25318358D01*
X13573006Y25202920D01*
X13538503Y25084345D01*
X13510216Y24963854D01*
X13488475Y24842674D01*
X13473613Y24722031D01*
X13467720Y24651139D01*
X13460743Y24505435D01*
X13460951Y24362724D01*
X13468345Y24223024D01*
X13482923Y24086349D01*
X13504682Y23952713D01*
X13533622Y23822133D01*
X13569741Y23694623D01*
X13593946Y23622595D01*
X13633384Y23519755D01*
X13679018Y23414998D01*
X13730392Y23309253D01*
X13787047Y23203447D01*
X13848528Y23098508D01*
X13914377Y22995362D01*
X13916297Y22992478D01*
X13939401Y22958187D01*
X13961974Y22925470D01*
X13984718Y22893390D01*
X14008337Y22861009D01*
X14033531Y22827390D01*
X14061004Y22791593D01*
X14091458Y22752681D01*
X14125595Y22709716D01*
X14164118Y22661760D01*
X14245722Y22560595D01*
X14226809Y22541977D01*
X14225258Y22540466D01*
X14218030Y22533475D01*
X14205556Y22521442D01*
X14188097Y22504617D01*
X14165911Y22483247D01*
X14139259Y22457585D01*
X14108400Y22427879D01*
X14073593Y22394379D01*
X14035098Y22357335D01*
X13993174Y22316997D01*
X13948081Y22273613D01*
X13900079Y22227436D01*
X13849425Y22178711D01*
X13796383Y22127693D01*
X13741210Y22074626D01*
X13684164Y22019764D01*
X13625507Y21963356D01*
X13565497Y21905651D01*
X13505299Y21847792D01*
X13442399Y21787392D01*
X13382021Y21729474D01*
X13324371Y21674233D01*
X13269657Y21621864D01*
X13218083Y21572566D01*
X13169858Y21526534D01*
X13125187Y21483965D01*
X13084278Y21445055D01*
X13047337Y21410000D01*
X13014569Y21378998D01*
X12986183Y21352245D01*
X12962384Y21329935D01*
X12943379Y21312268D01*
X12929374Y21299440D01*
X12920577Y21291646D01*
X12917193Y21289081D01*
X12916965Y21289164D01*
X12912554Y21293121D01*
X12904110Y21302355D01*
X12892308Y21316072D01*
X12877821Y21333472D01*
X12861326Y21353762D01*
X12843495Y21376141D01*
X12806044Y21423438D01*
X12750923Y21492353D01*
X12700122Y21554954D01*
X12653576Y21611318D01*
X12611221Y21661520D01*
X12572992Y21705638D01*
X12538826Y21743747D01*
X12508655Y21775924D01*
X12482418Y21802245D01*
X12439977Y21841508D01*
X12362098Y21905569D01*
X12280634Y21962718D01*
X12195532Y22012981D01*
X12106739Y22056383D01*
X12014202Y22092947D01*
X11917869Y22122700D01*
X11817686Y22145665D01*
X11713602Y22161867D01*
X11682026Y22164869D01*
X11643480Y22167105D01*
X11600983Y22168440D01*
X11556477Y22168880D01*
X11511901Y22168424D01*
X11469199Y22167073D01*
X11430311Y22164829D01*
X11397176Y22161692D01*
X11358088Y22156518D01*
X11250847Y22137510D01*
X11147727Y22111912D01*
X11048587Y22079668D01*
X10953284Y22040722D01*
X10861677Y21995020D01*
X10773623Y21942504D01*
X10688980Y21883119D01*
X10629598Y21835353D01*
X10565855Y21778191D01*
X10501187Y21714348D01*
X10436047Y21644298D01*
X10370890Y21568510D01*
X10306174Y21487456D01*
X10301550Y21481465D01*
X10286134Y21461616D01*
X10270785Y21442021D01*
X10257062Y21424666D01*
X10246525Y21411534D01*
X10245360Y21410096D01*
X10234114Y21395786D01*
X10220219Y21377570D01*
X10205329Y21357637D01*
X10191103Y21338177D01*
X10186057Y21331215D01*
X10174476Y21315467D01*
X10164721Y21302526D01*
X10157697Y21293575D01*
X10154303Y21289801D01*
X10154118Y21289721D01*
X10152771Y21289971D01*
X10150355Y21291434D01*
X10146576Y21294403D01*
X10141143Y21299168D01*
X10133762Y21306023D01*
X10124141Y21315257D01*
X10111988Y21327164D01*
X10097008Y21342035D01*
X10078911Y21360161D01*
X10057403Y21381834D01*
X10032191Y21407346D01*
X10002983Y21436989D01*
X9969487Y21471054D01*
X9931407Y21509832D01*
X9888455Y21553616D01*
X9840335Y21602698D01*
X9813131Y21630443D01*
X9772125Y21672240D01*
X9727393Y21717810D01*
X9679948Y21766124D01*
X9630803Y21816148D01*
X9580972Y21866853D01*
X9531468Y21917207D01*
X9483304Y21966179D01*
X9437494Y22012737D01*
X9395051Y22055851D01*
X9383495Y22067586D01*
X9344502Y22107198D01*
X9305081Y22147264D01*
X9265890Y22187114D01*
X9227585Y22226079D01*
X9190822Y22263492D01*
X9156260Y22298682D01*
X9124555Y22330982D01*
X9096365Y22359724D01*
X9072343Y22384238D01*
X9053149Y22403856D01*
X9026947Y22430595D01*
X8998372Y22459501D01*
X8973672Y22484126D01*
X8952034Y22505254D01*
X8932637Y22523671D01*
X8914664Y22540162D01*
X8897297Y22555513D01*
X8879720Y22570509D01*
X8868279Y22580119D01*
X8870749Y22582054D01*
X9042600Y22582054D01*
X9044682Y22575513D01*
X9050669Y22566965D01*
X9061499Y22554785D01*
X9068425Y22547479D01*
X9080910Y22534490D01*
X9098151Y22516661D01*
X9119771Y22494375D01*
X9145396Y22468018D01*
X9174649Y22437973D01*
X9207156Y22404623D01*
X9242541Y22368355D01*
X9280428Y22329551D01*
X9320442Y22288595D01*
X9362206Y22245872D01*
X9405348Y22201767D01*
X9449489Y22156662D01*
X9494254Y22110942D01*
X9539269Y22064991D01*
X9584158Y22019194D01*
X9628544Y21973935D01*
X9672054Y21929597D01*
X9714309Y21886565D01*
X9754938Y21845222D01*
X9793563Y21805954D01*
X9826209Y21772774D01*
X9863447Y21734921D01*
X9899584Y21698178D01*
X9934132Y21663041D01*
X9966607Y21630004D01*
X9996519Y21599564D01*
X10023384Y21572214D01*
X10046714Y21548451D01*
X10066024Y21528771D01*
X10080824Y21513666D01*
X10090630Y21503635D01*
X10137683Y21455377D01*
X10166807Y21491847D01*
X10176615Y21504224D01*
X10190582Y21522111D01*
X10203394Y21538793D01*
X10213171Y21551835D01*
X10219530Y21560358D01*
X10231664Y21576223D01*
X10245486Y21593958D01*
X10259073Y21611083D01*
X10269870Y21624750D01*
X10279147Y21636907D01*
X10285425Y21645620D01*
X10287733Y21649585D01*
X10287738Y21649681D01*
X10290709Y21653915D01*
X10297499Y21660040D01*
X10297729Y21660221D01*
X10304472Y21666693D01*
X10307265Y21671597D01*
X10307468Y21672485D01*
X10311472Y21678105D01*
X10318985Y21685334D01*
X10321082Y21687176D01*
X10327938Y21694600D01*
X10330704Y21700053D01*
X10331730Y21702605D01*
X10337384Y21709400D01*
X10346330Y21717470D01*
X10351956Y21722238D01*
X10359145Y21729347D01*
X10361956Y21733707D01*
X10363315Y21735843D01*
X10369430Y21742900D01*
X10379671Y21753906D01*
X10393174Y21767991D01*
X10409064Y21784286D01*
X10426478Y21801920D01*
X10444541Y21820024D01*
X10462388Y21837729D01*
X10479150Y21854164D01*
X10493956Y21868461D01*
X10505939Y21879751D01*
X10514229Y21887161D01*
X10517958Y21889825D01*
X10519445Y21890360D01*
X10525306Y21895219D01*
X10532699Y21903497D01*
X10535849Y21907227D01*
X10543161Y21914344D01*
X10548208Y21917170D01*
X10548287Y21917172D01*
X10553783Y21920095D01*
X10560489Y21926936D01*
X10560660Y21927152D01*
X10567186Y21933905D01*
X10572210Y21936703D01*
X10572300Y21936704D01*
X10577403Y21939643D01*
X10583928Y21946469D01*
X10584175Y21946781D01*
X10590316Y21953469D01*
X10594506Y21956235D01*
X10597269Y21957582D01*
X10605293Y21962756D01*
X10617029Y21970910D01*
X10631055Y21981074D01*
X10668065Y22007596D01*
X10755774Y22064285D01*
X10846371Y22114285D01*
X10940560Y22157938D01*
X11039051Y22195584D01*
X11142553Y22227564D01*
X11164543Y22233346D01*
X11195060Y22240721D01*
X11227035Y22247865D01*
X11258225Y22254296D01*
X11286387Y22259541D01*
X11309280Y22263118D01*
X11315224Y22263909D01*
X11329461Y22265821D01*
X11340532Y22267331D01*
X11356077Y22269285D01*
X11378367Y22271766D01*
X11404989Y22274487D01*
X11459230Y22278840D01*
X11547996Y22281680D01*
X11633519Y22279040D01*
X11660733Y22277196D01*
X11701069Y22274067D01*
X11735501Y22270797D01*
X11765223Y22267253D01*
X11791433Y22263303D01*
X11815327Y22258813D01*
X11816672Y22258541D01*
X11827782Y22256545D01*
X11840563Y22254516D01*
X11841941Y22254297D01*
X11852828Y22252182D01*
X11868956Y22248676D01*
X11888383Y22244216D01*
X11909166Y22239234D01*
X11916064Y22237525D01*
X12015591Y22208610D01*
X12113211Y22172309D01*
X12208307Y22128929D01*
X12300265Y22078775D01*
X12388469Y22022153D01*
X12472304Y21959369D01*
X12508609Y21929252D01*
X12547204Y21895127D01*
X12584694Y21859489D01*
X12622379Y21821051D01*
X12661558Y21778528D01*
X12703530Y21730635D01*
X12706850Y21726788D01*
X12719400Y21712595D01*
X12730034Y21701102D01*
X12737718Y21693403D01*
X12741416Y21690594D01*
X12742966Y21690004D01*
X12744915Y21684928D01*
X12745485Y21682083D01*
X12750340Y21676139D01*
X12750429Y21676084D01*
X12754683Y21671898D01*
X12762879Y21662630D01*
X12774162Y21649289D01*
X12787680Y21632882D01*
X12802580Y21614416D01*
X12815404Y21598454D01*
X12833037Y21576745D01*
X12850190Y21555866D01*
X12865408Y21537584D01*
X12877238Y21523667D01*
X12886538Y21512749D01*
X12896136Y21501018D01*
X12902669Y21492463D01*
X12905081Y21488422D01*
X12905755Y21486592D01*
X12910109Y21479817D01*
X12917173Y21470661D01*
X12929264Y21455993D01*
X13031342Y21554737D01*
X13043624Y21566629D01*
X13071842Y21594024D01*
X13101056Y21622467D01*
X13129940Y21650668D01*
X13157171Y21677331D01*
X13181422Y21701163D01*
X13201371Y21720869D01*
X13215452Y21734773D01*
X13233118Y21752029D01*
X13248411Y21766754D01*
X13260545Y21778200D01*
X13268733Y21785617D01*
X13272186Y21788256D01*
X13275463Y21790678D01*
X13283366Y21797839D01*
X13294940Y21808866D01*
X13309269Y21822884D01*
X13325432Y21839019D01*
X13328370Y21841979D01*
X13344613Y21858322D01*
X13359962Y21873713D01*
X13374851Y21888577D01*
X13389719Y21903335D01*
X13405001Y21918409D01*
X13421136Y21934223D01*
X13438559Y21951199D01*
X13457708Y21969760D01*
X13479019Y21990327D01*
X13502930Y22013325D01*
X13529877Y22039176D01*
X13560296Y22068302D01*
X13594626Y22101126D01*
X13633303Y22138071D01*
X13676764Y22179560D01*
X13725444Y22226014D01*
X13735679Y22235779D01*
X13775656Y22273935D01*
X13814712Y22311228D01*
X13852371Y22347203D01*
X13888161Y22381408D01*
X13921610Y22413391D01*
X13952243Y22442699D01*
X13979587Y22468878D01*
X14003170Y22491478D01*
X14022517Y22510043D01*
X14037157Y22524123D01*
X14046615Y22533264D01*
X14092378Y22577739D01*
X14036505Y22646893D01*
X13976275Y22723134D01*
X13910821Y22810566D01*
X13849903Y22897343D01*
X13792288Y22985170D01*
X13764207Y23030214D01*
X13689654Y23158162D01*
X13622796Y23286235D01*
X13563548Y23414695D01*
X13511827Y23543808D01*
X13467547Y23673833D01*
X13430623Y23805038D01*
X13400973Y23937683D01*
X13378508Y24072034D01*
X13363147Y24208352D01*
X13354804Y24346901D01*
X13353150Y24448855D01*
X13357337Y24592052D01*
X13369189Y24733759D01*
X13388713Y24874016D01*
X13415915Y25012866D01*
X13450801Y25150353D01*
X13493378Y25286518D01*
X13494809Y25290675D01*
X13518263Y25354697D01*
X13545664Y25422866D01*
X13576156Y25493330D01*
X13608891Y25564241D01*
X13643015Y25633749D01*
X13677676Y25700004D01*
X13712022Y25761157D01*
X13715050Y25766320D01*
X13758797Y25837868D01*
X13807323Y25912185D01*
X13859316Y25987415D01*
X13913459Y26061701D01*
X13968438Y26133186D01*
X14022938Y26200016D01*
X14025985Y26203633D01*
X14042148Y26222836D01*
X14056961Y26240464D01*
X14069502Y26255415D01*
X14078848Y26266590D01*
X14084080Y26272892D01*
X14093084Y26283885D01*
X14068237Y26312578D01*
X14040182Y26345624D01*
X14004113Y26389645D01*
X13966697Y26436779D01*
X13929434Y26485101D01*
X13893827Y26532687D01*
X13861378Y26577613D01*
X13810420Y26651753D01*
X13729950Y26778561D01*
X13657203Y26906437D01*
X13592156Y27035457D01*
X13534788Y27165700D01*
X13485078Y27297246D01*
X13443003Y27430170D01*
X13408543Y27564551D01*
X13381677Y27700470D01*
X13362382Y27838003D01*
X13350637Y27977229D01*
X13346420Y28118228D01*
X13349711Y28261075D01*
X13360488Y28405851D01*
X13374217Y28519517D01*
X13398088Y28660190D01*
X13429367Y28798650D01*
X13468073Y28934942D01*
X13514229Y29069115D01*
X13567854Y29201215D01*
X13628970Y29331289D01*
X13697597Y29459384D01*
X13773756Y29585547D01*
X13857470Y29709825D01*
X13948757Y29832267D01*
X14047640Y29952914D01*
X14051103Y29956957D01*
X14064092Y29972156D01*
X14075277Y29985306D01*
X14083563Y29995114D01*
X14087851Y30000289D01*
X14089276Y30003088D01*
X14088540Y30007268D01*
X14084325Y30013309D01*
X14075830Y30022305D01*
X14062259Y30035353D01*
X14061197Y30036357D01*
X14052829Y30044302D01*
X14039358Y30057134D01*
X14021232Y30074424D01*
X13998898Y30095747D01*
X13972803Y30120673D01*
X13943396Y30148776D01*
X13911120Y30179629D01*
X13876425Y30212803D01*
X13839760Y30247872D01*
X13801569Y30284408D01*
X13762302Y30321984D01*
X13760593Y30323619D01*
X13670381Y30409891D01*
X13582022Y30494261D01*
X13494431Y30577758D01*
X13406525Y30661415D01*
X13317223Y30746260D01*
X13225439Y30833325D01*
X13130090Y30923638D01*
X13030093Y31018231D01*
X12930480Y31112403D01*
X12918408Y31100030D01*
X12911297Y31092270D01*
X12901156Y31080089D01*
X12891083Y31067035D01*
X12882334Y31054809D01*
X12876165Y31045112D01*
X12873830Y31039641D01*
X12873334Y31037484D01*
X12868717Y31032184D01*
X12865062Y31028570D01*
X12857342Y31019731D01*
X12846501Y31006746D01*
X12833402Y30990649D01*
X12818909Y30972476D01*
X12796441Y30944344D01*
X12727118Y30861596D01*
X12658574Y30786080D01*
X12590404Y30717439D01*
X12522202Y30655318D01*
X12453564Y30599361D01*
X12384085Y30549211D01*
X12313357Y30504513D01*
X12240978Y30464911D01*
X12234481Y30461642D01*
X12157616Y30426450D01*
X12074829Y30394459D01*
X11987381Y30366049D01*
X11896535Y30341597D01*
X11803552Y30321480D01*
X11709695Y30306076D01*
X11689429Y30303854D01*
X11661571Y30301780D01*
X11628884Y30300052D01*
X11592908Y30298700D01*
X11555185Y30297753D01*
X11517256Y30297241D01*
X11480662Y30297191D01*
X11446945Y30297635D01*
X11417645Y30298598D01*
X11394304Y30300115D01*
X11308628Y30310668D01*
X11207848Y30330182D01*
X11108124Y30357139D01*
X11010088Y30391342D01*
X10914373Y30432591D01*
X10821610Y30480686D01*
X10819797Y30481714D01*
X10792713Y30497770D01*
X10761403Y30517393D01*
X10727636Y30539392D01*
X10693181Y30562579D01*
X10659810Y30585763D01*
X10629291Y30607755D01*
X10603395Y30627366D01*
X10584998Y30641902D01*
X10557520Y30664184D01*
X10531820Y30685895D01*
X10507154Y30707775D01*
X10482778Y30730560D01*
X10457949Y30754990D01*
X10431923Y30781802D01*
X10403958Y30811735D01*
X10373308Y30845528D01*
X10339231Y30883917D01*
X10300984Y30927643D01*
X10300893Y30927747D01*
X10280101Y30951590D01*
X10259424Y30975207D01*
X10239863Y30997460D01*
X10222417Y31017213D01*
X10208087Y31033334D01*
X10197873Y31044685D01*
X10189802Y31053749D01*
X10176886Y31069037D01*
X10165839Y31083018D01*
X10158418Y31093516D01*
X10147432Y31111095D01*
X9609147Y30570685D01*
X9565449Y30526801D01*
X9495644Y30456641D01*
X9431298Y30391887D01*
X9372353Y30332480D01*
X9318752Y30278362D01*
X9270436Y30229472D01*
X9227347Y30185753D01*
X9189429Y30147147D01*
X9156623Y30113593D01*
X9128873Y30085034D01*
X9106120Y30061411D01*
X9088306Y30042664D01*
X9075374Y30028736D01*
X9067267Y30019567D01*
X9063926Y30015099D01*
X9061402Y30008860D01*
X9059891Y30001613D01*
X9060589Y29993985D01*
X9063973Y29985050D01*
X9070519Y29973877D01*
X9080703Y29959541D01*
X9095000Y29941112D01*
X9113888Y29917662D01*
X9167040Y29850701D01*
X9244100Y29747230D01*
X9315007Y29643499D01*
X9380623Y29538170D01*
X9441808Y29429902D01*
X9499422Y29317352D01*
X9506078Y29303768D01*
X9516971Y29281875D01*
X9526557Y29263018D01*
X9534319Y29248198D01*
X9539737Y29238417D01*
X9542291Y29234678D01*
X9543951Y29232994D01*
X9545500Y29226409D01*
X9545856Y29223223D01*
X9548455Y29213727D01*
X9552732Y29202227D01*
X9557677Y29191086D01*
X9562288Y29182667D01*
X9565553Y29179336D01*
X9567779Y29176914D01*
X9568939Y29169570D01*
X9569909Y29163146D01*
X9572846Y29159803D01*
X9575414Y29157379D01*
X9576752Y29150037D01*
X9577722Y29143615D01*
X9580658Y29140271D01*
X9583227Y29137846D01*
X9584565Y29130505D01*
X9585535Y29124081D01*
X9588471Y29120738D01*
X9591040Y29118314D01*
X9592378Y29110972D01*
X9593303Y29104550D01*
X9596107Y29101206D01*
X9596843Y29100954D01*
X9599930Y29095951D01*
X9602530Y29086557D01*
X9603015Y29084124D01*
X9605657Y29074723D01*
X9608304Y29069886D01*
X9608858Y29069235D01*
X9611676Y29062828D01*
X9615520Y29051357D01*
X9619723Y29036749D01*
X9621004Y29032075D01*
X9625157Y29018220D01*
X9628737Y29008090D01*
X9631082Y29003612D01*
X9631359Y29003389D01*
X9634695Y28997703D01*
X9638803Y28987344D01*
X9642815Y28974969D01*
X9645860Y28963234D01*
X9647069Y28954798D01*
X9647704Y28949478D01*
X9650702Y28942798D01*
X9651961Y28940731D01*
X9655619Y28931528D01*
X9660708Y28916200D01*
X9666949Y28895713D01*
X9674062Y28871021D01*
X9681767Y28843086D01*
X9689784Y28812864D01*
X9697832Y28781317D01*
X9706350Y28746147D01*
X9731038Y28629073D01*
X9751349Y28507316D01*
X9767016Y28382412D01*
X9767334Y28379345D01*
X9769078Y28360445D01*
X9770498Y28340566D01*
X9771620Y28318732D01*
X9772474Y28293967D01*
X9773088Y28265294D01*
X9773488Y28231737D01*
X9773704Y28192321D01*
X9773762Y28146069D01*
X9773749Y28128080D01*
X9773590Y28082105D01*
X9773191Y28042255D01*
X9772476Y28007284D01*
X9771369Y27975948D01*
X9769793Y27946999D01*
X9767671Y27919193D01*
X9764928Y27891284D01*
X9761487Y27862027D01*
X9757272Y27830176D01*
X9752206Y27794484D01*
X9734159Y27687331D01*
X9707446Y27563694D01*
X9674557Y27439511D01*
X9635940Y27316318D01*
X9592043Y27195651D01*
X9543315Y27079044D01*
X9535644Y27062023D01*
X9482579Y26950925D01*
X9425423Y26842056D01*
X9364753Y26736343D01*
X9301143Y26634712D01*
X9235170Y26538089D01*
X9167410Y26447400D01*
X9098438Y26363573D01*
X9090837Y26354754D01*
X9077491Y26339042D01*
X9066315Y26325590D01*
X9058302Y26315604D01*
X9054448Y26310286D01*
X9053728Y26308869D01*
X9052129Y26301915D01*
X9053393Y26293312D01*
X9057915Y26282368D01*
X9066089Y26268391D01*
X9078309Y26250687D01*
X9094970Y26228564D01*
X9116465Y26201328D01*
X9120557Y26196212D01*
X9186124Y26111698D01*
X9246053Y26029271D01*
X9301436Y25947256D01*
X9353361Y25863978D01*
X9402918Y25777762D01*
X9451198Y25686933D01*
X9461237Y25667457D01*
X9473069Y25644819D01*
X9483535Y25625138D01*
X9492094Y25609418D01*
X9498208Y25598663D01*
X9501335Y25593875D01*
X9504365Y25588993D01*
X9506436Y25579505D01*
X9507564Y25572957D01*
X9512295Y25564437D01*
X9515566Y25560145D01*
X9518154Y25552622D01*
X9519019Y25546897D01*
X9522284Y25537784D01*
X9526604Y25530038D01*
X9530501Y25526767D01*
X9532626Y25524490D01*
X9533780Y25517280D01*
X9534964Y25510396D01*
X9539640Y25501933D01*
X9542890Y25497596D01*
X9545500Y25489656D01*
X9546491Y25485103D01*
X9551360Y25477378D01*
X9554880Y25471941D01*
X9557219Y25462031D01*
X9558147Y25455879D01*
X9561079Y25452544D01*
X9562021Y25452136D01*
X9565023Y25446687D01*
X9567439Y25436918D01*
X9568096Y25433367D01*
X9570663Y25424743D01*
X9573346Y25421292D01*
X9575584Y25418870D01*
X9576752Y25411526D01*
X9577641Y25405105D01*
X9580335Y25401760D01*
X9582084Y25400131D01*
X9585241Y25392738D01*
X9588284Y25381396D01*
X9590184Y25373522D01*
X9593318Y25363661D01*
X9595911Y25358934D01*
X9597762Y25356312D01*
X9601979Y25346753D01*
X9607743Y25331222D01*
X9614768Y25310652D01*
X9622772Y25285978D01*
X9631465Y25258131D01*
X9640566Y25228045D01*
X9649787Y25196653D01*
X9658845Y25164888D01*
X9667454Y25133683D01*
X9675328Y25103971D01*
X9682183Y25076686D01*
X9683523Y25071141D01*
X9708180Y24960486D01*
X9727793Y24853457D01*
X9742606Y24748037D01*
X9752862Y24642205D01*
X9758801Y24533943D01*
X9760665Y24421231D01*
X9760514Y24392191D01*
X9757274Y24279068D01*
X9749697Y24170677D01*
X9737615Y24065498D01*
X9720864Y23962011D01*
X9699277Y23858696D01*
X9682352Y23789729D01*
X9642263Y23649834D01*
X9595026Y23511898D01*
X9540887Y23376406D01*
X9480091Y23243844D01*
X9412882Y23114697D01*
X9339507Y22989452D01*
X9260210Y22868594D01*
X9175238Y22752609D01*
X9084835Y22641982D01*
X9077915Y22633859D01*
X9064796Y22617840D01*
X9053969Y22603795D01*
X9046405Y22593009D01*
X9043074Y22586765D01*
X9042600Y22582054D01*
X8870749Y22582054D01*
X8901477Y22606127D01*
X8911561Y22614233D01*
X8925352Y22625994D01*
X8936381Y22636194D01*
X8942905Y22643266D01*
X8943180Y22643634D01*
X8948287Y22650103D01*
X8957582Y22661588D01*
X8970337Y22677202D01*
X8985824Y22696054D01*
X9003313Y22717255D01*
X9022075Y22739914D01*
X9038151Y22759349D01*
X9071983Y22800737D01*
X9101458Y22837576D01*
X9127226Y22870709D01*
X9149932Y22900979D01*
X9170229Y22929226D01*
X9188764Y22956297D01*
X9251570Y23054023D01*
X9325807Y23180870D01*
X9392353Y23308577D01*
X9451260Y23437300D01*
X9502585Y23567191D01*
X9546382Y23698405D01*
X9582706Y23831097D01*
X9611613Y23965420D01*
X9633158Y24101529D01*
X9647395Y24239579D01*
X9648409Y24255066D01*
X9649822Y24286543D01*
X9650853Y24323227D01*
X9651501Y24363492D01*
X9651767Y24405712D01*
X9651651Y24448261D01*
X9651153Y24489511D01*
X9650273Y24527837D01*
X9649011Y24561612D01*
X9647368Y24589210D01*
X9645790Y24609027D01*
X9631176Y24747378D01*
X9610488Y24881571D01*
X9583519Y25012512D01*
X9550060Y25141109D01*
X9509904Y25268270D01*
X9462842Y25394902D01*
X9430555Y25472452D01*
X9376502Y25589467D01*
X9316856Y25704041D01*
X9250925Y25817480D01*
X9178013Y25931089D01*
X9177778Y25931439D01*
X9155331Y25964497D01*
X9134055Y25994972D01*
X9113035Y26024061D01*
X9091354Y26052961D01*
X9068099Y26082871D01*
X9042355Y26114989D01*
X9013206Y26150511D01*
X8979738Y26190635D01*
X8893076Y26293923D01*
X8902264Y26303924D01*
X8937783Y26343414D01*
X9005934Y26423665D01*
X9073582Y26508964D01*
X9139462Y26597585D01*
X9202311Y26687799D01*
X9260863Y26777881D01*
X9313854Y26866101D01*
X9318861Y26874857D01*
X9386181Y27000192D01*
X9445878Y27126576D01*
X9498090Y27254443D01*
X9542956Y27384227D01*
X9580612Y27516362D01*
X9611196Y27651282D01*
X9634845Y27789421D01*
X9651699Y27931212D01*
X9653020Y27949177D01*
X9654291Y27975947D01*
X9655311Y28008250D01*
X9656080Y28044872D01*
X9656598Y28084602D01*
X9656865Y28126225D01*
X9656880Y28168530D01*
X9656644Y28210302D01*
X9656158Y28250330D01*
X9655420Y28287402D01*
X9654429Y28320301D01*
X9653190Y28347818D01*
X9651699Y28368739D01*
X9646861Y28416116D01*
X9627957Y28555389D01*
X9602297Y28691500D01*
X9569765Y28824750D01*
X9530244Y28955442D01*
X9483618Y29083879D01*
X9429772Y29210362D01*
X9368590Y29335193D01*
X9299955Y29458676D01*
X9223751Y29581113D01*
X9139864Y29702805D01*
X9125108Y29723193D01*
X9112475Y29740530D01*
X9101778Y29754995D01*
X9091659Y29768380D01*
X9080760Y29782480D01*
X9067725Y29799089D01*
X9051196Y29820000D01*
X9050265Y29821173D01*
X9039167Y29834889D01*
X9023876Y29853444D01*
X9005210Y29875863D01*
X8983985Y29901172D01*
X8961020Y29928396D01*
X8937130Y29956561D01*
X8913131Y29984694D01*
X8899940Y30000109D01*
X9391385Y30493098D01*
X9392072Y30493787D01*
X9446203Y30548090D01*
X9500299Y30602360D01*
X9553968Y30656204D01*
X9606820Y30709232D01*
X9658461Y30761047D01*
X9708503Y30811259D01*
X9756551Y30859474D01*
X9802215Y30905300D01*
X9845104Y30948342D01*
X9884826Y30988209D01*
X9920989Y31024508D01*
X9953203Y31056846D01*
X9981073Y31084829D01*
X10004211Y31108065D01*
X10022224Y31126162D01*
X10161618Y31266235D01*
X10221509Y31186712D01*
X10241653Y31160105D01*
X10292890Y31093850D01*
X10341274Y31033527D01*
X10387423Y30978449D01*
X10431955Y30927926D01*
X10475487Y30881270D01*
X10518635Y30837791D01*
X10562019Y30796804D01*
X10606254Y30757617D01*
X10607946Y30756167D01*
X10693231Y30688124D01*
X10781844Y30627142D01*
X10873717Y30573251D01*
X10968781Y30526481D01*
X11066969Y30486864D01*
X11168214Y30454429D01*
X11272445Y30429208D01*
X11379597Y30411229D01*
X11390838Y30409883D01*
X11425342Y30406970D01*
X11465110Y30405017D01*
X11508332Y30404018D01*
X11553201Y30403959D01*
X11597907Y30404834D01*
X11640642Y30406633D01*
X11679598Y30409346D01*
X11712966Y30412964D01*
X11792813Y30425999D01*
X11894383Y30449292D01*
X11992920Y30479713D01*
X12088486Y30517293D01*
X12181138Y30562064D01*
X12270933Y30614057D01*
X12357931Y30673305D01*
X12442187Y30739837D01*
X12523762Y30813686D01*
X12602713Y30894884D01*
X12629903Y30925026D01*
X12660279Y30959873D01*
X12689983Y30995360D01*
X12719803Y31032492D01*
X12750528Y31072275D01*
X12782950Y31115715D01*
X12817855Y31163817D01*
X12856035Y31217586D01*
X12906246Y31288919D01*
X12928126Y31268347D01*
G37*
G36*
X12952946Y30736548D02*
G01*
X12960797Y30730325D01*
X12973090Y30719808D01*
X12989129Y30705618D01*
X13008214Y30688373D01*
X13029649Y30668694D01*
X13052733Y30647199D01*
X13063326Y30637274D01*
X13089101Y30613154D01*
X13114800Y30589143D01*
X13139298Y30566292D01*
X13161472Y30545647D01*
X13180199Y30528257D01*
X13194355Y30515168D01*
X13236579Y30476265D01*
X13278110Y30437976D01*
X13315234Y30403709D01*
X13348658Y30372809D01*
X13379086Y30344615D01*
X13407225Y30318467D01*
X13433779Y30293707D01*
X13459457Y30269675D01*
X13484960Y30245712D01*
X13510998Y30221157D01*
X13538275Y30195352D01*
X13567495Y30167638D01*
X13599368Y30137355D01*
X13634597Y30103844D01*
X13643776Y30095090D01*
X13668052Y30071736D01*
X13690244Y30050103D01*
X13709750Y30030797D01*
X13725969Y30014422D01*
X13738298Y30001582D01*
X13746137Y29992882D01*
X13748883Y29988928D01*
X13748870Y29988712D01*
X13746526Y29982775D01*
X13740724Y29971935D01*
X13732296Y29957662D01*
X13722070Y29941427D01*
X13713507Y29928222D01*
X13676183Y29870601D01*
X13642744Y29818845D01*
X13612863Y29772407D01*
X13586207Y29730737D01*
X13562446Y29693288D01*
X13541250Y29659510D01*
X13522290Y29628858D01*
X13505233Y29600781D01*
X13489751Y29574731D01*
X13475513Y29550162D01*
X13462189Y29526523D01*
X13449448Y29503268D01*
X13436958Y29479848D01*
X13424392Y29455714D01*
X13411419Y29430318D01*
X13397706Y29403113D01*
X13373265Y29353268D01*
X13312375Y29217610D01*
X13259164Y29080768D01*
X13213571Y28942524D01*
X13175533Y28802662D01*
X13144989Y28660964D01*
X13121880Y28517214D01*
X13106140Y28371194D01*
X13099859Y28270200D01*
X13097364Y28137009D01*
X13101117Y28002141D01*
X13110992Y27866650D01*
X13126858Y27731589D01*
X13148587Y27598011D01*
X13176050Y27466971D01*
X13209115Y27339521D01*
X13247656Y27216716D01*
X13279312Y27129266D01*
X13330509Y27004067D01*
X13388257Y26880162D01*
X13452796Y26757103D01*
X13524371Y26634438D01*
X13603217Y26511716D01*
X13689577Y26388488D01*
X13693346Y26383306D01*
X13708002Y26362853D01*
X13721139Y26344059D01*
X13731970Y26328079D01*
X13739712Y26316063D01*
X13743579Y26309167D01*
X13746838Y26300170D01*
X13748962Y26288607D01*
X13748250Y26276588D01*
X13744323Y26263205D01*
X13736802Y26247547D01*
X13725310Y26228706D01*
X13709466Y26205773D01*
X13688893Y26177836D01*
X13627057Y26092596D01*
X13542441Y25965494D01*
X13465109Y25836040D01*
X13395110Y25704350D01*
X13332490Y25570545D01*
X13277294Y25434740D01*
X13229571Y25297054D01*
X13189365Y25157603D01*
X13156725Y25016506D01*
X13131697Y24873880D01*
X13114327Y24729843D01*
X13105258Y24610535D01*
X13099940Y24457879D01*
X13101946Y24307718D01*
X13111300Y24159867D01*
X13128024Y24014144D01*
X13152140Y23870363D01*
X13183670Y23728341D01*
X13222637Y23587894D01*
X13269063Y23448837D01*
X13291834Y23388072D01*
X13323476Y23309955D01*
X13357545Y23232847D01*
X13394464Y23155970D01*
X13434657Y23078545D01*
X13478546Y22999791D01*
X13526555Y22918931D01*
X13579105Y22835186D01*
X13636622Y22747775D01*
X13699525Y22655923D01*
X13701898Y22652513D01*
X13714312Y22634453D01*
X13722945Y22621148D01*
X13728476Y22611233D01*
X13731586Y22603341D01*
X13732953Y22596111D01*
X13733258Y22588174D01*
X13731686Y22572371D01*
X13726421Y22560304D01*
X13723391Y22557051D01*
X13714931Y22548709D01*
X13702223Y22536553D01*
X13686144Y22521409D01*
X13667563Y22504105D01*
X13647357Y22485464D01*
X13636936Y22475874D01*
X13613615Y22454299D01*
X13586674Y22429263D01*
X13557458Y22402017D01*
X13527306Y22373813D01*
X13497561Y22345903D01*
X13469562Y22319538D01*
X13452890Y22303816D01*
X13424823Y22277372D01*
X13396417Y22250645D01*
X13368880Y22224763D01*
X13343412Y22200858D01*
X13321215Y22180060D01*
X13303494Y22163499D01*
X13289099Y22150019D01*
X13269282Y22131370D01*
X13245495Y22108919D01*
X13218601Y22083481D01*
X13189461Y22055872D01*
X13158936Y22026908D01*
X13127887Y21997403D01*
X13097175Y21968174D01*
X13087948Y21959392D01*
X13060113Y21932993D01*
X13034065Y21908425D01*
X13010355Y21886200D01*
X12989534Y21866827D01*
X12972151Y21850818D01*
X12958758Y21838683D01*
X12949903Y21830932D01*
X12946141Y21828077D01*
X12943939Y21828458D01*
X12937417Y21833210D01*
X12929906Y21841750D01*
X12928640Y21843390D01*
X12920583Y21852769D01*
X12908658Y21865710D01*
X12894258Y21880727D01*
X12878779Y21896331D01*
X12872951Y21902140D01*
X12859443Y21915933D01*
X12848565Y21927507D01*
X12841310Y21935789D01*
X12838671Y21939705D01*
X12838256Y21940744D01*
X12833360Y21946841D01*
X12823407Y21957370D01*
X12808963Y21971785D01*
X12790592Y21989533D01*
X12768862Y22010067D01*
X12744337Y22032836D01*
X12717584Y22057292D01*
X12640658Y22123822D01*
X12548051Y22195860D01*
X12452770Y22261684D01*
X12355217Y22321092D01*
X12255799Y22373892D01*
X12154917Y22419884D01*
X12052980Y22458871D01*
X11950386Y22490658D01*
X11847543Y22515044D01*
X11744854Y22531835D01*
X11734978Y22532946D01*
X11713170Y22534671D01*
X11692203Y22535499D01*
X11675514Y22535262D01*
X11673523Y22535147D01*
X11660182Y22534856D01*
X11650763Y22535472D01*
X11647196Y22536885D01*
X11646559Y22537224D01*
X11639890Y22537899D01*
X11626700Y22538348D01*
X11607907Y22538564D01*
X11584427Y22538540D01*
X11557176Y22538269D01*
X11527072Y22537745D01*
X11492600Y22536805D01*
X11417624Y22532974D01*
X11346902Y22526559D01*
X11278654Y22517252D01*
X11211100Y22504740D01*
X11142461Y22488714D01*
X11070957Y22468862D01*
X10994808Y22444875D01*
X10958199Y22432385D01*
X10866789Y22397509D01*
X10780086Y22358694D01*
X10696761Y22315213D01*
X10615485Y22266340D01*
X10534927Y22211351D01*
X10453759Y22149518D01*
X10443408Y22141215D01*
X10414094Y22117314D01*
X10386962Y22094490D01*
X10360759Y22071613D01*
X10334231Y22047552D01*
X10306124Y22021178D01*
X10275185Y21991360D01*
X10240160Y21956968D01*
X10230584Y21947479D01*
X10206259Y21923071D01*
X10186887Y21903066D01*
X10171870Y21886806D01*
X10160616Y21873633D01*
X10152528Y21862886D01*
X10147010Y21853909D01*
X10140189Y21842245D01*
X10133503Y21832866D01*
X10128752Y21828439D01*
X10127941Y21828685D01*
X10122853Y21832524D01*
X10113241Y21841006D01*
X10099016Y21854217D01*
X10080093Y21872240D01*
X10056385Y21895160D01*
X10027806Y21923062D01*
X9994271Y21956030D01*
X9955691Y21994148D01*
X9911981Y22037502D01*
X9863055Y22086175D01*
X9808826Y22140254D01*
X9749208Y22199820D01*
X9735491Y22213532D01*
X9689255Y22259688D01*
X9644920Y22303849D01*
X9602787Y22345719D01*
X9563157Y22385003D01*
X9526330Y22421406D01*
X9492607Y22454632D01*
X9462289Y22484386D01*
X9435677Y22510373D01*
X9413070Y22532297D01*
X9394771Y22549863D01*
X9381080Y22562776D01*
X9372297Y22570740D01*
X9368724Y22573461D01*
X9368458Y22573463D01*
X9363019Y22575581D01*
X9362572Y22581896D01*
X9367256Y22592733D01*
X9377211Y22608418D01*
X9392575Y22629278D01*
X9477588Y22744677D01*
X9562430Y22870966D01*
X9640474Y22999444D01*
X9711576Y23129811D01*
X9775590Y23261766D01*
X9832371Y23395010D01*
X9881775Y23529242D01*
X9906035Y23607396D01*
X10686195Y23607396D01*
X10686195Y23479124D01*
X10686195Y23350852D01*
X11412802Y23350852D01*
X12139409Y23350852D01*
X12139409Y23012941D01*
X12139409Y22675029D01*
X12305435Y22675029D01*
X12471461Y22675029D01*
X12471461Y23143809D01*
X12471462Y23612587D01*
X11863025Y23612584D01*
X11809320Y23612574D01*
X11734143Y23612531D01*
X11658083Y23612452D01*
X11581864Y23612343D01*
X11506212Y23612205D01*
X11431850Y23612039D01*
X11359504Y23611848D01*
X11289899Y23611635D01*
X11223758Y23611400D01*
X11161807Y23611147D01*
X11104770Y23610877D01*
X11053372Y23610593D01*
X11008337Y23610296D01*
X10970392Y23609988D01*
X10686195Y23607396D01*
X9906035Y23607396D01*
X9923656Y23664163D01*
X9957870Y23799472D01*
X9959637Y23807441D01*
X9970094Y23857986D01*
X9979963Y23911318D01*
X9989074Y23966145D01*
X9997253Y24021172D01*
X10004331Y24075107D01*
X10010135Y24126654D01*
X10014493Y24174520D01*
X10017233Y24217411D01*
X10018185Y24254033D01*
X10018186Y24254470D01*
X10018602Y24267649D01*
X10019652Y24277028D01*
X10021115Y24280601D01*
X10021844Y24283806D01*
X10022557Y24293853D01*
X10023164Y24309738D01*
X10023634Y24330437D01*
X10023937Y24354923D01*
X10024045Y24382171D01*
X10023944Y24407446D01*
X10023629Y24432176D01*
X10023131Y24453195D01*
X10022480Y24469480D01*
X10021711Y24480001D01*
X10020856Y24483736D01*
X10019980Y24485438D01*
X10019067Y24493409D01*
X10018680Y24506416D01*
X10018902Y24522808D01*
X10019160Y24534189D01*
X10019134Y24548470D01*
X10018664Y24558249D01*
X10017796Y24561873D01*
X10016775Y24564837D01*
X10015444Y24574166D01*
X10014072Y24588343D01*
X10012841Y24605812D01*
X10012232Y24615065D01*
X10010474Y24637577D01*
X10008150Y24663964D01*
X10005488Y24691667D01*
X10002721Y24718124D01*
X10000905Y24735313D01*
X9998673Y24758535D01*
X9996918Y24779293D01*
X9995790Y24795822D01*
X9995431Y24806357D01*
X9995432Y24806442D01*
X9994858Y24823387D01*
X9992986Y24837575D01*
X9990145Y24847322D01*
X9986669Y24850944D01*
X9985018Y24853890D01*
X9983770Y24862713D01*
X9983398Y24875360D01*
X9982967Y24884391D01*
X9982781Y24886103D01*
X10682257Y24886103D01*
X10683249Y24416347D01*
X10684242Y23946592D01*
X10849250Y23945573D01*
X11014258Y23944555D01*
X11015276Y24115505D01*
X11016292Y24286457D01*
X11743877Y24287444D01*
X12471461Y24288431D01*
X12471462Y24415371D01*
X12471461Y24542312D01*
X11743877Y24543298D01*
X11016293Y24544284D01*
X11015276Y24715194D01*
X11014258Y24886103D01*
X10848258Y24886103D01*
X10682257Y24886103D01*
X9982781Y24886103D01*
X9981145Y24901137D01*
X9978141Y24922286D01*
X9974214Y24946042D01*
X9969622Y24970611D01*
X9940209Y25103209D01*
X9900394Y25249118D01*
X9853316Y25392227D01*
X9798952Y25532586D01*
X9751680Y25638102D01*
X10692055Y25638102D01*
X10692055Y25636394D01*
X10692086Y25593987D01*
X10692196Y25558554D01*
X10692410Y25529286D01*
X10692758Y25505375D01*
X10693266Y25486012D01*
X10693963Y25470388D01*
X10694875Y25457694D01*
X10696030Y25447122D01*
X10697457Y25437861D01*
X10699181Y25429106D01*
X10712825Y25380314D01*
X10732132Y25336116D01*
X10757026Y25297328D01*
X10787641Y25263810D01*
X10824108Y25235413D01*
X10866559Y25211998D01*
X10915124Y25193418D01*
X10935527Y25187537D01*
X10959586Y25182040D01*
X10985289Y25177826D01*
X11013863Y25174770D01*
X11046539Y25172744D01*
X11084544Y25171622D01*
X11129106Y25171277D01*
X11229197Y25171277D01*
X11229197Y25307427D01*
X11229197Y25443578D01*
X11193062Y25446172D01*
X11178224Y25447447D01*
X11138543Y25453462D01*
X11105562Y25462864D01*
X11078978Y25475753D01*
X11058486Y25492237D01*
X11055258Y25495652D01*
X11049121Y25502767D01*
X11044284Y25510013D01*
X11040594Y25518352D01*
X11037896Y25528743D01*
X11036035Y25542146D01*
X11034857Y25559521D01*
X11034207Y25581828D01*
X11033930Y25610028D01*
X11033873Y25645081D01*
X11033896Y25666091D01*
X11034129Y25699420D01*
X11034745Y25726365D01*
X11035904Y25747859D01*
X11037769Y25764825D01*
X11040500Y25778194D01*
X11044260Y25788893D01*
X11049210Y25797852D01*
X11055511Y25805997D01*
X11063326Y25814256D01*
X11080544Y25831474D01*
X11126549Y25831391D01*
X11137862Y25831313D01*
X11157123Y25830670D01*
X11172092Y25829122D01*
X11185150Y25826364D01*
X11198676Y25822088D01*
X11209884Y25817746D01*
X11240954Y25801749D01*
X11272832Y25779544D01*
X11305696Y25750941D01*
X11339723Y25715749D01*
X11375085Y25673778D01*
X11411962Y25624837D01*
X11450527Y25568735D01*
X11490957Y25505282D01*
X11517791Y25463247D01*
X11559251Y25404332D01*
X11600871Y25352727D01*
X11643000Y25308133D01*
X11685990Y25270250D01*
X11730194Y25238780D01*
X11775961Y25213423D01*
X11823645Y25193879D01*
X11873597Y25179852D01*
X11879295Y25178682D01*
X11891245Y25176809D01*
X11905408Y25175400D01*
X11922905Y25174398D01*
X11944854Y25173749D01*
X11972376Y25173396D01*
X12006589Y25173284D01*
X12025190Y25173336D01*
X12066816Y25174018D01*
X12102726Y25175645D01*
X12134399Y25178407D01*
X12163312Y25182498D01*
X12190941Y25188109D01*
X12218766Y25195429D01*
X12248262Y25204654D01*
X12283182Y25217631D01*
X12329627Y25240279D01*
X12369581Y25267064D01*
X12403235Y25298173D01*
X12430785Y25333796D01*
X12452423Y25374122D01*
X12468341Y25419339D01*
X12468856Y25421221D01*
X12470786Y25428722D01*
X12472389Y25436213D01*
X12473698Y25444475D01*
X12474747Y25454291D01*
X12475571Y25466445D01*
X12476206Y25481717D01*
X12476684Y25500890D01*
X12477041Y25524747D01*
X12477312Y25554070D01*
X12477530Y25589641D01*
X12477730Y25632243D01*
X12477780Y25644249D01*
X12477888Y25692597D01*
X12477757Y25734074D01*
X12477307Y25769447D01*
X12476458Y25799485D01*
X12475131Y25824950D01*
X12473245Y25846615D01*
X12470720Y25865243D01*
X12467478Y25881602D01*
X12463437Y25896459D01*
X12458518Y25910582D01*
X12452642Y25924736D01*
X12445729Y25939689D01*
X12440553Y25950022D01*
X12417931Y25986001D01*
X12390320Y26016809D01*
X12356977Y26043177D01*
X12317155Y26065835D01*
X12308725Y26069850D01*
X12284167Y26080460D01*
X12259829Y26089055D01*
X12234566Y26095821D01*
X12207236Y26100945D01*
X12176697Y26104614D01*
X12141805Y26107014D01*
X12101418Y26108333D01*
X12054393Y26108757D01*
X11951798Y26108834D01*
X11952824Y25971131D01*
X11953851Y25833427D01*
X11997365Y25830900D01*
X12030309Y25827782D01*
X12067216Y25820519D01*
X12097506Y25809665D01*
X12121072Y25795274D01*
X12137807Y25777399D01*
X12147603Y25756096D01*
X12147973Y25754449D01*
X12149180Y25743571D01*
X12150019Y25726590D01*
X12150511Y25704771D01*
X12150680Y25679379D01*
X12150548Y25651680D01*
X12150136Y25622938D01*
X12149469Y25594417D01*
X12148566Y25567384D01*
X12147451Y25543103D01*
X12146148Y25522840D01*
X12144677Y25507857D01*
X12143062Y25499422D01*
X12142033Y25496581D01*
X12135228Y25481122D01*
X12127023Y25469317D01*
X12116358Y25460696D01*
X12102170Y25454793D01*
X12083400Y25451141D01*
X12058985Y25449274D01*
X12027865Y25448723D01*
X12014583Y25448719D01*
X11994318Y25448868D01*
X11979552Y25449377D01*
X11968764Y25450427D01*
X11960434Y25452200D01*
X11953040Y25454880D01*
X11945064Y25458647D01*
X11937459Y25462825D01*
X11914914Y25478951D01*
X11889798Y25501794D01*
X11862409Y25530984D01*
X11833046Y25566151D01*
X11802010Y25606925D01*
X11769597Y25652939D01*
X11736109Y25703821D01*
X11701843Y25759203D01*
X11675637Y25801698D01*
X11648373Y25843013D01*
X11622043Y25879468D01*
X11595666Y25912344D01*
X11568266Y25942926D01*
X11538863Y25972490D01*
X11520653Y25989334D01*
X11474166Y26026640D01*
X11426593Y26056573D01*
X11377301Y26079449D01*
X11325658Y26095579D01*
X11271029Y26105278D01*
X11270074Y26105387D01*
X11250495Y26106890D01*
X11224934Y26107837D01*
X11194922Y26108261D01*
X11161992Y26108195D01*
X11127677Y26107671D01*
X11093508Y26106721D01*
X11061019Y26105377D01*
X11031740Y26103672D01*
X11007205Y26101639D01*
X10988948Y26099310D01*
X10955792Y26092790D01*
X10902852Y26077791D01*
X10856080Y26058110D01*
X10815355Y26033652D01*
X10780550Y26004323D01*
X10751544Y25970029D01*
X10728211Y25930674D01*
X10710431Y25886164D01*
X10707791Y25877819D01*
X10704006Y25865215D01*
X10700881Y25853334D01*
X10698354Y25841323D01*
X10696362Y25828327D01*
X10694839Y25813494D01*
X10693725Y25795969D01*
X10692955Y25774901D01*
X10692466Y25749433D01*
X10692196Y25718713D01*
X10692078Y25681887D01*
X10692055Y25638102D01*
X9751680Y25638102D01*
X9737282Y25670241D01*
X9668285Y25805240D01*
X9591938Y25937631D01*
X9508220Y26067461D01*
X9417110Y26194777D01*
X9403145Y26213457D01*
X9387997Y26233989D01*
X9374972Y26251940D01*
X9364723Y26266400D01*
X9357900Y26276458D01*
X9355155Y26281209D01*
X9355493Y26283958D01*
X9359621Y26292646D01*
X9367558Y26305193D01*
X9378511Y26320274D01*
X9423659Y26380619D01*
X9505014Y26497265D01*
X9581559Y26617592D01*
X9605409Y26658801D01*
X10678382Y26658801D01*
X10678382Y26538124D01*
X10678400Y26524204D01*
X10678557Y26495504D01*
X10678858Y26469913D01*
X10679282Y26448371D01*
X10679808Y26431818D01*
X10680415Y26421197D01*
X10681081Y26417447D01*
X10681380Y26417498D01*
X10682257Y26417780D01*
X10686977Y26419299D01*
X10698514Y26423375D01*
X10714849Y26429311D01*
X10734839Y26436692D01*
X10757338Y26445103D01*
X10830896Y26472759D01*
X10857184Y26462900D01*
X10878106Y26455454D01*
X10903615Y26447679D01*
X10931135Y26440868D01*
X10963556Y26434245D01*
X10966203Y26433759D01*
X10971835Y26432841D01*
X10978143Y26432012D01*
X10985522Y26431269D01*
X10994371Y26430606D01*
X11005084Y26430019D01*
X11018059Y26429504D01*
X11033694Y26429055D01*
X11052381Y26428669D01*
X11074520Y26428340D01*
X11100508Y26428064D01*
X11130739Y26427837D01*
X11165612Y26427653D01*
X11205521Y26427509D01*
X11250865Y26427400D01*
X11302039Y26427320D01*
X11359439Y26427267D01*
X11423464Y26427234D01*
X11494508Y26427218D01*
X11572968Y26427213D01*
X11603286Y26427214D01*
X11679016Y26427223D01*
X11747485Y26427246D01*
X11809093Y26427288D01*
X11864246Y26427353D01*
X11913341Y26427446D01*
X11951798Y26427557D01*
X11956782Y26427571D01*
X11994969Y26427734D01*
X12028305Y26427938D01*
X12057191Y26428189D01*
X12082028Y26428490D01*
X12103218Y26428847D01*
X12121163Y26429264D01*
X12136264Y26429746D01*
X12148923Y26430296D01*
X12159541Y26430920D01*
X12168520Y26431622D01*
X12176261Y26432408D01*
X12183167Y26433281D01*
X12189638Y26434246D01*
X12203109Y26436506D01*
X12251079Y26447030D01*
X12292916Y26460674D01*
X12329620Y26477883D01*
X12362183Y26499105D01*
X12391600Y26524785D01*
X12406786Y26540901D01*
X12429965Y26571552D01*
X12447436Y26604774D01*
X12460533Y26642850D01*
X12461877Y26647891D01*
X12463833Y26656247D01*
X12465419Y26665140D01*
X12466687Y26675479D01*
X12467689Y26688174D01*
X12468477Y26704134D01*
X12469102Y26724268D01*
X12469615Y26749486D01*
X12470071Y26780698D01*
X12470517Y26818814D01*
X12472116Y26964305D01*
X12437607Y26951736D01*
X12429396Y26948725D01*
X12412781Y26942587D01*
X12390824Y26934443D01*
X12364657Y26924714D01*
X12335414Y26913822D01*
X12304227Y26902189D01*
X12272230Y26890233D01*
X12141364Y26841301D01*
X12139310Y26795909D01*
X12138981Y26788877D01*
X12137895Y26770887D01*
X12136427Y26758124D01*
X12134154Y26748618D01*
X12130654Y26740404D01*
X12125507Y26731512D01*
X12118531Y26721565D01*
X12106937Y26710482D01*
X12090727Y26700727D01*
X12067697Y26688948D01*
X11737320Y26688053D01*
X11704557Y26687980D01*
X11655564Y26687933D01*
X11609540Y26687962D01*
X11567022Y26688065D01*
X11528550Y26688236D01*
X11494660Y26688473D01*
X11465892Y26688770D01*
X11442785Y26689124D01*
X11425876Y26689531D01*
X11415701Y26689987D01*
X11412802Y26690488D01*
X11413081Y26690629D01*
X11418874Y26693011D01*
X11431229Y26697838D01*
X11449545Y26704883D01*
X11473216Y26713920D01*
X11501639Y26724721D01*
X11534213Y26737062D01*
X11570334Y26750715D01*
X11609399Y26765454D01*
X11650805Y26781054D01*
X11693949Y26797286D01*
X11738227Y26813927D01*
X11783036Y26830750D01*
X11827775Y26847525D01*
X11871837Y26864030D01*
X11914622Y26880037D01*
X11955527Y26895319D01*
X11993947Y26909652D01*
X12029279Y26922807D01*
X12060922Y26934560D01*
X12088272Y26944684D01*
X12110725Y26952950D01*
X12127678Y26959136D01*
X12138528Y26963012D01*
X12142673Y26964356D01*
X12147439Y26965603D01*
X12158578Y26969302D01*
X12175129Y26975114D01*
X12196184Y26982695D01*
X12220828Y26991702D01*
X12248152Y27001793D01*
X12277248Y27012626D01*
X12307201Y27023857D01*
X12337103Y27035144D01*
X12366042Y27046145D01*
X12393109Y27056516D01*
X12417391Y27065915D01*
X12437979Y27074000D01*
X12453963Y27080428D01*
X12464430Y27084855D01*
X12468471Y27086940D01*
X12468891Y27088747D01*
X12469568Y27097315D01*
X12470139Y27111749D01*
X12470604Y27130906D01*
X12470959Y27153646D01*
X12471203Y27178832D01*
X12471334Y27205322D01*
X12471349Y27231977D01*
X12471248Y27257659D01*
X12471027Y27281226D01*
X12470684Y27301540D01*
X12470219Y27317461D01*
X12469628Y27327850D01*
X12468909Y27331566D01*
X12467867Y27331325D01*
X12460799Y27329007D01*
X12448358Y27324623D01*
X12431905Y27318659D01*
X12412801Y27311597D01*
X12359244Y27291629D01*
X12322575Y27309719D01*
X12312013Y27314681D01*
X12270624Y27330373D01*
X12223844Y27342973D01*
X12173234Y27352038D01*
X12166959Y27352696D01*
X12156850Y27353357D01*
X12143093Y27353954D01*
X12125368Y27354487D01*
X12103354Y27354960D01*
X12076732Y27355375D01*
X12045181Y27355736D01*
X12008381Y27356044D01*
X11966010Y27356302D01*
X11917749Y27356514D01*
X11863278Y27356681D01*
X11802275Y27356806D01*
X11734419Y27356892D01*
X11659394Y27356942D01*
X11576875Y27356958D01*
X11569357Y27356958D01*
X11492310Y27356952D01*
X11422632Y27356932D01*
X11359917Y27356894D01*
X11303760Y27356834D01*
X11253754Y27356745D01*
X11209494Y27356624D01*
X11170574Y27356466D01*
X11136589Y27356267D01*
X11107131Y27356021D01*
X11081795Y27355724D01*
X11060175Y27355371D01*
X11041866Y27354958D01*
X11026460Y27354480D01*
X11013554Y27353931D01*
X11002739Y27353308D01*
X10993611Y27352606D01*
X10985764Y27351820D01*
X10978792Y27350946D01*
X10972288Y27349978D01*
X10921082Y27339953D01*
X10872050Y27325682D01*
X10829363Y27307589D01*
X10792633Y27285393D01*
X10761472Y27258811D01*
X10735489Y27227559D01*
X10714298Y27191354D01*
X10697509Y27149914D01*
X10697282Y27149230D01*
X10695119Y27142478D01*
X10693330Y27135914D01*
X10691875Y27128735D01*
X10690706Y27120146D01*
X10689786Y27109345D01*
X10689069Y27095531D01*
X10688515Y27077906D01*
X10688080Y27055667D01*
X10687722Y27028017D01*
X10687398Y26994153D01*
X10687066Y26953277D01*
X10686955Y26938956D01*
X10686668Y26900647D01*
X10686480Y26869253D01*
X10686418Y26844098D01*
X10686508Y26824508D01*
X10686776Y26809807D01*
X10687249Y26799320D01*
X10687952Y26792374D01*
X10688914Y26788292D01*
X10690160Y26786398D01*
X10691716Y26786022D01*
X10693610Y26786484D01*
X10695530Y26787150D01*
X10704333Y26790341D01*
X10719228Y26795810D01*
X10739407Y26803259D01*
X10764072Y26812391D01*
X10792417Y26822909D01*
X10823639Y26834516D01*
X10856934Y26846914D01*
X11012387Y26904844D01*
X11014544Y26964876D01*
X11015028Y26977490D01*
X11016089Y26998353D01*
X11017405Y27013606D01*
X11019182Y27024732D01*
X11021622Y27033213D01*
X11024929Y27040532D01*
X11033506Y27054222D01*
X11051202Y27072177D01*
X11074891Y27086224D01*
X11094423Y27095223D01*
X11467493Y27095975D01*
X11479452Y27095999D01*
X11541189Y27096106D01*
X11595598Y27096167D01*
X11643093Y27096177D01*
X11684083Y27096131D01*
X11718983Y27096025D01*
X11748203Y27095852D01*
X11772154Y27095608D01*
X11791249Y27095287D01*
X11805900Y27094884D01*
X11816517Y27094395D01*
X11823513Y27093813D01*
X11827299Y27093134D01*
X11828289Y27092353D01*
X11826891Y27091464D01*
X11824491Y27090548D01*
X11814818Y27086876D01*
X11798823Y27080815D01*
X11777141Y27072606D01*
X11750408Y27062489D01*
X11719258Y27050704D01*
X11684327Y27037492D01*
X11646250Y27023094D01*
X11605664Y27007748D01*
X11563202Y26991697D01*
X11551502Y26987274D01*
X11506664Y26970323D01*
X11462156Y26953492D01*
X11418849Y26937113D01*
X11377617Y26921514D01*
X11339332Y26907028D01*
X11304865Y26893982D01*
X11275090Y26882706D01*
X11250879Y26873534D01*
X11233104Y26866793D01*
X11220897Y26862172D01*
X11197697Y26853428D01*
X11168812Y26842574D01*
X11135211Y26829972D01*
X11097862Y26815984D01*
X11057733Y26800974D01*
X11015792Y26785303D01*
X10973009Y26769335D01*
X10930351Y26753432D01*
X10890404Y26738544D01*
X10852089Y26724251D01*
X10816301Y26710890D01*
X10783729Y26698717D01*
X10755054Y26687988D01*
X10730962Y26678958D01*
X10712137Y26671887D01*
X10699266Y26667027D01*
X10693031Y26664637D01*
X10678382Y26658801D01*
X9605409Y26658801D01*
X9652819Y26740720D01*
X9718325Y26865771D01*
X9777600Y26991865D01*
X9830172Y27118124D01*
X9875569Y27243670D01*
X9883052Y27266474D01*
X9911340Y27359874D01*
X9936885Y27455982D01*
X9959383Y27553291D01*
X9978530Y27650293D01*
X9994021Y27745481D01*
X10005554Y27837344D01*
X10012822Y27924376D01*
X10013928Y27940211D01*
X10015299Y27954789D01*
X10016647Y27964677D01*
X10017796Y27968315D01*
X10018482Y27970488D01*
X10019049Y27979015D01*
X10019207Y27992501D01*
X10018911Y28009334D01*
X10018685Y28022491D01*
X10018915Y28036899D01*
X10019667Y28046726D01*
X10020864Y28050359D01*
X10021121Y28050620D01*
X10022051Y28056182D01*
X10022855Y28068100D01*
X10023485Y28085219D01*
X10023897Y28106384D01*
X10024045Y28130441D01*
X10024034Y28136928D01*
X10023814Y28160343D01*
X10023340Y28180564D01*
X10022660Y28196439D01*
X10021819Y28206811D01*
X10020864Y28210525D01*
X10019909Y28212702D01*
X10019047Y28221233D01*
X10018688Y28234720D01*
X10018910Y28251553D01*
X10019132Y28264710D01*
X10018887Y28279117D01*
X10018113Y28288941D01*
X10016888Y28292571D01*
X10016752Y28292594D01*
X10015373Y28296689D01*
X10014720Y28306453D01*
X10014935Y28319918D01*
X10014979Y28320891D01*
X10015172Y28334365D01*
X10014559Y28344173D01*
X10013262Y28348253D01*
X10012871Y28348818D01*
X10011647Y28355178D01*
X10010417Y28367436D01*
X10009308Y28384157D01*
X10008441Y28403911D01*
X10008284Y28408405D01*
X10006921Y28439302D01*
X10005284Y28462761D01*
X10003337Y28479109D01*
X10001310Y28487561D01*
X10678382Y28487561D01*
X10678382Y28370878D01*
X10678382Y28254195D01*
X10722330Y28237062D01*
X10724484Y28236223D01*
X10738309Y28230860D01*
X10758335Y28223115D01*
X10783667Y28213332D01*
X10813416Y28201854D01*
X10846687Y28189026D01*
X10882588Y28175193D01*
X10920227Y28160699D01*
X10958711Y28145887D01*
X10991414Y28133272D01*
X11031711Y28117608D01*
X11065286Y28104384D01*
X11092500Y28093452D01*
X11113710Y28084662D01*
X11129273Y28077866D01*
X11139548Y28072913D01*
X11144895Y28069654D01*
X11145672Y28067939D01*
X11145331Y28067746D01*
X11139405Y28065218D01*
X11126917Y28060271D01*
X11108503Y28053145D01*
X11084802Y28044084D01*
X11056450Y28033328D01*
X11024085Y28021121D01*
X10988346Y28007704D01*
X10949868Y27993319D01*
X10909291Y27978208D01*
X10678382Y27892383D01*
X10678382Y27768234D01*
X10678400Y27751318D01*
X10678520Y27722419D01*
X10678739Y27696693D01*
X10679045Y27675068D01*
X10679420Y27658474D01*
X10679852Y27647837D01*
X10680325Y27644085D01*
X10680389Y27644099D01*
X10684938Y27645706D01*
X10696281Y27649867D01*
X10713945Y27656403D01*
X10737458Y27665137D01*
X10766346Y27675893D01*
X10800137Y27688496D01*
X10838356Y27702767D01*
X10880532Y27718531D01*
X10926192Y27735611D01*
X10974861Y27753831D01*
X11026069Y27773015D01*
X11079340Y27792985D01*
X11137017Y27814611D01*
X11193092Y27835626D01*
X11242662Y27854178D01*
X11286149Y27870416D01*
X11323974Y27884487D01*
X11356560Y27896538D01*
X11384327Y27906715D01*
X11407700Y27915166D01*
X11427098Y27922040D01*
X11442944Y27927482D01*
X11455660Y27931639D01*
X11465667Y27934661D01*
X11473387Y27936692D01*
X11479244Y27937881D01*
X11483657Y27938375D01*
X11487051Y27938321D01*
X11489844Y27937867D01*
X11492461Y27937159D01*
X11492761Y27937070D01*
X11499305Y27935057D01*
X11512788Y27930871D01*
X11532751Y27924651D01*
X11558732Y27916545D01*
X11576875Y27910880D01*
X11590273Y27906696D01*
X11626912Y27895247D01*
X11668190Y27882342D01*
X11713646Y27868126D01*
X11762821Y27852741D01*
X11815254Y27836332D01*
X11870484Y27819043D01*
X11928053Y27801018D01*
X11987499Y27782400D01*
X11997290Y27779333D01*
X12056140Y27760907D01*
X12112853Y27743162D01*
X12166988Y27726235D01*
X12218100Y27710265D01*
X12265747Y27695389D01*
X12309486Y27681746D01*
X12348872Y27669474D01*
X12383463Y27658711D01*
X12412816Y27649595D01*
X12436486Y27642263D01*
X12454032Y27636857D01*
X12465009Y27633511D01*
X12468974Y27632366D01*
X12469190Y27632804D01*
X12469798Y27638971D01*
X12470339Y27651668D01*
X12470797Y27669936D01*
X12471147Y27692817D01*
X12471371Y27719353D01*
X12471447Y27748584D01*
X12471433Y27864802D01*
X12163020Y27974043D01*
X12132876Y27984733D01*
X12087322Y28000941D01*
X12044327Y28016302D01*
X12004425Y28030622D01*
X11968151Y28043705D01*
X11936038Y28055359D01*
X11908623Y28065388D01*
X11886439Y28073599D01*
X11870021Y28079797D01*
X11859903Y28083788D01*
X11856619Y28085378D01*
X11858114Y28086058D01*
X11866147Y28089241D01*
X11880639Y28094811D01*
X11901048Y28102565D01*
X11926832Y28112300D01*
X11957450Y28123811D01*
X11992358Y28136895D01*
X12031017Y28151349D01*
X12072883Y28166968D01*
X12117415Y28183550D01*
X12164070Y28200891D01*
X12469508Y28314310D01*
X12470537Y28440085D01*
X12471569Y28565860D01*
X12441240Y28554654D01*
X12436210Y28552779D01*
X12423500Y28548010D01*
X12404331Y28540801D01*
X12379185Y28531334D01*
X12348545Y28519790D01*
X12312894Y28506352D01*
X12272715Y28491202D01*
X12228492Y28474523D01*
X12180708Y28456495D01*
X12129845Y28437302D01*
X12076387Y28417126D01*
X12020816Y28396148D01*
X11963617Y28374552D01*
X11516324Y28205656D01*
X11428428Y28235018D01*
X11417884Y28238545D01*
X11396214Y28245810D01*
X11368346Y28255167D01*
X11335007Y28266369D01*
X11296923Y28279174D01*
X11254820Y28293338D01*
X11209426Y28308615D01*
X11161466Y28324761D01*
X11111667Y28341532D01*
X11060755Y28358683D01*
X11009457Y28375970D01*
X10678382Y28487561D01*
X10001310Y28487561D01*
X10001042Y28488677D01*
X9998361Y28491793D01*
X9998137Y28491858D01*
X9996596Y28496307D01*
X9995544Y28506373D01*
X9995198Y28520115D01*
X9994913Y28529366D01*
X9992864Y28551131D01*
X9988995Y28578971D01*
X9983484Y28611963D01*
X9976508Y28649175D01*
X9968244Y28689682D01*
X9958869Y28732558D01*
X9948561Y28776874D01*
X9937497Y28821703D01*
X9916633Y28898894D01*
X9875896Y29029325D01*
X9828044Y29160975D01*
X9773326Y29293255D01*
X9711989Y29425584D01*
X9660155Y29526480D01*
X10690101Y29526480D01*
X10690101Y29381407D01*
X11014340Y29383234D01*
X11043615Y29383389D01*
X11091909Y29383599D01*
X11137556Y29383746D01*
X11179982Y29383824D01*
X11218615Y29383841D01*
X11252879Y29383793D01*
X11282200Y29383683D01*
X11306005Y29383512D01*
X11323719Y29383281D01*
X11334768Y29382990D01*
X11338579Y29382641D01*
X11338360Y29382436D01*
X11333311Y29379426D01*
X11321949Y29373097D01*
X11304747Y29363706D01*
X11282186Y29351509D01*
X11254744Y29336760D01*
X11222899Y29319717D01*
X11187127Y29300635D01*
X11147908Y29279770D01*
X11105718Y29257377D01*
X11061036Y29233713D01*
X11014340Y29209034D01*
X10690101Y29037846D01*
X10690101Y28893278D01*
X10690115Y28859789D01*
X10690185Y28828653D01*
X10690346Y28803963D01*
X10690633Y28784993D01*
X10691079Y28771019D01*
X10691722Y28761316D01*
X10692594Y28755157D01*
X10693731Y28751817D01*
X10695167Y28750572D01*
X10696938Y28750695D01*
X10699047Y28751575D01*
X10707835Y28755514D01*
X10722969Y28762415D01*
X10744004Y28772067D01*
X10770497Y28784269D01*
X10802004Y28798815D01*
X10838082Y28815499D01*
X10878286Y28834116D01*
X10922173Y28854461D01*
X10969299Y28876329D01*
X11019221Y28899514D01*
X11071494Y28923811D01*
X11125675Y28949015D01*
X11162156Y28965985D01*
X11215009Y28990545D01*
X11265616Y29014032D01*
X11313539Y29036243D01*
X11358336Y29056976D01*
X11399570Y29076028D01*
X11436800Y29093196D01*
X11469586Y29108278D01*
X11497490Y29121071D01*
X11520071Y29131372D01*
X11536890Y29138979D01*
X11547507Y29143689D01*
X11551483Y29145300D01*
X11552532Y29144920D01*
X11559749Y29141932D01*
X11573352Y29136159D01*
X11592821Y29127827D01*
X11617634Y29117163D01*
X11647276Y29104391D01*
X11681224Y29089738D01*
X11718958Y29073428D01*
X11759960Y29055689D01*
X11803709Y29036745D01*
X11849686Y29016822D01*
X11897372Y28996146D01*
X11946245Y28974942D01*
X11995786Y28953437D01*
X12045477Y28931855D01*
X12094797Y28910423D01*
X12143227Y28889367D01*
X12190247Y28868912D01*
X12235335Y28849283D01*
X12277974Y28830706D01*
X12317644Y28813408D01*
X12353824Y28797613D01*
X12385997Y28783548D01*
X12413639Y28771438D01*
X12436235Y28761510D01*
X12453262Y28753987D01*
X12464201Y28749096D01*
X12468533Y28747064D01*
X12468662Y28747121D01*
X12469291Y28751840D01*
X12469819Y28763383D01*
X12470233Y28780916D01*
X12470523Y28803607D01*
X12470676Y28830624D01*
X12470683Y28861136D01*
X12470531Y28894308D01*
X12469509Y29043419D01*
X12110928Y29211970D01*
X11752347Y29380520D01*
X12111904Y29381517D01*
X12471461Y29382514D01*
X12471461Y29527034D01*
X12471461Y29671554D01*
X11580781Y29671554D01*
X10690101Y29671554D01*
X10690101Y29526480D01*
X9660155Y29526480D01*
X9644283Y29557375D01*
X9570454Y29688043D01*
X9558371Y29708324D01*
X9538752Y29740678D01*
X9518648Y29773208D01*
X9498512Y29805226D01*
X9478796Y29836046D01*
X9459954Y29864984D01*
X9442437Y29891351D01*
X9426699Y29914463D01*
X9413192Y29933634D01*
X9402370Y29948175D01*
X9394684Y29957405D01*
X9390587Y29960634D01*
X9388871Y29960716D01*
X9385450Y29962013D01*
X9384647Y29965193D01*
X9386792Y29970651D01*
X9392217Y29978785D01*
X9401253Y29989991D01*
X9414232Y30004664D01*
X9431485Y30023200D01*
X9453343Y30045997D01*
X9480139Y30073449D01*
X9512203Y30105953D01*
X9552677Y30146830D01*
X9627985Y30222848D01*
X9697885Y30293349D01*
X9762418Y30358373D01*
X9821623Y30417961D01*
X9875542Y30472154D01*
X9924215Y30520992D01*
X9967685Y30564517D01*
X10005990Y30602769D01*
X10039171Y30635788D01*
X10067270Y30663616D01*
X10090328Y30686293D01*
X10108384Y30703860D01*
X10121480Y30716357D01*
X10129656Y30723825D01*
X10132953Y30726306D01*
X10135533Y30724765D01*
X10142714Y30718159D01*
X10153252Y30707253D01*
X10166202Y30693037D01*
X10180619Y30676498D01*
X10187275Y30668760D01*
X10239511Y30611271D01*
X10296598Y30553532D01*
X10356560Y30497405D01*
X10417418Y30444748D01*
X10477198Y30397423D01*
X10500004Y30380571D01*
X10595625Y30315927D01*
X10690101Y30260895D01*
X10695251Y30257895D01*
X10798523Y30206626D01*
X10905084Y30162273D01*
X11014575Y30124989D01*
X11126639Y30094927D01*
X11240917Y30072237D01*
X11304532Y30062707D01*
X11425143Y30049922D01*
X11543168Y30044503D01*
X11658670Y30046468D01*
X11771709Y30055831D01*
X11882347Y30072611D01*
X11990643Y30096827D01*
X12096660Y30128492D01*
X12200456Y30167625D01*
X12302094Y30214243D01*
X12401633Y30268362D01*
X12471568Y30312573D01*
X12499136Y30330000D01*
X12594661Y30399173D01*
X12688271Y30475898D01*
X12699243Y30485579D01*
X12726437Y30510523D01*
X12756690Y30539333D01*
X12788594Y30570602D01*
X12820742Y30602922D01*
X12851725Y30634888D01*
X12880135Y30665091D01*
X12904565Y30692124D01*
X12912724Y30701275D01*
X12926210Y30715835D01*
X12937657Y30727488D01*
X12946054Y30735222D01*
X12950391Y30738025D01*
X12952946Y30736548D01*
G37*
%TD*%
%LPC*%
D12*
%TO.C,SW2*%
X25342000Y2434000D03*
X17142000Y2434000D03*
D13*
X23242000Y2434000D03*
X21242000Y2434000D03*
D14*
X19242000Y2434000D03*
%TD*%
D15*
%TO.C,C8*%
X22848442Y49019000D03*
D16*
X20348442Y49019000D03*
%TD*%
D15*
%TO.C,C7*%
X14048442Y49019000D03*
D16*
X11548442Y49019000D03*
%TD*%
%TO.C,C5*%
X2697002Y49019000D03*
D15*
X5197002Y49019000D03*
%TD*%
D17*
%TO.C,J1*%
X4547001Y41111505D03*
D18*
X4547001Y43651505D03*
D19*
X2007001Y41111505D03*
X2007001Y43651505D03*
%TD*%
D20*
%TO.C,RV1*%
X2107001Y36659000D03*
X4647001Y34119000D03*
X2107001Y31579001D03*
%TD*%
D21*
%TO.C,J8*%
X11685358Y12064000D03*
D22*
X3785357Y12064000D03*
%TD*%
D23*
%TO.C,D1*%
X18567000Y8363999D03*
D24*
X18567000Y10903999D03*
%TD*%
D23*
%TO.C,D3*%
X19987000Y33934000D03*
D24*
X17447000Y33934000D03*
%TD*%
D25*
%TO.C,SW1*%
X2167000Y25383999D03*
X2167000Y21383999D03*
X2167000Y19383999D03*
X2167000Y17383999D03*
D26*
X2167000Y27483999D03*
X2167000Y15284000D03*
%TD*%
D23*
%TO.C,D2*%
X18567000Y16429001D03*
D24*
X18567000Y13889001D03*
%TD*%
D27*
%TO.C,J9*%
X10177000Y34869001D03*
D28*
X10177000Y37409001D03*
X10177000Y39949000D03*
%TD*%
%TO.C,J5*%
X30607001Y4699000D03*
X30607001Y2159000D03*
X33147001Y4699000D03*
X33147001Y2159000D03*
X35687001Y4699000D03*
X35687001Y2159000D03*
X38227001Y4699000D03*
X38227001Y2159000D03*
%TD*%
%TO.C,J6*%
X30607001Y50419000D03*
X30607001Y47879000D03*
X33147001Y50419000D03*
X33147001Y47879000D03*
X35687001Y50419000D03*
X35687001Y47879000D03*
X38227001Y50419000D03*
X38227001Y47879000D03*
%TD*%
%LPD*%
M02*
