M48
; DRILL file KiCad 10.0.0 date 2026-08-14T11:20:00
; FORMAT={-:-/ absolute / metric / decimal}
; #@! TF.CreationDate,2026-08-14T11:20:00-04:00
; #@! TF.GenerationSoftware,Kicad,Pcbnew,10.0.0
; #@! TF.FileFunction,Plated,1,4,PTH
FMAT,2
METRIC
; #@! TA.AperFunction,Plated,PTH,ViaDrill
T1C0.400
; #@! TA.AperFunction,Plated,PTH,ComponentDrill
T2C0.800
; #@! TA.AperFunction,Plated,PTH,ComponentDrill
T3C0.900
; #@! TA.AperFunction,Plated,PTH,ComponentDrill
T4C1.000
; #@! TA.AperFunction,Plated,PTH,ComponentDrill
T5C1.100
; #@! TA.AperFunction,Plated,PTH,ComponentDrill
T6C1.270
; #@! TA.AperFunction,Plated,PTH,ComponentDrill
T7C1.500
%
G90
G05
T1
X4.775Y19.325
X6.957Y24.879
X8.416Y22.239
X8.417Y19.949
X8.436Y21.109
X8.442Y16.659
X8.442Y14.985
X8.452Y29.109
X8.457Y27.989
X9.581Y23.399
X9.584Y18.794
X9.586Y27.984
X9.586Y25.659
X9.587Y21.1
X10.717Y24.522
X10.725Y22.24
X10.737Y27.989
X10.738Y19.964
X10.751Y26.839
X11.312Y32.609
X11.567Y16.659
X11.857Y27.989
X11.862Y21.117
X11.866Y23.409
X11.877Y25.692
X12.996Y24.529
X13.011Y22.244
X13.038Y26.828
X13.087Y40.759
X13.087Y39.759
X13.097Y41.909
X13.142Y18.209
X13.332Y35.444
X13.417Y14.859
X13.742Y31.434
X14.087Y40.759
X14.087Y39.759
X14.097Y41.899
X14.113Y44.919
X14.154Y23.394
X14.156Y25.699
X14.161Y21.109
X15.042Y31.434
X15.087Y40.759
X15.087Y39.759
X15.097Y41.889
X15.113Y44.909
X15.289Y24.513
X15.311Y22.244
X15.328Y26.828
X16.113Y44.899
X16.267Y17.884
X16.367Y30.609
X16.449Y23.393
X16.45Y25.683
X17.297Y39.034
X17.597Y19.949
X18.747Y30.409
X19.622Y39.034
X20.137Y42.129
X21.637Y40.584
T2
X2.107Y36.659
X2.107Y31.579
X2.167Y25.384
X2.167Y21.384
X2.167Y19.384
X2.167Y17.384
X2.697Y49.019
X4.647Y34.119
X5.197Y49.019
X11.548Y49.019
X14.048Y49.019
X20.348Y49.019
X22.848Y49.019
T3
X17.447Y33.934
X18.567Y16.429
X18.567Y13.889
X18.567Y10.904
X18.567Y8.364
X19.242Y2.434
X19.987Y33.934
X21.242Y2.434
X23.242Y2.434
T4
X10.177Y39.949
X10.177Y37.409
X10.177Y34.869
X30.607Y50.419
X30.607Y47.879
X30.607Y4.699
X30.607Y2.159
X33.147Y50.419
X33.147Y47.879
X33.147Y4.699
X33.147Y2.159
X35.687Y50.419
X35.687Y47.879
X35.687Y4.699
X35.687Y2.159
X38.227Y50.419
X38.227Y47.879
X38.227Y4.699
X38.227Y2.159
T5
X4.547Y43.652
X4.547Y41.112
T7
X2.167Y27.484
X2.167Y15.284
X17.142Y2.434
X25.342Y2.434
T6
G00X5.765Y12.064
M15
G01X1.805Y12.064
M16
G05
G00X13.665Y12.064
M15
G01X9.705Y12.064
M16
G05
M30
