%TF.GenerationSoftware,KiCad,Pcbnew,10.0.0*%
%TF.CreationDate,2026-08-13T17:01:19-04:00*%
%TF.ProjectId,PWR_RPM5.0_AP2114,5057525f-5250-44d3-952e-305f41503231,rev?*%
%TF.SameCoordinates,Original*%
%TF.FileFunction,Paste,Top*%
%TF.FilePolarity,Positive*%
%FSLAX46Y46*%
G04 Gerber Fmt 4.6, Leading zero omitted, Abs format (unit mm)*
G04 Created by KiCad (PCBNEW 10.0.0) date 2026-08-13 17:01:19*
%MOMM*%
%LPD*%
G01*
G04 APERTURE LIST*
G04 Aperture macros list*
%AMRoundRect*
0 Rectangle with rounded corners*
0 $1 Rounding radius*
0 $2 $3 $4 $5 $6 $7 $8 $9 X,Y pos of 4 corners*
0 Add a 4 corners polygon primitive as box body*
4,1,4,$2,$3,$4,$5,$6,$7,$8,$9,$2,$3,0*
0 Add four circle primitives for the rounded corners*
1,1,$1+$1,$2,$3*
1,1,$1+$1,$4,$5*
1,1,$1+$1,$6,$7*
1,1,$1+$1,$8,$9*
0 Add four rect primitives between the rounded corners*
20,1,$1+$1,$2,$3,$4,$5,0*
20,1,$1+$1,$4,$5,$6,$7,0*
20,1,$1+$1,$6,$7,$8,$9,0*
20,1,$1+$1,$8,$9,$2,$3,0*%
G04 Aperture macros list end*
%ADD10RoundRect,0.135000X0.185000X-0.135000X0.185000X0.135000X-0.185000X0.135000X-0.185000X-0.135000X0*%
%ADD11R,1.060000X1.060000*%
%ADD12RoundRect,0.250000X0.650000X-0.412500X0.650000X0.412500X-0.650000X0.412500X-0.650000X-0.412500X0*%
%ADD13RoundRect,0.135000X0.135000X0.185000X-0.135000X0.185000X-0.135000X-0.185000X0.135000X-0.185000X0*%
%ADD14RoundRect,0.225000X-0.250000X0.225000X-0.250000X-0.225000X0.250000X-0.225000X0.250000X0.225000X0*%
%ADD15RoundRect,0.135000X-0.185000X0.135000X-0.185000X-0.135000X0.185000X-0.135000X0.185000X0.135000X0*%
%ADD16RoundRect,0.225000X0.225000X0.250000X-0.225000X0.250000X-0.225000X-0.250000X0.225000X-0.250000X0*%
%ADD17RoundRect,0.500000X1.400000X-0.500000X1.400000X0.500000X-1.400000X0.500000X-1.400000X-0.500000X0*%
%ADD18RoundRect,0.375000X0.375000X-0.625000X0.375000X0.625000X-0.375000X0.625000X-0.375000X-0.625000X0*%
%ADD19RoundRect,0.135000X-0.135000X-0.185000X0.135000X-0.185000X0.135000X0.185000X-0.135000X0.185000X0*%
%ADD20RoundRect,0.250000X0.412500X0.650000X-0.412500X0.650000X-0.412500X-0.650000X0.412500X-0.650000X0*%
G04 APERTURE END LIST*
D10*
%TO.C,R4*%
X172769999Y-96535000D03*
X172769999Y-97554998D03*
%TD*%
D11*
%TO.C,U1*%
X176094052Y-84805000D03*
X176094053Y-87095000D03*
X176094052Y-89385000D03*
X176094053Y-91675000D03*
X176094052Y-93965000D03*
X173804052Y-84804999D03*
X173804052Y-87095000D03*
X173804053Y-89385000D03*
X173804052Y-91675000D03*
X173804052Y-93965001D03*
X171514052Y-84805000D03*
X171514052Y-87094999D03*
X171514052Y-89385000D03*
X171514052Y-91675001D03*
X171514052Y-93965000D03*
X169224052Y-84804999D03*
X169224052Y-87095000D03*
X169224051Y-89385000D03*
X169224052Y-91675000D03*
X169224052Y-93965001D03*
X166934052Y-84805000D03*
X166934051Y-87095000D03*
X166934052Y-89385000D03*
X166934051Y-91675000D03*
X166934052Y-93965000D03*
%TD*%
D12*
%TO.C,C12*%
X179049999Y-71785000D03*
X179049999Y-74910000D03*
%TD*%
D13*
%TO.C,R3*%
X163260000Y-94586336D03*
X164279998Y-94586336D03*
%TD*%
D14*
%TO.C,C11*%
X171094999Y-81310000D03*
X171094999Y-79760000D03*
%TD*%
%TO.C,C13*%
X169845000Y-81310000D03*
X169845000Y-79760000D03*
%TD*%
D15*
%TO.C,R5*%
X172194999Y-81494999D03*
X172194999Y-80475001D03*
%TD*%
D12*
%TO.C,C10*%
X176949999Y-73347500D03*
X176949999Y-76472500D03*
%TD*%
D16*
%TO.C,C9*%
X167144999Y-98934142D03*
X168694999Y-98934142D03*
%TD*%
D17*
%TO.C,U2*%
X172349999Y-70510001D03*
D18*
X174649999Y-76810000D03*
X172349999Y-76809999D03*
X170049999Y-76810000D03*
%TD*%
D19*
%TO.C,R6*%
X164304998Y-89955753D03*
X163285000Y-89955753D03*
%TD*%
D20*
%TO.C,C6*%
X167357499Y-97260000D03*
X170482499Y-97260000D03*
%TD*%
D15*
%TO.C,R1*%
X171769999Y-97554998D03*
X171769999Y-96535000D03*
%TD*%
M02*
