%TF.GenerationSoftware,KiCad,Pcbnew,10.0.0*%
%TF.CreationDate,2026-08-13T17:01:19-04:00*%
%TF.ProjectId,PWR_RPM5.0_AP2114,5057525f-5250-44d3-952e-305f41503231,rev?*%
%TF.SameCoordinates,Original*%
%TF.FileFunction,Copper,L3,Inr*%
%TF.FilePolarity,Positive*%
%FSLAX46Y46*%
G04 Gerber Fmt 4.6, Leading zero omitted, Abs format (unit mm)*
G04 Created by KiCad (PCBNEW 10.0.0) date 2026-08-13 17:01:19*
%MOMM*%
%LPD*%
G01*
G04 APERTURE LIST*
G04 Aperture macros list*
%AMRoundRect*
0 Rectangle with rounded corners*
0 $1 Rounding radius*
0 $2 $3 $4 $5 $6 $7 $8 $9 X,Y pos of 4 corners*
0 Add a 4 corners polygon primitive as box body*
4,1,4,$2,$3,$4,$5,$6,$7,$8,$9,$2,$3,0*
0 Add four circle primitives for the rounded corners*
1,1,$1+$1,$2,$3*
1,1,$1+$1,$4,$5*
1,1,$1+$1,$6,$7*
1,1,$1+$1,$8,$9*
0 Add four rect primitives between the rounded corners*
20,1,$1+$1,$2,$3,$4,$5,0*
20,1,$1+$1,$4,$5,$6,$7,0*
20,1,$1+$1,$6,$7,$8,$9,0*
20,1,$1+$1,$8,$9,$2,$3,0*%
G04 Aperture macros list end*
%TA.AperFunction,ComponentPad*%
%ADD10R,1.700000X1.700000*%
%TD*%
%TA.AperFunction,ComponentPad*%
%ADD11RoundRect,0.250000X0.550000X-0.550000X0.550000X0.550000X-0.550000X0.550000X-0.550000X-0.550000X0*%
%TD*%
%TA.AperFunction,ComponentPad*%
%ADD12C,2.200000*%
%TD*%
%TA.AperFunction,ComponentPad*%
%ADD13RoundRect,0.250000X-0.550000X-0.550000X0.550000X-0.550000X0.550000X0.550000X-0.550000X0.550000X0*%
%TD*%
%TA.AperFunction,ComponentPad*%
%ADD14C,1.800000*%
%TD*%
%TA.AperFunction,ComponentPad*%
%ADD15O,6.540000X3.270000*%
%TD*%
%TA.AperFunction,ComponentPad*%
%ADD16C,1.700000*%
%TD*%
%TA.AperFunction,ViaPad*%
%ADD17C,0.800000*%
%TD*%
G04 APERTURE END LIST*
D10*
%TO.N,+5V0*%
%TO.C,J9*%
X167529999Y-79049999D03*
%TD*%
D11*
%TO.N,+3V3*%
%TO.C,C8*%
X177546000Y-66832748D03*
%TD*%
D12*
%TO.N,/PWR_IN*%
%TO.C,J1*%
X159374999Y-65985000D03*
%TD*%
D13*
%TO.N,/PWR_IN*%
%TO.C,C5*%
X160245000Y-73585000D03*
%TD*%
D14*
%TO.N,+3V3*%
%TO.C,D3*%
X174799999Y-79985000D03*
%TD*%
D15*
%TO.N,/PWR_IN*%
%TO.C,J8*%
X168938357Y-101855000D03*
%TD*%
D11*
%TO.N,+5V0*%
%TO.C,C7*%
X168151133Y-66832748D03*
%TD*%
D14*
%TO.N,+5V0*%
%TO.C,D2*%
X175919999Y-100029999D03*
%TD*%
D16*
%TO.N,+5V0*%
%TO.C,J5*%
X195580000Y-111760000D03*
X193040000Y-111760000D03*
X190500000Y-111760000D03*
X187960000Y-111760000D03*
%TD*%
%TO.N,+3V3*%
%TO.C,J6*%
X193040000Y-66040000D03*
X190500000Y-66040000D03*
X187960000Y-66040000D03*
%TD*%
D17*
%TO.N,+5V0*%
X169209999Y-85930001D03*
X176974999Y-74885000D03*
X165804999Y-84810000D03*
X168089999Y-85930000D03*
X165809999Y-85930000D03*
X164309999Y-89040000D03*
X166939052Y-85935000D03*
X174649999Y-74885000D03*
%TO.N,/PWR_IN*%
X165768953Y-91680447D03*
X166936677Y-95125000D03*
X165789052Y-92810000D03*
X168101393Y-93954999D03*
X166934051Y-90520000D03*
X165769500Y-93969691D03*
X170494999Y-95710000D03*
X168104052Y-91679999D03*
X166940354Y-92818812D03*
X168919999Y-97260000D03*
%TO.N,+3V3*%
X171439999Y-74160000D03*
X170684998Y-78474999D03*
X170439999Y-74160000D03*
X171439999Y-73160000D03*
X172439999Y-74160000D03*
X170439999Y-73160000D03*
X172439999Y-73160000D03*
X178989999Y-73335000D03*
%TD*%
%TA.AperFunction,Conductor*%
%TO.N,/PWR_IN*%
G36*
X163456504Y-61719343D02*
G01*
X163469191Y-61723466D01*
X163518691Y-61759427D01*
X163518694Y-61759430D01*
X163521691Y-61763555D01*
X163540598Y-61821746D01*
X163537608Y-61830946D01*
X163544131Y-73088032D01*
X163539295Y-73118652D01*
X163536750Y-73126493D01*
X163500802Y-73176005D01*
X163442617Y-73194930D01*
X163384422Y-73176041D01*
X163379196Y-73172247D01*
X163355049Y-73147140D01*
X163341253Y-73126493D01*
X163336581Y-73119500D01*
X163336581Y-73119499D01*
X163327955Y-73106589D01*
X163327952Y-73106586D01*
X163327951Y-73106584D01*
X163223416Y-73002049D01*
X163100495Y-72919916D01*
X163100493Y-72919915D01*
X162963914Y-72863342D01*
X162963912Y-72863341D01*
X162818920Y-72834500D01*
X162818918Y-72834500D01*
X162671082Y-72834500D01*
X162671081Y-72834500D01*
X162671078Y-72834500D01*
X162526085Y-72863342D01*
X162526083Y-72863342D01*
X162389510Y-72919912D01*
X162389498Y-72919918D01*
X162266586Y-73002047D01*
X162162047Y-73106586D01*
X162079918Y-73229498D01*
X162079912Y-73229510D01*
X162023342Y-73366083D01*
X162023342Y-73366085D01*
X161994500Y-73511078D01*
X161994500Y-73511081D01*
X161994500Y-73511082D01*
X161994500Y-73658918D01*
X162023342Y-73803913D01*
X162079916Y-73940495D01*
X162162049Y-74063416D01*
X162266584Y-74167951D01*
X162389505Y-74250084D01*
X162526087Y-74306658D01*
X162671082Y-74335500D01*
X162671083Y-74335500D01*
X162818917Y-74335500D01*
X162818918Y-74335500D01*
X162963913Y-74306658D01*
X163100495Y-74250084D01*
X163223416Y-74167951D01*
X163327951Y-74063416D01*
X163354412Y-74023814D01*
X163375439Y-74001067D01*
X163381911Y-73995965D01*
X163439314Y-73974788D01*
X163498202Y-73991397D01*
X163536080Y-74039446D01*
X163538323Y-74045524D01*
X163544441Y-74079756D01*
X163546441Y-80455536D01*
X163541604Y-80486133D01*
X163537486Y-80498819D01*
X163501540Y-80548327D01*
X163494319Y-80553577D01*
X163455417Y-80570601D01*
X163346914Y-80592184D01*
X163346912Y-80592185D01*
X163192136Y-80656295D01*
X163052837Y-80749373D01*
X162934372Y-80867838D01*
X162841294Y-81007137D01*
X162777185Y-81161911D01*
X162777182Y-81161921D01*
X162744499Y-81326227D01*
X162744499Y-81326230D01*
X162744499Y-81493769D01*
X162777182Y-81658079D01*
X162777184Y-81658085D01*
X162841295Y-81812862D01*
X162841296Y-81812863D01*
X162934373Y-81952162D01*
X163052837Y-82070626D01*
X163192136Y-82163703D01*
X163346917Y-82227816D01*
X163442197Y-82246768D01*
X163451970Y-82248712D01*
X163481029Y-82259433D01*
X163492666Y-82265950D01*
X163534198Y-82310877D01*
X163537943Y-82319000D01*
X163547038Y-82360419D01*
X163548637Y-87456071D01*
X163548952Y-88461082D01*
X163549375Y-89810000D01*
X167649071Y-89810000D01*
X167677239Y-89814092D01*
X167699166Y-89820601D01*
X167726277Y-89834425D01*
X167726363Y-89834278D01*
X167729203Y-89835917D01*
X167731257Y-89836965D01*
X167731985Y-89837524D01*
X167742538Y-89843616D01*
X167751704Y-89848908D01*
X167762495Y-89856121D01*
X167763319Y-89856754D01*
X167763321Y-89856756D01*
X167770754Y-89862462D01*
X167772713Y-89863967D01*
X167782457Y-89872520D01*
X173317238Y-95412796D01*
X173335432Y-95437865D01*
X173341016Y-95448838D01*
X173350557Y-95509275D01*
X173324586Y-95561896D01*
X173317666Y-95569186D01*
X173295363Y-95586765D01*
X173281993Y-95594484D01*
X173281988Y-95594487D01*
X173179482Y-95696993D01*
X173107017Y-95822505D01*
X173094313Y-95869917D01*
X173069499Y-95962525D01*
X173069499Y-96107474D01*
X173102584Y-96230949D01*
X173107017Y-96247493D01*
X173179484Y-96373008D01*
X173179486Y-96373010D01*
X173179488Y-96373012D01*
X173179490Y-96373015D01*
X173281984Y-96475509D01*
X173281986Y-96475510D01*
X173281988Y-96475512D01*
X173282535Y-96475907D01*
X173284537Y-96476984D01*
X173407510Y-96547982D01*
X173407511Y-96547982D01*
X173407514Y-96547984D01*
X173547524Y-96585500D01*
X173547525Y-96585500D01*
X173605319Y-96585500D01*
X173635907Y-96590343D01*
X173648594Y-96594466D01*
X173698094Y-96630427D01*
X173698095Y-96630428D01*
X173701090Y-96634550D01*
X173719999Y-96692740D01*
X173719999Y-110646969D01*
X173715153Y-110677563D01*
X173707606Y-110700789D01*
X173683458Y-110740196D01*
X173655585Y-110768069D01*
X173553768Y-110908208D01*
X173553764Y-110908214D01*
X173477748Y-111057407D01*
X173476999Y-111058685D01*
X173475122Y-111062561D01*
X173421595Y-111227297D01*
X173421594Y-111227302D01*
X173394499Y-111398381D01*
X173394499Y-111571617D01*
X173421594Y-111742696D01*
X173421595Y-111742701D01*
X173475124Y-111907443D01*
X173476994Y-111911303D01*
X173477747Y-111912590D01*
X173553767Y-112061788D01*
X173655585Y-112201928D01*
X173655587Y-112201930D01*
X173679918Y-112226262D01*
X173698122Y-112251318D01*
X173709208Y-112273075D01*
X173719999Y-112318021D01*
X173719999Y-113303819D01*
X173715153Y-113334412D01*
X173711031Y-113347098D01*
X173675079Y-113396589D01*
X173670958Y-113399584D01*
X173612770Y-113418500D01*
X157968179Y-113418500D01*
X157937586Y-113413654D01*
X157924900Y-113409532D01*
X157875400Y-113373568D01*
X157875393Y-113373558D01*
X157872399Y-113369436D01*
X157853499Y-113311256D01*
X157853499Y-101799018D01*
X158056854Y-101799018D01*
X158072317Y-101946614D01*
X158072380Y-101947229D01*
X158072856Y-101952067D01*
X158110728Y-102142457D01*
X158110728Y-102142459D01*
X158185014Y-102321804D01*
X158185016Y-102321806D01*
X158185017Y-102321808D01*
X158185018Y-102321809D01*
X158292868Y-102483219D01*
X158430137Y-102620488D01*
X158591547Y-102728338D01*
X158770896Y-102802627D01*
X158961293Y-102840500D01*
X158961294Y-102840500D01*
X163115418Y-102840500D01*
X163115419Y-102840500D01*
X163305816Y-102802627D01*
X163485165Y-102728338D01*
X163646575Y-102620488D01*
X163783844Y-102483219D01*
X163891694Y-102321809D01*
X163965983Y-102142460D01*
X164003856Y-101952063D01*
X164003856Y-101757937D01*
X163965983Y-101567540D01*
X163891694Y-101388191D01*
X163783844Y-101226781D01*
X163646575Y-101089512D01*
X163646571Y-101089509D01*
X163542305Y-101019841D01*
X163529799Y-101003978D01*
X163485166Y-100981661D01*
X163305814Y-100907372D01*
X163115423Y-100869500D01*
X163115421Y-100869500D01*
X163115419Y-100869500D01*
X158961293Y-100869500D01*
X158961290Y-100869500D01*
X158961287Y-100869500D01*
X158770897Y-100907372D01*
X158770895Y-100907372D01*
X158591549Y-100981659D01*
X158430143Y-101089506D01*
X158292862Y-101226787D01*
X158185015Y-101388193D01*
X158110728Y-101567539D01*
X158110728Y-101567541D01*
X158072856Y-101757931D01*
X158072380Y-101762770D01*
X158068011Y-101772759D01*
X158068011Y-101783663D01*
X158056854Y-101799018D01*
X157853499Y-101799018D01*
X157853499Y-98548381D01*
X158419499Y-98548381D01*
X158419499Y-98721617D01*
X158446594Y-98892696D01*
X158446595Y-98892701D01*
X158446597Y-98892706D01*
X158498339Y-99051952D01*
X158500124Y-99057443D01*
X158501994Y-99061303D01*
X158502748Y-99062591D01*
X158578764Y-99211784D01*
X158578767Y-99211788D01*
X158680585Y-99351928D01*
X158803071Y-99474414D01*
X158943211Y-99576232D01*
X159092406Y-99652250D01*
X159098253Y-99655229D01*
X159101226Y-99656067D01*
X159262292Y-99708401D01*
X159262296Y-99708402D01*
X159262302Y-99708403D01*
X159433382Y-99735500D01*
X159606613Y-99735500D01*
X159606616Y-99735500D01*
X159745842Y-99713447D01*
X159777701Y-99708402D01*
X159777705Y-99708401D01*
X159942437Y-99654876D01*
X159942437Y-99654875D01*
X159943181Y-99654634D01*
X159945898Y-99653113D01*
X160096781Y-99576235D01*
X160096783Y-99576234D01*
X160096782Y-99576234D01*
X160096787Y-99576232D01*
X160236927Y-99474414D01*
X160359413Y-99351928D01*
X160461231Y-99211788D01*
X160539872Y-99057445D01*
X160539873Y-99057440D01*
X160539875Y-99057438D01*
X160541100Y-99053664D01*
X160541371Y-99053049D01*
X160541658Y-99051952D01*
X160593396Y-98892718D01*
X160593400Y-98892706D01*
X160593401Y-98892700D01*
X160598316Y-98861669D01*
X160598317Y-98861664D01*
X165244499Y-98861664D01*
X165244499Y-98861667D01*
X165244499Y-99006617D01*
X165274086Y-99117038D01*
X165278222Y-99132472D01*
X165282016Y-99146633D01*
X165282017Y-99146634D01*
X165354484Y-99272150D01*
X165354486Y-99272152D01*
X165354488Y-99272154D01*
X165354490Y-99272157D01*
X165456984Y-99374651D01*
X165456986Y-99374652D01*
X165456988Y-99374654D01*
X165457535Y-99375049D01*
X165459537Y-99376126D01*
X165582510Y-99447124D01*
X165582511Y-99447124D01*
X165582514Y-99447126D01*
X165722524Y-99484642D01*
X165722525Y-99484642D01*
X165867473Y-99484642D01*
X165867474Y-99484642D01*
X166007484Y-99447126D01*
X166007485Y-99447125D01*
X166007487Y-99447124D01*
X166007488Y-99447124D01*
X166126879Y-99378193D01*
X166129767Y-99376790D01*
X166130553Y-99376273D01*
X166135562Y-99373179D01*
X166136861Y-99372428D01*
X166142219Y-99365445D01*
X166235508Y-99272157D01*
X166270364Y-99211785D01*
X166307981Y-99146631D01*
X166307981Y-99146629D01*
X166307983Y-99146627D01*
X166345499Y-99006617D01*
X166345499Y-98987525D01*
X170219499Y-98987525D01*
X170219499Y-99132474D01*
X170240751Y-99211788D01*
X170257017Y-99272493D01*
X170329484Y-99398008D01*
X170329486Y-99398010D01*
X170329488Y-99398012D01*
X170329490Y-99398015D01*
X170431984Y-99500509D01*
X170431986Y-99500510D01*
X170431988Y-99500512D01*
X170432535Y-99500907D01*
X170434537Y-99501984D01*
X170557510Y-99572982D01*
X170557511Y-99572982D01*
X170557514Y-99572984D01*
X170697524Y-99610500D01*
X170697525Y-99610500D01*
X170842473Y-99610500D01*
X170842474Y-99610500D01*
X170982484Y-99572984D01*
X170982485Y-99572983D01*
X170982487Y-99572982D01*
X170982488Y-99572982D01*
X171101879Y-99504051D01*
X171104767Y-99502648D01*
X171105553Y-99502131D01*
X171110562Y-99499037D01*
X171111861Y-99498286D01*
X171117219Y-99491303D01*
X171210508Y-99398015D01*
X171223997Y-99374651D01*
X171282981Y-99272489D01*
X171282981Y-99272487D01*
X171282983Y-99272485D01*
X171320499Y-99132475D01*
X171320499Y-98987525D01*
X171282983Y-98847515D01*
X171282981Y-98847512D01*
X171282981Y-98847510D01*
X171282976Y-98847502D01*
X171282655Y-98846792D01*
X171281396Y-98844764D01*
X171211984Y-98724539D01*
X171211984Y-98724540D01*
X171210511Y-98721989D01*
X171210509Y-98721987D01*
X171210508Y-98721985D01*
X171108014Y-98619491D01*
X171108011Y-98619489D01*
X171108009Y-98619487D01*
X171039773Y-98580091D01*
X171018740Y-98556731D01*
X170952896Y-98539087D01*
X170952895Y-98539087D01*
X170842474Y-98509500D01*
X170842472Y-98509500D01*
X170697522Y-98509500D01*
X170635787Y-98526041D01*
X170635786Y-98526040D01*
X170557511Y-98547015D01*
X170557505Y-98547018D01*
X170431992Y-98619483D01*
X170329482Y-98721993D01*
X170257017Y-98847505D01*
X170236041Y-98925787D01*
X170219499Y-98987525D01*
X166345499Y-98987525D01*
X166345499Y-98861667D01*
X166307983Y-98721657D01*
X166307981Y-98721654D01*
X166307981Y-98721652D01*
X166307976Y-98721644D01*
X166307655Y-98720934D01*
X166306396Y-98718906D01*
X166236984Y-98598681D01*
X166236984Y-98598682D01*
X166235511Y-98596131D01*
X166235509Y-98596129D01*
X166235508Y-98596127D01*
X166133014Y-98493633D01*
X166133011Y-98493631D01*
X166133009Y-98493629D01*
X166064773Y-98454233D01*
X166043740Y-98430873D01*
X165977896Y-98413229D01*
X165977895Y-98413229D01*
X165867474Y-98383642D01*
X165867472Y-98383642D01*
X165722522Y-98383642D01*
X165660787Y-98400183D01*
X165660786Y-98400182D01*
X165582511Y-98421157D01*
X165582505Y-98421160D01*
X165456992Y-98493625D01*
X165354482Y-98596135D01*
X165282018Y-98721646D01*
X165282016Y-98721650D01*
X165282016Y-98721652D01*
X165250387Y-98839692D01*
X165250387Y-98839693D01*
X165250386Y-98839692D01*
X165244499Y-98861664D01*
X160598317Y-98861664D01*
X160601797Y-98839696D01*
X160601858Y-98839309D01*
X160602061Y-98838018D01*
X160602401Y-98835880D01*
X160602405Y-98835856D01*
X160602405Y-98835849D01*
X160617908Y-98737970D01*
X160620499Y-98721614D01*
X160620499Y-98548381D01*
X160593402Y-98377303D01*
X160593401Y-98377297D01*
X160593400Y-98377293D01*
X160539875Y-98212561D01*
X160539873Y-98212558D01*
X160539872Y-98212557D01*
X160539872Y-98212555D01*
X160538089Y-98209055D01*
X160537841Y-98208420D01*
X160537249Y-98207408D01*
X160461231Y-98058212D01*
X160359413Y-97918072D01*
X160236927Y-97795586D01*
X160236923Y-97795583D01*
X160236921Y-97795581D01*
X160105246Y-97699913D01*
X160105235Y-97699906D01*
X160096787Y-97693768D01*
X160096786Y-97693767D01*
X160096784Y-97693766D01*
X159947590Y-97617749D01*
X159946310Y-97617000D01*
X159942439Y-97615124D01*
X159942437Y-97615123D01*
X159866004Y-97590288D01*
X159777700Y-97561596D01*
X159777695Y-97561595D01*
X159606616Y-97534500D01*
X159606613Y-97534500D01*
X159606610Y-97534500D01*
X159433388Y-97534500D01*
X159433385Y-97534500D01*
X159433382Y-97534500D01*
X159262301Y-97561595D01*
X159262296Y-97561596D01*
X159097560Y-97615123D01*
X159093684Y-97617000D01*
X159092406Y-97617749D01*
X158943208Y-97693768D01*
X158803077Y-97795580D01*
X158680579Y-97918078D01*
X158578767Y-98058209D01*
X158502748Y-98207407D01*
X158501999Y-98208685D01*
X158500122Y-98212561D01*
X158446595Y-98377297D01*
X158446594Y-98377302D01*
X158419499Y-98548381D01*
X157853499Y-98548381D01*
X157853499Y-96461080D01*
X158769499Y-96461080D01*
X158769499Y-96608919D01*
X158798341Y-96753915D01*
X158825502Y-96819487D01*
X158854915Y-96890496D01*
X158937048Y-97013417D01*
X159041583Y-97117952D01*
X159164504Y-97200085D01*
X159301086Y-97256659D01*
X159446081Y-97285501D01*
X159446082Y-97285501D01*
X159593916Y-97285501D01*
X159593917Y-97285501D01*
X159738912Y-97256659D01*
X159875494Y-97200085D01*
X159894291Y-97187525D01*
X165244499Y-97187525D01*
X165244499Y-97332474D01*
X165277584Y-97455949D01*
X165282017Y-97472493D01*
X165354484Y-97598008D01*
X165354486Y-97598010D01*
X165354488Y-97598012D01*
X165354490Y-97598015D01*
X165456984Y-97700509D01*
X165456986Y-97700510D01*
X165456988Y-97700512D01*
X165457535Y-97700907D01*
X165459537Y-97701984D01*
X165582510Y-97772982D01*
X165582511Y-97772982D01*
X165582514Y-97772984D01*
X165722524Y-97810500D01*
X165722525Y-97810500D01*
X165867473Y-97810500D01*
X165867474Y-97810500D01*
X166007484Y-97772984D01*
X166007485Y-97772983D01*
X166007487Y-97772982D01*
X166007488Y-97772982D01*
X166126879Y-97704051D01*
X166129767Y-97702648D01*
X166130553Y-97702131D01*
X166135562Y-97699037D01*
X166136861Y-97698286D01*
X166142219Y-97691303D01*
X166235508Y-97598015D01*
X166235511Y-97598010D01*
X166307981Y-97472489D01*
X166307981Y-97472487D01*
X166307983Y-97472485D01*
X166345499Y-97332475D01*
X166345499Y-97187525D01*
X166307983Y-97047515D01*
X166307981Y-97047512D01*
X166307981Y-97047510D01*
X166307976Y-97047502D01*
X166307655Y-97046792D01*
X166306396Y-97044764D01*
X166236984Y-96924539D01*
X166236984Y-96924540D01*
X166235511Y-96921989D01*
X166235509Y-96921987D01*
X166235508Y-96921985D01*
X166133014Y-96819491D01*
X166133011Y-96819489D01*
X166133009Y-96819487D01*
X166064773Y-96780091D01*
X166043740Y-96756731D01*
X165977896Y-96739087D01*
X165977895Y-96739087D01*
X165867474Y-96709500D01*
X165867472Y-96709500D01*
X165722522Y-96709500D01*
X165660787Y-96726041D01*
X165660786Y-96726040D01*
X165582511Y-96747015D01*
X165582505Y-96747018D01*
X165456992Y-96819483D01*
X165354482Y-96921993D01*
X165282017Y-97047505D01*
X165264995Y-97111032D01*
X165244499Y-97187525D01*
X159894291Y-97187525D01*
X159998415Y-97117952D01*
X160102950Y-97013417D01*
X160185083Y-96890496D01*
X160241657Y-96753914D01*
X160270499Y-96608919D01*
X160270499Y-96461083D01*
X160241657Y-96316088D01*
X160185083Y-96179506D01*
X160102950Y-96056585D01*
X159998415Y-95952050D01*
X159875494Y-95869917D01*
X159875492Y-95869916D01*
X159738913Y-95813343D01*
X159738911Y-95813342D01*
X159593919Y-95784501D01*
X159593917Y-95784501D01*
X159446081Y-95784501D01*
X159446080Y-95784501D01*
X159446077Y-95784501D01*
X159301084Y-95813343D01*
X159301082Y-95813343D01*
X159164509Y-95869913D01*
X159164497Y-95869919D01*
X159041585Y-95952048D01*
X158937046Y-96056587D01*
X158854917Y-96179499D01*
X158854911Y-96179511D01*
X158798341Y-96316086D01*
X158798340Y-96316087D01*
X158798341Y-96316088D01*
X158769499Y-96461080D01*
X157853499Y-96461080D01*
X157853499Y-94461080D01*
X158769499Y-94461080D01*
X158769499Y-94461082D01*
X158769499Y-94461083D01*
X158769499Y-94608919D01*
X158798341Y-94753914D01*
X158854915Y-94890496D01*
X158937048Y-95013417D01*
X159041583Y-95117952D01*
X159164504Y-95200085D01*
X159301086Y-95256659D01*
X159446081Y-95285501D01*
X159446082Y-95285501D01*
X159593916Y-95285501D01*
X159593917Y-95285501D01*
X159738912Y-95256659D01*
X159875494Y-95200085D01*
X159998415Y-95117952D01*
X160102950Y-95013417D01*
X160185083Y-94890496D01*
X160241657Y-94753914D01*
X160270499Y-94608919D01*
X160270499Y-94461083D01*
X160241657Y-94316088D01*
X160185083Y-94179506D01*
X160102950Y-94056585D01*
X159998415Y-93952050D01*
X159875494Y-93869917D01*
X159875492Y-93869916D01*
X159738913Y-93813343D01*
X159738911Y-93813342D01*
X159593919Y-93784501D01*
X159593917Y-93784501D01*
X159446081Y-93784501D01*
X159446080Y-93784501D01*
X159446077Y-93784501D01*
X159301084Y-93813343D01*
X159301082Y-93813343D01*
X159164509Y-93869913D01*
X159164497Y-93869919D01*
X159041585Y-93952048D01*
X158937046Y-94056587D01*
X158854917Y-94179499D01*
X158854911Y-94179511D01*
X158798341Y-94316086D01*
X158798340Y-94316087D01*
X158798341Y-94316088D01*
X158769499Y-94461080D01*
X157853499Y-94461080D01*
X157853499Y-92461079D01*
X158769499Y-92461079D01*
X158769499Y-92608919D01*
X158798340Y-92753913D01*
X158854914Y-92890494D01*
X158854914Y-92890495D01*
X158854915Y-92890496D01*
X158937048Y-93013417D01*
X159041583Y-93117952D01*
X159164504Y-93200085D01*
X159301086Y-93256659D01*
X159446081Y-93285501D01*
X159446082Y-93285501D01*
X159593916Y-93285501D01*
X159593917Y-93285501D01*
X159738912Y-93256659D01*
X159875494Y-93200085D01*
X159998415Y-93117952D01*
X160102950Y-93013417D01*
X160185083Y-92890496D01*
X160241657Y-92753914D01*
X160246562Y-92729258D01*
X168664855Y-92729258D01*
X168664855Y-92874208D01*
X168694442Y-92984629D01*
X168699020Y-93001715D01*
X168702372Y-93014224D01*
X168702373Y-93014225D01*
X168774840Y-93139741D01*
X168774842Y-93139743D01*
X168774844Y-93139745D01*
X168774846Y-93139748D01*
X168877340Y-93242242D01*
X168877342Y-93242243D01*
X168877344Y-93242245D01*
X168877891Y-93242640D01*
X168879893Y-93243717D01*
X169002866Y-93314715D01*
X169002867Y-93314715D01*
X169002870Y-93314717D01*
X169142880Y-93352233D01*
X169142881Y-93352233D01*
X169287829Y-93352233D01*
X169287830Y-93352233D01*
X169427840Y-93314717D01*
X169427841Y-93314716D01*
X169427843Y-93314715D01*
X169427844Y-93314715D01*
X169547235Y-93245784D01*
X169550123Y-93244381D01*
X169550909Y-93243864D01*
X169555918Y-93240770D01*
X169557217Y-93240019D01*
X169562575Y-93233036D01*
X169655864Y-93139748D01*
X169728339Y-93014218D01*
X169765855Y-92874208D01*
X169765855Y-92729258D01*
X169728339Y-92589248D01*
X169728337Y-92589245D01*
X169728337Y-92589243D01*
X169728332Y-92589235D01*
X169728011Y-92588525D01*
X169726752Y-92586497D01*
X169657340Y-92466272D01*
X169657340Y-92466273D01*
X169655867Y-92463722D01*
X169655865Y-92463720D01*
X169655864Y-92463718D01*
X169553370Y-92361224D01*
X169553367Y-92361222D01*
X169553365Y-92361220D01*
X169485129Y-92321824D01*
X169464096Y-92298464D01*
X169398252Y-92280820D01*
X169398251Y-92280820D01*
X169287830Y-92251233D01*
X169287828Y-92251233D01*
X169142878Y-92251233D01*
X169081143Y-92267774D01*
X169081142Y-92267773D01*
X169002867Y-92288748D01*
X169002861Y-92288751D01*
X168877348Y-92361216D01*
X168774838Y-92463726D01*
X168702373Y-92589239D01*
X168702372Y-92589240D01*
X168697099Y-92608918D01*
X168697100Y-92608919D01*
X168664855Y-92729258D01*
X160246562Y-92729258D01*
X160270499Y-92608919D01*
X160270499Y-92461083D01*
X160241657Y-92316088D01*
X160185083Y-92179506D01*
X160102950Y-92056585D01*
X159998415Y-91952050D01*
X159875494Y-91869917D01*
X159875492Y-91869916D01*
X159738913Y-91813343D01*
X159738911Y-91813342D01*
X159593919Y-91784501D01*
X159593917Y-91784501D01*
X159446081Y-91784501D01*
X159446080Y-91784501D01*
X159446077Y-91784501D01*
X159301084Y-91813343D01*
X159301082Y-91813343D01*
X159164509Y-91869913D01*
X159164497Y-91869919D01*
X159041585Y-91952048D01*
X158937046Y-92056587D01*
X158854917Y-92179499D01*
X158854911Y-92179511D01*
X158798341Y-92316084D01*
X158798341Y-92316086D01*
X158769499Y-92461079D01*
X157853499Y-92461079D01*
X157853499Y-88461079D01*
X158769499Y-88461079D01*
X158769499Y-88461082D01*
X158769499Y-88608919D01*
X158798341Y-88753915D01*
X158826165Y-88821087D01*
X158854915Y-88890496D01*
X158937048Y-89013417D01*
X159041583Y-89117952D01*
X159164504Y-89200085D01*
X159301086Y-89256659D01*
X159446081Y-89285501D01*
X159446082Y-89285501D01*
X159593916Y-89285501D01*
X159593917Y-89285501D01*
X159738912Y-89256659D01*
X159875494Y-89200085D01*
X159998415Y-89117952D01*
X160102950Y-89013417D01*
X160185083Y-88890496D01*
X160241657Y-88753914D01*
X160270499Y-88608919D01*
X160270499Y-88461083D01*
X160241657Y-88316088D01*
X160185083Y-88179506D01*
X160102950Y-88056585D01*
X159998415Y-87952050D01*
X159875494Y-87869917D01*
X159875492Y-87869916D01*
X159738913Y-87813343D01*
X159738911Y-87813342D01*
X159593919Y-87784501D01*
X159593917Y-87784501D01*
X159446081Y-87784501D01*
X159446080Y-87784501D01*
X159446077Y-87784501D01*
X159301084Y-87813343D01*
X159301082Y-87813343D01*
X159164509Y-87869913D01*
X159164497Y-87869919D01*
X159041585Y-87952048D01*
X158937046Y-88056587D01*
X158854917Y-88179499D01*
X158854911Y-88179511D01*
X158798341Y-88316084D01*
X158798341Y-88316086D01*
X158769499Y-88461079D01*
X157853499Y-88461079D01*
X157853499Y-86348382D01*
X158419499Y-86348382D01*
X158419499Y-86521618D01*
X158446594Y-86692697D01*
X158446595Y-86692702D01*
X158446597Y-86692707D01*
X158498339Y-86851953D01*
X158500124Y-86857444D01*
X158501994Y-86861304D01*
X158502748Y-86862592D01*
X158578764Y-87011785D01*
X158578767Y-87011789D01*
X158680585Y-87151929D01*
X158803071Y-87274415D01*
X158943211Y-87376233D01*
X159092406Y-87452251D01*
X159098253Y-87455230D01*
X159101226Y-87456068D01*
X159262292Y-87508402D01*
X159262296Y-87508403D01*
X159262302Y-87508404D01*
X159433382Y-87535501D01*
X159606613Y-87535501D01*
X159606616Y-87535501D01*
X159745842Y-87513448D01*
X159777701Y-87508403D01*
X159777705Y-87508402D01*
X159942437Y-87454877D01*
X159942437Y-87454876D01*
X159943181Y-87454635D01*
X159945898Y-87453114D01*
X160096781Y-87376236D01*
X160096783Y-87376235D01*
X160096782Y-87376235D01*
X160096787Y-87376233D01*
X160236927Y-87274415D01*
X160359413Y-87151929D01*
X160461231Y-87011789D01*
X160539872Y-86857446D01*
X160539873Y-86857441D01*
X160539875Y-86857439D01*
X160541099Y-86853670D01*
X160541368Y-86853058D01*
X160541654Y-86851961D01*
X160593400Y-86692707D01*
X160593401Y-86692703D01*
X160620499Y-86521615D01*
X160620499Y-86348386D01*
X160620499Y-86348382D01*
X160593402Y-86177304D01*
X160593401Y-86177298D01*
X160593400Y-86177294D01*
X160539875Y-86012562D01*
X160539873Y-86012559D01*
X160539872Y-86012558D01*
X160539872Y-86012556D01*
X160538089Y-86009056D01*
X160537841Y-86008421D01*
X160537249Y-86007409D01*
X160461231Y-85858213D01*
X160359413Y-85718073D01*
X160236927Y-85595587D01*
X160236923Y-85595584D01*
X160236921Y-85595582D01*
X160105246Y-85499914D01*
X160105235Y-85499907D01*
X160096787Y-85493769D01*
X160096786Y-85493768D01*
X160096784Y-85493767D01*
X159947590Y-85417750D01*
X159946310Y-85417001D01*
X159942439Y-85415125D01*
X159942437Y-85415124D01*
X159866004Y-85390289D01*
X159777700Y-85361597D01*
X159777695Y-85361596D01*
X159606616Y-85334501D01*
X159606613Y-85334501D01*
X159606610Y-85334501D01*
X159433388Y-85334501D01*
X159433385Y-85334501D01*
X159433382Y-85334501D01*
X159262301Y-85361596D01*
X159262296Y-85361597D01*
X159097560Y-85415124D01*
X159093684Y-85417001D01*
X159092406Y-85417750D01*
X158943208Y-85493769D01*
X158803077Y-85595581D01*
X158680579Y-85718079D01*
X158578767Y-85858210D01*
X158502748Y-86007408D01*
X158501999Y-86008686D01*
X158500122Y-86012562D01*
X158446595Y-86177298D01*
X158446594Y-86177303D01*
X158419499Y-86348382D01*
X157853499Y-86348382D01*
X157853499Y-84625976D01*
X157858342Y-84595390D01*
X157861722Y-84584985D01*
X157897682Y-84535485D01*
X157955871Y-84516574D01*
X158007597Y-84531157D01*
X158012505Y-84534165D01*
X158030785Y-84548574D01*
X158052837Y-84570626D01*
X158192136Y-84663703D01*
X158346917Y-84727816D01*
X158511232Y-84760500D01*
X158511233Y-84760500D01*
X158678765Y-84760500D01*
X158678766Y-84760500D01*
X158843081Y-84727816D01*
X158997862Y-84663703D01*
X159137161Y-84570626D01*
X159255625Y-84452162D01*
X159348702Y-84312863D01*
X159412815Y-84158082D01*
X159445499Y-83993767D01*
X159445499Y-83826233D01*
X159412815Y-83661918D01*
X159348702Y-83507137D01*
X159255625Y-83367838D01*
X159137161Y-83249374D01*
X159055001Y-83194476D01*
X159042495Y-83178612D01*
X158997868Y-83156299D01*
X158997861Y-83156296D01*
X158843084Y-83092185D01*
X158843078Y-83092183D01*
X158760923Y-83075841D01*
X158678770Y-83059500D01*
X158678768Y-83059500D01*
X158678766Y-83059500D01*
X158511232Y-83059500D01*
X158511229Y-83059500D01*
X158511226Y-83059500D01*
X158387996Y-83084012D01*
X158346919Y-83092183D01*
X158346913Y-83092185D01*
X158346910Y-83092186D01*
X158192136Y-83156295D01*
X158052837Y-83249373D01*
X158033590Y-83268621D01*
X158008525Y-83286830D01*
X157998781Y-83291794D01*
X157938348Y-83301361D01*
X157883834Y-83273580D01*
X157857576Y-83226688D01*
X157856233Y-83221093D01*
X157853499Y-83197986D01*
X157853499Y-79625976D01*
X157858342Y-79595390D01*
X157861722Y-79584985D01*
X157897682Y-79535485D01*
X157955871Y-79516574D01*
X158007597Y-79531157D01*
X158012505Y-79534165D01*
X158030785Y-79548574D01*
X158052837Y-79570626D01*
X158192136Y-79663703D01*
X158346917Y-79727816D01*
X158511232Y-79760500D01*
X158511233Y-79760500D01*
X158678765Y-79760500D01*
X158678766Y-79760500D01*
X158843081Y-79727816D01*
X158997862Y-79663703D01*
X159137161Y-79570626D01*
X159255625Y-79452162D01*
X159348702Y-79312863D01*
X159412815Y-79158082D01*
X159445499Y-78993767D01*
X159445499Y-78826233D01*
X159412815Y-78661918D01*
X159348702Y-78507137D01*
X159255625Y-78367838D01*
X159137161Y-78249374D01*
X159044083Y-78187181D01*
X158997861Y-78156296D01*
X158997862Y-78156296D01*
X158997860Y-78156295D01*
X158843086Y-78092186D01*
X158843087Y-78092186D01*
X158843084Y-78092185D01*
X158843078Y-78092183D01*
X158760923Y-78075841D01*
X158678770Y-78059500D01*
X158678768Y-78059500D01*
X158678766Y-78059500D01*
X158511232Y-78059500D01*
X158511229Y-78059500D01*
X158511226Y-78059500D01*
X158387996Y-78084012D01*
X158346919Y-78092183D01*
X158346913Y-78092185D01*
X158346910Y-78092186D01*
X158192136Y-78156295D01*
X158052837Y-78249373D01*
X158033590Y-78268621D01*
X158008525Y-78286830D01*
X157998781Y-78291794D01*
X157938348Y-78301361D01*
X157883834Y-78273580D01*
X157857576Y-78226688D01*
X157856233Y-78221093D01*
X157853499Y-78197986D01*
X157853499Y-65896306D01*
X161014499Y-65896306D01*
X161014499Y-66073693D01*
X161015129Y-66076861D01*
X161015129Y-66076864D01*
X161047203Y-66238103D01*
X161047203Y-66238106D01*
X161049104Y-66247666D01*
X161084162Y-66332305D01*
X161115124Y-66407054D01*
X161116439Y-66410729D01*
X161116984Y-66411544D01*
X161116984Y-66411545D01*
X161215534Y-66559034D01*
X161215535Y-66559035D01*
X161340964Y-66684464D01*
X161488452Y-66783013D01*
X161652333Y-66850894D01*
X161826308Y-66885500D01*
X161826309Y-66885500D01*
X162003689Y-66885500D01*
X162003690Y-66885500D01*
X162177665Y-66850894D01*
X162341546Y-66783013D01*
X162489034Y-66684464D01*
X162614463Y-66559035D01*
X162713012Y-66411547D01*
X162780893Y-66247666D01*
X162815499Y-66073691D01*
X162815499Y-65896309D01*
X162780893Y-65722334D01*
X162714867Y-65562933D01*
X162713556Y-65559267D01*
X162614463Y-65410965D01*
X162489036Y-65285538D01*
X162489033Y-65285535D01*
X162341543Y-65186985D01*
X162341544Y-65186985D01*
X162341542Y-65186984D01*
X162177666Y-65119106D01*
X162177665Y-65119106D01*
X162119674Y-65107570D01*
X162003694Y-65084500D01*
X162003692Y-65084500D01*
X162003690Y-65084500D01*
X161826308Y-65084500D01*
X161826305Y-65084500D01*
X161826302Y-65084500D01*
X161661895Y-65117204D01*
X161661889Y-65117204D01*
X161652329Y-65119105D01*
X161492951Y-65185122D01*
X161489270Y-65186439D01*
X161340964Y-65285534D01*
X161215533Y-65410965D01*
X161116438Y-65559271D01*
X161115121Y-65562952D01*
X161049746Y-65720781D01*
X161049745Y-65720785D01*
X161049105Y-65722332D01*
X161049105Y-65722334D01*
X161014499Y-65896306D01*
X157853499Y-65896306D01*
X157853499Y-63366155D01*
X158574499Y-63366155D01*
X158574499Y-63523844D01*
X158575129Y-63527011D01*
X158603360Y-63668933D01*
X158603360Y-63668937D01*
X158605261Y-63678499D01*
X158665599Y-63824169D01*
X158665602Y-63824174D01*
X158665608Y-63824185D01*
X158718311Y-63903059D01*
X158753210Y-63955289D01*
X158864710Y-64066789D01*
X158935119Y-64113835D01*
X158995813Y-64154390D01*
X158995824Y-64154396D01*
X159049637Y-64176685D01*
X159141502Y-64214737D01*
X159296157Y-64245500D01*
X159296158Y-64245500D01*
X159453840Y-64245500D01*
X159453841Y-64245500D01*
X159608496Y-64214737D01*
X159754178Y-64154394D01*
X159885288Y-64066789D01*
X159996788Y-63955289D01*
X160084393Y-63824179D01*
X160144736Y-63678497D01*
X160175499Y-63523842D01*
X160175499Y-63366158D01*
X160175498Y-63366155D01*
X161114499Y-63366155D01*
X161114499Y-63523844D01*
X161115129Y-63527011D01*
X161143360Y-63668933D01*
X161143360Y-63668937D01*
X161145261Y-63678499D01*
X161205599Y-63824169D01*
X161205602Y-63824174D01*
X161205608Y-63824185D01*
X161258311Y-63903059D01*
X161293210Y-63955289D01*
X161404710Y-64066789D01*
X161475119Y-64113835D01*
X161535813Y-64154390D01*
X161535824Y-64154396D01*
X161589637Y-64176685D01*
X161681502Y-64214737D01*
X161836157Y-64245500D01*
X161836158Y-64245500D01*
X161993840Y-64245500D01*
X161993841Y-64245500D01*
X162148496Y-64214737D01*
X162294178Y-64154394D01*
X162425288Y-64066789D01*
X162536788Y-63955289D01*
X162624393Y-63824179D01*
X162684736Y-63678497D01*
X162715499Y-63523842D01*
X162715499Y-63366158D01*
X162684736Y-63211503D01*
X162624393Y-63065821D01*
X162624392Y-63065819D01*
X162624389Y-63065814D01*
X162589016Y-63012876D01*
X162536788Y-62934711D01*
X162536784Y-62934707D01*
X162425296Y-62823218D01*
X162425292Y-62823215D01*
X162425288Y-62823211D01*
X162373058Y-62788312D01*
X162294184Y-62735609D01*
X162294173Y-62735603D01*
X162294168Y-62735600D01*
X162148497Y-62675263D01*
X161993843Y-62644500D01*
X161993841Y-62644500D01*
X161836157Y-62644500D01*
X161836154Y-62644500D01*
X161836153Y-62644500D01*
X161771679Y-62657325D01*
X161691064Y-62673361D01*
X161691057Y-62673361D01*
X161681498Y-62675262D01*
X161535828Y-62735600D01*
X161535805Y-62735613D01*
X161404710Y-62823210D01*
X161293209Y-62934711D01*
X161205612Y-63065806D01*
X161205599Y-63065829D01*
X161145905Y-63209944D01*
X161145904Y-63209950D01*
X161145262Y-63211501D01*
X161145262Y-63211503D01*
X161114499Y-63366155D01*
X160175498Y-63366155D01*
X160170394Y-63340498D01*
X160144736Y-63211503D01*
X160084393Y-63065821D01*
X160084392Y-63065819D01*
X160084389Y-63065814D01*
X160049016Y-63012876D01*
X159996788Y-62934711D01*
X159996784Y-62934707D01*
X159885296Y-62823218D01*
X159885292Y-62823215D01*
X159885288Y-62823211D01*
X159833058Y-62788312D01*
X159754184Y-62735609D01*
X159754173Y-62735603D01*
X159754168Y-62735600D01*
X159608497Y-62675263D01*
X159453843Y-62644500D01*
X159453841Y-62644500D01*
X159296157Y-62644500D01*
X159296154Y-62644500D01*
X159296153Y-62644500D01*
X159231679Y-62657325D01*
X159151064Y-62673361D01*
X159151057Y-62673361D01*
X159141498Y-62675262D01*
X158995828Y-62735600D01*
X158995805Y-62735613D01*
X158864710Y-62823210D01*
X158753209Y-62934711D01*
X158665612Y-63065806D01*
X158665599Y-63065829D01*
X158605905Y-63209944D01*
X158605904Y-63209950D01*
X158605262Y-63211501D01*
X158605262Y-63211503D01*
X158574499Y-63366155D01*
X157853499Y-63366155D01*
X157853499Y-61829180D01*
X157858342Y-61798594D01*
X157862464Y-61785905D01*
X157898422Y-61736406D01*
X157899021Y-61735971D01*
X157902562Y-61733400D01*
X157960742Y-61714500D01*
X163425916Y-61714500D01*
X163456504Y-61719343D01*
G37*
%TD.AperFunction*%
%TD*%
%TA.AperFunction,Conductor*%
%TO.N,+3V3*%
G36*
X194530999Y-61740928D02*
G01*
X194566989Y-61790409D01*
X194571851Y-61821200D01*
X194563048Y-67726648D01*
X194544054Y-67784810D01*
X194494500Y-67820700D01*
X194464048Y-67825500D01*
X182315735Y-67825500D01*
X182015459Y-67861961D01*
X182015443Y-67861963D01*
X181721738Y-67934355D01*
X181438882Y-68041628D01*
X181171031Y-68182206D01*
X181171026Y-68182209D01*
X180922080Y-68354046D01*
X180922077Y-68354048D01*
X180922075Y-68354050D01*
X180824802Y-68440226D01*
X180695652Y-68554643D01*
X180695642Y-68554653D01*
X180591695Y-68671985D01*
X180495980Y-68780026D01*
X180495045Y-68781081D01*
X180323208Y-69030027D01*
X180323205Y-69030032D01*
X180182627Y-69297883D01*
X180075354Y-69580739D01*
X180002962Y-69874444D01*
X180002960Y-69874460D01*
X179966499Y-70174736D01*
X179966499Y-74014690D01*
X179947592Y-74072881D01*
X179898092Y-74108845D01*
X179867351Y-74113690D01*
X173647569Y-74104420D01*
X173642616Y-78115496D01*
X173642617Y-78115497D01*
X175968842Y-78117371D01*
X176027017Y-78136325D01*
X176062941Y-78185854D01*
X176067762Y-78216528D01*
X176061977Y-81870525D01*
X176042977Y-81928685D01*
X175993421Y-81964571D01*
X175962820Y-81969368D01*
X172590556Y-81964029D01*
X172565090Y-81960656D01*
X172492314Y-81941156D01*
X172467474Y-81934500D01*
X172322524Y-81934500D01*
X172305269Y-81939123D01*
X172227204Y-81960040D01*
X172201425Y-81963413D01*
X171282830Y-81961959D01*
X171257364Y-81958586D01*
X171192314Y-81941156D01*
X171167474Y-81934500D01*
X171022524Y-81934500D01*
X171005700Y-81939007D01*
X170934840Y-81957994D01*
X170909061Y-81961367D01*
X170143842Y-81960156D01*
X170085682Y-81941156D01*
X170049796Y-81891600D01*
X170044999Y-81861156D01*
X170044999Y-72583308D01*
X170063906Y-72525117D01*
X170113406Y-72489153D01*
X170174592Y-72489153D01*
X170193496Y-72497570D01*
X170237514Y-72522984D01*
X170377524Y-72560500D01*
X170377525Y-72560500D01*
X170522473Y-72560500D01*
X170522474Y-72560500D01*
X170662484Y-72522984D01*
X170662486Y-72522982D01*
X170662488Y-72522982D01*
X170788009Y-72450512D01*
X170788009Y-72450511D01*
X170788014Y-72450509D01*
X170874997Y-72363525D01*
X170929512Y-72335750D01*
X170989944Y-72345321D01*
X171014999Y-72363524D01*
X171111984Y-72460509D01*
X171111986Y-72460510D01*
X171111988Y-72460512D01*
X171237510Y-72532982D01*
X171237511Y-72532982D01*
X171237514Y-72532984D01*
X171377524Y-72570500D01*
X171377525Y-72570500D01*
X171522473Y-72570500D01*
X171522474Y-72570500D01*
X171662484Y-72532984D01*
X171662486Y-72532982D01*
X171662488Y-72532982D01*
X171788009Y-72460512D01*
X171788009Y-72460511D01*
X171788014Y-72460509D01*
X171874997Y-72373525D01*
X171929512Y-72345750D01*
X171989944Y-72355321D01*
X172014999Y-72373524D01*
X172111984Y-72470509D01*
X172111986Y-72470510D01*
X172111988Y-72470512D01*
X172237510Y-72542982D01*
X172237511Y-72542982D01*
X172237514Y-72542984D01*
X172377524Y-72580500D01*
X172377525Y-72580500D01*
X172522473Y-72580500D01*
X172522474Y-72580500D01*
X172662484Y-72542984D01*
X172662486Y-72542982D01*
X172662488Y-72542982D01*
X172788009Y-72470512D01*
X172788009Y-72470511D01*
X172788014Y-72470509D01*
X172890508Y-72368015D01*
X172903363Y-72345750D01*
X172962981Y-72242489D01*
X172962981Y-72242487D01*
X172962983Y-72242485D01*
X173000499Y-72102475D01*
X173000499Y-71957525D01*
X172962983Y-71817515D01*
X172962981Y-71817512D01*
X172962981Y-71817510D01*
X172930087Y-71760536D01*
X172905254Y-71717525D01*
X176939499Y-71717525D01*
X176939499Y-71862474D01*
X176977016Y-72002489D01*
X177049486Y-72128010D01*
X177049488Y-72128012D01*
X177049490Y-72128015D01*
X177151984Y-72230509D01*
X177151986Y-72230510D01*
X177151988Y-72230512D01*
X177277510Y-72302982D01*
X177277511Y-72302982D01*
X177277514Y-72302984D01*
X177417524Y-72340500D01*
X177417525Y-72340500D01*
X177562473Y-72340500D01*
X177562474Y-72340500D01*
X177702484Y-72302984D01*
X177702486Y-72302982D01*
X177702488Y-72302982D01*
X177828009Y-72230512D01*
X177828009Y-72230511D01*
X177828014Y-72230509D01*
X177930508Y-72128015D01*
X178002983Y-72002485D01*
X178040499Y-71862475D01*
X178040499Y-71717525D01*
X178002983Y-71577515D01*
X178002981Y-71577512D01*
X178002981Y-71577510D01*
X177930511Y-71451989D01*
X177930509Y-71451987D01*
X177930508Y-71451985D01*
X177828014Y-71349491D01*
X177828011Y-71349489D01*
X177828009Y-71349487D01*
X177702487Y-71277017D01*
X177702488Y-71277017D01*
X177672895Y-71269087D01*
X177562474Y-71239500D01*
X177417524Y-71239500D01*
X177355789Y-71256041D01*
X177277509Y-71277017D01*
X177151988Y-71349487D01*
X177049486Y-71451989D01*
X176977016Y-71577510D01*
X176939499Y-71717525D01*
X172905254Y-71717525D01*
X172890511Y-71691989D01*
X172890509Y-71691987D01*
X172890508Y-71691985D01*
X172788014Y-71589491D01*
X172788011Y-71589489D01*
X172788009Y-71589487D01*
X172662487Y-71517017D01*
X172662488Y-71517017D01*
X172625164Y-71507016D01*
X172522474Y-71479500D01*
X172377524Y-71479500D01*
X172315789Y-71496041D01*
X172237509Y-71517017D01*
X172111988Y-71589487D01*
X172111987Y-71589488D01*
X172111984Y-71589490D01*
X172111984Y-71589491D01*
X172025000Y-71676474D01*
X171970486Y-71704250D01*
X171910054Y-71694679D01*
X171884998Y-71676475D01*
X171788014Y-71579491D01*
X171788011Y-71579489D01*
X171788009Y-71579487D01*
X171662487Y-71507017D01*
X171662488Y-71507017D01*
X171625164Y-71497016D01*
X171522474Y-71469500D01*
X171377524Y-71469500D01*
X171340204Y-71479500D01*
X171237509Y-71507017D01*
X171111988Y-71579487D01*
X171111987Y-71579488D01*
X171111984Y-71579490D01*
X171111984Y-71579491D01*
X171025000Y-71666474D01*
X170970486Y-71694250D01*
X170910054Y-71684679D01*
X170884998Y-71666475D01*
X170788014Y-71569491D01*
X170788011Y-71569489D01*
X170788009Y-71569487D01*
X170662487Y-71497017D01*
X170662488Y-71497017D01*
X170597114Y-71479500D01*
X170522474Y-71459500D01*
X170377524Y-71459500D01*
X170340204Y-71469500D01*
X170237512Y-71497016D01*
X170193499Y-71522428D01*
X170133650Y-71535149D01*
X170077755Y-71510262D01*
X170047162Y-71457274D01*
X170044999Y-71436691D01*
X170044999Y-68927525D01*
X170915500Y-68927525D01*
X170915500Y-69072474D01*
X170953017Y-69212489D01*
X171025487Y-69338010D01*
X171025489Y-69338012D01*
X171025491Y-69338015D01*
X171127985Y-69440509D01*
X171127987Y-69440510D01*
X171127989Y-69440512D01*
X171253511Y-69512982D01*
X171253512Y-69512982D01*
X171253515Y-69512984D01*
X171393525Y-69550500D01*
X171393526Y-69550500D01*
X171538474Y-69550500D01*
X171538475Y-69550500D01*
X171678485Y-69512984D01*
X171678487Y-69512982D01*
X171678489Y-69512982D01*
X171804010Y-69440512D01*
X171804010Y-69440511D01*
X171804015Y-69440509D01*
X171890998Y-69353525D01*
X171945513Y-69325750D01*
X172005945Y-69335321D01*
X172031000Y-69353524D01*
X172127985Y-69450509D01*
X172127987Y-69450510D01*
X172127989Y-69450512D01*
X172253511Y-69522982D01*
X172253512Y-69522982D01*
X172253515Y-69522984D01*
X172393525Y-69560500D01*
X172393526Y-69560500D01*
X172538474Y-69560500D01*
X172538475Y-69560500D01*
X172678485Y-69522984D01*
X172678487Y-69522982D01*
X172678489Y-69522982D01*
X172804010Y-69450512D01*
X172804010Y-69450511D01*
X172804015Y-69450509D01*
X172890998Y-69363525D01*
X172945513Y-69335750D01*
X173005945Y-69345321D01*
X173031000Y-69363524D01*
X173127985Y-69460509D01*
X173127987Y-69460510D01*
X173127989Y-69460512D01*
X173253511Y-69532982D01*
X173253512Y-69532982D01*
X173253515Y-69532984D01*
X173393525Y-69570500D01*
X173393526Y-69570500D01*
X173538474Y-69570500D01*
X173538475Y-69570500D01*
X173678485Y-69532984D01*
X173678487Y-69532982D01*
X173678489Y-69532982D01*
X173804010Y-69460512D01*
X173804010Y-69460511D01*
X173804015Y-69460509D01*
X173906509Y-69358015D01*
X173919364Y-69335750D01*
X173978982Y-69232489D01*
X173978982Y-69232487D01*
X173978984Y-69232485D01*
X174016500Y-69092475D01*
X174016500Y-68947525D01*
X173978984Y-68807515D01*
X173978982Y-68807512D01*
X173978982Y-68807510D01*
X173906512Y-68681989D01*
X173906510Y-68681987D01*
X173906509Y-68681985D01*
X173804015Y-68579491D01*
X173804012Y-68579489D01*
X173804010Y-68579487D01*
X173678488Y-68507017D01*
X173678489Y-68507017D01*
X173641165Y-68497016D01*
X173538475Y-68469500D01*
X173393525Y-68469500D01*
X173331790Y-68486041D01*
X173253510Y-68507017D01*
X173127989Y-68579487D01*
X173127988Y-68579488D01*
X173127985Y-68579490D01*
X173127985Y-68579491D01*
X173041001Y-68666474D01*
X172986487Y-68694250D01*
X172926055Y-68684679D01*
X172900999Y-68666475D01*
X172804015Y-68569491D01*
X172804012Y-68569489D01*
X172804010Y-68569487D01*
X172678488Y-68497017D01*
X172678489Y-68497017D01*
X172641165Y-68487016D01*
X172538475Y-68459500D01*
X172393525Y-68459500D01*
X172356205Y-68469500D01*
X172253510Y-68497017D01*
X172127989Y-68569487D01*
X172127988Y-68569488D01*
X172127985Y-68569490D01*
X172127985Y-68569491D01*
X172041001Y-68656474D01*
X171986487Y-68684250D01*
X171926055Y-68674679D01*
X171900999Y-68656475D01*
X171804015Y-68559491D01*
X171804012Y-68559489D01*
X171804010Y-68559487D01*
X171678488Y-68487017D01*
X171678489Y-68487017D01*
X171613115Y-68469500D01*
X171538475Y-68449500D01*
X171393525Y-68449500D01*
X171356205Y-68459500D01*
X171253510Y-68487017D01*
X171127989Y-68559487D01*
X171025487Y-68661989D01*
X170953017Y-68787510D01*
X170915500Y-68927525D01*
X170044999Y-68927525D01*
X170044999Y-64258830D01*
X176795500Y-64258830D01*
X176795500Y-64406666D01*
X176824342Y-64551661D01*
X176880916Y-64688243D01*
X176963049Y-64811164D01*
X177067584Y-64915699D01*
X177190505Y-64997832D01*
X177327087Y-65054406D01*
X177472082Y-65083248D01*
X177472083Y-65083248D01*
X177619917Y-65083248D01*
X177619918Y-65083248D01*
X177764913Y-65054406D01*
X177901495Y-64997832D01*
X178024416Y-64915699D01*
X178128951Y-64811164D01*
X178211084Y-64688243D01*
X178267658Y-64551661D01*
X178296500Y-64406666D01*
X178296500Y-64258830D01*
X178267658Y-64113835D01*
X178211084Y-63977253D01*
X178128951Y-63854332D01*
X178024416Y-63749797D01*
X177901495Y-63667664D01*
X177901493Y-63667663D01*
X177764914Y-63611090D01*
X177619918Y-63582248D01*
X177472082Y-63582248D01*
X177472081Y-63582248D01*
X177327085Y-63611090D01*
X177190506Y-63667663D01*
X177067585Y-63749796D01*
X176963048Y-63854333D01*
X176880915Y-63977254D01*
X176824342Y-64113833D01*
X176815034Y-64160626D01*
X176795500Y-64258830D01*
X170044999Y-64258830D01*
X170044999Y-63416230D01*
X187109500Y-63416230D01*
X187109500Y-63583769D01*
X187142183Y-63748079D01*
X187142185Y-63748085D01*
X187206296Y-63902862D01*
X187206297Y-63902863D01*
X187299374Y-64042162D01*
X187417838Y-64160626D01*
X187557137Y-64253703D01*
X187711918Y-64317816D01*
X187876233Y-64350500D01*
X187876234Y-64350500D01*
X188043766Y-64350500D01*
X188043767Y-64350500D01*
X188208082Y-64317816D01*
X188362863Y-64253703D01*
X188502162Y-64160626D01*
X188620626Y-64042162D01*
X188713703Y-63902863D01*
X188777816Y-63748082D01*
X188810500Y-63583767D01*
X188810500Y-63416233D01*
X188810499Y-63416230D01*
X189649500Y-63416230D01*
X189649500Y-63583769D01*
X189682183Y-63748079D01*
X189682185Y-63748085D01*
X189746296Y-63902862D01*
X189746297Y-63902863D01*
X189839374Y-64042162D01*
X189957838Y-64160626D01*
X190097137Y-64253703D01*
X190251918Y-64317816D01*
X190416233Y-64350500D01*
X190416234Y-64350500D01*
X190583766Y-64350500D01*
X190583767Y-64350500D01*
X190748082Y-64317816D01*
X190902863Y-64253703D01*
X191042162Y-64160626D01*
X191160626Y-64042162D01*
X191253703Y-63902863D01*
X191317816Y-63748082D01*
X191350500Y-63583767D01*
X191350500Y-63416233D01*
X191350499Y-63416230D01*
X192189500Y-63416230D01*
X192189500Y-63583769D01*
X192222183Y-63748079D01*
X192222185Y-63748085D01*
X192286296Y-63902862D01*
X192286297Y-63902863D01*
X192379374Y-64042162D01*
X192497838Y-64160626D01*
X192637137Y-64253703D01*
X192791918Y-64317816D01*
X192956233Y-64350500D01*
X192956234Y-64350500D01*
X193123766Y-64350500D01*
X193123767Y-64350500D01*
X193288082Y-64317816D01*
X193442863Y-64253703D01*
X193582162Y-64160626D01*
X193700626Y-64042162D01*
X193793703Y-63902863D01*
X193857816Y-63748082D01*
X193890500Y-63583767D01*
X193890500Y-63416233D01*
X193857816Y-63251918D01*
X193793703Y-63097137D01*
X193700626Y-62957838D01*
X193582162Y-62839374D01*
X193442863Y-62746297D01*
X193442864Y-62746297D01*
X193442862Y-62746296D01*
X193288085Y-62682185D01*
X193288079Y-62682183D01*
X193123769Y-62649500D01*
X193123767Y-62649500D01*
X192956233Y-62649500D01*
X192956230Y-62649500D01*
X192791920Y-62682183D01*
X192791914Y-62682185D01*
X192637137Y-62746296D01*
X192497838Y-62839374D01*
X192497834Y-62839377D01*
X192379377Y-62957834D01*
X192379374Y-62957838D01*
X192286296Y-63097137D01*
X192222185Y-63251914D01*
X192222183Y-63251920D01*
X192189500Y-63416230D01*
X191350499Y-63416230D01*
X191317816Y-63251918D01*
X191253703Y-63097137D01*
X191160626Y-62957838D01*
X191042162Y-62839374D01*
X190902863Y-62746297D01*
X190902864Y-62746297D01*
X190902862Y-62746296D01*
X190748085Y-62682185D01*
X190748079Y-62682183D01*
X190583769Y-62649500D01*
X190583767Y-62649500D01*
X190416233Y-62649500D01*
X190416230Y-62649500D01*
X190251920Y-62682183D01*
X190251914Y-62682185D01*
X190097137Y-62746296D01*
X189957838Y-62839374D01*
X189957834Y-62839377D01*
X189839377Y-62957834D01*
X189839374Y-62957838D01*
X189746296Y-63097137D01*
X189682185Y-63251914D01*
X189682183Y-63251920D01*
X189649500Y-63416230D01*
X188810499Y-63416230D01*
X188777816Y-63251918D01*
X188713703Y-63097137D01*
X188620626Y-62957838D01*
X188502162Y-62839374D01*
X188362863Y-62746297D01*
X188362864Y-62746297D01*
X188362862Y-62746296D01*
X188208085Y-62682185D01*
X188208079Y-62682183D01*
X188043769Y-62649500D01*
X188043767Y-62649500D01*
X187876233Y-62649500D01*
X187876230Y-62649500D01*
X187711920Y-62682183D01*
X187711914Y-62682185D01*
X187557137Y-62746296D01*
X187417838Y-62839374D01*
X187417834Y-62839377D01*
X187299377Y-62957834D01*
X187299374Y-62957838D01*
X187206296Y-63097137D01*
X187142185Y-63251914D01*
X187142183Y-63251920D01*
X187109500Y-63416230D01*
X170044999Y-63416230D01*
X170044999Y-61833947D01*
X170063906Y-61775756D01*
X170113406Y-61739792D01*
X170143943Y-61734947D01*
X194472800Y-61722052D01*
X194530999Y-61740928D01*
G37*
%TD.AperFunction*%
%TD*%
%TA.AperFunction,Conductor*%
%TO.N,+5V0*%
G36*
X169649506Y-61740907D02*
G01*
X169685470Y-61790407D01*
X169688586Y-61829969D01*
X169689804Y-61830065D01*
X169689499Y-61833942D01*
X169689499Y-71436708D01*
X169691442Y-71473801D01*
X169691446Y-71473846D01*
X169693609Y-71494431D01*
X169698255Y-71525428D01*
X169698255Y-71525429D01*
X169739289Y-71635023D01*
X169739291Y-71635026D01*
X169769884Y-71688014D01*
X169830644Y-71764328D01*
X169835540Y-71770477D01*
X169872285Y-71794774D01*
X169875898Y-71797683D01*
X169890220Y-71819601D01*
X169906529Y-71840085D01*
X169906762Y-71844915D01*
X169909368Y-71848903D01*
X169908145Y-71873572D01*
X169909441Y-71900419D01*
X169899499Y-71937524D01*
X169899499Y-72082476D01*
X169909401Y-72119433D01*
X169906198Y-72180535D01*
X169871969Y-72225144D01*
X169854951Y-72237509D01*
X169854945Y-72237514D01*
X169779793Y-72311433D01*
X169725804Y-72415265D01*
X169706897Y-72473457D01*
X169689499Y-72583304D01*
X169689499Y-81861164D01*
X169690277Y-81871092D01*
X169693832Y-81916489D01*
X169698629Y-81946933D01*
X169698631Y-81946943D01*
X169698631Y-81946945D01*
X169709762Y-81995319D01*
X169747205Y-82070626D01*
X169761863Y-82100107D01*
X169792795Y-82142822D01*
X169797747Y-82149660D01*
X169797753Y-82149668D01*
X169861161Y-82214336D01*
X169871545Y-82224926D01*
X169975287Y-82279081D01*
X170033447Y-82298081D01*
X170033453Y-82298081D01*
X170033457Y-82298083D01*
X170106668Y-82309797D01*
X170143276Y-82315655D01*
X170143278Y-82315656D01*
X170295254Y-82315896D01*
X170445655Y-82316134D01*
X170503816Y-82335133D01*
X170539702Y-82384690D01*
X170544499Y-82415134D01*
X170544499Y-82557474D01*
X170577584Y-82680949D01*
X170582017Y-82697493D01*
X170654484Y-82823008D01*
X170654486Y-82823010D01*
X170654488Y-82823012D01*
X170654490Y-82823015D01*
X170756984Y-82925509D01*
X170756986Y-82925510D01*
X170756988Y-82925512D01*
X170757535Y-82925907D01*
X170759537Y-82926984D01*
X170882510Y-82997982D01*
X170882511Y-82997982D01*
X170882514Y-82997984D01*
X171022524Y-83035500D01*
X171022525Y-83035500D01*
X171167473Y-83035500D01*
X171167474Y-83035500D01*
X171307484Y-82997984D01*
X171307485Y-82997983D01*
X171307487Y-82997982D01*
X171307488Y-82997982D01*
X171426879Y-82929051D01*
X171429767Y-82927648D01*
X171430553Y-82927131D01*
X171435562Y-82924037D01*
X171436861Y-82923286D01*
X171442219Y-82916303D01*
X171535508Y-82823015D01*
X171544910Y-82806731D01*
X171607981Y-82697489D01*
X171607981Y-82697487D01*
X171607983Y-82697485D01*
X171645499Y-82557475D01*
X171645499Y-82417190D01*
X171664406Y-82358999D01*
X171713906Y-82323035D01*
X171744598Y-82318190D01*
X171744683Y-82318190D01*
X171745599Y-82318191D01*
X171803770Y-82337157D01*
X171839684Y-82386692D01*
X171844499Y-82417190D01*
X171844499Y-82557474D01*
X171877584Y-82680949D01*
X171882017Y-82697493D01*
X171954484Y-82823008D01*
X171954486Y-82823010D01*
X171954488Y-82823012D01*
X171954490Y-82823015D01*
X172056984Y-82925509D01*
X172056986Y-82925510D01*
X172056988Y-82925512D01*
X172057535Y-82925907D01*
X172059537Y-82926984D01*
X172182510Y-82997982D01*
X172182511Y-82997982D01*
X172182514Y-82997984D01*
X172322524Y-83035500D01*
X172322525Y-83035500D01*
X172467473Y-83035500D01*
X172467474Y-83035500D01*
X172607484Y-82997984D01*
X172607485Y-82997983D01*
X172607487Y-82997982D01*
X172607488Y-82997982D01*
X172726879Y-82929051D01*
X172729767Y-82927648D01*
X172730553Y-82927131D01*
X172735562Y-82924037D01*
X172736861Y-82923286D01*
X172742219Y-82916303D01*
X172835508Y-82823015D01*
X172844910Y-82806731D01*
X172907981Y-82697489D01*
X172907981Y-82697487D01*
X172907983Y-82697485D01*
X172945499Y-82557475D01*
X172945499Y-82419248D01*
X172964406Y-82361057D01*
X173013906Y-82325093D01*
X173044654Y-82320248D01*
X175962257Y-82324868D01*
X176017876Y-82320579D01*
X176048477Y-82315782D01*
X176097139Y-82304605D01*
X176201928Y-82252504D01*
X176251484Y-82216618D01*
X176326747Y-82142822D01*
X176380902Y-82039080D01*
X176399902Y-81980920D01*
X176417477Y-81871088D01*
X176419880Y-80352994D01*
X176438880Y-80294836D01*
X176488436Y-80258950D01*
X176549622Y-80259047D01*
X176599065Y-80295089D01*
X176605012Y-80304344D01*
X176608015Y-80309643D01*
X176630602Y-80364174D01*
X176630608Y-80364185D01*
X176683311Y-80443059D01*
X176718210Y-80495289D01*
X176718213Y-80495292D01*
X176829710Y-80606789D01*
X176880021Y-80640406D01*
X176960805Y-80694385D01*
X176960807Y-80694386D01*
X176960813Y-80694390D01*
X176960824Y-80694396D01*
X177014637Y-80716685D01*
X177106502Y-80754737D01*
X177261157Y-80785500D01*
X177261158Y-80785500D01*
X177418840Y-80785500D01*
X177418841Y-80785500D01*
X177573496Y-80754737D01*
X177719178Y-80694394D01*
X177850288Y-80606789D01*
X177961788Y-80495289D01*
X178049393Y-80364179D01*
X178109736Y-80218497D01*
X178140499Y-80063842D01*
X178140499Y-79906158D01*
X178109736Y-79751503D01*
X178049393Y-79605821D01*
X178049392Y-79605819D01*
X178049389Y-79605814D01*
X178005608Y-79540292D01*
X177961788Y-79474711D01*
X177850288Y-79363211D01*
X177774937Y-79312863D01*
X177774935Y-79312861D01*
X177719191Y-79275613D01*
X177719168Y-79275600D01*
X177573497Y-79215263D01*
X177418843Y-79184500D01*
X177418841Y-79184500D01*
X177261157Y-79184500D01*
X177261154Y-79184500D01*
X177261153Y-79184500D01*
X177196679Y-79197325D01*
X177116064Y-79213361D01*
X177116057Y-79213361D01*
X177106498Y-79215262D01*
X176960828Y-79275600D01*
X176960805Y-79275613D01*
X176829710Y-79363210D01*
X176718209Y-79474711D01*
X176630612Y-79605806D01*
X176630603Y-79605823D01*
X176611514Y-79651907D01*
X176571776Y-79698432D01*
X176512281Y-79712715D01*
X176455754Y-79689299D01*
X176423785Y-79637130D01*
X176421050Y-79613868D01*
X176423262Y-78217091D01*
X176418951Y-78161332D01*
X176414130Y-78130658D01*
X176402896Y-78081877D01*
X176350715Y-77977128D01*
X176314791Y-77927599D01*
X176240930Y-77852386D01*
X176137145Y-77798313D01*
X176097925Y-77785534D01*
X176078971Y-77779359D01*
X176055692Y-77775652D01*
X175969128Y-77761871D01*
X175969124Y-77761870D01*
X175969127Y-77761870D01*
X174097597Y-77760362D01*
X174039422Y-77741408D01*
X174003498Y-77691879D01*
X173998677Y-77661240D01*
X174002506Y-74559471D01*
X174021485Y-74501306D01*
X174071030Y-74465404D01*
X174101650Y-74460596D01*
X179866821Y-74469190D01*
X179866823Y-74469189D01*
X179867647Y-74469191D01*
X179925809Y-74488185D01*
X179961699Y-74537739D01*
X179966499Y-74568191D01*
X179966499Y-105085273D01*
X180002959Y-105385534D01*
X180002962Y-105385557D01*
X180075351Y-105679249D01*
X180075353Y-105679258D01*
X180116782Y-105788497D01*
X180182628Y-105962119D01*
X180322707Y-106229018D01*
X180323205Y-106229967D01*
X180323208Y-106229972D01*
X180463695Y-106433500D01*
X180495049Y-106478924D01*
X180695647Y-106705352D01*
X180922075Y-106905950D01*
X181046553Y-106991871D01*
X181171026Y-107077790D01*
X181171031Y-107077793D01*
X181438886Y-107218373D01*
X181721733Y-107325643D01*
X181868590Y-107361840D01*
X182015443Y-107398036D01*
X182015444Y-107398036D01*
X182015448Y-107398037D01*
X182015453Y-107398037D01*
X182015455Y-107398038D01*
X182142599Y-107413476D01*
X182315735Y-107434499D01*
X182315743Y-107434500D01*
X182315747Y-107434500D01*
X182401107Y-107434500D01*
X196496819Y-107434500D01*
X196527407Y-107439343D01*
X196540094Y-107443466D01*
X196589594Y-107479427D01*
X196589595Y-107479428D01*
X196592590Y-107483550D01*
X196611499Y-107541740D01*
X196611499Y-109025329D01*
X196606650Y-109055932D01*
X196604796Y-109061636D01*
X196568827Y-109111132D01*
X196510635Y-109130033D01*
X196452446Y-109111120D01*
X196419908Y-109070628D01*
X196419668Y-109070078D01*
X196413307Y-109049797D01*
X196397816Y-108971920D01*
X196397816Y-108971919D01*
X196333703Y-108817137D01*
X196240626Y-108677838D01*
X196122162Y-108559374D01*
X196040002Y-108504476D01*
X196027496Y-108488612D01*
X195982869Y-108466299D01*
X195982862Y-108466296D01*
X195828085Y-108402185D01*
X195828079Y-108402183D01*
X195745924Y-108385841D01*
X195663771Y-108369500D01*
X195663769Y-108369500D01*
X195663767Y-108369500D01*
X195496233Y-108369500D01*
X195496230Y-108369500D01*
X195496227Y-108369500D01*
X195372997Y-108394012D01*
X195331920Y-108402183D01*
X195331914Y-108402185D01*
X195331911Y-108402186D01*
X195177137Y-108466295D01*
X195037838Y-108559373D01*
X194919373Y-108677838D01*
X194826295Y-108817137D01*
X194762186Y-108971911D01*
X194762183Y-108971920D01*
X194729500Y-109136227D01*
X194729500Y-109303771D01*
X194733980Y-109326291D01*
X194762183Y-109468079D01*
X194762185Y-109468085D01*
X194826296Y-109622862D01*
X194826297Y-109622863D01*
X194919374Y-109762162D01*
X195037838Y-109880626D01*
X195177137Y-109973703D01*
X195331918Y-110037816D01*
X195496233Y-110070500D01*
X195496234Y-110070500D01*
X195663766Y-110070500D01*
X195663767Y-110070500D01*
X195828082Y-110037816D01*
X195982863Y-109973703D01*
X196122162Y-109880626D01*
X196240626Y-109762162D01*
X196333703Y-109622863D01*
X196397816Y-109468082D01*
X196412342Y-109395050D01*
X196421249Y-109373352D01*
X196421617Y-109369573D01*
X196423822Y-109367085D01*
X196426777Y-109359887D01*
X196429837Y-109355244D01*
X196432665Y-109357108D01*
X196462203Y-109323786D01*
X196521950Y-109310599D01*
X196578038Y-109335049D01*
X196609042Y-109387797D01*
X196609172Y-109388386D01*
X196611499Y-109409723D01*
X196611499Y-113303819D01*
X196606653Y-113334412D01*
X196602531Y-113347098D01*
X196566579Y-113396589D01*
X196562458Y-113399584D01*
X196504270Y-113418500D01*
X174173571Y-113418500D01*
X174115380Y-113399593D01*
X174079416Y-113350093D01*
X174074876Y-113311735D01*
X174075499Y-113303816D01*
X174075499Y-112642093D01*
X174094406Y-112583902D01*
X174143906Y-112547938D01*
X174205091Y-112547938D01*
X174205092Y-112547938D01*
X174205093Y-112547939D01*
X174233144Y-112557053D01*
X174237292Y-112558401D01*
X174237296Y-112558402D01*
X174237300Y-112558402D01*
X174237302Y-112558403D01*
X174408382Y-112585500D01*
X174581613Y-112585500D01*
X174581616Y-112585500D01*
X174720842Y-112563447D01*
X174752701Y-112558402D01*
X174752705Y-112558401D01*
X174917437Y-112504876D01*
X174917437Y-112504875D01*
X174918181Y-112504634D01*
X174920898Y-112503113D01*
X175071781Y-112426235D01*
X175071783Y-112426234D01*
X175071782Y-112426234D01*
X175071787Y-112426232D01*
X175211927Y-112324414D01*
X175334413Y-112201928D01*
X175436231Y-112061788D01*
X175514872Y-111907445D01*
X175514873Y-111907440D01*
X175514875Y-111907438D01*
X175516099Y-111903669D01*
X175516368Y-111903057D01*
X175516654Y-111901960D01*
X175568400Y-111742706D01*
X175568401Y-111742702D01*
X175595499Y-111571614D01*
X175595499Y-111406154D01*
X175794499Y-111406154D01*
X175794499Y-111563844D01*
X175823360Y-111708933D01*
X175823360Y-111708937D01*
X175825261Y-111718499D01*
X175885599Y-111864169D01*
X175885602Y-111864174D01*
X175885608Y-111864185D01*
X175914514Y-111907445D01*
X175973211Y-111995291D01*
X176039703Y-112061782D01*
X176084710Y-112106789D01*
X176162875Y-112159017D01*
X176215813Y-112194390D01*
X176215824Y-112194396D01*
X176269637Y-112216685D01*
X176274295Y-112218614D01*
X176274298Y-112218616D01*
X176317493Y-112236508D01*
X176361502Y-112254737D01*
X176516157Y-112285500D01*
X176516158Y-112285500D01*
X176673840Y-112285500D01*
X176673841Y-112285500D01*
X176828496Y-112254737D01*
X176974178Y-112194394D01*
X177105288Y-112106789D01*
X177216788Y-111995289D01*
X177304393Y-111864179D01*
X177364736Y-111718497D01*
X177395499Y-111563842D01*
X177395499Y-111406158D01*
X177395498Y-111406155D01*
X177794499Y-111406155D01*
X177794499Y-111563844D01*
X177795129Y-111567011D01*
X177823360Y-111708933D01*
X177823360Y-111708937D01*
X177825261Y-111718499D01*
X177885599Y-111864169D01*
X177885602Y-111864174D01*
X177885608Y-111864185D01*
X177914514Y-111907445D01*
X177973211Y-111995291D01*
X178039703Y-112061782D01*
X178084710Y-112106789D01*
X178162875Y-112159017D01*
X178215813Y-112194390D01*
X178215824Y-112194396D01*
X178269637Y-112216685D01*
X178274295Y-112218614D01*
X178274298Y-112218616D01*
X178317493Y-112236508D01*
X178361502Y-112254737D01*
X178516157Y-112285500D01*
X178516158Y-112285500D01*
X178673840Y-112285500D01*
X178673841Y-112285500D01*
X178828496Y-112254737D01*
X178974178Y-112194394D01*
X179105288Y-112106789D01*
X179216788Y-111995289D01*
X179304393Y-111864179D01*
X179364736Y-111718497D01*
X179395499Y-111563842D01*
X179395499Y-111406158D01*
X179395498Y-111406155D01*
X179794499Y-111406155D01*
X179794499Y-111563844D01*
X179795129Y-111567011D01*
X179823360Y-111708933D01*
X179823360Y-111708937D01*
X179825261Y-111718499D01*
X179885599Y-111864169D01*
X179885602Y-111864174D01*
X179885608Y-111864185D01*
X179914514Y-111907445D01*
X179973211Y-111995291D01*
X180039703Y-112061782D01*
X180084710Y-112106789D01*
X180162875Y-112159017D01*
X180215813Y-112194390D01*
X180215824Y-112194396D01*
X180269637Y-112216685D01*
X180274295Y-112218614D01*
X180274298Y-112218616D01*
X180317493Y-112236508D01*
X180361502Y-112254737D01*
X180516157Y-112285500D01*
X180516158Y-112285500D01*
X180673840Y-112285500D01*
X180673841Y-112285500D01*
X180828496Y-112254737D01*
X180974178Y-112194394D01*
X181105288Y-112106789D01*
X181216788Y-111995289D01*
X181304393Y-111864179D01*
X181364736Y-111718497D01*
X181395499Y-111563842D01*
X181395499Y-111406158D01*
X181395498Y-111406155D01*
X181393952Y-111398381D01*
X181594499Y-111398381D01*
X181594499Y-111571617D01*
X181621594Y-111742696D01*
X181621595Y-111742701D01*
X181621597Y-111742706D01*
X181673339Y-111901952D01*
X181675124Y-111907443D01*
X181676994Y-111911303D01*
X181677748Y-111912591D01*
X181753764Y-112061784D01*
X181753767Y-112061788D01*
X181855585Y-112201928D01*
X181978071Y-112324414D01*
X182118211Y-112426232D01*
X182267406Y-112502250D01*
X182273253Y-112505229D01*
X182276226Y-112506067D01*
X182437292Y-112558401D01*
X182437296Y-112558402D01*
X182437302Y-112558403D01*
X182608382Y-112585500D01*
X182781613Y-112585500D01*
X182781616Y-112585500D01*
X182920842Y-112563447D01*
X182952701Y-112558402D01*
X182952705Y-112558401D01*
X183117437Y-112504876D01*
X183117437Y-112504875D01*
X183118181Y-112504634D01*
X183120898Y-112503113D01*
X183271781Y-112426235D01*
X183271783Y-112426234D01*
X183271782Y-112426234D01*
X183271787Y-112426232D01*
X183411927Y-112324414D01*
X183534413Y-112201928D01*
X183636231Y-112061788D01*
X183714872Y-111907445D01*
X183714873Y-111907440D01*
X183714875Y-111907438D01*
X183716099Y-111903669D01*
X183716368Y-111903057D01*
X183716654Y-111901960D01*
X183768400Y-111742706D01*
X183768401Y-111742702D01*
X183795499Y-111571614D01*
X183795499Y-111398385D01*
X183795499Y-111398381D01*
X183768402Y-111227303D01*
X183768401Y-111227297D01*
X183768400Y-111227293D01*
X183714875Y-111062561D01*
X183714873Y-111062558D01*
X183714872Y-111062557D01*
X183714872Y-111062555D01*
X183713089Y-111059055D01*
X183712841Y-111058420D01*
X183712249Y-111057408D01*
X183636231Y-110908212D01*
X183534413Y-110768072D01*
X183411927Y-110645586D01*
X183411923Y-110645583D01*
X183411921Y-110645581D01*
X183280246Y-110549913D01*
X183280235Y-110549906D01*
X183271787Y-110543768D01*
X183271786Y-110543767D01*
X183271784Y-110543766D01*
X183122590Y-110467749D01*
X183121310Y-110467000D01*
X183117439Y-110465124D01*
X183117437Y-110465123D01*
X182984904Y-110422060D01*
X182952700Y-110411596D01*
X182952695Y-110411595D01*
X182781616Y-110384500D01*
X182781613Y-110384500D01*
X182781610Y-110384500D01*
X182608388Y-110384500D01*
X182608385Y-110384500D01*
X182608382Y-110384500D01*
X182437301Y-110411595D01*
X182437296Y-110411596D01*
X182272560Y-110465123D01*
X182268684Y-110467000D01*
X182267406Y-110467749D01*
X182118208Y-110543768D01*
X181978077Y-110645580D01*
X181855579Y-110768078D01*
X181753767Y-110908209D01*
X181677748Y-111057407D01*
X181676999Y-111058685D01*
X181675122Y-111062561D01*
X181621595Y-111227297D01*
X181621594Y-111227302D01*
X181594499Y-111398381D01*
X181393952Y-111398381D01*
X181390394Y-111380498D01*
X181364736Y-111251503D01*
X181304393Y-111105821D01*
X181304392Y-111105819D01*
X181304389Y-111105814D01*
X181269016Y-111052876D01*
X181216788Y-110974711D01*
X181216784Y-110974707D01*
X181105296Y-110863218D01*
X181105292Y-110863215D01*
X181105288Y-110863211D01*
X181053058Y-110828312D01*
X180974184Y-110775609D01*
X180974173Y-110775603D01*
X180974168Y-110775600D01*
X180828497Y-110715263D01*
X180673843Y-110684500D01*
X180673841Y-110684500D01*
X180516157Y-110684500D01*
X180516154Y-110684500D01*
X180516153Y-110684500D01*
X180451679Y-110697325D01*
X180371064Y-110713361D01*
X180371057Y-110713361D01*
X180361498Y-110715262D01*
X180215828Y-110775600D01*
X180215805Y-110775613D01*
X180084710Y-110863210D01*
X179973209Y-110974711D01*
X179885612Y-111105806D01*
X179885599Y-111105829D01*
X179825905Y-111249944D01*
X179825904Y-111249950D01*
X179825262Y-111251501D01*
X179825262Y-111251503D01*
X179794499Y-111406155D01*
X179395498Y-111406155D01*
X179390394Y-111380498D01*
X179364736Y-111251503D01*
X179304393Y-111105821D01*
X179304392Y-111105819D01*
X179304389Y-111105814D01*
X179269016Y-111052876D01*
X179216788Y-110974711D01*
X179216784Y-110974707D01*
X179105296Y-110863218D01*
X179105292Y-110863215D01*
X179105288Y-110863211D01*
X179053058Y-110828312D01*
X178974184Y-110775609D01*
X178974173Y-110775603D01*
X178974168Y-110775600D01*
X178828497Y-110715263D01*
X178673843Y-110684500D01*
X178673841Y-110684500D01*
X178516157Y-110684500D01*
X178516154Y-110684500D01*
X178516153Y-110684500D01*
X178451679Y-110697325D01*
X178371064Y-110713361D01*
X178371057Y-110713361D01*
X178361498Y-110715262D01*
X178215828Y-110775600D01*
X178215805Y-110775613D01*
X178084710Y-110863210D01*
X177973209Y-110974711D01*
X177885612Y-111105806D01*
X177885599Y-111105829D01*
X177825905Y-111249944D01*
X177825904Y-111249950D01*
X177825262Y-111251501D01*
X177825262Y-111251503D01*
X177794499Y-111406155D01*
X177395498Y-111406155D01*
X177390394Y-111380498D01*
X177364736Y-111251503D01*
X177304393Y-111105821D01*
X177304392Y-111105819D01*
X177304389Y-111105814D01*
X177269016Y-111052876D01*
X177216788Y-110974711D01*
X177216784Y-110974707D01*
X177105296Y-110863218D01*
X177105292Y-110863215D01*
X177105288Y-110863211D01*
X177053058Y-110828312D01*
X176974184Y-110775609D01*
X176974173Y-110775603D01*
X176974168Y-110775600D01*
X176828497Y-110715263D01*
X176673843Y-110684500D01*
X176673841Y-110684500D01*
X176516157Y-110684500D01*
X176516154Y-110684500D01*
X176516153Y-110684500D01*
X176451679Y-110697325D01*
X176371064Y-110713361D01*
X176371057Y-110713361D01*
X176361498Y-110715262D01*
X176215828Y-110775600D01*
X176215805Y-110775613D01*
X176084710Y-110863210D01*
X175973209Y-110974711D01*
X175885612Y-111105806D01*
X175885599Y-111105829D01*
X175825263Y-111251496D01*
X175825263Y-111251497D01*
X175825262Y-111251504D01*
X175794499Y-111406154D01*
X175595499Y-111406154D01*
X175595499Y-111398385D01*
X175595499Y-111398381D01*
X175568402Y-111227303D01*
X175568401Y-111227297D01*
X175568400Y-111227293D01*
X175514875Y-111062561D01*
X175514873Y-111062558D01*
X175514872Y-111062557D01*
X175514872Y-111062555D01*
X175513089Y-111059055D01*
X175512841Y-111058420D01*
X175512249Y-111057408D01*
X175436231Y-110908212D01*
X175334413Y-110768072D01*
X175211927Y-110645586D01*
X175211923Y-110645583D01*
X175211921Y-110645581D01*
X175080246Y-110549913D01*
X175080235Y-110549906D01*
X175071787Y-110543768D01*
X175071786Y-110543767D01*
X175071784Y-110543766D01*
X174922590Y-110467749D01*
X174921310Y-110467000D01*
X174917439Y-110465124D01*
X174917437Y-110465123D01*
X174784904Y-110422060D01*
X174752700Y-110411596D01*
X174752695Y-110411595D01*
X174581616Y-110384500D01*
X174581613Y-110384500D01*
X174581610Y-110384500D01*
X174408388Y-110384500D01*
X174408385Y-110384500D01*
X174408382Y-110384500D01*
X174237301Y-110411595D01*
X174237294Y-110411597D01*
X174237283Y-110411600D01*
X174205090Y-110422060D01*
X174143905Y-110422059D01*
X174094405Y-110386094D01*
X174075499Y-110327905D01*
X174075499Y-109136227D01*
X187109500Y-109136227D01*
X187109500Y-109303771D01*
X187113980Y-109326291D01*
X187142183Y-109468079D01*
X187142185Y-109468085D01*
X187206296Y-109622862D01*
X187206297Y-109622863D01*
X187299374Y-109762162D01*
X187417838Y-109880626D01*
X187557137Y-109973703D01*
X187711918Y-110037816D01*
X187876233Y-110070500D01*
X187876234Y-110070500D01*
X188043766Y-110070500D01*
X188043767Y-110070500D01*
X188208082Y-110037816D01*
X188362863Y-109973703D01*
X188502162Y-109880626D01*
X188620626Y-109762162D01*
X188713703Y-109622863D01*
X188777816Y-109468082D01*
X188810500Y-109303767D01*
X188810500Y-109136233D01*
X188810499Y-109136230D01*
X188810498Y-109136227D01*
X189649500Y-109136227D01*
X189649500Y-109303771D01*
X189653980Y-109326291D01*
X189682183Y-109468079D01*
X189682185Y-109468085D01*
X189746296Y-109622862D01*
X189746297Y-109622863D01*
X189839374Y-109762162D01*
X189957838Y-109880626D01*
X190097137Y-109973703D01*
X190251918Y-110037816D01*
X190416233Y-110070500D01*
X190416234Y-110070500D01*
X190583766Y-110070500D01*
X190583767Y-110070500D01*
X190748082Y-110037816D01*
X190902863Y-109973703D01*
X191042162Y-109880626D01*
X191160626Y-109762162D01*
X191253703Y-109622863D01*
X191317816Y-109468082D01*
X191350500Y-109303767D01*
X191350500Y-109136233D01*
X191350499Y-109136230D01*
X191350498Y-109136227D01*
X192189500Y-109136227D01*
X192189500Y-109303771D01*
X192193980Y-109326291D01*
X192222183Y-109468079D01*
X192222185Y-109468085D01*
X192286296Y-109622862D01*
X192286297Y-109622863D01*
X192379374Y-109762162D01*
X192497838Y-109880626D01*
X192637137Y-109973703D01*
X192791918Y-110037816D01*
X192956233Y-110070500D01*
X192956234Y-110070500D01*
X193123766Y-110070500D01*
X193123767Y-110070500D01*
X193288082Y-110037816D01*
X193442863Y-109973703D01*
X193582162Y-109880626D01*
X193700626Y-109762162D01*
X193793703Y-109622863D01*
X193857816Y-109468082D01*
X193890500Y-109303767D01*
X193890500Y-109136233D01*
X193857816Y-108971918D01*
X193793703Y-108817137D01*
X193700626Y-108677838D01*
X193582162Y-108559374D01*
X193500002Y-108504476D01*
X193487496Y-108488612D01*
X193442869Y-108466299D01*
X193442862Y-108466296D01*
X193288085Y-108402185D01*
X193288079Y-108402183D01*
X193205924Y-108385841D01*
X193123771Y-108369500D01*
X193123769Y-108369500D01*
X193123767Y-108369500D01*
X192956233Y-108369500D01*
X192956230Y-108369500D01*
X192956227Y-108369500D01*
X192832997Y-108394012D01*
X192791920Y-108402183D01*
X192791914Y-108402185D01*
X192791911Y-108402186D01*
X192637137Y-108466295D01*
X192497838Y-108559373D01*
X192379373Y-108677838D01*
X192286295Y-108817137D01*
X192222186Y-108971911D01*
X192222183Y-108971920D01*
X192189500Y-109136227D01*
X191350498Y-109136227D01*
X191317816Y-108971920D01*
X191317816Y-108971919D01*
X191317816Y-108971918D01*
X191253703Y-108817137D01*
X191160626Y-108677838D01*
X191042162Y-108559374D01*
X190960002Y-108504476D01*
X190947496Y-108488612D01*
X190902869Y-108466299D01*
X190902862Y-108466296D01*
X190748085Y-108402185D01*
X190748079Y-108402183D01*
X190665924Y-108385841D01*
X190583771Y-108369500D01*
X190583769Y-108369500D01*
X190583767Y-108369500D01*
X190416233Y-108369500D01*
X190416230Y-108369500D01*
X190416227Y-108369500D01*
X190292997Y-108394012D01*
X190251920Y-108402183D01*
X190251914Y-108402185D01*
X190251911Y-108402186D01*
X190097137Y-108466295D01*
X189957838Y-108559373D01*
X189839373Y-108677838D01*
X189746295Y-108817137D01*
X189682186Y-108971911D01*
X189682183Y-108971920D01*
X189649500Y-109136227D01*
X188810498Y-109136227D01*
X188777816Y-108971920D01*
X188777816Y-108971919D01*
X188777816Y-108971918D01*
X188713703Y-108817137D01*
X188620626Y-108677838D01*
X188502162Y-108559374D01*
X188420002Y-108504476D01*
X188407496Y-108488612D01*
X188362869Y-108466299D01*
X188362862Y-108466296D01*
X188208085Y-108402185D01*
X188208079Y-108402183D01*
X188125924Y-108385841D01*
X188043771Y-108369500D01*
X188043769Y-108369500D01*
X188043767Y-108369500D01*
X187876233Y-108369500D01*
X187876230Y-108369500D01*
X187876227Y-108369500D01*
X187752997Y-108394012D01*
X187711920Y-108402183D01*
X187711914Y-108402185D01*
X187711911Y-108402186D01*
X187557137Y-108466295D01*
X187417838Y-108559373D01*
X187299373Y-108677838D01*
X187206295Y-108817137D01*
X187142186Y-108971911D01*
X187142183Y-108971920D01*
X187109500Y-109136227D01*
X174075499Y-109136227D01*
X174075499Y-105476156D01*
X175119499Y-105476156D01*
X175119499Y-105633845D01*
X175128533Y-105679263D01*
X175148360Y-105778934D01*
X175148360Y-105778938D01*
X175150261Y-105788500D01*
X175210599Y-105934170D01*
X175210605Y-105934181D01*
X175210612Y-105934193D01*
X175223077Y-105952847D01*
X175229269Y-105962113D01*
X175298210Y-106065290D01*
X175298213Y-106065293D01*
X175298217Y-106065298D01*
X175409706Y-106176786D01*
X175409710Y-106176790D01*
X175487875Y-106229018D01*
X175540813Y-106264391D01*
X175540824Y-106264397D01*
X175594637Y-106286686D01*
X175599295Y-106288615D01*
X175599298Y-106288617D01*
X175642493Y-106306509D01*
X175686502Y-106324738D01*
X175841157Y-106355501D01*
X175841158Y-106355501D01*
X175998840Y-106355501D01*
X175998841Y-106355501D01*
X176153496Y-106324738D01*
X176299178Y-106264395D01*
X176430288Y-106176790D01*
X176541788Y-106065290D01*
X176629393Y-105934180D01*
X176689736Y-105788498D01*
X176720499Y-105633843D01*
X176720499Y-105476159D01*
X176689736Y-105321504D01*
X176629393Y-105175822D01*
X176629392Y-105175820D01*
X176629389Y-105175815D01*
X176568876Y-105085252D01*
X176541788Y-105044712D01*
X176430288Y-104933212D01*
X176378058Y-104898313D01*
X176299184Y-104845610D01*
X176299173Y-104845604D01*
X176299168Y-104845601D01*
X176153497Y-104785264D01*
X175998843Y-104754501D01*
X175998841Y-104754501D01*
X175841157Y-104754501D01*
X175841154Y-104754501D01*
X175841153Y-104754501D01*
X175776679Y-104767326D01*
X175696064Y-104783362D01*
X175696057Y-104783362D01*
X175686498Y-104785263D01*
X175540828Y-104845601D01*
X175540805Y-104845614D01*
X175409710Y-104933211D01*
X175298209Y-105044712D01*
X175210612Y-105175807D01*
X175210599Y-105175830D01*
X175150905Y-105319945D01*
X175150904Y-105319951D01*
X175150262Y-105321502D01*
X175150262Y-105321504D01*
X175119499Y-105476156D01*
X174075499Y-105476156D01*
X174075499Y-102936156D01*
X175119499Y-102936156D01*
X175119499Y-103093845D01*
X175120129Y-103097012D01*
X175148360Y-103238934D01*
X175148360Y-103238938D01*
X175150261Y-103248500D01*
X175210599Y-103394170D01*
X175210602Y-103394175D01*
X175210608Y-103394186D01*
X175263311Y-103473060D01*
X175298210Y-103525290D01*
X175298213Y-103525293D01*
X175298217Y-103525298D01*
X175409706Y-103636786D01*
X175409710Y-103636790D01*
X175487875Y-103689018D01*
X175540813Y-103724391D01*
X175540824Y-103724397D01*
X175576473Y-103739163D01*
X175686502Y-103784738D01*
X175841157Y-103815501D01*
X175841158Y-103815501D01*
X175998840Y-103815501D01*
X175998841Y-103815501D01*
X176153496Y-103784738D01*
X176299178Y-103724395D01*
X176430288Y-103636790D01*
X176541788Y-103525290D01*
X176629393Y-103394180D01*
X176689736Y-103248498D01*
X176720499Y-103093843D01*
X176720499Y-102936159D01*
X176689736Y-102781504D01*
X176629393Y-102635822D01*
X176629392Y-102635820D01*
X176629389Y-102635815D01*
X176594016Y-102582877D01*
X176541788Y-102504712D01*
X176541784Y-102504708D01*
X176430296Y-102393219D01*
X176430292Y-102393216D01*
X176430288Y-102393212D01*
X176378058Y-102358313D01*
X176299184Y-102305610D01*
X176299173Y-102305604D01*
X176299168Y-102305601D01*
X176153497Y-102245264D01*
X175998843Y-102214501D01*
X175998841Y-102214501D01*
X175841157Y-102214501D01*
X175841154Y-102214501D01*
X175841153Y-102214501D01*
X175776679Y-102227326D01*
X175696064Y-102243362D01*
X175696057Y-102243362D01*
X175686498Y-102245263D01*
X175540828Y-102305601D01*
X175540805Y-102305614D01*
X175409710Y-102393211D01*
X175298209Y-102504712D01*
X175210612Y-102635807D01*
X175210599Y-102635830D01*
X175150905Y-102779945D01*
X175150904Y-102779951D01*
X175150262Y-102781502D01*
X175150262Y-102781504D01*
X175119499Y-102936156D01*
X174075499Y-102936156D01*
X174075499Y-97411154D01*
X175119499Y-97411154D01*
X175119499Y-97568843D01*
X175120129Y-97572010D01*
X175148360Y-97713932D01*
X175148360Y-97713936D01*
X175150261Y-97723498D01*
X175210599Y-97869168D01*
X175210602Y-97869173D01*
X175210608Y-97869184D01*
X175247960Y-97925084D01*
X175298211Y-98000290D01*
X175409706Y-98111784D01*
X175409710Y-98111788D01*
X175487875Y-98164016D01*
X175540813Y-98199389D01*
X175540824Y-98199395D01*
X175594637Y-98221684D01*
X175599295Y-98223613D01*
X175599298Y-98223615D01*
X175642493Y-98241507D01*
X175686502Y-98259736D01*
X175841157Y-98290499D01*
X175841158Y-98290499D01*
X175998840Y-98290499D01*
X175998841Y-98290499D01*
X176153496Y-98259736D01*
X176299178Y-98199393D01*
X176430288Y-98111788D01*
X176541788Y-98000288D01*
X176629393Y-97869178D01*
X176689736Y-97723496D01*
X176720499Y-97568841D01*
X176720499Y-97411157D01*
X176689736Y-97256502D01*
X176669621Y-97207941D01*
X176629395Y-97110824D01*
X176629389Y-97110813D01*
X176587094Y-97047515D01*
X176541788Y-96979710D01*
X176430288Y-96868210D01*
X176357369Y-96819487D01*
X176357368Y-96819486D01*
X176299193Y-96780613D01*
X176299168Y-96780599D01*
X176153497Y-96720262D01*
X175998843Y-96689499D01*
X175998841Y-96689499D01*
X175841157Y-96689499D01*
X175841154Y-96689499D01*
X175841153Y-96689499D01*
X175776679Y-96702324D01*
X175696064Y-96718360D01*
X175696057Y-96718360D01*
X175686498Y-96720261D01*
X175540828Y-96780599D01*
X175540805Y-96780612D01*
X175409710Y-96868209D01*
X175298209Y-96979710D01*
X175210612Y-97110805D01*
X175210599Y-97110828D01*
X175150905Y-97254943D01*
X175150904Y-97254949D01*
X175150262Y-97256500D01*
X175150262Y-97256502D01*
X175119499Y-97411154D01*
X174075499Y-97411154D01*
X174075499Y-96692743D01*
X174074985Y-96689499D01*
X174058096Y-96582874D01*
X174058095Y-96582872D01*
X174058095Y-96582869D01*
X174058094Y-96582867D01*
X174039189Y-96524691D01*
X174039187Y-96524684D01*
X174027844Y-96502426D01*
X174018270Y-96441996D01*
X174046043Y-96387479D01*
X174060508Y-96373015D01*
X174060509Y-96373012D01*
X174060511Y-96373011D01*
X174132981Y-96247489D01*
X174132981Y-96247487D01*
X174132983Y-96247485D01*
X174170499Y-96107475D01*
X174170499Y-95962525D01*
X174132983Y-95822515D01*
X174132981Y-95822512D01*
X174132981Y-95822510D01*
X174132976Y-95822502D01*
X174132655Y-95821792D01*
X174131396Y-95819764D01*
X174061984Y-95699539D01*
X174061984Y-95699540D01*
X174060511Y-95696989D01*
X174060509Y-95696987D01*
X174060508Y-95696985D01*
X173958014Y-95594491D01*
X173958011Y-95594489D01*
X173958009Y-95594487D01*
X173889773Y-95555091D01*
X173868740Y-95531731D01*
X173832488Y-95522017D01*
X173802895Y-95514087D01*
X173783840Y-95508981D01*
X173769301Y-95505085D01*
X173717988Y-95471759D01*
X173697139Y-95424898D01*
X173692167Y-95393403D01*
X173657851Y-95287605D01*
X173652267Y-95276632D01*
X173623145Y-95229055D01*
X173604951Y-95203986D01*
X173568739Y-95161544D01*
X172305974Y-93897525D01*
X174399499Y-93897525D01*
X174399499Y-94042475D01*
X174399803Y-94043609D01*
X174437016Y-94182489D01*
X174437017Y-94182491D01*
X174437018Y-94182494D01*
X174509484Y-94308008D01*
X174509486Y-94308010D01*
X174509488Y-94308012D01*
X174509490Y-94308015D01*
X174611984Y-94410509D01*
X174611986Y-94410510D01*
X174611988Y-94410512D01*
X174612535Y-94410907D01*
X174614537Y-94411984D01*
X174737510Y-94482982D01*
X174737511Y-94482982D01*
X174737514Y-94482984D01*
X174877524Y-94520500D01*
X174877525Y-94520500D01*
X175022473Y-94520500D01*
X175022474Y-94520500D01*
X175162484Y-94482984D01*
X175162485Y-94482983D01*
X175162487Y-94482982D01*
X175162488Y-94482982D01*
X175281879Y-94414051D01*
X175284767Y-94412648D01*
X175285553Y-94412131D01*
X175290562Y-94409037D01*
X175291861Y-94408286D01*
X175297219Y-94401303D01*
X175390508Y-94308015D01*
X175462983Y-94182485D01*
X175500499Y-94042475D01*
X175500499Y-93897525D01*
X175462983Y-93757515D01*
X175462981Y-93757512D01*
X175462981Y-93757510D01*
X175462976Y-93757502D01*
X175462655Y-93756792D01*
X175461396Y-93754764D01*
X175391984Y-93634539D01*
X175391984Y-93634540D01*
X175390511Y-93631989D01*
X175390509Y-93631987D01*
X175390508Y-93631985D01*
X175288014Y-93529491D01*
X175288011Y-93529489D01*
X175288009Y-93529487D01*
X175219773Y-93490091D01*
X175198740Y-93466731D01*
X175132896Y-93449087D01*
X175132895Y-93449087D01*
X175022474Y-93419500D01*
X175022472Y-93419500D01*
X174877525Y-93419500D01*
X174877524Y-93419500D01*
X174856946Y-93425014D01*
X174737504Y-93457018D01*
X174611992Y-93529483D01*
X174509482Y-93631993D01*
X174437624Y-93756454D01*
X174437623Y-93756457D01*
X174437016Y-93757510D01*
X174437015Y-93757515D01*
X174399499Y-93897525D01*
X172305974Y-93897525D01*
X171821140Y-93412209D01*
X171793390Y-93357681D01*
X171802992Y-93297253D01*
X171841678Y-93256507D01*
X171845937Y-93254048D01*
X171848821Y-93252648D01*
X171849604Y-93252132D01*
X171854617Y-93249036D01*
X171855913Y-93248287D01*
X171861272Y-93241303D01*
X171954561Y-93148015D01*
X172018237Y-93037725D01*
X172027034Y-93022489D01*
X172027034Y-93022487D01*
X172027036Y-93022485D01*
X172064552Y-92882475D01*
X172064552Y-92737525D01*
X172027036Y-92597515D01*
X172027034Y-92597512D01*
X172027034Y-92597510D01*
X172027029Y-92597502D01*
X172026708Y-92596792D01*
X172025449Y-92594764D01*
X171956037Y-92474539D01*
X171956037Y-92474540D01*
X171954564Y-92471989D01*
X171954562Y-92471987D01*
X171954561Y-92471985D01*
X171852067Y-92369491D01*
X171852064Y-92369489D01*
X171852062Y-92369487D01*
X171852061Y-92369486D01*
X171783827Y-92330091D01*
X171762793Y-92306730D01*
X171599402Y-92262950D01*
X171599402Y-92262949D01*
X171599400Y-92262949D01*
X171586529Y-92259500D01*
X171586527Y-92259500D01*
X171441577Y-92259500D01*
X171428706Y-92262949D01*
X171428702Y-92262950D01*
X171301557Y-92297018D01*
X171176045Y-92369483D01*
X171073535Y-92471993D01*
X171067872Y-92481802D01*
X171022400Y-92522741D01*
X170961550Y-92529134D01*
X170912100Y-92502267D01*
X170681502Y-92271441D01*
X170653751Y-92216911D01*
X170663353Y-92156483D01*
X170697033Y-92118828D01*
X170699606Y-92117131D01*
X170704615Y-92114037D01*
X170705914Y-92113286D01*
X170711272Y-92106303D01*
X170804561Y-92013015D01*
X170839760Y-91952049D01*
X170877034Y-91887489D01*
X170877034Y-91887487D01*
X170877036Y-91887485D01*
X170914552Y-91747475D01*
X170914552Y-91602525D01*
X172113552Y-91602525D01*
X172113552Y-91747475D01*
X172143139Y-91857896D01*
X172147717Y-91874982D01*
X172151069Y-91887491D01*
X172151070Y-91887492D01*
X172223537Y-92013008D01*
X172223539Y-92013010D01*
X172223541Y-92013012D01*
X172223543Y-92013015D01*
X172326037Y-92115509D01*
X172326039Y-92115510D01*
X172326041Y-92115512D01*
X172326588Y-92115907D01*
X172328590Y-92116984D01*
X172451563Y-92187982D01*
X172451564Y-92187982D01*
X172451567Y-92187984D01*
X172591577Y-92225500D01*
X172591578Y-92225500D01*
X172736526Y-92225500D01*
X172736527Y-92225500D01*
X172876537Y-92187984D01*
X172876538Y-92187983D01*
X172876540Y-92187982D01*
X172876541Y-92187982D01*
X172995932Y-92119051D01*
X172998820Y-92117648D01*
X172999606Y-92117131D01*
X173004615Y-92114037D01*
X173005914Y-92113286D01*
X173011272Y-92106303D01*
X173104561Y-92013015D01*
X173139760Y-91952049D01*
X173177034Y-91887489D01*
X173177034Y-91887487D01*
X173177036Y-91887485D01*
X173214552Y-91747475D01*
X173214552Y-91602525D01*
X173177036Y-91462515D01*
X173177034Y-91462512D01*
X173177034Y-91462510D01*
X173177029Y-91462502D01*
X173176708Y-91461792D01*
X173175449Y-91459764D01*
X173106037Y-91339539D01*
X173106037Y-91339540D01*
X173104564Y-91336989D01*
X173104562Y-91336987D01*
X173104561Y-91336985D01*
X173002067Y-91234491D01*
X173002064Y-91234489D01*
X173002062Y-91234487D01*
X173002061Y-91234486D01*
X172933827Y-91195091D01*
X172912793Y-91171730D01*
X172839780Y-91152167D01*
X172736527Y-91124500D01*
X172736526Y-91124500D01*
X172591575Y-91124500D01*
X172529840Y-91141041D01*
X172529839Y-91141040D01*
X172451564Y-91162015D01*
X172451558Y-91162018D01*
X172326045Y-91234483D01*
X172223535Y-91336993D01*
X172151068Y-91462510D01*
X172150791Y-91463244D01*
X172150244Y-91465587D01*
X172113552Y-91602525D01*
X170914552Y-91602525D01*
X170877036Y-91462515D01*
X170877034Y-91462512D01*
X170877034Y-91462510D01*
X170876874Y-91462234D01*
X170876798Y-91461936D01*
X170875449Y-91459764D01*
X170806037Y-91339539D01*
X170806037Y-91339540D01*
X170804564Y-91336989D01*
X170804562Y-91336987D01*
X170804561Y-91336985D01*
X170702067Y-91234491D01*
X170702064Y-91234489D01*
X170702062Y-91234487D01*
X170702061Y-91234486D01*
X170633827Y-91195091D01*
X170612793Y-91171730D01*
X170539780Y-91152167D01*
X170436527Y-91124500D01*
X170436526Y-91124500D01*
X170291575Y-91124500D01*
X170229840Y-91141041D01*
X170229839Y-91141040D01*
X170151564Y-91162015D01*
X170151558Y-91162018D01*
X170026045Y-91234483D01*
X169923536Y-91336992D01*
X169919588Y-91342138D01*
X169918514Y-91341314D01*
X169878301Y-91377515D01*
X169817450Y-91383903D01*
X169768007Y-91357038D01*
X169552223Y-91141040D01*
X169524531Y-91113320D01*
X169496780Y-91058789D01*
X169506382Y-90998362D01*
X169545064Y-90957617D01*
X169550809Y-90954300D01*
X169553700Y-90952897D01*
X169554488Y-90952378D01*
X169559501Y-90949282D01*
X169560797Y-90948533D01*
X169566156Y-90941549D01*
X169659445Y-90848261D01*
X169722577Y-90738914D01*
X169731918Y-90722735D01*
X169731918Y-90722733D01*
X169731920Y-90722731D01*
X169769436Y-90582721D01*
X169769436Y-90452524D01*
X170956646Y-90452524D01*
X170956646Y-90597474D01*
X170956916Y-90598480D01*
X170960021Y-90610071D01*
X170960022Y-90610073D01*
X170994164Y-90737492D01*
X171066631Y-90863007D01*
X171066633Y-90863009D01*
X171066635Y-90863011D01*
X171066637Y-90863014D01*
X171169131Y-90965508D01*
X171169133Y-90965509D01*
X171169135Y-90965511D01*
X171169682Y-90965906D01*
X171171684Y-90966983D01*
X171294657Y-91037981D01*
X171294658Y-91037981D01*
X171294661Y-91037983D01*
X171434671Y-91075499D01*
X171434672Y-91075499D01*
X171579620Y-91075499D01*
X171579621Y-91075499D01*
X171719631Y-91037983D01*
X171719632Y-91037982D01*
X171719634Y-91037981D01*
X171719635Y-91037981D01*
X171839026Y-90969050D01*
X171841914Y-90967647D01*
X171842700Y-90967130D01*
X171847709Y-90964036D01*
X171849008Y-90963285D01*
X171854366Y-90956302D01*
X171947655Y-90863014D01*
X171956176Y-90848256D01*
X172020128Y-90737488D01*
X172020128Y-90737486D01*
X172020130Y-90737484D01*
X172057646Y-90597474D01*
X172057646Y-90453530D01*
X173251161Y-90453530D01*
X173251161Y-90598479D01*
X173254268Y-90610073D01*
X173288679Y-90738498D01*
X173361146Y-90864013D01*
X173361148Y-90864015D01*
X173361150Y-90864017D01*
X173361152Y-90864020D01*
X173463646Y-90966514D01*
X173463648Y-90966515D01*
X173463650Y-90966517D01*
X173464197Y-90966912D01*
X173466199Y-90967989D01*
X173589172Y-91038987D01*
X173589173Y-91038987D01*
X173589176Y-91038989D01*
X173729186Y-91076505D01*
X173729187Y-91076505D01*
X173874135Y-91076505D01*
X173874136Y-91076505D01*
X174014146Y-91038989D01*
X174014147Y-91038988D01*
X174014149Y-91038987D01*
X174014150Y-91038987D01*
X174133541Y-90970056D01*
X174136429Y-90968653D01*
X174137215Y-90968136D01*
X174142224Y-90965042D01*
X174143523Y-90964291D01*
X174148881Y-90957308D01*
X174242170Y-90864020D01*
X174242754Y-90863009D01*
X174314643Y-90738494D01*
X174314643Y-90738492D01*
X174314645Y-90738490D01*
X174352161Y-90598480D01*
X174352161Y-90453530D01*
X174314645Y-90313520D01*
X174314643Y-90313517D01*
X174314643Y-90313515D01*
X174314640Y-90313510D01*
X174314317Y-90312797D01*
X174313058Y-90310769D01*
X174243646Y-90190544D01*
X174243646Y-90190545D01*
X174242173Y-90187994D01*
X174242171Y-90187992D01*
X174242170Y-90187990D01*
X174139676Y-90085496D01*
X174139673Y-90085494D01*
X174139671Y-90085492D01*
X174139670Y-90085491D01*
X174071436Y-90046096D01*
X174050402Y-90022735D01*
X173955333Y-89997262D01*
X173935863Y-89992045D01*
X173874136Y-89975505D01*
X173874135Y-89975505D01*
X173729184Y-89975505D01*
X173667449Y-89992046D01*
X173667448Y-89992045D01*
X173589173Y-90013020D01*
X173589167Y-90013023D01*
X173463654Y-90085488D01*
X173361144Y-90187998D01*
X173288679Y-90313510D01*
X173267703Y-90391792D01*
X173251161Y-90453530D01*
X172057646Y-90453530D01*
X172057646Y-90452524D01*
X172020130Y-90312514D01*
X172020128Y-90312511D01*
X172020128Y-90312509D01*
X172019945Y-90312193D01*
X172019871Y-90311901D01*
X172018543Y-90309763D01*
X171949131Y-90189538D01*
X171949131Y-90189539D01*
X171947658Y-90186988D01*
X171947656Y-90186986D01*
X171947655Y-90186984D01*
X171845161Y-90084490D01*
X171845158Y-90084488D01*
X171845156Y-90084486D01*
X171845155Y-90084485D01*
X171776921Y-90045090D01*
X171755887Y-90021729D01*
X171664576Y-89997263D01*
X171624819Y-89986610D01*
X171579621Y-89974499D01*
X171579620Y-89974499D01*
X171434669Y-89974499D01*
X171372934Y-89991040D01*
X171372933Y-89991039D01*
X171294658Y-90012014D01*
X171294652Y-90012017D01*
X171169139Y-90084482D01*
X171066629Y-90186992D01*
X170994163Y-90312506D01*
X170993893Y-90313514D01*
X170993892Y-90313520D01*
X170956646Y-90452524D01*
X169769436Y-90452524D01*
X169769436Y-90437771D01*
X169731920Y-90297761D01*
X169731918Y-90297758D01*
X169731918Y-90297756D01*
X169731424Y-90296901D01*
X169731374Y-90296687D01*
X169730333Y-90295010D01*
X169660921Y-90174785D01*
X169660921Y-90174786D01*
X169659448Y-90172235D01*
X169659446Y-90172233D01*
X169659445Y-90172231D01*
X169556951Y-90069737D01*
X169556948Y-90069735D01*
X169556946Y-90069733D01*
X169488710Y-90030337D01*
X169467677Y-90006977D01*
X169401833Y-89989333D01*
X169401832Y-89989333D01*
X169291411Y-89959746D01*
X169291409Y-89959746D01*
X169146462Y-89959746D01*
X169146461Y-89959746D01*
X169091403Y-89974499D01*
X169006441Y-89997264D01*
X168880929Y-90069729D01*
X168778421Y-90172237D01*
X168771895Y-90183541D01*
X168726425Y-90224482D01*
X168665574Y-90230876D01*
X168616121Y-90204009D01*
X168481978Y-90069733D01*
X168398937Y-89986609D01*
X168371187Y-89932079D01*
X168380789Y-89871652D01*
X168398831Y-89846779D01*
X168416834Y-89828702D01*
X168417083Y-89828453D01*
X168417135Y-89828427D01*
X168417219Y-89828317D01*
X168510508Y-89735029D01*
X168514558Y-89728015D01*
X168582981Y-89609503D01*
X168582981Y-89609501D01*
X168582983Y-89609499D01*
X168620499Y-89469489D01*
X168620499Y-89324539D01*
X168618620Y-89317525D01*
X169798553Y-89317525D01*
X169798553Y-89462475D01*
X169802718Y-89478018D01*
X169805582Y-89488706D01*
X169836071Y-89602493D01*
X169908538Y-89728008D01*
X169908540Y-89728010D01*
X169908542Y-89728012D01*
X169908544Y-89728015D01*
X170011038Y-89830509D01*
X170011040Y-89830510D01*
X170011042Y-89830512D01*
X170011589Y-89830907D01*
X170013591Y-89831984D01*
X170136564Y-89902982D01*
X170136565Y-89902982D01*
X170136568Y-89902984D01*
X170276578Y-89940500D01*
X170276579Y-89940500D01*
X170421527Y-89940500D01*
X170421528Y-89940500D01*
X170561538Y-89902984D01*
X170561539Y-89902983D01*
X170561541Y-89902982D01*
X170561542Y-89902982D01*
X170680933Y-89834051D01*
X170683821Y-89832648D01*
X170684607Y-89832131D01*
X170689616Y-89829037D01*
X170690915Y-89828286D01*
X170696273Y-89821303D01*
X170789562Y-89728015D01*
X170789565Y-89728010D01*
X170862035Y-89602489D01*
X170862035Y-89602487D01*
X170862037Y-89602485D01*
X170895389Y-89478015D01*
X172091430Y-89478015D01*
X172128949Y-89618037D01*
X172201416Y-89743552D01*
X172201418Y-89743554D01*
X172201420Y-89743556D01*
X172201422Y-89743559D01*
X172303916Y-89846053D01*
X172303918Y-89846054D01*
X172303920Y-89846056D01*
X172304467Y-89846451D01*
X172306469Y-89847528D01*
X172429442Y-89918526D01*
X172429443Y-89918526D01*
X172429446Y-89918528D01*
X172569456Y-89956044D01*
X172569457Y-89956044D01*
X172714405Y-89956044D01*
X172714406Y-89956044D01*
X172854416Y-89918528D01*
X172854417Y-89918527D01*
X172854419Y-89918526D01*
X172854420Y-89918526D01*
X172973811Y-89849595D01*
X172976699Y-89848192D01*
X172977485Y-89847675D01*
X172982494Y-89844581D01*
X172983793Y-89843830D01*
X172989151Y-89836847D01*
X173082440Y-89743559D01*
X173091417Y-89728010D01*
X173154913Y-89618033D01*
X173154913Y-89618031D01*
X173154915Y-89618029D01*
X173192431Y-89478019D01*
X173192431Y-89333069D01*
X173154915Y-89193059D01*
X173154913Y-89193056D01*
X173154913Y-89193054D01*
X173154908Y-89193046D01*
X173154587Y-89192336D01*
X173153328Y-89190308D01*
X173083916Y-89070083D01*
X173083916Y-89070084D01*
X173082443Y-89067533D01*
X173082441Y-89067531D01*
X173082440Y-89067529D01*
X172979946Y-88965035D01*
X172979943Y-88965033D01*
X172979941Y-88965031D01*
X172979940Y-88965030D01*
X172911706Y-88925635D01*
X172890672Y-88902274D01*
X172796409Y-88877017D01*
X172776133Y-88871584D01*
X172714406Y-88855044D01*
X172714405Y-88855044D01*
X172569454Y-88855044D01*
X172507719Y-88871585D01*
X172507718Y-88871584D01*
X172429443Y-88892559D01*
X172429437Y-88892562D01*
X172303924Y-88965027D01*
X172201414Y-89067537D01*
X172128949Y-89193049D01*
X172091431Y-89333070D01*
X172091431Y-89478015D01*
X172091430Y-89478015D01*
X170895389Y-89478015D01*
X170899553Y-89462475D01*
X170899553Y-89317525D01*
X170862037Y-89177515D01*
X170862035Y-89177512D01*
X170862035Y-89177510D01*
X170861526Y-89176628D01*
X170861476Y-89176416D01*
X170860450Y-89174764D01*
X170791038Y-89054539D01*
X170791038Y-89054540D01*
X170789565Y-89051989D01*
X170789563Y-89051987D01*
X170789562Y-89051985D01*
X170687068Y-88949491D01*
X170687065Y-88949489D01*
X170687063Y-88949487D01*
X170687062Y-88949486D01*
X170618828Y-88910091D01*
X170597794Y-88886730D01*
X170447704Y-88846514D01*
X170447702Y-88846513D01*
X170421528Y-88839500D01*
X170276578Y-88839500D01*
X170250401Y-88846513D01*
X170250402Y-88846514D01*
X170136563Y-88877017D01*
X170136561Y-88877017D01*
X170136557Y-88877019D01*
X170011046Y-88949483D01*
X169908536Y-89051993D01*
X169836071Y-89177506D01*
X169836070Y-89177509D01*
X169831904Y-89193053D01*
X169831905Y-89193054D01*
X169798553Y-89317525D01*
X168618620Y-89317525D01*
X168582983Y-89184529D01*
X168582981Y-89184526D01*
X168582981Y-89184524D01*
X168582903Y-89184389D01*
X168582820Y-89184072D01*
X168581396Y-89181778D01*
X168511984Y-89061553D01*
X168511984Y-89061554D01*
X168510511Y-89059003D01*
X168510509Y-89059001D01*
X168510508Y-89058999D01*
X168408014Y-88956505D01*
X168408011Y-88956503D01*
X168408009Y-88956501D01*
X168339773Y-88917105D01*
X168318740Y-88893745D01*
X168252896Y-88876101D01*
X168252895Y-88876101D01*
X168142474Y-88846514D01*
X168142472Y-88846514D01*
X167997525Y-88846514D01*
X167997524Y-88846514D01*
X167965690Y-88855044D01*
X167857504Y-88884032D01*
X167731992Y-88956497D01*
X167629482Y-89059007D01*
X167557017Y-89184520D01*
X167557015Y-89184524D01*
X167529958Y-89285499D01*
X167529959Y-89285500D01*
X167519499Y-89324539D01*
X167519499Y-89355500D01*
X167500592Y-89413691D01*
X167451092Y-89449655D01*
X167420499Y-89454500D01*
X164003733Y-89454500D01*
X163945542Y-89435593D01*
X163909578Y-89386093D01*
X163904733Y-89355531D01*
X163904640Y-89058999D01*
X163904367Y-88187525D01*
X166388552Y-88187525D01*
X166388552Y-88332474D01*
X166419573Y-88448245D01*
X166426070Y-88472493D01*
X166498537Y-88598008D01*
X166498539Y-88598010D01*
X166498541Y-88598012D01*
X166498543Y-88598015D01*
X166601037Y-88700509D01*
X166601039Y-88700510D01*
X166601041Y-88700512D01*
X166601588Y-88700907D01*
X166603590Y-88701984D01*
X166726563Y-88772982D01*
X166726564Y-88772982D01*
X166726567Y-88772984D01*
X166866577Y-88810500D01*
X166866578Y-88810500D01*
X167011526Y-88810500D01*
X167011527Y-88810500D01*
X167151537Y-88772984D01*
X167151538Y-88772983D01*
X167151540Y-88772982D01*
X167151541Y-88772982D01*
X167270932Y-88704051D01*
X167273820Y-88702648D01*
X167274606Y-88702131D01*
X167279615Y-88699037D01*
X167280913Y-88698287D01*
X167286271Y-88691304D01*
X167379561Y-88598015D01*
X167398606Y-88565029D01*
X167452034Y-88472489D01*
X167452034Y-88472487D01*
X167452036Y-88472485D01*
X167489552Y-88332475D01*
X167489552Y-88187525D01*
X167480714Y-88154540D01*
X168679497Y-88154540D01*
X168679497Y-88299491D01*
X168688335Y-88332473D01*
X168688335Y-88332475D01*
X168688336Y-88332475D01*
X168717015Y-88439507D01*
X168789482Y-88565022D01*
X168789484Y-88565024D01*
X168789486Y-88565026D01*
X168789488Y-88565029D01*
X168891982Y-88667523D01*
X168891984Y-88667524D01*
X168891986Y-88667526D01*
X168892533Y-88667921D01*
X168894535Y-88668998D01*
X169017508Y-88739996D01*
X169017509Y-88739996D01*
X169017512Y-88739998D01*
X169157522Y-88777514D01*
X169157523Y-88777514D01*
X169302471Y-88777514D01*
X169302472Y-88777514D01*
X169442482Y-88739998D01*
X169442483Y-88739997D01*
X169442485Y-88739996D01*
X169442486Y-88739996D01*
X169561877Y-88671065D01*
X169564765Y-88669662D01*
X169565551Y-88669145D01*
X169570560Y-88666051D01*
X169571859Y-88665300D01*
X169577217Y-88658317D01*
X169670506Y-88565029D01*
X169723934Y-88472489D01*
X169742979Y-88439503D01*
X169742979Y-88439501D01*
X169742981Y-88439499D01*
X169780497Y-88299489D01*
X169780497Y-88154539D01*
X169778618Y-88147527D01*
X170958552Y-88147527D01*
X170958552Y-88292478D01*
X170964878Y-88316086D01*
X170964878Y-88316087D01*
X170964879Y-88316087D01*
X170964879Y-88316088D01*
X170996069Y-88432490D01*
X170996070Y-88432492D01*
X170996071Y-88432495D01*
X171068537Y-88558009D01*
X171068539Y-88558011D01*
X171068541Y-88558013D01*
X171068543Y-88558016D01*
X171171037Y-88660510D01*
X171171039Y-88660511D01*
X171171041Y-88660513D01*
X171171588Y-88660908D01*
X171173590Y-88661985D01*
X171296563Y-88732983D01*
X171296564Y-88732983D01*
X171296567Y-88732985D01*
X171436577Y-88770501D01*
X171436578Y-88770501D01*
X171581526Y-88770501D01*
X171581527Y-88770501D01*
X171721537Y-88732985D01*
X171721538Y-88732984D01*
X171721540Y-88732983D01*
X171721541Y-88732983D01*
X171840932Y-88664052D01*
X171843820Y-88662649D01*
X171844606Y-88662132D01*
X171849615Y-88659038D01*
X171850914Y-88658287D01*
X171856272Y-88651304D01*
X171949561Y-88558016D01*
X171998940Y-88472489D01*
X172022034Y-88432490D01*
X172022034Y-88432488D01*
X172022036Y-88432486D01*
X172059552Y-88292476D01*
X172059552Y-88163285D01*
X173252462Y-88163285D01*
X173252462Y-88308234D01*
X173285547Y-88431709D01*
X173289980Y-88448253D01*
X173362447Y-88573768D01*
X173362449Y-88573770D01*
X173362451Y-88573772D01*
X173362453Y-88573775D01*
X173464947Y-88676269D01*
X173464949Y-88676270D01*
X173464951Y-88676272D01*
X173465498Y-88676667D01*
X173467500Y-88677744D01*
X173590473Y-88748742D01*
X173590474Y-88748742D01*
X173590477Y-88748744D01*
X173730487Y-88786260D01*
X173730488Y-88786260D01*
X173875436Y-88786260D01*
X173875437Y-88786260D01*
X174015447Y-88748744D01*
X174015448Y-88748743D01*
X174015450Y-88748742D01*
X174015451Y-88748742D01*
X174134842Y-88679811D01*
X174137730Y-88678408D01*
X174138516Y-88677891D01*
X174143525Y-88674797D01*
X174144824Y-88674046D01*
X174150182Y-88667063D01*
X174243471Y-88573775D01*
X174248521Y-88565029D01*
X174315944Y-88448249D01*
X174315944Y-88448247D01*
X174315946Y-88448245D01*
X174353462Y-88308235D01*
X174353462Y-88163285D01*
X174315946Y-88023275D01*
X174315944Y-88023272D01*
X174315944Y-88023270D01*
X174315939Y-88023262D01*
X174315618Y-88022552D01*
X174314359Y-88020524D01*
X174244947Y-87900299D01*
X174244947Y-87900300D01*
X174243474Y-87897749D01*
X174243472Y-87897747D01*
X174243471Y-87897745D01*
X174140977Y-87795251D01*
X174140974Y-87795249D01*
X174140972Y-87795247D01*
X174140971Y-87795246D01*
X174072737Y-87755851D01*
X174051703Y-87732490D01*
X173956634Y-87707017D01*
X173937164Y-87701800D01*
X173875437Y-87685260D01*
X173875436Y-87685260D01*
X173730485Y-87685260D01*
X173668750Y-87701801D01*
X173668749Y-87701800D01*
X173590474Y-87722775D01*
X173590468Y-87722778D01*
X173464955Y-87795243D01*
X173362445Y-87897753D01*
X173289980Y-88023265D01*
X173274271Y-88081894D01*
X173252462Y-88163285D01*
X172059552Y-88163285D01*
X172059552Y-88147526D01*
X172022036Y-88007516D01*
X172022034Y-88007513D01*
X172022034Y-88007511D01*
X172021519Y-88006619D01*
X172021470Y-88006410D01*
X172020449Y-88004765D01*
X171951037Y-87884540D01*
X171951037Y-87884541D01*
X171949564Y-87881990D01*
X171949562Y-87881988D01*
X171949561Y-87881986D01*
X171847067Y-87779492D01*
X171847064Y-87779490D01*
X171847062Y-87779488D01*
X171778826Y-87740092D01*
X171757793Y-87716732D01*
X171691949Y-87699088D01*
X171691948Y-87699088D01*
X171581527Y-87669501D01*
X171581525Y-87669501D01*
X171436578Y-87669501D01*
X171436577Y-87669501D01*
X171424149Y-87672831D01*
X171377764Y-87685259D01*
X171377764Y-87685260D01*
X171296562Y-87707018D01*
X171296560Y-87707018D01*
X171296556Y-87707020D01*
X171171045Y-87779484D01*
X171068535Y-87881994D01*
X170996070Y-88007506D01*
X170958553Y-88147523D01*
X170958552Y-88147527D01*
X169778618Y-88147527D01*
X169742981Y-88014529D01*
X169742979Y-88014526D01*
X169742979Y-88014524D01*
X169742901Y-88014389D01*
X169742818Y-88014072D01*
X169741394Y-88011778D01*
X169671982Y-87891553D01*
X169671982Y-87891554D01*
X169670509Y-87889003D01*
X169670507Y-87889001D01*
X169670506Y-87888999D01*
X169568012Y-87786505D01*
X169568009Y-87786503D01*
X169568007Y-87786501D01*
X169499771Y-87747105D01*
X169478738Y-87723745D01*
X169412894Y-87706101D01*
X169412893Y-87706101D01*
X169302472Y-87676514D01*
X169302470Y-87676514D01*
X169157523Y-87676514D01*
X169157522Y-87676514D01*
X169124886Y-87685259D01*
X169124882Y-87685260D01*
X169017502Y-87714032D01*
X168891990Y-87786497D01*
X168789480Y-87889007D01*
X168717015Y-88014519D01*
X168681376Y-88147527D01*
X168679497Y-88154540D01*
X167480714Y-88154540D01*
X167452036Y-88047515D01*
X167452034Y-88047512D01*
X167452034Y-88047510D01*
X167452031Y-88047506D01*
X167451941Y-88047167D01*
X167450449Y-88044764D01*
X167381037Y-87924539D01*
X167381037Y-87924540D01*
X167379564Y-87921989D01*
X167379562Y-87921987D01*
X167379561Y-87921985D01*
X167277067Y-87819491D01*
X167277064Y-87819489D01*
X167277062Y-87819487D01*
X167208826Y-87780091D01*
X167187793Y-87756731D01*
X167121949Y-87739087D01*
X167121948Y-87739087D01*
X167011527Y-87709500D01*
X167011525Y-87709500D01*
X166866578Y-87709500D01*
X166866577Y-87709500D01*
X166817035Y-87722775D01*
X166817031Y-87722776D01*
X166726557Y-87747018D01*
X166601045Y-87819483D01*
X166498535Y-87921993D01*
X166426070Y-88047505D01*
X166416856Y-88081894D01*
X166388552Y-88187525D01*
X163904367Y-88187525D01*
X163903997Y-87007525D01*
X167553551Y-87007525D01*
X167553551Y-87152474D01*
X167586636Y-87275949D01*
X167591069Y-87292493D01*
X167663536Y-87418008D01*
X167663538Y-87418010D01*
X167663540Y-87418012D01*
X167663542Y-87418015D01*
X167766036Y-87520509D01*
X167766038Y-87520510D01*
X167766040Y-87520512D01*
X167766587Y-87520907D01*
X167768589Y-87521984D01*
X167891562Y-87592982D01*
X167891563Y-87592982D01*
X167891566Y-87592984D01*
X168031576Y-87630500D01*
X168031577Y-87630500D01*
X168176525Y-87630500D01*
X168176526Y-87630500D01*
X168316536Y-87592984D01*
X168316537Y-87592983D01*
X168316539Y-87592982D01*
X168316540Y-87592982D01*
X168435931Y-87524051D01*
X168438819Y-87522648D01*
X168439605Y-87522131D01*
X168444614Y-87519037D01*
X168445913Y-87518286D01*
X168451271Y-87511303D01*
X168544560Y-87418015D01*
X168544563Y-87418010D01*
X168617033Y-87292489D01*
X168617033Y-87292487D01*
X168617035Y-87292485D01*
X168654551Y-87152475D01*
X168654551Y-87018845D01*
X169840086Y-87018845D01*
X169840086Y-87163794D01*
X169873171Y-87287269D01*
X169877604Y-87303813D01*
X169950071Y-87429328D01*
X169950073Y-87429330D01*
X169950075Y-87429332D01*
X169950077Y-87429335D01*
X170052571Y-87531829D01*
X170052573Y-87531830D01*
X170052575Y-87531832D01*
X170053122Y-87532227D01*
X170055124Y-87533304D01*
X170178097Y-87604302D01*
X170178098Y-87604302D01*
X170178101Y-87604304D01*
X170318111Y-87641820D01*
X170318112Y-87641820D01*
X170463060Y-87641820D01*
X170463061Y-87641820D01*
X170603071Y-87604304D01*
X170603072Y-87604303D01*
X170603074Y-87604302D01*
X170603075Y-87604302D01*
X170722466Y-87535371D01*
X170725354Y-87533968D01*
X170726140Y-87533451D01*
X170731149Y-87530357D01*
X170732448Y-87529606D01*
X170737806Y-87522623D01*
X170831095Y-87429335D01*
X170903551Y-87303838D01*
X170903568Y-87303809D01*
X170903568Y-87303807D01*
X170903570Y-87303805D01*
X170903713Y-87303267D01*
X170906899Y-87291538D01*
X170906940Y-87291227D01*
X170941086Y-87163795D01*
X170941086Y-87018874D01*
X172130026Y-87018874D01*
X172130026Y-87163823D01*
X172163111Y-87287298D01*
X172167544Y-87303842D01*
X172240011Y-87429357D01*
X172240013Y-87429359D01*
X172240015Y-87429361D01*
X172240017Y-87429364D01*
X172342511Y-87531858D01*
X172342513Y-87531859D01*
X172342515Y-87531861D01*
X172343062Y-87532256D01*
X172345064Y-87533333D01*
X172468037Y-87604331D01*
X172468038Y-87604331D01*
X172468041Y-87604333D01*
X172608051Y-87641849D01*
X172608052Y-87641849D01*
X172753000Y-87641849D01*
X172753001Y-87641849D01*
X172893011Y-87604333D01*
X172893012Y-87604332D01*
X172893014Y-87604331D01*
X172893015Y-87604331D01*
X173012406Y-87535400D01*
X173015294Y-87533997D01*
X173016080Y-87533480D01*
X173021089Y-87530386D01*
X173022388Y-87529635D01*
X173027746Y-87522652D01*
X173121035Y-87429364D01*
X173121052Y-87429335D01*
X173193508Y-87303838D01*
X173193508Y-87303836D01*
X173193510Y-87303834D01*
X173231026Y-87163824D01*
X173231026Y-87018874D01*
X173193510Y-86878864D01*
X173193508Y-86878861D01*
X173193508Y-86878859D01*
X173193503Y-86878851D01*
X173193182Y-86878141D01*
X173191923Y-86876113D01*
X173122511Y-86755888D01*
X173122511Y-86755889D01*
X173121038Y-86753338D01*
X173121036Y-86753336D01*
X173121035Y-86753334D01*
X173018541Y-86650840D01*
X173018538Y-86650838D01*
X173018536Y-86650836D01*
X173018535Y-86650835D01*
X172950301Y-86611440D01*
X172929267Y-86588079D01*
X172850656Y-86567016D01*
X172850652Y-86567015D01*
X172753001Y-86540849D01*
X172753000Y-86540849D01*
X172608049Y-86540849D01*
X172546314Y-86557390D01*
X172546313Y-86557389D01*
X172468038Y-86578364D01*
X172468032Y-86578367D01*
X172342519Y-86650832D01*
X172240009Y-86753342D01*
X172167544Y-86878854D01*
X172146568Y-86957136D01*
X172130026Y-87018874D01*
X170941086Y-87018874D01*
X170941086Y-87018845D01*
X170903570Y-86878835D01*
X170903568Y-86878832D01*
X170903568Y-86878830D01*
X170903407Y-86878551D01*
X170903331Y-86878255D01*
X170901983Y-86876084D01*
X170832571Y-86755859D01*
X170832571Y-86755860D01*
X170831098Y-86753309D01*
X170831096Y-86753307D01*
X170831095Y-86753305D01*
X170728601Y-86650811D01*
X170728598Y-86650809D01*
X170728596Y-86650807D01*
X170660360Y-86611411D01*
X170639326Y-86588050D01*
X170560825Y-86567015D01*
X170560825Y-86567016D01*
X170463061Y-86540820D01*
X170463060Y-86540820D01*
X170318109Y-86540820D01*
X170256374Y-86557361D01*
X170256373Y-86557360D01*
X170178098Y-86578335D01*
X170178092Y-86578338D01*
X170052579Y-86650803D01*
X169950069Y-86753313D01*
X169877604Y-86878825D01*
X169877594Y-86878864D01*
X169840086Y-87018845D01*
X168654551Y-87018845D01*
X168654551Y-87007525D01*
X168617035Y-86867515D01*
X168617033Y-86867512D01*
X168617033Y-86867510D01*
X168616615Y-86866786D01*
X168616559Y-86866553D01*
X168615448Y-86864764D01*
X168546036Y-86744539D01*
X168546036Y-86744540D01*
X168544563Y-86741989D01*
X168544561Y-86741987D01*
X168544560Y-86741985D01*
X168442066Y-86639491D01*
X168442063Y-86639489D01*
X168442061Y-86639487D01*
X168373825Y-86600091D01*
X168352792Y-86576731D01*
X168286948Y-86559087D01*
X168286947Y-86559087D01*
X168176526Y-86529500D01*
X168176524Y-86529500D01*
X168031574Y-86529500D01*
X167969839Y-86546041D01*
X167969838Y-86546040D01*
X167891563Y-86567015D01*
X167891557Y-86567018D01*
X167766044Y-86639483D01*
X167663534Y-86741993D01*
X167591069Y-86867505D01*
X167570093Y-86945787D01*
X167553551Y-87007525D01*
X163903997Y-87007525D01*
X163902813Y-83237525D01*
X173169499Y-83237525D01*
X173169499Y-83382475D01*
X173169900Y-83383972D01*
X173169900Y-83383976D01*
X173184249Y-83437523D01*
X173184249Y-83437524D01*
X173184250Y-83437524D01*
X173184250Y-83437525D01*
X173207016Y-83522489D01*
X173207017Y-83522491D01*
X173207018Y-83522494D01*
X173279484Y-83648008D01*
X173279486Y-83648010D01*
X173279488Y-83648012D01*
X173279490Y-83648015D01*
X173381984Y-83750509D01*
X173381986Y-83750510D01*
X173381988Y-83750512D01*
X173382535Y-83750907D01*
X173384537Y-83751984D01*
X173507510Y-83822982D01*
X173507511Y-83822982D01*
X173507514Y-83822984D01*
X173647524Y-83860500D01*
X173647525Y-83860500D01*
X173792473Y-83860500D01*
X173792474Y-83860500D01*
X173932484Y-83822984D01*
X173932485Y-83822983D01*
X173932487Y-83822982D01*
X173932488Y-83822982D01*
X174051879Y-83754051D01*
X174054767Y-83752648D01*
X174055553Y-83752131D01*
X174060562Y-83749037D01*
X174061861Y-83748286D01*
X174067219Y-83741303D01*
X174160508Y-83648015D01*
X174232983Y-83522485D01*
X174255748Y-83437525D01*
X175549499Y-83437525D01*
X175549499Y-83582475D01*
X175579086Y-83692896D01*
X175583664Y-83709982D01*
X175587016Y-83722491D01*
X175587017Y-83722492D01*
X175659484Y-83848008D01*
X175659486Y-83848010D01*
X175659488Y-83848012D01*
X175659490Y-83848015D01*
X175761984Y-83950509D01*
X175761986Y-83950510D01*
X175761988Y-83950512D01*
X175762535Y-83950907D01*
X175764537Y-83951984D01*
X175887510Y-84022982D01*
X175887511Y-84022982D01*
X175887514Y-84022984D01*
X176027524Y-84060500D01*
X176027525Y-84060500D01*
X176172473Y-84060500D01*
X176172474Y-84060500D01*
X176312484Y-84022984D01*
X176312485Y-84022983D01*
X176312487Y-84022982D01*
X176312488Y-84022982D01*
X176431879Y-83954051D01*
X176434767Y-83952648D01*
X176435553Y-83952131D01*
X176440562Y-83949037D01*
X176441861Y-83948286D01*
X176447219Y-83941303D01*
X176540508Y-83848015D01*
X176553084Y-83826233D01*
X176612981Y-83722489D01*
X176612981Y-83722487D01*
X176612983Y-83722485D01*
X176650499Y-83582475D01*
X176650499Y-83437525D01*
X176612983Y-83297515D01*
X176612981Y-83297512D01*
X176612981Y-83297510D01*
X176612976Y-83297502D01*
X176612655Y-83296792D01*
X176611396Y-83294764D01*
X176541984Y-83174539D01*
X176541984Y-83174540D01*
X176540511Y-83171989D01*
X176540509Y-83171987D01*
X176540508Y-83171985D01*
X176438014Y-83069491D01*
X176438011Y-83069489D01*
X176438009Y-83069487D01*
X176369773Y-83030091D01*
X176348740Y-83006731D01*
X176282896Y-82989087D01*
X176282895Y-82989087D01*
X176172474Y-82959500D01*
X176172472Y-82959500D01*
X176027525Y-82959500D01*
X176027524Y-82959500D01*
X175980930Y-82971985D01*
X175887504Y-82997018D01*
X175761992Y-83069483D01*
X175659482Y-83171993D01*
X175587017Y-83297506D01*
X175587015Y-83297510D01*
X175568172Y-83367832D01*
X175568173Y-83367833D01*
X175549500Y-83437523D01*
X175549499Y-83437525D01*
X174255748Y-83437525D01*
X174270499Y-83382475D01*
X174270499Y-83237525D01*
X174232983Y-83097515D01*
X174232981Y-83097512D01*
X174232981Y-83097510D01*
X174232976Y-83097502D01*
X174232655Y-83096792D01*
X174231396Y-83094764D01*
X174161984Y-82974539D01*
X174161984Y-82974540D01*
X174160511Y-82971989D01*
X174160509Y-82971987D01*
X174160508Y-82971985D01*
X174058014Y-82869491D01*
X174058011Y-82869489D01*
X174058009Y-82869487D01*
X173989773Y-82830091D01*
X173968740Y-82806731D01*
X173902896Y-82789087D01*
X173902895Y-82789087D01*
X173792474Y-82759500D01*
X173792472Y-82759500D01*
X173647522Y-82759500D01*
X173585787Y-82776041D01*
X173585786Y-82776040D01*
X173507511Y-82797015D01*
X173507505Y-82797018D01*
X173381992Y-82869483D01*
X173279482Y-82971993D01*
X173207017Y-83097505D01*
X173179640Y-83199676D01*
X173179639Y-83199680D01*
X173176954Y-83209704D01*
X173169499Y-83237525D01*
X163902813Y-83237525D01*
X163902538Y-82360307D01*
X163894265Y-82284173D01*
X163894263Y-82284166D01*
X163894215Y-82283719D01*
X163906726Y-82223826D01*
X163952051Y-82182725D01*
X163954677Y-82181590D01*
X163997862Y-82163703D01*
X164137161Y-82070626D01*
X164255625Y-81952162D01*
X164348702Y-81812863D01*
X164412815Y-81658082D01*
X164445499Y-81493767D01*
X164445499Y-81326233D01*
X164427854Y-81237524D01*
X168114499Y-81237524D01*
X168114499Y-81382473D01*
X168144320Y-81493765D01*
X168152017Y-81522492D01*
X168224484Y-81648007D01*
X168224486Y-81648009D01*
X168224488Y-81648011D01*
X168224490Y-81648014D01*
X168326984Y-81750508D01*
X168326986Y-81750509D01*
X168326988Y-81750511D01*
X168327535Y-81750906D01*
X168329537Y-81751983D01*
X168452510Y-81822981D01*
X168452511Y-81822981D01*
X168452514Y-81822983D01*
X168592524Y-81860499D01*
X168592525Y-81860499D01*
X168737473Y-81860499D01*
X168737474Y-81860499D01*
X168877484Y-81822983D01*
X168877485Y-81822982D01*
X168877487Y-81822981D01*
X168877488Y-81822981D01*
X168996879Y-81754050D01*
X168999767Y-81752647D01*
X169000553Y-81752130D01*
X169005562Y-81749036D01*
X169006861Y-81748285D01*
X169012219Y-81741302D01*
X169105508Y-81648014D01*
X169105512Y-81648007D01*
X169177981Y-81522488D01*
X169177981Y-81522486D01*
X169177983Y-81522484D01*
X169215499Y-81382474D01*
X169215499Y-81237524D01*
X169177983Y-81097514D01*
X169177981Y-81097511D01*
X169177981Y-81097509D01*
X169177976Y-81097501D01*
X169177655Y-81096791D01*
X169176396Y-81094763D01*
X169106984Y-80974538D01*
X169106984Y-80974539D01*
X169105511Y-80971988D01*
X169105509Y-80971986D01*
X169105508Y-80971984D01*
X169003014Y-80869490D01*
X169003011Y-80869488D01*
X169003009Y-80869486D01*
X169003008Y-80869485D01*
X168934774Y-80830090D01*
X168913740Y-80806729D01*
X168834506Y-80785499D01*
X168799201Y-80776039D01*
X168737474Y-80759499D01*
X168737473Y-80759499D01*
X168592522Y-80759499D01*
X168530787Y-80776040D01*
X168530786Y-80776039D01*
X168452511Y-80797014D01*
X168452505Y-80797017D01*
X168326992Y-80869482D01*
X168224482Y-80971992D01*
X168152017Y-81097504D01*
X168134759Y-81161914D01*
X168114499Y-81237524D01*
X164427854Y-81237524D01*
X164412815Y-81161918D01*
X164348702Y-81007137D01*
X164255625Y-80867838D01*
X164137161Y-80749374D01*
X164088239Y-80716685D01*
X164058399Y-80696746D01*
X164058392Y-80696742D01*
X163997862Y-80656297D01*
X163997863Y-80656297D01*
X163997861Y-80656296D01*
X163949065Y-80636083D01*
X163944129Y-80633345D01*
X163926930Y-80614886D01*
X163907748Y-80598503D01*
X163906388Y-80592840D01*
X163902419Y-80588580D01*
X163899355Y-80563543D01*
X163893465Y-80539008D01*
X163894372Y-80531337D01*
X163897580Y-80511047D01*
X163901941Y-80455424D01*
X163901677Y-79613863D01*
X163900678Y-76426226D01*
X166679499Y-76426226D01*
X166679499Y-76426229D01*
X166679499Y-76593768D01*
X166712182Y-76758078D01*
X166712184Y-76758084D01*
X166776295Y-76912861D01*
X166776296Y-76912862D01*
X166869373Y-77052161D01*
X166987837Y-77170625D01*
X167127136Y-77263702D01*
X167281917Y-77327815D01*
X167446232Y-77360499D01*
X167446233Y-77360499D01*
X167613765Y-77360499D01*
X167613766Y-77360499D01*
X167778081Y-77327815D01*
X167932862Y-77263702D01*
X168072161Y-77170625D01*
X168190625Y-77052161D01*
X168283702Y-76912862D01*
X168347815Y-76758081D01*
X168380499Y-76593766D01*
X168380499Y-76426232D01*
X168347815Y-76261917D01*
X168283702Y-76107136D01*
X168190625Y-75967837D01*
X168072161Y-75849373D01*
X167990001Y-75794475D01*
X167977495Y-75778611D01*
X167932868Y-75756298D01*
X167932861Y-75756295D01*
X167778084Y-75692184D01*
X167778078Y-75692182D01*
X167695923Y-75675840D01*
X167613770Y-75659499D01*
X167613768Y-75659499D01*
X167613766Y-75659499D01*
X167446232Y-75659499D01*
X167446229Y-75659499D01*
X167446226Y-75659499D01*
X167322996Y-75684011D01*
X167281919Y-75692182D01*
X167281913Y-75692184D01*
X167281910Y-75692185D01*
X167127136Y-75756294D01*
X166987837Y-75849372D01*
X166869372Y-75967837D01*
X166776294Y-76107136D01*
X166712185Y-76261910D01*
X166712182Y-76261920D01*
X166679499Y-76426226D01*
X163900678Y-76426226D01*
X163900676Y-76421396D01*
X163900163Y-74787814D01*
X163899941Y-74079644D01*
X163894396Y-74017211D01*
X163888278Y-73982979D01*
X163871837Y-73922445D01*
X163869594Y-73916367D01*
X163852716Y-73886233D01*
X163852713Y-73886227D01*
X166679499Y-73886227D01*
X166679499Y-73886230D01*
X166679499Y-74053769D01*
X166712182Y-74218079D01*
X166712184Y-74218085D01*
X166776295Y-74372862D01*
X166776296Y-74372863D01*
X166869373Y-74512162D01*
X166987837Y-74630626D01*
X167127136Y-74723703D01*
X167281917Y-74787816D01*
X167446232Y-74820500D01*
X167446233Y-74820500D01*
X167613765Y-74820500D01*
X167613766Y-74820500D01*
X167778081Y-74787816D01*
X167932862Y-74723703D01*
X168072161Y-74630626D01*
X168190625Y-74512162D01*
X168283702Y-74372863D01*
X168347815Y-74218082D01*
X168380499Y-74053767D01*
X168380499Y-73886233D01*
X168347815Y-73721918D01*
X168283702Y-73567137D01*
X168190625Y-73427838D01*
X168072161Y-73309374D01*
X167979083Y-73247181D01*
X167932861Y-73216296D01*
X167932860Y-73216295D01*
X167932858Y-73216294D01*
X167827568Y-73172682D01*
X167827567Y-73172682D01*
X167778084Y-73152185D01*
X167778078Y-73152183D01*
X167695923Y-73135841D01*
X167613770Y-73119500D01*
X167613768Y-73119500D01*
X167613766Y-73119500D01*
X167446232Y-73119500D01*
X167446229Y-73119500D01*
X167446226Y-73119500D01*
X167325617Y-73143491D01*
X167281919Y-73152183D01*
X167281913Y-73152185D01*
X167281910Y-73152186D01*
X167127136Y-73216295D01*
X166987837Y-73309373D01*
X166869372Y-73427838D01*
X166776294Y-73567137D01*
X166712185Y-73721911D01*
X166712182Y-73721921D01*
X166679499Y-73886227D01*
X163852713Y-73886227D01*
X163815262Y-73819361D01*
X163777391Y-73771320D01*
X163777387Y-73771316D01*
X163777384Y-73771312D01*
X163724830Y-73721918D01*
X163700573Y-73699119D01*
X163700571Y-73699118D01*
X163648270Y-73674479D01*
X163603688Y-73632577D01*
X163592249Y-73572470D01*
X163618324Y-73517120D01*
X163646217Y-73496359D01*
X163705070Y-73466960D01*
X163788475Y-73384869D01*
X163824423Y-73335357D01*
X163869316Y-73247181D01*
X163874883Y-73236248D01*
X163877432Y-73228395D01*
X163890438Y-73174133D01*
X163890440Y-73174122D01*
X163890443Y-73174111D01*
X163895279Y-73143491D01*
X163899631Y-73087826D01*
X163894514Y-64258826D01*
X167400633Y-64258826D01*
X167400633Y-64406668D01*
X167429474Y-64551660D01*
X167486048Y-64688241D01*
X167486048Y-64688242D01*
X167486049Y-64688243D01*
X167568182Y-64811164D01*
X167672717Y-64915699D01*
X167795638Y-64997832D01*
X167932220Y-65054406D01*
X168077215Y-65083248D01*
X168077216Y-65083248D01*
X168225050Y-65083248D01*
X168225051Y-65083248D01*
X168370046Y-65054406D01*
X168506628Y-64997832D01*
X168629549Y-64915699D01*
X168734084Y-64811164D01*
X168816217Y-64688243D01*
X168872791Y-64551661D01*
X168901633Y-64406666D01*
X168901633Y-64258830D01*
X168872791Y-64113835D01*
X168816217Y-63977253D01*
X168734084Y-63854332D01*
X168629549Y-63749797D01*
X168609015Y-63736077D01*
X168506635Y-63667667D01*
X168506626Y-63667663D01*
X168487341Y-63659675D01*
X168370050Y-63611091D01*
X168370044Y-63611089D01*
X168225053Y-63582248D01*
X168225051Y-63582248D01*
X168077215Y-63582248D01*
X168077214Y-63582248D01*
X168077211Y-63582248D01*
X167932218Y-63611090D01*
X167932216Y-63611090D01*
X167795643Y-63667660D01*
X167795631Y-63667666D01*
X167672719Y-63749795D01*
X167568180Y-63854334D01*
X167486051Y-63977246D01*
X167486045Y-63977258D01*
X167429475Y-64113831D01*
X167429475Y-64113833D01*
X167400633Y-64258826D01*
X163894514Y-64258826D01*
X163893120Y-61853414D01*
X163893539Y-61844278D01*
X163893872Y-61840665D01*
X163896049Y-61827626D01*
X163895446Y-61823605D01*
X163896526Y-61811904D01*
X163907053Y-61787425D01*
X163915498Y-61762149D01*
X163918999Y-61759649D01*
X163920699Y-61755697D01*
X163943607Y-61742079D01*
X163965294Y-61726596D01*
X163971182Y-61725688D01*
X163973294Y-61724433D01*
X163977066Y-61724781D01*
X163995107Y-61722000D01*
X169591315Y-61722000D01*
X169649506Y-61740907D01*
G37*
%TD.AperFunction*%
%TD*%
M02*
