%TF.GenerationSoftware,KiCad,Pcbnew,10.0.0*%
%TF.CreationDate,2026-08-18T13:50:21-04:00*%
%TF.ProjectId,PWR_RPM5.0_AP2114,5057525f-5250-44d3-952e-305f41503231,rev?*%
%TF.SameCoordinates,PX9610427PY6ca4418*%
%TF.FileFunction,Soldermask,Bot*%
%TF.FilePolarity,Negative*%
%FSLAX46Y46*%
G04 Gerber Fmt 4.6, Leading zero omitted, Abs format (unit mm)*
G04 Created by KiCad (PCBNEW 10.0.0) date 2026-08-18 13:50:21*
%MOMM*%
%LPD*%
G01*
G04 APERTURE LIST*
G04 Aperture macros list*
%AMRoundRect*
0 Rectangle with rounded corners*
0 $1 Rounding radius*
0 $2 $3 $4 $5 $6 $7 $8 $9 X,Y pos of 4 corners*
0 Add a 4 corners polygon primitive as box body*
4,1,4,$2,$3,$4,$5,$6,$7,$8,$9,$2,$3,0*
0 Add four circle primitives for the rounded corners*
1,1,$1+$1,$2,$3*
1,1,$1+$1,$4,$5*
1,1,$1+$1,$6,$7*
1,1,$1+$1,$8,$9*
0 Add four rect primitives between the rounded corners*
20,1,$1+$1,$2,$3,$4,$5,0*
20,1,$1+$1,$4,$5,$6,$7,0*
20,1,$1+$1,$6,$7,$8,$9,0*
20,1,$1+$1,$8,$9,$2,$3,0*%
G04 Aperture macros list end*
%ADD10RoundRect,0.250000X-0.550000X-0.550000X0.550000X-0.550000X0.550000X0.550000X-0.550000X0.550000X0*%
%ADD11C,1.600000*%
%ADD12C,1.100000*%
%ADD13RoundRect,0.249999X0.850001X0.850001X-0.850001X0.850001X-0.850001X-0.850001X0.850001X-0.850001X0*%
%ADD14C,2.200000*%
%ADD15R,1.800000X1.800000*%
%ADD16C,1.800000*%
%ADD17C,1.440000*%
%ADD18R,1.500000X2.500000*%
%ADD19O,1.500000X2.500000*%
%ADD20O,2.200000X3.500000*%
%ADD21C,1.300000*%
%ADD22C,2.250000*%
%ADD23O,6.744000X3.474000*%
%ADD24RoundRect,0.102000X3.270000X1.635000X-3.270000X1.635000X-3.270000X-1.635000X3.270000X-1.635000X0*%
%ADD25R,1.700000X1.700000*%
%ADD26C,1.700000*%
%ADD27C,2.100000*%
G04 APERTURE END LIST*
D10*
%TO.C,C8*%
X24277002Y47117000D03*
D11*
X26777002Y47117000D03*
%TD*%
D12*
%TO.C,J1*%
X4547001Y48895000D03*
X2007001Y48895000D03*
D13*
X4547001Y46355000D03*
D14*
X2007001Y46355000D03*
%TD*%
D15*
%TO.C,D1*%
X19317000Y8363999D03*
D16*
X19317000Y10903999D03*
%TD*%
D10*
%TO.C,C5*%
X9194801Y47117000D03*
D11*
X11694801Y47117000D03*
%TD*%
D17*
%TO.C,RV1*%
X2107001Y36659000D03*
X4647001Y34119000D03*
X2107001Y31579001D03*
%TD*%
D15*
%TO.C,D3*%
X18034000Y33934400D03*
D16*
X20574000Y33934400D03*
%TD*%
D18*
%TO.C,SW2*%
X19242000Y2434000D03*
D19*
X21242000Y2434000D03*
X23242000Y2434000D03*
D20*
X17142000Y2434000D03*
X25342000Y2434000D03*
%TD*%
D21*
%TO.C,SW1*%
X2167000Y25383999D03*
X2167000Y21383999D03*
X2167000Y19383999D03*
X2167000Y17383999D03*
D22*
X2167000Y27483999D03*
X2167000Y15284000D03*
%TD*%
D23*
%TO.C,J8*%
X11685358Y12064000D03*
D24*
X3785357Y12064000D03*
%TD*%
D10*
%TO.C,C7*%
X16735902Y47117000D03*
D11*
X19235902Y47117000D03*
%TD*%
D15*
%TO.C,D2*%
X19317000Y16429001D03*
D16*
X19317000Y13889001D03*
%TD*%
D25*
%TO.C,J9*%
X6985001Y40935154D03*
D26*
X4445001Y40935154D03*
X1905002Y40935154D03*
%TD*%
D27*
%TO.C,J5*%
X30607001Y4699000D03*
X30607001Y2159000D03*
X33147001Y4699000D03*
X33147001Y2159000D03*
X35687001Y4699000D03*
X35687001Y2159000D03*
X38227001Y4699000D03*
X38227001Y2159000D03*
%TD*%
%TO.C,J6*%
X30607001Y48387000D03*
X30607001Y45847000D03*
X33147001Y48387000D03*
X33147001Y45847000D03*
X35687001Y48387000D03*
X35687001Y45847000D03*
X38227001Y48387000D03*
X38227001Y45847000D03*
%TD*%
M02*
