%TF.GenerationSoftware,KiCad,Pcbnew,10.0.0*%
%TF.CreationDate,2026-08-14T11:25:50-04:00*%
%TF.ProjectId,PWR_RPM5.0_AP2114,5057525f-5250-44d3-952e-305f41503231,rev?*%
%TF.SameCoordinates,PX9610427PY6ca4418*%
%TF.FileFunction,Copper,L3,Inr*%
%TF.FilePolarity,Positive*%
%FSLAX46Y46*%
G04 Gerber Fmt 4.6, Leading zero omitted, Abs format (unit mm)*
G04 Created by KiCad (PCBNEW 10.0.0) date 2026-08-14 11:25:50*
%MOMM*%
%LPD*%
G01*
G04 APERTURE LIST*
G04 Aperture macros list*
%AMRoundRect*
0 Rectangle with rounded corners*
0 $1 Rounding radius*
0 $2 $3 $4 $5 $6 $7 $8 $9 X,Y pos of 4 corners*
0 Add a 4 corners polygon primitive as box body*
4,1,4,$2,$3,$4,$5,$6,$7,$8,$9,$2,$3,0*
0 Add four circle primitives for the rounded corners*
1,1,$1+$1,$2,$3*
1,1,$1+$1,$4,$5*
1,1,$1+$1,$6,$7*
1,1,$1+$1,$8,$9*
0 Add four rect primitives between the rounded corners*
20,1,$1+$1,$2,$3,$4,$5,0*
20,1,$1+$1,$4,$5,$6,$7,0*
20,1,$1+$1,$6,$7,$8,$9,0*
20,1,$1+$1,$8,$9,$2,$3,0*%
G04 Aperture macros list end*
%TA.AperFunction,ComponentPad*%
%ADD10RoundRect,0.250000X-0.550000X-0.550000X0.550000X-0.550000X0.550000X0.550000X-0.550000X0.550000X0*%
%TD*%
%TA.AperFunction,ComponentPad*%
%ADD11C,2.200000*%
%TD*%
%TA.AperFunction,ComponentPad*%
%ADD12O,6.540000X3.270000*%
%TD*%
%TA.AperFunction,ComponentPad*%
%ADD13C,1.800000*%
%TD*%
%TA.AperFunction,ComponentPad*%
%ADD14R,1.700000X1.700000*%
%TD*%
%TA.AperFunction,ComponentPad*%
%ADD15C,1.700000*%
%TD*%
%TA.AperFunction,ViaPad*%
%ADD16C,0.800000*%
%TD*%
G04 APERTURE END LIST*
D10*
%TO.N,+3V3*%
%TO.C,C8*%
X20348442Y49019000D03*
%TD*%
%TO.N,+5V0*%
%TO.C,C7*%
X11548442Y49019000D03*
%TD*%
%TO.N,/PWR_IN*%
%TO.C,C5*%
X2697002Y49019000D03*
%TD*%
D11*
%TO.N,/PWR_IN*%
%TO.C,J1*%
X4547001Y41111505D03*
%TD*%
D12*
%TO.N,/PWR_IN*%
%TO.C,J8*%
X11685358Y12064000D03*
%TD*%
D13*
%TO.N,+3V3*%
%TO.C,D3*%
X17447000Y33934000D03*
%TD*%
%TO.N,+5V0*%
%TO.C,D2*%
X18567000Y13889001D03*
%TD*%
D14*
%TO.N,+5V0*%
%TO.C,J9*%
X10177000Y34869001D03*
%TD*%
D15*
%TO.N,+5V0*%
%TO.C,J5*%
X30607001Y2159000D03*
X33147001Y2159000D03*
X35687001Y2159000D03*
X38227001Y2159000D03*
%TD*%
%TO.N,+3V3*%
%TO.C,J6*%
X30607001Y47879000D03*
X33147001Y47879000D03*
X35687001Y47879000D03*
X38227001Y47879000D03*
%TD*%
D16*
%TO.N,+3V3*%
X14087000Y39759000D03*
X13331999Y35444001D03*
X13087000Y39759000D03*
X14087000Y40759000D03*
X15087000Y39759000D03*
X13087000Y40759000D03*
X15087000Y40759000D03*
X21637000Y40584000D03*
%TO.N,/PWR_IN*%
X8415954Y22238553D03*
X9583678Y18794000D03*
X8436053Y21109000D03*
X10738293Y19963547D03*
X9581052Y23399000D03*
X8416501Y19949309D03*
X13142000Y18209000D03*
X10724599Y22239541D03*
X9587355Y21100188D03*
X11567000Y16659000D03*
%TO.N,+5V0*%
X11857000Y27988999D03*
X19622000Y39034000D03*
X8452000Y29109000D03*
X10737000Y27989000D03*
X8457000Y27989000D03*
X6957000Y24879000D03*
X9586053Y27984000D03*
X17297000Y39034000D03*
%TD*%
%TA.AperFunction,Conductor*%
%TO.N,+5V0*%
G36*
X12296507Y52178093D02*
G01*
X12332471Y52128593D01*
X12335587Y52089031D01*
X12336805Y52088935D01*
X12336500Y52085058D01*
X12336500Y49667574D01*
X12337260Y49644321D01*
X12338107Y49631405D01*
X12340389Y49608243D01*
X12342594Y49591497D01*
X12343441Y49578577D01*
X12343441Y48459433D01*
X12342595Y48446516D01*
X12340385Y48429725D01*
X12338109Y48406611D01*
X12337260Y48393671D01*
X12336500Y48370423D01*
X12336500Y42482292D01*
X12338443Y42445199D01*
X12338447Y42445154D01*
X12340610Y42424569D01*
X12345256Y42393572D01*
X12345256Y42393571D01*
X12386290Y42283977D01*
X12386292Y42283974D01*
X12416885Y42230986D01*
X12477645Y42154672D01*
X12482541Y42148523D01*
X12519286Y42124226D01*
X12522899Y42121317D01*
X12537221Y42099399D01*
X12553530Y42078915D01*
X12553763Y42074085D01*
X12556369Y42070097D01*
X12555146Y42045428D01*
X12556442Y42018581D01*
X12546500Y41981476D01*
X12546500Y41836524D01*
X12556402Y41799567D01*
X12553199Y41738465D01*
X12518970Y41693856D01*
X12501952Y41681491D01*
X12501946Y41681486D01*
X12426794Y41607567D01*
X12372805Y41503735D01*
X12353898Y41445543D01*
X12336500Y41335696D01*
X12336500Y32057836D01*
X12337257Y32048175D01*
X12340833Y32002511D01*
X12345630Y31972067D01*
X12345632Y31972057D01*
X12345632Y31972055D01*
X12356763Y31923681D01*
X12378390Y31880184D01*
X12408864Y31818893D01*
X12439602Y31776446D01*
X12444748Y31769340D01*
X12444754Y31769332D01*
X12518545Y31694075D01*
X12518546Y31694074D01*
X12570858Y31666766D01*
X12622288Y31639919D01*
X12680448Y31620919D01*
X12680454Y31620919D01*
X12680458Y31620917D01*
X12753669Y31609203D01*
X12790277Y31603345D01*
X12790279Y31603344D01*
X13092656Y31602866D01*
X13150817Y31583867D01*
X13186703Y31534310D01*
X13191500Y31503866D01*
X13191500Y31361525D01*
X13221087Y31251104D01*
X13225665Y31234018D01*
X13229017Y31221509D01*
X13229018Y31221508D01*
X13301485Y31095992D01*
X13301487Y31095990D01*
X13301489Y31095988D01*
X13301491Y31095985D01*
X13403985Y30993491D01*
X13403987Y30993490D01*
X13403989Y30993488D01*
X13404536Y30993093D01*
X13406538Y30992016D01*
X13529511Y30921018D01*
X13529512Y30921018D01*
X13529515Y30921016D01*
X13669525Y30883500D01*
X13669526Y30883500D01*
X13814474Y30883500D01*
X13814475Y30883500D01*
X13954485Y30921016D01*
X13954486Y30921017D01*
X13954488Y30921018D01*
X13954489Y30921018D01*
X14073880Y30989949D01*
X14076768Y30991352D01*
X14077554Y30991869D01*
X14082563Y30994963D01*
X14083862Y30995714D01*
X14089220Y31002697D01*
X14182509Y31095985D01*
X14191911Y31112269D01*
X14254982Y31221511D01*
X14254982Y31221513D01*
X14254984Y31221515D01*
X14292500Y31361525D01*
X14292500Y31501809D01*
X14311407Y31560000D01*
X14360907Y31595964D01*
X14391599Y31600809D01*
X14391684Y31600809D01*
X14392600Y31600808D01*
X14450771Y31581842D01*
X14486685Y31532307D01*
X14491500Y31501809D01*
X14491500Y31361525D01*
X14521087Y31251104D01*
X14525665Y31234018D01*
X14529017Y31221509D01*
X14529018Y31221508D01*
X14601485Y31095992D01*
X14601487Y31095990D01*
X14601489Y31095988D01*
X14601491Y31095985D01*
X14703985Y30993491D01*
X14703987Y30993490D01*
X14703989Y30993488D01*
X14704536Y30993093D01*
X14706538Y30992016D01*
X14829511Y30921018D01*
X14829512Y30921018D01*
X14829515Y30921016D01*
X14969525Y30883500D01*
X14969526Y30883500D01*
X15114474Y30883500D01*
X15114475Y30883500D01*
X15254485Y30921016D01*
X15254486Y30921017D01*
X15254488Y30921018D01*
X15254489Y30921018D01*
X15373880Y30989949D01*
X15376768Y30991352D01*
X15377554Y30991869D01*
X15382563Y30994963D01*
X15383862Y30995714D01*
X15389220Y31002697D01*
X15482509Y31095985D01*
X15491911Y31112269D01*
X15554982Y31221511D01*
X15554982Y31221513D01*
X15554984Y31221515D01*
X15592500Y31361525D01*
X15592500Y31499751D01*
X15611407Y31557942D01*
X15660907Y31593906D01*
X15691655Y31598751D01*
X18439261Y31594399D01*
X18494880Y31598688D01*
X18525481Y31603485D01*
X18574143Y31614662D01*
X18678932Y31666763D01*
X18728488Y31702649D01*
X18803751Y31776445D01*
X18857906Y31880187D01*
X18876906Y31938347D01*
X18894481Y32048179D01*
X18894671Y32168094D01*
X18897592Y34012846D01*
X19186500Y34012846D01*
X19186500Y33855156D01*
X19215361Y33710067D01*
X19215361Y33710063D01*
X19217262Y33700501D01*
X19277600Y33554831D01*
X19277603Y33554826D01*
X19277609Y33554815D01*
X19330312Y33475941D01*
X19365211Y33423711D01*
X19365214Y33423708D01*
X19476711Y33312211D01*
X19527022Y33278594D01*
X19607806Y33224615D01*
X19607808Y33224614D01*
X19607814Y33224610D01*
X19607825Y33224604D01*
X19661638Y33202315D01*
X19753503Y33164263D01*
X19908158Y33133500D01*
X19908159Y33133500D01*
X20065841Y33133500D01*
X20065842Y33133500D01*
X20220497Y33164263D01*
X20366179Y33224606D01*
X20497289Y33312211D01*
X20608789Y33423711D01*
X20696394Y33554821D01*
X20756737Y33700503D01*
X20787500Y33855158D01*
X20787500Y34012842D01*
X20756737Y34167497D01*
X20696394Y34313179D01*
X20696393Y34313181D01*
X20696390Y34313186D01*
X20661017Y34366124D01*
X20608789Y34444289D01*
X20608785Y34444293D01*
X20497297Y34555782D01*
X20497293Y34555785D01*
X20497289Y34555789D01*
X20445059Y34590688D01*
X20366185Y34643391D01*
X20366174Y34643397D01*
X20366169Y34643400D01*
X20220498Y34703737D01*
X20065844Y34734500D01*
X20065842Y34734500D01*
X19908158Y34734500D01*
X19908155Y34734500D01*
X19908154Y34734500D01*
X19843680Y34721675D01*
X19763065Y34705639D01*
X19763058Y34705639D01*
X19753499Y34703738D01*
X19607829Y34643400D01*
X19607806Y34643387D01*
X19476711Y34555790D01*
X19365210Y34444289D01*
X19277613Y34313194D01*
X19277600Y34313171D01*
X19217264Y34167504D01*
X19217264Y34167503D01*
X19217263Y34167496D01*
X19186500Y34012846D01*
X18897592Y34012846D01*
X18897600Y34017866D01*
X18898734Y34734500D01*
X18900266Y35702048D01*
X18895955Y35757807D01*
X18891134Y35788481D01*
X18879900Y35837262D01*
X18827719Y35942011D01*
X18791795Y35991540D01*
X18717934Y36066753D01*
X18614149Y36120826D01*
X18574929Y36133605D01*
X18555975Y36139780D01*
X18532696Y36143487D01*
X18446132Y36157268D01*
X18446128Y36157269D01*
X18446131Y36157269D01*
X16744598Y36158638D01*
X16686423Y36177592D01*
X16650499Y36227121D01*
X16645678Y36257760D01*
X16649507Y39359529D01*
X16668486Y39417694D01*
X16718031Y39453596D01*
X16748651Y39458404D01*
X22513822Y39449810D01*
X22513824Y39449811D01*
X22514648Y39449809D01*
X22572810Y39430815D01*
X22608700Y39381261D01*
X22613500Y39350809D01*
X22613500Y8833727D01*
X22649960Y8533466D01*
X22649963Y8533443D01*
X22722352Y8239751D01*
X22722354Y8239742D01*
X22763783Y8130503D01*
X22829629Y7956881D01*
X22969708Y7689982D01*
X22970206Y7689033D01*
X22970209Y7689028D01*
X23110696Y7485500D01*
X23142050Y7440076D01*
X23342648Y7213648D01*
X23569076Y7013050D01*
X23693554Y6927129D01*
X23818027Y6841210D01*
X23818032Y6841207D01*
X24085887Y6700627D01*
X24368734Y6593357D01*
X24515591Y6557160D01*
X24662444Y6520964D01*
X24662445Y6520964D01*
X24662449Y6520963D01*
X24662454Y6520963D01*
X24662456Y6520962D01*
X24789600Y6505524D01*
X24962736Y6484501D01*
X24962744Y6484500D01*
X24962748Y6484500D01*
X25048108Y6484500D01*
X39243820Y6484500D01*
X39274408Y6479657D01*
X39287095Y6475534D01*
X39336595Y6439573D01*
X39336596Y6439572D01*
X39339591Y6435450D01*
X39358500Y6377260D01*
X39358500Y615181D01*
X39353654Y584588D01*
X39349532Y571902D01*
X39313580Y522411D01*
X39309459Y519416D01*
X39251271Y500500D01*
X14804304Y500500D01*
X14746113Y519407D01*
X14710149Y568907D01*
X14705608Y607253D01*
X14706237Y615256D01*
X14705928Y2520619D01*
X16041500Y2520619D01*
X16041500Y2347383D01*
X16068595Y2176304D01*
X16068596Y2176299D01*
X16068598Y2176294D01*
X16120340Y2017048D01*
X16122125Y2011557D01*
X16123995Y2007697D01*
X16124749Y2006409D01*
X16200765Y1857216D01*
X16200768Y1857212D01*
X16302586Y1717072D01*
X16425072Y1594586D01*
X16565212Y1492768D01*
X16714407Y1416750D01*
X16720254Y1413771D01*
X16723227Y1412933D01*
X16884293Y1360599D01*
X16884297Y1360598D01*
X16884303Y1360597D01*
X17055383Y1333500D01*
X17228614Y1333500D01*
X17228617Y1333500D01*
X17367843Y1355553D01*
X17399702Y1360598D01*
X17399706Y1360599D01*
X17564438Y1414124D01*
X17564438Y1414125D01*
X17565182Y1414366D01*
X17567899Y1415887D01*
X17718782Y1492765D01*
X17718784Y1492766D01*
X17718783Y1492766D01*
X17718788Y1492768D01*
X17858928Y1594586D01*
X17981414Y1717072D01*
X18083232Y1857212D01*
X18161873Y2011555D01*
X18161874Y2011560D01*
X18161876Y2011562D01*
X18163100Y2015331D01*
X18163369Y2015943D01*
X18163655Y2017040D01*
X18215401Y2176294D01*
X18215402Y2176298D01*
X18242500Y2347386D01*
X18242500Y2512845D01*
X18441500Y2512845D01*
X18441500Y2508236D01*
X18441500Y2355156D01*
X18470361Y2210067D01*
X18470361Y2210063D01*
X18472262Y2200501D01*
X18532600Y2054831D01*
X18532603Y2054826D01*
X18532609Y2054815D01*
X18561515Y2011555D01*
X18620212Y1923709D01*
X18686704Y1857218D01*
X18731711Y1812211D01*
X18809876Y1759983D01*
X18862814Y1724610D01*
X18862825Y1724604D01*
X18916638Y1702315D01*
X18921296Y1700386D01*
X18921299Y1700384D01*
X18964494Y1682492D01*
X19008503Y1664263D01*
X19163158Y1633500D01*
X19163159Y1633500D01*
X19320841Y1633500D01*
X19320842Y1633500D01*
X19475497Y1664263D01*
X19621179Y1724606D01*
X19752289Y1812211D01*
X19863789Y1923711D01*
X19951394Y2054821D01*
X20011737Y2200503D01*
X20042500Y2355158D01*
X20042500Y2512842D01*
X20042499Y2512845D01*
X20441500Y2512845D01*
X20441500Y2355156D01*
X20442130Y2351989D01*
X20470361Y2210067D01*
X20470361Y2210063D01*
X20472262Y2200501D01*
X20532600Y2054831D01*
X20532603Y2054826D01*
X20532609Y2054815D01*
X20561515Y2011555D01*
X20620212Y1923709D01*
X20686704Y1857218D01*
X20731711Y1812211D01*
X20809876Y1759983D01*
X20862814Y1724610D01*
X20862825Y1724604D01*
X20916638Y1702315D01*
X20921296Y1700386D01*
X20921299Y1700384D01*
X20964494Y1682492D01*
X21008503Y1664263D01*
X21163158Y1633500D01*
X21163159Y1633500D01*
X21320841Y1633500D01*
X21320842Y1633500D01*
X21475497Y1664263D01*
X21621179Y1724606D01*
X21752289Y1812211D01*
X21863789Y1923711D01*
X21951394Y2054821D01*
X22011737Y2200503D01*
X22042500Y2355158D01*
X22042500Y2512842D01*
X22042499Y2512845D01*
X22441500Y2512845D01*
X22441500Y2355156D01*
X22442130Y2351989D01*
X22470361Y2210067D01*
X22470361Y2210063D01*
X22472262Y2200501D01*
X22532600Y2054831D01*
X22532603Y2054826D01*
X22532609Y2054815D01*
X22561515Y2011555D01*
X22620212Y1923709D01*
X22686704Y1857218D01*
X22731711Y1812211D01*
X22809876Y1759983D01*
X22862814Y1724610D01*
X22862825Y1724604D01*
X22916638Y1702315D01*
X22921296Y1700386D01*
X22921299Y1700384D01*
X22964494Y1682492D01*
X23008503Y1664263D01*
X23163158Y1633500D01*
X23163159Y1633500D01*
X23320841Y1633500D01*
X23320842Y1633500D01*
X23475497Y1664263D01*
X23621179Y1724606D01*
X23752289Y1812211D01*
X23863789Y1923711D01*
X23951394Y2054821D01*
X24011737Y2200503D01*
X24042500Y2355158D01*
X24042500Y2512842D01*
X24042499Y2512845D01*
X24040953Y2520619D01*
X24241500Y2520619D01*
X24241500Y2347383D01*
X24268595Y2176304D01*
X24268596Y2176299D01*
X24268598Y2176294D01*
X24320340Y2017048D01*
X24322125Y2011557D01*
X24323995Y2007697D01*
X24324749Y2006409D01*
X24400765Y1857216D01*
X24400768Y1857212D01*
X24502586Y1717072D01*
X24625072Y1594586D01*
X24765212Y1492768D01*
X24914407Y1416750D01*
X24920254Y1413771D01*
X24923227Y1412933D01*
X25084293Y1360599D01*
X25084297Y1360598D01*
X25084303Y1360597D01*
X25255383Y1333500D01*
X25428614Y1333500D01*
X25428617Y1333500D01*
X25567843Y1355553D01*
X25599702Y1360598D01*
X25599706Y1360599D01*
X25764438Y1414124D01*
X25764438Y1414125D01*
X25765182Y1414366D01*
X25767899Y1415887D01*
X25918782Y1492765D01*
X25918784Y1492766D01*
X25918783Y1492766D01*
X25918788Y1492768D01*
X26058928Y1594586D01*
X26181414Y1717072D01*
X26283232Y1857212D01*
X26361873Y2011555D01*
X26361874Y2011560D01*
X26361876Y2011562D01*
X26363100Y2015331D01*
X26363369Y2015943D01*
X26363655Y2017040D01*
X26415401Y2176294D01*
X26415402Y2176298D01*
X26442500Y2347386D01*
X26442500Y2520615D01*
X26442500Y2520619D01*
X26415403Y2691697D01*
X26415402Y2691703D01*
X26415401Y2691707D01*
X26361876Y2856439D01*
X26361874Y2856442D01*
X26361873Y2856443D01*
X26361873Y2856445D01*
X26360090Y2859945D01*
X26359842Y2860580D01*
X26359250Y2861592D01*
X26283232Y3010788D01*
X26181414Y3150928D01*
X26058928Y3273414D01*
X26058924Y3273417D01*
X26058922Y3273419D01*
X25927247Y3369087D01*
X25927236Y3369094D01*
X25918788Y3375232D01*
X25918787Y3375233D01*
X25918785Y3375234D01*
X25769591Y3451251D01*
X25768311Y3452000D01*
X25764440Y3453876D01*
X25764438Y3453877D01*
X25688005Y3478712D01*
X25599701Y3507404D01*
X25599696Y3507405D01*
X25428617Y3534500D01*
X25428614Y3534500D01*
X25428611Y3534500D01*
X25255389Y3534500D01*
X25255386Y3534500D01*
X25255383Y3534500D01*
X25084302Y3507405D01*
X25084297Y3507404D01*
X24919561Y3453877D01*
X24915685Y3452000D01*
X24914407Y3451251D01*
X24765209Y3375232D01*
X24625078Y3273420D01*
X24502580Y3150922D01*
X24400768Y3010791D01*
X24324749Y2861593D01*
X24324000Y2860315D01*
X24322123Y2856439D01*
X24268596Y2691703D01*
X24268595Y2691698D01*
X24241500Y2520619D01*
X24040953Y2520619D01*
X24037395Y2538502D01*
X24011737Y2667497D01*
X23951394Y2813179D01*
X23951393Y2813181D01*
X23951390Y2813186D01*
X23916017Y2866124D01*
X23863789Y2944289D01*
X23863785Y2944293D01*
X23752297Y3055782D01*
X23752293Y3055785D01*
X23752289Y3055789D01*
X23700059Y3090688D01*
X23621185Y3143391D01*
X23621174Y3143397D01*
X23621169Y3143400D01*
X23475498Y3203737D01*
X23320844Y3234500D01*
X23320842Y3234500D01*
X23163158Y3234500D01*
X23163155Y3234500D01*
X23163154Y3234500D01*
X23098680Y3221675D01*
X23018065Y3205639D01*
X23018058Y3205639D01*
X23008499Y3203738D01*
X22862829Y3143400D01*
X22862806Y3143387D01*
X22731711Y3055790D01*
X22620210Y2944289D01*
X22532613Y2813194D01*
X22532600Y2813171D01*
X22472906Y2669056D01*
X22472905Y2669050D01*
X22472263Y2667499D01*
X22472263Y2667497D01*
X22441500Y2512845D01*
X22042499Y2512845D01*
X22037395Y2538502D01*
X22011737Y2667497D01*
X21951394Y2813179D01*
X21951393Y2813181D01*
X21951390Y2813186D01*
X21916017Y2866124D01*
X21863789Y2944289D01*
X21863785Y2944293D01*
X21752297Y3055782D01*
X21752293Y3055785D01*
X21752289Y3055789D01*
X21700059Y3090688D01*
X21621185Y3143391D01*
X21621174Y3143397D01*
X21621169Y3143400D01*
X21475498Y3203737D01*
X21320844Y3234500D01*
X21320842Y3234500D01*
X21163158Y3234500D01*
X21163155Y3234500D01*
X21163154Y3234500D01*
X21098680Y3221675D01*
X21018065Y3205639D01*
X21018058Y3205639D01*
X21008499Y3203738D01*
X20862829Y3143400D01*
X20862806Y3143387D01*
X20731711Y3055790D01*
X20620210Y2944289D01*
X20532613Y2813194D01*
X20532600Y2813171D01*
X20472906Y2669056D01*
X20472905Y2669050D01*
X20472263Y2667499D01*
X20472263Y2667497D01*
X20441500Y2512845D01*
X20042499Y2512845D01*
X20037395Y2538502D01*
X20011737Y2667497D01*
X19951394Y2813179D01*
X19951393Y2813181D01*
X19951390Y2813186D01*
X19916017Y2866124D01*
X19863789Y2944289D01*
X19863785Y2944293D01*
X19752297Y3055782D01*
X19752293Y3055785D01*
X19752289Y3055789D01*
X19700059Y3090688D01*
X19621185Y3143391D01*
X19621174Y3143397D01*
X19621169Y3143400D01*
X19475498Y3203737D01*
X19320844Y3234500D01*
X19320842Y3234500D01*
X19163158Y3234500D01*
X19163155Y3234500D01*
X19163154Y3234500D01*
X19098680Y3221675D01*
X19018065Y3205639D01*
X19018058Y3205639D01*
X19008499Y3203738D01*
X18862829Y3143400D01*
X18862806Y3143387D01*
X18731711Y3055790D01*
X18620210Y2944289D01*
X18532613Y2813194D01*
X18532600Y2813171D01*
X18472266Y2667510D01*
X18472264Y2667503D01*
X18472263Y2667499D01*
X18472263Y2667497D01*
X18441500Y2512845D01*
X18242500Y2512845D01*
X18242500Y2520615D01*
X18242500Y2520619D01*
X18215403Y2691697D01*
X18215402Y2691703D01*
X18215401Y2691707D01*
X18161876Y2856439D01*
X18161874Y2856442D01*
X18161873Y2856443D01*
X18161873Y2856445D01*
X18160090Y2859945D01*
X18159842Y2860580D01*
X18159250Y2861592D01*
X18083232Y3010788D01*
X17981414Y3150928D01*
X17858928Y3273414D01*
X17858924Y3273417D01*
X17858922Y3273419D01*
X17727247Y3369087D01*
X17727236Y3369094D01*
X17718788Y3375232D01*
X17718787Y3375233D01*
X17718785Y3375234D01*
X17569591Y3451251D01*
X17568311Y3452000D01*
X17564440Y3453876D01*
X17564438Y3453877D01*
X17488005Y3478712D01*
X17399701Y3507404D01*
X17399696Y3507405D01*
X17228617Y3534500D01*
X17228614Y3534500D01*
X17228611Y3534500D01*
X17055389Y3534500D01*
X17055386Y3534500D01*
X17055383Y3534500D01*
X16884302Y3507405D01*
X16884297Y3507404D01*
X16719561Y3453877D01*
X16715685Y3452000D01*
X16714407Y3451251D01*
X16565209Y3375232D01*
X16425078Y3273420D01*
X16302580Y3150922D01*
X16200768Y3010791D01*
X16124749Y2861593D01*
X16124000Y2860315D01*
X16122123Y2856439D01*
X16068596Y2691703D01*
X16068595Y2691698D01*
X16041500Y2520619D01*
X14705928Y2520619D01*
X14705561Y4782773D01*
X29756501Y4782773D01*
X29756501Y4782770D01*
X29756501Y4615231D01*
X29789184Y4450921D01*
X29789186Y4450915D01*
X29853297Y4296138D01*
X29853298Y4296137D01*
X29946375Y4156838D01*
X30064839Y4038374D01*
X30204138Y3945297D01*
X30358919Y3881184D01*
X30523234Y3848500D01*
X30523235Y3848500D01*
X30690767Y3848500D01*
X30690768Y3848500D01*
X30855083Y3881184D01*
X31009864Y3945297D01*
X31149163Y4038374D01*
X31267627Y4156838D01*
X31360704Y4296137D01*
X31424817Y4450918D01*
X31457501Y4615233D01*
X31457501Y4782767D01*
X31457500Y4782770D01*
X31457499Y4782773D01*
X32296501Y4782773D01*
X32296501Y4782770D01*
X32296501Y4615231D01*
X32329184Y4450921D01*
X32329186Y4450915D01*
X32393297Y4296138D01*
X32393298Y4296137D01*
X32486375Y4156838D01*
X32604839Y4038374D01*
X32744138Y3945297D01*
X32898919Y3881184D01*
X33063234Y3848500D01*
X33063235Y3848500D01*
X33230767Y3848500D01*
X33230768Y3848500D01*
X33395083Y3881184D01*
X33549864Y3945297D01*
X33689163Y4038374D01*
X33807627Y4156838D01*
X33900704Y4296137D01*
X33964817Y4450918D01*
X33997501Y4615233D01*
X33997501Y4782767D01*
X33997500Y4782770D01*
X33997499Y4782773D01*
X34836501Y4782773D01*
X34836501Y4782770D01*
X34836501Y4615231D01*
X34869184Y4450921D01*
X34869186Y4450915D01*
X34933297Y4296138D01*
X34933298Y4296137D01*
X35026375Y4156838D01*
X35144839Y4038374D01*
X35284138Y3945297D01*
X35438919Y3881184D01*
X35603234Y3848500D01*
X35603235Y3848500D01*
X35770767Y3848500D01*
X35770768Y3848500D01*
X35935083Y3881184D01*
X36089864Y3945297D01*
X36229163Y4038374D01*
X36347627Y4156838D01*
X36440704Y4296137D01*
X36504817Y4450918D01*
X36537501Y4615233D01*
X36537501Y4782767D01*
X36537500Y4782770D01*
X36537499Y4782773D01*
X37376501Y4782773D01*
X37376501Y4782770D01*
X37376501Y4615231D01*
X37409184Y4450921D01*
X37409186Y4450915D01*
X37473297Y4296138D01*
X37473298Y4296137D01*
X37566375Y4156838D01*
X37684839Y4038374D01*
X37824138Y3945297D01*
X37978919Y3881184D01*
X38143234Y3848500D01*
X38143235Y3848500D01*
X38310767Y3848500D01*
X38310768Y3848500D01*
X38475083Y3881184D01*
X38629864Y3945297D01*
X38769163Y4038374D01*
X38887627Y4156838D01*
X38980704Y4296137D01*
X39044817Y4450918D01*
X39077501Y4615233D01*
X39077501Y4782767D01*
X39044817Y4947082D01*
X38980704Y5101863D01*
X38887627Y5241162D01*
X38769163Y5359626D01*
X38687003Y5414524D01*
X38674497Y5430388D01*
X38629870Y5452701D01*
X38629863Y5452704D01*
X38475086Y5516815D01*
X38475080Y5516817D01*
X38392925Y5533159D01*
X38310772Y5549500D01*
X38310770Y5549500D01*
X38310768Y5549500D01*
X38143234Y5549500D01*
X38143231Y5549500D01*
X38143228Y5549500D01*
X38019998Y5524988D01*
X37978921Y5516817D01*
X37978915Y5516815D01*
X37978912Y5516814D01*
X37824138Y5452705D01*
X37684839Y5359627D01*
X37566374Y5241162D01*
X37473296Y5101863D01*
X37409187Y4947089D01*
X37409184Y4947079D01*
X37376501Y4782773D01*
X36537499Y4782773D01*
X36526606Y4837539D01*
X36504817Y4947082D01*
X36440704Y5101863D01*
X36347627Y5241162D01*
X36229163Y5359626D01*
X36147003Y5414524D01*
X36134497Y5430388D01*
X36089870Y5452701D01*
X36089863Y5452704D01*
X35935086Y5516815D01*
X35935080Y5516817D01*
X35852925Y5533159D01*
X35770772Y5549500D01*
X35770770Y5549500D01*
X35770768Y5549500D01*
X35603234Y5549500D01*
X35603231Y5549500D01*
X35603228Y5549500D01*
X35479998Y5524988D01*
X35438921Y5516817D01*
X35438915Y5516815D01*
X35438912Y5516814D01*
X35284138Y5452705D01*
X35144839Y5359627D01*
X35026374Y5241162D01*
X34933296Y5101863D01*
X34869187Y4947089D01*
X34869184Y4947079D01*
X34836501Y4782773D01*
X33997499Y4782773D01*
X33986606Y4837539D01*
X33964817Y4947082D01*
X33900704Y5101863D01*
X33807627Y5241162D01*
X33689163Y5359626D01*
X33607003Y5414524D01*
X33594497Y5430388D01*
X33549870Y5452701D01*
X33549863Y5452704D01*
X33395086Y5516815D01*
X33395080Y5516817D01*
X33312925Y5533159D01*
X33230772Y5549500D01*
X33230770Y5549500D01*
X33230768Y5549500D01*
X33063234Y5549500D01*
X33063231Y5549500D01*
X33063228Y5549500D01*
X32939998Y5524988D01*
X32898921Y5516817D01*
X32898915Y5516815D01*
X32898912Y5516814D01*
X32744138Y5452705D01*
X32604839Y5359627D01*
X32486374Y5241162D01*
X32393296Y5101863D01*
X32329187Y4947089D01*
X32329184Y4947079D01*
X32296501Y4782773D01*
X31457499Y4782773D01*
X31446606Y4837539D01*
X31424817Y4947082D01*
X31360704Y5101863D01*
X31267627Y5241162D01*
X31149163Y5359626D01*
X31067003Y5414524D01*
X31054497Y5430388D01*
X31009870Y5452701D01*
X31009863Y5452704D01*
X30855086Y5516815D01*
X30855080Y5516817D01*
X30772925Y5533159D01*
X30690772Y5549500D01*
X30690770Y5549500D01*
X30690768Y5549500D01*
X30523234Y5549500D01*
X30523231Y5549500D01*
X30523228Y5549500D01*
X30399998Y5524988D01*
X30358921Y5516817D01*
X30358915Y5516815D01*
X30358912Y5516814D01*
X30204138Y5452705D01*
X30064839Y5359627D01*
X29946374Y5241162D01*
X29853296Y5101863D01*
X29789187Y4947089D01*
X29789184Y4947079D01*
X29756501Y4782773D01*
X14705561Y4782773D01*
X14705399Y5778803D01*
X14724297Y5836995D01*
X14734357Y5848782D01*
X16581979Y7698127D01*
X16633639Y7763703D01*
X16657757Y7803079D01*
X16692701Y7878900D01*
X16700252Y7902138D01*
X16713277Y7956385D01*
X16718123Y7986980D01*
X16722500Y8042595D01*
X16722500Y8442844D01*
X17766500Y8442844D01*
X17766500Y8285155D01*
X17775534Y8239737D01*
X17795361Y8140066D01*
X17795361Y8140062D01*
X17797262Y8130500D01*
X17857600Y7984830D01*
X17857606Y7984819D01*
X17857613Y7984807D01*
X17870078Y7966153D01*
X17876270Y7956887D01*
X17945211Y7853710D01*
X17945214Y7853707D01*
X17945218Y7853702D01*
X18035215Y7763706D01*
X18056711Y7742210D01*
X18134876Y7689982D01*
X18187814Y7654609D01*
X18187825Y7654603D01*
X18241638Y7632314D01*
X18246296Y7630385D01*
X18246299Y7630383D01*
X18289494Y7612491D01*
X18333503Y7594262D01*
X18488158Y7563499D01*
X18488159Y7563499D01*
X18645841Y7563499D01*
X18645842Y7563499D01*
X18800497Y7594262D01*
X18946179Y7654605D01*
X19077289Y7742210D01*
X19188789Y7853710D01*
X19276394Y7984820D01*
X19336737Y8130502D01*
X19367500Y8285157D01*
X19367500Y8442841D01*
X19336737Y8597496D01*
X19276394Y8743178D01*
X19276393Y8743180D01*
X19276390Y8743185D01*
X19215877Y8833748D01*
X19188789Y8874288D01*
X19077289Y8985788D01*
X19025059Y9020687D01*
X18946185Y9073390D01*
X18946174Y9073396D01*
X18946169Y9073399D01*
X18800498Y9133736D01*
X18645844Y9164499D01*
X18645842Y9164499D01*
X18488158Y9164499D01*
X18488155Y9164499D01*
X18488154Y9164499D01*
X18423680Y9151674D01*
X18343065Y9135638D01*
X18343058Y9135638D01*
X18333499Y9133737D01*
X18187829Y9073399D01*
X18187806Y9073386D01*
X18056711Y8985789D01*
X17945210Y8874288D01*
X17857613Y8743193D01*
X17857600Y8743170D01*
X17797906Y8599055D01*
X17797905Y8599049D01*
X17797263Y8597498D01*
X17797263Y8597496D01*
X17766500Y8442844D01*
X16722500Y8442844D01*
X16722500Y10982844D01*
X17766500Y10982844D01*
X17766500Y10825155D01*
X17767130Y10821988D01*
X17795361Y10680066D01*
X17795361Y10680062D01*
X17797262Y10670500D01*
X17857600Y10524830D01*
X17857603Y10524825D01*
X17857609Y10524814D01*
X17910312Y10445940D01*
X17945211Y10393710D01*
X17945214Y10393707D01*
X17945218Y10393702D01*
X18056707Y10282214D01*
X18056711Y10282210D01*
X18134876Y10229982D01*
X18187814Y10194609D01*
X18187825Y10194603D01*
X18223474Y10179837D01*
X18333503Y10134262D01*
X18488158Y10103499D01*
X18488159Y10103499D01*
X18645841Y10103499D01*
X18645842Y10103499D01*
X18800497Y10134262D01*
X18946179Y10194605D01*
X19077289Y10282210D01*
X19188789Y10393710D01*
X19276394Y10524820D01*
X19336737Y10670502D01*
X19367500Y10825157D01*
X19367500Y10982841D01*
X19336737Y11137496D01*
X19276394Y11283178D01*
X19276393Y11283180D01*
X19276390Y11283185D01*
X19241017Y11336123D01*
X19188789Y11414288D01*
X19188785Y11414292D01*
X19077297Y11525781D01*
X19077293Y11525784D01*
X19077289Y11525788D01*
X19025059Y11560687D01*
X18946185Y11613390D01*
X18946174Y11613396D01*
X18946169Y11613399D01*
X18800498Y11673736D01*
X18645844Y11704499D01*
X18645842Y11704499D01*
X18488158Y11704499D01*
X18488155Y11704499D01*
X18488154Y11704499D01*
X18423680Y11691674D01*
X18343065Y11675638D01*
X18343058Y11675638D01*
X18333499Y11673737D01*
X18187829Y11613399D01*
X18187806Y11613386D01*
X18056711Y11525789D01*
X17945210Y11414288D01*
X17857613Y11283193D01*
X17857600Y11283170D01*
X17797906Y11139055D01*
X17797905Y11139049D01*
X17797263Y11137498D01*
X17797263Y11137496D01*
X17766500Y10982844D01*
X16722500Y10982844D01*
X16722500Y16507846D01*
X17766500Y16507846D01*
X17766500Y16350157D01*
X17767130Y16346990D01*
X17795361Y16205068D01*
X17795361Y16205064D01*
X17797262Y16195502D01*
X17857600Y16049832D01*
X17857603Y16049827D01*
X17857609Y16049816D01*
X17894961Y15993916D01*
X17945212Y15918710D01*
X18056707Y15807216D01*
X18056711Y15807212D01*
X18134876Y15754984D01*
X18187814Y15719611D01*
X18187825Y15719605D01*
X18241638Y15697316D01*
X18246296Y15695387D01*
X18246299Y15695385D01*
X18289494Y15677493D01*
X18333503Y15659264D01*
X18488158Y15628501D01*
X18488159Y15628501D01*
X18645841Y15628501D01*
X18645842Y15628501D01*
X18800497Y15659264D01*
X18946179Y15719607D01*
X19077289Y15807212D01*
X19188789Y15918712D01*
X19276394Y16049822D01*
X19336737Y16195504D01*
X19367500Y16350159D01*
X19367500Y16507843D01*
X19336737Y16662498D01*
X19316622Y16711059D01*
X19276396Y16808176D01*
X19276390Y16808187D01*
X19234095Y16871485D01*
X19188789Y16939290D01*
X19077289Y17050790D01*
X19004370Y17099513D01*
X19004369Y17099514D01*
X18946194Y17138387D01*
X18946169Y17138401D01*
X18800498Y17198738D01*
X18645844Y17229501D01*
X18645842Y17229501D01*
X18488158Y17229501D01*
X18488155Y17229501D01*
X18488154Y17229501D01*
X18423680Y17216676D01*
X18343065Y17200640D01*
X18343058Y17200640D01*
X18333499Y17198739D01*
X18187829Y17138401D01*
X18187806Y17138388D01*
X18056711Y17050791D01*
X17945210Y16939290D01*
X17857613Y16808195D01*
X17857600Y16808172D01*
X17797906Y16664057D01*
X17797905Y16664051D01*
X17797263Y16662500D01*
X17797263Y16662498D01*
X17766500Y16507846D01*
X16722500Y16507846D01*
X16722500Y17226260D01*
X16705097Y17336126D01*
X16705096Y17336128D01*
X16705096Y17336131D01*
X16705095Y17336133D01*
X16686190Y17394309D01*
X16686188Y17394316D01*
X16674845Y17416574D01*
X16665271Y17477004D01*
X16693044Y17531521D01*
X16707509Y17545985D01*
X16707510Y17545988D01*
X16707512Y17545989D01*
X16779982Y17671511D01*
X16779982Y17671513D01*
X16779984Y17671515D01*
X16817500Y17811525D01*
X16817500Y17956475D01*
X16779984Y18096485D01*
X16779982Y18096488D01*
X16779982Y18096490D01*
X16779977Y18096498D01*
X16779656Y18097208D01*
X16778397Y18099236D01*
X16708985Y18219461D01*
X16708985Y18219460D01*
X16707512Y18222011D01*
X16707510Y18222013D01*
X16707509Y18222015D01*
X16605015Y18324509D01*
X16605012Y18324511D01*
X16605010Y18324513D01*
X16536774Y18363909D01*
X16515741Y18387269D01*
X16479489Y18396983D01*
X16449896Y18404913D01*
X16430841Y18410019D01*
X16416302Y18413915D01*
X16364989Y18447241D01*
X16344140Y18494102D01*
X16339168Y18525597D01*
X16304852Y18631395D01*
X16299268Y18642368D01*
X16270146Y18689945D01*
X16251952Y18715014D01*
X16215740Y18757456D01*
X14952975Y20021475D01*
X17046500Y20021475D01*
X17046500Y19876525D01*
X17076087Y19766104D01*
X17080665Y19749018D01*
X17084017Y19736509D01*
X17084018Y19736508D01*
X17156485Y19610992D01*
X17156487Y19610990D01*
X17156489Y19610988D01*
X17156491Y19610985D01*
X17258985Y19508491D01*
X17258987Y19508490D01*
X17258989Y19508488D01*
X17259536Y19508093D01*
X17261538Y19507016D01*
X17384511Y19436018D01*
X17384512Y19436018D01*
X17384515Y19436016D01*
X17524525Y19398500D01*
X17524526Y19398500D01*
X17669474Y19398500D01*
X17669475Y19398500D01*
X17809485Y19436016D01*
X17809486Y19436017D01*
X17809488Y19436018D01*
X17809489Y19436018D01*
X17928880Y19504949D01*
X17931768Y19506352D01*
X17932554Y19506869D01*
X17937563Y19509963D01*
X17938862Y19510714D01*
X17944220Y19517697D01*
X18037509Y19610985D01*
X18109984Y19736515D01*
X18147500Y19876525D01*
X18147500Y20021475D01*
X18109984Y20161485D01*
X18109982Y20161488D01*
X18109982Y20161490D01*
X18109977Y20161498D01*
X18109656Y20162208D01*
X18108397Y20164236D01*
X18038985Y20284461D01*
X18038985Y20284460D01*
X18037512Y20287011D01*
X18037510Y20287013D01*
X18037509Y20287015D01*
X17935015Y20389509D01*
X17935012Y20389511D01*
X17935010Y20389513D01*
X17866774Y20428909D01*
X17845741Y20452269D01*
X17779897Y20469913D01*
X17779896Y20469913D01*
X17669475Y20499500D01*
X17669473Y20499500D01*
X17524526Y20499500D01*
X17524525Y20499500D01*
X17503947Y20493986D01*
X17384505Y20461982D01*
X17258993Y20389517D01*
X17156483Y20287007D01*
X17084625Y20162546D01*
X17084624Y20162543D01*
X17084017Y20161490D01*
X17084016Y20161485D01*
X17046500Y20021475D01*
X14952975Y20021475D01*
X14468141Y20506791D01*
X14440391Y20561319D01*
X14449993Y20621747D01*
X14488679Y20662493D01*
X14492938Y20664952D01*
X14495822Y20666352D01*
X14496605Y20666868D01*
X14501618Y20669964D01*
X14502914Y20670713D01*
X14508273Y20677697D01*
X14601562Y20770985D01*
X14665238Y20881275D01*
X14674035Y20896511D01*
X14674035Y20896513D01*
X14674037Y20896515D01*
X14711553Y21036525D01*
X14711553Y21181475D01*
X14674037Y21321485D01*
X14674035Y21321488D01*
X14674035Y21321490D01*
X14674030Y21321498D01*
X14673709Y21322208D01*
X14672450Y21324236D01*
X14603038Y21444461D01*
X14603038Y21444460D01*
X14601565Y21447011D01*
X14601563Y21447013D01*
X14601562Y21447015D01*
X14499068Y21549509D01*
X14499065Y21549511D01*
X14499063Y21549513D01*
X14499062Y21549514D01*
X14430828Y21588909D01*
X14409794Y21612270D01*
X14342685Y21630251D01*
X14233528Y21659500D01*
X14233527Y21659500D01*
X14088576Y21659500D01*
X14026841Y21642959D01*
X14026840Y21642960D01*
X13948565Y21621985D01*
X13948559Y21621982D01*
X13823046Y21549517D01*
X13720536Y21447007D01*
X13714873Y21437198D01*
X13669401Y21396259D01*
X13608551Y21389866D01*
X13559101Y21416733D01*
X13538656Y21437198D01*
X13363758Y21612270D01*
X13328503Y21647560D01*
X13300752Y21702091D01*
X13310354Y21762518D01*
X13344056Y21800188D01*
X13346629Y21801884D01*
X13351616Y21804963D01*
X13352915Y21805714D01*
X13358273Y21812697D01*
X13451562Y21905985D01*
X13486761Y21966951D01*
X13524035Y22031511D01*
X13524035Y22031513D01*
X13524037Y22031515D01*
X13561553Y22171525D01*
X13561553Y22316475D01*
X14760553Y22316475D01*
X14760553Y22171525D01*
X14790140Y22061104D01*
X14794718Y22044018D01*
X14798070Y22031509D01*
X14798071Y22031508D01*
X14870538Y21905992D01*
X14870540Y21905990D01*
X14870542Y21905988D01*
X14870544Y21905985D01*
X14973038Y21803491D01*
X14973040Y21803490D01*
X14973042Y21803488D01*
X14973589Y21803093D01*
X14975591Y21802016D01*
X15098564Y21731018D01*
X15098565Y21731018D01*
X15098568Y21731016D01*
X15238578Y21693500D01*
X15238579Y21693500D01*
X15383527Y21693500D01*
X15383528Y21693500D01*
X15523538Y21731016D01*
X15523539Y21731017D01*
X15523541Y21731018D01*
X15523542Y21731018D01*
X15642933Y21799949D01*
X15645821Y21801352D01*
X15646607Y21801869D01*
X15651616Y21804963D01*
X15652915Y21805714D01*
X15658273Y21812697D01*
X15751562Y21905985D01*
X15786761Y21966951D01*
X15824035Y22031511D01*
X15824035Y22031513D01*
X15824037Y22031515D01*
X15861553Y22171525D01*
X15861553Y22316475D01*
X15824037Y22456485D01*
X15824035Y22456488D01*
X15824035Y22456490D01*
X15824030Y22456498D01*
X15823709Y22457208D01*
X15822450Y22459236D01*
X15753038Y22579461D01*
X15753038Y22579460D01*
X15751565Y22582011D01*
X15751563Y22582013D01*
X15751562Y22582015D01*
X15649068Y22684509D01*
X15649065Y22684511D01*
X15649063Y22684513D01*
X15580827Y22723909D01*
X15559794Y22747269D01*
X15493950Y22764913D01*
X15493949Y22764913D01*
X15383528Y22794500D01*
X15383526Y22794500D01*
X15238576Y22794500D01*
X15176841Y22777959D01*
X15176840Y22777960D01*
X15098565Y22756985D01*
X15098559Y22756982D01*
X14973046Y22684517D01*
X14870536Y22582007D01*
X14798069Y22456490D01*
X14797792Y22455756D01*
X14797245Y22453413D01*
X14760553Y22316475D01*
X13561553Y22316475D01*
X13524037Y22456485D01*
X13524035Y22456488D01*
X13524035Y22456490D01*
X13523875Y22456766D01*
X13523799Y22457064D01*
X13522450Y22459236D01*
X13453038Y22579461D01*
X13453038Y22579460D01*
X13451565Y22582011D01*
X13451563Y22582013D01*
X13451562Y22582015D01*
X13349068Y22684509D01*
X13349065Y22684511D01*
X13349063Y22684513D01*
X13280827Y22723909D01*
X13259794Y22747269D01*
X13193950Y22764913D01*
X13193949Y22764913D01*
X13083528Y22794500D01*
X13083526Y22794500D01*
X12938576Y22794500D01*
X12876841Y22777959D01*
X12876840Y22777960D01*
X12798565Y22756985D01*
X12798559Y22756982D01*
X12673046Y22684517D01*
X12570537Y22582008D01*
X12566589Y22576862D01*
X12565516Y22577685D01*
X12525294Y22541483D01*
X12464443Y22535099D01*
X12415007Y22561963D01*
X12212259Y22764913D01*
X12171531Y22805681D01*
X12143781Y22860211D01*
X12153383Y22920638D01*
X12192065Y22961382D01*
X12197810Y22964700D01*
X12200703Y22966104D01*
X12201491Y22966623D01*
X12206500Y22969717D01*
X12207799Y22970468D01*
X12213157Y22977451D01*
X12306446Y23070739D01*
X12369578Y23180086D01*
X12378919Y23196265D01*
X12378919Y23196267D01*
X12378921Y23196269D01*
X12416437Y23336279D01*
X12416437Y23466476D01*
X13603647Y23466476D01*
X13603647Y23321526D01*
X13603917Y23320520D01*
X13607022Y23308929D01*
X13607023Y23308927D01*
X13641165Y23181508D01*
X13713632Y23055993D01*
X13713634Y23055991D01*
X13713636Y23055989D01*
X13713638Y23055986D01*
X13816132Y22953492D01*
X13816134Y22953491D01*
X13816136Y22953489D01*
X13816683Y22953094D01*
X13818685Y22952017D01*
X13941658Y22881019D01*
X13941659Y22881019D01*
X13941662Y22881017D01*
X14081672Y22843501D01*
X14081673Y22843501D01*
X14226621Y22843501D01*
X14226622Y22843501D01*
X14366632Y22881017D01*
X14366633Y22881018D01*
X14366635Y22881019D01*
X14366636Y22881019D01*
X14486027Y22949950D01*
X14488915Y22951353D01*
X14489701Y22951870D01*
X14494710Y22954964D01*
X14496009Y22955715D01*
X14501367Y22962698D01*
X14594656Y23055986D01*
X14603177Y23070744D01*
X14667129Y23181512D01*
X14667129Y23181514D01*
X14667131Y23181516D01*
X14704647Y23321526D01*
X14704647Y23465470D01*
X15898162Y23465470D01*
X15898162Y23320521D01*
X15901269Y23308927D01*
X15935680Y23180502D01*
X16008147Y23054987D01*
X16008149Y23054985D01*
X16008151Y23054983D01*
X16008153Y23054980D01*
X16110647Y22952486D01*
X16110649Y22952485D01*
X16110651Y22952483D01*
X16111198Y22952088D01*
X16113200Y22951011D01*
X16236173Y22880013D01*
X16236174Y22880013D01*
X16236177Y22880011D01*
X16376187Y22842495D01*
X16376188Y22842495D01*
X16521136Y22842495D01*
X16521137Y22842495D01*
X16661147Y22880011D01*
X16661148Y22880012D01*
X16661150Y22880013D01*
X16661151Y22880013D01*
X16780542Y22948944D01*
X16783430Y22950347D01*
X16784216Y22950864D01*
X16789225Y22953958D01*
X16790524Y22954709D01*
X16795882Y22961692D01*
X16889171Y23054980D01*
X16889755Y23055991D01*
X16961644Y23180506D01*
X16961644Y23180508D01*
X16961646Y23180510D01*
X16999162Y23320520D01*
X16999162Y23465470D01*
X16961646Y23605480D01*
X16961644Y23605483D01*
X16961644Y23605485D01*
X16961641Y23605490D01*
X16961318Y23606203D01*
X16960059Y23608231D01*
X16890647Y23728456D01*
X16890647Y23728455D01*
X16889174Y23731006D01*
X16889172Y23731008D01*
X16889171Y23731010D01*
X16786677Y23833504D01*
X16786674Y23833506D01*
X16786672Y23833508D01*
X16786671Y23833509D01*
X16718437Y23872904D01*
X16697403Y23896265D01*
X16602334Y23921738D01*
X16582864Y23926955D01*
X16521137Y23943495D01*
X16521136Y23943495D01*
X16376185Y23943495D01*
X16314450Y23926954D01*
X16314449Y23926955D01*
X16236174Y23905980D01*
X16236168Y23905977D01*
X16110655Y23833512D01*
X16008145Y23731002D01*
X15935680Y23605490D01*
X15914704Y23527208D01*
X15898162Y23465470D01*
X14704647Y23465470D01*
X14704647Y23466476D01*
X14667131Y23606486D01*
X14667129Y23606489D01*
X14667129Y23606491D01*
X14666946Y23606807D01*
X14666872Y23607099D01*
X14665544Y23609237D01*
X14596132Y23729462D01*
X14596132Y23729461D01*
X14594659Y23732012D01*
X14594657Y23732014D01*
X14594656Y23732016D01*
X14492162Y23834510D01*
X14492159Y23834512D01*
X14492157Y23834514D01*
X14492156Y23834515D01*
X14423922Y23873910D01*
X14402888Y23897271D01*
X14311577Y23921737D01*
X14271820Y23932390D01*
X14226622Y23944501D01*
X14226621Y23944501D01*
X14081670Y23944501D01*
X14019935Y23927960D01*
X14019934Y23927961D01*
X13941659Y23906986D01*
X13941653Y23906983D01*
X13816140Y23834518D01*
X13713630Y23732008D01*
X13641164Y23606494D01*
X13640894Y23605486D01*
X13640893Y23605480D01*
X13603647Y23466476D01*
X12416437Y23466476D01*
X12416437Y23481229D01*
X12378921Y23621239D01*
X12378919Y23621242D01*
X12378919Y23621244D01*
X12378425Y23622099D01*
X12378375Y23622313D01*
X12377334Y23623990D01*
X12307922Y23744215D01*
X12307922Y23744214D01*
X12306449Y23746765D01*
X12306447Y23746767D01*
X12306446Y23746769D01*
X12203952Y23849263D01*
X12203949Y23849265D01*
X12203947Y23849267D01*
X12135711Y23888663D01*
X12114678Y23912023D01*
X12048834Y23929667D01*
X12048833Y23929667D01*
X11938412Y23959254D01*
X11938410Y23959254D01*
X11793463Y23959254D01*
X11793462Y23959254D01*
X11738404Y23944501D01*
X11653442Y23921736D01*
X11527930Y23849271D01*
X11425420Y23746761D01*
X11418894Y23735457D01*
X11373423Y23694518D01*
X11312573Y23688125D01*
X11263122Y23714992D01*
X11249672Y23728455D01*
X11104362Y23873910D01*
X11045940Y23932390D01*
X11018189Y23986921D01*
X11027791Y24047348D01*
X11045831Y24072219D01*
X11063836Y24090299D01*
X11064082Y24090545D01*
X11064135Y24090572D01*
X11064220Y24090683D01*
X11157509Y24183971D01*
X11161559Y24190985D01*
X11229982Y24309497D01*
X11229982Y24309499D01*
X11229984Y24309501D01*
X11267500Y24449511D01*
X11267500Y24594461D01*
X11265621Y24601475D01*
X12445554Y24601475D01*
X12445554Y24456525D01*
X12449719Y24440982D01*
X12452583Y24430294D01*
X12483072Y24316507D01*
X12555539Y24190992D01*
X12555541Y24190990D01*
X12555543Y24190988D01*
X12555545Y24190985D01*
X12658039Y24088491D01*
X12658041Y24088490D01*
X12658043Y24088488D01*
X12658590Y24088093D01*
X12660592Y24087016D01*
X12783565Y24016018D01*
X12783566Y24016018D01*
X12783569Y24016016D01*
X12923579Y23978500D01*
X12923580Y23978500D01*
X13068528Y23978500D01*
X13068529Y23978500D01*
X13208539Y24016016D01*
X13208540Y24016017D01*
X13208542Y24016018D01*
X13208543Y24016018D01*
X13327934Y24084949D01*
X13330822Y24086352D01*
X13331608Y24086869D01*
X13336617Y24089963D01*
X13337916Y24090714D01*
X13343274Y24097697D01*
X13436563Y24190985D01*
X13436566Y24190990D01*
X13509036Y24316511D01*
X13509036Y24316513D01*
X13509038Y24316515D01*
X13542390Y24440985D01*
X14738431Y24440985D01*
X14775950Y24300963D01*
X14848417Y24175448D01*
X14848419Y24175446D01*
X14848421Y24175444D01*
X14848423Y24175441D01*
X14950917Y24072947D01*
X14950919Y24072946D01*
X14950921Y24072944D01*
X14951468Y24072549D01*
X14953470Y24071472D01*
X15076443Y24000474D01*
X15076444Y24000474D01*
X15076447Y24000472D01*
X15216457Y23962956D01*
X15216458Y23962956D01*
X15361406Y23962956D01*
X15361407Y23962956D01*
X15501417Y24000472D01*
X15501418Y24000473D01*
X15501420Y24000474D01*
X15501421Y24000474D01*
X15620812Y24069405D01*
X15623700Y24070808D01*
X15624486Y24071325D01*
X15629495Y24074419D01*
X15630794Y24075170D01*
X15636152Y24082153D01*
X15729441Y24175441D01*
X15738418Y24190990D01*
X15801914Y24300967D01*
X15801914Y24300969D01*
X15801916Y24300971D01*
X15839432Y24440981D01*
X15839432Y24585931D01*
X15801916Y24725941D01*
X15801914Y24725944D01*
X15801914Y24725946D01*
X15801909Y24725954D01*
X15801588Y24726664D01*
X15800329Y24728692D01*
X15730917Y24848917D01*
X15730917Y24848916D01*
X15729444Y24851467D01*
X15729442Y24851469D01*
X15729441Y24851471D01*
X15626947Y24953965D01*
X15626944Y24953967D01*
X15626942Y24953969D01*
X15626941Y24953970D01*
X15558707Y24993365D01*
X15537673Y25016726D01*
X15443410Y25041983D01*
X15423134Y25047416D01*
X15361407Y25063956D01*
X15361406Y25063956D01*
X15216455Y25063956D01*
X15154720Y25047415D01*
X15154719Y25047416D01*
X15076444Y25026441D01*
X15076438Y25026438D01*
X14950925Y24953973D01*
X14848415Y24851463D01*
X14775950Y24725951D01*
X14738432Y24585930D01*
X14738432Y24440985D01*
X14738431Y24440985D01*
X13542390Y24440985D01*
X13546554Y24456525D01*
X13546554Y24601475D01*
X13509038Y24741485D01*
X13509036Y24741488D01*
X13509036Y24741490D01*
X13508527Y24742372D01*
X13508477Y24742584D01*
X13507451Y24744236D01*
X13438039Y24864461D01*
X13438039Y24864460D01*
X13436566Y24867011D01*
X13436564Y24867013D01*
X13436563Y24867015D01*
X13334069Y24969509D01*
X13334066Y24969511D01*
X13334064Y24969513D01*
X13334063Y24969514D01*
X13265829Y25008909D01*
X13244795Y25032270D01*
X13094705Y25072486D01*
X13094703Y25072487D01*
X13068529Y25079500D01*
X12923579Y25079500D01*
X12897402Y25072487D01*
X12897403Y25072486D01*
X12783564Y25041983D01*
X12783562Y25041983D01*
X12783558Y25041981D01*
X12658047Y24969517D01*
X12555537Y24867007D01*
X12483072Y24741494D01*
X12483071Y24741491D01*
X12478905Y24725947D01*
X12478906Y24725946D01*
X12445554Y24601475D01*
X11265621Y24601475D01*
X11229984Y24734471D01*
X11229982Y24734474D01*
X11229982Y24734476D01*
X11229904Y24734611D01*
X11229821Y24734928D01*
X11228397Y24737222D01*
X11158985Y24857447D01*
X11158985Y24857446D01*
X11157512Y24859997D01*
X11157510Y24859999D01*
X11157509Y24860001D01*
X11055015Y24962495D01*
X11055012Y24962497D01*
X11055010Y24962499D01*
X10986774Y25001895D01*
X10965741Y25025255D01*
X10899897Y25042899D01*
X10899896Y25042899D01*
X10789475Y25072486D01*
X10789473Y25072486D01*
X10644526Y25072486D01*
X10644525Y25072486D01*
X10612691Y25063956D01*
X10504505Y25034968D01*
X10378993Y24962503D01*
X10276483Y24859993D01*
X10204018Y24734480D01*
X10204016Y24734476D01*
X10176959Y24633501D01*
X10176960Y24633500D01*
X10166500Y24594461D01*
X10166500Y24562032D01*
X10147593Y24503841D01*
X10098093Y24467877D01*
X10067988Y24463033D01*
X6845087Y24447159D01*
X6786803Y24465780D01*
X6774606Y24476144D01*
X6562720Y24687964D01*
X6534934Y24742476D01*
X6533713Y24758001D01*
X6533738Y24864461D01*
X6533938Y25731475D01*
X9035553Y25731475D01*
X9035553Y25586526D01*
X9066574Y25470755D01*
X9073071Y25446507D01*
X9145538Y25320992D01*
X9145540Y25320990D01*
X9145542Y25320988D01*
X9145544Y25320985D01*
X9248038Y25218491D01*
X9248040Y25218490D01*
X9248042Y25218488D01*
X9248589Y25218093D01*
X9250591Y25217016D01*
X9373564Y25146018D01*
X9373565Y25146018D01*
X9373568Y25146016D01*
X9513578Y25108500D01*
X9513579Y25108500D01*
X9658527Y25108500D01*
X9658528Y25108500D01*
X9798538Y25146016D01*
X9798539Y25146017D01*
X9798541Y25146018D01*
X9798542Y25146018D01*
X9917933Y25214949D01*
X9920821Y25216352D01*
X9921607Y25216869D01*
X9926616Y25219963D01*
X9927914Y25220713D01*
X9933272Y25227696D01*
X10026562Y25320985D01*
X10045607Y25353971D01*
X10099035Y25446511D01*
X10099035Y25446513D01*
X10099037Y25446515D01*
X10136553Y25586525D01*
X10136553Y25731475D01*
X10127715Y25764460D01*
X11326498Y25764460D01*
X11326498Y25619509D01*
X11335336Y25586527D01*
X11335336Y25586525D01*
X11335337Y25586525D01*
X11364016Y25479493D01*
X11436483Y25353978D01*
X11436485Y25353976D01*
X11436487Y25353974D01*
X11436489Y25353971D01*
X11538983Y25251477D01*
X11538985Y25251476D01*
X11538987Y25251474D01*
X11539534Y25251079D01*
X11541536Y25250002D01*
X11664509Y25179004D01*
X11664510Y25179004D01*
X11664513Y25179002D01*
X11804523Y25141486D01*
X11804524Y25141486D01*
X11949472Y25141486D01*
X11949473Y25141486D01*
X12089483Y25179002D01*
X12089484Y25179003D01*
X12089486Y25179004D01*
X12089487Y25179004D01*
X12208878Y25247935D01*
X12211766Y25249338D01*
X12212552Y25249855D01*
X12217561Y25252949D01*
X12218860Y25253700D01*
X12224218Y25260683D01*
X12317507Y25353971D01*
X12370935Y25446511D01*
X12389980Y25479497D01*
X12389980Y25479499D01*
X12389982Y25479501D01*
X12427498Y25619511D01*
X12427498Y25764461D01*
X12425619Y25771473D01*
X13605553Y25771473D01*
X13605553Y25626522D01*
X13611879Y25602914D01*
X13611879Y25602913D01*
X13611880Y25602913D01*
X13611880Y25602912D01*
X13643070Y25486510D01*
X13643071Y25486508D01*
X13643072Y25486505D01*
X13715538Y25360991D01*
X13715540Y25360989D01*
X13715542Y25360987D01*
X13715544Y25360984D01*
X13818038Y25258490D01*
X13818040Y25258489D01*
X13818042Y25258487D01*
X13818589Y25258092D01*
X13820591Y25257015D01*
X13943564Y25186017D01*
X13943565Y25186017D01*
X13943568Y25186015D01*
X14083578Y25148499D01*
X14083579Y25148499D01*
X14228527Y25148499D01*
X14228528Y25148499D01*
X14368538Y25186015D01*
X14368539Y25186016D01*
X14368541Y25186017D01*
X14368542Y25186017D01*
X14487933Y25254948D01*
X14490821Y25256351D01*
X14491607Y25256868D01*
X14496616Y25259962D01*
X14497915Y25260713D01*
X14503273Y25267696D01*
X14596562Y25360984D01*
X14645941Y25446511D01*
X14669035Y25486510D01*
X14669035Y25486512D01*
X14669037Y25486514D01*
X14706553Y25626524D01*
X14706553Y25755715D01*
X15899463Y25755715D01*
X15899463Y25610766D01*
X15932548Y25487291D01*
X15936981Y25470747D01*
X16009448Y25345232D01*
X16009450Y25345230D01*
X16009452Y25345228D01*
X16009454Y25345225D01*
X16111948Y25242731D01*
X16111950Y25242730D01*
X16111952Y25242728D01*
X16112499Y25242333D01*
X16114501Y25241256D01*
X16237474Y25170258D01*
X16237475Y25170258D01*
X16237478Y25170256D01*
X16377488Y25132740D01*
X16377489Y25132740D01*
X16522437Y25132740D01*
X16522438Y25132740D01*
X16662448Y25170256D01*
X16662449Y25170257D01*
X16662451Y25170258D01*
X16662452Y25170258D01*
X16781843Y25239189D01*
X16784731Y25240592D01*
X16785517Y25241109D01*
X16790526Y25244203D01*
X16791825Y25244954D01*
X16797183Y25251937D01*
X16890472Y25345225D01*
X16895522Y25353971D01*
X16962945Y25470751D01*
X16962945Y25470753D01*
X16962947Y25470755D01*
X17000463Y25610765D01*
X17000463Y25755715D01*
X16962947Y25895725D01*
X16962945Y25895728D01*
X16962945Y25895730D01*
X16962940Y25895738D01*
X16962619Y25896448D01*
X16961360Y25898476D01*
X16891948Y26018701D01*
X16891948Y26018700D01*
X16890475Y26021251D01*
X16890473Y26021253D01*
X16890472Y26021255D01*
X16787978Y26123749D01*
X16787975Y26123751D01*
X16787973Y26123753D01*
X16787972Y26123754D01*
X16719738Y26163149D01*
X16698704Y26186510D01*
X16603635Y26211983D01*
X16584165Y26217200D01*
X16522438Y26233740D01*
X16522437Y26233740D01*
X16377486Y26233740D01*
X16315751Y26217199D01*
X16315750Y26217200D01*
X16237475Y26196225D01*
X16237469Y26196222D01*
X16111956Y26123757D01*
X16009446Y26021247D01*
X15936981Y25895735D01*
X15921272Y25837106D01*
X15899463Y25755715D01*
X14706553Y25755715D01*
X14706553Y25771474D01*
X14669037Y25911484D01*
X14669035Y25911487D01*
X14669035Y25911489D01*
X14668520Y25912381D01*
X14668471Y25912590D01*
X14667450Y25914235D01*
X14598038Y26034460D01*
X14598038Y26034459D01*
X14596565Y26037010D01*
X14596563Y26037012D01*
X14596562Y26037014D01*
X14494068Y26139508D01*
X14494065Y26139510D01*
X14494063Y26139512D01*
X14425827Y26178908D01*
X14404794Y26202268D01*
X14338950Y26219912D01*
X14338949Y26219912D01*
X14228528Y26249499D01*
X14228526Y26249499D01*
X14083579Y26249499D01*
X14083578Y26249499D01*
X14071150Y26246169D01*
X14024765Y26233741D01*
X14024765Y26233740D01*
X13943563Y26211982D01*
X13943561Y26211982D01*
X13943557Y26211980D01*
X13818046Y26139516D01*
X13715536Y26037006D01*
X13643071Y25911494D01*
X13605554Y25771477D01*
X13605553Y25771473D01*
X12425619Y25771473D01*
X12389982Y25904471D01*
X12389980Y25904474D01*
X12389980Y25904476D01*
X12389902Y25904611D01*
X12389819Y25904928D01*
X12388395Y25907222D01*
X12318983Y26027447D01*
X12318983Y26027446D01*
X12317510Y26029997D01*
X12317508Y26029999D01*
X12317507Y26030001D01*
X12215013Y26132495D01*
X12215010Y26132497D01*
X12215008Y26132499D01*
X12146772Y26171895D01*
X12125739Y26195255D01*
X12059895Y26212899D01*
X12059894Y26212899D01*
X11949473Y26242486D01*
X11949471Y26242486D01*
X11804524Y26242486D01*
X11804523Y26242486D01*
X11771887Y26233741D01*
X11771883Y26233740D01*
X11664503Y26204968D01*
X11538991Y26132503D01*
X11436481Y26029993D01*
X11364016Y25904481D01*
X11328377Y25771473D01*
X11326498Y25764460D01*
X10127715Y25764460D01*
X10099037Y25871485D01*
X10099035Y25871488D01*
X10099035Y25871490D01*
X10099032Y25871494D01*
X10098942Y25871833D01*
X10097450Y25874236D01*
X10028038Y25994461D01*
X10028038Y25994460D01*
X10026565Y25997011D01*
X10026563Y25997013D01*
X10026562Y25997015D01*
X9924068Y26099509D01*
X9924065Y26099511D01*
X9924063Y26099513D01*
X9855827Y26138909D01*
X9834794Y26162269D01*
X9768950Y26179913D01*
X9768949Y26179913D01*
X9658528Y26209500D01*
X9658526Y26209500D01*
X9513579Y26209500D01*
X9513578Y26209500D01*
X9464036Y26196225D01*
X9464032Y26196224D01*
X9373558Y26171982D01*
X9248046Y26099517D01*
X9145536Y25997007D01*
X9073071Y25871495D01*
X9063857Y25837106D01*
X9035553Y25731475D01*
X6533938Y25731475D01*
X6534211Y26911475D01*
X10200552Y26911475D01*
X10200552Y26766526D01*
X10233637Y26643051D01*
X10238070Y26626507D01*
X10310537Y26500992D01*
X10310539Y26500990D01*
X10310541Y26500988D01*
X10310543Y26500985D01*
X10413037Y26398491D01*
X10413039Y26398490D01*
X10413041Y26398488D01*
X10413588Y26398093D01*
X10415590Y26397016D01*
X10538563Y26326018D01*
X10538564Y26326018D01*
X10538567Y26326016D01*
X10678577Y26288500D01*
X10678578Y26288500D01*
X10823526Y26288500D01*
X10823527Y26288500D01*
X10963537Y26326016D01*
X10963538Y26326017D01*
X10963540Y26326018D01*
X10963541Y26326018D01*
X11082932Y26394949D01*
X11085820Y26396352D01*
X11086606Y26396869D01*
X11091615Y26399963D01*
X11092914Y26400714D01*
X11098272Y26407697D01*
X11191561Y26500985D01*
X11191564Y26500990D01*
X11264034Y26626511D01*
X11264034Y26626513D01*
X11264036Y26626515D01*
X11301552Y26766525D01*
X11301552Y26900155D01*
X12487087Y26900155D01*
X12487087Y26755206D01*
X12520172Y26631731D01*
X12524605Y26615187D01*
X12597072Y26489672D01*
X12597074Y26489670D01*
X12597076Y26489668D01*
X12597078Y26489665D01*
X12699572Y26387171D01*
X12699574Y26387170D01*
X12699576Y26387168D01*
X12700123Y26386773D01*
X12702125Y26385696D01*
X12825098Y26314698D01*
X12825099Y26314698D01*
X12825102Y26314696D01*
X12965112Y26277180D01*
X12965113Y26277180D01*
X13110061Y26277180D01*
X13110062Y26277180D01*
X13250072Y26314696D01*
X13250073Y26314697D01*
X13250075Y26314698D01*
X13250076Y26314698D01*
X13369467Y26383629D01*
X13372355Y26385032D01*
X13373141Y26385549D01*
X13378150Y26388643D01*
X13379449Y26389394D01*
X13384807Y26396377D01*
X13478096Y26489665D01*
X13550552Y26615162D01*
X13550569Y26615191D01*
X13550569Y26615193D01*
X13550571Y26615195D01*
X13550714Y26615733D01*
X13553900Y26627462D01*
X13553941Y26627773D01*
X13588087Y26755205D01*
X13588087Y26900126D01*
X14777027Y26900126D01*
X14777027Y26755177D01*
X14810112Y26631702D01*
X14814545Y26615158D01*
X14887012Y26489643D01*
X14887014Y26489641D01*
X14887016Y26489639D01*
X14887018Y26489636D01*
X14989512Y26387142D01*
X14989514Y26387141D01*
X14989516Y26387139D01*
X14990063Y26386744D01*
X14992065Y26385667D01*
X15115038Y26314669D01*
X15115039Y26314669D01*
X15115042Y26314667D01*
X15255052Y26277151D01*
X15255053Y26277151D01*
X15400001Y26277151D01*
X15400002Y26277151D01*
X15540012Y26314667D01*
X15540013Y26314668D01*
X15540015Y26314669D01*
X15540016Y26314669D01*
X15659407Y26383600D01*
X15662295Y26385003D01*
X15663081Y26385520D01*
X15668090Y26388614D01*
X15669389Y26389365D01*
X15674747Y26396348D01*
X15768036Y26489636D01*
X15768053Y26489665D01*
X15840509Y26615162D01*
X15840509Y26615164D01*
X15840511Y26615166D01*
X15878027Y26755176D01*
X15878027Y26900126D01*
X15840511Y27040136D01*
X15840509Y27040139D01*
X15840509Y27040141D01*
X15840504Y27040149D01*
X15840183Y27040859D01*
X15838924Y27042887D01*
X15769512Y27163112D01*
X15769512Y27163111D01*
X15768039Y27165662D01*
X15768037Y27165664D01*
X15768036Y27165666D01*
X15665542Y27268160D01*
X15665539Y27268162D01*
X15665537Y27268164D01*
X15665536Y27268165D01*
X15597302Y27307560D01*
X15576268Y27330921D01*
X15497657Y27351984D01*
X15497653Y27351985D01*
X15400002Y27378151D01*
X15400001Y27378151D01*
X15255050Y27378151D01*
X15193315Y27361610D01*
X15193314Y27361611D01*
X15115039Y27340636D01*
X15115033Y27340633D01*
X14989520Y27268168D01*
X14887010Y27165658D01*
X14814545Y27040146D01*
X14793569Y26961864D01*
X14777027Y26900126D01*
X13588087Y26900126D01*
X13588087Y26900155D01*
X13550571Y27040165D01*
X13550569Y27040168D01*
X13550569Y27040170D01*
X13550408Y27040449D01*
X13550332Y27040745D01*
X13548984Y27042916D01*
X13479572Y27163141D01*
X13479572Y27163140D01*
X13478099Y27165691D01*
X13478097Y27165693D01*
X13478096Y27165695D01*
X13375602Y27268189D01*
X13375599Y27268191D01*
X13375597Y27268193D01*
X13307361Y27307589D01*
X13286327Y27330950D01*
X13207826Y27351985D01*
X13207826Y27351984D01*
X13110062Y27378180D01*
X13110061Y27378180D01*
X12965110Y27378180D01*
X12903375Y27361639D01*
X12903374Y27361640D01*
X12825099Y27340665D01*
X12825093Y27340662D01*
X12699580Y27268197D01*
X12597070Y27165687D01*
X12524605Y27040175D01*
X12524595Y27040136D01*
X12487087Y26900155D01*
X11301552Y26900155D01*
X11301552Y26911475D01*
X11264036Y27051485D01*
X11264034Y27051488D01*
X11264034Y27051490D01*
X11263616Y27052214D01*
X11263560Y27052447D01*
X11262449Y27054236D01*
X11193037Y27174461D01*
X11193037Y27174460D01*
X11191564Y27177011D01*
X11191562Y27177013D01*
X11191561Y27177015D01*
X11089067Y27279509D01*
X11089064Y27279511D01*
X11089062Y27279513D01*
X11020826Y27318909D01*
X10999793Y27342269D01*
X10933949Y27359913D01*
X10933948Y27359913D01*
X10823527Y27389500D01*
X10823525Y27389500D01*
X10678575Y27389500D01*
X10616840Y27372959D01*
X10616839Y27372960D01*
X10538564Y27351985D01*
X10538558Y27351982D01*
X10413045Y27279517D01*
X10310535Y27177007D01*
X10238070Y27051495D01*
X10217094Y26973213D01*
X10200552Y26911475D01*
X6534211Y26911475D01*
X6535082Y30681474D01*
X15816500Y30681474D01*
X15816500Y30536523D01*
X15831250Y30481477D01*
X15831250Y30481476D01*
X15831251Y30481476D01*
X15831251Y30481475D01*
X15854017Y30396511D01*
X15854018Y30396509D01*
X15854019Y30396506D01*
X15926485Y30270992D01*
X15926487Y30270990D01*
X15926489Y30270988D01*
X15926491Y30270985D01*
X16028985Y30168491D01*
X16028987Y30168490D01*
X16028989Y30168488D01*
X16029536Y30168093D01*
X16031538Y30167016D01*
X16154511Y30096018D01*
X16154512Y30096018D01*
X16154515Y30096016D01*
X16294525Y30058500D01*
X16294526Y30058500D01*
X16439474Y30058500D01*
X16439475Y30058500D01*
X16579485Y30096016D01*
X16579486Y30096017D01*
X16579488Y30096018D01*
X16579489Y30096018D01*
X16698880Y30164949D01*
X16701768Y30166352D01*
X16702554Y30166869D01*
X16707563Y30169963D01*
X16708862Y30170714D01*
X16714220Y30177697D01*
X16807509Y30270985D01*
X16845349Y30336526D01*
X16879982Y30396511D01*
X16879982Y30396513D01*
X16879984Y30396515D01*
X16902749Y30481475D01*
X18196500Y30481475D01*
X18196500Y30336526D01*
X18214061Y30270988D01*
X18234018Y30196507D01*
X18306485Y30070992D01*
X18306487Y30070990D01*
X18306489Y30070988D01*
X18306491Y30070985D01*
X18408985Y29968491D01*
X18408987Y29968490D01*
X18408989Y29968488D01*
X18409536Y29968093D01*
X18411538Y29967016D01*
X18534511Y29896018D01*
X18534512Y29896018D01*
X18534515Y29896016D01*
X18674525Y29858500D01*
X18674526Y29858500D01*
X18819474Y29858500D01*
X18819475Y29858500D01*
X18959485Y29896016D01*
X18959486Y29896017D01*
X18959488Y29896018D01*
X18959489Y29896018D01*
X19078880Y29964949D01*
X19081768Y29966352D01*
X19082554Y29966869D01*
X19087563Y29969963D01*
X19088862Y29970714D01*
X19094220Y29977697D01*
X19187509Y30070985D01*
X19243803Y30168488D01*
X19259982Y30196511D01*
X19259982Y30196513D01*
X19259984Y30196515D01*
X19297500Y30336525D01*
X19297500Y30481475D01*
X19259984Y30621485D01*
X19259982Y30621488D01*
X19259982Y30621490D01*
X19259977Y30621498D01*
X19259656Y30622208D01*
X19258397Y30624236D01*
X19188985Y30744461D01*
X19188985Y30744460D01*
X19187512Y30747011D01*
X19187510Y30747013D01*
X19187509Y30747015D01*
X19085015Y30849509D01*
X19085012Y30849511D01*
X19085010Y30849513D01*
X19016774Y30888909D01*
X18995741Y30912269D01*
X18929897Y30929913D01*
X18929896Y30929913D01*
X18819475Y30959500D01*
X18819473Y30959500D01*
X18674526Y30959500D01*
X18674525Y30959500D01*
X18627931Y30947015D01*
X18534505Y30921982D01*
X18408993Y30849517D01*
X18306483Y30747007D01*
X18234018Y30621495D01*
X18213042Y30543213D01*
X18196500Y30481475D01*
X16902749Y30481475D01*
X16917500Y30536525D01*
X16917500Y30681475D01*
X16879984Y30821485D01*
X16879982Y30821488D01*
X16879982Y30821490D01*
X16879977Y30821498D01*
X16879656Y30822208D01*
X16878397Y30824236D01*
X16808985Y30944461D01*
X16808985Y30944460D01*
X16807512Y30947011D01*
X16807510Y30947013D01*
X16807509Y30947015D01*
X16705015Y31049509D01*
X16705012Y31049511D01*
X16705010Y31049513D01*
X16636774Y31088909D01*
X16615741Y31112269D01*
X16549897Y31129913D01*
X16549896Y31129913D01*
X16439475Y31159500D01*
X16439473Y31159500D01*
X16294523Y31159500D01*
X16232788Y31142959D01*
X16232787Y31142960D01*
X16154512Y31121985D01*
X16154506Y31121982D01*
X16028993Y31049517D01*
X15926483Y30947007D01*
X15854018Y30821495D01*
X15816500Y30681474D01*
X6535082Y30681474D01*
X6535544Y32681476D01*
X10761500Y32681476D01*
X10761500Y32536527D01*
X10794585Y32413052D01*
X10799018Y32396508D01*
X10871485Y32270993D01*
X10871487Y32270991D01*
X10871489Y32270989D01*
X10871491Y32270986D01*
X10973985Y32168492D01*
X10973987Y32168491D01*
X10973989Y32168489D01*
X10974536Y32168094D01*
X10976538Y32167017D01*
X11099511Y32096019D01*
X11099512Y32096019D01*
X11099515Y32096017D01*
X11239525Y32058501D01*
X11239526Y32058501D01*
X11384474Y32058501D01*
X11384475Y32058501D01*
X11524485Y32096017D01*
X11524486Y32096018D01*
X11524488Y32096019D01*
X11524489Y32096019D01*
X11643880Y32164950D01*
X11646768Y32166353D01*
X11647554Y32166870D01*
X11652563Y32169964D01*
X11653862Y32170715D01*
X11659220Y32177698D01*
X11752509Y32270986D01*
X11752513Y32270993D01*
X11824982Y32396512D01*
X11824982Y32396514D01*
X11824984Y32396516D01*
X11862500Y32536526D01*
X11862500Y32681476D01*
X11824984Y32821486D01*
X11824982Y32821489D01*
X11824982Y32821491D01*
X11824977Y32821499D01*
X11824656Y32822209D01*
X11823397Y32824237D01*
X11753985Y32944462D01*
X11753985Y32944461D01*
X11752512Y32947012D01*
X11752510Y32947014D01*
X11752509Y32947016D01*
X11650015Y33049510D01*
X11650012Y33049512D01*
X11650010Y33049514D01*
X11650009Y33049515D01*
X11581775Y33088910D01*
X11560741Y33112271D01*
X11481507Y33133501D01*
X11446202Y33142961D01*
X11384475Y33159501D01*
X11384474Y33159501D01*
X11239523Y33159501D01*
X11177788Y33142960D01*
X11177787Y33142961D01*
X11099512Y33121986D01*
X11099506Y33121983D01*
X10973993Y33049518D01*
X10871483Y32947008D01*
X10799018Y32821496D01*
X10778042Y32743214D01*
X10761500Y32681476D01*
X6535544Y32681476D01*
X6536656Y37492774D01*
X9326500Y37492774D01*
X9326500Y37492771D01*
X9326500Y37325232D01*
X9359183Y37160922D01*
X9359185Y37160916D01*
X9423296Y37006139D01*
X9423297Y37006138D01*
X9516374Y36866839D01*
X9634838Y36748375D01*
X9774137Y36655298D01*
X9928918Y36591185D01*
X10093233Y36558501D01*
X10093234Y36558501D01*
X10260766Y36558501D01*
X10260767Y36558501D01*
X10425082Y36591185D01*
X10579863Y36655298D01*
X10719162Y36748375D01*
X10837626Y36866839D01*
X10930703Y37006138D01*
X10994816Y37160919D01*
X11027500Y37325234D01*
X11027500Y37492768D01*
X10994816Y37657083D01*
X10930703Y37811864D01*
X10837626Y37951163D01*
X10719162Y38069627D01*
X10637002Y38124525D01*
X10624496Y38140389D01*
X10579869Y38162702D01*
X10579862Y38162705D01*
X10425085Y38226816D01*
X10425079Y38226818D01*
X10342924Y38243160D01*
X10260771Y38259501D01*
X10260769Y38259501D01*
X10260767Y38259501D01*
X10093233Y38259501D01*
X10093230Y38259501D01*
X10093227Y38259501D01*
X9969997Y38234989D01*
X9928920Y38226818D01*
X9928914Y38226816D01*
X9928911Y38226815D01*
X9774137Y38162706D01*
X9634838Y38069628D01*
X9516373Y37951163D01*
X9423295Y37811864D01*
X9359186Y37657090D01*
X9359183Y37657080D01*
X9326500Y37492774D01*
X6536656Y37492774D01*
X6537243Y40032773D01*
X9326500Y40032773D01*
X9326500Y40032770D01*
X9326500Y39865231D01*
X9359183Y39700921D01*
X9359185Y39700915D01*
X9423296Y39546138D01*
X9423297Y39546137D01*
X9516374Y39406838D01*
X9634838Y39288374D01*
X9774137Y39195297D01*
X9928918Y39131184D01*
X10093233Y39098500D01*
X10093234Y39098500D01*
X10260766Y39098500D01*
X10260767Y39098500D01*
X10425082Y39131184D01*
X10579863Y39195297D01*
X10719162Y39288374D01*
X10837626Y39406838D01*
X10930703Y39546137D01*
X10994816Y39700918D01*
X11027500Y39865233D01*
X11027500Y40032767D01*
X10994816Y40197082D01*
X10930703Y40351863D01*
X10837626Y40491162D01*
X10719162Y40609626D01*
X10626084Y40671819D01*
X10579862Y40702704D01*
X10579861Y40702705D01*
X10579859Y40702706D01*
X10474569Y40746318D01*
X10474568Y40746318D01*
X10425085Y40766815D01*
X10425079Y40766817D01*
X10342924Y40783159D01*
X10260771Y40799500D01*
X10260769Y40799500D01*
X10260767Y40799500D01*
X10093233Y40799500D01*
X10093230Y40799500D01*
X10093227Y40799500D01*
X9969997Y40774988D01*
X9928920Y40766817D01*
X9928914Y40766815D01*
X9928911Y40766814D01*
X9774137Y40702705D01*
X9634838Y40609627D01*
X9516373Y40491162D01*
X9423295Y40351863D01*
X9359186Y40197089D01*
X9359183Y40197079D01*
X9326500Y40032773D01*
X6537243Y40032773D01*
X6540023Y52065520D01*
X6540445Y52074625D01*
X6540778Y52078230D01*
X6542976Y52091390D01*
X6542371Y52095423D01*
X6543456Y52107131D01*
X6553986Y52131592D01*
X6562426Y52156852D01*
X6565941Y52159363D01*
X6567650Y52163330D01*
X6590546Y52176929D01*
X6612222Y52192405D01*
X6618137Y52193317D01*
X6620256Y52194575D01*
X6624031Y52194226D01*
X6642034Y52197000D01*
X12238316Y52197000D01*
X12296507Y52178093D01*
G37*
%TD.AperFunction*%
%TD*%
%TA.AperFunction,Conductor*%
%TO.N,+3V3*%
G36*
X39317648Y52179207D02*
G01*
X39353638Y52129726D01*
X39358500Y52099083D01*
X39358500Y46192500D01*
X39339593Y46134309D01*
X39290093Y46098345D01*
X39259500Y46093500D01*
X24962736Y46093500D01*
X24662460Y46057039D01*
X24662444Y46057037D01*
X24368739Y45984645D01*
X24085883Y45877372D01*
X23818032Y45736794D01*
X23818027Y45736791D01*
X23569081Y45564954D01*
X23569078Y45564952D01*
X23569076Y45564950D01*
X23471803Y45478774D01*
X23342653Y45364357D01*
X23342643Y45364347D01*
X23238696Y45247015D01*
X23142981Y45138974D01*
X23142046Y45137919D01*
X22970209Y44888973D01*
X22970206Y44888968D01*
X22829628Y44621117D01*
X22722355Y44338261D01*
X22649963Y44044556D01*
X22649961Y44044540D01*
X22613500Y43744264D01*
X22613500Y39904310D01*
X22594593Y39846119D01*
X22545093Y39810155D01*
X22514352Y39805310D01*
X16294570Y39814580D01*
X16289617Y35803504D01*
X16289618Y35803503D01*
X18445846Y35801768D01*
X18504021Y35782814D01*
X18539945Y35733285D01*
X18544766Y35702611D01*
X18538981Y32048742D01*
X18519981Y31990582D01*
X18470425Y31954696D01*
X18439824Y31949899D01*
X15237561Y31954970D01*
X15212095Y31958343D01*
X15139315Y31977844D01*
X15114475Y31984500D01*
X14969525Y31984500D01*
X14949633Y31979170D01*
X14874202Y31958959D01*
X14848423Y31955586D01*
X13929833Y31957041D01*
X13904368Y31960414D01*
X13832958Y31979548D01*
X13814475Y31984500D01*
X13669525Y31984500D01*
X13652701Y31979993D01*
X13581841Y31961006D01*
X13556062Y31957633D01*
X12790843Y31958844D01*
X12732683Y31977844D01*
X12696797Y32027400D01*
X12692000Y32057844D01*
X12692000Y41335692D01*
X12710907Y41393883D01*
X12760407Y41429847D01*
X12821593Y41429847D01*
X12840497Y41421430D01*
X12884515Y41396016D01*
X13024525Y41358500D01*
X13024526Y41358500D01*
X13169474Y41358500D01*
X13169475Y41358500D01*
X13309485Y41396016D01*
X13309487Y41396018D01*
X13309489Y41396018D01*
X13435010Y41468488D01*
X13435010Y41468489D01*
X13435015Y41468491D01*
X13521998Y41555475D01*
X13576513Y41583250D01*
X13636945Y41573679D01*
X13662000Y41555476D01*
X13758985Y41458491D01*
X13758987Y41458490D01*
X13758989Y41458488D01*
X13884511Y41386018D01*
X13884512Y41386018D01*
X13884515Y41386016D01*
X14024525Y41348500D01*
X14024526Y41348500D01*
X14169474Y41348500D01*
X14169475Y41348500D01*
X14309485Y41386016D01*
X14309487Y41386018D01*
X14309489Y41386018D01*
X14435010Y41458488D01*
X14435010Y41458489D01*
X14435015Y41458491D01*
X14521998Y41545475D01*
X14576513Y41573250D01*
X14636945Y41563679D01*
X14662000Y41545476D01*
X14758985Y41448491D01*
X14758987Y41448490D01*
X14758989Y41448488D01*
X14884511Y41376018D01*
X14884512Y41376018D01*
X14884515Y41376016D01*
X15024525Y41338500D01*
X15024526Y41338500D01*
X15169474Y41338500D01*
X15169475Y41338500D01*
X15309485Y41376016D01*
X15309487Y41376018D01*
X15309489Y41376018D01*
X15435010Y41448488D01*
X15435010Y41448489D01*
X15435015Y41448491D01*
X15537509Y41550985D01*
X15550364Y41573250D01*
X15609982Y41676511D01*
X15609982Y41676513D01*
X15609984Y41676515D01*
X15647500Y41816525D01*
X15647500Y41961475D01*
X15609984Y42101485D01*
X15609982Y42101488D01*
X15609982Y42101490D01*
X15577088Y42158464D01*
X15552255Y42201475D01*
X19586500Y42201475D01*
X19586500Y42056526D01*
X19624017Y41916511D01*
X19696487Y41790990D01*
X19696489Y41790988D01*
X19696491Y41790985D01*
X19798985Y41688491D01*
X19798987Y41688490D01*
X19798989Y41688488D01*
X19924511Y41616018D01*
X19924512Y41616018D01*
X19924515Y41616016D01*
X20064525Y41578500D01*
X20064526Y41578500D01*
X20209474Y41578500D01*
X20209475Y41578500D01*
X20349485Y41616016D01*
X20349487Y41616018D01*
X20349489Y41616018D01*
X20475010Y41688488D01*
X20475010Y41688489D01*
X20475015Y41688491D01*
X20577509Y41790985D01*
X20649984Y41916515D01*
X20687500Y42056525D01*
X20687500Y42201475D01*
X20649984Y42341485D01*
X20649982Y42341488D01*
X20649982Y42341490D01*
X20577512Y42467011D01*
X20577510Y42467013D01*
X20577509Y42467015D01*
X20475015Y42569509D01*
X20475012Y42569511D01*
X20475010Y42569513D01*
X20349488Y42641983D01*
X20349489Y42641983D01*
X20319896Y42649913D01*
X20209475Y42679500D01*
X20064525Y42679500D01*
X20002790Y42662959D01*
X19924510Y42641983D01*
X19798989Y42569513D01*
X19696487Y42467011D01*
X19624017Y42341490D01*
X19586500Y42201475D01*
X15552255Y42201475D01*
X15537512Y42227011D01*
X15537510Y42227013D01*
X15537509Y42227015D01*
X15435015Y42329509D01*
X15435012Y42329511D01*
X15435010Y42329513D01*
X15309488Y42401983D01*
X15309489Y42401983D01*
X15272165Y42411984D01*
X15169475Y42439500D01*
X15024525Y42439500D01*
X14962790Y42422959D01*
X14884510Y42401983D01*
X14758989Y42329513D01*
X14758988Y42329512D01*
X14758985Y42329510D01*
X14758985Y42329509D01*
X14672001Y42242526D01*
X14617487Y42214750D01*
X14557055Y42224321D01*
X14531999Y42242525D01*
X14435015Y42339509D01*
X14435012Y42339511D01*
X14435010Y42339513D01*
X14309488Y42411983D01*
X14309489Y42411983D01*
X14272165Y42421984D01*
X14169475Y42449500D01*
X14024525Y42449500D01*
X13987205Y42439500D01*
X13884510Y42411983D01*
X13758989Y42339513D01*
X13758988Y42339512D01*
X13758985Y42339510D01*
X13758985Y42339509D01*
X13672001Y42252526D01*
X13617487Y42224750D01*
X13557055Y42234321D01*
X13531999Y42252525D01*
X13435015Y42349509D01*
X13435012Y42349511D01*
X13435010Y42349513D01*
X13309488Y42421983D01*
X13309489Y42421983D01*
X13244115Y42439500D01*
X13169475Y42459500D01*
X13024525Y42459500D01*
X12987205Y42449500D01*
X12884513Y42421984D01*
X12840500Y42396572D01*
X12780651Y42383851D01*
X12724756Y42408738D01*
X12694163Y42461726D01*
X12692000Y42482309D01*
X12692000Y44991475D01*
X13562501Y44991475D01*
X13562501Y44846526D01*
X13600018Y44706511D01*
X13672488Y44580990D01*
X13672490Y44580988D01*
X13672492Y44580985D01*
X13774986Y44478491D01*
X13774988Y44478490D01*
X13774990Y44478488D01*
X13900512Y44406018D01*
X13900513Y44406018D01*
X13900516Y44406016D01*
X14040526Y44368500D01*
X14040527Y44368500D01*
X14185475Y44368500D01*
X14185476Y44368500D01*
X14325486Y44406016D01*
X14325488Y44406018D01*
X14325490Y44406018D01*
X14451011Y44478488D01*
X14451011Y44478489D01*
X14451016Y44478491D01*
X14537999Y44565475D01*
X14592514Y44593250D01*
X14652946Y44583679D01*
X14678001Y44565476D01*
X14774986Y44468491D01*
X14774988Y44468490D01*
X14774990Y44468488D01*
X14900512Y44396018D01*
X14900513Y44396018D01*
X14900516Y44396016D01*
X15040526Y44358500D01*
X15040527Y44358500D01*
X15185475Y44358500D01*
X15185476Y44358500D01*
X15325486Y44396016D01*
X15325488Y44396018D01*
X15325490Y44396018D01*
X15451011Y44468488D01*
X15451011Y44468489D01*
X15451016Y44468491D01*
X15537999Y44555475D01*
X15592514Y44583250D01*
X15652946Y44573679D01*
X15678001Y44555476D01*
X15774986Y44458491D01*
X15774988Y44458490D01*
X15774990Y44458488D01*
X15900512Y44386018D01*
X15900513Y44386018D01*
X15900516Y44386016D01*
X16040526Y44348500D01*
X16040527Y44348500D01*
X16185475Y44348500D01*
X16185476Y44348500D01*
X16325486Y44386016D01*
X16325488Y44386018D01*
X16325490Y44386018D01*
X16451011Y44458488D01*
X16451011Y44458489D01*
X16451016Y44458491D01*
X16553510Y44560985D01*
X16566365Y44583250D01*
X16625983Y44686511D01*
X16625983Y44686513D01*
X16625985Y44686515D01*
X16663501Y44826525D01*
X16663501Y44971475D01*
X16625985Y45111485D01*
X16625983Y45111488D01*
X16625983Y45111490D01*
X16553513Y45237011D01*
X16553511Y45237013D01*
X16553510Y45237015D01*
X16451016Y45339509D01*
X16451013Y45339511D01*
X16451011Y45339513D01*
X16325489Y45411983D01*
X16325490Y45411983D01*
X16288166Y45421984D01*
X16185476Y45449500D01*
X16040526Y45449500D01*
X15978791Y45432959D01*
X15900511Y45411983D01*
X15774990Y45339513D01*
X15774989Y45339512D01*
X15774986Y45339510D01*
X15774986Y45339509D01*
X15688002Y45252526D01*
X15633488Y45224750D01*
X15573056Y45234321D01*
X15548000Y45252525D01*
X15451016Y45349509D01*
X15451013Y45349511D01*
X15451011Y45349513D01*
X15325489Y45421983D01*
X15325490Y45421983D01*
X15288166Y45431984D01*
X15185476Y45459500D01*
X15040526Y45459500D01*
X15003206Y45449500D01*
X14900511Y45421983D01*
X14774990Y45349513D01*
X14774989Y45349512D01*
X14774986Y45349510D01*
X14774986Y45349509D01*
X14688002Y45262526D01*
X14633488Y45234750D01*
X14573056Y45244321D01*
X14548000Y45262525D01*
X14451016Y45359509D01*
X14451013Y45359511D01*
X14451011Y45359513D01*
X14325489Y45431983D01*
X14325490Y45431983D01*
X14260116Y45449500D01*
X14185476Y45469500D01*
X14040526Y45469500D01*
X14003206Y45459500D01*
X13900511Y45431983D01*
X13774990Y45359513D01*
X13672488Y45257011D01*
X13600018Y45131490D01*
X13562501Y44991475D01*
X12692000Y44991475D01*
X12692000Y48370421D01*
X12692847Y48383343D01*
X12698942Y48429639D01*
X12698941Y49092918D01*
X13297942Y49092918D01*
X13297942Y48945082D01*
X13326784Y48800087D01*
X13383358Y48663505D01*
X13465491Y48540584D01*
X13570026Y48436049D01*
X13692947Y48353916D01*
X13829529Y48297342D01*
X13974524Y48268500D01*
X13974525Y48268500D01*
X14122359Y48268500D01*
X14122360Y48268500D01*
X14267355Y48297342D01*
X14403937Y48353916D01*
X14526858Y48436049D01*
X14631393Y48540584D01*
X14713526Y48663505D01*
X14770100Y48800087D01*
X14798942Y48945082D01*
X14798942Y49092918D01*
X22097942Y49092918D01*
X22097942Y48945082D01*
X22126784Y48800087D01*
X22183358Y48663505D01*
X22265491Y48540584D01*
X22370026Y48436049D01*
X22492947Y48353916D01*
X22629529Y48297342D01*
X22774524Y48268500D01*
X22774525Y48268500D01*
X22922359Y48268500D01*
X22922360Y48268500D01*
X23067355Y48297342D01*
X23203937Y48353916D01*
X23326858Y48436049D01*
X23431393Y48540584D01*
X23513526Y48663505D01*
X23570100Y48800087D01*
X23598942Y48945082D01*
X23598942Y49092918D01*
X23570100Y49237913D01*
X23513526Y49374495D01*
X23431393Y49497416D01*
X23326858Y49601951D01*
X23203937Y49684084D01*
X23203935Y49684085D01*
X23067356Y49740658D01*
X22922360Y49769500D01*
X22774524Y49769500D01*
X22774523Y49769500D01*
X22629527Y49740658D01*
X22492948Y49684085D01*
X22370027Y49601952D01*
X22265490Y49497415D01*
X22183357Y49374494D01*
X22126784Y49237915D01*
X22126784Y49237913D01*
X22097942Y49092918D01*
X14798942Y49092918D01*
X14770100Y49237913D01*
X14713526Y49374495D01*
X14631393Y49497416D01*
X14526858Y49601951D01*
X14403937Y49684084D01*
X14403935Y49684085D01*
X14267356Y49740658D01*
X14122360Y49769500D01*
X13974524Y49769500D01*
X13974523Y49769500D01*
X13829527Y49740658D01*
X13692948Y49684085D01*
X13570027Y49601952D01*
X13465490Y49497415D01*
X13383357Y49374494D01*
X13326784Y49237915D01*
X13326784Y49237913D01*
X13297942Y49092918D01*
X12698941Y49092918D01*
X12698941Y49608360D01*
X12692847Y49654653D01*
X12692000Y49667574D01*
X12692000Y50502770D01*
X29756501Y50502770D01*
X29756501Y50335231D01*
X29789184Y50170921D01*
X29789186Y50170915D01*
X29853297Y50016138D01*
X29884182Y49969916D01*
X29946375Y49876838D01*
X30064839Y49758374D01*
X30204138Y49665297D01*
X30358919Y49601184D01*
X30523234Y49568500D01*
X30523235Y49568500D01*
X30690767Y49568500D01*
X30690768Y49568500D01*
X30855083Y49601184D01*
X31009864Y49665297D01*
X31149163Y49758374D01*
X31267627Y49876838D01*
X31360704Y50016137D01*
X31424817Y50170918D01*
X31457501Y50335233D01*
X31457501Y50502767D01*
X31457500Y50502770D01*
X32296501Y50502770D01*
X32296501Y50335231D01*
X32329184Y50170921D01*
X32329186Y50170915D01*
X32393297Y50016138D01*
X32424182Y49969916D01*
X32486375Y49876838D01*
X32604839Y49758374D01*
X32744138Y49665297D01*
X32898919Y49601184D01*
X33063234Y49568500D01*
X33063235Y49568500D01*
X33230767Y49568500D01*
X33230768Y49568500D01*
X33395083Y49601184D01*
X33549864Y49665297D01*
X33689163Y49758374D01*
X33807627Y49876838D01*
X33900704Y50016137D01*
X33964817Y50170918D01*
X33997501Y50335233D01*
X33997501Y50502767D01*
X33997500Y50502770D01*
X34836501Y50502770D01*
X34836501Y50335231D01*
X34869184Y50170921D01*
X34869186Y50170915D01*
X34933297Y50016138D01*
X34964182Y49969916D01*
X35026375Y49876838D01*
X35144839Y49758374D01*
X35284138Y49665297D01*
X35438919Y49601184D01*
X35603234Y49568500D01*
X35603235Y49568500D01*
X35770767Y49568500D01*
X35770768Y49568500D01*
X35935083Y49601184D01*
X36089864Y49665297D01*
X36229163Y49758374D01*
X36347627Y49876838D01*
X36440704Y50016137D01*
X36504817Y50170918D01*
X36537501Y50335233D01*
X36537501Y50502767D01*
X36537500Y50502770D01*
X37376501Y50502770D01*
X37376501Y50335231D01*
X37409184Y50170921D01*
X37409186Y50170915D01*
X37473297Y50016138D01*
X37504182Y49969916D01*
X37566375Y49876838D01*
X37684839Y49758374D01*
X37824138Y49665297D01*
X37978919Y49601184D01*
X38143234Y49568500D01*
X38143235Y49568500D01*
X38310767Y49568500D01*
X38310768Y49568500D01*
X38475083Y49601184D01*
X38629864Y49665297D01*
X38769163Y49758374D01*
X38887627Y49876838D01*
X38980704Y50016137D01*
X39044817Y50170918D01*
X39077501Y50335233D01*
X39077501Y50502767D01*
X39044817Y50667082D01*
X38980704Y50821863D01*
X38887627Y50961162D01*
X38769163Y51079626D01*
X38629864Y51172703D01*
X38629865Y51172703D01*
X38629863Y51172704D01*
X38475086Y51236815D01*
X38475080Y51236817D01*
X38310770Y51269500D01*
X38310768Y51269500D01*
X38143234Y51269500D01*
X38143231Y51269500D01*
X37978921Y51236817D01*
X37978915Y51236815D01*
X37824138Y51172704D01*
X37684839Y51079626D01*
X37684835Y51079623D01*
X37566378Y50961166D01*
X37566375Y50961162D01*
X37473297Y50821863D01*
X37409186Y50667086D01*
X37409184Y50667080D01*
X37376501Y50502770D01*
X36537500Y50502770D01*
X36504817Y50667082D01*
X36440704Y50821863D01*
X36347627Y50961162D01*
X36229163Y51079626D01*
X36089864Y51172703D01*
X36089865Y51172703D01*
X36089863Y51172704D01*
X35935086Y51236815D01*
X35935080Y51236817D01*
X35770770Y51269500D01*
X35770768Y51269500D01*
X35603234Y51269500D01*
X35603231Y51269500D01*
X35438921Y51236817D01*
X35438915Y51236815D01*
X35284138Y51172704D01*
X35144839Y51079626D01*
X35144835Y51079623D01*
X35026378Y50961166D01*
X35026375Y50961162D01*
X34933297Y50821863D01*
X34869186Y50667086D01*
X34869184Y50667080D01*
X34836501Y50502770D01*
X33997500Y50502770D01*
X33964817Y50667082D01*
X33900704Y50821863D01*
X33807627Y50961162D01*
X33689163Y51079626D01*
X33549864Y51172703D01*
X33549865Y51172703D01*
X33549863Y51172704D01*
X33395086Y51236815D01*
X33395080Y51236817D01*
X33230770Y51269500D01*
X33230768Y51269500D01*
X33063234Y51269500D01*
X33063231Y51269500D01*
X32898921Y51236817D01*
X32898915Y51236815D01*
X32744138Y51172704D01*
X32604839Y51079626D01*
X32604835Y51079623D01*
X32486378Y50961166D01*
X32486375Y50961162D01*
X32393297Y50821863D01*
X32329186Y50667086D01*
X32329184Y50667080D01*
X32296501Y50502770D01*
X31457500Y50502770D01*
X31424817Y50667082D01*
X31360704Y50821863D01*
X31267627Y50961162D01*
X31149163Y51079626D01*
X31009864Y51172703D01*
X31009865Y51172703D01*
X31009863Y51172704D01*
X30855086Y51236815D01*
X30855080Y51236817D01*
X30690770Y51269500D01*
X30690768Y51269500D01*
X30523234Y51269500D01*
X30523231Y51269500D01*
X30358921Y51236817D01*
X30358915Y51236815D01*
X30204138Y51172704D01*
X30064839Y51079626D01*
X30064835Y51079623D01*
X29946378Y50961166D01*
X29946375Y50961162D01*
X29853297Y50821863D01*
X29789186Y50667086D01*
X29789184Y50667080D01*
X29756501Y50502770D01*
X12692000Y50502770D01*
X12692000Y52085053D01*
X12710907Y52143244D01*
X12760407Y52179208D01*
X12790944Y52184053D01*
X39259452Y52198082D01*
X39317648Y52179207D01*
G37*
%TD.AperFunction*%
%TD*%
%TA.AperFunction,Conductor*%
%TO.N,/PWR_IN*%
G36*
X6103436Y52199657D02*
G01*
X6116123Y52195534D01*
X6165623Y52159573D01*
X6165625Y52159571D01*
X6168617Y52155453D01*
X6187525Y52097263D01*
X6184529Y52088045D01*
X6178170Y24569719D01*
X6207033Y24540846D01*
X6207163Y24540735D01*
X6657311Y24090728D01*
X10295777Y24108650D01*
X10324129Y24104648D01*
X10346309Y24098142D01*
X10373220Y24084475D01*
X10373363Y24084722D01*
X10377961Y24082068D01*
X10378714Y24081685D01*
X10378989Y24081474D01*
X10398697Y24070096D01*
X10409486Y24062886D01*
X10410171Y24062360D01*
X10410173Y24062358D01*
X10419712Y24055035D01*
X10429453Y24046486D01*
X14634154Y19837610D01*
X15964239Y18506204D01*
X15982433Y18481135D01*
X15988017Y18470162D01*
X15997558Y18409725D01*
X15971587Y18357104D01*
X15964667Y18349814D01*
X15942364Y18332235D01*
X15928994Y18324516D01*
X15928989Y18324513D01*
X15826483Y18222007D01*
X15754018Y18096495D01*
X15741314Y18049083D01*
X15716500Y17956475D01*
X15716500Y17811526D01*
X15749585Y17688051D01*
X15754018Y17671507D01*
X15826485Y17545992D01*
X15826487Y17545990D01*
X15826489Y17545988D01*
X15826491Y17545985D01*
X15928985Y17443491D01*
X15928987Y17443490D01*
X15928989Y17443488D01*
X15929536Y17443093D01*
X15931538Y17442016D01*
X16054511Y17371018D01*
X16054512Y17371018D01*
X16054515Y17371016D01*
X16194525Y17333500D01*
X16194526Y17333500D01*
X16252320Y17333500D01*
X16282908Y17328657D01*
X16295595Y17324534D01*
X16345095Y17288573D01*
X16345096Y17288572D01*
X16348091Y17284450D01*
X16367000Y17226260D01*
X16367000Y8042595D01*
X16362154Y8012000D01*
X16354603Y7988762D01*
X16330485Y7949386D01*
X14349870Y5966921D01*
X14350737Y615198D01*
X14345897Y584607D01*
X14341777Y571919D01*
X14305834Y522421D01*
X14301716Y519427D01*
X14243532Y500500D01*
X615180Y500500D01*
X584587Y505346D01*
X571901Y509468D01*
X522401Y545432D01*
X522394Y545442D01*
X519400Y549564D01*
X500500Y607744D01*
X500500Y12161069D01*
X819857Y12161069D01*
X819857Y11966933D01*
X857729Y11776543D01*
X857729Y11776541D01*
X932015Y11597196D01*
X932017Y11597194D01*
X932018Y11597192D01*
X932019Y11597191D01*
X1039869Y11435781D01*
X1177138Y11298512D01*
X1338548Y11190662D01*
X1517897Y11116373D01*
X1708294Y11078500D01*
X1708295Y11078500D01*
X5862419Y11078500D01*
X5862420Y11078500D01*
X6052817Y11116373D01*
X6232166Y11190662D01*
X6393576Y11298512D01*
X6530845Y11435781D01*
X6638695Y11597191D01*
X6712984Y11776540D01*
X6750857Y11966937D01*
X6750857Y12161063D01*
X6712984Y12351460D01*
X6638695Y12530809D01*
X6530845Y12692219D01*
X6393576Y12829488D01*
X6393572Y12829491D01*
X6289306Y12899159D01*
X6276800Y12915022D01*
X6232167Y12937339D01*
X6052815Y13011628D01*
X5862424Y13049500D01*
X5862422Y13049500D01*
X5862420Y13049500D01*
X1708294Y13049500D01*
X1708291Y13049500D01*
X1708288Y13049500D01*
X1517898Y13011628D01*
X1517896Y13011628D01*
X1338550Y12937341D01*
X1177144Y12829494D01*
X1039863Y12692213D01*
X932016Y12530807D01*
X857729Y12351461D01*
X857729Y12351459D01*
X819857Y12161069D01*
X500500Y12161069D01*
X500500Y15370619D01*
X1066500Y15370619D01*
X1066500Y15197383D01*
X1093595Y15026304D01*
X1093596Y15026299D01*
X1093598Y15026294D01*
X1145340Y14867048D01*
X1147125Y14861557D01*
X1148995Y14857697D01*
X1149749Y14856409D01*
X1225765Y14707216D01*
X1225768Y14707212D01*
X1327586Y14567072D01*
X1450072Y14444586D01*
X1590212Y14342768D01*
X1739407Y14266750D01*
X1745254Y14263771D01*
X1748227Y14262933D01*
X1909293Y14210599D01*
X1909297Y14210598D01*
X1909303Y14210597D01*
X2080383Y14183500D01*
X2253614Y14183500D01*
X2253617Y14183500D01*
X2392843Y14205553D01*
X2424702Y14210598D01*
X2424706Y14210599D01*
X2589438Y14264124D01*
X2589438Y14264125D01*
X2590182Y14264366D01*
X2592899Y14265887D01*
X2743782Y14342765D01*
X2743784Y14342766D01*
X2743783Y14342766D01*
X2743788Y14342768D01*
X2883928Y14444586D01*
X3006414Y14567072D01*
X3108232Y14707212D01*
X3186873Y14861555D01*
X3186874Y14861560D01*
X3186876Y14861562D01*
X3188101Y14865336D01*
X3188372Y14865951D01*
X3188659Y14867048D01*
X3240397Y15026282D01*
X3240401Y15026294D01*
X3240402Y15026300D01*
X3245317Y15057331D01*
X3245318Y15057336D01*
X7891500Y15057336D01*
X7891500Y15057333D01*
X7891500Y14912383D01*
X7921087Y14801962D01*
X7925223Y14786528D01*
X7929017Y14772367D01*
X7929018Y14772366D01*
X8001485Y14646850D01*
X8001487Y14646848D01*
X8001489Y14646846D01*
X8001491Y14646843D01*
X8103985Y14544349D01*
X8103987Y14544348D01*
X8103989Y14544346D01*
X8104536Y14543951D01*
X8106538Y14542874D01*
X8229511Y14471876D01*
X8229512Y14471876D01*
X8229515Y14471874D01*
X8369525Y14434358D01*
X8369526Y14434358D01*
X8514474Y14434358D01*
X8514475Y14434358D01*
X8654485Y14471874D01*
X8654486Y14471875D01*
X8654488Y14471876D01*
X8654489Y14471876D01*
X8773880Y14540807D01*
X8776768Y14542210D01*
X8777554Y14542727D01*
X8782563Y14545821D01*
X8783862Y14546572D01*
X8789220Y14553555D01*
X8882509Y14646843D01*
X8917365Y14707215D01*
X8954982Y14772369D01*
X8954982Y14772371D01*
X8954984Y14772373D01*
X8992500Y14912383D01*
X8992500Y14931475D01*
X12866500Y14931475D01*
X12866500Y14786526D01*
X12887752Y14707212D01*
X12904018Y14646507D01*
X12976485Y14520992D01*
X12976487Y14520990D01*
X12976489Y14520988D01*
X12976491Y14520985D01*
X13078985Y14418491D01*
X13078987Y14418490D01*
X13078989Y14418488D01*
X13079536Y14418093D01*
X13081538Y14417016D01*
X13204511Y14346018D01*
X13204512Y14346018D01*
X13204515Y14346016D01*
X13344525Y14308500D01*
X13344526Y14308500D01*
X13489474Y14308500D01*
X13489475Y14308500D01*
X13629485Y14346016D01*
X13629486Y14346017D01*
X13629488Y14346018D01*
X13629489Y14346018D01*
X13748880Y14414949D01*
X13751768Y14416352D01*
X13752554Y14416869D01*
X13757563Y14419963D01*
X13758862Y14420714D01*
X13764220Y14427697D01*
X13857509Y14520985D01*
X13870998Y14544349D01*
X13929982Y14646511D01*
X13929982Y14646513D01*
X13929984Y14646515D01*
X13967500Y14786525D01*
X13967500Y14931475D01*
X13929984Y15071485D01*
X13929982Y15071488D01*
X13929982Y15071490D01*
X13929977Y15071498D01*
X13929656Y15072208D01*
X13928397Y15074236D01*
X13858985Y15194461D01*
X13858985Y15194460D01*
X13857512Y15197011D01*
X13857510Y15197013D01*
X13857509Y15197015D01*
X13755015Y15299509D01*
X13755012Y15299511D01*
X13755010Y15299513D01*
X13686774Y15338909D01*
X13665741Y15362269D01*
X13599897Y15379913D01*
X13599896Y15379913D01*
X13489475Y15409500D01*
X13489473Y15409500D01*
X13344523Y15409500D01*
X13282788Y15392959D01*
X13282787Y15392960D01*
X13204512Y15371985D01*
X13204506Y15371982D01*
X13078993Y15299517D01*
X12976483Y15197007D01*
X12904018Y15071495D01*
X12883042Y14993213D01*
X12866500Y14931475D01*
X8992500Y14931475D01*
X8992500Y15057333D01*
X8954984Y15197343D01*
X8954982Y15197346D01*
X8954982Y15197348D01*
X8954977Y15197356D01*
X8954656Y15198066D01*
X8953397Y15200094D01*
X8883985Y15320319D01*
X8883985Y15320318D01*
X8882512Y15322869D01*
X8882510Y15322871D01*
X8882509Y15322873D01*
X8780015Y15425367D01*
X8780012Y15425369D01*
X8780010Y15425371D01*
X8711774Y15464767D01*
X8690741Y15488127D01*
X8624897Y15505771D01*
X8624896Y15505771D01*
X8514475Y15535358D01*
X8514473Y15535358D01*
X8369523Y15535358D01*
X8307788Y15518817D01*
X8307787Y15518818D01*
X8229512Y15497843D01*
X8229506Y15497840D01*
X8103993Y15425375D01*
X8001483Y15322865D01*
X7929019Y15197354D01*
X7929017Y15197350D01*
X7929017Y15197348D01*
X7897388Y15079308D01*
X7897388Y15079307D01*
X7897387Y15079308D01*
X7891500Y15057336D01*
X3245318Y15057336D01*
X3248798Y15079304D01*
X3248859Y15079691D01*
X3249062Y15080982D01*
X3249402Y15083120D01*
X3249406Y15083144D01*
X3249406Y15083151D01*
X3264909Y15181030D01*
X3267500Y15197386D01*
X3267500Y15370619D01*
X3240403Y15541697D01*
X3240402Y15541703D01*
X3240401Y15541707D01*
X3186876Y15706439D01*
X3186874Y15706442D01*
X3186873Y15706443D01*
X3186873Y15706445D01*
X3185090Y15709945D01*
X3184842Y15710580D01*
X3184250Y15711592D01*
X3108232Y15860788D01*
X3006414Y16000928D01*
X2883928Y16123414D01*
X2883924Y16123417D01*
X2883922Y16123419D01*
X2752247Y16219087D01*
X2752236Y16219094D01*
X2743788Y16225232D01*
X2743787Y16225233D01*
X2743785Y16225234D01*
X2594591Y16301251D01*
X2593311Y16302000D01*
X2589440Y16303876D01*
X2589438Y16303877D01*
X2513005Y16328712D01*
X2424701Y16357404D01*
X2424696Y16357405D01*
X2253617Y16384500D01*
X2253614Y16384500D01*
X2253611Y16384500D01*
X2080389Y16384500D01*
X2080386Y16384500D01*
X2080383Y16384500D01*
X1909302Y16357405D01*
X1909297Y16357404D01*
X1744561Y16303877D01*
X1740685Y16302000D01*
X1739407Y16301251D01*
X1590209Y16225232D01*
X1450078Y16123420D01*
X1327580Y16000922D01*
X1225768Y15860791D01*
X1149749Y15711593D01*
X1149000Y15710315D01*
X1147123Y15706439D01*
X1093596Y15541703D01*
X1093595Y15541698D01*
X1066500Y15370619D01*
X500500Y15370619D01*
X500500Y17457920D01*
X1416500Y17457920D01*
X1416500Y17310081D01*
X1445342Y17165085D01*
X1472503Y17099513D01*
X1501916Y17028504D01*
X1584049Y16905583D01*
X1688584Y16801048D01*
X1811505Y16718915D01*
X1948087Y16662341D01*
X2093082Y16633499D01*
X2093083Y16633499D01*
X2240917Y16633499D01*
X2240918Y16633499D01*
X2385913Y16662341D01*
X2522495Y16718915D01*
X2541292Y16731475D01*
X7891500Y16731475D01*
X7891500Y16586526D01*
X7924585Y16463051D01*
X7929018Y16446507D01*
X8001485Y16320992D01*
X8001487Y16320990D01*
X8001489Y16320988D01*
X8001491Y16320985D01*
X8103985Y16218491D01*
X8103987Y16218490D01*
X8103989Y16218488D01*
X8104536Y16218093D01*
X8106538Y16217016D01*
X8229511Y16146018D01*
X8229512Y16146018D01*
X8229515Y16146016D01*
X8369525Y16108500D01*
X8369526Y16108500D01*
X8514474Y16108500D01*
X8514475Y16108500D01*
X8654485Y16146016D01*
X8654486Y16146017D01*
X8654488Y16146018D01*
X8654489Y16146018D01*
X8773880Y16214949D01*
X8776768Y16216352D01*
X8777554Y16216869D01*
X8782563Y16219963D01*
X8783862Y16220714D01*
X8789220Y16227697D01*
X8882509Y16320985D01*
X8882512Y16320990D01*
X8954982Y16446511D01*
X8954982Y16446513D01*
X8954984Y16446515D01*
X8992500Y16586525D01*
X8992500Y16731475D01*
X8954984Y16871485D01*
X8954982Y16871488D01*
X8954982Y16871490D01*
X8954977Y16871498D01*
X8954656Y16872208D01*
X8953397Y16874236D01*
X8883985Y16994461D01*
X8883985Y16994460D01*
X8882512Y16997011D01*
X8882510Y16997013D01*
X8882509Y16997015D01*
X8780015Y17099509D01*
X8780012Y17099511D01*
X8780010Y17099513D01*
X8711774Y17138909D01*
X8690741Y17162269D01*
X8624897Y17179913D01*
X8624896Y17179913D01*
X8514475Y17209500D01*
X8514473Y17209500D01*
X8369523Y17209500D01*
X8307788Y17192959D01*
X8307787Y17192960D01*
X8229512Y17171985D01*
X8229506Y17171982D01*
X8103993Y17099517D01*
X8001483Y16997007D01*
X7929018Y16871495D01*
X7911996Y16807968D01*
X7891500Y16731475D01*
X2541292Y16731475D01*
X2645416Y16801048D01*
X2749951Y16905583D01*
X2832084Y17028504D01*
X2888658Y17165086D01*
X2917500Y17310081D01*
X2917500Y17457917D01*
X2888658Y17602912D01*
X2832084Y17739494D01*
X2749951Y17862415D01*
X2645416Y17966950D01*
X2522495Y18049083D01*
X2522493Y18049084D01*
X2385914Y18105657D01*
X2385912Y18105658D01*
X2240920Y18134499D01*
X2240918Y18134499D01*
X2093082Y18134499D01*
X2093081Y18134499D01*
X2093078Y18134499D01*
X1948085Y18105657D01*
X1948083Y18105657D01*
X1811510Y18049087D01*
X1811498Y18049081D01*
X1688586Y17966952D01*
X1584047Y17862413D01*
X1501918Y17739501D01*
X1501912Y17739489D01*
X1445342Y17602914D01*
X1445341Y17602913D01*
X1445342Y17602912D01*
X1416500Y17457920D01*
X500500Y17457920D01*
X500500Y19457921D01*
X1416500Y19457921D01*
X1416500Y19310079D01*
X1445341Y19165087D01*
X1501915Y19028506D01*
X1501915Y19028505D01*
X1529904Y18986617D01*
X1584049Y18905583D01*
X1688584Y18801048D01*
X1811505Y18718915D01*
X1948087Y18662341D01*
X2093082Y18633499D01*
X2093083Y18633499D01*
X2240917Y18633499D01*
X2240918Y18633499D01*
X2385913Y18662341D01*
X2522495Y18718915D01*
X2645416Y18801048D01*
X2749951Y18905583D01*
X2832084Y19028504D01*
X2888658Y19165086D01*
X2917500Y19310081D01*
X2917500Y19397102D01*
X4224526Y19397102D01*
X4224526Y19252153D01*
X4247855Y19165087D01*
X4262044Y19112134D01*
X4334511Y18986619D01*
X4334513Y18986617D01*
X4334515Y18986615D01*
X4334517Y18986612D01*
X4437011Y18884118D01*
X4437013Y18884117D01*
X4437015Y18884115D01*
X4437562Y18883720D01*
X4439564Y18882643D01*
X4562537Y18811645D01*
X4562538Y18811645D01*
X4562541Y18811643D01*
X4702551Y18774127D01*
X4702552Y18774127D01*
X4847500Y18774127D01*
X4847501Y18774127D01*
X4987511Y18811643D01*
X4987512Y18811644D01*
X4987514Y18811645D01*
X4987515Y18811645D01*
X5106906Y18880576D01*
X5109794Y18881979D01*
X5110580Y18882496D01*
X5115589Y18885590D01*
X5116888Y18886341D01*
X5122246Y18893324D01*
X5215535Y18986612D01*
X5215538Y18986617D01*
X5288008Y19112138D01*
X5288008Y19112140D01*
X5288010Y19112142D01*
X5325526Y19252152D01*
X5325526Y19397102D01*
X5288010Y19537112D01*
X5288008Y19537115D01*
X5288008Y19537117D01*
X5288003Y19537125D01*
X5287682Y19537835D01*
X5286423Y19539863D01*
X5217011Y19660088D01*
X5217011Y19660087D01*
X5215538Y19662638D01*
X5215536Y19662640D01*
X5215535Y19662642D01*
X5113041Y19765136D01*
X5113038Y19765138D01*
X5113036Y19765140D01*
X5044800Y19804536D01*
X5023767Y19827896D01*
X4957923Y19845540D01*
X4957922Y19845540D01*
X4847501Y19875127D01*
X4847499Y19875127D01*
X4702552Y19875127D01*
X4702551Y19875127D01*
X4694275Y19872910D01*
X4655109Y19862416D01*
X4655110Y19862415D01*
X4562536Y19837610D01*
X4562534Y19837610D01*
X4562530Y19837608D01*
X4437019Y19765144D01*
X4334509Y19662634D01*
X4262044Y19537122D01*
X4241068Y19458840D01*
X4224526Y19397102D01*
X2917500Y19397102D01*
X2917500Y19457917D01*
X2888658Y19602912D01*
X2832084Y19739494D01*
X2749951Y19862415D01*
X2645416Y19966950D01*
X2522495Y20049083D01*
X2522493Y20049084D01*
X2385914Y20105657D01*
X2385912Y20105658D01*
X2240920Y20134499D01*
X2240918Y20134499D01*
X2093082Y20134499D01*
X2093081Y20134499D01*
X2093078Y20134499D01*
X1948085Y20105657D01*
X1948083Y20105657D01*
X1811510Y20049087D01*
X1811498Y20049081D01*
X1688586Y19966952D01*
X1584047Y19862413D01*
X1501918Y19739501D01*
X1501912Y19739489D01*
X1445342Y19602916D01*
X1445342Y19602914D01*
X1416500Y19457921D01*
X500500Y19457921D01*
X500500Y21457921D01*
X1416500Y21457921D01*
X1416500Y21310081D01*
X1445341Y21165087D01*
X1501915Y21028506D01*
X1501915Y21028505D01*
X1501916Y21028504D01*
X1584049Y20905583D01*
X1688584Y20801048D01*
X1811505Y20718915D01*
X1948087Y20662341D01*
X2093082Y20633499D01*
X2093083Y20633499D01*
X2240917Y20633499D01*
X2240918Y20633499D01*
X2385913Y20662341D01*
X2522495Y20718915D01*
X2645416Y20801048D01*
X2749951Y20905583D01*
X2832084Y21028504D01*
X2888658Y21165086D01*
X2893563Y21189742D01*
X11311856Y21189742D01*
X11311856Y21044792D01*
X11341443Y20934371D01*
X11346021Y20917285D01*
X11349373Y20904776D01*
X11349374Y20904775D01*
X11421841Y20779259D01*
X11421843Y20779257D01*
X11421845Y20779255D01*
X11421847Y20779252D01*
X11524341Y20676758D01*
X11524343Y20676757D01*
X11524345Y20676755D01*
X11524892Y20676360D01*
X11526894Y20675283D01*
X11649867Y20604285D01*
X11649868Y20604285D01*
X11649871Y20604283D01*
X11789881Y20566767D01*
X11789882Y20566767D01*
X11934830Y20566767D01*
X11934831Y20566767D01*
X12074841Y20604283D01*
X12074842Y20604284D01*
X12074844Y20604285D01*
X12074845Y20604285D01*
X12194236Y20673216D01*
X12197124Y20674619D01*
X12197910Y20675136D01*
X12202919Y20678230D01*
X12204218Y20678981D01*
X12209576Y20685964D01*
X12302865Y20779252D01*
X12375340Y20904782D01*
X12412856Y21044792D01*
X12412856Y21189742D01*
X12375340Y21329752D01*
X12375338Y21329755D01*
X12375338Y21329757D01*
X12375333Y21329765D01*
X12375012Y21330475D01*
X12373753Y21332503D01*
X12304341Y21452728D01*
X12304341Y21452727D01*
X12302868Y21455278D01*
X12302866Y21455280D01*
X12302865Y21455282D01*
X12200371Y21557776D01*
X12200368Y21557778D01*
X12200366Y21557780D01*
X12132130Y21597176D01*
X12111097Y21620536D01*
X12045253Y21638180D01*
X12045252Y21638180D01*
X11934831Y21667767D01*
X11934829Y21667767D01*
X11789879Y21667767D01*
X11728144Y21651226D01*
X11728143Y21651227D01*
X11649868Y21630252D01*
X11649862Y21630249D01*
X11524349Y21557784D01*
X11421839Y21455274D01*
X11349374Y21329761D01*
X11349373Y21329760D01*
X11344100Y21310082D01*
X11344101Y21310081D01*
X11311856Y21189742D01*
X2893563Y21189742D01*
X2917500Y21310081D01*
X2917500Y21457917D01*
X2888658Y21602912D01*
X2832084Y21739494D01*
X2749951Y21862415D01*
X2645416Y21966950D01*
X2522495Y22049083D01*
X2522493Y22049084D01*
X2385914Y22105657D01*
X2385912Y22105658D01*
X2240920Y22134499D01*
X2240918Y22134499D01*
X2093082Y22134499D01*
X2093081Y22134499D01*
X2093078Y22134499D01*
X1948085Y22105657D01*
X1948083Y22105657D01*
X1811510Y22049087D01*
X1811498Y22049081D01*
X1688586Y21966952D01*
X1584047Y21862413D01*
X1501918Y21739501D01*
X1501912Y21739489D01*
X1445342Y21602916D01*
X1445342Y21602914D01*
X1416500Y21457921D01*
X500500Y21457921D01*
X500500Y25457921D01*
X1416500Y25457921D01*
X1416500Y25457918D01*
X1416500Y25310081D01*
X1445342Y25165085D01*
X1473166Y25097913D01*
X1501916Y25028504D01*
X1584049Y24905583D01*
X1688584Y24801048D01*
X1811505Y24718915D01*
X1948087Y24662341D01*
X2093082Y24633499D01*
X2093083Y24633499D01*
X2240917Y24633499D01*
X2240918Y24633499D01*
X2385913Y24662341D01*
X2522495Y24718915D01*
X2645416Y24801048D01*
X2749951Y24905583D01*
X2832084Y25028504D01*
X2888658Y25165086D01*
X2917500Y25310081D01*
X2917500Y25457917D01*
X2888658Y25602912D01*
X2832084Y25739494D01*
X2749951Y25862415D01*
X2645416Y25966950D01*
X2522495Y26049083D01*
X2522493Y26049084D01*
X2385914Y26105657D01*
X2385912Y26105658D01*
X2240920Y26134499D01*
X2240918Y26134499D01*
X2093082Y26134499D01*
X2093081Y26134499D01*
X2093078Y26134499D01*
X1948085Y26105657D01*
X1948083Y26105657D01*
X1811510Y26049087D01*
X1811498Y26049081D01*
X1688586Y25966952D01*
X1584047Y25862413D01*
X1501918Y25739501D01*
X1501912Y25739489D01*
X1445342Y25602916D01*
X1445342Y25602914D01*
X1416500Y25457921D01*
X500500Y25457921D01*
X500500Y27570618D01*
X1066500Y27570618D01*
X1066500Y27397382D01*
X1093595Y27226303D01*
X1093596Y27226298D01*
X1093598Y27226293D01*
X1145340Y27067047D01*
X1147125Y27061556D01*
X1148995Y27057696D01*
X1149749Y27056408D01*
X1225765Y26907215D01*
X1225768Y26907211D01*
X1327586Y26767071D01*
X1450072Y26644585D01*
X1590212Y26542767D01*
X1739407Y26466749D01*
X1745254Y26463770D01*
X1748227Y26462932D01*
X1909293Y26410598D01*
X1909297Y26410597D01*
X1909303Y26410596D01*
X2080383Y26383499D01*
X2253614Y26383499D01*
X2253617Y26383499D01*
X2392843Y26405552D01*
X2424702Y26410597D01*
X2424706Y26410598D01*
X2589438Y26464123D01*
X2589438Y26464124D01*
X2590182Y26464365D01*
X2592899Y26465886D01*
X2743782Y26542764D01*
X2743784Y26542765D01*
X2743783Y26542765D01*
X2743788Y26542767D01*
X2883928Y26644585D01*
X3006414Y26767071D01*
X3108232Y26907211D01*
X3186873Y27061554D01*
X3186874Y27061559D01*
X3186876Y27061561D01*
X3188100Y27065330D01*
X3188369Y27065942D01*
X3188655Y27067039D01*
X3240401Y27226293D01*
X3240402Y27226297D01*
X3267500Y27397385D01*
X3267500Y27570614D01*
X3267500Y27570618D01*
X3240403Y27741696D01*
X3240402Y27741702D01*
X3240401Y27741706D01*
X3186876Y27906438D01*
X3186874Y27906441D01*
X3186873Y27906442D01*
X3186873Y27906444D01*
X3185090Y27909944D01*
X3184842Y27910579D01*
X3184250Y27911591D01*
X3108232Y28060787D01*
X3006414Y28200927D01*
X2883928Y28323413D01*
X2883924Y28323416D01*
X2883922Y28323418D01*
X2752247Y28419086D01*
X2752236Y28419093D01*
X2743788Y28425231D01*
X2743787Y28425232D01*
X2743785Y28425233D01*
X2594591Y28501250D01*
X2593311Y28501999D01*
X2589440Y28503875D01*
X2589438Y28503876D01*
X2513005Y28528711D01*
X2424701Y28557403D01*
X2424696Y28557404D01*
X2253617Y28584499D01*
X2253614Y28584499D01*
X2253611Y28584499D01*
X2080389Y28584499D01*
X2080386Y28584499D01*
X2080383Y28584499D01*
X1909302Y28557404D01*
X1909297Y28557403D01*
X1744561Y28503876D01*
X1740685Y28501999D01*
X1739407Y28501250D01*
X1590209Y28425231D01*
X1450078Y28323419D01*
X1327580Y28200921D01*
X1225768Y28060790D01*
X1149749Y27911592D01*
X1149000Y27910314D01*
X1147123Y27906438D01*
X1093596Y27741702D01*
X1093595Y27741697D01*
X1066500Y27570618D01*
X500500Y27570618D01*
X500500Y31652922D01*
X1356501Y31652922D01*
X1356501Y31652920D01*
X1356501Y31652919D01*
X1356501Y31505083D01*
X1385343Y31360088D01*
X1441917Y31223506D01*
X1524050Y31100585D01*
X1628585Y30996050D01*
X1751506Y30913917D01*
X1888088Y30857343D01*
X2033083Y30828501D01*
X2033084Y30828501D01*
X2180918Y30828501D01*
X2180919Y30828501D01*
X2325914Y30857343D01*
X2462496Y30913917D01*
X2585417Y30996050D01*
X2689952Y31100585D01*
X2772085Y31223506D01*
X2828659Y31360088D01*
X2857501Y31505083D01*
X2857501Y31652919D01*
X2828659Y31797914D01*
X2772085Y31934496D01*
X2689952Y32057417D01*
X2585417Y32161952D01*
X2462496Y32244085D01*
X2462494Y32244086D01*
X2325915Y32300659D01*
X2325913Y32300660D01*
X2180921Y32329501D01*
X2180919Y32329501D01*
X2033083Y32329501D01*
X2033082Y32329501D01*
X2033079Y32329501D01*
X1888086Y32300659D01*
X1888084Y32300659D01*
X1751511Y32244089D01*
X1751499Y32244083D01*
X1628587Y32161954D01*
X1524048Y32057415D01*
X1441919Y31934503D01*
X1441913Y31934491D01*
X1385343Y31797916D01*
X1385342Y31797915D01*
X1385343Y31797914D01*
X1356501Y31652922D01*
X500500Y31652922D01*
X500500Y34192921D01*
X3896501Y34192921D01*
X3896501Y34192919D01*
X3896501Y34192918D01*
X3896501Y34045082D01*
X3925343Y33900087D01*
X3981917Y33763505D01*
X4064050Y33640584D01*
X4168585Y33536049D01*
X4291506Y33453916D01*
X4428088Y33397342D01*
X4573083Y33368500D01*
X4573084Y33368500D01*
X4720918Y33368500D01*
X4720919Y33368500D01*
X4865914Y33397342D01*
X5002496Y33453916D01*
X5125417Y33536049D01*
X5229952Y33640584D01*
X5312085Y33763505D01*
X5368659Y33900087D01*
X5397501Y34045082D01*
X5397501Y34192918D01*
X5368659Y34337913D01*
X5312085Y34474495D01*
X5229952Y34597416D01*
X5125417Y34701951D01*
X5002496Y34784084D01*
X5002494Y34784085D01*
X4865915Y34840658D01*
X4865913Y34840659D01*
X4720921Y34869500D01*
X4720919Y34869500D01*
X4573083Y34869500D01*
X4573082Y34869500D01*
X4573079Y34869500D01*
X4428086Y34840658D01*
X4428084Y34840658D01*
X4291511Y34784088D01*
X4291499Y34784082D01*
X4168587Y34701953D01*
X4064048Y34597414D01*
X3981919Y34474502D01*
X3981913Y34474490D01*
X3925343Y34337915D01*
X3925342Y34337914D01*
X3925343Y34337913D01*
X3896501Y34192921D01*
X500500Y34192921D01*
X500500Y36732922D01*
X1356501Y36732922D01*
X1356501Y36732919D01*
X1356501Y36732918D01*
X1356501Y36585082D01*
X1385343Y36440087D01*
X1441917Y36303505D01*
X1524050Y36180584D01*
X1628585Y36076049D01*
X1751506Y35993916D01*
X1888088Y35937342D01*
X2033083Y35908500D01*
X2033084Y35908500D01*
X2180918Y35908500D01*
X2180919Y35908500D01*
X2325914Y35937342D01*
X2462496Y35993916D01*
X2585417Y36076049D01*
X2689952Y36180584D01*
X2772085Y36303505D01*
X2828659Y36440087D01*
X2857501Y36585082D01*
X2857501Y36732918D01*
X2828659Y36877913D01*
X2772085Y37014495D01*
X2689952Y37137416D01*
X2585417Y37241951D01*
X2462499Y37324082D01*
X2462498Y37324083D01*
X2462496Y37324084D01*
X2459720Y37325234D01*
X2325915Y37380658D01*
X2325913Y37380659D01*
X2180921Y37409500D01*
X2180919Y37409500D01*
X2033083Y37409500D01*
X2033082Y37409500D01*
X2033079Y37409500D01*
X1888086Y37380658D01*
X1888084Y37380658D01*
X1751511Y37324088D01*
X1751499Y37324082D01*
X1628587Y37241953D01*
X1524048Y37137414D01*
X1441919Y37014502D01*
X1441913Y37014490D01*
X1385343Y36877917D01*
X1385343Y36877915D01*
X1356501Y36732922D01*
X500500Y36732922D01*
X500500Y41190350D01*
X1206501Y41190350D01*
X1206501Y41032661D01*
X1207131Y41029494D01*
X1235362Y40887572D01*
X1235362Y40887568D01*
X1237263Y40878006D01*
X1297601Y40732336D01*
X1297614Y40732313D01*
X1317383Y40702727D01*
X1317400Y40702703D01*
X1385213Y40601214D01*
X1496708Y40489720D01*
X1496712Y40489716D01*
X1574877Y40437488D01*
X1627815Y40402115D01*
X1627826Y40402109D01*
X1681639Y40379820D01*
X1686297Y40377891D01*
X1686300Y40377889D01*
X1729495Y40359997D01*
X1773504Y40341768D01*
X1928159Y40311005D01*
X1928160Y40311005D01*
X2085842Y40311005D01*
X2085843Y40311005D01*
X2240498Y40341768D01*
X2386180Y40402111D01*
X2517290Y40489716D01*
X2628790Y40601216D01*
X2716395Y40732326D01*
X2776738Y40878008D01*
X2807501Y41032663D01*
X2807501Y41190347D01*
X2776738Y41345002D01*
X2756623Y41393563D01*
X2716397Y41490680D01*
X2716391Y41490691D01*
X2669421Y41560985D01*
X2628790Y41621794D01*
X2628786Y41621798D01*
X2517298Y41733287D01*
X2517294Y41733290D01*
X2517290Y41733294D01*
X2465060Y41768193D01*
X2386186Y41820896D01*
X2386175Y41820902D01*
X2386170Y41820905D01*
X2240499Y41881242D01*
X2085845Y41912005D01*
X2085843Y41912005D01*
X1928159Y41912005D01*
X1928156Y41912005D01*
X1928155Y41912005D01*
X1863681Y41899180D01*
X1783066Y41883144D01*
X1783059Y41883144D01*
X1773500Y41881243D01*
X1627830Y41820905D01*
X1627807Y41820892D01*
X1496712Y41733295D01*
X1385211Y41621794D01*
X1297614Y41490699D01*
X1297601Y41490676D01*
X1237907Y41346561D01*
X1237906Y41346555D01*
X1237264Y41345004D01*
X1237264Y41345002D01*
X1206501Y41190350D01*
X500500Y41190350D01*
X500500Y43730350D01*
X1206501Y43730350D01*
X1206501Y43572661D01*
X1207131Y43569494D01*
X1235362Y43427572D01*
X1235362Y43427568D01*
X1237263Y43418006D01*
X1297601Y43272336D01*
X1297604Y43272331D01*
X1297610Y43272320D01*
X1329255Y43224961D01*
X1385213Y43141214D01*
X1448957Y43077471D01*
X1496712Y43029716D01*
X1574877Y42977488D01*
X1627815Y42942115D01*
X1627826Y42942109D01*
X1681639Y42919820D01*
X1686297Y42917891D01*
X1686300Y42917889D01*
X1729495Y42899997D01*
X1773504Y42881768D01*
X1928159Y42851005D01*
X1928160Y42851005D01*
X2085842Y42851005D01*
X2085843Y42851005D01*
X2240498Y42881768D01*
X2386180Y42942111D01*
X2517290Y43029716D01*
X2628790Y43141216D01*
X2716395Y43272326D01*
X2776738Y43418008D01*
X2807501Y43572663D01*
X2807501Y43730347D01*
X2805541Y43740199D01*
X3646501Y43740199D01*
X3646501Y43562812D01*
X3647131Y43559644D01*
X3647131Y43559641D01*
X3679205Y43398402D01*
X3679205Y43398399D01*
X3681106Y43388837D01*
X3743826Y43237418D01*
X3748986Y43224961D01*
X3748986Y43224960D01*
X3804942Y43141217D01*
X3847537Y43077470D01*
X3972966Y42952041D01*
X4120454Y42853492D01*
X4121273Y42852945D01*
X4124975Y42851619D01*
X4126430Y42851016D01*
X4126447Y42851010D01*
X4126458Y42851005D01*
X4284335Y42785611D01*
X4458310Y42751005D01*
X4458311Y42751005D01*
X4635691Y42751005D01*
X4635692Y42751005D01*
X4809667Y42785611D01*
X4973548Y42853492D01*
X5121036Y42952041D01*
X5246465Y43077470D01*
X5345014Y43224958D01*
X5345015Y43224960D01*
X5345016Y43224961D01*
X5345016Y43224962D01*
X5412894Y43388837D01*
X5412895Y43388839D01*
X5447501Y43562814D01*
X5447501Y43740196D01*
X5412895Y43914171D01*
X5346869Y44073572D01*
X5345558Y44077238D01*
X5341288Y44083628D01*
X5246465Y44225540D01*
X5121035Y44350970D01*
X4973545Y44449520D01*
X4973546Y44449520D01*
X4973544Y44449521D01*
X4809668Y44517399D01*
X4809667Y44517399D01*
X4751676Y44528935D01*
X4635696Y44552005D01*
X4635694Y44552005D01*
X4635692Y44552005D01*
X4458310Y44552005D01*
X4458307Y44552005D01*
X4458304Y44552005D01*
X4293897Y44519301D01*
X4293891Y44519301D01*
X4284331Y44517400D01*
X4124953Y44451383D01*
X4121272Y44450066D01*
X3972966Y44350971D01*
X3847535Y44225540D01*
X3748440Y44077234D01*
X3747123Y44073553D01*
X3681748Y43915724D01*
X3681747Y43915720D01*
X3681107Y43914173D01*
X3681107Y43914171D01*
X3646501Y43740199D01*
X2805541Y43740199D01*
X2776738Y43885002D01*
X2716395Y44030684D01*
X2716394Y44030686D01*
X2716391Y44030691D01*
X2681018Y44083629D01*
X2628790Y44161794D01*
X2628786Y44161798D01*
X2517298Y44273287D01*
X2517294Y44273290D01*
X2517290Y44273294D01*
X2465060Y44308193D01*
X2386186Y44360896D01*
X2386175Y44360902D01*
X2386170Y44360905D01*
X2240499Y44421242D01*
X2085845Y44452005D01*
X2085843Y44452005D01*
X1928159Y44452005D01*
X1928156Y44452005D01*
X1928155Y44452005D01*
X1915668Y44449521D01*
X1783066Y44423144D01*
X1783059Y44423144D01*
X1773500Y44421243D01*
X1627830Y44360905D01*
X1627807Y44360892D01*
X1496712Y44273295D01*
X1385211Y44161794D01*
X1297614Y44030699D01*
X1297601Y44030676D01*
X1237907Y43886561D01*
X1237906Y43886555D01*
X1237264Y43885004D01*
X1237264Y43885002D01*
X1206501Y43730350D01*
X500500Y43730350D01*
X500500Y49092921D01*
X4446502Y49092921D01*
X4446502Y49092919D01*
X4446502Y49092918D01*
X4446502Y48945082D01*
X4475344Y48800087D01*
X4531918Y48663505D01*
X4614051Y48540584D01*
X4718586Y48436049D01*
X4841507Y48353916D01*
X4978089Y48297342D01*
X5123084Y48268500D01*
X5123085Y48268500D01*
X5270919Y48268500D01*
X5270920Y48268500D01*
X5415915Y48297342D01*
X5552497Y48353916D01*
X5675418Y48436049D01*
X5779953Y48540584D01*
X5862086Y48663505D01*
X5918660Y48800087D01*
X5947502Y48945082D01*
X5947502Y49092918D01*
X5918660Y49237913D01*
X5862086Y49374495D01*
X5779953Y49497416D01*
X5675418Y49601951D01*
X5552497Y49684084D01*
X5552495Y49684085D01*
X5415916Y49740658D01*
X5415914Y49740659D01*
X5270922Y49769500D01*
X5270920Y49769500D01*
X5123084Y49769500D01*
X5123083Y49769500D01*
X5123080Y49769500D01*
X4978087Y49740658D01*
X4978085Y49740658D01*
X4841512Y49684088D01*
X4841500Y49684082D01*
X4718588Y49601953D01*
X4614049Y49497414D01*
X4531920Y49374502D01*
X4531914Y49374490D01*
X4475344Y49237915D01*
X4475343Y49237914D01*
X4475344Y49237913D01*
X4446502Y49092921D01*
X500500Y49092921D01*
X500500Y52089820D01*
X505343Y52120406D01*
X509465Y52133095D01*
X545423Y52182594D01*
X546022Y52183029D01*
X549563Y52185600D01*
X607743Y52204500D01*
X6072848Y52204500D01*
X6103436Y52199657D01*
G37*
%TD.AperFunction*%
%TD*%
M02*
