%TF.GenerationSoftware,KiCad,Pcbnew,10.0.0*%
%TF.CreationDate,2026-08-18T13:50:21-04:00*%
%TF.ProjectId,PWR_RPM5.0_AP2114,5057525f-5250-44d3-952e-305f41503231,rev?*%
%TF.SameCoordinates,PX9610427PY6ca4418*%
%TF.FileFunction,Legend,Bot*%
%TF.FilePolarity,Positive*%
%FSLAX46Y46*%
G04 Gerber Fmt 4.6, Leading zero omitted, Abs format (unit mm)*
G04 Created by KiCad (PCBNEW 10.0.0) date 2026-08-18 13:50:21*
%MOMM*%
%LPD*%
G01*
G04 APERTURE LIST*
G04 Aperture macros list*
%AMRoundRect*
0 Rectangle with rounded corners*
0 $1 Rounding radius*
0 $2 $3 $4 $5 $6 $7 $8 $9 X,Y pos of 4 corners*
0 Add a 4 corners polygon primitive as box body*
4,1,4,$2,$3,$4,$5,$6,$7,$8,$9,$2,$3,0*
0 Add four circle primitives for the rounded corners*
1,1,$1+$1,$2,$3*
1,1,$1+$1,$4,$5*
1,1,$1+$1,$6,$7*
1,1,$1+$1,$8,$9*
0 Add four rect primitives between the rounded corners*
20,1,$1+$1,$2,$3,$4,$5,0*
20,1,$1+$1,$4,$5,$6,$7,0*
20,1,$1+$1,$6,$7,$8,$9,0*
20,1,$1+$1,$8,$9,$2,$3,0*%
G04 Aperture macros list end*
%ADD10C,0.100000*%
%ADD11C,0.000000*%
%ADD12RoundRect,0.250000X-0.550000X-0.550000X0.550000X-0.550000X0.550000X0.550000X-0.550000X0.550000X0*%
%ADD13C,1.600000*%
%ADD14C,1.100000*%
%ADD15RoundRect,0.249999X0.850001X0.850001X-0.850001X0.850001X-0.850001X-0.850001X0.850001X-0.850001X0*%
%ADD16C,2.200000*%
%ADD17R,1.800000X1.800000*%
%ADD18C,1.800000*%
%ADD19C,1.440000*%
%ADD20R,1.500000X2.500000*%
%ADD21O,1.500000X2.500000*%
%ADD22O,2.200000X3.500000*%
%ADD23C,1.300000*%
%ADD24C,2.250000*%
%ADD25O,6.744000X3.474000*%
%ADD26RoundRect,0.102000X3.270000X1.635000X-3.270000X1.635000X-3.270000X-1.635000X3.270000X-1.635000X0*%
%ADD27R,1.700000X1.700000*%
%ADD28C,1.700000*%
%ADD29C,2.100000*%
G04 APERTURE END LIST*
D10*
X3090648Y42345645D02*
X8339354Y42345645D01*
X8339354Y39524662D01*
X3090648Y39524662D01*
X3090648Y42345645D01*
X5715001Y42345645D02*
X8339354Y42345645D01*
X8339354Y39524662D01*
X5715001Y39524662D01*
X5715001Y42345645D01*
G36*
X5715001Y42345645D02*
G01*
X8339354Y42345645D01*
X8339354Y39524662D01*
X5715001Y39524662D01*
X5715001Y42345645D01*
G37*
X5715001Y39524662D02*
X5715001Y42345645D01*
G36*
X8747797Y42899549D02*
G01*
X8747797Y42760880D01*
X8720056Y42742203D01*
X8690913Y42726123D01*
X8628311Y42701623D01*
X8558174Y42686867D01*
X8483190Y42682158D01*
X8448840Y42683599D01*
X8416403Y42687827D01*
X8386068Y42694669D01*
X8357812Y42703992D01*
X8331860Y42715584D01*
X8308141Y42729348D01*
X8286883Y42745027D01*
X8268001Y42762572D01*
X8251690Y42781702D01*
X8237891Y42802399D01*
X8226746Y42824398D01*
X8218250Y42847681D01*
X8212501Y42872041D01*
X8209550Y42897414D01*
X8209149Y42911090D01*
X8210625Y42940446D01*
X8215094Y42967483D01*
X8221909Y42990496D01*
X8231365Y43011849D01*
X8257579Y43049275D01*
X8295787Y43083069D01*
X8350681Y43115611D01*
X8420175Y43145334D01*
X8442484Y43153522D01*
X8497631Y43174645D01*
X8539939Y43197051D01*
X8555542Y43210331D01*
X8567052Y43225848D01*
X8574173Y43244238D01*
X8576613Y43266142D01*
X8570958Y43296550D01*
X8554084Y43324580D01*
X8541535Y43336885D01*
X8526584Y43347405D01*
X8509381Y43355859D01*
X8490138Y43361927D01*
X8454843Y43365931D01*
X8431258Y43364468D01*
X8409231Y43360086D01*
X8389628Y43353186D01*
X8371424Y43343645D01*
X8339341Y43316875D01*
X8312052Y43278736D01*
X8260578Y43278736D01*
X8260578Y43433159D01*
X8301268Y43449413D01*
X8341764Y43462208D01*
X8379394Y43470940D01*
X8417328Y43476617D01*
X8468490Y43479366D01*
X8501810Y43477919D01*
X8533502Y43473649D01*
X8563129Y43466747D01*
X8590871Y43457289D01*
X8616183Y43445594D01*
X8639395Y43431627D01*
X8659967Y43415838D01*
X8678264Y43398059D01*
X8693860Y43378801D01*
X8707028Y43357811D01*
X8717502Y43335543D01*
X8725391Y43311768D01*
X8730549Y43286770D01*
X8732936Y43260453D01*
X8733096Y43251442D01*
X8731628Y43222542D01*
X8727209Y43196434D01*
X8720532Y43174668D01*
X8711333Y43154813D01*
X8685882Y43120579D01*
X8648333Y43089796D01*
X8592428Y43059205D01*
X8523078Y43030845D01*
X8514748Y43027732D01*
X8449518Y43002346D01*
X8402141Y42977496D01*
X8385346Y42963430D01*
X8373251Y42947287D01*
X8365936Y42928331D01*
X8363480Y42905823D01*
X8364935Y42887878D01*
X8369257Y42871540D01*
X8376013Y42857470D01*
X8385276Y42844964D01*
X8411261Y42824745D01*
X8448827Y42810904D01*
X8500404Y42805033D01*
X8506271Y42804981D01*
X8537552Y42806468D01*
X8566185Y42811016D01*
X8589723Y42817792D01*
X8611394Y42827221D01*
X8630388Y42838734D01*
X8647908Y42852811D01*
X8679234Y42889388D01*
X8685835Y42899549D01*
X8747797Y42899549D01*
G37*
G36*
X7699125Y43159897D02*
G01*
X7961625Y43159897D01*
X7961625Y43467643D01*
X8107529Y43467643D01*
X8107529Y42690950D01*
X7961625Y42690950D01*
X7961625Y43042294D01*
X7699125Y43042294D01*
X7699125Y42690950D01*
X7553174Y42690950D01*
X7553174Y43467643D01*
X7699125Y43467643D01*
X7699125Y43159897D01*
G37*
G36*
X7162950Y43480837D02*
G01*
X7194646Y43476478D01*
X7223631Y43469540D01*
X7250955Y43459954D01*
X7276002Y43448058D01*
X7299387Y43433689D01*
X7340685Y43397982D01*
X7375222Y43352472D01*
X7402859Y43296284D01*
X7422911Y43228232D01*
X7434211Y43147050D01*
X7436167Y43091753D01*
X7434708Y43038792D01*
X7430355Y42989419D01*
X7423602Y42945986D01*
X7414320Y42905789D01*
X7403219Y42870687D01*
X7389904Y42838510D01*
X7375175Y42810569D01*
X7358483Y42785300D01*
X7340548Y42763468D01*
X7320830Y42744133D01*
X7299769Y42727595D01*
X7277032Y42713473D01*
X7226515Y42692477D01*
X7168189Y42681120D01*
X7129566Y42679227D01*
X7095806Y42680691D01*
X7063864Y42685076D01*
X7035044Y42691996D01*
X7007942Y42701571D01*
X6983319Y42713389D01*
X6960364Y42727691D01*
X6919985Y42763249D01*
X6886148Y42808870D01*
X6858818Y42865847D01*
X6838593Y42935930D01*
X6826631Y43021122D01*
X6824412Y43080213D01*
X6974136Y43080213D01*
X6975584Y43032358D01*
X6979861Y42988942D01*
X6986381Y42952147D01*
X6995231Y42919316D01*
X7005522Y42892258D01*
X7017701Y42868682D01*
X7030725Y42849812D01*
X7045280Y42834003D01*
X7060464Y42821836D01*
X7076929Y42812445D01*
X7112768Y42802125D01*
X7130619Y42800997D01*
X7150679Y42802461D01*
X7169607Y42806846D01*
X7186773Y42813854D01*
X7202773Y42823575D01*
X7231164Y42851253D01*
X7254980Y42891455D01*
X7273378Y42946649D01*
X7284638Y43019561D01*
X7287056Y43080213D01*
X7285612Y43127331D01*
X7281359Y43170244D01*
X7274819Y43207142D01*
X7265956Y43240170D01*
X7255579Y43267709D01*
X7243325Y43291762D01*
X7230190Y43311150D01*
X7215553Y43327421D01*
X7200340Y43339961D01*
X7183903Y43349658D01*
X7148556Y43360322D01*
X7130619Y43361535D01*
X7110957Y43360072D01*
X7092347Y43355697D01*
X7075312Y43348663D01*
X7059390Y43338907D01*
X7030891Y43310996D01*
X7006817Y43270401D01*
X6988141Y43214797D01*
X6976662Y43141763D01*
X6974136Y43080213D01*
X6824412Y43080213D01*
X6824018Y43090700D01*
X6825471Y43138209D01*
X6829784Y43182851D01*
X6836592Y43223182D01*
X6845932Y43260760D01*
X6857275Y43294344D01*
X6870854Y43325295D01*
X6886051Y43352678D01*
X6903231Y43377534D01*
X6921816Y43399279D01*
X6942185Y43418569D01*
X6963955Y43435146D01*
X6987364Y43449280D01*
X7038914Y43470103D01*
X7097347Y43480887D01*
X7129566Y43482297D01*
X7162950Y43480837D01*
G37*
G36*
X6708018Y42690950D02*
G01*
X6562113Y42690950D01*
X6562113Y43013351D01*
X6549474Y43013351D01*
X6516546Y43014949D01*
X6482088Y43020270D01*
X6480185Y43020678D01*
X6469711Y42981394D01*
X6456051Y42952626D01*
X6325854Y42690950D01*
X6153663Y42690950D01*
X6304834Y42963068D01*
X6330317Y42997959D01*
X6369955Y43032219D01*
X6369955Y43040645D01*
X6336355Y43054571D01*
X6306591Y43070256D01*
X6282738Y43086169D01*
X6262062Y43103634D01*
X6245562Y43121443D01*
X6231831Y43140684D01*
X6221150Y43160741D01*
X6213055Y43182205D01*
X6204558Y43229879D01*
X6204305Y43237841D01*
X6353148Y43237841D01*
X6354621Y43211433D01*
X6359067Y43188081D01*
X6365573Y43169763D01*
X6374506Y43153730D01*
X6385210Y43140612D01*
X6398138Y43129419D01*
X6431400Y43112348D01*
X6478177Y43102012D01*
X6525339Y43099447D01*
X6562113Y43100454D01*
X6562113Y43357367D01*
X6462325Y43357367D01*
X6443242Y43355950D01*
X6426131Y43351892D01*
X6397223Y43336691D01*
X6374819Y43312628D01*
X6359481Y43280109D01*
X6353189Y43241240D01*
X6353148Y43237841D01*
X6204305Y43237841D01*
X6204038Y43246221D01*
X6205500Y43275515D01*
X6209874Y43302566D01*
X6216638Y43326025D01*
X6225950Y43347560D01*
X6237399Y43366636D01*
X6251215Y43383963D01*
X6286118Y43413640D01*
X6332486Y43437415D01*
X6393290Y43455085D01*
X6472498Y43465550D01*
X6535826Y43467643D01*
X6708018Y43467643D01*
X6708018Y42690950D01*
G37*
G36*
X5964802Y43344773D02*
G01*
X5964802Y42690950D01*
X5817844Y42690950D01*
X5817844Y43344773D01*
X5612039Y43344773D01*
X5612039Y43467643D01*
X6166440Y43467643D01*
X6166440Y43344773D01*
X5964802Y43344773D01*
G37*
G36*
X5233768Y43467643D02*
G01*
X5233768Y42690950D01*
X5087863Y42690950D01*
X5087863Y43011107D01*
X4797016Y43011107D01*
X4797016Y43127657D01*
X5087863Y43127657D01*
X5087863Y43343720D01*
X4781262Y43343720D01*
X4781262Y43467643D01*
X5233768Y43467643D01*
G37*
G36*
X4420347Y43480837D02*
G01*
X4452044Y43476478D01*
X4481028Y43469540D01*
X4508352Y43459954D01*
X4533400Y43448058D01*
X4556784Y43433689D01*
X4598082Y43397982D01*
X4632619Y43352472D01*
X4660256Y43296284D01*
X4680308Y43228232D01*
X4691608Y43147050D01*
X4693564Y43091753D01*
X4692105Y43038792D01*
X4687752Y42989419D01*
X4680999Y42945986D01*
X4671717Y42905789D01*
X4660616Y42870687D01*
X4647301Y42838510D01*
X4632572Y42810569D01*
X4615880Y42785300D01*
X4597945Y42763468D01*
X4578227Y42744133D01*
X4557166Y42727595D01*
X4534429Y42713473D01*
X4483912Y42692477D01*
X4425586Y42681120D01*
X4386963Y42679227D01*
X4353203Y42680691D01*
X4321261Y42685076D01*
X4292441Y42691996D01*
X4265339Y42701571D01*
X4240717Y42713389D01*
X4217762Y42727691D01*
X4177382Y42763249D01*
X4143545Y42808870D01*
X4116215Y42865847D01*
X4095990Y42935930D01*
X4084028Y43021122D01*
X4081809Y43080213D01*
X4231533Y43080213D01*
X4232981Y43032358D01*
X4237258Y42988942D01*
X4243778Y42952147D01*
X4252628Y42919316D01*
X4262919Y42892258D01*
X4275098Y42868682D01*
X4288122Y42849812D01*
X4302677Y42834003D01*
X4317861Y42821836D01*
X4334326Y42812445D01*
X4370165Y42802125D01*
X4388016Y42800997D01*
X4408077Y42802461D01*
X4427004Y42806846D01*
X4444170Y42813854D01*
X4460170Y42823575D01*
X4488561Y42851253D01*
X4512377Y42891455D01*
X4530775Y42946649D01*
X4542035Y43019561D01*
X4544453Y43080213D01*
X4543009Y43127331D01*
X4538757Y43170244D01*
X4532217Y43207142D01*
X4523353Y43240170D01*
X4512976Y43267709D01*
X4500722Y43291762D01*
X4487587Y43311150D01*
X4472950Y43327421D01*
X4457737Y43339961D01*
X4441300Y43349658D01*
X4405953Y43360322D01*
X4388016Y43361535D01*
X4368354Y43360072D01*
X4349744Y43355697D01*
X4332709Y43348663D01*
X4316788Y43338907D01*
X4288288Y43310996D01*
X4264215Y43270401D01*
X4245538Y43214797D01*
X4234059Y43141763D01*
X4231533Y43080213D01*
X4081809Y43080213D01*
X4081415Y43090700D01*
X4082868Y43138209D01*
X4087181Y43182851D01*
X4093989Y43223182D01*
X4103329Y43260760D01*
X4114672Y43294344D01*
X4128251Y43325295D01*
X4143448Y43352678D01*
X4160628Y43377534D01*
X4179214Y43399279D01*
X4199582Y43418569D01*
X4221352Y43435146D01*
X4244761Y43449280D01*
X4296311Y43470103D01*
X4354744Y43480887D01*
X4386963Y43482297D01*
X4420347Y43480837D01*
G37*
G36*
X3965415Y42690950D02*
G01*
X3819510Y42690950D01*
X3819510Y43013351D01*
X3806871Y43013351D01*
X3773943Y43014949D01*
X3739485Y43020270D01*
X3737582Y43020678D01*
X3727108Y42981394D01*
X3713448Y42952626D01*
X3583251Y42690950D01*
X3411060Y42690950D01*
X3562231Y42963068D01*
X3587714Y42997959D01*
X3627352Y43032219D01*
X3627352Y43040645D01*
X3593752Y43054571D01*
X3563988Y43070256D01*
X3540135Y43086169D01*
X3519459Y43103634D01*
X3502959Y43121443D01*
X3489228Y43140684D01*
X3478547Y43160741D01*
X3470452Y43182205D01*
X3461955Y43229879D01*
X3461702Y43237841D01*
X3610545Y43237841D01*
X3612018Y43211433D01*
X3616464Y43188081D01*
X3622970Y43169763D01*
X3631903Y43153730D01*
X3642608Y43140612D01*
X3655535Y43129419D01*
X3688797Y43112348D01*
X3735574Y43102012D01*
X3782736Y43099447D01*
X3819510Y43100454D01*
X3819510Y43357367D01*
X3719722Y43357367D01*
X3700639Y43355950D01*
X3683528Y43351892D01*
X3654620Y43336691D01*
X3632216Y43312628D01*
X3616878Y43280109D01*
X3610586Y43241240D01*
X3610545Y43237841D01*
X3461702Y43237841D01*
X3461435Y43246221D01*
X3462897Y43275515D01*
X3467271Y43302566D01*
X3474035Y43326025D01*
X3483347Y43347560D01*
X3494796Y43366636D01*
X3508612Y43383963D01*
X3543515Y43413640D01*
X3589883Y43437415D01*
X3650687Y43455085D01*
X3729895Y43465550D01*
X3793224Y43467643D01*
X3965415Y43467643D01*
X3965415Y42690950D01*
G37*
G36*
X9036760Y39175043D02*
G01*
X8819414Y38392489D01*
X8683951Y38392489D01*
X8454012Y39175043D01*
X8595749Y39175043D01*
X8716512Y38677612D01*
X8726661Y38628677D01*
X8733410Y38578421D01*
X8736479Y38513206D01*
X8758506Y38513206D01*
X8764074Y38599786D01*
X8778473Y38677612D01*
X8899190Y39175043D01*
X9036760Y39175043D01*
G37*
G36*
X8136281Y39188237D02*
G01*
X8167978Y39183878D01*
X8196963Y39176940D01*
X8224286Y39167354D01*
X8249334Y39155458D01*
X8272718Y39141089D01*
X8314017Y39105382D01*
X8348554Y39059872D01*
X8376191Y39003684D01*
X8396243Y38935632D01*
X8407543Y38854450D01*
X8409498Y38799153D01*
X8408039Y38746192D01*
X8403687Y38696819D01*
X8396933Y38653386D01*
X8387652Y38613189D01*
X8376551Y38578087D01*
X8363235Y38545910D01*
X8348507Y38517969D01*
X8331815Y38492700D01*
X8313880Y38470868D01*
X8294162Y38451533D01*
X8273101Y38434995D01*
X8250363Y38420873D01*
X8199847Y38399877D01*
X8141520Y38388520D01*
X8102897Y38386627D01*
X8069138Y38388091D01*
X8037196Y38392476D01*
X8008376Y38399396D01*
X7981273Y38408971D01*
X7956651Y38420789D01*
X7933696Y38435091D01*
X7893317Y38470649D01*
X7859480Y38516270D01*
X7832150Y38573247D01*
X7811925Y38643330D01*
X7799962Y38728522D01*
X7797744Y38787613D01*
X7947467Y38787613D01*
X7948916Y38739758D01*
X7953193Y38696342D01*
X7959712Y38659547D01*
X7968562Y38626716D01*
X7978854Y38599658D01*
X7991033Y38576082D01*
X8004057Y38557212D01*
X8018611Y38541403D01*
X8033796Y38529236D01*
X8050261Y38519845D01*
X8086100Y38509525D01*
X8103951Y38508397D01*
X8124011Y38509861D01*
X8142939Y38514246D01*
X8160105Y38521254D01*
X8176104Y38530975D01*
X8204496Y38558653D01*
X8228312Y38598855D01*
X8246710Y38654049D01*
X8257969Y38726961D01*
X8260388Y38787613D01*
X8258943Y38834731D01*
X8254691Y38877644D01*
X8248151Y38914542D01*
X8239288Y38947570D01*
X8228911Y38975109D01*
X8216657Y38999162D01*
X8203522Y39018550D01*
X8188885Y39034821D01*
X8173672Y39047361D01*
X8157235Y39057058D01*
X8121888Y39067722D01*
X8103951Y39068935D01*
X8084289Y39067472D01*
X8065678Y39063097D01*
X8048644Y39056063D01*
X8032722Y39046307D01*
X8004223Y39018396D01*
X7980149Y38977801D01*
X7961473Y38922197D01*
X7949994Y38849163D01*
X7947467Y38787613D01*
X7797744Y38787613D01*
X7797350Y38798100D01*
X7798803Y38845609D01*
X7803116Y38890251D01*
X7809923Y38930582D01*
X7819264Y38968160D01*
X7830606Y39001744D01*
X7844185Y39032695D01*
X7859382Y39060078D01*
X7876562Y39084934D01*
X7895148Y39106679D01*
X7915517Y39125969D01*
X7937287Y39142546D01*
X7960695Y39156680D01*
X8012246Y39177503D01*
X8070678Y39188287D01*
X8102897Y39189697D01*
X8136281Y39188237D01*
G37*
G36*
X7681349Y38683153D02*
G01*
X7678491Y38604162D01*
X7673351Y38568718D01*
X7664343Y38535638D01*
X7654554Y38512493D01*
X7641641Y38490403D01*
X7634134Y38480050D01*
X7599443Y38445171D01*
X7554965Y38417252D01*
X7501079Y38397578D01*
X7470706Y38391267D01*
X7438435Y38387589D01*
X7410469Y38386627D01*
X7376993Y38388071D01*
X7345208Y38392314D01*
X7315369Y38399196D01*
X7287490Y38408597D01*
X7261976Y38420249D01*
X7238653Y38434116D01*
X7217988Y38449787D01*
X7199701Y38467358D01*
X7188910Y38480050D01*
X7164470Y38520725D01*
X7149434Y38567556D01*
X7141952Y38627314D01*
X7140642Y38683153D01*
X7140642Y39175043D01*
X7286592Y39175043D01*
X7286592Y38669552D01*
X7288100Y38632084D01*
X7292794Y38599875D01*
X7299128Y38577490D01*
X7307869Y38558417D01*
X7317614Y38544372D01*
X7329404Y38532766D01*
X7357989Y38517189D01*
X7396938Y38509901D01*
X7411522Y38509450D01*
X7437809Y38510911D01*
X7460183Y38515272D01*
X7476958Y38521525D01*
X7491117Y38530003D01*
X7511670Y38552343D01*
X7525477Y38584667D01*
X7533496Y38633410D01*
X7535445Y38690480D01*
X7535445Y39175043D01*
X7681349Y39175043D01*
X7681349Y38683153D01*
G37*
G36*
X6852404Y39052173D02*
G01*
X6852404Y38398350D01*
X6705447Y38398350D01*
X6705447Y39052173D01*
X6499641Y39052173D01*
X6499641Y39175043D01*
X7054042Y39175043D01*
X7054042Y39052173D01*
X6852404Y39052173D01*
G37*
G36*
X6164464Y38606949D02*
G01*
X6164464Y38468280D01*
X6136724Y38449603D01*
X6107581Y38433523D01*
X6044978Y38409023D01*
X5974841Y38394267D01*
X5899857Y38389558D01*
X5865508Y38390999D01*
X5833070Y38395227D01*
X5802735Y38402069D01*
X5774480Y38411392D01*
X5748527Y38422984D01*
X5724808Y38436748D01*
X5703551Y38452427D01*
X5684669Y38469972D01*
X5668358Y38489102D01*
X5654559Y38509799D01*
X5643413Y38531798D01*
X5634918Y38555081D01*
X5629168Y38579441D01*
X5626218Y38604814D01*
X5625817Y38618490D01*
X5627293Y38647846D01*
X5631761Y38674883D01*
X5638577Y38697896D01*
X5648032Y38719249D01*
X5674246Y38756675D01*
X5712454Y38790469D01*
X5767349Y38823011D01*
X5836843Y38852734D01*
X5859151Y38860922D01*
X5914298Y38882045D01*
X5956606Y38904451D01*
X5972209Y38917731D01*
X5983719Y38933248D01*
X5990841Y38951638D01*
X5993280Y38973542D01*
X5987625Y39003950D01*
X5970752Y39031980D01*
X5958202Y39044285D01*
X5943251Y39054805D01*
X5926048Y39063259D01*
X5906805Y39069327D01*
X5871510Y39073331D01*
X5847926Y39071868D01*
X5825899Y39067486D01*
X5806295Y39060586D01*
X5788091Y39051045D01*
X5756009Y39024275D01*
X5728719Y38986136D01*
X5677245Y38986136D01*
X5677245Y39140559D01*
X5717935Y39156813D01*
X5758432Y39169608D01*
X5796061Y39178340D01*
X5833995Y39184017D01*
X5885157Y39186766D01*
X5918478Y39185319D01*
X5950169Y39181049D01*
X5979796Y39174147D01*
X6007538Y39164689D01*
X6032850Y39152994D01*
X6056062Y39139027D01*
X6076634Y39123238D01*
X6094931Y39105459D01*
X6110528Y39086201D01*
X6123696Y39065211D01*
X6134170Y39042943D01*
X6142058Y39019168D01*
X6147217Y38994170D01*
X6149603Y38967853D01*
X6149764Y38958842D01*
X6148295Y38929942D01*
X6143877Y38903834D01*
X6137199Y38882068D01*
X6128000Y38862213D01*
X6102549Y38827979D01*
X6065000Y38797196D01*
X6009095Y38766605D01*
X5939745Y38738245D01*
X5931415Y38735132D01*
X5866185Y38709746D01*
X5818808Y38684896D01*
X5802013Y38670830D01*
X5789918Y38654687D01*
X5782604Y38635731D01*
X5780148Y38613223D01*
X5781603Y38595278D01*
X5785925Y38578940D01*
X5792680Y38564870D01*
X5801944Y38552364D01*
X5827928Y38532145D01*
X5865494Y38518304D01*
X5917072Y38512433D01*
X5922938Y38512381D01*
X5954219Y38513868D01*
X5982852Y38518416D01*
X6006390Y38525192D01*
X6028061Y38534621D01*
X6047055Y38546134D01*
X6064576Y38560211D01*
X6095901Y38596788D01*
X6102503Y38606949D01*
X6164464Y38606949D01*
G37*
G36*
X5524197Y39175043D02*
G01*
X5524197Y38398350D01*
X5071691Y38398350D01*
X5071691Y38519068D01*
X5378292Y38519068D01*
X5378292Y38752991D01*
X5114739Y38752991D01*
X5114739Y38864274D01*
X5378292Y38864274D01*
X5378292Y39052173D01*
X5081125Y39052173D01*
X5081125Y39175043D01*
X5524197Y39175043D01*
G37*
G36*
X4940945Y39175043D02*
G01*
X4940945Y38398350D01*
X4818121Y38398350D01*
X4818121Y38842750D01*
X4825152Y38938262D01*
X4839095Y39033260D01*
X4818121Y39033260D01*
X4794201Y38949804D01*
X4771913Y38894041D01*
X4552461Y38398350D01*
X4386590Y38398350D01*
X4386590Y39175043D01*
X4509413Y39175043D01*
X4509413Y38755830D01*
X4503536Y38660915D01*
X4490500Y38576816D01*
X4509413Y38576816D01*
X4541711Y38667771D01*
X4569268Y38735955D01*
X4762479Y39175043D01*
X4940945Y39175043D01*
G37*
G36*
X4284283Y38606949D02*
G01*
X4284283Y38468280D01*
X4256542Y38449603D01*
X4227399Y38433523D01*
X4164797Y38409023D01*
X4094660Y38394267D01*
X4019676Y38389558D01*
X3985326Y38390999D01*
X3952889Y38395227D01*
X3922554Y38402069D01*
X3894298Y38411392D01*
X3868346Y38422984D01*
X3844627Y38436748D01*
X3823369Y38452427D01*
X3804487Y38469972D01*
X3788176Y38489102D01*
X3774377Y38509799D01*
X3763232Y38531798D01*
X3754736Y38555081D01*
X3748987Y38579441D01*
X3746036Y38604814D01*
X3745635Y38618490D01*
X3747111Y38647846D01*
X3751579Y38674883D01*
X3758395Y38697896D01*
X3767850Y38719249D01*
X3794065Y38756675D01*
X3832272Y38790469D01*
X3887167Y38823011D01*
X3956661Y38852734D01*
X3978970Y38860922D01*
X4034117Y38882045D01*
X4076425Y38904451D01*
X4092028Y38917731D01*
X4103538Y38933248D01*
X4110659Y38951638D01*
X4113099Y38973542D01*
X4107444Y39003950D01*
X4090570Y39031980D01*
X4078021Y39044285D01*
X4063070Y39054805D01*
X4045867Y39063259D01*
X4026624Y39069327D01*
X3991328Y39073331D01*
X3967744Y39071868D01*
X3945717Y39067486D01*
X3926114Y39060586D01*
X3907910Y39051045D01*
X3875827Y39024275D01*
X3848538Y38986136D01*
X3797064Y38986136D01*
X3797064Y39140559D01*
X3837754Y39156813D01*
X3878250Y39169608D01*
X3915880Y39178340D01*
X3953814Y39184017D01*
X4004976Y39186766D01*
X4038296Y39185319D01*
X4069988Y39181049D01*
X4099615Y39174147D01*
X4127357Y39164689D01*
X4152669Y39152994D01*
X4175881Y39139027D01*
X4196453Y39123238D01*
X4214750Y39105459D01*
X4230346Y39086201D01*
X4243514Y39065211D01*
X4253988Y39042943D01*
X4261877Y39019168D01*
X4267035Y38994170D01*
X4269422Y38967853D01*
X4269582Y38958842D01*
X4268114Y38929942D01*
X4263695Y38903834D01*
X4257018Y38882068D01*
X4247819Y38862213D01*
X4222368Y38827979D01*
X4184819Y38797196D01*
X4128914Y38766605D01*
X4059564Y38738245D01*
X4051234Y38735132D01*
X3986003Y38709746D01*
X3938627Y38684896D01*
X3921832Y38670830D01*
X3909737Y38654687D01*
X3902422Y38635731D01*
X3899966Y38613223D01*
X3901421Y38595278D01*
X3905743Y38578940D01*
X3912499Y38564870D01*
X3921762Y38552364D01*
X3947747Y38532145D01*
X3985313Y38518304D01*
X4036890Y38512433D01*
X4042757Y38512381D01*
X4074038Y38513868D01*
X4102671Y38518416D01*
X4126208Y38525192D01*
X4147880Y38534621D01*
X4166874Y38546134D01*
X4184394Y38560211D01*
X4215720Y38596788D01*
X4222321Y38606949D01*
X4284283Y38606949D01*
G37*
G36*
X3644015Y39175043D02*
G01*
X3644015Y38398350D01*
X3191509Y38398350D01*
X3191509Y38519068D01*
X3498111Y38519068D01*
X3498111Y38752991D01*
X3234557Y38752991D01*
X3234557Y38864274D01*
X3498111Y38864274D01*
X3498111Y39052173D01*
X3200943Y39052173D01*
X3200943Y39175043D01*
X3644015Y39175043D01*
G37*
G36*
X2058452Y44090736D02*
G01*
X2197121Y44090736D01*
X2215798Y44062995D01*
X2231878Y44033852D01*
X2256378Y43971250D01*
X2271134Y43901113D01*
X2275843Y43826129D01*
X2274402Y43791779D01*
X2270174Y43759342D01*
X2263332Y43729007D01*
X2254009Y43700751D01*
X2242417Y43674799D01*
X2228653Y43651080D01*
X2212974Y43629822D01*
X2195429Y43610940D01*
X2176299Y43594629D01*
X2155602Y43580830D01*
X2133603Y43569685D01*
X2110320Y43561189D01*
X2085960Y43555440D01*
X2060587Y43552489D01*
X2046911Y43552088D01*
X2017555Y43553564D01*
X1990518Y43558033D01*
X1967505Y43564848D01*
X1946152Y43574304D01*
X1908726Y43600518D01*
X1874932Y43638726D01*
X1842390Y43693620D01*
X1812667Y43763114D01*
X1804479Y43785423D01*
X1783356Y43840570D01*
X1760950Y43882878D01*
X1747670Y43898481D01*
X1732153Y43909991D01*
X1713763Y43917112D01*
X1691859Y43919552D01*
X1661451Y43913897D01*
X1633421Y43897023D01*
X1621116Y43884474D01*
X1610596Y43869523D01*
X1602142Y43852320D01*
X1596074Y43833077D01*
X1592070Y43797782D01*
X1593533Y43774197D01*
X1597915Y43752170D01*
X1604815Y43732567D01*
X1614356Y43714363D01*
X1641126Y43682280D01*
X1679265Y43654991D01*
X1679265Y43603517D01*
X1524842Y43603517D01*
X1508588Y43644207D01*
X1495793Y43684703D01*
X1487061Y43722333D01*
X1481384Y43760267D01*
X1478635Y43811429D01*
X1480082Y43844749D01*
X1484352Y43876441D01*
X1491254Y43906068D01*
X1500712Y43933810D01*
X1512407Y43959122D01*
X1526374Y43982334D01*
X1542163Y44002906D01*
X1559942Y44021203D01*
X1579200Y44036799D01*
X1600190Y44049967D01*
X1622458Y44060441D01*
X1646233Y44068330D01*
X1671231Y44073488D01*
X1697548Y44075875D01*
X1706559Y44076035D01*
X1735459Y44074567D01*
X1761567Y44070148D01*
X1783333Y44063471D01*
X1803188Y44054272D01*
X1837422Y44028821D01*
X1868205Y43991272D01*
X1898796Y43935367D01*
X1927156Y43866017D01*
X1930269Y43857687D01*
X1955655Y43792457D01*
X1980505Y43745080D01*
X1994571Y43728285D01*
X2010714Y43716190D01*
X2029670Y43708875D01*
X2052178Y43706419D01*
X2070123Y43707874D01*
X2086461Y43712196D01*
X2100531Y43718952D01*
X2113037Y43728215D01*
X2133256Y43754200D01*
X2147097Y43791766D01*
X2152968Y43843343D01*
X2153020Y43849210D01*
X2151533Y43880491D01*
X2146985Y43909124D01*
X2140209Y43932662D01*
X2130780Y43954333D01*
X2119267Y43973327D01*
X2105190Y43990847D01*
X2068613Y44022173D01*
X2058452Y44028774D01*
X2058452Y44090736D01*
G37*
G36*
X1490358Y43450468D02*
G01*
X2267051Y43450468D01*
X2267051Y42997963D01*
X2146333Y42997963D01*
X2146333Y43304564D01*
X1912410Y43304564D01*
X1912410Y43041010D01*
X1801127Y43041010D01*
X1801127Y43304564D01*
X1613228Y43304564D01*
X1613228Y43007396D01*
X1490358Y43007396D01*
X1490358Y43450468D01*
G37*
G36*
X1925596Y42876295D02*
G01*
X1973269Y42871979D01*
X2015892Y42865210D01*
X2055423Y42855929D01*
X2090363Y42844740D01*
X2122417Y42831357D01*
X2150450Y42816493D01*
X2175777Y42799703D01*
X2197683Y42781674D01*
X2217017Y42761929D01*
X2233454Y42740952D01*
X2247383Y42718409D01*
X2267600Y42668940D01*
X2277695Y42612872D01*
X2278774Y42585849D01*
X2277293Y42558069D01*
X2272783Y42531662D01*
X2265719Y42508070D01*
X2255829Y42485526D01*
X2227813Y42443937D01*
X2225239Y42440951D01*
X2231559Y42434632D01*
X2236780Y42434632D01*
X2254960Y42433187D01*
X2270984Y42428937D01*
X2292696Y42416771D01*
X2357909Y42366396D01*
X2285231Y42293948D01*
X2229452Y42339102D01*
X2216095Y42351865D01*
X2205250Y42366536D01*
X2193732Y42391584D01*
X2185351Y42397904D01*
X2148807Y42364049D01*
X2103033Y42337727D01*
X2044937Y42318059D01*
X1969746Y42305219D01*
X1865195Y42300268D01*
X1816323Y42301722D01*
X1770490Y42306040D01*
X1729341Y42312830D01*
X1691099Y42322147D01*
X1657198Y42333400D01*
X1626057Y42346869D01*
X1598779Y42361848D01*
X1574124Y42378778D01*
X1552801Y42396972D01*
X1534003Y42416908D01*
X1518063Y42438093D01*
X1504613Y42460871D01*
X1485364Y42510844D01*
X1476330Y42567426D01*
X1475704Y42587955D01*
X1475845Y42591069D01*
X1594360Y42591069D01*
X1595822Y42572251D01*
X1600196Y42554535D01*
X1616934Y42523472D01*
X1644893Y42496792D01*
X1686013Y42474406D01*
X1743102Y42457353D01*
X1819109Y42447572D01*
X1866248Y42446172D01*
X1942479Y42447696D01*
X2010311Y42452500D01*
X2085609Y42464032D01*
X2085609Y42472459D01*
X2052702Y42484086D01*
X2023014Y42505061D01*
X2020533Y42507080D01*
X1949184Y42564828D01*
X2017373Y42640437D01*
X2101362Y42573255D01*
X2109124Y42566947D01*
X2131672Y42546408D01*
X2140765Y42533312D01*
X2147570Y42516560D01*
X2157004Y42516560D01*
X2163792Y42538054D01*
X2167060Y42558384D01*
X2167491Y42569042D01*
X2166026Y42590477D01*
X2161635Y42610461D01*
X2154724Y42628154D01*
X2145159Y42644501D01*
X2118197Y42673012D01*
X2079047Y42696817D01*
X2024671Y42715571D01*
X1951199Y42727915D01*
X1867301Y42731799D01*
X1817993Y42730351D01*
X1773532Y42726076D01*
X1736332Y42719609D01*
X1703413Y42710843D01*
X1676777Y42700756D01*
X1653838Y42688842D01*
X1635934Y42676263D01*
X1621212Y42662234D01*
X1610280Y42647764D01*
X1602181Y42632104D01*
X1594571Y42598209D01*
X1594360Y42591069D01*
X1475845Y42591069D01*
X1477166Y42620133D01*
X1481542Y42650580D01*
X1488465Y42678141D01*
X1498040Y42704050D01*
X1509904Y42727675D01*
X1524256Y42749679D01*
X1560101Y42788486D01*
X1606301Y42820977D01*
X1664213Y42847029D01*
X1735590Y42865888D01*
X1822357Y42876261D01*
X1874629Y42877749D01*
X1925596Y42876295D01*
G37*
G36*
X9051353Y40183425D02*
G01*
X9051353Y39973453D01*
X8942176Y39973453D01*
X8942176Y40183425D01*
X8731151Y40183425D01*
X8731151Y40292648D01*
X8942176Y40292648D01*
X8942176Y40502620D01*
X9051353Y40502620D01*
X9051353Y40292648D01*
X9262379Y40292648D01*
X9262379Y40183425D01*
X9051353Y40183425D01*
G37*
G36*
X8914791Y40733155D02*
G01*
X8770855Y40733155D01*
X8746753Y40779656D01*
X8728537Y40840689D01*
X8722788Y40875486D01*
X8719811Y40911844D01*
X8719427Y40930534D01*
X8720877Y40963036D01*
X8725165Y40993947D01*
X8732083Y41022770D01*
X8741583Y41049834D01*
X8753392Y41074695D01*
X8767538Y41097643D01*
X8783735Y41118347D01*
X8802050Y41136984D01*
X8822259Y41153357D01*
X8844396Y41167499D01*
X8868371Y41179311D01*
X8894111Y41188704D01*
X8950896Y41199881D01*
X8983072Y41201414D01*
X9012448Y41199971D01*
X9040197Y41195727D01*
X9066090Y41188859D01*
X9090193Y41179481D01*
X9112359Y41167756D01*
X9132567Y41153791D01*
X9166789Y41119610D01*
X9192206Y41077756D01*
X9207984Y41029009D01*
X9213148Y40976741D01*
X9207507Y40918865D01*
X9198448Y40883273D01*
X9213148Y40868572D01*
X9225185Y40876240D01*
X9236817Y40880632D01*
X9266454Y40883273D01*
X9332308Y40883273D01*
X9359110Y40881435D01*
X9372455Y40877071D01*
X9386668Y40868572D01*
X9401368Y40883273D01*
X9381627Y40921315D01*
X9370790Y40967862D01*
X9367800Y41020842D01*
X9367800Y41191980D01*
X9499050Y41191980D01*
X9499050Y40768830D01*
X9092386Y40768830D01*
X9092386Y40827631D01*
X9101548Y40856734D01*
X9107086Y40884127D01*
X9109238Y40913727D01*
X9107799Y40936305D01*
X9103584Y40957353D01*
X9096804Y40976597D01*
X9087592Y40994037D01*
X9076180Y41009434D01*
X9062667Y41022760D01*
X9047258Y41033837D01*
X9030060Y41042573D01*
X9011200Y41048828D01*
X8990843Y41052451D01*
X8973638Y41053357D01*
X8950614Y41051912D01*
X8929539Y41047658D01*
X8911110Y41040993D01*
X8894674Y41031929D01*
X8880590Y41020832D01*
X8868577Y41007644D01*
X8851057Y40975327D01*
X8842740Y40934789D01*
X8842250Y40921100D01*
X8843693Y40897545D01*
X8847931Y40875829D01*
X8854622Y40856577D01*
X8863713Y40839353D01*
X8874770Y40824644D01*
X8887873Y40812126D01*
X8914791Y40796124D01*
X8914791Y40733155D01*
G37*
G36*
X9507843Y41280686D02*
G01*
X8725289Y41498032D01*
X8725289Y41633495D01*
X9507843Y41863434D01*
X9507843Y41721697D01*
X9010412Y41600934D01*
X8961477Y41590785D01*
X8911221Y41584036D01*
X8846006Y41580968D01*
X8846006Y41558940D01*
X8932586Y41553372D01*
X9010412Y41538973D01*
X9507843Y41418256D01*
X9507843Y41280686D01*
G37*
G36*
X12047096Y7481090D02*
G01*
X12047096Y7901035D01*
X12265449Y7901035D01*
X12265449Y7481090D01*
X12687501Y7481090D01*
X12687501Y7262645D01*
X12265449Y7262645D01*
X12265449Y6842700D01*
X12047096Y6842700D01*
X12047096Y7262645D01*
X11625044Y7262645D01*
X11625044Y7481090D01*
X12047096Y7481090D01*
G37*
G36*
X12176249Y6429192D02*
G01*
X12250672Y6420579D01*
X12317804Y6406975D01*
X12380101Y6388322D01*
X12435572Y6365639D01*
X12486302Y6338499D01*
X12530902Y6308011D01*
X12570826Y6273555D01*
X12605344Y6236014D01*
X12635168Y6194874D01*
X12680173Y6102701D01*
X12705582Y5996384D01*
X12710948Y5913417D01*
X12708059Y5854774D01*
X12699563Y5798649D01*
X12685617Y5744950D01*
X12666512Y5694238D01*
X12613407Y5602037D01*
X12541941Y5524147D01*
X12454041Y5462852D01*
X12404603Y5439141D01*
X12351960Y5420443D01*
X12296411Y5406998D01*
X12238214Y5399036D01*
X12184849Y5396752D01*
X12125416Y5399635D01*
X12068563Y5408088D01*
X12014090Y5421983D01*
X11962898Y5440964D01*
X11915177Y5464811D01*
X11871415Y5493170D01*
X11832165Y5525536D01*
X11797477Y5561766D01*
X11768070Y5600966D01*
X11743719Y5643348D01*
X11725051Y5687725D01*
X11711837Y5734621D01*
X11702713Y5821002D01*
X11705727Y5876446D01*
X11715101Y5927582D01*
X11715955Y5930178D01*
X11883331Y5930178D01*
X11886232Y5892217D01*
X11894813Y5856707D01*
X11908603Y5824444D01*
X11927531Y5795026D01*
X11980357Y5745509D01*
X12053749Y5709682D01*
X12148568Y5690650D01*
X12195290Y5688653D01*
X12245176Y5691513D01*
X12291077Y5699813D01*
X12332548Y5713074D01*
X12369452Y5730897D01*
X12401079Y5752537D01*
X12427677Y5777807D01*
X12448554Y5805662D01*
X12464061Y5836232D01*
X12473784Y5868451D01*
X12477833Y5902560D01*
X12477940Y5909204D01*
X12475054Y5944462D01*
X12466575Y5978025D01*
X12433210Y6039916D01*
X12378067Y6092900D01*
X12301399Y6133454D01*
X12255233Y6147710D01*
X12204925Y6157029D01*
X12138778Y6161171D01*
X12090139Y6158279D01*
X12046139Y6149761D01*
X12008733Y6136636D01*
X11975871Y6118826D01*
X11948698Y6097458D01*
X11926032Y6072122D01*
X11895045Y6011034D01*
X11883364Y5934811D01*
X11883331Y5930178D01*
X11715955Y5930178D01*
X11729175Y5970378D01*
X11749017Y6011542D01*
X11808264Y6093288D01*
X11820316Y6106583D01*
X11786794Y6135984D01*
X11366116Y5776855D01*
X11334185Y5746706D01*
X11306894Y5712916D01*
X11264829Y5633093D01*
X11246223Y5573157D01*
X11151701Y5573157D01*
X11151701Y5911311D01*
X11278552Y6031194D01*
X11400681Y6136400D01*
X11493420Y6207862D01*
X11584783Y6269891D01*
X11663413Y6315871D01*
X11741924Y6354431D01*
X11813781Y6382998D01*
X11886215Y6405152D01*
X11955595Y6420110D01*
X12026055Y6429124D01*
X12096921Y6432098D01*
X12176249Y6429192D01*
G37*
G36*
X11790641Y5127016D02*
G01*
X12023740Y5127016D01*
X12023740Y4484413D01*
X11790641Y4484413D01*
X11790641Y5127016D01*
G37*
G36*
X11151701Y3535896D02*
G01*
X11151701Y4123911D01*
X11357507Y4123911D01*
X11357507Y3991562D01*
X11354358Y3899181D01*
X11338639Y3832010D01*
X11357507Y3815249D01*
X11409354Y3826981D01*
X11561388Y3832010D01*
X12164424Y3832010D01*
X12394821Y3829915D01*
X12446676Y3824939D01*
X12481787Y3815249D01*
X12502761Y3832010D01*
X12492311Y3872270D01*
X12483537Y3991425D01*
X12481787Y4123911D01*
X12687501Y4123911D01*
X12687501Y3248209D01*
X12481787Y3248209D01*
X12484409Y3405448D01*
X12490636Y3485922D01*
X12502761Y3535896D01*
X12481787Y3550643D01*
X12376116Y3537896D01*
X12290545Y3535896D01*
X11151701Y3535896D01*
G37*
G36*
X11414201Y3022528D02*
G01*
X11414201Y2543690D01*
X11409221Y2429522D01*
X11397393Y2363860D01*
X11374359Y2291723D01*
X11414201Y2274871D01*
X11483023Y2339538D01*
X11546251Y2390794D01*
X11603337Y2428194D01*
X12687501Y3041396D01*
X12687501Y2701227D01*
X11374359Y2020797D01*
X11151701Y2020797D01*
X11151701Y3022528D01*
X11414201Y3022528D01*
G37*
G36*
X11134116Y1904293D02*
G01*
X12699224Y1469602D01*
X12699224Y1198676D01*
X11134116Y738797D01*
X11134116Y1022271D01*
X12128978Y1263797D01*
X12226848Y1284095D01*
X12327360Y1297593D01*
X12457790Y1303730D01*
X12457790Y1347786D01*
X12284629Y1358922D01*
X12128978Y1387719D01*
X11134116Y1629154D01*
X11134116Y1904293D01*
G37*
G36*
X3861826Y6331773D02*
G01*
X4141729Y6331773D01*
X4141729Y6194509D01*
X4137928Y6110550D01*
X4119381Y6009739D01*
X4238742Y6027396D01*
X4343473Y6029401D01*
X4592723Y6029401D01*
X4633135Y6110968D01*
X4661729Y6189128D01*
X4676388Y6253145D01*
X4682251Y6316353D01*
X4682360Y6326156D01*
X4678449Y6390871D01*
X4666702Y6450092D01*
X4648703Y6500361D01*
X4623879Y6546007D01*
X4555770Y6621973D01*
X4458644Y6682455D01*
X4324055Y6728123D01*
X4139625Y6756346D01*
X3968194Y6762984D01*
X3834291Y6759071D01*
X3712411Y6747311D01*
X3611858Y6729744D01*
X3521281Y6705618D01*
X3447053Y6677737D01*
X3381196Y6644312D01*
X3327455Y6608231D01*
X3280956Y6567324D01*
X3243275Y6523692D01*
X3212212Y6475624D01*
X3170175Y6367084D01*
X3154105Y6236973D01*
X3154011Y6225406D01*
X3157905Y6158466D01*
X3169534Y6095370D01*
X3188002Y6038306D01*
X3213516Y5985112D01*
X3284163Y5892144D01*
X3382529Y5815155D01*
X3430982Y5788577D01*
X3430982Y5640200D01*
X3005633Y5640200D01*
X2961633Y5726572D01*
X2926150Y5813580D01*
X2879390Y5989609D01*
X2860471Y6181777D01*
X2859942Y6222597D01*
X2863841Y6325296D01*
X2875500Y6422258D01*
X2893861Y6509588D01*
X2919222Y6591588D01*
X2950338Y6665734D01*
X2987904Y6734829D01*
X3030986Y6797678D01*
X3080194Y6855598D01*
X3196687Y6956418D01*
X3339726Y7038352D01*
X3513002Y7100839D01*
X3721074Y7141776D01*
X3968934Y7157731D01*
X3987734Y7157803D01*
X4124675Y7153913D01*
X4252317Y7142315D01*
X4364470Y7124327D01*
X4468009Y7099617D01*
X4557781Y7070185D01*
X4639635Y7034915D01*
X4709779Y6996183D01*
X4772620Y6952346D01*
X4825837Y6905667D01*
X4872191Y6854429D01*
X4910665Y6800188D01*
X4942469Y6741730D01*
X4985632Y6612926D01*
X5001430Y6465287D01*
X5001464Y6457803D01*
X4997537Y6377278D01*
X4985682Y6303228D01*
X4967658Y6240604D01*
X4942729Y6183157D01*
X4912298Y6132852D01*
X4875375Y6087025D01*
X4781475Y6008100D01*
X4766380Y5998504D01*
X4768090Y5953808D01*
X4970201Y5953808D01*
X4970201Y5640200D01*
X3861826Y5640200D01*
X3861826Y6331773D01*
G37*
G36*
X2899021Y5255151D02*
G01*
X4970201Y5255151D01*
X4970201Y4927621D01*
X3785134Y4927621D01*
X3530436Y4946371D01*
X3277109Y4983553D01*
X3277109Y4927621D01*
X3499658Y4863835D01*
X3648358Y4804401D01*
X4970201Y4219195D01*
X4970201Y3776871D01*
X2899021Y3776871D01*
X2899021Y4104401D01*
X4016921Y4104401D01*
X4270028Y4088727D01*
X4494293Y4053965D01*
X4494293Y4104401D01*
X4251745Y4190527D01*
X4069921Y4264013D01*
X2899021Y4779244D01*
X2899021Y5255151D01*
G37*
G36*
X4970201Y2988822D02*
G01*
X4962441Y2737237D01*
X4948408Y2620110D01*
X4923755Y2507718D01*
X4896759Y2426580D01*
X4861067Y2347314D01*
X4793857Y2238385D01*
X4742749Y2174247D01*
X4686674Y2116557D01*
X4561581Y2021455D01*
X4415344Y1949734D01*
X4242857Y1900410D01*
X4037208Y1874713D01*
X3927650Y1871655D01*
X3813608Y1875546D01*
X3705436Y1887150D01*
X3606837Y1905550D01*
X3513985Y1930936D01*
X3429818Y1962032D01*
X3351281Y1999488D01*
X3280382Y2041965D01*
X3215053Y2090310D01*
X3156458Y2143397D01*
X3103452Y2201993D01*
X3055069Y2267826D01*
X3014834Y2335386D01*
X2954923Y2479900D01*
X2917862Y2647947D01*
X2900727Y2863158D01*
X2899933Y2921655D01*
X3215438Y2921655D01*
X3219350Y2825963D01*
X3231105Y2737886D01*
X3248998Y2663119D01*
X3273653Y2594816D01*
X3303139Y2536269D01*
X3338684Y2483429D01*
X3379028Y2437546D01*
X3425122Y2397004D01*
X3535246Y2331583D01*
X3674238Y2286254D01*
X3849558Y2263023D01*
X3930459Y2260856D01*
X4041410Y2264768D01*
X4143013Y2276521D01*
X4228173Y2294260D01*
X4305492Y2318663D01*
X4370455Y2347392D01*
X4428664Y2381933D01*
X4477861Y2420264D01*
X4520963Y2463899D01*
X4588051Y2565298D01*
X4632336Y2689828D01*
X4652879Y2843535D01*
X4653906Y2890758D01*
X4651097Y3000057D01*
X3218247Y3000057D01*
X3215438Y2921655D01*
X2899933Y2921655D01*
X2899021Y2988822D01*
X2899021Y3389136D01*
X4970201Y3389136D01*
X4970201Y2988822D01*
G37*
G36*
X6545001Y29201314D02*
G01*
X5685266Y29201314D01*
X5685266Y29167608D01*
X5681005Y29079801D01*
X5666815Y28987914D01*
X5665726Y28982838D01*
X5770485Y28954907D01*
X5847199Y28918480D01*
X6545001Y28571289D01*
X6545001Y28112113D01*
X5819355Y28515235D01*
X5726311Y28583190D01*
X5634952Y28688892D01*
X5612481Y28688892D01*
X5575346Y28599292D01*
X5533519Y28519921D01*
X5491086Y28456314D01*
X5444511Y28401178D01*
X5397020Y28357178D01*
X5345712Y28320561D01*
X5292227Y28292079D01*
X5234987Y28270491D01*
X5107859Y28247832D01*
X5064278Y28246446D01*
X4986161Y28250345D01*
X4914025Y28262009D01*
X4851469Y28280045D01*
X4794042Y28304879D01*
X4743173Y28335409D01*
X4696968Y28372251D01*
X4617830Y28465326D01*
X4554428Y28588975D01*
X4507309Y28751118D01*
X4482986Y28935211D01*
X4767890Y28935211D01*
X4771669Y28884323D01*
X4782491Y28838695D01*
X4823027Y28761607D01*
X4887195Y28701863D01*
X4973912Y28660962D01*
X5077562Y28644181D01*
X5086626Y28644073D01*
X5157048Y28648000D01*
X5219319Y28659857D01*
X5268167Y28677205D01*
X5310923Y28701027D01*
X5345903Y28729573D01*
X5375752Y28764045D01*
X5421275Y28852745D01*
X5448837Y28977484D01*
X5455677Y29103250D01*
X5452991Y29201314D01*
X4767890Y29201314D01*
X4767890Y28935211D01*
X4482986Y28935211D01*
X4479402Y28962341D01*
X4473821Y29131216D01*
X4473821Y29590392D01*
X6545001Y29590392D01*
X6545001Y29201314D01*
G37*
G36*
X5867381Y27955201D02*
G01*
X5971385Y27943577D01*
X6062982Y27925507D01*
X6147692Y27900647D01*
X6221739Y27870777D01*
X6289353Y27834898D01*
X6348153Y27794828D01*
X6400834Y27749324D01*
X6446320Y27699659D01*
X6485792Y27644910D01*
X6546277Y27520615D01*
X6582227Y27373794D01*
X6591895Y27233937D01*
X6588001Y27133362D01*
X6576376Y27036297D01*
X6557607Y26945104D01*
X6531601Y26857961D01*
X6468797Y26716020D01*
X6157509Y26716020D01*
X6157509Y26847545D01*
X6209703Y26900945D01*
X6250717Y26955522D01*
X6277576Y27004807D01*
X6296565Y27056673D01*
X6311946Y27168091D01*
X6311993Y27175197D01*
X6308099Y27237128D01*
X6296473Y27295076D01*
X6278128Y27346733D01*
X6252817Y27394336D01*
X6183053Y27475355D01*
X6086002Y27539148D01*
X5958152Y27584373D01*
X5842802Y27603599D01*
X5842802Y26716020D01*
X5817798Y26714964D01*
X5666459Y26710403D01*
X5569590Y26714274D01*
X5479826Y26725737D01*
X5400549Y26743643D01*
X5327979Y26768124D01*
X5264573Y26797695D01*
X5207533Y26832993D01*
X5158209Y26872673D01*
X5115059Y26917450D01*
X5048040Y27020655D01*
X5005761Y27143616D01*
X4989722Y27288438D01*
X4989662Y27298418D01*
X4990053Y27306722D01*
X5219372Y27306722D01*
X5223281Y27257996D01*
X5235006Y27214286D01*
X5278025Y27144102D01*
X5352139Y27084089D01*
X5473669Y27027032D01*
X5646797Y26973575D01*
X5680381Y27007158D01*
X5647169Y27160468D01*
X5638371Y27320766D01*
X5642275Y27407093D01*
X5653975Y27492856D01*
X5680381Y27603599D01*
X5646797Y27637182D01*
X5507567Y27597051D01*
X5395696Y27552574D01*
X5338079Y27520071D01*
X5291826Y27483527D01*
X5262137Y27449601D01*
X5240231Y27411811D01*
X5220126Y27328778D01*
X5219372Y27306722D01*
X4990053Y27306722D01*
X4993544Y27380947D01*
X5005089Y27458544D01*
X5023381Y27528721D01*
X5048546Y27594052D01*
X5079644Y27653097D01*
X5117043Y27707291D01*
X5209546Y27800142D01*
X5326905Y27873267D01*
X5471298Y27925651D01*
X5645417Y27954591D01*
X5755974Y27959094D01*
X5867381Y27955201D01*
G37*
G36*
X5036557Y26557629D02*
G01*
X6545001Y26115183D01*
X6545001Y25787531D01*
X5036557Y25353634D01*
X5036557Y25714747D01*
X5940499Y25877168D01*
X6081745Y25899234D01*
X6226500Y25912798D01*
X6312603Y25916369D01*
X6312603Y25952762D01*
X6058776Y25984467D01*
X5963297Y26001729D01*
X5940499Y26006007D01*
X5036557Y26162810D01*
X5036557Y26557629D01*
G37*
G36*
X6545001Y24117277D02*
G01*
X6115133Y24024953D01*
X6115133Y23389311D01*
X6545001Y23294178D01*
X6545001Y22865776D01*
X4473821Y23476139D01*
X4473821Y23730884D01*
X4723071Y23730884D01*
X4723071Y23672144D01*
X4931558Y23642627D01*
X4963406Y23635752D01*
X5561435Y23506914D01*
X5714773Y23467423D01*
X5801535Y23439646D01*
X5874432Y23408972D01*
X5874432Y23994178D01*
X5780554Y23956084D01*
X5684387Y23925895D01*
X5606131Y23907350D01*
X4963406Y23767277D01*
X4963188Y23767231D01*
X4852542Y23745945D01*
X4723071Y23730884D01*
X4473821Y23730884D01*
X4473821Y23907350D01*
X6545001Y24498173D01*
X6545001Y24117277D01*
G37*
G36*
X24571894Y22425671D02*
G01*
X24955721Y22425671D01*
X25019993Y22301669D01*
X25068569Y22138915D01*
X25083900Y22046122D01*
X25091839Y21949168D01*
X25092864Y21899328D01*
X25088997Y21812655D01*
X25077563Y21730226D01*
X25059113Y21653364D01*
X25033780Y21581195D01*
X25002291Y21514897D01*
X24964568Y21453703D01*
X24921376Y21398493D01*
X24872536Y21348793D01*
X24818645Y21305133D01*
X24759613Y21267421D01*
X24695679Y21235921D01*
X24627040Y21210874D01*
X24475614Y21181069D01*
X24389811Y21176980D01*
X24311473Y21180829D01*
X24237477Y21192145D01*
X24168429Y21210459D01*
X24104153Y21235469D01*
X24045045Y21266734D01*
X23991157Y21303975D01*
X23899898Y21395124D01*
X23832120Y21506735D01*
X23790044Y21636728D01*
X23776273Y21776108D01*
X23791317Y21930445D01*
X23815473Y22025357D01*
X23776273Y22064558D01*
X23744176Y22044111D01*
X23713157Y22032398D01*
X23634123Y22025357D01*
X23458513Y22025357D01*
X23387041Y22030257D01*
X23351454Y22041895D01*
X23313554Y22064558D01*
X23274353Y22025357D01*
X23326997Y21923912D01*
X23355895Y21799786D01*
X23363868Y21658505D01*
X23363868Y21202137D01*
X23013868Y21202137D01*
X23013868Y22330539D01*
X24098307Y22330539D01*
X24098307Y22173735D01*
X24073874Y22096126D01*
X24059105Y22023079D01*
X24053366Y21944147D01*
X24057205Y21883938D01*
X24068444Y21827808D01*
X24086525Y21776491D01*
X24111091Y21729985D01*
X24141522Y21688927D01*
X24177557Y21653391D01*
X24218646Y21623851D01*
X24264509Y21600557D01*
X24314802Y21583876D01*
X24369088Y21574216D01*
X24414968Y21571798D01*
X24476365Y21575652D01*
X24532564Y21586995D01*
X24581708Y21604769D01*
X24625538Y21628941D01*
X24663096Y21658532D01*
X24695129Y21693700D01*
X24741850Y21779880D01*
X24764027Y21887981D01*
X24765334Y21924485D01*
X24761486Y21987298D01*
X24750185Y22045207D01*
X24732344Y22096547D01*
X24708101Y22142476D01*
X24678615Y22181699D01*
X24643673Y22215080D01*
X24571894Y22257754D01*
X24571894Y22425671D01*
G37*
G36*
X22990421Y20965588D02*
G01*
X25077232Y20385999D01*
X25077232Y20024764D01*
X22990421Y19411593D01*
X22990421Y19789558D01*
X24316904Y20111593D01*
X24447398Y20138657D01*
X24581413Y20156654D01*
X24755320Y20164837D01*
X24755320Y20223578D01*
X24524438Y20238426D01*
X24316904Y20276823D01*
X22990421Y20598735D01*
X22990421Y20965588D01*
G37*
G36*
X22941817Y18239349D02*
G01*
X25139758Y19222182D01*
X25139758Y18911383D01*
X22941817Y17928550D01*
X22941817Y18239349D01*
G37*
G36*
X23672714Y17302800D02*
G01*
X23581714Y17296850D01*
X23503265Y17283324D01*
X23445246Y17265372D01*
X23396717Y17241635D01*
X23361557Y17215665D01*
X23333892Y17185089D01*
X23302103Y17114784D01*
X23295725Y17056481D01*
X23299570Y17004819D01*
X23310859Y16958376D01*
X23328405Y16918792D01*
X23352167Y16884402D01*
X23416319Y16832294D01*
X23503650Y16802158D01*
X23575016Y16795996D01*
X23635583Y16799838D01*
X23693499Y16811099D01*
X23806761Y16856098D01*
X23926489Y16936436D01*
X24071098Y17069317D01*
X24180983Y17185197D01*
X24251037Y17262882D01*
X24407002Y17431655D01*
X24481520Y17502912D01*
X24556760Y17563849D01*
X24634995Y17613290D01*
X24718500Y17650061D01*
X24809548Y17672985D01*
X24910414Y17680888D01*
X25061601Y17680888D01*
X25061601Y16359290D01*
X24706105Y16359290D01*
X24706105Y16829701D01*
X24708410Y16975453D01*
X24720636Y17111146D01*
X24750749Y17239336D01*
X24806718Y17362582D01*
X24818090Y17381202D01*
X24770463Y17423212D01*
X24517620Y17105023D01*
X24284298Y16810040D01*
X24189373Y16702113D01*
X24094863Y16609503D01*
X24019847Y16547875D01*
X23943250Y16496308D01*
X23873897Y16459468D01*
X23802143Y16430813D01*
X23732125Y16411528D01*
X23659051Y16399768D01*
X23580512Y16395682D01*
X23507615Y16399560D01*
X23437654Y16411073D01*
X23371889Y16429759D01*
X23309864Y16455542D01*
X23252840Y16487714D01*
X23200286Y16526438D01*
X23153234Y16570891D01*
X23111335Y16621397D01*
X23075299Y16677248D01*
X23045102Y16738730D01*
X23021200Y16805459D01*
X23003869Y16877474D01*
X22990421Y17028393D01*
X22994326Y17122775D01*
X23006029Y17209817D01*
X23023940Y17284317D01*
X23048595Y17352429D01*
X23078151Y17411045D01*
X23113733Y17463920D01*
X23154084Y17509811D01*
X23200106Y17550266D01*
X23309512Y17615028D01*
X23446409Y17658898D01*
X23617180Y17679745D01*
X23672714Y17680888D01*
X23672714Y17302800D01*
G37*
G36*
X25061601Y15823054D02*
G01*
X24631733Y15730731D01*
X24631733Y15095089D01*
X25061601Y14999956D01*
X25061601Y14571554D01*
X22990421Y15181917D01*
X22990421Y15436662D01*
X23239671Y15436662D01*
X23239671Y15377922D01*
X23448158Y15348405D01*
X23480006Y15341530D01*
X24078035Y15212692D01*
X24231373Y15173201D01*
X24318135Y15145424D01*
X24391032Y15114750D01*
X24391032Y15699956D01*
X24297154Y15661862D01*
X24200987Y15631673D01*
X24122731Y15613128D01*
X23480006Y15473054D01*
X23479788Y15473009D01*
X23369142Y15451723D01*
X23239671Y15436662D01*
X22990421Y15436662D01*
X22990421Y15613128D01*
X25061601Y16203951D01*
X25061601Y15823054D01*
G37*
G36*
X24682167Y35991293D02*
G01*
X25045722Y35991293D01*
X25081321Y35890427D01*
X25108019Y35791827D01*
X25138346Y35593981D01*
X25143664Y35456523D01*
X25139805Y35362549D01*
X25128429Y35274289D01*
X25110271Y35193516D01*
X25085457Y35118601D01*
X25054944Y35051029D01*
X25018570Y34989432D01*
X24977311Y34934819D01*
X24930883Y34886321D01*
X24879986Y34844428D01*
X24824499Y34808869D01*
X24700511Y34757329D01*
X24559386Y34733022D01*
X24508999Y34731366D01*
X24428752Y34735296D01*
X24356188Y34747169D01*
X24297091Y34764847D01*
X24244062Y34789216D01*
X24179637Y34834925D01*
X24141093Y34873310D01*
X24107742Y34917625D01*
X24055751Y35026301D01*
X24025642Y35151342D01*
X23961162Y35151342D01*
X23943546Y35082961D01*
X23919562Y35021008D01*
X23890402Y34966997D01*
X23855857Y34919436D01*
X23817075Y34879233D01*
X23773739Y34845557D01*
X23675348Y34798654D01*
X23561521Y34779376D01*
X23542041Y34778994D01*
X23476907Y34782874D01*
X23415272Y34794403D01*
X23358657Y34812906D01*
X23305871Y34838402D01*
X23213500Y34909003D01*
X23138484Y35006116D01*
X23082560Y35131001D01*
X23049028Y35285290D01*
X23041221Y35417322D01*
X23056185Y35597859D01*
X23102512Y35790626D01*
X23158824Y35949283D01*
X23522502Y35949283D01*
X23522502Y35812141D01*
X23468723Y35759294D01*
X23424644Y35704444D01*
X23392469Y35651791D01*
X23368454Y35597070D01*
X23344944Y35484885D01*
X23343716Y35450906D01*
X23347529Y35397618D01*
X23358587Y35348312D01*
X23376452Y35303293D01*
X23400496Y35263466D01*
X23429916Y35229627D01*
X23464289Y35202056D01*
X23502270Y35181650D01*
X23543932Y35168364D01*
X23597851Y35162577D01*
X23646179Y35166485D01*
X23689924Y35178209D01*
X23726744Y35196267D01*
X23759599Y35221173D01*
X23813831Y35292109D01*
X23854493Y35399123D01*
X23878690Y35555583D01*
X23879951Y35574126D01*
X24182324Y35574126D01*
X24188029Y35478933D01*
X24201408Y35395152D01*
X24219664Y35330621D01*
X24244011Y35274959D01*
X24271264Y35232313D01*
X24303555Y35196870D01*
X24338778Y35169958D01*
X24378573Y35149473D01*
X24472883Y35127667D01*
X24508999Y35126185D01*
X24560062Y35130049D01*
X24608333Y35141465D01*
X24652850Y35159959D01*
X24693538Y35185349D01*
X24729601Y35217112D01*
X24760829Y35255164D01*
X24786639Y35299142D01*
X24806583Y35348881D01*
X24820166Y35404307D01*
X24826788Y35465027D01*
X24827369Y35490107D01*
X24812703Y35627549D01*
X24795132Y35688432D01*
X24771748Y35741714D01*
X24744716Y35784365D01*
X24713743Y35817974D01*
X24682167Y35840107D01*
X24682167Y35991293D01*
G37*
G36*
X23041221Y34525592D02*
G01*
X25128032Y33946003D01*
X25128032Y33584768D01*
X23041221Y32971597D01*
X23041221Y33349562D01*
X24367704Y33671597D01*
X24498198Y33698661D01*
X24632213Y33716658D01*
X24806120Y33724841D01*
X24806120Y33783582D01*
X24575238Y33798430D01*
X24367704Y33836827D01*
X23041221Y34158739D01*
X23041221Y34525592D01*
G37*
G36*
X24682167Y32765333D02*
G01*
X25045722Y32765333D01*
X25081321Y32664467D01*
X25108019Y32565867D01*
X25138346Y32368021D01*
X25143664Y32230564D01*
X25139805Y32136589D01*
X25128429Y32048330D01*
X25110271Y31967556D01*
X25085457Y31892642D01*
X25054944Y31825069D01*
X25018570Y31763473D01*
X24977311Y31708859D01*
X24930883Y31660362D01*
X24879986Y31618468D01*
X24824499Y31582910D01*
X24700511Y31531369D01*
X24559386Y31507063D01*
X24508999Y31505407D01*
X24428752Y31509336D01*
X24356188Y31521210D01*
X24297091Y31538887D01*
X24244062Y31563256D01*
X24179637Y31608966D01*
X24141093Y31647351D01*
X24107742Y31691666D01*
X24055751Y31800342D01*
X24025642Y31925382D01*
X23961162Y31925382D01*
X23943546Y31857001D01*
X23919562Y31795048D01*
X23890402Y31741037D01*
X23855857Y31693477D01*
X23817075Y31653273D01*
X23773739Y31619597D01*
X23675348Y31572694D01*
X23561521Y31553416D01*
X23542041Y31553034D01*
X23476907Y31556914D01*
X23415272Y31568444D01*
X23358657Y31586946D01*
X23305871Y31612442D01*
X23213500Y31683044D01*
X23138484Y31780157D01*
X23082560Y31905041D01*
X23049028Y32059331D01*
X23041221Y32191363D01*
X23056185Y32371899D01*
X23102512Y32564666D01*
X23158824Y32723324D01*
X23522502Y32723324D01*
X23522502Y32586181D01*
X23468723Y32533334D01*
X23424644Y32478484D01*
X23392469Y32425831D01*
X23368454Y32371110D01*
X23344944Y32258926D01*
X23343716Y32224946D01*
X23347529Y32171659D01*
X23358587Y32122352D01*
X23376452Y32077333D01*
X23400496Y32037506D01*
X23429916Y32003668D01*
X23464289Y31976096D01*
X23502270Y31955690D01*
X23543932Y31942404D01*
X23597851Y31936617D01*
X23646179Y31940525D01*
X23689924Y31952250D01*
X23726744Y31970307D01*
X23759599Y31995213D01*
X23813831Y32066149D01*
X23854493Y32173164D01*
X23878690Y32329623D01*
X23879951Y32348167D01*
X24182324Y32348167D01*
X24188029Y32252974D01*
X24201408Y32169193D01*
X24219664Y32104661D01*
X24244011Y32048999D01*
X24271264Y32006353D01*
X24303555Y31970910D01*
X24338778Y31943999D01*
X24378573Y31923514D01*
X24472883Y31901707D01*
X24508999Y31900225D01*
X24560062Y31904089D01*
X24608333Y31915505D01*
X24652850Y31934000D01*
X24693538Y31959389D01*
X24729601Y31991152D01*
X24760829Y32029204D01*
X24786639Y32073183D01*
X24806583Y32122922D01*
X24820166Y32178348D01*
X24826788Y32239068D01*
X24827369Y32264147D01*
X24812703Y32401589D01*
X24795132Y32462473D01*
X24771748Y32515754D01*
X24744716Y32558405D01*
X24713743Y32592014D01*
X24682167Y32614147D01*
X24682167Y32765333D01*
G37*
G36*
X22992617Y30244015D02*
G01*
X25190558Y31226848D01*
X25190558Y30916049D01*
X22992617Y29933216D01*
X22992617Y30244015D01*
G37*
G36*
X23064668Y28809088D02*
G01*
X23064668Y29593107D01*
X23339075Y29593107D01*
X23339075Y29416642D01*
X23334877Y29293467D01*
X23313918Y29203906D01*
X23339075Y29181558D01*
X23408206Y29197201D01*
X23610918Y29203906D01*
X24414965Y29203906D01*
X24722161Y29201113D01*
X24791301Y29194478D01*
X24838116Y29181558D01*
X24866082Y29203906D01*
X24852148Y29257586D01*
X24840449Y29416459D01*
X24838116Y29593107D01*
X25112401Y29593107D01*
X25112401Y28425504D01*
X24838116Y28425504D01*
X24841612Y28635156D01*
X24849914Y28742455D01*
X24866082Y28809088D01*
X24838116Y28828749D01*
X24697221Y28811754D01*
X24583126Y28809088D01*
X23064668Y28809088D01*
G37*
G36*
X25112401Y27827720D02*
G01*
X24682533Y27735396D01*
X24682533Y27099754D01*
X25112401Y27004622D01*
X25112401Y26576220D01*
X23041221Y27186583D01*
X23041221Y27441328D01*
X23290471Y27441328D01*
X23290471Y27382587D01*
X23498958Y27353070D01*
X23530806Y27346195D01*
X24128835Y27217357D01*
X24282173Y27177866D01*
X24368935Y27150089D01*
X24441832Y27119416D01*
X24441832Y27704622D01*
X24347954Y27666528D01*
X24251787Y27636338D01*
X24173531Y27617793D01*
X23530806Y27477720D01*
X23530588Y27477675D01*
X23419942Y27456388D01*
X23290471Y27441328D01*
X23041221Y27441328D01*
X23041221Y27617793D01*
X25112401Y28208617D01*
X25112401Y27827720D01*
G37*
D11*
%TO.C,G\u002A\u002A\u002A*%
G36*
X14756538Y33696335D02*
G01*
X15014337Y33452007D01*
X15180830Y33294162D01*
X15424409Y33063037D01*
X15649860Y32848864D01*
X15856142Y32652637D01*
X16042214Y32475354D01*
X16207033Y32318009D01*
X16349558Y32181600D01*
X16468749Y32067121D01*
X16563563Y31975569D01*
X16632958Y31907939D01*
X16675895Y31865227D01*
X16691330Y31848430D01*
X16682820Y31830513D01*
X16653500Y31786568D01*
X16606945Y31721994D01*
X16546877Y31641947D01*
X16477017Y31551582D01*
X16404322Y31457890D01*
X16276215Y31286398D01*
X16168009Y31130966D01*
X16074567Y30983695D01*
X15990751Y30836688D01*
X15911425Y30682047D01*
X15848062Y30545338D01*
X15716270Y30197071D01*
X15621021Y29839056D01*
X15562259Y29474369D01*
X15539928Y29106082D01*
X15553973Y28737271D01*
X15604337Y28371010D01*
X15690963Y28010372D01*
X15813797Y27658432D01*
X15972782Y27318264D01*
X16015683Y27240703D01*
X16107895Y27088498D01*
X16212357Y26930766D01*
X16323154Y26775651D01*
X16434370Y26631298D01*
X16540090Y26505850D01*
X16634397Y26407451D01*
X16649033Y26392953D01*
X16681956Y26354388D01*
X16695058Y26328996D01*
X16692349Y26322237D01*
X16670008Y26288585D01*
X16628757Y26233555D01*
X16573022Y26162955D01*
X16507228Y26082588D01*
X16280891Y25791545D01*
X16069781Y25472747D01*
X15896035Y25151983D01*
X15758692Y24827461D01*
X15656791Y24497393D01*
X15635582Y24409357D01*
X15602500Y24243081D01*
X15579574Y24075816D01*
X15565944Y23898148D01*
X15560746Y23700661D01*
X15563121Y23473939D01*
X15571863Y23254118D01*
X15591937Y23018439D01*
X15624698Y22803275D01*
X15672481Y22598932D01*
X15737620Y22395713D01*
X15822454Y22183921D01*
X15929316Y21953862D01*
X15970419Y21872297D01*
X16137143Y21578080D01*
X16331150Y21284409D01*
X16545122Y21002588D01*
X16562510Y20981224D01*
X16621579Y20908616D01*
X16669505Y20849648D01*
X16701746Y20809914D01*
X16713759Y20795005D01*
X16710381Y20791555D01*
X16683793Y20765670D01*
X16633128Y20716743D01*
X16561231Y20647500D01*
X16470944Y20560668D01*
X16365110Y20458974D01*
X16246572Y20345144D01*
X16118173Y20221905D01*
X15982757Y20091982D01*
X15843166Y19958103D01*
X15702244Y19822995D01*
X15562834Y19689382D01*
X15427778Y19559993D01*
X15299920Y19437553D01*
X15182102Y19324789D01*
X15077169Y19224428D01*
X14987962Y19139196D01*
X14917325Y19071819D01*
X14868102Y19025024D01*
X14737666Y18901444D01*
X14575178Y19103715D01*
X14483978Y19216333D01*
X14345307Y19382743D01*
X14222333Y19522616D01*
X14111044Y19639647D01*
X14007429Y19737530D01*
X13907476Y19819959D01*
X13807173Y19890630D01*
X13702508Y19953236D01*
X13589471Y20011471D01*
X13539177Y20034877D01*
X13283859Y20128374D01*
X13018872Y20186015D01*
X12748429Y20208215D01*
X12476743Y20195388D01*
X12208027Y20147949D01*
X11946492Y20066313D01*
X11696353Y19950893D01*
X11461822Y19802106D01*
X11436754Y19783120D01*
X11331535Y19693776D01*
X11213921Y19581325D01*
X11091241Y19453333D01*
X10970826Y19317364D01*
X10860004Y19180983D01*
X10852858Y19171733D01*
X10791718Y19092611D01*
X10737668Y19022679D01*
X10696340Y18969223D01*
X10673362Y18939526D01*
X10669060Y18934928D01*
X10660713Y18931285D01*
X10648469Y18933360D01*
X10630363Y18943009D01*
X10604432Y18962088D01*
X10568710Y18992456D01*
X10521233Y19035969D01*
X10460036Y19094485D01*
X10383155Y19169860D01*
X10288625Y19263951D01*
X10174482Y19378617D01*
X10038760Y19515713D01*
X9879496Y19677097D01*
X9694725Y19864626D01*
X8747925Y20825955D01*
X9006490Y20825955D01*
X9010815Y20820133D01*
X9038391Y20789661D01*
X9088905Y20735990D01*
X9159413Y20662134D01*
X9246966Y20571110D01*
X9348619Y20465933D01*
X9461425Y20349617D01*
X9582436Y20225179D01*
X9708707Y20095633D01*
X9837290Y19963995D01*
X9965240Y19833280D01*
X10089608Y19706503D01*
X10207449Y19586681D01*
X10315816Y19476827D01*
X10411762Y19379958D01*
X10492341Y19299089D01*
X10554606Y19237235D01*
X10595609Y19197411D01*
X10612405Y19182633D01*
X10615335Y19183326D01*
X10639024Y19203975D01*
X10680257Y19248704D01*
X10734173Y19312058D01*
X10795908Y19388579D01*
X10868049Y19476797D01*
X10954091Y19575940D01*
X11038484Y19667881D01*
X11110369Y19740469D01*
X11156924Y19783500D01*
X11386156Y19965544D01*
X11631392Y20115324D01*
X11889245Y20232572D01*
X12156328Y20317024D01*
X12429256Y20368412D01*
X12704641Y20386471D01*
X12979098Y20370935D01*
X13249239Y20321537D01*
X13511679Y20238012D01*
X13763030Y20120093D01*
X13999908Y19967515D01*
X14086077Y19898429D01*
X14213386Y19782698D01*
X14348876Y19646229D01*
X14485464Y19496238D01*
X14616066Y19339938D01*
X14656240Y19290209D01*
X14703901Y19233130D01*
X14738528Y19194000D01*
X14754543Y19179286D01*
X14755726Y19179938D01*
X14777486Y19198843D01*
X14824318Y19242086D01*
X14893695Y19307249D01*
X14983091Y19391913D01*
X15089978Y19493656D01*
X15211831Y19610060D01*
X15346122Y19738705D01*
X15490325Y19877172D01*
X15641913Y20023040D01*
X15798360Y20173889D01*
X15957140Y20327301D01*
X16115725Y20480856D01*
X16271589Y20632133D01*
X16465877Y20820947D01*
X16290493Y21053968D01*
X16245537Y21114438D01*
X16011684Y21457866D01*
X15815940Y21800005D01*
X15657514Y22143042D01*
X15535614Y22489161D01*
X15449450Y22840550D01*
X15398232Y23199393D01*
X15381169Y23567878D01*
X15385584Y23760459D01*
X15422956Y24147615D01*
X15498414Y24525489D01*
X15611978Y24894138D01*
X15763667Y25253616D01*
X15953499Y25603982D01*
X16181493Y25945291D01*
X16194293Y25962626D01*
X16258524Y26047195D01*
X16325103Y26131736D01*
X16381499Y26200271D01*
X16473586Y26308148D01*
X16337418Y26474866D01*
X16150157Y26720506D01*
X15945037Y27034163D01*
X15767393Y27358819D01*
X15620800Y27687830D01*
X15508832Y28014557D01*
X15449493Y28255016D01*
X15395869Y28596551D01*
X15372964Y28950211D01*
X15380847Y29308852D01*
X15419589Y29665328D01*
X15489259Y30012497D01*
X15565094Y30273753D01*
X15701717Y30628823D01*
X15874515Y30977224D01*
X16081728Y31315514D01*
X16321594Y31640247D01*
X16371842Y31704031D01*
X16416994Y31764695D01*
X16446570Y31808487D01*
X16455829Y31828750D01*
X16443930Y31842000D01*
X16406490Y31879699D01*
X16346736Y31938444D01*
X16267928Y32015065D01*
X16173330Y32106392D01*
X16066204Y32209256D01*
X15949811Y32320486D01*
X15904269Y32363910D01*
X15763616Y32498037D01*
X15616524Y32638323D01*
X15469959Y32778124D01*
X15330889Y32910795D01*
X15206280Y33029689D01*
X15103097Y33128161D01*
X14756538Y33458960D01*
X14701400Y33384635D01*
X14664668Y33335684D01*
X14468431Y33094151D01*
X14272453Y32888409D01*
X14072957Y32715800D01*
X13866164Y32573668D01*
X13648296Y32459354D01*
X13415575Y32370203D01*
X13164223Y32303556D01*
X13158500Y32302333D01*
X12860378Y32257287D01*
X12570357Y32250620D01*
X12288423Y32282335D01*
X12014563Y32352436D01*
X11748764Y32460926D01*
X11491013Y32607807D01*
X11241297Y32793085D01*
X11186814Y32842022D01*
X11106767Y32920618D01*
X11012919Y33017813D01*
X10911155Y33127372D01*
X10807358Y33243065D01*
X10707411Y33358658D01*
X10633274Y33446228D01*
X9946094Y32760431D01*
X9945168Y32759508D01*
X9804840Y32619168D01*
X9669266Y32483032D01*
X9541741Y32354447D01*
X9425565Y32236763D01*
X9324033Y32133327D01*
X9240443Y32047489D01*
X9178091Y31982597D01*
X9140275Y31942000D01*
X9021638Y31809365D01*
X9189061Y31588950D01*
X9424743Y31253104D01*
X9628687Y30904620D01*
X9794427Y30551255D01*
X9922453Y30191628D01*
X10013255Y29824361D01*
X10067320Y29448072D01*
X10085139Y29061383D01*
X10078430Y28816912D01*
X10049231Y28516234D01*
X9995133Y28224825D01*
X9914238Y27934872D01*
X9804651Y27638558D01*
X9664474Y27328071D01*
X9583151Y27168859D01*
X9440575Y26919512D01*
X9289787Y26688877D01*
X9137139Y26487082D01*
X9114894Y26459575D01*
X9069428Y26399848D01*
X9037901Y26353350D01*
X9026104Y26328362D01*
X9036483Y26305722D01*
X9066459Y26258545D01*
X9111303Y26194286D01*
X9166268Y26120006D01*
X9274689Y25972293D01*
X9490185Y25640546D01*
X9670022Y25302878D01*
X9816630Y24953820D01*
X9932443Y24587902D01*
X10019890Y24199654D01*
X10027549Y24154552D01*
X10038163Y24071893D01*
X10045826Y23977119D01*
X10050903Y23863459D01*
X10053760Y23724141D01*
X10054761Y23552395D01*
X10054502Y23454301D01*
X10050978Y23268687D01*
X10042178Y23108129D01*
X10026612Y22963055D01*
X10002788Y22823892D01*
X9969214Y22681068D01*
X9924400Y22525008D01*
X9866855Y22346140D01*
X9758732Y22054537D01*
X9586405Y21684483D01*
X9382505Y21337321D01*
X9147393Y21013719D01*
X9096004Y20948951D01*
X9049562Y20888532D01*
X9018080Y20845342D01*
X9006490Y20825955D01*
X8747925Y20825955D01*
X8745819Y20828093D01*
X8826025Y20907506D01*
X8859869Y20942150D01*
X8972069Y21070330D01*
X9091013Y21223566D01*
X9210808Y21393260D01*
X9325563Y21570813D01*
X9429388Y21747627D01*
X9516389Y21915102D01*
X9635429Y22190164D01*
X9755196Y22551339D01*
X9837440Y22918261D01*
X9882456Y23288785D01*
X9890539Y23660768D01*
X9861983Y24032065D01*
X9797083Y24400531D01*
X9696133Y24764024D01*
X9559429Y25120398D01*
X9387265Y25467510D01*
X9179936Y25803216D01*
X8937736Y26125370D01*
X8774818Y26322893D01*
X8931729Y26511659D01*
X9036750Y26642498D01*
X9272301Y26975680D01*
X9471209Y27319061D01*
X9633193Y27671281D01*
X9757970Y28030982D01*
X9845260Y28396803D01*
X9894782Y28767387D01*
X9906253Y29141373D01*
X9879394Y29517403D01*
X9813922Y29894117D01*
X9709556Y30270156D01*
X9701224Y30295060D01*
X9569768Y30626696D01*
X9401131Y30957019D01*
X9197159Y31282753D01*
X8959698Y31600622D01*
X8787468Y31813097D01*
X9715860Y32748035D01*
X9797998Y32830729D01*
X9951760Y32985395D01*
X10096197Y33130507D01*
X10229023Y33263777D01*
X10347949Y33382917D01*
X10450690Y33485640D01*
X10534958Y33569658D01*
X10598466Y33632684D01*
X10638929Y33672428D01*
X10654058Y33686605D01*
X10655496Y33686142D01*
X10674870Y33666492D01*
X10711972Y33622310D01*
X10762155Y33559268D01*
X10820776Y33483038D01*
X10897638Y33384663D01*
X11119520Y33133919D01*
X11350033Y32921272D01*
X11589408Y32746542D01*
X11837880Y32609552D01*
X12095680Y32510126D01*
X12149833Y32493847D01*
X12255091Y32465635D01*
X12350981Y32446601D01*
X12449630Y32435112D01*
X12563165Y32429535D01*
X12703711Y32428236D01*
X12831380Y32429571D01*
X12931875Y32433779D01*
X13014945Y32441933D01*
X13091512Y32455108D01*
X13172501Y32474379D01*
X13325791Y32520170D01*
X13572078Y32620775D01*
X13804841Y32752170D01*
X14026221Y32916022D01*
X14238362Y33113998D01*
X14443406Y33347766D01*
X14643496Y33618994D01*
X14719961Y33731001D01*
X14756538Y33696335D01*
G37*
G36*
X14896492Y32817284D02*
G01*
X14940750Y32775409D01*
X15009271Y32711221D01*
X15093610Y32632632D01*
X15187066Y32545886D01*
X15282938Y32457225D01*
X15358753Y32386903D01*
X15470861Y32281917D01*
X15582989Y32175919D01*
X15685469Y32078060D01*
X15768637Y31997489D01*
X15797364Y31969010D01*
X15864308Y31899795D01*
X15917094Y31841088D01*
X15950940Y31798368D01*
X15961061Y31777114D01*
X15949909Y31756903D01*
X15920642Y31708378D01*
X15876979Y31637802D01*
X15822464Y31550897D01*
X15760640Y31453388D01*
X15692072Y31343696D01*
X15504086Y31015341D01*
X15349481Y30696634D01*
X15226628Y30382319D01*
X15133898Y30067143D01*
X15069664Y29745851D01*
X15032297Y29413188D01*
X15020168Y29063901D01*
X15025873Y28810723D01*
X15056692Y28451582D01*
X15115668Y28110859D01*
X15204426Y27781696D01*
X15324588Y27457237D01*
X15477778Y27130623D01*
X15478171Y27129861D01*
X15543504Y27009130D01*
X15621032Y26875073D01*
X15704751Y26737345D01*
X15788656Y26605599D01*
X15866744Y26489489D01*
X15933010Y26398669D01*
X15957600Y26355832D01*
X15969425Y26309287D01*
X15969403Y26308502D01*
X15957496Y26275497D01*
X15926819Y26219103D01*
X15881889Y26147017D01*
X15827224Y26066940D01*
X15718082Y25907508D01*
X15516608Y25570962D01*
X15350776Y25227420D01*
X15218469Y24871558D01*
X15117572Y24498053D01*
X15045968Y24101584D01*
X15037300Y24023794D01*
X15028396Y23886597D01*
X15023467Y23727470D01*
X15022430Y23556450D01*
X15025202Y23383573D01*
X15031698Y23218876D01*
X15041835Y23072397D01*
X15055529Y22954171D01*
X15072192Y22852286D01*
X15150096Y22490033D01*
X15255739Y22144688D01*
X15391704Y21809660D01*
X15560574Y21478358D01*
X15764933Y21144192D01*
X15812032Y21071708D01*
X15866884Y20984044D01*
X15910489Y20910531D01*
X15939256Y20857271D01*
X15949593Y20830369D01*
X15937383Y20813406D01*
X15900067Y20772684D01*
X15841291Y20712073D01*
X15764749Y20635141D01*
X15674133Y20545457D01*
X15573138Y20446589D01*
X15465457Y20342105D01*
X15354782Y20235573D01*
X15244808Y20130562D01*
X15139227Y20030641D01*
X15041733Y19939377D01*
X14956019Y19860338D01*
X14885779Y19797094D01*
X14834705Y19753212D01*
X14782116Y19710091D01*
X14556166Y19929737D01*
X14551609Y19934162D01*
X14354046Y20114596D01*
X14162605Y20265345D01*
X13968479Y20392774D01*
X13762861Y20503252D01*
X13664872Y20549451D01*
X13473288Y20629217D01*
X13294431Y20686490D01*
X13117211Y20723897D01*
X12930539Y20744067D01*
X12723324Y20749628D01*
X12517139Y20743302D01*
X12315106Y20722641D01*
X12123175Y20685551D01*
X11927192Y20629903D01*
X11730058Y20557600D01*
X11486759Y20441484D01*
X11253473Y20297258D01*
X11024662Y20121403D01*
X10794786Y19910400D01*
X10592270Y19710068D01*
X10034747Y20261110D01*
X9993464Y20301964D01*
X9874325Y20420447D01*
X9765366Y20529661D01*
X9669556Y20626571D01*
X9589867Y20708145D01*
X9529268Y20771349D01*
X9490730Y20813148D01*
X9477224Y20830509D01*
X9482065Y20842434D01*
X9505628Y20881747D01*
X9544334Y20939849D01*
X9593211Y21009086D01*
X9755296Y21246071D01*
X9964923Y21604068D01*
X10135941Y21967583D01*
X10265972Y22330025D01*
X11438614Y22330025D01*
X11438614Y22146847D01*
X11438614Y21963669D01*
X12517379Y21963669D01*
X13596143Y21963669D01*
X13596143Y21463515D01*
X13596143Y20963360D01*
X13831510Y20963360D01*
X14066877Y20963360D01*
X14066877Y21659654D01*
X14066877Y22355947D01*
X13297031Y22355909D01*
X13162435Y22355725D01*
X12952529Y22354860D01*
X12735622Y22353367D01*
X12520960Y22351339D01*
X12317789Y22348865D01*
X12135353Y22346038D01*
X11982900Y22342948D01*
X11438614Y22330025D01*
X10265972Y22330025D01*
X10268567Y22337257D01*
X10363020Y22713733D01*
X10419519Y23097652D01*
X10438281Y23489654D01*
X10431125Y23768832D01*
X10396724Y24142010D01*
X10379421Y24238881D01*
X11438614Y24238881D01*
X11438614Y23542588D01*
X11438614Y22846295D01*
X11673981Y22846295D01*
X11909348Y22846295D01*
X11909348Y23101275D01*
X11909348Y23356256D01*
X12988112Y23356256D01*
X14066877Y23356256D01*
X14066877Y23542588D01*
X14066877Y23728920D01*
X12988112Y23728920D01*
X11909348Y23728920D01*
X11909348Y23983901D01*
X11909348Y24238881D01*
X11673981Y24238881D01*
X11438614Y24238881D01*
X10379421Y24238881D01*
X10332637Y24500799D01*
X10237493Y24849272D01*
X10109920Y25191507D01*
X10035603Y25348119D01*
X11458659Y25348119D01*
X11459737Y25225092D01*
X11464353Y25105899D01*
X11474065Y25014472D01*
X11490434Y24944551D01*
X11515022Y24889879D01*
X11549391Y24844196D01*
X11595102Y24801243D01*
X11640430Y24766196D01*
X11673981Y24747015D01*
X11708803Y24727108D01*
X11787114Y24700869D01*
X11885056Y24684551D01*
X12012321Y24675228D01*
X12223170Y24665348D01*
X12223170Y24861424D01*
X12223170Y25057500D01*
X12141509Y25068453D01*
X12128827Y25070497D01*
X12062394Y25089773D01*
X12009115Y25117225D01*
X12003325Y25121608D01*
X11982233Y25141081D01*
X11968633Y25165801D01*
X11960522Y25204262D01*
X11955901Y25264958D01*
X11952767Y25356384D01*
X11951739Y25409639D01*
X11954450Y25510381D01*
X11966159Y25579713D01*
X11989053Y25622818D01*
X12025320Y25644880D01*
X12077148Y25651082D01*
X12104985Y25650032D01*
X12181103Y25634708D01*
X12255822Y25598753D01*
X12332634Y25539135D01*
X12415029Y25452823D01*
X12506501Y25336785D01*
X12610541Y25187989D01*
X12644205Y25138643D01*
X12757465Y24986609D01*
X12863065Y24868537D01*
X12963761Y24781593D01*
X13062307Y24722938D01*
X13070143Y24719372D01*
X13113984Y24702307D01*
X13160819Y24690993D01*
X13219699Y24684325D01*
X13299679Y24681198D01*
X13409811Y24680506D01*
X13487597Y24680845D01*
X13573206Y24682838D01*
X13635876Y24687880D01*
X13685230Y24697392D01*
X13730889Y24712794D01*
X13782475Y24735506D01*
X13830825Y24759576D01*
X13938321Y24830988D01*
X14012559Y24913685D01*
X14057607Y25011752D01*
X14059398Y25018025D01*
X14074345Y25100247D01*
X14082546Y25214983D01*
X14084235Y25365337D01*
X14083737Y25407880D01*
X14078803Y25557134D01*
X14067425Y25674521D01*
X14047249Y25765815D01*
X14015922Y25836791D01*
X13971092Y25893221D01*
X13910405Y25940881D01*
X13831510Y25985545D01*
X13827224Y25987697D01*
X13775373Y26009186D01*
X13715991Y26023697D01*
X13638518Y26033129D01*
X13532398Y26039384D01*
X13321548Y26048399D01*
X13321548Y25852247D01*
X13321548Y25656096D01*
X13399366Y25643652D01*
X13454784Y25632937D01*
X13527993Y25607171D01*
X13576359Y25567073D01*
X13603471Y25506775D01*
X13612918Y25420412D01*
X13608289Y25302115D01*
X13607540Y25292738D01*
X13597242Y25204079D01*
X13583616Y25138807D01*
X13568270Y25104842D01*
X13558340Y25097020D01*
X13506222Y25077228D01*
X13435855Y25067297D01*
X13362647Y25068535D01*
X13302006Y25082250D01*
X13288997Y25088377D01*
X13241121Y25122194D01*
X13185256Y25178589D01*
X13118869Y25260616D01*
X13039430Y25371330D01*
X12944409Y25513785D01*
X12831289Y25674645D01*
X12710744Y25816328D01*
X12594305Y25921558D01*
X12483069Y25989203D01*
X12427472Y26009721D01*
X12361970Y26023954D01*
X12276947Y26033349D01*
X12162568Y26039447D01*
X12080355Y26040987D01*
X11909847Y26031116D01*
X11770107Y26001396D01*
X11658376Y25950744D01*
X11571897Y25878077D01*
X11507912Y25782311D01*
X11493524Y25752431D01*
X11479289Y25716597D01*
X11469521Y25677818D01*
X11463398Y25628836D01*
X11460095Y25562397D01*
X11458789Y25471243D01*
X11458659Y25348119D01*
X10035603Y25348119D01*
X9948546Y25531579D01*
X9752000Y25873562D01*
X9518911Y26221533D01*
X9454649Y26311443D01*
X9564638Y26464746D01*
X9799483Y26820961D01*
X9820303Y26859171D01*
X11419000Y26859171D01*
X11419000Y26747926D01*
X11419794Y26703837D01*
X11424043Y26631461D01*
X11430735Y26578004D01*
X11442471Y26519328D01*
X11538100Y26555664D01*
X11589480Y26573683D01*
X11634527Y26581907D01*
X11682601Y26577830D01*
X11750973Y26561963D01*
X11776596Y26556223D01*
X11815357Y26550128D01*
X11864644Y26545236D01*
X11928046Y26541463D01*
X12009149Y26538728D01*
X12111541Y26536947D01*
X12238808Y26536038D01*
X12394537Y26535919D01*
X12582316Y26536507D01*
X12805733Y26537721D01*
X13321548Y26540909D01*
X13743247Y26543515D01*
X13841317Y26593935D01*
X13841696Y26594130D01*
X13928861Y26653549D01*
X13998228Y26727934D01*
X14019066Y26758652D01*
X14037197Y26792283D01*
X14048956Y26829943D01*
X14056100Y26880430D01*
X14060386Y26952543D01*
X14063573Y27055081D01*
X14063813Y27064468D01*
X14064939Y27155759D01*
X14063743Y27230181D01*
X14060474Y27280292D01*
X14055383Y27298650D01*
X14055287Y27298648D01*
X14031694Y27291952D01*
X13979226Y27274083D01*
X13905571Y27247733D01*
X13818416Y27215598D01*
X13817166Y27215131D01*
X13724208Y27180079D01*
X13661834Y27154630D01*
X13623942Y27134720D01*
X13604431Y27116287D01*
X13597198Y27095269D01*
X13596143Y27067603D01*
X13589129Y27020905D01*
X13548000Y26954515D01*
X13499857Y26906372D01*
X13003714Y26906968D01*
X12916998Y26907277D01*
X12780457Y26908794D01*
X12671265Y26911448D01*
X12592391Y26915124D01*
X12546803Y26919706D01*
X12537469Y26925079D01*
X12554473Y26932655D01*
X12606622Y26953503D01*
X12689899Y26985742D01*
X12801102Y27028167D01*
X12937034Y27079573D01*
X13094495Y27138754D01*
X13270286Y27204506D01*
X13461207Y27275622D01*
X13664058Y27350899D01*
X13875641Y27429131D01*
X14066877Y27499712D01*
X14066877Y27675874D01*
X14066707Y27721244D01*
X14064837Y27788372D01*
X14059874Y27826136D01*
X14050560Y27841155D01*
X14035634Y27840047D01*
X13993198Y27825890D01*
X13933521Y27817099D01*
X13867029Y27824055D01*
X13779347Y27847156D01*
X13762911Y27852075D01*
X13730829Y27860836D01*
X13697441Y27868024D01*
X13658954Y27873766D01*
X13611577Y27878189D01*
X13551517Y27881421D01*
X13474984Y27883588D01*
X13378183Y27884818D01*
X13257325Y27885237D01*
X13108615Y27884972D01*
X12928264Y27884151D01*
X12712477Y27882900D01*
X11781857Y27877260D01*
X11670507Y27825061D01*
X11646147Y27813080D01*
X11563743Y27758569D01*
X11503789Y27689244D01*
X11500398Y27684105D01*
X11479226Y27649544D01*
X11464480Y27616135D01*
X11454752Y27575803D01*
X11448633Y27520474D01*
X11444716Y27442072D01*
X11441593Y27332522D01*
X11441240Y27318315D01*
X11439012Y27214291D01*
X11438798Y27143065D01*
X11441243Y27098884D01*
X11446996Y27075998D01*
X11456704Y27068652D01*
X11471014Y27071096D01*
X11491594Y27078269D01*
X11544999Y27097788D01*
X11618755Y27125263D01*
X11703402Y27157190D01*
X11729802Y27167239D01*
X11808388Y27198271D01*
X11858503Y27221631D01*
X11886837Y27241715D01*
X11900079Y27262921D01*
X11904919Y27289645D01*
X11905401Y27294748D01*
X11917464Y27377451D01*
X11937182Y27433739D01*
X11968688Y27475674D01*
X11978998Y27484922D01*
X11994841Y27494187D01*
X12018272Y27501248D01*
X12053811Y27506385D01*
X12105977Y27509879D01*
X12179291Y27512009D01*
X12278272Y27513055D01*
X12407441Y27513298D01*
X12571317Y27513017D01*
X12597761Y27512952D01*
X12755236Y27512474D01*
X12877640Y27511747D01*
X12968596Y27510502D01*
X13031726Y27508474D01*
X13070652Y27505395D01*
X13088996Y27500998D01*
X13090381Y27495015D01*
X13078428Y27487181D01*
X13056761Y27477227D01*
X13044210Y27472000D01*
X12993047Y27451804D01*
X12911505Y27420330D01*
X12803885Y27379211D01*
X12674488Y27330083D01*
X12527617Y27274581D01*
X12367571Y27214340D01*
X12198653Y27150996D01*
X11419000Y26859171D01*
X9820303Y26859171D01*
X10002247Y27193093D01*
X10166505Y27572097D01*
X10292208Y27957794D01*
X10379309Y28350008D01*
X10419835Y28683374D01*
X11415298Y28683374D01*
X11422052Y28522211D01*
X11423187Y28497858D01*
X11427975Y28426165D01*
X11433669Y28373757D01*
X11439268Y28350597D01*
X11445211Y28351004D01*
X11482310Y28361494D01*
X11549336Y28383539D01*
X11641807Y28415573D01*
X11755240Y28456030D01*
X11885155Y28503344D01*
X12027067Y28555949D01*
X12604406Y28771750D01*
X13257325Y28568502D01*
X13311124Y28551755D01*
X13329066Y28546169D01*
X13487792Y28496726D01*
X13634697Y28450913D01*
X13765509Y28410066D01*
X13875954Y28375522D01*
X13961759Y28348616D01*
X14018652Y28330686D01*
X14042359Y28323068D01*
X14050649Y28323891D01*
X14060181Y28345248D01*
X14065332Y28395786D01*
X14066877Y28480479D01*
X14066877Y28646582D01*
X13640274Y28798527D01*
X13618988Y28806108D01*
X13474650Y28857582D01*
X13363212Y28897730D01*
X13281095Y28928213D01*
X13224725Y28950691D01*
X13190523Y28966826D01*
X13174913Y28978277D01*
X13174318Y28986706D01*
X13185161Y28993772D01*
X13203865Y29001138D01*
X13219310Y29006907D01*
X13271447Y29026259D01*
X13348531Y29054793D01*
X13442954Y29089694D01*
X13547108Y29128147D01*
X13596016Y29146205D01*
X13706648Y29187130D01*
X13809702Y29225349D01*
X13895433Y29257245D01*
X13954097Y29279202D01*
X14066877Y29321700D01*
X14066877Y29496816D01*
X14066624Y29534964D01*
X14064607Y29605199D01*
X14061013Y29653784D01*
X14056368Y29671932D01*
X14056222Y29671918D01*
X14034559Y29664653D01*
X13980517Y29645116D01*
X13898222Y29614838D01*
X13791804Y29575351D01*
X13665390Y29528186D01*
X13523110Y29474876D01*
X13369090Y29416951D01*
X13365771Y29415700D01*
X13210809Y29357668D01*
X13066631Y29304318D01*
X12937548Y29257199D01*
X12827873Y29217857D01*
X12741919Y29187840D01*
X12683997Y29168696D01*
X12658420Y29161970D01*
X12649768Y29163463D01*
X12606821Y29175128D01*
X12533831Y29197109D01*
X12435568Y29227904D01*
X12316801Y29266005D01*
X12182302Y29309909D01*
X12036838Y29358109D01*
X11961593Y29383179D01*
X11822636Y29429237D01*
X11697923Y29470264D01*
X11592043Y29504770D01*
X11509584Y29531264D01*
X11455135Y29548254D01*
X11433285Y29554248D01*
X11430797Y29552133D01*
X11425031Y29523062D01*
X11422277Y29467010D01*
X11423110Y29393116D01*
X11428807Y29231983D01*
X11762243Y29102504D01*
X11863545Y29062275D01*
X11956273Y29023622D01*
X12029505Y28991109D01*
X12077499Y28967290D01*
X12094515Y28954717D01*
X12077352Y28942768D01*
X12028965Y28919774D01*
X11955140Y28888320D01*
X11861664Y28850872D01*
X11754324Y28809892D01*
X11415298Y28683374D01*
X10419835Y28683374D01*
X10427760Y28748562D01*
X10437511Y29153278D01*
X10408515Y29563980D01*
X10385987Y29727352D01*
X10320896Y30047915D01*
X10227150Y30367869D01*
X10102752Y30693546D01*
X9945703Y31031283D01*
X9934498Y31053376D01*
X9875556Y31165148D01*
X9810205Y31283129D01*
X9789230Y31319499D01*
X11438614Y31319499D01*
X11438614Y31113553D01*
X11438614Y30907607D01*
X11923077Y30907607D01*
X12008283Y30907380D01*
X12139742Y30905970D01*
X12247386Y30903395D01*
X12327363Y30899801D01*
X12375821Y30895331D01*
X12388907Y30890130D01*
X12374845Y30881084D01*
X12329521Y30855278D01*
X12258167Y30816056D01*
X12165718Y30766099D01*
X12057110Y30708090D01*
X11937276Y30644709D01*
X11845993Y30596502D01*
X11732349Y30536038D01*
X11632842Y30482587D01*
X11552629Y30438940D01*
X11496866Y30407887D01*
X11470709Y30392220D01*
X11461117Y30383571D01*
X11449274Y30361256D01*
X11442918Y30323151D01*
X11441077Y30261472D01*
X11442780Y30168434D01*
X11448421Y29969194D01*
X12081369Y30262145D01*
X12714318Y30555095D01*
X13375887Y30268254D01*
X13379992Y30266475D01*
X13530799Y30201021D01*
X13670169Y30140410D01*
X13794007Y30086430D01*
X13898220Y30040871D01*
X13978713Y30005523D01*
X14031393Y29982176D01*
X14052166Y29972619D01*
X14056368Y29981194D01*
X14057297Y29983090D01*
X14062261Y30025410D01*
X14065633Y30092984D01*
X14066877Y30178300D01*
X14066877Y30392775D01*
X13547629Y30635481D01*
X13510672Y30652792D01*
X13381686Y30713807D01*
X13266211Y30769344D01*
X13168669Y30817211D01*
X13093482Y30855219D01*
X13045072Y30881178D01*
X13027861Y30892897D01*
X13045828Y30896739D01*
X13098010Y30900267D01*
X13179324Y30903262D01*
X13284674Y30905580D01*
X13408967Y30907076D01*
X13547108Y30907607D01*
X14066877Y30907607D01*
X14066877Y31113553D01*
X14066877Y31319499D01*
X12752745Y31319499D01*
X11438614Y31319499D01*
X9789230Y31319499D01*
X9742526Y31400481D01*
X9676604Y31510368D01*
X9616521Y31605956D01*
X9566361Y31680407D01*
X9530207Y31726887D01*
X9489250Y31771417D01*
X10049392Y32332550D01*
X10609533Y32893683D01*
X10823031Y32679300D01*
X11048258Y32475266D01*
X11308702Y32287714D01*
X11584769Y32136057D01*
X11875754Y32020568D01*
X12180957Y31941523D01*
X12499673Y31899197D01*
X12752745Y31895127D01*
X12831201Y31893865D01*
X13073429Y31912970D01*
X13341603Y31960523D01*
X13594727Y32037004D01*
X13837103Y32144367D01*
X14073030Y32284563D01*
X14306808Y32459547D01*
X14542738Y32671272D01*
X14794446Y32914860D01*
X14896492Y32817284D01*
G37*
%TO.C,J8*%
D10*
X-664643Y8524000D02*
X-664643Y-4836000D01*
X-664643Y-7436000D02*
X-664643Y-16076000D01*
X-664643Y-16076000D02*
X16135357Y-16076000D01*
X35357Y-4836000D02*
X-664643Y-4836000D01*
X35357Y-7436000D02*
X-664643Y-7436000D01*
X7535357Y-4836000D02*
X7935358Y-4836000D01*
X7535357Y-7436000D02*
X7935357Y-7436000D01*
X7735357Y8524000D02*
X7735357Y-16076000D01*
X15435357Y-4836001D02*
X16135357Y-4836000D01*
X15435357Y-7436000D02*
X16135357Y-7436000D01*
X16135357Y8524000D02*
X-664643Y8524000D01*
X16135357Y8524000D02*
X16135357Y-4836000D01*
X16135357Y-7436000D02*
X16135357Y-16076000D01*
X35357Y-4836000D02*
G75*
G02*
X35357Y-7436000I0J-1300000D01*
G01*
X7535357Y-7436000D02*
G75*
G02*
X7535357Y-4836000I0J1300000D01*
G01*
X7935358Y-4836000D02*
G75*
G02*
X7935357Y-7436000I-1J-1300000D01*
G01*
X15435357Y-7436000D02*
G75*
G02*
X15435357Y-4836000I0J1300000D01*
G01*
%TD*%
%LPC*%
D12*
%TO.C,C8*%
X24277002Y47117000D03*
D13*
X26777002Y47117000D03*
%TD*%
D14*
%TO.C,J1*%
X4547001Y48895000D03*
X2007001Y48895000D03*
D15*
X4547001Y46355000D03*
D16*
X2007001Y46355000D03*
%TD*%
D17*
%TO.C,D1*%
X19317000Y8363999D03*
D18*
X19317000Y10903999D03*
%TD*%
D12*
%TO.C,C5*%
X9194801Y47117000D03*
D13*
X11694801Y47117000D03*
%TD*%
D19*
%TO.C,RV1*%
X2107001Y36659000D03*
X4647001Y34119000D03*
X2107001Y31579001D03*
%TD*%
D17*
%TO.C,D3*%
X18034000Y33934400D03*
D18*
X20574000Y33934400D03*
%TD*%
D20*
%TO.C,SW2*%
X19242000Y2434000D03*
D21*
X21242000Y2434000D03*
X23242000Y2434000D03*
D22*
X17142000Y2434000D03*
X25342000Y2434000D03*
%TD*%
D23*
%TO.C,SW1*%
X2167000Y25383999D03*
X2167000Y21383999D03*
X2167000Y19383999D03*
X2167000Y17383999D03*
D24*
X2167000Y27483999D03*
X2167000Y15284000D03*
%TD*%
D25*
%TO.C,J8*%
X11685358Y12064000D03*
D26*
X3785357Y12064000D03*
%TD*%
D12*
%TO.C,C7*%
X16735902Y47117000D03*
D13*
X19235902Y47117000D03*
%TD*%
D17*
%TO.C,D2*%
X19317000Y16429001D03*
D18*
X19317000Y13889001D03*
%TD*%
D27*
%TO.C,J9*%
X6985001Y40935154D03*
D28*
X4445001Y40935154D03*
X1905002Y40935154D03*
%TD*%
D29*
%TO.C,J5*%
X30607001Y4699000D03*
X30607001Y2159000D03*
X33147001Y4699000D03*
X33147001Y2159000D03*
X35687001Y4699000D03*
X35687001Y2159000D03*
X38227001Y4699000D03*
X38227001Y2159000D03*
%TD*%
%TO.C,J6*%
X30607001Y48387000D03*
X30607001Y45847000D03*
X33147001Y48387000D03*
X33147001Y45847000D03*
X35687001Y48387000D03*
X35687001Y45847000D03*
X38227001Y48387000D03*
X38227001Y45847000D03*
%TD*%
%LPD*%
M02*
