%TF.GenerationSoftware,KiCad,Pcbnew,10.0.0*%
%TF.CreationDate,2026-08-18T13:50:20-04:00*%
%TF.ProjectId,PWR_RPM5.0_AP2114,5057525f-5250-44d3-952e-305f41503231,rev?*%
%TF.SameCoordinates,PX9610427PY6ca4418*%
%TF.FileFunction,Copper,L1,Top*%
%TF.FilePolarity,Positive*%
%FSLAX46Y46*%
G04 Gerber Fmt 4.6, Leading zero omitted, Abs format (unit mm)*
G04 Created by KiCad (PCBNEW 10.0.0) date 2026-08-18 13:50:20*
%MOMM*%
%LPD*%
G01*
G04 APERTURE LIST*
G04 Aperture macros list*
%AMRoundRect*
0 Rectangle with rounded corners*
0 $1 Rounding radius*
0 $2 $3 $4 $5 $6 $7 $8 $9 X,Y pos of 4 corners*
0 Add a 4 corners polygon primitive as box body*
4,1,4,$2,$3,$4,$5,$6,$7,$8,$9,$2,$3,0*
0 Add four circle primitives for the rounded corners*
1,1,$1+$1,$2,$3*
1,1,$1+$1,$4,$5*
1,1,$1+$1,$6,$7*
1,1,$1+$1,$8,$9*
0 Add four rect primitives between the rounded corners*
20,1,$1+$1,$2,$3,$4,$5,0*
20,1,$1+$1,$4,$5,$6,$7,0*
20,1,$1+$1,$6,$7,$8,$9,0*
20,1,$1+$1,$8,$9,$2,$3,0*%
G04 Aperture macros list end*
%TA.AperFunction,SMDPad,CuDef*%
%ADD10RoundRect,0.135000X0.185000X-0.135000X0.185000X0.135000X-0.185000X0.135000X-0.185000X-0.135000X0*%
%TD*%
%TA.AperFunction,ComponentPad*%
%ADD11RoundRect,0.250000X-0.550000X-0.550000X0.550000X-0.550000X0.550000X0.550000X-0.550000X0.550000X0*%
%TD*%
%TA.AperFunction,ComponentPad*%
%ADD12C,1.600000*%
%TD*%
%TA.AperFunction,ComponentPad*%
%ADD13RoundRect,0.249999X0.850001X0.850001X-0.850001X0.850001X-0.850001X-0.850001X0.850001X-0.850001X0*%
%TD*%
%TA.AperFunction,ComponentPad*%
%ADD14C,2.200000*%
%TD*%
%TA.AperFunction,ComponentPad*%
%ADD15R,1.800000X1.800000*%
%TD*%
%TA.AperFunction,ComponentPad*%
%ADD16C,1.800000*%
%TD*%
%TA.AperFunction,SMDPad,CuDef*%
%ADD17R,1.060000X1.060000*%
%TD*%
%TA.AperFunction,SMDPad,CuDef*%
%ADD18RoundRect,0.250000X-0.650000X0.412500X-0.650000X-0.412500X0.650000X-0.412500X0.650000X0.412500X0*%
%TD*%
%TA.AperFunction,ComponentPad*%
%ADD19C,1.440000*%
%TD*%
%TA.AperFunction,SMDPad,CuDef*%
%ADD20RoundRect,0.135000X-0.135000X-0.185000X0.135000X-0.185000X0.135000X0.185000X-0.135000X0.185000X0*%
%TD*%
%TA.AperFunction,SMDPad,CuDef*%
%ADD21RoundRect,0.225000X0.225000X0.250000X-0.225000X0.250000X-0.225000X-0.250000X0.225000X-0.250000X0*%
%TD*%
%TA.AperFunction,SMDPad,CuDef*%
%ADD22RoundRect,0.225000X-0.225000X-0.250000X0.225000X-0.250000X0.225000X0.250000X-0.225000X0.250000X0*%
%TD*%
%TA.AperFunction,SMDPad,CuDef*%
%ADD23RoundRect,0.135000X0.135000X0.185000X-0.135000X0.185000X-0.135000X-0.185000X0.135000X-0.185000X0*%
%TD*%
%TA.AperFunction,ComponentPad*%
%ADD24R,1.500000X2.500000*%
%TD*%
%TA.AperFunction,ComponentPad*%
%ADD25O,1.500000X2.500000*%
%TD*%
%TA.AperFunction,ComponentPad*%
%ADD26O,2.200000X3.500000*%
%TD*%
%TA.AperFunction,ComponentPad*%
%ADD27C,1.300000*%
%TD*%
%TA.AperFunction,ComponentPad*%
%ADD28C,2.250000*%
%TD*%
%TA.AperFunction,SMDPad,CuDef*%
%ADD29RoundRect,0.375000X0.625000X0.375000X-0.625000X0.375000X-0.625000X-0.375000X0.625000X-0.375000X0*%
%TD*%
%TA.AperFunction,SMDPad,CuDef*%
%ADD30RoundRect,0.500000X0.500000X1.400000X-0.500000X1.400000X-0.500000X-1.400000X0.500000X-1.400000X0*%
%TD*%
%TA.AperFunction,ComponentPad*%
%ADD31O,6.540000X3.270000*%
%TD*%
%TA.AperFunction,ComponentPad*%
%ADD32R,6.540000X3.270000*%
%TD*%
%TA.AperFunction,SMDPad,CuDef*%
%ADD33RoundRect,0.250000X0.412500X0.650000X-0.412500X0.650000X-0.412500X-0.650000X0.412500X-0.650000X0*%
%TD*%
%TA.AperFunction,ComponentPad*%
%ADD34R,1.700000X1.700000*%
%TD*%
%TA.AperFunction,ComponentPad*%
%ADD35C,1.700000*%
%TD*%
%TA.AperFunction,SMDPad,CuDef*%
%ADD36RoundRect,0.135000X-0.185000X0.135000X-0.185000X-0.135000X0.185000X-0.135000X0.185000X0.135000X0*%
%TD*%
%TA.AperFunction,ComponentPad*%
%ADD37C,2.100000*%
%TD*%
%TA.AperFunction,ViaPad*%
%ADD38C,0.800000*%
%TD*%
%TA.AperFunction,Conductor*%
%ADD39C,0.800000*%
%TD*%
%TA.AperFunction,Conductor*%
%ADD40C,2.000000*%
%TD*%
%TA.AperFunction,Conductor*%
%ADD41C,0.500000*%
%TD*%
%TA.AperFunction,Conductor*%
%ADD42C,0.400000*%
%TD*%
%TA.AperFunction,Conductor*%
%ADD43C,0.600000*%
%TD*%
%TA.AperFunction,Conductor*%
%ADD44C,1.500000*%
%TD*%
%TA.AperFunction,Conductor*%
%ADD45C,0.200000*%
%TD*%
%TA.AperFunction,Conductor*%
%ADD46C,0.450000*%
%TD*%
G04 APERTURE END LIST*
D10*
%TO.P,R4,1*%
%TO.N,Net-(D2-K)*%
X16408401Y16711201D03*
%TO.P,R4,2*%
%TO.N,GND*%
X16408401Y17731199D03*
%TD*%
D11*
%TO.P,C8,1*%
%TO.N,+3V3*%
X24277002Y47117000D03*
D12*
%TO.P,C8,2*%
%TO.N,GND*%
X26777002Y47117000D03*
%TD*%
D13*
%TO.P,J1,1,Pin_1_1*%
%TO.N,GND*%
X4547001Y46355000D03*
D14*
%TO.P,J1,2,Pin_2_2*%
%TO.N,/PWR_IN*%
X2007001Y46355000D03*
%TD*%
D15*
%TO.P,D1,1,K_1*%
%TO.N,GND*%
X19317000Y8363999D03*
D16*
%TO.P,D1,2,A_2*%
%TO.N,Net-(D1-A)*%
X19317000Y10903999D03*
%TD*%
D11*
%TO.P,C5,1*%
%TO.N,/PWR_IN*%
X9194801Y47117000D03*
D12*
%TO.P,C5,2*%
%TO.N,GND*%
X11694801Y47117000D03*
%TD*%
D17*
%TO.P,U1,A1,+VIN_A1*%
%TO.N,/PWR_IN*%
X9581053Y19954000D03*
%TO.P,U1,A2,+VIN_A2*%
X9581052Y22244000D03*
%TO.P,U1,A3,GND_A3*%
%TO.N,GND*%
X9581053Y24534000D03*
%TO.P,U1,A4,GND_A4*%
X9581052Y26824000D03*
%TO.P,U1,A5,+VOUT_A5*%
%TO.N,+5V0*%
X9581053Y29114000D03*
%TO.P,U1,B1,GND_B1*%
%TO.N,GND*%
X11871053Y19953999D03*
%TO.P,U1,B2,GND_B2*%
X11871053Y22244000D03*
%TO.P,U1,B3,GND_B3*%
X11871052Y24534000D03*
%TO.P,U1,B4,GND_B4*%
X11871053Y26824000D03*
%TO.P,U1,B5,+VOUT_B5*%
%TO.N,+5V0*%
X11871053Y29114001D03*
%TO.P,U1,C1,CTRL_C1*%
%TO.N,Net-(SW2-A)*%
X14161053Y19954000D03*
%TO.P,U1,C2,GND_C2*%
%TO.N,GND*%
X14161053Y22243999D03*
%TO.P,U1,C3,GND_C3*%
X14161053Y24534000D03*
%TO.P,U1,C4,GND_C4*%
X14161053Y26824001D03*
%TO.P,U1,C5,Sense_C5*%
%TO.N,Net-(J9-Pin_2)*%
X14161053Y29114000D03*
%TO.P,U1,D1,PGood_D1*%
%TO.N,Net-(U1-PGood)*%
X16451053Y19953999D03*
%TO.P,U1,D2,GND_D2*%
%TO.N,GND*%
X16451053Y22244000D03*
%TO.P,U1,D3,GND_D3*%
X16451054Y24534000D03*
%TO.P,U1,D4,GND_D4*%
X16451053Y26824000D03*
%TO.P,U1,D5,GND_D5*%
X16451053Y29114001D03*
%TO.P,U1,E1,SEQ_E1*%
%TO.N,Net-(J9-Pin_3)*%
X18741053Y19954000D03*
%TO.P,U1,E2,NC_E2*%
%TO.N,unconnected-(U1-NC-PadE2)*%
X18741054Y22244000D03*
%TO.P,U1,E3,GND_E3*%
%TO.N,GND*%
X18741053Y24534000D03*
%TO.P,U1,E4,GND_E4*%
X18741054Y26824000D03*
%TO.P,U1,E5,Trim_E5*%
%TO.N,Net-(U1-Trim)*%
X18741053Y29114000D03*
%TD*%
D18*
%TO.P,C12,1*%
%TO.N,+3V3*%
X21657001Y40310000D03*
%TO.P,C12,2*%
%TO.N,GND*%
X21657001Y37185000D03*
%TD*%
D19*
%TO.P,RV1,1,1_1*%
%TO.N,unconnected-(RV1-Pad1)*%
X2107001Y36659000D03*
%TO.P,RV1,2,2_2*%
%TO.N,Net-(U1-Trim)*%
X4647001Y34119000D03*
%TO.P,RV1,3,3_3*%
%TO.N,Net-(RV1-Pad3)*%
X2107001Y31579001D03*
%TD*%
D20*
%TO.P,R3,1*%
%TO.N,GND*%
X5907001Y19332664D03*
%TO.P,R3,2*%
%TO.N,Net-(R3-Pad2)*%
X6926999Y19332664D03*
%TD*%
D21*
%TO.P,C11,1*%
%TO.N,+5V0*%
X11862401Y32105600D03*
%TO.P,C11,2*%
%TO.N,GND*%
X10312401Y32105600D03*
%TD*%
D15*
%TO.P,D3,1,K_1*%
%TO.N,Net-(D3-K)*%
X18034000Y33934400D03*
D16*
%TO.P,D3,2,A_2*%
%TO.N,+3V3*%
X20574000Y33934400D03*
%TD*%
D22*
%TO.P,C13,1*%
%TO.N,+3V3*%
X21207840Y42976800D03*
%TO.P,C13,2*%
%TO.N,GND*%
X22757840Y42976800D03*
%TD*%
D23*
%TO.P,R5,1*%
%TO.N,Net-(D3-K)*%
X16359600Y31953200D03*
%TO.P,R5,2*%
%TO.N,GND*%
X15339602Y31953200D03*
%TD*%
D18*
%TO.P,C10,1*%
%TO.N,+5V0*%
X19439001Y41974100D03*
%TO.P,C10,2*%
%TO.N,GND*%
X19439001Y38849100D03*
%TD*%
D21*
%TO.P,C9,1*%
%TO.N,/PWR_IN*%
X11342000Y14984858D03*
%TO.P,C9,2*%
%TO.N,GND*%
X9792000Y14984858D03*
%TD*%
D24*
%TO.P,SW2,1,A_1*%
%TO.N,Net-(SW2-A)*%
X19242000Y2434000D03*
D25*
%TO.P,SW2,2,B_2*%
%TO.N,GND*%
X21242000Y2434000D03*
%TO.P,SW2,3,C_3*%
%TO.N,unconnected-(SW2-C-Pad3)*%
X23242000Y2434000D03*
D26*
%TO.P,SW2,MH1,MH1_MH1*%
%TO.N,GND*%
X17142000Y2434000D03*
%TO.P,SW2,MH2,MH2_MH2*%
X25342000Y2434000D03*
%TD*%
D27*
%TO.P,SW1,1,1_1*%
%TO.N,Net-(R6-Pad1)*%
X2167000Y25383999D03*
%TO.P,SW1,2,2_2*%
%TO.N,Net-(RV1-Pad3)*%
X2167000Y21383999D03*
%TO.P,SW1,3,3_3*%
%TO.N,unconnected-(SW1-Pad3)*%
X2167000Y19383999D03*
%TO.P,SW1,4,4_4*%
%TO.N,Net-(R3-Pad2)*%
X2167000Y17383999D03*
D28*
%TO.P,SW1,MH1,MH_MH1*%
%TO.N,GND*%
X2167000Y27483999D03*
%TO.P,SW1,MH2,MH_MH2*%
X2167000Y15284000D03*
%TD*%
D29*
%TO.P,U2,1,GND_1*%
%TO.N,GND*%
X16993001Y37451000D03*
%TO.P,U2,2,VOUT_2*%
%TO.N,+3V3*%
X16993000Y39751000D03*
%TO.P,U2,3,VIN_3*%
%TO.N,+5V0*%
X16993001Y42051000D03*
D30*
%TO.P,U2,4,GND_4*%
%TO.N,GND*%
X10693002Y39751000D03*
%TD*%
D31*
%TO.P,J8,1,Pin_1_1*%
%TO.N,/PWR_IN*%
X11685358Y12064000D03*
D32*
%TO.P,J8,2,Pin_2_2*%
%TO.N,GND*%
X3785357Y12064000D03*
%TD*%
D11*
%TO.P,C7,1*%
%TO.N,+5V0*%
X16735902Y47117000D03*
D12*
%TO.P,C7,2*%
%TO.N,GND*%
X19235902Y47117000D03*
%TD*%
D20*
%TO.P,R6,1*%
%TO.N,Net-(R6-Pad1)*%
X5932001Y23963247D03*
%TO.P,R6,2*%
%TO.N,+5V0*%
X6951999Y23963247D03*
%TD*%
D33*
%TO.P,C6,1*%
%TO.N,/PWR_IN*%
X13129500Y16659000D03*
%TO.P,C6,2*%
%TO.N,GND*%
X10004500Y16659000D03*
%TD*%
D15*
%TO.P,D2,1,K_1*%
%TO.N,Net-(D2-K)*%
X19317000Y16429001D03*
D16*
%TO.P,D2,2,A_2*%
%TO.N,+5V0*%
X19317000Y13889001D03*
%TD*%
D34*
%TO.P,J9,1,Pin_1_1*%
%TO.N,+5V0*%
X6985001Y40935154D03*
D35*
%TO.P,J9,2,Pin_2_2*%
%TO.N,Net-(J9-Pin_2)*%
X4445001Y40935154D03*
%TO.P,J9,3,Pin_3_3*%
%TO.N,Net-(J9-Pin_3)*%
X1905002Y40935154D03*
%TD*%
D36*
%TO.P,R1,1*%
%TO.N,Net-(U1-PGood)*%
X15087601Y17731199D03*
%TO.P,R1,2*%
%TO.N,Net-(D1-A)*%
X15087601Y16711201D03*
%TD*%
D37*
%TO.P,J5,1,Pin_1_1*%
%TO.N,GND*%
X30607001Y4699000D03*
%TO.P,J5,2,Pin_2_2*%
%TO.N,+5V0*%
X30607001Y2159000D03*
%TO.P,J5,3,Pin_3_3*%
%TO.N,GND*%
X33147001Y4699000D03*
%TO.P,J5,4,Pin_4_4*%
%TO.N,+5V0*%
X33147001Y2159000D03*
%TO.P,J5,5,Pin_5_5*%
%TO.N,GND*%
X35687001Y4699000D03*
%TO.P,J5,6,Pin_6_6*%
%TO.N,+5V0*%
X35687001Y2159000D03*
%TO.P,J5,7,Pin_7_7*%
%TO.N,GND*%
X38227001Y4699000D03*
%TO.P,J5,8,Pin_8_8*%
%TO.N,+5V0*%
X38227001Y2159000D03*
%TD*%
%TO.P,J6,1,Pin_1_1*%
%TO.N,GND*%
X30607001Y48387000D03*
%TO.P,J6,2,Pin_2_2*%
%TO.N,+3V3*%
X30607001Y45847000D03*
%TO.P,J6,3,Pin_3_3*%
%TO.N,GND*%
X33147001Y48387000D03*
%TO.P,J6,4,Pin_4_4*%
%TO.N,+3V3*%
X33147001Y45847000D03*
%TO.P,J6,5,Pin_5_5*%
%TO.N,GND*%
X35687001Y48387000D03*
%TO.P,J6,6,Pin_6_6*%
%TO.N,+3V3*%
X35687001Y45847000D03*
%TO.P,J6,7,Pin_7_7*%
%TO.N,GND*%
X38227001Y48387000D03*
%TO.P,J6,8,Pin_8_8*%
%TO.N,+3V3*%
X38227001Y45847000D03*
%TD*%
D38*
%TO.N,/PWR_IN*%
X9590694Y21098625D03*
X10741995Y21089813D03*
%TO.N,GND*%
X9137402Y32105600D03*
X23825201Y42976800D03*
X18592801Y37592000D03*
X13813304Y41351289D03*
X9586053Y25659000D03*
X13037587Y26827680D03*
X12996054Y24529000D03*
X8442000Y16659000D03*
X20066001Y37592000D03*
X10751052Y26839000D03*
X13815023Y38151089D03*
X11876998Y25691986D03*
X13817601Y39751000D03*
X15327527Y26827651D03*
X4775026Y19324627D03*
X11865937Y23408754D03*
X10717000Y24521986D03*
X14156053Y25698999D03*
X20066001Y36499800D03*
X15288932Y24513456D03*
X23241001Y37668200D03*
X23241001Y36220400D03*
X13817601Y38951000D03*
X17500601Y17718800D03*
X18592801Y36499800D03*
X16449963Y25683240D03*
X16448662Y23392995D03*
X13011053Y22244000D03*
X11862356Y21117267D03*
X8442000Y14984858D03*
X14154147Y23394001D03*
X14478001Y31953200D03*
X15311053Y22244000D03*
X13817224Y40551001D03*
%TO.N,+3V3*%
X23232001Y40259000D03*
X23241001Y41732200D03*
X15367001Y40208200D03*
X21717001Y41774000D03*
X15367001Y38379400D03*
X15367001Y39293800D03*
X21717001Y38735000D03*
%TO.N,/PWR_IN*%
X8415954Y22238553D03*
X9583678Y18794000D03*
X8436053Y21109000D03*
X10738293Y19963547D03*
X9581052Y23399000D03*
X8466124Y19950604D03*
X13117000Y15112400D03*
X10724599Y22239541D03*
X9587355Y21100188D03*
X11567000Y16659000D03*
%TO.N,+5V0*%
X11857000Y27988999D03*
X19414001Y40386600D03*
X8452000Y29109000D03*
X18262201Y43115200D03*
X10737000Y27989000D03*
X16738601Y43586400D03*
X11861801Y33731200D03*
X15367001Y41605200D03*
X8457000Y27989000D03*
X15468201Y43586800D03*
X6957000Y24879000D03*
X9586053Y27984000D03*
X13208001Y32435800D03*
%TO.N,Net-(SW2-A)*%
X14161053Y21109000D03*
%TO.N,Net-(J9-Pin_2)*%
X16367000Y30609000D03*
%TO.N,Net-(J9-Pin_3)*%
X17597000Y19949000D03*
%TO.N,Net-(U1-Trim)*%
X18745201Y31433653D03*
%TD*%
%TO.N,/PWR_IN*%
D39*
X10741995Y21089813D02*
X9599506Y21089813D01*
D40*
X12395201Y12773843D02*
X11685358Y12064000D01*
D39*
X12395201Y15112400D02*
X11469542Y15112400D01*
D40*
X12395201Y15112400D02*
X12395201Y12773843D01*
%TO.N,GND*%
D41*
X2167000Y15284000D02*
X3570800Y13880200D01*
%TO.N,Net-(D2-K)*%
D42*
X16408401Y16711201D02*
X19034800Y16711201D01*
X19034800Y16711201D02*
X19317000Y16429001D01*
X19252001Y16364002D02*
X19317000Y16429001D01*
%TO.N,GND*%
X14163932Y24518456D02*
X16453931Y24518456D01*
X16452855Y26822527D02*
X16452855Y27982526D01*
X11870937Y24533754D02*
X11870937Y22243755D01*
X5907001Y19332664D02*
X4783063Y19332664D01*
X15339602Y31953200D02*
X14478001Y31953200D01*
D39*
X9581052Y26824000D02*
X9581052Y24534001D01*
D42*
X14159148Y23389000D02*
X14154147Y23394001D01*
D39*
X10312401Y32105600D02*
X9137402Y32105600D01*
X18741053Y24534000D02*
X9581053Y24534000D01*
D42*
X16453662Y22227996D02*
X16453663Y22227995D01*
D39*
X10692625Y40551001D02*
X13817224Y40551001D01*
D42*
X14161053Y26823999D02*
X14161053Y24534000D01*
X16452855Y27982526D02*
X16447854Y27987527D01*
D43*
X13815023Y38151089D02*
X13385801Y38151089D01*
D39*
X16451053Y29114001D02*
X16451053Y22244000D01*
D42*
X11872587Y26822679D02*
X13032586Y26822679D01*
X16454963Y26808240D02*
X16454963Y24518241D01*
D43*
X13919201Y41351289D02*
X13919201Y38152808D01*
X10769312Y38151089D02*
X10642601Y38277800D01*
D44*
X3685357Y12064000D02*
X3685357Y8590643D01*
D45*
X10312401Y32105600D02*
X8937401Y32105600D01*
D46*
X4210489Y12589132D02*
X7504258Y12589132D01*
D42*
X11881998Y26816986D02*
X11881998Y24526987D01*
X18742689Y26822610D02*
X16452690Y26822610D01*
X13032586Y26822679D02*
X13037587Y26827680D01*
D46*
X3685357Y12064000D02*
X4210489Y12589132D01*
D39*
X20066001Y37592000D02*
X20066001Y37033200D01*
D42*
X14162527Y26822650D02*
X15322526Y26822650D01*
X14159147Y22229002D02*
X14159148Y22229001D01*
D39*
X18740023Y24518240D02*
X18740023Y25678239D01*
D42*
X16453663Y22227995D02*
X16453663Y23387994D01*
X9581052Y25664001D02*
X9586053Y25659000D01*
X9592000Y24526986D02*
X11881999Y24526986D01*
X16453662Y24517995D02*
X16453662Y22227996D01*
D39*
X9792000Y14984858D02*
X8442000Y14984858D01*
X11871053Y22244000D02*
X15311053Y22244000D01*
X18740022Y24518241D02*
X18740023Y24518240D01*
D42*
X16453663Y23387994D02*
X16448662Y23392995D01*
X14161054Y24534001D02*
X13001055Y24534001D01*
D44*
X3685357Y12064000D02*
X7002000Y12064000D01*
D42*
X11867357Y21112266D02*
X11862356Y21117267D01*
X11867357Y19952267D02*
X11867357Y21112266D01*
D39*
X20676201Y37185000D02*
X19939001Y37922200D01*
X18869601Y37033200D02*
X18451801Y37451000D01*
D42*
X17612688Y26822609D02*
X17617689Y26827610D01*
X11881999Y24526986D02*
X11882000Y24526987D01*
X16452527Y26822651D02*
X14162528Y26822651D01*
D39*
X20492241Y36926040D02*
X21718113Y36926040D01*
X18740023Y25678239D02*
X18735022Y25683240D01*
X18740022Y26808240D02*
X18740022Y24518241D01*
X14161053Y22243999D02*
X14161053Y26824001D01*
D42*
X11881999Y24526986D02*
X11881999Y25686985D01*
D39*
X18592801Y36499800D02*
X17979677Y37112924D01*
D42*
X14161054Y24533999D02*
X14161054Y25693998D01*
X16454963Y24518241D02*
X16454964Y24518240D01*
D43*
X13385801Y38151089D02*
X10769312Y38151089D01*
D39*
X22495940Y36923139D02*
X21881642Y36923139D01*
D42*
X11881998Y24526987D02*
X11881999Y24526986D01*
X17582144Y24521609D02*
X17577143Y24516608D01*
D39*
X20066001Y36499800D02*
X20492241Y36926040D01*
X18386638Y37798163D02*
X16983729Y37798163D01*
X18948401Y37947600D02*
X18948401Y38887400D01*
X20066001Y37033200D02*
X20066001Y36499800D01*
X14161053Y22243999D02*
X15311052Y22243999D01*
X23241001Y37668200D02*
X23021983Y37449182D01*
D42*
X18742142Y24521608D02*
X18742143Y24521609D01*
D39*
X19439001Y38219000D02*
X20066001Y37592000D01*
D42*
X14159148Y22229001D02*
X14159148Y23389000D01*
D43*
X13919201Y38152808D02*
X13387520Y38152808D01*
D42*
X11867356Y19952268D02*
X11867357Y19952267D01*
D39*
X23021983Y37449182D02*
X21999309Y37449182D01*
D43*
X11684001Y40995600D02*
X13690601Y40995600D01*
D42*
X9586053Y26834000D02*
X9586052Y26833999D01*
D39*
X22757840Y42976800D02*
X23825201Y42976800D01*
D42*
X10004500Y16659000D02*
X8442000Y16659000D01*
D39*
X10693002Y39751000D02*
X13817601Y39751000D01*
X20066001Y37033200D02*
X18869601Y37033200D01*
D43*
X13813304Y41351289D02*
X10744290Y41351289D01*
D39*
X19939001Y37922200D02*
X19939001Y38684200D01*
D43*
X10693002Y39751000D02*
X10693002Y40004601D01*
D39*
X18592801Y36499800D02*
X20066001Y36499800D01*
D43*
X13387520Y38152808D02*
X13385801Y38151089D01*
D42*
X16452854Y29112527D02*
X16452854Y26822528D01*
X13001055Y24534001D02*
X12996054Y24529000D01*
D43*
X11176001Y38531800D02*
X13665201Y38531800D01*
D39*
X15311052Y22243999D02*
X15311053Y22244000D01*
D42*
X11870938Y22243754D02*
X11870938Y23403753D01*
X16452143Y24521608D02*
X18742142Y24521608D01*
D43*
X10744290Y41351289D02*
X10591801Y41198800D01*
D39*
X21657001Y37185000D02*
X22276401Y37185000D01*
D42*
X11871054Y24534000D02*
X14161053Y24534000D01*
D43*
X10693002Y39014799D02*
X11176001Y38531800D01*
D42*
X16452854Y26822528D02*
X16452855Y26822527D01*
D39*
X21657001Y37185000D02*
X22757801Y37185000D01*
D46*
X4217211Y11532146D02*
X7508608Y11532146D01*
D39*
X23241001Y36220400D02*
X23241001Y37668200D01*
X21657001Y37185000D02*
X20751201Y37185000D01*
D42*
X14161053Y24534000D02*
X14161054Y24534001D01*
D39*
X18451801Y37451000D02*
X18592801Y37592000D01*
D42*
X15322526Y26822650D02*
X15327527Y26827651D01*
D39*
X9581052Y26824000D02*
X18741054Y26824000D01*
D42*
X14159147Y24519001D02*
X14159147Y22229002D01*
D39*
X20751201Y37185000D02*
X20066001Y36499800D01*
D42*
X9586052Y26833999D02*
X10746051Y26833999D01*
X18742143Y24521609D02*
X17582144Y24521609D01*
D39*
X11871053Y26824000D02*
X11871053Y19953999D01*
X20218401Y37439600D02*
X21818601Y37439600D01*
X16993001Y37451000D02*
X17641601Y37451000D01*
X20066001Y37592000D02*
X18592801Y37592000D01*
D42*
X11876052Y26834000D02*
X9586053Y26834000D01*
X11882000Y24526987D02*
X10722001Y24526987D01*
X11867356Y22242267D02*
X11867356Y19952268D01*
D39*
X19439001Y38849100D02*
X19439001Y38219000D01*
D42*
X14161053Y24534000D02*
X14161054Y24533999D01*
X14162528Y26822651D02*
X14162527Y26822650D01*
D44*
X3685357Y8590643D02*
X3837000Y8439000D01*
D39*
X20066001Y37592000D02*
X20218401Y37439600D01*
D42*
X16408401Y17729200D02*
X17490201Y17729200D01*
D46*
X3685357Y12064000D02*
X4217211Y11532146D01*
D42*
X16453931Y24518456D02*
X16453932Y24518457D01*
D39*
X21657001Y37185000D02*
X20676201Y37185000D01*
D42*
X11872588Y26822680D02*
X11872587Y26822679D01*
D39*
X9581052Y24534001D02*
X9581053Y24534000D01*
D42*
X16452690Y26822610D02*
X16452689Y26822609D01*
X14161054Y25693998D02*
X14156053Y25698999D01*
X16453932Y24518457D02*
X15293933Y24518457D01*
X4783063Y19332664D02*
X4775026Y19324627D01*
X16454964Y25678239D02*
X16449963Y25683240D01*
D39*
X17641601Y37451000D02*
X18592801Y36499800D01*
D42*
X9581052Y26824000D02*
X9581052Y25664001D01*
D39*
X18592801Y37592000D02*
X18386638Y37798163D01*
D43*
X13665201Y38531800D02*
X13690601Y38506400D01*
D42*
X14162587Y26822680D02*
X11872588Y26822680D01*
X16452689Y26822609D02*
X17612688Y26822609D01*
D43*
X13919201Y41351289D02*
X13813304Y41351289D01*
D39*
X10693002Y38951000D02*
X13817601Y38951000D01*
D43*
X10693002Y39751000D02*
X10693002Y39014799D01*
D42*
X15293933Y24518457D02*
X15288932Y24513456D01*
D39*
X16993001Y37451000D02*
X18451801Y37451000D01*
D42*
X10722001Y24526987D02*
X10717000Y24521986D01*
D39*
X15311053Y22244000D02*
X16451053Y22244000D01*
X22276401Y37185000D02*
X23241001Y36220400D01*
D42*
X11881999Y25686985D02*
X11876998Y25691986D01*
D39*
X23241001Y37668200D02*
X22495940Y36923139D01*
X18592801Y37592000D02*
X18948401Y37947600D01*
X22757801Y37185000D02*
X23241001Y37668200D01*
D44*
X4667000Y12064000D02*
X4667000Y14317357D01*
D43*
X13813304Y38152808D02*
X13815023Y38151089D01*
D42*
X11870938Y23403753D02*
X11865937Y23408754D01*
X11870937Y22243755D02*
X11870938Y22243754D01*
D39*
X17979677Y37112924D02*
X16848758Y37112924D01*
D43*
X10693002Y40004601D02*
X11684001Y40995600D01*
D42*
X16454964Y24518240D02*
X16454964Y25678239D01*
X10746051Y26833999D02*
X10751052Y26839000D01*
%TO.N,+3V3*%
D39*
X22301201Y40944800D02*
X22606001Y40640000D01*
X21717001Y41774000D02*
X21717001Y40259000D01*
X21158201Y41224200D02*
X21158201Y42837400D01*
X23232001Y40259000D02*
X23232001Y40250000D01*
X22783801Y40817800D02*
X22783801Y41402000D01*
D43*
X16535800Y39293800D02*
X16993000Y39751000D01*
X15367001Y38379400D02*
X15367001Y39293800D01*
X15824201Y39751000D02*
X15367001Y40208200D01*
X15824201Y39751000D02*
X15367001Y39293800D01*
D39*
X21717001Y40716200D02*
X22301201Y41300400D01*
X23241001Y41529000D02*
X23241001Y40268000D01*
D43*
X15367001Y38379400D02*
X16306801Y39319200D01*
D39*
X23199201Y41774000D02*
X23241001Y41732200D01*
X23232001Y40250000D02*
X21717001Y38735000D01*
X21158201Y39293800D02*
X21158201Y41224200D01*
X22996001Y41774000D02*
X23241001Y41529000D01*
D43*
X15367001Y39293800D02*
X16535800Y39293800D01*
X15367001Y40208200D02*
X15367001Y39293800D01*
D39*
X21717001Y41774000D02*
X22996001Y41774000D01*
X22301201Y41300400D02*
X22301201Y40944800D01*
X21717001Y38735000D02*
X21717001Y40716200D01*
D43*
X16535800Y40208200D02*
X16993000Y39751000D01*
X16993000Y39751000D02*
X15824201Y39751000D01*
X15367001Y40208200D02*
X16535800Y40208200D01*
D39*
X22606001Y40640000D02*
X22783801Y40817800D01*
X23232001Y40259000D02*
X21717001Y40259000D01*
X23241001Y40268000D02*
X23241001Y41732200D01*
D43*
X16306801Y39319200D02*
X16840201Y39319200D01*
D39*
X21717001Y38735000D02*
X21158201Y39293800D01*
X21717001Y41774000D02*
X23199201Y41774000D01*
X23232001Y40259000D02*
X23241001Y40268000D01*
X21158201Y41224200D02*
X21691601Y41757600D01*
X21255352Y41324295D02*
X21255352Y42937495D01*
%TO.N,/PWR_IN*%
X10725350Y19950604D02*
X10738293Y19963547D01*
X10724599Y22239541D02*
X9585511Y22239541D01*
X11342000Y14984858D02*
X13016142Y16659000D01*
X13016142Y16659000D02*
X13129500Y16659000D01*
X8466124Y19950604D02*
X10725350Y19950604D01*
X9581052Y18796626D02*
X9583678Y18794000D01*
X9578543Y21109000D02*
X9587355Y21100188D01*
X9581052Y23399000D02*
X9581052Y18796626D01*
X11567000Y16659000D02*
X11570400Y16659000D01*
X9581052Y22244000D02*
X9581052Y18796626D01*
X9580954Y22243554D02*
X8420955Y22243554D01*
X11469542Y15112400D02*
X11342000Y14984858D01*
X11570400Y16659000D02*
X13117000Y15112400D01*
X8436053Y21109000D02*
X9578543Y21109000D01*
D42*
X9581052Y22244000D02*
X9581052Y19954001D01*
X9581053Y21093886D02*
X9587355Y21100188D01*
X9578677Y19959000D02*
X9578677Y18799001D01*
X9586053Y22234000D02*
X9586053Y23393999D01*
D39*
X13129500Y16662400D02*
X13129500Y15174900D01*
X11567000Y16659000D02*
X11567000Y15209858D01*
X13117000Y15112400D02*
X12395201Y15112400D01*
X11342000Y14984858D02*
X11342000Y12307358D01*
X11342000Y12307358D02*
X11585358Y12064000D01*
D42*
X9581501Y19954310D02*
X8421502Y19954310D01*
X9581052Y19954001D02*
X9581053Y19954000D01*
D39*
X11567000Y15209858D02*
X11342000Y14984858D01*
X13129500Y15174900D02*
X13117000Y15162400D01*
D42*
X9581053Y19954000D02*
X9581053Y21093886D01*
X9586053Y22234000D02*
X10746052Y22234000D01*
D39*
X13129500Y16659000D02*
X11567000Y16659000D01*
X8415954Y22238553D02*
X8416402Y22239001D01*
X9585511Y22239541D02*
X9581052Y22244000D01*
%TO.N,Net-(D1-A)*%
D42*
X18890202Y10903999D02*
X19317000Y10903999D01*
X15087601Y14706600D02*
X18890202Y10903999D01*
X15087601Y16711201D02*
X15087601Y14706600D01*
X19317000Y10949001D02*
X19317000Y10903999D01*
%TO.N,+5V0*%
D39*
X9581053Y27989000D02*
X8967000Y27989000D01*
X9586053Y29109000D02*
X9581053Y29114000D01*
D43*
X18262201Y43115200D02*
X18297901Y43115200D01*
D39*
X9581053Y28539000D02*
X9581053Y27989000D01*
D43*
X18893782Y42051000D02*
X18913124Y42070342D01*
X15900401Y41605200D02*
X19171701Y41605200D01*
D39*
X11852001Y27984000D02*
X11857000Y27988999D01*
D43*
X16547201Y41605200D02*
X16993001Y42051000D01*
D39*
X8907000Y29109000D02*
X9577000Y29109000D01*
X17590801Y43115200D02*
X18262201Y43115200D01*
X11867000Y28549000D02*
X11867000Y29119000D01*
X8967000Y29049000D02*
X8907000Y29109000D01*
X9581053Y28539000D02*
X11857000Y28539000D01*
X15722601Y42051400D02*
X15722601Y43713400D01*
D43*
X15265401Y41706800D02*
X15265401Y42138600D01*
D39*
X11861053Y27984000D02*
X11871053Y27994000D01*
X11867000Y27998999D02*
X11867000Y28549000D01*
X8967000Y27989000D02*
X8967000Y29049000D01*
X16992601Y43713400D02*
X17590801Y43115200D01*
D43*
X19171701Y41706800D02*
X19439001Y41974100D01*
D39*
X16992201Y43713800D02*
X16992601Y43713400D01*
X8452000Y29109000D02*
X8452000Y27994000D01*
X16993001Y42443000D02*
X16129001Y43307000D01*
X13208001Y32435800D02*
X12877801Y32105600D01*
D42*
X6957000Y24879000D02*
X6951999Y24873999D01*
D39*
X16993001Y42051000D02*
X16993001Y42443000D01*
X16993001Y42051000D02*
X15381001Y42051000D01*
X8452000Y29109000D02*
X8907000Y29109000D01*
X16993001Y42051000D02*
X16993001Y43713000D01*
X9586053Y27984000D02*
X11852001Y27984000D01*
X11862401Y32105600D02*
X11862401Y29122653D01*
X11867000Y29119000D02*
X9586053Y29119000D01*
D43*
X18297901Y43115200D02*
X19439001Y41974100D01*
D39*
X8967000Y27989000D02*
X8457000Y27989000D01*
X9581053Y27989000D02*
X9586053Y27984000D01*
X11862401Y29122653D02*
X11871053Y29114001D01*
D43*
X15367001Y41605200D02*
X15900401Y41605200D01*
D39*
X15367001Y43358600D02*
X15722201Y43713800D01*
X16129001Y42570400D02*
X16281401Y42418000D01*
X11861801Y33731200D02*
X11862401Y33248000D01*
X11862401Y33248000D02*
X11862401Y32105600D01*
X16993001Y43713000D02*
X16992601Y43713400D01*
X9581053Y29114000D02*
X9581053Y28539000D01*
X15722201Y43713800D02*
X16992201Y43713800D01*
D43*
X18817301Y42595800D02*
X17754601Y42595800D01*
D39*
X15381001Y42051000D02*
X15367001Y42037000D01*
D43*
X16993001Y42051000D02*
X18893782Y42051000D01*
D39*
X19439001Y40411600D02*
X19439001Y41974100D01*
D43*
X19439001Y41974100D02*
X18817301Y42595800D01*
D39*
X8452000Y27994000D02*
X8457000Y27989000D01*
X11857000Y28539000D02*
X11867000Y28549000D01*
X12877801Y32105600D02*
X11862401Y32105600D01*
X9586053Y29119000D02*
X9581053Y29114000D01*
D43*
X15900401Y41605200D02*
X16547201Y41605200D01*
D39*
X15367001Y42037000D02*
X15367001Y43358600D01*
D43*
X15367001Y41605200D02*
X15265401Y41706800D01*
D42*
X6951999Y24873999D02*
X6951999Y23963247D01*
D39*
X16129001Y43307000D02*
X16129001Y42570400D01*
X19414001Y40386600D02*
X19439001Y40411600D01*
%TO.N,Net-(SW2-A)*%
D42*
X14161053Y19954000D02*
X14161053Y21109000D01*
%TO.N,Net-(J9-Pin_2)*%
X14467000Y30269000D02*
X14161053Y29963053D01*
X16027000Y30269000D02*
X14467000Y30269000D01*
X14161053Y29963053D02*
X14161053Y29114000D01*
X16367000Y30609000D02*
X16027000Y30269000D01*
%TO.N,Net-(U1-PGood)*%
X15087601Y17731199D02*
X15087601Y17957800D01*
X16451053Y19321252D02*
X16451053Y19953999D01*
X15087601Y17957800D02*
X16451053Y19321252D01*
%TO.N,Net-(J9-Pin_3)*%
X18741053Y19954000D02*
X17602000Y19954000D01*
X17602000Y19954000D02*
X17597000Y19949000D01*
%TO.N,Net-(U1-Trim)*%
X18745201Y31433653D02*
X18745201Y29108400D01*
X18745201Y29108400D02*
X18739254Y29102453D01*
%TO.N,Net-(R3-Pad2)*%
X2167000Y17383999D02*
X6208000Y17383999D01*
X6926999Y18102998D02*
X6926999Y19332664D01*
X6208000Y17383999D02*
X6926999Y18102998D01*
%TO.N,Net-(D3-K)*%
X18034000Y32664399D02*
X18034000Y33934400D01*
X17322801Y31953200D02*
X18034000Y32664399D01*
X16359600Y31953200D02*
X17322801Y31953200D01*
%TO.N,Net-(R6-Pad1)*%
X3587752Y23963247D02*
X5932001Y23963247D01*
X2167000Y25383999D02*
X3587752Y23963247D01*
%TD*%
%TA.AperFunction,Conductor*%
%TO.N,GND*%
G36*
X32497941Y4895890D02*
G01*
X32472001Y4765482D01*
X32472001Y4632518D01*
X32497941Y4502110D01*
X32519940Y4449000D01*
X31234062Y4449000D01*
X31256061Y4502110D01*
X31282001Y4632518D01*
X31282001Y4765482D01*
X31256061Y4895890D01*
X31234062Y4949000D01*
X32519940Y4949000D01*
X32497941Y4895890D01*
G37*
%TD.AperFunction*%
%TA.AperFunction,Conductor*%
G36*
X35037941Y4895890D02*
G01*
X35012001Y4765482D01*
X35012001Y4632518D01*
X35037941Y4502110D01*
X35059940Y4449000D01*
X33774062Y4449000D01*
X33796061Y4502110D01*
X33822001Y4632518D01*
X33822001Y4765482D01*
X33796061Y4895890D01*
X33774062Y4949000D01*
X35059940Y4949000D01*
X35037941Y4895890D01*
G37*
%TD.AperFunction*%
%TA.AperFunction,Conductor*%
G36*
X37577941Y4895890D02*
G01*
X37552001Y4765482D01*
X37552001Y4632518D01*
X37577941Y4502110D01*
X37599940Y4449000D01*
X36314062Y4449000D01*
X36336061Y4502110D01*
X36362001Y4632518D01*
X36362001Y4765482D01*
X36336061Y4895890D01*
X36314062Y4949000D01*
X37599940Y4949000D01*
X37577941Y4895890D01*
G37*
%TD.AperFunction*%
%TA.AperFunction,Conductor*%
G36*
X32497941Y48583890D02*
G01*
X32472001Y48453482D01*
X32472001Y48320518D01*
X32497941Y48190110D01*
X32519940Y48137000D01*
X31234062Y48137000D01*
X31256061Y48190110D01*
X31282001Y48320518D01*
X31282001Y48453482D01*
X31256061Y48583890D01*
X31234062Y48637000D01*
X32519940Y48637000D01*
X32497941Y48583890D01*
G37*
%TD.AperFunction*%
%TA.AperFunction,Conductor*%
G36*
X35037941Y48583890D02*
G01*
X35012001Y48453482D01*
X35012001Y48320518D01*
X35037941Y48190110D01*
X35059940Y48137000D01*
X33774062Y48137000D01*
X33796061Y48190110D01*
X33822001Y48320518D01*
X33822001Y48453482D01*
X33796061Y48583890D01*
X33774062Y48637000D01*
X35059940Y48637000D01*
X35037941Y48583890D01*
G37*
%TD.AperFunction*%
%TA.AperFunction,Conductor*%
G36*
X37577941Y48583890D02*
G01*
X37552001Y48453482D01*
X37552001Y48320518D01*
X37577941Y48190110D01*
X37599940Y48137000D01*
X36314062Y48137000D01*
X36336061Y48190110D01*
X36362001Y48320518D01*
X36362001Y48453482D01*
X36336061Y48583890D01*
X36314062Y48637000D01*
X37599940Y48637000D01*
X37577941Y48583890D01*
G37*
%TD.AperFunction*%
%TA.AperFunction,Conductor*%
G36*
X40936892Y50153593D02*
G01*
X40972856Y50104093D01*
X40977701Y50073500D01*
X40977701Y44161587D01*
X40958794Y44103396D01*
X40909294Y44067432D01*
X40878522Y44062587D01*
X27722000Y44086381D01*
X27722000Y44086382D01*
X27715155Y44086395D01*
X27714714Y44086512D01*
X27649080Y44086512D01*
X27649079Y44086512D01*
X27578508Y44086640D01*
X27576529Y44086512D01*
X27497558Y44086512D01*
X27197282Y44050051D01*
X27197266Y44050049D01*
X26903561Y43977657D01*
X26620705Y43870384D01*
X26352854Y43729806D01*
X26352849Y43729803D01*
X26103903Y43557966D01*
X26103900Y43557964D01*
X26103898Y43557962D01*
X26031929Y43494203D01*
X25877475Y43357369D01*
X25877465Y43357359D01*
X25835717Y43310235D01*
X25703064Y43160500D01*
X25676868Y43130931D01*
X25505031Y42881985D01*
X25505028Y42881980D01*
X25364450Y42614129D01*
X25257177Y42331273D01*
X25184785Y42037568D01*
X25184783Y42037552D01*
X25148322Y41737276D01*
X25148322Y8858749D01*
X25184783Y8558473D01*
X25184785Y8558457D01*
X25257177Y8264752D01*
X25257178Y8264749D01*
X25257179Y8264746D01*
X25285411Y8190305D01*
X25364450Y7981896D01*
X25505028Y7714045D01*
X25505031Y7714040D01*
X25645517Y7510513D01*
X25676872Y7465088D01*
X25877470Y7238660D01*
X26103898Y7038062D01*
X26201921Y6970401D01*
X26352849Y6866222D01*
X26352854Y6866219D01*
X26620709Y6725639D01*
X26903556Y6618369D01*
X27050413Y6582172D01*
X27197266Y6545976D01*
X27197267Y6545976D01*
X27197271Y6545975D01*
X27324422Y6530536D01*
X27497558Y6509513D01*
X27497565Y6509513D01*
X27497570Y6509512D01*
X27497574Y6509512D01*
X27648375Y6509512D01*
X40878880Y6485584D01*
X40937036Y6466571D01*
X40972911Y6417006D01*
X40977701Y6386584D01*
X40977701Y599500D01*
X40958794Y541309D01*
X40909294Y505345D01*
X40878701Y500500D01*
X26560249Y500500D01*
X26502058Y519407D01*
X26466094Y568907D01*
X26466094Y630093D01*
X26490245Y669504D01*
X26562412Y741672D01*
X26710444Y945420D01*
X26824778Y1169813D01*
X26902604Y1409337D01*
X26942000Y1658074D01*
X26942000Y2183999D01*
X26941999Y2184000D01*
X26050241Y2184000D01*
X26063178Y2215233D01*
X26092000Y2360131D01*
X26092000Y2507869D01*
X26063178Y2652767D01*
X26050241Y2684000D01*
X26941999Y2684000D01*
X26942000Y2684001D01*
X26942000Y3209927D01*
X26902604Y3458664D01*
X26824778Y3698188D01*
X26710444Y3922581D01*
X26562412Y4126329D01*
X26384328Y4304413D01*
X26254831Y4398498D01*
X26180580Y4452445D01*
X25956187Y4566779D01*
X25716663Y4644605D01*
X25592000Y4664350D01*
X25592000Y3142241D01*
X25560767Y3155178D01*
X25415869Y3184000D01*
X25268131Y3184000D01*
X25123233Y3155178D01*
X25092000Y3142241D01*
X25092000Y4664349D01*
X25091999Y4664350D01*
X24967336Y4644605D01*
X24727812Y4566779D01*
X24503419Y4452445D01*
X24299671Y4304413D01*
X24121587Y4126329D01*
X23973558Y3922585D01*
X23966755Y3909234D01*
X23923487Y3865972D01*
X23863055Y3856405D01*
X23822183Y3873335D01*
X23822102Y3873201D01*
X23821261Y3873716D01*
X23820361Y3874089D01*
X23818788Y3875232D01*
X23664445Y3953873D01*
X23664444Y3953874D01*
X23664441Y3953875D01*
X23664438Y3953877D01*
X23499706Y4007402D01*
X23499702Y4007403D01*
X23328614Y4034500D01*
X23328611Y4034500D01*
X23155389Y4034500D01*
X23155386Y4034500D01*
X22984297Y4007403D01*
X22984293Y4007402D01*
X22819561Y3953877D01*
X22819558Y3953875D01*
X22665214Y3875234D01*
X22525069Y3773412D01*
X22405558Y3653901D01*
X22351042Y3626124D01*
X22290610Y3635696D01*
X22255462Y3665714D01*
X22195446Y3748319D01*
X22056314Y3887451D01*
X21897148Y4003093D01*
X21897142Y4003097D01*
X21721833Y4092420D01*
X21534706Y4153221D01*
X21492000Y4159986D01*
X21492000Y2809278D01*
X21415694Y2853333D01*
X21301244Y2884000D01*
X21182756Y2884000D01*
X21068306Y2853333D01*
X20992000Y2809278D01*
X20992000Y4159986D01*
X20991999Y4159986D01*
X20949293Y4153221D01*
X20762166Y4092420D01*
X20586857Y4003097D01*
X20586851Y4003093D01*
X20427679Y3887447D01*
X20425953Y3885720D01*
X20425223Y3885349D01*
X20424723Y3884921D01*
X20424620Y3885042D01*
X20371433Y3857948D01*
X20311002Y3867526D01*
X20285953Y3885727D01*
X20281198Y3890482D01*
X20281198Y3890483D01*
X20198483Y3973198D01*
X20198481Y3973199D01*
X20093395Y4024573D01*
X20066139Y4028544D01*
X20025260Y4034500D01*
X18479572Y4034500D01*
X18421381Y4053407D01*
X18399478Y4075311D01*
X18362414Y4126327D01*
X18184328Y4304413D01*
X17980580Y4452445D01*
X17756187Y4566779D01*
X17516663Y4644605D01*
X17267926Y4684000D01*
X17016074Y4684000D01*
X16767336Y4644605D01*
X16527812Y4566779D01*
X16303419Y4452445D01*
X16099671Y4304413D01*
X15921587Y4126329D01*
X15871779Y4057775D01*
X16817975Y3111579D01*
X16786742Y3098641D01*
X16663903Y3016563D01*
X16559437Y2912097D01*
X16477359Y2789258D01*
X16464421Y2758026D01*
X15626123Y3596324D01*
X15581396Y3458666D01*
X15542000Y3209927D01*
X15542000Y1658074D01*
X15581396Y1409335D01*
X15626123Y1271678D01*
X16464421Y2109977D01*
X16477359Y2078742D01*
X16559437Y1955903D01*
X16663903Y1851437D01*
X16786742Y1769359D01*
X16817974Y1756422D01*
X15871779Y810227D01*
X15921583Y741676D01*
X15993755Y669504D01*
X16021532Y614987D01*
X16011961Y554555D01*
X15968696Y511290D01*
X15923751Y500500D01*
X599500Y500500D01*
X541309Y519407D01*
X505345Y568907D01*
X500500Y599500D01*
X500500Y4949000D01*
X29077276Y4949000D01*
X29979940Y4949000D01*
X29957941Y4895890D01*
X29932001Y4765482D01*
X29932001Y4632518D01*
X29957941Y4502110D01*
X29979940Y4449000D01*
X29077276Y4449000D01*
X29095165Y4336046D01*
X29170560Y4104006D01*
X29281320Y3886626D01*
X29424726Y3689245D01*
X29597245Y3516726D01*
X29734922Y3416698D01*
X29770886Y3367198D01*
X29770886Y3306012D01*
X29734923Y3256513D01*
X29694638Y3227244D01*
X29694636Y3227242D01*
X29538759Y3071365D01*
X29498943Y3016563D01*
X29409184Y2893020D01*
X29309103Y2696600D01*
X29240985Y2486949D01*
X29206501Y2269226D01*
X29206501Y2048775D01*
X29240985Y1831052D01*
X29309103Y1621401D01*
X29309105Y1621398D01*
X29309106Y1621394D01*
X29409186Y1424978D01*
X29538759Y1246635D01*
X29694636Y1090758D01*
X29872979Y961185D01*
X30069395Y861105D01*
X30279050Y792985D01*
X30366141Y779191D01*
X30496776Y758500D01*
X30496779Y758500D01*
X30717226Y758500D01*
X30826087Y775743D01*
X30934952Y792985D01*
X31144607Y861105D01*
X31341023Y961185D01*
X31519366Y1090758D01*
X31675243Y1246635D01*
X31796910Y1414097D01*
X31846408Y1450059D01*
X31907593Y1450059D01*
X31957091Y1414097D01*
X32078759Y1246635D01*
X32234636Y1090758D01*
X32412979Y961185D01*
X32609395Y861105D01*
X32819050Y792985D01*
X32906141Y779191D01*
X33036776Y758500D01*
X33036779Y758500D01*
X33257226Y758500D01*
X33366087Y775743D01*
X33474952Y792985D01*
X33684607Y861105D01*
X33881023Y961185D01*
X34059366Y1090758D01*
X34215243Y1246635D01*
X34336910Y1414097D01*
X34386408Y1450059D01*
X34447593Y1450059D01*
X34497091Y1414097D01*
X34618759Y1246635D01*
X34774636Y1090758D01*
X34952979Y961185D01*
X35149395Y861105D01*
X35359050Y792985D01*
X35446141Y779191D01*
X35576776Y758500D01*
X35576779Y758500D01*
X35797226Y758500D01*
X35906087Y775743D01*
X36014952Y792985D01*
X36224607Y861105D01*
X36421023Y961185D01*
X36599366Y1090758D01*
X36755243Y1246635D01*
X36876910Y1414097D01*
X36926408Y1450059D01*
X36987593Y1450059D01*
X37037091Y1414097D01*
X37158759Y1246635D01*
X37314636Y1090758D01*
X37492979Y961185D01*
X37689395Y861105D01*
X37899050Y792985D01*
X37986141Y779191D01*
X38116776Y758500D01*
X38116779Y758500D01*
X38337226Y758500D01*
X38446087Y775743D01*
X38554952Y792985D01*
X38764607Y861105D01*
X38961023Y961185D01*
X39139366Y1090758D01*
X39295243Y1246635D01*
X39424816Y1424978D01*
X39524896Y1621394D01*
X39593016Y1831049D01*
X39617241Y1984000D01*
X39627501Y2048775D01*
X39627501Y2269226D01*
X39593016Y2486949D01*
X39593016Y2486951D01*
X39524896Y2696606D01*
X39424816Y2893022D01*
X39295243Y3071365D01*
X39139366Y3227242D01*
X39099077Y3256514D01*
X39063115Y3306011D01*
X39063115Y3367197D01*
X39099079Y3416697D01*
X39236756Y3516726D01*
X39409275Y3689245D01*
X39552681Y3886626D01*
X39663441Y4104006D01*
X39738836Y4336046D01*
X39756726Y4449000D01*
X38854062Y4449000D01*
X38876061Y4502110D01*
X38902001Y4632518D01*
X38902001Y4765482D01*
X38876061Y4895890D01*
X38854062Y4949000D01*
X39756726Y4949000D01*
X39738836Y5061955D01*
X39663441Y5293995D01*
X39552681Y5511375D01*
X39409275Y5708756D01*
X39236756Y5881275D01*
X39039375Y6024681D01*
X38821995Y6135441D01*
X38589955Y6210836D01*
X38477001Y6228726D01*
X38477001Y5326062D01*
X38423891Y5348060D01*
X38293483Y5374000D01*
X38160519Y5374000D01*
X38030111Y5348060D01*
X37977001Y5326062D01*
X37977001Y6228726D01*
X37864046Y6210836D01*
X37632006Y6135441D01*
X37414626Y6024681D01*
X37217245Y5881275D01*
X37044723Y5708753D01*
X37037092Y5698249D01*
X36987591Y5662287D01*
X36926406Y5662288D01*
X36876910Y5698249D01*
X36869278Y5708753D01*
X36696756Y5881275D01*
X36499375Y6024681D01*
X36281995Y6135441D01*
X36049955Y6210836D01*
X35937001Y6228726D01*
X35937001Y5326062D01*
X35883891Y5348060D01*
X35753483Y5374000D01*
X35620519Y5374000D01*
X35490111Y5348060D01*
X35437001Y5326062D01*
X35437001Y6228726D01*
X35324046Y6210836D01*
X35092006Y6135441D01*
X34874626Y6024681D01*
X34677245Y5881275D01*
X34504723Y5708753D01*
X34497092Y5698249D01*
X34447591Y5662287D01*
X34386406Y5662288D01*
X34336910Y5698249D01*
X34329278Y5708753D01*
X34156756Y5881275D01*
X33959375Y6024681D01*
X33741995Y6135441D01*
X33509955Y6210836D01*
X33397001Y6228726D01*
X33397001Y5326062D01*
X33343891Y5348060D01*
X33213483Y5374000D01*
X33080519Y5374000D01*
X32950111Y5348060D01*
X32897001Y5326062D01*
X32897001Y6228726D01*
X32784046Y6210836D01*
X32552006Y6135441D01*
X32334626Y6024681D01*
X32137245Y5881275D01*
X31964723Y5708753D01*
X31957092Y5698249D01*
X31907591Y5662287D01*
X31846406Y5662288D01*
X31796910Y5698249D01*
X31789278Y5708753D01*
X31616756Y5881275D01*
X31419375Y6024681D01*
X31201995Y6135441D01*
X30969955Y6210836D01*
X30857001Y6228726D01*
X30857001Y5326062D01*
X30803891Y5348060D01*
X30673483Y5374000D01*
X30540519Y5374000D01*
X30410111Y5348060D01*
X30357001Y5326062D01*
X30357001Y6228726D01*
X30244046Y6210836D01*
X30012006Y6135441D01*
X29794626Y6024681D01*
X29597245Y5881275D01*
X29424726Y5708756D01*
X29281320Y5511375D01*
X29170560Y5293995D01*
X29095165Y5061955D01*
X29077276Y4949000D01*
X500500Y4949000D01*
X500500Y9830000D01*
X519407Y9888191D01*
X568907Y9924155D01*
X599500Y9929000D01*
X3535356Y9929000D01*
X3535357Y9929001D01*
X3535357Y11429000D01*
X4035357Y11429000D01*
X4035357Y9929001D01*
X4035358Y9929000D01*
X7103181Y9929000D01*
X7162727Y9935402D01*
X7162738Y9935404D01*
X7297445Y9985647D01*
X7297447Y9985648D01*
X7412541Y10071808D01*
X7412549Y10071816D01*
X7498709Y10186910D01*
X7498710Y10186912D01*
X7548953Y10321619D01*
X7548955Y10321630D01*
X7555357Y10381176D01*
X7555357Y11813999D01*
X7555356Y11814000D01*
X6349122Y11814000D01*
X6375954Y11878777D01*
X6400357Y12001458D01*
X6400357Y12126542D01*
X6386911Y12194137D01*
X8064858Y12194137D01*
X8064858Y11933863D01*
X8093192Y11718645D01*
X8098830Y11675825D01*
X8098830Y11675820D01*
X8166194Y11424412D01*
X8265793Y11183956D01*
X8265796Y11183951D01*
X8370604Y11002420D01*
X8395933Y10958549D01*
X8554377Y10752060D01*
X8738418Y10568019D01*
X8944907Y10409575D01*
X8944909Y10409574D01*
X9170308Y10279439D01*
X9170313Y10279436D01*
X9366356Y10198233D01*
X9410771Y10179836D01*
X9662175Y10112473D01*
X9920221Y10078500D01*
X9920222Y10078500D01*
X13450494Y10078500D01*
X13450495Y10078500D01*
X13708541Y10112473D01*
X13959945Y10179836D01*
X14125949Y10248597D01*
X14200402Y10279436D01*
X14200403Y10279438D01*
X14200406Y10279438D01*
X14425809Y10409575D01*
X14632298Y10568019D01*
X14816339Y10752060D01*
X14974783Y10958549D01*
X15104920Y11183952D01*
X15204522Y11424413D01*
X15271885Y11675817D01*
X15305858Y11933863D01*
X15305858Y12194137D01*
X15271885Y12452183D01*
X15204522Y12703587D01*
X15186125Y12748002D01*
X15104922Y12944045D01*
X15104919Y12944050D01*
X14974784Y13169449D01*
X14974783Y13169451D01*
X14816339Y13375940D01*
X14632298Y13559981D01*
X14425809Y13718425D01*
X14425806Y13718427D01*
X14200407Y13848562D01*
X14200402Y13848565D01*
X13959950Y13948162D01*
X13959949Y13948163D01*
X13959945Y13948164D01*
X13923902Y13957822D01*
X13819077Y13985910D01*
X13767763Y14019235D01*
X13745837Y14076356D01*
X13745701Y14081537D01*
X13745701Y14672424D01*
X13762384Y14727424D01*
X13782084Y14756905D01*
X13838659Y14893487D01*
X13850007Y14950541D01*
X13850333Y14951838D01*
X13851157Y14955986D01*
X13851159Y14955988D01*
X13880000Y15100983D01*
X13880000Y15248818D01*
X13880000Y15462622D01*
X13898907Y15520813D01*
X13918731Y15541163D01*
X13970282Y15580718D01*
X14066536Y15706159D01*
X14127044Y15852238D01*
X14142500Y15969639D01*
X14142499Y17348360D01*
X14127044Y17465762D01*
X14098164Y17535484D01*
X14066537Y17611839D01*
X14066537Y17611840D01*
X13970286Y17737277D01*
X13970285Y17737278D01*
X13970282Y17737282D01*
X13970277Y17737286D01*
X13970276Y17737287D01*
X13844839Y17833538D01*
X13698766Y17894043D01*
X13698758Y17894045D01*
X13581361Y17909500D01*
X12677642Y17909500D01*
X12677637Y17909499D01*
X12560241Y17894045D01*
X12560233Y17894043D01*
X12414161Y17833538D01*
X12414160Y17833538D01*
X12288723Y17737287D01*
X12288713Y17737277D01*
X12192462Y17611840D01*
X12192462Y17611839D01*
X12133966Y17470615D01*
X12094230Y17424089D01*
X12042502Y17409500D01*
X11493081Y17409500D01*
X11348085Y17380658D01*
X11211506Y17324085D01*
X11088585Y17241952D01*
X10984048Y17137415D01*
X10901915Y17014494D01*
X10845342Y16877915D01*
X10816500Y16732919D01*
X10816500Y15778500D01*
X10797593Y15720309D01*
X10777768Y15699959D01*
X10706555Y15645315D01*
X10706547Y15645307D01*
X10614301Y15525090D01*
X10556314Y15385097D01*
X10556312Y15385091D01*
X10541500Y15272579D01*
X10541500Y14697138D01*
X10556312Y14584626D01*
X10556313Y14584621D01*
X10583964Y14517868D01*
X10591500Y14479982D01*
X10591500Y14148500D01*
X10572593Y14090309D01*
X10523093Y14054345D01*
X10492500Y14049500D01*
X9920220Y14049500D01*
X9662182Y14015528D01*
X9662177Y14015528D01*
X9410769Y13948164D01*
X9170313Y13848565D01*
X9170308Y13848562D01*
X8944909Y13718427D01*
X8738421Y13559984D01*
X8554374Y13375937D01*
X8395931Y13169449D01*
X8265796Y12944050D01*
X8265793Y12944045D01*
X8166194Y12703589D01*
X8098830Y12452181D01*
X8098830Y12452176D01*
X8080639Y12314000D01*
X8064858Y12194137D01*
X6386911Y12194137D01*
X6375954Y12249223D01*
X6349122Y12314000D01*
X7555356Y12314000D01*
X7555357Y12314001D01*
X7555357Y13746825D01*
X7548955Y13806371D01*
X7548953Y13806382D01*
X7498710Y13941089D01*
X7498709Y13941091D01*
X7412549Y14056185D01*
X7412541Y14056193D01*
X7297447Y14142353D01*
X7297445Y14142354D01*
X7162738Y14192597D01*
X7162727Y14192599D01*
X7103181Y14199000D01*
X4035358Y14199000D01*
X4035357Y14198999D01*
X4035357Y12699000D01*
X3535357Y12699000D01*
X3535357Y14198999D01*
X3509399Y14224957D01*
X3481622Y14279474D01*
X3491193Y14339906D01*
X3499310Y14353152D01*
X3556826Y14432317D01*
X3672947Y14660218D01*
X3751987Y14903481D01*
X3792000Y15156107D01*
X3792000Y15411894D01*
X3751987Y15664520D01*
X3672947Y15907783D01*
X3556825Y16135686D01*
X3556821Y16135692D01*
X3479149Y16242597D01*
X3479148Y16242597D01*
X2844577Y15608026D01*
X2831641Y15639258D01*
X2749563Y15762097D01*
X2645097Y15866563D01*
X2522258Y15948641D01*
X2491023Y15961579D01*
X3125595Y16596150D01*
X3045413Y16654406D01*
X3009449Y16703907D01*
X3009449Y16765092D01*
X3045413Y16814592D01*
X3103604Y16833499D01*
X6280474Y16833499D01*
X6280475Y16833499D01*
X6420485Y16871015D01*
X6436319Y16880157D01*
X6457947Y16892643D01*
X6496777Y16915063D01*
X6546015Y16943489D01*
X7367509Y17764983D01*
X7439983Y17890513D01*
X7445912Y17912640D01*
X14417101Y17912640D01*
X14417101Y17549763D01*
X14417102Y17549757D01*
X14423316Y17491941D01*
X14423316Y17491939D01*
X14423317Y17491937D01*
X14472106Y17361131D01*
X14481664Y17348363D01*
X14532443Y17280528D01*
X14552179Y17222612D01*
X14534104Y17164158D01*
X14532443Y17161872D01*
X14472107Y17081272D01*
X14423316Y16950462D01*
X14417101Y16892643D01*
X14417101Y16529765D01*
X14417102Y16529759D01*
X14423316Y16471942D01*
X14423317Y16471940D01*
X14472105Y16341135D01*
X14472107Y16341131D01*
X14517355Y16280687D01*
X14537091Y16222772D01*
X14537101Y16221359D01*
X14537101Y14634125D01*
X14570149Y14510790D01*
X14574617Y14494115D01*
X14647091Y14368585D01*
X18037505Y10978171D01*
X18065281Y10923656D01*
X18066500Y10908169D01*
X18066500Y10805579D01*
X18097289Y10611178D01*
X18158116Y10423974D01*
X18231759Y10279439D01*
X18247476Y10248594D01*
X18363172Y10089353D01*
X18502354Y9950171D01*
X18502357Y9950169D01*
X18502359Y9950167D01*
X18512098Y9943091D01*
X18548062Y9893591D01*
X18548061Y9832406D01*
X18512097Y9782906D01*
X18453907Y9763999D01*
X18369176Y9763999D01*
X18309629Y9757598D01*
X18309618Y9757596D01*
X18174911Y9707353D01*
X18174909Y9707352D01*
X18059815Y9621192D01*
X18059807Y9621184D01*
X17973647Y9506090D01*
X17973646Y9506088D01*
X17923403Y9371381D01*
X17923401Y9371370D01*
X17917000Y9311824D01*
X17917000Y8614000D01*
X17917001Y8613999D01*
X18941722Y8613999D01*
X18897667Y8537693D01*
X18867000Y8423243D01*
X18867000Y8304755D01*
X18897667Y8190305D01*
X18941722Y8113999D01*
X17917001Y8113999D01*
X17917000Y8113998D01*
X17917000Y7416175D01*
X17916999Y7416175D01*
X17923401Y7356629D01*
X17923403Y7356618D01*
X17973646Y7221911D01*
X17973647Y7221909D01*
X18059807Y7106815D01*
X18059815Y7106807D01*
X18174909Y7020647D01*
X18174911Y7020646D01*
X18309618Y6970403D01*
X18309629Y6970401D01*
X18369176Y6963999D01*
X19066999Y6963999D01*
X19067000Y6964000D01*
X19067000Y7988722D01*
X19143306Y7944666D01*
X19257756Y7913999D01*
X19376244Y7913999D01*
X19490694Y7944666D01*
X19567000Y7988722D01*
X19567000Y6964000D01*
X19567001Y6963999D01*
X20264824Y6963999D01*
X20324370Y6970401D01*
X20324381Y6970403D01*
X20459088Y7020646D01*
X20459090Y7020647D01*
X20574184Y7106807D01*
X20574192Y7106815D01*
X20660352Y7221909D01*
X20660353Y7221911D01*
X20710596Y7356618D01*
X20710598Y7356629D01*
X20717000Y7416175D01*
X20717000Y8113998D01*
X20716999Y8113999D01*
X19692278Y8113999D01*
X19736333Y8190305D01*
X19767000Y8304755D01*
X19767000Y8423243D01*
X19736333Y8537693D01*
X19692278Y8613999D01*
X20716999Y8613999D01*
X20717000Y8614000D01*
X20717000Y9311824D01*
X20710598Y9371370D01*
X20710596Y9371381D01*
X20660353Y9506088D01*
X20660352Y9506090D01*
X20574192Y9621184D01*
X20574184Y9621192D01*
X20459090Y9707352D01*
X20459088Y9707353D01*
X20324381Y9757596D01*
X20324370Y9757598D01*
X20264824Y9763999D01*
X20180093Y9763999D01*
X20121902Y9782906D01*
X20085938Y9832406D01*
X20085938Y9893592D01*
X20121902Y9943091D01*
X20131640Y9950167D01*
X20131646Y9950171D01*
X20270828Y10089353D01*
X20386524Y10248594D01*
X20475884Y10423974D01*
X20536709Y10611173D01*
X20567500Y10805582D01*
X20567500Y11002416D01*
X20567500Y11002420D01*
X20536710Y11196821D01*
X20536709Y11196825D01*
X20475884Y11384024D01*
X20386524Y11559404D01*
X20270828Y11718645D01*
X20131646Y11857827D01*
X19972405Y11973523D01*
X19972404Y11973524D01*
X19972402Y11973525D01*
X19797025Y12062883D01*
X19609821Y12123710D01*
X19415420Y12154499D01*
X19415417Y12154499D01*
X19218583Y12154499D01*
X19218580Y12154499D01*
X19024178Y12123710D01*
X18836974Y12062883D01*
X18684351Y11985118D01*
X18623919Y11975547D01*
X18569402Y12003324D01*
X15667097Y14905629D01*
X15639320Y14960146D01*
X15638101Y14975633D01*
X15638101Y16221359D01*
X15657008Y16279550D01*
X15657847Y16280687D01*
X15668747Y16295248D01*
X15718755Y16330502D01*
X15779934Y16329628D01*
X15827254Y16295249D01*
X15876570Y16229370D01*
X15887272Y16221359D01*
X15984477Y16148592D01*
X15988333Y16145706D01*
X16119139Y16096917D01*
X16176958Y16090701D01*
X16639843Y16090702D01*
X16697663Y16096917D01*
X16828469Y16145706D01*
X16828472Y16145709D01*
X16828474Y16145709D01*
X16833756Y16148592D01*
X16881199Y16160701D01*
X17967500Y16160701D01*
X18025691Y16141794D01*
X18061655Y16092294D01*
X18066500Y16061701D01*
X18066500Y15495741D01*
X18073118Y15450319D01*
X18076427Y15427606D01*
X18097212Y15385091D01*
X18127802Y15322518D01*
X18210517Y15239803D01*
X18264285Y15213518D01*
X18315604Y15188429D01*
X18315605Y15188429D01*
X18315607Y15188428D01*
X18383740Y15178501D01*
X18383743Y15178501D01*
X18680957Y15178501D01*
X18739148Y15159594D01*
X18775112Y15110094D01*
X18775112Y15048908D01*
X18739148Y14999408D01*
X18725902Y14991291D01*
X18661597Y14958527D01*
X18502355Y14842830D01*
X18363171Y14703646D01*
X18247474Y14544404D01*
X18158116Y14369027D01*
X18097289Y14181823D01*
X18066500Y13987422D01*
X18066500Y13790581D01*
X18097289Y13596180D01*
X18158116Y13408976D01*
X18174948Y13375940D01*
X18247476Y13233596D01*
X18363172Y13074355D01*
X18502354Y12935173D01*
X18661595Y12819477D01*
X18836975Y12730117D01*
X19024174Y12669292D01*
X19024175Y12669292D01*
X19024178Y12669291D01*
X19218580Y12638501D01*
X19218583Y12638501D01*
X19415420Y12638501D01*
X19609821Y12669291D01*
X19609822Y12669292D01*
X19609826Y12669292D01*
X19797025Y12730117D01*
X19972405Y12819477D01*
X20131646Y12935173D01*
X20270828Y13074355D01*
X20386524Y13233596D01*
X20475884Y13408976D01*
X20536709Y13596175D01*
X20536710Y13596180D01*
X20567500Y13790581D01*
X20567500Y13987422D01*
X20536710Y14181823D01*
X20536709Y14181827D01*
X20475884Y14369026D01*
X20386524Y14544406D01*
X20270828Y14703647D01*
X20131646Y14842829D01*
X19972405Y14958525D01*
X19972404Y14958526D01*
X19972402Y14958527D01*
X19908098Y14991291D01*
X19864833Y15034556D01*
X19855262Y15094988D01*
X19883039Y15149505D01*
X19937556Y15177282D01*
X19953043Y15178501D01*
X20250257Y15178501D01*
X20250260Y15178501D01*
X20318393Y15188428D01*
X20423483Y15239803D01*
X20506198Y15322518D01*
X20557573Y15427608D01*
X20567500Y15495741D01*
X20567500Y17362261D01*
X20557573Y17430394D01*
X20506198Y17535484D01*
X20423483Y17618199D01*
X20423481Y17618200D01*
X20318395Y17669574D01*
X20291139Y17673545D01*
X20250260Y17679501D01*
X18383740Y17679501D01*
X18349673Y17674538D01*
X18315604Y17669574D01*
X18210518Y17618200D01*
X18127801Y17535483D01*
X18076427Y17430397D01*
X18076427Y17430394D01*
X18069181Y17380658D01*
X18066500Y17362258D01*
X18066500Y17360701D01*
X18066354Y17360254D01*
X18066241Y17358686D01*
X18065854Y17358715D01*
X18047593Y17302510D01*
X17998093Y17266546D01*
X17967500Y17261701D01*
X16881199Y17261701D01*
X16833756Y17273810D01*
X16828476Y17276693D01*
X16828470Y17276696D01*
X16828469Y17276696D01*
X16697663Y17325485D01*
X16697662Y17325486D01*
X16658641Y17329681D01*
X16639844Y17331701D01*
X16639840Y17331701D01*
X16176964Y17331701D01*
X16176958Y17331700D01*
X16119142Y17325486D01*
X15988330Y17276695D01*
X15876572Y17193034D01*
X15876566Y17193028D01*
X15827254Y17127154D01*
X15777246Y17091901D01*
X15716067Y17092775D01*
X15668749Y17127153D01*
X15642759Y17161870D01*
X15623021Y17219784D01*
X15641094Y17278239D01*
X15642737Y17280501D01*
X15703096Y17361131D01*
X15751885Y17491937D01*
X15758101Y17549756D01*
X15758100Y17808769D01*
X15777007Y17866958D01*
X15787090Y17878765D01*
X16891563Y18983237D01*
X16915097Y19024001D01*
X16960566Y19064940D01*
X17000833Y19073499D01*
X17014310Y19073499D01*
X17014313Y19073499D01*
X17082446Y19083426D01*
X17187536Y19134801D01*
X17262010Y19209276D01*
X17316524Y19237052D01*
X17369896Y19230735D01*
X17378087Y19227342D01*
X17523082Y19198500D01*
X17523083Y19198500D01*
X17670917Y19198500D01*
X17670918Y19198500D01*
X17815913Y19227342D01*
X17822759Y19230179D01*
X17883756Y19234982D01*
X17930650Y19208722D01*
X18004570Y19134802D01*
X18058338Y19108517D01*
X18109657Y19083428D01*
X18109658Y19083428D01*
X18109660Y19083427D01*
X18177793Y19073500D01*
X18177796Y19073500D01*
X19304310Y19073500D01*
X19304313Y19073500D01*
X19372446Y19083427D01*
X19477536Y19134802D01*
X19560251Y19217517D01*
X19611626Y19322607D01*
X19621553Y19390740D01*
X19621553Y20517260D01*
X19611626Y20585393D01*
X19601131Y20606860D01*
X19572986Y20664433D01*
X19560251Y20690483D01*
X19477536Y20773198D01*
X19477534Y20773199D01*
X19372448Y20824573D01*
X19345192Y20828544D01*
X19304313Y20834500D01*
X18177793Y20834500D01*
X18143726Y20829537D01*
X18109657Y20824573D01*
X18004571Y20773199D01*
X18004568Y20773197D01*
X17923581Y20692210D01*
X17869064Y20664433D01*
X17820833Y20670138D01*
X17820563Y20669247D01*
X17815914Y20670658D01*
X17670918Y20699500D01*
X17523082Y20699500D01*
X17523081Y20699500D01*
X17378085Y20670658D01*
X17378076Y20670655D01*
X17376947Y20670187D01*
X17376391Y20670144D01*
X17373437Y20669247D01*
X17373240Y20669897D01*
X17315949Y20665399D01*
X17269079Y20691654D01*
X17187536Y20773197D01*
X17187532Y20773199D01*
X17082448Y20824572D01*
X17055192Y20828543D01*
X17014313Y20834499D01*
X15887793Y20834499D01*
X15853726Y20829536D01*
X15819657Y20824572D01*
X15714571Y20773198D01*
X15631854Y20690481D01*
X15580480Y20585395D01*
X15578204Y20569774D01*
X15570553Y20517259D01*
X15570553Y19390739D01*
X15573916Y19367657D01*
X15580481Y19322600D01*
X15582750Y19315257D01*
X15581314Y19314814D01*
X15588673Y19262792D01*
X15561166Y19209893D01*
X14647091Y18295816D01*
X14647089Y18295813D01*
X14642576Y18287996D01*
X14616170Y18258246D01*
X14555768Y18213030D01*
X14472107Y18101270D01*
X14423316Y17970460D01*
X14417101Y17912640D01*
X7445912Y17912640D01*
X7445912Y17912641D01*
X7477499Y18030523D01*
X7477499Y18859867D01*
X7489609Y18907314D01*
X7492488Y18912589D01*
X7492494Y18912596D01*
X7541283Y19043402D01*
X7547499Y19101221D01*
X7547498Y19564106D01*
X7541283Y19621926D01*
X7492494Y19752732D01*
X7408830Y19864495D01*
X7371858Y19892172D01*
X7297069Y19948158D01*
X7297067Y19948159D01*
X7166261Y19996948D01*
X7166260Y19996949D01*
X7127239Y20001144D01*
X7108442Y20003164D01*
X7108438Y20003164D01*
X6745562Y20003164D01*
X6745556Y20003163D01*
X6687740Y19996949D01*
X6556928Y19948158D01*
X6445170Y19864497D01*
X6445166Y19864493D01*
X6361505Y19752735D01*
X6312714Y19621925D01*
X6306499Y19564104D01*
X6306499Y19101228D01*
X6306500Y19101222D01*
X6312714Y19043405D01*
X6312714Y19043404D01*
X6312715Y19043402D01*
X6361504Y18912596D01*
X6361506Y18912593D01*
X6364389Y18907314D01*
X6376499Y18859867D01*
X6376499Y18372031D01*
X6357592Y18313840D01*
X6347503Y18302027D01*
X6008971Y17963495D01*
X5954454Y17935718D01*
X5938967Y17934499D01*
X3055375Y17934499D01*
X2997184Y17953406D01*
X2973060Y17978497D01*
X2944139Y18021781D01*
X2804782Y18161138D01*
X2695288Y18234300D01*
X2640913Y18270632D01*
X2588033Y18292535D01*
X2541507Y18332271D01*
X2527223Y18391766D01*
X2550637Y18448294D01*
X2588033Y18475463D01*
X2601696Y18481123D01*
X2640914Y18497367D01*
X2804782Y18606860D01*
X2944139Y18746217D01*
X3053632Y18910085D01*
X3129051Y19092164D01*
X3167500Y19285458D01*
X3167500Y19482540D01*
X3129051Y19675834D01*
X3053632Y19857913D01*
X2944139Y20021781D01*
X2804782Y20161138D01*
X2640914Y20270631D01*
X2640915Y20270631D01*
X2640913Y20270632D01*
X2588033Y20292535D01*
X2541507Y20332271D01*
X2527223Y20391766D01*
X2550637Y20448294D01*
X2588033Y20475463D01*
X2601696Y20481123D01*
X2640914Y20497367D01*
X2804782Y20606860D01*
X2944139Y20746217D01*
X3053632Y20910085D01*
X3129051Y21092164D01*
X3167500Y21285458D01*
X3167500Y21482540D01*
X3129051Y21675834D01*
X3053632Y21857913D01*
X2944139Y22021781D01*
X2804782Y22161138D01*
X2640914Y22270631D01*
X2640913Y22270632D01*
X2640911Y22270633D01*
X2539901Y22312472D01*
X7665454Y22312472D01*
X7665454Y22164635D01*
X7694296Y22019639D01*
X7750867Y21883063D01*
X7750874Y21883050D01*
X7770961Y21852989D01*
X7770965Y21852983D01*
X7772499Y21850688D01*
X7833002Y21760137D01*
X7864341Y21728798D01*
X7868533Y21723223D01*
X7876309Y21700561D01*
X7887186Y21679214D01*
X7886064Y21672134D01*
X7888392Y21665351D01*
X7881362Y21642448D01*
X7877615Y21618782D01*
X7871529Y21610407D01*
X7870441Y21606858D01*
X7867159Y21604391D01*
X7859412Y21593727D01*
X7853102Y21587417D01*
X7770967Y21464493D01*
X7714395Y21327915D01*
X7685553Y21182919D01*
X7685553Y21035082D01*
X7714395Y20890086D01*
X7770968Y20753507D01*
X7770969Y20753505D01*
X7853102Y20630584D01*
X7898917Y20584769D01*
X7926693Y20530254D01*
X7917122Y20469822D01*
X7898917Y20444765D01*
X7883173Y20429021D01*
X7801038Y20306097D01*
X7744466Y20169519D01*
X7715624Y20024523D01*
X7715624Y19876686D01*
X7744466Y19731690D01*
X7795679Y19608052D01*
X7801040Y19595109D01*
X7883173Y19472188D01*
X7987708Y19367653D01*
X8110629Y19285520D01*
X8247211Y19228946D01*
X8392206Y19200104D01*
X8540042Y19200104D01*
X8731552Y19200104D01*
X8789743Y19181197D01*
X8825707Y19131697D01*
X8830552Y19101104D01*
X8830552Y18722708D01*
X8859394Y18577712D01*
X8915966Y18441136D01*
X8915969Y18441128D01*
X8917713Y18438520D01*
X8917718Y18438502D01*
X8917723Y18438505D01*
X8997101Y18319704D01*
X8998100Y18318210D01*
X9105262Y18211048D01*
X9166270Y18170285D01*
X9228183Y18128916D01*
X9284335Y18105657D01*
X9364766Y18072341D01*
X9480919Y18049237D01*
X9509760Y18043500D01*
X9509761Y18043500D01*
X9657595Y18043500D01*
X9657596Y18043500D01*
X9802591Y18072341D01*
X9939173Y18128916D01*
X10062094Y18211048D01*
X10166630Y18315584D01*
X10248762Y18438505D01*
X10305337Y18575087D01*
X10334178Y18720082D01*
X10334178Y18867917D01*
X10333454Y18871559D01*
X10331552Y18890872D01*
X10331552Y19101104D01*
X10350459Y19159295D01*
X10399959Y19195259D01*
X10430552Y19200104D01*
X10799267Y19200104D01*
X10799268Y19200104D01*
X10944263Y19228946D01*
X11080845Y19285520D01*
X11136350Y19322607D01*
X11203766Y19367652D01*
X11321244Y19485131D01*
X11403377Y19608052D01*
X11459951Y19744634D01*
X11488793Y19889629D01*
X11488793Y20037464D01*
X11463129Y20166486D01*
X11459951Y20182460D01*
X11403377Y20319042D01*
X11321244Y20441963D01*
X11308379Y20454828D01*
X11280604Y20509342D01*
X11281858Y20517260D01*
X13280553Y20517260D01*
X13280553Y19390740D01*
X13283916Y19367657D01*
X13290480Y19322605D01*
X13332305Y19237052D01*
X13341855Y19217517D01*
X13424570Y19134802D01*
X13478338Y19108517D01*
X13529657Y19083428D01*
X13529658Y19083428D01*
X13529660Y19083427D01*
X13597793Y19073500D01*
X13597796Y19073500D01*
X14724310Y19073500D01*
X14724313Y19073500D01*
X14792446Y19083427D01*
X14897536Y19134802D01*
X14980251Y19217517D01*
X15031626Y19322607D01*
X15041553Y19390740D01*
X15041553Y20517260D01*
X15031626Y20585393D01*
X15021131Y20606860D01*
X14992986Y20664433D01*
X14980251Y20690483D01*
X14899589Y20771145D01*
X14871814Y20825659D01*
X14878133Y20879036D01*
X14882711Y20890087D01*
X14907736Y21015895D01*
X14911553Y21035082D01*
X14911553Y21182918D01*
X14882711Y21327913D01*
X14826137Y21464495D01*
X14744004Y21587416D01*
X14639469Y21691951D01*
X14516548Y21774084D01*
X14516546Y21774085D01*
X14379967Y21830658D01*
X14234971Y21859500D01*
X14087135Y21859500D01*
X14087134Y21859500D01*
X13942138Y21830658D01*
X13805559Y21774085D01*
X13682638Y21691952D01*
X13578101Y21587415D01*
X13495968Y21464494D01*
X13439395Y21327915D01*
X13410553Y21182919D01*
X13410553Y21035082D01*
X13439395Y20890086D01*
X13443975Y20879029D01*
X13448774Y20818032D01*
X13422514Y20771143D01*
X13341856Y20690485D01*
X13341854Y20690482D01*
X13290480Y20585396D01*
X13290389Y20584771D01*
X13280553Y20517260D01*
X11281858Y20517260D01*
X11290175Y20569774D01*
X11308378Y20594830D01*
X11324946Y20611397D01*
X11407079Y20734318D01*
X11463653Y20870900D01*
X11492495Y21015895D01*
X11492495Y21163731D01*
X11463653Y21308726D01*
X11407079Y21445308D01*
X11324946Y21568229D01*
X11289800Y21603375D01*
X11262025Y21657889D01*
X11271596Y21718321D01*
X11289801Y21743377D01*
X11307550Y21761125D01*
X11389683Y21884046D01*
X11446257Y22020628D01*
X11475099Y22165623D01*
X11475099Y22313459D01*
X11446257Y22458454D01*
X11389683Y22595036D01*
X11307550Y22717957D01*
X11218247Y22807260D01*
X17860554Y22807260D01*
X17860554Y21680740D01*
X17866133Y21642448D01*
X17870481Y21612605D01*
X17892176Y21568228D01*
X17921856Y21507517D01*
X18004571Y21424802D01*
X18058339Y21398517D01*
X18109658Y21373428D01*
X18109659Y21373428D01*
X18109661Y21373427D01*
X18177794Y21363500D01*
X18177797Y21363500D01*
X19304311Y21363500D01*
X19304314Y21363500D01*
X19372447Y21373427D01*
X19477537Y21424802D01*
X19560252Y21507517D01*
X19611627Y21612607D01*
X19621554Y21680740D01*
X19621554Y22807260D01*
X19611627Y22875393D01*
X19597336Y22904625D01*
X19560252Y22980482D01*
X19560252Y22980483D01*
X19477537Y23063198D01*
X19477535Y23063199D01*
X19372449Y23114573D01*
X19345193Y23118544D01*
X19304314Y23124500D01*
X18177794Y23124500D01*
X18143727Y23119537D01*
X18109658Y23114573D01*
X18004572Y23063199D01*
X17921855Y22980482D01*
X17870481Y22875396D01*
X17870481Y22875393D01*
X17860554Y22807260D01*
X11218247Y22807260D01*
X11203015Y22822492D01*
X11080094Y22904625D01*
X11070406Y22908638D01*
X10943513Y22961199D01*
X10798517Y22990041D01*
X10431700Y22990041D01*
X10373509Y23008948D01*
X10361696Y23019037D01*
X10360548Y23020185D01*
X10332771Y23074702D01*
X10331552Y23090189D01*
X10331552Y23472917D01*
X10331552Y23472918D01*
X10302710Y23617913D01*
X10246136Y23754495D01*
X10164003Y23877416D01*
X10059468Y23981951D01*
X9936547Y24064084D01*
X9936545Y24064085D01*
X9799966Y24120658D01*
X9654970Y24149500D01*
X9507134Y24149500D01*
X9507133Y24149500D01*
X9362137Y24120658D01*
X9225558Y24064085D01*
X9102637Y23981952D01*
X8998100Y23877415D01*
X8915967Y23754494D01*
X8859394Y23617915D01*
X8830552Y23472919D01*
X8830552Y23093054D01*
X8811645Y23034863D01*
X8762145Y22998899D01*
X8731552Y22994054D01*
X8347036Y22994054D01*
X8202040Y22965212D01*
X8065461Y22908639D01*
X7942536Y22826503D01*
X7942535Y22826503D01*
X7937982Y22821949D01*
X7833006Y22716975D01*
X7832998Y22716965D01*
X7807674Y22679063D01*
X7807674Y22679062D01*
X7750868Y22594046D01*
X7694296Y22457468D01*
X7665454Y22312472D01*
X2539901Y22312472D01*
X2458835Y22346050D01*
X2265543Y22384499D01*
X2265541Y22384499D01*
X2068459Y22384499D01*
X2068456Y22384499D01*
X1875165Y22346050D01*
X1875163Y22346050D01*
X1693086Y22270632D01*
X1529218Y22161138D01*
X1529214Y22161135D01*
X1389864Y22021785D01*
X1389861Y22021781D01*
X1280367Y21857913D01*
X1204949Y21675836D01*
X1204949Y21675834D01*
X1166500Y21482543D01*
X1166500Y21285456D01*
X1204949Y21092165D01*
X1204949Y21092163D01*
X1280367Y20910086D01*
X1306551Y20870899D01*
X1389861Y20746217D01*
X1529218Y20606860D01*
X1693086Y20497367D01*
X1735514Y20479793D01*
X1745967Y20475463D01*
X1792492Y20435726D01*
X1806776Y20376232D01*
X1783361Y20319704D01*
X1745967Y20292535D01*
X1693085Y20270631D01*
X1529218Y20161138D01*
X1529214Y20161135D01*
X1389864Y20021785D01*
X1389861Y20021781D01*
X1280367Y19857913D01*
X1204949Y19675836D01*
X1204949Y19675834D01*
X1166500Y19482543D01*
X1166500Y19285456D01*
X1181531Y19209893D01*
X1203147Y19101221D01*
X1204949Y19092165D01*
X1204949Y19092163D01*
X1280367Y18910086D01*
X1299722Y18881119D01*
X1389861Y18746217D01*
X1529218Y18606860D01*
X1693086Y18497367D01*
X1735514Y18479793D01*
X1745967Y18475463D01*
X1792492Y18435726D01*
X1806776Y18376232D01*
X1783361Y18319704D01*
X1745967Y18292535D01*
X1693085Y18270631D01*
X1529218Y18161138D01*
X1529214Y18161135D01*
X1389864Y18021785D01*
X1389861Y18021781D01*
X1280367Y17857913D01*
X1204949Y17675836D01*
X1204949Y17675834D01*
X1166500Y17482543D01*
X1166500Y17285456D01*
X1184884Y17193034D01*
X1204827Y17092775D01*
X1204949Y17092165D01*
X1204949Y17092163D01*
X1280366Y16910088D01*
X1345318Y16812880D01*
X1361926Y16753992D01*
X1340748Y16696588D01*
X1318165Y16676517D01*
X1318460Y16676111D01*
X1208403Y16596151D01*
X1842975Y15961579D01*
X1811742Y15948641D01*
X1688903Y15866563D01*
X1584437Y15762097D01*
X1502359Y15639258D01*
X1489421Y15608025D01*
X854849Y16242597D01*
X777176Y16135690D01*
X777174Y16135686D01*
X687710Y15960102D01*
X644445Y15916837D01*
X584013Y15907266D01*
X529496Y15935044D01*
X501719Y15989560D01*
X500500Y16005047D01*
X500500Y26762953D01*
X519407Y26821144D01*
X568907Y26857108D01*
X630093Y26857108D01*
X679593Y26821144D01*
X687710Y26807898D01*
X777174Y26632314D01*
X777178Y26632308D01*
X854849Y26525404D01*
X854850Y26525404D01*
X1489421Y27159976D01*
X1502359Y27128741D01*
X1584437Y27005902D01*
X1688903Y26901436D01*
X1811742Y26819358D01*
X1842973Y26806422D01*
X1208403Y26171851D01*
X1208403Y26171850D01*
X1318461Y26091887D01*
X1317783Y26090955D01*
X1354464Y26048011D01*
X1359268Y25987014D01*
X1345318Y25955121D01*
X1280367Y25857914D01*
X1204949Y25675836D01*
X1204949Y25675834D01*
X1166500Y25482543D01*
X1166500Y25285456D01*
X1186979Y25182504D01*
X1203805Y25097913D01*
X1204949Y25092165D01*
X1204949Y25092163D01*
X1280367Y24910086D01*
X1280368Y24910085D01*
X1389861Y24746217D01*
X1529218Y24606860D01*
X1693086Y24497367D01*
X1875165Y24421948D01*
X2068459Y24383499D01*
X2068460Y24383499D01*
X2265536Y24383499D01*
X2265541Y24383499D01*
X2316594Y24393655D01*
X2377353Y24386465D01*
X2405912Y24366562D01*
X3249737Y23522737D01*
X3375267Y23450263D01*
X3515277Y23412747D01*
X3515278Y23412747D01*
X3660226Y23412747D01*
X5442159Y23412747D01*
X5500350Y23393840D01*
X5501474Y23393011D01*
X5561933Y23347752D01*
X5692739Y23298963D01*
X5750558Y23292747D01*
X6113443Y23292748D01*
X6171263Y23298963D01*
X6302069Y23347752D01*
X6382672Y23408091D01*
X6440586Y23427827D01*
X6499041Y23409753D01*
X6501300Y23408111D01*
X6581931Y23347752D01*
X6712737Y23298963D01*
X6770556Y23292747D01*
X7133441Y23292748D01*
X7191261Y23298963D01*
X7322067Y23347752D01*
X7433830Y23431416D01*
X7517494Y23543179D01*
X7566283Y23673985D01*
X7572499Y23731804D01*
X7572498Y24194689D01*
X7566283Y24252509D01*
X7539110Y24325359D01*
X7536491Y24386487D01*
X7549552Y24414954D01*
X7622084Y24523505D01*
X7678658Y24660087D01*
X7707500Y24805082D01*
X7707500Y24952918D01*
X7678658Y25097913D01*
X7622084Y25234495D01*
X7539951Y25357416D01*
X7435416Y25461951D01*
X7312495Y25544084D01*
X7312493Y25544085D01*
X7175914Y25600658D01*
X7030918Y25629500D01*
X6883082Y25629500D01*
X6883081Y25629500D01*
X6738085Y25600658D01*
X6601506Y25544085D01*
X6478585Y25461952D01*
X6374048Y25357415D01*
X6291915Y25234494D01*
X6235342Y25097915D01*
X6206500Y24952919D01*
X6206500Y24805080D01*
X6217088Y24751853D01*
X6209896Y24691092D01*
X6168364Y24646162D01*
X6116095Y24634002D01*
X6116095Y24633747D01*
X6114998Y24633747D01*
X6114711Y24633680D01*
X6113456Y24633747D01*
X5750564Y24633747D01*
X5750558Y24633746D01*
X5692742Y24627532D01*
X5561930Y24578741D01*
X5501487Y24533493D01*
X5443572Y24513757D01*
X5442159Y24513747D01*
X3856785Y24513747D01*
X3798594Y24532654D01*
X3786781Y24542743D01*
X3184437Y25145087D01*
X3156660Y25199604D01*
X3157343Y25234403D01*
X3167500Y25285458D01*
X3167500Y25482540D01*
X3129051Y25675834D01*
X3053632Y25857913D01*
X2988680Y25955121D01*
X2972072Y26014006D01*
X2993249Y26071410D01*
X3015835Y26091479D01*
X3015539Y26091887D01*
X3125595Y26171850D01*
X2491024Y26806421D01*
X2522258Y26819358D01*
X2645097Y26901436D01*
X2749563Y27005902D01*
X2831641Y27128741D01*
X2844578Y27159975D01*
X3479149Y26525404D01*
X3556821Y26632309D01*
X3556825Y26632314D01*
X3672947Y26860217D01*
X3751987Y27103480D01*
X3792000Y27356106D01*
X3792000Y27611893D01*
X3751987Y27864519D01*
X3672947Y28107782D01*
X3556825Y28335685D01*
X3556821Y28335691D01*
X3479149Y28442596D01*
X3479148Y28442596D01*
X2844577Y27808026D01*
X2831641Y27839257D01*
X2749563Y27962096D01*
X2645097Y28066562D01*
X2522258Y28148640D01*
X2491023Y28161578D01*
X3125595Y28796149D01*
X3125595Y28796150D01*
X3018691Y28873821D01*
X3018685Y28873825D01*
X2790782Y28989947D01*
X2547519Y29068987D01*
X2414842Y29090001D01*
X2294893Y29108999D01*
X2039107Y29108999D01*
X1786480Y29068987D01*
X1543217Y28989947D01*
X1315314Y28873825D01*
X1315310Y28873823D01*
X1208403Y28796150D01*
X1842975Y28161578D01*
X1811742Y28148640D01*
X1688903Y28066562D01*
X1584437Y27962096D01*
X1502359Y27839257D01*
X1489421Y27808024D01*
X854849Y28442596D01*
X777176Y28335689D01*
X777174Y28335685D01*
X687710Y28160101D01*
X644445Y28116836D01*
X584013Y28107265D01*
X529496Y28135043D01*
X501719Y28189559D01*
X500500Y28205046D01*
X500500Y29182919D01*
X7701500Y29182919D01*
X7701500Y27920082D01*
X7730342Y27775086D01*
X7786914Y27638508D01*
X7786915Y27638506D01*
X7793599Y27628503D01*
X7840795Y27557868D01*
X7869048Y27515584D01*
X7978584Y27406048D01*
X8052268Y27356816D01*
X8052269Y27356814D01*
X8052270Y27356814D01*
X8101505Y27323916D01*
X8101506Y27323916D01*
X8101507Y27323915D01*
X8169796Y27295629D01*
X8238087Y27267342D01*
X8383082Y27238500D01*
X8383083Y27238500D01*
X8530917Y27238500D01*
X8530918Y27238500D01*
X8893082Y27238500D01*
X9040918Y27238500D01*
X9477246Y27238500D01*
X9496560Y27236599D01*
X9512135Y27233500D01*
X9512136Y27233500D01*
X11934969Y27233500D01*
X11934970Y27233500D01*
X12079965Y27262342D01*
X12216547Y27318916D01*
X12339469Y27401048D01*
X12454004Y27515584D01*
X12536137Y27638506D01*
X12592711Y27775087D01*
X12621553Y27920082D01*
X12621553Y28067917D01*
X12619402Y28078732D01*
X12617500Y28098046D01*
X12617500Y28263760D01*
X12636407Y28321951D01*
X12646490Y28333758D01*
X12690251Y28377518D01*
X12741626Y28482608D01*
X12751553Y28550741D01*
X12751553Y29677260D01*
X13280553Y29677260D01*
X13280553Y28550740D01*
X13287171Y28505318D01*
X13290480Y28482605D01*
X13341854Y28377520D01*
X13341855Y28377517D01*
X13424570Y28294802D01*
X13478338Y28268517D01*
X13529657Y28243428D01*
X13529658Y28243428D01*
X13529660Y28243427D01*
X13597793Y28233500D01*
X13597796Y28233500D01*
X14724310Y28233500D01*
X14724313Y28233500D01*
X14792446Y28243427D01*
X14897536Y28294802D01*
X14980251Y28377517D01*
X15031626Y28482607D01*
X15041553Y28550740D01*
X15041553Y29619500D01*
X15060460Y29677691D01*
X15109960Y29713655D01*
X15140553Y29718500D01*
X16099474Y29718500D01*
X16099475Y29718500D01*
X16239485Y29756016D01*
X16279440Y29779084D01*
X16365015Y29828490D01*
X16374188Y29837664D01*
X16384005Y29843727D01*
X16403064Y29848375D01*
X16420545Y29857281D01*
X16436032Y29858500D01*
X16440917Y29858500D01*
X16440918Y29858500D01*
X16585913Y29887342D01*
X16722495Y29943916D01*
X16845416Y30026049D01*
X16949951Y30130584D01*
X17032084Y30253505D01*
X17088658Y30390087D01*
X17117500Y30535082D01*
X17117500Y30682918D01*
X17088658Y30827913D01*
X17032084Y30964495D01*
X16949951Y31087416D01*
X16845416Y31191951D01*
X16811310Y31214740D01*
X16801365Y31221385D01*
X16763486Y31269435D01*
X16761084Y31330573D01*
X16795077Y31381447D01*
X16852481Y31402624D01*
X16856367Y31402700D01*
X17395275Y31402700D01*
X17395276Y31402700D01*
X17535286Y31440216D01*
X17543823Y31445146D01*
X17543831Y31445147D01*
X17543830Y31445149D01*
X17660816Y31512690D01*
X17848107Y31699982D01*
X17902622Y31727758D01*
X17963054Y31718187D01*
X18006319Y31674922D01*
X18015890Y31614490D01*
X18015207Y31610663D01*
X17994701Y31507574D01*
X17994701Y31359735D01*
X18023543Y31214739D01*
X18080116Y31078160D01*
X18080117Y31078158D01*
X18162250Y30955237D01*
X18165706Y30951781D01*
X18193482Y30897266D01*
X18194701Y30881779D01*
X18194701Y30082585D01*
X18175794Y30024394D01*
X18126294Y29988430D01*
X18109982Y29984620D01*
X18109659Y29984573D01*
X18004571Y29933199D01*
X17921854Y29850482D01*
X17870480Y29745396D01*
X17870480Y29745394D01*
X17870480Y29745393D01*
X17860553Y29677260D01*
X17860553Y28550740D01*
X17867171Y28505318D01*
X17870480Y28482605D01*
X17921854Y28377520D01*
X17921855Y28377517D01*
X18004570Y28294802D01*
X18058338Y28268517D01*
X18109657Y28243428D01*
X18109658Y28243428D01*
X18109660Y28243427D01*
X18177793Y28233500D01*
X18177796Y28233500D01*
X19304310Y28233500D01*
X19304313Y28233500D01*
X19372446Y28243427D01*
X19477536Y28294802D01*
X19560251Y28377517D01*
X19611626Y28482607D01*
X19621553Y28550740D01*
X19621553Y29677260D01*
X19611626Y29745393D01*
X19611624Y29745397D01*
X19586536Y29796715D01*
X19560251Y29850483D01*
X19477536Y29933198D01*
X19436302Y29953356D01*
X19372447Y29984573D01*
X19365475Y29986727D01*
X19315459Y30021970D01*
X19295711Y30079881D01*
X19295701Y30081315D01*
X19295701Y30881779D01*
X19314608Y30939970D01*
X19324691Y30951777D01*
X19328152Y30955237D01*
X19410285Y31078158D01*
X19466859Y31214740D01*
X19495701Y31359735D01*
X19495701Y31507571D01*
X19466859Y31652566D01*
X19410285Y31789148D01*
X19328152Y31912069D01*
X19223617Y32016604D01*
X19100696Y32098737D01*
X19100694Y32098738D01*
X18964115Y32155311D01*
X18819119Y32184153D01*
X18671283Y32184153D01*
X18671280Y32184153D01*
X18568191Y32163647D01*
X18507430Y32170839D01*
X18462500Y32212372D01*
X18450563Y32272381D01*
X18472424Y32319803D01*
X18470559Y32321234D01*
X18474504Y32326377D01*
X18474505Y32326380D01*
X18474510Y32326384D01*
X18546984Y32451914D01*
X18550808Y32466184D01*
X18584500Y32591924D01*
X18584500Y32597659D01*
X18587530Y32609480D01*
X18600884Y32630543D01*
X18611621Y32653050D01*
X18617009Y32655976D01*
X18620293Y32661154D01*
X18643476Y32670345D01*
X18665393Y32682243D01*
X18675934Y32683212D01*
X18677172Y32683702D01*
X18678254Y32683425D01*
X18683430Y32683900D01*
X18967257Y32683900D01*
X18967260Y32683900D01*
X19035393Y32693827D01*
X19140483Y32745202D01*
X19223198Y32827917D01*
X19274573Y32933007D01*
X19284500Y33001140D01*
X19284500Y33298358D01*
X19303407Y33356549D01*
X19352907Y33392513D01*
X19414093Y33392513D01*
X19463593Y33356549D01*
X19471710Y33343302D01*
X19504472Y33279001D01*
X19504473Y33278999D01*
X19504474Y33278998D01*
X19504476Y33278995D01*
X19620172Y33119754D01*
X19759354Y32980572D01*
X19918595Y32864876D01*
X20093975Y32775516D01*
X20281174Y32714691D01*
X20281175Y32714691D01*
X20281178Y32714690D01*
X20475580Y32683900D01*
X20475583Y32683900D01*
X20672420Y32683900D01*
X20866821Y32714690D01*
X20866822Y32714691D01*
X20866826Y32714691D01*
X21054025Y32775516D01*
X21229405Y32864876D01*
X21388646Y32980572D01*
X21527828Y33119754D01*
X21643524Y33278995D01*
X21732884Y33454375D01*
X21793709Y33641574D01*
X21796197Y33657282D01*
X21824500Y33835980D01*
X21824500Y34032821D01*
X21793710Y34227222D01*
X21793709Y34227226D01*
X21732884Y34414425D01*
X21643524Y34589805D01*
X21527828Y34749046D01*
X21388646Y34888228D01*
X21229405Y35003924D01*
X21229404Y35003925D01*
X21229402Y35003926D01*
X21054025Y35093284D01*
X20866821Y35154111D01*
X20672420Y35184900D01*
X20672417Y35184900D01*
X20475583Y35184900D01*
X20475580Y35184900D01*
X20281178Y35154111D01*
X20093974Y35093284D01*
X19918597Y35003926D01*
X19759355Y34888229D01*
X19620171Y34749045D01*
X19504474Y34589803D01*
X19471710Y34525498D01*
X19428445Y34482233D01*
X19368013Y34472662D01*
X19313496Y34500439D01*
X19285719Y34554956D01*
X19284500Y34570443D01*
X19284500Y34867657D01*
X19281503Y34888229D01*
X19274573Y34935793D01*
X19267377Y34950512D01*
X19223198Y35040882D01*
X19223198Y35040883D01*
X19140483Y35123598D01*
X19140481Y35123599D01*
X19035395Y35174973D01*
X19008139Y35178944D01*
X18967260Y35184900D01*
X17100740Y35184900D01*
X17066673Y35179937D01*
X17032604Y35174973D01*
X16927518Y35123599D01*
X16844801Y35040882D01*
X16793427Y34935796D01*
X16793427Y34935793D01*
X16783500Y34867660D01*
X16783500Y33001140D01*
X16786497Y32980572D01*
X16793427Y32933005D01*
X16826734Y32864876D01*
X16844802Y32827917D01*
X16927517Y32745202D01*
X16989929Y32714691D01*
X17037078Y32691641D01*
X17081052Y32649097D01*
X17091622Y32588832D01*
X17064749Y32533863D01*
X17010700Y32505188D01*
X16993598Y32503700D01*
X16849442Y32503700D01*
X16791251Y32522607D01*
X16790114Y32523446D01*
X16784475Y32527667D01*
X16776199Y32533863D01*
X16729670Y32568694D01*
X16729668Y32568695D01*
X16598862Y32617484D01*
X16598861Y32617485D01*
X16559840Y32621680D01*
X16541043Y32623700D01*
X16541039Y32623700D01*
X16178163Y32623700D01*
X16178157Y32623699D01*
X16120341Y32617485D01*
X15989529Y32568694D01*
X15877771Y32485033D01*
X15877767Y32485029D01*
X15794106Y32373271D01*
X15745315Y32242461D01*
X15739100Y32184640D01*
X15739100Y31721764D01*
X15739101Y31721758D01*
X15745315Y31663942D01*
X15745315Y31663940D01*
X15745316Y31663938D01*
X15765187Y31610663D01*
X15794106Y31533130D01*
X15813240Y31507570D01*
X15877769Y31421369D01*
X15931099Y31381447D01*
X15932800Y31380174D01*
X15968054Y31330166D01*
X15967180Y31268986D01*
X15930514Y31220005D01*
X15928488Y31218615D01*
X15888586Y31191952D01*
X15888583Y31191950D01*
X15784048Y31087415D01*
X15701916Y30964496D01*
X15667171Y30880614D01*
X15627434Y30834088D01*
X15575707Y30819500D01*
X14394525Y30819500D01*
X14254515Y30781984D01*
X14128985Y30709510D01*
X13720541Y30301066D01*
X13693082Y30253507D01*
X13693083Y30253506D01*
X13648069Y30175539D01*
X13648067Y30175535D01*
X13616497Y30057714D01*
X13583173Y30006400D01*
X13535147Y29985373D01*
X13529660Y29984574D01*
X13424571Y29933199D01*
X13341854Y29850482D01*
X13290480Y29745396D01*
X13290480Y29745394D01*
X13290480Y29745393D01*
X13280553Y29677260D01*
X12751553Y29677260D01*
X12751553Y29677261D01*
X12741626Y29745394D01*
X12736433Y29756016D01*
X12691282Y29848375D01*
X12690251Y29850484D01*
X12666390Y29874345D01*
X12641897Y29898839D01*
X12614120Y29953356D01*
X12612901Y29968842D01*
X12612901Y31256100D01*
X12631808Y31314291D01*
X12681308Y31350255D01*
X12711901Y31355100D01*
X12951718Y31355100D01*
X12951719Y31355100D01*
X13096714Y31383942D01*
X13233296Y31440516D01*
X13282759Y31473566D01*
X13356217Y31522648D01*
X13790952Y31957384D01*
X13873085Y32080305D01*
X13929659Y32216887D01*
X13958501Y32361882D01*
X13958501Y32509717D01*
X13942149Y32591925D01*
X13929659Y32654713D01*
X13873085Y32791295D01*
X13790952Y32914216D01*
X13686417Y33018751D01*
X13563496Y33100884D01*
X13563494Y33100885D01*
X13426915Y33157458D01*
X13281919Y33186300D01*
X13281918Y33186300D01*
X13134083Y33186300D01*
X13134082Y33186300D01*
X12989086Y33157458D01*
X12852508Y33100886D01*
X12766902Y33043686D01*
X12708014Y33027078D01*
X12650610Y33048256D01*
X12616618Y33099130D01*
X12612901Y33126002D01*
X12612901Y33169272D01*
X12612996Y33171242D01*
X12612991Y33175011D01*
X12612992Y33175014D01*
X12612901Y33248353D01*
X12612901Y33321918D01*
X12612901Y33325685D01*
X12612802Y33327665D01*
X12612766Y33356549D01*
X12612301Y33731906D01*
X12612301Y33805118D01*
X12612214Y33805551D01*
X12612214Y33805989D01*
X12612209Y33806039D01*
X12612209Y33806050D01*
X12597727Y33878383D01*
X12583459Y33950113D01*
X12583279Y33950546D01*
X12583187Y33951009D01*
X12554918Y34019017D01*
X12526885Y34086695D01*
X12526883Y34086698D01*
X12526882Y34086701D01*
X12526443Y34087521D01*
X12485669Y34148379D01*
X12485668Y34148381D01*
X12485540Y34148572D01*
X12444752Y34209616D01*
X12444424Y34209944D01*
X12444165Y34210331D01*
X12392316Y34262052D01*
X12392258Y34262166D01*
X12392231Y34262138D01*
X12340219Y34314149D01*
X12339682Y34314590D01*
X12339681Y34314591D01*
X12339674Y34314597D01*
X12339500Y34314740D01*
X12339494Y34314744D01*
X12339493Y34314745D01*
X12278169Y34355610D01*
X12278169Y34355611D01*
X12277627Y34355972D01*
X12217296Y34396284D01*
X12216862Y34396464D01*
X12216470Y34396725D01*
X12216462Y34396729D01*
X12216461Y34396729D01*
X12148581Y34424747D01*
X12080714Y34452858D01*
X12080266Y34452947D01*
X12079840Y34453123D01*
X12079820Y34453129D01*
X12007929Y34467337D01*
X12007931Y34467348D01*
X12007810Y34467360D01*
X11989832Y34470936D01*
X11935713Y34481702D01*
X11935409Y34481731D01*
X11934799Y34481791D01*
X11934787Y34481791D01*
X11933720Y34481790D01*
X11861275Y34481701D01*
X11861273Y34481700D01*
X11787883Y34481700D01*
X11787423Y34481609D01*
X11786951Y34481608D01*
X11786941Y34481607D01*
X11786938Y34481606D01*
X11714618Y34467127D01*
X11714617Y34467128D01*
X11713707Y34466946D01*
X11642888Y34452858D01*
X11642455Y34452679D01*
X11641992Y34452586D01*
X11641988Y34452585D01*
X11641986Y34452584D01*
X11574095Y34424364D01*
X11574094Y34424365D01*
X11573123Y34423962D01*
X11506306Y34396284D01*
X11505915Y34396023D01*
X11505480Y34395842D01*
X11505478Y34395841D01*
X11484965Y34382098D01*
X11444622Y34355069D01*
X11383383Y34314151D01*
X11383362Y34314133D01*
X11383196Y34313997D01*
X11382681Y34313576D01*
X11340227Y34271018D01*
X11330863Y34261630D01*
X11304854Y34235621D01*
X11278840Y34209607D01*
X11278457Y34209140D01*
X11278455Y34209140D01*
X11278269Y34208913D01*
X11237395Y34147579D01*
X11237396Y34147578D01*
X11237042Y34147048D01*
X11196717Y34086695D01*
X11196537Y34086262D01*
X11196276Y34085869D01*
X11168254Y34017981D01*
X11140143Y33950113D01*
X11140051Y33949651D01*
X11139871Y33949214D01*
X11125689Y33877450D01*
X11125665Y33877330D01*
X11111299Y33805110D01*
X11111272Y33804831D01*
X11111263Y33804741D01*
X11111210Y33804202D01*
X11111301Y33730848D01*
X11111301Y33653556D01*
X11111398Y33651581D01*
X11111901Y33247296D01*
X11111901Y32610478D01*
X11104365Y32572593D01*
X11076715Y32505842D01*
X11076713Y32505833D01*
X11061901Y32393321D01*
X11061901Y31817880D01*
X11076713Y31705368D01*
X11076714Y31705363D01*
X11104365Y31638610D01*
X11111901Y31600724D01*
X11111901Y29968500D01*
X11092994Y29910309D01*
X11043494Y29874345D01*
X11012901Y29869500D01*
X10422242Y29869500D01*
X10364051Y29888407D01*
X10352239Y29898496D01*
X10317537Y29933197D01*
X10317536Y29933198D01*
X10295612Y29943916D01*
X10212448Y29984573D01*
X10185192Y29988544D01*
X10144313Y29994500D01*
X9017793Y29994500D01*
X8983726Y29989537D01*
X8949657Y29984573D01*
X8844571Y29933199D01*
X8844568Y29933197D01*
X8799867Y29888496D01*
X8745350Y29860719D01*
X8729864Y29859500D01*
X8378081Y29859500D01*
X8233085Y29830658D01*
X8096506Y29774085D01*
X7973585Y29691952D01*
X7869048Y29587415D01*
X7786915Y29464494D01*
X7730342Y29327915D01*
X7701500Y29182919D01*
X500500Y29182919D01*
X500500Y31684439D01*
X1036501Y31684439D01*
X1036501Y31473566D01*
X1077638Y31266750D01*
X1158335Y31071931D01*
X1158339Y31071922D01*
X1236306Y30955239D01*
X1275489Y30896597D01*
X1424597Y30747489D01*
X1481437Y30709510D01*
X1599921Y30630340D01*
X1599927Y30630338D01*
X1599929Y30630336D01*
X1794748Y30549639D01*
X2001566Y30508501D01*
X2001567Y30508501D01*
X2212435Y30508501D01*
X2212436Y30508501D01*
X2419254Y30549639D01*
X2614073Y30630336D01*
X2614076Y30630339D01*
X2614080Y30630340D01*
X2692766Y30682917D01*
X2789405Y30747489D01*
X2938513Y30896597D01*
X3021834Y31021297D01*
X3055662Y31071922D01*
X3055663Y31071926D01*
X3055666Y31071929D01*
X3136363Y31266748D01*
X3177501Y31473566D01*
X3177501Y31684436D01*
X3136363Y31891254D01*
X3055666Y32086073D01*
X3055664Y32086075D01*
X3055662Y32086081D01*
X2988460Y32186654D01*
X2938513Y32261405D01*
X2789405Y32410513D01*
X2727444Y32451914D01*
X2614080Y32527663D01*
X2614071Y32527667D01*
X2419252Y32608364D01*
X2212438Y32649501D01*
X2212436Y32649501D01*
X2001566Y32649501D01*
X2001563Y32649501D01*
X1794749Y32608364D01*
X1599930Y32527667D01*
X1599921Y32527663D01*
X1424597Y32410513D01*
X1424593Y32410510D01*
X1275492Y32261409D01*
X1275489Y32261405D01*
X1158339Y32086081D01*
X1158335Y32086072D01*
X1077638Y31891253D01*
X1036501Y31684439D01*
X500500Y31684439D01*
X500500Y34224438D01*
X3576501Y34224438D01*
X3576501Y34013563D01*
X3617638Y33806749D01*
X3698335Y33611930D01*
X3698339Y33611921D01*
X3782114Y33486545D01*
X3815489Y33436596D01*
X3964597Y33287488D01*
X4023167Y33248353D01*
X4139921Y33170339D01*
X4139927Y33170337D01*
X4139929Y33170335D01*
X4334748Y33089638D01*
X4541566Y33048500D01*
X4541567Y33048500D01*
X4752435Y33048500D01*
X4752436Y33048500D01*
X4959254Y33089638D01*
X5154073Y33170335D01*
X5154076Y33170338D01*
X5154080Y33170339D01*
X5204705Y33204167D01*
X5329405Y33287488D01*
X5478513Y33436596D01*
X5561834Y33561296D01*
X5595662Y33611921D01*
X5595663Y33611925D01*
X5595666Y33611928D01*
X5676363Y33806747D01*
X5717501Y34013565D01*
X5717501Y34224435D01*
X5676363Y34431253D01*
X5595666Y34626072D01*
X5595664Y34626074D01*
X5595662Y34626080D01*
X5513497Y34749046D01*
X5478513Y34801404D01*
X5329405Y34950512D01*
X5279456Y34983887D01*
X5154080Y35067662D01*
X5154071Y35067666D01*
X4959252Y35148363D01*
X4752438Y35189500D01*
X4752436Y35189500D01*
X4541566Y35189500D01*
X4541563Y35189500D01*
X4334749Y35148363D01*
X4139930Y35067666D01*
X4139921Y35067662D01*
X3964597Y34950512D01*
X3964593Y34950509D01*
X3815492Y34801408D01*
X3815489Y34801404D01*
X3698339Y34626080D01*
X3698335Y34626071D01*
X3617638Y34431252D01*
X3576501Y34224438D01*
X500500Y34224438D01*
X500500Y36764438D01*
X1036501Y36764438D01*
X1036501Y36553563D01*
X1077638Y36346749D01*
X1158335Y36151930D01*
X1158339Y36151921D01*
X1242114Y36026545D01*
X1275489Y35976596D01*
X1424597Y35827488D01*
X1499348Y35777541D01*
X1599921Y35710339D01*
X1599927Y35710337D01*
X1599929Y35710335D01*
X1794748Y35629638D01*
X2001566Y35588500D01*
X2001567Y35588500D01*
X2212435Y35588500D01*
X2212436Y35588500D01*
X2419254Y35629638D01*
X2614073Y35710335D01*
X2614076Y35710338D01*
X2614080Y35710339D01*
X2664705Y35744167D01*
X2789405Y35827488D01*
X2938513Y35976596D01*
X3021834Y36101296D01*
X3055662Y36151921D01*
X3055663Y36151925D01*
X3055666Y36151928D01*
X3136363Y36346747D01*
X3177501Y36553565D01*
X3177501Y36764435D01*
X3136363Y36971253D01*
X3055666Y37166072D01*
X3055664Y37166074D01*
X3055662Y37166080D01*
X2988460Y37266653D01*
X2938513Y37341404D01*
X2789405Y37490512D01*
X2739456Y37523887D01*
X2614080Y37607662D01*
X2614071Y37607666D01*
X2419252Y37688363D01*
X2212438Y37729500D01*
X2212436Y37729500D01*
X2001566Y37729500D01*
X2001563Y37729500D01*
X1794749Y37688363D01*
X1599930Y37607666D01*
X1599921Y37607662D01*
X1424597Y37490512D01*
X1424593Y37490509D01*
X1275492Y37341408D01*
X1275489Y37341404D01*
X1158339Y37166080D01*
X1158335Y37166071D01*
X1077638Y36971252D01*
X1036501Y36764438D01*
X500500Y36764438D01*
X500500Y41029639D01*
X704502Y41029639D01*
X704502Y40840670D01*
X734060Y40654041D01*
X792455Y40474322D01*
X878242Y40305955D01*
X989312Y40153081D01*
X1122929Y40019464D01*
X1275803Y39908394D01*
X1444170Y39822607D01*
X1623884Y39764214D01*
X1623885Y39764214D01*
X1623888Y39764213D01*
X1810518Y39734654D01*
X1810521Y39734654D01*
X1999486Y39734654D01*
X2186115Y39764213D01*
X2186116Y39764214D01*
X2186120Y39764214D01*
X2365834Y39822607D01*
X2534201Y39908394D01*
X2687075Y40019464D01*
X2820692Y40153081D01*
X2931762Y40305955D01*
X3017549Y40474322D01*
X3075942Y40654036D01*
X3077219Y40662103D01*
X3104994Y40716619D01*
X3159509Y40744399D01*
X3219941Y40734831D01*
X3263208Y40691569D01*
X3272782Y40662109D01*
X3274060Y40654039D01*
X3332454Y40474322D01*
X3418241Y40305955D01*
X3529311Y40153081D01*
X3662928Y40019464D01*
X3815802Y39908394D01*
X3984169Y39822607D01*
X4163883Y39764214D01*
X4163884Y39764214D01*
X4163887Y39764213D01*
X4350517Y39734654D01*
X4350520Y39734654D01*
X4539485Y39734654D01*
X4726114Y39764213D01*
X4726115Y39764214D01*
X4726119Y39764214D01*
X4905833Y39822607D01*
X5074200Y39908394D01*
X5227074Y40019464D01*
X5360691Y40153081D01*
X5471761Y40305955D01*
X5557548Y40474322D01*
X5591346Y40578343D01*
X5627310Y40627842D01*
X5685501Y40646749D01*
X5743692Y40627842D01*
X5779656Y40578342D01*
X5784501Y40547749D01*
X5784501Y40051894D01*
X5789373Y40018456D01*
X5794428Y39983759D01*
X5831272Y39908394D01*
X5845803Y39878671D01*
X5928518Y39795956D01*
X5978362Y39771589D01*
X6033605Y39744582D01*
X6033606Y39744582D01*
X6033608Y39744581D01*
X6101741Y39734654D01*
X6101744Y39734654D01*
X7868258Y39734654D01*
X7868261Y39734654D01*
X7936394Y39744581D01*
X8041484Y39795956D01*
X8124199Y39878671D01*
X8175574Y39983761D01*
X8185501Y40051894D01*
X8185501Y41818414D01*
X8175574Y41886547D01*
X8124199Y41991637D01*
X8041484Y42074352D01*
X7950989Y42118592D01*
X7936396Y42125727D01*
X7909140Y42129698D01*
X7868261Y42135654D01*
X6101741Y42135654D01*
X6067674Y42130691D01*
X6033605Y42125727D01*
X5928519Y42074353D01*
X5845802Y41991636D01*
X5794428Y41886550D01*
X5784501Y41818411D01*
X5784501Y41322560D01*
X5765594Y41264369D01*
X5716094Y41228405D01*
X5654908Y41228405D01*
X5605408Y41264369D01*
X5591346Y41291967D01*
X5557548Y41395986D01*
X5471761Y41564353D01*
X5360691Y41717227D01*
X5227074Y41850844D01*
X5074200Y41961914D01*
X5074199Y41961915D01*
X5074197Y41961916D01*
X4905833Y42047701D01*
X4726114Y42106096D01*
X4539485Y42135654D01*
X4539482Y42135654D01*
X4350520Y42135654D01*
X4350517Y42135654D01*
X4163887Y42106096D01*
X3984168Y42047701D01*
X3815804Y41961916D01*
X3662929Y41850845D01*
X3529310Y41717226D01*
X3418239Y41564351D01*
X3332454Y41395987D01*
X3274060Y41216271D01*
X3272782Y41208199D01*
X3245002Y41153684D01*
X3190484Y41125908D01*
X3130052Y41135482D01*
X3086790Y41178748D01*
X3077219Y41208207D01*
X3075942Y41216268D01*
X3075942Y41216272D01*
X3017549Y41395986D01*
X2931762Y41564353D01*
X2820692Y41717227D01*
X2687075Y41850844D01*
X2534201Y41961914D01*
X2534200Y41961915D01*
X2534198Y41961916D01*
X2365834Y42047701D01*
X2186115Y42106096D01*
X1999486Y42135654D01*
X1999483Y42135654D01*
X1810521Y42135654D01*
X1810518Y42135654D01*
X1623888Y42106096D01*
X1444169Y42047701D01*
X1275805Y41961916D01*
X1122930Y41850845D01*
X989311Y41717226D01*
X878240Y41564351D01*
X792455Y41395987D01*
X734060Y41216268D01*
X704502Y41029639D01*
X500500Y41029639D01*
X500500Y42202669D01*
X14614901Y42202669D01*
X14614901Y41642731D01*
X14614914Y41642665D01*
X14614914Y41642597D01*
X14615378Y41637895D01*
X14615226Y41637881D01*
X14616501Y41624939D01*
X14616501Y41531282D01*
X14645343Y41386286D01*
X14695843Y41264369D01*
X14701917Y41249705D01*
X14784050Y41126784D01*
X14888585Y41022249D01*
X14926588Y40996856D01*
X14938323Y40989015D01*
X14976202Y40940965D01*
X14978604Y40879827D01*
X14944611Y40828953D01*
X14938323Y40824385D01*
X14888586Y40791152D01*
X14784049Y40686615D01*
X14701916Y40563694D01*
X14645343Y40427115D01*
X14616501Y40282119D01*
X14616501Y40134282D01*
X14645343Y39989286D01*
X14701915Y39852708D01*
X14704208Y39848419D01*
X14702363Y39847433D01*
X14716501Y39800848D01*
X14716501Y39701153D01*
X14702370Y39654567D01*
X14704209Y39653584D01*
X14701916Y39649296D01*
X14645343Y39512715D01*
X14616501Y39367719D01*
X14616501Y39219882D01*
X14645343Y39074886D01*
X14701915Y38938308D01*
X14704208Y38934019D01*
X14702363Y38933033D01*
X14716501Y38886448D01*
X14716501Y38786753D01*
X14702370Y38740167D01*
X14704209Y38739184D01*
X14701916Y38734896D01*
X14645343Y38598315D01*
X14616501Y38453319D01*
X14616501Y38305482D01*
X14645343Y38160486D01*
X14692565Y38046482D01*
X14701917Y38023905D01*
X14784050Y37900984D01*
X14888585Y37796449D01*
X15011506Y37714316D01*
X15148088Y37657742D01*
X15293083Y37628900D01*
X15293084Y37628900D01*
X15440918Y37628900D01*
X15440919Y37628900D01*
X15585914Y37657742D01*
X15722496Y37714316D01*
X15845417Y37796449D01*
X15949952Y37900984D01*
X16032085Y38023905D01*
X16088659Y38160487D01*
X16088661Y38160499D01*
X16090071Y38165144D01*
X16092077Y38164536D01*
X16115014Y38207469D01*
X16521851Y38614304D01*
X16576367Y38642081D01*
X16578759Y38642430D01*
X16585279Y38643300D01*
X16599869Y38643300D01*
X16629597Y38649215D01*
X16632721Y38649631D01*
X16634210Y38649358D01*
X16645816Y38650501D01*
X17666352Y38650501D01*
X17765699Y38660650D01*
X17765699Y38660651D01*
X17765708Y38660651D01*
X17926697Y38713997D01*
X18071044Y38803032D01*
X18190968Y38922956D01*
X18280003Y39067303D01*
X18333349Y39228292D01*
X18343500Y39327655D01*
X18343499Y40174344D01*
X18343499Y40174353D01*
X18333350Y40273700D01*
X18333349Y40273702D01*
X18333349Y40273708D01*
X18280003Y40434697D01*
X18264074Y40460521D01*
X18255542Y40474354D01*
X18190968Y40579044D01*
X18071044Y40698968D01*
X18012902Y40734831D01*
X17953550Y40771440D01*
X17913949Y40818081D01*
X17909326Y40879092D01*
X17941447Y40931167D01*
X17998043Y40954417D01*
X18005523Y40954700D01*
X18589501Y40954700D01*
X18647692Y40935793D01*
X18683656Y40886293D01*
X18688501Y40855700D01*
X18688501Y40595952D01*
X18686599Y40576638D01*
X18663501Y40460521D01*
X18663501Y40312682D01*
X18692343Y40167686D01*
X18748914Y40031111D01*
X18748915Y40031109D01*
X18748917Y40031105D01*
X18757369Y40018456D01*
X18830908Y39908394D01*
X18831049Y39908184D01*
X18935585Y39803648D01*
X19009269Y39754416D01*
X19009270Y39754414D01*
X19009271Y39754414D01*
X19058506Y39721516D01*
X19195088Y39664942D01*
X19340083Y39636100D01*
X19340084Y39636100D01*
X19487918Y39636100D01*
X19487919Y39636100D01*
X19632914Y39664942D01*
X19769496Y39721516D01*
X19818730Y39754414D01*
X19818735Y39754417D01*
X19844435Y39771589D01*
X19892417Y39803648D01*
X20021952Y39933184D01*
X20104085Y40056105D01*
X20160659Y40192687D01*
X20189501Y40337682D01*
X20189501Y40485517D01*
X20189501Y40887103D01*
X20208408Y40945294D01*
X20250613Y40978566D01*
X20270818Y40986935D01*
X20331813Y40991735D01*
X20383982Y40959765D01*
X20407396Y40903237D01*
X20407701Y40895470D01*
X20407701Y40777465D01*
X20406854Y40764544D01*
X20406501Y40761865D01*
X20406501Y39858143D01*
X20406502Y39858138D01*
X20406854Y39855466D01*
X20407701Y39842545D01*
X20407701Y39219882D01*
X20436543Y39074886D01*
X20493115Y38938308D01*
X20493116Y38938306D01*
X20493117Y38938305D01*
X20503373Y38922956D01*
X20575249Y38815384D01*
X21134047Y38256587D01*
X21134049Y38256584D01*
X21238585Y38152048D01*
X21312271Y38102814D01*
X21361506Y38069916D01*
X21418081Y38046482D01*
X21498089Y38013341D01*
X21614242Y37990237D01*
X21643083Y37984500D01*
X21643084Y37984500D01*
X21790918Y37984500D01*
X21790919Y37984500D01*
X21935914Y38013341D01*
X22072496Y38069916D01*
X22195417Y38152048D01*
X22299953Y38256584D01*
X22299953Y38256585D01*
X23814953Y39771585D01*
X23850294Y39824477D01*
X23897085Y39894505D01*
X23901572Y39905341D01*
X23905897Y39912155D01*
X23906082Y39912501D01*
X23906085Y39912505D01*
X23962659Y40049087D01*
X23991501Y40194082D01*
X23991501Y41806118D01*
X23962659Y41951113D01*
X23906085Y42087695D01*
X23823952Y42210616D01*
X23814103Y42220465D01*
X23751308Y42283261D01*
X23751302Y42283266D01*
X23677619Y42356950D01*
X23677613Y42356955D01*
X23574337Y42425960D01*
X23554696Y42439084D01*
X23554693Y42439086D01*
X23554692Y42439086D01*
X23418115Y42495658D01*
X23273119Y42524500D01*
X22104852Y42524500D01*
X22046661Y42543407D01*
X22010697Y42592907D01*
X22005852Y42623500D01*
X22005852Y42663694D01*
X22006699Y42676617D01*
X22008340Y42689082D01*
X22008340Y43264519D01*
X22008340Y43264520D01*
X21993527Y43377036D01*
X21935538Y43517033D01*
X21843291Y43637251D01*
X21723073Y43729498D01*
X21722329Y43729806D01*
X21583078Y43787486D01*
X21583080Y43787486D01*
X21583076Y43787487D01*
X21583074Y43787488D01*
X21583072Y43787488D01*
X21470560Y43802300D01*
X20945120Y43802300D01*
X20945119Y43802300D01*
X20832607Y43787488D01*
X20832601Y43787486D01*
X20692608Y43729499D01*
X20572391Y43637253D01*
X20572387Y43637249D01*
X20480141Y43517032D01*
X20422154Y43377039D01*
X20422152Y43377033D01*
X20407340Y43264521D01*
X20407340Y43052881D01*
X20388433Y42994690D01*
X20338933Y42958726D01*
X20277747Y42958726D01*
X20270456Y42961416D01*
X20245764Y42971644D01*
X20245759Y42971645D01*
X20128363Y42987100D01*
X20128362Y42987100D01*
X19386955Y42987100D01*
X19328764Y43006007D01*
X19316951Y43016096D01*
X18987122Y43345925D01*
X18965662Y43378044D01*
X18927285Y43470695D01*
X18910973Y43495108D01*
X18845152Y43593616D01*
X18740617Y43698151D01*
X18617696Y43780284D01*
X18600309Y43787486D01*
X18481115Y43836858D01*
X18336119Y43865700D01*
X17942675Y43865700D01*
X17884484Y43884607D01*
X17872671Y43894697D01*
X17471026Y44296344D01*
X17471017Y44296353D01*
X17471017Y44296352D01*
X17471016Y44296353D01*
X17471016Y44296354D01*
X17470619Y44296751D01*
X17396930Y44345987D01*
X17347693Y44378886D01*
X17211115Y44435458D01*
X17066119Y44464300D01*
X15648283Y44464300D01*
X15648276Y44464300D01*
X15619442Y44458565D01*
X15619442Y44458564D01*
X15503289Y44435459D01*
X15503287Y44435459D01*
X15423280Y44402320D01*
X15423281Y44402319D01*
X15366708Y44378886D01*
X15284574Y44324006D01*
X15284562Y44323998D01*
X15282758Y44322793D01*
X15253671Y44310746D01*
X15253938Y44309868D01*
X15249284Y44308457D01*
X15112705Y44251884D01*
X14989786Y44169752D01*
X14885249Y44065215D01*
X14803117Y43942296D01*
X14746542Y43805712D01*
X14746542Y43805711D01*
X14743350Y43789667D01*
X14728570Y43753987D01*
X14701916Y43714095D01*
X14645343Y43577515D01*
X14616501Y43432519D01*
X14616501Y42220465D01*
X14616481Y42220269D01*
X14616501Y42220193D01*
X14616474Y42210581D01*
X14614901Y42202669D01*
X500500Y42202669D01*
X500500Y45704309D01*
X519407Y45762500D01*
X568907Y45798464D01*
X630093Y45798464D01*
X679593Y45762500D01*
X687710Y45749254D01*
X766421Y45594773D01*
X766425Y45594767D01*
X900617Y45410069D01*
X900619Y45410067D01*
X900622Y45410063D01*
X1062064Y45248621D01*
X1062067Y45248619D01*
X1062069Y45248617D01*
X1214238Y45138059D01*
X1246773Y45114421D01*
X1450202Y45010769D01*
X1667341Y44940216D01*
X1667342Y44940216D01*
X1667345Y44940215D01*
X1892841Y44904500D01*
X1892844Y44904500D01*
X2121161Y44904500D01*
X2346656Y44940215D01*
X2346657Y44940216D01*
X2346661Y44940216D01*
X2563800Y45010769D01*
X2767229Y45114421D01*
X2880742Y45196895D01*
X2938930Y45215801D01*
X2997121Y45196894D01*
X3013659Y45179055D01*
X3017098Y45178653D01*
X4023212Y46184768D01*
X4034483Y46142708D01*
X4106891Y46017292D01*
X4209293Y45914890D01*
X4334709Y45842482D01*
X4376765Y45831213D01*
X3370652Y44825099D01*
X3370652Y44825098D01*
X3377871Y44820645D01*
X3377880Y44820641D01*
X3544307Y44765494D01*
X3647013Y44755001D01*
X5446987Y44755001D01*
X5549688Y44765493D01*
X5549703Y44765496D01*
X5716117Y44820639D01*
X5723347Y44825100D01*
X4717234Y45831213D01*
X4759293Y45842482D01*
X4884709Y45914890D01*
X4987111Y46017292D01*
X5059519Y46142708D01*
X5070788Y46184767D01*
X6076901Y45178654D01*
X6081362Y45185884D01*
X6136506Y45352304D01*
X6136507Y45352307D01*
X6147000Y45455013D01*
X6147000Y47254987D01*
X6136508Y47357688D01*
X6136505Y47357700D01*
X6081360Y47524121D01*
X6081356Y47524130D01*
X6076902Y47531349D01*
X5070788Y46525236D01*
X5059519Y46567292D01*
X4987111Y46692708D01*
X4884709Y46795110D01*
X4759293Y46867518D01*
X4717233Y46878789D01*
X5544809Y47706363D01*
X8044301Y47706363D01*
X8044301Y46527643D01*
X8044302Y46527638D01*
X8059756Y46410242D01*
X8059758Y46410234D01*
X8120263Y46264162D01*
X8120263Y46264161D01*
X8188718Y46174949D01*
X8216519Y46138718D01*
X8341960Y46042464D01*
X8341961Y46042464D01*
X8341962Y46042463D01*
X8488034Y45981958D01*
X8488039Y45981956D01*
X8605440Y45966500D01*
X9784161Y45966501D01*
X9901563Y45981956D01*
X10047642Y46042464D01*
X10173083Y46138718D01*
X10269337Y46264159D01*
X10329845Y46410238D01*
X10342855Y46509066D01*
X10369195Y46564290D01*
X10422966Y46593485D01*
X10483628Y46585499D01*
X10528011Y46543382D01*
X10529218Y46541088D01*
X10582940Y46435652D01*
X10582944Y46435647D01*
X10615324Y46391080D01*
X10615325Y46391080D01*
X11294801Y47070556D01*
X11294801Y47064339D01*
X11322060Y46962606D01*
X11374721Y46871394D01*
X11449195Y46796920D01*
X11540407Y46744259D01*
X11642140Y46717000D01*
X11648354Y46717000D01*
X10968879Y46037525D01*
X11013448Y46005142D01*
X11195773Y45912244D01*
X11390388Y45849009D01*
X11592486Y45817000D01*
X11797116Y45817000D01*
X11999213Y45849009D01*
X12193828Y45912244D01*
X12376143Y46005137D01*
X12376151Y46005142D01*
X12420721Y46037525D01*
X11741246Y46717000D01*
X11747462Y46717000D01*
X11849195Y46744259D01*
X11940407Y46796920D01*
X12014881Y46871394D01*
X12067542Y46962606D01*
X12094801Y47064339D01*
X12094801Y47070555D01*
X12774276Y46391080D01*
X12806659Y46435650D01*
X12806664Y46435658D01*
X12899557Y46617973D01*
X12962792Y46812588D01*
X12994801Y47014685D01*
X12994801Y47219316D01*
X12962792Y47421413D01*
X12899557Y47616028D01*
X12874780Y47664657D01*
X12853530Y47706363D01*
X15585402Y47706363D01*
X15585402Y46527643D01*
X15585403Y46527638D01*
X15600857Y46410242D01*
X15600859Y46410234D01*
X15661364Y46264162D01*
X15661364Y46264161D01*
X15729819Y46174949D01*
X15757620Y46138718D01*
X15883061Y46042464D01*
X15883062Y46042464D01*
X15883063Y46042463D01*
X16029135Y45981958D01*
X16029140Y45981956D01*
X16146541Y45966500D01*
X17325262Y45966501D01*
X17442664Y45981956D01*
X17588743Y46042464D01*
X17714184Y46138718D01*
X17810438Y46264159D01*
X17870946Y46410238D01*
X17883956Y46509066D01*
X17910296Y46564290D01*
X17964067Y46593485D01*
X18024729Y46585499D01*
X18069112Y46543382D01*
X18070319Y46541088D01*
X18124041Y46435652D01*
X18124045Y46435647D01*
X18156425Y46391080D01*
X18156426Y46391080D01*
X18835902Y47070556D01*
X18835902Y47064339D01*
X18863161Y46962606D01*
X18915822Y46871394D01*
X18990296Y46796920D01*
X19081508Y46744259D01*
X19183241Y46717000D01*
X19189455Y46717000D01*
X18509980Y46037525D01*
X18554549Y46005142D01*
X18736874Y45912244D01*
X18931489Y45849009D01*
X19133587Y45817000D01*
X19338217Y45817000D01*
X19540314Y45849009D01*
X19734929Y45912244D01*
X19917244Y46005137D01*
X19917252Y46005142D01*
X19961822Y46037525D01*
X19282347Y46717000D01*
X19288563Y46717000D01*
X19390296Y46744259D01*
X19481508Y46796920D01*
X19555982Y46871394D01*
X19608643Y46962606D01*
X19635902Y47064339D01*
X19635902Y47070555D01*
X20315377Y46391080D01*
X20347760Y46435650D01*
X20347765Y46435658D01*
X20440658Y46617973D01*
X20503893Y46812588D01*
X20535902Y47014685D01*
X20535902Y47219316D01*
X20503893Y47421413D01*
X20440658Y47616028D01*
X20415881Y47664657D01*
X20394631Y47706363D01*
X23126502Y47706363D01*
X23126502Y46527643D01*
X23126503Y46527638D01*
X23141957Y46410242D01*
X23141959Y46410234D01*
X23202464Y46264162D01*
X23202464Y46264161D01*
X23270919Y46174949D01*
X23298720Y46138718D01*
X23424161Y46042464D01*
X23424162Y46042464D01*
X23424163Y46042463D01*
X23570235Y45981958D01*
X23570240Y45981956D01*
X23687641Y45966500D01*
X24866362Y45966501D01*
X24983764Y45981956D01*
X25129843Y46042464D01*
X25255284Y46138718D01*
X25351538Y46264159D01*
X25412046Y46410238D01*
X25425056Y46509066D01*
X25451396Y46564290D01*
X25505167Y46593485D01*
X25565829Y46585499D01*
X25610212Y46543382D01*
X25611419Y46541088D01*
X25665141Y46435652D01*
X25665145Y46435647D01*
X25697525Y46391080D01*
X25697526Y46391080D01*
X26377002Y47070556D01*
X26377002Y47064339D01*
X26404261Y46962606D01*
X26456922Y46871394D01*
X26531396Y46796920D01*
X26622608Y46744259D01*
X26724341Y46717000D01*
X26730555Y46717000D01*
X26051080Y46037525D01*
X26095649Y46005142D01*
X26277974Y45912244D01*
X26472589Y45849009D01*
X26674687Y45817000D01*
X26879317Y45817000D01*
X27081414Y45849009D01*
X27276029Y45912244D01*
X27458344Y46005137D01*
X27458352Y46005142D01*
X27502922Y46037525D01*
X26823447Y46717000D01*
X26829663Y46717000D01*
X26931396Y46744259D01*
X27022608Y46796920D01*
X27097082Y46871394D01*
X27149743Y46962606D01*
X27177002Y47064339D01*
X27177002Y47070555D01*
X27856477Y46391080D01*
X27888860Y46435650D01*
X27888865Y46435658D01*
X27981758Y46617973D01*
X28044993Y46812588D01*
X28077002Y47014685D01*
X28077002Y47219316D01*
X28044993Y47421413D01*
X27981758Y47616028D01*
X27888860Y47798353D01*
X27856477Y47842922D01*
X27177002Y47163447D01*
X27177002Y47169661D01*
X27149743Y47271394D01*
X27097082Y47362606D01*
X27022608Y47437080D01*
X26931396Y47489741D01*
X26829663Y47517000D01*
X26823447Y47517000D01*
X27502922Y48196476D01*
X27502922Y48196477D01*
X27458355Y48228857D01*
X27458350Y48228861D01*
X27276029Y48321757D01*
X27081414Y48384992D01*
X26879317Y48417000D01*
X26674687Y48417000D01*
X26472589Y48384992D01*
X26277974Y48321757D01*
X26095653Y48228861D01*
X26095649Y48228859D01*
X26051080Y48196477D01*
X26730557Y47517000D01*
X26724341Y47517000D01*
X26622608Y47489741D01*
X26531396Y47437080D01*
X26456922Y47362606D01*
X26404261Y47271394D01*
X26377002Y47169661D01*
X26377002Y47163445D01*
X25697525Y47842922D01*
X25665143Y47798353D01*
X25665135Y47798339D01*
X25611417Y47692911D01*
X25568153Y47649646D01*
X25507721Y47640075D01*
X25453204Y47667853D01*
X25425427Y47722369D01*
X25425061Y47724890D01*
X25412046Y47823762D01*
X25362031Y47944508D01*
X25351539Y47969839D01*
X25351539Y47969840D01*
X25255288Y48095277D01*
X25255287Y48095278D01*
X25255284Y48095282D01*
X25255279Y48095286D01*
X25255278Y48095287D01*
X25184106Y48149899D01*
X25129843Y48191536D01*
X25129842Y48191537D01*
X25129840Y48191538D01*
X24983768Y48252043D01*
X24983760Y48252045D01*
X24866363Y48267500D01*
X23687644Y48267500D01*
X23687639Y48267499D01*
X23570243Y48252045D01*
X23570235Y48252043D01*
X23424163Y48191538D01*
X23424162Y48191538D01*
X23298725Y48095287D01*
X23298715Y48095277D01*
X23202464Y47969840D01*
X23202464Y47969839D01*
X23141959Y47823767D01*
X23141957Y47823759D01*
X23126502Y47706363D01*
X20394631Y47706363D01*
X20347760Y47798353D01*
X20315377Y47842922D01*
X19635902Y47163447D01*
X19635902Y47169661D01*
X19608643Y47271394D01*
X19555982Y47362606D01*
X19481508Y47437080D01*
X19390296Y47489741D01*
X19288563Y47517000D01*
X19282347Y47517000D01*
X19961822Y48196476D01*
X19961822Y48196477D01*
X19917255Y48228857D01*
X19917250Y48228861D01*
X19734929Y48321757D01*
X19540314Y48384992D01*
X19338217Y48417000D01*
X19133587Y48417000D01*
X18931489Y48384992D01*
X18736874Y48321757D01*
X18554553Y48228861D01*
X18554549Y48228859D01*
X18509980Y48196477D01*
X19189457Y47517000D01*
X19183241Y47517000D01*
X19081508Y47489741D01*
X18990296Y47437080D01*
X18915822Y47362606D01*
X18863161Y47271394D01*
X18835902Y47169661D01*
X18835902Y47163445D01*
X18156425Y47842922D01*
X18124043Y47798353D01*
X18124035Y47798339D01*
X18070317Y47692911D01*
X18027053Y47649646D01*
X17966621Y47640075D01*
X17912104Y47667853D01*
X17884327Y47722369D01*
X17883961Y47724890D01*
X17870946Y47823762D01*
X17820931Y47944508D01*
X17810439Y47969839D01*
X17810439Y47969840D01*
X17714188Y48095277D01*
X17714187Y48095278D01*
X17714184Y48095282D01*
X17714179Y48095286D01*
X17714178Y48095287D01*
X17643006Y48149899D01*
X17588743Y48191536D01*
X17588742Y48191537D01*
X17588740Y48191538D01*
X17442668Y48252043D01*
X17442660Y48252045D01*
X17325263Y48267500D01*
X16146544Y48267500D01*
X16146539Y48267499D01*
X16029143Y48252045D01*
X16029135Y48252043D01*
X15883063Y48191538D01*
X15883062Y48191538D01*
X15757625Y48095287D01*
X15757615Y48095277D01*
X15661364Y47969840D01*
X15661364Y47969839D01*
X15600859Y47823767D01*
X15600857Y47823759D01*
X15585402Y47706363D01*
X12853530Y47706363D01*
X12806659Y47798353D01*
X12774276Y47842922D01*
X12094801Y47163447D01*
X12094801Y47169661D01*
X12067542Y47271394D01*
X12014881Y47362606D01*
X11940407Y47437080D01*
X11849195Y47489741D01*
X11747462Y47517000D01*
X11741246Y47517000D01*
X12420721Y48196476D01*
X12420721Y48196477D01*
X12376154Y48228857D01*
X12376149Y48228861D01*
X12193828Y48321757D01*
X11999213Y48384992D01*
X11797116Y48417000D01*
X11592486Y48417000D01*
X11390388Y48384992D01*
X11195773Y48321757D01*
X11013452Y48228861D01*
X11013448Y48228859D01*
X10968879Y48196477D01*
X11648356Y47517000D01*
X11642140Y47517000D01*
X11540407Y47489741D01*
X11449195Y47437080D01*
X11374721Y47362606D01*
X11322060Y47271394D01*
X11294801Y47169661D01*
X11294801Y47163445D01*
X10615324Y47842922D01*
X10582942Y47798353D01*
X10582934Y47798339D01*
X10529216Y47692911D01*
X10485952Y47649646D01*
X10425520Y47640075D01*
X10371003Y47667853D01*
X10343226Y47722369D01*
X10342860Y47724890D01*
X10329845Y47823762D01*
X10279830Y47944508D01*
X10269338Y47969839D01*
X10269338Y47969840D01*
X10173087Y48095277D01*
X10173086Y48095278D01*
X10173083Y48095282D01*
X10173078Y48095286D01*
X10173077Y48095287D01*
X10101905Y48149899D01*
X10047642Y48191536D01*
X10047641Y48191537D01*
X10047639Y48191538D01*
X9901567Y48252043D01*
X9901559Y48252045D01*
X9784162Y48267500D01*
X8605443Y48267500D01*
X8605438Y48267499D01*
X8488042Y48252045D01*
X8488034Y48252043D01*
X8341962Y48191538D01*
X8341961Y48191538D01*
X8216524Y48095287D01*
X8216514Y48095277D01*
X8120263Y47969840D01*
X8120263Y47969839D01*
X8059758Y47823767D01*
X8059756Y47823759D01*
X8044301Y47706363D01*
X5544809Y47706363D01*
X5618052Y47779606D01*
X5723348Y47884903D01*
X5723348Y47884904D01*
X5716127Y47889358D01*
X5549694Y47944507D01*
X5446988Y47955000D01*
X4867152Y47955000D01*
X4808961Y47973907D01*
X4772997Y48023407D01*
X4772997Y48084593D01*
X4808961Y48134093D01*
X4829264Y48145463D01*
X4926180Y48185606D01*
X5057290Y48273211D01*
X5168790Y48384711D01*
X5256395Y48515821D01*
X5306589Y48637000D01*
X29077276Y48637000D01*
X29979940Y48637000D01*
X29957941Y48583890D01*
X29932001Y48453482D01*
X29932001Y48320518D01*
X29957941Y48190110D01*
X29979940Y48137000D01*
X29077276Y48137000D01*
X29095165Y48024046D01*
X29170560Y47792006D01*
X29281320Y47574626D01*
X29424726Y47377245D01*
X29597245Y47204726D01*
X29734922Y47104698D01*
X29770886Y47055198D01*
X29770886Y46994012D01*
X29734923Y46944513D01*
X29694638Y46915244D01*
X29694636Y46915242D01*
X29538759Y46759365D01*
X29527784Y46744259D01*
X29409184Y46581020D01*
X29309103Y46384600D01*
X29240985Y46174949D01*
X29206501Y45957226D01*
X29206501Y45736775D01*
X29240985Y45519052D01*
X29309103Y45309401D01*
X29309105Y45309398D01*
X29309106Y45309394D01*
X29337001Y45254648D01*
X29408450Y45114421D01*
X29409186Y45112978D01*
X29538759Y44934635D01*
X29694636Y44778758D01*
X29872979Y44649185D01*
X30069395Y44549105D01*
X30279050Y44480985D01*
X30366141Y44467191D01*
X30496776Y44446500D01*
X30496779Y44446500D01*
X30717226Y44446500D01*
X30829607Y44464300D01*
X30934952Y44480985D01*
X31144607Y44549105D01*
X31341023Y44649185D01*
X31519366Y44778758D01*
X31675243Y44934635D01*
X31796910Y45102097D01*
X31846408Y45138059D01*
X31907593Y45138059D01*
X31957091Y45102097D01*
X32078759Y44934635D01*
X32234636Y44778758D01*
X32412979Y44649185D01*
X32609395Y44549105D01*
X32819050Y44480985D01*
X32906141Y44467191D01*
X33036776Y44446500D01*
X33036779Y44446500D01*
X33257226Y44446500D01*
X33369607Y44464300D01*
X33474952Y44480985D01*
X33684607Y44549105D01*
X33881023Y44649185D01*
X34059366Y44778758D01*
X34215243Y44934635D01*
X34336910Y45102097D01*
X34386408Y45138059D01*
X34447593Y45138059D01*
X34497091Y45102097D01*
X34618759Y44934635D01*
X34774636Y44778758D01*
X34952979Y44649185D01*
X35149395Y44549105D01*
X35359050Y44480985D01*
X35446141Y44467191D01*
X35576776Y44446500D01*
X35576779Y44446500D01*
X35797226Y44446500D01*
X35909607Y44464300D01*
X36014952Y44480985D01*
X36224607Y44549105D01*
X36421023Y44649185D01*
X36599366Y44778758D01*
X36755243Y44934635D01*
X36876910Y45102097D01*
X36926408Y45138059D01*
X36987593Y45138059D01*
X37037091Y45102097D01*
X37158759Y44934635D01*
X37314636Y44778758D01*
X37492979Y44649185D01*
X37689395Y44549105D01*
X37899050Y44480985D01*
X37986141Y44467191D01*
X38116776Y44446500D01*
X38116779Y44446500D01*
X38337226Y44446500D01*
X38449607Y44464300D01*
X38554952Y44480985D01*
X38764607Y44549105D01*
X38961023Y44649185D01*
X39139366Y44778758D01*
X39295243Y44934635D01*
X39424816Y45112978D01*
X39524896Y45309394D01*
X39593016Y45519049D01*
X39610258Y45627914D01*
X39627501Y45736775D01*
X39627501Y45957226D01*
X39593016Y46174949D01*
X39593016Y46174951D01*
X39524896Y46384606D01*
X39424816Y46581022D01*
X39295243Y46759365D01*
X39139366Y46915242D01*
X39099077Y46944514D01*
X39063115Y46994011D01*
X39063115Y47055197D01*
X39099079Y47104697D01*
X39236756Y47204726D01*
X39409275Y47377245D01*
X39552681Y47574626D01*
X39663441Y47792006D01*
X39738836Y48024046D01*
X39756726Y48137000D01*
X38854062Y48137000D01*
X38876061Y48190110D01*
X38902001Y48320518D01*
X38902001Y48453482D01*
X38876061Y48583890D01*
X38854062Y48637000D01*
X39756726Y48637000D01*
X39738836Y48749955D01*
X39663441Y48981995D01*
X39552681Y49199375D01*
X39409275Y49396756D01*
X39236756Y49569275D01*
X39039375Y49712681D01*
X38821995Y49823441D01*
X38589955Y49898836D01*
X38477001Y49916726D01*
X38477001Y49014062D01*
X38423891Y49036060D01*
X38293483Y49062000D01*
X38160519Y49062000D01*
X38030111Y49036060D01*
X37977001Y49014062D01*
X37977001Y49916726D01*
X37864046Y49898836D01*
X37632006Y49823441D01*
X37414626Y49712681D01*
X37217245Y49569275D01*
X37044723Y49396753D01*
X37037092Y49386249D01*
X36987591Y49350287D01*
X36926406Y49350288D01*
X36876910Y49386249D01*
X36869278Y49396753D01*
X36696756Y49569275D01*
X36499375Y49712681D01*
X36281995Y49823441D01*
X36049955Y49898836D01*
X35937001Y49916726D01*
X35937001Y49014062D01*
X35883891Y49036060D01*
X35753483Y49062000D01*
X35620519Y49062000D01*
X35490111Y49036060D01*
X35437001Y49014062D01*
X35437001Y49916726D01*
X35324046Y49898836D01*
X35092006Y49823441D01*
X34874626Y49712681D01*
X34677245Y49569275D01*
X34504723Y49396753D01*
X34497092Y49386249D01*
X34447591Y49350287D01*
X34386406Y49350288D01*
X34336910Y49386249D01*
X34329278Y49396753D01*
X34156756Y49569275D01*
X33959375Y49712681D01*
X33741995Y49823441D01*
X33509955Y49898836D01*
X33397001Y49916726D01*
X33397001Y49014062D01*
X33343891Y49036060D01*
X33213483Y49062000D01*
X33080519Y49062000D01*
X32950111Y49036060D01*
X32897001Y49014062D01*
X32897001Y49916726D01*
X32784046Y49898836D01*
X32552006Y49823441D01*
X32334626Y49712681D01*
X32137245Y49569275D01*
X31964723Y49396753D01*
X31957092Y49386249D01*
X31907591Y49350287D01*
X31846406Y49350288D01*
X31796910Y49386249D01*
X31789278Y49396753D01*
X31616756Y49569275D01*
X31419375Y49712681D01*
X31201995Y49823441D01*
X30969955Y49898836D01*
X30857001Y49916726D01*
X30857001Y49014062D01*
X30803891Y49036060D01*
X30673483Y49062000D01*
X30540519Y49062000D01*
X30410111Y49036060D01*
X30357001Y49014062D01*
X30357001Y49916726D01*
X30244046Y49898836D01*
X30012006Y49823441D01*
X29794626Y49712681D01*
X29597245Y49569275D01*
X29424726Y49396756D01*
X29281320Y49199375D01*
X29170560Y48981995D01*
X29095165Y48749955D01*
X29077276Y48637000D01*
X5306589Y48637000D01*
X5316738Y48661503D01*
X5347501Y48816158D01*
X5347501Y48973842D01*
X5316738Y49128497D01*
X5256395Y49274179D01*
X5256394Y49274181D01*
X5256391Y49274186D01*
X5205541Y49350287D01*
X5168790Y49405289D01*
X5057290Y49516789D01*
X5005060Y49551688D01*
X4926186Y49604391D01*
X4926175Y49604397D01*
X4780498Y49664737D01*
X4625845Y49695500D01*
X4625843Y49695500D01*
X4468159Y49695500D01*
X4468156Y49695500D01*
X4313504Y49664737D01*
X4313502Y49664737D01*
X4167826Y49604397D01*
X4167815Y49604391D01*
X4036712Y49516789D01*
X4036708Y49516786D01*
X3925215Y49405293D01*
X3925212Y49405289D01*
X3837610Y49274186D01*
X3837604Y49274175D01*
X3777264Y49128499D01*
X3777264Y49128497D01*
X3746501Y48973845D01*
X3746501Y48816156D01*
X3777264Y48661504D01*
X3777264Y48661502D01*
X3837604Y48515826D01*
X3837610Y48515815D01*
X3890313Y48436941D01*
X3925212Y48384711D01*
X4036712Y48273211D01*
X4114877Y48220983D01*
X4167815Y48185610D01*
X4167826Y48185604D01*
X4214272Y48166366D01*
X4264735Y48145464D01*
X4311261Y48105728D01*
X4325545Y48046234D01*
X4302131Y47989705D01*
X4249962Y47957736D01*
X4226850Y47955000D01*
X3647014Y47955000D01*
X3544313Y47944508D01*
X3544298Y47944505D01*
X3377881Y47889361D01*
X3370652Y47884903D01*
X4376767Y46878788D01*
X4334709Y46867518D01*
X4209293Y46795110D01*
X4106891Y46692708D01*
X4034483Y46567292D01*
X4023213Y46525234D01*
X3017098Y47531349D01*
X3010668Y47530598D01*
X2976553Y47501629D01*
X2915543Y47497003D01*
X2880739Y47513109D01*
X2767234Y47595576D01*
X2767228Y47595580D01*
X2563800Y47699231D01*
X2444666Y47737940D01*
X2377750Y47759683D01*
X2346656Y47769786D01*
X2121161Y47805500D01*
X2121158Y47805500D01*
X1892844Y47805500D01*
X1892841Y47805500D01*
X1667345Y47769786D01*
X1450201Y47699231D01*
X1246773Y47595580D01*
X1246767Y47595576D01*
X1062069Y47461384D01*
X900617Y47299932D01*
X766425Y47115234D01*
X766421Y47115228D01*
X687710Y46960747D01*
X644445Y46917482D01*
X584013Y46907911D01*
X529496Y46935688D01*
X501719Y46990205D01*
X500500Y47005692D01*
X500500Y48973845D01*
X1206501Y48973845D01*
X1206501Y48816156D01*
X1237264Y48661504D01*
X1237264Y48661502D01*
X1297604Y48515826D01*
X1297610Y48515815D01*
X1350313Y48436941D01*
X1385212Y48384711D01*
X1496712Y48273211D01*
X1574877Y48220983D01*
X1627815Y48185610D01*
X1627826Y48185604D01*
X1681639Y48163315D01*
X1773504Y48125263D01*
X1928159Y48094500D01*
X1928160Y48094500D01*
X2085842Y48094500D01*
X2085843Y48094500D01*
X2240498Y48125263D01*
X2386180Y48185606D01*
X2517290Y48273211D01*
X2628790Y48384711D01*
X2716395Y48515821D01*
X2776738Y48661503D01*
X2807501Y48816158D01*
X2807501Y48973842D01*
X2776738Y49128497D01*
X2716395Y49274179D01*
X2716394Y49274181D01*
X2716391Y49274186D01*
X2665541Y49350287D01*
X2628790Y49405289D01*
X2517290Y49516789D01*
X2465060Y49551688D01*
X2386186Y49604391D01*
X2386175Y49604397D01*
X2240498Y49664737D01*
X2085845Y49695500D01*
X2085843Y49695500D01*
X1928159Y49695500D01*
X1928156Y49695500D01*
X1773504Y49664737D01*
X1773502Y49664737D01*
X1627826Y49604397D01*
X1627815Y49604391D01*
X1496712Y49516789D01*
X1496708Y49516786D01*
X1385215Y49405293D01*
X1385212Y49405289D01*
X1297610Y49274186D01*
X1297604Y49274175D01*
X1237264Y49128499D01*
X1237264Y49128497D01*
X1206501Y48973845D01*
X500500Y48973845D01*
X500500Y50073500D01*
X519407Y50131691D01*
X568907Y50167655D01*
X599500Y50172500D01*
X40878701Y50172500D01*
X40936892Y50153593D01*
G37*
%TD.AperFunction*%
%TA.AperFunction,Conductor*%
G36*
X18112504Y1817050D02*
G01*
X18140281Y1762533D01*
X18141500Y1747046D01*
X18141500Y1319955D01*
X18122593Y1261764D01*
X18073093Y1225800D01*
X18011907Y1225800D01*
X17972496Y1249951D01*
X17466025Y1756422D01*
X17497258Y1769359D01*
X17620097Y1851437D01*
X17724563Y1955903D01*
X17806641Y2078742D01*
X17819578Y2109976D01*
X18112504Y1817050D01*
G37*
%TD.AperFunction*%
%TA.AperFunction,Conductor*%
G36*
X18087445Y3636256D02*
G01*
X18130710Y3592991D01*
X18141500Y3548046D01*
X18141500Y3120955D01*
X18122593Y3062764D01*
X18112504Y3050951D01*
X17819578Y2758026D01*
X17806641Y2789258D01*
X17724563Y2912097D01*
X17620097Y3016563D01*
X17497258Y3098641D01*
X17466024Y3111579D01*
X17972496Y3618050D01*
X18027013Y3645827D01*
X18087445Y3636256D01*
G37*
%TD.AperFunction*%
%TD*%
M02*
