ISO-10303-21;
HEADER;
FILE_DESCRIPTION (( 'STEP AP214' ),
    '1' );
FILE_NAME ('21847B7C-95AA-4073-833D-5A482201C104.STEP',
    '2026-08-13T14:33:10',
    ( '' ),
    ( '' ),
    'SwSTEP 2.0',
    'SolidWorks 2022',
    '' );
FILE_SCHEMA (( 'AUTOMOTIVE_DESIGN' ));
ENDSEC;

DATA;
#1 = CARTESIAN_POINT ( 'NONE',  ( 1.899999999999999911, 5.199999999999999289, -23.16798004637643515 ) ) ;
#2 = LINE ( 'NONE', #114, #1185 ) ;
#3 = ORIENTED_EDGE ( 'NONE', *, *, #460, .T. ) ;
#4 = VECTOR ( 'NONE', #1228, 1000.000000000000000 ) ;
#5 = EDGE_CURVE ( 'NONE', #26, #1073, #13, .T. ) ;
#6 = PLANE ( 'NONE',  #664 ) ;
#7 = DIRECTION ( 'NONE',  ( 0.0000000000000000000, 1.000000000000000000, 0.0000000000000000000 ) ) ;
#8 = ORIENTED_EDGE ( 'NONE', *, *, #90, .T. ) ;
#9 = DIRECTION ( 'NONE',  ( -1.000000000000000000, -0.0000000000000000000, -0.0000000000000000000 ) ) ;
#10 = PLANE ( 'NONE',  #69 ) ;
#11 = EDGE_CURVE ( 'NONE', #1108, #852, #1133, .T. ) ;
#12 = CARTESIAN_POINT ( 'NONE',  ( 1.899999999999999911, 4.199999999999999289, -9.998286200706527183 ) ) ;
#13 = LINE ( 'NONE', #1, #1260 ) ;
#14 = LINE ( 'NONE', #916, #1009 ) ;
#15 = VERTEX_POINT ( 'NONE', #730 ) ;
#16 = CARTESIAN_POINT ( 'NONE',  ( -1.899999999999999911, 5.199999999999999289, 0.0000000000000000000 ) ) ;
#17 = COLOUR_RGB ( '',0.5372549019607842924, 0.3490196078431372362, 0.3372549019607843368 ) ;
#18 = VECTOR ( 'NONE', #520, 1000.000000000000000 ) ;
#19 = DIRECTION ( 'NONE',  ( -1.000000000000000000, 0.0000000000000000000, 0.0000000000000000000 ) ) ;
#20 = EDGE_CURVE ( 'NONE', #92, #559, #51, .T. ) ;
#21 = VECTOR ( 'NONE', #1112, 1000.000000000000000 ) ;
#22 =( NAMED_UNIT ( * ) SI_UNIT ( $, .STERADIAN. ) SOLID_ANGLE_UNIT ( ) );
#23 = DIRECTION ( 'NONE',  ( -1.000000000000000000, -0.0000000000000000000, -0.0000000000000000000 ) ) ;
#24 = CARTESIAN_POINT ( 'NONE',  ( -1.899999999999999911, 5.199999999999999289, -1.000000000000000000 ) ) ;
#25 = ADVANCED_FACE ( 'NONE', ( #1265 ), #120, .T. ) ;
#26 = VERTEX_POINT ( 'NONE', #738 ) ;
#27 = DIRECTION ( 'NONE',  ( 0.0000000000000000000, 0.0000000000000000000, 1.000000000000000000 ) ) ;
#28 = AXIS2_PLACEMENT_3D ( 'NONE', #717, #1131, #209 ) ;
#29 = CARTESIAN_POINT ( 'NONE',  ( -2.450000000000000178, 5.699999999999998401, -3.998286200706527183 ) ) ;
#30 = DIRECTION ( 'NONE',  ( 0.2651564830210425550, 0.0000000000000000000, -0.9642053928037902510 ) ) ;
#31 = DIRECTION ( 'NONE',  ( -1.000000000000000000, -0.0000000000000000000, -0.0000000000000000000 ) ) ;
#32 = LINE ( 'NONE', #836, #1075 ) ;
#33 = ORIENTED_EDGE ( 'NONE', *, *, #1247, .F. ) ;
#34 = EDGE_CURVE ( 'NONE', #100, #1193, #616, .T. ) ;
#35 = CYLINDRICAL_SURFACE ( 'NONE', #171, 0.9999999999999991118 ) ;
#36 = PLANE ( 'NONE',  #306 ) ;
#37 = CYLINDRICAL_SURFACE ( 'NONE', #790, 0.5000000000000004441 ) ;
#38 = CARTESIAN_POINT ( 'NONE',  ( 1.899999999999999911, 4.199999999999999289, -23.46798004637642876 ) ) ;
#39 = ORIENTED_EDGE ( 'NONE', *, *, #1160, .T. ) ;
#40 = FACE_OUTER_BOUND ( 'NONE', #701, .T. ) ;
#41 = EDGE_CURVE ( 'NONE', #334, #562, #246, .T. ) ;
#42 = DIRECTION ( 'NONE',  ( 0.0000000000000000000, 0.0000000000000000000, -1.000000000000000000 ) ) ;
#43 = DIRECTION ( 'NONE',  ( -1.000000000000000000, 0.0000000000000000000, -0.0000000000000000000 ) ) ;
#44 = AXIS2_PLACEMENT_3D ( 'NONE', #1005, #88, #426 ) ;
#45 = DIRECTION ( 'NONE',  ( 0.0000000000000000000, 0.0000000000000000000, -1.000000000000000000 ) ) ;
#46 = VECTOR ( 'NONE', #526, 1000.000000000000000 ) ;
#47 = AXIS2_PLACEMENT_3D ( 'NONE', #428, #834, #1263 ) ;
#48 = ORIENTED_EDGE ( 'NONE', *, *, #733, .F. ) ;
#49 = CARTESIAN_POINT ( 'NONE',  ( -2.450000000000000178, 5.699999999999998401, -3.998286200706527183 ) ) ;
#50 = EDGE_LOOP ( 'NONE', ( #401, #686, #811, #1094 ) ) ;
#51 = CIRCLE ( 'NONE', #666, 3.599999999999999201 ) ;
#52 = EDGE_CURVE ( 'NONE', #457, #863, #1171, .T. ) ;
#53 = PLANE ( 'NONE',  #301 ) ;
#54 = ORIENTED_EDGE ( 'NONE', *, *, #1247, .T. ) ;
#55 = LINE ( 'NONE', #656, #682 ) ;
#56 = ORIENTED_EDGE ( 'NONE', *, *, #912, .T. ) ;
#57 = CARTESIAN_POINT ( 'NONE',  ( 1.899999999999999911, 6.699999999999999289, -1.499999999999998890 ) ) ;
#58 = CARTESIAN_POINT ( 'NONE',  ( -1.899999999999999911, 4.699999999999999289, -6.998286200706525406 ) ) ;
#59 = ADVANCED_FACE ( 'NONE', ( #580 ), #349, .T. ) ;
#60 = ORIENTED_EDGE ( 'NONE', *, *, #974, .F. ) ;
#61 = CARTESIAN_POINT ( 'NONE',  ( 1.899999999999999911, 9.005158742057306043, -1.587852451787400199 ) ) ;
#62 = FACE_OUTER_BOUND ( 'NONE', #576, .T. ) ;
#63 = VERTEX_POINT ( 'NONE', #1067 ) ;
#64 = PRODUCT_DEFINITION_CONTEXT ( 'detailed design', #452, 'design' ) ;
#65 = DIRECTION ( 'NONE',  ( -1.000000000000000000, 0.0000000000000000000, -0.0000000000000000000 ) ) ;
#66 = AXIS2_PLACEMENT_3D ( 'NONE', #58, #1105, #886 ) ;
#67 = DIRECTION ( 'NONE',  ( 0.0000000000000000000, 0.0000000000000000000, 1.000000000000000000 ) ) ;
#68 = CARTESIAN_POINT ( 'NONE',  ( 1.899999999999999911, 5.499999999999999112, -26.48359554925036363 ) ) ;
#69 = AXIS2_PLACEMENT_3D ( 'NONE', #824, #141, #644 ) ;
#70 = ORIENTED_EDGE ( 'NONE', *, *, #395, .F. ) ;
#71 = ORIENTED_EDGE ( 'NONE', *, *, #354, .F. ) ;
#72 = ADVANCED_FACE ( 'NONE', ( #993 ), #949, .T. ) ;
#73 = ORIENTED_EDGE ( 'NONE', *, *, #510, .F. ) ;
#74 = CYLINDRICAL_SURFACE ( 'NONE', #810, 3.599999999999999201 ) ;
#75 = DIRECTION ( 'NONE',  ( -1.000000000000000000, -0.0000000000000000000, -0.0000000000000000000 ) ) ;
#76 = DIRECTION ( 'NONE',  ( 0.0000000000000000000, 0.0000000000000000000, -1.000000000000000000 ) ) ;
#77 = VERTEX_POINT ( 'NONE', #1097 ) ;
#78 = VERTEX_POINT ( 'NONE', #435 ) ;
#79 = DIRECTION ( 'NONE',  ( 0.0000000000000000000, -1.000000000000000000, 0.0000000000000000000 ) ) ;
#80 = EDGE_LOOP ( 'NONE', ( #377, #999, #228, #313 ) ) ;
#81 = CARTESIAN_POINT ( 'NONE',  ( 1.899999999999999911, 4.199999999999999289, -8.998286200706525406 ) ) ;
#82 = ADVANCED_FACE ( 'NONE', ( #338 ), #1282, .F. ) ;
#83 = LINE ( 'NONE', #113, #552 ) ;
#84 = ORIENTED_EDGE ( 'NONE', *, *, #1007, .T. ) ;
#85 = AXIS2_PLACEMENT_3D ( 'NONE', #845, #1259, #930 ) ;
#86 = EDGE_LOOP ( 'NONE', ( #93, #1230, #1018, #71 ) ) ;
#87 = VECTOR ( 'NONE', #129, 1000.000000000000114 ) ;
#88 = DIRECTION ( 'NONE',  ( 0.0000000000000000000, -0.9659258262890699775, -0.2588190451025146332 ) ) ;
#89 = LINE ( 'NONE', #705, #4 ) ;
#90 = EDGE_CURVE ( 'NONE', #15, #407, #1191, .T. ) ;
#91 = DIRECTION ( 'NONE',  ( 0.0000000000000000000, 0.0000000000000000000, 1.000000000000000000 ) ) ;
#92 = VERTEX_POINT ( 'NONE', #38 ) ;
#93 = ORIENTED_EDGE ( 'NONE', *, *, #403, .F. ) ;
#94 =( NAMED_UNIT ( * ) PLANE_ANGLE_UNIT ( ) SI_UNIT ( $, .RADIAN. ) );
#95 = CARTESIAN_POINT ( 'NONE',  ( -1.899999999999999911, 6.199999999999999289, -26.75000000000000000 ) ) ;
#96 = EDGE_CURVE ( 'NONE', #1144, #288, #860, .T. ) ;
#97 = ORIENTED_EDGE ( 'NONE', *, *, #190, .F. ) ;
#98 = CARTESIAN_POINT ( 'NONE',  ( -1.899999999999999911, 4.199999999999999289, -23.46798004637642876 ) ) ;
#99 = DIRECTION ( 'NONE',  ( 0.7071067811865447972, -0.7071067811865502373, 0.0000000000000000000 ) ) ;
#100 = VERTEX_POINT ( 'NONE', #1273 ) ;
#101 = EDGE_CURVE ( 'NONE', #15, #657, #1204, .T. ) ;
#102 = EDGE_CURVE ( 'NONE', #657, #732, #200, .T. ) ;
#103 = SURFACE_STYLE_FILL_AREA ( #1315 ) ;
#104 = VECTOR ( 'NONE', #1070, 1000.000000000000000 ) ;
#105 = LINE ( 'NONE', #906, #109 ) ;
#106 = VECTOR ( 'NONE', #346, 1000.000000000000000 ) ;
#107 = CARTESIAN_POINT ( 'NONE',  ( -1.899999999999999911, 5.699999999999998401, -3.998286200706527183 ) ) ;
#108 = ORIENTED_EDGE ( 'NONE', *, *, #1330, .T. ) ;
#109 = VECTOR ( 'NONE', #899, 1000.000000000000000 ) ;
#110 = DIRECTION ( 'NONE',  ( 0.0000000000000000000, -1.734723475976807094E-15, -1.000000000000000000 ) ) ;
#111 = EDGE_CURVE ( 'NONE', #334, #911, #755, .T. ) ;
#112 = DIRECTION ( 'NONE',  ( 1.000000000000000000, 0.0000000000000000000, 0.0000000000000000000 ) ) ;
#113 = CARTESIAN_POINT ( 'NONE',  ( 1.899999999999999911, 4.939527733499604167, -24.64519167589474691 ) ) ;
#114 = CARTESIAN_POINT ( 'NONE',  ( 1.899999999999999911, 0.0000000000000000000, -26.75000000000000000 ) ) ;
#115 = EDGE_LOOP ( 'NONE', ( #1012, #1208, #1305, #861 ) ) ;
#116 = ADVANCED_FACE ( 'NONE', ( #786 ), #1319, .T. ) ;
#117 = CARTESIAN_POINT ( 'NONE',  ( -1.899999999999999911, 2.199999999999998845, -17.01849030359326065 ) ) ;
#118 = EDGE_CURVE ( 'NONE', #896, #816, #539, .T. ) ;
#119 = CARTESIAN_POINT ( 'NONE',  ( 1.899999999999999911, 5.499999999999999112, -26.75000000000000000 ) ) ;
#120 = CYLINDRICAL_SURFACE ( 'NONE', #264, 2.000000000000000000 ) ;
#121 = DIRECTION ( 'NONE',  ( 0.0000000000000000000, 0.0000000000000000000, 1.000000000000000000 ) ) ;
#122 = ORIENTED_EDGE ( 'NONE', *, *, #788, .T. ) ;
#123 = FACE_OUTER_BOUND ( 'NONE', #1199, .T. ) ;
#124 = LINE ( 'NONE', #244, #1058 ) ;
#125 = VECTOR ( 'NONE', #224, 1000.000000000000000 ) ;
#126 = CIRCLE ( 'NONE', #1253, 1.000000000000000888 ) ;
#127 = CARTESIAN_POINT ( 'NONE',  ( -1.899999999999999911, 6.699999999999999289, -1.499999999999998890 ) ) ;
#128 = EDGE_CURVE ( 'NONE', #761, #866, #940, .T. ) ;
#129 = DIRECTION ( 'NONE',  ( -0.2651564830210425550, -0.0000000000000000000, 0.9642053928037903621 ) ) ;
#130 = ORIENTED_EDGE ( 'NONE', *, *, #594, .T. ) ;
#131 = LINE ( 'NONE', #642, #787 ) ;
#132 = AXIS2_PLACEMENT_3D ( 'NONE', #381, #443, #168 ) ;
#133 = AXIS2_PLACEMENT_3D ( 'NONE', #1045, #1039, #42 ) ;
#134 = LINE ( 'NONE', #427, #572 ) ;
#135 = CARTESIAN_POINT ( 'NONE',  ( -1.899999999999999911, 4.199999999999999289, -7.998286200706524518 ) ) ;
#136 = DIRECTION ( 'NONE',  ( -0.2651564830210425550, 0.0000000000000000000, -0.9642053928037903621 ) ) ;
#137 = EDGE_CURVE ( 'NONE', #831, #100, #986, .T. ) ;
#138 = EDGE_LOOP ( 'NONE', ( #1078, #60, #144, #708 ) ) ;
#139 = VERTEX_POINT ( 'NONE', #887 ) ;
#140 = DIRECTION ( 'NONE',  ( 0.0000000000000000000, 0.0000000000000000000, -1.000000000000000000 ) ) ;
#141 = DIRECTION ( 'NONE',  ( 1.000000000000000000, -0.0000000000000000000, 0.0000000000000000000 ) ) ;
#142 = PLANE ( 'NONE',  #683 ) ;
#143 = DIRECTION ( 'NONE',  ( 0.0000000000000000000, -1.577512894612412217E-16, 1.000000000000000000 ) ) ;
#144 = ORIENTED_EDGE ( 'NONE', *, *, #838, .T. ) ;
#145 = CARTESIAN_POINT ( 'NONE',  ( -1.899999999999999911, 4.199999999999999289, -17.01849030359326065 ) ) ;
#146 = EDGE_CURVE ( 'NONE', #936, #187, #1312, .T. ) ;
#147 = FACE_OUTER_BOUND ( 'NONE', #391, .T. ) ;
#148 = CARTESIAN_POINT ( 'NONE',  ( 1.899999999999999911, 0.0000000000000000000, -7.998286200706524518 ) ) ;
#149 = CIRCLE ( 'NONE', #235, 0.5000000000000004441 ) ;
#150 = AXIS2_PLACEMENT_3D ( 'NONE', #673, #374, #698 ) ;
#151 = AXIS2_PLACEMENT_3D ( 'NONE', #1047, #434, #840 ) ;
#152 = LINE ( 'NONE', #709, #1346 ) ;
#153 = VERTEX_POINT ( 'NONE', #681 ) ;
#154 = DIRECTION ( 'NONE',  ( 1.000000000000000000, -0.0000000000000000000, 0.0000000000000000000 ) ) ;
#155 = EDGE_CURVE ( 'NONE', #569, #1076, #178, .T. ) ;
#156 = FACE_OUTER_BOUND ( 'NONE', #138, .T. ) ;
#157 = ORIENTED_EDGE ( 'NONE', *, *, #933, .F. ) ;
#158 = DIRECTION ( 'NONE',  ( -1.000000000000000000, 0.0000000000000000000, -0.0000000000000000000 ) ) ;
#159 = ORIENTED_EDGE ( 'NONE', *, *, #964, .F. ) ;
#160 = EDGE_CURVE ( 'NONE', #816, #1300, #89, .T. ) ;
#161 = PLANE ( 'NONE',  #150 ) ;
#162 = EDGE_CURVE ( 'NONE', #1073, #166, #610, .T. ) ;
#163 = ORIENTED_EDGE ( 'NONE', *, *, #479, .T. ) ;
#164 = ORIENTED_EDGE ( 'NONE', *, *, #1178, .T. ) ;
#165 = CARTESIAN_POINT ( 'NONE',  ( 1.899999999999999911, 5.699999999999998401, 0.0000000000000000000 ) ) ;
#166 = VERTEX_POINT ( 'NONE', #814 ) ;
#167 = PLANE ( 'NONE',  #1080 ) ;
#168 = DIRECTION ( 'NONE',  ( 0.0000000000000000000, 0.0000000000000000000, -1.000000000000000000 ) ) ;
#169 = EDGE_CURVE ( 'NONE', #878, #350, #699, .T. ) ;
#170 = ORIENTED_EDGE ( 'NONE', *, *, #319, .T. ) ;
#171 = AXIS2_PLACEMENT_3D ( 'NONE', #341, #9, #27 ) ;
#172 = CIRCLE ( 'NONE', #344, 0.9999999999999974465 ) ;
#173 = VERTEX_POINT ( 'NONE', #1120 ) ;
#174 = ORIENTED_EDGE ( 'NONE', *, *, #137, .F. ) ;
#175 = VECTOR ( 'NONE', #30, 1000.000000000000114 ) ;
#176 = ORIENTED_EDGE ( 'NONE', *, *, #1007, .F. ) ;
#177 = LINE ( 'NONE', #1327, #963 ) ;
#178 = LINE ( 'NONE', #1222, #577 ) ;
#179 = EDGE_CURVE ( 'NONE', #1174, #878, #105, .T. ) ;
#180 = FACE_OUTER_BOUND ( 'NONE', #979, .T. ) ;
#181 = ORIENTED_EDGE ( 'NONE', *, *, #1269, .T. ) ;
#182 = ORIENTED_EDGE ( 'NONE', *, *, #146, .F. ) ;
#183 = DIRECTION ( 'NONE',  ( 0.0000000000000000000, 0.0000000000000000000, -1.000000000000000000 ) ) ;
#184 = CARTESIAN_POINT ( 'NONE',  ( -1.899999999999999911, 0.0000000000000000000, 0.0000000000000000000 ) ) ;
#185 = DIRECTION ( 'NONE',  ( 1.000000000000000000, 0.0000000000000000000, -0.0000000000000000000 ) ) ;
#186 = DIRECTION ( 'NONE',  ( -0.2651564830210425550, 0.0000000000000000000, -0.9642053928037903621 ) ) ;
#187 = VERTEX_POINT ( 'NONE', #95 ) ;
#188 = ORIENTED_EDGE ( 'NONE', *, *, #1342, .F. ) ;
#189 = LINE ( 'NONE', #503, #768 ) ;
#190 = EDGE_CURVE ( 'NONE', #1313, #1174, #404, .T. ) ;
#191 = CARTESIAN_POINT ( 'NONE',  ( 1.899999999999999911, 4.199999999999999289, -19.46798004637643587 ) ) ;
#192 = DIRECTION ( 'NONE',  ( 0.0000000000000000000, -0.0000000000000000000, 1.000000000000000000 ) ) ;
#193 = ORIENTED_EDGE ( 'NONE', *, *, #988, .T. ) ;
#194 = VECTOR ( 'NONE', #204, 1000.000000000000000 ) ;
#195 = ORIENTED_EDGE ( 'NONE', *, *, #1093, .F. ) ;
#196 = AXIS2_PLACEMENT_3D ( 'NONE', #862, #357, #762 ) ;
#197 = LINE ( 'NONE', #1239, #618 ) ;
#198 = PRODUCT_DEFINITION_FORMATION_WITH_SPECIFIED_SOURCE ( 'ANY', '', #620, .NOT_KNOWN. ) ;
#199 = EDGE_CURVE ( 'NONE', #882, #256, #690, .T. ) ;
#200 = CIRCLE ( 'NONE', #1056, 1.500000000000004885 ) ;
#201 = VERTEX_POINT ( 'NONE', #1234 ) ;
#202 = DIRECTION ( 'NONE',  ( -1.000000000000000000, -0.0000000000000000000, -0.0000000000000000000 ) ) ;
#203 = ORIENTED_EDGE ( 'NONE', *, *, #1329, .T. ) ;
#204 = DIRECTION ( 'NONE',  ( -1.000000000000000000, -0.0000000000000000000, -0.0000000000000000000 ) ) ;
#205 = CARTESIAN_POINT ( 'NONE',  ( -2.450000000000000178, 5.699999999999998401, -3.998286200706527183 ) ) ;
#206 = ORIENTED_EDGE ( 'NONE', *, *, #1197, .F. ) ;
#207 = VERTEX_POINT ( 'NONE', #1026 ) ;
#208 = CARTESIAN_POINT ( 'NONE',  ( 1.899999999999999911, 3.699999999999998845, -19.46798004637643587 ) ) ;
#209 = DIRECTION ( 'NONE',  ( 0.0000000000000000000, 0.0000000000000000000, -1.000000000000000000 ) ) ;
#210 = CARTESIAN_POINT ( 'NONE',  ( 1.899999999999999911, 7.761435594066186106, -23.99350503086185071 ) ) ;
#211 = ADVANCED_FACE ( 'NONE', ( #818 ), #807, .T. ) ;
#212 = FACE_OUTER_BOUND ( 'NONE', #221, .T. ) ;
#213 = ORIENTED_EDGE ( 'NONE', *, *, #368, .F. ) ;
#214 = DIRECTION ( 'NONE',  ( -1.000000000000000000, -0.0000000000000000000, -0.0000000000000000000 ) ) ;
#215 = AXIS2_PLACEMENT_3D ( 'NONE', #727, #1250, #110 ) ;
#216 = CARTESIAN_POINT ( 'NONE',  ( 1.899999999999999911, 4.199999999999999289, -17.01849030359326065 ) ) ;
#217 = VECTOR ( 'NONE', #186, 1000.000000000000114 ) ;
#218 = DIRECTION ( 'NONE',  ( -1.000000000000000000, -0.0000000000000000000, -0.0000000000000000000 ) ) ;
#219 = VERTEX_POINT ( 'NONE', #798 ) ;
#220 = DIRECTION ( 'NONE',  ( 0.0000000000000000000, 1.000000000000000000, 0.0000000000000000000 ) ) ;
#221 = EDGE_LOOP ( 'NONE', ( #413, #250, #1071, #397 ) ) ;
#222 = DIRECTION ( 'NONE',  ( -1.000000000000000000, -0.0000000000000000000, -0.0000000000000000000 ) ) ;
#223 = ADVANCED_FACE ( 'NONE', ( #1113 ), #1127, .F. ) ;
#224 = DIRECTION ( 'NONE',  ( 0.0000000000000000000, 1.000000000000000000, 0.0000000000000000000 ) ) ;
#225 = LINE ( 'NONE', #396, #408 ) ;
#226 = DIRECTION ( 'NONE',  ( 1.000000000000000000, -0.0000000000000000000, 0.0000000000000000000 ) ) ;
#227 = LINE ( 'NONE', #327, #900 ) ;
#228 = ORIENTED_EDGE ( 'NONE', *, *, #287, .F. ) ;
#229 = FACE_OUTER_BOUND ( 'NONE', #885, .T. ) ;
#230 = CARTESIAN_POINT ( 'NONE',  ( 2.450000000000000178, 6.699999999999999289, -3.998286200706527183 ) ) ;
#231 = CARTESIAN_POINT ( 'NONE',  ( 1.899999999999999911, 0.0000000000000000000, -26.75000000000000000 ) ) ;
#232 = CARTESIAN_POINT ( 'NONE',  ( 1.899999999999999911, 2.199999999999998845, -17.01849030359326065 ) ) ;
#233 = ORIENTED_EDGE ( 'NONE', *, *, #765, .F. ) ;
#234 = CARTESIAN_POINT ( 'NONE',  ( 1.899999999999999911, 5.199999999999999289, 0.0000000000000000000 ) ) ;
#235 = AXIS2_PLACEMENT_3D ( 'NONE', #518, #817, #322 ) ;
#236 = ADVANCED_FACE ( 'NONE', ( #712 ), #393, .T. ) ;
#237 = VECTOR ( 'NONE', #1254, 1000.000000000000000 ) ;
#238 = CARTESIAN_POINT ( 'NONE',  ( -1.899999999999999911, 6.700000000000000178, -6.998286200706525406 ) ) ;
#239 = AXIS2_PLACEMENT_3D ( 'NONE', #531, #1281, #1272 ) ;
#240 = DIRECTION ( 'NONE',  ( 0.0000000000000000000, 0.0000000000000000000, -1.000000000000000000 ) ) ;
#241 = VERTEX_POINT ( 'NONE', #310 ) ;
#242 = ORIENTED_EDGE ( 'NONE', *, *, #584, .F. ) ;
#243 = LINE ( 'NONE', #1032, #808 ) ;
#244 = CARTESIAN_POINT ( 'NONE',  ( 1.899999999999999689, 2.649999999999997691, -3.998286200706527183 ) ) ;
#245 = LINE ( 'NONE', #1065, #106 ) ;
#246 = LINE ( 'NONE', #1050, #881 ) ;
#247 = EDGE_CURVE ( 'NONE', #1083, #831, #1238, .T. ) ;
#248 = VERTEX_POINT ( 'NONE', #1245 ) ;
#249 = DIRECTION ( 'NONE',  ( 0.0000000000000000000, 0.1736481776669300259, 0.9848077530122081313 ) ) ;
#250 = ORIENTED_EDGE ( 'NONE', *, *, #1288, .F. ) ;
#251 = LINE ( 'NONE', #1182, #385 ) ;
#252 = CARTESIAN_POINT ( 'NONE',  ( 4.000000000000002665, -2.100000000000018296, 0.0000000000000000000 ) ) ;
#253 = EDGE_LOOP ( 'NONE', ( #1225, #296, #801, #488 ) ) ;
#254 = EDGE_CURVE ( 'NONE', #608, #241, #615, .T. ) ;
#255 = DIRECTION ( 'NONE',  ( -1.000000000000000000, -0.0000000000000000000, -0.0000000000000000000 ) ) ;
#256 = VERTEX_POINT ( 'NONE', #81 ) ;
#257 = CARTESIAN_POINT ( 'NONE',  ( -1.899999999999999911, 4.199999999999999289, -9.998286200706527183 ) ) ;
#258 = AXIS2_PLACEMENT_3D ( 'NONE', #145, #1286, #462 ) ;
#259 = AXIS2_PLACEMENT_3D ( 'NONE', #778, #271, #1077 ) ;
#260 = VECTOR ( 'NONE', #19, 1000.000000000000000 ) ;
#261 = ORIENTED_EDGE ( 'NONE', *, *, #20, .T. ) ;
#262 = CARTESIAN_POINT ( 'NONE',  ( 1.899999999999999911, 0.0000000000000000000, -8.998286200706525406 ) ) ;
#263 = ADVANCED_FACE ( 'NONE', ( #491 ), #10, .F. ) ;
#264 = AXIS2_PLACEMENT_3D ( 'NONE', #934, #23, #332 ) ;
#265 = ADVANCED_FACE ( 'NONE', ( #839 ), #523, .F. ) ;
#266 = DIRECTION ( 'NONE',  ( 0.0000000000000000000, 0.0000000000000000000, -1.000000000000000000 ) ) ;
#267 = ORIENTED_EDGE ( 'NONE', *, *, #819, .T. ) ;
#268 = DIRECTION ( 'NONE',  ( 0.0000000000000000000, 1.000000000000000000, 0.0000000000000000000 ) ) ;
#269 = FACE_OUTER_BOUND ( 'NONE', #253, .T. ) ;
#270 = ORIENTED_EDGE ( 'NONE', *, *, #1093, .T. ) ;
#271 = DIRECTION ( 'NONE',  ( -1.000000000000000000, 0.0000000000000000000, -0.0000000000000000000 ) ) ;
#272 = ORIENTED_EDGE ( 'NONE', *, *, #549, .F. ) ;
#273 = DIRECTION ( 'NONE',  ( 0.0000000000000000000, -0.0000000000000000000, 1.000000000000000000 ) ) ;
#274 = DIRECTION ( 'NONE',  ( -1.000000000000000000, -0.0000000000000000000, -0.0000000000000000000 ) ) ;
#275 = ADVANCED_FACE ( 'NONE', ( #1251 ), #855, .T. ) ;
#276 = CIRCLE ( 'NONE', #383, 0.9999999999999991118 ) ;
#277 = DIRECTION ( 'NONE',  ( -0.0000000000000000000, 1.000000000000000000, 0.0000000000000000000 ) ) ;
#278 = VECTOR ( 'NONE', #1266, 1000.000000000000000 ) ;
#279 = EDGE_LOOP ( 'NONE', ( #1037, #370, #667, #1030 ) ) ;
#280 = EDGE_LOOP ( 'NONE', ( #766, #320, #1200, #467 ) ) ;
#281 = AXIS2_PLACEMENT_3D ( 'NONE', #870, #680, #587 ) ;
#282 = CARTESIAN_POINT ( 'NONE',  ( 1.899999999999999911, -4.200000000000003730, -1.000000000000000000 ) ) ;
#283 = ORIENTED_EDGE ( 'NONE', *, *, #871, .T. ) ;
#284 = VECTOR ( 'NONE', #274, 1000.000000000000000 ) ;
#285 = DIRECTION ( 'NONE',  ( -1.000000000000000000, 0.0000000000000000000, -0.0000000000000000000 ) ) ;
#286 = ORIENTED_EDGE ( 'NONE', *, *, #1269, .F. ) ;
#287 = EDGE_CURVE ( 'NONE', #486, #1195, #924, .T. ) ;
#288 = VERTEX_POINT ( 'NONE', #117 ) ;
#289 = CARTESIAN_POINT ( 'NONE',  ( 1.899999999999999911, 5.199999999999999289, -1.499999999999998890 ) ) ;
#290 = CYLINDRICAL_SURFACE ( 'NONE', #1141, 2.120000000000000551 ) ;
#291 = EDGE_LOOP ( 'NONE', ( #1116, #922, #1164, #283 ) ) ;
#292 = ORIENTED_EDGE ( 'NONE', *, *, #96, .T. ) ;
#293 = ADVANCED_FACE ( 'NONE', ( #336 ), #36, .F. ) ;
#294 = FILL_AREA_STYLE_COLOUR ( '', #17 ) ;
#295 = DIRECTION ( 'NONE',  ( 0.0000000000000000000, 1.000000000000000000, 0.0000000000000000000 ) ) ;
#296 = ORIENTED_EDGE ( 'NONE', *, *, #111, .F. ) ;
#297 = STYLED_ITEM ( 'NONE', ( #904 ), #394 ) ;
#298 = VERTEX_POINT ( 'NONE', #651 ) ;
#299 = CIRCLE ( 'NONE', #259, 0.5000000000000004441 ) ;
#300 = DIRECTION ( 'NONE',  ( -0.0000000000000000000, 1.000000000000000000, 0.0000000000000000000 ) ) ;
#301 = AXIS2_PLACEMENT_3D ( 'NONE', #638, #353, #658 ) ;
#302 = DIRECTION ( 'NONE',  ( 0.0000000000000000000, 0.0000000000000000000, 1.000000000000000000 ) ) ;
#303 = EDGE_CURVE ( 'NONE', #863, #1174, #773, .T. ) ;
#304 = ADVANCED_FACE ( 'NONE', ( #315 ), #330, .T. ) ;
#305 = VECTOR ( 'NONE', #476, 1000.000000000000000 ) ;
#306 = AXIS2_PLACEMENT_3D ( 'NONE', #447, #1262, #847 ) ;
#307 = DIRECTION ( 'NONE',  ( 1.000000000000000000, -0.0000000000000000000, 0.0000000000000000000 ) ) ;
#308 = VERTEX_POINT ( 'NONE', #742 ) ;
#309 = FACE_OUTER_BOUND ( 'NONE', #715, .T. ) ;
#310 = CARTESIAN_POINT ( 'NONE',  ( 2.450000000000000178, 5.699999999999998401, -4.998286200706527183 ) ) ;
#311 = EDGE_CURVE ( 'NONE', #63, #486, #124, .T. ) ;
#312 = CARTESIAN_POINT ( 'NONE',  ( -1.899999999999999689, 6.699999999999999289, -3.998286200706527183 ) ) ;
#313 = ORIENTED_EDGE ( 'NONE', *, *, #311, .F. ) ;
#314 = CARTESIAN_POINT ( 'NONE',  ( 1.899999999999999911, 4.199999999999999289, -17.01849030359326065 ) ) ;
#315 = FACE_OUTER_BOUND ( 'NONE', #556, .T. ) ;
#316 = FACE_OUTER_BOUND ( 'NONE', #1291, .T. ) ;
#317 = ADVANCED_FACE ( 'NONE', ( #324 ), #1159, .T. ) ;
#318 = LINE ( 'NONE', #639, #278 ) ;
#319 = EDGE_CURVE ( 'NONE', #407, #26, #433, .T. ) ;
#320 = ORIENTED_EDGE ( 'NONE', *, *, #1111, .F. ) ;
#321 = CIRCLE ( 'NONE', #215, 2.000000000000000000 ) ;
#322 = DIRECTION ( 'NONE',  ( 0.0000000000000000000, 3.469446951953611033E-15, -1.000000000000000000 ) ) ;
#323 = VECTOR ( 'NONE', #418, 1000.000000000000000 ) ;
#324 = FACE_OUTER_BOUND ( 'NONE', #291, .T. ) ;
#325 = CIRCLE ( 'NONE', #598, 0.9999999999999974465 ) ;
#326 = DIRECTION ( 'NONE',  ( 0.7071067811865453523, -0.7071067811865496822, -0.0000000000000000000 ) ) ;
#327 = CARTESIAN_POINT ( 'NONE',  ( 1.899999999999999911, 3.799999999999987832, -18.97808209781980082 ) ) ;
#328 = ORIENTED_EDGE ( 'NONE', *, *, #499, .F. ) ;
#329 = EDGE_CURVE ( 'NONE', #936, #207, #728, .T. ) ;
#330 = CYLINDRICAL_SURFACE ( 'NONE', #648, 1.499999999999999112 ) ;
#331 = DIRECTION ( 'NONE',  ( -1.000000000000000000, -0.0000000000000000000, -0.0000000000000000000 ) ) ;
#332 = DIRECTION ( 'NONE',  ( 0.0000000000000000000, 0.0000000000000000000, 1.000000000000000000 ) ) ;
#333 = CARTESIAN_POINT ( 'NONE',  ( 0.8999999999999960254, -5.200000000000001066, 0.0000000000000000000 ) ) ;
#334 = VERTEX_POINT ( 'NONE', #624 ) ;
#335 = EDGE_CURVE ( 'NONE', #248, #852, #1146, .T. ) ;
#336 = FACE_OUTER_BOUND ( 'NONE', #1123, .T. ) ;
#337 = DIRECTION ( 'NONE',  ( 1.000000000000000000, 0.0000000000000000000, -0.0000000000000000000 ) ) ;
#338 = FACE_OUTER_BOUND ( 'NONE', #975, .T. ) ;
#339 = ORIENTED_EDGE ( 'NONE', *, *, #534, .T. ) ;
#340 = VERTEX_POINT ( 'NONE', #16 ) ;
#341 = CARTESIAN_POINT ( 'NONE',  ( 1.899999999999999911, 4.699999999999999289, -6.998286200706525406 ) ) ;
#342 = DIRECTION ( 'NONE',  ( -1.000000000000000000, -0.0000000000000000000, -0.0000000000000000000 ) ) ;
#343 = MECHANICAL_DESIGN_GEOMETRIC_PRESENTATION_REPRESENTATION (  '', ( #297 ), #982 ) ;
#344 = AXIS2_PLACEMENT_3D ( 'NONE', #781, #1206, #685 ) ;
#345 = EDGE_CURVE ( 'NONE', #1193, #187, #750, .T. ) ;
#346 = DIRECTION ( 'NONE',  ( 0.0000000000000000000, -1.000000000000000000, 0.0000000000000000000 ) ) ;
#347 = STYLED_ITEM ( 'NONE', ( #1066 ), #1103 ) ;
#348 = APPLICATION_PROTOCOL_DEFINITION ( 'draft international standard', 'automotive_design', 1998, #452 ) ;
#349 = PLANE ( 'NONE',  #987 ) ;
#350 = VERTEX_POINT ( 'NONE', #29 ) ;
#351 = LINE ( 'NONE', #969, #1344 ) ;
#352 = VECTOR ( 'NONE', #571, 1000.000000000000000 ) ;
#353 = DIRECTION ( 'NONE',  ( 0.7071067811865496822, 0.7071067811865453523, 0.0000000000000000000 ) ) ;
#354 = EDGE_CURVE ( 'NONE', #173, #1195, #134, .T. ) ;
#355 = DIRECTION ( 'NONE',  ( -0.0000000000000000000, 1.000000000000000000, 0.0000000000000000000 ) ) ;
#356 = ORIENTED_EDGE ( 'NONE', *, *, #1081, .F. ) ;
#357 = DIRECTION ( 'NONE',  ( 1.000000000000000000, -0.0000000000000000000, 0.0000000000000000000 ) ) ;
#358 = FACE_OUTER_BOUND ( 'NONE', #995, .T. ) ;
#359 = ADVANCED_FACE ( 'NONE', ( #947 ), #519, .T. ) ;
#360 = ADVANCED_FACE ( 'NONE', ( #147 ), #1181, .T. ) ;
#361 = EDGE_LOOP ( 'NONE', ( #1188, #419, #1322, #485 ) ) ;
#362 = DIRECTION ( 'NONE',  ( 0.0000000000000000000, 1.000000000000000000, 0.0000000000000000000 ) ) ;
#363 = AXIS2_PLACEMENT_3D ( 'NONE', #314, #623, #946 ) ;
#364 = VECTOR ( 'NONE', #76, 1000.000000000000000 ) ;
#365 =( GEOMETRIC_REPRESENTATION_CONTEXT ( 3 ) GLOBAL_UNCERTAINTY_ASSIGNED_CONTEXT ( ( #515 ) ) GLOBAL_UNIT_ASSIGNED_CONTEXT ( ( #1049, #849, #22 ) ) REPRESENTATION_CONTEXT ( 'NONE', 'WORKASPACE' ) );
#366 = ORIENTED_EDGE ( 'NONE', *, *, #335, .F. ) ;
#367 = CARTESIAN_POINT ( 'NONE',  ( -1.899999999999999911, 5.199999999999999289, -19.46798004637643587 ) ) ;
#368 = EDGE_CURVE ( 'NONE', #1003, #1108, #971, .T. ) ;
#369 = CARTESIAN_POINT ( 'NONE',  ( 1.899999999999999911, 6.699999999999999289, 1.056933639390316163E-15 ) ) ;
#370 = ORIENTED_EDGE ( 'NONE', *, *, #635, .F. ) ;
#371 = CARTESIAN_POINT ( 'NONE',  ( -1.899999999999999911, 6.199999999999999289, -27.50000000000000000 ) ) ;
#372 = ORIENTED_EDGE ( 'NONE', *, *, #118, .T. ) ;
#373 = EDGE_CURVE ( 'NONE', #1302, #559, #775, .T. ) ;
#374 = DIRECTION ( 'NONE',  ( 0.0000000000000000000, 0.0000000000000000000, 1.000000000000000000 ) ) ;
#375 = CARTESIAN_POINT ( 'NONE',  ( 1.899999999999999911, 6.199999999999999289, -26.75000000000000000 ) ) ;
#376 = FACE_OUTER_BOUND ( 'NONE', #280, .T. ) ;
#377 = ORIENTED_EDGE ( 'NONE', *, *, #1160, .F. ) ;
#378 = ORIENTED_EDGE ( 'NONE', *, *, #654, .F. ) ;
#379 = DIRECTION ( 'NONE',  ( -0.2651564830210425550, 0.0000000000000000000, 0.9642053928037903621 ) ) ;
#380 = CARTESIAN_POINT ( 'NONE',  ( -1.899999999999999911, 4.199999999999999289, 0.0000000000000000000 ) ) ;
#381 = CARTESIAN_POINT ( 'NONE',  ( 1.899999999999999911, 4.199999999999999289, -9.998286200706527183 ) ) ;
#382 = EDGE_CURVE ( 'NONE', #785, #248, #197, .T. ) ;
#383 = AXIS2_PLACEMENT_3D ( 'NONE', #563, #1084, #1301 ) ;
#384 = DIRECTION ( 'NONE',  ( 0.0000000000000000000, 0.0000000000000000000, 1.000000000000000000 ) ) ;
#385 = VECTOR ( 'NONE', #955, 1000.000000000000000 ) ;
#386 = ORIENTED_EDGE ( 'NONE', *, *, #1256, .T. ) ;
#387 = UNCERTAINTY_MEASURE_WITH_UNIT (LENGTH_MEASURE( 1.000000000000000082E-05 ), #1334, 'distance_accuracy_value', 'NONE');
#388 = ORIENTED_EDGE ( 'NONE', *, *, #1288, .T. ) ;
#389 = VECTOR ( 'NONE', #331, 1000.000000000000000 ) ;
#390 = CARTESIAN_POINT ( 'NONE',  ( 1.899999999999999911, 6.700000000000000178, -3.998286200706527183 ) ) ;
#391 = EDGE_LOOP ( 'NONE', ( #1087, #903, #454, #671, #917, #693, #794, #1249 ) ) ;
#392 = DIRECTION ( 'NONE',  ( -1.000000000000000000, -0.0000000000000000000, -0.0000000000000000000 ) ) ;
#393 = PLANE ( 'NONE',  #431 ) ;
#394 = MANIFOLD_SOLID_BREP ( 'Chamfer1', #1033 ) ;
#395 = EDGE_CURVE ( 'NONE', #566, #1339, #189, .T. ) ;
#396 = CARTESIAN_POINT ( 'NONE',  ( 1.899999999999999911, 5.199999999999999289, -19.46798004637643587 ) ) ;
#397 = ORIENTED_EDGE ( 'NONE', *, *, #415, .F. ) ;
#398 = ORIENTED_EDGE ( 'NONE', *, *, #1240, .T. ) ;
#399 = DIRECTION ( 'NONE',  ( 0.0000000000000000000, 0.0000000000000000000, -1.000000000000000000 ) ) ;
#400 = ADVANCED_FACE ( 'NONE', ( #309 ), #909, .T. ) ;
#401 = ORIENTED_EDGE ( 'NONE', *, *, #858, .T. ) ;
#402 = ORIENTED_EDGE ( 'NONE', *, *, #303, .T. ) ;
#403 = EDGE_CURVE ( 'NONE', #241, #173, #1020, .T. ) ;
#404 = LINE ( 'NONE', #910, #456 ) ;
#405 = DIRECTION ( 'NONE',  ( -1.000000000000000000, -0.0000000000000000000, -0.0000000000000000000 ) ) ;
#406 = VECTOR ( 'NONE', #214, 1000.000000000000000 ) ;
#407 = VERTEX_POINT ( 'NONE', #409 ) ;
#408 = VECTOR ( 'NONE', #589, 1000.000000000000000 ) ;
#409 = CARTESIAN_POINT ( 'NONE',  ( 1.899999999999999911, 5.199999999999999289, -19.46798004637643587 ) ) ;
#410 = CIRCLE ( 'NONE', #1211, 2.000000000000000000 ) ;
#411 = CARTESIAN_POINT ( 'NONE',  ( 2.450000000000000178, 2.649999999999997691, -3.998286200706527183 ) ) ;
#412 = LINE ( 'NONE', #1257, #87 ) ;
#413 = ORIENTED_EDGE ( 'NONE', *, *, #118, .F. ) ;
#414 = CARTESIAN_POINT ( 'NONE',  ( -1.899999999999999911, 5.699999999999998401, -6.998286200706525406 ) ) ;
#415 = EDGE_CURVE ( 'NONE', #816, #837, #802, .T. ) ;
#416 = DIRECTION ( 'NONE',  ( -1.000000000000000000, -0.0000000000000000000, 0.0000000000000000000 ) ) ;
#417 = CARTESIAN_POINT ( 'NONE',  ( 1.899999999999999911, 4.199999999999999289, 0.0000000000000000000 ) ) ;
#418 = DIRECTION ( 'NONE',  ( 0.0000000000000000000, 0.0000000000000000000, -1.000000000000000000 ) ) ;
#419 = ORIENTED_EDGE ( 'NONE', *, *, #830, .T. ) ;
#420 = LINE ( 'NONE', #1145, #1162 ) ;
#421 = DIRECTION ( 'NONE',  ( 1.000000000000000000, -0.0000000000000000000, 0.0000000000000000000 ) ) ;
#422 = CARTESIAN_POINT ( 'NONE',  ( -2.450000000000000178, 2.649999999999997691, -4.998286200706527183 ) ) ;
#423 = LINE ( 'NONE', #1143, #470 ) ;
#424 = ORIENTED_EDGE ( 'NONE', *, *, #34, .F. ) ;
#425 = AXIS2_PLACEMENT_3D ( 'NONE', #262, #976, #158 ) ;
#426 = DIRECTION ( 'NONE',  ( 0.0000000000000000000, 0.2588190451025146332, -0.9659258262890699775 ) ) ;
#427 = CARTESIAN_POINT ( 'NONE',  ( 2.450000000000000178, 2.649999999999997691, -3.998286200706527183 ) ) ;
#428 = CARTESIAN_POINT ( 'NONE',  ( 1.899999999999999911, 5.199999999999999289, -1.499999999999998890 ) ) ;
#429 = CARTESIAN_POINT ( 'NONE',  ( 1.899999999999999911, 2.649999999999997691, -6.998286200706527183 ) ) ;
#430 = ORIENTED_EDGE ( 'NONE', *, *, #743, .T. ) ;
#431 = AXIS2_PLACEMENT_3D ( 'NONE', #411, #1241, #185 ) ;
#432 = DIRECTION ( 'NONE',  ( -0.7071067811865502373, -0.7071067811865447972, 0.0000000000000000000 ) ) ;
#433 = LINE ( 'NONE', #234, #884 ) ;
#434 = DIRECTION ( 'NONE',  ( 0.0000000000000000000, 0.0000000000000000000, 1.000000000000000000 ) ) ;
#435 = CARTESIAN_POINT ( 'NONE',  ( -1.899999999999999911, 4.700000000000000178, -8.998286200706525406 ) ) ;
#436 = CARTESIAN_POINT ( 'NONE',  ( 1.899999999999999911, 4.700000000000000178, -8.998286200706525406 ) ) ;
#437 = VERTEX_POINT ( 'NONE', #1130 ) ;
#438 = PRODUCT_DEFINITION ( 'UNKNOWN', '', #198, #64 ) ;
#439 = ADVANCED_FACE ( 'NONE', ( #498 ), #487, .T. ) ;
#440 = DIRECTION ( 'NONE',  ( 0.0000000000000000000, 0.0000000000000000000, 1.000000000000000000 ) ) ;
#441 = CARTESIAN_POINT ( 'NONE',  ( -1.899999999999999911, 5.199999999999999289, -23.16798004637643515 ) ) ;
#442 = SURFACE_STYLE_FILL_AREA ( #1154 ) ;
#443 = DIRECTION ( 'NONE',  ( 1.000000000000000000, -0.0000000000000000000, 0.0000000000000000000 ) ) ;
#444 = ORIENTED_EDGE ( 'NONE', *, *, #912, .F. ) ;
#445 = EDGE_LOOP ( 'NONE', ( #402, #97, #1085, #548 ) ) ;
#446 = CARTESIAN_POINT ( 'NONE',  ( -1.899999999999999911, -4.199999999999997513, 0.0000000000000000000 ) ) ;
#447 = CARTESIAN_POINT ( 'NONE',  ( 1.899999999999999911, 4.199999999999999289, 0.0000000000000000000 ) ) ;
#448 = ADVANCED_FACE ( 'NONE', ( #614 ), #711, .T. ) ;
#449 = VECTOR ( 'NONE', #112, 1000.000000000000000 ) ;
#450 = AXIS2_PLACEMENT_3D ( 'NONE', #231, #645, #337 ) ;
#451 = CARTESIAN_POINT ( 'NONE',  ( 1.899999999999999911, 4.939527733499604167, -24.64519167589474691 ) ) ;
#452 = APPLICATION_CONTEXT ( 'automotive_design' ) ;
#453 = CARTESIAN_POINT ( 'NONE',  ( 1.899999999999999911, 5.199999999999999289, -1.000000000000000000 ) ) ;
#454 = ORIENTED_EDGE ( 'NONE', *, *, #629, .T. ) ;
#455 = PLANE ( 'NONE',  #425 ) ;
#456 = VECTOR ( 'NONE', #506, 1000.000000000000000 ) ;
#457 = VERTEX_POINT ( 'NONE', #1126 ) ;
#458 = EDGE_CURVE ( 'NONE', #1300, #340, #1025, .T. ) ;
#459 = LINE ( 'NONE', #1169, #389 ) ;
#460 = EDGE_CURVE ( 'NONE', #187, #647, #585, .T. ) ;
#461 = VERTEX_POINT ( 'NONE', #997 ) ;
#462 = DIRECTION ( 'NONE',  ( 0.0000000000000000000, 0.0000000000000000000, -1.000000000000000000 ) ) ;
#463 = ORIENTED_EDGE ( 'NONE', *, *, #11, .F. ) ;
#464 = FACE_OUTER_BOUND ( 'NONE', #567, .T. ) ;
#465 = ORIENTED_EDGE ( 'NONE', *, *, #691, .T. ) ;
#466 = CARTESIAN_POINT ( 'NONE',  ( 1.899999999999999911, 5.699999999999998401, -6.998286200706525406 ) ) ;
#467 = ORIENTED_EDGE ( 'NONE', *, *, #111, .T. ) ;
#468 = DIRECTION ( 'NONE',  ( -1.000000000000000000, 0.0000000000000000000, -0.0000000000000000000 ) ) ;
#469 = VECTOR ( 'NONE', #1136, 1000.000000000000000 ) ;
#470 = VECTOR ( 'NONE', #1128, 1000.000000000000000 ) ;
#471 = VERTEX_POINT ( 'NONE', #98 ) ;
#472 = LINE ( 'NONE', #874, #1118 ) ;
#473 = VECTOR ( 'NONE', #75, 1000.000000000000000 ) ;
#474 = DIRECTION ( 'NONE',  ( 0.0000000000000000000, 0.0000000000000000000, -1.000000000000000000 ) ) ;
#475 = CARTESIAN_POINT ( 'NONE',  ( -1.899999999999999911, 0.0000000000000000000, -1.000000000000000000 ) ) ;
#476 = DIRECTION ( 'NONE',  ( -1.000000000000000000, -0.0000000000000000000, -0.0000000000000000000 ) ) ;
#477 = ORIENTED_EDGE ( 'NONE', *, *, #1240, .F. ) ;
#478 = ORIENTED_EDGE ( 'NONE', *, *, #11, .T. ) ;
#479 = EDGE_CURVE ( 'NONE', #557, #761, #1324, .T. ) ;
#480 = EDGE_LOOP ( 'NONE', ( #578, #176, #170, #989 ) ) ;
#481 = CARTESIAN_POINT ( 'NONE',  ( 1.899999999999999911, 4.801740709630562876, -26.85710524580904490 ) ) ;
#482 = DIRECTION ( 'NONE',  ( 0.0000000000000000000, 0.0000000000000000000, 1.000000000000000000 ) ) ;
#483 = ORIENTED_EDGE ( 'NONE', *, *, #458, .F. ) ;
#484 = CARTESIAN_POINT ( 'NONE',  ( 1.899999999999999911, 5.499999999999999112, 0.0000000000000000000 ) ) ;
#485 = ORIENTED_EDGE ( 'NONE', *, *, #675, .F. ) ;
#486 = VERTEX_POINT ( 'NONE', #390 ) ;
#487 = PLANE ( 'NONE',  #508 ) ;
#488 = ORIENTED_EDGE ( 'NONE', *, *, #510, .T. ) ;
#489 = ADVANCED_FACE ( 'NONE', ( #1219 ), #696, .T. ) ;
#490 = DIRECTION ( 'NONE',  ( 0.0000000000000000000, 1.000000000000000000, 0.0000000000000000000 ) ) ;
#491 = FACE_OUTER_BOUND ( 'NONE', #1172, .T. ) ;
#492 = PRESENTATION_LAYER_ASSIGNMENT (  '', '', ( #297 ) ) ;
#493 = AXIS2_PLACEMENT_3D ( 'NONE', #1029, #822, #739 ) ;
#494 = DIRECTION ( 'NONE',  ( -0.7071067811865453523, 0.7071067811865496822, -0.0000000000000000000 ) ) ;
#495 = VECTOR ( 'NONE', #266, 1000.000000000000000 ) ;
#496 = EDGE_LOOP ( 'NONE', ( #1024, #659, #163, #844, #465, #679, #796, #1129, #261, #823, #48, #990, #583, #894, #970, #1043, #590, #888, #670, #606, #662, #1183, #1207 ) ) ;
#497 = ORIENTED_EDGE ( 'NONE', *, *, #1046, .T. ) ;
#498 = FACE_OUTER_BOUND ( 'NONE', #480, .T. ) ;
#499 = EDGE_CURVE ( 'NONE', #882, #78, #131, .T. ) ;
#500 = ADVANCED_FACE ( 'NONE', ( #229 ), #741, .F. ) ;
#501 = ORIENTED_EDGE ( 'NONE', *, *, #918, .T. ) ;
#502 = ORIENTED_EDGE ( 'NONE', *, *, #5, .F. ) ;
#503 = CARTESIAN_POINT ( 'NONE',  ( 1.899999999999999911, -5.200000000000001066, -1.000000000000000000 ) ) ;
#504 = UNCERTAINTY_MEASURE_WITH_UNIT (LENGTH_MEASURE( 1.000000000000000082E-05 ), #1096, 'distance_accuracy_value', 'NONE');
#505 = ORIENTED_EDGE ( 'NONE', *, *, #743, .F. ) ;
#506 = DIRECTION ( 'NONE',  ( -1.000000000000000000, -0.0000000000000000000, -0.0000000000000000000 ) ) ;
#507 = DIRECTION ( 'NONE',  ( 0.0000000000000000000, 0.0000000000000000000, -1.000000000000000000 ) ) ;
#508 = AXIS2_PLACEMENT_3D ( 'NONE', #795, #300, #784 ) ;
#509 = ORIENTED_EDGE ( 'NONE', *, *, #403, .T. ) ;
#510 = EDGE_CURVE ( 'NONE', #562, #308, #734, .T. ) ;
#511 = VECTOR ( 'NONE', #218, 1000.000000000000000 ) ;
#512 = CARTESIAN_POINT ( 'NONE',  ( 0.8999999999999960254, -5.200000000000001066, -1.000000000000000000 ) ) ;
#513 = LINE ( 'NONE', #1246, #217 ) ;
#514 = CARTESIAN_POINT ( 'NONE',  ( -1.899999999999999911, 6.699999999999999289, 1.056933639390316163E-15 ) ) ;
#515 = UNCERTAINTY_MEASURE_WITH_UNIT (LENGTH_MEASURE( 1.000000000000000082E-05 ), #1049, 'distance_accuracy_value', 'NONE');
#516 = CARTESIAN_POINT ( 'NONE',  ( -1.899999999999999911, 3.199999999999998845, 0.0000000000000000000 ) ) ;
#517 = ORIENTED_EDGE ( 'NONE', *, *, #169, .T. ) ;
#518 = CARTESIAN_POINT ( 'NONE',  ( 1.899999999999999911, 3.699999999999998845, -19.46798004637643587 ) ) ;
#519 = PLANE ( 'NONE',  #595 ) ;
#520 = DIRECTION ( 'NONE',  ( 0.0000000000000000000, -1.000000000000000000, 0.0000000000000000000 ) ) ;
#521 = CARTESIAN_POINT ( 'NONE',  ( -2.450000000000000178, 6.699999999999999289, -4.998286200706527183 ) ) ;
#522 = EDGE_LOOP ( 'NONE', ( #1236, #1061, #242, #1295 ) ) ;
#523 = PLANE ( 'NONE',  #1304 ) ;
#524 = EDGE_CURVE ( 'NONE', #298, #760, #536, .T. ) ;
#525 = DIRECTION ( 'NONE',  ( -1.000000000000000000, -0.0000000000000000000, -0.0000000000000000000 ) ) ;
#526 = DIRECTION ( 'NONE',  ( -1.000000000000000000, -0.0000000000000000000, -0.0000000000000000000 ) ) ;
#527 = ORIENTED_EDGE ( 'NONE', *, *, #605, .F. ) ;
#528 = CARTESIAN_POINT ( 'NONE',  ( 1.899999999999999911, 4.199999999999999289, -7.998286200706524518 ) ) ;
#529 = DIRECTION ( 'NONE',  ( 0.0000000000000000000, 0.0000000000000000000, 1.000000000000000000 ) ) ;
#530 = CARTESIAN_POINT ( 'NONE',  ( 1.899999999999999911, 4.699999999999999289, -6.998286200706525406 ) ) ;
#531 = CARTESIAN_POINT ( 'NONE',  ( 0.0000000000000000000, 0.0000000000000000000, 0.0000000000000000000 ) ) ;
#532 = DIRECTION ( 'NONE',  ( 0.0000000000000000000, 0.0000000000000000000, -1.000000000000000000 ) ) ;
#533 = CARTESIAN_POINT ( 'NONE',  ( 2.450000000000000178, 6.699999999999999289, -4.998286200706527183 ) ) ;
#534 = EDGE_CURVE ( 'NONE', #837, #566, #1044, .T. ) ;
#535 = ORIENTED_EDGE ( 'NONE', *, *, #691, .F. ) ;
#536 = LINE ( 'NONE', #1158, #641 ) ;
#537 = DIRECTION ( 'NONE',  ( 0.0000000000000000000, 1.000000000000000000, 0.0000000000000000000 ) ) ;
#538 = CARTESIAN_POINT ( 'NONE',  ( -2.450000000000000178, 5.699999999999998401, -4.998286200706527183 ) ) ;
#539 = LINE ( 'NONE', #252, #352 ) ;
#540 = ORIENTED_EDGE ( 'NONE', *, *, #1016, .F. ) ;
#541 = ADVANCED_FACE ( 'NONE', ( #123 ), #35, .F. ) ;
#542 = ORIENTED_EDGE ( 'NONE', *, *, #395, .T. ) ;
#543 = DIRECTION ( 'NONE',  ( 0.0000000000000000000, 0.0000000000000000000, -1.000000000000000000 ) ) ;
#544 = DIRECTION ( 'NONE',  ( 0.0000000000000000000, 0.0000000000000000000, 1.000000000000000000 ) ) ;
#545 = PLANE ( 'NONE',  #450 ) ;
#546 = ORIENTED_EDGE ( 'NONE', *, *, #611, .T. ) ;
#547 = PLANE ( 'NONE',  #914 ) ;
#548 = ORIENTED_EDGE ( 'NONE', *, *, #52, .T. ) ;
#549 = EDGE_CURVE ( 'NONE', #761, #1135, #721, .T. ) ;
#550 = CIRCLE ( 'NONE', #1139, 1.499999999999999334 ) ;
#551 = ADVANCED_FACE ( 'NONE', ( #628 ), #938, .F. ) ;
#552 = VECTOR ( 'NONE', #1107, 1000.000000000000000 ) ;
#553 = DIRECTION ( 'NONE',  ( 0.0000000000000000000, 0.0000000000000000000, -1.000000000000000000 ) ) ;
#554 =( GEOMETRIC_REPRESENTATION_CONTEXT ( 3 ) GLOBAL_UNCERTAINTY_ASSIGNED_CONTEXT ( ( #504 ) ) GLOBAL_UNIT_ASSIGNED_CONTEXT ( ( #1096, #1335, #1008 ) ) REPRESENTATION_CONTEXT ( 'NONE', 'WORKASPACE' ) );
#555 = SURFACE_SIDE_STYLE ('',( #442 ) ) ;
#556 = EDGE_LOOP ( 'NONE', ( #710, #483, #1275, #1332 ) ) ;
#557 = VERTEX_POINT ( 'NONE', #1277 ) ;
#558 = DIRECTION ( 'NONE',  ( -1.000000000000000000, -0.0000000000000000000, -0.0000000000000000000 ) ) ;
#559 = VERTEX_POINT ( 'NONE', #1166 ) ;
#560 = EDGE_CURVE ( 'NONE', #92, #471, #243, .T. ) ;
#561 = DIRECTION ( 'NONE',  ( 1.000000000000000000, -0.0000000000000000000, 0.0000000000000000000 ) ) ;
#562 = VERTEX_POINT ( 'NONE', #1063 ) ;
#563 = CARTESIAN_POINT ( 'NONE',  ( 1.899999999999999911, 4.699999999999999289, -6.998286200706525406 ) ) ;
#564 = ORIENTED_EDGE ( 'NONE', *, *, #1197, .T. ) ;
#565 = DIRECTION ( 'NONE',  ( 1.000000000000000000, -0.0000000000000000000, 0.0000000000000000000 ) ) ;
#566 = VERTEX_POINT ( 'NONE', #512 ) ;
#567 = EDGE_LOOP ( 'NONE', ( #542, #1053, #398, #1165, #1308, #339 ) ) ;
#568 = CARTESIAN_POINT ( 'NONE',  ( 1.899999999999999911, 5.767666535919633297, -26.59828620070652505 ) ) ;
#569 = VERTEX_POINT ( 'NONE', #414 ) ;
#570 = DIRECTION ( 'NONE',  ( -1.000000000000000000, -0.0000000000000000000, -0.0000000000000000000 ) ) ;
#571 = DIRECTION ( 'NONE',  ( 0.7071067811865502373, 0.7071067811865447972, -0.0000000000000000000 ) ) ;
#572 = VECTOR ( 'NONE', #537, 1000.000000000000000 ) ;
#573 = CIRCLE ( 'NONE', #879, 0.4999999999999993339 ) ;
#574 = ORIENTED_EDGE ( 'NONE', *, *, #1017, .T. ) ;
#575 = EDGE_CURVE ( 'NONE', #1076, #78, #321, .T. ) ;
#576 = EDGE_LOOP ( 'NONE', ( #843, #1069, #613, #599 ) ) ;
#577 = VECTOR ( 'NONE', #295, 1000.000000000000000 ) ;
#578 = ORIENTED_EDGE ( 'NONE', *, *, #846, .F. ) ;
#579 = DIRECTION ( 'NONE',  ( 0.0000000000000000000, 0.0000000000000000000, 1.000000000000000000 ) ) ;
#580 = FACE_OUTER_BOUND ( 'NONE', #694, .T. ) ;
#581 = PLANE ( 'NONE',  #1283 ) ;
#582 = ORIENTED_EDGE ( 'NONE', *, *, #1060, .T. ) ;
#583 = ORIENTED_EDGE ( 'NONE', *, *, #838, .F. ) ;
#584 = EDGE_CURVE ( 'NONE', #219, #1325, #149, .T. ) ;
#585 = LINE ( 'NONE', #592, #1184 ) ;
#586 = ORIENTED_EDGE ( 'NONE', *, *, #247, .T. ) ;
#587 = DIRECTION ( 'NONE',  ( 0.0000000000000000000, 0.0000000000000000000, -1.000000000000000000 ) ) ;
#588 = CARTESIAN_POINT ( 'NONE',  ( 2.450000000000000178, 5.699999999999998401, -4.998286200706527183 ) ) ;
#589 = DIRECTION ( 'NONE',  ( -1.000000000000000000, -0.0000000000000000000, -0.0000000000000000000 ) ) ;
#590 = ORIENTED_EDGE ( 'NONE', *, *, #319, .F. ) ;
#591 = ORIENTED_EDGE ( 'NONE', *, *, #575, .T. ) ;
#592 = CARTESIAN_POINT ( 'NONE',  ( -1.899999999999999911, 6.199999999999999289, 0.0000000000000000000 ) ) ;
#593 = EDGE_CURVE ( 'NONE', #557, #461, #420, .T. ) ;
#594 = EDGE_CURVE ( 'NONE', #866, #1144, #351, .T. ) ;
#595 = AXIS2_PLACEMENT_3D ( 'NONE', #1167, #544, #954 ) ;
#596 = VECTOR ( 'NONE', #494, 1000.000000000000000 ) ;
#597 = CARTESIAN_POINT ( 'NONE',  ( -2.450000000000000178, 2.649999999999997691, -3.998286200706527183 ) ) ;
#598 = AXIS2_PLACEMENT_3D ( 'NONE', #1221, #565, #689 ) ;
#599 = ORIENTED_EDGE ( 'NONE', *, *, #560, .T. ) ;
#600 = ORIENTED_EDGE ( 'NONE', *, *, #684, .T. ) ;
#601 = DIRECTION ( 'NONE',  ( -0.0000000000000000000, -0.0000000000000000000, 1.000000000000000000 ) ) ;
#602 = VECTOR ( 'NONE', #240, 1000.000000000000000 ) ;
#603 = DIRECTION ( 'NONE',  ( 0.0000000000000000000, -0.1736481776669300536, -0.9848077530122081313 ) ) ;
#604 = AXIS2_PLACEMENT_3D ( 'NONE', #636, #1152, #440 ) ;
#605 = EDGE_CURVE ( 'NONE', #350, #153, #772, .T. ) ;
#606 = ORIENTED_EDGE ( 'NONE', *, *, #41, .F. ) ;
#607 = CARTESIAN_POINT ( 'NONE',  ( 1.899999999999999911, 4.199999999999999289, -9.998286200706527183 ) ) ;
#608 = VERTEX_POINT ( 'NONE', #466 ) ;
#609 = SURFACE_SIDE_STYLE ('',( #103 ) ) ;
#610 = LINE ( 'NONE', #1015, #1098 ) ;
#611 = EDGE_CURVE ( 'NONE', #437, #1076, #472, .T. ) ;
#612 = CARTESIAN_POINT ( 'NONE',  ( 1.899999999999999911, -4.200000000000003730, -1.000000000000000000 ) ) ;
#613 = ORIENTED_EDGE ( 'NONE', *, *, #20, .F. ) ;
#614 = FACE_OUTER_BOUND ( 'NONE', #1321, .T. ) ;
#615 = LINE ( 'NONE', #588, #1192 ) ;
#616 = LINE ( 'NONE', #821, #1014 ) ;
#617 = CARTESIAN_POINT ( 'NONE',  ( -1.899999999999999911, 3.199999999999998845, -9.998286200706527183 ) ) ;
#618 = VECTOR ( 'NONE', #601, 1000.000000000000000 ) ;
#619 = EDGE_LOOP ( 'NONE', ( #927, #574, #702, #372, #1062, #1115 ) ) ;
#620 = PRODUCT ( '21847B7C-95AA-4073-833D-5A482201C104', '21847B7C-95AA-4073-833D-5A482201C104', '', ( #1294 ) ) ;
#621 = AXIS2_PLACEMENT_3D ( 'NONE', #1042, #99, #121 ) ;
#622 = ADVANCED_FACE ( 'NONE', ( #678 ), #547, .T. ) ;
#623 = DIRECTION ( 'NONE',  ( -1.000000000000000000, -0.0000000000000000000, -0.0000000000000000000 ) ) ;
#624 = CARTESIAN_POINT ( 'NONE',  ( 1.899999999999999911, 3.199999999999998845, -9.998286200706527183 ) ) ;
#625 = CARTESIAN_POINT ( 'NONE',  ( 1.899999999999999911, 6.199999999999999289, 0.0000000000000000000 ) ) ;
#626 = LINE ( 'NONE', #516, #323 ) ;
#627 = ORIENTED_EDGE ( 'NONE', *, *, #871, .F. ) ;
#628 = FACE_OUTER_BOUND ( 'NONE', #1337, .T. ) ;
#629 = EDGE_CURVE ( 'NONE', #837, #457, #952, .T. ) ;
#630 = CARTESIAN_POINT ( 'NONE',  ( -1.899999999999999911, 0.0000000000000000000, 0.0000000000000000000 ) ) ;
#631 = LINE ( 'NONE', #1320, #983 ) ;
#632 = CARTESIAN_POINT ( 'NONE',  ( -1.899999999999999911, 5.199999999999999289, 0.0000000000000000000 ) ) ;
#633 = ORIENTED_EDGE ( 'NONE', *, *, #499, .T. ) ;
#634 = DIRECTION ( 'NONE',  ( 0.0000000000000000000, -0.2588190451025146888, 0.9659258262890699775 ) ) ;
#635 = EDGE_CURVE ( 'NONE', #207, #647, #55, .T. ) ;
#636 = CARTESIAN_POINT ( 'NONE',  ( 1.899999999999999911, 4.199999999999999289, -9.998286200706527183 ) ) ;
#637 = EDGE_CURVE ( 'NONE', #288, #945, #958, .T. ) ;
#638 = CARTESIAN_POINT ( 'NONE',  ( -0.9000000000000025757, -5.200000000000001066, 0.0000000000000000000 ) ) ;
#639 = CARTESIAN_POINT ( 'NONE',  ( 2.450000000000000178, 6.699999999999999289, -3.998286200706527183 ) ) ;
#640 = ORIENTED_EDGE ( 'NONE', *, *, #303, .F. ) ;
#641 = VECTOR ( 'NONE', #634, 1000.000000000000000 ) ;
#642 = CARTESIAN_POINT ( 'NONE',  ( 1.899999999999999911, 4.700000000000000178, -8.998286200706525406 ) ) ;
#643 = CIRCLE ( 'NONE', #493, 2.000000000000001776 ) ;
#644 = DIRECTION ( 'NONE',  ( 0.0000000000000000000, 0.0000000000000000000, -1.000000000000000000 ) ) ;
#645 = DIRECTION ( 'NONE',  ( 0.0000000000000000000, 0.0000000000000000000, 1.000000000000000000 ) ) ;
#646 = DIRECTION ( 'NONE',  ( -1.000000000000000000, -0.0000000000000000000, -0.0000000000000000000 ) ) ;
#647 = VERTEX_POINT ( 'NONE', #371 ) ;
#648 = AXIS2_PLACEMENT_3D ( 'NONE', #1137, #736, #722 ) ;
#649 = ORIENTED_EDGE ( 'NONE', *, *, #637, .F. ) ;
#650 = DIRECTION ( 'NONE',  ( -1.000000000000000000, -0.0000000000000000000, -0.0000000000000000000 ) ) ;
#651 = CARTESIAN_POINT ( 'NONE',  ( -1.899999999999999911, 4.801740709630562876, -26.85710524580904490 ) ) ;
#652 = CARTESIAN_POINT ( 'NONE',  ( 1.899999999999999911, 0.0000000000000000000, 0.0000000000000000000 ) ) ;
#653 = CARTESIAN_POINT ( 'NONE',  ( 1.899999999999999911, 6.699999999999999289, 1.056933639390316163E-15 ) ) ;
#654 = EDGE_CURVE ( 'NONE', #878, #852, #883, .T. ) ;
#655 = ORIENTED_EDGE ( 'NONE', *, *, #765, .T. ) ;
#656 = CARTESIAN_POINT ( 'NONE',  ( 1.899999999999999911, 6.199999999999999289, -27.50000000000000000 ) ) ;
#657 = VERTEX_POINT ( 'NONE', #672 ) ;
#658 = DIRECTION ( 'NONE',  ( 0.0000000000000000000, 0.0000000000000000000, -1.000000000000000000 ) ) ;
#659 = ORIENTED_EDGE ( 'NONE', *, *, #676, .T. ) ;
#660 = ORIENTED_EDGE ( 'NONE', *, *, #382, .F. ) ;
#661 = PLANE ( 'NONE',  #1235 ) ;
#662 = ORIENTED_EDGE ( 'NONE', *, *, #752, .F. ) ;
#663 = VECTOR ( 'NONE', #716, 1000.000000000000000 ) ;
#664 = AXIS2_PLACEMENT_3D ( 'NONE', #625, #277, #994 ) ;
#665 = CARTESIAN_POINT ( 'NONE',  ( -2.450000000000000178, 2.649999999999997691, -3.998286200706527183 ) ) ;
#666 = AXIS2_PLACEMENT_3D ( 'NONE', #210, #226, #1041 ) ;
#667 = ORIENTED_EDGE ( 'NONE', *, *, #733, .T. ) ;
#668 = DIRECTION ( 'NONE',  ( 0.0000000000000000000, 0.9848077530122081313, -0.1736481776669300259 ) ) ;
#669 = LINE ( 'NONE', #978, #1189 ) ;
#670 = ORIENTED_EDGE ( 'NONE', *, *, #1299, .F. ) ;
#671 = ORIENTED_EDGE ( 'NONE', *, *, #1309, .T. ) ;
#672 = CARTESIAN_POINT ( 'NONE',  ( -1.899999999999999911, 3.999999999999994227, -17.99828620070652718 ) ) ;
#673 = CARTESIAN_POINT ( 'NONE',  ( 1.899999999999999911, 0.0000000000000000000, -1.000000000000000000 ) ) ;
#674 = CARTESIAN_POINT ( 'NONE',  ( 1.899999999999999911, 5.767666535919633297, -26.59828620070652505 ) ) ;
#675 = EDGE_CURVE ( 'NONE', #241, #774, #853, .T. ) ;
#676 = EDGE_CURVE ( 'NONE', #608, #557, #276, .T. ) ;
#677 = EDGE_LOOP ( 'NONE', ( #996, #272, #967, #1089 ) ) ;
#678 = FACE_OUTER_BOUND ( 'NONE', #1314, .T. ) ;
#679 = ORIENTED_EDGE ( 'NONE', *, *, #704, .T. ) ;
#680 = DIRECTION ( 'NONE',  ( 1.000000000000000000, -0.0000000000000000000, 0.0000000000000000000 ) ) ;
#681 = CARTESIAN_POINT ( 'NONE',  ( -2.450000000000000178, 5.699999999999998401, -4.998286200706527183 ) ) ;
#682 = VECTOR ( 'NONE', #255, 1000.000000000000000 ) ;
#683 = AXIS2_PLACEMENT_3D ( 'NONE', #148, #553, #764 ) ;
#684 = EDGE_CURVE ( 'NONE', #340, #1108, #550, .T. ) ;
#685 = DIRECTION ( 'NONE',  ( 0.0000000000000000000, 0.0000000000000000000, -1.000000000000000000 ) ) ;
#686 = ORIENTED_EDGE ( 'NONE', *, *, #594, .F. ) ;
#687 = ORIENTED_EDGE ( 'NONE', *, *, #101, .T. ) ;
#688 = ORIENTED_EDGE ( 'NONE', *, *, #1016, .T. ) ;
#689 = DIRECTION ( 'NONE',  ( 0.0000000000000000000, 0.0000000000000000000, -1.000000000000000000 ) ) ;
#690 = LINE ( 'NONE', #1106, #966 ) ;
#691 = EDGE_CURVE ( 'NONE', #866, #991, #1187, .T. ) ;
#692 = DIRECTION ( 'NONE',  ( -1.000000000000000000, -0.0000000000000000000, -0.0000000000000000000 ) ) ;
#693 = ORIENTED_EDGE ( 'NONE', *, *, #311, .T. ) ;
#694 = EDGE_LOOP ( 'NONE', ( #463, #213, #203, #1333, #1243, #193, #546, #655, #748, #902 ) ) ;
#695 = ADVANCED_FACE ( 'NONE', ( #40 ), #455, .T. ) ;
#696 = PLANE ( 'NONE',  #44 ) ;
#697 = ORIENTED_EDGE ( 'NONE', *, *, #254, .T. ) ;
#698 = DIRECTION ( 'NONE',  ( 1.000000000000000000, 0.0000000000000000000, -0.0000000000000000000 ) ) ;
#699 = LINE ( 'NONE', #205, #754 ) ;
#700 = LINE ( 'NONE', #1035, #511 ) ;
#701 = EDGE_LOOP ( 'NONE', ( #1157, #328, #1224, #793 ) ) ;
#702 = ORIENTED_EDGE ( 'NONE', *, *, #1060, .F. ) ;
#703 = DIRECTION ( 'NONE',  ( 0.0000000000000000000, 0.0000000000000000000, -1.000000000000000000 ) ) ;
#704 = EDGE_CURVE ( 'NONE', #991, #219, #897, .T. ) ;
#705 = CARTESIAN_POINT ( 'NONE',  ( 1.899999999999999911, 0.0000000000000000000, 0.0000000000000000000 ) ) ;
#706 = VECTOR ( 'NONE', #432, 1000.000000000000000 ) ;
#707 = VECTOR ( 'NONE', #815, 1000.000000000000000 ) ;
#708 = ORIENTED_EDGE ( 'NONE', *, *, #146, .T. ) ;
#709 = CARTESIAN_POINT ( 'NONE',  ( 1.899999999999999911, 5.699999999999998401, -6.998286200706525406 ) ) ;
#710 = ORIENTED_EDGE ( 'NONE', *, *, #684, .F. ) ;
#711 = CYLINDRICAL_SURFACE ( 'NONE', #1298, 1.500000000000004885 ) ;
#712 = FACE_OUTER_BOUND ( 'NONE', #80, .T. ) ;
#713 = VECTOR ( 'NONE', #1270, 1000.000000000000000 ) ;
#714 = CARTESIAN_POINT ( 'NONE',  ( 1.899999999999999911, 2.199999999999998845, -9.998286200706527183 ) ) ;
#715 = EDGE_LOOP ( 'NONE', ( #206, #688, #233, #968 ) ) ;
#716 = DIRECTION ( 'NONE',  ( 0.0000000000000000000, 0.0000000000000000000, 1.000000000000000000 ) ) ;
#717 = CARTESIAN_POINT ( 'NONE',  ( 1.899999999999999911, 7.027320169885485690, -25.01332581254863641 ) ) ;
#718 = ADVANCED_FACE ( 'NONE', ( #1194 ), #661, .F. ) ;
#719 = DIRECTION ( 'NONE',  ( 0.0000000000000000000, 0.0000000000000000000, -1.000000000000000000 ) ) ;
#720 = VERTEX_POINT ( 'NONE', #446 ) ;
#721 = LINE ( 'NONE', #528, #406 ) ;
#722 = DIRECTION ( 'NONE',  ( 0.0000000000000000000, 0.0000000000000000000, 1.000000000000000000 ) ) ;
#723 = CARTESIAN_POINT ( 'NONE',  ( 1.899999999999999911, 7.027320169885485690, -25.01332581254863641 ) ) ;
#724 = CARTESIAN_POINT ( 'NONE',  ( 1.899999999999999911, 5.499999999999999112, -26.48359554925036363 ) ) ;
#725 = ORIENTED_EDGE ( 'NONE', *, *, #933, .T. ) ;
#726 = CIRCLE ( 'NONE', #832, 1.000000000000000888 ) ;
#727 = CARTESIAN_POINT ( 'NONE',  ( -1.899999999999999911, 4.699999999999999289, -6.998286200706525406 ) ) ;
#728 = LINE ( 'NONE', #1055, #1252 ) ;
#729 = CARTESIAN_POINT ( 'NONE',  ( -1.899999999999999911, 3.799999999999987832, -18.97808209781980082 ) ) ;
#730 = CARTESIAN_POINT ( 'NONE',  ( 1.899999999999999911, 3.999999999999994227, -17.99828620070652718 ) ) ;
#731 = CARTESIAN_POINT ( 'NONE',  ( -1.899999999999999911, 4.284102619425532943, -24.92525359323090228 ) ) ;
#732 = VERTEX_POINT ( 'NONE', #367 ) ;
#733 = EDGE_CURVE ( 'NONE', #207, #1302, #126, .T. ) ;
#734 = LINE ( 'NONE', #1244, #469 ) ;
#735 = EDGE_CURVE ( 'NONE', #945, #201, #299, .T. ) ;
#736 = DIRECTION ( 'NONE',  ( -1.000000000000000000, -0.0000000000000000000, -0.0000000000000000000 ) ) ;
#737 = FACE_OUTER_BOUND ( 'NONE', #756, .T. ) ;
#738 = CARTESIAN_POINT ( 'NONE',  ( 1.899999999999999911, 5.199999999999999289, -23.16798004637643515 ) ) ;
#739 = DIRECTION ( 'NONE',  ( 0.0000000000000000000, 0.0000000000000000000, -1.000000000000000000 ) ) ;
#740 = EDGE_LOOP ( 'NONE', ( #875, #1217, #1013, #633 ) ) ;
#741 = PLANE ( 'NONE',  #85 ) ;
#742 = CARTESIAN_POINT ( 'NONE',  ( -1.899999999999999911, 3.199999999999998845, -17.01849030359326065 ) ) ;
#743 = EDGE_CURVE ( 'NONE', #608, #569, #152, .T. ) ;
#744 = CARTESIAN_POINT ( 'NONE',  ( 2.450000000000000178, 6.699999999999999289, -3.998286200706527183 ) ) ;
#745 = DIRECTION ( 'NONE',  ( -1.000000000000000000, -0.0000000000000000000, -0.0000000000000000000 ) ) ;
#746 = ORIENTED_EDGE ( 'NONE', *, *, #162, .T. ) ;
#747 = VECTOR ( 'NONE', #140, 1000.000000000000000 ) ;
#748 = ORIENTED_EDGE ( 'NONE', *, *, #382, .T. ) ;
#749 = AXIS2_PLACEMENT_3D ( 'NONE', #1040, #285, #1140 ) ;
#750 = LINE ( 'NONE', #939, #125 ) ;
#751 = COLOUR_RGB ( '',0.7921568627450980005, 0.8196078431372548767, 0.9333333333333333481 ) ;
#752 = EDGE_CURVE ( 'NONE', #256, #334, #1028, .T. ) ;
#753 = CARTESIAN_POINT ( 'NONE',  ( 1.899999999999999911, 3.699999999999998845, -19.46798004637643587 ) ) ;
#754 = VECTOR ( 'NONE', #416, 1000.000000000000000 ) ;
#755 = LINE ( 'NONE', #1092, #813 ) ;
#756 = EDGE_LOOP ( 'NONE', ( #984, #1100, #366, #195 ) ) ;
#757 = ORIENTED_EDGE ( 'NONE', *, *, #560, .F. ) ;
#758 = DIRECTION ( 'NONE',  ( 0.0000000000000000000, 1.000000000000000000, 0.0000000000000000000 ) ) ;
#759 = DIRECTION ( 'NONE',  ( 0.9642053928037903621, 0.0000000000000000000, -0.2651564830210425550 ) ) ;
#760 = VERTEX_POINT ( 'NONE', #731 ) ;
#761 = VERTEX_POINT ( 'NONE', #1036 ) ;
#762 = DIRECTION ( 'NONE',  ( 0.0000000000000000000, 0.0000000000000000000, -1.000000000000000000 ) ) ;
#763 = ORIENTED_EDGE ( 'NONE', *, *, #345, .T. ) ;
#764 = DIRECTION ( 'NONE',  ( -1.000000000000000000, 0.0000000000000000000, -0.0000000000000000000 ) ) ;
#765 = EDGE_CURVE ( 'NONE', #1076, #785, #412, .T. ) ;
#766 = ORIENTED_EDGE ( 'NONE', *, *, #1132, .F. ) ;
#767 = CARTESIAN_POINT ( 'NONE',  ( -1.899999999999999911, 5.199999999999999289, -1.499999999999998890 ) ) ;
#768 = VECTOR ( 'NONE', #806, 1000.000000000000000 ) ;
#769 = VECTOR ( 'NONE', #973, 1000.000000000000000 ) ;
#770 = DIRECTION ( 'NONE',  ( 0.0000000000000000000, 0.0000000000000000000, -1.000000000000000000 ) ) ;
#771 = AXIS2_PLACEMENT_3D ( 'NONE', #1059, #759, #136 ) ;
#772 = LINE ( 'NONE', #49, #747 ) ;
#773 = CIRCLE ( 'NONE', #133, 0.4999999999999993339 ) ;
#774 = VERTEX_POINT ( 'NONE', #533 ) ;
#775 = LINE ( 'NONE', #1196, #876 ) ;
#776 = CARTESIAN_POINT ( 'NONE',  ( 1.899999999999999911, 7.761435594066186106, -23.99350503086185071 ) ) ;
#777 = ORIENTED_EDGE ( 'NONE', *, *, #593, .F. ) ;
#778 = CARTESIAN_POINT ( 'NONE',  ( -1.899999999999999911, 3.699999999999998845, -19.46798004637643587 ) ) ;
#779 = CARTESIAN_POINT ( 'NONE',  ( 1.899999999999999911, 3.199999999999998845, 0.0000000000000000000 ) ) ;
#780 = CARTESIAN_POINT ( 'NONE',  ( 1.899999999999999911, 3.999999999999994227, -17.99828620070652718 ) ) ;
#781 = CARTESIAN_POINT ( 'NONE',  ( -1.899999999999999911, 4.199999999999999289, -17.01849030359326065 ) ) ;
#782 = ORIENTED_EDGE ( 'NONE', *, *, #101, .F. ) ;
#783 = ORIENTED_EDGE ( 'NONE', *, *, #1317, .F. ) ;
#784 = DIRECTION ( 'NONE',  ( 0.0000000000000000000, -0.0000000000000000000, 1.000000000000000000 ) ) ;
#785 = VERTEX_POINT ( 'NONE', #521 ) ;
#786 = FACE_OUTER_BOUND ( 'NONE', #361, .T. ) ;
#787 = VECTOR ( 'NONE', #222, 1000.000000000000000 ) ;
#788 = EDGE_CURVE ( 'NONE', #831, #907, #423, .T. ) ;
#789 = AXIS2_PLACEMENT_3D ( 'NONE', #842, #1023, #507 ) ;
#790 = AXIS2_PLACEMENT_3D ( 'NONE', #753, #985, #1000 ) ;
#791 = EDGE_CURVE ( 'NONE', #559, #760, #1134, .T. ) ;
#792 = DIRECTION ( 'NONE',  ( -0.0000000000000000000, 1.000000000000000000, 0.0000000000000000000 ) ) ;
#793 = ORIENTED_EDGE ( 'NONE', *, *, #1111, .T. ) ;
#794 = ORIENTED_EDGE ( 'NONE', *, *, #1329, .F. ) ;
#795 = CARTESIAN_POINT ( 'NONE',  ( 1.899999999999999911, 5.199999999999999289, 0.0000000000000000000 ) ) ;
#796 = ORIENTED_EDGE ( 'NONE', *, *, #584, .T. ) ;
#797 = CARTESIAN_POINT ( 'NONE',  ( 0.8999999999999956923, -5.200000000000001066, 0.0000000000000000000 ) ) ;
#798 = CARTESIAN_POINT ( 'NONE',  ( 1.899999999999999911, 3.799999999999987832, -18.97808209781980082 ) ) ;
#799 = CARTESIAN_POINT ( 'NONE',  ( 1.899999999999999911, 6.199999999999999289, -26.75000000000000000 ) ) ;
#800 = EDGE_LOOP ( 'NONE', ( #1220, #517, #1021, #564, #505, #697, #509, #39, #929, #1316 ) ) ;
#801 = ORIENTED_EDGE ( 'NONE', *, *, #41, .T. ) ;
#802 = LINE ( 'NONE', #282, #1048 ) ;
#803 = CARTESIAN_POINT ( 'NONE',  ( 1.899999999999999911, 5.199999999999999289, -1.499999999999998890 ) ) ;
#804 = ORIENTED_EDGE ( 'NONE', *, *, #179, .F. ) ;
#805 = ORIENTED_EDGE ( 'NONE', *, *, #1330, .F. ) ;
#806 = DIRECTION ( 'NONE',  ( -1.000000000000000000, -0.0000000000000000000, -0.0000000000000000000 ) ) ;
#807 = PLANE ( 'NONE',  #835 ) ;
#808 = VECTOR ( 'NONE', #650, 1000.000000000000000 ) ;
#809 = AXIS2_PLACEMENT_3D ( 'NONE', #12, #525, #1331 ) ;
#810 = AXIS2_PLACEMENT_3D ( 'NONE', #776, #392, #579 ) ;
#811 = ORIENTED_EDGE ( 'NONE', *, *, #128, .F. ) ;
#812 = CARTESIAN_POINT ( 'NONE',  ( 1.899999999999999911, 0.0000000000000000000, -7.998286200706524518 ) ) ;
#813 = VECTOR ( 'NONE', #646, 1000.000000000000000 ) ;
#814 = CARTESIAN_POINT ( 'NONE',  ( -1.899999999999999911, 4.939527733499604167, -24.64519167589474691 ) ) ;
#815 = DIRECTION ( 'NONE',  ( 0.0000000000000000000, 0.0000000000000000000, -1.000000000000000000 ) ) ;
#816 = VERTEX_POINT ( 'NONE', #1242 ) ;
#817 = DIRECTION ( 'NONE',  ( -1.000000000000000000, 0.0000000000000000000, -0.0000000000000000000 ) ) ;
#818 = FACE_OUTER_BOUND ( 'NONE', #86, .T. ) ;
#819 = EDGE_CURVE ( 'NONE', #26, #1083, #14, .T. ) ;
#820 = LINE ( 'NONE', #892, #596 ) ;
#821 = CARTESIAN_POINT ( 'NONE',  ( -1.899999999999999911, 5.499999999999999112, 0.0000000000000000000 ) ) ;
#822 = DIRECTION ( 'NONE',  ( 1.000000000000000000, -0.0000000000000000000, 0.0000000000000000000 ) ) ;
#823 = ORIENTED_EDGE ( 'NONE', *, *, #373, .F. ) ;
#824 = CARTESIAN_POINT ( 'NONE',  ( -1.899999999999999911, 0.0000000000000000000, 0.0000000000000000000 ) ) ;
#825 = FACE_OUTER_BOUND ( 'NONE', #1267, .T. ) ;
#826 = EDGE_CURVE ( 'NONE', #219, #945, #227, .T. ) ;
#827 = AXIS2_PLACEMENT_3D ( 'NONE', #877, #154, #474 ) ;
#828 = DIRECTION ( 'NONE',  ( 0.0000000000000000000, 1.577512894612412217E-16, -1.000000000000000000 ) ) ;
#829 = DIRECTION ( 'NONE',  ( -1.000000000000000000, -0.0000000000000000000, -0.0000000000000000000 ) ) ;
#830 = EDGE_CURVE ( 'NONE', #608, #437, #1274, .T. ) ;
#831 = VERTEX_POINT ( 'NONE', #724 ) ;
#832 = AXIS2_PLACEMENT_3D ( 'NONE', #257, #561, #941 ) ;
#833 = DIRECTION ( 'NONE',  ( 0.0000000000000000000, 0.0000000000000000000, -1.000000000000000000 ) ) ;
#834 = DIRECTION ( 'NONE',  ( -1.000000000000000000, 0.0000000000000000000, -0.0000000000000000000 ) ) ;
#835 = AXIS2_PLACEMENT_3D ( 'NONE', #1328, #1336, #399 ) ;
#836 = CARTESIAN_POINT ( 'NONE',  ( 1.899999999999999911, 5.699999999999998401, 0.0000000000000000000 ) ) ;
#837 = VERTEX_POINT ( 'NONE', #612 ) ;
#838 = EDGE_CURVE ( 'NONE', #907, #936, #2, .T. ) ;
#839 = FACE_OUTER_BOUND ( 'NONE', #1110, .T. ) ;
#840 = DIRECTION ( 'NONE',  ( 1.000000000000000000, 0.0000000000000000000, -0.0000000000000000000 ) ) ;
#841 = CARTESIAN_POINT ( 'NONE',  ( 1.899999999999999911, 3.699999999999998845, -19.46798004637643587 ) ) ;
#842 = CARTESIAN_POINT ( 'NONE',  ( -1.899999999999999911, 7.027320169885485690, -25.01332581254863641 ) ) ;
#843 = ORIENTED_EDGE ( 'NONE', *, *, #1342, .T. ) ;
#844 = ORIENTED_EDGE ( 'NONE', *, *, #128, .T. ) ;
#845 = CARTESIAN_POINT ( 'NONE',  ( 1.899999999999999911, 2.199999999999998845, 0.0000000000000000000 ) ) ;
#846 = EDGE_CURVE ( 'NONE', #732, #1073, #921, .T. ) ;
#847 = DIRECTION ( 'NONE',  ( 0.0000000000000000000, -0.0000000000000000000, 1.000000000000000000 ) ) ;
#848 = DIRECTION ( 'NONE',  ( 1.000000000000000000, -0.0000000000000000000, 0.0000000000000000000 ) ) ;
#849 =( NAMED_UNIT ( * ) PLANE_ANGLE_UNIT ( ) SI_UNIT ( $, .RADIAN. ) );
#850 = DIRECTION ( 'NONE',  ( 0.0000000000000000000, -0.0000000000000000000, 1.000000000000000000 ) ) ;
#851 = VECTOR ( 'NONE', #362, 1000.000000000000000 ) ;
#852 = VERTEX_POINT ( 'NONE', #312 ) ;
#853 = LINE ( 'NONE', #867, #851 ) ;
#854 = VECTOR ( 'NONE', #758, 1000.000000000000000 ) ;
#855 = CYLINDRICAL_SURFACE ( 'NONE', #604, 2.000000000000001776 ) ;
#856 = CIRCLE ( 'NONE', #281, 3.599999999999999201 ) ;
#857 = PRODUCT_RELATED_PRODUCT_CATEGORY ( 'part', '', ( #620 ) ) ;
#858 = EDGE_CURVE ( 'NONE', #1135, #1144, #643, .T. ) ;
#859 = FACE_OUTER_BOUND ( 'NONE', #496, .T. ) ;
#860 = LINE ( 'NONE', #1163, #602 ) ;
#861 = ORIENTED_EDGE ( 'NONE', *, *, #791, .T. ) ;
#862 = CARTESIAN_POINT ( 'NONE',  ( 1.899999999999999911, 4.199999999999999289, -17.01849030359326065 ) ) ;
#863 = VERTEX_POINT ( 'NONE', #24 ) ;
#864 = CARTESIAN_POINT ( 'NONE',  ( -1.899999999999999911, 5.499999999999999112, -26.75000000000000000 ) ) ;
#865 = ADVANCED_FACE ( 'NONE', ( #212 ), #944, .T. ) ;
#866 = VERTEX_POINT ( 'NONE', #714 ) ;
#867 = CARTESIAN_POINT ( 'NONE',  ( 2.450000000000000178, 2.649999999999997691, -4.998286200706527183 ) ) ;
#868 = ORIENTED_EDGE ( 'NONE', *, *, #524, .T. ) ;
#869 = DIRECTION ( 'NONE',  ( -1.000000000000000000, -0.0000000000000000000, -0.0000000000000000000 ) ) ;
#870 = CARTESIAN_POINT ( 'NONE',  ( -1.899999999999999911, 7.761435594066186106, -23.99350503086185071 ) ) ;
#871 = EDGE_CURVE ( 'NONE', #991, #288, #1156, .T. ) ;
#872 = EDGE_CURVE ( 'NONE', #1313, #63, #32, .T. ) ;
#873 = ORIENTED_EDGE ( 'NONE', *, *, #102, .T. ) ;
#874 = CARTESIAN_POINT ( 'NONE',  ( 1.899999999999999911, 6.700000000000000178, -6.998286200706525406 ) ) ;
#875 = ORIENTED_EDGE ( 'NONE', *, *, #575, .F. ) ;
#876 = VECTOR ( 'NONE', #1090, 1000.000000000000000 ) ;
#877 = CARTESIAN_POINT ( 'NONE',  ( 1.899999999999999911, 0.0000000000000000000, 0.0000000000000000000 ) ) ;
#878 = VERTEX_POINT ( 'NONE', #107 ) ;
#879 = AXIS2_PLACEMENT_3D ( 'NONE', #289, #468, #770 ) ;
#880 = LINE ( 'NONE', #890, #21 ) ;
#881 = VECTOR ( 'NONE', #532, 1000.000000000000000 ) ;
#882 = VERTEX_POINT ( 'NONE', #436 ) ;
#883 = LINE ( 'NONE', #1292, #104 ) ;
#884 = VECTOR ( 'NONE', #931, 1000.000000000000000 ) ;
#885 = EDGE_LOOP ( 'NONE', ( #292, #627, #535, #130 ) ) ;
#886 = DIRECTION ( 'NONE',  ( 0.0000000000000000000, 0.0000000000000000000, -1.000000000000000000 ) ) ;
#887 = CARTESIAN_POINT ( 'NONE',  ( -1.899999999999999911, 4.199999999999999289, -8.998286200706525406 ) ) ;
#888 = ORIENTED_EDGE ( 'NONE', *, *, #90, .F. ) ;
#889 = EDGE_CURVE ( 'NONE', #1195, #774, #318, .T. ) ;
#890 = CARTESIAN_POINT ( 'NONE',  ( -0.9000000000000025757, -5.200000000000001066, 0.0000000000000000000 ) ) ;
#891 = DIRECTION ( 'NONE',  ( -1.000000000000000000, 0.0000000000000000000, -0.0000000000000000000 ) ) ;
#892 = CARTESIAN_POINT ( 'NONE',  ( -0.9000000000000025757, -5.200000000000001066, -1.000000000000000000 ) ) ;
#893 = ORIENTED_EDGE ( 'NONE', *, *, #96, .F. ) ;
#894 = ORIENTED_EDGE ( 'NONE', *, *, #788, .F. ) ;
#895 = DIRECTION ( 'NONE',  ( -1.000000000000000000, -0.0000000000000000000, -0.0000000000000000000 ) ) ;
#896 = VERTEX_POINT ( 'NONE', #333 ) ;
#897 = CIRCLE ( 'NONE', #196, 2.000000000000001776 ) ;
#898 = LINE ( 'NONE', #380, #495 ) ;
#899 = DIRECTION ( 'NONE',  ( 0.0000000000000000000, 0.0000000000000000000, -1.000000000000000000 ) ) ;
#900 = VECTOR ( 'NONE', #829, 1000.000000000000000 ) ;
#901 = LINE ( 'NONE', #119, #1121 ) ;
#902 = ORIENTED_EDGE ( 'NONE', *, *, #335, .T. ) ;
#903 = ORIENTED_EDGE ( 'NONE', *, *, #415, .T. ) ;
#904 = PRESENTATION_STYLE_ASSIGNMENT (( #1227 ) ) ;
#905 = APPLICATION_CONTEXT ( 'automotive_design' ) ;
#906 = CARTESIAN_POINT ( 'NONE',  ( -1.899999999999999911, 5.699999999999998401, 0.0000000000000000000 ) ) ;
#907 = VERTEX_POINT ( 'NONE', #1051 ) ;
#908 = ORIENTED_EDGE ( 'NONE', *, *, #329, .T. ) ;
#909 = PLANE ( 'NONE',  #1233 ) ;
#910 = CARTESIAN_POINT ( 'NONE',  ( 1.899999999999999911, 5.699999999999998401, -1.499999999999998890 ) ) ;
#911 = VERTEX_POINT ( 'NONE', #617 ) ;
#912 = EDGE_CURVE ( 'NONE', #166, #100, #1095, .T. ) ;
#913 =( NAMED_UNIT ( * ) SI_UNIT ( $, .STERADIAN. ) SOLID_ANGLE_UNIT ( ) );
#914 = AXIS2_PLACEMENT_3D ( 'NONE', #61, #668, #249 ) ;
#915 = AXIS2_PLACEMENT_3D ( 'NONE', #484, #792, #192 ) ;
#916 = CARTESIAN_POINT ( 'NONE',  ( 1.899999999999999911, 9.005158742057306043, -1.587852451787400199 ) ) ;
#917 = ORIENTED_EDGE ( 'NONE', *, *, #872, .T. ) ;
#918 = EDGE_CURVE ( 'NONE', #911, #308, #626, .T. ) ;
#919 = DIRECTION ( 'NONE',  ( -1.000000000000000000, -0.0000000000000000000, -0.0000000000000000000 ) ) ;
#920 = LINE ( 'NONE', #1114, #18 ) ;
#921 = LINE ( 'NONE', #632, #707 ) ;
#922 = ORIENTED_EDGE ( 'NONE', *, *, #826, .F. ) ;
#923 = ADVANCED_FACE ( 'NONE', ( #1248 ), #6, .T. ) ;
#924 = LINE ( 'NONE', #230, #713 ) ;
#925 = EDGE_CURVE ( 'NONE', #1339, #1276, #820, .T. ) ;
#926 = PLANE ( 'NONE',  #915 ) ;
#927 = ORIENTED_EDGE ( 'NONE', *, *, #1256, .F. ) ;
#928 = DIRECTION ( 'NONE',  ( -1.000000000000000000, -0.0000000000000000000, -0.0000000000000000000 ) ) ;
#929 = ORIENTED_EDGE ( 'NONE', *, *, #872, .F. ) ;
#930 = DIRECTION ( 'NONE',  ( 0.0000000000000000000, -0.0000000000000000000, 1.000000000000000000 ) ) ;
#931 = DIRECTION ( 'NONE',  ( 0.0000000000000000000, 0.0000000000000000000, -1.000000000000000000 ) ) ;
#932 = CARTESIAN_POINT ( 'NONE',  ( 1.899999999999999911, 6.699999999999999289, -1.499999999999998890 ) ) ;
#933 = EDGE_CURVE ( 'NONE', #1083, #166, #83, .T. ) ;
#934 = CARTESIAN_POINT ( 'NONE',  ( 1.899999999999999911, 4.699999999999999289, -6.998286200706525406 ) ) ;
#935 = CARTESIAN_POINT ( 'NONE',  ( 1.899999999999999911, 4.284102619425532943, -24.92525359323090228 ) ) ;
#936 = VERTEX_POINT ( 'NONE', #799 ) ;
#937 = MECHANICAL_DESIGN_GEOMETRIC_PRESENTATION_REPRESENTATION (  '', ( #347 ), #365 ) ;
#938 = CYLINDRICAL_SURFACE ( 'NONE', #363, 0.9999999999999974465 ) ;
#939 = CARTESIAN_POINT ( 'NONE',  ( -1.899999999999999911, 0.0000000000000000000, -26.75000000000000000 ) ) ;
#940 = CIRCLE ( 'NONE', #132, 2.000000000000001776 ) ;
#941 = DIRECTION ( 'NONE',  ( 0.0000000000000000000, 0.0000000000000000000, -1.000000000000000000 ) ) ;
#942 = AXIS2_PLACEMENT_3D ( 'NONE', #216, #342, #529 ) ;
#943 = DIRECTION ( 'NONE',  ( -0.0000000000000000000, 1.000000000000000000, 1.577512894612412217E-16 ) ) ;
#944 = PLANE ( 'NONE',  #621 ) ;
#945 = VERTEX_POINT ( 'NONE', #729 ) ;
#946 = DIRECTION ( 'NONE',  ( 0.0000000000000000000, 0.0000000000000000000, 1.000000000000000000 ) ) ;
#947 = FACE_OUTER_BOUND ( 'NONE', #619, .T. ) ;
#948 = LINE ( 'NONE', #665, #854 ) ;
#949 = CYLINDRICAL_SURFACE ( 'NONE', #1287, 1.000000000000000888 ) ;
#950 = ORIENTED_EDGE ( 'NONE', *, *, #953, .T. ) ;
#951 = ORIENTED_EDGE ( 'NONE', *, *, #460, .F. ) ;
#952 = LINE ( 'NONE', #1296, #1280 ) ;
#953 = EDGE_CURVE ( 'NONE', #78, #139, #920, .T. ) ;
#954 = DIRECTION ( 'NONE',  ( 1.000000000000000000, 0.0000000000000000000, -0.0000000000000000000 ) ) ;
#955 = DIRECTION ( 'NONE',  ( -1.000000000000000000, -0.0000000000000000000, -0.0000000000000000000 ) ) ;
#956 = SURFACE_STYLE_USAGE ( .BOTH. , #555 ) ;
#957 = DIRECTION ( 'NONE',  ( -1.000000000000000000, 0.0000000000000000000, -0.0000000000000000000 ) ) ;
#958 = CIRCLE ( 'NONE', #258, 2.000000000000001776 ) ;
#959 = ORIENTED_EDGE ( 'NONE', *, *, #735, .F. ) ;
#960 = CARTESIAN_POINT ( 'NONE',  ( 1.899999999999999911, 2.199999999999998845, 0.0000000000000000000 ) ) ;
#961 = ORIENTED_EDGE ( 'NONE', *, *, #137, .T. ) ;
#962 = CIRCLE ( 'NONE', #749, 1.000000000000000888 ) ;
#963 = VECTOR ( 'NONE', #570, 1000.000000000000000 ) ;
#964 = EDGE_CURVE ( 'NONE', #1325, #92, #1216, .T. ) ;
#965 = CARTESIAN_POINT ( 'NONE',  ( -1.899999999999999911, 5.699999999999998401, -1.499999999999998890 ) ) ;
#966 = VECTOR ( 'NONE', #1345, 1000.000000000000000 ) ;
#967 = ORIENTED_EDGE ( 'NONE', *, *, #479, .F. ) ;
#968 = ORIENTED_EDGE ( 'NONE', *, *, #155, .F. ) ;
#969 = CARTESIAN_POINT ( 'NONE',  ( 1.899999999999999911, 2.199999999999998845, -9.998286200706527183 ) ) ;
#970 = ORIENTED_EDGE ( 'NONE', *, *, #247, .F. ) ;
#971 = LINE ( 'NONE', #57, #1074 ) ;
#972 = ADVANCED_FACE ( 'NONE', ( #825 ), #926, .T. ) ;
#973 = DIRECTION ( 'NONE',  ( 0.0000000000000000000, 1.577512894612412217E-16, -1.000000000000000000 ) ) ;
#974 = EDGE_CURVE ( 'NONE', #907, #1193, #901, .T. ) ;
#975 = EDGE_LOOP ( 'NONE', ( #582, #1186, #70, #388 ) ) ;
#976 = DIRECTION ( 'NONE',  ( 0.0000000000000000000, 0.0000000000000000000, -1.000000000000000000 ) ) ;
#977 = ORIENTED_EDGE ( 'NONE', *, *, #1031, .T. ) ;
#978 = CARTESIAN_POINT ( 'NONE',  ( -1.899999999999999911, -4.199999999999997513, 0.0000000000000000000 ) ) ;
#979 = EDGE_LOOP ( 'NONE', ( #527, #270, #660, #540 ) ) ;
#980 = DIRECTION ( 'NONE',  ( 0.0000000000000000000, -3.469446951953611033E-15, -1.000000000000000000 ) ) ;
#981 = ORIENTED_EDGE ( 'NONE', *, *, #1299, .T. ) ;
#982 =( GEOMETRIC_REPRESENTATION_CONTEXT ( 3 ) GLOBAL_UNCERTAINTY_ASSIGNED_CONTEXT ( ( #387 ) ) GLOBAL_UNIT_ASSIGNED_CONTEXT ( ( #1334, #94, #913 ) ) REPRESENTATION_CONTEXT ( 'NONE', 'WORKASPACE' ) );
#983 = VECTOR ( 'NONE', #326, 1000.000000000000000 ) ;
#984 = ORIENTED_EDGE ( 'NONE', *, *, #169, .F. ) ;
#985 = DIRECTION ( 'NONE',  ( -1.000000000000000000, -0.0000000000000000000, -0.0000000000000000000 ) ) ;
#986 = LINE ( 'NONE', #68, #305 ) ;
#987 = AXIS2_PLACEMENT_3D ( 'NONE', #653, #943, #143 ) ;
#988 = EDGE_CURVE ( 'NONE', #774, #437, #513, .T. ) ;
#989 = ORIENTED_EDGE ( 'NONE', *, *, #5, .T. ) ;
#990 = ORIENTED_EDGE ( 'NONE', *, *, #329, .F. ) ;
#991 = VERTEX_POINT ( 'NONE', #1002 ) ;
#992 = LINE ( 'NONE', #797, #1142 ) ;
#993 = FACE_OUTER_BOUND ( 'NONE', #279, .T. ) ;
#994 = DIRECTION ( 'NONE',  ( 0.0000000000000000000, -0.0000000000000000000, 1.000000000000000000 ) ) ;
#995 = EDGE_LOOP ( 'NONE', ( #1341, #286, #1310, #783 ) ) ;
#996 = ORIENTED_EDGE ( 'NONE', *, *, #1081, .T. ) ;
#997 = CARTESIAN_POINT ( 'NONE',  ( -1.899999999999999911, 4.699999999999999289, -7.998286200706524518 ) ) ;
#998 = ADVANCED_FACE ( 'NONE', ( #376 ), #1147, .F. ) ;
#999 = ORIENTED_EDGE ( 'NONE', *, *, #354, .T. ) ;
#1000 = DIRECTION ( 'NONE',  ( 0.0000000000000000000, 0.0000000000000000000, 1.000000000000000000 ) ) ;
#1001 = DIRECTION ( 'NONE',  ( 0.2651564830210425550, 0.0000000000000000000, 0.9642053928037902510 ) ) ;
#1002 = CARTESIAN_POINT ( 'NONE',  ( 1.899999999999999911, 2.199999999999998845, -17.01849030359326065 ) ) ;
#1003 = VERTEX_POINT ( 'NONE', #932 ) ;
#1004 = ORIENTED_EDGE ( 'NONE', *, *, #1046, .F. ) ;
#1005 = CARTESIAN_POINT ( 'NONE',  ( 1.899999999999999911, -2.234191238173825589, -0.5986497380053515949 ) ) ;
#1006 = VECTOR ( 'NONE', #543, 1000.000000000000000 ) ;
#1007 = EDGE_CURVE ( 'NONE', #407, #732, #225, .T. ) ;
#1008 =( NAMED_UNIT ( * ) SI_UNIT ( $, .STERADIAN. ) SOLID_ANGLE_UNIT ( ) );
#1009 = VECTOR ( 'NONE', #1148, 1000.000000000000000 ) ;
#1010 = CIRCLE ( 'NONE', #47, 1.499999999999999334 ) ;
#1011 = DIRECTION ( 'NONE',  ( -1.000000000000000000, 0.0000000000000000000, 0.0000000000000000000 ) ) ;
#1012 = ORIENTED_EDGE ( 'NONE', *, *, #524, .F. ) ;
#1013 = ORIENTED_EDGE ( 'NONE', *, *, #1117, .T. ) ;
#1014 = VECTOR ( 'NONE', #1155, 1000.000000000000000 ) ;
#1015 = CARTESIAN_POINT ( 'NONE',  ( -1.899999999999999911, 9.005158742057306043, -1.587852451787400199 ) ) ;
#1016 = EDGE_CURVE ( 'NONE', #153, #785, #1223, .T. ) ;
#1017 = EDGE_CURVE ( 'NONE', #720, #77, #631, .T. ) ;
#1018 = ORIENTED_EDGE ( 'NONE', *, *, #889, .F. ) ;
#1019 = ORIENTED_EDGE ( 'NONE', *, *, #155, .T. ) ;
#1020 = LINE ( 'NONE', #1343, #663 ) ;
#1021 = ORIENTED_EDGE ( 'NONE', *, *, #605, .T. ) ;
#1022 = ADVANCED_FACE ( 'NONE', ( #316 ), #290, .F. ) ;
#1023 = DIRECTION ( 'NONE',  ( 1.000000000000000000, -0.0000000000000000000, 0.0000000000000000000 ) ) ;
#1024 = ORIENTED_EDGE ( 'NONE', *, *, #830, .F. ) ;
#1025 = LINE ( 'NONE', #1209, #194 ) ;
#1026 = CARTESIAN_POINT ( 'NONE',  ( 1.899999999999999911, 6.199999999999999289, -27.50000000000000000 ) ) ;
#1027 = PRODUCT_DEFINITION_SHAPE ( 'NONE', 'NONE',  #438 ) ;
#1028 = CIRCLE ( 'NONE', #1210, 1.000000000000000888 ) ;
#1029 = CARTESIAN_POINT ( 'NONE',  ( -1.899999999999999911, 4.199999999999999289, -9.998286200706527183 ) ) ;
#1030 = ORIENTED_EDGE ( 'NONE', *, *, #1226, .T. ) ;
#1031 = EDGE_CURVE ( 'NONE', #647, #298, #962, .T. ) ;
#1032 = CARTESIAN_POINT ( 'NONE',  ( 1.899999999999999911, 4.199999999999999289, -23.46798004637642876 ) ) ;
#1033 = CLOSED_SHELL ( 'NONE', ( #360, #265, #317, #1214, #293, #1268, #489, #72, #923, #1101, #972, #1022, #622, #439, #448, #551, #1338, #998, #695, #25, #59, #304, #359, #82, #1232, #223, #718, #541, #1079, #275, #500, #1122, #263, #1205, #1068, #400, #116, #211, #236, #1151, #865 ) ) ;
#1034 = CARTESIAN_POINT ( 'NONE',  ( -2.450000000000000178, 6.699999999999999289, -3.998286200706527183 ) ) ;
#1035 = CARTESIAN_POINT ( 'NONE',  ( 1.899999999999999911, -5.200000000000001066, 0.0000000000000000000 ) ) ;
#1036 = CARTESIAN_POINT ( 'NONE',  ( 1.899999999999999911, 4.199999999999999289, -7.998286200706524518 ) ) ;
#1037 = ORIENTED_EDGE ( 'NONE', *, *, #1031, .F. ) ;
#1038 = DIRECTION ( 'NONE',  ( -1.000000000000000000, -0.0000000000000000000, -0.0000000000000000000 ) ) ;
#1039 = DIRECTION ( 'NONE',  ( -1.000000000000000000, 0.0000000000000000000, -0.0000000000000000000 ) ) ;
#1040 = CARTESIAN_POINT ( 'NONE',  ( -1.899999999999999911, 5.767666535919633297, -26.59828620070652505 ) ) ;
#1041 = DIRECTION ( 'NONE',  ( 0.0000000000000000000, 0.0000000000000000000, -1.000000000000000000 ) ) ;
#1042 = CARTESIAN_POINT ( 'NONE',  ( 1.899999999999999911, -4.200000000000003730, 0.0000000000000000000 ) ) ;
#1043 = ORIENTED_EDGE ( 'NONE', *, *, #819, .F. ) ;
#1044 = LINE ( 'NONE', #1150, #706 ) ;
#1045 = CARTESIAN_POINT ( 'NONE',  ( -1.899999999999999911, 5.199999999999999289, -1.499999999999998890 ) ) ;
#1046 = EDGE_CURVE ( 'NONE', #308, #657, #172, .T. ) ;
#1047 = CARTESIAN_POINT ( 'NONE',  ( -2.450000000000000178, 2.649999999999997691, -3.998286200706527183 ) ) ;
#1048 = VECTOR ( 'NONE', #183, 1000.000000000000000 ) ;
#1049 =( LENGTH_UNIT ( ) NAMED_UNIT ( * ) SI_UNIT ( .MILLI., .METRE. ) );
#1050 = CARTESIAN_POINT ( 'NONE',  ( 1.899999999999999911, 3.199999999999998845, 0.0000000000000000000 ) ) ;
#1051 = CARTESIAN_POINT ( 'NONE',  ( 1.899999999999999911, 5.499999999999999112, -26.75000000000000000 ) ) ;
#1052 = VECTOR ( 'NONE', #220, 1000.000000000000000 ) ;
#1053 = ORIENTED_EDGE ( 'NONE', *, *, #925, .T. ) ;
#1054 = VECTOR ( 'NONE', #1212, 1000.000000000000000 ) ;
#1055 = CARTESIAN_POINT ( 'NONE',  ( 1.899999999999999911, 6.199999999999999289, 0.0000000000000000000 ) ) ;
#1056 = AXIS2_PLACEMENT_3D ( 'NONE', #1290, #891, #1213 ) ;
#1057 = PLANE ( 'NONE',  #1255 ) ;
#1058 = VECTOR ( 'NONE', #1278, 1000.000000000000000 ) ;
#1059 = CARTESIAN_POINT ( 'NONE',  ( 2.450000000000000178, 2.649999999999997691, -4.998286200706527183 ) ) ;
#1060 = EDGE_CURVE ( 'NONE', #896, #77, #700, .T. ) ;
#1061 = ORIENTED_EDGE ( 'NONE', *, *, #1178, .F. ) ;
#1062 = ORIENTED_EDGE ( 'NONE', *, *, #160, .T. ) ;
#1063 = CARTESIAN_POINT ( 'NONE',  ( 1.899999999999999911, 3.199999999999998845, -17.01849030359326065 ) ) ;
#1064 = DIRECTION ( 'NONE',  ( 0.0000000000000000000, 0.0000000000000000000, -1.000000000000000000 ) ) ;
#1065 = CARTESIAN_POINT ( 'NONE',  ( -1.899999999999999911, -0.0000000000000000000, -7.998286200706524518 ) ) ;
#1066 = PRESENTATION_STYLE_ASSIGNMENT (( #956 ) ) ;
#1067 = CARTESIAN_POINT ( 'NONE',  ( 1.899999999999999911, 5.699999999999998401, -3.998286200706527183 ) ) ;
#1068 = ADVANCED_FACE ( 'NONE', ( #180 ), #581, .T. ) ;
#1069 = ORIENTED_EDGE ( 'NONE', *, *, #791, .F. ) ;
#1070 = DIRECTION ( 'NONE',  ( 0.0000000000000000000, 1.000000000000000000, 0.0000000000000000000 ) ) ;
#1071 = ORIENTED_EDGE ( 'NONE', *, *, #534, .F. ) ;
#1072 = CARTESIAN_POINT ( 'NONE',  ( 2.450000000000000178, 5.699999999999998401, -3.998286200706527183 ) ) ;
#1073 = VERTEX_POINT ( 'NONE', #441 ) ;
#1074 = VECTOR ( 'NONE', #869, 1000.000000000000000 ) ;
#1075 = VECTOR ( 'NONE', #719, 1000.000000000000000 ) ;
#1076 = VERTEX_POINT ( 'NONE', #238 ) ;
#1077 = DIRECTION ( 'NONE',  ( 0.0000000000000000000, 3.469446951953611033E-15, -1.000000000000000000 ) ) ;
#1078 = ORIENTED_EDGE ( 'NONE', *, *, #345, .F. ) ;
#1079 = ADVANCED_FACE ( 'NONE', ( #1161 ), #142, .F. ) ;
#1080 = AXIS2_PLACEMENT_3D ( 'NONE', #779, #1203, #273 ) ;
#1081 = EDGE_CURVE ( 'NONE', #461, #1135, #245, .T. ) ;
#1082 = DIRECTION ( 'NONE',  ( 0.0000000000000000000, -1.734723475976807094E-15, -1.000000000000000000 ) ) ;
#1083 = VERTEX_POINT ( 'NONE', #451 ) ;
#1084 = DIRECTION ( 'NONE',  ( -1.000000000000000000, 0.0000000000000000000, -0.0000000000000000000 ) ) ;
#1085 = ORIENTED_EDGE ( 'NONE', *, *, #1309, .F. ) ;
#1086 = CARTESIAN_POINT ( 'NONE',  ( -1.899999999999999911, -4.199999999999997513, -1.000000000000000000 ) ) ;
#1087 = ORIENTED_EDGE ( 'NONE', *, *, #160, .F. ) ;
#1088 = DIRECTION ( 'NONE',  ( 0.0000000000000000000, 0.0000000000000000000, -1.000000000000000000 ) ) ;
#1089 = ORIENTED_EDGE ( 'NONE', *, *, #593, .T. ) ;
#1090 = DIRECTION ( 'NONE',  ( 0.0000000000000000000, -0.2588190451025146888, 0.9659258262890699775 ) ) ;
#1091 = CARTESIAN_POINT ( 'NONE',  ( 1.899999999999999911, 5.199999999999999289, 0.0000000000000000000 ) ) ;
#1092 = CARTESIAN_POINT ( 'NONE',  ( 1.899999999999999911, 3.199999999999998845, -9.998286200706527183 ) ) ;
#1093 = EDGE_CURVE ( 'NONE', #350, #248, #948, .T. ) ;
#1094 = ORIENTED_EDGE ( 'NONE', *, *, #549, .T. ) ;
#1095 = CIRCLE ( 'NONE', #789, 2.120000000000000551 ) ;
#1096 =( LENGTH_UNIT ( ) NAMED_UNIT ( * ) SI_UNIT ( .MILLI., .METRE. ) );
#1097 = CARTESIAN_POINT ( 'NONE',  ( -0.9000000000000016875, -5.200000000000001066, 0.0000000000000000000 ) ) ;
#1098 = VECTOR ( 'NONE', #603, 1000.000000000000000 ) ;
#1099 = DIRECTION ( 'NONE',  ( -1.000000000000000000, -0.0000000000000000000, -0.0000000000000000000 ) ) ;
#1100 = ORIENTED_EDGE ( 'NONE', *, *, #654, .T. ) ;
#1101 = ADVANCED_FACE ( 'NONE', ( #156 ), #545, .T. ) ;
#1102 = ORIENTED_EDGE ( 'NONE', *, *, #1132, .T. ) ;
#1103 = ADVANCED_BREP_SHAPE_REPRESENTATION ( '21847B7C-95AA-4073-833D-5A482201C104', ( #394, #239 ), #554 ) ;
#1104 = DIRECTION ( 'NONE',  ( 0.0000000000000000000, 0.0000000000000000000, 1.000000000000000000 ) ) ;
#1105 = DIRECTION ( 'NONE',  ( -1.000000000000000000, 0.0000000000000000000, -0.0000000000000000000 ) ) ;
#1106 = CARTESIAN_POINT ( 'NONE',  ( 1.899999999999999911, 0.0000000000000000000, -8.998286200706525406 ) ) ;
#1107 = DIRECTION ( 'NONE',  ( -1.000000000000000000, -0.0000000000000000000, -0.0000000000000000000 ) ) ;
#1108 = VERTEX_POINT ( 'NONE', #127 ) ;
#1109 = DIRECTION ( 'NONE',  ( 0.0000000000000000000, 0.0000000000000000000, -1.000000000000000000 ) ) ;
#1110 = EDGE_LOOP ( 'NONE', ( #477, #181, #386, #600, #478, #378, #804, #640 ) ) ;
#1111 = EDGE_CURVE ( 'NONE', #256, #139, #251, .T. ) ;
#1112 = DIRECTION ( 'NONE',  ( 0.0000000000000000000, 0.0000000000000000000, -1.000000000000000000 ) ) ;
#1113 = FACE_OUTER_BOUND ( 'NONE', #445, .T. ) ;
#1114 = CARTESIAN_POINT ( 'NONE',  ( -1.899999999999999911, -0.0000000000000000000, -8.998286200706525406 ) ) ;
#1115 = ORIENTED_EDGE ( 'NONE', *, *, #458, .T. ) ;
#1116 = ORIENTED_EDGE ( 'NONE', *, *, #637, .T. ) ;
#1117 = EDGE_CURVE ( 'NONE', #437, #882, #410, .T. ) ;
#1118 = VECTOR ( 'NONE', #558, 1000.000000000000000 ) ;
#1119 = APPLICATION_PROTOCOL_DEFINITION ( 'draft international standard', 'automotive_design', 1998, #905 ) ;
#1120 = CARTESIAN_POINT ( 'NONE',  ( 2.450000000000000178, 5.699999999999998401, -3.998286200706527183 ) ) ;
#1121 = VECTOR ( 'NONE', #692, 1000.000000000000000 ) ;
#1122 = ADVANCED_FACE ( 'NONE', ( #859 ), #1057, .T. ) ;
#1123 = EDGE_LOOP ( 'NONE', ( #54, #757, #159, #164 ) ) ;
#1124 = ORIENTED_EDGE ( 'NONE', *, *, #676, .F. ) ;
#1125 = AXIS2_PLACEMENT_3D ( 'NONE', #803, #919, #302 ) ;
#1126 = CARTESIAN_POINT ( 'NONE',  ( 1.899999999999999911, 5.199999999999999289, -1.000000000000000000 ) ) ;
#1127 = CYLINDRICAL_SURFACE ( 'NONE', #1125, 0.4999999999999993339 ) ;
#1128 = DIRECTION ( 'NONE',  ( 0.0000000000000000000, 0.0000000000000000000, -1.000000000000000000 ) ) ;
#1129 = ORIENTED_EDGE ( 'NONE', *, *, #964, .T. ) ;
#1130 = CARTESIAN_POINT ( 'NONE',  ( 1.899999999999999911, 6.699999999999999289, -6.998286200706527183 ) ) ;
#1131 = DIRECTION ( 'NONE',  ( 1.000000000000000000, -0.0000000000000000000, 0.0000000000000000000 ) ) ;
#1132 = EDGE_CURVE ( 'NONE', #139, #911, #726, .T. ) ;
#1133 = LINE ( 'NONE', #514, #1261 ) ;
#1134 = LINE ( 'NONE', #935, #1323 ) ;
#1135 = VERTEX_POINT ( 'NONE', #135 ) ;
#1136 = DIRECTION ( 'NONE',  ( -1.000000000000000000, -0.0000000000000000000, -0.0000000000000000000 ) ) ;
#1137 = CARTESIAN_POINT ( 'NONE',  ( 1.899999999999999911, 5.199999999999999289, -1.499999999999998890 ) ) ;
#1138 = VECTOR ( 'NONE', #79, 1000.000000000000000 ) ;
#1139 = AXIS2_PLACEMENT_3D ( 'NONE', #767, #65, #1088 ) ;
#1140 = DIRECTION ( 'NONE',  ( 0.0000000000000000000, -3.469446951953611033E-15, -1.000000000000000000 ) ) ;
#1141 = AXIS2_PLACEMENT_3D ( 'NONE', #723, #1099, #384 ) ;
#1142 = VECTOR ( 'NONE', #67, 1000.000000000000000 ) ;
#1143 = CARTESIAN_POINT ( 'NONE',  ( 1.899999999999999911, 5.499999999999999112, 0.0000000000000000000 ) ) ;
#1144 = VERTEX_POINT ( 'NONE', #1279 ) ;
#1145 = CARTESIAN_POINT ( 'NONE',  ( 1.899999999999999911, 4.699999999999999289, -7.998286200706524518 ) ) ;
#1146 = LINE ( 'NONE', #1034, #449 ) ;
#1147 = CYLINDRICAL_SURFACE ( 'NONE', #809, 1.000000000000000888 ) ;
#1148 = DIRECTION ( 'NONE',  ( 0.0000000000000000000, -0.1736481776669300536, -0.9848077530122081313 ) ) ;
#1149 = ORIENTED_EDGE ( 'NONE', *, *, #846, .T. ) ;
#1150 = CARTESIAN_POINT ( 'NONE',  ( 1.899999999999999911, -4.200000000000003730, -1.000000000000000000 ) ) ;
#1151 = ADVANCED_FACE ( 'NONE', ( #358 ), #53, .F. ) ;
#1152 = DIRECTION ( 'NONE',  ( -1.000000000000000000, -0.0000000000000000000, -0.0000000000000000000 ) ) ;
#1153 = PLANE ( 'NONE',  #151 ) ;
#1154 = FILL_AREA_STYLE ('',( #1264 ) ) ;
#1155 = DIRECTION ( 'NONE',  ( 0.0000000000000000000, 0.0000000000000000000, -1.000000000000000000 ) ) ;
#1156 = LINE ( 'NONE', #232, #46 ) ;
#1157 = ORIENTED_EDGE ( 'NONE', *, *, #953, .F. ) ;
#1158 = CARTESIAN_POINT ( 'NONE',  ( -1.899999999999999911, -2.234191238173825589, -0.5986497380053515949 ) ) ;
#1159 = CYLINDRICAL_SURFACE ( 'NONE', #942, 2.000000000000001776 ) ;
#1160 = EDGE_CURVE ( 'NONE', #173, #63, #1175, .T. ) ;
#1161 = FACE_OUTER_BOUND ( 'NONE', #677, .T. ) ;
#1162 = VECTOR ( 'NONE', #1038, 1000.000000000000000 ) ;
#1163 = CARTESIAN_POINT ( 'NONE',  ( -1.899999999999999911, 2.199999999999998845, 0.0000000000000000000 ) ) ;
#1164 = ORIENTED_EDGE ( 'NONE', *, *, #704, .F. ) ;
#1165 = ORIENTED_EDGE ( 'NONE', *, *, #52, .F. ) ;
#1166 = CARTESIAN_POINT ( 'NONE',  ( 1.899999999999999911, 4.284102619425532943, -24.92525359323090228 ) ) ;
#1167 = CARTESIAN_POINT ( 'NONE',  ( 1.899999999999999911, 0.0000000000000000000, 0.0000000000000000000 ) ) ;
#1168 = AXIS2_PLACEMENT_3D ( 'NONE', #1176, #355, #850 ) ;
#1169 = CARTESIAN_POINT ( 'NONE',  ( 1.899999999999999911, 4.199999999999999289, -19.46798004637643587 ) ) ;
#1170 = SHAPE_DEFINITION_REPRESENTATION ( #1027, #1103 ) ;
#1171 = LINE ( 'NONE', #453, #473 ) ;
#1172 = EDGE_LOOP ( 'NONE', ( #805, #1019, #591, #950, #1102, #501, #497, #873, #1149, #746, #56, #1179, #763, #3, #977, #868, #188, #33, #959, #649, #893, #1258, #356 ) ) ;
#1173 = DIRECTION ( 'NONE',  ( -1.000000000000000000, -0.0000000000000000000, -0.0000000000000000000 ) ) ;
#1174 = VERTEX_POINT ( 'NONE', #965 ) ;
#1175 = LINE ( 'NONE', #1072, #260 ) ;
#1176 = CARTESIAN_POINT ( 'NONE',  ( 1.899999999999999911, -5.200000000000001066, 0.0000000000000000000 ) ) ;
#1177 = EDGE_CURVE ( 'NONE', #1300, #1003, #1010, .T. ) ;
#1178 = EDGE_CURVE ( 'NONE', #1325, #201, #459, .T. ) ;
#1179 = ORIENTED_EDGE ( 'NONE', *, *, #34, .T. ) ;
#1180 = DIRECTION ( 'NONE',  ( -1.000000000000000000, 0.0000000000000000000, -0.0000000000000000000 ) ) ;
#1181 = PLANE ( 'NONE',  #827 ) ;
#1182 = CARTESIAN_POINT ( 'NONE',  ( 1.899999999999999911, 4.199999999999999289, -8.998286200706525406 ) ) ;
#1183 = ORIENTED_EDGE ( 'NONE', *, *, #199, .F. ) ;
#1184 = VECTOR ( 'NONE', #703, 1000.000000000000000 ) ;
#1185 = VECTOR ( 'NONE', #7, 1000.000000000000000 ) ;
#1186 = ORIENTED_EDGE ( 'NONE', *, *, #1317, .T. ) ;
#1187 = LINE ( 'NONE', #960, #1006 ) ;
#1188 = ORIENTED_EDGE ( 'NONE', *, *, #254, .F. ) ;
#1189 = VECTOR ( 'NONE', #1198, 1000.000000000000000 ) ;
#1190 = CARTESIAN_POINT ( 'NONE',  ( -0.9000000000000016875, -5.200000000000001066, -1.000000000000000000 ) ) ;
#1191 = CIRCLE ( 'NONE', #1237, 1.500000000000004885 ) ;
#1192 = VECTOR ( 'NONE', #1001, 1000.000000000000114 ) ;
#1193 = VERTEX_POINT ( 'NONE', #864 ) ;
#1194 = FACE_OUTER_BOUND ( 'NONE', #800, .T. ) ;
#1195 = VERTEX_POINT ( 'NONE', #744 ) ;
#1196 = CARTESIAN_POINT ( 'NONE',  ( 1.899999999999999911, -2.234191238173825589, -0.5986497380053515949 ) ) ;
#1197 = EDGE_CURVE ( 'NONE', #153, #569, #1293, .T. ) ;
#1198 = DIRECTION ( 'NONE',  ( 0.0000000000000000000, 0.0000000000000000000, 1.000000000000000000 ) ) ;
#1199 = EDGE_LOOP ( 'NONE', ( #108, #777, #1124, #430 ) ) ;
#1200 = ORIENTED_EDGE ( 'NONE', *, *, #752, .T. ) ;
#1201 = DIRECTION ( 'NONE',  ( 0.0000000000000000000, -0.0000000000000000000, 1.000000000000000000 ) ) ;
#1202 = ORIENTED_EDGE ( 'NONE', *, *, #162, .F. ) ;
#1203 = DIRECTION ( 'NONE',  ( -0.0000000000000000000, 1.000000000000000000, 0.0000000000000000000 ) ) ;
#1204 = LINE ( 'NONE', #780, #1215 ) ;
#1205 = ADVANCED_FACE ( 'NONE', ( #737 ), #1153, .T. ) ;
#1206 = DIRECTION ( 'NONE',  ( 1.000000000000000000, -0.0000000000000000000, 0.0000000000000000000 ) ) ;
#1207 = ORIENTED_EDGE ( 'NONE', *, *, #1117, .F. ) ;
#1208 = ORIENTED_EDGE ( 'NONE', *, *, #1226, .F. ) ;
#1209 = CARTESIAN_POINT ( 'NONE',  ( 1.899999999999999911, 5.199999999999999289, 0.0000000000000000000 ) ) ;
#1210 = AXIS2_PLACEMENT_3D ( 'NONE', #607, #307, #1109 ) ;
#1211 = AXIS2_PLACEMENT_3D ( 'NONE', #530, #43, #1082 ) ;
#1212 = DIRECTION ( 'NONE',  ( 0.0000000000000000000, 1.000000000000000000, 0.0000000000000000000 ) ) ;
#1213 = DIRECTION ( 'NONE',  ( 0.0000000000000000000, 0.0000000000000000000, -1.000000000000000000 ) ) ;
#1214 = ADVANCED_FACE ( 'NONE', ( #1271 ), #37, .F. ) ;
#1215 = VECTOR ( 'NONE', #745, 1000.000000000000000 ) ;
#1216 = LINE ( 'NONE', #417, #364 ) ;
#1217 = ORIENTED_EDGE ( 'NONE', *, *, #611, .F. ) ;
#1218 = EDGE_LOOP ( 'NONE', ( #951, #182, #908, #1306 ) ) ;
#1219 = FACE_OUTER_BOUND ( 'NONE', #115, .T. ) ;
#1220 = ORIENTED_EDGE ( 'NONE', *, *, #179, .T. ) ;
#1221 = CARTESIAN_POINT ( 'NONE',  ( 1.899999999999999911, 4.199999999999999289, -17.01849030359326065 ) ) ;
#1222 = CARTESIAN_POINT ( 'NONE',  ( -1.899999999999999911, 2.649999999999997691, -6.998286200706527183 ) ) ;
#1223 = LINE ( 'NONE', #422, #237 ) ;
#1224 = ORIENTED_EDGE ( 'NONE', *, *, #199, .T. ) ;
#1225 = ORIENTED_EDGE ( 'NONE', *, *, #918, .F. ) ;
#1226 = EDGE_CURVE ( 'NONE', #1302, #298, #177, .T. ) ;
#1227 = SURFACE_STYLE_USAGE ( .BOTH. , #609 ) ;
#1228 = DIRECTION ( 'NONE',  ( 0.0000000000000000000, 1.000000000000000000, 0.0000000000000000000 ) ) ;
#1229 = ORIENTED_EDGE ( 'NONE', *, *, #102, .F. ) ;
#1230 = ORIENTED_EDGE ( 'NONE', *, *, #675, .T. ) ;
#1231 = DIRECTION ( 'NONE',  ( -0.9642053928037903621, 0.0000000000000000000, -0.2651564830210425550 ) ) ;
#1232 = ADVANCED_FACE ( 'NONE', ( #464 ), #161, .F. ) ;
#1233 = AXIS2_PLACEMENT_3D ( 'NONE', #1340, #1231, #379 ) ;
#1234 = CARTESIAN_POINT ( 'NONE',  ( -1.899999999999999911, 4.199999999999999289, -19.46798004637643587 ) ) ;
#1235 = AXIS2_PLACEMENT_3D ( 'NONE', #165, #1307, #1201 ) ;
#1236 = ORIENTED_EDGE ( 'NONE', *, *, #735, .T. ) ;
#1237 = AXIS2_PLACEMENT_3D ( 'NONE', #841, #957, #45 ) ;
#1238 = CIRCLE ( 'NONE', #28, 2.120000000000000551 ) ;
#1239 = CARTESIAN_POINT ( 'NONE',  ( -2.450000000000000178, 6.699999999999999289, -3.998286200706527183 ) ) ;
#1240 = EDGE_CURVE ( 'NONE', #1276, #863, #1318, .T. ) ;
#1241 = DIRECTION ( 'NONE',  ( 0.0000000000000000000, -0.0000000000000000000, 1.000000000000000000 ) ) ;
#1242 = CARTESIAN_POINT ( 'NONE',  ( 1.899999999999999911, -4.200000000000003730, 0.0000000000000000000 ) ) ;
#1243 = ORIENTED_EDGE ( 'NONE', *, *, #889, .T. ) ;
#1244 = CARTESIAN_POINT ( 'NONE',  ( 1.899999999999999911, 3.199999999999998845, -17.01849030359326065 ) ) ;
#1245 = CARTESIAN_POINT ( 'NONE',  ( -2.450000000000000178, 6.699999999999999289, -3.998286200706527183 ) ) ;
#1246 = CARTESIAN_POINT ( 'NONE',  ( 2.450000000000000178, 6.699999999999999289, -4.998286200706527183 ) ) ;
#1247 = EDGE_CURVE ( 'NONE', #201, #471, #898, .T. ) ;
#1248 = FACE_OUTER_BOUND ( 'NONE', #1218, .T. ) ;
#1249 = ORIENTED_EDGE ( 'NONE', *, *, #1177, .F. ) ;
#1250 = DIRECTION ( 'NONE',  ( -1.000000000000000000, 0.0000000000000000000, -0.0000000000000000000 ) ) ;
#1251 = FACE_OUTER_BOUND ( 'NONE', #50, .T. ) ;
#1252 = VECTOR ( 'NONE', #1064, 1000.000000000000000 ) ;
#1253 = AXIS2_PLACEMENT_3D ( 'NONE', #568, #1180, #980 ) ;
#1254 = DIRECTION ( 'NONE',  ( 0.0000000000000000000, 1.000000000000000000, 0.0000000000000000000 ) ) ;
#1255 = AXIS2_PLACEMENT_3D ( 'NONE', #652, #848, #1289 ) ;
#1256 = EDGE_CURVE ( 'NONE', #720, #340, #1297, .T. ) ;
#1257 = CARTESIAN_POINT ( 'NONE',  ( -2.450000000000000178, 6.699999999999999289, -4.998286200706527183 ) ) ;
#1258 = ORIENTED_EDGE ( 'NONE', *, *, #858, .F. ) ;
#1259 = DIRECTION ( 'NONE',  ( -0.0000000000000000000, 1.000000000000000000, 0.0000000000000000000 ) ) ;
#1260 = VECTOR ( 'NONE', #405, 1000.000000000000000 ) ;
#1261 = VECTOR ( 'NONE', #828, 1000.000000000000000 ) ;
#1262 = DIRECTION ( 'NONE',  ( -0.0000000000000000000, 1.000000000000000000, 0.0000000000000000000 ) ) ;
#1263 = DIRECTION ( 'NONE',  ( 0.0000000000000000000, 0.0000000000000000000, -1.000000000000000000 ) ) ;
#1264 = FILL_AREA_STYLE_COLOUR ( '', #751 ) ;
#1265 = FACE_OUTER_BOUND ( 'NONE', #740, .T. ) ;
#1266 = DIRECTION ( 'NONE',  ( 0.0000000000000000000, 0.0000000000000000000, -1.000000000000000000 ) ) ;
#1267 = EDGE_LOOP ( 'NONE', ( #424, #174, #122, #1285 ) ) ;
#1268 = ADVANCED_FACE ( 'NONE', ( #62 ), #74, .T. ) ;
#1269 = EDGE_CURVE ( 'NONE', #1276, #720, #669, .T. ) ;
#1270 = DIRECTION ( 'NONE',  ( 1.000000000000000000, -0.0000000000000000000, -0.0000000000000000000 ) ) ;
#1271 = FACE_OUTER_BOUND ( 'NONE', #522, .T. ) ;
#1272 = DIRECTION ( 'NONE',  ( 1.000000000000000000, 0.0000000000000000000, 0.0000000000000000000 ) ) ;
#1273 = CARTESIAN_POINT ( 'NONE',  ( -1.899999999999999911, 5.499999999999999112, -26.48359554925036363 ) ) ;
#1274 = LINE ( 'NONE', #429, #1052 ) ;
#1275 = ORIENTED_EDGE ( 'NONE', *, *, #1177, .T. ) ;
#1276 = VERTEX_POINT ( 'NONE', #1086 ) ;
#1277 = CARTESIAN_POINT ( 'NONE',  ( 1.899999999999999911, 4.699999999999999289, -7.998286200706524518 ) ) ;
#1278 = DIRECTION ( 'NONE',  ( 0.0000000000000000000, 1.000000000000000000, 0.0000000000000000000 ) ) ;
#1279 = CARTESIAN_POINT ( 'NONE',  ( -1.899999999999999911, 2.199999999999998845, -9.998286200706527183 ) ) ;
#1280 = VECTOR ( 'NONE', #268, 1000.000000000000000 ) ;
#1281 = DIRECTION ( 'NONE',  ( 0.0000000000000000000, 0.0000000000000000000, 1.000000000000000000 ) ) ;
#1282 = PLANE ( 'NONE',  #1168 ) ;
#1283 = AXIS2_PLACEMENT_3D ( 'NONE', #597, #1011, #91 ) ;
#1284 = VECTOR ( 'NONE', #490, 1000.000000000000000 ) ;
#1285 = ORIENTED_EDGE ( 'NONE', *, *, #974, .T. ) ;
#1286 = DIRECTION ( 'NONE',  ( 1.000000000000000000, -0.0000000000000000000, 0.0000000000000000000 ) ) ;
#1287 = AXIS2_PLACEMENT_3D ( 'NONE', #674, #31, #482 ) ;
#1288 = EDGE_CURVE ( 'NONE', #566, #896, #992, .T. ) ;
#1289 = DIRECTION ( 'NONE',  ( 0.0000000000000000000, 0.0000000000000000000, -1.000000000000000000 ) ) ;
#1290 = CARTESIAN_POINT ( 'NONE',  ( -1.899999999999999911, 3.699999999999998845, -19.46798004637643587 ) ) ;
#1291 = EDGE_LOOP ( 'NONE', ( #444, #157, #586, #961 ) ) ;
#1292 = CARTESIAN_POINT ( 'NONE',  ( -1.899999999999999689, 2.649999999999997691, -3.998286200706527183 ) ) ;
#1293 = LINE ( 'NONE', #538, #175 ) ;
#1294 = PRODUCT_CONTEXT ( 'NONE', #905, 'mechanical' ) ;
#1295 = ORIENTED_EDGE ( 'NONE', *, *, #826, .T. ) ;
#1296 = CARTESIAN_POINT ( 'NONE',  ( 1.899999999999999911, 0.0000000000000000000, -1.000000000000000000 ) ) ;
#1297 = LINE ( 'NONE', #184, #1284 ) ;
#1298 = AXIS2_PLACEMENT_3D ( 'NONE', #208, #895, #1104 ) ;
#1299 = EDGE_CURVE ( 'NONE', #562, #15, #325, .T. ) ;
#1300 = VERTEX_POINT ( 'NONE', #1091 ) ;
#1301 = DIRECTION ( 'NONE',  ( 0.0000000000000000000, 0.0000000000000000000, -1.000000000000000000 ) ) ;
#1302 = VERTEX_POINT ( 'NONE', #481 ) ;
#1303 = LINE ( 'NONE', #369, #769 ) ;
#1304 = AXIS2_PLACEMENT_3D ( 'NONE', #630, #421, #833 ) ;
#1305 = ORIENTED_EDGE ( 'NONE', *, *, #373, .T. ) ;
#1306 = ORIENTED_EDGE ( 'NONE', *, *, #635, .T. ) ;
#1307 = DIRECTION ( 'NONE',  ( -0.0000000000000000000, 1.000000000000000000, 0.0000000000000000000 ) ) ;
#1308 = ORIENTED_EDGE ( 'NONE', *, *, #629, .F. ) ;
#1309 = EDGE_CURVE ( 'NONE', #457, #1313, #573, .T. ) ;
#1310 = ORIENTED_EDGE ( 'NONE', *, *, #925, .F. ) ;
#1311 = CARTESIAN_POINT ( 'NONE',  ( 1.899999999999999911, 5.699999999999998401, -1.499999999999998890 ) ) ;
#1312 = LINE ( 'NONE', #375, #284 ) ;
#1313 = VERTEX_POINT ( 'NONE', #1311 ) ;
#1314 = EDGE_LOOP ( 'NONE', ( #1202, #502, #267, #725 ) ) ;
#1315 = FILL_AREA_STYLE ('',( #294 ) ) ;
#1316 = ORIENTED_EDGE ( 'NONE', *, *, #190, .T. ) ;
#1317 = EDGE_CURVE ( 'NONE', #77, #1339, #880, .T. ) ;
#1318 = LINE ( 'NONE', #475, #1054 ) ;
#1319 = PLANE ( 'NONE',  #771 ) ;
#1320 = CARTESIAN_POINT ( 'NONE',  ( -2.100000000000010747, -3.999999999999986233, 0.0000000000000000000 ) ) ;
#1321 = EDGE_LOOP ( 'NONE', ( #1229, #782, #8, #84 ) ) ;
#1322 = ORIENTED_EDGE ( 'NONE', *, *, #988, .F. ) ;
#1323 = VECTOR ( 'NONE', #928, 1000.000000000000000 ) ;
#1324 = LINE ( 'NONE', #812, #1138 ) ;
#1325 = VERTEX_POINT ( 'NONE', #191 ) ;
#1326 = PRESENTATION_LAYER_ASSIGNMENT (  '', '', ( #347 ) ) ;
#1327 = CARTESIAN_POINT ( 'NONE',  ( 1.899999999999999911, 4.801740709630562876, -26.85710524580904490 ) ) ;
#1328 = CARTESIAN_POINT ( 'NONE',  ( 2.450000000000000178, 2.649999999999997691, -3.998286200706527183 ) ) ;
#1329 = EDGE_CURVE ( 'NONE', #1003, #486, #1303, .T. ) ;
#1330 = EDGE_CURVE ( 'NONE', #569, #461, #1347, .T. ) ;
#1331 = DIRECTION ( 'NONE',  ( 0.0000000000000000000, 0.0000000000000000000, 1.000000000000000000 ) ) ;
#1332 = ORIENTED_EDGE ( 'NONE', *, *, #368, .T. ) ;
#1333 = ORIENTED_EDGE ( 'NONE', *, *, #287, .T. ) ;
#1334 =( LENGTH_UNIT ( ) NAMED_UNIT ( * ) SI_UNIT ( .MILLI., .METRE. ) );
#1335 =( NAMED_UNIT ( * ) PLANE_ANGLE_UNIT ( ) SI_UNIT ( $, .RADIAN. ) );
#1336 = DIRECTION ( 'NONE',  ( 1.000000000000000000, -0.0000000000000000000, 0.0000000000000000000 ) ) ;
#1337 = EDGE_LOOP ( 'NONE', ( #1004, #73, #981, #687 ) ) ;
#1338 = ADVANCED_FACE ( 'NONE', ( #269 ), #167, .T. ) ;
#1339 = VERTEX_POINT ( 'NONE', #1190 ) ;
#1340 = CARTESIAN_POINT ( 'NONE',  ( -2.450000000000000178, 2.649999999999997691, -4.998286200706527183 ) ) ;
#1341 = ORIENTED_EDGE ( 'NONE', *, *, #1017, .F. ) ;
#1342 = EDGE_CURVE ( 'NONE', #471, #760, #856, .T. ) ;
#1343 = CARTESIAN_POINT ( 'NONE',  ( 2.450000000000000178, 5.699999999999998401, -3.998286200706527183 ) ) ;
#1344 = VECTOR ( 'NONE', #1173, 1000.000000000000000 ) ;
#1345 = DIRECTION ( 'NONE',  ( 0.0000000000000000000, -1.000000000000000000, 0.0000000000000000000 ) ) ;
#1346 = VECTOR ( 'NONE', #202, 1000.000000000000000 ) ;
#1347 = CIRCLE ( 'NONE', #66, 0.9999999999999991118 ) ;
ENDSEC;
END-ISO-10303-21;
