ISO-10303-21;
HEADER;
FILE_DESCRIPTION (( 'STEP AP214' ),
    '1' );
FILE_NAME ('C83346FD-CB08-4AF0-AA92-C34249F0DE30.STEP',
    '2026-08-13T14:33:20',
    ( '' ),
    ( '' ),
    'SwSTEP 2.0',
    'SolidWorks 2022',
    '' );
FILE_SCHEMA (( 'AUTOMOTIVE_DESIGN' ));
ENDSEC;

DATA;
#1 = CIRCLE ( 'NONE', #761, 0.9999999999999974465 ) ;
#2 = VECTOR ( 'NONE', #1187, 999.9999999999998863 ) ;
#3 = AXIS2_PLACEMENT_3D ( 'NONE', #1137, #507, #207 ) ;
#4 = LINE ( 'NONE', #713, #160 ) ;
#5 = ORIENTED_EDGE ( 'NONE', *, *, #145, .F. ) ;
#6 = DIRECTION ( 'NONE',  ( 1.000000000000000000, -0.0000000000000000000, 0.0000000000000000000 ) ) ;
#7 = PLANE ( 'NONE',  #439 ) ;
#8 = DIRECTION ( 'NONE',  ( 0.0000000000000000000, 0.0000000000000000000, -1.000000000000000000 ) ) ;
#9 = EDGE_CURVE ( 'NONE', #637, #1160, #1015, .T. ) ;
#10 = VERTEX_POINT ( 'NONE', #567 ) ;
#11 = DIRECTION ( 'NONE',  ( -0.0000000000000000000, 1.000000000000000000, 0.0000000000000000000 ) ) ;
#12 = ORIENTED_EDGE ( 'NONE', *, *, #478, .T. ) ;
#13 = DIRECTION ( 'NONE',  ( -1.000000000000000000, 0.0000000000000000000, -0.0000000000000000000 ) ) ;
#14 = LINE ( 'NONE', #220, #114 ) ;
#15 = DIRECTION ( 'NONE',  ( -1.000000000000000000, -0.0000000000000000000, -0.0000000000000000000 ) ) ;
#16 = ADVANCED_FACE ( 'NONE', ( #392 ), #173, .T. ) ;
#17 = CARTESIAN_POINT ( 'NONE',  ( 1.899999999999999911, 10.59999999999999787, 0.0000000000000000000 ) ) ;
#18 = DIRECTION ( 'NONE',  ( -1.000000000000000000, 0.0000000000000000000, -0.0000000000000000000 ) ) ;
#19 = ORIENTED_EDGE ( 'NONE', *, *, #615, .T. ) ;
#20 = CARTESIAN_POINT ( 'NONE',  ( -1.899999999999999911, 10.59999999999999787, -1.499999999999998224 ) ) ;
#21 = DIRECTION ( 'NONE',  ( 0.0000000000000000000, 0.0000000000000000000, -1.000000000000000000 ) ) ;
#22 = CIRCLE ( 'NONE', #1283, 0.4999999999999991673 ) ;
#23 = AXIS2_PLACEMENT_3D ( 'NONE', #137, #851, #752 ) ;
#24 = ORIENTED_EDGE ( 'NONE', *, *, #424, .T. ) ;
#25 = LINE ( 'NONE', #947, #911 ) ;
#26 = DIRECTION ( 'NONE',  ( 1.000000000000000000, -0.0000000000000000000, 0.0000000000000000000 ) ) ;
#27 = VECTOR ( 'NONE', #755, 1000.000000000000114 ) ;
#28 = EDGE_CURVE ( 'NONE', #183, #1344, #75, .T. ) ;
#29 = ORIENTED_EDGE ( 'NONE', *, *, #202, .F. ) ;
#30 = DIRECTION ( 'NONE',  ( -0.2651564830210427215, 0.0000000000000000000, -0.9642053928037902510 ) ) ;
#31 = DIRECTION ( 'NONE',  ( -1.000000000000000000, -0.0000000000000000000, -0.0000000000000000000 ) ) ;
#32 = ORIENTED_EDGE ( 'NONE', *, *, #898, .F. ) ;
#33 = CARTESIAN_POINT ( 'NONE',  ( -1.900000000000000577, 10.59999999999999787, -11.89828620070652576 ) ) ;
#34 = DIRECTION ( 'NONE',  ( 0.0000000000000000000, -0.0000000000000000000, 1.000000000000000000 ) ) ;
#35 = ORIENTED_EDGE ( 'NONE', *, *, #312, .F. ) ;
#36 = CARTESIAN_POINT ( 'NONE',  ( -1.899999999999999911, 9.599999999999997868, -14.89828620070652399 ) ) ;
#37 = DIRECTION ( 'NONE',  ( 0.0000000000000000000, 0.0000000000000000000, 1.000000000000000000 ) ) ;
#38 = EDGE_CURVE ( 'NONE', #627, #776, #276, .T. ) ;
#39 = CARTESIAN_POINT ( 'NONE',  ( -1.899999999999999911, 0.0000000000000000000, 0.0000000000000000000 ) ) ;
#40 = CARTESIAN_POINT ( 'NONE',  ( 1.899999999999999911, 8.099999999999999645, -16.89828620070652576 ) ) ;
#41 = ORIENTED_EDGE ( 'NONE', *, *, #905, .F. ) ;
#42 = LINE ( 'NONE', #60, #1327 ) ;
#43 = ADVANCED_FACE ( 'NONE', ( #678 ), #489, .F. ) ;
#44 = ORIENTED_EDGE ( 'NONE', *, *, #431, .T. ) ;
#45 = SURFACE_STYLE_USAGE ( .BOTH. , #829 ) ;
#46 = AXIS2_PLACEMENT_3D ( 'NONE', #477, #974, #787 ) ;
#47 = AXIS2_PLACEMENT_3D ( 'NONE', #168, #775, #163 ) ;
#48 = ORIENTED_EDGE ( 'NONE', *, *, #1318, .T. ) ;
#49 = DIRECTION ( 'NONE',  ( 0.9642053928037902510, 0.0000000000000000000, -0.2651564830210427215 ) ) ;
#50 = CYLINDRICAL_SURFACE ( 'NONE', #742, 1.500000000000001332 ) ;
#51 = PRESENTATION_LAYER_ASSIGNMENT (  '', '', ( #355 ) ) ;
#52 = CARTESIAN_POINT ( 'NONE',  ( -1.899999999999999911, 10.59999999999999787, 0.0000000000000000000 ) ) ;
#53 = AXIS2_PLACEMENT_3D ( 'NONE', #430, #839, #1261 ) ;
#54 = PRESENTATION_LAYER_ASSIGNMENT (  '', '', ( #353 ) ) ;
#55 = DIRECTION ( 'NONE',  ( -1.000000000000000000, -0.0000000000000000000, -0.0000000000000000000 ) ) ;
#56 = EDGE_CURVE ( 'NONE', #1056, #731, #899, .T. ) ;
#57 = CARTESIAN_POINT ( 'NONE',  ( 1.899999999999999911, 10.59999999999999787, -1.499999999999998224 ) ) ;
#58 = DIRECTION ( 'NONE',  ( 0.0000000000000000000, 0.0000000000000000000, -1.000000000000000000 ) ) ;
#59 = ORIENTED_EDGE ( 'NONE', *, *, #862, .F. ) ;
#60 = CARTESIAN_POINT ( 'NONE',  ( -2.450000000000000178, 6.549999999999998934, -12.89828620070652576 ) ) ;
#61 = DIRECTION ( 'NONE',  ( -1.000000000000000000, 0.0000000000000000000, -0.0000000000000000000 ) ) ;
#62 = ADVANCED_FACE ( 'NONE', ( #703 ), #370, .T. ) ;
#63 = ORIENTED_EDGE ( 'NONE', *, *, #153, .T. ) ;
#64 = CARTESIAN_POINT ( 'NONE',  ( -2.450000000000000178, 6.549999999999998934, -11.89828620070652576 ) ) ;
#65 = CARTESIAN_POINT ( 'NONE',  ( 1.899999999999999911, 8.599999999999997868, -16.89828620070652576 ) ) ;
#66 = DIRECTION ( 'NONE',  ( 0.0000000000000000000, 1.000000000000000000, 0.0000000000000000000 ) ) ;
#67 = ORIENTED_EDGE ( 'NONE', *, *, #666, .T. ) ;
#68 = CARTESIAN_POINT ( 'NONE',  ( 0.9000000000000030198, -9.099999999999997868, -1.000000000000000000 ) ) ;
#69 = VECTOR ( 'NONE', #92, 1000.000000000000000 ) ;
#70 = ORIENTED_EDGE ( 'NONE', *, *, #1139, .F. ) ;
#71 = DIRECTION ( 'NONE',  ( 0.0000000000000000000, 0.0000000000000000000, -1.000000000000000000 ) ) ;
#72 = VECTOR ( 'NONE', #150, 1000.000000000000000 ) ;
#73 = ADVANCED_FACE ( 'NONE', ( #1192 ), #480, .F. ) ;
#74 = CIRCLE ( 'NONE', #117, 2.120000000000003659 ) ;
#75 = LINE ( 'NONE', #281, #1092 ) ;
#76 = ORIENTED_EDGE ( 'NONE', *, *, #162, .T. ) ;
#77 =( NAMED_UNIT ( * ) SI_UNIT ( $, .STERADIAN. ) SOLID_ANGLE_UNIT ( ) );
#78 = ORIENTED_EDGE ( 'NONE', *, *, #767, .F. ) ;
#79 = LINE ( 'NONE', #300, #655 ) ;
#80 = EDGE_CURVE ( 'NONE', #1208, #350, #1119, .T. ) ;
#81 =( NAMED_UNIT ( * ) SI_UNIT ( $, .STERADIAN. ) SOLID_ANGLE_UNIT ( ) );
#82 = DIRECTION ( 'NONE',  ( -1.000000000000000000, -0.0000000000000000000, -0.0000000000000000000 ) ) ;
#83 = UNCERTAINTY_MEASURE_WITH_UNIT (LENGTH_MEASURE( 1.000000000000000082E-05 ), #915, 'distance_accuracy_value', 'NONE');
#84 = ORIENTED_EDGE ( 'NONE', *, *, #28, .T. ) ;
#85 = ORIENTED_EDGE ( 'NONE', *, *, #1061, .T. ) ;
#86 = LINE ( 'NONE', #714, #485 ) ;
#87 = CARTESIAN_POINT ( 'NONE',  ( -1.899999999999999911, 10.59999999999999787, -14.89828620070652399 ) ) ;
#88 = EDGE_CURVE ( 'NONE', #849, #957, #800, .T. ) ;
#89 = LINE ( 'NONE', #1053, #1066 ) ;
#90 = EDGE_CURVE ( 'NONE', #937, #724, #1108, .T. ) ;
#91 = EDGE_LOOP ( 'NONE', ( #946, #636, #1300, #1338 ) ) ;
#92 = DIRECTION ( 'NONE',  ( 0.0000000000000000000, 1.000000000000000000, 0.0000000000000000000 ) ) ;
#93 = VECTOR ( 'NONE', #1308, 1000.000000000000000 ) ;
#94 = AXIS2_PLACEMENT_3D ( 'NONE', #645, #910, #640 ) ;
#95 = CARTESIAN_POINT ( 'NONE',  ( 1.899999999999999911, 7.899999999999995914, -25.89828620070652576 ) ) ;
#96 = VECTOR ( 'NONE', #555, 1000.000000000000000 ) ;
#97 = FACE_OUTER_BOUND ( 'NONE', #1340, .T. ) ;
#98 = AXIS2_PLACEMENT_3D ( 'NONE', #1168, #309, #626 ) ;
#99 = ORIENTED_EDGE ( 'NONE', *, *, #90, .T. ) ;
#100 = EDGE_LOOP ( 'NONE', ( #358, #822, #556, #600, #240, #1126 ) ) ;
#101 = FACE_OUTER_BOUND ( 'NONE', #725, .T. ) ;
#102 = LINE ( 'NONE', #199, #398 ) ;
#103 = VERTEX_POINT ( 'NONE', #1115 ) ;
#104 = EDGE_CURVE ( 'NONE', #171, #10, #494, .T. ) ;
#105 = CARTESIAN_POINT ( 'NONE',  ( 2.450000000000000178, 9.599999999999997868, -11.89828620070652576 ) ) ;
#106 = ORIENTED_EDGE ( 'NONE', *, *, #598, .F. ) ;
#107 = DIRECTION ( 'NONE',  ( 0.0000000000000000000, -1.235522109153125004E-16, -1.000000000000000000 ) ) ;
#108 = VERTEX_POINT ( 'NONE', #1163 ) ;
#109 = CARTESIAN_POINT ( 'NONE',  ( -0.8999999999999982458, -9.099999999999997868, 0.0000000000000000000 ) ) ;
#110 = ORIENTED_EDGE ( 'NONE', *, *, #615, .F. ) ;
#111 = LINE ( 'NONE', #17, #964 ) ;
#112 = EDGE_CURVE ( 'NONE', #350, #976, #809, .T. ) ;
#113 = AXIS2_PLACEMENT_3D ( 'NONE', #521, #1249, #1044 ) ;
#114 = VECTOR ( 'NONE', #1330, 1000.000000000000000 ) ;
#115 = CIRCLE ( 'NONE', #506, 2.000000000000000000 ) ;
#116 = VERTEX_POINT ( 'NONE', #343 ) ;
#117 = AXIS2_PLACEMENT_3D ( 'NONE', #850, #1062, #540 ) ;
#118 = EDGE_LOOP ( 'NONE', ( #1196, #1096, #966, #99 ) ) ;
#119 = PLANE ( 'NONE',  #676 ) ;
#120 = DIRECTION ( 'NONE',  ( 1.000000000000000000, -0.0000000000000000000, 0.0000000000000000000 ) ) ;
#121 = DIRECTION ( 'NONE',  ( 0.0000000000000000000, 0.0000000000000000000, -1.000000000000000000 ) ) ;
#122 = PLANE ( 'NONE',  #895 ) ;
#123 = VERTEX_POINT ( 'NONE', #299 ) ;
#124 = DIRECTION ( 'NONE',  ( -1.000000000000000000, 0.0000000000000000000, -0.0000000000000000000 ) ) ;
#125 = LINE ( 'NONE', #747, #1073 ) ;
#126 = FACE_OUTER_BOUND ( 'NONE', #1212, .T. ) ;
#127 = DIRECTION ( 'NONE',  ( 0.0000000000000000000, 1.294735348977192938E-16, 1.000000000000000000 ) ) ;
#128 = EDGE_CURVE ( 'NONE', #745, #174, #754, .T. ) ;
#129 = VERTEX_POINT ( 'NONE', #20 ) ;
#130 = LINE ( 'NONE', #449, #592 ) ;
#131 = CARTESIAN_POINT ( 'NONE',  ( -1.899999999999999911, 9.099999999999997868, -31.06798004637644084 ) ) ;
#132 = CYLINDRICAL_SURFACE ( 'NONE', #198, 1.499999999999998002 ) ;
#133 = PLANE ( 'NONE',  #53 ) ;
#134 = AXIS2_PLACEMENT_3D ( 'NONE', #574, #563, #253 ) ;
#135 = AXIS2_PLACEMENT_3D ( 'NONE', #1045, #18, #1136 ) ;
#136 = LINE ( 'NONE', #1057, #722 ) ;
#137 = CARTESIAN_POINT ( 'NONE',  ( 1.899999999999999911, 8.099999999999999645, -17.89828620070652576 ) ) ;
#138 = CIRCLE ( 'NONE', #311, 1.500000000000001332 ) ;
#139 = ORIENTED_EDGE ( 'NONE', *, *, #461, .T. ) ;
#140 = CARTESIAN_POINT ( 'NONE',  ( 2.450000000000000178, 6.549999999999998934, -11.89828620070652576 ) ) ;
#141 = DIRECTION ( 'NONE',  ( 0.0000000000000000000, 0.0000000000000000000, -1.000000000000000000 ) ) ;
#142 = VERTEX_POINT ( 'NONE', #1260 ) ;
#143 = LINE ( 'NONE', #64, #93 ) ;
#144 = DIRECTION ( 'NONE',  ( -1.000000000000000000, -0.0000000000000000000, -0.0000000000000000000 ) ) ;
#145 = EDGE_CURVE ( 'NONE', #1208, #979, #1273, .T. ) ;
#146 = EDGE_LOOP ( 'NONE', ( #234, #490, #1022, #618, #718, #76, #965, #19, #305, #859 ) ) ;
#147 = DIRECTION ( 'NONE',  ( 0.0000000000000000000, 0.0000000000000000000, -1.000000000000000000 ) ) ;
#148 = ORIENTED_EDGE ( 'NONE', *, *, #478, .F. ) ;
#149 = LINE ( 'NONE', #1301, #501 ) ;
#150 = DIRECTION ( 'NONE',  ( -1.000000000000000000, -0.0000000000000000000, -0.0000000000000000000 ) ) ;
#151 = ORIENTED_EDGE ( 'NONE', *, *, #1332, .T. ) ;
#152 = CARTESIAN_POINT ( 'NONE',  ( 1.899999999999999911, 8.599999999999997868, -15.89828620070652576 ) ) ;
#153 = EDGE_CURVE ( 'NONE', #684, #1184, #14, .T. ) ;
#154 = VECTOR ( 'NONE', #560, 1000.000000000000000 ) ;
#155 = AXIS2_PLACEMENT_3D ( 'NONE', #994, #999, #147 ) ;
#156 = FACE_OUTER_BOUND ( 'NONE', #791, .T. ) ;
#157 = DIRECTION ( 'NONE',  ( 0.0000000000000000000, 0.0000000000000000000, 1.000000000000000000 ) ) ;
#158 = ORIENTED_EDGE ( 'NONE', *, *, #835, .T. ) ;
#159 = CARTESIAN_POINT ( 'NONE',  ( 2.450000000000000178, 9.599999999999997868, -11.89828620070652576 ) ) ;
#160 = VECTOR ( 'NONE', #420, 1000.000000000000000 ) ;
#161 =( NAMED_UNIT ( * ) PLANE_ANGLE_UNIT ( ) SI_UNIT ( $, .RADIAN. ) );
#162 = EDGE_CURVE ( 'NONE', #174, #802, #1063, .T. ) ;
#163 = DIRECTION ( 'NONE',  ( 0.0000000000000000000, 0.0000000000000000000, 1.000000000000000000 ) ) ;
#164 = VERTEX_POINT ( 'NONE', #711 ) ;
#165 = CARTESIAN_POINT ( 'NONE',  ( 1.899999999999999911, 6.100000000000002309, -7.536684865834063956E-16 ) ) ;
#166 = PLANE ( 'NONE',  #587 ) ;
#167 = DIRECTION ( 'NONE',  ( -1.000000000000000000, -0.0000000000000000000, -0.0000000000000000000 ) ) ;
#168 = CARTESIAN_POINT ( 'NONE',  ( 1.899999999999999911, -8.100000000000004974, 0.0000000000000000000 ) ) ;
#169 = VERTEX_POINT ( 'NONE', #630 ) ;
#170 = DIRECTION ( 'NONE',  ( 1.000000000000000000, -0.0000000000000000000, 0.0000000000000000000 ) ) ;
#171 = VERTEX_POINT ( 'NONE', #543 ) ;
#172 = DIRECTION ( 'NONE',  ( 0.0000000000000000000, 0.0000000000000000000, 1.000000000000000000 ) ) ;
#173 = PLANE ( 'NONE',  #176 ) ;
#174 = VERTEX_POINT ( 'NONE', #231 ) ;
#175 = AXIS2_PLACEMENT_3D ( 'NONE', #348, #49, #1076 ) ;
#176 = AXIS2_PLACEMENT_3D ( 'NONE', #1319, #1201, #181 ) ;
#177 = EDGE_CURVE ( 'NONE', #673, #1184, #187, .T. ) ;
#178 = CARTESIAN_POINT ( 'NONE',  ( 1.899999999999999911, 8.599999999999997868, -14.89828620070652576 ) ) ;
#179 = AXIS2_PLACEMENT_3D ( 'NONE', #1052, #948, #1058 ) ;
#180 = VECTOR ( 'NONE', #1019, 1000.000000000000000 ) ;
#181 = DIRECTION ( 'NONE',  ( 0.0000000000000000000, 0.0000000000000000000, 1.000000000000000000 ) ) ;
#182 = VERTEX_POINT ( 'NONE', #949 ) ;
#183 = VERTEX_POINT ( 'NONE', #445 ) ;
#184 = LINE ( 'NONE', #597, #894 ) ;
#185 = EDGE_CURVE ( 'NONE', #1324, #129, #1021, .T. ) ;
#186 = EDGE_CURVE ( 'NONE', #758, #174, #89, .T. ) ;
#187 = LINE ( 'NONE', #838, #870 ) ;
#188 = ORIENTED_EDGE ( 'NONE', *, *, #1245, .T. ) ;
#189 = ORIENTED_EDGE ( 'NONE', *, *, #1104, .F. ) ;
#190 = PLANE ( 'NONE',  #482 ) ;
#191 = FACE_OUTER_BOUND ( 'NONE', #960, .T. ) ;
#192 = EDGE_CURVE ( 'NONE', #123, #1202, #288, .T. ) ;
#193 = DIRECTION ( 'NONE',  ( -1.000000000000000000, 0.0000000000000000000, -0.0000000000000000000 ) ) ;
#194 = ORIENTED_EDGE ( 'NONE', *, *, #905, .T. ) ;
#195 = DIRECTION ( 'NONE',  ( 0.0000000000000000000, 0.0000000000000000000, -1.000000000000000000 ) ) ;
#196 = ORIENTED_EDGE ( 'NONE', *, *, #669, .T. ) ;
#197 = CYLINDRICAL_SURFACE ( 'NONE', #397, 3.599999999999999201 ) ;
#198 = AXIS2_PLACEMENT_3D ( 'NONE', #961, #921, #537 ) ;
#199 = CARTESIAN_POINT ( 'NONE',  ( -0.8999999999999991340, -9.099999999999997868, -1.000000000000000000 ) ) ;
#200 = AXIS2_PLACEMENT_3D ( 'NONE', #178, #1107, #172 ) ;
#201 = VECTOR ( 'NONE', #1232, 1000.000000000000000 ) ;
#202 = EDGE_CURVE ( 'NONE', #704, #864, #22, .T. ) ;
#203 = UNCERTAINTY_MEASURE_WITH_UNIT (LENGTH_MEASURE( 1.000000000000000082E-05 ), #594, 'distance_accuracy_value', 'NONE');
#204 = SURFACE_STYLE_USAGE ( .BOTH. , #384 ) ;
#205 = ORIENTED_EDGE ( 'NONE', *, *, #431, .F. ) ;
#206 = LINE ( 'NONE', #1345, #272 ) ;
#207 = DIRECTION ( 'NONE',  ( 0.0000000000000000000, 0.0000000000000000000, -1.000000000000000000 ) ) ;
#208 = ORIENTED_EDGE ( 'NONE', *, *, #796, .F. ) ;
#209 = ADVANCED_FACE ( 'NONE', ( #97 ), #814, .T. ) ;
#210 = ORIENTED_EDGE ( 'NONE', *, *, #781, .T. ) ;
#211 = FACE_OUTER_BOUND ( 'NONE', #990, .T. ) ;
#212 = LINE ( 'NONE', #1147, #1312 ) ;
#213 = CYLINDRICAL_SURFACE ( 'NONE', #225, 1.000000000000000888 ) ;
#214 = ORIENTED_EDGE ( 'NONE', *, *, #1027, .F. ) ;
#215 = PLANE ( 'NONE',  #1239 ) ;
#216 = ORIENTED_EDGE ( 'NONE', *, *, #642, .T. ) ;
#217 = CARTESIAN_POINT ( 'NONE',  ( 1.899999999999999911, 8.599999999999997868, -15.89828620070652576 ) ) ;
#218 = DIRECTION ( 'NONE',  ( 1.000000000000000000, 0.0000000000000000000, -0.0000000000000000000 ) ) ;
#219 = ADVANCED_FACE ( 'NONE', ( #126 ), #132, .T. ) ;
#220 = CARTESIAN_POINT ( 'NONE',  ( 1.899999999999999911, 9.399999999999998579, -34.64999999999999858 ) ) ;
#221 = LINE ( 'NONE', #1124, #1008 ) ;
#222 = CIRCLE ( 'NONE', #1219, 0.9999999999999991118 ) ;
#223 = VECTOR ( 'NONE', #66, 1000.000000000000000 ) ;
#224 = AXIS2_PLACEMENT_3D ( 'NONE', #918, #1005, #1317 ) ;
#225 = AXIS2_PLACEMENT_3D ( 'NONE', #513, #926, #1047 ) ;
#226 = ORIENTED_EDGE ( 'NONE', *, *, #1027, .T. ) ;
#227 = VECTOR ( 'NONE', #991, 1000.000000000000000 ) ;
#228 = ORIENTED_EDGE ( 'NONE', *, *, #1323, .T. ) ;
#229 = DIRECTION ( 'NONE',  ( 0.0000000000000000000, 0.0000000000000000000, -1.000000000000000000 ) ) ;
#230 = DIRECTION ( 'NONE',  ( 0.0000000000000000000, 0.0000000000000000000, -1.000000000000000000 ) ) ;
#231 = CARTESIAN_POINT ( 'NONE',  ( 2.450000000000000178, 10.59999999999999787, -12.89828620070652576 ) ) ;
#232 = CARTESIAN_POINT ( 'NONE',  ( 1.899999999999999911, 8.184102619425532410, -32.82525359323090441 ) ) ;
#233 = ADVANCED_FACE ( 'NONE', ( #1230 ), #1337, .T. ) ;
#234 = ORIENTED_EDGE ( 'NONE', *, *, #324, .F. ) ;
#235 = CARTESIAN_POINT ( 'NONE',  ( -1.899999999999999911, 7.599999999999998757, -27.36798004637643800 ) ) ;
#236 = DIRECTION ( 'NONE',  ( 0.7071067811865463515, -0.7071067811865487940, -0.0000000000000000000 ) ) ;
#237 = CARTESIAN_POINT ( 'NONE',  ( 1.899999999999999911, 6.099999999999998757, -24.91849030359325923 ) ) ;
#238 = CARTESIAN_POINT ( 'NONE',  ( 1.899999999999999911, 9.099999999999997868, -27.36798004637643800 ) ) ;
#239 = EDGE_CURVE ( 'NONE', #731, #979, #1006, .T. ) ;
#240 = ORIENTED_EDGE ( 'NONE', *, *, #862, .T. ) ;
#241 = LINE ( 'NONE', #649, #803 ) ;
#242 = DIRECTION ( 'NONE',  ( -1.000000000000000000, 0.0000000000000000000, -0.0000000000000000000 ) ) ;
#243 = EDGE_LOOP ( 'NONE', ( #663, #1280, #48, #63 ) ) ;
#244 = DIRECTION ( 'NONE',  ( -1.000000000000000000, 0.0000000000000000000, -0.0000000000000000000 ) ) ;
#245 = FACE_OUTER_BOUND ( 'NONE', #1032, .T. ) ;
#246 = AXIS2_PLACEMENT_3D ( 'NONE', #1314, #1211, #575 ) ;
#247 = VECTOR ( 'NONE', #908, 1000.000000000000000 ) ;
#248 = AXIS2_PLACEMENT_3D ( 'NONE', #833, #1150, #808 ) ;
#249 = FACE_OUTER_BOUND ( 'NONE', #473, .T. ) ;
#250 = CARTESIAN_POINT ( 'NONE',  ( 1.899999999999999911, 9.399999999999998579, -34.64999999999999858 ) ) ;
#251 = VECTOR ( 'NONE', #857, 1000.000000000000000 ) ;
#252 = ORIENTED_EDGE ( 'NONE', *, *, #472, .T. ) ;
#253 = DIRECTION ( 'NONE',  ( 0.0000000000000000000, -0.0000000000000000000, 1.000000000000000000 ) ) ;
#254 = PLANE ( 'NONE',  #381 ) ;
#255 = ORIENTED_EDGE ( 'NONE', *, *, #356, .T. ) ;
#256 = LINE ( 'NONE', #756, #869 ) ;
#257 = DIRECTION ( 'NONE',  ( 0.0000000000000000000, 1.000000000000000000, 0.0000000000000000000 ) ) ;
#258 = EDGE_CURVE ( 'NONE', #171, #849, #481, .T. ) ;
#259 = ORIENTED_EDGE ( 'NONE', *, *, #289, .T. ) ;
#260 = DIRECTION ( 'NONE',  ( 0.0000000000000000000, 1.294735348977192938E-16, 1.000000000000000000 ) ) ;
#261 = ORIENTED_EDGE ( 'NONE', *, *, #1078, .F. ) ;
#262 = CARTESIAN_POINT ( 'NONE',  ( -1.899999999999999911, 7.899999999999995914, -25.89828620070652576 ) ) ;
#263 = CARTESIAN_POINT ( 'NONE',  ( 1.899999999999999911, 7.599999999999998757, -27.36798004637643800 ) ) ;
#264 = ORIENTED_EDGE ( 'NONE', *, *, #686, .F. ) ;
#265 = FACE_OUTER_BOUND ( 'NONE', #313, .T. ) ;
#266 = ADVANCED_FACE ( 'NONE', ( #530 ), #741, .T. ) ;
#267 = EDGE_LOOP ( 'NONE', ( #825, #339, #753, #1220 ) ) ;
#268 = AXIS2_PLACEMENT_3D ( 'NONE', #1322, #61, #790 ) ;
#269 = ORIENTED_EDGE ( 'NONE', *, *, #1245, .F. ) ;
#270 = DIRECTION ( 'NONE',  ( -1.000000000000000000, -0.0000000000000000000, -0.0000000000000000000 ) ) ;
#271 = CARTESIAN_POINT ( 'NONE',  ( 1.899999999999999911, 7.599999999999998757, -27.36798004637643800 ) ) ;
#272 = VECTOR ( 'NONE', #236, 1000.000000000000000 ) ;
#273 = ORIENTED_EDGE ( 'NONE', *, *, #80, .T. ) ;
#274 = DIRECTION ( 'NONE',  ( 0.0000000000000000000, -1.000000000000000000, 0.0000000000000000000 ) ) ;
#275 = EDGE_CURVE ( 'NONE', #1007, #864, #769, .T. ) ;
#276 = LINE ( 'NONE', #995, #354 ) ;
#277 = ORIENTED_EDGE ( 'NONE', *, *, #593, .F. ) ;
#278 = LINE ( 'NONE', #1087, #154 ) ;
#279 = EDGE_LOOP ( 'NONE', ( #495, #41, #463, #1297 ) ) ;
#280 = PLANE ( 'NONE',  #224 ) ;
#281 = CARTESIAN_POINT ( 'NONE',  ( 1.899999999999999911, -8.100000000000004974, -1.000000000000000000 ) ) ;
#282 = ADVANCED_FACE ( 'NONE', ( #265 ), #1185, .T. ) ;
#283 = VERTEX_POINT ( 'NONE', #351 ) ;
#284 = DIRECTION ( 'NONE',  ( 0.0000000000000000000, 1.000000000000000000, 0.0000000000000000000 ) ) ;
#285 = CARTESIAN_POINT ( 'NONE',  ( 1.899999999999999911, 6.100000000000002309, -7.536684865834063956E-16 ) ) ;
#286 = ORIENTED_EDGE ( 'NONE', *, *, #1303, .F. ) ;
#287 = COLOUR_RGB ( '',0.8274509803921568096, 0.8392156862745098200, 0.8274509803921568096 ) ;
#288 = CIRCLE ( 'NONE', #94, 0.9999999999999991118 ) ;
#289 = EDGE_CURVE ( 'NONE', #758, #830, #971, .T. ) ;
#290 = CARTESIAN_POINT ( 'NONE',  ( -1.899999999999999911, 8.099999999999999645, -24.91849030359325923 ) ) ;
#291 = VECTOR ( 'NONE', #471, 1000.000000000000000 ) ;
#292 = VECTOR ( 'NONE', #8, 1000.000000000000000 ) ;
#293 = ORIENTED_EDGE ( 'NONE', *, *, #1342, .T. ) ;
#294 = ORIENTED_EDGE ( 'NONE', *, *, #669, .F. ) ;
#295 = ORIENTED_EDGE ( 'NONE', *, *, #338, .F. ) ;
#296 = DIRECTION ( 'NONE',  ( -1.000000000000000000, -0.0000000000000000000, -0.0000000000000000000 ) ) ;
#297 = EDGE_CURVE ( 'NONE', #852, #1176, #652, .T. ) ;
#298 = DIRECTION ( 'NONE',  ( -0.7071067811865463515, 0.7071067811865487940, -0.0000000000000000000 ) ) ;
#299 = CARTESIAN_POINT ( 'NONE',  ( 1.899999999999999911, 9.599999999999997868, -14.89828620070652399 ) ) ;
#300 = CARTESIAN_POINT ( 'NONE',  ( -1.899999999999999911, 8.099999999999999645, 0.0000000000000000000 ) ) ;
#301 = EDGE_CURVE ( 'NONE', #547, #283, #868, .T. ) ;
#302 = DIRECTION ( 'NONE',  ( 1.000000000000000000, 0.0000000000000000000, 0.0000000000000000000 ) ) ;
#303 = CARTESIAN_POINT ( 'NONE',  ( -1.899999999999999911, 8.099999999999999645, -17.89828620070652576 ) ) ;
#304 = EDGE_LOOP ( 'NONE', ( #893, #1304, #855, #214 ) ) ;
#305 = ORIENTED_EDGE ( 'NONE', *, *, #633, .T. ) ;
#306 = LINE ( 'NONE', #415, #1133 ) ;
#307 = AXIS2_PLACEMENT_3D ( 'NONE', #1085, #1190, #984 ) ;
#308 = AXIS2_PLACEMENT_3D ( 'NONE', #890, #878, #1298 ) ;
#309 = DIRECTION ( 'NONE',  ( -1.000000000000000000, 0.0000000000000000000, -0.0000000000000000000 ) ) ;
#310 = CIRCLE ( 'NONE', #962, 1.000000000000000888 ) ;
#311 = AXIS2_PLACEMENT_3D ( 'NONE', #235, #13, #534 ) ;
#312 = EDGE_CURVE ( 'NONE', #651, #1149, #42, .T. ) ;
#313 = EDGE_LOOP ( 'NONE', ( #458, #205, #1145, #1169 ) ) ;
#314 = ORIENTED_EDGE ( 'NONE', *, *, #412, .T. ) ;
#315 = LINE ( 'NONE', #1068, #872 ) ;
#316 = CARTESIAN_POINT ( 'NONE',  ( 1.899999999999999911, 9.599999999999997868, -14.89828620070652399 ) ) ;
#317 = FACE_OUTER_BOUND ( 'NONE', #1172, .T. ) ;
#318 = VERTEX_POINT ( 'NONE', #36 ) ;
#319 = DIRECTION ( 'NONE',  ( 0.0000000000000000000, 0.0000000000000000000, -1.000000000000000000 ) ) ;
#320 = CARTESIAN_POINT ( 'NONE',  ( 2.450000000000000178, 6.549999999999998934, -11.89828620070652576 ) ) ;
#321 = ORIENTED_EDGE ( 'NONE', *, *, #185, .T. ) ;
#322 = CARTESIAN_POINT ( 'NONE',  ( 1.900000000000000577, 6.549999999999998934, -11.89828620070652576 ) ) ;
#323 = ORIENTED_EDGE ( 'NONE', *, *, #1061, .F. ) ;
#324 = EDGE_CURVE ( 'NONE', #129, #1160, #661, .T. ) ;
#325 = LINE ( 'NONE', #917, #1331 ) ;
#326 = PLANE ( 'NONE',  #113 ) ;
#327 = EDGE_CURVE ( 'NONE', #1202, #333, #668, .T. ) ;
#328 = ORIENTED_EDGE ( 'NONE', *, *, #710, .T. ) ;
#329 = DIRECTION ( 'NONE',  ( 0.0000000000000000000, 0.0000000000000000000, 1.000000000000000000 ) ) ;
#330 = CARTESIAN_POINT ( 'NONE',  ( 2.450000000000000178, 10.59999999999999787, -11.89828620070652576 ) ) ;
#331 = CIRCLE ( 'NONE', #702, 2.000000000000001776 ) ;
#332 = AXIS2_PLACEMENT_3D ( 'NONE', #617, #720, #434 ) ;
#333 = VERTEX_POINT ( 'NONE', #557 ) ;
#334 = DIRECTION ( 'NONE',  ( -0.0000000000000000000, 1.000000000000000000, 0.0000000000000000000 ) ) ;
#335 = DIRECTION ( 'NONE',  ( -0.0000000000000000000, -0.0000000000000000000, 1.000000000000000000 ) ) ;
#336 = DIRECTION ( 'NONE',  ( 1.000000000000000000, -0.0000000000000000000, 0.0000000000000000000 ) ) ;
#337 = CARTESIAN_POINT ( 'NONE',  ( -1.899999999999999911, 6.099999999999999645, -17.89828620070652576 ) ) ;
#338 = EDGE_CURVE ( 'NONE', #108, #1324, #891, .T. ) ;
#339 = ORIENTED_EDGE ( 'NONE', *, *, #767, .T. ) ;
#340 = DIRECTION ( 'NONE',  ( -1.000000000000000000, -0.0000000000000000000, -0.0000000000000000000 ) ) ;
#341 = LINE ( 'NONE', #683, #762 ) ;
#342 = ORIENTED_EDGE ( 'NONE', *, *, #1191, .F. ) ;
#343 = CARTESIAN_POINT ( 'NONE',  ( -1.899999999999999911, 9.099999999999997868, 0.0000000000000000000 ) ) ;
#344 = LINE ( 'NONE', #330, #1313 ) ;
#345 = EDGE_CURVE ( 'NONE', #1243, #1007, #912, .T. ) ;
#346 = ORIENTED_EDGE ( 'NONE', *, *, #153, .F. ) ;
#347 = VERTEX_POINT ( 'NONE', #380 ) ;
#348 = CARTESIAN_POINT ( 'NONE',  ( 2.450000000000000178, 6.549999999999998934, -12.89828620070652576 ) ) ;
#349 = DIRECTION ( 'NONE',  ( 0.0000000000000000000, 0.0000000000000000000, -1.000000000000000000 ) ) ;
#350 = VERTEX_POINT ( 'NONE', #363 ) ;
#351 = CARTESIAN_POINT ( 'NONE',  ( 1.899999999999999911, -8.100000000000004974, 0.0000000000000000000 ) ) ;
#352 = LINE ( 'NONE', #760, #526 ) ;
#353 = STYLED_ITEM ( 'NONE', ( #390 ), #517 ) ;
#354 = VECTOR ( 'NONE', #687, 999.9999999999998863 ) ;
#355 = STYLED_ITEM ( 'NONE', ( #694 ), #794 ) ;
#356 = EDGE_CURVE ( 'NONE', #123, #758, #466, .T. ) ;
#357 = AXIS2_PLACEMENT_3D ( 'NONE', #1081, #1282, #749 ) ;
#358 = ORIENTED_EDGE ( 'NONE', *, *, #412, .F. ) ;
#359 = DIRECTION ( 'NONE',  ( 1.000000000000000000, 0.0000000000000000000, -0.0000000000000000000 ) ) ;
#360 = CARTESIAN_POINT ( 'NONE',  ( 1.899999999999999911, 10.59999999999999787, -11.89828620070652576 ) ) ;
#361 = CIRCLE ( 'NONE', #46, 2.000000000000001776 ) ;
#362 = ORIENTED_EDGE ( 'NONE', *, *, #239, .F. ) ;
#363 = CARTESIAN_POINT ( 'NONE',  ( 1.899999999999999911, 6.099999999999998757, -24.91849030359325923 ) ) ;
#364 = ADVANCED_FACE ( 'NONE', ( #1080 ), #780, .F. ) ;
#365 = VERTEX_POINT ( 'NONE', #369 ) ;
#366 = PLANE ( 'NONE',  #807 ) ;
#367 = CARTESIAN_POINT ( 'NONE',  ( -1.899999999999999911, 9.099999999999999645, -1.000000000000000000 ) ) ;
#368 = ORIENTED_EDGE ( 'NONE', *, *, #1255, .F. ) ;
#369 = CARTESIAN_POINT ( 'NONE',  ( 1.899999999999999911, 9.399999999999998579, -34.38359554925036576 ) ) ;
#370 = PLANE ( 'NONE',  #47 ) ;
#371 = EDGE_LOOP ( 'NONE', ( #261, #24, #856, #608 ) ) ;
#372 = CARTESIAN_POINT ( 'NONE',  ( 1.899999999999999911, 9.099999999999999645, -1.000000000000000000 ) ) ;
#373 = CARTESIAN_POINT ( 'NONE',  ( 1.899999999999999911, 8.184102619425532410, -32.82525359323090441 ) ) ;
#374 = ORIENTED_EDGE ( 'NONE', *, *, #1055, .T. ) ;
#375 = LINE ( 'NONE', #1177, #719 ) ;
#376 = ORIENTED_EDGE ( 'NONE', *, *, #1055, .F. ) ;
#377 = VECTOR ( 'NONE', #685, 1000.000000000000000 ) ;
#378 = ORIENTED_EDGE ( 'NONE', *, *, #566, .F. ) ;
#379 = CARTESIAN_POINT ( 'NONE',  ( -1.899999999999999911, 8.599999999999997868, -14.89828620070652576 ) ) ;
#380 = CARTESIAN_POINT ( 'NONE',  ( -1.899999999999999911, 10.09999999999999787, -34.64999999999999858 ) ) ;
#381 = AXIS2_PLACEMENT_3D ( 'NONE', #632, #531, #127 ) ;
#382 = DIRECTION ( 'NONE',  ( 0.0000000000000000000, -1.235522109153125004E-16, -1.000000000000000000 ) ) ;
#383 = VERTEX_POINT ( 'NONE', #774 ) ;
#384 = SURFACE_SIDE_STYLE ('',( #394 ) ) ;
#385 = CARTESIAN_POINT ( 'NONE',  ( 1.899999999999999911, 7.099999999999998757, -17.89828620070652576 ) ) ;
#386 = EDGE_CURVE ( 'NONE', #576, #937, #885, .T. ) ;
#387 = EDGE_LOOP ( 'NONE', ( #428, #1154, #993, #467 ) ) ;
#388 = EDGE_CURVE ( 'NONE', #802, #886, #375, .T. ) ;
#389 = ORIENTED_EDGE ( 'NONE', *, *, #566, .T. ) ;
#390 = PRESENTATION_STYLE_ASSIGNMENT (( #204 ) ) ;
#391 = DIRECTION ( 'NONE',  ( 0.0000000000000000000, 0.9848077530122082424, -0.1736481776669295263 ) ) ;
#392 = FACE_OUTER_BOUND ( 'NONE', #1293, .T. ) ;
#393 = ORIENTED_EDGE ( 'NONE', *, *, #177, .T. ) ;
#394 = SURFACE_STYLE_FILL_AREA ( #907 ) ;
#395 = AXIS2_PLACEMENT_3D ( 'NONE', #303, #717, #121 ) ;
#396 = DIRECTION ( 'NONE',  ( 0.2651564830210426660, -1.248390805737506564E-16, -0.9642053928037902510 ) ) ;
#397 = AXIS2_PLACEMENT_3D ( 'NONE', #1205, #1018, #584 ) ;
#398 = VECTOR ( 'NONE', #298, 1000.000000000000000 ) ;
#399 = CARTESIAN_POINT ( 'NONE',  ( -2.450000000000000178, 10.59999999999999787, -11.89828620070652576 ) ) ;
#400 = AXIS2_PLACEMENT_3D ( 'NONE', #39, #1186, #765 ) ;
#401 = DIRECTION ( 'NONE',  ( -1.000000000000000000, -0.0000000000000000000, -0.0000000000000000000 ) ) ;
#402 = ORIENTED_EDGE ( 'NONE', *, *, #943, .T. ) ;
#403 = EDGE_CURVE ( 'NONE', #333, #731, #1309, .T. ) ;
#404 = ORIENTED_EDGE ( 'NONE', *, *, #1188, .T. ) ;
#405 = CARTESIAN_POINT ( 'NONE',  ( 1.899999999999999911, 7.699999999999987743, -26.87808209781980295 ) ) ;
#406 = CARTESIAN_POINT ( 'NONE',  ( 1.899999999999999911, 7.699999999999987743, -26.87808209781980295 ) ) ;
#407 = CARTESIAN_POINT ( 'NONE',  ( 2.450000000000000178, 10.59999999999999787, -11.89828620070652576 ) ) ;
#408 = ORIENTED_EDGE ( 'NONE', *, *, #297, .F. ) ;
#409 = ORIENTED_EDGE ( 'NONE', *, *, #112, .T. ) ;
#410 = DIRECTION ( 'NONE',  ( 1.000000000000000000, -0.0000000000000000000, 0.0000000000000000000 ) ) ;
#411 = CARTESIAN_POINT ( 'NONE',  ( 0.9000000000000025757, -9.099999999999997868, 0.0000000000000000000 ) ) ;
#412 = EDGE_CURVE ( 'NONE', #1143, #116, #977, .T. ) ;
#413 = ORIENTED_EDGE ( 'NONE', *, *, #1292, .F. ) ;
#414 = ORIENTED_EDGE ( 'NONE', *, *, #1144, .F. ) ;
#415 = CARTESIAN_POINT ( 'NONE',  ( -1.899999999999999911, 0.0000000000000000000, -1.000000000000000000 ) ) ;
#416 = VECTOR ( 'NONE', #1170, 1000.000000000000114 ) ;
#417 = AXIS2_PLACEMENT_3D ( 'NONE', #263, #1183, #1286 ) ;
#418 = DIRECTION ( 'NONE',  ( -1.000000000000000000, -0.0000000000000000000, -0.0000000000000000000 ) ) ;
#419 = ORIENTED_EDGE ( 'NONE', *, *, #812, .T. ) ;
#420 = DIRECTION ( 'NONE',  ( 0.0000000000000000000, -1.294735348977192938E-16, -1.000000000000000000 ) ) ;
#421 = CARTESIAN_POINT ( 'NONE',  ( 1.899999999999999911, 8.099999999999999645, -17.89828620070652576 ) ) ;
#422 = CARTESIAN_POINT ( 'NONE',  ( 1.899999999999999911, 9.099999999999997868, -31.06798004637644084 ) ) ;
#423 = LINE ( 'NONE', #322, #180 ) ;
#424 = EDGE_CURVE ( 'NONE', #830, #745, #1072, .T. ) ;
#425 = ORIENTED_EDGE ( 'NONE', *, *, #88, .F. ) ;
#426 = EDGE_CURVE ( 'NONE', #1222, #1012, #496, .T. ) ;
#427 = DIRECTION ( 'NONE',  ( -1.000000000000000000, -0.0000000000000000000, -0.0000000000000000000 ) ) ;
#428 = ORIENTED_EDGE ( 'NONE', *, *, #1180, .F. ) ;
#429 = DIRECTION ( 'NONE',  ( 0.0000000000000000000, 0.0000000000000000000, -1.000000000000000000 ) ) ;
#430 = CARTESIAN_POINT ( 'NONE',  ( 1.899999999999999911, -0.5704417007941452455, -0.1528493930568240178 ) ) ;
#431 = EDGE_CURVE ( 'NONE', #957, #182, #1227, .T. ) ;
#432 = ORIENTED_EDGE ( 'NONE', *, *, #1296, .T. ) ;
#433 = LINE ( 'NONE', #1155, #1134 ) ;
#434 = DIRECTION ( 'NONE',  ( 0.0000000000000000000, 0.0000000000000000000, 1.000000000000000000 ) ) ;
#435 = EDGE_LOOP ( 'NONE', ( #12, #1036, #1181, #582 ) ) ;
#436 = DIRECTION ( 'NONE',  ( 0.0000000000000000000, 0.0000000000000000000, -1.000000000000000000 ) ) ;
#437 = CARTESIAN_POINT ( 'NONE',  ( -1.899999999999999911, 8.099999999999999645, -27.36798004637643800 ) ) ;
#438 = VECTOR ( 'NONE', #599, 1000.000000000000000 ) ;
#439 = AXIS2_PLACEMENT_3D ( 'NONE', #832, #1156, #230 ) ;
#440 = VECTOR ( 'NONE', #723, 1000.000000000000000 ) ;
#441 = ORIENTED_EDGE ( 'NONE', *, *, #1237, .T. ) ;
#442 = DIRECTION ( 'NONE',  ( 0.0000000000000000000, 0.0000000000000000000, -1.000000000000000000 ) ) ;
#443 = CARTESIAN_POINT ( 'NONE',  ( 1.899999999999999911, 10.09999999999999787, -34.64999999999999858 ) ) ;
#444 = ORIENTED_EDGE ( 'NONE', *, *, #781, .F. ) ;
#445 = CARTESIAN_POINT ( 'NONE',  ( 1.899999999999999911, -8.100000000000004974, -1.000000000000000000 ) ) ;
#446 = DIRECTION ( 'NONE',  ( 1.000000000000000000, -0.0000000000000000000, 0.0000000000000000000 ) ) ;
#447 = ORIENTED_EDGE ( 'NONE', *, *, #969, .T. ) ;
#448 = ORIENTED_EDGE ( 'NONE', *, *, #1332, .F. ) ;
#449 = CARTESIAN_POINT ( 'NONE',  ( -1.899999999999999911, 10.09999999999999787, 0.0000000000000000000 ) ) ;
#450 = LINE ( 'NONE', #578, #291 ) ;
#451 = ORIENTED_EDGE ( 'NONE', *, *, #1123, .T. ) ;
#452 = DIRECTION ( 'NONE',  ( -1.000000000000000000, -0.0000000000000000000, -0.0000000000000000000 ) ) ;
#453 = PLANE ( 'NONE',  #357 ) ;
#454 = EDGE_CURVE ( 'NONE', #10, #1241, #1, .T. ) ;
#455 = ORIENTED_EDGE ( 'NONE', *, *, #1095, .T. ) ;
#456 = CARTESIAN_POINT ( 'NONE',  ( 1.899999999999999911, 8.099999999999999645, -27.36798004637643800 ) ) ;
#457 = DIRECTION ( 'NONE',  ( 0.0000000000000000000, 0.0000000000000000000, 1.000000000000000000 ) ) ;
#458 = ORIENTED_EDGE ( 'NONE', *, *, #499, .F. ) ;
#459 = CARTESIAN_POINT ( 'NONE',  ( -1.899999999999999911, 0.0000000000000000000, 0.0000000000000000000 ) ) ;
#460 = AXIS2_PLACEMENT_3D ( 'NONE', #604, #1025, #508 ) ;
#461 = EDGE_CURVE ( 'NONE', #1007, #383, #1117, .T. ) ;
#462 = EDGE_LOOP ( 'NONE', ( #1016, #1071, #1204, #983 ) ) ;
#463 = ORIENTED_EDGE ( 'NONE', *, *, #28, .F. ) ;
#464 = CARTESIAN_POINT ( 'NONE',  ( 2.450000000000000178, 6.549999999999998934, -11.89828620070652576 ) ) ;
#465 = AXIS2_PLACEMENT_3D ( 'NONE', #421, #643, #841 ) ;
#466 = LINE ( 'NONE', #474, #1132 ) ;
#467 = ORIENTED_EDGE ( 'NONE', *, *, #104, .T. ) ;
#468 = ADVANCED_FACE ( 'NONE', ( #1325 ), #707, .T. ) ;
#469 = VERTEX_POINT ( 'NONE', #701 ) ;
#470 = LINE ( 'NONE', #770, #824 ) ;
#471 = DIRECTION ( 'NONE',  ( -1.000000000000000000, 0.0000000000000000000, 0.0000000000000000000 ) ) ;
#472 = EDGE_CURVE ( 'NONE', #318, #886, #184, .T. ) ;
#473 = EDGE_LOOP ( 'NONE', ( #970, #515, #1299, #783 ) ) ;
#474 = CARTESIAN_POINT ( 'NONE',  ( 2.450000000000000178, 9.599999999999997868, -12.89828620070652576 ) ) ;
#475 = CARTESIAN_POINT ( 'NONE',  ( -1.900000000000000577, 6.549999999999998934, -11.89828620070652576 ) ) ;
#476 = EDGE_LOOP ( 'NONE', ( #59, #293, #817, #657, #139, #902, #189, #295 ) ) ;
#477 = CARTESIAN_POINT ( 'NONE',  ( 1.899999999999999911, 8.099999999999999645, -17.89828620070652576 ) ) ;
#478 = EDGE_CURVE ( 'NONE', #1043, #1075, #79, .T. ) ;
#479 = DIRECTION ( 'NONE',  ( 0.2651564830210426660, 1.248390805737506564E-16, 0.9642053928037902510 ) ) ;
#480 = CYLINDRICAL_SURFACE ( 'NONE', #246, 2.120000000000003659 ) ;
#481 = CIRCLE ( 'NONE', #1310, 0.9999999999999974465 ) ;
#482 = AXIS2_PLACEMENT_3D ( 'NONE', #487, #71, #504 ) ;
#483 = VERTEX_POINT ( 'NONE', #1223 ) ;
#484 = FACE_OUTER_BOUND ( 'NONE', #980, .T. ) ;
#485 = VECTOR ( 'NONE', #1013, 1000.000000000000000 ) ;
#486 = VERTEX_POINT ( 'NONE', #601 ) ;
#487 = CARTESIAN_POINT ( 'NONE',  ( 1.899999999999999911, 0.0000000000000000000, -16.89828620070652576 ) ) ;
#488 = EDGE_CURVE ( 'NONE', #651, #318, #788, .T. ) ;
#489 = CYLINDRICAL_SURFACE ( 'NONE', #524, 0.5000000000000004441 ) ;
#490 = ORIENTED_EDGE ( 'NONE', *, *, #185, .F. ) ;
#491 = DIRECTION ( 'NONE',  ( 0.0000000000000000000, 0.0000000000000000000, 1.000000000000000000 ) ) ;
#492 = CARTESIAN_POINT ( 'NONE',  ( 1.899999999999999911, 14.13853891872620494, -2.493005879168104677 ) ) ;
#493 = ADVANCED_FACE ( 'NONE', ( #512 ), #197, .T. ) ;
#494 = LINE ( 'NONE', #904, #782 ) ;
#495 = ORIENTED_EDGE ( 'NONE', *, *, #301, .F. ) ;
#496 = LINE ( 'NONE', #1214, #820 ) ;
#497 = LINE ( 'NONE', #1347, #1200 ) ;
#498 = DIRECTION ( 'NONE',  ( 0.0000000000000000000, 1.000000000000000000, 0.0000000000000000000 ) ) ;
#499 = EDGE_CURVE ( 'NONE', #182, #581, #86, .T. ) ;
#500 = ORIENTED_EDGE ( 'NONE', *, *, #873, .T. ) ;
#501 = VECTOR ( 'NONE', #658, 1000.000000000000000 ) ;
#502 = VECTOR ( 'NONE', #55, 1000.000000000000000 ) ;
#503 = DIRECTION ( 'NONE',  ( 0.0000000000000000000, -0.0000000000000000000, 1.000000000000000000 ) ) ;
#504 = DIRECTION ( 'NONE',  ( -1.000000000000000000, 0.0000000000000000000, -0.0000000000000000000 ) ) ;
#505 = VECTOR ( 'NONE', #396, 1000.000000000000000 ) ;
#506 = AXIS2_PLACEMENT_3D ( 'NONE', #938, #124, #628 ) ;
#507 = DIRECTION ( 'NONE',  ( 1.000000000000000000, -0.0000000000000000000, 0.0000000000000000000 ) ) ;
#508 = DIRECTION ( 'NONE',  ( 1.000000000000000000, 0.0000000000000000000, -0.0000000000000000000 ) ) ;
#509 = ORIENTED_EDGE ( 'NONE', *, *, #827, .F. ) ;
#510 = CARTESIAN_POINT ( 'NONE',  ( 1.899999999999999911, 8.099999999999999645, -24.91849030359325923 ) ) ;
#511 = ADVANCED_FACE ( 'NONE', ( #101 ), #190, .T. ) ;
#512 = FACE_OUTER_BOUND ( 'NONE', #462, .T. ) ;
#513 = CARTESIAN_POINT ( 'NONE',  ( 1.899999999999999911, 9.667666535919632764, -34.49828620070652363 ) ) ;
#514 = PRODUCT_DEFINITION_CONTEXT ( 'detailed design', #920, 'design' ) ;
#515 = ORIENTED_EDGE ( 'NONE', *, *, #112, .F. ) ;
#516 = DIRECTION ( 'NONE',  ( 0.0000000000000000000, 0.0000000000000000000, -1.000000000000000000 ) ) ;
#517 = ADVANCED_BREP_SHAPE_REPRESENTATION ( 'C83346FD-CB08-4AF0-AA92-C34249F0DE30', ( #794, #1326 ), #1291 ) ;
#518 = ORIENTED_EDGE ( 'NONE', *, *, #186, .T. ) ;
#519 = DIRECTION ( 'NONE',  ( -1.000000000000000000, -0.0000000000000000000, -0.0000000000000000000 ) ) ;
#520 = ORIENTED_EDGE ( 'NONE', *, *, #538, .F. ) ;
#521 = CARTESIAN_POINT ( 'NONE',  ( 1.899999999999999911, 8.099999999999999645, 0.0000000000000000000 ) ) ;
#522 = DIRECTION ( 'NONE',  ( 0.0000000000000000000, 0.0000000000000000000, -1.000000000000000000 ) ) ;
#523 = PRODUCT_DEFINITION_FORMATION_WITH_SPECIFIED_SOURCE ( 'ANY', '', #536, .NOT_KNOWN. ) ;
#524 = AXIS2_PLACEMENT_3D ( 'NONE', #795, #1103, #595 ) ;
#525 = LINE ( 'NONE', #602, #292 ) ;
#526 = VECTOR ( 'NONE', #1274, 1000.000000000000000 ) ;
#527 = ORIENTED_EDGE ( 'NONE', *, *, #9, .T. ) ;
#528 = DIRECTION ( 'NONE',  ( 0.0000000000000000000, -0.0000000000000000000, 1.000000000000000000 ) ) ;
#529 = CARTESIAN_POINT ( 'NONE',  ( -2.450000000000000178, 9.599999999999997868, -12.89828620070652576 ) ) ;
#530 = FACE_OUTER_BOUND ( 'NONE', #146, .T. ) ;
#531 = DIRECTION ( 'NONE',  ( 0.0000000000000000000, 1.000000000000000000, -1.294735348977192938E-16 ) ) ;
#532 = ADVANCED_FACE ( 'NONE', ( #925 ), #280, .T. ) ;
#533 = EDGE_LOOP ( 'NONE', ( #414, #764, #559, #44 ) ) ;
#534 = DIRECTION ( 'NONE',  ( 0.0000000000000000000, 0.0000000000000000000, -1.000000000000000000 ) ) ;
#535 = DIRECTION ( 'NONE',  ( 0.0000000000000000000, 1.000000000000000000, 0.0000000000000000000 ) ) ;
#536 = PRODUCT ( 'C83346FD-CB08-4AF0-AA92-C34249F0DE30', 'C83346FD-CB08-4AF0-AA92-C34249F0DE30', '', ( #698 ) ) ;
#537 = DIRECTION ( 'NONE',  ( 0.0000000000000000000, 0.0000000000000000000, 1.000000000000000000 ) ) ;
#538 = EDGE_CURVE ( 'NONE', #845, #103, #1335, .T. ) ;
#539 = ORIENTED_EDGE ( 'NONE', *, *, #1094, .T. ) ;
#540 = DIRECTION ( 'NONE',  ( 0.0000000000000000000, 0.0000000000000000000, -1.000000000000000000 ) ) ;
#541 = CYLINDRICAL_SURFACE ( 'NONE', #332, 2.000000000000001776 ) ;
#542 = ORIENTED_EDGE ( 'NONE', *, *, #499, .T. ) ;
#543 = CARTESIAN_POINT ( 'NONE',  ( 1.899999999999999911, 7.099999999999998757, -24.91849030359325923 ) ) ;
#544 = LINE ( 'NONE', #847, #987 ) ;
#545 = AXIS2_PLACEMENT_3D ( 'NONE', #591, #120, #516 ) ;
#546 = VECTOR ( 'NONE', #519, 1000.000000000000000 ) ;
#547 = VERTEX_POINT ( 'NONE', #609 ) ;
#548 = ORIENTED_EDGE ( 'NONE', *, *, #1180, .T. ) ;
#549 = CARTESIAN_POINT ( 'NONE',  ( -1.899999999999999911, 8.599999999999997868, -16.89828620070652576 ) ) ;
#550 = FILL_AREA_STYLE_COLOUR ( '', #935 ) ;
#551 = ADVANCED_FACE ( 'NONE', ( #1341 ), #690, .F. ) ;
#552 = CARTESIAN_POINT ( 'NONE',  ( 1.899999999999999911, 9.599999999999999645, -1.499999999999998224 ) ) ;
#553 = VERTEX_POINT ( 'NONE', #385 ) ;
#554 = DIRECTION ( 'NONE',  ( 0.0000000000000000000, 1.000000000000000000, -1.235522109153125004E-16 ) ) ;
#555 = DIRECTION ( 'NONE',  ( -1.000000000000000000, -0.0000000000000000000, -0.0000000000000000000 ) ) ;
#556 = ORIENTED_EDGE ( 'NONE', *, *, #969, .F. ) ;
#557 = CARTESIAN_POINT ( 'NONE',  ( -1.899999999999999911, 8.599999999999997868, -15.89828620070652576 ) ) ;
#558 = ADVANCED_FACE ( 'NONE', ( #1210 ), #1111, .T. ) ;
#559 = ORIENTED_EDGE ( 'NONE', *, *, #88, .T. ) ;
#560 = DIRECTION ( 'NONE',  ( 0.0000000000000000000, -1.294735348977192938E-16, -1.000000000000000000 ) ) ;
#561 = CYLINDRICAL_SURFACE ( 'NONE', #23, 1.000000000000000888 ) ;
#562 = ORIENTED_EDGE ( 'NONE', *, *, #38, .F. ) ;
#563 = DIRECTION ( 'NONE',  ( -0.0000000000000000000, 1.000000000000000000, 0.0000000000000000000 ) ) ;
#564 = EDGE_CURVE ( 'NONE', #979, #976, #929, .T. ) ;
#565 = VECTOR ( 'NONE', #674, 1000.000000000000000 ) ;
#566 = EDGE_CURVE ( 'NONE', #123, #318, #939, .T. ) ;
#567 = CARTESIAN_POINT ( 'NONE',  ( -1.899999999999999911, 7.099999999999998757, -24.91849030359325923 ) ) ;
#568 =( GEOMETRIC_REPRESENTATION_CONTEXT ( 3 ) GLOBAL_UNCERTAINTY_ASSIGNED_CONTEXT ( ( #203 ) ) GLOBAL_UNIT_ASSIGNED_CONTEXT ( ( #594, #161, #81 ) ) REPRESENTATION_CONTEXT ( 'NONE', 'WORKASPACE' ) );
#569 = CIRCLE ( 'NONE', #680, 1.000000000000000888 ) ;
#570 = ORIENTED_EDGE ( 'NONE', *, *, #1318, .F. ) ;
#571 = PLANE ( 'NONE',  #763 ) ;
#572 = LINE ( 'NONE', #992, #1050 ) ;
#573 = VERTEX_POINT ( 'NONE', #1234 ) ;
#574 = CARTESIAN_POINT ( 'NONE',  ( 1.899999999999999911, 9.099999999999997868, 0.0000000000000000000 ) ) ;
#575 = DIRECTION ( 'NONE',  ( 0.0000000000000000000, 0.0000000000000000000, 1.000000000000000000 ) ) ;
#576 = VERTEX_POINT ( 'NONE', #422 ) ;
#577 = LINE ( 'NONE', #1194, #227 ) ;
#578 = CARTESIAN_POINT ( 'NONE',  ( -2.450000000000000178, 9.599999999999997868, -11.89828620070652576 ) ) ;
#579 = CARTESIAN_POINT ( 'NONE',  ( 1.899999999999999911, 9.099999999999997868, -1.499999999999998224 ) ) ;
#580 = CARTESIAN_POINT ( 'NONE',  ( 1.899999999999999911, 9.099999999999997868, 0.0000000000000000000 ) ) ;
#581 = VERTEX_POINT ( 'NONE', #131 ) ;
#582 = ORIENTED_EDGE ( 'NONE', *, *, #1303, .T. ) ;
#583 = DIRECTION ( 'NONE',  ( 0.0000000000000000000, 0.0000000000000000000, -1.000000000000000000 ) ) ;
#584 = DIRECTION ( 'NONE',  ( 0.0000000000000000000, 0.0000000000000000000, 1.000000000000000000 ) ) ;
#585 = ORIENTED_EDGE ( 'NONE', *, *, #1094, .F. ) ;
#586 = VECTOR ( 'NONE', #296, 1000.000000000000000 ) ;
#587 = AXIS2_PLACEMENT_3D ( 'NONE', #1069, #876, #34 ) ;
#588 = ORIENTED_EDGE ( 'NONE', *, *, #1086, .T. ) ;
#589 =( NAMED_UNIT ( * ) PLANE_ANGLE_UNIT ( ) SI_UNIT ( $, .RADIAN. ) );
#590 = VECTOR ( 'NONE', #302, 1000.000000000000000 ) ;
#591 = CARTESIAN_POINT ( 'NONE',  ( 1.899999999999999911, 0.0000000000000000000, 0.0000000000000000000 ) ) ;
#592 = VECTOR ( 'NONE', #442, 1000.000000000000000 ) ;
#593 = EDGE_CURVE ( 'NONE', #483, #627, #986, .T. ) ;
#594 =( LENGTH_UNIT ( ) NAMED_UNIT ( * ) SI_UNIT ( .MILLI., .METRE. ) );
#595 = DIRECTION ( 'NONE',  ( 0.0000000000000000000, 0.0000000000000000000, 1.000000000000000000 ) ) ;
#596 = ORIENTED_EDGE ( 'NONE', *, *, #1046, .T. ) ;
#597 = CARTESIAN_POINT ( 'NONE',  ( -1.899999999999999911, 6.549999999999998934, -14.89828620070652399 ) ) ;
#598 = EDGE_CURVE ( 'NONE', #169, #704, #306, .T. ) ;
#599 = DIRECTION ( 'NONE',  ( -1.000000000000000000, -0.0000000000000000000, -0.0000000000000000000 ) ) ;
#600 = ORIENTED_EDGE ( 'NONE', *, *, #301, .T. ) ;
#601 = CARTESIAN_POINT ( 'NONE',  ( -1.899999999999999911, 10.09999999999999787, -35.39999999999999858 ) ) ;
#602 = CARTESIAN_POINT ( 'NONE',  ( 1.899999999999999911, 7.099999999999998757, 0.0000000000000000000 ) ) ;
#603 = EDGE_CURVE ( 'NONE', #573, #815, #310, .T. ) ;
#604 = CARTESIAN_POINT ( 'NONE',  ( -2.450000000000000178, 6.549999999999998934, -11.89828620070652576 ) ) ;
#605 = EDGE_CURVE ( 'NONE', #1143, #887, #206, .T. ) ;
#606 = ORIENTED_EDGE ( 'NONE', *, *, #873, .F. ) ;
#607 = AXIS2_PLACEMENT_3D ( 'NONE', #579, #244, #1289 ) ;
#608 = ORIENTED_EDGE ( 'NONE', *, *, #932, .F. ) ;
#609 = CARTESIAN_POINT ( 'NONE',  ( 0.9000000000000030198, -9.099999999999997868, 0.0000000000000000000 ) ) ;
#610 = CIRCLE ( 'NONE', #417, 0.5000000000000004441 ) ;
#611 = CIRCLE ( 'NONE', #3, 3.599999999999999201 ) ;
#612 = CARTESIAN_POINT ( 'NONE',  ( 1.899999999999999911, 9.099999999999999645, -1.000000000000000000 ) ) ;
#613 = ORIENTED_EDGE ( 'NONE', *, *, #1292, .T. ) ;
#614 = DIRECTION ( 'NONE',  ( 0.0000000000000000000, 0.0000000000000000000, -1.000000000000000000 ) ) ;
#615 = EDGE_CURVE ( 'NONE', #886, #1149, #837, .T. ) ;
#616 = EDGE_LOOP ( 'NONE', ( #660, #930, #1262, #797 ) ) ;
#617 = CARTESIAN_POINT ( 'NONE',  ( 1.899999999999999911, 8.099999999999999645, -24.91849030359325923 ) ) ;
#618 = ORIENTED_EDGE ( 'NONE', *, *, #956, .T. ) ;
#619 = FACE_OUTER_BOUND ( 'NONE', #1253, .T. ) ;
#620 = ORIENTED_EDGE ( 'NONE', *, *, #488, .F. ) ;
#621 = ADVANCED_FACE ( 'NONE', ( #1141 ), #541, .T. ) ;
#622 = CARTESIAN_POINT ( 'NONE',  ( -2.450000000000000178, 10.59999999999999787, -12.89828620070652576 ) ) ;
#623 = PLANE ( 'NONE',  #721 ) ;
#624 = ADVANCED_FACE ( 'NONE', ( #738 ), #7, .F. ) ;
#625 = EDGE_LOOP ( 'NONE', ( #1284, #900, #216, #1276 ) ) ;
#626 = DIRECTION ( 'NONE',  ( 0.0000000000000000000, 0.0000000000000000000, -1.000000000000000000 ) ) ;
#627 = VERTEX_POINT ( 'NONE', #1039 ) ;
#628 = DIRECTION ( 'NONE',  ( 0.0000000000000000000, 0.0000000000000000000, -1.000000000000000000 ) ) ;
#629 = FACE_OUTER_BOUND ( 'NONE', #100, .T. ) ;
#630 = CARTESIAN_POINT ( 'NONE',  ( -1.899999999999999911, -8.099999999999994316, -1.000000000000000000 ) ) ;
#631 = AXIS2_PLACEMENT_3D ( 'NONE', #954, #1195, #349 ) ;
#632 = CARTESIAN_POINT ( 'NONE',  ( 1.899999999999999911, 9.599999999999999645, -1.242945935018105102E-15 ) ) ;
#633 = EDGE_CURVE ( 'NONE', #1149, #142, #212, .T. ) ;
#634 = VECTOR ( 'NONE', #958, 1000.000000000000000 ) ;
#635 =( GEOMETRIC_REPRESENTATION_CONTEXT ( 3 ) GLOBAL_UNCERTAINTY_ASSIGNED_CONTEXT ( ( #83 ) ) GLOBAL_UNIT_ASSIGNED_CONTEXT ( ( #915, #1011, #77 ) ) REPRESENTATION_CONTEXT ( 'NONE', 'WORKASPACE' ) );
#636 = ORIENTED_EDGE ( 'NONE', *, *, #104, .F. ) ;
#637 = VERTEX_POINT ( 'NONE', #1250 ) ;
#638 = CARTESIAN_POINT ( 'NONE',  ( -1.899999999999999911, 8.701740709630561454, -34.75710524580904348 ) ) ;
#639 = PLANE ( 'NONE',  #179 ) ;
#640 = DIRECTION ( 'NONE',  ( 0.0000000000000000000, 0.0000000000000000000, -1.000000000000000000 ) ) ;
#641 = CARTESIAN_POINT ( 'NONE',  ( -0.8999999999999991340, -9.099999999999997868, 0.0000000000000000000 ) ) ;
#642 = EDGE_CURVE ( 'NONE', #802, #852, #1199, .T. ) ;
#643 = DIRECTION ( 'NONE',  ( -1.000000000000000000, -0.0000000000000000000, -0.0000000000000000000 ) ) ;
#644 = DIRECTION ( 'NONE',  ( -0.2651564830210427215, -0.0000000000000000000, 0.9642053928037902510 ) ) ;
#645 = CARTESIAN_POINT ( 'NONE',  ( 1.899999999999999911, 8.599999999999997868, -14.89828620070652576 ) ) ;
#646 = FACE_OUTER_BOUND ( 'NONE', #91, .T. ) ;
#647 = ADVANCED_FACE ( 'NONE', ( #959 ), #623, .T. ) ;
#648 = ORIENTED_EDGE ( 'NONE', *, *, #598, .T. ) ;
#649 = CARTESIAN_POINT ( 'NONE',  ( 1.899999999999999911, 0.0000000000000000000, -15.89828620070652576 ) ) ;
#650 = CARTESIAN_POINT ( 'NONE',  ( -1.899999999999999911, 8.839527733499606299, -32.54519167589474904 ) ) ;
#651 = VERTEX_POINT ( 'NONE', #529 ) ;
#652 = LINE ( 'NONE', #65, #1198 ) ;
#653 = FACE_OUTER_BOUND ( 'NONE', #805, .T. ) ;
#654 = VECTOR ( 'NONE', #1101, 1000.000000000000000 ) ;
#655 = VECTOR ( 'NONE', #793, 1000.000000000000000 ) ;
#656 = ADVANCED_FACE ( 'NONE', ( #629 ), #639, .T. ) ;
#657 = ORIENTED_EDGE ( 'NONE', *, *, #345, .T. ) ;
#658 = DIRECTION ( 'NONE',  ( 0.0000000000000000000, 0.0000000000000000000, -1.000000000000000000 ) ) ;
#659 = CARTESIAN_POINT ( 'NONE',  ( 2.450000000000000178, 9.599999999999997868, -12.89828620070652576 ) ) ;
#660 = ORIENTED_EDGE ( 'NONE', *, *, #202, .T. ) ;
#661 = LINE ( 'NONE', #52, #377 ) ;
#662 = CARTESIAN_POINT ( 'NONE',  ( 1.899999999999999911, 8.099999999999999645, -31.36798004637643444 ) ) ;
#663 = ORIENTED_EDGE ( 'NONE', *, *, #177, .F. ) ;
#664 = DIRECTION ( 'NONE',  ( 0.0000000000000000000, 0.0000000000000000000, -1.000000000000000000 ) ) ;
#665 = DIRECTION ( 'NONE',  ( 0.0000000000000000000, 0.0000000000000000000, -1.000000000000000000 ) ) ;
#666 = EDGE_CURVE ( 'NONE', #684, #736, #125, .T. ) ;
#667 = ORIENTED_EDGE ( 'NONE', *, *, #9, .F. ) ;
#668 = LINE ( 'NONE', #152, #739 ) ;
#669 = EDGE_CURVE ( 'NONE', #724, #673, #1238, .T. ) ;
#670 = ORIENTED_EDGE ( 'NONE', *, *, #38, .T. ) ;
#671 = DIRECTION ( 'NONE',  ( 0.0000000000000000000, 0.0000000000000000000, 1.000000000000000000 ) ) ;
#672 = CARTESIAN_POINT ( 'NONE',  ( 1.899999999999999911, 10.09999999999999787, -34.64999999999999858 ) ) ;
#673 = VERTEX_POINT ( 'NONE', #975 ) ;
#674 = DIRECTION ( 'NONE',  ( 0.7071067811865487940, 0.7071067811865463515, -0.0000000000000000000 ) ) ;
#675 = ADVANCED_FACE ( 'NONE', ( #1077 ), #166, .F. ) ;
#676 = AXIS2_PLACEMENT_3D ( 'NONE', #682, #671, #359 ) ;
#677 = VECTOR ( 'NONE', #401, 1000.000000000000000 ) ;
#678 = FACE_OUTER_BOUND ( 'NONE', #1251, .T. ) ;
#679 = CIRCLE ( 'NONE', #1216, 3.599999999999999201 ) ;
#680 = AXIS2_PLACEMENT_3D ( 'NONE', #1328, #1130, #1343 ) ;
#681 = ORIENTED_EDGE ( 'NONE', *, *, #472, .F. ) ;
#682 = CARTESIAN_POINT ( 'NONE',  ( 1.899999999999999911, 0.0000000000000000000, -1.000000000000000000 ) ) ;
#683 = CARTESIAN_POINT ( 'NONE',  ( -1.899999999999999911, -8.099999999999994316, 0.0000000000000000000 ) ) ;
#684 = VERTEX_POINT ( 'NONE', #250 ) ;
#685 = DIRECTION ( 'NONE',  ( 0.0000000000000000000, 0.0000000000000000000, -1.000000000000000000 ) ) ;
#686 = EDGE_CURVE ( 'NONE', #164, #573, #1295, .T. ) ;
#687 = DIRECTION ( 'NONE',  ( 0.0000000000000000000, -0.2588190451025155769, 0.9659258262890697555 ) ) ;
#688 = ORIENTED_EDGE ( 'NONE', *, *, #740, .F. ) ;
#689 = PLANE ( 'NONE',  #175 ) ;
#690 = CYLINDRICAL_SURFACE ( 'NONE', #200, 0.9999999999999991118 ) ;
#691 = CARTESIAN_POINT ( 'NONE',  ( 1.899999999999999911, 8.099999999999999645, -15.89828620070652576 ) ) ;
#692 = ORIENTED_EDGE ( 'NONE', *, *, #1266, .F. ) ;
#693 = CARTESIAN_POINT ( 'NONE',  ( -2.450000000000000178, 9.599999999999997868, -12.89828620070652576 ) ) ;
#694 = PRESENTATION_STYLE_ASSIGNMENT (( #45 ) ) ;
#695 = CARTESIAN_POINT ( 'NONE',  ( 1.899999999999999911, 8.839527733499606299, -32.54519167589474904 ) ) ;
#696 = VECTOR ( 'NONE', #82, 1000.000000000000000 ) ;
#697 = ORIENTED_EDGE ( 'NONE', *, *, #1188, .F. ) ;
#698 = PRODUCT_CONTEXT ( 'NONE', #1040, 'mechanical' ) ;
#699 = CIRCLE ( 'NONE', #785, 2.000000000000001776 ) ;
#700 = ADVANCED_FACE ( 'NONE', ( #982 ), #757, .F. ) ;
#701 = CARTESIAN_POINT ( 'NONE',  ( -2.450000000000000178, 9.599999999999997868, -11.89828620070652576 ) ) ;
#702 = AXIS2_PLACEMENT_3D ( 'NONE', #875, #997, #1182 ) ;
#703 = FACE_OUTER_BOUND ( 'NONE', #279, .T. ) ;
#704 = VERTEX_POINT ( 'NONE', #367 ) ;
#705 = APPLICATION_PROTOCOL_DEFINITION ( 'draft international standard', 'automotive_design', 1998, #920 ) ;
#706 = ORIENTED_EDGE ( 'NONE', *, *, #1123, .F. ) ;
#707 = PLANE ( 'NONE',  #1093 ) ;
#708 = EDGE_CURVE ( 'NONE', #1012, #1075, #778, .T. ) ;
#709 = CARTESIAN_POINT ( 'NONE',  ( -1.899999999999999911, 9.599999999999999645, -1.499999999999998224 ) ) ;
#710 = EDGE_CURVE ( 'NONE', #637, #469, #450, .T. ) ;
#711 = CARTESIAN_POINT ( 'NONE',  ( 1.899999999999999911, 8.099999999999999645, -16.89828620070652576 ) ) ;
#712 = ORIENTED_EDGE ( 'NONE', *, *, #403, .F. ) ;
#713 = CARTESIAN_POINT ( 'NONE',  ( -1.899999999999999911, 9.599999999999999645, -1.242945935018105102E-15 ) ) ;
#714 = CARTESIAN_POINT ( 'NONE',  ( -1.899999999999999911, 9.099999999999997868, 0.0000000000000000000 ) ) ;
#715 = CARTESIAN_POINT ( 'NONE',  ( 1.899999999999999911, 0.0000000000000000000, 0.0000000000000000000 ) ) ;
#716 = ADVANCED_FACE ( 'NONE', ( #771 ), #50, .T. ) ;
#717 = DIRECTION ( 'NONE',  ( 1.000000000000000000, -0.0000000000000000000, 0.0000000000000000000 ) ) ;
#718 = ORIENTED_EDGE ( 'NONE', *, *, #128, .T. ) ;
#719 = VECTOR ( 'NONE', #167, 1000.000000000000000 ) ;
#720 = DIRECTION ( 'NONE',  ( -1.000000000000000000, -0.0000000000000000000, -0.0000000000000000000 ) ) ;
#721 = AXIS2_PLACEMENT_3D ( 'NONE', #320, #733, #218 ) ;
#722 = VECTOR ( 'NONE', #427, 1000.000000000000000 ) ;
#723 = DIRECTION ( 'NONE',  ( 0.0000000000000000000, 1.000000000000000000, 0.0000000000000000000 ) ) ;
#724 = VERTEX_POINT ( 'NONE', #650 ) ;
#725 = EDGE_LOOP ( 'NONE', ( #1038, #408, #451, #1079 ) ) ;
#726 = CARTESIAN_POINT ( 'NONE',  ( 1.899999999999999911, 6.099999999999999645, -17.89828620070652576 ) ) ;
#727 = DIRECTION ( 'NONE',  ( -1.000000000000000000, -0.0000000000000000000, -0.0000000000000000000 ) ) ;
#728 = LINE ( 'NONE', #715, #440 ) ;
#729 = ORIENTED_EDGE ( 'NONE', *, *, #454, .T. ) ;
#730 = EDGE_CURVE ( 'NONE', #845, #1222, #610, .T. ) ;
#731 = VERTEX_POINT ( 'NONE', #883 ) ;
#732 = DIRECTION ( 'NONE',  ( 0.0000000000000000000, -1.000000000000000000, 0.0000000000000000000 ) ) ;
#733 = DIRECTION ( 'NONE',  ( 0.0000000000000000000, -0.0000000000000000000, 1.000000000000000000 ) ) ;
#734 = ORIENTED_EDGE ( 'NONE', *, *, #730, .F. ) ;
#735 = CARTESIAN_POINT ( 'NONE',  ( -1.899999999999999911, 7.099999999999998757, -17.89828620070652576 ) ) ;
#736 = VERTEX_POINT ( 'NONE', #672 ) ;
#737 = DIRECTION ( 'NONE',  ( 0.0000000000000000000, 0.0000000000000000000, -1.000000000000000000 ) ) ;
#738 = FACE_OUTER_BOUND ( 'NONE', #304, .T. ) ;
#739 = VECTOR ( 'NONE', #1281, 1000.000000000000000 ) ;
#740 = EDGE_CURVE ( 'NONE', #1128, #810, #1271, .T. ) ;
#741 = PLANE ( 'NONE',  #307 ) ;
#742 = AXIS2_PLACEMENT_3D ( 'NONE', #271, #1174, #457 ) ;
#743 = DIRECTION ( 'NONE',  ( 1.000000000000000000, -0.0000000000000000000, -0.0000000000000000000 ) ) ;
#744 = CIRCLE ( 'NONE', #1218, 1.000000000000000888 ) ;
#745 = VERTEX_POINT ( 'NONE', #1088 ) ;
#746 = FACE_OUTER_BOUND ( 'NONE', #243, .T. ) ;
#747 = CARTESIAN_POINT ( 'NONE',  ( 1.899999999999999911, 0.0000000000000000000, -34.64999999999999858 ) ) ;
#748 = DIRECTION ( 'NONE',  ( 0.0000000000000000000, 0.0000000000000000000, -1.000000000000000000 ) ) ;
#749 = DIRECTION ( 'NONE',  ( 0.0000000000000000000, -0.0000000000000000000, 1.000000000000000000 ) ) ;
#750 = EDGE_CURVE ( 'NONE', #169, #1143, #341, .T. ) ;
#751 = LINE ( 'NONE', #836, #634 ) ;
#752 = DIRECTION ( 'NONE',  ( 0.0000000000000000000, 0.0000000000000000000, 1.000000000000000000 ) ) ;
#753 = ORIENTED_EDGE ( 'NONE', *, *, #162, .F. ) ;
#754 = LINE ( 'NONE', #407, #1113 ) ;
#755 = DIRECTION ( 'NONE',  ( 0.0000000000000000000, -0.1736481776669295263, -0.9848077530122082424 ) ) ;
#756 = CARTESIAN_POINT ( 'NONE',  ( 1.899999999999999911, 9.399999999999998579, 0.0000000000000000000 ) ) ;
#757 = PLANE ( 'NONE',  #784 ) ;
#758 = VERTEX_POINT ( 'NONE', #659 ) ;
#759 = DIRECTION ( 'NONE',  ( -1.000000000000000000, -0.0000000000000000000, -0.0000000000000000000 ) ) ;
#760 = CARTESIAN_POINT ( 'NONE',  ( -1.899999999999999911, -0.0000000000000000000, -16.89828620070652576 ) ) ;
#761 = AXIS2_PLACEMENT_3D ( 'NONE', #290, #1033, #1122 ) ;
#762 = VECTOR ( 'NONE', #157, 1000.000000000000000 ) ;
#763 = AXIS2_PLACEMENT_3D ( 'NONE', #882, #170, #583 ) ;
#764 = ORIENTED_EDGE ( 'NONE', *, *, #1206, .F. ) ;
#765 = DIRECTION ( 'NONE',  ( 0.0000000000000000000, 0.0000000000000000000, -1.000000000000000000 ) ) ;
#766 = CARTESIAN_POINT ( 'NONE',  ( 1.899999999999999911, 8.099999999999999645, -31.36798004637643444 ) ) ;
#767 = EDGE_CURVE ( 'NONE', #123, #802, #572, .T. ) ;
#768 = ORIENTED_EDGE ( 'NONE', *, *, #1255, .T. ) ;
#769 = LINE ( 'NONE', #552, #1215 ) ;
#770 = CARTESIAN_POINT ( 'NONE',  ( 1.899999999999999911, 10.09999999999999787, 0.0000000000000000000 ) ) ;
#771 = FACE_OUTER_BOUND ( 'NONE', #533, .T. ) ;
#772 = EDGE_CURVE ( 'NONE', #1075, #810, #679, .T. ) ;
#773 = VERTEX_POINT ( 'NONE', #360 ) ;
#774 = CARTESIAN_POINT ( 'NONE',  ( 1.899999999999999911, 9.599999999999997868, -11.89828620070652576 ) ) ;
#775 = DIRECTION ( 'NONE',  ( 0.7071067811865463515, -0.7071067811865487940, 0.0000000000000000000 ) ) ;
#776 = VERTEX_POINT ( 'NONE', #373 ) ;
#777 = CARTESIAN_POINT ( 'NONE',  ( -1.899999999999999911, 0.0000000000000000000, -34.64999999999999858 ) ) ;
#778 = LINE ( 'NONE', #766, #1153 ) ;
#779 = ORIENTED_EDGE ( 'NONE', *, *, #327, .T. ) ;
#780 = CYLINDRICAL_SURFACE ( 'NONE', #308, 0.4999999999999993339 ) ;
#781 = EDGE_CURVE ( 'NONE', #736, #347, #1083, .T. ) ;
#782 = VECTOR ( 'NONE', #799, 1000.000000000000000 ) ;
#783 = ORIENTED_EDGE ( 'NONE', *, *, #145, .T. ) ;
#784 = AXIS2_PLACEMENT_3D ( 'NONE', #1099, #665, #242 ) ;
#785 = AXIS2_PLACEMENT_3D ( 'NONE', #510, #945, #195 ) ;
#786 = ORIENTED_EDGE ( 'NONE', *, *, #275, .T. ) ;
#787 = DIRECTION ( 'NONE',  ( 0.0000000000000000000, 0.0000000000000000000, -1.000000000000000000 ) ) ;
#788 = LINE ( 'NONE', #693, #505 ) ;
#789 = ADVANCED_FACE ( 'NONE', ( #1302 ), #561, .F. ) ;
#790 = DIRECTION ( 'NONE',  ( 0.0000000000000000000, 0.0000000000000000000, -1.000000000000000000 ) ) ;
#791 = EDGE_LOOP ( 'NONE', ( #78, #1067, #1065, #768, #273, #596, #1166, #881, #402, #562, #277, #448, #1097, #570, #342, #924, #208, #425, #1010, #32, #585, #706, #1193 ) ) ;
#792 = FILL_AREA_STYLE_COLOUR ( '', #287 ) ;
#793 = DIRECTION ( 'NONE',  ( 0.0000000000000000000, 0.0000000000000000000, -1.000000000000000000 ) ) ;
#794 = MANIFOLD_SOLID_BREP ( 'Chamfer1', #934 ) ;
#795 = CARTESIAN_POINT ( 'NONE',  ( 1.899999999999999911, 7.599999999999998757, -27.36798004637643800 ) ) ;
#796 = EDGE_CURVE ( 'NONE', #957, #576, #1102, .T. ) ;
#797 = ORIENTED_EDGE ( 'NONE', *, *, #827, .T. ) ;
#798 = CARTESIAN_POINT ( 'NONE',  ( 1.899999999999999911, 9.099999999999997868, -27.36798004637643800 ) ) ;
#799 = DIRECTION ( 'NONE',  ( -1.000000000000000000, -0.0000000000000000000, -0.0000000000000000000 ) ) ;
#800 = CIRCLE ( 'NONE', #268, 1.500000000000001332 ) ;
#801 = EDGE_CURVE ( 'NONE', #103, #1043, #913, .T. ) ;
#802 = VERTEX_POINT ( 'NONE', #931 ) ;
#803 = VECTOR ( 'NONE', #732, 1000.000000000000000 ) ;
#804 = EDGE_CURVE ( 'NONE', #116, #129, #1265, .T. ) ;
#805 = EDGE_LOOP ( 'NONE', ( #106, #1288, #314, #877, #1002, #667, #376, #29 ) ) ;
#806 = CARTESIAN_POINT ( 'NONE',  ( 1.899999999999999911, 9.599999999999999645, -1.242945935018105102E-15 ) ) ;
#807 = AXIS2_PLACEMENT_3D ( 'NONE', #165, #554, #1098 ) ;
#808 = DIRECTION ( 'NONE',  ( 1.000000000000000000, 0.0000000000000000000, -0.0000000000000000000 ) ) ;
#809 = LINE ( 'NONE', #237, #677 ) ;
#810 = VERTEX_POINT ( 'NONE', #1244 ) ;
#811 =( NAMED_UNIT ( * ) SI_UNIT ( $, .STERADIAN. ) SOLID_ANGLE_UNIT ( ) );
#812 = EDGE_CURVE ( 'NONE', #553, #815, #909, .T. ) ;
#813 = DIRECTION ( 'NONE',  ( -1.000000000000000000, -0.0000000000000000000, -0.0000000000000000000 ) ) ;
#814 = PLANE ( 'NONE',  #460 ) ;
#815 = VERTEX_POINT ( 'NONE', #735 ) ;
#816 = LINE ( 'NONE', #105, #201 ) ;
#817 = ORIENTED_EDGE ( 'NONE', *, *, #1266, .T. ) ;
#818 = DIRECTION ( 'NONE',  ( -1.000000000000000000, 0.0000000000000000000, -0.0000000000000000000 ) ) ;
#819 = CARTESIAN_POINT ( 'NONE',  ( -1.899999999999999911, 9.099999999999997868, -1.499999999999998224 ) ) ;
#820 = VECTOR ( 'NONE', #1321, 1000.000000000000000 ) ;
#821 = FACE_OUTER_BOUND ( 'NONE', #387, .T. ) ;
#822 = ORIENTED_EDGE ( 'NONE', *, *, #605, .T. ) ;
#823 = DIRECTION ( 'NONE',  ( 0.0000000000000000000, 0.0000000000000000000, -1.000000000000000000 ) ) ;
#824 = VECTOR ( 'NONE', #1082, 1000.000000000000000 ) ;
#825 = ORIENTED_EDGE ( 'NONE', *, *, #356, .F. ) ;
#826 = CARTESIAN_POINT ( 'NONE',  ( 2.450000000000000178, 9.599999999999997868, -11.89828620070652576 ) ) ;
#827 = EDGE_CURVE ( 'NONE', #1243, #704, #1336, .T. ) ;
#828 = ORIENTED_EDGE ( 'NONE', *, *, #128, .F. ) ;
#829 = SURFACE_SIDE_STYLE ('',( #1279 ) ) ;
#830 = VERTEX_POINT ( 'NONE', #826 ) ;
#831 = CARTESIAN_POINT ( 'NONE',  ( 1.899999999999999911, 8.099999999999999645, -17.89828620070652576 ) ) ;
#832 = CARTESIAN_POINT ( 'NONE',  ( -0.8999999999999991340, -9.099999999999997868, 0.0000000000000000000 ) ) ;
#833 = CARTESIAN_POINT ( 'NONE',  ( 1.899999999999999911, 0.0000000000000000000, -34.64999999999999858 ) ) ;
#834 = ORIENTED_EDGE ( 'NONE', *, *, #424, .F. ) ;
#835 = EDGE_CURVE ( 'NONE', #1001, #169, #102, .T. ) ;
#836 = CARTESIAN_POINT ( 'NONE',  ( 1.899999999999999911, 0.0000000000000000000, -16.89828620070652576 ) ) ;
#837 = LINE ( 'NONE', #1242, #1070 ) ;
#838 = CARTESIAN_POINT ( 'NONE',  ( -1.899999999999999911, 9.399999999999998579, 0.0000000000000000000 ) ) ;
#839 = DIRECTION ( 'NONE',  ( 0.0000000000000000000, -0.9659258262890696445, -0.2588190451025155769 ) ) ;
#840 = EDGE_CURVE ( 'NONE', #108, #116, #497, .T. ) ;
#841 = DIRECTION ( 'NONE',  ( 0.0000000000000000000, 0.0000000000000000000, 1.000000000000000000 ) ) ;
#842 = CARTESIAN_POINT ( 'NONE',  ( -1.899999999999999911, 8.099999999999999645, -17.89828620070652576 ) ) ;
#843 = AXIS2_PLACEMENT_3D ( 'NONE', #464, #1030, #614 ) ;
#844 = ADVANCED_FACE ( 'NONE', ( #317 ), #919, .T. ) ;
#845 = VERTEX_POINT ( 'NONE', #406 ) ;
#846 = DIRECTION ( 'NONE',  ( -1.000000000000000000, -0.0000000000000000000, -0.0000000000000000000 ) ) ;
#847 = CARTESIAN_POINT ( 'NONE',  ( 1.899999999999999911, -9.099999999999997868, 0.0000000000000000000 ) ) ;
#848 = VECTOR ( 'NONE', #1235, 1000.000000000000000 ) ;
#849 = VERTEX_POINT ( 'NONE', #95 ) ;
#850 = CARTESIAN_POINT ( 'NONE',  ( 1.899999999999999911, 10.92732016988549049, -32.91332581254864209 ) ) ;
#851 = DIRECTION ( 'NONE',  ( -1.000000000000000000, -0.0000000000000000000, -0.0000000000000000000 ) ) ;
#852 = VERTEX_POINT ( 'NONE', #1228 ) ;
#853 = CARTESIAN_POINT ( 'NONE',  ( 1.899999999999999911, 10.59999999999999787, -1.499999999999998224 ) ) ;
#854 = CARTESIAN_POINT ( 'NONE',  ( 1.899999999999999911, 9.599999999999999645, -1.499999999999998224 ) ) ;
#855 = ORIENTED_EDGE ( 'NONE', *, *, #835, .F. ) ;
#856 = ORIENTED_EDGE ( 'NONE', *, *, #956, .F. ) ;
#857 = DIRECTION ( 'NONE',  ( -1.000000000000000000, -0.0000000000000000000, -0.0000000000000000000 ) ) ;
#858 = CARTESIAN_POINT ( 'NONE',  ( -1.899999999999999911, -0.5704417007941452455, -0.1528493930568240178 ) ) ;
#859 = ORIENTED_EDGE ( 'NONE', *, *, #916, .T. ) ;
#860 = CARTESIAN_POINT ( 'NONE',  ( 5.950000000000001954, -4.050000000000016698, 0.0000000000000000000 ) ) ;
#861 = CYLINDRICAL_SURFACE ( 'NONE', #1290, 0.9999999999999974465 ) ;
#862 = EDGE_CURVE ( 'NONE', #283, #108, #728, .T. ) ;
#863 = EDGE_CURVE ( 'NONE', #627, #1128, #221, .T. ) ;
#864 = VERTEX_POINT ( 'NONE', #709 ) ;
#865 = DIRECTION ( 'NONE',  ( 0.0000000000000000000, 0.0000000000000000000, -1.000000000000000000 ) ) ;
#866 = CARTESIAN_POINT ( 'NONE',  ( -1.899999999999999911, 11.66143559406618557, -31.89350503086184929 ) ) ;
#867 = ORIENTED_EDGE ( 'NONE', *, *, #327, .F. ) ;
#868 = LINE ( 'NONE', #860, #565 ) ;
#869 = VECTOR ( 'NONE', #664, 1000.000000000000000 ) ;
#870 = VECTOR ( 'NONE', #436, 1000.000000000000000 ) ;
#871 = VECTOR ( 'NONE', #107, 1000.000000000000000 ) ;
#872 = VECTOR ( 'NONE', #1167, 1000.000000000000000 ) ;
#873 = EDGE_CURVE ( 'NONE', #486, #1128, #569, .T. ) ;
#874 = ORIENTED_EDGE ( 'NONE', *, *, #740, .T. ) ;
#875 = CARTESIAN_POINT ( 'NONE',  ( -1.899999999999999911, 8.099999999999999645, -24.91849030359325923 ) ) ;
#876 = DIRECTION ( 'NONE',  ( -0.0000000000000000000, 1.000000000000000000, 0.0000000000000000000 ) ) ;
#877 = ORIENTED_EDGE ( 'NONE', *, *, #804, .T. ) ;
#878 = DIRECTION ( 'NONE',  ( -1.000000000000000000, -0.0000000000000000000, -0.0000000000000000000 ) ) ;
#879 = ORIENTED_EDGE ( 'NONE', *, *, #1191, .T. ) ;
#880 = ADVANCED_FACE ( 'NONE', ( #191 ), #213, .T. ) ;
#881 = ORIENTED_EDGE ( 'NONE', *, *, #426, .T. ) ;
#882 = CARTESIAN_POINT ( 'NONE',  ( 1.899999999999999911, 0.0000000000000000000, 0.0000000000000000000 ) ) ;
#883 = CARTESIAN_POINT ( 'NONE',  ( -1.899999999999999911, 8.099999999999999645, -15.89828620070652576 ) ) ;
#884 = EDGE_LOOP ( 'NONE', ( #620, #1217, #110, #681 ) ) ;
#885 = LINE ( 'NONE', #1305, #416 ) ;
#886 = VERTEX_POINT ( 'NONE', #87 ) ;
#887 = VERTEX_POINT ( 'NONE', #109 ) ;
#888 = FACE_OUTER_BOUND ( 'NONE', #267, .T. ) ;
#889 = ORIENTED_EDGE ( 'NONE', *, *, #603, .F. ) ;
#890 = CARTESIAN_POINT ( 'NONE',  ( 1.899999999999999911, 9.099999999999997868, -1.499999999999998224 ) ) ;
#891 = CIRCLE ( 'NONE', #155, 1.499999999999998224 ) ;
#892 = VECTOR ( 'NONE', #30, 1000.000000000000114 ) ;
#893 = ORIENTED_EDGE ( 'NONE', *, *, #605, .F. ) ;
#894 = VECTOR ( 'NONE', #284, 1000.000000000000000 ) ;
#895 = AXIS2_PLACEMENT_3D ( 'NONE', #1074, #446, #141 ) ;
#896 = ORIENTED_EDGE ( 'NONE', *, *, #1014, .T. ) ;
#897 = EDGE_LOOP ( 'NONE', ( #613, #520, #1042, #409 ) ) ;
#898 = EDGE_CURVE ( 'NONE', #553, #171, #525, .T. ) ;
#899 = LINE ( 'NONE', #691, #502 ) ;
#900 = ORIENTED_EDGE ( 'NONE', *, *, #388, .F. ) ;
#901 = DIRECTION ( 'NONE',  ( 1.000000000000000000, 0.0000000000000000000, 0.0000000000000000000 ) ) ;
#902 = ORIENTED_EDGE ( 'NONE', *, *, #932, .T. ) ;
#903 = DIRECTION ( 'NONE',  ( 0.0000000000000000000, 0.1736481776669295263, 0.9848077530122082424 ) ) ;
#904 = CARTESIAN_POINT ( 'NONE',  ( 1.899999999999999911, 7.099999999999998757, -24.91849030359325923 ) ) ;
#905 = EDGE_CURVE ( 'NONE', #1344, #547, #942, .T. ) ;
#906 = EDGE_LOOP ( 'NONE', ( #447, #226, #323, #194 ) ) ;
#907 = FILL_AREA_STYLE ('',( #792 ) ) ;
#908 = DIRECTION ( 'NONE',  ( 0.0000000000000000000, -1.294735348977192938E-16, -1.000000000000000000 ) ) ;
#909 = LINE ( 'NONE', #1024, #546 ) ;
#910 = DIRECTION ( 'NONE',  ( -1.000000000000000000, 0.0000000000000000000, -0.0000000000000000000 ) ) ;
#911 = VECTOR ( 'NONE', #319, 1000.000000000000000 ) ;
#912 = CIRCLE ( 'NONE', #607, 0.4999999999999991673 ) ;
#913 = CIRCLE ( 'NONE', #98, 0.5000000000000004441 ) ;
#914 = ORIENTED_EDGE ( 'NONE', *, *, #840, .F. ) ;
#915 =( LENGTH_UNIT ( ) NAMED_UNIT ( * ) SI_UNIT ( .MILLI., .METRE. ) );
#916 = EDGE_CURVE ( 'NONE', #142, #1160, #1252, .T. ) ;
#917 = CARTESIAN_POINT ( 'NONE',  ( 1.899999999999999911, -9.099999999999997868, -1.000000000000000000 ) ) ;
#918 = CARTESIAN_POINT ( 'NONE',  ( -2.450000000000000178, 6.549999999999998934, -12.89828620070652576 ) ) ;
#919 = PLANE ( 'NONE',  #248 ) ;
#920 = APPLICATION_CONTEXT ( 'automotive_design' ) ;
#921 = DIRECTION ( 'NONE',  ( -1.000000000000000000, -0.0000000000000000000, -0.0000000000000000000 ) ) ;
#922 = ORIENTED_EDGE ( 'NONE', *, *, #1237, .F. ) ;
#923 = PRODUCT_DEFINITION ( 'UNKNOWN', '', #523, #514 ) ;
#924 = ORIENTED_EDGE ( 'NONE', *, *, #386, .F. ) ;
#925 = FACE_OUTER_BOUND ( 'NONE', #884, .T. ) ;
#926 = DIRECTION ( 'NONE',  ( -1.000000000000000000, -0.0000000000000000000, -0.0000000000000000000 ) ) ;
#927 = ORIENTED_EDGE ( 'NONE', *, *, #192, .F. ) ;
#928 = ORIENTED_EDGE ( 'NONE', *, *, #1296, .F. ) ;
#929 = LINE ( 'NONE', #1264, #871 ) ;
#930 = ORIENTED_EDGE ( 'NONE', *, *, #275, .F. ) ;
#931 = CARTESIAN_POINT ( 'NONE',  ( 1.899999999999999911, 10.59999999999999787, -14.89828620070652399 ) ) ;
#932 = EDGE_CURVE ( 'NONE', #383, #773, #423, .T. ) ;
#933 = VECTOR ( 'NONE', #1003, 1000.000000000000000 ) ;
#934 = CLOSED_SHELL ( 'NONE', ( #558, #998, #621, #43, #1165, #493, #951, #880, #988, #844, #1159, #73, #468, #282, #716, #1004, #1054, #789, #511, #233, #266, #219, #656, #675, #1221, #364, #1020, #551, #700, #1148, #1247, #1334, #1275, #209, #16, #532, #1229, #1346, #647, #624, #62 ) ) ;
#935 = COLOUR_RGB ( '',0.8274509803921568096, 0.8392156862745098200, 0.8274509803921568096 ) ;
#936 = CARTESIAN_POINT ( 'NONE',  ( 1.899999999999999911, 7.099999999999998757, 0.0000000000000000000 ) ) ;
#937 = VERTEX_POINT ( 'NONE', #1224 ) ;
#938 = CARTESIAN_POINT ( 'NONE',  ( -1.899999999999999911, 8.599999999999997868, -14.89828620070652576 ) ) ;
#939 = LINE ( 'NONE', #316, #1287 ) ;
#940 = VECTOR ( 'NONE', #15, 1000.000000000000000 ) ;
#941 = PRODUCT_DEFINITION_SHAPE ( 'NONE', 'NONE',  #923 ) ;
#942 = LINE ( 'NONE', #411, #848 ) ;
#943 = EDGE_CURVE ( 'NONE', #1012, #776, #611, .T. ) ;
#944 = EDGE_LOOP ( 'NONE', ( #294, #1138, #879, #1023 ) ) ;
#945 = DIRECTION ( 'NONE',  ( 1.000000000000000000, -0.0000000000000000000, 0.0000000000000000000 ) ) ;
#946 = ORIENTED_EDGE ( 'NONE', *, *, #454, .F. ) ;
#947 = CARTESIAN_POINT ( 'NONE',  ( -1.899999999999999911, 7.099999999999998757, 0.0000000000000000000 ) ) ;
#948 = DIRECTION ( 'NONE',  ( 0.0000000000000000000, 0.0000000000000000000, 1.000000000000000000 ) ) ;
#949 = CARTESIAN_POINT ( 'NONE',  ( -1.899999999999999911, 9.099999999999997868, -27.36798004637643800 ) ) ;
#950 = LINE ( 'NONE', #641, #1157 ) ;
#951 = ADVANCED_FACE ( 'NONE', ( #619 ), #133, .T. ) ;
#952 = EDGE_CURVE ( 'NONE', #581, #724, #1064, .T. ) ;
#953 = CARTESIAN_POINT ( 'NONE',  ( -1.899999999999999911, -8.099999999999994316, 0.0000000000000000000 ) ) ;
#954 = CARTESIAN_POINT ( 'NONE',  ( -1.899999999999999911, 10.92732016988549049, -32.91332581254864209 ) ) ;
#955 = CARTESIAN_POINT ( 'NONE',  ( 1.899999999999999911, 8.599999999999997868, -14.89828620070652576 ) ) ;
#956 = EDGE_CURVE ( 'NONE', #773, #745, #344, .T. ) ;
#957 = VERTEX_POINT ( 'NONE', #238 ) ;
#958 = DIRECTION ( 'NONE',  ( 0.0000000000000000000, -1.000000000000000000, 0.0000000000000000000 ) ) ;
#959 = FACE_OUTER_BOUND ( 'NONE', #371, .T. ) ;
#960 = EDGE_LOOP ( 'NONE', ( #606, #1209, #1259, #1307 ) ) ;
#961 = CARTESIAN_POINT ( 'NONE',  ( 1.899999999999999911, 9.099999999999997868, -1.499999999999998224 ) ) ;
#962 = AXIS2_PLACEMENT_3D ( 'NONE', #842, #410, #823 ) ;
#963 = CARTESIAN_POINT ( 'NONE',  ( -1.899999999999999911, 6.099999999999998757, -24.91849030359325923 ) ) ;
#964 = VECTOR ( 'NONE', #737, 1000.000000000000000 ) ;
#965 = ORIENTED_EDGE ( 'NONE', *, *, #388, .T. ) ;
#966 = ORIENTED_EDGE ( 'NONE', *, *, #386, .T. ) ;
#967 = CARTESIAN_POINT ( 'NONE',  ( 1.899999999999999911, 9.399999999999998579, 0.0000000000000000000 ) ) ;
#968 = FILL_AREA_STYLE ('',( #550 ) ) ;
#969 = EDGE_CURVE ( 'NONE', #547, #887, #544, .T. ) ;
#970 = ORIENTED_EDGE ( 'NONE', *, *, #564, .T. ) ;
#971 = LINE ( 'NONE', #159, #1026 ) ;
#972 = DIRECTION ( 'NONE',  ( -1.000000000000000000, -0.0000000000000000000, -0.0000000000000000000 ) ) ;
#973 = ORIENTED_EDGE ( 'NONE', *, *, #564, .F. ) ;
#974 = DIRECTION ( 'NONE',  ( 1.000000000000000000, -0.0000000000000000000, 0.0000000000000000000 ) ) ;
#975 = CARTESIAN_POINT ( 'NONE',  ( -1.899999999999999911, 9.399999999999998579, -34.38359554925036576 ) ) ;
#976 = VERTEX_POINT ( 'NONE', #963 ) ;
#977 = LINE ( 'NONE', #459, #654 ) ;
#978 = EDGE_CURVE ( 'NONE', #776, #810, #1268, .T. ) ;
#979 = VERTEX_POINT ( 'NONE', #337 ) ;
#980 = EDGE_LOOP ( 'NONE', ( #1256, #518, #828, #834 ) ) ;
#981 = PLANE ( 'NONE',  #843 ) ;
#982 = FACE_OUTER_BOUND ( 'NONE', #1246, .T. ) ;
#983 = ORIENTED_EDGE ( 'NONE', *, *, #708, .T. ) ;
#984 = DIRECTION ( 'NONE',  ( 0.0000000000000000000, -0.0000000000000000000, 1.000000000000000000 ) ) ;
#985 = VECTOR ( 'NONE', #382, 1000.000000000000000 ) ;
#986 = CIRCLE ( 'NONE', #1028, 1.000000000000000888 ) ;
#987 = VECTOR ( 'NONE', #972, 1000.000000000000000 ) ;
#988 = ADVANCED_FACE ( 'NONE', ( #245 ), #453, .T. ) ;
#989 = DIRECTION ( 'NONE',  ( -0.7071067811865487940, -0.7071067811865463515, 0.0000000000000000000 ) ) ;
#990 = EDGE_LOOP ( 'NONE', ( #1231, #5, #368, #1316 ) ) ;
#991 = DIRECTION ( 'NONE',  ( 0.0000000000000000000, 1.000000000000000000, 0.0000000000000000000 ) ) ;
#992 = CARTESIAN_POINT ( 'NONE',  ( 1.899999999999999911, 6.549999999999998934, -14.89828620070652399 ) ) ;
#993 = ORIENTED_EDGE ( 'NONE', *, *, #898, .T. ) ;
#994 = CARTESIAN_POINT ( 'NONE',  ( 1.899999999999999911, 9.099999999999997868, -1.499999999999998224 ) ) ;
#995 = CARTESIAN_POINT ( 'NONE',  ( 1.899999999999999911, -0.5704417007941452455, -0.1528493930568240178 ) ) ;
#996 = EDGE_LOOP ( 'NONE', ( #889, #264, #539, #419 ) ) ;
#997 = DIRECTION ( 'NONE',  ( 1.000000000000000000, -0.0000000000000000000, 0.0000000000000000000 ) ) ;
#998 = ADVANCED_FACE ( 'NONE', ( #653 ), #122, .F. ) ;
#999 = DIRECTION ( 'NONE',  ( -1.000000000000000000, 0.0000000000000000000, -0.0000000000000000000 ) ) ;
#1000 = DIRECTION ( 'NONE',  ( 0.0000000000000000000, 0.0000000000000000000, -1.000000000000000000 ) ) ;
#1001 = VERTEX_POINT ( 'NONE', #1164 ) ;
#1002 = ORIENTED_EDGE ( 'NONE', *, *, #324, .T. ) ;
#1003 = DIRECTION ( 'NONE',  ( 0.0000000000000000000, 1.000000000000000000, 0.0000000000000000000 ) ) ;
#1004 = ADVANCED_FACE ( 'NONE', ( #646 ), #861, .F. ) ;
#1005 = DIRECTION ( 'NONE',  ( -0.9642053928037902510, 0.0000000000000000000, -0.2651564830210427215 ) ) ;
#1006 = CIRCLE ( 'NONE', #395, 2.000000000000001776 ) ;
#1007 = VERTEX_POINT ( 'NONE', #854 ) ;
#1008 = VECTOR ( 'NONE', #418, 1000.000000000000000 ) ;
#1009 = VECTOR ( 'NONE', #270, 1000.000000000000000 ) ;
#1010 = ORIENTED_EDGE ( 'NONE', *, *, #258, .F. ) ;
#1011 =( NAMED_UNIT ( * ) PLANE_ANGLE_UNIT ( ) SI_UNIT ( $, .RADIAN. ) );
#1012 = VERTEX_POINT ( 'NONE', #662 ) ;
#1013 = DIRECTION ( 'NONE',  ( 0.0000000000000000000, 0.0000000000000000000, -1.000000000000000000 ) ) ;
#1014 = EDGE_CURVE ( 'NONE', #1176, #573, #352, .T. ) ;
#1015 = LINE ( 'NONE', #475, #223 ) ;
#1016 = ORIENTED_EDGE ( 'NONE', *, *, #772, .T. ) ;
#1017 = EDGE_LOOP ( 'NONE', ( #85, #158, #648, #509, #692, #84 ) ) ;
#1018 = DIRECTION ( 'NONE',  ( -1.000000000000000000, -0.0000000000000000000, -0.0000000000000000000 ) ) ;
#1019 = DIRECTION ( 'NONE',  ( 0.0000000000000000000, 1.000000000000000000, 0.0000000000000000000 ) ) ;
#1020 = ADVANCED_FACE ( 'NONE', ( #1179 ), #254, .F. ) ;
#1021 = LINE ( 'NONE', #853, #1049 ) ;
#1022 = ORIENTED_EDGE ( 'NONE', *, *, #1104, .T. ) ;
#1023 = ORIENTED_EDGE ( 'NONE', *, *, #1109, .T. ) ;
#1024 = CARTESIAN_POINT ( 'NONE',  ( 1.899999999999999911, 7.099999999999998757, -17.89828620070652576 ) ) ;
#1025 = DIRECTION ( 'NONE',  ( 0.0000000000000000000, 0.0000000000000000000, 1.000000000000000000 ) ) ;
#1026 = VECTOR ( 'NONE', #260, 1000.000000000000000 ) ;
#1027 = EDGE_CURVE ( 'NONE', #887, #1001, #950, .T. ) ;
#1028 = AXIS2_PLACEMENT_3D ( 'NONE', #1162, #818, #522 ) ;
#1029 = ORIENTED_EDGE ( 'NONE', *, *, #1323, .F. ) ;
#1030 = DIRECTION ( 'NONE',  ( 1.000000000000000000, -0.0000000000000000000, 0.0000000000000000000 ) ) ;
#1031 = VECTOR ( 'NONE', #813, 1000.000000000000000 ) ;
#1032 = EDGE_LOOP ( 'NONE', ( #697, #444, #151, #455 ) ) ;
#1033 = DIRECTION ( 'NONE',  ( 1.000000000000000000, -0.0000000000000000000, 0.0000000000000000000 ) ) ;
#1034 = DIRECTION ( 'NONE',  ( 0.0000000000000000000, 0.0000000000000000000, -1.000000000000000000 ) ) ;
#1035 = UNCERTAINTY_MEASURE_WITH_UNIT (LENGTH_MEASURE( 1.000000000000000082E-05 ), #1037, 'distance_accuracy_value', 'NONE');
#1036 = ORIENTED_EDGE ( 'NONE', *, *, #708, .F. ) ;
#1037 =( LENGTH_UNIT ( ) NAMED_UNIT ( * ) SI_UNIT ( .MILLI., .METRE. ) );
#1038 = ORIENTED_EDGE ( 'NONE', *, *, #1014, .F. ) ;
#1039 = CARTESIAN_POINT ( 'NONE',  ( 1.899999999999999911, 8.701740709630561454, -34.75710524580904348 ) ) ;
#1040 = APPLICATION_CONTEXT ( 'automotive_design' ) ;
#1041 = DIRECTION ( 'NONE',  ( -1.000000000000000000, 0.0000000000000000000, -0.0000000000000000000 ) ) ;
#1042 = ORIENTED_EDGE ( 'NONE', *, *, #1046, .F. ) ;
#1043 = VERTEX_POINT ( 'NONE', #437 ) ;
#1044 = DIRECTION ( 'NONE',  ( 0.0000000000000000000, -0.0000000000000000000, 1.000000000000000000 ) ) ;
#1045 = CARTESIAN_POINT ( 'NONE',  ( 1.899999999999999911, 8.599999999999997868, -14.89828620070652576 ) ) ;
#1046 = EDGE_CURVE ( 'NONE', #350, #845, #699, .T. ) ;
#1047 = DIRECTION ( 'NONE',  ( 0.0000000000000000000, 0.0000000000000000000, 1.000000000000000000 ) ) ;
#1048 = EDGE_LOOP ( 'NONE', ( #922, #252, #588, #896, #1135, #548, #729, #1207, #542, #1269, #196, #393, #432, #404, #500, #874, #1226, #148, #1189, #413, #973, #362, #712 ) ) ;
#1049 = VECTOR ( 'NONE', #1125, 1000.000000000000000 ) ;
#1050 = VECTOR ( 'NONE', #257, 1000.000000000000000 ) ;
#1051 = FACE_OUTER_BOUND ( 'NONE', #1017, .T. ) ;
#1052 = CARTESIAN_POINT ( 'NONE',  ( 1.899999999999999911, 0.0000000000000000000, 0.0000000000000000000 ) ) ;
#1053 = CARTESIAN_POINT ( 'NONE',  ( 2.450000000000000178, 6.549999999999998934, -12.89828620070652576 ) ) ;
#1054 = ADVANCED_FACE ( 'NONE', ( #821 ), #215, .T. ) ;
#1055 = EDGE_CURVE ( 'NONE', #864, #637, #4, .T. ) ;
#1056 = VERTEX_POINT ( 'NONE', #1254 ) ;
#1057 = CARTESIAN_POINT ( 'NONE',  ( 1.899999999999999911, 9.099999999999997868, -31.06798004637644084 ) ) ;
#1058 = DIRECTION ( 'NONE',  ( 1.000000000000000000, 0.0000000000000000000, -0.0000000000000000000 ) ) ;
#1059 = CARTESIAN_POINT ( 'NONE',  ( -1.899999999999999911, 9.099999999999997868, -1.499999999999998224 ) ) ;
#1060 = CARTESIAN_POINT ( 'NONE',  ( 1.899999999999999911, 8.099999999999999645, -24.91849030359325923 ) ) ;
#1061 = EDGE_CURVE ( 'NONE', #1344, #1001, #325, .T. ) ;
#1062 = DIRECTION ( 'NONE',  ( 1.000000000000000000, -0.0000000000000000000, 0.0000000000000000000 ) ) ;
#1063 = LINE ( 'NONE', #1225, #892 ) ;
#1064 = LINE ( 'NONE', #1171, #27 ) ;
#1065 = ORIENTED_EDGE ( 'NONE', *, *, #1139, .T. ) ;
#1066 = VECTOR ( 'NONE', #498, 1000.000000000000000 ) ;
#1067 = ORIENTED_EDGE ( 'NONE', *, *, #192, .T. ) ;
#1068 = CARTESIAN_POINT ( 'NONE',  ( 1.899999999999999911, 10.09999999999999787, -35.39999999999999858 ) ) ;
#1069 = CARTESIAN_POINT ( 'NONE',  ( 1.899999999999999911, -9.099999999999997868, 0.0000000000000000000 ) ) ;
#1070 = VECTOR ( 'NONE', #644, 1000.000000000000114 ) ;
#1071 = ORIENTED_EDGE ( 'NONE', *, *, #978, .F. ) ;
#1072 = LINE ( 'NONE', #140, #69 ) ;
#1073 = VECTOR ( 'NONE', #535, 1000.000000000000000 ) ;
#1074 = CARTESIAN_POINT ( 'NONE',  ( -1.899999999999999911, 0.0000000000000000000, 0.0000000000000000000 ) ) ;
#1075 = VERTEX_POINT ( 'NONE', #1339 ) ;
#1076 = DIRECTION ( 'NONE',  ( -0.2651564830210427215, 0.0000000000000000000, -0.9642053928037902510 ) ) ;
#1077 = FACE_OUTER_BOUND ( 'NONE', #906, .T. ) ;
#1078 = EDGE_CURVE ( 'NONE', #830, #383, #816, .T. ) ;
#1079 = ORIENTED_EDGE ( 'NONE', *, *, #686, .T. ) ;
#1080 = FACE_OUTER_BOUND ( 'NONE', #616, .T. ) ;
#1081 = CARTESIAN_POINT ( 'NONE',  ( 1.899999999999999911, 10.09999999999999787, 0.0000000000000000000 ) ) ;
#1082 = DIRECTION ( 'NONE',  ( 0.0000000000000000000, 0.0000000000000000000, -1.000000000000000000 ) ) ;
#1083 = LINE ( 'NONE', #443, #96 ) ;
#1084 = ORIENTED_EDGE ( 'NONE', *, *, #403, .T. ) ;
#1085 = CARTESIAN_POINT ( 'NONE',  ( 1.899999999999999911, 10.59999999999999787, 0.0000000000000000000 ) ) ;
#1086 = EDGE_CURVE ( 'NONE', #886, #1176, #115, .T. ) ;
#1087 = CARTESIAN_POINT ( 'NONE',  ( -2.450000000000000178, 9.599999999999997868, -11.89828620070652576 ) ) ;
#1088 = CARTESIAN_POINT ( 'NONE',  ( 2.450000000000000178, 10.59999999999999787, -11.89828620070652576 ) ) ;
#1089 = EDGE_LOOP ( 'NONE', ( #441, #867, #927, #389 ) ) ;
#1090 = DIRECTION ( 'NONE',  ( 0.0000000000000000000, 1.000000000000000000, 0.0000000000000000000 ) ) ;
#1091 = AXIS2_PLACEMENT_3D ( 'NONE', #967, #334, #528 ) ;
#1092 = VECTOR ( 'NONE', #989, 1000.000000000000000 ) ;
#1093 = AXIS2_PLACEMENT_3D ( 'NONE', #492, #391, #903 ) ;
#1094 = EDGE_CURVE ( 'NONE', #164, #553, #744, .T. ) ;
#1095 = EDGE_CURVE ( 'NONE', #483, #486, #315, .T. ) ;
#1096 = ORIENTED_EDGE ( 'NONE', *, *, #1118, .F. ) ;
#1097 = ORIENTED_EDGE ( 'NONE', *, *, #666, .F. ) ;
#1098 = DIRECTION ( 'NONE',  ( 0.0000000000000000000, 1.235522109153125004E-16, 1.000000000000000000 ) ) ;
#1099 = CARTESIAN_POINT ( 'NONE',  ( 1.899999999999999911, 0.0000000000000000000, -15.89828620070652576 ) ) ;
#1100 = ORIENTED_EDGE ( 'NONE', *, *, #804, .F. ) ;
#1101 = DIRECTION ( 'NONE',  ( 0.0000000000000000000, 1.000000000000000000, 0.0000000000000000000 ) ) ;
#1102 = LINE ( 'NONE', #580, #1329 ) ;
#1103 = DIRECTION ( 'NONE',  ( -1.000000000000000000, -0.0000000000000000000, -0.0000000000000000000 ) ) ;
#1104 = EDGE_CURVE ( 'NONE', #1324, #773, #111, .T. ) ;
#1105 = ORIENTED_EDGE ( 'NONE', *, *, #538, .T. ) ;
#1106 = LINE ( 'NONE', #777, #933 ) ;
#1107 = DIRECTION ( 'NONE',  ( -1.000000000000000000, -0.0000000000000000000, -0.0000000000000000000 ) ) ;
#1108 = LINE ( 'NONE', #695, #696 ) ;
#1109 = EDGE_CURVE ( 'NONE', #365, #673, #433, .T. ) ;
#1110 = ORIENTED_EDGE ( 'NONE', *, *, #801, .T. ) ;
#1111 = PLANE ( 'NONE',  #545 ) ;
#1112 = MECHANICAL_DESIGN_GEOMETRIC_PRESENTATION_REPRESENTATION (  '', ( #353 ), #635 ) ;
#1113 = VECTOR ( 'NONE', #1131, 1000.000000000000000 ) ;
#1114 = MECHANICAL_DESIGN_GEOMETRIC_PRESENTATION_REPRESENTATION (  '', ( #355 ), #568 ) ;
#1115 = CARTESIAN_POINT ( 'NONE',  ( -1.899999999999999911, 7.699999999999987743, -26.87808209781980295 ) ) ;
#1116 = ORIENTED_EDGE ( 'NONE', *, *, #978, .T. ) ;
#1117 = LINE ( 'NONE', #806, #247 ) ;
#1118 = EDGE_CURVE ( 'NONE', #576, #581, #136, .T. ) ;
#1119 = LINE ( 'NONE', #285, #985 ) ;
#1120 = ORIENTED_EDGE ( 'NONE', *, *, #863, .F. ) ;
#1121 = CARTESIAN_POINT ( 'NONE',  ( 0.0000000000000000000, 0.0000000000000000000, 0.0000000000000000000 ) ) ;
#1122 = DIRECTION ( 'NONE',  ( 0.0000000000000000000, 0.0000000000000000000, -1.000000000000000000 ) ) ;
#1123 = EDGE_CURVE ( 'NONE', #852, #164, #751, .T. ) ;
#1124 = CARTESIAN_POINT ( 'NONE',  ( 1.899999999999999911, 8.701740709630561454, -34.75710524580904348 ) ) ;
#1125 = DIRECTION ( 'NONE',  ( -1.000000000000000000, -0.0000000000000000000, -0.0000000000000000000 ) ) ;
#1126 = ORIENTED_EDGE ( 'NONE', *, *, #840, .T. ) ;
#1127 = SHAPE_DEFINITION_REPRESENTATION ( #941, #517 ) ;
#1128 = VERTEX_POINT ( 'NONE', #638 ) ;
#1129 = DIRECTION ( 'NONE',  ( -1.000000000000000000, -0.0000000000000000000, -0.0000000000000000000 ) ) ;
#1130 = DIRECTION ( 'NONE',  ( -1.000000000000000000, 0.0000000000000000000, -0.0000000000000000000 ) ) ;
#1131 = DIRECTION ( 'NONE',  ( 0.0000000000000000000, 0.0000000000000000000, -1.000000000000000000 ) ) ;
#1132 = VECTOR ( 'NONE', #479, 1000.000000000000000 ) ;
#1133 = VECTOR ( 'NONE', #1258, 1000.000000000000000 ) ;
#1134 = VECTOR ( 'NONE', #340, 1000.000000000000000 ) ;
#1135 = ORIENTED_EDGE ( 'NONE', *, *, #603, .T. ) ;
#1136 = DIRECTION ( 'NONE',  ( 0.0000000000000000000, 0.0000000000000000000, -1.000000000000000000 ) ) ;
#1137 = CARTESIAN_POINT ( 'NONE',  ( 1.899999999999999911, 11.66143559406618557, -31.89350503086184929 ) ) ;
#1138 = ORIENTED_EDGE ( 'NONE', *, *, #90, .F. ) ;
#1139 = EDGE_CURVE ( 'NONE', #1202, #1056, #241, .T. ) ;
#1140 = CARTESIAN_POINT ( 'NONE',  ( 1.899999999999999911, 7.899999999999995914, -25.89828620070652576 ) ) ;
#1141 = FACE_OUTER_BOUND ( 'NONE', #897, .T. ) ;
#1142 = DIRECTION ( 'NONE',  ( -1.000000000000000000, -0.0000000000000000000, -0.0000000000000000000 ) ) ;
#1143 = VERTEX_POINT ( 'NONE', #953 ) ;
#1144 = EDGE_CURVE ( 'NONE', #1241, #182, #138, .T. ) ;
#1145 = ORIENTED_EDGE ( 'NONE', *, *, #796, .T. ) ;
#1146 = CARTESIAN_POINT ( 'NONE',  ( -1.899999999999999911, 9.399999999999998579, -34.64999999999999858 ) ) ;
#1147 = CARTESIAN_POINT ( 'NONE',  ( -2.450000000000000178, 10.59999999999999787, -11.89828620070652576 ) ) ;
#1148 = ADVANCED_FACE ( 'NONE', ( #211 ), #1161, .T. ) ;
#1149 = VERTEX_POINT ( 'NONE', #622 ) ;
#1150 = DIRECTION ( 'NONE',  ( 0.0000000000000000000, 0.0000000000000000000, 1.000000000000000000 ) ) ;
#1151 = ORIENTED_EDGE ( 'NONE', *, *, #461, .F. ) ;
#1152 = AXIS2_PLACEMENT_3D ( 'NONE', #955, #846, #329 ) ;
#1153 = VECTOR ( 'NONE', #144, 1000.000000000000000 ) ;
#1154 = ORIENTED_EDGE ( 'NONE', *, *, #812, .F. ) ;
#1155 = CARTESIAN_POINT ( 'NONE',  ( 1.899999999999999911, 9.399999999999998579, -34.38359554925036576 ) ) ;
#1156 = DIRECTION ( 'NONE',  ( 0.7071067811865487940, 0.7071067811865463515, 0.0000000000000000000 ) ) ;
#1157 = VECTOR ( 'NONE', #21, 1000.000000000000000 ) ;
#1158 = CARTESIAN_POINT ( 'NONE',  ( 1.899999999999999911, 6.099999999999999645, -17.89828620070652576 ) ) ;
#1159 = ADVANCED_FACE ( 'NONE', ( #746 ), #1263, .T. ) ;
#1160 = VERTEX_POINT ( 'NONE', #33 ) ;
#1161 = CYLINDRICAL_SURFACE ( 'NONE', #465, 2.000000000000001776 ) ;
#1162 = CARTESIAN_POINT ( 'NONE',  ( 1.899999999999999911, 9.667666535919632764, -34.49828620070652363 ) ) ;
#1163 = CARTESIAN_POINT ( 'NONE',  ( 1.899999999999999911, 9.099999999999997868, 0.0000000000000000000 ) ) ;
#1164 = CARTESIAN_POINT ( 'NONE',  ( -0.8999999999999982458, -9.099999999999997868, -1.000000000000000000 ) ) ;
#1165 = ADVANCED_FACE ( 'NONE', ( #1257 ), #326, .F. ) ;
#1166 = ORIENTED_EDGE ( 'NONE', *, *, #730, .T. ) ;
#1167 = DIRECTION ( 'NONE',  ( -1.000000000000000000, -0.0000000000000000000, -0.0000000000000000000 ) ) ;
#1168 = CARTESIAN_POINT ( 'NONE',  ( -1.899999999999999911, 7.599999999999998757, -27.36798004637643800 ) ) ;
#1169 = ORIENTED_EDGE ( 'NONE', *, *, #1118, .T. ) ;
#1170 = DIRECTION ( 'NONE',  ( 0.0000000000000000000, -0.1736481776669295263, -0.9848077530122082424 ) ) ;
#1171 = CARTESIAN_POINT ( 'NONE',  ( -1.899999999999999911, 14.13853891872620494, -2.493005879168104677 ) ) ;
#1172 = EDGE_LOOP ( 'NONE', ( #928, #346, #67, #210 ) ) ;
#1173 = DIRECTION ( 'NONE',  ( -1.000000000000000000, 0.0000000000000000000, -0.0000000000000000000 ) ) ;
#1174 = DIRECTION ( 'NONE',  ( -1.000000000000000000, -0.0000000000000000000, -0.0000000000000000000 ) ) ;
#1175 = VECTOR ( 'NONE', #1129, 1000.000000000000000 ) ;
#1176 = VERTEX_POINT ( 'NONE', #549 ) ;
#1177 = CARTESIAN_POINT ( 'NONE',  ( 1.899999999999999911, 10.59999999999999787, -14.89828620070652399 ) ) ;
#1178 = AXIS2_PLACEMENT_3D ( 'NONE', #819, #1041, #1034 ) ;
#1179 = FACE_OUTER_BOUND ( 'NONE', #1333, .T. ) ;
#1180 = EDGE_CURVE ( 'NONE', #815, #10, #25, .T. ) ;
#1181 = ORIENTED_EDGE ( 'NONE', *, *, #426, .F. ) ;
#1182 = DIRECTION ( 'NONE',  ( 0.0000000000000000000, 0.0000000000000000000, -1.000000000000000000 ) ) ;
#1183 = DIRECTION ( 'NONE',  ( -1.000000000000000000, 0.0000000000000000000, -0.0000000000000000000 ) ) ;
#1184 = VERTEX_POINT ( 'NONE', #1146 ) ;
#1185 = PLANE ( 'NONE',  #134 ) ;
#1186 = DIRECTION ( 'NONE',  ( 1.000000000000000000, -0.0000000000000000000, 0.0000000000000000000 ) ) ;
#1187 = DIRECTION ( 'NONE',  ( 0.0000000000000000000, -0.2588190451025155769, 0.9659258262890697555 ) ) ;
#1188 = EDGE_CURVE ( 'NONE', #347, #486, #130, .T. ) ;
#1189 = ORIENTED_EDGE ( 'NONE', *, *, #801, .F. ) ;
#1190 = DIRECTION ( 'NONE',  ( -0.0000000000000000000, 1.000000000000000000, 0.0000000000000000000 ) ) ;
#1191 = EDGE_CURVE ( 'NONE', #937, #365, #74, .T. ) ;
#1192 = FACE_OUTER_BOUND ( 'NONE', #944, .T. ) ;
#1193 = ORIENTED_EDGE ( 'NONE', *, *, #642, .F. ) ;
#1194 = CARTESIAN_POINT ( 'NONE',  ( 1.899999999999999911, 0.0000000000000000000, -1.000000000000000000 ) ) ;
#1195 = DIRECTION ( 'NONE',  ( 1.000000000000000000, -0.0000000000000000000, 0.0000000000000000000 ) ) ;
#1196 = ORIENTED_EDGE ( 'NONE', *, *, #952, .F. ) ;
#1197 = CARTESIAN_POINT ( 'NONE',  ( -1.899999999999999911, -0.0000000000000000000, -15.89828620070652576 ) ) ;
#1198 = VECTOR ( 'NONE', #759, 1000.000000000000000 ) ;
#1199 = CIRCLE ( 'NONE', #135, 2.000000000000000000 ) ;
#1200 = VECTOR ( 'NONE', #1142, 1000.000000000000000 ) ;
#1201 = DIRECTION ( 'NONE',  ( -1.000000000000000000, 0.0000000000000000000, 0.0000000000000000000 ) ) ;
#1202 = VERTEX_POINT ( 'NONE', #217 ) ;
#1203 = LINE ( 'NONE', #1294, #1009 ) ;
#1204 = ORIENTED_EDGE ( 'NONE', *, *, #943, .F. ) ;
#1205 = CARTESIAN_POINT ( 'NONE',  ( 1.899999999999999911, 11.66143559406618557, -31.89350503086184929 ) ) ;
#1206 = EDGE_CURVE ( 'NONE', #849, #1241, #1270, .T. ) ;
#1207 = ORIENTED_EDGE ( 'NONE', *, *, #1144, .T. ) ;
#1208 = VERTEX_POINT ( 'NONE', #726 ) ;
#1209 = ORIENTED_EDGE ( 'NONE', *, *, #1095, .F. ) ;
#1210 = FACE_OUTER_BOUND ( 'NONE', #476, .T. ) ;
#1211 = DIRECTION ( 'NONE',  ( -1.000000000000000000, -0.0000000000000000000, -0.0000000000000000000 ) ) ;
#1212 = EDGE_LOOP ( 'NONE', ( #1100, #914, #1277, #321 ) ) ;
#1213 = APPLICATION_PROTOCOL_DEFINITION ( 'draft international standard', 'automotive_design', 1998, #1040 ) ;
#1214 = CARTESIAN_POINT ( 'NONE',  ( 1.899999999999999911, 8.099999999999999645, 0.0000000000000000000 ) ) ;
#1215 = VECTOR ( 'NONE', #452, 1000.000000000000000 ) ;
#1216 = AXIS2_PLACEMENT_3D ( 'NONE', #866, #26, #58 ) ;
#1217 = ORIENTED_EDGE ( 'NONE', *, *, #312, .T. ) ;
#1218 = AXIS2_PLACEMENT_3D ( 'NONE', #831, #6, #229 ) ;
#1219 = AXIS2_PLACEMENT_3D ( 'NONE', #379, #1173, #865 ) ;
#1220 = ORIENTED_EDGE ( 'NONE', *, *, #186, .F. ) ;
#1221 = ADVANCED_FACE ( 'NONE', ( #1051 ), #119, .F. ) ;
#1222 = VERTEX_POINT ( 'NONE', #456 ) ;
#1223 = CARTESIAN_POINT ( 'NONE',  ( 1.899999999999999911, 10.09999999999999787, -35.39999999999999858 ) ) ;
#1224 = CARTESIAN_POINT ( 'NONE',  ( 1.899999999999999911, 8.839527733499606299, -32.54519167589474904 ) ) ;
#1225 = CARTESIAN_POINT ( 'NONE',  ( 2.450000000000000178, 10.59999999999999787, -12.89828620070652576 ) ) ;
#1226 = ORIENTED_EDGE ( 'NONE', *, *, #772, .F. ) ;
#1227 = LINE ( 'NONE', #798, #586 ) ;
#1228 = CARTESIAN_POINT ( 'NONE',  ( 1.899999999999999911, 8.599999999999997868, -16.89828620070652576 ) ) ;
#1229 = ADVANCED_FACE ( 'NONE', ( #888 ), #689, .T. ) ;
#1230 = FACE_OUTER_BOUND ( 'NONE', #625, .T. ) ;
#1231 = ORIENTED_EDGE ( 'NONE', *, *, #239, .T. ) ;
#1232 = DIRECTION ( 'NONE',  ( -1.000000000000000000, 0.0000000000000000000, 0.0000000000000000000 ) ) ;
#1233 = ORIENTED_EDGE ( 'NONE', *, *, #56, .F. ) ;
#1234 = CARTESIAN_POINT ( 'NONE',  ( -1.899999999999999911, 8.099999999999999645, -16.89828620070652576 ) ) ;
#1235 = DIRECTION ( 'NONE',  ( 0.0000000000000000000, 0.0000000000000000000, 1.000000000000000000 ) ) ;
#1236 = VECTOR ( 'NONE', #274, 1000.000000000000000 ) ;
#1237 = EDGE_CURVE ( 'NONE', #318, #333, #222, .T. ) ;
#1238 = CIRCLE ( 'NONE', #631, 2.120000000000003659 ) ;
#1239 = AXIS2_PLACEMENT_3D ( 'NONE', #936, #11, #503 ) ;
#1240 = DIRECTION ( 'NONE',  ( -1.000000000000000000, -0.0000000000000000000, -0.0000000000000000000 ) ) ;
#1241 = VERTEX_POINT ( 'NONE', #262 ) ;
#1242 = CARTESIAN_POINT ( 'NONE',  ( -2.450000000000000178, 10.59999999999999787, -12.89828620070652576 ) ) ;
#1243 = VERTEX_POINT ( 'NONE', #372 ) ;
#1244 = CARTESIAN_POINT ( 'NONE',  ( -1.899999999999999911, 8.184102619425532410, -32.82525359323090441 ) ) ;
#1245 = EDGE_CURVE ( 'NONE', #469, #142, #143, .T. ) ;
#1246 = EDGE_LOOP ( 'NONE', ( #1084, #1233, #70, #779 ) ) ;
#1247 = ADVANCED_FACE ( 'NONE', ( #249 ), #366, .F. ) ;
#1248 = ORIENTED_EDGE ( 'NONE', *, *, #710, .F. ) ;
#1249 = DIRECTION ( 'NONE',  ( -0.0000000000000000000, 1.000000000000000000, 0.0000000000000000000 ) ) ;
#1250 = CARTESIAN_POINT ( 'NONE',  ( -1.899999999999999911, 9.599999999999997868, -11.89828620070652576 ) ) ;
#1251 = EDGE_LOOP ( 'NONE', ( #1110, #286, #734, #1105 ) ) ;
#1252 = LINE ( 'NONE', #399, #590 ) ;
#1253 = EDGE_LOOP ( 'NONE', ( #688, #1120, #670, #1116 ) ) ;
#1254 = CARTESIAN_POINT ( 'NONE',  ( 1.899999999999999911, 8.099999999999999645, -15.89828620070652576 ) ) ;
#1255 = EDGE_CURVE ( 'NONE', #1056, #1208, #361, .T. ) ;
#1256 = ORIENTED_EDGE ( 'NONE', *, *, #289, .F. ) ;
#1257 = FACE_OUTER_BOUND ( 'NONE', #435, .T. ) ;
#1258 = DIRECTION ( 'NONE',  ( 0.0000000000000000000, 1.000000000000000000, 0.0000000000000000000 ) ) ;
#1259 = ORIENTED_EDGE ( 'NONE', *, *, #593, .T. ) ;
#1260 = CARTESIAN_POINT ( 'NONE',  ( -2.450000000000000178, 10.59999999999999787, -11.89828620070652576 ) ) ;
#1261 = DIRECTION ( 'NONE',  ( 0.0000000000000000000, 0.2588190451025155769, -0.9659258262890696445 ) ) ;
#1262 = ORIENTED_EDGE ( 'NONE', *, *, #345, .F. ) ;
#1263 = PLANE ( 'NONE',  #1091 ) ;
#1264 = CARTESIAN_POINT ( 'NONE',  ( -1.899999999999999911, 6.100000000000002309, -7.536684865834063956E-16 ) ) ;
#1265 = CIRCLE ( 'NONE', #1178, 1.499999999999998224 ) ;
#1266 = EDGE_CURVE ( 'NONE', #183, #1243, #577, .T. ) ;
#1267 = CARTESIAN_POINT ( 'NONE',  ( 1.899999999999999911, 8.099999999999999645, -24.91849030359325923 ) ) ;
#1268 = LINE ( 'NONE', #232, #940 ) ;
#1269 = ORIENTED_EDGE ( 'NONE', *, *, #952, .T. ) ;
#1270 = LINE ( 'NONE', #1140, #251 ) ;
#1271 = LINE ( 'NONE', #858, #2 ) ;
#1272 = ORIENTED_EDGE ( 'NONE', *, *, #916, .F. ) ;
#1273 = LINE ( 'NONE', #1158, #438 ) ;
#1274 = DIRECTION ( 'NONE',  ( 0.0000000000000000000, -1.000000000000000000, 0.0000000000000000000 ) ) ;
#1275 = ADVANCED_FACE ( 'NONE', ( #1278 ), #1285, .F. ) ;
#1276 = ORIENTED_EDGE ( 'NONE', *, *, #297, .T. ) ;
#1277 = ORIENTED_EDGE ( 'NONE', *, *, #338, .T. ) ;
#1278 = FACE_OUTER_BOUND ( 'NONE', #1048, .T. ) ;
#1279 = SURFACE_STYLE_FILL_AREA ( #968 ) ;
#1280 = ORIENTED_EDGE ( 'NONE', *, *, #1109, .F. ) ;
#1281 = DIRECTION ( 'NONE',  ( -1.000000000000000000, -0.0000000000000000000, -0.0000000000000000000 ) ) ;
#1282 = DIRECTION ( 'NONE',  ( -0.0000000000000000000, 1.000000000000000000, 0.0000000000000000000 ) ) ;
#1283 = AXIS2_PLACEMENT_3D ( 'NONE', #1059, #193, #429 ) ;
#1284 = ORIENTED_EDGE ( 'NONE', *, *, #1086, .F. ) ;
#1285 = PLANE ( 'NONE',  #400 ) ;
#1286 = DIRECTION ( 'NONE',  ( 0.0000000000000000000, 0.0000000000000000000, -1.000000000000000000 ) ) ;
#1287 = VECTOR ( 'NONE', #727, 1000.000000000000000 ) ;
#1288 = ORIENTED_EDGE ( 'NONE', *, *, #750, .T. ) ;
#1289 = DIRECTION ( 'NONE',  ( 0.0000000000000000000, 0.0000000000000000000, -1.000000000000000000 ) ) ;
#1290 = AXIS2_PLACEMENT_3D ( 'NONE', #1060, #31, #37 ) ;
#1291 =( GEOMETRIC_REPRESENTATION_CONTEXT ( 3 ) GLOBAL_UNCERTAINTY_ASSIGNED_CONTEXT ( ( #1035 ) ) GLOBAL_UNIT_ASSIGNED_CONTEXT ( ( #1037, #589, #811 ) ) REPRESENTATION_CONTEXT ( 'NONE', 'WORKASPACE' ) );
#1292 = EDGE_CURVE ( 'NONE', #976, #103, #331, .T. ) ;
#1293 = EDGE_LOOP ( 'NONE', ( #1029, #188, #1320, #35 ) ) ;
#1294 = CARTESIAN_POINT ( 'NONE',  ( 1.899999999999999911, 8.099999999999999645, -27.36798004637643800 ) ) ;
#1295 = LINE ( 'NONE', #40, #72 ) ;
#1296 = EDGE_CURVE ( 'NONE', #1184, #347, #1106, .T. ) ;
#1297 = ORIENTED_EDGE ( 'NONE', *, *, #1342, .F. ) ;
#1298 = DIRECTION ( 'NONE',  ( 0.0000000000000000000, 0.0000000000000000000, 1.000000000000000000 ) ) ;
#1299 = ORIENTED_EDGE ( 'NONE', *, *, #80, .F. ) ;
#1300 = ORIENTED_EDGE ( 'NONE', *, *, #258, .T. ) ;
#1301 = CARTESIAN_POINT ( 'NONE',  ( 1.899999999999999911, -8.100000000000004974, -1.000000000000000000 ) ) ;
#1302 = FACE_OUTER_BOUND ( 'NONE', #996, .T. ) ;
#1303 = EDGE_CURVE ( 'NONE', #1222, #1043, #1203, .T. ) ;
#1304 = ORIENTED_EDGE ( 'NONE', *, *, #750, .F. ) ;
#1305 = CARTESIAN_POINT ( 'NONE',  ( 1.899999999999999911, 14.13853891872620494, -2.493005879168104677 ) ) ;
#1306 = ORIENTED_EDGE ( 'NONE', *, *, #1078, .T. ) ;
#1307 = ORIENTED_EDGE ( 'NONE', *, *, #863, .T. ) ;
#1308 = DIRECTION ( 'NONE',  ( 0.0000000000000000000, 1.000000000000000000, 0.0000000000000000000 ) ) ;
#1309 = LINE ( 'NONE', #1197, #1236 ) ;
#1310 = AXIS2_PLACEMENT_3D ( 'NONE', #1267, #336, #748 ) ;
#1311 = PRODUCT_RELATED_PRODUCT_CATEGORY ( 'part', '', ( #536 ) ) ;
#1312 = VECTOR ( 'NONE', #335, 1000.000000000000000 ) ;
#1313 = VECTOR ( 'NONE', #743, 1000.000000000000000 ) ;
#1314 = CARTESIAN_POINT ( 'NONE',  ( 1.899999999999999911, 10.92732016988549049, -32.91332581254864209 ) ) ;
#1315 = ORIENTED_EDGE ( 'NONE', *, *, #488, .T. ) ;
#1316 = ORIENTED_EDGE ( 'NONE', *, *, #56, .T. ) ;
#1317 = DIRECTION ( 'NONE',  ( -0.2651564830210427215, 0.0000000000000000000, 0.9642053928037902510 ) ) ;
#1318 = EDGE_CURVE ( 'NONE', #365, #684, #256, .T. ) ;
#1319 = CARTESIAN_POINT ( 'NONE',  ( -2.450000000000000178, 6.549999999999998934, -11.89828620070652576 ) ) ;
#1320 = ORIENTED_EDGE ( 'NONE', *, *, #633, .F. ) ;
#1321 = DIRECTION ( 'NONE',  ( 0.0000000000000000000, 0.0000000000000000000, -1.000000000000000000 ) ) ;
#1322 = CARTESIAN_POINT ( 'NONE',  ( 1.899999999999999911, 7.599999999999998757, -27.36798004637643800 ) ) ;
#1323 = EDGE_CURVE ( 'NONE', #469, #651, #278, .T. ) ;
#1324 = VERTEX_POINT ( 'NONE', #57 ) ;
#1325 = FACE_OUTER_BOUND ( 'NONE', #118, .T. ) ;
#1326 = AXIS2_PLACEMENT_3D ( 'NONE', #1121, #491, #901 ) ;
#1327 = VECTOR ( 'NONE', #1090, 1000.000000000000000 ) ;
#1328 = CARTESIAN_POINT ( 'NONE',  ( -1.899999999999999911, 9.667666535919632764, -34.49828620070652363 ) ) ;
#1329 = VECTOR ( 'NONE', #1000, 1000.000000000000000 ) ;
#1330 = DIRECTION ( 'NONE',  ( -1.000000000000000000, -0.0000000000000000000, -0.0000000000000000000 ) ) ;
#1331 = VECTOR ( 'NONE', #1240, 1000.000000000000000 ) ;
#1332 = EDGE_CURVE ( 'NONE', #736, #483, #470, .T. ) ;
#1333 = EDGE_LOOP ( 'NONE', ( #374, #328, #228, #1315, #378, #255, #259, #1306, #1151, #786 ) ) ;
#1334 = ADVANCED_FACE ( 'NONE', ( #156 ), #571, .T. ) ;
#1335 = LINE ( 'NONE', #405, #1175 ) ;
#1336 = LINE ( 'NONE', #612, #1031 ) ;
#1337 = CYLINDRICAL_SURFACE ( 'NONE', #1152, 2.000000000000000000 ) ;
#1338 = ORIENTED_EDGE ( 'NONE', *, *, #1206, .T. ) ;
#1339 = CARTESIAN_POINT ( 'NONE',  ( -1.899999999999999911, 8.099999999999999645, -31.36798004637643444 ) ) ;
#1340 = EDGE_LOOP ( 'NONE', ( #1248, #527, #1272, #269 ) ) ;
#1341 = FACE_OUTER_BOUND ( 'NONE', #1089, .T. ) ;
#1342 = EDGE_CURVE ( 'NONE', #283, #183, #149, .T. ) ;
#1343 = DIRECTION ( 'NONE',  ( 0.0000000000000000000, 0.0000000000000000000, -1.000000000000000000 ) ) ;
#1344 = VERTEX_POINT ( 'NONE', #68 ) ;
#1345 = CARTESIAN_POINT ( 'NONE',  ( -4.050000000000005151, -5.949999999999984190, 0.0000000000000000000 ) ) ;
#1346 = ADVANCED_FACE ( 'NONE', ( #484 ), #981, .T. ) ;
#1347 = CARTESIAN_POINT ( 'NONE',  ( 1.899999999999999911, 9.099999999999997868, 0.0000000000000000000 ) ) ;
ENDSEC;
END-ISO-10303-21;
