ISO-10303-21;
HEADER;
FILE_DESCRIPTION (( 'STEP AP214' ),
    '1' );
FILE_NAME ('SSM3K56MFV,L3F.STEP',
    '2025-05-15T18:33:26',
    ( '' ),
    ( '' ),
    'SwSTEP 2.0',
    'SolidWorks 2021',
    '' );
FILE_SCHEMA (( 'AUTOMOTIVE_DESIGN' ));
ENDSEC;

DATA;
#1 = ORIENTED_EDGE ( 'NONE', *, *, #849, .F. ) ;
#2 = VECTOR ( 'NONE', #907, 1000.000000000000000 ) ;
#3 = VECTOR ( 'NONE', #468, 1000.000000000000000 ) ;
#4 = EDGE_CURVE ( 'NONE', #802, #231, #178, .T. ) ;
#5 = CARTESIAN_POINT ( 'NONE',  ( -0.5099999999999998979, 0.1300000000000000044, 0.5999999999999999778 ) ) ;
#6 = DIRECTION ( 'NONE',  ( 1.000000000000000000, -0.000000000000000000, 0.000000000000000000 ) ) ;
#7 = LINE ( 'NONE', #113, #880 ) ;
#8 = EDGE_LOOP ( 'NONE', ( #1147, #211, #565, #1098 ) ) ;
#9 = PRESENTATION_STYLE_ASSIGNMENT (( #599 ) ) ;
#10 = VECTOR ( 'NONE', #1202, 1000.000000000000000 ) ;
#11 = CARTESIAN_POINT ( 'NONE',  ( 0.5999999999999998668, -1.442220510185595828, 0.3999999999999999112 ) ) ;
#12 = CARTESIAN_POINT ( 'NONE',  ( -0.5099999999999998979, 0.000000000000000000, 0.5999999999999999778 ) ) ;
#13 = VECTOR ( 'NONE', #220, 1000.000000000000000 ) ;
#14 = ORIENTED_EDGE ( 'NONE', *, *, #99, .F. ) ;
#15 = CARTESIAN_POINT ( 'NONE',  ( 0.5999999999999998668, -1.442220510185595828, 0.3999999999999999112 ) ) ;
#16 = CARTESIAN_POINT ( 'NONE',  ( 0.5999999999999998668, 0.000000000000000000, 0.3999999999999999112 ) ) ;
#17 = CARTESIAN_POINT ( 'NONE',  ( -0.1600000000000000033, 0.000000000000000000, -0.5999999999999999778 ) ) ;
#18 = EDGE_CURVE ( 'NONE', #510, #658, #78, .T. ) ;
#19 = EDGE_LOOP ( 'NONE', ( #999, #493, #895, #158 ) ) ;
#20 = VECTOR ( 'NONE', #882, 1000.000000000000000 ) ;
#21 = DIRECTION ( 'NONE',  ( 0.000000000000000000, -1.000000000000000000, 0.000000000000000000 ) ) ;
#22 = DIRECTION ( 'NONE',  ( 0.000000000000000000, 0.000000000000000000, 1.000000000000000000 ) ) ;
#23 = DIRECTION ( 'NONE',  ( -1.000000000000000000, 0.000000000000000000, -0.000000000000000000 ) ) ;
#24 = ORIENTED_EDGE ( 'NONE', *, *, #1024, .F. ) ;
#25 = DIRECTION ( 'NONE',  ( -1.000000000000000000, -0.000000000000000000, -0.000000000000000000 ) ) ;
#26 = ORIENTED_EDGE ( 'NONE', *, *, #571, .F. ) ;
#27 = EDGE_CURVE ( 'NONE', #513, #499, #1108, .T. ) ;
#28 = CARTESIAN_POINT ( 'NONE',  ( 0.000000000000000000, 0.5500000000000000444, 0.000000000000000000 ) ) ;
#29 = VECTOR ( 'NONE', #1023, 1000.000000000000000 ) ;
#30 =( LENGTH_UNIT ( ) NAMED_UNIT ( * ) SI_UNIT ( .MILLI., .METRE. ) );
#31 = CARTESIAN_POINT ( 'NONE',  ( 0.5100000000000001199, 0.1300000000000000044, 0.5999999999999998668 ) ) ;
#32 = CARTESIAN_POINT ( 'NONE',  ( 0.5999999999999998668, 0.1300000000000000044, 0.3999999999999999112 ) ) ;
#33 = VECTOR ( 'NONE', #775, 1000.000000000000000 ) ;
#34 = ORIENTED_EDGE ( 'NONE', *, *, #1182, .F. ) ;
#35 = DIRECTION ( 'NONE',  ( 0.000000000000000000, 0.000000000000000000, -1.000000000000000000 ) ) ;
#36 = ORIENTED_EDGE ( 'NONE', *, *, #61, .T. ) ;
#37 = EDGE_CURVE ( 'NONE', #430, #73, #84, .T. ) ;
#38 =( NAMED_UNIT ( * ) SI_UNIT ( $, .STERADIAN. ) SOLID_ANGLE_UNIT ( ) );
#39 = LINE ( 'NONE', #1007, #369 ) ;
#40 = EDGE_LOOP ( 'NONE', ( #161, #719, #615, #838 ) ) ;
#41 = DIRECTION ( 'NONE',  ( 1.000000000000000000, 0.000000000000000000, 0.000000000000000000 ) ) ;
#42 = DIRECTION ( 'NONE',  ( 1.000000000000000000, 0.000000000000000000, -0.000000000000000000 ) ) ;
#43 = EDGE_CURVE ( 'NONE', #1110, #1176, #252, .T. ) ;
#44 = VECTOR ( 'NONE', #453, 1000.000000000000000 ) ;
#45 = CARTESIAN_POINT ( 'NONE',  ( 0.2900000000000000355, 0.000000000000000000, 0.4000000000000000222 ) ) ;
#46 = EDGE_CURVE ( 'NONE', #715, #658, #671, .T. ) ;
#47 = ORIENTED_EDGE ( 'NONE', *, *, #302, .T. ) ;
#48 = DIRECTION ( 'NONE',  ( -1.000000000000000000, 0.000000000000000000, -0.000000000000000000 ) ) ;
#49 = VERTEX_POINT ( 'NONE', #756 ) ;
#50 =( NAMED_UNIT ( * ) PLANE_ANGLE_UNIT ( ) SI_UNIT ( $, .RADIAN. ) );
#51 = CARTESIAN_POINT ( 'NONE',  ( -0.1600000000000000033, 0.1300000000000000044, -0.5999999999999999778 ) ) ;
#52 = EDGE_CURVE ( 'NONE', #1203, #510, #859, .T. ) ;
#53 = ORIENTED_EDGE ( 'NONE', *, *, #792, .F. ) ;
#54 = LINE ( 'NONE', #992, #299 ) ;
#55 = VECTOR ( 'NONE', #375, 1000.000000000000000 ) ;
#56 = VERTEX_POINT ( 'NONE', #105 ) ;
#57 = PRODUCT_DEFINITION_CONTEXT ( 'detailed design', #682, 'design' ) ;
#58 = DIRECTION ( 'NONE',  ( -1.000000000000000000, 0.000000000000000000, 7.228014483236698528E-16 ) ) ;
#59 = ORIENTED_EDGE ( 'NONE', *, *, #633, .F. ) ;
#60 = CARTESIAN_POINT ( 'NONE',  ( 0.5999999999999998668, 0.000000000000000000, 0.3999999999999999112 ) ) ;
#61 = EDGE_CURVE ( 'NONE', #1157, #954, #497, .T. ) ;
#62 = VERTEX_POINT ( 'NONE', #1132 ) ;
#63 = LINE ( 'NONE', #1179, #804 ) ;
#64 = PRESENTATION_STYLE_ASSIGNMENT (( #827 ) ) ;
#65 = AXIS2_PLACEMENT_3D ( 'NONE', #784, #870, #1146 ) ;
#66 = ORIENTED_EDGE ( 'NONE', *, *, #968, .F. ) ;
#67 = DIRECTION ( 'NONE',  ( 0.000000000000000000, -1.000000000000000000, 0.000000000000000000 ) ) ;
#68 = STYLED_ITEM ( 'NONE', ( #194 ), #126 ) ;
#69 = ORIENTED_EDGE ( 'NONE', *, *, #1062, .T. ) ;
#70 = CARTESIAN_POINT ( 'NONE',  ( -0.5099999999999998979, 0.000000000000000000, 0.3000000000000000444 ) ) ;
#71 = ORIENTED_EDGE ( 'NONE', *, *, #509, .F. ) ;
#72 = CARTESIAN_POINT ( 'NONE',  ( 0.5999999999999998668, 0.000000000000000000, 0.3999999999999999112 ) ) ;
#73 = VERTEX_POINT ( 'NONE', #771 ) ;
#74 = PLANE ( 'NONE',  #409 ) ;
#75 = VECTOR ( 'NONE', #1155, 1000.000000000000000 ) ;
#76 = CARTESIAN_POINT ( 'NONE',  ( 0.000000000000000000, 0.000000000000000000, 0.000000000000000000 ) ) ;
#77 = ADVANCED_FACE ( 'NONE', ( #664 ), #577, .F. ) ;
#78 = LINE ( 'NONE', #842, #618 ) ;
#79 = DIRECTION ( 'NONE',  ( -9.000637132413432011E-17, 0.08715574274765836016, -0.9961946980917455452 ) ) ;
#80 = VERTEX_POINT ( 'NONE', #958 ) ;
#81 = PRODUCT_DEFINITION_SHAPE ( 'NONE', 'NONE',  #1206 ) ;
#82 = CARTESIAN_POINT ( 'NONE',  ( -0.5099999999999998979, 0.1300000000000000044, 0.5999999999999999778 ) ) ;
#83 = EDGE_CURVE ( 'NONE', #56, #861, #1054, .T. ) ;
#84 = LINE ( 'NONE', #817, #440 ) ;
#85 = CARTESIAN_POINT ( 'NONE',  ( 0.1600000000000000033, 0.1300000000000000044, -0.3000000000000001554 ) ) ;
#86 = VECTOR ( 'NONE', #888, 1000.000000000000000 ) ;
#87 = EDGE_LOOP ( 'NONE', ( #735, #532, #107, #1095 ) ) ;
#88 = DIRECTION ( 'NONE',  ( -0.000000000000000000, -0.000000000000000000, 1.000000000000000000 ) ) ;
#89 = CARTESIAN_POINT ( 'NONE',  ( -0.1600000000000000033, 0.1300000000000000044, -0.3000000000000001554 ) ) ;
#90 = PLANE ( 'NONE',  #65 ) ;
#91 = EDGE_CURVE ( 'NONE', #438, #1203, #300, .T. ) ;
#92 = ORIENTED_EDGE ( 'NONE', *, *, #1225, .F. ) ;
#93 = VECTOR ( 'NONE', #793, 1000.000000000000000 ) ;
#94 = FACE_OUTER_BOUND ( 'NONE', #590, .T. ) ;
#95 = AXIS2_PLACEMENT_3D ( 'NONE', #796, #328, #790 ) ;
#96 = DIRECTION ( 'NONE',  ( 0.000000000000000000, 0.000000000000000000, -1.000000000000000000 ) ) ;
#97 = FACE_OUTER_BOUND ( 'NONE', #647, .T. ) ;
#98 = ORIENTED_EDGE ( 'NONE', *, *, #579, .F. ) ;
#99 = EDGE_CURVE ( 'NONE', #622, #873, #587, .T. ) ;
#100 = DIRECTION ( 'NONE',  ( 0.000000000000000000, 0.000000000000000000, 1.000000000000000000 ) ) ;
#101 = CARTESIAN_POINT ( 'NONE',  ( -0.2899999999999999245, 0.000000000000000000, 0.3000000000000000444 ) ) ;
#102 = ORIENTED_EDGE ( 'NONE', *, *, #1150, .T. ) ;
#103 = VECTOR ( 'NONE', #507, 1000.000000000000000 ) ;
#104 = CARTESIAN_POINT ( 'NONE',  ( 0.1600000000000000033, 0.1300000000000000044, -0.5999999999999999778 ) ) ;
#105 = CARTESIAN_POINT ( 'NONE',  ( 0.5999999999999998668, 0.1300000000000000044, 0.3999999999999999112 ) ) ;
#106 = PLANE ( 'NONE',  #782 ) ;
#107 = ORIENTED_EDGE ( 'NONE', *, *, #83, .F. ) ;
#108 = CARTESIAN_POINT ( 'NONE',  ( 0.2900000000000000355, 0.000000000000000000, 0.2999999999999999889 ) ) ;
#109 = ADVANCED_FACE ( 'NONE', ( #1065 ), #1047, .T. ) ;
#110 = LINE ( 'NONE', #221, #103 ) ;
#111 = VECTOR ( 'NONE', #288, 1000.000000000000114 ) ;
#112 = LINE ( 'NONE', #413, #1094 ) ;
#113 = CARTESIAN_POINT ( 'NONE',  ( 0.5999999999999998668, 0.1300000000000000044, 0.3999999999999999112 ) ) ;
#114 = ORIENTED_EDGE ( 'NONE', *, *, #875, .T. ) ;
#115 = EDGE_CURVE ( 'NONE', #49, #637, #384, .T. ) ;
#116 = CARTESIAN_POINT ( 'NONE',  ( 0.1599999999999999756, -1.442220510185595828, -0.4000000000000000777 ) ) ;
#117 = DIRECTION ( 'NONE',  ( 0.000000000000000000, 0.000000000000000000, 1.000000000000000000 ) ) ;
#118 = EDGE_CURVE ( 'NONE', #374, #56, #184, .T. ) ;
#119 = ORIENTED_EDGE ( 'NONE', *, *, #1106, .F. ) ;
#120 = ORIENTED_EDGE ( 'NONE', *, *, #4, .T. ) ;
#121 = STYLED_ITEM ( 'NONE', ( #645 ), #1207 ) ;
#122 = CARTESIAN_POINT ( 'NONE',  ( 0.2900000000000000355, 0.5686342439892260181, 0.2999999999999999889 ) ) ;
#123 = DIRECTION ( 'NONE',  ( -0.000000000000000000, 0.000000000000000000, 1.000000000000000000 ) ) ;
#124 = CARTESIAN_POINT ( 'NONE',  ( -0.5632547613191116742, 0.5499999999999999334, 0.3632547613191118296 ) ) ;
#125 = CARTESIAN_POINT ( 'NONE',  ( 0.5632547613191116742, 0.5500000000000000444, 0.3632547613191117186 ) ) ;
#126 = ADVANCED_BREP_SHAPE_REPRESENTATION ( 'SSM3K56MFV,L3F', ( #1201, #353, #363, #1207, #611 ), #945 ) ;
#127 = VERTEX_POINT ( 'NONE', #593 ) ;
#128 = LINE ( 'NONE', #803, #218 ) ;
#129 = EDGE_CURVE ( 'NONE', #557, #628, #202, .T. ) ;
#130 = ORIENTED_EDGE ( 'NONE', *, *, #448, .T. ) ;
#131 = APPLICATION_PROTOCOL_DEFINITION ( 'draft international standard', 'automotive_design', 1998, #261 ) ;
#132 = PLANE ( 'NONE',  #1141 ) ;
#133 = LINE ( 'NONE', #621, #944 ) ;
#134 = VECTOR ( 'NONE', #209, 1000.000000000000000 ) ;
#135 = EDGE_LOOP ( 'NONE', ( #1031, #1084, #562, #449 ) ) ;
#136 = CARTESIAN_POINT ( 'NONE',  ( -0.2899999999999999800, 0.1300000000000000044, 0.3000000000000000444 ) ) ;
#137 = AXIS2_PLACEMENT_3D ( 'NONE', #527, #898, #42 ) ;
#138 = ORIENTED_EDGE ( 'NONE', *, *, #968, .T. ) ;
#139 = EDGE_CURVE ( 'NONE', #366, #1212, #970, .T. ) ;
#140 = PLANE ( 'NONE',  #137 ) ;
#141 = CARTESIAN_POINT ( 'NONE',  ( -0.2899999999999999245, 0.000000000000000000, 0.4000000000000000222 ) ) ;
#142 = ORIENTED_EDGE ( 'NONE', *, *, #752, .T. ) ;
#143 = DIRECTION ( 'NONE',  ( 0.000000000000000000, -1.000000000000000000, 0.000000000000000000 ) ) ;
#144 = UNCERTAINTY_MEASURE_WITH_UNIT (LENGTH_MEASURE( 1.000000000000000082E-05 ), #634, 'distance_accuracy_value', 'NONE');
#145 = AXIS2_PLACEMENT_3D ( 'NONE', #1082, #528, #230 ) ;
#146 = FILL_AREA_STYLE_COLOUR ( '', #669 ) ;
#147 = EDGE_CURVE ( 'NONE', #861, #469, #475, .T. ) ;
#148 = CARTESIAN_POINT ( 'NONE',  ( 0.5100000000000001199, 0.000000000000000000, 0.5999999999999998668 ) ) ;
#149 = ORIENTED_EDGE ( 'NONE', *, *, #571, .T. ) ;
#150 = DIRECTION ( 'NONE',  ( 1.000000000000000000, 0.000000000000000000, -0.000000000000000000 ) ) ;
#151 = ORIENTED_EDGE ( 'NONE', *, *, #362, .F. ) ;
#152 = LINE ( 'NONE', #540, #1063 ) ;
#153 = SURFACE_STYLE_USAGE ( .BOTH. , #724 ) ;
#154 = PLANE ( 'NONE',  #317 ) ;
#155 = ORIENTED_EDGE ( 'NONE', *, *, #533, .F. ) ;
#156 = DIRECTION ( 'NONE',  ( 0.000000000000000000, 0.000000000000000000, -1.000000000000000000 ) ) ;
#157 = VECTOR ( 'NONE', #1081, 1000.000000000000000 ) ;
#158 = ORIENTED_EDGE ( 'NONE', *, *, #189, .F. ) ;
#159 = CARTESIAN_POINT ( 'NONE',  ( 0.5999999999999998668, -1.442220510185595828, 0.3999999999999999112 ) ) ;
#160 = FILL_AREA_STYLE ('',( #170 ) ) ;
#161 = ORIENTED_EDGE ( 'NONE', *, *, #455, .F. ) ;
#162 = DIRECTION ( 'NONE',  ( -1.000000000000000000, 0.000000000000000000, -0.000000000000000000 ) ) ;
#163 = ORIENTED_EDGE ( 'NONE', *, *, #373, .F. ) ;
#164 =( NAMED_UNIT ( * ) PLANE_ANGLE_UNIT ( ) SI_UNIT ( $, .RADIAN. ) );
#165 = CARTESIAN_POINT ( 'NONE',  ( 0.5999999999999998668, 0.000000000000000000, -0.4000000000000001332 ) ) ;
#166 = VECTOR ( 'NONE', #971, 1000.000000000000000 ) ;
#167 = VERTEX_POINT ( 'NONE', #89 ) ;
#168 = DIRECTION ( 'NONE',  ( 1.000000000000000000, -0.000000000000000000, -9.035018104045870694E-17 ) ) ;
#169 = ORIENTED_EDGE ( 'NONE', *, *, #579, .T. ) ;
#170 = FILL_AREA_STYLE_COLOUR ( '', #465 ) ;
#171 = LINE ( 'NONE', #933, #3 ) ;
#172 = ORIENTED_EDGE ( 'NONE', *, *, #1106, .T. ) ;
#173 = CARTESIAN_POINT ( 'NONE',  ( 0.2900000000000000355, 0.1300000000000000044, 0.2999999999999999889 ) ) ;
#174 = ORIENTED_EDGE ( 'NONE', *, *, #544, .F. ) ;
#175 = VECTOR ( 'NONE', #514, 1000.000000000000000 ) ;
#176 = EDGE_CURVE ( 'NONE', #655, #364, #190, .T. ) ;
#177 = PLANE ( 'NONE',  #973 ) ;
#178 = LINE ( 'NONE', #350, #378 ) ;
#179 = PLANE ( 'NONE',  #956 ) ;
#180 = ORIENTED_EDGE ( 'NONE', *, *, #1136, .F. ) ;
#181 = FACE_OUTER_BOUND ( 'NONE', #791, .T. ) ;
#182 = DIRECTION ( 'NONE',  ( 0.000000000000000000, -1.000000000000000000, 0.000000000000000000 ) ) ;
#183 = EDGE_CURVE ( 'NONE', #505, #267, #479, .T. ) ;
#184 = LINE ( 'NONE', #11, #134 ) ;
#185 = DIRECTION ( 'NONE',  ( -1.000000000000000000, 0.000000000000000000, 0.000000000000000000 ) ) ;
#187 = ORIENTED_EDGE ( 'NONE', *, *, #1074, .F. ) ;
#186 = VECTOR ( 'NONE', #506, 1000.000000000000000 ) ;
#188 = PLANE ( 'NONE',  #993 ) ;
#189 = EDGE_CURVE ( 'NONE', #608, #861, #1228, .T. ) ;
#190 = LINE ( 'NONE', #389, #398 ) ;
#191 = PLANE ( 'NONE',  #589 ) ;
#192 = ORIENTED_EDGE ( 'NONE', *, *, #509, .T. ) ;
#193 = VECTOR ( 'NONE', #485, 1000.000000000000000 ) ;
#194 = PRESENTATION_STYLE_ASSIGNMENT (( #269 ) ) ;
#195 = DIRECTION ( 'NONE',  ( -0.000000000000000000, -1.000000000000000000, -0.000000000000000000 ) ) ;
#196 = DIRECTION ( 'NONE',  ( 2.464095846557966371E-16, 0.000000000000000000, 1.000000000000000000 ) ) ;
#197 = LINE ( 'NONE', #948, #845 ) ;
#198 = AXIS2_PLACEMENT_3D ( 'NONE', #273, #642, #156 ) ;
#199 = ORIENTED_EDGE ( 'NONE', *, *, #1093, .F. ) ;
#200 = ADVANCED_FACE ( 'NONE', ( #952 ), #293, .T. ) ;
#201 = CARTESIAN_POINT ( 'NONE',  ( 0.2900000000000000355, 0.1300000000000000044, 0.3999999999999999667 ) ) ;
#202 = LINE ( 'NONE', #401, #931 ) ;
#203 = CARTESIAN_POINT ( 'NONE',  ( -0.1600000000000000033, 0.000000000000000000, -0.3000000000000001554 ) ) ;
#204 = ORIENTED_EDGE ( 'NONE', *, *, #841, .F. ) ;
#205 = VECTOR ( 'NONE', #983, 1000.000000000000000 ) ;
#206 = VECTOR ( 'NONE', #1152, 1000.000000000000000 ) ;
#207 = ADVANCED_FACE ( 'NONE', ( #989 ), #319, .T. ) ;
#208 = FACE_OUTER_BOUND ( 'NONE', #1195, .T. ) ;
#209 = DIRECTION ( 'NONE',  ( 0.000000000000000000, 1.000000000000000000, 0.000000000000000000 ) ) ;
#210 = CARTESIAN_POINT ( 'NONE',  ( 0.1600000000000000033, 0.000000000000000000, -0.3000000000000001554 ) ) ;
#211 = ORIENTED_EDGE ( 'NONE', *, *, #764, .F. ) ;
#212 = EDGE_CURVE ( 'NONE', #327, #557, #1075, .T. ) ;
#213 = STYLED_ITEM ( 'NONE', ( #1208 ), #363 ) ;
#214 = DIRECTION ( 'NONE',  ( 0.000000000000000000, 0.000000000000000000, -1.000000000000000000 ) ) ;
#215 = LINE ( 'NONE', #964, #186 ) ;
#216 = ADVANCED_FACE ( 'NONE', ( #698 ), #1161, .F. ) ;
#217 = LINE ( 'NONE', #148, #20 ) ;
#218 = VECTOR ( 'NONE', #143, 1000.000000000000000 ) ;
#219 = ORIENTED_EDGE ( 'NONE', *, *, #362, .T. ) ;
#220 = DIRECTION ( 'NONE',  ( -0.000000000000000000, -1.000000000000000000, -0.000000000000000000 ) ) ;
#221 = CARTESIAN_POINT ( 'NONE',  ( 0.5999999999999998668, 0.1300000000000000044, 0.3999999999999999112 ) ) ;
#222 = LINE ( 'NONE', #1070, #1167 ) ;
#223 = EDGE_CURVE ( 'NONE', #244, #1044, #982, .T. ) ;
#224 = DIRECTION ( 'NONE',  ( 0.000000000000000000, 1.000000000000000000, 0.000000000000000000 ) ) ;
#225 = ORIENTED_EDGE ( 'NONE', *, *, #294, .F. ) ;
#226 = LINE ( 'NONE', #609, #422 ) ;
#227 = ORIENTED_EDGE ( 'NONE', *, *, #274, .F. ) ;
#228 = VECTOR ( 'NONE', #606, 1000.000000000000000 ) ;
#229 = CARTESIAN_POINT ( 'NONE',  ( 0.2900000000000000355, 0.5686342439892260181, 0.5999999999999998668 ) ) ;
#230 = DIRECTION ( 'NONE',  ( 1.000000000000000000, 0.000000000000000000, -2.464095846557966371E-16 ) ) ;
#231 = VERTEX_POINT ( 'NONE', #124 ) ;
#232 = CARTESIAN_POINT ( 'NONE',  ( 0.2900000000000000355, 0.000000000000000000, 0.2999999999999999889 ) ) ;
#233 = ORIENTED_EDGE ( 'NONE', *, *, #302, .F. ) ;
#234 = DIRECTION ( 'NONE',  ( -0.000000000000000000, 1.000000000000000000, 0.000000000000000000 ) ) ;
#235 = PLANE ( 'NONE',  #853 ) ;
#236 = DIRECTION ( 'NONE',  ( -0.000000000000000000, -1.000000000000000000, -0.000000000000000000 ) ) ;
#237 = AXIS2_PLACEMENT_3D ( 'NONE', #869, #1042, #687 ) ;
#238 = ORIENTED_EDGE ( 'NONE', *, *, #332, .F. ) ;
#239 = CARTESIAN_POINT ( 'NONE',  ( 0.5999999999999998668, 0.1300000000000000044, -0.4000000000000001332 ) ) ;
#240 = CARTESIAN_POINT ( 'NONE',  ( -0.2899999999999999245, 0.000000000000000000, 0.5999999999999999778 ) ) ;
#241 = CARTESIAN_POINT ( 'NONE',  ( 0.000000000000000000, 0.1300000000000000044, 0.000000000000000000 ) ) ;
#242 = LINE ( 'NONE', #1187, #492 ) ;
#243 = PRODUCT ( 'SSM3K56MFV,L3F', 'SSM3K56MFV,L3F', '', ( #1142 ) ) ;
#244 = VERTEX_POINT ( 'NONE', #45 ) ;
#245 = FACE_OUTER_BOUND ( 'NONE', #458, .T. ) ;
#246 = ORIENTED_EDGE ( 'NONE', *, *, #961, .T. ) ;
#247 = DIRECTION ( 'NONE',  ( 1.000000000000000000, 0.000000000000000000, 0.000000000000000000 ) ) ;
#248 = UNCERTAINTY_MEASURE_WITH_UNIT (LENGTH_MEASURE( 1.000000000000000082E-05 ), #613, 'distance_accuracy_value', 'NONE');
#249 = EDGE_CURVE ( 'NONE', #1061, #608, #222, .T. ) ;
#250 = VECTOR ( 'NONE', #421, 1000.000000000000000 ) ;
#251 = FILL_AREA_STYLE_COLOUR ( '', #736 ) ;
#252 = LINE ( 'NONE', #635, #1129 ) ;
#253 = DIRECTION ( 'NONE',  ( 0.000000000000000000, 0.000000000000000000, 1.000000000000000000 ) ) ;
#254 = ORIENTED_EDGE ( 'NONE', *, *, #461, .T. ) ;
#255 = CARTESIAN_POINT ( 'NONE',  ( -0.2899999999999999245, 0.000000000000000000, 0.3000000000000000444 ) ) ;
#256 = CARTESIAN_POINT ( 'NONE',  ( -0.2899999999999999245, 0.000000000000000000, 0.5999999999999999778 ) ) ;
#257 = ADVANCED_FACE ( 'NONE', ( #521 ), #626, .T. ) ;
#258 = ORIENTED_EDGE ( 'NONE', *, *, #722, .F. ) ;
#259 = CARTESIAN_POINT ( 'NONE',  ( 0.5100000000000001199, 0.5686342439892260181, 0.5999999999999998668 ) ) ;
#260 = AXIS2_PLACEMENT_3D ( 'NONE', #683, #6, #96 ) ;
#261 = APPLICATION_CONTEXT ( 'automotive_design' ) ;
#262 = ORIENTED_EDGE ( 'NONE', *, *, #183, .F. ) ;
#263 = AXIS2_PLACEMENT_3D ( 'NONE', #884, #714, #1085 ) ;
#264 = DIRECTION ( 'NONE',  ( 1.000000000000000000, 0.000000000000000000, -9.035018104045871927E-17 ) ) ;
#265 = ORIENTED_EDGE ( 'NONE', *, *, #1100, .T. ) ;
#266 = DIRECTION ( 'NONE',  ( -1.000000000000000000, 0.000000000000000000, 9.035018104045871927E-17 ) ) ;
#267 = VERTEX_POINT ( 'NONE', #1089 ) ;
#268 = CARTESIAN_POINT ( 'NONE',  ( 0.2900000000000000355, 0.1300000000000000044, 0.5999999999999998668 ) ) ;
#269 = SURFACE_STYLE_USAGE ( .BOTH. , #1118 ) ;
#270 = CARTESIAN_POINT ( 'NONE',  ( 0.5099999999999998979, 0.1300000000000000044, 0.2999999999999999334 ) ) ;
#271 = STYLED_ITEM ( 'NONE', ( #9 ), #1201 ) ;
#272 = EDGE_LOOP ( 'NONE', ( #371, #653, #1163, #822 ) ) ;
#273 = CARTESIAN_POINT ( 'NONE',  ( 0.5999999999999998668, -1.442220510185595828, 0.3999999999999999112 ) ) ;
#274 = EDGE_CURVE ( 'NONE', #513, #469, #406, .T. ) ;
#275 = ORIENTED_EDGE ( 'NONE', *, *, #1002, .F. ) ;
#276 = ORIENTED_EDGE ( 'NONE', *, *, #544, .T. ) ;
#277 = PLANE ( 'NONE',  #198 ) ;
#278 = VECTOR ( 'NONE', #88, 1000.000000000000000 ) ;
#279 = ORIENTED_EDGE ( 'NONE', *, *, #274, .T. ) ;
#280 = PRESENTATION_LAYER_ASSIGNMENT (  '', '', ( #213 ) ) ;
#281 = ADVANCED_FACE ( 'NONE', ( #808 ), #235, .F. ) ;
#282 = DIRECTION ( 'NONE',  ( -0.000000000000000000, 0.000000000000000000, 1.000000000000000000 ) ) ;
#283 = CARTESIAN_POINT ( 'NONE',  ( -0.2899999999999999245, 0.1300000000000000044, 0.3000000000000000444 ) ) ;
#284 = DIRECTION ( 'NONE',  ( 0.000000000000000000, 0.000000000000000000, 1.000000000000000000 ) ) ;
#285 = ORIENTED_EDGE ( 'NONE', *, *, #483, .F. ) ;
#286 = EDGE_CURVE ( 'NONE', #49, #80, #112, .T. ) ;
#287 = CARTESIAN_POINT ( 'NONE',  ( 0.1600000000000000033, 0.1300000000000000044, -0.4000000000000000777 ) ) ;
#288 = DIRECTION ( 'NONE',  ( 0.08682659386424779191, -0.9924325091389669673, -0.08682659386424780579 ) ) ;
#289 = DIRECTION ( 'NONE',  ( 1.000000000000000000, 0.000000000000000000, 0.000000000000000000 ) ) ;
#290 = VECTOR ( 'NONE', #185, 1000.000000000000000 ) ;
#291 = EDGE_LOOP ( 'NONE', ( #53, #789, #967, #163 ) ) ;
#292 = PLANE ( 'NONE',  #951 ) ;
#293 = PLANE ( 'NONE',  #561 ) ;
#294 = EDGE_CURVE ( 'NONE', #1212, #763, #605, .T. ) ;
#295 = CARTESIAN_POINT ( 'NONE',  ( -0.6000000000000000888, -1.442220510185595828, -0.4000000000000000222 ) ) ;
#296 = ORIENTED_EDGE ( 'NONE', *, *, #1040, .T. ) ;
#297 = AXIS2_PLACEMENT_3D ( 'NONE', #760, #681, #663 ) ;
#298 = VECTOR ( 'NONE', #25, 1000.000000000000000 ) ;
#299 = VECTOR ( 'NONE', #41, 1000.000000000000000 ) ;
#300 = LINE ( 'NONE', #768, #543 ) ;
#301 = CARTESIAN_POINT ( 'NONE',  ( -0.2899999999999999245, 0.1300000000000000044, 0.5999999999999999778 ) ) ;
#302 = EDGE_CURVE ( 'NONE', #655, #505, #887, .T. ) ;
#303 = ORIENTED_EDGE ( 'NONE', *, *, #183, .T. ) ;
#304 = CARTESIAN_POINT ( 'NONE',  ( 0.2900000000000000355, 0.1300000000000000044, 0.2999999999999999889 ) ) ;
#305 = DIRECTION ( 'NONE',  ( 7.228014483236698528E-16, 0.000000000000000000, 1.000000000000000000 ) ) ;
#306 = CARTESIAN_POINT ( 'NONE',  ( 0.1600000000000000033, 0.1300000000000000044, -0.3000000000000001554 ) ) ;
#307 = LINE ( 'NONE', #966, #1080 ) ;
#308 = ORIENTED_EDGE ( 'NONE', *, *, #656, .T. ) ;
#309 = VECTOR ( 'NONE', #684, 1000.000000000000000 ) ;
#310 = EDGE_CURVE ( 'NONE', #889, #1086, #326, .T. ) ;
#311 = PLANE ( 'NONE',  #447 ) ;
#312 = CARTESIAN_POINT ( 'NONE',  ( 0.1600000000000000033, 0.1300000000000000044, -0.3000000000000001554 ) ) ;
#313 = CARTESIAN_POINT ( 'NONE',  ( -0.5099999999999998979, 0.000000000000000000, 0.5999999999999999778 ) ) ;
#314 = CARTESIAN_POINT ( 'NONE',  ( -0.6000000000000000888, 0.000000000000000000, 0.4000000000000000222 ) ) ;
#315 = ORIENTED_EDGE ( 'NONE', *, *, #455, .T. ) ;
#316 = ADVANCED_FACE ( 'NONE', ( #905 ), #154, .F. ) ;
#317 = AXIS2_PLACEMENT_3D ( 'NONE', #368, #58, #815 ) ;
#318 = LINE ( 'NONE', #697, #443 ) ;
#319 = PLANE ( 'NONE',  #716 ) ;
#320 = CARTESIAN_POINT ( 'NONE',  ( 0.5100000000000000089, -1.442220510185595828, 0.3999999999999999112 ) ) ;
#321 = EDGE_LOOP ( 'NONE', ( #673, #130, #886, #555 ) ) ;
#322 = DIRECTION ( 'NONE',  ( 9.035018104045871927E-17, -0.000000000000000000, 1.000000000000000000 ) ) ;
#323 = DIRECTION ( 'NONE',  ( -9.035018104045871927E-17, 0.000000000000000000, -1.000000000000000000 ) ) ;
#324 = ADVANCED_FACE ( 'NONE', ( #932 ), #361, .T. ) ;
#325 = PLANE ( 'NONE',  #1102 ) ;
#326 = LINE ( 'NONE', #704, #10 ) ;
#327 = VERTEX_POINT ( 'NONE', #70 ) ;
#328 = DIRECTION ( 'NONE',  ( 0.000000000000000000, 1.000000000000000000, 0.000000000000000000 ) ) ;
#329 = ORIENTED_EDGE ( 'NONE', *, *, #43, .T. ) ;
#330 = AXIS2_PLACEMENT_3D ( 'NONE', #32, #1097, #600 ) ;
#331 = DIRECTION ( 'NONE',  ( -0.08715574274765836016, 0.9961946980917455452, 0.000000000000000000 ) ) ;
#332 = EDGE_CURVE ( 'NONE', #231, #1086, #1112, .T. ) ;
#333 = ORIENTED_EDGE ( 'NONE', *, *, #640, .T. ) ;
#334 = LINE ( 'NONE', #530, #643 ) ;
#335 = ORIENTED_EDGE ( 'NONE', *, *, #27, .F. ) ;
#336 =( LENGTH_UNIT ( ) NAMED_UNIT ( * ) SI_UNIT ( .MILLI., .METRE. ) );
#337 = DIRECTION ( 'NONE',  ( -1.000000000000000000, 0.000000000000000000, 0.000000000000000000 ) ) ;
#338 = LINE ( 'NONE', #627, #228 ) ;
#339 = ORIENTED_EDGE ( 'NONE', *, *, #1093, .T. ) ;
#340 = LINE ( 'NONE', #1000, #1134 ) ;
#341 = ADVANCED_FACE ( 'NONE', ( #646 ), #1021, .T. ) ;
#342 = ORIENTED_EDGE ( 'NONE', *, *, #1215, .T. ) ;
#343 = DIRECTION ( 'NONE',  ( 1.000000000000000000, 0.000000000000000000, -2.464095846557966371E-16 ) ) ;
#344 = CARTESIAN_POINT ( 'NONE',  ( 0.5999999999999998668, -1.442220510185595828, 0.3999999999999999112 ) ) ;
#345 = ORIENTED_EDGE ( 'NONE', *, *, #223, .T. ) ;
#346 = CARTESIAN_POINT ( 'NONE',  ( -0.5099999999999998979, 0.000000000000000000, 0.4000000000000000222 ) ) ;
#347 = EDGE_CURVE ( 'NONE', #62, #915, #1101, .T. ) ;
#348 = AXIS2_PLACEMENT_3D ( 'NONE', #751, #744, #1126 ) ;
#349 =( NAMED_UNIT ( * ) PLANE_ANGLE_UNIT ( ) SI_UNIT ( $, .RADIAN. ) );
#350 = CARTESIAN_POINT ( 'NONE',  ( -0.5632547613191118963, 0.5500000000000000444, 0.4000000000000000222 ) ) ;
#351 = LINE ( 'NONE', #60, #914 ) ;
#352 = ORIENTED_EDGE ( 'NONE', *, *, #448, .F. ) ;
#353 = MANIFOLD_SOLID_BREP ( 'Boss-Extrude2[1]', #1051 ) ;
#354 = EDGE_CURVE ( 'NONE', #1127, #1110, #912, .T. ) ;
#355 = CLOSED_SHELL ( 'NONE', ( #558, #759, #488, #1068, #316, #670 ) ) ;
#356 = ORIENTED_EDGE ( 'NONE', *, *, #434, .T. ) ;
#357 = PLANE ( 'NONE',  #740 ) ;
#358 = VECTOR ( 'NONE', #569, 1000.000000000000000 ) ;
#359 = ORIENTED_EDGE ( 'NONE', *, *, #722, .T. ) ;
#360 = LINE ( 'NONE', #1200, #748 ) ;
#361 = PLANE ( 'NONE',  #597 ) ;
#362 = EDGE_CURVE ( 'NONE', #1203, #715, #1015, .T. ) ;
#363 = MANIFOLD_SOLID_BREP ( 'Boss-Extrude2[2]', #678 ) ;
#364 = VERTEX_POINT ( 'NONE', #851 ) ;
#365 = CARTESIAN_POINT ( 'NONE',  ( 0.5999999999999998668, 0.1300000000000000044, -0.4000000000000001332 ) ) ;
#366 = VERTEX_POINT ( 'NONE', #104 ) ;
#367 = SURFACE_STYLE_FILL_AREA ( #568 ) ;
#368 = CARTESIAN_POINT ( 'NONE',  ( 0.5100000000000001199, 0.5686342439892260181, 0.5999999999999998668 ) ) ;
#369 = VECTOR ( 'NONE', #831, 1000.000000000000000 ) ;
#370 = VECTOR ( 'NONE', #182, 1000.000000000000000 ) ;
#371 = ORIENTED_EDGE ( 'NONE', *, *, #742, .F. ) ;
#372 = LINE ( 'NONE', #476, #473 ) ;
#373 = EDGE_CURVE ( 'NONE', #550, #518, #534, .T. ) ;
#374 = VERTEX_POINT ( 'NONE', #495 ) ;
#375 = DIRECTION ( 'NONE',  ( 0.000000000000000000, 0.000000000000000000, -1.000000000000000000 ) ) ;
#376 = DIRECTION ( 'NONE',  ( -1.000000000000000000, -0.000000000000000000, -0.000000000000000000 ) ) ;
#377 = CARTESIAN_POINT ( 'NONE',  ( 0.1600000000000000033, 0.000000000000000000, -0.3000000000000001554 ) ) ;
#378 = VECTOR ( 'NONE', #934, 1000.000000000000000 ) ;
#379 = EDGE_LOOP ( 'NONE', ( #920, #149, #1114, #553 ) ) ;
#380 = PRODUCT_RELATED_PRODUCT_CATEGORY ( 'part', '', ( #243 ) ) ;
#381 = AXIS2_PLACEMENT_3D ( 'NONE', #229, #691, #214 ) ;
#382 = FACE_OUTER_BOUND ( 'NONE', #40, .T. ) ;
#383 = LINE ( 'NONE', #270, #370 ) ;
#384 = LINE ( 'NONE', #1059, #638 ) ;
#385 = FACE_OUTER_BOUND ( 'NONE', #445, .T. ) ;
#386 = EDGE_LOOP ( 'NONE', ( #825, #47, #303, #246 ) ) ;
#387 = EDGE_CURVE ( 'NONE', #574, #954, #1058, .T. ) ;
#388 = CARTESIAN_POINT ( 'NONE',  ( 0.5099999999999998979, 0.000000000000000000, 0.2999999999999999334 ) ) ;
#389 = CARTESIAN_POINT ( 'NONE',  ( 0.5100000000000001199, 0.5686342439892260181, 0.5999999999999998668 ) ) ;
#390 = DIRECTION ( 'NONE',  ( 0.000000000000000000, -0.000000000000000000, -1.000000000000000000 ) ) ;
#391 = AXIS2_PLACEMENT_3D ( 'NONE', #706, #435, #23 ) ;
#392 = EDGE_LOOP ( 'NONE', ( #1049, #138, #1105, #729 ) ) ;
#393 = CARTESIAN_POINT ( 'NONE',  ( -0.1600000000000000033, 0.5686342439892260181, -0.5999999999999999778 ) ) ;
#394 = ADVANCED_FACE ( 'NONE', ( #382 ), #177, .F. ) ;
#395 = CARTESIAN_POINT ( 'NONE',  ( 0.5999999999999998668, 0.1300000000000000044, 0.3999999999999999112 ) ) ;
#396 = CARTESIAN_POINT ( 'NONE',  ( -0.1600000000000000033, 0.1300000000000000044, -0.3000000000000001554 ) ) ;
#397 = ORIENTED_EDGE ( 'NONE', *, *, #354, .T. ) ;
#398 = VECTOR ( 'NONE', #490, 1000.000000000000000 ) ;
#399 =( NAMED_UNIT ( * ) SI_UNIT ( $, .STERADIAN. ) SOLID_ANGLE_UNIT ( ) );
#400 = ADVANCED_FACE ( 'NONE', ( #489 ), #292, .T. ) ;
#401 = CARTESIAN_POINT ( 'NONE',  ( -0.5100000000000000089, -1.442220510185595828, 0.4000000000000000222 ) ) ;
#402 = DIRECTION ( 'NONE',  ( 1.000000000000000000, -0.000000000000000000, -9.035018104045870694E-17 ) ) ;
#403 = EDGE_CURVE ( 'NONE', #1001, #628, #1046, .T. ) ;
#404 = ORIENTED_EDGE ( 'NONE', *, *, #857, .F. ) ;
#405 = FACE_OUTER_BOUND ( 'NONE', #1140, .T. ) ;
#406 = LINE ( 'NONE', #116, #93 ) ;
#407 = LINE ( 'NONE', #210, #166 ) ;
#408 = ORIENTED_EDGE ( 'NONE', *, *, #1231, .F. ) ;
#409 = AXIS2_PLACEMENT_3D ( 'NONE', #268, #247, #1096 ) ;
#410 = EDGE_CURVE ( 'NONE', #661, #1086, #1154, .T. ) ;
#411 = PRODUCT_DEFINITION_FORMATION_WITH_SPECIFIED_SOURCE ( 'ANY', '', #243, .NOT_KNOWN. ) ;
#412 = CARTESIAN_POINT ( 'NONE',  ( 0.5999999999999998668, 0.000000000000000000, -0.4000000000000001332 ) ) ;
#413 = CARTESIAN_POINT ( 'NONE',  ( 0.5099999999999996758, 0.000000000000000000, -3.686287386450714090E-16 ) ) ;
#414 = CARTESIAN_POINT ( 'NONE',  ( -0.5099999999999998979, 0.1300000000000000044, 0.3000000000000000444 ) ) ;
#415 = VERTEX_POINT ( 'NONE', #1035 ) ;
#416 = FACE_OUTER_BOUND ( 'NONE', #926, .T. ) ;
#417 = ORIENTED_EDGE ( 'NONE', *, *, #633, .T. ) ;
#418 = ADVANCED_FACE ( 'NONE', ( #181 ), #1143, .T. ) ;
#419 = VECTOR ( 'NONE', #1221, 1000.000000000000000 ) ;
#420 = DIRECTION ( 'NONE',  ( -1.000000000000000000, 0.000000000000000000, 0.000000000000000000 ) ) ;
#421 = DIRECTION ( 'NONE',  ( -0.000000000000000000, -1.000000000000000000, -0.000000000000000000 ) ) ;
#422 = VECTOR ( 'NONE', #35, 1000.000000000000000 ) ;
#423 = ORIENTED_EDGE ( 'NONE', *, *, #849, .T. ) ;
#424 = FACE_OUTER_BOUND ( 'NONE', #425, .T. ) ;
#425 = EDGE_LOOP ( 'NONE', ( #199, #254, #737, #902 ) ) ;
#426 = CARTESIAN_POINT ( 'NONE',  ( -0.1600000000000000033, 0.1300000000000000044, -0.3000000000000001554 ) ) ;
#427 = ADVANCED_FACE ( 'NONE', ( #939 ), #478, .T. ) ;
#428 = ORIENTED_EDGE ( 'NONE', *, *, #115, .T. ) ;
#429 = CARTESIAN_POINT ( 'NONE',  ( 0.000000000000000000, 0.000000000000000000, 0.000000000000000000 ) ) ;
#430 = VERTEX_POINT ( 'NONE', #201 ) ;
#431 = VECTOR ( 'NONE', #894, 1000.000000000000000 ) ;
#432 = LINE ( 'NONE', #122, #13 ) ;
#433 = CARTESIAN_POINT ( 'NONE',  ( 0.5999999999999998668, 0.1300000000000000044, 0.3999999999999999112 ) ) ;
#434 = EDGE_CURVE ( 'NONE', #127, #1039, #1052, .T. ) ;
#435 = DIRECTION ( 'NONE',  ( 0.000000000000000000, 0.000000000000000000, -1.000000000000000000 ) ) ;
#436 = ORIENTED_EDGE ( 'NONE', *, *, #1002, .T. ) ;
#437 = PLANE ( 'NONE',  #996 ) ;
#438 = VERTEX_POINT ( 'NONE', #862 ) ;
#439 = UNCERTAINTY_MEASURE_WITH_UNIT (LENGTH_MEASURE( 1.000000000000000082E-05 ), #749, 'distance_accuracy_value', 'NONE');
#440 = VECTOR ( 'NONE', #726, 1000.000000000000000 ) ;
#441 = SURFACE_STYLE_FILL_AREA ( #542 ) ;
#442 = LINE ( 'NONE', #699, #250 ) ;
#443 = VECTOR ( 'NONE', #234, 1000.000000000000000 ) ;
#444 = ADVANCED_FACE ( 'NONE', ( #472 ), #188, .T. ) ;
#445 = EDGE_LOOP ( 'NONE', ( #985, #1026, #770, #26 ) ) ;
#446 = CARTESIAN_POINT ( 'NONE',  ( 0.5632547613191116742, 0.5500000000000000444, -0.3632547613191119407 ) ) ;
#447 = AXIS2_PLACEMENT_3D ( 'NONE', #28, #598, #1087 ) ;
#448 = EDGE_CURVE ( 'NONE', #1039, #537, #962, .T. ) ;
#449 = ORIENTED_EDGE ( 'NONE', *, *, #792, .T. ) ;
#450 = DIRECTION ( 'NONE',  ( -7.228014483236698528E-16, 0.000000000000000000, -1.000000000000000000 ) ) ;
#451 = SURFACE_STYLE_FILL_AREA ( #1124 ) ;
#452 = ORIENTED_EDGE ( 'NONE', *, *, #18, .F. ) ;
#453 = DIRECTION ( 'NONE',  ( -0.000000000000000000, -1.000000000000000000, -0.000000000000000000 ) ) ;
#454 = ORIENTED_EDGE ( 'NONE', *, *, #892, .F. ) ;
#455 = EDGE_CURVE ( 'NONE', #689, #430, #1041, .T. ) ;
#456 = MECHANICAL_DESIGN_GEOMETRIC_PRESENTATION_REPRESENTATION (  '', ( #121 ), #632 ) ;
#457 = DIRECTION ( 'NONE',  ( 1.000000000000000000, 0.000000000000000000, 0.000000000000000000 ) ) ;
#458 = EDGE_LOOP ( 'NONE', ( #923, #644, #1091, #36 ) ) ;
#459 = CARTESIAN_POINT ( 'NONE',  ( 0.5099999999999998979, 0.1300000000000000044, 0.2999999999999999334 ) ) ;
#460 = ORIENTED_EDGE ( 'NONE', *, *, #690, .F. ) ;
#461 = EDGE_CURVE ( 'NONE', #167, #574, #576, .T. ) ;
#462 = SURFACE_STYLE_USAGE ( .BOTH. , #919 ) ;
#463 = ORIENTED_EDGE ( 'NONE', *, *, #4, .F. ) ;
#464 = DIRECTION ( 'NONE',  ( -1.000000000000000000, 0.000000000000000000, 0.000000000000000000 ) ) ;
#465 = COLOUR_RGB ( '',0.7921568627450980005, 0.8196078431372548767, 0.9333333333333333481 ) ;
#466 = ORIENTED_EDGE ( 'NONE', *, *, #52, .T. ) ;
#467 = CARTESIAN_POINT ( 'NONE',  ( -0.5909533711175194437, 0.2334034412904225919, 0.3909533711175195436 ) ) ;
#468 = DIRECTION ( 'NONE',  ( -0.000000000000000000, -1.000000000000000000, -0.000000000000000000 ) ) ;
#469 = VERTEX_POINT ( 'NONE', #287 ) ;
#470 = DIRECTION ( 'NONE',  ( 0.000000000000000000, 0.000000000000000000, -1.000000000000000000 ) ) ;
#471 = ORIENTED_EDGE ( 'NONE', *, *, #1223, .T. ) ;
#472 = FACE_OUTER_BOUND ( 'NONE', #797, .T. ) ;
#473 = VECTOR ( 'NONE', #168, 1000.000000000000000 ) ;
#474 = ADVANCED_FACE ( 'NONE', ( #94 ), #484, .T. ) ;
#475 = LINE ( 'NONE', #761, #193 ) ;
#476 = CARTESIAN_POINT ( 'NONE',  ( 0.5999999999999998668, 0.1300000000000000044, 0.3999999999999999112 ) ) ;
#477 = ORIENTED_EDGE ( 'NONE', *, *, #1032, .F. ) ;
#478 = PLANE ( 'NONE',  #297 ) ;
#479 = LINE ( 'NONE', #854, #696 ) ;
#480 = LINE ( 'NONE', #51, #554 ) ;
#481 = VECTOR ( 'NONE', #620, 1000.000000000000000 ) ;
#482 = ORIENTED_EDGE ( 'NONE', *, *, #977, .T. ) ;
#483 = EDGE_CURVE ( 'NONE', #244, #430, #318, .T. ) ;
#484 = PLANE ( 'NONE',  #1036 ) ;
#485 = DIRECTION ( 'NONE',  ( -1.000000000000000000, 0.000000000000000000, 9.035018104045870694E-17 ) ) ;
#486 = LINE ( 'NONE', #855, #206 ) ;
#487 = VERTEX_POINT ( 'NONE', #304 ) ;
#488 = ADVANCED_FACE ( 'NONE', ( #405 ), #798, .F. ) ;
#489 = FACE_OUTER_BOUND ( 'NONE', #8, .T. ) ;
#490 = DIRECTION ( 'NONE',  ( -0.000000000000000000, -1.000000000000000000, -0.000000000000000000 ) ) ;
#491 = DIRECTION ( 'NONE',  ( -0.000000000000000000, -0.000000000000000000, 1.000000000000000000 ) ) ;
#492 = VECTOR ( 'NONE', #236, 1000.000000000000000 ) ;
#493 = ORIENTED_EDGE ( 'NONE', *, *, #1198, .T. ) ;
#494 = ADVANCED_FACE ( 'NONE', ( #1178 ), #311, .T. ) ;
#495 = CARTESIAN_POINT ( 'NONE',  ( 0.5999999999999998668, 0.000000000000000000, 0.3999999999999999112 ) ) ;
#496 = DIRECTION ( 'NONE',  ( 0.000000000000000000, -1.000000000000000000, 0.000000000000000000 ) ) ;
#497 = LINE ( 'NONE', #864, #419 ) ;
#498 = LINE ( 'NONE', #203, #709 ) ;
#499 = VERTEX_POINT ( 'NONE', #412 ) ;
#500 = FACE_OUTER_BOUND ( 'NONE', #392, .T. ) ;
#501 = LINE ( 'NONE', #1088, #1045 ) ;
#502 = DIRECTION ( 'NONE',  ( 7.228014483236698528E-16, -0.000000000000000000, 1.000000000000000000 ) ) ;
#503 = ADVANCED_FACE ( 'NONE', ( #878 ), #140, .F. ) ;
#504 = DIRECTION ( 'NONE',  ( -1.000000000000000000, 0.000000000000000000, 2.464095846557966371E-16 ) ) ;
#505 = VERTEX_POINT ( 'NONE', #1164 ) ;
#506 = DIRECTION ( 'NONE',  ( -0.000000000000000000, -0.000000000000000000, 1.000000000000000000 ) ) ;
#507 = DIRECTION ( 'NONE',  ( 1.000000000000000000, -0.000000000000000000, -9.035018104045870694E-17 ) ) ;
#508 = CARTESIAN_POINT ( 'NONE',  ( 0.1600000000000000033, 0.1300000000000000044, -0.3000000000000001554 ) ) ;
#509 = EDGE_CURVE ( 'NONE', #487, #518, #432, .T. ) ;
#510 = VERTEX_POINT ( 'NONE', #602 ) ;
#511 = PLANE ( 'NONE',  #263 ) ;
#512 = VECTOR ( 'NONE', #734, 1000.000000000000000 ) ;
#513 = VERTEX_POINT ( 'NONE', #937 ) ;
#514 = DIRECTION ( 'NONE',  ( -0.000000000000000000, -1.000000000000000000, -0.000000000000000000 ) ) ;
#515 = DIRECTION ( 'NONE',  ( -1.000000000000000000, 0.000000000000000000, 9.035018104045871927E-17 ) ) ;
#516 = ORIENTED_EDGE ( 'NONE', *, *, #46, .F. ) ;
#517 = PLANE ( 'NONE',  #975 ) ;
#518 = VERTEX_POINT ( 'NONE', #108 ) ;
#519 = AXIS2_PLACEMENT_3D ( 'NONE', #1107, #725, #840 ) ;
#520 = PLANE ( 'NONE',  #686 ) ;
#521 = FACE_OUTER_BOUND ( 'NONE', #19, .T. ) ;
#522 = CARTESIAN_POINT ( 'NONE',  ( -0.1600000000000000033, 0.5686342439892260181, -0.3000000000000001554 ) ) ;
#523 = ORIENTED_EDGE ( 'NONE', *, *, #249, .T. ) ;
#524 = DIRECTION ( 'NONE',  ( -1.000000000000000000, 0.000000000000000000, -0.000000000000000000 ) ) ;
#525 = ORIENTED_EDGE ( 'NONE', *, *, #354, .F. ) ;
#526 = ADVANCED_FACE ( 'NONE', ( #500 ), #874, .T. ) ;
#527 = CARTESIAN_POINT ( 'NONE',  ( -0.5099999999999998979, 0.5686342439892260181, 0.3000000000000000444 ) ) ;
#528 = DIRECTION ( 'NONE',  ( 2.464095846557966371E-16, -0.000000000000000000, 1.000000000000000000 ) ) ;
#529 = ORIENTED_EDGE ( 'NONE', *, *, #434, .F. ) ;
#530 = CARTESIAN_POINT ( 'NONE',  ( -0.5939689140783463994, 0.1989356275269484053, -0.3939689140783464438 ) ) ;
#532 = ORIENTED_EDGE ( 'NONE', *, *, #1017, .T. ) ;
#531 = COLOUR_RGB ( '',0.2509803921568627416, 0.2509803921568627416, 0.2509803921568627416 ) ;
#533 = EDGE_CURVE ( 'NONE', #622, #1001, #538, .T. ) ;
#534 = LINE ( 'NONE', #388, #580 ) ;
#535 = LINE ( 'NONE', #320, #86 ) ;
#536 = ADVANCED_FACE ( 'NONE', ( #708 ), #1104, .F. ) ;
#537 = VERTEX_POINT ( 'NONE', #986 ) ;
#538 = LINE ( 'NONE', #903, #298 ) ;
#539 = ORIENTED_EDGE ( 'NONE', *, *, #37, .T. ) ;
#540 = CARTESIAN_POINT ( 'NONE',  ( 0.5100000000000001199, 0.1300000000000000044, 0.5999999999999998668 ) ) ;
#541 = UNCERTAINTY_MEASURE_WITH_UNIT (LENGTH_MEASURE( 1.000000000000000082E-05 ), #575, 'distance_accuracy_value', 'NONE');
#542 = FILL_AREA_STYLE ('',( #146 ) ) ;
#543 = VECTOR ( 'NONE', #572, 1000.000000000000000 ) ;
#544 = EDGE_CURVE ( 'NONE', #1230, #1127, #54, .T. ) ;
#545 = EDGE_LOOP ( 'NONE', ( #713, #680, #151, #547 ) ) ;
#546 = LINE ( 'NONE', #659, #44 ) ;
#547 = ORIENTED_EDGE ( 'NONE', *, *, #91, .F. ) ;
#548 = DIRECTION ( 'NONE',  ( 9.035018104045871927E-17, -0.000000000000000000, 1.000000000000000000 ) ) ;
#549 = SURFACE_STYLE_FILL_AREA ( #160 ) ;
#550 = VERTEX_POINT ( 'NONE', #727 ) ;
#551 = LINE ( 'NONE', #921, #610 ) ;
#552 = ADVANCED_FACE ( 'NONE', ( #623 ), #437, .T. ) ;
#553 = ORIENTED_EDGE ( 'NONE', *, *, #483, .T. ) ;
#554 = VECTOR ( 'NONE', #801, 1000.000000000000000 ) ;
#555 = ORIENTED_EDGE ( 'NONE', *, *, #786, .T. ) ;
#556 = FACE_OUTER_BOUND ( 'NONE', #1120, .T. ) ;
#557 = VERTEX_POINT ( 'NONE', #346 ) ;
#558 = ADVANCED_FACE ( 'NONE', ( #701 ), #517, .F. ) ;
#559 = ORIENTED_EDGE ( 'NONE', *, *, #826, .T. ) ;
#560 = FACE_OUTER_BOUND ( 'NONE', #943, .T. ) ;
#561 = AXIS2_PLACEMENT_3D ( 'NONE', #676, #196, #717 ) ;
#562 = ORIENTED_EDGE ( 'NONE', *, *, #176, .T. ) ;
#563 = EDGE_CURVE ( 'NONE', #537, #567, #340, .T. ) ;
#564 = DIRECTION ( 'NONE',  ( -1.000000000000000000, 0.000000000000000000, -0.000000000000000000 ) ) ;
#565 = ORIENTED_EDGE ( 'NONE', *, *, #403, .T. ) ;
#566 = LINE ( 'NONE', #72, #1016 ) ;
#567 = VERTEX_POINT ( 'NONE', #136 ) ;
#568 = FILL_AREA_STYLE ('',( #1050 ) ) ;
#569 = DIRECTION ( 'NONE',  ( -0.000000000000000000, -0.000000000000000000, 1.000000000000000000 ) ) ;
#570 = MECHANICAL_DESIGN_GEOMETRIC_PRESENTATION_REPRESENTATION (  '', ( #271 ), #981 ) ;
#571 = EDGE_CURVE ( 'NONE', #415, #1044, #128, .T. ) ;
#572 = DIRECTION ( 'NONE',  ( -0.000000000000000000, -0.000000000000000000, 1.000000000000000000 ) ) ;
#573 = CARTESIAN_POINT ( 'NONE',  ( -0.1600000000000000033, 0.000000000000000000, 0.000000000000000000 ) ) ;
#574 = VERTEX_POINT ( 'NONE', #1006 ) ;
#575 =( LENGTH_UNIT ( ) NAMED_UNIT ( * ) SI_UNIT ( .MILLI., .METRE. ) );
#576 = LINE ( 'NONE', #946, #1131 ) ;
#577 = PLANE ( 'NONE',  #260 ) ;
#578 = CARTESIAN_POINT ( 'NONE',  ( 0.2900000000000000355, 0.000000000000000000, 0.5999999999999998668 ) ) ;
#579 = EDGE_CURVE ( 'NONE', #438, #661, #616, .T. ) ;
#580 = VECTOR ( 'NONE', #950, 1000.000000000000000 ) ;
#581 = ORIENTED_EDGE ( 'NONE', *, *, #857, .T. ) ;
#582 = CARTESIAN_POINT ( 'NONE',  ( 0.000000000000000000, 0.1300000000000000044, 0.000000000000000000 ) ) ;
#583 = DIRECTION ( 'NONE',  ( -1.000000000000000000, 0.000000000000000000, 2.464095846557966371E-16 ) ) ;
#584 = DIRECTION ( 'NONE',  ( 0.000000000000000000, 1.000000000000000000, 0.000000000000000000 ) ) ;
#585 = EDGE_LOOP ( 'NONE', ( #1010, #14, #707, #830 ) ) ;
#586 = DIRECTION ( 'NONE',  ( -1.000000000000000000, 0.000000000000000000, 9.035018104045871927E-17 ) ) ;
#587 = LINE ( 'NONE', #283, #75 ) ;
#588 = CARTESIAN_POINT ( 'NONE',  ( -0.5632547613191118963, 0.5500000000000000444, -0.3632547613191118296 ) ) ;
#589 = AXIS2_PLACEMENT_3D ( 'NONE', #301, #1139, #1162 ) ;
#590 = EDGE_LOOP ( 'NONE', ( #335, #279, #949, #1205 ) ) ;
#591 = ADVANCED_FACE ( 'NONE', ( #245 ), #629, .F. ) ;
#592 = CARTESIAN_POINT ( 'NONE',  ( -0.5099999999999998979, 0.1300000000000000044, 0.3000000000000000444 ) ) ;
#593 = CARTESIAN_POINT ( 'NONE',  ( -0.2899999999999999800, 0.1300000000000000044, 0.5999999999999999778 ) ) ;
#594 = LINE ( 'NONE', #578, #630 ) ;
#595 = ORIENTED_EDGE ( 'NONE', *, *, #1223, .F. ) ;
#596 = VECTOR ( 'NONE', #965, 1000.000000000000000 ) ;
#597 = AXIS2_PLACEMENT_3D ( 'NONE', #344, #821, #264 ) ;
#598 = DIRECTION ( 'NONE',  ( 0.000000000000000000, 1.000000000000000000, 0.000000000000000000 ) ) ;
#599 = SURFACE_STYLE_USAGE ( .BOTH. , #776 ) ;
#600 = DIRECTION ( 'NONE',  ( 0.000000000000000000, -0.9961946980917455452, 0.08715574274765836016 ) ) ;
#601 = ORIENTED_EDGE ( 'NONE', *, *, #712, .T. ) ;
#602 = CARTESIAN_POINT ( 'NONE',  ( -0.1600000000000000033, 0.000000000000000000, -0.3000000000000001554 ) ) ;
#603 =( NAMED_UNIT ( * ) SI_UNIT ( $, .STERADIAN. ) SOLID_ANGLE_UNIT ( ) );
#604 = FACE_OUTER_BOUND ( 'NONE', #585, .T. ) ;
#605 = LINE ( 'NONE', #783, #175 ) ;
#606 = DIRECTION ( 'NONE',  ( -0.000000000000000000, -0.000000000000000000, 1.000000000000000000 ) ) ;
#607 = EDGE_CURVE ( 'NONE', #802, #661, #334, .T. ) ;
#608 = VERTEX_POINT ( 'NONE', #446 ) ;
#609 = CARTESIAN_POINT ( 'NONE',  ( 0.1600000000000000033, 0.000000000000000000, -0.3000000000000001554 ) ) ;
#610 = VECTOR ( 'NONE', #67, 1000.000000000000000 ) ;
#611 = AXIS2_PLACEMENT_3D ( 'NONE', #76, #938, #667 ) ;
#612 = ORIENTED_EDGE ( 'NONE', *, *, #1182, .T. ) ;
#613 =( LENGTH_UNIT ( ) NAMED_UNIT ( * ) SI_UNIT ( .MILLI., .METRE. ) );
#614 = CARTESIAN_POINT ( 'NONE',  ( -0.2899999999999999245, 0.000000000000000000, 0.000000000000000000 ) ) ;
#615 = ORIENTED_EDGE ( 'NONE', *, *, #1128, .F. ) ;
#616 = LINE ( 'NONE', #720, #913 ) ;
#617 = ORIENTED_EDGE ( 'NONE', *, *, #563, .T. ) ;
#618 = VECTOR ( 'NONE', #1216, 1000.000000000000000 ) ;
#619 = VECTOR ( 'NONE', #1151, 1000.000000000000000 ) ;
#620 = DIRECTION ( 'NONE',  ( -0.000000000000000000, -0.000000000000000000, 1.000000000000000000 ) ) ;
#621 = CARTESIAN_POINT ( 'NONE',  ( 0.2900000000000000355, 0.1300000000000000044, 0.2999999999999999889 ) ) ;
#622 = VERTEX_POINT ( 'NONE', #818 ) ;
#623 = FACE_OUTER_BOUND ( 'NONE', #1197, .T. ) ;
#624 = ADVANCED_FACE ( 'NONE', ( #424 ), #511, .F. ) ;
#625 = ADVANCED_FACE ( 'NONE', ( #416 ), #1078, .F. ) ;
#626 = PLANE ( 'NONE',  #679 ) ;
#627 = CARTESIAN_POINT ( 'NONE',  ( 0.2900000000000000355, 0.000000000000000000, 0.5999999999999998668 ) ) ;
#628 = VERTEX_POINT ( 'NONE', #1169 ) ;
#629 = PLANE ( 'NONE',  #1170 ) ;
#631 = EDGE_LOOP ( 'NONE', ( #92, #617, #436, #329 ) ) ;
#630 = VECTOR ( 'NONE', #491, 1000.000000000000000 ) ;
#632 =( GEOMETRIC_REPRESENTATION_CONTEXT ( 3 ) GLOBAL_UNCERTAINTY_ASSIGNED_CONTEXT ( ( #723 ) ) GLOBAL_UNIT_ASSIGNED_CONTEXT ( ( #336, #164, #832 ) ) REPRESENTATION_CONTEXT ( 'NONE', 'WORKASPACE' ) );
#633 = EDGE_CURVE ( 'NONE', #658, #513, #226, .T. ) ;
#634 =( LENGTH_UNIT ( ) NAMED_UNIT ( * ) SI_UNIT ( .MILLI., .METRE. ) );
#635 = CARTESIAN_POINT ( 'NONE',  ( -0.5099999999999998979, 0.000000000000000000, 0.3000000000000000444 ) ) ;
#636 = DIRECTION ( 'NONE',  ( 1.000000000000000000, 0.000000000000000000, -9.035018104045871927E-17 ) ) ;
#637 = VERTEX_POINT ( 'NONE', #232 ) ;
#638 = VECTOR ( 'NONE', #583, 1000.000000000000000 ) ;
#639 = DIRECTION ( 'NONE',  ( 0.000000000000000000, 0.000000000000000000, -1.000000000000000000 ) ) ;
#640 = EDGE_CURVE ( 'NONE', #469, #438, #1092, .T. ) ;
#641 = ORIENTED_EDGE ( 'NONE', *, *, #955, .F. ) ;
#642 = DIRECTION ( 'NONE',  ( 1.000000000000000000, -0.000000000000000000, 0.000000000000000000 ) ) ;
#643 = VECTOR ( 'NONE', #1011, 1000.000000000000114 ) ;
#644 = ORIENTED_EDGE ( 'NONE', *, *, #955, .T. ) ;
#645 = PRESENTATION_STYLE_ASSIGNMENT (( #153 ) ) ;
#646 = FACE_OUTER_BOUND ( 'NONE', #904, .T. ) ;
#647 = EDGE_LOOP ( 'NONE', ( #525, #174, #960, #811 ) ) ;
#648 = LINE ( 'NONE', #1210, #512 ) ;
#649 = EDGE_LOOP ( 'NONE', ( #71, #172, #142, #753 ) ) ;
#650 = AXIS2_PLACEMENT_3D ( 'NONE', #159, #548, #918 ) ;
#651 = SHAPE_DEFINITION_REPRESENTATION ( #81, #126 ) ;
#652 = CARTESIAN_POINT ( 'NONE',  ( -0.1600000000000000033, 0.1300000000000000044, -0.3000000000000001554 ) ) ;
#653 = ORIENTED_EDGE ( 'NONE', *, *, #139, .T. ) ;
#654 = DIRECTION ( 'NONE',  ( -1.000000000000000000, 0.000000000000000000, 9.035018104045870694E-17 ) ) ;
#655 = VERTEX_POINT ( 'NONE', #848 ) ;
#656 = EDGE_CURVE ( 'NONE', #499, #374, #566, .T. ) ;
#657 = CARTESIAN_POINT ( 'NONE',  ( -0.6000000000000000888, 0.1300000000000000044, 0.4000000000000000222 ) ) ;
#658 = VERTEX_POINT ( 'NONE', #377 ) ;
#659 = CARTESIAN_POINT ( 'NONE',  ( 0.5099999999999998979, 0.5686342439892260181, 0.2999999999999999334 ) ) ;
#660 = VECTOR ( 'NONE', #195, 1000.000000000000000 ) ;
#661 = VERTEX_POINT ( 'NONE', #829 ) ;
#662 = ADVANCED_FACE ( 'NONE', ( #927 ), #179, .F. ) ;
#663 = DIRECTION ( 'NONE',  ( 0.000000000000000000, 0.000000000000000000, -1.000000000000000000 ) ) ;
#664 = FACE_OUTER_BOUND ( 'NONE', #321, .T. ) ;
#665 = PLANE ( 'NONE',  #348 ) ;
#666 = ORIENTED_EDGE ( 'NONE', *, *, #212, .T. ) ;
#667 = DIRECTION ( 'NONE',  ( 1.000000000000000000, 0.000000000000000000, 0.000000000000000000 ) ) ;
#668 = DIRECTION ( 'NONE',  ( 0.000000000000000000, -0.000000000000000000, 1.000000000000000000 ) ) ;
#669 = COLOUR_RGB ( '',0.7921568627450980005, 0.8196078431372548767, 0.9333333333333333481 ) ;
#670 = ADVANCED_FACE ( 'NONE', ( #757 ), #357, .F. ) ;
#671 = LINE ( 'NONE', #306, #596 ) ;
#672 = LINE ( 'NONE', #295, #766 ) ;
#673 = ORIENTED_EDGE ( 'NONE', *, *, #712, .F. ) ;
#674 = CARTESIAN_POINT ( 'NONE',  ( 0.1600000000000000033, 0.1300000000000000044, -0.3000000000000001554 ) ) ;
#675 = ADVANCED_FACE ( 'NONE', ( #1121 ), #277, .T. ) ;
#676 = CARTESIAN_POINT ( 'NONE',  ( 0.5099999999999998979, 0.1300000000000000044, 0.2999999999999999334 ) ) ;
#677 = DIRECTION ( 'NONE',  ( 0.000000000000000000, 0.000000000000000000, -1.000000000000000000 ) ) ;
#678 = CLOSED_SHELL ( 'NONE', ( #833, #536, #77, #503, #662, #216 ) ) ;
#679 = AXIS2_PLACEMENT_3D ( 'NONE', #433, #976, #331 ) ;
#680 = ORIENTED_EDGE ( 'NONE', *, *, #977, .F. ) ;
#681 = DIRECTION ( 'NONE',  ( 1.000000000000000000, 0.000000000000000000, 0.000000000000000000 ) ) ;
#682 = APPLICATION_CONTEXT ( 'automotive_design' ) ;
#683 = CARTESIAN_POINT ( 'NONE',  ( -0.5099999999999998979, 0.5686342439892260181, 0.5999999999999999778 ) ) ;
#684 = DIRECTION ( 'NONE',  ( 0.000000000000000000, 0.000000000000000000, -1.000000000000000000 ) ) ;
#685 = EDGE_LOOP ( 'NONE', ( #1029, #466, #1103, #883 ) ) ;
#686 = AXIS2_PLACEMENT_3D ( 'NONE', #868, #711, #305 ) ;
#687 = DIRECTION ( 'NONE',  ( 0.000000000000000000, -0.000000000000000000, -1.000000000000000000 ) ) ;
#688 = FACE_OUTER_BOUND ( 'NONE', #545, .T. ) ;
#689 = VERTEX_POINT ( 'NONE', #173 ) ;
#690 = EDGE_CURVE ( 'NONE', #567, #127, #738, .T. ) ;
#691 = DIRECTION ( 'NONE',  ( 1.000000000000000000, -0.000000000000000000, 0.000000000000000000 ) ) ;
#692 = FILL_AREA_STYLE ('',( #1165 ) ) ;
#693 = DIRECTION ( 'NONE',  ( 0.000000000000000000, -0.000000000000000000, -1.000000000000000000 ) ) ;
#694 = CARTESIAN_POINT ( 'NONE',  ( 0.5100000000000001199, 0.1300000000000000044, 0.5999999999999998668 ) ) ;
#695 = ORIENTED_EDGE ( 'NONE', *, *, #1032, .T. ) ;
#696 = VECTOR ( 'NONE', #1145, 1000.000000000000000 ) ;
#697 = CARTESIAN_POINT ( 'NONE',  ( 0.2900000000000000355, -1.442220510185595828, 0.3999999999999999667 ) ) ;
#698 = FACE_OUTER_BOUND ( 'NONE', #780, .T. ) ;
#699 = CARTESIAN_POINT ( 'NONE',  ( -0.2899999999999999245, 0.5686342439892260181, 0.3000000000000000444 ) ) ;
#700 = EDGE_LOOP ( 'NONE', ( #463, #928, #1168, #238 ) ) ;
#701 = FACE_OUTER_BOUND ( 'NONE', #291, .T. ) ;
#702 = ORIENTED_EDGE ( 'NONE', *, *, #1198, .F. ) ;
#703 = DIRECTION ( 'NONE',  ( 0.08682659386424779191, -0.9924325091389669673, 0.08682659386424777803 ) ) ;
#704 = CARTESIAN_POINT ( 'NONE',  ( -0.6000000000000000888, -1.442220510185595828, 0.4000000000000000222 ) ) ;
#705 = EDGE_CURVE ( 'NONE', #557, #889, #351, .T. ) ;
#706 = CARTESIAN_POINT ( 'NONE',  ( -0.1600000000000000033, 0.5686342439892260181, -0.3000000000000001554 ) ) ;
#707 = ORIENTED_EDGE ( 'NONE', *, *, #533, .T. ) ;
#708 = FACE_OUTER_BOUND ( 'NONE', #1135, .T. ) ;
#709 = VECTOR ( 'NONE', #289, 1000.000000000000000 ) ;
#710 = ORIENTED_EDGE ( 'NONE', *, *, #607, .F. ) ;
#711 = DIRECTION ( 'NONE',  ( -1.000000000000000000, 0.000000000000000000, 7.228014483236698528E-16 ) ) ;
#712 = EDGE_CURVE ( 'NONE', #1039, #1230, #1019, .T. ) ;
#713 = ORIENTED_EDGE ( 'NONE', *, *, #640, .F. ) ;
#714 = DIRECTION ( 'NONE',  ( 1.000000000000000000, -0.000000000000000000, 0.000000000000000000 ) ) ;
#715 = VERTEX_POINT ( 'NONE', #85 ) ;
#716 = AXIS2_PLACEMENT_3D ( 'NONE', #1174, #800, #1181 ) ;
#717 = DIRECTION ( 'NONE',  ( 1.000000000000000000, 0.000000000000000000, -2.464095846557966371E-16 ) ) ;
#718 = LINE ( 'NONE', #694, #205 ) ;
#719 = ORIENTED_EDGE ( 'NONE', *, *, #810, .F. ) ;
#720 = CARTESIAN_POINT ( 'NONE',  ( 0.5999999999999998668, 0.1300000000000000044, -0.4000000000000001332 ) ) ;
#721 = EDGE_LOOP ( 'NONE', ( #856, #477, #315, #285 ) ) ;
#722 = EDGE_CURVE ( 'NONE', #1086, #628, #372, .T. ) ;
#723 = UNCERTAINTY_MEASURE_WITH_UNIT (LENGTH_MEASURE( 1.000000000000000082E-05 ), #336, 'distance_accuracy_value', 'NONE');
#724 = SURFACE_SIDE_STYLE ('',( #441 ) ) ;
#725 = DIRECTION ( 'NONE',  ( 0.000000000000000000, -1.000000000000000000, 0.000000000000000000 ) ) ;
#726 = DIRECTION ( 'NONE',  ( 1.000000000000000000, -0.000000000000000000, -9.035018104045870694E-17 ) ) ;
#727 = CARTESIAN_POINT ( 'NONE',  ( 0.5099999999999998979, 0.000000000000000000, 0.2999999999999999334 ) ) ;
#729 = ORIENTED_EDGE ( 'NONE', *, *, #118, .T. ) ;
#728 = AXIS2_PLACEMENT_3D ( 'NONE', #259, #470, #162 ) ;
#730 = FACE_OUTER_BOUND ( 'NONE', #1209, .T. ) ;
#731 = ADVANCED_FACE ( 'NONE', ( #560 ), #665, .T. ) ;
#732 =( NAMED_UNIT ( * ) SI_UNIT ( $, .STERADIAN. ) SOLID_ANGLE_UNIT ( ) );
#733 = VERTEX_POINT ( 'NONE', #1213 ) ;
#734 = DIRECTION ( 'NONE',  ( -0.000000000000000000, -1.000000000000000000, -0.000000000000000000 ) ) ;
#735 = ORIENTED_EDGE ( 'NONE', *, *, #656, .F. ) ;
#736 = COLOUR_RGB ( '',0.7921568627450980005, 0.8196078431372548767, 0.9333333333333333481 ) ;
#737 = ORIENTED_EDGE ( 'NONE', *, *, #387, .T. ) ;
#738 = LINE ( 'NONE', #1115, #893 ) ;
#739 = ORIENTED_EDGE ( 'NONE', *, *, #403, .F. ) ;
#740 = AXIS2_PLACEMENT_3D ( 'NONE', #942, #916, #1133 ) ;
#741 = CARTESIAN_POINT ( 'NONE',  ( 0.5099999999999998979, 0.1300000000000000044, 0.2999999999999999334 ) ) ;
#742 = EDGE_CURVE ( 'NONE', #366, #1157, #648, .T. ) ;
#743 = ORIENTED_EDGE ( 'NONE', *, *, #61, .F. ) ;
#744 = DIRECTION ( 'NONE',  ( -1.000000000000000000, 0.000000000000000000, 0.000000000000000000 ) ) ;
#745 = VERTEX_POINT ( 'NONE', #459 ) ;
#746 = VECTOR ( 'NONE', #1060, 1000.000000000000000 ) ;
#747 = AXIS2_PLACEMENT_3D ( 'NONE', #365, #79, #843 ) ;
#748 = VECTOR ( 'NONE', #807, 1000.000000000000000 ) ;
#749 =( LENGTH_UNIT ( ) NAMED_UNIT ( * ) SI_UNIT ( .MILLI., .METRE. ) );
#750 = ORIENTED_EDGE ( 'NONE', *, *, #1215, .F. ) ;
#751 = CARTESIAN_POINT ( 'NONE',  ( -0.6000000000000000888, -1.442220510185595828, 0.4000000000000000222 ) ) ;
#752 = EDGE_CURVE ( 'NONE', #745, #550, #546, .T. ) ;
#753 = ORIENTED_EDGE ( 'NONE', *, *, #373, .T. ) ;
#754 = CARTESIAN_POINT ( 'NONE',  ( -0.5099999999999998979, 0.1300000000000000044, 0.5999999999999999778 ) ) ;
#755 = AXIS2_PLACEMENT_3D ( 'NONE', #241, #899, #693 ) ;
#756 = CARTESIAN_POINT ( 'NONE',  ( 0.5099999999999998979, 0.000000000000000000, 0.2999999999999999334 ) ) ;
#757 = FACE_OUTER_BOUND ( 'NONE', #1057, .T. ) ;
#758 = EDGE_LOOP ( 'NONE', ( #275, #850, #936, #397 ) ) ;
#759 = ADVANCED_FACE ( 'NONE', ( #1038 ), #823, .F. ) ;
#760 = CARTESIAN_POINT ( 'NONE',  ( -0.1600000000000000033, 0.1300000000000000044, -0.3000000000000001554 ) ) ;
#761 = CARTESIAN_POINT ( 'NONE',  ( 0.5999999999999998668, 0.1300000000000000044, -0.4000000000000001332 ) ) ;
#762 = LINE ( 'NONE', #772, #922 ) ;
#763 = VERTEX_POINT ( 'NONE', #1204 ) ;
#764 = EDGE_CURVE ( 'NONE', #1001, #327, #551, .T. ) ;
#765 = DIRECTION ( 'NONE',  ( 0.000000000000000000, 0.000000000000000000, -1.000000000000000000 ) ) ;
#766 = VECTOR ( 'NONE', #584, 1000.000000000000000 ) ;
#767 = COLOUR_RGB ( '',0.7921568627450980005, 0.8196078431372548767, 0.9333333333333333481 ) ;
#768 = CARTESIAN_POINT ( 'NONE',  ( -0.1600000000000000033, 0.1300000000000000044, -0.3000000000000001554 ) ) ;
#769 = LINE ( 'NONE', #865, #1159 ) ;
#770 = ORIENTED_EDGE ( 'NONE', *, *, #1074, .T. ) ;
#771 = CARTESIAN_POINT ( 'NONE',  ( 0.5100000000000001199, 0.1300000000000000044, 0.3999999999999999112 ) ) ;
#772 = CARTESIAN_POINT ( 'NONE',  ( -0.6000000000000000888, 0.000000000000000000, 0.4000000000000000222 ) ) ;
#773 = STYLED_ITEM ( 'NONE', ( #64 ), #353 ) ;
#774 = ORIENTED_EDGE ( 'NONE', *, *, #875, .F. ) ;
#775 = DIRECTION ( 'NONE',  ( -0.000000000000000000, -0.000000000000000000, 1.000000000000000000 ) ) ;
#776 = SURFACE_SIDE_STYLE ('',( #1069 ) ) ;
#777 = CARTESIAN_POINT ( 'NONE',  ( 0.1600000000000000033, 0.1300000000000000044, -0.3000000000000001554 ) ) ;
#778 = CARTESIAN_POINT ( 'NONE',  ( 0.000000000000000000, 0.000000000000000000, 0.000000000000000000 ) ) ;
#779 = ADVANCED_FACE ( 'NONE', ( #556 ), #935, .T. ) ;
#780 = EDGE_LOOP ( 'NONE', ( #819, #352, #529, #460 ) ) ;
#781 = CARTESIAN_POINT ( 'NONE',  ( 0.1600000000000000033, 0.000000000000000000, -0.5999999999999999778 ) ) ;
#782 = AXIS2_PLACEMENT_3D ( 'NONE', #778, #1055, #390 ) ;
#783 = CARTESIAN_POINT ( 'NONE',  ( 0.1600000000000000033, 0.5686342439892260181, -0.3000000000000001554 ) ) ;
#784 = CARTESIAN_POINT ( 'NONE',  ( 0.000000000000000000, 0.1300000000000000044, 0.000000000000000000 ) ) ;
#785 = ORIENTED_EDGE ( 'NONE', *, *, #410, .F. ) ;
#786 = EDGE_CURVE ( 'NONE', #1176, #1230, #1217, .T. ) ;
#787 = CARTESIAN_POINT ( 'NONE',  ( -0.5099999999999998979, 0.000000000000000000, 0.3000000000000000444 ) ) ;
#788 = CARTESIAN_POINT ( 'NONE',  ( 0.5999999999999998668, -1.442220510185595828, -0.4000000000000001332 ) ) ;
#789 = ORIENTED_EDGE ( 'NONE', *, *, #961, .F. ) ;
#790 = DIRECTION ( 'NONE',  ( 0.000000000000000000, -0.000000000000000000, 1.000000000000000000 ) ) ;
#791 = EDGE_LOOP ( 'NONE', ( #59, #516, #482, #227 ) ) ;
#792 = EDGE_CURVE ( 'NONE', #364, #550, #197, .T. ) ;
#793 = DIRECTION ( 'NONE',  ( 0.000000000000000000, 1.000000000000000000, 0.000000000000000000 ) ) ;
#794 = LINE ( 'NONE', #788, #863 ) ;
#795 = ORIENTED_EDGE ( 'NONE', *, *, #799, .F. ) ;
#796 = CARTESIAN_POINT ( 'NONE',  ( 0.000000000000000000, 0.000000000000000000, 0.000000000000000000 ) ) ;
#797 = EDGE_LOOP ( 'NONE', ( #98, #102, #1077, #114 ) ) ;
#798 = PLANE ( 'NONE',  #381 ) ;
#799 = EDGE_CURVE ( 'NONE', #889, #62, #762, .T. ) ;
#800 = DIRECTION ( 'NONE',  ( -0.9961946980917455452, 0.08715574274765836016, 0.000000000000000000 ) ) ;
#801 = DIRECTION ( 'NONE',  ( 1.000000000000000000, 0.000000000000000000, -0.000000000000000000 ) ) ;
#802 = VERTEX_POINT ( 'NONE', #588 ) ;
#803 = CARTESIAN_POINT ( 'NONE',  ( -0.2899999999999998690, -1.442220510185595828, 0.3999999999999999667 ) ) ;
#804 = VECTOR ( 'NONE', #496, 1000.000000000000000 ) ;
#805 = PRESENTATION_LAYER_ASSIGNMENT (  '', '', ( #68 ) ) ;
#806 = ORIENTED_EDGE ( 'NONE', *, *, #139, .F. ) ;
#807 = DIRECTION ( 'NONE',  ( 0.000000000000000000, 0.000000000000000000, -1.000000000000000000 ) ) ;
#808 = FACE_OUTER_BOUND ( 'NONE', #272, .T. ) ;
#809 = LINE ( 'NONE', #508, #2 ) ;
#810 = EDGE_CURVE ( 'NONE', #877, #689, #307, .T. ) ;
#811 = ORIENTED_EDGE ( 'NONE', *, *, #43, .F. ) ;
#812 = CARTESIAN_POINT ( 'NONE',  ( -0.5099999999999998979, 0.5686342439892260181, 0.5999999999999999778 ) ) ;
#813 = EDGE_LOOP ( 'NONE', ( #423, #120, #559, #523 ) ) ;
#814 = VECTOR ( 'NONE', #420, 1000.000000000000000 ) ;
#815 = DIRECTION ( 'NONE',  ( 7.228014483236698528E-16, 0.000000000000000000, 1.000000000000000000 ) ) ;
#816 = LINE ( 'NONE', #1194, #901 ) ;
#817 = CARTESIAN_POINT ( 'NONE',  ( 0.5999999999999998668, 0.1300000000000000044, 0.3999999999999999112 ) ) ;
#818 = CARTESIAN_POINT ( 'NONE',  ( -0.2899999999999999245, 0.1300000000000000044, 0.3000000000000000444 ) ) ;
#819 = ORIENTED_EDGE ( 'NONE', *, *, #563, .F. ) ;
#820 = CARTESIAN_POINT ( 'NONE',  ( -0.2899999999999999245, 0.1300000000000000044, 0.5999999999999999778 ) ) ;
#821 = DIRECTION ( 'NONE',  ( 9.035018104045871927E-17, -0.000000000000000000, 1.000000000000000000 ) ) ;
#822 = ORIENTED_EDGE ( 'NONE', *, *, #930, .T. ) ;
#823 = PLANE ( 'NONE',  #728 ) ;
#825 = ORIENTED_EDGE ( 'NONE', *, *, #176, .F. ) ;
#824 = PRESENTATION_LAYER_ASSIGNMENT (  '', '', ( #121 ) ) ;
#826 = EDGE_CURVE ( 'NONE', #231, #1061, #769, .T. ) ;
#827 = SURFACE_STYLE_USAGE ( .BOTH. , #1028 ) ;
#828 = EDGE_LOOP ( 'NONE', ( #641, #1224, #204, #806 ) ) ;
#829 = CARTESIAN_POINT ( 'NONE',  ( -0.6000000000000000888, 0.1300000000000000044, -0.4000000000000000222 ) ) ;
#830 = ORIENTED_EDGE ( 'NONE', *, *, #764, .T. ) ;
#831 = DIRECTION ( 'NONE',  ( -1.000000000000000000, -0.000000000000000000, -0.000000000000000000 ) ) ;
#832 =( NAMED_UNIT ( * ) SI_UNIT ( $, .STERADIAN. ) SOLID_ANGLE_UNIT ( ) );
#833 = ADVANCED_FACE ( 'NONE', ( #97 ), #106, .T. ) ;
#834 = VECTOR ( 'NONE', #639, 1000.000000000000000 ) ;
#835 = AXIS2_PLACEMENT_3D ( 'NONE', #15, #322, #636 ) ;
#836 = ORIENTED_EDGE ( 'NONE', *, *, #826, .F. ) ;
#837 = CARTESIAN_POINT ( 'NONE',  ( -0.5099999999999998979, 0.5686342439892260181, 0.5999999999999999778 ) ) ;
#838 = ORIENTED_EDGE ( 'NONE', *, *, #37, .F. ) ;
#839 = APPLICATION_PROTOCOL_DEFINITION ( 'draft international standard', 'automotive_design', 1998, #682 ) ;
#840 = DIRECTION ( 'NONE',  ( 0.000000000000000000, -0.000000000000000000, -1.000000000000000000 ) ) ;
#841 = EDGE_CURVE ( 'NONE', #1212, #167, #1043, .T. ) ;
#842 = CARTESIAN_POINT ( 'NONE',  ( -0.1600000000000000033, 0.000000000000000000, -0.3000000000000001554 ) ) ;
#843 = DIRECTION ( 'NONE',  ( 0.000000000000000000, 0.9961946980917455452, 0.08715574274765836016 ) ) ;
#844 = ORIENTED_EDGE ( 'NONE', *, *, #286, .T. ) ;
#845 = VECTOR ( 'NONE', #953, 1000.000000000000000 ) ;
#846 = CARTESIAN_POINT ( 'NONE',  ( 0.5999999999999998668, -1.442220510185595828, -0.4000000000000001332 ) ) ;
#847 = CARTESIAN_POINT ( 'NONE',  ( -0.1600000000000000033, 0.1300000000000000044, -0.3000000000000001554 ) ) ;
#848 = CARTESIAN_POINT ( 'NONE',  ( 0.5100000000000001199, 0.1300000000000000044, 0.5999999999999998668 ) ) ;
#849 = EDGE_CURVE ( 'NONE', #608, #802, #486, .T. ) ;
#850 = ORIENTED_EDGE ( 'NONE', *, *, #690, .T. ) ;
#851 = CARTESIAN_POINT ( 'NONE',  ( 0.5100000000000001199, 0.000000000000000000, 0.5999999999999998668 ) ) ;
#852 = CARTESIAN_POINT ( 'NONE',  ( -0.5099999999999998979, 0.000000000000000000, 0.5999999999999999778 ) ) ;
#853 = AXIS2_PLACEMENT_3D ( 'NONE', #881, #337, #22 ) ;
#854 = CARTESIAN_POINT ( 'NONE',  ( 0.2900000000000000355, 0.5686342439892260181, 0.5999999999999998668 ) ) ;
#855 = CARTESIAN_POINT ( 'NONE',  ( 0.5999999999999998668, 0.5500000000000000444, -0.3632547613191119407 ) ) ;
#856 = ORIENTED_EDGE ( 'NONE', *, *, #1040, .F. ) ;
#857 = EDGE_CURVE ( 'NONE', #733, #763, #498, .T. ) ;
#858 = CARTESIAN_POINT ( 'NONE',  ( 0.5999999999999998668, -1.442220510185595828, -0.4000000000000001332 ) ) ;
#859 = LINE ( 'NONE', #847, #1226 ) ;
#860 = LINE ( 'NONE', #1048, #746 ) ;
#861 = VERTEX_POINT ( 'NONE', #1229 ) ;
#862 = CARTESIAN_POINT ( 'NONE',  ( -0.1599999999999999756, 0.1300000000000000044, -0.4000000000000000777 ) ) ;
#863 = VECTOR ( 'NONE', #224, 1000.000000000000000 ) ;
#864 = CARTESIAN_POINT ( 'NONE',  ( -0.1600000000000000033, 0.000000000000000000, -0.5999999999999999778 ) ) ;
#865 = CARTESIAN_POINT ( 'NONE',  ( 0.5999999999999998668, 0.5500000000000000444, 0.3632547613191117186 ) ) ;
#866 = ORIENTED_EDGE ( 'NONE', *, *, #27, .T. ) ;
#867 = ADVANCED_FACE ( 'NONE', ( #688 ), #90, .T. ) ;
#868 = CARTESIAN_POINT ( 'NONE',  ( 0.5100000000000001199, 0.1300000000000000044, 0.5999999999999998668 ) ) ;
#869 = CARTESIAN_POINT ( 'NONE',  ( 0.000000000000000000, 0.1300000000000000044, 0.000000000000000000 ) ) ;
#870 = DIRECTION ( 'NONE',  ( 0.000000000000000000, -1.000000000000000000, 0.000000000000000000 ) ) ;
#871 = CLOSED_SHELL ( 'NONE', ( #474, #444, #324, #1144, #526, #625, #731, #675, #207, #984, #257, #779, #494, #867, #418, #427, #552, #394, #1173, #200, #1113, #109, #885, #1188, #400 ) ) ;
#872 = VECTOR ( 'NONE', #1008, 1000.000000000000000 ) ;
#873 = VERTEX_POINT ( 'NONE', #101 ) ;
#874 = PLANE ( 'NONE',  #835 ) ;
#875 = EDGE_CURVE ( 'NONE', #62, #661, #672, .T. ) ;
#876 = DIRECTION ( 'NONE',  ( 1.000000000000000000, -0.000000000000000000, -9.035018104045870694E-17 ) ) ;
#877 = VERTEX_POINT ( 'NONE', #1156 ) ;
#878 = FACE_OUTER_BOUND ( 'NONE', #631, .T. ) ;
#879 = FACE_OUTER_BOUND ( 'NONE', #828, .T. ) ;
#880 = VECTOR ( 'NONE', #876, 1000.000000000000000 ) ;
#881 = CARTESIAN_POINT ( 'NONE',  ( 0.1600000000000000033, 0.5686342439892260181, -0.3000000000000001554 ) ) ;
#882 = DIRECTION ( 'NONE',  ( 1.000000000000000000, -0.000000000000000000, -0.000000000000000000 ) ) ;
#883 = ORIENTED_EDGE ( 'NONE', *, *, #1150, .F. ) ;
#884 = CARTESIAN_POINT ( 'NONE',  ( -0.1600000000000000033, 0.5686342439892260181, -0.3000000000000001554 ) ) ;
#885 = ADVANCED_FACE ( 'NONE', ( #385 ), #191, .T. ) ;
#886 = ORIENTED_EDGE ( 'NONE', *, *, #1225, .T. ) ;
#887 = LINE ( 'NONE', #31, #814 ) ;
#888 = DIRECTION ( 'NONE',  ( 0.000000000000000000, -1.000000000000000000, 0.000000000000000000 ) ) ;
#889 = VERTEX_POINT ( 'NONE', #314 ) ;
#890 = DIRECTION ( 'NONE',  ( -1.000000000000000000, 0.000000000000000000, 9.035018104045870694E-17 ) ) ;
#891 = MECHANICAL_DESIGN_GEOMETRIC_PRESENTATION_REPRESENTATION (  '', ( #773 ), #911 ) ;
#892 = EDGE_CURVE ( 'NONE', #510, #915, #959, .T. ) ;
#893 = VECTOR ( 'NONE', #284, 1000.000000000000000 ) ;
#894 = DIRECTION ( 'NONE',  ( -0.000000000000000000, -1.000000000000000000, -0.000000000000000000 ) ) ;
#895 = ORIENTED_EDGE ( 'NONE', *, *, #83, .T. ) ;
#896 = DIRECTION ( 'NONE',  ( 0.000000000000000000, 1.000000000000000000, 0.000000000000000000 ) ) ;
#897 = EDGE_LOOP ( 'NONE', ( #836, #1012, #359, #612, #908, #539, #1214, #702 ) ) ;
#898 = DIRECTION ( 'NONE',  ( 0.000000000000000000, 0.000000000000000000, 1.000000000000000000 ) ) ;
#899 = DIRECTION ( 'NONE',  ( 0.000000000000000000, -1.000000000000000000, 0.000000000000000000 ) ) ;
#900 = LINE ( 'NONE', #614, #1218 ) ;
#901 = VECTOR ( 'NONE', #515, 1000.000000000000000 ) ;
#902 = ORIENTED_EDGE ( 'NONE', *, *, #1231, .T. ) ;
#903 = CARTESIAN_POINT ( 'NONE',  ( -0.5099999999999998979, 0.1300000000000000044, 0.3000000000000000444 ) ) ;
#904 = EDGE_LOOP ( 'NONE', ( #994, #404, #408, #743 ) ) ;
#905 = FACE_OUTER_BOUND ( 'NONE', #135, .T. ) ;
#906 = EDGE_CURVE ( 'NONE', #415, #430, #860, .T. ) ;
#907 = DIRECTION ( 'NONE',  ( 0.000000000000000000, 0.000000000000000000, -1.000000000000000000 ) ) ;
#908 = ORIENTED_EDGE ( 'NONE', *, *, #906, .T. ) ;
#909 = DIRECTION ( 'NONE',  ( 0.000000000000000000, 0.000000000000000000, -1.000000000000000000 ) ) ;
#910 = LINE ( 'NONE', #820, #1180 ) ;
#911 =( GEOMETRIC_REPRESENTATION_CONTEXT ( 3 ) GLOBAL_UNCERTAINTY_ASSIGNED_CONTEXT ( ( #144 ) ) GLOBAL_UNIT_ASSIGNED_CONTEXT ( ( #634, #349, #732 ) ) REPRESENTATION_CONTEXT ( 'NONE', 'WORKASPACE' ) );
#912 = LINE ( 'NONE', #256, #834 ) ;
#913 = VECTOR ( 'NONE', #890, 1000.000000000000000 ) ;
#914 = VECTOR ( 'NONE', #266, 1000.000000000000000 ) ;
#915 = VERTEX_POINT ( 'NONE', #1066 ) ;
#916 = DIRECTION ( 'NONE',  ( 0.000000000000000000, -1.000000000000000000, 0.000000000000000000 ) ) ;
#917 = ORIENTED_EDGE ( 'NONE', *, *, #799, .T. ) ;
#918 = DIRECTION ( 'NONE',  ( 1.000000000000000000, 0.000000000000000000, -9.035018104045871927E-17 ) ) ;
#919 = SURFACE_SIDE_STYLE ('',( #549 ) ) ;
#920 = ORIENTED_EDGE ( 'NONE', *, *, #906, .F. ) ;
#921 = CARTESIAN_POINT ( 'NONE',  ( -0.5099999999999998979, 0.1300000000000000044, 0.3000000000000000444 ) ) ;
#923 = ORIENTED_EDGE ( 'NONE', *, *, #387, .F. ) ;
#922 = VECTOR ( 'NONE', #677, 1000.000000000000000 ) ;
#924 = EDGE_CURVE ( 'NONE', #518, #267, #594, .T. ) ;
#925 =( GEOMETRIC_REPRESENTATION_CONTEXT ( 3 ) GLOBAL_UNCERTAINTY_ASSIGNED_CONTEXT ( ( #541 ) ) GLOBAL_UNIT_ASSIGNED_CONTEXT ( ( #575, #1027, #1123 ) ) REPRESENTATION_CONTEXT ( 'NONE', 'WORKASPACE' ) );
#926 = EDGE_LOOP ( 'NONE', ( #417, #866, #308, #69, #987, #428, #296, #345, #187, #265, #666, #1073, #917, #979, #454, #1005 ) ) ;
#927 = FACE_OUTER_BOUND ( 'NONE', #758, .T. ) ;
#928 = ORIENTED_EDGE ( 'NONE', *, *, #607, .T. ) ;
#929 = LINE ( 'NONE', #741, #1025 ) ;
#930 = EDGE_CURVE ( 'NONE', #763, #1157, #407, .T. ) ;
#931 = VECTOR ( 'NONE', #947, 1000.000000000000000 ) ;
#932 = FACE_OUTER_BOUND ( 'NONE', #379, .T. ) ;
#933 = CARTESIAN_POINT ( 'NONE',  ( -0.5099999999999998979, 0.5686342439892260181, 0.3000000000000000444 ) ) ;
#934 = DIRECTION ( 'NONE',  ( -0.000000000000000000, -0.000000000000000000, 1.000000000000000000 ) ) ;
#935 = PLANE ( 'NONE',  #747 ) ;
#936 = ORIENTED_EDGE ( 'NONE', *, *, #1024, .T. ) ;
#937 = CARTESIAN_POINT ( 'NONE',  ( 0.1600000000000000033, 0.000000000000000000, -0.4000000000000001332 ) ) ;
#938 = DIRECTION ( 'NONE',  ( 0.000000000000000000, 0.000000000000000000, 1.000000000000000000 ) ) ;
#939 = FACE_OUTER_BOUND ( 'NONE', #685, .T. ) ;
#940 = EDGE_CURVE ( 'NONE', #73, #56, #7, .T. ) ;
#941 = DIRECTION ( 'NONE',  ( 1.000000000000000000, 0.000000000000000000, -9.035018104045871927E-17 ) ) ;
#942 = CARTESIAN_POINT ( 'NONE',  ( 0.000000000000000000, 0.1300000000000000044, 0.000000000000000000 ) ) ;
#943 = EDGE_LOOP ( 'NONE', ( #795, #1037, #785, #774 ) ) ;
#944 = VECTOR ( 'NONE', #1071, 1000.000000000000000 ) ;
#945 =( GEOMETRIC_REPRESENTATION_CONTEXT ( 3 ) GLOBAL_UNCERTAINTY_ASSIGNED_CONTEXT ( ( #248 ) ) GLOBAL_UNIT_ASSIGNED_CONTEXT ( ( #613, #1172, #603 ) ) REPRESENTATION_CONTEXT ( 'NONE', 'WORKASPACE' ) );
#946 = CARTESIAN_POINT ( 'NONE',  ( -0.1600000000000000033, 0.1300000000000000044, -0.3000000000000001554 ) ) ;
#947 = DIRECTION ( 'NONE',  ( -0.000000000000000000, 1.000000000000000000, 0.000000000000000000 ) ) ;
#948 = CARTESIAN_POINT ( 'NONE',  ( 0.5100000000000001199, 0.000000000000000000, 0.5999999999999998668 ) ) ;
#949 = ORIENTED_EDGE ( 'NONE', *, *, #147, .F. ) ;
#950 = DIRECTION ( 'NONE',  ( -1.000000000000000000, 0.000000000000000000, 2.464095846557966371E-16 ) ) ;
#951 = AXIS2_PLACEMENT_3D ( 'NONE', #754, #1232, #765 ) ;
#952 = FACE_OUTER_BOUND ( 'NONE', #1122, .T. ) ;
#953 = DIRECTION ( 'NONE',  ( -7.228014483236698528E-16, 0.000000000000000000, -1.000000000000000000 ) ) ;
#954 = VERTEX_POINT ( 'NONE', #17 ) ;
#955 = EDGE_CURVE ( 'NONE', #574, #366, #480, .T. ) ;
#956 = AXIS2_PLACEMENT_3D ( 'NONE', #1109, #464, #1030 ) ;
#957 = DIRECTION ( 'NONE',  ( 0.000000000000000000, 1.000000000000000000, 0.000000000000000000 ) ) ;
#958 = CARTESIAN_POINT ( 'NONE',  ( 0.5100000000000000089, 0.000000000000000000, 0.4000000000000000222 ) ) ;
#959 = LINE ( 'NONE', #573, #309 ) ;
#960 = ORIENTED_EDGE ( 'NONE', *, *, #786, .F. ) ;
#961 = EDGE_CURVE ( 'NONE', #267, #364, #217, .T. ) ;
#962 = LINE ( 'NONE', #1220, #55 ) ;
#963 = PRESENTATION_LAYER_ASSIGNMENT (  '', '', ( #271 ) ) ;
#964 = CARTESIAN_POINT ( 'NONE',  ( -0.1600000000000000033, 0.000000000000000000, -0.3000000000000001554 ) ) ;
#965 = DIRECTION ( 'NONE',  ( 0.000000000000000000, -1.000000000000000000, 0.000000000000000000 ) ) ;
#966 = CARTESIAN_POINT ( 'NONE',  ( 0.5099999999999998979, 0.1300000000000000044, 0.2999999999999999334 ) ) ;
#967 = ORIENTED_EDGE ( 'NONE', *, *, #924, .F. ) ;
#968 = EDGE_CURVE ( 'NONE', #73, #80, #535, .T. ) ;
#969 = DIRECTION ( 'NONE',  ( 1.000000000000000000, 0.000000000000000000, 0.000000000000000000 ) ) ;
#970 = LINE ( 'NONE', #777, #1072 ) ;
#971 = DIRECTION ( 'NONE',  ( 0.000000000000000000, 0.000000000000000000, -1.000000000000000000 ) ) ;
#972 = VECTOR ( 'NONE', #1148, 1000.000000000000000 ) ;
#973 = AXIS2_PLACEMENT_3D ( 'NONE', #582, #957, #668 ) ;
#974 = ORIENTED_EDGE ( 'NONE', *, *, #46, .T. ) ;
#975 = AXIS2_PLACEMENT_3D ( 'NONE', #429, #896, #1196 ) ;
#976 = DIRECTION ( 'NONE',  ( 0.9961946980917455452, 0.08715574274765836016, 0.000000000000000000 ) ) ;
#977 = EDGE_CURVE ( 'NONE', #715, #469, #809, .T. ) ;
#978 = PLANE ( 'NONE',  #145 ) ;
#979 = ORIENTED_EDGE ( 'NONE', *, *, #347, .T. ) ;
#980 = DIRECTION ( 'NONE',  ( 0.000000000000000000, -0.000000000000000000, -1.000000000000000000 ) ) ;
#981 =( GEOMETRIC_REPRESENTATION_CONTEXT ( 3 ) GLOBAL_UNCERTAINTY_ASSIGNED_CONTEXT ( ( #1193 ) ) GLOBAL_UNIT_ASSIGNED_CONTEXT ( ( #30, #988, #38 ) ) REPRESENTATION_CONTEXT ( 'NONE', 'WORKASPACE' ) );
#982 = LINE ( 'NONE', #16, #157 ) ;
#983 = DIRECTION ( 'NONE',  ( 7.228014483236698528E-16, 0.000000000000000000, 1.000000000000000000 ) ) ;
#984 = ADVANCED_FACE ( 'NONE', ( #1183 ), #1166, .T. ) ;
#985 = ORIENTED_EDGE ( 'NONE', *, *, #1136, .T. ) ;
#986 = CARTESIAN_POINT ( 'NONE',  ( -0.5099999999999998979, 0.1300000000000000044, 0.3000000000000000444 ) ) ;
#987 = ORIENTED_EDGE ( 'NONE', *, *, #286, .F. ) ;
#988 =( NAMED_UNIT ( * ) PLANE_ANGLE_UNIT ( ) SI_UNIT ( $, .RADIAN. ) );
#989 = FACE_OUTER_BOUND ( 'NONE', #700, .T. ) ;
#990 = LINE ( 'NONE', #522, #431 ) ;
#991 = ORIENTED_EDGE ( 'NONE', *, *, #705, .F. ) ;
#992 = CARTESIAN_POINT ( 'NONE',  ( -0.5099999999999998979, 0.000000000000000000, 0.5999999999999999778 ) ) ;
#993 = AXIS2_PLACEMENT_3D ( 'NONE', #846, #1137, #586 ) ;
#994 = ORIENTED_EDGE ( 'NONE', *, *, #930, .F. ) ;
#995 = AXIS2_PLACEMENT_3D ( 'NONE', #812, #909, #48 ) ;
#996 = AXIS2_PLACEMENT_3D ( 'NONE', #1190, #1099, #524 ) ;
#997 = DIRECTION ( 'NONE',  ( -0.000000000000000000, -0.000000000000000000, -1.000000000000000000 ) ) ;
#998 = CARTESIAN_POINT ( 'NONE',  ( -0.5099999999999998979, 0.1300000000000000044, 0.5999999999999999778 ) ) ;
#999 = ORIENTED_EDGE ( 'NONE', *, *, #249, .F. ) ;
#1000 = CARTESIAN_POINT ( 'NONE',  ( -0.5099999999999998979, 0.1300000000000000044, 0.3000000000000000444 ) ) ;
#1001 = VERTEX_POINT ( 'NONE', #414 ) ;
#1002 = EDGE_CURVE ( 'NONE', #567, #1110, #442, .T. ) ;
#1003 = CARTESIAN_POINT ( 'NONE',  ( -0.6000000000000000888, 0.1300000000000000044, 0.4000000000000000222 ) ) ;
#1004 = VECTOR ( 'NONE', #1234, 1000.000000000000000 ) ;
#1005 = ORIENTED_EDGE ( 'NONE', *, *, #18, .T. ) ;
#1006 = CARTESIAN_POINT ( 'NONE',  ( -0.1600000000000000033, 0.1300000000000000044, -0.6000000000000000888 ) ) ;
#1007 = CARTESIAN_POINT ( 'NONE',  ( -0.5099999999999998979, 0.000000000000000000, 0.3000000000000000444 ) ) ;
#1008 = DIRECTION ( 'NONE',  ( 1.000000000000000000, 0.000000000000000000, -9.035018104045871927E-17 ) ) ;
#1009 = ADVANCED_FACE ( 'NONE', ( #1090 ), #1076, .F. ) ;
#1010 = ORIENTED_EDGE ( 'NONE', *, *, #1100, .F. ) ;
#1011 = DIRECTION ( 'NONE',  ( -0.08682659386424779191, -0.9924325091389669673, -0.08682659386424777803 ) ) ;
#1012 = ORIENTED_EDGE ( 'NONE', *, *, #332, .T. ) ;
#1013 = PLANE ( 'NONE',  #650 ) ;
#1014 = VECTOR ( 'NONE', #457, 1000.000000000000000 ) ;
#1015 = LINE ( 'NONE', #652, #1014 ) ;
#1016 = VECTOR ( 'NONE', #1222, 1000.000000000000000 ) ;
#1017 = EDGE_CURVE ( 'NONE', #499, #861, #794, .T. ) ;
#1018 = ORIENTED_EDGE ( 'NONE', *, *, #924, .T. ) ;
#1019 = LINE ( 'NONE', #837, #29 ) ;
#1020 = ORIENTED_EDGE ( 'NONE', *, *, #310, .F. ) ;
#1021 = PLANE ( 'NONE',  #519 ) ;
#1022 = ORIENTED_EDGE ( 'NONE', *, *, #1128, .T. ) ;
#1023 = DIRECTION ( 'NONE',  ( -0.000000000000000000, -1.000000000000000000, -0.000000000000000000 ) ) ;
#1024 = EDGE_CURVE ( 'NONE', #127, #1127, #242, .T. ) ;
#1026 = ORIENTED_EDGE ( 'NONE', *, *, #99, .T. ) ;
#1025 = VECTOR ( 'NONE', #343, 1000.000000000000000 ) ;
#1027 =( NAMED_UNIT ( * ) PLANE_ANGLE_UNIT ( ) SI_UNIT ( $, .RADIAN. ) );
#1028 = SURFACE_SIDE_STYLE ('',( #451 ) ) ;
#1029 = ORIENTED_EDGE ( 'NONE', *, *, #91, .T. ) ;
#1030 = DIRECTION ( 'NONE',  ( 0.000000000000000000, 0.000000000000000000, 1.000000000000000000 ) ) ;
#1031 = ORIENTED_EDGE ( 'NONE', *, *, #752, .F. ) ;
#1032 = EDGE_CURVE ( 'NONE', #689, #637, #133, .T. ) ;
#1033 = VECTOR ( 'NONE', #941, 1000.000000000000000 ) ;
#1034 = MECHANICAL_DESIGN_GEOMETRIC_PRESENTATION_REPRESENTATION (  '', ( #213 ), #1191 ) ;
#1035 = CARTESIAN_POINT ( 'NONE',  ( -0.2899999999999999800, 0.1300000000000000044, 0.3999999999999999667 ) ) ;
#1036 = AXIS2_PLACEMENT_3D ( 'NONE', #858, #323, #1160 ) ;
#1037 = ORIENTED_EDGE ( 'NONE', *, *, #310, .T. ) ;
#1038 = FACE_OUTER_BOUND ( 'NONE', #386, .T. ) ;
#1039 = VERTEX_POINT ( 'NONE', #998 ) ;
#1040 = EDGE_CURVE ( 'NONE', #637, #244, #338, .T. ) ;
#1041 = LINE ( 'NONE', #1130, #358 ) ;
#1042 = DIRECTION ( 'NONE',  ( 0.000000000000000000, -1.000000000000000000, 0.000000000000000000 ) ) ;
#1043 = LINE ( 'NONE', #396, #290 ) ;
#1044 = VERTEX_POINT ( 'NONE', #141 ) ;
#1045 = VECTOR ( 'NONE', #703, 1000.000000000000114 ) ;
#1046 = LINE ( 'NONE', #5, #33 ) ;
#1047 = PLANE ( 'NONE',  #237 ) ;
#1048 = CARTESIAN_POINT ( 'NONE',  ( 0.5999999999999998668, 0.1300000000000000044, 0.3999999999999999112 ) ) ;
#1049 = ORIENTED_EDGE ( 'NONE', *, *, #940, .F. ) ;
#1050 = FILL_AREA_STYLE_COLOUR ( '', #767 ) ;
#1051 = CLOSED_SHELL ( 'NONE', ( #341, #1009, #624, #591, #281, #1158 ) ) ;
#1052 = LINE ( 'NONE', #82, #972 ) ;
#1053 = AXIS2_PLACEMENT_3D ( 'NONE', #674, #564, #282 ) ;
#1054 = LINE ( 'NONE', #395, #619 ) ;
#1055 = DIRECTION ( 'NONE',  ( 0.000000000000000000, -1.000000000000000000, 0.000000000000000000 ) ) ;
#1056 = EDGE_CURVE ( 'NONE', #745, #655, #718, .T. ) ;
#1057 = EDGE_LOOP ( 'NONE', ( #119, #750, #233, #1067 ) ) ;
#1058 = LINE ( 'NONE', #393, #660 ) ;
#1059 = CARTESIAN_POINT ( 'NONE',  ( 0.5099999999999998979, 0.000000000000000000, 0.2999999999999999334 ) ) ;
#1060 = DIRECTION ( 'NONE',  ( 1.000000000000000000, -0.000000000000000000, -9.035018104045870694E-17 ) ) ;
#1061 = VERTEX_POINT ( 'NONE', #125 ) ;
#1062 = EDGE_CURVE ( 'NONE', #374, #80, #816, .T. ) ;
#1063 = VECTOR ( 'NONE', #450, 1000.000000000000000 ) ;
#1064 = CARTESIAN_POINT ( 'NONE',  ( 0.000000000000000000, 0.1300000000000000044, 0.000000000000000000 ) ) ;
#1065 = FACE_OUTER_BOUND ( 'NONE', #1079, .T. ) ;
#1066 = CARTESIAN_POINT ( 'NONE',  ( -0.1600000000000000033, 0.000000000000000000, -0.4000000000000001332 ) ) ;
#1067 = ORIENTED_EDGE ( 'NONE', *, *, #1056, .F. ) ;
#1068 = ADVANCED_FACE ( 'NONE', ( #1175 ), #978, .F. ) ;
#1069 = SURFACE_STYLE_FILL_AREA ( #692 ) ;
#1070 = CARTESIAN_POINT ( 'NONE',  ( 0.5632547613191116742, 0.5500000000000000444, 0.3999999999999999112 ) ) ;
#1071 = DIRECTION ( 'NONE',  ( 0.000000000000000000, -1.000000000000000000, 0.000000000000000000 ) ) ;
#1072 = VECTOR ( 'NONE', #100, 1000.000000000000000 ) ;
#1073 = ORIENTED_EDGE ( 'NONE', *, *, #705, .T. ) ;
#1074 = EDGE_CURVE ( 'NONE', #873, #1044, #900, .T. ) ;
#1075 = LINE ( 'NONE', #313, #481 ) ;
#1076 = PLANE ( 'NONE',  #391 ) ;
#1077 = ORIENTED_EDGE ( 'NONE', *, *, #347, .F. ) ;
#1078 = PLANE ( 'NONE',  #95 ) ;
#1079 = EDGE_LOOP ( 'NONE', ( #34, #739, #155, #180 ) ) ;
#1080 = VECTOR ( 'NONE', #504, 1000.000000000000000 ) ;
#1081 = DIRECTION ( 'NONE',  ( -1.000000000000000000, 0.000000000000000000, 9.035018104045871927E-17 ) ) ;
#1082 = CARTESIAN_POINT ( 'NONE',  ( 0.5099999999999998979, 0.5686342439892260181, 0.2999999999999999334 ) ) ;
#1083 = MECHANICAL_DESIGN_GEOMETRIC_PRESENTATION_REPRESENTATION (  '', ( #68 ), #925 ) ;
#1084 = ORIENTED_EDGE ( 'NONE', *, *, #1056, .T. ) ;
#1085 = DIRECTION ( 'NONE',  ( 0.000000000000000000, 0.000000000000000000, -1.000000000000000000 ) ) ;
#1086 = VERTEX_POINT ( 'NONE', #1003 ) ;
#1087 = DIRECTION ( 'NONE',  ( 0.000000000000000000, -0.000000000000000000, 1.000000000000000000 ) ) ;
#1088 = CARTESIAN_POINT ( 'NONE',  ( 0.5999999999999998668, 0.1300000000000000044, 0.3999999999999999112 ) ) ;
#1089 = CARTESIAN_POINT ( 'NONE',  ( 0.2900000000000000355, 0.000000000000000000, 0.5999999999999998668 ) ) ;
#1090 = FACE_OUTER_BOUND ( 'NONE', #1184, .T. ) ;
#1091 = ORIENTED_EDGE ( 'NONE', *, *, #742, .T. ) ;
#1092 = LINE ( 'NONE', #239, #1171 ) ;
#1093 = EDGE_CURVE ( 'NONE', #167, #733, #990, .T. ) ;
#1094 = VECTOR ( 'NONE', #502, 1000.000000000000000 ) ;
#1095 = ORIENTED_EDGE ( 'NONE', *, *, #118, .F. ) ;
#1096 = DIRECTION ( 'NONE',  ( 0.000000000000000000, 0.000000000000000000, -1.000000000000000000 ) ) ;
#1097 = DIRECTION ( 'NONE',  ( 9.000637132413432011E-17, 0.08715574274765836016, 0.9961946980917455452 ) ) ;
#1098 = ORIENTED_EDGE ( 'NONE', *, *, #129, .F. ) ;
#1099 = DIRECTION ( 'NONE',  ( 0.000000000000000000, 0.000000000000000000, -1.000000000000000000 ) ) ;
#1100 = EDGE_CURVE ( 'NONE', #873, #327, #39, .T. ) ;
#1101 = LINE ( 'NONE', #165, #872 ) ;
#1102 = AXIS2_PLACEMENT_3D ( 'NONE', #592, #123, #969 ) ;
#1103 = ORIENTED_EDGE ( 'NONE', *, *, #892, .T. ) ;
#1104 = PLANE ( 'NONE',  #995 ) ;
#1105 = ORIENTED_EDGE ( 'NONE', *, *, #1062, .F. ) ;
#1106 = EDGE_CURVE ( 'NONE', #487, #745, #929, .T. ) ;
#1107 = CARTESIAN_POINT ( 'NONE',  ( 0.000000000000000000, 0.000000000000000000, 0.000000000000000000 ) ) ;
#1108 = LINE ( 'NONE', #1125, #1033 ) ;
#1109 = CARTESIAN_POINT ( 'NONE',  ( -0.2899999999999999245, 0.5686342439892260181, 0.5999999999999999778 ) ) ;
#1110 = VERTEX_POINT ( 'NONE', #255 ) ;
#1111 = PRESENTATION_LAYER_ASSIGNMENT (  '', '', ( #773 ) ) ;
#1112 = LINE ( 'NONE', #467, #1149 ) ;
#1113 = ADVANCED_FACE ( 'NONE', ( #1117 ), #74, .T. ) ;
#1114 = ORIENTED_EDGE ( 'NONE', *, *, #223, .F. ) ;
#1115 = CARTESIAN_POINT ( 'NONE',  ( -0.2899999999999999245, 0.1300000000000000044, 0.5999999999999999778 ) ) ;
#1116 = ORIENTED_EDGE ( 'NONE', *, *, #115, .F. ) ;
#1117 = FACE_OUTER_BOUND ( 'NONE', #721, .T. ) ;
#1118 = SURFACE_SIDE_STYLE ('',( #367 ) ) ;
#1119 = DIRECTION ( 'NONE',  ( -0.08682659386424779191, -0.9924325091389669673, 0.08682659386424780579 ) ) ;
#1120 = EDGE_LOOP ( 'NONE', ( #1, #1192, #1211, #333, #169, #710 ) ) ;
#1121 = FACE_OUTER_BOUND ( 'NONE', #87, .T. ) ;
#1122 = EDGE_LOOP ( 'NONE', ( #1116, #595, #1189, #695 ) ) ;
#1123 =( NAMED_UNIT ( * ) SI_UNIT ( $, .STERADIAN. ) SOLID_ANGLE_UNIT ( ) );
#1124 = FILL_AREA_STYLE ('',( #251 ) ) ;
#1125 = CARTESIAN_POINT ( 'NONE',  ( 0.5999999999999998668, 0.000000000000000000, -0.4000000000000001332 ) ) ;
#1126 = DIRECTION ( 'NONE',  ( 0.000000000000000000, 0.000000000000000000, 1.000000000000000000 ) ) ;
#1127 = VERTEX_POINT ( 'NONE', #240 ) ;
#1128 = EDGE_CURVE ( 'NONE', #73, #877, #152, .T. ) ;
#1129 = VECTOR ( 'NONE', #376, 1000.000000000000000 ) ;
#1130 = CARTESIAN_POINT ( 'NONE',  ( 0.2900000000000000355, 0.1300000000000000044, 0.5999999999999998668 ) ) ;
#1131 = VECTOR ( 'NONE', #1227, 1000.000000000000000 ) ;
#1132 = CARTESIAN_POINT ( 'NONE',  ( -0.6000000000000000888, 0.000000000000000000, -0.4000000000000000222 ) ) ;
#1133 = DIRECTION ( 'NONE',  ( 0.000000000000000000, -0.000000000000000000, -1.000000000000000000 ) ) ;
#1134 = VECTOR ( 'NONE', #1177, 1000.000000000000000 ) ;
#1135 = EDGE_LOOP ( 'NONE', ( #24, #356, #601, #276 ) ) ;
#1136 = EDGE_CURVE ( 'NONE', #415, #622, #910, .T. ) ;
#1137 = DIRECTION ( 'NONE',  ( -9.035018104045871927E-17, 0.000000000000000000, -1.000000000000000000 ) ) ;
#1138 = CARTESIAN_POINT ( 'NONE',  ( 0.5999999999999998668, 0.1300000000000000044, -0.4000000000000001332 ) ) ;
#1139 = DIRECTION ( 'NONE',  ( -1.000000000000000000, 0.000000000000000000, -0.000000000000000000 ) ) ;
#1140 = EDGE_LOOP ( 'NONE', ( #262, #342, #192, #1018 ) ) ;
#1141 = AXIS2_PLACEMENT_3D ( 'NONE', #1064, #21, #980 ) ;
#1142 = PRODUCT_CONTEXT ( 'NONE', #261, 'mechanical' ) ;
#1143 = PLANE ( 'NONE',  #1053 ) ;
#1144 = ADVANCED_FACE ( 'NONE', ( #730 ), #1013, .T. ) ;
#1145 = DIRECTION ( 'NONE',  ( -0.000000000000000000, -1.000000000000000000, -0.000000000000000000 ) ) ;
#1146 = DIRECTION ( 'NONE',  ( 0.000000000000000000, -0.000000000000000000, -1.000000000000000000 ) ) ;
#1147 = ORIENTED_EDGE ( 'NONE', *, *, #212, .F. ) ;
#1148 = DIRECTION ( 'NONE',  ( -1.000000000000000000, 0.000000000000000000, 0.000000000000000000 ) ) ;
#1149 = VECTOR ( 'NONE', #1119, 1000.000000000000114 ) ;
#1150 = EDGE_CURVE ( 'NONE', #438, #915, #63, .T. ) ;
#1151 = DIRECTION ( 'NONE',  ( 0.000000000000000000, 0.000000000000000000, -1.000000000000000000 ) ) ;
#1152 = DIRECTION ( 'NONE',  ( -1.000000000000000000, -0.000000000000000000, 9.035018104045870694E-17 ) ) ;
#1153 = ORIENTED_EDGE ( 'NONE', *, *, #129, .T. ) ;
#1154 = LINE ( 'NONE', #657, #278 ) ;
#1155 = DIRECTION ( 'NONE',  ( 0.000000000000000000, -1.000000000000000000, 0.000000000000000000 ) ) ;
#1156 = CARTESIAN_POINT ( 'NONE',  ( 0.5099999999999998979, 0.1300000000000000044, 0.2999999999999999334 ) ) ;
#1157 = VERTEX_POINT ( 'NONE', #781 ) ;
#1158 = ADVANCED_FACE ( 'NONE', ( #879 ), #132, .F. ) ;
#1159 = VECTOR ( 'NONE', #402, 1000.000000000000000 ) ;
#1160 = DIRECTION ( 'NONE',  ( -1.000000000000000000, 0.000000000000000000, 9.035018104045871927E-17 ) ) ;
#1161 = PLANE ( 'NONE',  #755 ) ;
#1162 = DIRECTION ( 'NONE',  ( -0.000000000000000000, 0.000000000000000000, 1.000000000000000000 ) ) ;
#1163 = ORIENTED_EDGE ( 'NONE', *, *, #294, .T. ) ;
#1164 = CARTESIAN_POINT ( 'NONE',  ( 0.2900000000000000355, 0.1300000000000000044, 0.5999999999999998668 ) ) ;
#1165 = FILL_AREA_STYLE_COLOUR ( '', #531 ) ;
#1166 = PLANE ( 'NONE',  #330 ) ;
#1167 = VECTOR ( 'NONE', #997, 1000.000000000000000 ) ;
#1168 = ORIENTED_EDGE ( 'NONE', *, *, #410, .T. ) ;
#1169 = CARTESIAN_POINT ( 'NONE',  ( -0.5099999999999998979, 0.1300000000000000044, 0.3999999999999999667 ) ) ;
#1170 = AXIS2_PLACEMENT_3D ( 'NONE', #1185, #253, #150 ) ;
#1171 = VECTOR ( 'NONE', #654, 1000.000000000000000 ) ;
#1172 =( NAMED_UNIT ( * ) PLANE_ANGLE_UNIT ( ) SI_UNIT ( $, .RADIAN. ) );
#1173 = ADVANCED_FACE ( 'NONE', ( #208 ), #520, .T. ) ;
#1174 = CARTESIAN_POINT ( 'NONE',  ( -0.6000000000000000888, 0.1300000000000000044, 0.4000000000000000222 ) ) ;
#1175 = FACE_OUTER_BOUND ( 'NONE', #649, .T. ) ;
#1176 = VERTEX_POINT ( 'NONE', #787 ) ;
#1177 = DIRECTION ( 'NONE',  ( 1.000000000000000000, 0.000000000000000000, -0.000000000000000000 ) ) ;
#1178 = FACE_OUTER_BOUND ( 'NONE', #813, .T. ) ;
#1179 = CARTESIAN_POINT ( 'NONE',  ( -0.1599999999999999756, -1.442220510185595828, -0.4000000000000000777 ) ) ;
#1180 = VECTOR ( 'NONE', #1199, 1000.000000000000000 ) ;
#1181 = DIRECTION ( 'NONE',  ( -0.08715574274765836016, -0.9961946980917455452, 0.000000000000000000 ) ) ;
#1182 = EDGE_CURVE ( 'NONE', #628, #415, #110, .T. ) ;
#1183 = FACE_OUTER_BOUND ( 'NONE', #897, .T. ) ;
#1184 = EDGE_LOOP ( 'NONE', ( #225, #1219, #339, #581 ) ) ;
#1185 = CARTESIAN_POINT ( 'NONE',  ( -0.1600000000000000033, 0.5686342439892260181, -0.5999999999999999778 ) ) ;
#1186 = ORIENTED_EDGE ( 'NONE', *, *, #52, .F. ) ;
#1187 = CARTESIAN_POINT ( 'NONE',  ( -0.2899999999999999245, 0.5686342439892260181, 0.5999999999999999778 ) ) ;
#1188 = ADVANCED_FACE ( 'NONE', ( #604 ), #325, .T. ) ;
#1189 = ORIENTED_EDGE ( 'NONE', *, *, #810, .T. ) ;
#1190 = CARTESIAN_POINT ( 'NONE',  ( -0.1600000000000000033, 0.1300000000000000044, -0.3000000000000001554 ) ) ;
#1191 =( GEOMETRIC_REPRESENTATION_CONTEXT ( 3 ) GLOBAL_UNCERTAINTY_ASSIGNED_CONTEXT ( ( #439 ) ) GLOBAL_UNIT_ASSIGNED_CONTEXT ( ( #749, #50, #399 ) ) REPRESENTATION_CONTEXT ( 'NONE', 'WORKASPACE' ) );
#1192 = ORIENTED_EDGE ( 'NONE', *, *, #189, .T. ) ;
#1193 = UNCERTAINTY_MEASURE_WITH_UNIT (LENGTH_MEASURE( 1.000000000000000082E-05 ), #30, 'distance_accuracy_value', 'NONE');
#1194 = CARTESIAN_POINT ( 'NONE',  ( 0.5999999999999998668, 0.000000000000000000, 0.3999999999999999112 ) ) ;
#1195 = EDGE_LOOP ( 'NONE', ( #1022, #471, #844, #66 ) ) ;
#1196 = DIRECTION ( 'NONE',  ( 0.000000000000000000, -0.000000000000000000, 1.000000000000000000 ) ) ;
#1197 = EDGE_LOOP ( 'NONE', ( #452, #1186, #219, #974 ) ) ;
#1198 = EDGE_CURVE ( 'NONE', #1061, #56, #501, .T. ) ;
#1199 = DIRECTION ( 'NONE',  ( 0.000000000000000000, 0.000000000000000000, -1.000000000000000000 ) ) ;
#1200 = CARTESIAN_POINT ( 'NONE',  ( 0.2900000000000000355, 0.1300000000000000044, 0.5999999999999998668 ) ) ;
#1201 = MANIFOLD_SOLID_BREP ( 'Cut-Extrude1', #871 ) ;
#1202 = DIRECTION ( 'NONE',  ( 0.000000000000000000, 1.000000000000000000, 0.000000000000000000 ) ) ;
#1203 = VERTEX_POINT ( 'NONE', #426 ) ;
#1204 = CARTESIAN_POINT ( 'NONE',  ( 0.1600000000000000033, 0.000000000000000000, -0.3000000000000001554 ) ) ;
#1205 = ORIENTED_EDGE ( 'NONE', *, *, #1017, .F. ) ;
#1206 = PRODUCT_DEFINITION ( 'UNKNOWN', '', #411, #57 ) ;
#1207 = MANIFOLD_SOLID_BREP ( 'Boss-Extrude2[3]', #355 ) ;
#1208 = PRESENTATION_STYLE_ASSIGNMENT (( #462 ) ) ;
#1209 = EDGE_LOOP ( 'NONE', ( #991, #1153, #258, #1020 ) ) ;
#1210 = CARTESIAN_POINT ( 'NONE',  ( 0.1600000000000000033, 0.5686342439892260181, -0.5999999999999999778 ) ) ;
#1211 = ORIENTED_EDGE ( 'NONE', *, *, #147, .T. ) ;
#1212 = VERTEX_POINT ( 'NONE', #312 ) ;
#1213 = CARTESIAN_POINT ( 'NONE',  ( -0.1600000000000000033, 0.000000000000000000, -0.3000000000000001554 ) ) ;
#1214 = ORIENTED_EDGE ( 'NONE', *, *, #940, .T. ) ;
#1215 = EDGE_CURVE ( 'NONE', #505, #487, #360, .T. ) ;
#1216 = DIRECTION ( 'NONE',  ( 1.000000000000000000, 0.000000000000000000, 0.000000000000000000 ) ) ;
#1217 = LINE ( 'NONE', #12, #1004 ) ;
#1218 = VECTOR ( 'NONE', #117, 1000.000000000000000 ) ;
#1219 = ORIENTED_EDGE ( 'NONE', *, *, #841, .T. ) ;
#1220 = CARTESIAN_POINT ( 'NONE',  ( -0.5099999999999998979, 0.1300000000000000044, 0.5999999999999999778 ) ) ;
#1221 = DIRECTION ( 'NONE',  ( -1.000000000000000000, -0.000000000000000000, -0.000000000000000000 ) ) ;
#1222 = DIRECTION ( 'NONE',  ( -0.000000000000000000, 0.000000000000000000, 1.000000000000000000 ) ) ;
#1223 = EDGE_CURVE ( 'NONE', #877, #49, #383, .T. ) ;
#1224 = ORIENTED_EDGE ( 'NONE', *, *, #461, .F. ) ;
#1225 = EDGE_CURVE ( 'NONE', #537, #1176, #171, .T. ) ;
#1226 = VECTOR ( 'NONE', #1233, 1000.000000000000000 ) ;
#1227 = DIRECTION ( 'NONE',  ( 0.000000000000000000, 0.000000000000000000, -1.000000000000000000 ) ) ;
#1228 = LINE ( 'NONE', #1138, #111 ) ;
#1229 = CARTESIAN_POINT ( 'NONE',  ( 0.5999999999999998668, 0.1300000000000000044, -0.4000000000000001332 ) ) ;
#1230 = VERTEX_POINT ( 'NONE', #852 ) ;
#1231 = EDGE_CURVE ( 'NONE', #954, #733, #215, .T. ) ;
#1232 = DIRECTION ( 'NONE',  ( 1.000000000000000000, 0.000000000000000000, 0.000000000000000000 ) ) ;
#1233 = DIRECTION ( 'NONE',  ( 0.000000000000000000, -1.000000000000000000, 0.000000000000000000 ) ) ;
#1234 = DIRECTION ( 'NONE',  ( -0.000000000000000000, -0.000000000000000000, 1.000000000000000000 ) ) ;
ENDSEC;
END-ISO-10303-21;
