%TF.GenerationSoftware,KiCad,Pcbnew,10.0.0*%
%TF.CreationDate,2026-08-10T16:11:42-04:00*%
%TF.ProjectId,PiZero_RTL_Panadapter,50695a65-726f-45f5-9254-4c5f50616e61,rev?*%
%TF.SameCoordinates,Original*%
%TF.FileFunction,Soldermask,Bot*%
%TF.FilePolarity,Negative*%
%FSLAX46Y46*%
G04 Gerber Fmt 4.6, Leading zero omitted, Abs format (unit mm)*
G04 Created by KiCad (PCBNEW 10.0.0) date 2026-08-10 16:11:42*
%MOMM*%
%LPD*%
G01*
G04 APERTURE LIST*
%ADD10C,0.850000*%
%ADD11C,0.000100*%
%ADD12C,2.750000*%
%ADD13R,1.778000X1.778000*%
%ADD14C,1.778000*%
%ADD15C,2.203200*%
%ADD16C,2.000000*%
%ADD17C,1.703200*%
%ADD18R,1.700000X1.700000*%
%ADD19C,1.700000*%
G04 APERTURE END LIST*
D10*
X168300000Y-111300000D02*
G75*
G02*
X167450000Y-111300000I-425000J0D01*
G01*
X167450000Y-111300000D02*
G75*
G02*
X168300000Y-111300000I425000J0D01*
G01*
X174925000Y-91475000D02*
G75*
G02*
X174075000Y-91475000I-425000J0D01*
G01*
X174075000Y-91475000D02*
G75*
G02*
X174925000Y-91475000I425000J0D01*
G01*
X130125000Y-108050000D02*
G75*
G02*
X129275000Y-108050000I-425000J0D01*
G01*
X129275000Y-108050000D02*
G75*
G02*
X130125000Y-108050000I425000J0D01*
G01*
X129825000Y-110675000D02*
G75*
G02*
X128975000Y-110675000I-425000J0D01*
G01*
X128975000Y-110675000D02*
G75*
G02*
X129825000Y-110675000I425000J0D01*
G01*
X143600000Y-112425000D02*
G75*
G02*
X142750000Y-112425000I-425000J0D01*
G01*
X142750000Y-112425000D02*
G75*
G02*
X143600000Y-112425000I425000J0D01*
G01*
X141475000Y-112425000D02*
G75*
G02*
X140625000Y-112425000I-425000J0D01*
G01*
X140625000Y-112425000D02*
G75*
G02*
X141475000Y-112425000I425000J0D01*
G01*
D11*
%TO.C,U4*%
X122336905Y-84769492D02*
X122679630Y-84827723D01*
X123013680Y-84923962D01*
X123334855Y-85056997D01*
X123639114Y-85225155D01*
X123922633Y-85426322D01*
X124181846Y-85657969D01*
X124413493Y-85917182D01*
X124614660Y-86200701D01*
X124782818Y-86504960D01*
X124915853Y-86826135D01*
X125012092Y-87160185D01*
X125070323Y-87502910D01*
X125089815Y-87850000D01*
X125070323Y-88197090D01*
X125012092Y-88539815D01*
X124915853Y-88873865D01*
X124782818Y-89195040D01*
X124614660Y-89499299D01*
X124413493Y-89782818D01*
X124181846Y-90042031D01*
X123922633Y-90273678D01*
X123639114Y-90474845D01*
X123334855Y-90643003D01*
X123013680Y-90776038D01*
X122679630Y-90872277D01*
X122336905Y-90930508D01*
X121989815Y-90950000D01*
X121642725Y-90930508D01*
X121300000Y-90872277D01*
X120965950Y-90776038D01*
X120644775Y-90643003D01*
X120340516Y-90474845D01*
X120056997Y-90273678D01*
X119797784Y-90042031D01*
X119566137Y-89782818D01*
X119364970Y-89499299D01*
X119196812Y-89195040D01*
X119063777Y-88873865D01*
X118967538Y-88539815D01*
X118909307Y-88197090D01*
X118889815Y-87850000D01*
X118909307Y-87502910D01*
X118967538Y-87160185D01*
X119063777Y-86826135D01*
X119196812Y-86504960D01*
X119364970Y-86200701D01*
X119566137Y-85917182D01*
X119797784Y-85657969D01*
X120056997Y-85426322D01*
X120340516Y-85225155D01*
X120644775Y-85056997D01*
X120965950Y-84923962D01*
X121300000Y-84827723D01*
X121642725Y-84769492D01*
X121989815Y-84750000D01*
X122336905Y-84769492D01*
G36*
X122336905Y-84769492D02*
G01*
X122679630Y-84827723D01*
X123013680Y-84923962D01*
X123334855Y-85056997D01*
X123639114Y-85225155D01*
X123922633Y-85426322D01*
X124181846Y-85657969D01*
X124413493Y-85917182D01*
X124614660Y-86200701D01*
X124782818Y-86504960D01*
X124915853Y-86826135D01*
X125012092Y-87160185D01*
X125070323Y-87502910D01*
X125089815Y-87850000D01*
X125070323Y-88197090D01*
X125012092Y-88539815D01*
X124915853Y-88873865D01*
X124782818Y-89195040D01*
X124614660Y-89499299D01*
X124413493Y-89782818D01*
X124181846Y-90042031D01*
X123922633Y-90273678D01*
X123639114Y-90474845D01*
X123334855Y-90643003D01*
X123013680Y-90776038D01*
X122679630Y-90872277D01*
X122336905Y-90930508D01*
X121989815Y-90950000D01*
X121642725Y-90930508D01*
X121300000Y-90872277D01*
X120965950Y-90776038D01*
X120644775Y-90643003D01*
X120340516Y-90474845D01*
X120056997Y-90273678D01*
X119797784Y-90042031D01*
X119566137Y-89782818D01*
X119364970Y-89499299D01*
X119196812Y-89195040D01*
X119063777Y-88873865D01*
X118967538Y-88539815D01*
X118909307Y-88197090D01*
X118889815Y-87850000D01*
X118909307Y-87502910D01*
X118967538Y-87160185D01*
X119063777Y-86826135D01*
X119196812Y-86504960D01*
X119364970Y-86200701D01*
X119566137Y-85917182D01*
X119797784Y-85657969D01*
X120056997Y-85426322D01*
X120340516Y-85225155D01*
X120644775Y-85056997D01*
X120965950Y-84923962D01*
X121300000Y-84827723D01*
X121642725Y-84769492D01*
X121989815Y-84750000D01*
X122336905Y-84769492D01*
G37*
X122347090Y-107769492D02*
X122689815Y-107827723D01*
X123023865Y-107923962D01*
X123345040Y-108056997D01*
X123649299Y-108225155D01*
X123932818Y-108426322D01*
X124192031Y-108657969D01*
X124423678Y-108917182D01*
X124624845Y-109200701D01*
X124793003Y-109504960D01*
X124926038Y-109826135D01*
X125022277Y-110160185D01*
X125080508Y-110502910D01*
X125100000Y-110850000D01*
X125080508Y-111197090D01*
X125022277Y-111539815D01*
X124926038Y-111873865D01*
X124793003Y-112195040D01*
X124624845Y-112499299D01*
X124423678Y-112782818D01*
X124192031Y-113042031D01*
X123932818Y-113273678D01*
X123649299Y-113474845D01*
X123345040Y-113643003D01*
X123023865Y-113776038D01*
X122689815Y-113872277D01*
X122347090Y-113930508D01*
X122000000Y-113950000D01*
X121652910Y-113930508D01*
X121310185Y-113872277D01*
X120976135Y-113776038D01*
X120654960Y-113643003D01*
X120350701Y-113474845D01*
X120067182Y-113273678D01*
X119807969Y-113042031D01*
X119576322Y-112782818D01*
X119375155Y-112499299D01*
X119206997Y-112195040D01*
X119073962Y-111873865D01*
X118977723Y-111539815D01*
X118919492Y-111197090D01*
X118900000Y-110850000D01*
X118919492Y-110502910D01*
X118977723Y-110160185D01*
X119073962Y-109826135D01*
X119206997Y-109504960D01*
X119375155Y-109200701D01*
X119576322Y-108917182D01*
X119807969Y-108657969D01*
X120067182Y-108426322D01*
X120350701Y-108225155D01*
X120654960Y-108056997D01*
X120976135Y-107923962D01*
X121310185Y-107827723D01*
X121652910Y-107769492D01*
X122000000Y-107750000D01*
X122347090Y-107769492D01*
G36*
X122347090Y-107769492D02*
G01*
X122689815Y-107827723D01*
X123023865Y-107923962D01*
X123345040Y-108056997D01*
X123649299Y-108225155D01*
X123932818Y-108426322D01*
X124192031Y-108657969D01*
X124423678Y-108917182D01*
X124624845Y-109200701D01*
X124793003Y-109504960D01*
X124926038Y-109826135D01*
X125022277Y-110160185D01*
X125080508Y-110502910D01*
X125100000Y-110850000D01*
X125080508Y-111197090D01*
X125022277Y-111539815D01*
X124926038Y-111873865D01*
X124793003Y-112195040D01*
X124624845Y-112499299D01*
X124423678Y-112782818D01*
X124192031Y-113042031D01*
X123932818Y-113273678D01*
X123649299Y-113474845D01*
X123345040Y-113643003D01*
X123023865Y-113776038D01*
X122689815Y-113872277D01*
X122347090Y-113930508D01*
X122000000Y-113950000D01*
X121652910Y-113930508D01*
X121310185Y-113872277D01*
X120976135Y-113776038D01*
X120654960Y-113643003D01*
X120350701Y-113474845D01*
X120067182Y-113273678D01*
X119807969Y-113042031D01*
X119576322Y-112782818D01*
X119375155Y-112499299D01*
X119206997Y-112195040D01*
X119073962Y-111873865D01*
X118977723Y-111539815D01*
X118919492Y-111197090D01*
X118900000Y-110850000D01*
X118919492Y-110502910D01*
X118977723Y-110160185D01*
X119073962Y-109826135D01*
X119206997Y-109504960D01*
X119375155Y-109200701D01*
X119576322Y-108917182D01*
X119807969Y-108657969D01*
X120067182Y-108426322D01*
X120350701Y-108225155D01*
X120654960Y-108056997D01*
X120976135Y-107923962D01*
X121310185Y-107827723D01*
X121652910Y-107769492D01*
X122000000Y-107750000D01*
X122347090Y-107769492D01*
G37*
X180347090Y-84769492D02*
X180689815Y-84827723D01*
X181023865Y-84923962D01*
X181345040Y-85056997D01*
X181649299Y-85225155D01*
X181932818Y-85426322D01*
X182192031Y-85657969D01*
X182423678Y-85917182D01*
X182624845Y-86200701D01*
X182793003Y-86504960D01*
X182926038Y-86826135D01*
X183022277Y-87160185D01*
X183080508Y-87502910D01*
X183100000Y-87850000D01*
X183080508Y-88197090D01*
X183022277Y-88539815D01*
X182926038Y-88873865D01*
X182793003Y-89195040D01*
X182624845Y-89499299D01*
X182423678Y-89782818D01*
X182192031Y-90042031D01*
X181932818Y-90273678D01*
X181649299Y-90474845D01*
X181345040Y-90643003D01*
X181023865Y-90776038D01*
X180689815Y-90872277D01*
X180347090Y-90930508D01*
X180000000Y-90950000D01*
X179652910Y-90930508D01*
X179310185Y-90872277D01*
X178976135Y-90776038D01*
X178654960Y-90643003D01*
X178350701Y-90474845D01*
X178067182Y-90273678D01*
X177807969Y-90042031D01*
X177576322Y-89782818D01*
X177375155Y-89499299D01*
X177206997Y-89195040D01*
X177073962Y-88873865D01*
X176977723Y-88539815D01*
X176919492Y-88197090D01*
X176900000Y-87850000D01*
X176919492Y-87502910D01*
X176977723Y-87160185D01*
X177073962Y-86826135D01*
X177206997Y-86504960D01*
X177375155Y-86200701D01*
X177576322Y-85917182D01*
X177807969Y-85657969D01*
X178067182Y-85426322D01*
X178350701Y-85225155D01*
X178654960Y-85056997D01*
X178976135Y-84923962D01*
X179310185Y-84827723D01*
X179652910Y-84769492D01*
X180000000Y-84750000D01*
X180347090Y-84769492D01*
G36*
X180347090Y-84769492D02*
G01*
X180689815Y-84827723D01*
X181023865Y-84923962D01*
X181345040Y-85056997D01*
X181649299Y-85225155D01*
X181932818Y-85426322D01*
X182192031Y-85657969D01*
X182423678Y-85917182D01*
X182624845Y-86200701D01*
X182793003Y-86504960D01*
X182926038Y-86826135D01*
X183022277Y-87160185D01*
X183080508Y-87502910D01*
X183100000Y-87850000D01*
X183080508Y-88197090D01*
X183022277Y-88539815D01*
X182926038Y-88873865D01*
X182793003Y-89195040D01*
X182624845Y-89499299D01*
X182423678Y-89782818D01*
X182192031Y-90042031D01*
X181932818Y-90273678D01*
X181649299Y-90474845D01*
X181345040Y-90643003D01*
X181023865Y-90776038D01*
X180689815Y-90872277D01*
X180347090Y-90930508D01*
X180000000Y-90950000D01*
X179652910Y-90930508D01*
X179310185Y-90872277D01*
X178976135Y-90776038D01*
X178654960Y-90643003D01*
X178350701Y-90474845D01*
X178067182Y-90273678D01*
X177807969Y-90042031D01*
X177576322Y-89782818D01*
X177375155Y-89499299D01*
X177206997Y-89195040D01*
X177073962Y-88873865D01*
X176977723Y-88539815D01*
X176919492Y-88197090D01*
X176900000Y-87850000D01*
X176919492Y-87502910D01*
X176977723Y-87160185D01*
X177073962Y-86826135D01*
X177206997Y-86504960D01*
X177375155Y-86200701D01*
X177576322Y-85917182D01*
X177807969Y-85657969D01*
X178067182Y-85426322D01*
X178350701Y-85225155D01*
X178654960Y-85056997D01*
X178976135Y-84923962D01*
X179310185Y-84827723D01*
X179652910Y-84769492D01*
X180000000Y-84750000D01*
X180347090Y-84769492D01*
G37*
X180347090Y-107769492D02*
X180689815Y-107827723D01*
X181023865Y-107923962D01*
X181345040Y-108056997D01*
X181649299Y-108225155D01*
X181932818Y-108426322D01*
X182192031Y-108657969D01*
X182423678Y-108917182D01*
X182624845Y-109200701D01*
X182793003Y-109504960D01*
X182926038Y-109826135D01*
X183022277Y-110160185D01*
X183080508Y-110502910D01*
X183100000Y-110850000D01*
X183080508Y-111197090D01*
X183022277Y-111539815D01*
X182926038Y-111873865D01*
X182793003Y-112195040D01*
X182624845Y-112499299D01*
X182423678Y-112782818D01*
X182192031Y-113042031D01*
X181932818Y-113273678D01*
X181649299Y-113474845D01*
X181345040Y-113643003D01*
X181023865Y-113776038D01*
X180689815Y-113872277D01*
X180347090Y-113930508D01*
X180000000Y-113950000D01*
X179652910Y-113930508D01*
X179310185Y-113872277D01*
X178976135Y-113776038D01*
X178654960Y-113643003D01*
X178350701Y-113474845D01*
X178067182Y-113273678D01*
X177807969Y-113042031D01*
X177576322Y-112782818D01*
X177375155Y-112499299D01*
X177206997Y-112195040D01*
X177073962Y-111873865D01*
X176977723Y-111539815D01*
X176919492Y-111197090D01*
X176900000Y-110850000D01*
X176919492Y-110502910D01*
X176977723Y-110160185D01*
X177073962Y-109826135D01*
X177206997Y-109504960D01*
X177375155Y-109200701D01*
X177576322Y-108917182D01*
X177807969Y-108657969D01*
X178067182Y-108426322D01*
X178350701Y-108225155D01*
X178654960Y-108056997D01*
X178976135Y-107923962D01*
X179310185Y-107827723D01*
X179652910Y-107769492D01*
X180000000Y-107750000D01*
X180347090Y-107769492D01*
G36*
X180347090Y-107769492D02*
G01*
X180689815Y-107827723D01*
X181023865Y-107923962D01*
X181345040Y-108056997D01*
X181649299Y-108225155D01*
X181932818Y-108426322D01*
X182192031Y-108657969D01*
X182423678Y-108917182D01*
X182624845Y-109200701D01*
X182793003Y-109504960D01*
X182926038Y-109826135D01*
X183022277Y-110160185D01*
X183080508Y-110502910D01*
X183100000Y-110850000D01*
X183080508Y-111197090D01*
X183022277Y-111539815D01*
X182926038Y-111873865D01*
X182793003Y-112195040D01*
X182624845Y-112499299D01*
X182423678Y-112782818D01*
X182192031Y-113042031D01*
X181932818Y-113273678D01*
X181649299Y-113474845D01*
X181345040Y-113643003D01*
X181023865Y-113776038D01*
X180689815Y-113872277D01*
X180347090Y-113930508D01*
X180000000Y-113950000D01*
X179652910Y-113930508D01*
X179310185Y-113872277D01*
X178976135Y-113776038D01*
X178654960Y-113643003D01*
X178350701Y-113474845D01*
X178067182Y-113273678D01*
X177807969Y-113042031D01*
X177576322Y-112782818D01*
X177375155Y-112499299D01*
X177206997Y-112195040D01*
X177073962Y-111873865D01*
X176977723Y-111539815D01*
X176919492Y-111197090D01*
X176900000Y-110850000D01*
X176919492Y-110502910D01*
X176977723Y-110160185D01*
X177073962Y-109826135D01*
X177206997Y-109504960D01*
X177375155Y-109200701D01*
X177576322Y-108917182D01*
X177807969Y-108657969D01*
X178067182Y-108426322D01*
X178350701Y-108225155D01*
X178654960Y-108056997D01*
X178976135Y-107923962D01*
X179310185Y-107827723D01*
X179652910Y-107769492D01*
X180000000Y-107750000D01*
X180347090Y-107769492D01*
G37*
%TD*%
D12*
%TO.C,U4*%
X122000000Y-87850000D03*
X122000000Y-110850000D03*
X180000000Y-87850000D03*
X180000000Y-110850000D03*
D13*
X175130000Y-89120000D03*
D14*
X175130000Y-86580000D03*
X172590000Y-89120000D03*
X172590000Y-86580000D03*
X170050000Y-89120000D03*
X170050000Y-86580000D03*
X167510000Y-89120000D03*
X167510000Y-86580000D03*
X164970000Y-89120000D03*
X164970000Y-86580000D03*
X162430000Y-89120000D03*
X162430000Y-86580000D03*
X159890000Y-89120000D03*
X159890000Y-86580000D03*
X157350000Y-89120000D03*
X157350000Y-86580000D03*
X154810000Y-89120000D03*
X154810000Y-86580000D03*
X152270000Y-89120000D03*
X152270000Y-86580000D03*
X149730000Y-89120000D03*
X149730000Y-86580000D03*
X147190000Y-89120000D03*
X147190000Y-86580000D03*
X144650000Y-89120000D03*
X144650000Y-86580000D03*
X142110000Y-89120000D03*
X142110000Y-86580000D03*
X139570000Y-89120000D03*
X139570000Y-86580000D03*
X137030000Y-89120000D03*
X137030000Y-86580000D03*
X134490000Y-89120000D03*
X134490000Y-86580000D03*
X131950000Y-89120000D03*
X131950000Y-86580000D03*
X129410000Y-89120000D03*
X129410000Y-86580000D03*
X126870000Y-89120000D03*
X126870000Y-86580000D03*
D15*
X129710000Y-108050000D03*
D16*
X129400000Y-110660000D03*
D15*
X135790000Y-111940000D03*
D17*
X141050000Y-112430000D03*
X143180000Y-112430000D03*
D16*
X167880000Y-111300000D03*
X174490000Y-91480000D03*
%TD*%
D18*
%TO.C,J5*%
X179110000Y-92090000D03*
D19*
X181650000Y-92090000D03*
X179110000Y-94630000D03*
X181650000Y-94630000D03*
X179110000Y-97170000D03*
X181650000Y-97170000D03*
X179110000Y-99710000D03*
X181650000Y-99710000D03*
%TD*%
M02*
