M48
; DRILL file KiCad 10.0.0 date 2026-08-10T16:11:46
; FORMAT={-:-/ absolute / metric / decimal}
; #@! TF.CreationDate,2026-08-10T16:11:46-04:00
; #@! TF.GenerationSoftware,Kicad,Pcbnew,10.0.0
; #@! TF.FileFunction,Plated,1,4,PTH
FMAT,2
METRIC
; #@! TA.AperFunction,Plated,PTH,ViaDrill
T1C0.300
; #@! TA.AperFunction,Plated,PTH,ComponentDrill
T2C0.300
; #@! TA.AperFunction,Plated,PTH,ComponentDrill
T3C0.800
; #@! TA.AperFunction,Plated,PTH,ComponentDrill
T4C1.000
%
G90
G05
T1
X119.55Y-93.656
X119.625Y-96.216
X120.05Y-95.691
X120.07Y-101.62
X120.07Y-103.32
X120.2Y-105.336
X120.4Y-101.06
X120.791Y-104.464
X120.793Y-106.206
X121.075Y-96.585
X121.225Y-101.06
X121.55Y-95.681
X121.575Y-98.635
X122.275Y-98.325
X122.375Y-96.45
X122.475Y-100.775
X122.5Y-99.4
X122.549Y-102.332
X123.13Y-91.72
X123.155Y-106.202
X123.158Y-103.289
X123.16Y-104.465
X123.25Y-96.65
X123.68Y-102.08
X123.747Y-105.334
X123.775Y-102.775
X124.02Y-96.25
X124.53Y-104.78
X125.13Y-92.72
X125.25Y-100.95
X125.33Y-91.88
X125.478Y-112.55
X125.7Y-96.01
X125.7Y-97.18
X125.875Y-93.025
X125.875Y-93.975
X125.877Y-95.04
X126.069Y-111.678
X126.07Y-113.42
X126.073Y-101.398
X126.34Y-104.763
X126.34Y-106.068
X126.34Y-107.372
X126.34Y-108.676
X126.34Y-109.98
X126.567Y-99.356
X126.64Y-103.85
X126.69Y-97.162
X126.822Y-102.655
X127.525Y-102.0
X127.54Y-92.39
X128.17Y-107.368
X128.17Y-108.672
X128.17Y-109.976
X128.215Y-96.014
X128.24Y-105.61
X128.275Y-99.525
X128.28Y-96.733
X128.433Y-113.417
X128.438Y-111.678
X128.61Y-102.675
X128.625Y-103.275
X128.64Y-104.446
X128.925Y-101.4
X129.025Y-112.548
X129.425Y-92.582
X129.43Y-91.9
X129.625Y-100.332
X129.65Y-105.44
X129.8Y-98.875
X130.68Y-111.34
X130.75Y-109.4
X130.9Y-98.325
X130.96Y-104.135
X131.158Y-100.332
X131.64Y-112.765
X131.65Y-111.845
X131.8Y-98.875
X131.9Y-106.775
X131.999Y-110.748
X132.35Y-102.4
X132.35Y-105.475
X132.52Y-108.69
X132.948Y-111.308
X133.03Y-92.077
X133.075Y-102.5
X133.25Y-103.175
X133.25Y-105.525
X133.284Y-109.461
X133.425Y-98.875
X133.6Y-97.2
X133.75Y-100.333
X134.06Y-101.849
X134.257Y-97.139
X134.33Y-98.52
X134.625Y-94.525
X134.75Y-109.5
X135.16Y-108.44
X135.3Y-95.9
X135.39Y-98.87
X135.726Y-94.361
X136.15Y-104.341
X136.193Y-92.273
X136.24Y-101.66
X136.25Y-109.5
X136.29Y-100.19
X136.418Y-108.438
X136.85Y-99.625
X136.896Y-97.45
X136.93Y-92.63
X137.325Y-108.05
X137.33Y-107.4
X137.427Y-111.915
X137.45Y-109.81
X137.475Y-96.575
X137.5Y-102.5
X138.25Y-92.42
X138.34Y-103.04
X138.38Y-104.963
X138.38Y-105.617
X138.475Y-111.975
X138.475Y-113.225
X138.69Y-92.94
X138.7Y-94.0
X138.7Y-100.275
X138.708Y-99.62
X138.75Y-92.0
X138.975Y-101.925
X139.325Y-92.775
X139.65Y-101.925
X140.3Y-101.375
X140.35Y-110.09
X140.442Y-92.774
X140.558Y-107.097
X140.6Y-108.15
X140.65Y-109.41
X140.7Y-101.975
X141.099Y-92.774
X142.147Y-101.516
X142.15Y-103.33
X142.575Y-92.95
X143.275Y-92.95
X143.32Y-104.98
X143.372Y-101.492
X143.58Y-108.183
X143.58Y-108.837
X143.58Y-106.868
X143.58Y-107.522
X143.76Y-92.44
X143.775Y-103.45
X143.908Y-102.018
X144.1Y-92.95
X144.13Y-104.19
X144.445Y-102.545
X145.369Y-92.46
X145.515Y-94.427
X145.7Y-95.2
X145.91Y-107.65
X146.0Y-93.65
X146.1Y-113.4
X146.31Y-109.39
X146.6Y-93.39
X146.61Y-112.75
X146.62Y-92.74
X146.65Y-97.625
X146.76Y-102.93
X146.76Y-103.65
X147.13Y-93.79
X147.38Y-95.58
X147.432Y-96.299
X147.451Y-94.932
X147.95Y-98.75
X148.325Y-97.325
X148.325Y-98.075
X148.475Y-99.35
X148.96Y-91.88
X149.12Y-104.445
X149.598Y-103.977
X149.6Y-92.38
X150.076Y-103.509
X150.43Y-96.02
X150.45Y-96.96
X150.554Y-103.041
X150.74Y-95.02
X150.91Y-99.48
X151.032Y-102.573
X151.342Y-92.989
X151.4Y-93.9
X151.51Y-102.105
X151.63Y-106.71
X151.7Y-111.09
X152.03Y-96.33
X152.97Y-110.88
X153.08Y-95.55
X153.53Y-105.033
X153.535Y-101.45
X154.14Y-96.63
X154.17Y-106.71
X154.208Y-111.335
X155.979Y-91.859
X156.75Y-101.45
X156.75Y-105.03
X157.35Y-100.32
X157.95Y-106.71
X157.95Y-111.6
X158.251Y-92.608
X158.85Y-96.49
X158.871Y-93.192
X158.871Y-93.852
X158.871Y-94.513
X158.871Y-95.173
X159.66Y-96.91
X159.885Y-101.45
X159.892Y-105.03
X160.53Y-106.71
X160.613Y-95.071
X160.75Y-92.28
X161.26Y-99.48
X161.46Y-93.34
X161.46Y-94.0
X161.79Y-91.49
X162.578Y-102.21
X162.578Y-102.88
X162.578Y-103.54
X162.578Y-104.2
X162.578Y-104.86
X162.578Y-105.53
X162.79Y-93.5
X163.74Y-91.08
X163.74Y-91.85
X165.263Y-100.64
X165.263Y-102.93
X165.263Y-105.22
X165.273Y-101.788
X165.273Y-104.078
X166.413Y-101.783
X166.418Y-104.077
X166.88Y-93.085
X167.563Y-98.35
X167.567Y-100.64
X167.567Y-101.783
X167.567Y-102.93
X167.567Y-104.073
X167.567Y-105.22
X168.711Y-104.077
X168.711Y-101.787
X168.711Y-99.497
X168.711Y-97.208
X169.174Y-107.385
X169.174Y-107.985
X169.174Y-108.585
X169.174Y-109.185
X169.49Y-92.18
X169.624Y-107.685
X169.624Y-108.285
X169.624Y-108.885
X169.853Y-98.35
X169.853Y-100.64
X169.853Y-102.93
X169.853Y-105.22
X169.853Y-96.061
X170.77Y-92.19
X170.999Y-104.073
X171.0Y-99.498
X171.001Y-97.207
X171.001Y-101.787
X171.305Y-93.98
X172.143Y-102.93
X172.143Y-98.35
X172.143Y-100.64
X172.455Y-93.98
X172.595Y-113.205
X172.895Y-112.755
X173.195Y-113.205
X173.291Y-99.497
X173.291Y-101.787
X173.495Y-112.755
X173.795Y-113.205
X174.095Y-112.755
X174.395Y-113.205
X174.433Y-102.93
X174.861Y-107.94
X175.161Y-108.39
X175.461Y-107.94
X175.59Y-97.208
X175.761Y-108.39
X176.061Y-107.94
X176.361Y-108.39
X176.661Y-107.94
X181.67Y-103.3
X181.67Y-103.9
X181.67Y-104.5
X182.12Y-103.0
X182.12Y-103.6
X182.12Y-104.2
X182.12Y-104.8
T2
X131.025Y-94.607
X131.025Y-95.382
X131.025Y-96.157
X131.8Y-94.607
X131.8Y-95.382
X131.8Y-96.157
X132.575Y-94.607
X132.575Y-95.382
X132.575Y-96.157
X139.85Y-95.175
X139.85Y-96.225
X139.85Y-97.275
X139.85Y-98.325
X140.9Y-95.175
X140.9Y-96.225
X140.9Y-97.275
X140.9Y-98.325
X141.95Y-95.175
X141.95Y-96.225
X141.95Y-97.275
X141.95Y-98.325
X143.0Y-95.175
X143.0Y-96.225
X143.0Y-97.275
X143.0Y-98.325
X155.292Y-93.992
X155.292Y-94.767
X155.292Y-95.542
X156.067Y-93.992
X156.067Y-94.767
X156.067Y-95.542
X156.842Y-93.992
X156.842Y-94.767
X156.842Y-95.542
T3
X129.4Y-110.66
X129.71Y-108.05
X135.79Y-111.94
X141.05Y-112.43
X143.18Y-112.43
X167.88Y-111.3
X174.49Y-91.48
T4
X126.87Y-86.58
X126.87Y-89.12
X129.41Y-86.58
X129.41Y-89.12
X131.95Y-86.58
X131.95Y-89.12
X134.49Y-86.58
X134.49Y-89.12
X137.03Y-86.58
X137.03Y-89.12
X139.57Y-86.58
X139.57Y-89.12
X142.11Y-86.58
X142.11Y-89.12
X144.65Y-86.58
X144.65Y-89.12
X147.19Y-86.58
X147.19Y-89.12
X149.73Y-86.58
X149.73Y-89.12
X152.27Y-86.58
X152.27Y-89.12
X154.81Y-86.58
X154.81Y-89.12
X157.35Y-86.58
X157.35Y-89.12
X159.89Y-86.58
X159.89Y-89.12
X162.43Y-86.58
X162.43Y-89.12
X164.97Y-86.58
X164.97Y-89.12
X167.51Y-86.58
X167.51Y-89.12
X170.05Y-86.58
X170.05Y-89.12
X172.59Y-86.58
X172.59Y-89.12
X175.13Y-86.58
X175.13Y-89.12
X179.11Y-92.09
X179.11Y-94.63
X179.11Y-97.17
X179.11Y-99.71
X181.65Y-92.09
X181.65Y-94.63
X181.65Y-97.17
X181.65Y-99.71
M30
