%TF.GenerationSoftware,KiCad,Pcbnew,10.0.0*%
%TF.CreationDate,2026-08-10T16:11:42-04:00*%
%TF.ProjectId,PiZero_RTL_Panadapter,50695a65-726f-45f5-9254-4c5f50616e61,rev?*%
%TF.SameCoordinates,Original*%
%TF.FileFunction,Legend,Top*%
%TF.FilePolarity,Positive*%
%FSLAX46Y46*%
G04 Gerber Fmt 4.6, Leading zero omitted, Abs format (unit mm)*
G04 Created by KiCad (PCBNEW 10.0.0) date 2026-08-10 16:11:42*
%MOMM*%
%LPD*%
G01*
G04 APERTURE LIST*
G04 Aperture macros list*
%AMRoundRect*
0 Rectangle with rounded corners*
0 $1 Rounding radius*
0 $2 $3 $4 $5 $6 $7 $8 $9 X,Y pos of 4 corners*
0 Add a 4 corners polygon primitive as box body*
4,1,4,$2,$3,$4,$5,$6,$7,$8,$9,$2,$3,0*
0 Add four circle primitives for the rounded corners*
1,1,$1+$1,$2,$3*
1,1,$1+$1,$4,$5*
1,1,$1+$1,$6,$7*
1,1,$1+$1,$8,$9*
0 Add four rect primitives between the rounded corners*
20,1,$1+$1,$2,$3,$4,$5,0*
20,1,$1+$1,$4,$5,$6,$7,0*
20,1,$1+$1,$6,$7,$8,$9,0*
20,1,$1+$1,$8,$9,$2,$3,0*%
G04 Aperture macros list end*
%ADD10C,0.050000*%
%ADD11C,0.100000*%
%ADD12C,0.200000*%
%ADD13C,0.000000*%
%ADD14C,0.000100*%
%ADD15RoundRect,0.150000X0.150000X0.200000X-0.150000X0.200000X-0.150000X-0.200000X0.150000X-0.200000X0*%
%ADD16RoundRect,0.062500X-0.062500X-0.112500X0.062500X-0.112500X0.062500X0.112500X-0.062500X0.112500X0*%
%ADD17RoundRect,0.150000X-0.247487X-0.035355X-0.035355X-0.247487X0.247487X0.035355X0.035355X0.247487X0*%
%ADD18R,0.200000X0.280000*%
%ADD19RoundRect,0.050000X0.100000X-0.140000X0.100000X0.140000X-0.100000X0.140000X-0.100000X-0.140000X0*%
%ADD20C,2.750000*%
%ADD21R,1.778000X1.778000*%
%ADD22C,1.778000*%
%ADD23C,1.453200*%
%ADD24C,1.250000*%
%ADD25RoundRect,0.062500X0.375000X0.062500X-0.375000X0.062500X-0.375000X-0.062500X0.375000X-0.062500X0*%
%ADD26RoundRect,0.062500X0.062500X0.375000X-0.062500X0.375000X-0.062500X-0.375000X0.062500X-0.375000X0*%
%ADD27R,1.450000X1.450000*%
%ADD28RoundRect,0.062500X0.062500X0.112500X-0.062500X0.112500X-0.062500X-0.112500X0.062500X-0.112500X0*%
%ADD29RoundRect,0.062500X-0.112500X0.062500X-0.112500X-0.062500X0.112500X-0.062500X0.112500X0.062500X0*%
%ADD30RoundRect,0.150000X-0.200000X0.150000X-0.200000X-0.150000X0.200000X-0.150000X0.200000X0.150000X0*%
%ADD31RoundRect,0.200000X-0.300000X0.200000X-0.300000X-0.200000X0.300000X-0.200000X0.300000X0.200000X0*%
%ADD32RoundRect,0.062500X0.112500X-0.062500X0.112500X0.062500X-0.112500X0.062500X-0.112500X-0.062500X0*%
%ADD33RoundRect,0.150000X0.700000X-0.150000X0.700000X0.150000X-0.700000X0.150000X-0.700000X-0.150000X0*%
%ADD34RoundRect,0.250000X1.100000X-0.250000X1.100000X0.250000X-1.100000X0.250000X-1.100000X-0.250000X0*%
%ADD35R,1.060000X1.060000*%
%ADD36RoundRect,0.250000X-0.250000X0.275000X-0.250000X-0.275000X0.250000X-0.275000X0.250000X0.275000X0*%
%ADD37RoundRect,0.250000X-0.275000X0.850000X-0.275000X-0.850000X0.275000X-0.850000X0.275000X0.850000X0*%
%ADD38RoundRect,0.062500X-0.123744X-0.035355X-0.035355X-0.123744X0.123744X0.035355X0.035355X0.123744X0*%
%ADD39RoundRect,0.062500X0.035355X-0.123744X0.123744X-0.035355X-0.035355X0.123744X-0.123744X0.035355X0*%
%ADD40RoundRect,0.150000X0.150000X-0.537500X0.150000X0.537500X-0.150000X0.537500X-0.150000X-0.537500X0*%
%ADD41RoundRect,0.062500X0.062500X-0.375000X0.062500X0.375000X-0.062500X0.375000X-0.062500X-0.375000X0*%
%ADD42RoundRect,0.062500X0.375000X-0.062500X0.375000X0.062500X-0.375000X0.062500X-0.375000X-0.062500X0*%
%ADD43R,2.150000X2.150000*%
%ADD44RoundRect,0.200000X-0.200000X-0.300000X0.200000X-0.300000X0.200000X0.300000X-0.200000X0.300000X0*%
%ADD45RoundRect,0.200000X0.300000X-0.200000X0.300000X0.200000X-0.300000X0.200000X-0.300000X-0.200000X0*%
%ADD46RoundRect,0.375000X0.625000X0.375000X-0.625000X0.375000X-0.625000X-0.375000X0.625000X-0.375000X0*%
%ADD47RoundRect,0.400000X0.400000X1.000000X-0.400000X1.000000X-0.400000X-1.000000X0.400000X-1.000000X0*%
%ADD48RoundRect,0.150000X-0.150000X0.512500X-0.150000X-0.512500X0.150000X-0.512500X0.150000X0.512500X0*%
%ADD49R,0.600000X1.325000*%
%ADD50RoundRect,0.075000X-0.175000X-0.075000X0.175000X-0.075000X0.175000X0.075000X-0.175000X0.075000X0*%
%ADD51RoundRect,0.150000X0.150000X-0.350000X0.150000X0.350000X-0.150000X0.350000X-0.150000X-0.350000X0*%
%ADD52RoundRect,0.150000X-0.150000X-0.200000X0.150000X-0.200000X0.150000X0.200000X-0.150000X0.200000X0*%
%ADD53RoundRect,0.062500X0.123744X0.035355X0.035355X0.123744X-0.123744X-0.035355X-0.035355X-0.123744X0*%
%ADD54RoundRect,0.250000X-0.445000X0.457500X-0.445000X-0.457500X0.445000X-0.457500X0.445000X0.457500X0*%
%ADD55RoundRect,0.150000X0.150000X-0.512500X0.150000X0.512500X-0.150000X0.512500X-0.150000X-0.512500X0*%
%ADD56R,1.200000X0.400000*%
%ADD57RoundRect,0.150000X-0.035355X0.247487X-0.247487X0.035355X0.035355X-0.247487X0.247487X-0.035355X0*%
%ADD58RoundRect,0.250000X0.900000X-0.525000X0.900000X0.525000X-0.900000X0.525000X-0.900000X-0.525000X0*%
%ADD59RoundRect,0.249999X0.900001X-0.525001X0.900001X0.525001X-0.900001X0.525001X-0.900001X-0.525001X0*%
%ADD60R,0.400000X0.750000*%
%ADD61RoundRect,0.250000X-0.250000X-1.000000X0.250000X-1.000000X0.250000X1.000000X-0.250000X1.000000X0*%
%ADD62RoundRect,0.150000X-0.150000X-0.700000X0.150000X-0.700000X0.150000X0.700000X-0.150000X0.700000X0*%
%ADD63RoundRect,0.100000X-0.100000X0.155000X-0.100000X-0.155000X0.100000X-0.155000X0.100000X0.155000X0*%
%ADD64RoundRect,0.050000X-0.375000X-0.050000X0.375000X-0.050000X0.375000X0.050000X-0.375000X0.050000X0*%
%ADD65RoundRect,0.050000X-0.050000X-0.375000X0.050000X-0.375000X0.050000X0.375000X-0.050000X0.375000X0*%
%ADD66R,4.200000X4.200000*%
%ADD67R,1.700000X1.700000*%
%ADD68C,1.700000*%
%ADD69RoundRect,0.150000X0.200000X-0.150000X0.200000X0.150000X-0.200000X0.150000X-0.200000X-0.150000X0*%
%ADD70RoundRect,0.150000X0.035355X-0.247487X0.247487X-0.035355X-0.035355X0.247487X-0.247487X0.035355X0*%
%ADD71R,1.200000X1.400000*%
%ADD72RoundRect,0.250000X-0.335876X0.866206X-0.866206X0.335876X0.335876X-0.866206X0.866206X-0.335876X0*%
%ADD73C,0.450000*%
%ADD74C,0.400000*%
%ADD75C,0.280000*%
%ADD76C,0.348700*%
%ADD77C,0.250000*%
G04 APERTURE END LIST*
D10*
G36*
X163974000Y-108439125D02*
G01*
X163683802Y-108569331D01*
X163681813Y-108595563D01*
X163677024Y-108617467D01*
X163669551Y-108639050D01*
X163685488Y-108652496D01*
X163709017Y-108639385D01*
X163737269Y-108632653D01*
X163770872Y-108630172D01*
X163810454Y-108629818D01*
X163974000Y-108629818D01*
X163974000Y-108793583D01*
X163263546Y-108793583D01*
X163263546Y-108650811D01*
X163373602Y-108650811D01*
X163387890Y-108665905D01*
X163394493Y-108660671D01*
X163408370Y-108653695D01*
X163425410Y-108648345D01*
X163459990Y-108644069D01*
X163494355Y-108644069D01*
X163530418Y-108645710D01*
X163557517Y-108652666D01*
X163569370Y-108658909D01*
X163580744Y-108667590D01*
X163595838Y-108654144D01*
X163591528Y-108622863D01*
X163589231Y-108592480D01*
X163587568Y-108569332D01*
X163581587Y-108529837D01*
X163580094Y-108524682D01*
X163574497Y-108511406D01*
X163566794Y-108499313D01*
X163557039Y-108488449D01*
X163545530Y-108479178D01*
X163518391Y-108466266D01*
X163487651Y-108461803D01*
X163486744Y-108461806D01*
X163454705Y-108466331D01*
X163428179Y-108478841D01*
X163416899Y-108488019D01*
X163407117Y-108499050D01*
X163398711Y-108512261D01*
X163392066Y-108527309D01*
X163386364Y-108553073D01*
X163383927Y-108581606D01*
X163381382Y-108612116D01*
X163373602Y-108650811D01*
X163263546Y-108650811D01*
X163263546Y-108583619D01*
X163264040Y-108542536D01*
X163268760Y-108481073D01*
X163278978Y-108435769D01*
X163295456Y-108398789D01*
X163312449Y-108374414D01*
X163326337Y-108359298D01*
X163341668Y-108346046D01*
X163358552Y-108334586D01*
X163376789Y-108325084D01*
X163396774Y-108317425D01*
X163418049Y-108311877D01*
X163441259Y-108308401D01*
X163465706Y-108307234D01*
X163495690Y-108308931D01*
X163536863Y-108318159D01*
X163554438Y-108325472D01*
X163570169Y-108334474D01*
X163584164Y-108345161D01*
X163596284Y-108357366D01*
X163606806Y-108371412D01*
X163615340Y-108386852D01*
X163622136Y-108404363D01*
X163626759Y-108423152D01*
X163646067Y-108426522D01*
X163974000Y-108249275D01*
X163974000Y-108439125D01*
G37*
G36*
X163974000Y-107902731D02*
G01*
X163926555Y-107912806D01*
X163890945Y-107917862D01*
X163867982Y-107915519D01*
X163860463Y-107914492D01*
X163850388Y-107923724D01*
X163858140Y-107943458D01*
X163862121Y-107962481D01*
X163863797Y-107999342D01*
X163863797Y-108012787D01*
X163863756Y-108019291D01*
X163860693Y-108050412D01*
X163850388Y-108079136D01*
X163858778Y-108089211D01*
X163891787Y-108084998D01*
X163926555Y-108089211D01*
X163974000Y-108102656D01*
X163974000Y-108240409D01*
X163404230Y-108081664D01*
X163404230Y-107985053D01*
X163463031Y-107985053D01*
X163463031Y-108007731D01*
X163550028Y-108016743D01*
X163648858Y-108031403D01*
X163716914Y-108047992D01*
X163766381Y-108067375D01*
X163778984Y-108056458D01*
X163771945Y-108026622D01*
X163770594Y-107996814D01*
X163771965Y-107970441D01*
X163779826Y-107942225D01*
X163764696Y-107930465D01*
X163758714Y-107933893D01*
X163735076Y-107944743D01*
X163707667Y-107953752D01*
X163641468Y-107967384D01*
X163559972Y-107977060D01*
X163463031Y-107985053D01*
X163404230Y-107985053D01*
X163404230Y-107893499D01*
X163974000Y-107759080D01*
X163974000Y-107902731D01*
G37*
G36*
X163429985Y-107346004D02*
G01*
X163416755Y-107383202D01*
X163406774Y-107419539D01*
X163401011Y-107449984D01*
X163397828Y-107480493D01*
X163397196Y-107501379D01*
X163398351Y-107530915D01*
X163401752Y-107558378D01*
X163407131Y-107583111D01*
X163414455Y-107605800D01*
X163423368Y-107625892D01*
X163433952Y-107643976D01*
X163445832Y-107659681D01*
X163459150Y-107673401D01*
X163473629Y-107684968D01*
X163489354Y-107694537D01*
X163524275Y-107707567D01*
X163563886Y-107712219D01*
X163565027Y-107712222D01*
X163584760Y-107711049D01*
X163603622Y-107707526D01*
X163621073Y-107701866D01*
X163637705Y-107693991D01*
X163668554Y-107671539D01*
X163696961Y-107638979D01*
X163723159Y-107594206D01*
X163728426Y-107582859D01*
X163740075Y-107555838D01*
X163756655Y-107518377D01*
X163773828Y-107488930D01*
X163783598Y-107477890D01*
X163794669Y-107469668D01*
X163807425Y-107464536D01*
X163822251Y-107462764D01*
X163833155Y-107463919D01*
X163843383Y-107467314D01*
X163861179Y-107480560D01*
X163874025Y-107502094D01*
X163877975Y-107515843D01*
X163879906Y-107531332D01*
X163880064Y-107537503D01*
X163875488Y-107571939D01*
X163861880Y-107604528D01*
X163851885Y-107619368D01*
X163839893Y-107632915D01*
X163826216Y-107644781D01*
X163810776Y-107654969D01*
X163797119Y-107661810D01*
X163797119Y-107709694D01*
X163943078Y-107714750D01*
X163958726Y-107672816D01*
X163970843Y-107632045D01*
X163977813Y-107599643D01*
X163982052Y-107567502D01*
X163983378Y-107537503D01*
X163982226Y-107509220D01*
X163978846Y-107482525D01*
X163973380Y-107457578D01*
X163965937Y-107434361D01*
X163956703Y-107413092D01*
X163945748Y-107393679D01*
X163933321Y-107376362D01*
X163919430Y-107361010D01*
X163904372Y-107347837D01*
X163888100Y-107336723D01*
X163870912Y-107327822D01*
X163852745Y-107321073D01*
X163833839Y-107316568D01*
X163814172Y-107314317D01*
X163804666Y-107314057D01*
X163769029Y-107318601D01*
X163734797Y-107332175D01*
X163703294Y-107354619D01*
X163676293Y-107385361D01*
X163659732Y-107414038D01*
X163639075Y-107459478D01*
X163617679Y-107505873D01*
X163597594Y-107540417D01*
X163586955Y-107552890D01*
X163575341Y-107561975D01*
X163562314Y-107567530D01*
X163547442Y-107569413D01*
X163527358Y-107564905D01*
X163510600Y-107551786D01*
X163504078Y-107542163D01*
X163499232Y-107530756D01*
X163495491Y-107505592D01*
X163496659Y-107490034D01*
X163500143Y-107474927D01*
X163513962Y-107446349D01*
X163537395Y-107419880D01*
X163570889Y-107396379D01*
X163570889Y-107346004D01*
X163429985Y-107346004D01*
G37*
G36*
X163591390Y-106785972D02*
G01*
X163614626Y-106787768D01*
X163636483Y-106791733D01*
X163656873Y-106797754D01*
X163675803Y-106805743D01*
X163693347Y-106815683D01*
X163709320Y-106827425D01*
X163723898Y-106841107D01*
X163736759Y-106856449D01*
X163748086Y-106873744D01*
X163757518Y-106892559D01*
X163765158Y-106913275D01*
X163770707Y-106935352D01*
X163774157Y-106959146D01*
X163775320Y-106984110D01*
X163771534Y-107022415D01*
X163764943Y-107047370D01*
X163755097Y-107073136D01*
X163771107Y-107084054D01*
X163791572Y-107071917D01*
X163814256Y-107065685D01*
X163839783Y-107063389D01*
X163868780Y-107063061D01*
X163974000Y-107063061D01*
X163974000Y-107207555D01*
X163404230Y-107207555D01*
X163404230Y-107073136D01*
X163491608Y-107073136D01*
X163507618Y-107084054D01*
X163510230Y-107081785D01*
X163532512Y-107067836D01*
X163544803Y-107064244D01*
X163558139Y-107063061D01*
X163623755Y-107063061D01*
X163645616Y-107066660D01*
X163659888Y-107073509D01*
X163674277Y-107084054D01*
X163690287Y-107073979D01*
X163683290Y-107060076D01*
X163679029Y-107046347D01*
X163675107Y-107019590D01*
X163670906Y-106992499D01*
X163663809Y-106976252D01*
X163656153Y-106966107D01*
X163646545Y-106957366D01*
X163635137Y-106950211D01*
X163622142Y-106944871D01*
X163607966Y-106941579D01*
X163592614Y-106940439D01*
X163571015Y-106942145D01*
X163555956Y-106945785D01*
X163542781Y-106951257D01*
X163531432Y-106958443D01*
X163522030Y-106967130D01*
X163514397Y-106977464D01*
X163508871Y-106989004D01*
X163505379Y-107002077D01*
X163504211Y-107016020D01*
X163504196Y-107019312D01*
X163501137Y-107049959D01*
X163491608Y-107073136D01*
X163404230Y-107073136D01*
X163404230Y-107027780D01*
X163404290Y-107007749D01*
X163407065Y-106947370D01*
X163415142Y-106904501D01*
X163429436Y-106869877D01*
X163440838Y-106852294D01*
X163453298Y-106837500D01*
X163467341Y-106824461D01*
X163483080Y-106813102D01*
X163500261Y-106803644D01*
X163519147Y-106796021D01*
X163539338Y-106790481D01*
X163561186Y-106787032D01*
X163584188Y-106785870D01*
X163591390Y-106785972D01*
G37*
G36*
X163538454Y-106218107D02*
G01*
X163585071Y-106230292D01*
X163624832Y-106249791D01*
X163642300Y-106262182D01*
X163658156Y-106276289D01*
X163672520Y-106292257D01*
X163685167Y-106309889D01*
X163696304Y-106329615D01*
X163705570Y-106350986D01*
X163713134Y-106374711D01*
X163718629Y-106400081D01*
X163722095Y-106428005D01*
X163723260Y-106457571D01*
X163719043Y-106498065D01*
X163709563Y-106534811D01*
X163704832Y-106551653D01*
X163721611Y-106565099D01*
X163744009Y-106552815D01*
X163770026Y-106546295D01*
X163800138Y-106543718D01*
X163834818Y-106543263D01*
X163974000Y-106543263D01*
X163974000Y-106706186D01*
X163263546Y-106706186D01*
X163263546Y-106550811D01*
X163366897Y-106550811D01*
X163382834Y-106564256D01*
X163388946Y-106560387D01*
X163404803Y-106553579D01*
X163424266Y-106548352D01*
X163465852Y-106544069D01*
X163498532Y-106544069D01*
X163541713Y-106545523D01*
X163572928Y-106552046D01*
X163599172Y-106565941D01*
X163616794Y-106554181D01*
X163609561Y-106505913D01*
X163607309Y-106486380D01*
X163600015Y-106450830D01*
X163598458Y-106446274D01*
X163592577Y-106434378D01*
X163584434Y-106423461D01*
X163573816Y-106413402D01*
X163561101Y-106404748D01*
X163546275Y-106397614D01*
X163529628Y-106392293D01*
X163511466Y-106388993D01*
X163491827Y-106387852D01*
X163461944Y-106390784D01*
X163446006Y-106395290D01*
X163431820Y-106401670D01*
X163419027Y-106410040D01*
X163408059Y-106420072D01*
X163398424Y-106432314D01*
X163390798Y-106446036D01*
X163384849Y-106462108D01*
X163381149Y-106479406D01*
X163375918Y-106515414D01*
X163366897Y-106550811D01*
X163263546Y-106550811D01*
X163263546Y-106496222D01*
X163264094Y-106453222D01*
X163268933Y-106392194D01*
X163279194Y-106347418D01*
X163295493Y-106311391D01*
X163318688Y-106280553D01*
X163334006Y-106265787D01*
X163350977Y-106252730D01*
X163369766Y-106241308D01*
X163390053Y-106231779D01*
X163412019Y-106224131D01*
X163435313Y-106218566D01*
X163460070Y-106215135D01*
X163485966Y-106213975D01*
X163538454Y-106218107D01*
G37*
G36*
X163404230Y-106112822D02*
G01*
X163974000Y-106112822D01*
X163974000Y-105967522D01*
X163404230Y-105967522D01*
X163404230Y-106112822D01*
G37*
G36*
X163263546Y-105136132D02*
G01*
X163263546Y-105563679D01*
X163377815Y-105563679D01*
X163377815Y-105471282D01*
X163376644Y-105424344D01*
X163373134Y-105380205D01*
X163365212Y-105327667D01*
X163384519Y-105318398D01*
X163451133Y-105362762D01*
X163507767Y-105393037D01*
X163514749Y-105396380D01*
X163520294Y-105399035D01*
X163876583Y-105578809D01*
X163974000Y-105578809D01*
X163974000Y-105136974D01*
X163854748Y-105136974D01*
X163854748Y-105235270D01*
X163855889Y-105296934D01*
X163859190Y-105348947D01*
X163863980Y-105388117D01*
X163845516Y-105400720D01*
X163801872Y-105370075D01*
X163727319Y-105329839D01*
X163714760Y-105323454D01*
X163345868Y-105136132D01*
X163263546Y-105136132D01*
G37*
G36*
X163404230Y-105045713D02*
G01*
X163974000Y-105045713D01*
X163974000Y-104684514D01*
X163872370Y-104684514D01*
X163872370Y-104841575D01*
X163874472Y-104877488D01*
X163878753Y-104894733D01*
X163886658Y-104912136D01*
X163870685Y-104922211D01*
X163856352Y-104911711D01*
X163842118Y-104904869D01*
X163820053Y-104901219D01*
X163791367Y-104901219D01*
X163777902Y-104902402D01*
X163765320Y-104905994D01*
X163742540Y-104919955D01*
X163739929Y-104922211D01*
X163723919Y-104911294D01*
X163732355Y-104882289D01*
X163734811Y-104844427D01*
X163734837Y-104833185D01*
X163734837Y-104702979D01*
X163631522Y-104702979D01*
X163631522Y-104841575D01*
X163633624Y-104877172D01*
X163637906Y-104894614D01*
X163645810Y-104912136D01*
X163629837Y-104922211D01*
X163616758Y-104912304D01*
X163602933Y-104905407D01*
X163579242Y-104901219D01*
X163559055Y-104901219D01*
X163545698Y-104902402D01*
X163533392Y-104905994D01*
X163511079Y-104919941D01*
X163508460Y-104922211D01*
X163492450Y-104911294D01*
X163500886Y-104882289D01*
X163503342Y-104844427D01*
X163503368Y-104833185D01*
X163503368Y-104694589D01*
X163404230Y-104694589D01*
X163404230Y-105045713D01*
G37*
G36*
X163974000Y-104288291D02*
G01*
X163737182Y-104398311D01*
X163737182Y-104408386D01*
X163736783Y-104417672D01*
X163733569Y-104435297D01*
X163727107Y-104452899D01*
X163743080Y-104463816D01*
X163763505Y-104451680D01*
X163786128Y-104445448D01*
X163811581Y-104443152D01*
X163840496Y-104442824D01*
X163974000Y-104442824D01*
X163974000Y-104587318D01*
X163404230Y-104587318D01*
X163404230Y-104462168D01*
X163495821Y-104462168D01*
X163511794Y-104473085D01*
X163514441Y-104470797D01*
X163536835Y-104456836D01*
X163549183Y-104453240D01*
X163562572Y-104452056D01*
X163606573Y-104452056D01*
X163629916Y-104456280D01*
X163643599Y-104463038D01*
X163657351Y-104473085D01*
X163673361Y-104462974D01*
X163666413Y-104449541D01*
X163662887Y-104435763D01*
X163661565Y-104403758D01*
X163661601Y-104394940D01*
X163661216Y-104382843D01*
X163655657Y-104354038D01*
X163650312Y-104342393D01*
X163642989Y-104331962D01*
X163636428Y-104325312D01*
X163626763Y-104318682D01*
X163615100Y-104313624D01*
X163601592Y-104310413D01*
X163586276Y-104309284D01*
X163580140Y-104309436D01*
X163564844Y-104311344D01*
X163551825Y-104315215D01*
X163540114Y-104321290D01*
X163530673Y-104328976D01*
X163521976Y-104339938D01*
X163515943Y-104352103D01*
X163511392Y-104369165D01*
X163510072Y-104385708D01*
X163510072Y-104395783D01*
X163507568Y-104427223D01*
X163502993Y-104445059D01*
X163495821Y-104462168D01*
X163404230Y-104462168D01*
X163404230Y-104407543D01*
X163404321Y-104387800D01*
X163407517Y-104323393D01*
X163415750Y-104279887D01*
X163429436Y-104247112D01*
X163433844Y-104239798D01*
X163457155Y-104211446D01*
X163470837Y-104200184D01*
X163485863Y-104190858D01*
X163502668Y-104183314D01*
X163520847Y-104177843D01*
X163541397Y-104174349D01*
X163563415Y-104173180D01*
X163576516Y-104173505D01*
X163616934Y-104179627D01*
X163647628Y-104192338D01*
X163670259Y-104210922D01*
X163678939Y-104222612D01*
X163685688Y-104235761D01*
X163690695Y-104251167D01*
X163693511Y-104268105D01*
X163710327Y-104270633D01*
X163974000Y-104122805D01*
X163974000Y-104288291D01*
G37*
G36*
X163714637Y-103620648D02*
G01*
X163782964Y-103627270D01*
X163838191Y-103640684D01*
X163882526Y-103659899D01*
X163917796Y-103684482D01*
X163945304Y-103714630D01*
X163956446Y-103732168D01*
X163965665Y-103751185D01*
X163973221Y-103772563D01*
X163978690Y-103795540D01*
X163982206Y-103821624D01*
X163983378Y-103849497D01*
X163983198Y-103860693D01*
X163977365Y-103910334D01*
X163963970Y-103952105D01*
X163943314Y-103987452D01*
X163930051Y-104003132D01*
X163914895Y-104017339D01*
X163897181Y-104030512D01*
X163877435Y-104042100D01*
X163854352Y-104052625D01*
X163829000Y-104061377D01*
X163799372Y-104068778D01*
X163767148Y-104074152D01*
X163729595Y-104077669D01*
X163689041Y-104078841D01*
X163665640Y-104078445D01*
X163597804Y-104071963D01*
X163542716Y-104058598D01*
X163498339Y-104039355D01*
X163462961Y-104014698D01*
X163435348Y-103984478D01*
X163424171Y-103966936D01*
X163414922Y-103947929D01*
X163407356Y-103926631D01*
X163401879Y-103903765D01*
X163398367Y-103877918D01*
X163397196Y-103850339D01*
X163397223Y-103848654D01*
X163498862Y-103848654D01*
X163501295Y-103868738D01*
X163505295Y-103879269D01*
X163511232Y-103888402D01*
X163520145Y-103897034D01*
X163531521Y-103904179D01*
X163549439Y-103911272D01*
X163571397Y-103916463D01*
X163623633Y-103921972D01*
X163690727Y-103923429D01*
X163751515Y-103922243D01*
X163808944Y-103916544D01*
X163843361Y-103907058D01*
X163864460Y-103894148D01*
X163871724Y-103886013D01*
X163876994Y-103876577D01*
X163880568Y-103864387D01*
X163881749Y-103850339D01*
X163878796Y-103828346D01*
X163874511Y-103818113D01*
X163868269Y-103809232D01*
X163858918Y-103800803D01*
X163846986Y-103793831D01*
X163828144Y-103786928D01*
X163804929Y-103781904D01*
X163754784Y-103776975D01*
X163690727Y-103775601D01*
X163629142Y-103776821D01*
X163571751Y-103782569D01*
X163537288Y-103792099D01*
X163516151Y-103805037D01*
X163508884Y-103813165D01*
X163503609Y-103822586D01*
X163500041Y-103834704D01*
X163498862Y-103848654D01*
X163397223Y-103848654D01*
X163397376Y-103839180D01*
X163403238Y-103789561D01*
X163416712Y-103747631D01*
X163437482Y-103712055D01*
X163450796Y-103696265D01*
X163465999Y-103681948D01*
X163483713Y-103668691D01*
X163503442Y-103657023D01*
X163526400Y-103646453D01*
X163551585Y-103637658D01*
X163580848Y-103630250D01*
X163612627Y-103624867D01*
X163649401Y-103621360D01*
X163689041Y-103620189D01*
X163714637Y-103620648D01*
G37*
G36*
X163538454Y-102757869D02*
G01*
X163585071Y-102770054D01*
X163624832Y-102789554D01*
X163642300Y-102801945D01*
X163658156Y-102816052D01*
X163672520Y-102832020D01*
X163685167Y-102849651D01*
X163696304Y-102869377D01*
X163705570Y-102890749D01*
X163713134Y-102914474D01*
X163718629Y-102939844D01*
X163722095Y-102967768D01*
X163723260Y-102997334D01*
X163719043Y-103037828D01*
X163709563Y-103074573D01*
X163704832Y-103091416D01*
X163721611Y-103104861D01*
X163744009Y-103092578D01*
X163770026Y-103086058D01*
X163800138Y-103083481D01*
X163834818Y-103083026D01*
X163974000Y-103083026D01*
X163974000Y-103245948D01*
X163263546Y-103245948D01*
X163263546Y-103090573D01*
X163366897Y-103090573D01*
X163382834Y-103104019D01*
X163388946Y-103100149D01*
X163404803Y-103093342D01*
X163424266Y-103088115D01*
X163465852Y-103083832D01*
X163498532Y-103083832D01*
X163541713Y-103085286D01*
X163572928Y-103091809D01*
X163599172Y-103105704D01*
X163616794Y-103093944D01*
X163609561Y-103045676D01*
X163607309Y-103026142D01*
X163600015Y-102990592D01*
X163598458Y-102986036D01*
X163592577Y-102974141D01*
X163584434Y-102963224D01*
X163573816Y-102953165D01*
X163561101Y-102944511D01*
X163546275Y-102937377D01*
X163529628Y-102932056D01*
X163511466Y-102928756D01*
X163491827Y-102927614D01*
X163461944Y-102930547D01*
X163446006Y-102935053D01*
X163431820Y-102941433D01*
X163419027Y-102949803D01*
X163408059Y-102959834D01*
X163398424Y-102972077D01*
X163390798Y-102985798D01*
X163384849Y-103001871D01*
X163381149Y-103019169D01*
X163375918Y-103055177D01*
X163366897Y-103090573D01*
X163263546Y-103090573D01*
X163263546Y-103035985D01*
X163264094Y-102992985D01*
X163268933Y-102931957D01*
X163279194Y-102887181D01*
X163295493Y-102851154D01*
X163318688Y-102820316D01*
X163334006Y-102805549D01*
X163350977Y-102792492D01*
X163369766Y-102781071D01*
X163390053Y-102771542D01*
X163412019Y-102763893D01*
X163435313Y-102758329D01*
X163460070Y-102754898D01*
X163485966Y-102753738D01*
X163538454Y-102757869D01*
G37*
G36*
X163974000Y-102389682D02*
G01*
X163926555Y-102399757D01*
X163890945Y-102404813D01*
X163867982Y-102402469D01*
X163860463Y-102401442D01*
X163850388Y-102410674D01*
X163858140Y-102430408D01*
X163862121Y-102449431D01*
X163863797Y-102486292D01*
X163863797Y-102499738D01*
X163863756Y-102506242D01*
X163860693Y-102537362D01*
X163850388Y-102566086D01*
X163858778Y-102576161D01*
X163891787Y-102571948D01*
X163926555Y-102576161D01*
X163974000Y-102589607D01*
X163974000Y-102727360D01*
X163404230Y-102568614D01*
X163404230Y-102472004D01*
X163463031Y-102472004D01*
X163463031Y-102494682D01*
X163550028Y-102503693D01*
X163648858Y-102518353D01*
X163716914Y-102534943D01*
X163766381Y-102554326D01*
X163778984Y-102543408D01*
X163771945Y-102513572D01*
X163770594Y-102483764D01*
X163771965Y-102457391D01*
X163779826Y-102429176D01*
X163764696Y-102417416D01*
X163758714Y-102420844D01*
X163735076Y-102431694D01*
X163707667Y-102440703D01*
X163641468Y-102454334D01*
X163559972Y-102464010D01*
X163463031Y-102472004D01*
X163404230Y-102472004D01*
X163404230Y-102380449D01*
X163974000Y-102246030D01*
X163974000Y-102389682D01*
G37*
G36*
X163404230Y-102179865D02*
G01*
X163974000Y-102179865D01*
X163974000Y-102057206D01*
X163799134Y-102057206D01*
X163689267Y-102061822D01*
X163550983Y-102077219D01*
X163520990Y-102081569D01*
X163520990Y-102045446D01*
X163583505Y-102040740D01*
X163649093Y-102026247D01*
X163718930Y-102001017D01*
X163765428Y-101979097D01*
X163974000Y-101872412D01*
X163974000Y-101730446D01*
X163404230Y-101730446D01*
X163404230Y-101853105D01*
X163565687Y-101853105D01*
X163676429Y-101848480D01*
X163813547Y-101833172D01*
X163843830Y-101828741D01*
X163843830Y-101865708D01*
X163781614Y-101870139D01*
X163720802Y-101883297D01*
X163656019Y-101906188D01*
X163600235Y-101931214D01*
X163404230Y-102025296D01*
X163404230Y-102179865D01*
G37*
G36*
X163974000Y-101327518D02*
G01*
X163926555Y-101337593D01*
X163890945Y-101342649D01*
X163867982Y-101340306D01*
X163860463Y-101339279D01*
X163850388Y-101348511D01*
X163858140Y-101368245D01*
X163862121Y-101387268D01*
X163863797Y-101424129D01*
X163863797Y-101437574D01*
X163863756Y-101444078D01*
X163860693Y-101475199D01*
X163850388Y-101503923D01*
X163858778Y-101513998D01*
X163891787Y-101509785D01*
X163926555Y-101513998D01*
X163974000Y-101527443D01*
X163974000Y-101665196D01*
X163404230Y-101506451D01*
X163404230Y-101409841D01*
X163463031Y-101409841D01*
X163463031Y-101432518D01*
X163550028Y-101441530D01*
X163648858Y-101456190D01*
X163716914Y-101472780D01*
X163766381Y-101492163D01*
X163778984Y-101481245D01*
X163771945Y-101451409D01*
X163770594Y-101421601D01*
X163771965Y-101395228D01*
X163779826Y-101367013D01*
X163764696Y-101355252D01*
X163758714Y-101358680D01*
X163735076Y-101369530D01*
X163707667Y-101378539D01*
X163641468Y-101392171D01*
X163559972Y-101401847D01*
X163463031Y-101409841D01*
X163404230Y-101409841D01*
X163404230Y-101318286D01*
X163974000Y-101183867D01*
X163974000Y-101327518D01*
G37*
G36*
X163735945Y-100680919D02*
G01*
X163796963Y-100691173D01*
X163847237Y-100708037D01*
X163887489Y-100730352D01*
X163918569Y-100757346D01*
X163927658Y-100767943D01*
X163940057Y-100785511D01*
X163950069Y-100803949D01*
X163958921Y-100826252D01*
X163965334Y-100849943D01*
X163972330Y-100902117D01*
X163974000Y-100961447D01*
X163974000Y-101117702D01*
X163404230Y-101117702D01*
X163404230Y-100984125D01*
X163494978Y-100984125D01*
X163510915Y-100995043D01*
X163527202Y-100983262D01*
X163543883Y-100976990D01*
X163561987Y-100974497D01*
X163582539Y-100974050D01*
X163795727Y-100974050D01*
X163821307Y-100974871D01*
X163845874Y-100980501D01*
X163857096Y-100986381D01*
X163868193Y-100995043D01*
X163884130Y-100986653D01*
X163873174Y-100955445D01*
X163869627Y-100929392D01*
X163865592Y-100902646D01*
X163862519Y-100893219D01*
X163849496Y-100871091D01*
X163829371Y-100853868D01*
X163816387Y-100847324D01*
X163801103Y-100842322D01*
X163783278Y-100839111D01*
X163762827Y-100837983D01*
X163635662Y-100835455D01*
X163621624Y-100835763D01*
X163598292Y-100837892D01*
X163578424Y-100841845D01*
X163561663Y-100847419D01*
X163547849Y-100854356D01*
X163535902Y-100863120D01*
X163526728Y-100872894D01*
X163518538Y-100886250D01*
X163513516Y-100900118D01*
X163509482Y-100926864D01*
X163505903Y-100953061D01*
X163494978Y-100984125D01*
X163404230Y-100984125D01*
X163404230Y-100965660D01*
X163407057Y-100899775D01*
X163415912Y-100848123D01*
X163430879Y-100806909D01*
X163453066Y-100771634D01*
X163479949Y-100743420D01*
X163498146Y-100729127D01*
X163518116Y-100716509D01*
X163540362Y-100705365D01*
X163564363Y-100696076D01*
X163590803Y-100688511D01*
X163618981Y-100683008D01*
X163649676Y-100679557D01*
X163682080Y-100678394D01*
X163735945Y-100680919D01*
G37*
G36*
X163974000Y-100298768D02*
G01*
X163926555Y-100308843D01*
X163890945Y-100313898D01*
X163867982Y-100311555D01*
X163860463Y-100310528D01*
X163850388Y-100319760D01*
X163858140Y-100339494D01*
X163862121Y-100358517D01*
X163863797Y-100395378D01*
X163863797Y-100408823D01*
X163863756Y-100415328D01*
X163860693Y-100446448D01*
X163850388Y-100475172D01*
X163858778Y-100485247D01*
X163891787Y-100481034D01*
X163926555Y-100485247D01*
X163974000Y-100498693D01*
X163974000Y-100636446D01*
X163404230Y-100477700D01*
X163404230Y-100381090D01*
X163463031Y-100381090D01*
X163463031Y-100403768D01*
X163550028Y-100412779D01*
X163648858Y-100427439D01*
X163716914Y-100444029D01*
X163766381Y-100463412D01*
X163778984Y-100452494D01*
X163771945Y-100422658D01*
X163770594Y-100392850D01*
X163771965Y-100366477D01*
X163779826Y-100338262D01*
X163764696Y-100326501D01*
X163758714Y-100329930D01*
X163735076Y-100340779D01*
X163707667Y-100349788D01*
X163641468Y-100363420D01*
X163559972Y-100373096D01*
X163463031Y-100381090D01*
X163404230Y-100381090D01*
X163404230Y-100289535D01*
X163974000Y-100155116D01*
X163974000Y-100298768D01*
G37*
G36*
X163591390Y-99667367D02*
G01*
X163614626Y-99669164D01*
X163636483Y-99673128D01*
X163656873Y-99679149D01*
X163675803Y-99687139D01*
X163693347Y-99697078D01*
X163709320Y-99708821D01*
X163723898Y-99722503D01*
X163736759Y-99737844D01*
X163748086Y-99755140D01*
X163757518Y-99773955D01*
X163765158Y-99794671D01*
X163770707Y-99816748D01*
X163774157Y-99840542D01*
X163775320Y-99865505D01*
X163771534Y-99903811D01*
X163764943Y-99928765D01*
X163755097Y-99954532D01*
X163771107Y-99965449D01*
X163791572Y-99953313D01*
X163814256Y-99947081D01*
X163839783Y-99944785D01*
X163868780Y-99944457D01*
X163974000Y-99944457D01*
X163974000Y-100088951D01*
X163404230Y-100088951D01*
X163404230Y-99954532D01*
X163491608Y-99954532D01*
X163507618Y-99965449D01*
X163510230Y-99963181D01*
X163532512Y-99949232D01*
X163544803Y-99945640D01*
X163558139Y-99944457D01*
X163623755Y-99944457D01*
X163645616Y-99948055D01*
X163659888Y-99954904D01*
X163674277Y-99965449D01*
X163690287Y-99955374D01*
X163683290Y-99941472D01*
X163679029Y-99927743D01*
X163675107Y-99900986D01*
X163670906Y-99873895D01*
X163663809Y-99857648D01*
X163656153Y-99847503D01*
X163646545Y-99838761D01*
X163635137Y-99831607D01*
X163622142Y-99826267D01*
X163607966Y-99822975D01*
X163592614Y-99821835D01*
X163571015Y-99823541D01*
X163555956Y-99827181D01*
X163542781Y-99832653D01*
X163531432Y-99839839D01*
X163522030Y-99848526D01*
X163514397Y-99858860D01*
X163508871Y-99870400D01*
X163505379Y-99883472D01*
X163504211Y-99897416D01*
X163504196Y-99900708D01*
X163501137Y-99931355D01*
X163491608Y-99954532D01*
X163404230Y-99954532D01*
X163404230Y-99909176D01*
X163404290Y-99889145D01*
X163407065Y-99828765D01*
X163415142Y-99785896D01*
X163429436Y-99751273D01*
X163440838Y-99733690D01*
X163453298Y-99718896D01*
X163467341Y-99705857D01*
X163483080Y-99694497D01*
X163500261Y-99685040D01*
X163519147Y-99677417D01*
X163539338Y-99671877D01*
X163561186Y-99668428D01*
X163584188Y-99667266D01*
X163591390Y-99667367D01*
G37*
G36*
X163404230Y-99633816D02*
G01*
X163512600Y-99633816D01*
X163512600Y-99564097D01*
X163511025Y-99522286D01*
X163507283Y-99502881D01*
X163499997Y-99484267D01*
X163516814Y-99474192D01*
X163538629Y-99486687D01*
X163571743Y-99494539D01*
X163597633Y-99496027D01*
X163974000Y-99496027D01*
X163974000Y-99352412D01*
X163597633Y-99352412D01*
X163571780Y-99353597D01*
X163550122Y-99357201D01*
X163535116Y-99362108D01*
X163522754Y-99368791D01*
X163516850Y-99373405D01*
X163499997Y-99363330D01*
X163509562Y-99331995D01*
X163512548Y-99294113D01*
X163512600Y-99284378D01*
X163512600Y-99212974D01*
X163404230Y-99212974D01*
X163404230Y-99633816D01*
G37*
G36*
X163404230Y-99141093D02*
G01*
X163974000Y-99141093D01*
X163974000Y-98779895D01*
X163872370Y-98779895D01*
X163872370Y-98936955D01*
X163874472Y-98972868D01*
X163878753Y-98990113D01*
X163886658Y-99007517D01*
X163870685Y-99017592D01*
X163856352Y-99007091D01*
X163842118Y-99000249D01*
X163820053Y-98996599D01*
X163791367Y-98996599D01*
X163777902Y-98997782D01*
X163765320Y-99001374D01*
X163742540Y-99015335D01*
X163739929Y-99017592D01*
X163723919Y-99006674D01*
X163732355Y-98977669D01*
X163734811Y-98939808D01*
X163734837Y-98928565D01*
X163734837Y-98798359D01*
X163631522Y-98798359D01*
X163631522Y-98936955D01*
X163633624Y-98972552D01*
X163637906Y-98989995D01*
X163645810Y-99007517D01*
X163629837Y-99017592D01*
X163616758Y-99007684D01*
X163602933Y-99000787D01*
X163579242Y-98996599D01*
X163559055Y-98996599D01*
X163545698Y-98997782D01*
X163533392Y-99001374D01*
X163511079Y-99015322D01*
X163508460Y-99017592D01*
X163492450Y-99006674D01*
X163500886Y-98977669D01*
X163503342Y-98939808D01*
X163503368Y-98928565D01*
X163503368Y-98789970D01*
X163404230Y-98789970D01*
X163404230Y-99141093D01*
G37*
G36*
X163974000Y-98383672D02*
G01*
X163737182Y-98493691D01*
X163737182Y-98503766D01*
X163736783Y-98513053D01*
X163733569Y-98530677D01*
X163727107Y-98548279D01*
X163743080Y-98559197D01*
X163763505Y-98547060D01*
X163786128Y-98540828D01*
X163811581Y-98538532D01*
X163840496Y-98538204D01*
X163974000Y-98538204D01*
X163974000Y-98682698D01*
X163404230Y-98682698D01*
X163404230Y-98557548D01*
X163495821Y-98557548D01*
X163511794Y-98568466D01*
X163514441Y-98566177D01*
X163536835Y-98552216D01*
X163549183Y-98548620D01*
X163562572Y-98547436D01*
X163606573Y-98547436D01*
X163629916Y-98551661D01*
X163643599Y-98558419D01*
X163657351Y-98568466D01*
X163673361Y-98558354D01*
X163666413Y-98544921D01*
X163662887Y-98531143D01*
X163661565Y-98499138D01*
X163661601Y-98490320D01*
X163661216Y-98478223D01*
X163655657Y-98449419D01*
X163650312Y-98437774D01*
X163642989Y-98427342D01*
X163636428Y-98420692D01*
X163626763Y-98414062D01*
X163615100Y-98409004D01*
X163601592Y-98405793D01*
X163586276Y-98404664D01*
X163580140Y-98404816D01*
X163564844Y-98406724D01*
X163551825Y-98410596D01*
X163540114Y-98416671D01*
X163530673Y-98424356D01*
X163521976Y-98435319D01*
X163515943Y-98447483D01*
X163511392Y-98464546D01*
X163510072Y-98481088D01*
X163510072Y-98491163D01*
X163507568Y-98522603D01*
X163502993Y-98540439D01*
X163495821Y-98557548D01*
X163404230Y-98557548D01*
X163404230Y-98502923D01*
X163404321Y-98483180D01*
X163407517Y-98418773D01*
X163415750Y-98375267D01*
X163429436Y-98342492D01*
X163433844Y-98335178D01*
X163457155Y-98306826D01*
X163470837Y-98295564D01*
X163485863Y-98286238D01*
X163502668Y-98278694D01*
X163520847Y-98273223D01*
X163541397Y-98269729D01*
X163563415Y-98268560D01*
X163576516Y-98268886D01*
X163616934Y-98275007D01*
X163647628Y-98287718D01*
X163670259Y-98306302D01*
X163678939Y-98317993D01*
X163685688Y-98331141D01*
X163690695Y-98346547D01*
X163693511Y-98363485D01*
X163710327Y-98366013D01*
X163974000Y-98218185D01*
X163974000Y-98383672D01*
G37*
G36*
X163291316Y-97464537D02*
G01*
X163276706Y-97504344D01*
X163265274Y-97543400D01*
X163258148Y-97576610D01*
X163253631Y-97609802D01*
X163251822Y-97647646D01*
X163252980Y-97678795D01*
X163256399Y-97707968D01*
X163261826Y-97734474D01*
X163269243Y-97759034D01*
X163278321Y-97781088D01*
X163289144Y-97801226D01*
X163301376Y-97819077D01*
X163315147Y-97835030D01*
X163330213Y-97848913D01*
X163346651Y-97860882D01*
X163383419Y-97878981D01*
X163425473Y-97889148D01*
X163457426Y-97891241D01*
X163480204Y-97890069D01*
X163502055Y-97886548D01*
X163522362Y-97880889D01*
X163541809Y-97873016D01*
X163577970Y-97850756D01*
X163611443Y-97818958D01*
X163642700Y-97776008D01*
X163662773Y-97739200D01*
X163679026Y-97703186D01*
X163698091Y-97661656D01*
X163708451Y-97643005D01*
X163719971Y-97626502D01*
X163733111Y-97612701D01*
X163748328Y-97602158D01*
X163766080Y-97595425D01*
X163786824Y-97593058D01*
X163812164Y-97597592D01*
X163834346Y-97610816D01*
X163851814Y-97632165D01*
X163858221Y-97645655D01*
X163862754Y-97660788D01*
X163865629Y-97687946D01*
X163861022Y-97724144D01*
X163847153Y-97759487D01*
X163836768Y-97776296D01*
X163824213Y-97792130D01*
X163809550Y-97806807D01*
X163792852Y-97820132D01*
X163760006Y-97839144D01*
X163760006Y-97887871D01*
X163937033Y-97893769D01*
X163954053Y-97850593D01*
X163967633Y-97808674D01*
X163976308Y-97773822D01*
X163982239Y-97739388D01*
X163985723Y-97687140D01*
X163984569Y-97657512D01*
X163981182Y-97629389D01*
X163975675Y-97602834D01*
X163968159Y-97577901D01*
X163958752Y-97554666D01*
X163947562Y-97533168D01*
X163934716Y-97513489D01*
X163920312Y-97495662D01*
X163904488Y-97479769D01*
X163887332Y-97465838D01*
X163868988Y-97453948D01*
X163849535Y-97444129D01*
X163829116Y-97436450D01*
X163807811Y-97430953D01*
X163765025Y-97426728D01*
X163723752Y-97431102D01*
X163685069Y-97443906D01*
X163649322Y-97464776D01*
X163617789Y-97492935D01*
X163593249Y-97525787D01*
X163588181Y-97535099D01*
X163563308Y-97586567D01*
X163534936Y-97644415D01*
X163506962Y-97690075D01*
X163491961Y-97707240D01*
X163475663Y-97720042D01*
X163457602Y-97728045D01*
X163437312Y-97730811D01*
X163425013Y-97729657D01*
X163413403Y-97726275D01*
X163392717Y-97713062D01*
X163376840Y-97691713D01*
X163371279Y-97678201D01*
X163367641Y-97663037D01*
X163366091Y-97643433D01*
X163370772Y-97613345D01*
X163385266Y-97582483D01*
X163396373Y-97567312D01*
X163409993Y-97552763D01*
X163426173Y-97539003D01*
X163444866Y-97526292D01*
X163460796Y-97517440D01*
X163460796Y-97464537D01*
X163291316Y-97464537D01*
G37*
G36*
X163404230Y-97322168D02*
G01*
X163974000Y-97322168D01*
X163974000Y-97176831D01*
X163816353Y-97176831D01*
X163795498Y-97177252D01*
X163778324Y-97179565D01*
X163763184Y-97185347D01*
X163748429Y-97196175D01*
X163732492Y-97184415D01*
X163740065Y-97148960D01*
X163741871Y-97108797D01*
X163739380Y-97066812D01*
X163732492Y-97030688D01*
X163748429Y-97018085D01*
X163760662Y-97026755D01*
X163772607Y-97032494D01*
X163797764Y-97037672D01*
X163821409Y-97038235D01*
X163974000Y-97038235D01*
X163974000Y-96892935D01*
X163404230Y-96892935D01*
X163404230Y-97038235D01*
X163559055Y-97038235D01*
X163579000Y-97037921D01*
X163597437Y-97035717D01*
X163615083Y-97029735D01*
X163632658Y-97018085D01*
X163648668Y-97030688D01*
X163641285Y-97064602D01*
X163639399Y-97108797D01*
X163641042Y-97147735D01*
X163647852Y-97181983D01*
X163648668Y-97184415D01*
X163632658Y-97196175D01*
X163621043Y-97187900D01*
X163609411Y-97182398D01*
X163583862Y-97177390D01*
X163561583Y-97176831D01*
X163404230Y-97176831D01*
X163404230Y-97322168D01*
G37*
G36*
X163404230Y-96752068D02*
G01*
X163974000Y-96752068D01*
X163974000Y-96606768D01*
X163404230Y-96606768D01*
X163404230Y-96752068D01*
G37*
G36*
X163404230Y-96465755D02*
G01*
X163974000Y-96465755D01*
X163974000Y-96104556D01*
X163872370Y-96104556D01*
X163872370Y-96261617D01*
X163874472Y-96297529D01*
X163878753Y-96314775D01*
X163886658Y-96332178D01*
X163870685Y-96342253D01*
X163856352Y-96331752D01*
X163842118Y-96324911D01*
X163820053Y-96321261D01*
X163791367Y-96321261D01*
X163777902Y-96322444D01*
X163765320Y-96326036D01*
X163742540Y-96339997D01*
X163739929Y-96342253D01*
X163723919Y-96331336D01*
X163732355Y-96302331D01*
X163734811Y-96264469D01*
X163734837Y-96253227D01*
X163734837Y-96123021D01*
X163631522Y-96123021D01*
X163631522Y-96261617D01*
X163633624Y-96297213D01*
X163637906Y-96314656D01*
X163645810Y-96332178D01*
X163629837Y-96342253D01*
X163616758Y-96332346D01*
X163602933Y-96325449D01*
X163579242Y-96321261D01*
X163559055Y-96321261D01*
X163545698Y-96322444D01*
X163533392Y-96326036D01*
X163511079Y-96339983D01*
X163508460Y-96342253D01*
X163492450Y-96331336D01*
X163500886Y-96302331D01*
X163503342Y-96264469D01*
X163503368Y-96253227D01*
X163503368Y-96114631D01*
X163404230Y-96114631D01*
X163404230Y-96465755D01*
G37*
G36*
X163404230Y-96007360D02*
G01*
X163974000Y-96007360D01*
X163974000Y-95666311D01*
X163872370Y-95666311D01*
X163872370Y-95789776D01*
X163874472Y-95837454D01*
X163878753Y-95856170D01*
X163886658Y-95873783D01*
X163870685Y-95883858D01*
X163867866Y-95881376D01*
X163859244Y-95874301D01*
X163848010Y-95868402D01*
X163830996Y-95864364D01*
X163805032Y-95862866D01*
X163404230Y-95862866D01*
X163404230Y-96007360D01*
G37*
G36*
X163735945Y-95156146D02*
G01*
X163796963Y-95166400D01*
X163847237Y-95183264D01*
X163887489Y-95205579D01*
X163918569Y-95232573D01*
X163927658Y-95243170D01*
X163940057Y-95260738D01*
X163950069Y-95279176D01*
X163958921Y-95301479D01*
X163965334Y-95325169D01*
X163972330Y-95377344D01*
X163974000Y-95436674D01*
X163974000Y-95592928D01*
X163404230Y-95592928D01*
X163404230Y-95459352D01*
X163494978Y-95459352D01*
X163510915Y-95470270D01*
X163527202Y-95458489D01*
X163543883Y-95452217D01*
X163561987Y-95449724D01*
X163582539Y-95449277D01*
X163795727Y-95449277D01*
X163821307Y-95450098D01*
X163845874Y-95455727D01*
X163857096Y-95461608D01*
X163868193Y-95470270D01*
X163884130Y-95461880D01*
X163873174Y-95430672D01*
X163869627Y-95404619D01*
X163865592Y-95377873D01*
X163862519Y-95368446D01*
X163849496Y-95346318D01*
X163829371Y-95329095D01*
X163816387Y-95322550D01*
X163801103Y-95317549D01*
X163783278Y-95314338D01*
X163762827Y-95313209D01*
X163635662Y-95310681D01*
X163621624Y-95310990D01*
X163598292Y-95313119D01*
X163578424Y-95317072D01*
X163561663Y-95322646D01*
X163547849Y-95329583D01*
X163535902Y-95338347D01*
X163526728Y-95348121D01*
X163518538Y-95361476D01*
X163513516Y-95375345D01*
X163509482Y-95402091D01*
X163505903Y-95428288D01*
X163494978Y-95459352D01*
X163404230Y-95459352D01*
X163404230Y-95440887D01*
X163407057Y-95375002D01*
X163415912Y-95323350D01*
X163430879Y-95282135D01*
X163453066Y-95246861D01*
X163479949Y-95218647D01*
X163498146Y-95204353D01*
X163518116Y-95191736D01*
X163540362Y-95180592D01*
X163564363Y-95171303D01*
X163590803Y-95163738D01*
X163618981Y-95158235D01*
X163649676Y-95154784D01*
X163682080Y-95153621D01*
X163735945Y-95156146D01*
G37*
G36*
X163974000Y-94424666D02*
G01*
X163683802Y-94554872D01*
X163681813Y-94581104D01*
X163677024Y-94603008D01*
X163669551Y-94624591D01*
X163685488Y-94638037D01*
X163709017Y-94624926D01*
X163737269Y-94618193D01*
X163770872Y-94615713D01*
X163810454Y-94615359D01*
X163974000Y-94615359D01*
X163974000Y-94779123D01*
X163263546Y-94779123D01*
X163263546Y-94636351D01*
X163373602Y-94636351D01*
X163387890Y-94651446D01*
X163394493Y-94646212D01*
X163408370Y-94639235D01*
X163425410Y-94633886D01*
X163459990Y-94629610D01*
X163494355Y-94629610D01*
X163530418Y-94631251D01*
X163557517Y-94638207D01*
X163569370Y-94644450D01*
X163580744Y-94653131D01*
X163595838Y-94639685D01*
X163591528Y-94608403D01*
X163589231Y-94578021D01*
X163587568Y-94554873D01*
X163581587Y-94515378D01*
X163580094Y-94510223D01*
X163574497Y-94496947D01*
X163566794Y-94484854D01*
X163557039Y-94473990D01*
X163545530Y-94464718D01*
X163518391Y-94451807D01*
X163487651Y-94447344D01*
X163486744Y-94447347D01*
X163454705Y-94451872D01*
X163428179Y-94464382D01*
X163416899Y-94473559D01*
X163407117Y-94484591D01*
X163398711Y-94497802D01*
X163392066Y-94512850D01*
X163386364Y-94538613D01*
X163383927Y-94567147D01*
X163381382Y-94597656D01*
X163373602Y-94636351D01*
X163263546Y-94636351D01*
X163263546Y-94569160D01*
X163264040Y-94528076D01*
X163268760Y-94466614D01*
X163278978Y-94421310D01*
X163295456Y-94384329D01*
X163312449Y-94359955D01*
X163326337Y-94344839D01*
X163341668Y-94331587D01*
X163358552Y-94320126D01*
X163376789Y-94310625D01*
X163396774Y-94302966D01*
X163418049Y-94297418D01*
X163441259Y-94293941D01*
X163465706Y-94292775D01*
X163495690Y-94294472D01*
X163536863Y-94303700D01*
X163554438Y-94311013D01*
X163570169Y-94320015D01*
X163584164Y-94330702D01*
X163596284Y-94342906D01*
X163606806Y-94356953D01*
X163615340Y-94372392D01*
X163622136Y-94389903D01*
X163626759Y-94408693D01*
X163646067Y-94412063D01*
X163974000Y-94234816D01*
X163974000Y-94424666D01*
G37*
G36*
X163404230Y-94169677D02*
G01*
X163974000Y-94169677D01*
X163974000Y-93808478D01*
X163872370Y-93808478D01*
X163872370Y-93965538D01*
X163874472Y-94001451D01*
X163878753Y-94018697D01*
X163886658Y-94036100D01*
X163870685Y-94046175D01*
X163856352Y-94035674D01*
X163842118Y-94028832D01*
X163820053Y-94025182D01*
X163791367Y-94025182D01*
X163777902Y-94026366D01*
X163765320Y-94029958D01*
X163742540Y-94043918D01*
X163739929Y-94046175D01*
X163723919Y-94035257D01*
X163732355Y-94006253D01*
X163734811Y-93968391D01*
X163734837Y-93957149D01*
X163734837Y-93826943D01*
X163631522Y-93826943D01*
X163631522Y-93965538D01*
X163633624Y-94001135D01*
X163637906Y-94018578D01*
X163645810Y-94036100D01*
X163629837Y-94046175D01*
X163616758Y-94036267D01*
X163602933Y-94029371D01*
X163579242Y-94025182D01*
X163559055Y-94025182D01*
X163545698Y-94026366D01*
X163533392Y-94029958D01*
X163511079Y-94043905D01*
X163508460Y-94046175D01*
X163492450Y-94035257D01*
X163500886Y-94006253D01*
X163503342Y-93968391D01*
X163503368Y-93957149D01*
X163503368Y-93818553D01*
X163404230Y-93818553D01*
X163404230Y-94169677D01*
G37*
G36*
X163404230Y-93765027D02*
G01*
X163974000Y-93594521D01*
X163974000Y-93457611D01*
X163404230Y-93287068D01*
X163404230Y-93424821D01*
X163600418Y-93468529D01*
X163667576Y-93482721D01*
X163735446Y-93495182D01*
X163804422Y-93504180D01*
X163874898Y-93507986D01*
X163874898Y-93534035D01*
X163784203Y-93538541D01*
X163687442Y-93552449D01*
X163599575Y-93571843D01*
X163404230Y-93620570D01*
X163404230Y-93765027D01*
G37*
G36*
X163974000Y-92595116D02*
G01*
X163896037Y-92612775D01*
X163871211Y-92615297D01*
X163849809Y-92613793D01*
X163832326Y-92610247D01*
X163823094Y-92620322D01*
X163830963Y-92651727D01*
X163834487Y-92679685D01*
X163835660Y-92714404D01*
X163833623Y-92771377D01*
X163829852Y-92792221D01*
X163823094Y-92813543D01*
X163830641Y-92822775D01*
X163831771Y-92822623D01*
X163839036Y-92821676D01*
X163876186Y-92819394D01*
X163905270Y-92822775D01*
X163974000Y-92840397D01*
X163974000Y-92994123D01*
X163263546Y-92811015D01*
X163263546Y-92695097D01*
X163342534Y-92695097D01*
X163342534Y-92727007D01*
X163470480Y-92740610D01*
X163586852Y-92759051D01*
X163667331Y-92778703D01*
X163722307Y-92799254D01*
X163736559Y-92789179D01*
X163735747Y-92786205D01*
X163728965Y-92748033D01*
X163727326Y-92711034D01*
X163728802Y-92678500D01*
X163736559Y-92639666D01*
X163722307Y-92629554D01*
X163690770Y-92641910D01*
X163653849Y-92652740D01*
X163608588Y-92663154D01*
X163554027Y-92673032D01*
X163490993Y-92681877D01*
X163420783Y-92689278D01*
X163342534Y-92695097D01*
X163263546Y-92695097D01*
X163263546Y-92588412D01*
X163974000Y-92434685D01*
X163974000Y-92595116D01*
G37*
D11*
X147605001Y-113707500D02*
X147605001Y-113187500D01*
X147295001Y-113452500D02*
X147605001Y-113447500D01*
X147295001Y-113697500D02*
X147295001Y-113207500D01*
D12*
X147395001Y-113547500D02*
X147395001Y-113347500D01*
D11*
X147605001Y-113447500D02*
X147295001Y-113207500D01*
X147605001Y-113447500D02*
X147295001Y-113697500D01*
X157350000Y-109590000D02*
X158600000Y-109590000D01*
X152115000Y-109590000D02*
X154850000Y-109600000D01*
D10*
G36*
X119569607Y-102694405D02*
G01*
X119569607Y-102557904D01*
X118977563Y-102557904D01*
X118977563Y-102694405D01*
X119569607Y-102694405D01*
G37*
G36*
X119569607Y-103146407D02*
G01*
X119569607Y-102805535D01*
X118977563Y-102805535D01*
X118977563Y-102941304D01*
X119161355Y-102941304D01*
X119178203Y-102940258D01*
X119193749Y-102936843D01*
X119206086Y-102931930D01*
X119218336Y-102924876D01*
X119225652Y-102919627D01*
X119238261Y-102932908D01*
X119230763Y-102965518D01*
X119228461Y-103012714D01*
X119228461Y-103138011D01*
X119329272Y-103138011D01*
X119329272Y-103012714D01*
X119328041Y-102981041D01*
X119323330Y-102949892D01*
X119318770Y-102932908D01*
X119331348Y-102919627D01*
X119347224Y-102929716D01*
X119362814Y-102936769D01*
X119375320Y-102940109D01*
X119388047Y-102941302D01*
X119388562Y-102941304D01*
X119410208Y-102941304D01*
X119423782Y-102940320D01*
X119436671Y-102937339D01*
X119460926Y-102925647D01*
X119469529Y-102919627D01*
X119482779Y-102932908D01*
X119474812Y-102968190D01*
X119472307Y-103012714D01*
X119472307Y-103146407D01*
X119569607Y-103146407D01*
G37*
G36*
X119569607Y-103587845D02*
G01*
X119569607Y-103451344D01*
X118977563Y-103451344D01*
X118977563Y-103587845D01*
X119569607Y-103587845D01*
G37*
G36*
X119569607Y-103853673D02*
G01*
X119569607Y-103698976D01*
X118977563Y-103698976D01*
X118977563Y-103812365D01*
X119155249Y-103812365D01*
X119263923Y-103808456D01*
X119384867Y-103796134D01*
X119446387Y-103787147D01*
X119446387Y-103824974D01*
X119386522Y-103829994D01*
X119324485Y-103843001D01*
X119293812Y-103852417D01*
X119263831Y-103863691D01*
X119234842Y-103876754D01*
X118977563Y-104002753D01*
X118977563Y-104136445D01*
X119569607Y-104136445D01*
X119569607Y-104023055D01*
X119412193Y-104023055D01*
X119313371Y-104026687D01*
X119190208Y-104038611D01*
X119115438Y-104048243D01*
X119115438Y-104010446D01*
X119182673Y-104004344D01*
X119253153Y-103990560D01*
X119322167Y-103969661D01*
X119373785Y-103948164D01*
X119569607Y-103853673D01*
G37*
D11*
X173600000Y-93092793D02*
X173910000Y-93087793D01*
X173910000Y-93087793D02*
X173600000Y-92847793D01*
X173910000Y-93087793D02*
X173600000Y-93337793D01*
D12*
X173700000Y-93187793D02*
X173700000Y-92987793D01*
D11*
X173600000Y-93337793D02*
X173600000Y-92847793D01*
X173910000Y-93347793D02*
X173910000Y-92827793D01*
D12*
X124100000Y-103430000D02*
X124100000Y-102470000D01*
X129690000Y-97491597D02*
X129690000Y-97016597D01*
X129690000Y-97491597D02*
X130165000Y-97491597D01*
X131867499Y-112540000D02*
X131872500Y-108280000D01*
X131867499Y-112540000D02*
X132270000Y-112540000D01*
X131872500Y-108280000D02*
X132275001Y-108280000D01*
X132570000Y-105745000D02*
X132095000Y-105745000D01*
X132570000Y-105745000D02*
X132570000Y-105270000D01*
X138415000Y-93740000D02*
X138415000Y-94215000D01*
X138415000Y-93740000D02*
X138890000Y-93740000D01*
X138690001Y-93740000D02*
X138415000Y-93977500D01*
X138890000Y-93740000D02*
X138415000Y-94215000D01*
X140148991Y-114076250D02*
X140148992Y-113673749D01*
X144100000Y-114081251D02*
X140148991Y-114076250D01*
X144100000Y-114081251D02*
X144100000Y-113678750D01*
X148445000Y-101740000D02*
X147635000Y-101740000D01*
X149498749Y-107108284D02*
X149503750Y-99569435D01*
X149498749Y-107108284D02*
X149901250Y-107108284D01*
X149503750Y-99569435D02*
X149906251Y-99569435D01*
X151305000Y-108636446D02*
X152115000Y-108636446D01*
X152115000Y-110543553D01*
X151305000Y-110543553D01*
X151305000Y-108636446D01*
X153956600Y-96876600D02*
X153956600Y-96401600D01*
X153956600Y-96876600D02*
X154431600Y-96876600D01*
D11*
X164559999Y-113202500D02*
X164560000Y-113722500D01*
X164560000Y-113462500D02*
X164870000Y-113212501D01*
X164560000Y-113462500D02*
X164870000Y-113702500D01*
D12*
X164770000Y-113362500D02*
X164769999Y-113562500D01*
D11*
X164870000Y-113212501D02*
X164870000Y-113702500D01*
X164870000Y-113457500D02*
X164560000Y-113462500D01*
X168105000Y-93092500D02*
X168415000Y-93087500D01*
X168105000Y-93337500D02*
X168105000Y-92847500D01*
D12*
X168205000Y-93187500D02*
X168205000Y-92987500D01*
D11*
X168415000Y-93087500D02*
X168105000Y-92847500D01*
X168415000Y-93087500D02*
X168105000Y-93337500D01*
X168415000Y-93347500D02*
X168415000Y-92827500D01*
D12*
X177500000Y-107140000D02*
X177025000Y-107140000D01*
X177500000Y-107140000D02*
X177500000Y-106665000D01*
X177700000Y-104119999D02*
X179607107Y-104119999D01*
X179607107Y-104929999D01*
X177700000Y-104929999D01*
X177700000Y-104119999D01*
D10*
G36*
X165366418Y-93073176D02*
G01*
X165232024Y-93073176D01*
X165232024Y-93157165D01*
X165366418Y-93157165D01*
X165366418Y-93292292D01*
X165450407Y-93292292D01*
X165450407Y-93157165D01*
X165584802Y-93157165D01*
X165584802Y-93073176D01*
X165450407Y-93073176D01*
X165450407Y-92938079D01*
X165366418Y-92938079D01*
X165366418Y-93073176D01*
G37*
G36*
X165762275Y-93132893D02*
G01*
X165828770Y-93132893D01*
X165852689Y-93123581D01*
X165875273Y-93117829D01*
X165894563Y-93116132D01*
X165908840Y-93117092D01*
X165922149Y-93119907D01*
X165934305Y-93124437D01*
X165945310Y-93130598D01*
X165955033Y-93138261D01*
X165963420Y-93147350D01*
X165970385Y-93157787D01*
X165975816Y-93169461D01*
X165979636Y-93182362D01*
X165981704Y-93196318D01*
X165982063Y-93205403D01*
X165981105Y-93220700D01*
X165978312Y-93235098D01*
X165973747Y-93248621D01*
X165967552Y-93261023D01*
X165959779Y-93272284D01*
X165950595Y-93282196D01*
X165940092Y-93290674D01*
X165928418Y-93297582D01*
X165915745Y-93302796D01*
X165902158Y-93306239D01*
X165883389Y-93307893D01*
X165868429Y-93306918D01*
X165854497Y-93304005D01*
X165842102Y-93299410D01*
X165830623Y-93293062D01*
X165810342Y-93275139D01*
X165792898Y-93249065D01*
X165789569Y-93242344D01*
X165741270Y-93242344D01*
X165741270Y-93365290D01*
X165776992Y-93380311D01*
X165811433Y-93392235D01*
X165838987Y-93399556D01*
X165866084Y-93404517D01*
X165905065Y-93407269D01*
X165929132Y-93406303D01*
X165952074Y-93403450D01*
X165973621Y-93398831D01*
X165993942Y-93392492D01*
X166012782Y-93384590D01*
X166030302Y-93375131D01*
X166046293Y-93364291D01*
X166060876Y-93352046D01*
X166073903Y-93338561D01*
X166085429Y-93323810D01*
X166095369Y-93307909D01*
X166103706Y-93290868D01*
X166110392Y-93272724D01*
X166115361Y-93253557D01*
X166118567Y-93233315D01*
X166119924Y-93212160D01*
X166119969Y-93207479D01*
X166119005Y-93185701D01*
X166116168Y-93164924D01*
X166111544Y-93145233D01*
X166105210Y-93126679D01*
X166097261Y-93109358D01*
X166087769Y-93093308D01*
X166076835Y-93078628D01*
X166064523Y-93065352D01*
X166050943Y-93053573D01*
X166036148Y-93043330D01*
X166020248Y-93034705D01*
X166003297Y-93027746D01*
X165985393Y-93022527D01*
X165966597Y-93019106D01*
X165940786Y-93017458D01*
X165922149Y-93018443D01*
X165904201Y-93021435D01*
X165869835Y-93033169D01*
X165861682Y-93037058D01*
X165849775Y-93025151D01*
X165857062Y-93016519D01*
X165862018Y-93007670D01*
X165866693Y-92988233D01*
X165867269Y-92973402D01*
X165866154Y-92953455D01*
X165862257Y-92936547D01*
X165857605Y-92926524D01*
X165851031Y-92917483D01*
X165848370Y-92914662D01*
X165861682Y-92902755D01*
X165890098Y-92911513D01*
X165923032Y-92914581D01*
X165931688Y-92914662D01*
X166107359Y-92914662D01*
X166107359Y-92805455D01*
X165762275Y-92805455D01*
X165762275Y-93132893D01*
G37*
G36*
X166307883Y-92805455D02*
G01*
X166172084Y-92805455D01*
X166339390Y-93397500D01*
X166470274Y-93397500D01*
X166636878Y-92805455D01*
X166508070Y-92805455D01*
X166463985Y-93008818D01*
X166459770Y-93028030D01*
X166447752Y-93084052D01*
X166436242Y-93146471D01*
X166427048Y-93215788D01*
X166421975Y-93292506D01*
X166396085Y-93292506D01*
X166390733Y-93196205D01*
X166377459Y-93098708D01*
X166358288Y-93008818D01*
X166307883Y-92805455D01*
G37*
G36*
X174943166Y-92993176D02*
G01*
X174808772Y-92993176D01*
X174808772Y-93077165D01*
X174943166Y-93077165D01*
X174943166Y-93212292D01*
X175027155Y-93212292D01*
X175027155Y-93077165D01*
X175161550Y-93077165D01*
X175161550Y-92993176D01*
X175027155Y-92993176D01*
X175027155Y-92858079D01*
X174943166Y-92858079D01*
X174943166Y-92993176D01*
G37*
G36*
X175325712Y-92886716D02*
G01*
X175374713Y-92886716D01*
X175384550Y-92866537D01*
X175395272Y-92849698D01*
X175405044Y-92838147D01*
X175415755Y-92828739D01*
X175426567Y-92821911D01*
X175438414Y-92816777D01*
X175465926Y-92811334D01*
X175477631Y-92810909D01*
X175491380Y-92811867D01*
X175504179Y-92814660D01*
X175515876Y-92819166D01*
X175526350Y-92825270D01*
X175535387Y-92832774D01*
X175542957Y-92841617D01*
X175548854Y-92851529D01*
X175553072Y-92862520D01*
X175556033Y-92883907D01*
X175555057Y-92896442D01*
X175552135Y-92907763D01*
X175547653Y-92917239D01*
X175541485Y-92925644D01*
X175524198Y-92939176D01*
X175498690Y-92948801D01*
X175462272Y-92953737D01*
X175448230Y-92954066D01*
X175432812Y-92954066D01*
X175432812Y-93052771D01*
X175446826Y-93052771D01*
X175473163Y-93053764D01*
X175495996Y-93056807D01*
X175512551Y-93061026D01*
X175526727Y-93066822D01*
X175537290Y-93073287D01*
X175546071Y-93081061D01*
X175557892Y-93099416D01*
X175563766Y-93123374D01*
X175564428Y-93136577D01*
X175563470Y-93150404D01*
X175560668Y-93163429D01*
X175556088Y-93175633D01*
X175549860Y-93186781D01*
X175532786Y-93205531D01*
X175522192Y-93212821D01*
X175510388Y-93218547D01*
X175497549Y-93222573D01*
X175483740Y-93224805D01*
X175474120Y-93225237D01*
X175443906Y-93221410D01*
X175415626Y-93210098D01*
X175402761Y-93201805D01*
X175390948Y-93191833D01*
X175380481Y-93180409D01*
X175371353Y-93167473D01*
X175361432Y-93147720D01*
X175313835Y-93147720D01*
X175313835Y-93284038D01*
X175336669Y-93295858D01*
X175359097Y-93305323D01*
X175403897Y-93318169D01*
X175452585Y-93324393D01*
X175484622Y-93325315D01*
X175512027Y-93324348D01*
X175537770Y-93321489D01*
X175561163Y-93316952D01*
X175582904Y-93310741D01*
X175602389Y-93303162D01*
X175620244Y-93294110D01*
X175636019Y-93283935D01*
X175650182Y-93272460D01*
X175662469Y-93259996D01*
X175673143Y-93246372D01*
X175689417Y-93216096D01*
X175699005Y-93181599D01*
X175701632Y-93149125D01*
X175700658Y-93129987D01*
X175697751Y-93111977D01*
X175693160Y-93095791D01*
X175686825Y-93080716D01*
X175678988Y-93067127D01*
X175669527Y-93054660D01*
X175645919Y-93033309D01*
X175615508Y-93016559D01*
X175577432Y-93004791D01*
X175568611Y-93003067D01*
X175568611Y-92989084D01*
X175590707Y-92983294D01*
X175610696Y-92976027D01*
X175627858Y-92967737D01*
X175643036Y-92958216D01*
X175655724Y-92947968D01*
X175666540Y-92936697D01*
X175675231Y-92924826D01*
X175682119Y-92912092D01*
X175690366Y-92884533D01*
X175691832Y-92865650D01*
X175687968Y-92834355D01*
X175683047Y-92818402D01*
X175676180Y-92802797D01*
X175667423Y-92787795D01*
X175656798Y-92773587D01*
X175653333Y-92769602D01*
X175641121Y-92757372D01*
X175627808Y-92746860D01*
X175598166Y-92730950D01*
X175562217Y-92720665D01*
X175516602Y-92715923D01*
X175502116Y-92715685D01*
X175472990Y-92716665D01*
X175443923Y-92719618D01*
X175386031Y-92731439D01*
X175327010Y-92751575D01*
X175325712Y-92752108D01*
X175325712Y-92886716D01*
G37*
G36*
X175884631Y-92725455D02*
G01*
X175748832Y-92725455D01*
X175916138Y-93317500D01*
X176047022Y-93317500D01*
X176213626Y-92725455D01*
X176084818Y-92725455D01*
X176040733Y-92928818D01*
X176036518Y-92948030D01*
X176024500Y-93004052D01*
X176012990Y-93066471D01*
X176003796Y-93135788D01*
X175998723Y-93212506D01*
X175972833Y-93212506D01*
X175967481Y-93116205D01*
X175954207Y-93018708D01*
X175935036Y-92928818D01*
X175884631Y-92725455D01*
G37*
G36*
X176268489Y-92886716D02*
G01*
X176317490Y-92886716D01*
X176327327Y-92866537D01*
X176338049Y-92849698D01*
X176347822Y-92838147D01*
X176358533Y-92828739D01*
X176369345Y-92821911D01*
X176381192Y-92816777D01*
X176408703Y-92811334D01*
X176420408Y-92810909D01*
X176434158Y-92811867D01*
X176446956Y-92814660D01*
X176458653Y-92819166D01*
X176469128Y-92825270D01*
X176478164Y-92832774D01*
X176485734Y-92841617D01*
X176491632Y-92851529D01*
X176495850Y-92862520D01*
X176498810Y-92883907D01*
X176497834Y-92896442D01*
X176494912Y-92907763D01*
X176490430Y-92917239D01*
X176484262Y-92925644D01*
X176466976Y-92939176D01*
X176441467Y-92948801D01*
X176405050Y-92953737D01*
X176391007Y-92954066D01*
X176375590Y-92954066D01*
X176375590Y-93052771D01*
X176389603Y-93052771D01*
X176415940Y-93053764D01*
X176438774Y-93056807D01*
X176455328Y-93061026D01*
X176469504Y-93066822D01*
X176480067Y-93073287D01*
X176488849Y-93081061D01*
X176500669Y-93099416D01*
X176506543Y-93123374D01*
X176507206Y-93136577D01*
X176506247Y-93150404D01*
X176503446Y-93163429D01*
X176498866Y-93175633D01*
X176492638Y-93186781D01*
X176475564Y-93205531D01*
X176464970Y-93212821D01*
X176453166Y-93218547D01*
X176440327Y-93222573D01*
X176426518Y-93224805D01*
X176416897Y-93225237D01*
X176386683Y-93221410D01*
X176358404Y-93210098D01*
X176345538Y-93201805D01*
X176333726Y-93191833D01*
X176323259Y-93180409D01*
X176314131Y-93167473D01*
X176304210Y-93147720D01*
X176256613Y-93147720D01*
X176256613Y-93284038D01*
X176279447Y-93295858D01*
X176301875Y-93305323D01*
X176346674Y-93318169D01*
X176395363Y-93324393D01*
X176427400Y-93325315D01*
X176454805Y-93324348D01*
X176480547Y-93321489D01*
X176503940Y-93316952D01*
X176525681Y-93310741D01*
X176545167Y-93303162D01*
X176563022Y-93294110D01*
X176578796Y-93283935D01*
X176592959Y-93272460D01*
X176605246Y-93259996D01*
X176615920Y-93246372D01*
X176632195Y-93216096D01*
X176641783Y-93181599D01*
X176644409Y-93149125D01*
X176643436Y-93129987D01*
X176640528Y-93111977D01*
X176635938Y-93095791D01*
X176629602Y-93080716D01*
X176621765Y-93067127D01*
X176612304Y-93054660D01*
X176588697Y-93033309D01*
X176558286Y-93016559D01*
X176520209Y-93004791D01*
X176511389Y-93003067D01*
X176511389Y-92989084D01*
X176533485Y-92983294D01*
X176553473Y-92976027D01*
X176570636Y-92967737D01*
X176585813Y-92958216D01*
X176598501Y-92947968D01*
X176609317Y-92936697D01*
X176618008Y-92924826D01*
X176624896Y-92912092D01*
X176633143Y-92884533D01*
X176634609Y-92865650D01*
X176630745Y-92834355D01*
X176625824Y-92818402D01*
X176618957Y-92802797D01*
X176610200Y-92787795D01*
X176599576Y-92773587D01*
X176596110Y-92769602D01*
X176583898Y-92757372D01*
X176570585Y-92746860D01*
X176540943Y-92730950D01*
X176504995Y-92720665D01*
X176459379Y-92715923D01*
X176444893Y-92715685D01*
X176415768Y-92716665D01*
X176386700Y-92719618D01*
X176328809Y-92731439D01*
X176269787Y-92751575D01*
X176268489Y-92752108D01*
X176268489Y-92886716D01*
G37*
G36*
X125723206Y-106073776D02*
G01*
X125738286Y-106048547D01*
X125750715Y-106023630D01*
X125759716Y-106001088D01*
X125766555Y-105978454D01*
X125771075Y-105956627D01*
X125773649Y-105934422D01*
X125774314Y-105915598D01*
X125773339Y-105891118D01*
X125770422Y-105867816D01*
X125765787Y-105846506D01*
X125759371Y-105826339D01*
X125751433Y-105807840D01*
X125741830Y-105790466D01*
X125730744Y-105774460D01*
X125718059Y-105759588D01*
X125687891Y-105733307D01*
X125650797Y-105711527D01*
X125605982Y-105694492D01*
X125552505Y-105682771D01*
X125489385Y-105677201D01*
X125468858Y-105676881D01*
X125433996Y-105677850D01*
X125401143Y-105680722D01*
X125371251Y-105685274D01*
X125343280Y-105691520D01*
X125318065Y-105699133D01*
X125294682Y-105708249D01*
X125273788Y-105718477D01*
X125254644Y-105730040D01*
X125237696Y-105742548D01*
X125222436Y-105756253D01*
X125209096Y-105770854D01*
X125197414Y-105786543D01*
X125179150Y-105820862D01*
X125167532Y-105859412D01*
X125162811Y-105902545D01*
X125162730Y-105909278D01*
X125163717Y-105934381D01*
X125166719Y-105958474D01*
X125171484Y-105980641D01*
X125178169Y-106002366D01*
X125197651Y-106045663D01*
X125214509Y-106073776D01*
X125349423Y-106073776D01*
X125349423Y-106029690D01*
X125329701Y-106018293D01*
X125312949Y-106006225D01*
X125300383Y-105994752D01*
X125290216Y-105982700D01*
X125282938Y-105971022D01*
X125277700Y-105958822D01*
X125273334Y-105933746D01*
X125273311Y-105931687D01*
X125274286Y-105917950D01*
X125277203Y-105905007D01*
X125281862Y-105893274D01*
X125288316Y-105882344D01*
X125306654Y-105862934D01*
X125333217Y-105846573D01*
X125369630Y-105833736D01*
X125417725Y-105825491D01*
X125466751Y-105823183D01*
X125500309Y-105824150D01*
X125530793Y-105827018D01*
X125556522Y-105831373D01*
X125579533Y-105837300D01*
X125598461Y-105844173D01*
X125615026Y-105852328D01*
X125628301Y-105861030D01*
X125639515Y-105870781D01*
X125648212Y-105880936D01*
X125655053Y-105891977D01*
X125663039Y-105916000D01*
X125664405Y-105932390D01*
X125663427Y-105945295D01*
X125660488Y-105957717D01*
X125648957Y-105980772D01*
X125628998Y-106002694D01*
X125598510Y-106024086D01*
X125588292Y-106029690D01*
X125588292Y-106073776D01*
X125723206Y-106073776D01*
G37*
G36*
X125172500Y-106151140D02*
G01*
X125172500Y-106482211D01*
X125271174Y-106482211D01*
X125271174Y-106358319D01*
X125269573Y-106319101D01*
X125266870Y-106300144D01*
X125262275Y-106281383D01*
X125261373Y-106278512D01*
X125273982Y-106265232D01*
X125285417Y-106273487D01*
X125298584Y-106280133D01*
X125315910Y-106284728D01*
X125339822Y-106286825D01*
X125346645Y-106286908D01*
X125764544Y-106286908D01*
X125764544Y-106151140D01*
X125172500Y-106151140D01*
G37*
G36*
X125764544Y-106677147D02*
G01*
X125764544Y-106541348D01*
X125172500Y-106541348D01*
X125172500Y-106677147D01*
X125317702Y-106677147D01*
X125344232Y-106674351D01*
X125350416Y-106672812D01*
X125355407Y-106671560D01*
X125444098Y-106714272D01*
X125444098Y-106728255D01*
X125407330Y-106735740D01*
X125367283Y-106750664D01*
X125172500Y-106837462D01*
X125172500Y-106986542D01*
X125398699Y-106881548D01*
X125407291Y-106877608D01*
X125434301Y-106864958D01*
X125457710Y-106852233D01*
X125477354Y-106837786D01*
X125493068Y-106819968D01*
X125503540Y-106819968D01*
X125530702Y-106849301D01*
X125564325Y-106874762D01*
X125587499Y-106888570D01*
X125764544Y-106985168D01*
X125764544Y-106837462D01*
X125586827Y-106745749D01*
X125514668Y-106710490D01*
X125480258Y-106696629D01*
X125446174Y-106686245D01*
X125451791Y-106664569D01*
X125498327Y-106670561D01*
X125545272Y-106674629D01*
X125622486Y-106677147D01*
X125764544Y-106677147D01*
G37*
G36*
X125603283Y-107035970D02*
G01*
X125603283Y-107084972D01*
X125623462Y-107094809D01*
X125640301Y-107105530D01*
X125651852Y-107115303D01*
X125661260Y-107126014D01*
X125668088Y-107136826D01*
X125673222Y-107148673D01*
X125678665Y-107176185D01*
X125679090Y-107187889D01*
X125678132Y-107201639D01*
X125675339Y-107214437D01*
X125670833Y-107226134D01*
X125664729Y-107236609D01*
X125657225Y-107245645D01*
X125648382Y-107253216D01*
X125638470Y-107259113D01*
X125627479Y-107263331D01*
X125606092Y-107266291D01*
X125593557Y-107265316D01*
X125582236Y-107262393D01*
X125572760Y-107257912D01*
X125564355Y-107251743D01*
X125550823Y-107234457D01*
X125541198Y-107208949D01*
X125536262Y-107172531D01*
X125535933Y-107158489D01*
X125535933Y-107143071D01*
X125437228Y-107143071D01*
X125437228Y-107157084D01*
X125436235Y-107183421D01*
X125433192Y-107206255D01*
X125428973Y-107222810D01*
X125423177Y-107236985D01*
X125416712Y-107247549D01*
X125408938Y-107256330D01*
X125390583Y-107268151D01*
X125366625Y-107274025D01*
X125353422Y-107274687D01*
X125339595Y-107273729D01*
X125326570Y-107270927D01*
X125314366Y-107266347D01*
X125303218Y-107260119D01*
X125284468Y-107243045D01*
X125277178Y-107232451D01*
X125271452Y-107220647D01*
X125267426Y-107207808D01*
X125265194Y-107193999D01*
X125264762Y-107184378D01*
X125268589Y-107154165D01*
X125279901Y-107125885D01*
X125288194Y-107113020D01*
X125298166Y-107101207D01*
X125309590Y-107090740D01*
X125322526Y-107081612D01*
X125342279Y-107071691D01*
X125342279Y-107024094D01*
X125205961Y-107024094D01*
X125194141Y-107046928D01*
X125184676Y-107069356D01*
X125171830Y-107114156D01*
X125165606Y-107162844D01*
X125164684Y-107194881D01*
X125165651Y-107222286D01*
X125168510Y-107248029D01*
X125173047Y-107271421D01*
X125179258Y-107293162D01*
X125186837Y-107312648D01*
X125195889Y-107330503D01*
X125206064Y-107346278D01*
X125217539Y-107360441D01*
X125230003Y-107372727D01*
X125243627Y-107383401D01*
X125273903Y-107399676D01*
X125308400Y-107409264D01*
X125340874Y-107411891D01*
X125360012Y-107410917D01*
X125378022Y-107408010D01*
X125394208Y-107403419D01*
X125409283Y-107397084D01*
X125422872Y-107389247D01*
X125435339Y-107379786D01*
X125456690Y-107356178D01*
X125473440Y-107325767D01*
X125485208Y-107287690D01*
X125486932Y-107278870D01*
X125500915Y-107278870D01*
X125506705Y-107300966D01*
X125513972Y-107320955D01*
X125522262Y-107338117D01*
X125531783Y-107353294D01*
X125542031Y-107365983D01*
X125553302Y-107376799D01*
X125565173Y-107385490D01*
X125577907Y-107392378D01*
X125605466Y-107400624D01*
X125624349Y-107402090D01*
X125655644Y-107398226D01*
X125671597Y-107393306D01*
X125687202Y-107386439D01*
X125702204Y-107377682D01*
X125716412Y-107367057D01*
X125720397Y-107363592D01*
X125732627Y-107351380D01*
X125743139Y-107338067D01*
X125759049Y-107308425D01*
X125769334Y-107272476D01*
X125774076Y-107226861D01*
X125774314Y-107212375D01*
X125773334Y-107183249D01*
X125770381Y-107154182D01*
X125758560Y-107096290D01*
X125738424Y-107037268D01*
X125737891Y-107035970D01*
X125603283Y-107035970D01*
G37*
G36*
X125479373Y-107715941D02*
G01*
X125548412Y-107720242D01*
X125605145Y-107730511D01*
X125651420Y-107745801D01*
X125688868Y-107765503D01*
X125718821Y-107789408D01*
X125742211Y-107817751D01*
X125751654Y-107833887D01*
X125759460Y-107851197D01*
X125765815Y-107870362D01*
X125770409Y-107890781D01*
X125773337Y-107913603D01*
X125774314Y-107937807D01*
X125770736Y-107983553D01*
X125760578Y-108022617D01*
X125744199Y-108056341D01*
X125733596Y-108071521D01*
X125721401Y-108085536D01*
X125707249Y-108098693D01*
X125691428Y-108110622D01*
X125673137Y-108121762D01*
X125653031Y-108131561D01*
X125629814Y-108140457D01*
X125604575Y-108147850D01*
X125575496Y-108154067D01*
X125544132Y-108158576D01*
X125508144Y-108161503D01*
X125469560Y-108162479D01*
X125457414Y-108162391D01*
X125388048Y-108157926D01*
X125331284Y-108147567D01*
X125285123Y-108132251D01*
X125247838Y-108112561D01*
X125218039Y-108088672D01*
X125194760Y-108060302D01*
X125185349Y-108044110D01*
X125177571Y-108026725D01*
X125171225Y-108007417D01*
X125166638Y-107986823D01*
X125163707Y-107963717D01*
X125162730Y-107939180D01*
X125162784Y-107938478D01*
X125262106Y-107938478D01*
X125263128Y-107951826D01*
X125269893Y-107971369D01*
X125276022Y-107979852D01*
X125283980Y-107987238D01*
X125295502Y-107994496D01*
X125309572Y-108000491D01*
X125331099Y-108006430D01*
X125356909Y-108010742D01*
X125412239Y-108015010D01*
X125481436Y-108016178D01*
X125503942Y-108016005D01*
X125571764Y-108012249D01*
X125614813Y-108004637D01*
X125642524Y-107994079D01*
X125660275Y-107980745D01*
X125666470Y-107972678D01*
X125670949Y-107963595D01*
X125673924Y-107952410D01*
X125674907Y-107939883D01*
X125673773Y-107925838D01*
X125666763Y-107906172D01*
X125660476Y-107897598D01*
X125652363Y-107890137D01*
X125640692Y-107882816D01*
X125626518Y-107876779D01*
X125605086Y-107870848D01*
X125579566Y-107866566D01*
X125529749Y-107862605D01*
X125468858Y-107861481D01*
X125432818Y-107861835D01*
X125364426Y-107865854D01*
X125321633Y-107873476D01*
X125294221Y-107883962D01*
X125276656Y-107897243D01*
X125270508Y-107905322D01*
X125266054Y-107914454D01*
X125263088Y-107925760D01*
X125262106Y-107938478D01*
X125162784Y-107938478D01*
X125166239Y-107893901D01*
X125176309Y-107855000D01*
X125192582Y-107821480D01*
X125203133Y-107806400D01*
X125215279Y-107792483D01*
X125229401Y-107779410D01*
X125245203Y-107767561D01*
X125263522Y-107756480D01*
X125283677Y-107746736D01*
X125307034Y-107737871D01*
X125332452Y-107730504D01*
X125361861Y-107724294D01*
X125393620Y-107719791D01*
X125430241Y-107716859D01*
X125469560Y-107715881D01*
X125479373Y-107715941D01*
G37*
G36*
X125764544Y-108657773D02*
G01*
X125764544Y-108521974D01*
X125381602Y-108521974D01*
X125351865Y-108520942D01*
X125326201Y-108517625D01*
X125309428Y-108513356D01*
X125295123Y-108507420D01*
X125285046Y-108501038D01*
X125276765Y-108493290D01*
X125270776Y-108484918D01*
X125266336Y-108475260D01*
X125262173Y-108451653D01*
X125262106Y-108447786D01*
X125263085Y-108434009D01*
X125266027Y-108421903D01*
X125270388Y-108412334D01*
X125276369Y-108404021D01*
X125292910Y-108391121D01*
X125317754Y-108382004D01*
X125355104Y-108376970D01*
X125377419Y-108376375D01*
X125764544Y-108376375D01*
X125764544Y-108239904D01*
X125386487Y-108239904D01*
X125328331Y-108241669D01*
X125302126Y-108244759D01*
X125277662Y-108250110D01*
X125253710Y-108258803D01*
X125238087Y-108267011D01*
X125224064Y-108276638D01*
X125212001Y-108287303D01*
X125201356Y-108299330D01*
X125184107Y-108327675D01*
X125171723Y-108363320D01*
X125164400Y-108408783D01*
X125162730Y-108449190D01*
X125163718Y-108480959D01*
X125166726Y-108509818D01*
X125171145Y-108533073D01*
X125177256Y-108554148D01*
X125184358Y-108571543D01*
X125192946Y-108587206D01*
X125202457Y-108600451D01*
X125213357Y-108612223D01*
X125238967Y-108631217D01*
X125271150Y-108645190D01*
X125312172Y-108654256D01*
X125368321Y-108657773D01*
X125764544Y-108657773D01*
G37*
G36*
X125596627Y-108987165D02*
G01*
X125611193Y-108986165D01*
X125624735Y-108983066D01*
X125648656Y-108971370D01*
X125656039Y-108966161D01*
X125668618Y-108978739D01*
X125661176Y-109010419D01*
X125658846Y-109050185D01*
X125658818Y-109058545D01*
X125658818Y-109125041D01*
X125764544Y-109125041D01*
X125764544Y-108715567D01*
X125658818Y-108715567D01*
X125658818Y-108781360D01*
X125660418Y-108821104D01*
X125663121Y-108839958D01*
X125667716Y-108858371D01*
X125668618Y-108861167D01*
X125656039Y-108873745D01*
X125641933Y-108864429D01*
X125627966Y-108857944D01*
X125615626Y-108854501D01*
X125602542Y-108852895D01*
X125596627Y-108852740D01*
X125172500Y-108852740D01*
X125172500Y-108987165D01*
X125596627Y-108987165D01*
G37*
D13*
%TO.C,G\u002A\u002A\u002A*%
G36*
X170134172Y-90615501D02*
G01*
X170139240Y-90618306D01*
X170144144Y-90621925D01*
X170164149Y-90637013D01*
X170186551Y-90652892D01*
X170210444Y-90668948D01*
X170234922Y-90684569D01*
X170254274Y-90696316D01*
X170263437Y-90701484D01*
X170275234Y-90707743D01*
X170289000Y-90714770D01*
X170304068Y-90722244D01*
X170319774Y-90729843D01*
X170335452Y-90737245D01*
X170350437Y-90744129D01*
X170364064Y-90750174D01*
X170375666Y-90755057D01*
X170376356Y-90755335D01*
X170388549Y-90759918D01*
X170403249Y-90764927D01*
X170419844Y-90770194D01*
X170437723Y-90775551D01*
X170456273Y-90780833D01*
X170474884Y-90785871D01*
X170492943Y-90790498D01*
X170509839Y-90794548D01*
X170524960Y-90797853D01*
X170537694Y-90800246D01*
X170544271Y-90801217D01*
X170563079Y-90803542D01*
X170579038Y-90805453D01*
X170592854Y-90807015D01*
X170605234Y-90808296D01*
X170616885Y-90809361D01*
X170628514Y-90810278D01*
X170640826Y-90811112D01*
X170654530Y-90811930D01*
X170663854Y-90812449D01*
X170677135Y-90813115D01*
X170688690Y-90813534D01*
X170699396Y-90813696D01*
X170710131Y-90813593D01*
X170721771Y-90813215D01*
X170735193Y-90812554D01*
X170751275Y-90811600D01*
X170752068Y-90811551D01*
X170776925Y-90809769D01*
X170799133Y-90807644D01*
X170819624Y-90805037D01*
X170839333Y-90801809D01*
X170859194Y-90797824D01*
X170880138Y-90792942D01*
X170883392Y-90792134D01*
X170922793Y-90781543D01*
X170960010Y-90769949D01*
X170995625Y-90757088D01*
X171030217Y-90742698D01*
X171064368Y-90726515D01*
X171098656Y-90708275D01*
X171133663Y-90687714D01*
X171169968Y-90664569D01*
X171182142Y-90656448D01*
X171192360Y-90649511D01*
X171202072Y-90642824D01*
X171210703Y-90636788D01*
X171217682Y-90631806D01*
X171222434Y-90628279D01*
X171223410Y-90627508D01*
X171228788Y-90623383D01*
X171233848Y-90619911D01*
X171236238Y-90618509D01*
X171239062Y-90617320D01*
X171241324Y-90617550D01*
X171243989Y-90619647D01*
X171247893Y-90623914D01*
X171250300Y-90626491D01*
X171254996Y-90631375D01*
X171261741Y-90638324D01*
X171270300Y-90647097D01*
X171280432Y-90657452D01*
X171291902Y-90669147D01*
X171304470Y-90681941D01*
X171317899Y-90695592D01*
X171331951Y-90709858D01*
X171346388Y-90724498D01*
X171360972Y-90739270D01*
X171375465Y-90753932D01*
X171389630Y-90768243D01*
X171403228Y-90781961D01*
X171416021Y-90794843D01*
X171427772Y-90806650D01*
X171428819Y-90807701D01*
X171437002Y-90815946D01*
X171444710Y-90823780D01*
X171451430Y-90830676D01*
X171456649Y-90836109D01*
X171459855Y-90839551D01*
X171459918Y-90839622D01*
X171465859Y-90846308D01*
X171461712Y-90849765D01*
X171458339Y-90852252D01*
X171456204Y-90853281D01*
X171453601Y-90854658D01*
X171448970Y-90858445D01*
X171442615Y-90864321D01*
X171434836Y-90871966D01*
X171425936Y-90881060D01*
X171416217Y-90891282D01*
X171405980Y-90902312D01*
X171395528Y-90913829D01*
X171385162Y-90925513D01*
X171375184Y-90937043D01*
X171365897Y-90948099D01*
X171359807Y-90955587D01*
X171340737Y-90981733D01*
X171322958Y-91010695D01*
X171306716Y-91041855D01*
X171292259Y-91074594D01*
X171279832Y-91108296D01*
X171269682Y-91142341D01*
X171262055Y-91176114D01*
X171257199Y-91208994D01*
X171256705Y-91214027D01*
X171255257Y-91233335D01*
X171254321Y-91253370D01*
X171253892Y-91273438D01*
X171253966Y-91292847D01*
X171254538Y-91310904D01*
X171255605Y-91326916D01*
X171257161Y-91340190D01*
X171257494Y-91342242D01*
X171265900Y-91382488D01*
X171277148Y-91421194D01*
X171291366Y-91458635D01*
X171308682Y-91495085D01*
X171329224Y-91530818D01*
X171353119Y-91566108D01*
X171375609Y-91595280D01*
X171381197Y-91601885D01*
X171388450Y-91610055D01*
X171396944Y-91619350D01*
X171406255Y-91629329D01*
X171415959Y-91639551D01*
X171425632Y-91649576D01*
X171434850Y-91658961D01*
X171443188Y-91667267D01*
X171450223Y-91674052D01*
X171455531Y-91678875D01*
X171457694Y-91680632D01*
X171461748Y-91683890D01*
X171463768Y-91686659D01*
X171463643Y-91689646D01*
X171461263Y-91693556D01*
X171456518Y-91699098D01*
X171454471Y-91701343D01*
X171440116Y-91716939D01*
X171427294Y-91730715D01*
X171415176Y-91743555D01*
X171402930Y-91756337D01*
X171391203Y-91768430D01*
X171381730Y-91778238D01*
X171371241Y-91789239D01*
X171360745Y-91800369D01*
X171351248Y-91810562D01*
X171347091Y-91815081D01*
X171338062Y-91824888D01*
X171327748Y-91835983D01*
X171317293Y-91847143D01*
X171307839Y-91857143D01*
X171305948Y-91859128D01*
X171298222Y-91867259D01*
X171290614Y-91875330D01*
X171283800Y-91882620D01*
X171278454Y-91888408D01*
X171276530Y-91890529D01*
X171267212Y-91900845D01*
X171259879Y-91908772D01*
X171254168Y-91914632D01*
X171249714Y-91918747D01*
X171246155Y-91921441D01*
X171243126Y-91923037D01*
X171240263Y-91923857D01*
X171238690Y-91924086D01*
X171232980Y-91924155D01*
X171228544Y-91922357D01*
X171225760Y-91920239D01*
X171221988Y-91917290D01*
X171219398Y-91915669D01*
X171219019Y-91915562D01*
X171217138Y-91914566D01*
X171213108Y-91911902D01*
X171207650Y-91908056D01*
X171204923Y-91906072D01*
X171193062Y-91897732D01*
X171178615Y-91888186D01*
X171162216Y-91877806D01*
X171144502Y-91866969D01*
X171126106Y-91856048D01*
X171107665Y-91845419D01*
X171089812Y-91835456D01*
X171073184Y-91826534D01*
X171058414Y-91819027D01*
X171052953Y-91816403D01*
X171017806Y-91800716D01*
X170983183Y-91787044D01*
X170948444Y-91775208D01*
X170912950Y-91765029D01*
X170876059Y-91756327D01*
X170837133Y-91748923D01*
X170795530Y-91742637D01*
X170784706Y-91741228D01*
X170765908Y-91739312D01*
X170744300Y-91737894D01*
X170720627Y-91736970D01*
X170695632Y-91736536D01*
X170670060Y-91736587D01*
X170644654Y-91737120D01*
X170620158Y-91738131D01*
X170597317Y-91739616D01*
X170576874Y-91741571D01*
X170570288Y-91742383D01*
X170546925Y-91745921D01*
X170521898Y-91750523D01*
X170496077Y-91755980D01*
X170470329Y-91762088D01*
X170445524Y-91768639D01*
X170422529Y-91775427D01*
X170402213Y-91782246D01*
X170401433Y-91782529D01*
X170357724Y-91799926D01*
X170313661Y-91820285D01*
X170270053Y-91843170D01*
X170227705Y-91868147D01*
X170187425Y-91894782D01*
X170170679Y-91906829D01*
X170157077Y-91916435D01*
X170145871Y-91923381D01*
X170137052Y-91927674D01*
X170130611Y-91929317D01*
X170128544Y-91929205D01*
X170124485Y-91927599D01*
X170119078Y-91924453D01*
X170115087Y-91921640D01*
X170111197Y-91918815D01*
X170104831Y-91914377D01*
X170096511Y-91908682D01*
X170086760Y-91902085D01*
X170076100Y-91894944D01*
X170067886Y-91889485D01*
X170031241Y-91865953D01*
X169996206Y-91845045D01*
X169962221Y-91826525D01*
X169928725Y-91810161D01*
X169895157Y-91795718D01*
X169860957Y-91782961D01*
X169825562Y-91771658D01*
X169788414Y-91761574D01*
X169748950Y-91752474D01*
X169730436Y-91748668D01*
X169716882Y-91746292D01*
X169700493Y-91743938D01*
X169682026Y-91741684D01*
X169662234Y-91739606D01*
X169641874Y-91737781D01*
X169621698Y-91736287D01*
X169602462Y-91735201D01*
X169595987Y-91734928D01*
X169577771Y-91734685D01*
X169556815Y-91735170D01*
X169533877Y-91736316D01*
X169509715Y-91738052D01*
X169485088Y-91740310D01*
X169460755Y-91743021D01*
X169437474Y-91746115D01*
X169416002Y-91749524D01*
X169398257Y-91752930D01*
X169385868Y-91755839D01*
X169370920Y-91759786D01*
X169354203Y-91764526D01*
X169336511Y-91769815D01*
X169318635Y-91775408D01*
X169301366Y-91781059D01*
X169285497Y-91786525D01*
X169271819Y-91791559D01*
X169266284Y-91793742D01*
X169257834Y-91797321D01*
X169247336Y-91801996D01*
X169235350Y-91807498D01*
X169222436Y-91813555D01*
X169209154Y-91819897D01*
X169196066Y-91826252D01*
X169183730Y-91832350D01*
X169172708Y-91837920D01*
X169163559Y-91842691D01*
X169156844Y-91846392D01*
X169154592Y-91847745D01*
X169148645Y-91851295D01*
X169142552Y-91854633D01*
X169142031Y-91854899D01*
X169137151Y-91857615D01*
X169130833Y-91861449D01*
X169125556Y-91864841D01*
X169119607Y-91868724D01*
X169111802Y-91873731D01*
X169103336Y-91879100D01*
X169098132Y-91882367D01*
X169090695Y-91887072D01*
X169081206Y-91893161D01*
X169070600Y-91900028D01*
X169059813Y-91907070D01*
X169053041Y-91911524D01*
X169044175Y-91917330D01*
X169036322Y-91922382D01*
X169029977Y-91926371D01*
X169025633Y-91928985D01*
X169023786Y-91929916D01*
X169022122Y-91928692D01*
X169018438Y-91925312D01*
X169013191Y-91920218D01*
X169006839Y-91913850D01*
X169002813Y-91909730D01*
X168995993Y-91902634D01*
X168987353Y-91893546D01*
X168977504Y-91883114D01*
X168967059Y-91871988D01*
X168956627Y-91860814D01*
X168950040Y-91853722D01*
X168939919Y-91842834D01*
X168929349Y-91831526D01*
X168918952Y-91820457D01*
X168909344Y-91810284D01*
X168901146Y-91801665D01*
X168896860Y-91797202D01*
X168888951Y-91788917D01*
X168880927Y-91780345D01*
X168873574Y-91772337D01*
X168867677Y-91765743D01*
X168866118Y-91763944D01*
X168860382Y-91757422D01*
X168854594Y-91751135D01*
X168849772Y-91746179D01*
X168848653Y-91745104D01*
X168845238Y-91741705D01*
X168840321Y-91736543D01*
X168834337Y-91730107D01*
X168827725Y-91722881D01*
X168820921Y-91715352D01*
X168814362Y-91708008D01*
X168808486Y-91701335D01*
X168803730Y-91695818D01*
X168800529Y-91691945D01*
X168799323Y-91690202D01*
X168799322Y-91690189D01*
X168800561Y-91688642D01*
X168803980Y-91685099D01*
X168809129Y-91680008D01*
X168815560Y-91673815D01*
X168819507Y-91670076D01*
X168841083Y-91649370D01*
X168860067Y-91630272D01*
X168876820Y-91612352D01*
X168891703Y-91595181D01*
X168905077Y-91578326D01*
X168917303Y-91561359D01*
X168927380Y-91545937D01*
X169118706Y-91545937D01*
X169161755Y-91545937D01*
X169204804Y-91545937D01*
X169205266Y-91438357D01*
X169205729Y-91330777D01*
X169255886Y-91438357D01*
X169306043Y-91545937D01*
X169349638Y-91545937D01*
X169451039Y-91545937D01*
X169488076Y-91545931D01*
X169525113Y-91545925D01*
X169541020Y-91500625D01*
X169545753Y-91487267D01*
X169550581Y-91473858D01*
X169555234Y-91461129D01*
X169559445Y-91449812D01*
X169562943Y-91440636D01*
X169564848Y-91435821D01*
X169568462Y-91426749D01*
X169571981Y-91417618D01*
X169574934Y-91409665D01*
X169576460Y-91405318D01*
X169579167Y-91397518D01*
X169582228Y-91389121D01*
X169585351Y-91380878D01*
X169588244Y-91373538D01*
X169590616Y-91367853D01*
X169592176Y-91364573D01*
X169592446Y-91364165D01*
X169593787Y-91364660D01*
X169595541Y-91367717D01*
X169595917Y-91368651D01*
X169597950Y-91373897D01*
X169600550Y-91380448D01*
X169601803Y-91383554D01*
X169603813Y-91388757D01*
X169606613Y-91396350D01*
X169609839Y-91405326D01*
X169613124Y-91414676D01*
X169613220Y-91414954D01*
X169616915Y-91425556D01*
X169620947Y-91437035D01*
X169624786Y-91447881D01*
X169627445Y-91455326D01*
X169630991Y-91465355D01*
X169634974Y-91476880D01*
X169638733Y-91487980D01*
X169640104Y-91492109D01*
X169642896Y-91500387D01*
X169645551Y-91507921D01*
X169647720Y-91513731D01*
X169648797Y-91516332D01*
X169650667Y-91520812D01*
X169653123Y-91527254D01*
X169655478Y-91533826D01*
X169659673Y-91545937D01*
X169693322Y-91545937D01*
X169703865Y-91545894D01*
X169713056Y-91545771D01*
X169720340Y-91545586D01*
X169725163Y-91545350D01*
X169726969Y-91545079D01*
X169726971Y-91545070D01*
X169726482Y-91542560D01*
X169725163Y-91537380D01*
X169723231Y-91530290D01*
X169720904Y-91522053D01*
X169718400Y-91513431D01*
X169715937Y-91505183D01*
X169713733Y-91498073D01*
X169712059Y-91493006D01*
X169708709Y-91483229D01*
X169704520Y-91470638D01*
X169699688Y-91455857D01*
X169694412Y-91439505D01*
X169688890Y-91422205D01*
X169683321Y-91404579D01*
X169677903Y-91387248D01*
X169672834Y-91370834D01*
X169668312Y-91355958D01*
X169667708Y-91353948D01*
X169662039Y-91335100D01*
X169657042Y-91318629D01*
X169652390Y-91303466D01*
X169647755Y-91288540D01*
X169643728Y-91275701D01*
X169635759Y-91250385D01*
X169640099Y-91238351D01*
X169812223Y-91238351D01*
X169812230Y-91266751D01*
X169812234Y-91281279D01*
X169812268Y-91458914D01*
X169816341Y-91474700D01*
X169819571Y-91486347D01*
X169822799Y-91495882D01*
X169826536Y-91504745D01*
X169828331Y-91508514D01*
X169829332Y-91511236D01*
X169829464Y-91514300D01*
X169828600Y-91518593D01*
X169826615Y-91525001D01*
X169825514Y-91528252D01*
X169823207Y-91535110D01*
X169821424Y-91540654D01*
X169820436Y-91544027D01*
X169820324Y-91544592D01*
X169822012Y-91545000D01*
X169826749Y-91545351D01*
X169833996Y-91545626D01*
X169843213Y-91545805D01*
X169853860Y-91545869D01*
X169855711Y-91545868D01*
X169891148Y-91545798D01*
X169895078Y-91537345D01*
X169897636Y-91531491D01*
X169899660Y-91526250D01*
X169900254Y-91524406D01*
X169902240Y-91519386D01*
X169903950Y-91516381D01*
X169905949Y-91511688D01*
X169906400Y-91508578D01*
X169907121Y-91504116D01*
X169908895Y-91498664D01*
X169909274Y-91497763D01*
X169911259Y-91493197D01*
X169912928Y-91489188D01*
X169914577Y-91484955D01*
X169916500Y-91479716D01*
X169918991Y-91472690D01*
X169922345Y-91463094D01*
X169922551Y-91462503D01*
X169925861Y-91453176D01*
X169929204Y-91444051D01*
X169932173Y-91436221D01*
X169934225Y-91431103D01*
X169936681Y-91425037D01*
X169939832Y-91416899D01*
X169943174Y-91407998D01*
X169944898Y-91403291D01*
X169947729Y-91395584D01*
X169951491Y-91385496D01*
X169955821Y-91373994D01*
X169960354Y-91362046D01*
X169963792Y-91353051D01*
X169967756Y-91342618D01*
X169971332Y-91333006D01*
X169974294Y-91324845D01*
X169976412Y-91318764D01*
X169977459Y-91315391D01*
X169977463Y-91315371D01*
X169978778Y-91311140D01*
X169981087Y-91304863D01*
X169983934Y-91297773D01*
X169984458Y-91296531D01*
X169987893Y-91288001D01*
X169991625Y-91278051D01*
X169994900Y-91268694D01*
X169995188Y-91267822D01*
X169998046Y-91259654D01*
X170001135Y-91251644D01*
X170003886Y-91245251D01*
X170004439Y-91244107D01*
X170006885Y-91238526D01*
X170008415Y-91233700D01*
X170008675Y-91231890D01*
X170009356Y-91229372D01*
X170010469Y-91229245D01*
X170010902Y-91231310D01*
X170011278Y-91236882D01*
X170011596Y-91245878D01*
X170011853Y-91258218D01*
X170012050Y-91273819D01*
X170012184Y-91292599D01*
X170012253Y-91314477D01*
X170012263Y-91327926D01*
X170012263Y-91425498D01*
X170007329Y-91433524D01*
X170003096Y-91439487D01*
X169998511Y-91443506D01*
X169992665Y-91446051D01*
X169984647Y-91447594D01*
X169979025Y-91448182D01*
X169964631Y-91449438D01*
X169956785Y-91472119D01*
X169952904Y-91483031D01*
X169948251Y-91495643D01*
X169943432Y-91508337D01*
X169939333Y-91518794D01*
X169935903Y-91527479D01*
X169933014Y-91535020D01*
X169930906Y-91540772D01*
X169929820Y-91544089D01*
X169929726Y-91544575D01*
X169931500Y-91545155D01*
X169936754Y-91545560D01*
X169945381Y-91545788D01*
X169957276Y-91545838D01*
X169972333Y-91545706D01*
X169976167Y-91545651D01*
X170022608Y-91544939D01*
X170037911Y-91537356D01*
X170049661Y-91530516D01*
X170059475Y-91522383D01*
X170067779Y-91512419D01*
X170075001Y-91500087D01*
X170081567Y-91484850D01*
X170083260Y-91480234D01*
X170084092Y-91476067D01*
X170084865Y-91468616D01*
X170085577Y-91458181D01*
X170086226Y-91445065D01*
X170086813Y-91429572D01*
X170087335Y-91412004D01*
X170087790Y-91392662D01*
X170087813Y-91391451D01*
X170184515Y-91391451D01*
X170184543Y-91407240D01*
X170184788Y-91421497D01*
X170185431Y-91436036D01*
X170186411Y-91450171D01*
X170187666Y-91463218D01*
X170189132Y-91474491D01*
X170190747Y-91483304D01*
X170191841Y-91487371D01*
X170198362Y-91501879D01*
X170207909Y-91515674D01*
X170216696Y-91525021D01*
X170225598Y-91532328D01*
X170235120Y-91537857D01*
X170246443Y-91542226D01*
X170253321Y-91544213D01*
X170257089Y-91545137D01*
X170260971Y-91545873D01*
X170265401Y-91546439D01*
X170270812Y-91546851D01*
X170277637Y-91547128D01*
X170286310Y-91547287D01*
X170297264Y-91547345D01*
X170310933Y-91547320D01*
X170327749Y-91547230D01*
X170328059Y-91547228D01*
X170389962Y-91546835D01*
X170404274Y-91539843D01*
X170417884Y-91531900D01*
X170429159Y-91522288D01*
X170438709Y-91510377D01*
X170447072Y-91495689D01*
X170452132Y-91484738D01*
X170455918Y-91474774D01*
X170458702Y-91464751D01*
X170460755Y-91453620D01*
X170462349Y-91440335D01*
X170462874Y-91434691D01*
X170464128Y-91412588D01*
X170463904Y-91392180D01*
X170462245Y-91373826D01*
X170459193Y-91357881D01*
X170454792Y-91344701D01*
X170451241Y-91337808D01*
X170447843Y-91331810D01*
X170444566Y-91325308D01*
X170444172Y-91324453D01*
X170441707Y-91320582D01*
X170437170Y-91314895D01*
X170431105Y-91308029D01*
X170424059Y-91300621D01*
X170421743Y-91298296D01*
X170412936Y-91289832D01*
X170404280Y-91282167D01*
X170395142Y-91274821D01*
X170384887Y-91267313D01*
X170372881Y-91259161D01*
X170358493Y-91249887D01*
X170354973Y-91247667D01*
X170332520Y-91232794D01*
X170313504Y-91218570D01*
X170297848Y-91204924D01*
X170285474Y-91191783D01*
X170276305Y-91179077D01*
X170272210Y-91171418D01*
X170269465Y-91164860D01*
X170267892Y-91159036D01*
X170267190Y-91152420D01*
X170267053Y-91145288D01*
X170267136Y-91137831D01*
X170267553Y-91132985D01*
X170268552Y-91129775D01*
X170270385Y-91127225D01*
X170272122Y-91125476D01*
X170275315Y-91122786D01*
X170278900Y-91120732D01*
X170283390Y-91119230D01*
X170289296Y-91118199D01*
X170297133Y-91117556D01*
X170307413Y-91117219D01*
X170320648Y-91117105D01*
X170324171Y-91117102D01*
X170358885Y-91117102D01*
X170365820Y-91122036D01*
X170371644Y-91127655D01*
X170376200Y-91135518D01*
X170379675Y-91146052D01*
X170382221Y-91159445D01*
X170384401Y-91174519D01*
X170424413Y-91174519D01*
X170464425Y-91174519D01*
X170464425Y-91147109D01*
X170464156Y-91128891D01*
X170463292Y-91113539D01*
X170462867Y-91109924D01*
X170550551Y-91109924D01*
X170602585Y-91109924D01*
X170654620Y-91109924D01*
X170654620Y-91327931D01*
X170654620Y-91545937D01*
X170691403Y-91545937D01*
X170728186Y-91545937D01*
X170932735Y-91545937D01*
X171071793Y-91545937D01*
X171210850Y-91545937D01*
X171210850Y-91497491D01*
X171210850Y-91449046D01*
X171109473Y-91449046D01*
X171008095Y-91449046D01*
X171008095Y-91231039D01*
X171008095Y-91013033D01*
X170971578Y-91013033D01*
X170935061Y-91013033D01*
X170933909Y-91027836D01*
X170933772Y-91031380D01*
X170933639Y-91038294D01*
X170933512Y-91048359D01*
X170933391Y-91061355D01*
X170933278Y-91077063D01*
X170933173Y-91095265D01*
X170933077Y-91115741D01*
X170932991Y-91138272D01*
X170932917Y-91162639D01*
X170932855Y-91188623D01*
X170932805Y-91216005D01*
X170932770Y-91244567D01*
X170932750Y-91274088D01*
X170932746Y-91294288D01*
X170932735Y-91545937D01*
X170728186Y-91545937D01*
X170728186Y-91327931D01*
X170728186Y-91109924D01*
X170779323Y-91109924D01*
X170830460Y-91109924D01*
X170830460Y-91061479D01*
X170830460Y-91013033D01*
X170690506Y-91013033D01*
X170550551Y-91013033D01*
X170550551Y-91061479D01*
X170550551Y-91109924D01*
X170462867Y-91109924D01*
X170461745Y-91100365D01*
X170459429Y-91088683D01*
X170456257Y-91077804D01*
X170455308Y-91075098D01*
X170448870Y-91061479D01*
X170447673Y-91058948D01*
X170437330Y-91044982D01*
X170424509Y-91033482D01*
X170417951Y-91029163D01*
X170412055Y-91025785D01*
X170406569Y-91023037D01*
X170401042Y-91020854D01*
X170395021Y-91019170D01*
X170388056Y-91017919D01*
X170379693Y-91017037D01*
X170369482Y-91016457D01*
X170356969Y-91016115D01*
X170341704Y-91015944D01*
X170326264Y-91015886D01*
X170310419Y-91015865D01*
X170297688Y-91015890D01*
X170287599Y-91015990D01*
X170279677Y-91016192D01*
X170273448Y-91016522D01*
X170268439Y-91017009D01*
X170264176Y-91017680D01*
X170260185Y-91018562D01*
X170255993Y-91019683D01*
X170254790Y-91020022D01*
X170237891Y-91026410D01*
X170223470Y-91035297D01*
X170211461Y-91046760D01*
X170201802Y-91060873D01*
X170194426Y-91077709D01*
X170189770Y-91094852D01*
X170188486Y-91101618D01*
X170187529Y-91108370D01*
X170186854Y-91115802D01*
X170186416Y-91124611D01*
X170186169Y-91135491D01*
X170186070Y-91149138D01*
X170186064Y-91151940D01*
X170186104Y-91167021D01*
X170186364Y-91179202D01*
X170186976Y-91189169D01*
X170188074Y-91197610D01*
X170189792Y-91205212D01*
X170192261Y-91212661D01*
X170195614Y-91220645D01*
X170199986Y-91229851D01*
X170201901Y-91233731D01*
X170206732Y-91243148D01*
X170210925Y-91250342D01*
X170215250Y-91256391D01*
X170220475Y-91262373D01*
X170227146Y-91269146D01*
X170238966Y-91280338D01*
X170250266Y-91289959D01*
X170262142Y-91298855D01*
X170275686Y-91307872D01*
X170283407Y-91312679D01*
X170296153Y-91320523D01*
X170306474Y-91327008D01*
X170315040Y-91332592D01*
X170322520Y-91337735D01*
X170329582Y-91342897D01*
X170336896Y-91348536D01*
X170344798Y-91354845D01*
X170355789Y-91363915D01*
X170364308Y-91371447D01*
X170370853Y-91377917D01*
X170375922Y-91383801D01*
X170378065Y-91386681D01*
X170380040Y-91391459D01*
X170381462Y-91398930D01*
X170382248Y-91408227D01*
X170382312Y-91418487D01*
X170381886Y-91425735D01*
X170380990Y-91433148D01*
X170379482Y-91438915D01*
X170376938Y-91443265D01*
X170372934Y-91446423D01*
X170367048Y-91448618D01*
X170358855Y-91450075D01*
X170347931Y-91451022D01*
X170333854Y-91451686D01*
X170333441Y-91451702D01*
X170318671Y-91452114D01*
X170306988Y-91452058D01*
X170297911Y-91451455D01*
X170290961Y-91450227D01*
X170285658Y-91448295D01*
X170281520Y-91445579D01*
X170278642Y-91442690D01*
X170274500Y-91436041D01*
X170270960Y-91427006D01*
X170268378Y-91416776D01*
X170267109Y-91406546D01*
X170267038Y-91403683D01*
X170266587Y-91397866D01*
X170265319Y-91394727D01*
X170264810Y-91394408D01*
X170262421Y-91394154D01*
X170257000Y-91393833D01*
X170249102Y-91393470D01*
X170239282Y-91393090D01*
X170228094Y-91392718D01*
X170223541Y-91392582D01*
X170184515Y-91391451D01*
X170087813Y-91391451D01*
X170088179Y-91371850D01*
X170088500Y-91349871D01*
X170088752Y-91327026D01*
X170088932Y-91303618D01*
X170089041Y-91279951D01*
X170089077Y-91256326D01*
X170089038Y-91233045D01*
X170088924Y-91210413D01*
X170088734Y-91188730D01*
X170088465Y-91168300D01*
X170088117Y-91149425D01*
X170087689Y-91132407D01*
X170087180Y-91117550D01*
X170086587Y-91105156D01*
X170085911Y-91095527D01*
X170085149Y-91088965D01*
X170084836Y-91087335D01*
X170082797Y-91079210D01*
X170080442Y-91070811D01*
X170078708Y-91065262D01*
X170077051Y-91060061D01*
X170076393Y-91056258D01*
X170076789Y-91052498D01*
X170078293Y-91047427D01*
X170079562Y-91043731D01*
X170082101Y-91036615D01*
X170084613Y-91029905D01*
X170086332Y-91025593D01*
X170088464Y-91020251D01*
X170090112Y-91015624D01*
X170090221Y-91015275D01*
X170091454Y-91011238D01*
X170058021Y-91011238D01*
X170046521Y-91011335D01*
X170036516Y-91011608D01*
X170028558Y-91012029D01*
X170023200Y-91012572D01*
X170021177Y-91013063D01*
X170018664Y-91015788D01*
X170016171Y-91020622D01*
X170015188Y-91023381D01*
X170013519Y-91028396D01*
X170010889Y-91035753D01*
X170007659Y-91044456D01*
X170004236Y-91053404D01*
X170000635Y-91062769D01*
X169997134Y-91072064D01*
X169994147Y-91080175D01*
X169992187Y-91085701D01*
X169990391Y-91090770D01*
X169987539Y-91098575D01*
X169983816Y-91108629D01*
X169979408Y-91120445D01*
X169974497Y-91133536D01*
X169969269Y-91147414D01*
X169963908Y-91161593D01*
X169958598Y-91175584D01*
X169953524Y-91188900D01*
X169948871Y-91201055D01*
X169944822Y-91211560D01*
X169941563Y-91219928D01*
X169939277Y-91225673D01*
X169938539Y-91227451D01*
X169936994Y-91231305D01*
X169934913Y-91236791D01*
X169934058Y-91239113D01*
X169932091Y-91244512D01*
X169929373Y-91251977D01*
X169926378Y-91260203D01*
X169925237Y-91263336D01*
X169921998Y-91272161D01*
X169918579Y-91281361D01*
X169915588Y-91289300D01*
X169914882Y-91291148D01*
X169912693Y-91296912D01*
X169909594Y-91305149D01*
X169905922Y-91314966D01*
X169902010Y-91325469D01*
X169899880Y-91331211D01*
X169889354Y-91359610D01*
X169888882Y-91251365D01*
X169888800Y-91224796D01*
X169888802Y-91201518D01*
X169888887Y-91181575D01*
X169889053Y-91165012D01*
X169889302Y-91151876D01*
X169889631Y-91142211D01*
X169890040Y-91136062D01*
X169890310Y-91134147D01*
X169892667Y-91126344D01*
X169896305Y-91120462D01*
X169901702Y-91116211D01*
X169909336Y-91113303D01*
X169919686Y-91111448D01*
X169929309Y-91110588D01*
X169947024Y-91109427D01*
X169959381Y-91076033D01*
X169965529Y-91059308D01*
X169970440Y-91045677D01*
X169974194Y-91034895D01*
X169976872Y-91026717D01*
X169978551Y-91020899D01*
X169979312Y-91017195D01*
X169979234Y-91015360D01*
X169979112Y-91015183D01*
X169977051Y-91014861D01*
X169971878Y-91014586D01*
X169964072Y-91014368D01*
X169954108Y-91014216D01*
X169942464Y-91014141D01*
X169929616Y-91014153D01*
X169929114Y-91014155D01*
X169880383Y-91014380D01*
X169866028Y-91020366D01*
X169851683Y-91027879D01*
X169840053Y-91037467D01*
X169830776Y-91049508D01*
X169823568Y-91064170D01*
X169821755Y-91068750D01*
X169820145Y-91072883D01*
X169818727Y-91076801D01*
X169817488Y-91080734D01*
X169816417Y-91084913D01*
X169815500Y-91089570D01*
X169814727Y-91094934D01*
X169814086Y-91101238D01*
X169813563Y-91108712D01*
X169813147Y-91117587D01*
X169812827Y-91128095D01*
X169812589Y-91140466D01*
X169812423Y-91154930D01*
X169812315Y-91171720D01*
X169812254Y-91191066D01*
X169812227Y-91213199D01*
X169812223Y-91238351D01*
X169640099Y-91238351D01*
X169640218Y-91238021D01*
X169643255Y-91229571D01*
X169646553Y-91220350D01*
X169648817Y-91213993D01*
X169651409Y-91206919D01*
X169653991Y-91200240D01*
X169655726Y-91196050D01*
X169657904Y-91190799D01*
X169661010Y-91182889D01*
X169664775Y-91173048D01*
X169668929Y-91162000D01*
X169673204Y-91150471D01*
X169677328Y-91139186D01*
X169681034Y-91128871D01*
X169684051Y-91120250D01*
X169685549Y-91115793D01*
X169687869Y-91109085D01*
X169691223Y-91099890D01*
X169695298Y-91089047D01*
X169699779Y-91077393D01*
X169704351Y-91065766D01*
X169704386Y-91065677D01*
X169710445Y-91050312D01*
X169715170Y-91037976D01*
X169718651Y-91028402D01*
X169720979Y-91021324D01*
X169722242Y-91016477D01*
X169722532Y-91013594D01*
X169722296Y-91012726D01*
X169720300Y-91012270D01*
X169715276Y-91011872D01*
X169707784Y-91011554D01*
X169698384Y-91011340D01*
X169687637Y-91011253D01*
X169686045Y-91011252D01*
X169650713Y-91011266D01*
X169636726Y-91049381D01*
X169632166Y-91061815D01*
X169627543Y-91074435D01*
X169623165Y-91086397D01*
X169619341Y-91096860D01*
X169616380Y-91104978D01*
X169615886Y-91106336D01*
X169610658Y-91120499D01*
X169606164Y-91132249D01*
X169602495Y-91141363D01*
X169599741Y-91147619D01*
X169597993Y-91150796D01*
X169597551Y-91151163D01*
X169596800Y-91150743D01*
X169595790Y-91149121D01*
X169594313Y-91145814D01*
X169592161Y-91140335D01*
X169589128Y-91132200D01*
X169587211Y-91126970D01*
X169583827Y-91117980D01*
X169579964Y-91108119D01*
X169576449Y-91099499D01*
X169576398Y-91099377D01*
X169572936Y-91090923D01*
X169569320Y-91081751D01*
X169566486Y-91074257D01*
X169564248Y-91068173D01*
X169561121Y-91059724D01*
X169557474Y-91049905D01*
X169553677Y-91039711D01*
X169552599Y-91036821D01*
X169543056Y-91011267D01*
X169508516Y-91011252D01*
X169497826Y-91011280D01*
X169488482Y-91011366D01*
X169481029Y-91011500D01*
X169476017Y-91011671D01*
X169473993Y-91011871D01*
X169473976Y-91011891D01*
X169474539Y-91013695D01*
X169476125Y-91018422D01*
X169478574Y-91025606D01*
X169481726Y-91034784D01*
X169485422Y-91045489D01*
X169488548Y-91054506D01*
X169492882Y-91067127D01*
X169497063Y-91079564D01*
X169500862Y-91091114D01*
X169504049Y-91101074D01*
X169506393Y-91108741D01*
X169507239Y-91111719D01*
X169509273Y-91118632D01*
X169512252Y-91127962D01*
X169515865Y-91138761D01*
X169519795Y-91150086D01*
X169522442Y-91157473D01*
X169526406Y-91168537D01*
X169530278Y-91179615D01*
X169533742Y-91189792D01*
X169536485Y-91198147D01*
X169537781Y-91202330D01*
X169540111Y-91209841D01*
X169543238Y-91219448D01*
X169546739Y-91229871D01*
X169549940Y-91239113D01*
X169557843Y-91261542D01*
X169532360Y-91329930D01*
X169526497Y-91345609D01*
X169520727Y-91360935D01*
X169515238Y-91375419D01*
X169510214Y-91388577D01*
X169505842Y-91399921D01*
X169502307Y-91408965D01*
X169499795Y-91415222D01*
X169499449Y-91416056D01*
X169495243Y-91426427D01*
X169490176Y-91439458D01*
X169484526Y-91454407D01*
X169478571Y-91470532D01*
X169472591Y-91487092D01*
X169469405Y-91496078D01*
X169466776Y-91503149D01*
X169464095Y-91509723D01*
X169462117Y-91514018D01*
X169460052Y-91518719D01*
X169457538Y-91525438D01*
X169455111Y-91532742D01*
X169455054Y-91532925D01*
X169451039Y-91545937D01*
X169349638Y-91545937D01*
X169363802Y-91545899D01*
X169374729Y-91545773D01*
X169382769Y-91545540D01*
X169388272Y-91545181D01*
X169391589Y-91544678D01*
X169393070Y-91544013D01*
X169393232Y-91543625D01*
X169392462Y-91540695D01*
X169390528Y-91536087D01*
X169389607Y-91534205D01*
X169386721Y-91528074D01*
X169383681Y-91520915D01*
X169382589Y-91518126D01*
X169380280Y-91512417D01*
X169376985Y-91504771D01*
X169373271Y-91496489D01*
X169371663Y-91493006D01*
X169367475Y-91483849D01*
X169362715Y-91473168D01*
X169358180Y-91462756D01*
X169356541Y-91458914D01*
X169349511Y-91442348D01*
X169342416Y-91425735D01*
X169335414Y-91409438D01*
X169328663Y-91393821D01*
X169322322Y-91379244D01*
X169316549Y-91366071D01*
X169311503Y-91354663D01*
X169307341Y-91345384D01*
X169304223Y-91338596D01*
X169302306Y-91334660D01*
X169302036Y-91334170D01*
X169299442Y-91328953D01*
X169296586Y-91322084D01*
X169294811Y-91317165D01*
X169291907Y-91309342D01*
X169288274Y-91300721D01*
X169285899Y-91295634D01*
X169282588Y-91288759D01*
X169279479Y-91282016D01*
X169277690Y-91277913D01*
X169274803Y-91270958D01*
X169283929Y-91252828D01*
X169288208Y-91244153D01*
X169292402Y-91235355D01*
X169295921Y-91227685D01*
X169297567Y-91223897D01*
X169299688Y-91219004D01*
X169303027Y-91211529D01*
X169307280Y-91202140D01*
X169312144Y-91191506D01*
X169317316Y-91180295D01*
X169318747Y-91177210D01*
X169331841Y-91148985D01*
X169343552Y-91123662D01*
X169354038Y-91100901D01*
X169363454Y-91080363D01*
X169367448Y-91071616D01*
X169371548Y-91062794D01*
X169375573Y-91054429D01*
X169379064Y-91047455D01*
X169381563Y-91042811D01*
X169381591Y-91042764D01*
X169384782Y-91036553D01*
X169388020Y-91029071D01*
X169389539Y-91025001D01*
X169393039Y-91014827D01*
X169350455Y-91014827D01*
X169307872Y-91014827D01*
X169278367Y-91071796D01*
X169270915Y-91086123D01*
X169263413Y-91100431D01*
X169256162Y-91114157D01*
X169249461Y-91126738D01*
X169243607Y-91137614D01*
X169238901Y-91146221D01*
X169236619Y-91150296D01*
X169231290Y-91159803D01*
X169225844Y-91169746D01*
X169220922Y-91178945D01*
X169217181Y-91186182D01*
X169212596Y-91195326D01*
X169209370Y-91201590D01*
X169207230Y-91205285D01*
X169205898Y-91206725D01*
X169205100Y-91206223D01*
X169204559Y-91204092D01*
X169204069Y-91201066D01*
X169203847Y-91197769D01*
X169203689Y-91191265D01*
X169203594Y-91181934D01*
X169203563Y-91170157D01*
X169203595Y-91156316D01*
X169203690Y-91140790D01*
X169203848Y-91123962D01*
X169204069Y-91106211D01*
X169204099Y-91104093D01*
X169205376Y-91014827D01*
X169162041Y-91014827D01*
X169118706Y-91014827D01*
X169118706Y-91280382D01*
X169118706Y-91545937D01*
X168927380Y-91545937D01*
X168928744Y-91543849D01*
X168937045Y-91530067D01*
X168948743Y-91509318D01*
X168958624Y-91490154D01*
X168967213Y-91471443D01*
X168975036Y-91452052D01*
X168981257Y-91434825D01*
X168986721Y-91418503D01*
X168991035Y-91404226D01*
X168994441Y-91390918D01*
X168997179Y-91377506D01*
X168999490Y-91362913D01*
X169001614Y-91346064D01*
X169002119Y-91341594D01*
X169004811Y-91308160D01*
X169005350Y-91280382D01*
X169005475Y-91273964D01*
X169004112Y-91238173D01*
X169002164Y-91213926D01*
X168998398Y-91181919D01*
X168993344Y-91152435D01*
X168986761Y-91124561D01*
X168978410Y-91097388D01*
X168968048Y-91070004D01*
X168958200Y-91047441D01*
X168948772Y-91027878D01*
X168938821Y-91008971D01*
X168928782Y-90991484D01*
X168919084Y-90976185D01*
X168913361Y-90968033D01*
X168907533Y-90960092D01*
X168900851Y-90950930D01*
X168894553Y-90942244D01*
X168893197Y-90940364D01*
X168887526Y-90933116D01*
X168879735Y-90924045D01*
X168870378Y-90913724D01*
X168860006Y-90902726D01*
X168849172Y-90891624D01*
X168838427Y-90880992D01*
X168828323Y-90871402D01*
X168819412Y-90863428D01*
X168817713Y-90861986D01*
X168811667Y-90856750D01*
X168806813Y-90852229D01*
X168803725Y-90848978D01*
X168802910Y-90847675D01*
X168804154Y-90846088D01*
X168807738Y-90842211D01*
X168813436Y-90836267D01*
X168821026Y-90828478D01*
X168830284Y-90819066D01*
X168840985Y-90808253D01*
X168852907Y-90796262D01*
X168865824Y-90783315D01*
X168879514Y-90769633D01*
X168893752Y-90755440D01*
X168908315Y-90740958D01*
X168922978Y-90726408D01*
X168937518Y-90712013D01*
X168951711Y-90697995D01*
X168965334Y-90684576D01*
X168978162Y-90671979D01*
X168989971Y-90660426D01*
X169000538Y-90650139D01*
X169009639Y-90641340D01*
X169017050Y-90634252D01*
X169022547Y-90629096D01*
X169025906Y-90626096D01*
X169026748Y-90625452D01*
X169030446Y-90623642D01*
X169032457Y-90623395D01*
X169032580Y-90623661D01*
X169034080Y-90625754D01*
X169038347Y-90629401D01*
X169045028Y-90634380D01*
X169053771Y-90640471D01*
X169064222Y-90647452D01*
X169076029Y-90655102D01*
X169088840Y-90663200D01*
X169102302Y-90671525D01*
X169116063Y-90679856D01*
X169129770Y-90687971D01*
X169143071Y-90695649D01*
X169155612Y-90702670D01*
X169167043Y-90708812D01*
X169173963Y-90712355D01*
X169187728Y-90718981D01*
X169203368Y-90726089D01*
X169220457Y-90733517D01*
X169238568Y-90741103D01*
X169257275Y-90748685D01*
X169276152Y-90756101D01*
X169294773Y-90763189D01*
X169312712Y-90769787D01*
X169329542Y-90775733D01*
X169344837Y-90780864D01*
X169358172Y-90785019D01*
X169369119Y-90788036D01*
X169377254Y-90789753D01*
X169377742Y-90789826D01*
X169383372Y-90790856D01*
X169390771Y-90792507D01*
X169397718Y-90794260D01*
X169406665Y-90796430D01*
X169417273Y-90798635D01*
X169428623Y-90800723D01*
X169439797Y-90802539D01*
X169449876Y-90803932D01*
X169457942Y-90804747D01*
X169461488Y-90804895D01*
X169466743Y-90805183D01*
X169470325Y-90805918D01*
X169471116Y-90806416D01*
X169473169Y-90807112D01*
X169478084Y-90807898D01*
X169485135Y-90808682D01*
X169493600Y-90809368D01*
X169494099Y-90809401D01*
X169503160Y-90810003D01*
X169511380Y-90810549D01*
X169517835Y-90810978D01*
X169521524Y-90811224D01*
X169557762Y-90812990D01*
X169592351Y-90813260D01*
X169626248Y-90811976D01*
X169660409Y-90809080D01*
X169695794Y-90804514D01*
X169732354Y-90798403D01*
X169775744Y-90789351D01*
X169817652Y-90778312D01*
X169858660Y-90765071D01*
X169899354Y-90749413D01*
X169940318Y-90731124D01*
X169982136Y-90709987D01*
X170001497Y-90699429D01*
X170022630Y-90687479D01*
X170041037Y-90676666D01*
X170057266Y-90666647D01*
X170071859Y-90657079D01*
X170085363Y-90647619D01*
X170094388Y-90640931D01*
X170102633Y-90634726D01*
X170110105Y-90629180D01*
X170116239Y-90624706D01*
X170120472Y-90621716D01*
X170121981Y-90620739D01*
X170125791Y-90618227D01*
X170127608Y-90616702D01*
X170130492Y-90615028D01*
X170134172Y-90615501D01*
G37*
G36*
X171247703Y-90477137D02*
G01*
X171250347Y-90480045D01*
X171255473Y-90485374D01*
X171262994Y-90493036D01*
X171272822Y-90502945D01*
X171284870Y-90515015D01*
X171299052Y-90529159D01*
X171315280Y-90545291D01*
X171333468Y-90563326D01*
X171353528Y-90583175D01*
X171375373Y-90604754D01*
X171398917Y-90627976D01*
X171424072Y-90652754D01*
X171450751Y-90679002D01*
X171478868Y-90706634D01*
X171490311Y-90717872D01*
X171514136Y-90741287D01*
X171535767Y-90762590D01*
X171555162Y-90781741D01*
X171572281Y-90798698D01*
X171587085Y-90813423D01*
X171599532Y-90825874D01*
X171609582Y-90836013D01*
X171617195Y-90843797D01*
X171622332Y-90849187D01*
X171624951Y-90852144D01*
X171625304Y-90852709D01*
X171624654Y-90854891D01*
X171622408Y-90857458D01*
X171618006Y-90860954D01*
X171613669Y-90864019D01*
X171603378Y-90871416D01*
X171591058Y-90880747D01*
X171577319Y-90891516D01*
X171562771Y-90903229D01*
X171548026Y-90915387D01*
X171533693Y-90927496D01*
X171520384Y-90939058D01*
X171510926Y-90947542D01*
X171487002Y-90970460D01*
X171466088Y-90992893D01*
X171447763Y-91015404D01*
X171431604Y-91038556D01*
X171417192Y-91062911D01*
X171404103Y-91089032D01*
X171402752Y-91091981D01*
X171396390Y-91106458D01*
X171391077Y-91119760D01*
X171386505Y-91132837D01*
X171382365Y-91146638D01*
X171378350Y-91162112D01*
X171374221Y-91179902D01*
X171367399Y-91218194D01*
X171364002Y-91256283D01*
X171363998Y-91293979D01*
X171367356Y-91331089D01*
X171374045Y-91367424D01*
X171384034Y-91402793D01*
X171397292Y-91437005D01*
X171413787Y-91469870D01*
X171424492Y-91487716D01*
X171433175Y-91501010D01*
X171441458Y-91512886D01*
X171449766Y-91523805D01*
X171458520Y-91534232D01*
X171468144Y-91544629D01*
X171479060Y-91555458D01*
X171491691Y-91567182D01*
X171506461Y-91580265D01*
X171518757Y-91590871D01*
X171531867Y-91602085D01*
X171542750Y-91611370D01*
X171551906Y-91619133D01*
X171559832Y-91625778D01*
X171567030Y-91631711D01*
X171573997Y-91637339D01*
X171581232Y-91643066D01*
X171589236Y-91649298D01*
X171598506Y-91656440D01*
X171609542Y-91664899D01*
X171614929Y-91669022D01*
X171620741Y-91673791D01*
X171623692Y-91677515D01*
X171623954Y-91681074D01*
X171621695Y-91685348D01*
X171618795Y-91689124D01*
X171615115Y-91693427D01*
X171609571Y-91699603D01*
X171602800Y-91706954D01*
X171595441Y-91714782D01*
X171592189Y-91718191D01*
X171583904Y-91726852D01*
X171575065Y-91736129D01*
X171566609Y-91745035D01*
X171559476Y-91752583D01*
X171558046Y-91754103D01*
X171553683Y-91758708D01*
X171547171Y-91765527D01*
X171538859Y-91774198D01*
X171529097Y-91784358D01*
X171518232Y-91795643D01*
X171506614Y-91807692D01*
X171494592Y-91820141D01*
X171488966Y-91825961D01*
X171475770Y-91839615D01*
X171461882Y-91854009D01*
X171447821Y-91868601D01*
X171434109Y-91882849D01*
X171421267Y-91896212D01*
X171409816Y-91908149D01*
X171400276Y-91918117D01*
X171399251Y-91919191D01*
X171382764Y-91936456D01*
X171368377Y-91951508D01*
X171355717Y-91964737D01*
X171344412Y-91976529D01*
X171334087Y-91987271D01*
X171324371Y-91997353D01*
X171314889Y-92007161D01*
X171305269Y-92017083D01*
X171295137Y-92027507D01*
X171284121Y-92038820D01*
X171283509Y-92039448D01*
X171245839Y-92078106D01*
X171216233Y-92054107D01*
X171197952Y-92039369D01*
X171182238Y-92026878D01*
X171168948Y-92016523D01*
X171157941Y-92008196D01*
X171149077Y-92001787D01*
X171143634Y-91998099D01*
X171137185Y-91993854D01*
X171129420Y-91988672D01*
X171121980Y-91983648D01*
X171121726Y-91983475D01*
X171079736Y-91956482D01*
X171037014Y-91932142D01*
X170993880Y-91910598D01*
X170950651Y-91891991D01*
X170907648Y-91876466D01*
X170865189Y-91864165D01*
X170843918Y-91859193D01*
X170834997Y-91857431D01*
X170823570Y-91855394D01*
X170810687Y-91853260D01*
X170797402Y-91851202D01*
X170786500Y-91849634D01*
X170777180Y-91848369D01*
X170769049Y-91847342D01*
X170761589Y-91846527D01*
X170754281Y-91845902D01*
X170746605Y-91845444D01*
X170738042Y-91845127D01*
X170728072Y-91844929D01*
X170716177Y-91844827D01*
X170701836Y-91844795D01*
X170684531Y-91844812D01*
X170680637Y-91844819D01*
X170610660Y-91844951D01*
X170567019Y-91851542D01*
X170553922Y-91853582D01*
X170541108Y-91855688D01*
X170529296Y-91857734D01*
X170519208Y-91859595D01*
X170511563Y-91861142D01*
X170508704Y-91861803D01*
X170492864Y-91865993D01*
X170475917Y-91870880D01*
X170458607Y-91876216D01*
X170441680Y-91881759D01*
X170425879Y-91887262D01*
X170411948Y-91892481D01*
X170400634Y-91897170D01*
X170398933Y-91897938D01*
X170390063Y-91901978D01*
X170381931Y-91905618D01*
X170375302Y-91908521D01*
X170370943Y-91910348D01*
X170370224Y-91910624D01*
X170365436Y-91912668D01*
X170358294Y-91916079D01*
X170349564Y-91920454D01*
X170340017Y-91925393D01*
X170330421Y-91930494D01*
X170321544Y-91935357D01*
X170314156Y-91939581D01*
X170310622Y-91941726D01*
X170290256Y-91954770D01*
X170270217Y-91968010D01*
X170250924Y-91981146D01*
X170232798Y-91993880D01*
X170216259Y-92005914D01*
X170201727Y-92016950D01*
X170189622Y-92026688D01*
X170183399Y-92032052D01*
X170176027Y-92038491D01*
X170166291Y-92046759D01*
X170154653Y-92056469D01*
X170141573Y-92067236D01*
X170136786Y-92071145D01*
X170127516Y-92078699D01*
X170108916Y-92059749D01*
X170096810Y-92048075D01*
X170082213Y-92035084D01*
X170065738Y-92021259D01*
X170047999Y-92007081D01*
X170029607Y-91993032D01*
X170011178Y-91979595D01*
X169993325Y-91967252D01*
X169980863Y-91959117D01*
X169958030Y-91945355D01*
X169933378Y-91931778D01*
X169907510Y-91918651D01*
X169881030Y-91906237D01*
X169854539Y-91894799D01*
X169828641Y-91884602D01*
X169803940Y-91875909D01*
X169781038Y-91868984D01*
X169766445Y-91865339D01*
X169735102Y-91858642D01*
X169706335Y-91853212D01*
X169679396Y-91848970D01*
X169653535Y-91845833D01*
X169628003Y-91843719D01*
X169602053Y-91842548D01*
X169574935Y-91842238D01*
X169556365Y-91842458D01*
X169531557Y-91843268D01*
X169508168Y-91844750D01*
X169485104Y-91847020D01*
X169461266Y-91850193D01*
X169435561Y-91854385D01*
X169424861Y-91856308D01*
X169401025Y-91861413D01*
X169375064Y-91868272D01*
X169347801Y-91876597D01*
X169320065Y-91886104D01*
X169292681Y-91896506D01*
X169266475Y-91907517D01*
X169242274Y-91918850D01*
X169238026Y-91920989D01*
X169223254Y-91928751D01*
X169207777Y-91937308D01*
X169192123Y-91946334D01*
X169176824Y-91955501D01*
X169162410Y-91964483D01*
X169149412Y-91972954D01*
X169138358Y-91980589D01*
X169129781Y-91987059D01*
X169127301Y-91989128D01*
X169122862Y-91992751D01*
X169116416Y-91997729D01*
X169108893Y-92003354D01*
X169102551Y-92007968D01*
X169094255Y-92014002D01*
X169085697Y-92020363D01*
X169078055Y-92026171D01*
X169073799Y-92029499D01*
X169068481Y-92033739D01*
X169061128Y-92039596D01*
X169052517Y-92046453D01*
X169043421Y-92053693D01*
X169038146Y-92057890D01*
X169013740Y-92077309D01*
X169007460Y-92070304D01*
X169004952Y-92067600D01*
X169000231Y-92062602D01*
X168993574Y-92055601D01*
X168985259Y-92046886D01*
X168975561Y-92036747D01*
X168964759Y-92025475D01*
X168953129Y-92013359D01*
X168941968Y-92001749D01*
X168929021Y-91988262D01*
X168915993Y-91974634D01*
X168903270Y-91961276D01*
X168891241Y-91948595D01*
X168880293Y-91937002D01*
X168870813Y-91926906D01*
X168863190Y-91918715D01*
X168859430Y-91914624D01*
X168852108Y-91906676D01*
X168842844Y-91896743D01*
X168832195Y-91885417D01*
X168820718Y-91873288D01*
X168808971Y-91860947D01*
X168797513Y-91848984D01*
X168794836Y-91846202D01*
X168762149Y-91812147D01*
X168727358Y-91775674D01*
X168690727Y-91737060D01*
X168659143Y-91703612D01*
X168640978Y-91684338D01*
X168687741Y-91684338D01*
X168706326Y-91703506D01*
X168711742Y-91709144D01*
X168719209Y-91716993D01*
X168728336Y-91726639D01*
X168738732Y-91737667D01*
X168750005Y-91749659D01*
X168761763Y-91762202D01*
X168773614Y-91774878D01*
X168775969Y-91777401D01*
X168789769Y-91792137D01*
X168805279Y-91808602D01*
X168821763Y-91826022D01*
X168838484Y-91843620D01*
X168854708Y-91860623D01*
X168869698Y-91876256D01*
X168878217Y-91885094D01*
X168894880Y-91902357D01*
X168912027Y-91920160D01*
X168929259Y-91938087D01*
X168946176Y-91955722D01*
X168962379Y-91972646D01*
X168977468Y-91988444D01*
X168991044Y-92002697D01*
X169002707Y-92014989D01*
X169007421Y-92019977D01*
X169012245Y-92024855D01*
X169016267Y-92028495D01*
X169018775Y-92030264D01*
X169019084Y-92030339D01*
X169021330Y-92029126D01*
X169024977Y-92026103D01*
X169027110Y-92024059D01*
X169030970Y-92020438D01*
X169033852Y-92018194D01*
X169034661Y-92017836D01*
X169036467Y-92016737D01*
X169040429Y-92013733D01*
X169045991Y-92009264D01*
X169052591Y-92003770D01*
X169053588Y-92002926D01*
X169072958Y-91986965D01*
X169092207Y-91972134D01*
X169112030Y-91957957D01*
X169133116Y-91943958D01*
X169156159Y-91929660D01*
X169181850Y-91914587D01*
X169182567Y-91914176D01*
X169206939Y-91900651D01*
X169230471Y-91888542D01*
X169254121Y-91877411D01*
X169278844Y-91866818D01*
X169305598Y-91856327D01*
X169322358Y-91850140D01*
X169341819Y-91843758D01*
X169364688Y-91837457D01*
X169390786Y-91831279D01*
X169419933Y-91825266D01*
X169451948Y-91819460D01*
X169460518Y-91818022D01*
X169503426Y-91812457D01*
X169548271Y-91809557D01*
X169594595Y-91809316D01*
X169641938Y-91811726D01*
X169689842Y-91816783D01*
X169721588Y-91821574D01*
X169751277Y-91827545D01*
X169782714Y-91835600D01*
X169814980Y-91845427D01*
X169847153Y-91856712D01*
X169878313Y-91869142D01*
X169907539Y-91882403D01*
X169922549Y-91889986D01*
X169946803Y-91902907D01*
X169968116Y-91914595D01*
X169986835Y-91925253D01*
X170003307Y-91935085D01*
X170017879Y-91944296D01*
X170030898Y-91953090D01*
X170035582Y-91956416D01*
X170043577Y-91962162D01*
X170052964Y-91968888D01*
X170062213Y-91975497D01*
X170066076Y-91978251D01*
X170073229Y-91983557D01*
X170082153Y-91990492D01*
X170091920Y-91998320D01*
X170101604Y-92006303D01*
X170106042Y-92010051D01*
X170113887Y-92016658D01*
X170120848Y-92022368D01*
X170126448Y-92026800D01*
X170130208Y-92029574D01*
X170131584Y-92030345D01*
X170133614Y-92029278D01*
X170137738Y-92026351D01*
X170143320Y-92022034D01*
X170148629Y-92017713D01*
X170160068Y-92008383D01*
X170172868Y-91998243D01*
X170186406Y-91987766D01*
X170200054Y-91977421D01*
X170213188Y-91967682D01*
X170225181Y-91959018D01*
X170235408Y-91951902D01*
X170240331Y-91948640D01*
X170249665Y-91942619D01*
X170259926Y-91936004D01*
X170269641Y-91929745D01*
X170275127Y-91926213D01*
X170290660Y-91916749D01*
X170308700Y-91906645D01*
X170328336Y-91896355D01*
X170348656Y-91886330D01*
X170368750Y-91877023D01*
X170387706Y-91868885D01*
X170401625Y-91863452D01*
X170410413Y-91860173D01*
X170418678Y-91857015D01*
X170425439Y-91854357D01*
X170429436Y-91852701D01*
X170437504Y-91849616D01*
X170448507Y-91846077D01*
X170461841Y-91842230D01*
X170476904Y-91838223D01*
X170493093Y-91834200D01*
X170509804Y-91830309D01*
X170526434Y-91826696D01*
X170542381Y-91823508D01*
X170557040Y-91820891D01*
X170566372Y-91819455D01*
X170584829Y-91817132D01*
X170605714Y-91814978D01*
X170627870Y-91813092D01*
X170650138Y-91811571D01*
X170671359Y-91810514D01*
X170671666Y-91810503D01*
X170698181Y-91810283D01*
X170727132Y-91811491D01*
X170757709Y-91814024D01*
X170789099Y-91817781D01*
X170820493Y-91822661D01*
X170851080Y-91828561D01*
X170880049Y-91835380D01*
X170888649Y-91837685D01*
X170905427Y-91842692D01*
X170924401Y-91848971D01*
X170944674Y-91856183D01*
X170965347Y-91863984D01*
X170985522Y-91872032D01*
X171004301Y-91879986D01*
X171020784Y-91887504D01*
X171025374Y-91889735D01*
X171039618Y-91897003D01*
X171055442Y-91905446D01*
X171072097Y-91914636D01*
X171088834Y-91924144D01*
X171104902Y-91933543D01*
X171119553Y-91942404D01*
X171132037Y-91950298D01*
X171136387Y-91953178D01*
X171145494Y-91959452D01*
X171156662Y-91967365D01*
X171169154Y-91976375D01*
X171182230Y-91985938D01*
X171195151Y-91995510D01*
X171207176Y-92004548D01*
X171217568Y-92012508D01*
X171224057Y-92017615D01*
X171231782Y-92023526D01*
X171237629Y-92027408D01*
X171241309Y-92029079D01*
X171242250Y-92029029D01*
X171244033Y-92027419D01*
X171248146Y-92023343D01*
X171254452Y-92016942D01*
X171262817Y-92008358D01*
X171273105Y-91997731D01*
X171285179Y-91985202D01*
X171298903Y-91970914D01*
X171314141Y-91955006D01*
X171330759Y-91937620D01*
X171348619Y-91918897D01*
X171367585Y-91898979D01*
X171374103Y-91892126D01*
X171383593Y-91882168D01*
X171392886Y-91872459D01*
X171401507Y-91863490D01*
X171408985Y-91855751D01*
X171414848Y-91849733D01*
X171418063Y-91846481D01*
X171422168Y-91842320D01*
X171428301Y-91836015D01*
X171436018Y-91828025D01*
X171444876Y-91818811D01*
X171454435Y-91808831D01*
X171464249Y-91798546D01*
X171464735Y-91798035D01*
X171474442Y-91787865D01*
X171483817Y-91778087D01*
X171492439Y-91769135D01*
X171499889Y-91761445D01*
X171505745Y-91755453D01*
X171509588Y-91751594D01*
X171509803Y-91751384D01*
X171513801Y-91747399D01*
X171519763Y-91741352D01*
X171527170Y-91733773D01*
X171535506Y-91725191D01*
X171544253Y-91716138D01*
X171547153Y-91713125D01*
X171556448Y-91703390D01*
X171563446Y-91695878D01*
X171568398Y-91690280D01*
X171571555Y-91686290D01*
X171573168Y-91683602D01*
X171573487Y-91681909D01*
X171573189Y-91681276D01*
X171570492Y-91679087D01*
X171569240Y-91678715D01*
X171567152Y-91677592D01*
X171563153Y-91674596D01*
X171557971Y-91670285D01*
X171555819Y-91668398D01*
X171548710Y-91662276D01*
X171540293Y-91655326D01*
X171532150Y-91648848D01*
X171530500Y-91647576D01*
X171512459Y-91633082D01*
X171493743Y-91616801D01*
X171475050Y-91599410D01*
X171457074Y-91581586D01*
X171440511Y-91564004D01*
X171426059Y-91547343D01*
X171421236Y-91541356D01*
X171401197Y-91513414D01*
X171383179Y-91483317D01*
X171367434Y-91451654D01*
X171354213Y-91419017D01*
X171343768Y-91385995D01*
X171336349Y-91353179D01*
X171333723Y-91336005D01*
X171331026Y-91308439D01*
X171329730Y-91280224D01*
X171329818Y-91252216D01*
X171331274Y-91225270D01*
X171334080Y-91200242D01*
X171336646Y-91185285D01*
X171339892Y-91171020D01*
X171344309Y-91154496D01*
X171349581Y-91136718D01*
X171355390Y-91118693D01*
X171361421Y-91101426D01*
X171367357Y-91085923D01*
X171369641Y-91080425D01*
X171373870Y-91071382D01*
X171379662Y-91060200D01*
X171386542Y-91047696D01*
X171394034Y-91034684D01*
X171401663Y-91021980D01*
X171408956Y-91010400D01*
X171415435Y-91000760D01*
X171418462Y-90996604D01*
X171422266Y-90991419D01*
X171425019Y-90987336D01*
X171426160Y-90985190D01*
X171426165Y-90985136D01*
X171427319Y-90983129D01*
X171430182Y-90979797D01*
X171431100Y-90978850D01*
X171435088Y-90974649D01*
X171440045Y-90969180D01*
X171443211Y-90965571D01*
X171447118Y-90961277D01*
X171452915Y-90955198D01*
X171459914Y-90948043D01*
X171467425Y-90940522D01*
X171469936Y-90938045D01*
X171477398Y-90930710D01*
X171484548Y-90923683D01*
X171490716Y-90917621D01*
X171495234Y-90913181D01*
X171496330Y-90912104D01*
X171500501Y-90908324D01*
X171503818Y-90905883D01*
X171505043Y-90905375D01*
X171506845Y-90904259D01*
X171506909Y-90903869D01*
X171508254Y-90902127D01*
X171511870Y-90898785D01*
X171517131Y-90894357D01*
X171523409Y-90889357D01*
X171530077Y-90884300D01*
X171535706Y-90880255D01*
X171540232Y-90876949D01*
X171546523Y-90872086D01*
X171554861Y-90865443D01*
X171565529Y-90856795D01*
X171570856Y-90852443D01*
X171575240Y-90848855D01*
X171528956Y-90803100D01*
X171510550Y-90784923D01*
X171491060Y-90765709D01*
X171470775Y-90745740D01*
X171449983Y-90725299D01*
X171428975Y-90704671D01*
X171408038Y-90684137D01*
X171387463Y-90663980D01*
X171367537Y-90644485D01*
X171348551Y-90625934D01*
X171330793Y-90608609D01*
X171314552Y-90592795D01*
X171300118Y-90578774D01*
X171287779Y-90566829D01*
X171281708Y-90560975D01*
X171270239Y-90549930D01*
X171261081Y-90541123D01*
X171253947Y-90534317D01*
X171248547Y-90529276D01*
X171244595Y-90525765D01*
X171241801Y-90523547D01*
X171239879Y-90522386D01*
X171238538Y-90522045D01*
X171237492Y-90522288D01*
X171236453Y-90522880D01*
X171235735Y-90523293D01*
X171230185Y-90526861D01*
X171222222Y-90532952D01*
X171211924Y-90541505D01*
X171201879Y-90550236D01*
X171182715Y-90566079D01*
X171160695Y-90582398D01*
X171136444Y-90598785D01*
X171110584Y-90614838D01*
X171083740Y-90630148D01*
X171059233Y-90642970D01*
X171025398Y-90659270D01*
X170993208Y-90673433D01*
X170961744Y-90685832D01*
X170930083Y-90696841D01*
X170912101Y-90702483D01*
X170888397Y-90709371D01*
X170866124Y-90715200D01*
X170844366Y-90720156D01*
X170822207Y-90724423D01*
X170798732Y-90728186D01*
X170773026Y-90731628D01*
X170759586Y-90733225D01*
X170748465Y-90734448D01*
X170738711Y-90735364D01*
X170729556Y-90736001D01*
X170720230Y-90736385D01*
X170709966Y-90736544D01*
X170697993Y-90736504D01*
X170683544Y-90736293D01*
X170676151Y-90736152D01*
X170649433Y-90735361D01*
X170625265Y-90734042D01*
X170602632Y-90732079D01*
X170580520Y-90729354D01*
X170557913Y-90725750D01*
X170533796Y-90721149D01*
X170518632Y-90717960D01*
X170497353Y-90713257D01*
X170478879Y-90708924D01*
X170462472Y-90704756D01*
X170447397Y-90700544D01*
X170432915Y-90696083D01*
X170418290Y-90691166D01*
X170402785Y-90685586D01*
X170401625Y-90685157D01*
X170392223Y-90681628D01*
X170384228Y-90678492D01*
X170376323Y-90675211D01*
X170367195Y-90671246D01*
X170361253Y-90668613D01*
X170354868Y-90665831D01*
X170347812Y-90662840D01*
X170346002Y-90662089D01*
X170341106Y-90659931D01*
X170337765Y-90658199D01*
X170337030Y-90657657D01*
X170335120Y-90656410D01*
X170330772Y-90654009D01*
X170324770Y-90650880D01*
X170321779Y-90649368D01*
X170314349Y-90645537D01*
X170305057Y-90640581D01*
X170295148Y-90635173D01*
X170286790Y-90630507D01*
X170276955Y-90624956D01*
X170266233Y-90618926D01*
X170256048Y-90613215D01*
X170249110Y-90609340D01*
X170240116Y-90604046D01*
X170230488Y-90597920D01*
X170221790Y-90591973D01*
X170218607Y-90589634D01*
X170205756Y-90579900D01*
X170193840Y-90570911D01*
X170183181Y-90562908D01*
X170174102Y-90556132D01*
X170166927Y-90550824D01*
X170161978Y-90547225D01*
X170159649Y-90545620D01*
X170156770Y-90543577D01*
X170152195Y-90540038D01*
X170147535Y-90536276D01*
X170139368Y-90530020D01*
X170132862Y-90526409D01*
X170127321Y-90525383D01*
X170122052Y-90526880D01*
X170116360Y-90530837D01*
X170113624Y-90533267D01*
X170104668Y-90541170D01*
X170093440Y-90550469D01*
X170080666Y-90560612D01*
X170067072Y-90571051D01*
X170053383Y-90581235D01*
X170040326Y-90590614D01*
X170028625Y-90598638D01*
X170020337Y-90603953D01*
X170013732Y-90607884D01*
X170004631Y-90613146D01*
X169993664Y-90619390D01*
X169981457Y-90626267D01*
X169968639Y-90633427D01*
X169955835Y-90640521D01*
X169943674Y-90647201D01*
X169932783Y-90653117D01*
X169923790Y-90657919D01*
X169917656Y-90661093D01*
X169904324Y-90667347D01*
X169888178Y-90674207D01*
X169869894Y-90681433D01*
X169850148Y-90688787D01*
X169829614Y-90696031D01*
X169808967Y-90702925D01*
X169788882Y-90709232D01*
X169770035Y-90714714D01*
X169753885Y-90718940D01*
X169730334Y-90724497D01*
X169709095Y-90729061D01*
X169689440Y-90732711D01*
X169670640Y-90735527D01*
X169651967Y-90737589D01*
X169632692Y-90738974D01*
X169612087Y-90739763D01*
X169589423Y-90740035D01*
X169563972Y-90739870D01*
X169561896Y-90739842D01*
X169541842Y-90739497D01*
X169524667Y-90739028D01*
X169509664Y-90738358D01*
X169496125Y-90737415D01*
X169483340Y-90736125D01*
X169470601Y-90734414D01*
X169457201Y-90732208D01*
X169442431Y-90729434D01*
X169425582Y-90726017D01*
X169421941Y-90725259D01*
X169404700Y-90721624D01*
X169390333Y-90718507D01*
X169378192Y-90715737D01*
X169367628Y-90713148D01*
X169357993Y-90710569D01*
X169348639Y-90707835D01*
X169338918Y-90704775D01*
X169328180Y-90701221D01*
X169324298Y-90699910D01*
X169310328Y-90695166D01*
X169299388Y-90691425D01*
X169291106Y-90688553D01*
X169285109Y-90686413D01*
X169281024Y-90684871D01*
X169278479Y-90683792D01*
X169277101Y-90683039D01*
X169276585Y-90682577D01*
X169274327Y-90681291D01*
X169270828Y-90680158D01*
X169266439Y-90678364D01*
X169263897Y-90676427D01*
X169260580Y-90674235D01*
X169258875Y-90673911D01*
X169255684Y-90673104D01*
X169250745Y-90671040D01*
X169247514Y-90669426D01*
X169242504Y-90666899D01*
X169238770Y-90665272D01*
X169237577Y-90664940D01*
X169235457Y-90664104D01*
X169230689Y-90661772D01*
X169223758Y-90658202D01*
X169215144Y-90653656D01*
X169205329Y-90648395D01*
X169194797Y-90642678D01*
X169184029Y-90636765D01*
X169173507Y-90630919D01*
X169163713Y-90625398D01*
X169155130Y-90620463D01*
X169153694Y-90619625D01*
X169143700Y-90613677D01*
X169134424Y-90607933D01*
X169125335Y-90602026D01*
X169115902Y-90595588D01*
X169105593Y-90588250D01*
X169093879Y-90579645D01*
X169080227Y-90569406D01*
X169070285Y-90561869D01*
X169057369Y-90552062D01*
X169046983Y-90544235D01*
X169038807Y-90538184D01*
X169032523Y-90533708D01*
X169027811Y-90530603D01*
X169024350Y-90528667D01*
X169021823Y-90527698D01*
X169019909Y-90527493D01*
X169018289Y-90527849D01*
X169017281Y-90528269D01*
X169016041Y-90528980D01*
X169014276Y-90530265D01*
X169011863Y-90532243D01*
X169008683Y-90535030D01*
X169004614Y-90538746D01*
X168999535Y-90543508D01*
X168993327Y-90549434D01*
X168985869Y-90556642D01*
X168977038Y-90565250D01*
X168966716Y-90575377D01*
X168954781Y-90587139D01*
X168941112Y-90600655D01*
X168925588Y-90616043D01*
X168908090Y-90633421D01*
X168888496Y-90652907D01*
X168866685Y-90674618D01*
X168842537Y-90698673D01*
X168825523Y-90715629D01*
X168807054Y-90734058D01*
X168789352Y-90751764D01*
X168772578Y-90768583D01*
X168756891Y-90784355D01*
X168742451Y-90798915D01*
X168729418Y-90812103D01*
X168717951Y-90823756D01*
X168708212Y-90833711D01*
X168700359Y-90841808D01*
X168694553Y-90847883D01*
X168690954Y-90851775D01*
X168689721Y-90853320D01*
X168689741Y-90853341D01*
X168692406Y-90854445D01*
X168696500Y-90857254D01*
X168698842Y-90859172D01*
X168703696Y-90863370D01*
X168709915Y-90868726D01*
X168716031Y-90873975D01*
X168734282Y-90889686D01*
X168750044Y-90903434D01*
X168763625Y-90915505D01*
X168775332Y-90926186D01*
X168785472Y-90935763D01*
X168794353Y-90944523D01*
X168802282Y-90952751D01*
X168809567Y-90960733D01*
X168811383Y-90962792D01*
X168822573Y-90976008D01*
X168833874Y-90990163D01*
X168844806Y-91004602D01*
X168854890Y-91018667D01*
X168863646Y-91031701D01*
X168870597Y-91043047D01*
X168872716Y-91046875D01*
X168874888Y-91050557D01*
X168876405Y-91052507D01*
X168878349Y-91054975D01*
X168881033Y-91059548D01*
X168883970Y-91065227D01*
X168886676Y-91071014D01*
X168888664Y-91075910D01*
X168889447Y-91078916D01*
X168889410Y-91079223D01*
X168889543Y-91080844D01*
X168890297Y-91080648D01*
X168891359Y-91081938D01*
X168893372Y-91086098D01*
X168896137Y-91092599D01*
X168899454Y-91100911D01*
X168903124Y-91110505D01*
X168906947Y-91120852D01*
X168910723Y-91131424D01*
X168914253Y-91141689D01*
X168917337Y-91151120D01*
X168919280Y-91157473D01*
X168921100Y-91164386D01*
X168923233Y-91173570D01*
X168925396Y-91183759D01*
X168927083Y-91192462D01*
X168928330Y-91199570D01*
X168929296Y-91206073D01*
X168930014Y-91212576D01*
X168930518Y-91219685D01*
X168930840Y-91228002D01*
X168931013Y-91238134D01*
X168931071Y-91250684D01*
X168931050Y-91265131D01*
X168930985Y-91280226D01*
X168930863Y-91292348D01*
X168930644Y-91302113D01*
X168930286Y-91310137D01*
X168929748Y-91317037D01*
X168928988Y-91323427D01*
X168927965Y-91329924D01*
X168926637Y-91337143D01*
X168925988Y-91340491D01*
X168917055Y-91380408D01*
X168906471Y-91417161D01*
X168894226Y-91450779D01*
X168880309Y-91481292D01*
X168864710Y-91508728D01*
X168860367Y-91515376D01*
X168846797Y-91534222D01*
X168830885Y-91554077D01*
X168813377Y-91574126D01*
X168795018Y-91593552D01*
X168776556Y-91611538D01*
X168758736Y-91627268D01*
X168756123Y-91629416D01*
X168747826Y-91636191D01*
X168738266Y-91644036D01*
X168728938Y-91651723D01*
X168724508Y-91655389D01*
X168716805Y-91661707D01*
X168708884Y-91668085D01*
X168701844Y-91673645D01*
X168698011Y-91676592D01*
X168687741Y-91684338D01*
X168640978Y-91684338D01*
X168634696Y-91677672D01*
X168650877Y-91666082D01*
X168660406Y-91659186D01*
X168671900Y-91650758D01*
X168684478Y-91641453D01*
X168697257Y-91631926D01*
X168709358Y-91622832D01*
X168719898Y-91614824D01*
X168721165Y-91613854D01*
X168728053Y-91608157D01*
X168736769Y-91600320D01*
X168746764Y-91590892D01*
X168757492Y-91580423D01*
X168768403Y-91569462D01*
X168778949Y-91558560D01*
X168788584Y-91548265D01*
X168796759Y-91539127D01*
X168802308Y-91532480D01*
X168814534Y-91516835D01*
X168824762Y-91503153D01*
X168833417Y-91490749D01*
X168840923Y-91478938D01*
X168847702Y-91467033D01*
X168854179Y-91454349D01*
X168860777Y-91440200D01*
X168864413Y-91432000D01*
X168873839Y-91409362D01*
X168881484Y-91388335D01*
X168887484Y-91368193D01*
X168891973Y-91348208D01*
X168895088Y-91327655D01*
X168896963Y-91305808D01*
X168897735Y-91281940D01*
X168897539Y-91255326D01*
X168897523Y-91254608D01*
X168897017Y-91238133D01*
X168896251Y-91224221D01*
X168895093Y-91211845D01*
X168893412Y-91199981D01*
X168891075Y-91187606D01*
X168887951Y-91173693D01*
X168886201Y-91166445D01*
X168881815Y-91149619D01*
X168877331Y-91134952D01*
X168872261Y-91121081D01*
X168866116Y-91106648D01*
X168860109Y-91093807D01*
X168852144Y-91077590D01*
X168844971Y-91063813D01*
X168838062Y-91051580D01*
X168830888Y-91039994D01*
X168822921Y-91028160D01*
X168814232Y-91016001D01*
X168804415Y-91002988D01*
X168794200Y-90990396D01*
X168783317Y-90977973D01*
X168771498Y-90965466D01*
X168758473Y-90952623D01*
X168743973Y-90939191D01*
X168727728Y-90924919D01*
X168709470Y-90909553D01*
X168688929Y-90892841D01*
X168665836Y-90874531D01*
X168650938Y-90862903D01*
X168641613Y-90855659D01*
X168770259Y-90727475D01*
X168789763Y-90708046D01*
X168809688Y-90688204D01*
X168829740Y-90668244D01*
X168849624Y-90648459D01*
X168869046Y-90629140D01*
X168887711Y-90610580D01*
X168905325Y-90593074D01*
X168921593Y-90576913D01*
X168936220Y-90562390D01*
X168948913Y-90549798D01*
X168959376Y-90539431D01*
X168959911Y-90538901D01*
X169020917Y-90478510D01*
X169027285Y-90484253D01*
X169029503Y-90486235D01*
X169032006Y-90488424D01*
X169035138Y-90491109D01*
X169039246Y-90494581D01*
X169044672Y-90499129D01*
X169051763Y-90505042D01*
X169060863Y-90512612D01*
X169072316Y-90522127D01*
X169074746Y-90524144D01*
X169081003Y-90529229D01*
X169086447Y-90533448D01*
X169090361Y-90536258D01*
X169091791Y-90537089D01*
X169094510Y-90538731D01*
X169098919Y-90541988D01*
X169103454Y-90545653D01*
X169110421Y-90551071D01*
X169119999Y-90557881D01*
X169131660Y-90565739D01*
X169144872Y-90574302D01*
X169159106Y-90583225D01*
X169173834Y-90592165D01*
X169187786Y-90600355D01*
X169215083Y-90615653D01*
X169240506Y-90628915D01*
X169264868Y-90640483D01*
X169288986Y-90650697D01*
X169313673Y-90659897D01*
X169339744Y-90668424D01*
X169368014Y-90676619D01*
X169374392Y-90678353D01*
X169399866Y-90684946D01*
X169423051Y-90690328D01*
X169444809Y-90694621D01*
X169466001Y-90697945D01*
X169487488Y-90700420D01*
X169510133Y-90702168D01*
X169534795Y-90703309D01*
X169556513Y-90703865D01*
X169581574Y-90704159D01*
X169603869Y-90704005D01*
X169624200Y-90703336D01*
X169643370Y-90702080D01*
X169662181Y-90700168D01*
X169681434Y-90697531D01*
X169701933Y-90694100D01*
X169724481Y-90689804D01*
X169728765Y-90688945D01*
X169748716Y-90684736D01*
X169766637Y-90680515D01*
X169783543Y-90675991D01*
X169800449Y-90670869D01*
X169818371Y-90664856D01*
X169838323Y-90657660D01*
X169842549Y-90656089D01*
X169862594Y-90648456D01*
X169879930Y-90641488D01*
X169895296Y-90634853D01*
X169909430Y-90628220D01*
X169923072Y-90621256D01*
X169936903Y-90613662D01*
X169945049Y-90609091D01*
X169952784Y-90604820D01*
X169959164Y-90601365D01*
X169962871Y-90599430D01*
X169966895Y-90597153D01*
X169973354Y-90593190D01*
X169981726Y-90587885D01*
X169991487Y-90581584D01*
X170002113Y-90574631D01*
X170013082Y-90567372D01*
X170023870Y-90560151D01*
X170033955Y-90553314D01*
X170042813Y-90547205D01*
X170049921Y-90542169D01*
X170051955Y-90540683D01*
X170057373Y-90536509D01*
X170064890Y-90530484D01*
X170073897Y-90523107D01*
X170083784Y-90514880D01*
X170093942Y-90506305D01*
X170098116Y-90502742D01*
X170109860Y-90492808D01*
X170119061Y-90485310D01*
X170125772Y-90480206D01*
X170130049Y-90477455D01*
X170131944Y-90477016D01*
X170131990Y-90477072D01*
X170134086Y-90479387D01*
X170137958Y-90482988D01*
X170140885Y-90485511D01*
X170144701Y-90488714D01*
X170150652Y-90493723D01*
X170158133Y-90500028D01*
X170166537Y-90507118D01*
X170174079Y-90513485D01*
X170182741Y-90520734D01*
X170190976Y-90527505D01*
X170198193Y-90533321D01*
X170203800Y-90537703D01*
X170206944Y-90540003D01*
X170232342Y-90557574D01*
X170233858Y-90558656D01*
X170244757Y-90566071D01*
X170258165Y-90574592D01*
X170273347Y-90583796D01*
X170289565Y-90593257D01*
X170306084Y-90602552D01*
X170322167Y-90611255D01*
X170337078Y-90618944D01*
X170346002Y-90623294D01*
X170372001Y-90634959D01*
X170400444Y-90646570D01*
X170430202Y-90657701D01*
X170460150Y-90667930D01*
X170485739Y-90675840D01*
X170500597Y-90679804D01*
X170518126Y-90683853D01*
X170537419Y-90687824D01*
X170557567Y-90691550D01*
X170577662Y-90694866D01*
X170596796Y-90697607D01*
X170614060Y-90699608D01*
X170618734Y-90700039D01*
X170641851Y-90701563D01*
X170666660Y-90702385D01*
X170692386Y-90702525D01*
X170718256Y-90702008D01*
X170743496Y-90700856D01*
X170767331Y-90699093D01*
X170788988Y-90696741D01*
X170803659Y-90694549D01*
X170832598Y-90688915D01*
X170863492Y-90681716D01*
X170895232Y-90673258D01*
X170926714Y-90663848D01*
X170956828Y-90653793D01*
X170975385Y-90646965D01*
X170986572Y-90642328D01*
X170999885Y-90636238D01*
X171014826Y-90628970D01*
X171030896Y-90620799D01*
X171047596Y-90611999D01*
X171064429Y-90602845D01*
X171080896Y-90593610D01*
X171096498Y-90584570D01*
X171110737Y-90575998D01*
X171123114Y-90568170D01*
X171133130Y-90561359D01*
X171139079Y-90556852D01*
X171142602Y-90554015D01*
X171148319Y-90549459D01*
X171155603Y-90543682D01*
X171163827Y-90537181D01*
X171169582Y-90532643D01*
X171187081Y-90518693D01*
X171201732Y-90506650D01*
X171213656Y-90496406D01*
X171222974Y-90487854D01*
X171229810Y-90480887D01*
X171233328Y-90476705D01*
X171240069Y-90467865D01*
X171247703Y-90477137D01*
G37*
%TD*%
%LPC*%
D14*
%TO.C,U4*%
X122347090Y-84769492D02*
X122689815Y-84827723D01*
X123023865Y-84923962D01*
X123345040Y-85056997D01*
X123649299Y-85225155D01*
X123932818Y-85426322D01*
X124192031Y-85657969D01*
X124423678Y-85917182D01*
X124624845Y-86200701D01*
X124793003Y-86504960D01*
X124926038Y-86826135D01*
X125022277Y-87160185D01*
X125080508Y-87502910D01*
X125100000Y-87850000D01*
X125080508Y-88197090D01*
X125022277Y-88539815D01*
X124926038Y-88873865D01*
X124793003Y-89195040D01*
X124624845Y-89499299D01*
X124423678Y-89782818D01*
X124192031Y-90042031D01*
X123932818Y-90273678D01*
X123649299Y-90474845D01*
X123345040Y-90643003D01*
X123023865Y-90776038D01*
X122689815Y-90872277D01*
X122347090Y-90930508D01*
X122000000Y-90950000D01*
X121652910Y-90930508D01*
X121310185Y-90872277D01*
X120976135Y-90776038D01*
X120654960Y-90643003D01*
X120350701Y-90474845D01*
X120067182Y-90273678D01*
X119807969Y-90042031D01*
X119576322Y-89782818D01*
X119375155Y-89499299D01*
X119206997Y-89195040D01*
X119073962Y-88873865D01*
X118977723Y-88539815D01*
X118919492Y-88197090D01*
X118900000Y-87850000D01*
X118919492Y-87502910D01*
X118977723Y-87160185D01*
X119073962Y-86826135D01*
X119206997Y-86504960D01*
X119375155Y-86200701D01*
X119576322Y-85917182D01*
X119807969Y-85657969D01*
X120067182Y-85426322D01*
X120350701Y-85225155D01*
X120654960Y-85056997D01*
X120976135Y-84923962D01*
X121310185Y-84827723D01*
X121652910Y-84769492D01*
X122000000Y-84750000D01*
X122347090Y-84769492D01*
G36*
X122347090Y-84769492D02*
G01*
X122689815Y-84827723D01*
X123023865Y-84923962D01*
X123345040Y-85056997D01*
X123649299Y-85225155D01*
X123932818Y-85426322D01*
X124192031Y-85657969D01*
X124423678Y-85917182D01*
X124624845Y-86200701D01*
X124793003Y-86504960D01*
X124926038Y-86826135D01*
X125022277Y-87160185D01*
X125080508Y-87502910D01*
X125100000Y-87850000D01*
X125080508Y-88197090D01*
X125022277Y-88539815D01*
X124926038Y-88873865D01*
X124793003Y-89195040D01*
X124624845Y-89499299D01*
X124423678Y-89782818D01*
X124192031Y-90042031D01*
X123932818Y-90273678D01*
X123649299Y-90474845D01*
X123345040Y-90643003D01*
X123023865Y-90776038D01*
X122689815Y-90872277D01*
X122347090Y-90930508D01*
X122000000Y-90950000D01*
X121652910Y-90930508D01*
X121310185Y-90872277D01*
X120976135Y-90776038D01*
X120654960Y-90643003D01*
X120350701Y-90474845D01*
X120067182Y-90273678D01*
X119807969Y-90042031D01*
X119576322Y-89782818D01*
X119375155Y-89499299D01*
X119206997Y-89195040D01*
X119073962Y-88873865D01*
X118977723Y-88539815D01*
X118919492Y-88197090D01*
X118900000Y-87850000D01*
X118919492Y-87502910D01*
X118977723Y-87160185D01*
X119073962Y-86826135D01*
X119206997Y-86504960D01*
X119375155Y-86200701D01*
X119576322Y-85917182D01*
X119807969Y-85657969D01*
X120067182Y-85426322D01*
X120350701Y-85225155D01*
X120654960Y-85056997D01*
X120976135Y-84923962D01*
X121310185Y-84827723D01*
X121652910Y-84769492D01*
X122000000Y-84750000D01*
X122347090Y-84769492D01*
G37*
X122347090Y-107769492D02*
X122689815Y-107827723D01*
X123023865Y-107923962D01*
X123345040Y-108056997D01*
X123649299Y-108225155D01*
X123932818Y-108426322D01*
X124192031Y-108657969D01*
X124423678Y-108917182D01*
X124624845Y-109200701D01*
X124793003Y-109504960D01*
X124926038Y-109826135D01*
X125022277Y-110160185D01*
X125080508Y-110502910D01*
X125100000Y-110850000D01*
X125080508Y-111197090D01*
X125022277Y-111539815D01*
X124926038Y-111873865D01*
X124793003Y-112195040D01*
X124624845Y-112499299D01*
X124423678Y-112782818D01*
X124192031Y-113042031D01*
X123932818Y-113273678D01*
X123649299Y-113474845D01*
X123345040Y-113643003D01*
X123023865Y-113776038D01*
X122689815Y-113872277D01*
X122347090Y-113930508D01*
X122000000Y-113950000D01*
X121652910Y-113930508D01*
X121310185Y-113872277D01*
X120976135Y-113776038D01*
X120654960Y-113643003D01*
X120350701Y-113474845D01*
X120067182Y-113273678D01*
X119807969Y-113042031D01*
X119576322Y-112782818D01*
X119375155Y-112499299D01*
X119206997Y-112195040D01*
X119073962Y-111873865D01*
X118977723Y-111539815D01*
X118919492Y-111197090D01*
X118900000Y-110850000D01*
X118919492Y-110502910D01*
X118977723Y-110160185D01*
X119073962Y-109826135D01*
X119206997Y-109504960D01*
X119375155Y-109200701D01*
X119576322Y-108917182D01*
X119807969Y-108657969D01*
X120067182Y-108426322D01*
X120350701Y-108225155D01*
X120654960Y-108056997D01*
X120976135Y-107923962D01*
X121310185Y-107827723D01*
X121652910Y-107769492D01*
X122000000Y-107750000D01*
X122347090Y-107769492D01*
G36*
X122347090Y-107769492D02*
G01*
X122689815Y-107827723D01*
X123023865Y-107923962D01*
X123345040Y-108056997D01*
X123649299Y-108225155D01*
X123932818Y-108426322D01*
X124192031Y-108657969D01*
X124423678Y-108917182D01*
X124624845Y-109200701D01*
X124793003Y-109504960D01*
X124926038Y-109826135D01*
X125022277Y-110160185D01*
X125080508Y-110502910D01*
X125100000Y-110850000D01*
X125080508Y-111197090D01*
X125022277Y-111539815D01*
X124926038Y-111873865D01*
X124793003Y-112195040D01*
X124624845Y-112499299D01*
X124423678Y-112782818D01*
X124192031Y-113042031D01*
X123932818Y-113273678D01*
X123649299Y-113474845D01*
X123345040Y-113643003D01*
X123023865Y-113776038D01*
X122689815Y-113872277D01*
X122347090Y-113930508D01*
X122000000Y-113950000D01*
X121652910Y-113930508D01*
X121310185Y-113872277D01*
X120976135Y-113776038D01*
X120654960Y-113643003D01*
X120350701Y-113474845D01*
X120067182Y-113273678D01*
X119807969Y-113042031D01*
X119576322Y-112782818D01*
X119375155Y-112499299D01*
X119206997Y-112195040D01*
X119073962Y-111873865D01*
X118977723Y-111539815D01*
X118919492Y-111197090D01*
X118900000Y-110850000D01*
X118919492Y-110502910D01*
X118977723Y-110160185D01*
X119073962Y-109826135D01*
X119206997Y-109504960D01*
X119375155Y-109200701D01*
X119576322Y-108917182D01*
X119807969Y-108657969D01*
X120067182Y-108426322D01*
X120350701Y-108225155D01*
X120654960Y-108056997D01*
X120976135Y-107923962D01*
X121310185Y-107827723D01*
X121652910Y-107769492D01*
X122000000Y-107750000D01*
X122347090Y-107769492D01*
G37*
X180347090Y-84769492D02*
X180689815Y-84827723D01*
X181023865Y-84923962D01*
X181345040Y-85056997D01*
X181649299Y-85225155D01*
X181932818Y-85426322D01*
X182192031Y-85657969D01*
X182423678Y-85917182D01*
X182624845Y-86200701D01*
X182793003Y-86504960D01*
X182926038Y-86826135D01*
X183022277Y-87160185D01*
X183080508Y-87502910D01*
X183100000Y-87850000D01*
X183080508Y-88197090D01*
X183022277Y-88539815D01*
X182926038Y-88873865D01*
X182793003Y-89195040D01*
X182624845Y-89499299D01*
X182423678Y-89782818D01*
X182192031Y-90042031D01*
X181932818Y-90273678D01*
X181649299Y-90474845D01*
X181345040Y-90643003D01*
X181023865Y-90776038D01*
X180689815Y-90872277D01*
X180347090Y-90930508D01*
X180000000Y-90950000D01*
X179652910Y-90930508D01*
X179310185Y-90872277D01*
X178976135Y-90776038D01*
X178654960Y-90643003D01*
X178350701Y-90474845D01*
X178067182Y-90273678D01*
X177807969Y-90042031D01*
X177576322Y-89782818D01*
X177375155Y-89499299D01*
X177206997Y-89195040D01*
X177073962Y-88873865D01*
X176977723Y-88539815D01*
X176919492Y-88197090D01*
X176900000Y-87850000D01*
X176919492Y-87502910D01*
X176977723Y-87160185D01*
X177073962Y-86826135D01*
X177206997Y-86504960D01*
X177375155Y-86200701D01*
X177576322Y-85917182D01*
X177807969Y-85657969D01*
X178067182Y-85426322D01*
X178350701Y-85225155D01*
X178654960Y-85056997D01*
X178976135Y-84923962D01*
X179310185Y-84827723D01*
X179652910Y-84769492D01*
X180000000Y-84750000D01*
X180347090Y-84769492D01*
G36*
X180347090Y-84769492D02*
G01*
X180689815Y-84827723D01*
X181023865Y-84923962D01*
X181345040Y-85056997D01*
X181649299Y-85225155D01*
X181932818Y-85426322D01*
X182192031Y-85657969D01*
X182423678Y-85917182D01*
X182624845Y-86200701D01*
X182793003Y-86504960D01*
X182926038Y-86826135D01*
X183022277Y-87160185D01*
X183080508Y-87502910D01*
X183100000Y-87850000D01*
X183080508Y-88197090D01*
X183022277Y-88539815D01*
X182926038Y-88873865D01*
X182793003Y-89195040D01*
X182624845Y-89499299D01*
X182423678Y-89782818D01*
X182192031Y-90042031D01*
X181932818Y-90273678D01*
X181649299Y-90474845D01*
X181345040Y-90643003D01*
X181023865Y-90776038D01*
X180689815Y-90872277D01*
X180347090Y-90930508D01*
X180000000Y-90950000D01*
X179652910Y-90930508D01*
X179310185Y-90872277D01*
X178976135Y-90776038D01*
X178654960Y-90643003D01*
X178350701Y-90474845D01*
X178067182Y-90273678D01*
X177807969Y-90042031D01*
X177576322Y-89782818D01*
X177375155Y-89499299D01*
X177206997Y-89195040D01*
X177073962Y-88873865D01*
X176977723Y-88539815D01*
X176919492Y-88197090D01*
X176900000Y-87850000D01*
X176919492Y-87502910D01*
X176977723Y-87160185D01*
X177073962Y-86826135D01*
X177206997Y-86504960D01*
X177375155Y-86200701D01*
X177576322Y-85917182D01*
X177807969Y-85657969D01*
X178067182Y-85426322D01*
X178350701Y-85225155D01*
X178654960Y-85056997D01*
X178976135Y-84923962D01*
X179310185Y-84827723D01*
X179652910Y-84769492D01*
X180000000Y-84750000D01*
X180347090Y-84769492D01*
G37*
X180347090Y-107769492D02*
X180689815Y-107827723D01*
X181023865Y-107923962D01*
X181345040Y-108056997D01*
X181649299Y-108225155D01*
X181932818Y-108426322D01*
X182192031Y-108657969D01*
X182423678Y-108917182D01*
X182624845Y-109200701D01*
X182793003Y-109504960D01*
X182926038Y-109826135D01*
X183022277Y-110160185D01*
X183080508Y-110502910D01*
X183100000Y-110850000D01*
X183080508Y-111197090D01*
X183022277Y-111539815D01*
X182926038Y-111873865D01*
X182793003Y-112195040D01*
X182624845Y-112499299D01*
X182423678Y-112782818D01*
X182192031Y-113042031D01*
X181932818Y-113273678D01*
X181649299Y-113474845D01*
X181345040Y-113643003D01*
X181023865Y-113776038D01*
X180689815Y-113872277D01*
X180347090Y-113930508D01*
X180000000Y-113950000D01*
X179652910Y-113930508D01*
X179310185Y-113872277D01*
X178976135Y-113776038D01*
X178654960Y-113643003D01*
X178350701Y-113474845D01*
X178067182Y-113273678D01*
X177807969Y-113042031D01*
X177576322Y-112782818D01*
X177375155Y-112499299D01*
X177206997Y-112195040D01*
X177073962Y-111873865D01*
X176977723Y-111539815D01*
X176919492Y-111197090D01*
X176900000Y-110850000D01*
X176919492Y-110502910D01*
X176977723Y-110160185D01*
X177073962Y-109826135D01*
X177206997Y-109504960D01*
X177375155Y-109200701D01*
X177576322Y-108917182D01*
X177807969Y-108657969D01*
X178067182Y-108426322D01*
X178350701Y-108225155D01*
X178654960Y-108056997D01*
X178976135Y-107923962D01*
X179310185Y-107827723D01*
X179652910Y-107769492D01*
X180000000Y-107750000D01*
X180347090Y-107769492D01*
G36*
X180347090Y-107769492D02*
G01*
X180689815Y-107827723D01*
X181023865Y-107923962D01*
X181345040Y-108056997D01*
X181649299Y-108225155D01*
X181932818Y-108426322D01*
X182192031Y-108657969D01*
X182423678Y-108917182D01*
X182624845Y-109200701D01*
X182793003Y-109504960D01*
X182926038Y-109826135D01*
X183022277Y-110160185D01*
X183080508Y-110502910D01*
X183100000Y-110850000D01*
X183080508Y-111197090D01*
X183022277Y-111539815D01*
X182926038Y-111873865D01*
X182793003Y-112195040D01*
X182624845Y-112499299D01*
X182423678Y-112782818D01*
X182192031Y-113042031D01*
X181932818Y-113273678D01*
X181649299Y-113474845D01*
X181345040Y-113643003D01*
X181023865Y-113776038D01*
X180689815Y-113872277D01*
X180347090Y-113930508D01*
X180000000Y-113950000D01*
X179652910Y-113930508D01*
X179310185Y-113872277D01*
X178976135Y-113776038D01*
X178654960Y-113643003D01*
X178350701Y-113474845D01*
X178067182Y-113273678D01*
X177807969Y-113042031D01*
X177576322Y-112782818D01*
X177375155Y-112499299D01*
X177206997Y-112195040D01*
X177073962Y-111873865D01*
X176977723Y-111539815D01*
X176919492Y-111197090D01*
X176900000Y-110850000D01*
X176919492Y-110502910D01*
X176977723Y-110160185D01*
X177073962Y-109826135D01*
X177206997Y-109504960D01*
X177375155Y-109200701D01*
X177576322Y-108917182D01*
X177807969Y-108657969D01*
X178067182Y-108426322D01*
X178350701Y-108225155D01*
X178654960Y-108056997D01*
X178976135Y-107923962D01*
X179310185Y-107827723D01*
X179652910Y-107769492D01*
X180000000Y-107750000D01*
X180347090Y-107769492D01*
G37*
%TO.C,J3*%
X122474999Y-105864727D02*
X121474999Y-105864727D01*
X121474999Y-103764727D01*
X122474999Y-103764727D01*
X122474999Y-105864727D01*
G36*
X122474999Y-105864727D02*
G01*
X121474999Y-105864727D01*
X121474999Y-103764727D01*
X122474999Y-103764727D01*
X122474999Y-105864727D01*
G37*
X123294999Y-106434727D02*
X120674999Y-106434727D01*
X120674999Y-104234727D01*
X123294999Y-104234727D01*
X123294999Y-106434727D01*
G36*
X123294999Y-106434727D02*
G01*
X120674999Y-106434727D01*
X120674999Y-104234727D01*
X123294999Y-104234727D01*
X123294999Y-106434727D01*
G37*
%TO.C,J4*%
X127750000Y-113060000D02*
X126750000Y-113060000D01*
X126750000Y-110960000D01*
X127750000Y-110960000D01*
X127750000Y-113060000D01*
G36*
X127750000Y-113060000D02*
G01*
X126750000Y-113060000D01*
X126750000Y-110960000D01*
X127750000Y-110960000D01*
X127750000Y-113060000D01*
G37*
X128540000Y-113650000D02*
X125930000Y-113650000D01*
X125930000Y-111450000D01*
X128540000Y-111450000D01*
X128540000Y-113650000D01*
G36*
X128540000Y-113650000D02*
G01*
X125930000Y-113650000D01*
X125930000Y-111450000D01*
X128540000Y-111450000D01*
X128540000Y-113650000D01*
G37*
%TD*%
D15*
%TO.C,D5*%
X147950000Y-113450000D03*
X146950002Y-113450000D03*
%TD*%
D16*
%TO.C,R38*%
X148110000Y-112640000D03*
X147560002Y-112640000D03*
%TD*%
D17*
%TO.C,C6*%
X148478553Y-100478553D03*
X147771447Y-99771447D03*
%TD*%
D18*
%TO.C,D4*%
X127650000Y-110640000D03*
D19*
X128050000Y-110640000D03*
%TD*%
D20*
%TO.C,U4*%
X122000000Y-87850000D03*
X122000000Y-110850000D03*
X180000000Y-87850000D03*
X180000000Y-110850000D03*
D21*
X175130000Y-89120000D03*
D22*
X175130000Y-86580000D03*
X172590000Y-89120000D03*
X172590000Y-86580000D03*
X170050000Y-89120000D03*
X170050000Y-86580000D03*
X167510000Y-89120000D03*
X167510000Y-86580000D03*
X164970000Y-89120000D03*
X164970000Y-86580000D03*
X162430000Y-89120000D03*
X162430000Y-86580000D03*
X159890000Y-89120000D03*
X159890000Y-86580000D03*
X157350000Y-89120000D03*
X157350000Y-86580000D03*
X154810000Y-89120000D03*
X154810000Y-86580000D03*
X152270000Y-89120000D03*
X152270000Y-86580000D03*
X149730000Y-89120000D03*
X149730000Y-86580000D03*
X147190000Y-89120000D03*
X147190000Y-86580000D03*
X144650000Y-89120000D03*
X144650000Y-86580000D03*
X142110000Y-89120000D03*
X142110000Y-86580000D03*
X139570000Y-89120000D03*
X139570000Y-86580000D03*
X137030000Y-89120000D03*
X137030000Y-86580000D03*
X134490000Y-89120000D03*
X134490000Y-86580000D03*
X131950000Y-89120000D03*
X131950000Y-86580000D03*
X129410000Y-89120000D03*
X129410000Y-86580000D03*
X126870000Y-89120000D03*
X126870000Y-86580000D03*
D23*
X129710000Y-108050000D03*
D24*
X129400000Y-110660000D03*
D23*
X135790000Y-111940000D03*
X141050000Y-112430000D03*
X143180000Y-112430000D03*
D24*
X167880000Y-111300000D03*
X174490000Y-91480000D03*
%TD*%
D25*
%TO.C,U10*%
X132397500Y-104885000D03*
X132397500Y-104385000D03*
X132397500Y-103885000D03*
X132397500Y-103385000D03*
D26*
X131710000Y-102697500D03*
X131210000Y-102697500D03*
X130710000Y-102697500D03*
X130210000Y-102697500D03*
D25*
X129522500Y-103385000D03*
X129522500Y-103885000D03*
X129522500Y-104385000D03*
X129522500Y-104885000D03*
D26*
X130210000Y-105572500D03*
X130710000Y-105572500D03*
X131210000Y-105572500D03*
X131710000Y-105572500D03*
D27*
X130960000Y-104135000D03*
%TD*%
D16*
%TO.C,C41*%
X159423800Y-94487200D03*
X159973800Y-94487200D03*
%TD*%
D28*
%TO.C,C48*%
X152459209Y-94730000D03*
X151909211Y-94730000D03*
%TD*%
D16*
%TO.C,C44*%
X159423800Y-93903000D03*
X159973800Y-93903000D03*
%TD*%
D29*
%TO.C,C23*%
X136900000Y-98150001D03*
X136900000Y-98699999D03*
%TD*%
D28*
%TO.C,C19*%
X139625000Y-101075000D03*
X139075002Y-101075000D03*
%TD*%
D30*
%TO.C,C46*%
X161680000Y-94910001D03*
X161680000Y-95909999D03*
%TD*%
D28*
%TO.C,R18*%
X131084999Y-111985001D03*
X130535001Y-111985001D03*
%TD*%
%TO.C,C67*%
X128050000Y-102675000D03*
X127500002Y-102675000D03*
%TD*%
%TO.C,R31*%
X150835000Y-97810000D03*
X150285000Y-97810000D03*
%TD*%
D29*
%TO.C,R56*%
X123450000Y-92175001D03*
X123450000Y-92724999D03*
%TD*%
D31*
%TO.C,L10*%
X123325000Y-98625000D03*
X123325000Y-100125000D03*
%TD*%
D32*
%TO.C,C56*%
X130050000Y-92279131D03*
X130050000Y-91729131D03*
%TD*%
%TO.C,C30*%
X145820000Y-105549999D03*
X145820000Y-105000001D03*
%TD*%
D33*
%TO.C,J1*%
X178650000Y-104525000D03*
X178650000Y-103275000D03*
D34*
X181850000Y-106375000D03*
X181850000Y-101425000D03*
%TD*%
D35*
%TO.C,U1*%
X175580000Y-105220000D03*
X173290000Y-105220001D03*
X171000000Y-105220000D03*
X168710000Y-105220001D03*
X166420000Y-105220000D03*
X175580001Y-102930000D03*
X173290000Y-102930000D03*
X171000000Y-102930001D03*
X168710000Y-102930000D03*
X166419999Y-102930000D03*
X175580000Y-100640000D03*
X173290001Y-100640000D03*
X171000000Y-100640000D03*
X168709999Y-100640000D03*
X166420000Y-100640000D03*
X175580001Y-98350000D03*
X173290000Y-98350000D03*
X171000000Y-98349999D03*
X168710000Y-98350000D03*
X166419999Y-98350000D03*
X175580000Y-96060000D03*
X173290000Y-96059999D03*
X171000000Y-96060000D03*
X168710000Y-96059999D03*
X166420000Y-96060000D03*
%TD*%
D36*
%TO.C,J3*%
X121974999Y-103809727D03*
D37*
X123450000Y-105334727D03*
X120499998Y-105334727D03*
%TD*%
D32*
%TO.C,R13*%
X137475000Y-98699999D03*
X137475000Y-98150001D03*
%TD*%
%TO.C,C51*%
X128175000Y-98849999D03*
X128175000Y-98300001D03*
%TD*%
D38*
%TO.C,C18*%
X143630546Y-102605546D03*
X144019454Y-102994454D03*
%TD*%
D28*
%TO.C,C74*%
X137374999Y-101875000D03*
X136825001Y-101875000D03*
%TD*%
D39*
%TO.C,C24*%
X144580546Y-93294454D03*
X144969454Y-92905546D03*
%TD*%
D28*
%TO.C,C39*%
X153454999Y-96560000D03*
X152905001Y-96560000D03*
%TD*%
%TO.C,R22*%
X138448371Y-107475000D03*
X137898373Y-107475000D03*
%TD*%
%TO.C,C69*%
X128050000Y-104460585D03*
X127500002Y-104460585D03*
%TD*%
D38*
%TO.C,R43*%
X165055546Y-107665546D03*
X165444454Y-108054454D03*
%TD*%
D29*
%TO.C,C81*%
X123075341Y-100900001D03*
X123075341Y-101449999D03*
%TD*%
D38*
%TO.C,R54*%
X130230546Y-106430546D03*
X130619454Y-106819454D03*
%TD*%
D32*
%TO.C,C63*%
X133650000Y-92281599D03*
X133650000Y-91731599D03*
%TD*%
D40*
%TO.C,TR1*%
X151629650Y-107830000D03*
X152899650Y-107830000D03*
X154169650Y-107830000D03*
X155439650Y-107830000D03*
X156709650Y-107830000D03*
X157979650Y-107830000D03*
X159249650Y-107830000D03*
X160519650Y-107830000D03*
X160519649Y-98855000D03*
X159249650Y-98855000D03*
X157979650Y-98855000D03*
X156709651Y-98855000D03*
X155439650Y-98855000D03*
X154169650Y-98855000D03*
X152899650Y-98855000D03*
X151629650Y-98855000D03*
%TD*%
D29*
%TO.C,R2*%
X170135000Y-92762284D03*
X170135000Y-93312282D03*
%TD*%
D32*
%TO.C,C64*%
X135450000Y-92275395D03*
X135450000Y-91725395D03*
%TD*%
D16*
%TO.C,C42*%
X159423800Y-93318800D03*
X159973800Y-93318800D03*
%TD*%
D28*
%TO.C,C43*%
X152459365Y-95310000D03*
X151909367Y-95310000D03*
%TD*%
%TO.C,C28*%
X138450000Y-108049999D03*
X137900002Y-108049999D03*
%TD*%
D41*
%TO.C,U8*%
X154816600Y-96704100D03*
X155316600Y-96704099D03*
X155816600Y-96704100D03*
X156316600Y-96704100D03*
X156816600Y-96704099D03*
X157316600Y-96704100D03*
D42*
X158004100Y-96016600D03*
X158004099Y-95516600D03*
X158004100Y-95016600D03*
X158004100Y-94516600D03*
X158004099Y-94016600D03*
X158004100Y-93516600D03*
D41*
X157316600Y-92829100D03*
X156816600Y-92829101D03*
X156316600Y-92829100D03*
X155816600Y-92829100D03*
X155316600Y-92829101D03*
X154816600Y-92829100D03*
D42*
X154129100Y-93516600D03*
X154129101Y-94016600D03*
X154129100Y-94516600D03*
X154129100Y-95016600D03*
X154129101Y-95516600D03*
X154129100Y-96016600D03*
D43*
X156066600Y-94766600D03*
%TD*%
D39*
%TO.C,C25*%
X146730546Y-99044454D03*
X147119454Y-98655546D03*
%TD*%
D32*
%TO.C,R28*%
X150490327Y-108474935D03*
X150490327Y-107924937D03*
%TD*%
%TO.C,C26*%
X139900000Y-92274999D03*
X139900000Y-91725001D03*
%TD*%
D44*
%TO.C,L5*%
X130400000Y-100950000D03*
X131900000Y-100950000D03*
%TD*%
D32*
%TO.C,C89*%
X122870618Y-92724999D03*
X122870618Y-92175001D03*
%TD*%
%TO.C,C53*%
X132450000Y-92281599D03*
X132450000Y-91731599D03*
%TD*%
D45*
%TO.C,L9*%
X125925000Y-100125000D03*
X125925000Y-98625000D03*
%TD*%
D32*
%TO.C,R48*%
X134250001Y-92281598D03*
X134250001Y-91731598D03*
%TD*%
D16*
%TO.C,C57*%
X134650000Y-95125000D03*
X135200000Y-95125000D03*
%TD*%
%TO.C,R25*%
X162115000Y-109040000D03*
X162665000Y-109040000D03*
%TD*%
D46*
%TO.C,U2*%
X171010000Y-112890000D03*
X171009999Y-110590000D03*
X171010000Y-108290000D03*
D47*
X164710001Y-110590000D03*
%TD*%
D32*
%TO.C,C16*%
X139325000Y-92274999D03*
X139325000Y-91725001D03*
%TD*%
%TO.C,R67*%
X120513131Y-97855024D03*
X120513131Y-97305024D03*
%TD*%
D36*
%TO.C,J4*%
X127250000Y-111025000D03*
D37*
X128725001Y-112550000D03*
X125774999Y-112550000D03*
%TD*%
D48*
%TO.C,Q3*%
X121749998Y-99922227D03*
X119850000Y-99922227D03*
D49*
X120799999Y-102197227D03*
%TD*%
D28*
%TO.C,C52*%
X135224998Y-96675000D03*
X134675000Y-96675000D03*
%TD*%
D44*
%TO.C,L13*%
X120500000Y-92365751D03*
X122000000Y-92365751D03*
%TD*%
D16*
%TO.C,R12*%
X147200337Y-97473959D03*
X147750335Y-97473959D03*
%TD*%
D50*
%TO.C,DN1*%
X147640000Y-102038312D03*
X147640000Y-102938312D03*
X147640000Y-103738312D03*
X147640000Y-104538312D03*
X147640000Y-105438312D03*
X148440000Y-105038312D03*
X148440000Y-104138312D03*
X148440000Y-103338312D03*
X148440000Y-102438312D03*
%TD*%
D28*
%TO.C,R52*%
X128050000Y-103885585D03*
X127500002Y-103885585D03*
%TD*%
D16*
%TO.C,C59*%
X132875001Y-98325000D03*
X133424999Y-98325000D03*
%TD*%
D28*
%TO.C,C13*%
X138154221Y-99627347D03*
X137604223Y-99627347D03*
%TD*%
D51*
%TO.C,U6*%
X132620878Y-113399018D03*
X133891106Y-113395960D03*
X135159810Y-113397644D03*
X136430043Y-113397171D03*
X136430496Y-107497350D03*
X135159968Y-107497213D03*
X133890347Y-107497666D03*
X132620273Y-107496897D03*
%TD*%
D28*
%TO.C,R19*%
X140024999Y-102520000D03*
X139475001Y-102520000D03*
%TD*%
D32*
%TO.C,C33*%
X145720000Y-111544999D03*
X145720000Y-110995001D03*
%TD*%
D28*
%TO.C,C60*%
X130349999Y-98325000D03*
X129800001Y-98325000D03*
%TD*%
D52*
%TO.C,C49*%
X159605200Y-95858800D03*
X160605200Y-95858800D03*
%TD*%
D16*
%TO.C,C79*%
X124150001Y-100975000D03*
X124699999Y-100975000D03*
%TD*%
D32*
%TO.C,R6*%
X137500000Y-95029645D03*
X137500000Y-94479647D03*
%TD*%
D18*
%TO.C,D1*%
X122374695Y-103425284D03*
D19*
X122774695Y-103425284D03*
%TD*%
D32*
%TO.C,R61*%
X123312500Y-97855024D03*
X123312500Y-97305024D03*
%TD*%
D28*
%TO.C,R34*%
X152459800Y-92404400D03*
X151909802Y-92404400D03*
%TD*%
D39*
%TO.C,C14*%
X146080546Y-94844454D03*
X146469454Y-94455546D03*
%TD*%
D15*
%TO.C,D3*%
X174249999Y-93090293D03*
X173250001Y-93090293D03*
%TD*%
D32*
%TO.C,R41*%
X150820000Y-92384999D03*
X150820000Y-91835001D03*
%TD*%
D16*
%TO.C,C72*%
X132825001Y-101850000D03*
X133374999Y-101850000D03*
%TD*%
D32*
%TO.C,R40*%
X151400000Y-92384999D03*
X151400000Y-91835001D03*
%TD*%
D53*
%TO.C,C82*%
X121919454Y-102869454D03*
X121530546Y-102480546D03*
%TD*%
D29*
%TO.C,C17*%
X142150000Y-102200001D03*
X142150000Y-102749999D03*
%TD*%
D15*
%TO.C,D2*%
X168759999Y-93090000D03*
X167760001Y-93090000D03*
%TD*%
D54*
%TO.C,C2*%
X175750000Y-110028541D03*
X175750000Y-112733541D03*
%TD*%
D28*
%TO.C,R53*%
X130712828Y-101875000D03*
X130162830Y-101875000D03*
%TD*%
D16*
%TO.C,C58*%
X134650001Y-94025000D03*
X135199999Y-94025000D03*
%TD*%
D55*
%TO.C,Q4*%
X119849752Y-97342524D03*
X121749750Y-97342524D03*
X120799751Y-95067524D03*
%TD*%
D56*
%TO.C,U7*%
X144718329Y-113227500D03*
X144718329Y-112592500D03*
X144718329Y-111957500D03*
X144718329Y-108782500D03*
X144718329Y-108147500D03*
X144718330Y-107512500D03*
X144718329Y-106877500D03*
X144718329Y-106242500D03*
X144718329Y-105607500D03*
X144718329Y-104972500D03*
X139518329Y-104972500D03*
X139518329Y-105607500D03*
X139518329Y-106242500D03*
X139518329Y-106877500D03*
X139518328Y-107512500D03*
X139518329Y-108147500D03*
X139518329Y-108782500D03*
X139518329Y-111957500D03*
X139518329Y-112592500D03*
X139518329Y-113227500D03*
%TD*%
D28*
%TO.C,R16*%
X131084999Y-112560000D03*
X130535001Y-112560000D03*
%TD*%
D45*
%TO.C,L11*%
X127225000Y-100125000D03*
X127225000Y-98625000D03*
%TD*%
%TO.C,L4*%
X128200000Y-94731598D03*
X128200000Y-93231598D03*
%TD*%
D32*
%TO.C,R42*%
X150240000Y-92384999D03*
X150240000Y-91835001D03*
%TD*%
D16*
%TO.C,C11*%
X136450002Y-95427896D03*
X137000000Y-95427896D03*
%TD*%
D28*
%TO.C,R62*%
X123374999Y-93825000D03*
X122825001Y-93825000D03*
%TD*%
D29*
%TO.C,C21*%
X137475000Y-97100002D03*
X137475000Y-97650000D03*
%TD*%
D16*
%TO.C,R26*%
X162115000Y-108450000D03*
X162665000Y-108450000D03*
%TD*%
D28*
%TO.C,C66*%
X128050000Y-103250000D03*
X127500002Y-103250000D03*
%TD*%
D57*
%TO.C,C4*%
X145533553Y-103001447D03*
X144826447Y-103708553D03*
%TD*%
D28*
%TO.C,C61*%
X132349999Y-98325000D03*
X131800001Y-98325000D03*
%TD*%
D16*
%TO.C,R14*%
X147200337Y-98075000D03*
X147750335Y-98075000D03*
%TD*%
D58*
%TO.C,C34*%
X147868643Y-111051962D03*
D59*
X147868643Y-106901960D03*
%TD*%
D28*
%TO.C,R9*%
X135024446Y-93465000D03*
X134474448Y-93465000D03*
%TD*%
D32*
%TO.C,C84*%
X119849752Y-98905024D03*
X119849752Y-98355024D03*
%TD*%
D31*
%TO.C,L8*%
X124625000Y-98625000D03*
X124625000Y-100125000D03*
%TD*%
D32*
%TO.C,R59*%
X125125001Y-93824096D03*
X125125001Y-93274096D03*
%TD*%
D16*
%TO.C,R30*%
X161315001Y-97809999D03*
X161864999Y-97809999D03*
%TD*%
D29*
%TO.C,C76*%
X123900000Y-94565751D03*
X123900000Y-95115751D03*
%TD*%
D60*
%TO.C,T1*%
X124430000Y-103926243D03*
X124430000Y-101976243D03*
X125230000Y-101976243D03*
X125230000Y-103926243D03*
%TD*%
D16*
%TO.C,C80*%
X126000000Y-97775000D03*
X126550000Y-97775000D03*
%TD*%
D32*
%TO.C,C15*%
X141050000Y-92274999D03*
X141050000Y-91725001D03*
%TD*%
D15*
%TO.C,C62*%
X127475001Y-96175001D03*
X126475001Y-96175001D03*
%TD*%
D32*
%TO.C,R33*%
X153120200Y-94991599D03*
X153120200Y-94441601D03*
%TD*%
D29*
%TO.C,R49*%
X134850000Y-91731598D03*
X134850000Y-92281598D03*
%TD*%
%TO.C,C3*%
X123650000Y-100900001D03*
X123650000Y-101449999D03*
%TD*%
D44*
%TO.C,L6*%
X133000001Y-100950000D03*
X134500001Y-100950000D03*
%TD*%
D29*
%TO.C,C87*%
X121650000Y-94565751D03*
X121650000Y-95115751D03*
%TD*%
%TO.C,C50*%
X131247533Y-91729132D03*
X131247533Y-92279132D03*
%TD*%
D28*
%TO.C,R15*%
X138199999Y-93475000D03*
X137650001Y-93475000D03*
%TD*%
D29*
%TO.C,C55*%
X128825000Y-96000000D03*
X128825000Y-96550000D03*
%TD*%
D16*
%TO.C,C68*%
X132350001Y-106650000D03*
X132899999Y-106650000D03*
%TD*%
D29*
%TO.C,C77*%
X122637500Y-97305024D03*
X122637500Y-97855024D03*
%TD*%
D61*
%TO.C,J2*%
X149858091Y-112788034D03*
X162308091Y-112788034D03*
D62*
X151708091Y-109588034D03*
X152958091Y-109588034D03*
X154208091Y-109588034D03*
X155458091Y-109588034D03*
X156708091Y-109588034D03*
X157958091Y-109588034D03*
X159208091Y-109588034D03*
X160458091Y-109588034D03*
%TD*%
D52*
%TO.C,D6*%
X164215000Y-113460000D03*
X165215000Y-113460000D03*
%TD*%
D28*
%TO.C,R5*%
X132349998Y-101849999D03*
X131800000Y-101849999D03*
%TD*%
D29*
%TO.C,R27*%
X149670000Y-107925001D03*
X149670000Y-108474999D03*
%TD*%
D28*
%TO.C,R17*%
X140024999Y-103100000D03*
X139475001Y-103100000D03*
%TD*%
D29*
%TO.C,R60*%
X124525001Y-93274096D03*
X124525001Y-93824096D03*
%TD*%
D28*
%TO.C,R35*%
X152459800Y-92988600D03*
X151909802Y-92988600D03*
%TD*%
D29*
%TO.C,R50*%
X171875000Y-92765001D03*
X171875000Y-93314999D03*
%TD*%
%TO.C,R44*%
X131850000Y-91731599D03*
X131850000Y-92281599D03*
%TD*%
%TO.C,C75*%
X123950001Y-93274097D03*
X123950001Y-93824095D03*
%TD*%
D32*
%TO.C,R64*%
X120673128Y-103672027D03*
X120673128Y-103122029D03*
%TD*%
D16*
%TO.C,C10*%
X135475553Y-93465000D03*
X136025553Y-93465000D03*
%TD*%
D29*
%TO.C,R68*%
X119950000Y-94565751D03*
X119950000Y-95115751D03*
%TD*%
D28*
%TO.C,R36*%
X152459800Y-93572800D03*
X151909802Y-93572800D03*
%TD*%
D63*
%TO.C,Q1*%
X147860000Y-93734999D03*
X148860000Y-93734999D03*
X148360000Y-92445000D03*
%TD*%
D28*
%TO.C,R66*%
X121075000Y-98630024D03*
X120525000Y-98630024D03*
%TD*%
D48*
%TO.C,Q2*%
X125149999Y-95064970D03*
X123250001Y-95064970D03*
X124200000Y-97339970D03*
%TD*%
D32*
%TO.C,R10*%
X135950000Y-95902895D03*
X135950000Y-95352897D03*
%TD*%
D29*
%TO.C,R11*%
X136510000Y-96427897D03*
X136510000Y-96977895D03*
%TD*%
%TO.C,C29*%
X145820000Y-106245001D03*
X145820000Y-106794999D03*
%TD*%
D32*
%TO.C,R7*%
X137500000Y-96024999D03*
X137500000Y-95475001D03*
%TD*%
D64*
%TO.C,U5*%
X138475000Y-94550000D03*
X138475000Y-94950000D03*
X138475000Y-95350001D03*
X138475000Y-95750000D03*
X138475000Y-96150000D03*
X138475000Y-96550001D03*
X138475000Y-96949999D03*
X138475000Y-97350000D03*
X138475000Y-97750000D03*
X138475000Y-98149999D03*
X138475000Y-98550000D03*
X138475000Y-98950000D03*
D65*
X139225000Y-99700000D03*
X139625000Y-99700000D03*
X140025001Y-99700000D03*
X140425000Y-99700000D03*
X140825000Y-99700000D03*
X141225001Y-99700000D03*
X141624999Y-99700000D03*
X142025000Y-99700000D03*
X142425000Y-99700000D03*
X142824999Y-99700000D03*
X143225000Y-99700000D03*
X143625000Y-99700000D03*
D64*
X144375000Y-98950000D03*
X144375000Y-98550000D03*
X144375000Y-98149999D03*
X144375000Y-97750000D03*
X144375000Y-97350000D03*
X144375000Y-96949999D03*
X144375000Y-96550001D03*
X144375000Y-96150000D03*
X144375000Y-95750000D03*
X144375000Y-95350001D03*
X144375000Y-94950000D03*
X144375000Y-94550000D03*
D65*
X143625000Y-93800000D03*
X143225000Y-93800000D03*
X142824999Y-93800000D03*
X142425000Y-93800000D03*
X142025000Y-93800000D03*
X141624999Y-93800000D03*
X141225001Y-93800000D03*
X140825000Y-93800000D03*
X140425000Y-93800000D03*
X140025001Y-93800000D03*
X139625000Y-93800000D03*
X139225000Y-93800000D03*
D66*
X141425000Y-96750000D03*
%TD*%
D29*
%TO.C,R51*%
X171295000Y-92765001D03*
X171295000Y-93314999D03*
%TD*%
D39*
%TO.C,C22*%
X147144203Y-99458111D03*
X147533111Y-99069203D03*
%TD*%
D30*
%TO.C,C32*%
X138230000Y-108925001D03*
X138230000Y-109924999D03*
%TD*%
D16*
%TO.C,C9*%
X135475553Y-92864011D03*
X136025553Y-92864011D03*
%TD*%
D67*
%TO.C,J5*%
X179110000Y-92090000D03*
D68*
X181650000Y-92090000D03*
X179110000Y-94630000D03*
X181650000Y-94630000D03*
X179110000Y-97170000D03*
X181650000Y-97170000D03*
X179110000Y-99710000D03*
X181650000Y-99710000D03*
%TD*%
D29*
%TO.C,C85*%
X119375000Y-94565751D03*
X119375000Y-95115751D03*
%TD*%
D32*
%TO.C,R20*%
X138950000Y-103084999D03*
X138950000Y-102535001D03*
%TD*%
D15*
%TO.C,C70*%
X129240000Y-106320000D03*
X128240002Y-106320000D03*
%TD*%
D69*
%TO.C,C31*%
X146600000Y-105374999D03*
X146600000Y-104375001D03*
%TD*%
D54*
%TO.C,C1*%
X173500000Y-108995000D03*
X173500000Y-111700000D03*
%TD*%
D70*
%TO.C,C5*%
X146176447Y-102358553D03*
X146883553Y-101651447D03*
%TD*%
D29*
%TO.C,C35*%
X161370000Y-98315001D03*
X161370000Y-98864999D03*
%TD*%
D16*
%TO.C,C45*%
X159423800Y-95071400D03*
X159973800Y-95071400D03*
%TD*%
D29*
%TO.C,C83*%
X121088131Y-99409727D03*
X121088131Y-99959727D03*
%TD*%
D16*
%TO.C,C38*%
X159423800Y-92734600D03*
X159973800Y-92734600D03*
%TD*%
%TO.C,R57*%
X122825001Y-93250000D03*
X123374999Y-93250000D03*
%TD*%
D32*
%TO.C,C54*%
X130650000Y-92279132D03*
X130650000Y-91729132D03*
%TD*%
%TO.C,R3*%
X169555000Y-93314916D03*
X169555000Y-92764918D03*
%TD*%
D29*
%TO.C,R65*%
X120513131Y-99409727D03*
X120513131Y-99959727D03*
%TD*%
D16*
%TO.C,C78*%
X125000000Y-97775000D03*
X125550000Y-97775000D03*
%TD*%
D32*
%TO.C,R1*%
X170715000Y-93312282D03*
X170715000Y-92762284D03*
%TD*%
D44*
%TO.C,L7*%
X135600001Y-100950000D03*
X137100001Y-100950000D03*
%TD*%
D32*
%TO.C,R4*%
X172465000Y-93314916D03*
X172465000Y-92764918D03*
%TD*%
D69*
%TO.C,C37*%
X151220000Y-97017889D03*
X151220000Y-96017891D03*
%TD*%
D16*
%TO.C,C12*%
X136450002Y-95927896D03*
X137000000Y-95927896D03*
%TD*%
D28*
%TO.C,R24*%
X138448641Y-106325000D03*
X137898643Y-106325000D03*
%TD*%
D71*
%TO.C,Y1*%
X134285000Y-103199999D03*
X134285000Y-105499999D03*
X136135000Y-105499999D03*
X136135000Y-103199999D03*
%TD*%
D72*
%TO.C,L1*%
X146200140Y-99929860D03*
X144679860Y-101450140D03*
%TD*%
D28*
%TO.C,R39*%
X152459781Y-91830000D03*
X151909783Y-91830000D03*
%TD*%
%TO.C,C73*%
X135301687Y-101831177D03*
X134751689Y-101831177D03*
%TD*%
D29*
%TO.C,C88*%
X119550000Y-92381024D03*
X119550000Y-92931024D03*
%TD*%
D16*
%TO.C,R8*%
X134475553Y-92865000D03*
X135025553Y-92865000D03*
%TD*%
%TO.C,C20*%
X147200338Y-96875000D03*
X147750336Y-96875000D03*
%TD*%
D29*
%TO.C,R47*%
X134725000Y-95631601D03*
X134725000Y-96181599D03*
%TD*%
D32*
%TO.C,R63*%
X124500000Y-95115751D03*
X124500000Y-94565751D03*
%TD*%
D45*
%TO.C,L3*%
X126900000Y-94728962D03*
X126900000Y-93228962D03*
%TD*%
D16*
%TO.C,R32*%
X151909366Y-95890000D03*
X152459366Y-95890000D03*
%TD*%
D29*
%TO.C,C71*%
X129600000Y-101325001D03*
X129600000Y-101874999D03*
%TD*%
D16*
%TO.C,C90*%
X132350000Y-106075000D03*
X132900000Y-106075000D03*
%TD*%
D29*
%TO.C,C36*%
X150780993Y-98315001D03*
X150780993Y-98864999D03*
%TD*%
D32*
%TO.C,C8*%
X140475000Y-92274999D03*
X140475000Y-91725001D03*
%TD*%
D44*
%TO.C,L12*%
X120500000Y-93665751D03*
X122000000Y-93665751D03*
%TD*%
D28*
%TO.C,R55*%
X128050000Y-105035585D03*
X127500002Y-105035585D03*
%TD*%
D29*
%TO.C,R58*%
X124025000Y-92175001D03*
X124025000Y-92724999D03*
%TD*%
D28*
%TO.C,R29*%
X162665000Y-107860000D03*
X162115000Y-107860000D03*
%TD*%
D16*
%TO.C,R37*%
X151909801Y-94157000D03*
X152459801Y-94157000D03*
%TD*%
D28*
%TO.C,R23*%
X138448370Y-106900000D03*
X137898372Y-106900000D03*
%TD*%
D32*
%TO.C,R21*%
X145720000Y-112554999D03*
X145720000Y-112005001D03*
%TD*%
D29*
%TO.C,R69*%
X121088131Y-97305024D03*
X121088131Y-97855024D03*
%TD*%
D41*
%TO.C,U9*%
X130550000Y-97319097D03*
X131050000Y-97319096D03*
X131550000Y-97319097D03*
X132050000Y-97319097D03*
X132550000Y-97319096D03*
X133050000Y-97319097D03*
D42*
X133737500Y-96631597D03*
X133737499Y-96131597D03*
X133737500Y-95631597D03*
X133737500Y-95131597D03*
X133737499Y-94631597D03*
X133737500Y-94131597D03*
D41*
X133050000Y-93444097D03*
X132550000Y-93444098D03*
X132050000Y-93444097D03*
X131550000Y-93444097D03*
X131050000Y-93444098D03*
X130550000Y-93444097D03*
D42*
X129862500Y-94131597D03*
X129862501Y-94631597D03*
X129862500Y-95131597D03*
X129862500Y-95631597D03*
X129862501Y-96131597D03*
X129862500Y-96631597D03*
D43*
X131800000Y-95381597D03*
%TD*%
D32*
%TO.C,C86*%
X122225000Y-95115751D03*
X122225000Y-94565751D03*
%TD*%
D16*
%TO.C,C47*%
X158940802Y-91739343D03*
X159490800Y-91739343D03*
%TD*%
D44*
%TO.C,L2*%
X127525000Y-97425000D03*
X129025000Y-97425000D03*
%TD*%
D32*
%TO.C,C7*%
X141625000Y-92274999D03*
X141625000Y-91725001D03*
%TD*%
D30*
%TO.C,C40*%
X160688734Y-93338412D03*
X160688734Y-94338410D03*
%TD*%
D73*
X120070000Y-103320000D02*
X120070000Y-106206065D01*
X120792545Y-106206065D02*
X120070000Y-106206065D01*
X120070000Y-106130000D02*
X120070000Y-105860000D01*
X120146065Y-106130000D02*
X120070000Y-106206065D01*
X120480000Y-103730000D02*
X120480000Y-104340000D01*
X120422027Y-103672027D02*
X120480000Y-103730000D01*
X120200286Y-103450286D02*
X120200286Y-104756521D01*
X120070000Y-103320000D02*
X120200286Y-103450286D01*
D74*
X126340000Y-104731218D02*
X126509892Y-104561326D01*
X126340000Y-105064366D02*
X126340000Y-104731218D01*
X128200000Y-105630000D02*
X128200000Y-110082000D01*
X128200000Y-110082000D02*
X128418000Y-110300000D01*
X128240000Y-105560000D02*
X128270000Y-105560000D01*
X128132350Y-105667650D02*
X128240000Y-105560000D01*
X128132350Y-109580000D02*
X128132350Y-105667650D01*
X128270000Y-105560000D02*
X128200000Y-105630000D01*
D73*
X123157638Y-102939502D02*
X123157638Y-104414524D01*
X121719068Y-101500932D02*
X123157638Y-102939502D01*
X121277863Y-101059727D02*
X121225000Y-101059727D01*
X121719068Y-101500932D02*
X121277863Y-101059727D01*
D75*
X122820000Y-103425284D02*
X123021791Y-103425284D01*
D73*
X120422027Y-103672027D02*
X120070000Y-103320000D01*
X120673128Y-103672027D02*
X120422027Y-103672027D01*
X120070000Y-103320000D02*
X120070000Y-101620000D01*
X120422337Y-103672337D02*
X120070000Y-103320000D01*
X120791287Y-103672337D02*
X120422337Y-103672337D01*
X120791287Y-104463564D02*
X120791287Y-103672337D01*
X122551082Y-102332946D02*
X121719068Y-101500932D01*
D75*
X128120000Y-110640000D02*
X128427873Y-110640000D01*
D74*
X128437873Y-110630000D02*
X128437873Y-110326129D01*
X126072672Y-111706742D02*
X126090000Y-111689414D01*
X126340000Y-110020000D02*
X126072672Y-110287328D01*
X126072672Y-110287328D02*
X126072672Y-111706742D01*
X126340000Y-109980000D02*
X126340000Y-110020000D01*
D12*
X127610000Y-110600000D02*
X127480000Y-110600000D01*
D76*
X127250000Y-105285587D02*
X127250000Y-111025000D01*
D77*
X127204999Y-105235984D02*
X127455001Y-104985982D01*
X127250000Y-105285587D02*
X127500002Y-105035585D01*
D73*
X128170000Y-105705585D02*
X128240000Y-105635585D01*
D12*
X126943780Y-104460585D02*
X126708757Y-104695608D01*
X126747183Y-104657183D02*
X126943780Y-104460585D01*
X126340000Y-104763335D02*
X126641030Y-104763335D01*
D73*
X126340000Y-105064366D02*
X126340000Y-104763335D01*
D12*
X126747183Y-104657183D02*
X126340000Y-105064366D01*
D74*
X128437873Y-111677986D02*
X128437873Y-110630000D01*
D73*
X128170000Y-109976478D02*
X128170000Y-105705585D01*
D12*
X120922297Y-103697743D02*
X120870492Y-103645938D01*
X126943780Y-104460585D02*
X127500002Y-104460585D01*
X120870492Y-103645938D02*
X120699217Y-103645938D01*
D74*
X126068965Y-111677655D02*
X126068965Y-110319291D01*
D12*
X120770000Y-103660000D02*
X120757973Y-103672027D01*
D73*
X126340000Y-109980000D02*
X126340000Y-105064366D01*
D12*
X120699217Y-103645938D02*
X120673128Y-103672027D01*
X126641030Y-104763335D02*
X126747183Y-104657183D01*
X120922297Y-104900099D02*
X120922297Y-103697743D01*
X120757973Y-103672027D02*
X120673128Y-103672027D01*
X127357166Y-104460000D02*
X126510000Y-104460000D01*
G36*
X121229912Y-100834706D02*
G01*
X121296949Y-100854399D01*
X121325025Y-100879167D01*
X121532647Y-101127485D01*
X121560548Y-101191542D01*
X121549387Y-101260515D01*
X121519677Y-101299900D01*
X121437423Y-101372663D01*
X121374168Y-101402338D01*
X121304911Y-101393103D01*
X121267732Y-101367617D01*
X121265666Y-101365558D01*
X121264759Y-101364645D01*
X121255346Y-101355067D01*
X121239446Y-101340215D01*
X121239444Y-101340214D01*
X121182518Y-101339775D01*
X121150092Y-101335201D01*
X121149916Y-101335151D01*
X121149909Y-101335150D01*
X121148875Y-101335154D01*
X121148513Y-101335155D01*
X121148394Y-101335155D01*
X121117599Y-101335250D01*
X121117598Y-101335250D01*
X121112401Y-101335266D01*
X121112019Y-101335267D01*
X121013587Y-101335267D01*
X121012527Y-101335262D01*
X120948160Y-101334712D01*
X120881292Y-101314456D01*
X120835990Y-101261263D01*
X120825221Y-101210175D01*
X120825636Y-101115074D01*
X120825597Y-100958702D01*
X120845264Y-100891657D01*
X120898057Y-100845889D01*
X120949613Y-100834670D01*
X121229912Y-100834706D01*
G37*
G36*
X128118202Y-104479685D02*
G01*
X128163957Y-104532489D01*
X128175163Y-104584342D01*
X128160318Y-109972643D01*
X128405204Y-110297143D01*
X128429875Y-110362513D01*
X128430224Y-110371161D01*
X128435862Y-111403128D01*
X128416544Y-111470274D01*
X128363991Y-111516316D01*
X128312541Y-111527803D01*
X128205951Y-111528385D01*
X126204677Y-111539318D01*
X126137531Y-111520000D01*
X126091489Y-111467447D01*
X126080000Y-111415320D01*
X126080000Y-110372695D01*
X126099685Y-110305656D01*
X126106285Y-110296355D01*
X126330000Y-110009999D01*
X126330000Y-105050567D01*
X126349685Y-104983528D01*
X126377772Y-104952765D01*
X126976387Y-104486198D01*
X127041364Y-104460512D01*
X127052615Y-104460000D01*
X128051163Y-104460000D01*
X128118202Y-104479685D01*
G37*
G36*
X122228067Y-102188356D02*
G01*
X122228103Y-102188392D01*
X122246646Y-102206870D01*
X122280239Y-102268134D01*
X122282329Y-102280727D01*
X122285010Y-102304359D01*
X123007948Y-102933409D01*
X123045601Y-102992265D01*
X123050546Y-103025738D01*
X123059987Y-103988680D01*
X123059984Y-103991355D01*
X123057504Y-104202186D01*
X123037033Y-104268989D01*
X122983694Y-104314119D01*
X122933513Y-104324727D01*
X120963748Y-104324727D01*
X120896709Y-104305042D01*
X120850954Y-104252238D01*
X120839761Y-104198924D01*
X120847652Y-103656361D01*
X120790213Y-103677292D01*
X120720485Y-103681749D01*
X120692217Y-103671651D01*
X120677564Y-103664310D01*
X120626443Y-103616682D01*
X120609187Y-103548977D01*
X120611855Y-103527480D01*
X120613860Y-103518117D01*
X120633021Y-103473700D01*
X120665209Y-103427011D01*
X120686668Y-103403188D01*
X120695322Y-103395781D01*
X120701412Y-103390892D01*
X121569953Y-102737556D01*
X121590717Y-102724918D01*
X121608905Y-102716164D01*
X121677848Y-102704827D01*
X121741977Y-102732563D01*
X121780930Y-102790567D01*
X121782340Y-102860423D01*
X121745759Y-102919951D01*
X121743526Y-102921919D01*
X121731948Y-102931874D01*
X121731947Y-102931876D01*
X121770268Y-102968766D01*
X121804913Y-103029441D01*
X121808269Y-103058468D01*
X121807425Y-103341199D01*
X122152927Y-103338821D01*
X122155284Y-103284600D01*
X122155873Y-102906784D01*
X122153143Y-102881053D01*
X122153141Y-102881042D01*
X122148777Y-102864458D01*
X122148774Y-102864450D01*
X122142489Y-102850832D01*
X122132014Y-102834246D01*
X122132009Y-102834240D01*
X122099719Y-102801951D01*
X122091286Y-102793837D01*
X122089655Y-102792239D01*
X121997265Y-102700008D01*
X121996910Y-102700036D01*
X121979046Y-102719418D01*
X121954626Y-102740414D01*
X121890959Y-102769194D01*
X121821840Y-102758984D01*
X121769212Y-102713026D01*
X121749786Y-102645912D01*
X121752147Y-102622302D01*
X121753511Y-102615414D01*
X121767302Y-102578304D01*
X121784192Y-102548539D01*
X121792611Y-102535641D01*
X122041148Y-102202132D01*
X122096991Y-102160139D01*
X122166672Y-102155004D01*
X122228067Y-102188356D01*
G37*
G36*
X121573093Y-101535693D02*
G01*
X122307574Y-102267582D01*
X122308751Y-102270408D01*
X122307986Y-102272768D01*
X122285009Y-102304359D01*
X122289816Y-102308543D01*
X122291180Y-102311283D01*
X122290425Y-102313913D01*
X122007180Y-102703376D01*
X122004569Y-102704974D01*
X122001592Y-102704258D01*
X122001119Y-102703854D01*
X121997266Y-102700007D01*
X121997264Y-102700008D01*
X121990275Y-102709621D01*
X121989648Y-102710302D01*
X121731948Y-102931874D01*
X121736017Y-102935792D01*
X121737242Y-102938598D01*
X121736125Y-102941448D01*
X121735851Y-102941707D01*
X120926794Y-103637347D01*
X120926207Y-103637766D01*
X120923733Y-103639214D01*
X120923081Y-103639520D01*
X120852950Y-103665075D01*
X120849892Y-103664943D01*
X120847823Y-103662686D01*
X120847581Y-103661259D01*
X120847652Y-103656361D01*
X120741620Y-103695000D01*
X120738561Y-103694868D01*
X120738458Y-103694818D01*
X120152038Y-103401021D01*
X120150034Y-103398707D01*
X120149840Y-103397725D01*
X120121900Y-103000140D01*
X120121890Y-102999863D01*
X120120853Y-101540302D01*
X120122023Y-101537473D01*
X120124850Y-101536299D01*
X120124986Y-101536301D01*
X120238737Y-101540092D01*
X120496508Y-101539909D01*
X120499337Y-101541079D01*
X120500511Y-101543906D01*
X120500511Y-101543908D01*
X120500797Y-102997518D01*
X120848296Y-102997411D01*
X120848255Y-102864001D01*
X120849426Y-102861172D01*
X120852254Y-102860000D01*
X121280016Y-102860000D01*
X121293762Y-102859741D01*
X121293778Y-102859740D01*
X121303969Y-102858396D01*
X121308476Y-102857514D01*
X121314894Y-102855807D01*
X121324047Y-102852600D01*
X121324055Y-102852597D01*
X121330005Y-102849997D01*
X121337440Y-102846085D01*
X121337465Y-102846070D01*
X121344791Y-102841221D01*
X121344801Y-102841213D01*
X121350543Y-102836816D01*
X121359009Y-102829012D01*
X121698944Y-102488966D01*
X121703204Y-102484149D01*
X121706478Y-102479565D01*
X121706479Y-102479563D01*
X121710336Y-102473228D01*
X121710339Y-102473222D01*
X121713410Y-102465700D01*
X121715521Y-102457700D01*
X121715521Y-102457699D01*
X121716757Y-102449172D01*
X121716757Y-102441278D01*
X121716756Y-102441262D01*
X121715932Y-102434642D01*
X121715929Y-102434620D01*
X121714746Y-102428901D01*
X121710788Y-102418266D01*
X121706052Y-102410115D01*
X121706048Y-102410109D01*
X121700386Y-102402935D01*
X121607009Y-102309661D01*
X121607002Y-102309655D01*
X121602806Y-102306352D01*
X121602805Y-102306351D01*
X121598245Y-102303241D01*
X121590845Y-102299419D01*
X121590835Y-102299415D01*
X121584107Y-102296896D01*
X121584092Y-102296891D01*
X121576862Y-102295136D01*
X121570048Y-102294465D01*
X121570046Y-102294464D01*
X121103989Y-102294458D01*
X121101161Y-102293286D01*
X121099989Y-102290458D01*
X121099999Y-101539258D01*
X121101171Y-101536430D01*
X121103993Y-101535258D01*
X121570264Y-101534526D01*
X121573093Y-101535693D01*
G37*
%LPD*%
M02*
