%TF.GenerationSoftware,KiCad,Pcbnew,10.0.0*%
%TF.CreationDate,2026-08-26T10:59:02-04:00*%
%TF.ProjectId,ClockGen_Si5351X_QFN16,436c6f63-6b47-4656-9e5f-536935333531,rev?*%
%TF.SameCoordinates,Original*%
%TF.FileFunction,Legend,Bot*%
%TF.FilePolarity,Positive*%
%FSLAX46Y46*%
G04 Gerber Fmt 4.6, Leading zero omitted, Abs format (unit mm)*
G04 Created by KiCad (PCBNEW 10.0.0) date 2026-08-26 10:59:02*
%MOMM*%
%LPD*%
G01*
G04 APERTURE LIST*
%ADD10C,0.100000*%
%ADD11C,0.000000*%
G04 APERTURE END LIST*
D10*
G36*
X147749734Y-103869668D02*
G01*
X147819516Y-103920634D01*
X147888036Y-103999910D01*
X147904889Y-103999910D01*
X147932740Y-103932710D01*
X147964110Y-103873182D01*
X147995936Y-103825477D01*
X148030867Y-103784125D01*
X148066485Y-103751125D01*
X148104966Y-103723662D01*
X148145080Y-103702300D01*
X148188009Y-103686109D01*
X148283356Y-103669115D01*
X148316041Y-103668076D01*
X148374629Y-103671000D01*
X148428731Y-103679748D01*
X148475648Y-103693275D01*
X148518718Y-103711900D01*
X148556870Y-103734798D01*
X148591524Y-103762429D01*
X148650878Y-103832236D01*
X148698429Y-103924972D01*
X148733768Y-104046579D01*
X148754698Y-104204997D01*
X148758884Y-104331653D01*
X148758884Y-104676035D01*
X147205500Y-104676035D01*
X147205500Y-104384226D01*
X147850301Y-104384226D01*
X147850301Y-104358947D01*
X147852643Y-104310679D01*
X148022492Y-104310679D01*
X148024507Y-104384226D01*
X148538333Y-104384226D01*
X148538333Y-104184649D01*
X148535498Y-104146484D01*
X148527382Y-104112263D01*
X148496980Y-104054446D01*
X148448854Y-104009639D01*
X148383816Y-103978962D01*
X148306078Y-103966377D01*
X148299280Y-103966296D01*
X148246464Y-103969241D01*
X148199761Y-103978134D01*
X148163125Y-103991145D01*
X148131058Y-104009012D01*
X148104823Y-104030421D01*
X148082436Y-104056275D01*
X148048294Y-104122800D01*
X148027622Y-104216354D01*
X148022492Y-104310679D01*
X147852643Y-104310679D01*
X147853496Y-104293092D01*
X147864138Y-104224177D01*
X147864955Y-104220370D01*
X147786386Y-104199422D01*
X147728851Y-104172101D01*
X147205500Y-103911708D01*
X147205500Y-103567326D01*
X147749734Y-103869668D01*
G37*
G36*
X147937058Y-102518946D02*
G01*
X148004381Y-102527544D01*
X148063838Y-102540974D01*
X148118266Y-102559334D01*
X148165820Y-102581512D01*
X148208600Y-102607986D01*
X148245593Y-102637746D01*
X148277956Y-102671329D01*
X148328220Y-102748732D01*
X148359929Y-102840953D01*
X148371958Y-102949570D01*
X148372003Y-102957054D01*
X148369092Y-103018951D01*
X148360433Y-103077149D01*
X148346714Y-103129782D01*
X148327841Y-103178780D01*
X148304517Y-103223064D01*
X148276467Y-103263709D01*
X148207091Y-103333347D01*
X148119071Y-103388191D01*
X148010776Y-103427479D01*
X147880187Y-103449184D01*
X147797269Y-103452562D01*
X147713714Y-103449642D01*
X147635711Y-103440924D01*
X147567013Y-103427372D01*
X147503481Y-103408726D01*
X147447946Y-103386324D01*
X147397235Y-103359414D01*
X147353135Y-103329362D01*
X147313624Y-103295234D01*
X147279510Y-103257985D01*
X147249906Y-103216923D01*
X147204542Y-103123702D01*
X147177580Y-103013586D01*
X147170329Y-102908694D01*
X147173249Y-102833263D01*
X147181968Y-102760464D01*
X147196045Y-102692069D01*
X147215549Y-102626712D01*
X147262652Y-102520256D01*
X147496118Y-102520256D01*
X147496118Y-102618900D01*
X147456973Y-102658950D01*
X147426212Y-102699882D01*
X147406068Y-102736846D01*
X147391826Y-102775746D01*
X147380290Y-102859309D01*
X147380255Y-102864639D01*
X147383176Y-102911087D01*
X147391895Y-102954548D01*
X147405654Y-102993291D01*
X147424637Y-103028993D01*
X147476960Y-103089757D01*
X147549748Y-103137602D01*
X147645636Y-103171521D01*
X147732148Y-103185940D01*
X147732148Y-102738610D01*
X147853964Y-102738610D01*
X147878873Y-102853592D01*
X147885472Y-102973815D01*
X147882543Y-103038561D01*
X147873769Y-103102883D01*
X147853964Y-103185940D01*
X147879152Y-103211128D01*
X147983575Y-103181030D01*
X148067478Y-103147672D01*
X148110691Y-103123294D01*
X148145380Y-103095887D01*
X148167647Y-103070442D01*
X148184077Y-103042099D01*
X148199156Y-102979824D01*
X148199721Y-102963282D01*
X148196789Y-102926738D01*
X148187996Y-102893955D01*
X148155731Y-102841317D01*
X148100145Y-102796308D01*
X148008998Y-102753515D01*
X147879152Y-102713422D01*
X147853964Y-102738610D01*
X147732148Y-102738610D01*
X147732148Y-102520256D01*
X147750902Y-102519464D01*
X147864406Y-102516043D01*
X147937058Y-102518946D01*
G37*
G36*
X148336832Y-102401463D02*
G01*
X147205500Y-102069628D01*
X147205500Y-101823890D01*
X148336832Y-101498467D01*
X148336832Y-101769301D01*
X147658875Y-101891117D01*
X147552941Y-101907667D01*
X147444375Y-101917840D01*
X147379797Y-101920518D01*
X147379797Y-101947812D01*
X147570168Y-101971591D01*
X147641777Y-101984538D01*
X147658875Y-101987746D01*
X148336832Y-102105349D01*
X148336832Y-102401463D01*
G37*
G36*
X148758884Y-100090345D02*
G01*
X148758884Y-100413754D01*
X147205500Y-100856871D01*
X147205500Y-100571199D01*
X147527900Y-100501956D01*
X147527900Y-100478875D01*
X147708426Y-100478875D01*
X147778834Y-100450304D01*
X147850960Y-100427662D01*
X147909652Y-100413754D01*
X148391695Y-100308699D01*
X148391859Y-100308665D01*
X148474843Y-100292700D01*
X148571947Y-100281404D01*
X148571947Y-100237349D01*
X148415581Y-100215211D01*
X148391695Y-100210055D01*
X147943174Y-100113426D01*
X147828170Y-100083808D01*
X147763099Y-100062975D01*
X147708426Y-100039970D01*
X147708426Y-100478875D01*
X147527900Y-100478875D01*
X147527900Y-100025224D01*
X147205500Y-99953875D01*
X147205500Y-99632573D01*
X148758884Y-100090345D01*
G37*
G36*
X159719480Y-110929793D02*
G01*
X159774412Y-110944882D01*
X159798791Y-110961173D01*
X159820102Y-110983230D01*
X159841427Y-111016471D01*
X159859066Y-111057695D01*
X159876578Y-111121467D01*
X159889219Y-111198169D01*
X159900511Y-111341609D01*
X159903798Y-111516022D01*
X159895470Y-111776546D01*
X159875811Y-111917962D01*
X159847549Y-112006253D01*
X159811808Y-112061070D01*
X159766440Y-112093126D01*
X159737204Y-112101929D01*
X159704313Y-112104861D01*
X159694033Y-112104594D01*
X159638125Y-112091139D01*
X159613548Y-112075886D01*
X159592088Y-112055003D01*
X159570658Y-112023389D01*
X159552935Y-111984064D01*
X159535217Y-111922692D01*
X159522397Y-111848788D01*
X159510252Y-111699425D01*
X159506843Y-111516022D01*
X159514769Y-111257530D01*
X159533977Y-111115777D01*
X159561813Y-111027586D01*
X159597182Y-110972912D01*
X159642267Y-110940928D01*
X159671435Y-110932130D01*
X159704313Y-110929199D01*
X159719480Y-110929793D01*
G37*
G36*
X164172005Y-110942157D02*
G01*
X164242698Y-110963485D01*
X164275572Y-110982878D01*
X164305998Y-111007958D01*
X164335273Y-111040501D01*
X164361542Y-111079276D01*
X164386051Y-111127383D01*
X164406804Y-111182461D01*
X164424531Y-111248516D01*
X164437611Y-111322313D01*
X164446115Y-111408139D01*
X164449005Y-111502375D01*
X164444168Y-111623678D01*
X164421649Y-111769503D01*
X164384852Y-111879890D01*
X164337221Y-111960294D01*
X164280437Y-112015651D01*
X164248439Y-112035092D01*
X164214107Y-112049108D01*
X164176251Y-112057878D01*
X164136130Y-112060806D01*
X164100429Y-112058550D01*
X164028750Y-112037910D01*
X163995820Y-112019129D01*
X163965452Y-111994794D01*
X163936342Y-111963177D01*
X163910294Y-111925437D01*
X163885936Y-111878285D01*
X163865354Y-111824168D01*
X163847653Y-111758507D01*
X163834615Y-111684916D01*
X163826060Y-111598085D01*
X163823163Y-111502375D01*
X163828217Y-111379275D01*
X163851175Y-111233206D01*
X163888527Y-111121999D01*
X163936674Y-111040808D01*
X163993673Y-110984987D01*
X164025516Y-110965474D01*
X164059586Y-110951407D01*
X164096806Y-110942656D01*
X164136130Y-110939731D01*
X164172005Y-110942157D01*
G37*
G36*
X167257983Y-112471014D02*
G01*
X159042047Y-112471014D01*
X159042047Y-111547438D01*
X159208714Y-111547438D01*
X159208792Y-111566270D01*
X159220559Y-111763251D01*
X159249487Y-111919301D01*
X159292317Y-112041574D01*
X159347077Y-112136202D01*
X159413349Y-112207978D01*
X159451294Y-112236413D01*
X159492444Y-112259887D01*
X159538185Y-112278885D01*
X159587318Y-112292621D01*
X159642877Y-112301416D01*
X159702206Y-112304347D01*
X159811693Y-112294421D01*
X159854953Y-112280900D01*
X160870542Y-112280900D01*
X161240112Y-112280900D01*
X161611789Y-111561910D01*
X161716844Y-111679329D01*
X161716844Y-112280900D01*
X162008653Y-112280900D01*
X162008653Y-110822129D01*
X162280861Y-110822129D01*
X162280861Y-111137110D01*
X162392145Y-111137110D01*
X162401748Y-111119036D01*
X162458522Y-111034064D01*
X162517407Y-110979891D01*
X162550246Y-110961030D01*
X162585932Y-110947436D01*
X162628632Y-110938473D01*
X162675710Y-110935518D01*
X162759348Y-110944824D01*
X162801368Y-110957563D01*
X162840774Y-110975583D01*
X162878014Y-110999207D01*
X162912280Y-111028076D01*
X162944438Y-111063331D01*
X162973116Y-111103964D01*
X162999149Y-111151936D01*
X163021058Y-111205495D01*
X163039318Y-111267121D01*
X163052715Y-111334520D01*
X163061254Y-111410249D01*
X163064148Y-111491842D01*
X163064109Y-111501580D01*
X163052089Y-111653947D01*
X163021299Y-111780061D01*
X162975445Y-111880617D01*
X162917486Y-111957245D01*
X162849146Y-112011730D01*
X162811210Y-112031047D01*
X162770814Y-112045048D01*
X162727496Y-112053684D01*
X162681939Y-112056593D01*
X162654664Y-112055714D01*
X162571238Y-112039692D01*
X162501611Y-112003919D01*
X162470295Y-111977425D01*
X162442215Y-111945472D01*
X162415347Y-111904594D01*
X162392145Y-111857199D01*
X162280861Y-111857199D01*
X162280861Y-112184729D01*
X162305861Y-112201956D01*
X162412338Y-112258210D01*
X162469222Y-112278165D01*
X162528038Y-112292409D01*
X162592224Y-112301389D01*
X162658858Y-112304347D01*
X162785962Y-112295370D01*
X162911145Y-112265731D01*
X163021050Y-112216807D01*
X163070640Y-112185271D01*
X163116606Y-112149108D01*
X163159302Y-112107935D01*
X163198131Y-112062200D01*
X163233717Y-112010854D01*
X163265090Y-111954922D01*
X163292887Y-111892667D01*
X163316032Y-111825745D01*
X163334948Y-111751840D01*
X163348695Y-111673169D01*
X163357351Y-111587038D01*
X163360262Y-111496056D01*
X163359504Y-111481401D01*
X163522928Y-111481401D01*
X163523716Y-111502375D01*
X163528154Y-111620557D01*
X163552079Y-111790940D01*
X163592529Y-111931106D01*
X163647189Y-112045060D01*
X163714862Y-112136302D01*
X163795621Y-112207418D01*
X163841531Y-112236023D01*
X163890776Y-112259659D01*
X163944980Y-112278809D01*
X164002620Y-112292648D01*
X164066505Y-112301419D01*
X164134023Y-112304347D01*
X164211270Y-112300561D01*
X164327923Y-112277846D01*
X164428956Y-112235854D01*
X164474430Y-112207611D01*
X164516552Y-112174534D01*
X164555988Y-112135865D01*
X164591858Y-112092201D01*
X164625242Y-112041662D01*
X164627510Y-112037359D01*
X164893497Y-112037359D01*
X164893497Y-112280900D01*
X165739706Y-112280900D01*
X165739706Y-110822129D01*
X166011915Y-110822129D01*
X166011915Y-111137110D01*
X166123198Y-111137110D01*
X166132801Y-111119036D01*
X166189576Y-111034064D01*
X166248460Y-110979891D01*
X166281300Y-110961030D01*
X166316986Y-110947436D01*
X166359686Y-110938473D01*
X166406764Y-110935518D01*
X166490402Y-110944824D01*
X166532422Y-110957563D01*
X166571828Y-110975583D01*
X166609068Y-110999207D01*
X166643334Y-111028076D01*
X166675492Y-111063331D01*
X166704170Y-111103964D01*
X166730203Y-111151936D01*
X166752112Y-111205495D01*
X166770372Y-111267121D01*
X166783769Y-111334520D01*
X166792307Y-111410249D01*
X166795202Y-111491842D01*
X166795163Y-111501580D01*
X166783143Y-111653947D01*
X166752352Y-111780061D01*
X166706499Y-111880617D01*
X166648539Y-111957245D01*
X166580199Y-112011730D01*
X166542264Y-112031047D01*
X166501868Y-112045048D01*
X166458550Y-112053684D01*
X166412992Y-112056593D01*
X166385718Y-112055714D01*
X166302292Y-112039692D01*
X166232665Y-112003919D01*
X166201348Y-111977425D01*
X166173268Y-111945472D01*
X166146401Y-111904594D01*
X166123198Y-111857199D01*
X166011915Y-111857199D01*
X166011915Y-112184729D01*
X166036915Y-112201956D01*
X166143392Y-112258210D01*
X166200275Y-112278165D01*
X166259092Y-112292409D01*
X166323278Y-112301389D01*
X166389911Y-112304347D01*
X166517016Y-112295370D01*
X166642199Y-112265731D01*
X166752104Y-112216807D01*
X166801694Y-112185271D01*
X166847660Y-112149108D01*
X166890356Y-112107935D01*
X166929184Y-112062200D01*
X166964770Y-112010854D01*
X166996144Y-111954922D01*
X167023941Y-111892667D01*
X167047085Y-111825745D01*
X167066002Y-111751840D01*
X167079749Y-111673169D01*
X167088405Y-111587038D01*
X167091316Y-111496056D01*
X167084671Y-111367662D01*
X167057191Y-111215518D01*
X167010615Y-111081964D01*
X166947251Y-110967632D01*
X166869167Y-110872893D01*
X166778062Y-110798017D01*
X166675241Y-110743397D01*
X166619707Y-110723875D01*
X166561695Y-110709747D01*
X166501052Y-110701114D01*
X166438272Y-110698206D01*
X166374212Y-110701185D01*
X166309933Y-110710092D01*
X166240435Y-110726191D01*
X166170129Y-110749002D01*
X166091868Y-110781615D01*
X166011915Y-110822129D01*
X165739706Y-110822129D01*
X165739706Y-110727515D01*
X165447897Y-110727515D01*
X165447897Y-112037359D01*
X164893497Y-112037359D01*
X164627510Y-112037359D01*
X164654700Y-111985780D01*
X164681331Y-111921426D01*
X164703533Y-111851223D01*
X164722096Y-111770829D01*
X164735603Y-111683962D01*
X164744307Y-111585216D01*
X164747226Y-111479294D01*
X164743315Y-111368700D01*
X164720714Y-111206337D01*
X164680610Y-111070233D01*
X164625337Y-110957856D01*
X164556262Y-110866837D01*
X164473666Y-110795422D01*
X164426897Y-110766684D01*
X164376801Y-110742893D01*
X164322154Y-110723720D01*
X164264185Y-110709845D01*
X164200792Y-110701126D01*
X164134023Y-110698206D01*
X164069586Y-110701027D01*
X163952721Y-110722594D01*
X163849620Y-110764240D01*
X163802803Y-110792508D01*
X163759262Y-110825663D01*
X163718525Y-110864242D01*
X163681354Y-110907733D01*
X163646994Y-110957445D01*
X163616600Y-111012210D01*
X163589442Y-111074113D01*
X163566756Y-111141281D01*
X163548075Y-111216437D01*
X163534460Y-111297099D01*
X163525835Y-111386383D01*
X163522928Y-111481401D01*
X163359504Y-111481401D01*
X163353618Y-111367662D01*
X163326137Y-111215518D01*
X163279561Y-111081964D01*
X163216198Y-110967632D01*
X163138114Y-110872893D01*
X163047009Y-110798017D01*
X162944187Y-110743397D01*
X162888653Y-110723875D01*
X162830641Y-110709747D01*
X162769999Y-110701114D01*
X162707218Y-110698206D01*
X162643158Y-110701185D01*
X162578879Y-110710092D01*
X162509381Y-110726191D01*
X162439075Y-110749002D01*
X162360814Y-110781615D01*
X162280861Y-110822129D01*
X162008653Y-110822129D01*
X162008653Y-110727515D01*
X161716844Y-110727515D01*
X161716844Y-111236945D01*
X161721093Y-111341936D01*
X161733114Y-111442860D01*
X161752473Y-111545148D01*
X161720965Y-111553483D01*
X161691807Y-111481284D01*
X161661483Y-111419911D01*
X161603911Y-111323155D01*
X161597134Y-111312416D01*
X161229579Y-110727515D01*
X160916704Y-110727515D01*
X161238006Y-111218077D01*
X161311794Y-111317671D01*
X161405984Y-111429835D01*
X161338730Y-111513442D01*
X161254767Y-111635274D01*
X160870542Y-112280900D01*
X159854953Y-112280900D01*
X159905572Y-112265079D01*
X159947159Y-112243208D01*
X159985422Y-112216475D01*
X160021427Y-112183812D01*
X160053999Y-112145941D01*
X160084925Y-112099930D01*
X160112086Y-112047979D01*
X160137421Y-111984702D01*
X160158450Y-111914333D01*
X160176754Y-111828393D01*
X160190011Y-111733726D01*
X160198972Y-111617770D01*
X160201927Y-111490835D01*
X160201809Y-111467552D01*
X160189646Y-111270290D01*
X160160365Y-111113772D01*
X160117226Y-110991025D01*
X160062231Y-110896017D01*
X159995851Y-110823998D01*
X159957945Y-110795506D01*
X159916860Y-110771979D01*
X159871313Y-110752974D01*
X159822417Y-110739229D01*
X159767279Y-110730445D01*
X159708435Y-110727515D01*
X159598301Y-110736986D01*
X159503413Y-110765499D01*
X159461807Y-110786743D01*
X159423661Y-110812748D01*
X159387921Y-110844532D01*
X159355691Y-110881432D01*
X159325079Y-110926485D01*
X159298274Y-110977443D01*
X159273136Y-111040170D01*
X159252332Y-111110103D01*
X159234020Y-111197023D01*
X159220797Y-111293122D01*
X159211690Y-111414189D01*
X159209416Y-111516022D01*
X159208714Y-111547438D01*
X159042047Y-111547438D01*
X159042047Y-110531539D01*
X167257983Y-110531539D01*
X167257983Y-112471014D01*
G37*
G36*
X164172005Y-104896957D02*
G01*
X164242698Y-104918285D01*
X164275572Y-104937678D01*
X164305998Y-104962758D01*
X164335273Y-104995301D01*
X164361542Y-105034076D01*
X164386051Y-105082183D01*
X164406804Y-105137261D01*
X164424531Y-105203316D01*
X164437611Y-105277113D01*
X164446115Y-105362939D01*
X164449005Y-105457175D01*
X164444168Y-105578478D01*
X164421649Y-105724303D01*
X164384852Y-105834690D01*
X164337221Y-105915094D01*
X164280437Y-105970451D01*
X164248439Y-105989892D01*
X164214107Y-106003908D01*
X164176251Y-106012678D01*
X164136130Y-106015606D01*
X164100429Y-106013350D01*
X164028750Y-105992710D01*
X163995820Y-105973929D01*
X163965452Y-105949594D01*
X163936342Y-105917977D01*
X163910294Y-105880237D01*
X163885936Y-105833085D01*
X163865354Y-105778968D01*
X163847653Y-105713307D01*
X163834615Y-105639716D01*
X163826060Y-105552885D01*
X163823163Y-105457175D01*
X163828217Y-105334075D01*
X163851175Y-105188006D01*
X163888527Y-105076799D01*
X163936674Y-104995608D01*
X163993673Y-104939787D01*
X164025516Y-104920274D01*
X164059586Y-104906207D01*
X164096806Y-104897456D01*
X164136130Y-104894531D01*
X164172005Y-104896957D01*
G37*
G36*
X167257983Y-106425814D02*
G01*
X159065128Y-106425814D01*
X159065128Y-105783148D01*
X159231795Y-105783148D01*
X159233037Y-105820939D01*
X159251267Y-105926782D01*
X159289922Y-106019773D01*
X159316591Y-106061389D01*
X159348011Y-106099562D01*
X159384384Y-106134382D01*
X159425344Y-106165326D01*
X159471542Y-106192607D01*
X159522221Y-106215492D01*
X159578407Y-106234102D01*
X159638987Y-106247721D01*
X159705181Y-106256253D01*
X159775663Y-106259147D01*
X159878756Y-106255159D01*
X160005703Y-106235700D01*
X160870542Y-106235700D01*
X161240112Y-106235700D01*
X161611789Y-105516710D01*
X161716844Y-105634129D01*
X161716844Y-106235700D01*
X162008653Y-106235700D01*
X162008653Y-104776929D01*
X162280861Y-104776929D01*
X162280861Y-105091910D01*
X162392145Y-105091910D01*
X162401748Y-105073836D01*
X162458522Y-104988864D01*
X162517407Y-104934691D01*
X162550246Y-104915830D01*
X162585932Y-104902236D01*
X162628632Y-104893273D01*
X162675710Y-104890318D01*
X162759348Y-104899624D01*
X162801368Y-104912363D01*
X162840774Y-104930383D01*
X162878014Y-104954007D01*
X162912280Y-104982876D01*
X162944438Y-105018131D01*
X162973116Y-105058764D01*
X162999149Y-105106736D01*
X163021058Y-105160295D01*
X163039318Y-105221921D01*
X163052715Y-105289320D01*
X163061254Y-105365049D01*
X163064148Y-105446642D01*
X163064109Y-105456380D01*
X163052089Y-105608747D01*
X163021299Y-105734861D01*
X162975445Y-105835417D01*
X162917486Y-105912045D01*
X162849146Y-105966530D01*
X162811210Y-105985847D01*
X162770814Y-105999848D01*
X162727496Y-106008484D01*
X162681939Y-106011393D01*
X162654664Y-106010514D01*
X162571238Y-105994492D01*
X162501611Y-105958719D01*
X162470295Y-105932225D01*
X162442215Y-105900272D01*
X162415347Y-105859394D01*
X162392145Y-105811999D01*
X162280861Y-105811999D01*
X162280861Y-106139529D01*
X162305861Y-106156756D01*
X162412338Y-106213010D01*
X162469222Y-106232965D01*
X162528038Y-106247209D01*
X162592224Y-106256189D01*
X162658858Y-106259147D01*
X162785962Y-106250170D01*
X162911145Y-106220531D01*
X163021050Y-106171607D01*
X163070640Y-106140071D01*
X163116606Y-106103908D01*
X163159302Y-106062735D01*
X163198131Y-106017000D01*
X163233717Y-105965654D01*
X163265090Y-105909722D01*
X163292887Y-105847467D01*
X163316032Y-105780545D01*
X163334948Y-105706640D01*
X163348695Y-105627969D01*
X163357351Y-105541838D01*
X163360262Y-105450856D01*
X163359504Y-105436201D01*
X163522928Y-105436201D01*
X163523716Y-105457175D01*
X163528154Y-105575357D01*
X163552079Y-105745740D01*
X163592529Y-105885906D01*
X163647189Y-105999860D01*
X163714862Y-106091102D01*
X163795621Y-106162218D01*
X163841531Y-106190823D01*
X163890776Y-106214459D01*
X163944980Y-106233609D01*
X164002620Y-106247448D01*
X164066505Y-106256219D01*
X164134023Y-106259147D01*
X164211270Y-106255361D01*
X164327923Y-106232646D01*
X164428956Y-106190654D01*
X164474430Y-106162411D01*
X164516552Y-106129334D01*
X164555988Y-106090665D01*
X164591858Y-106047001D01*
X164625242Y-105996462D01*
X164627510Y-105992159D01*
X164893497Y-105992159D01*
X164893497Y-106235700D01*
X165739706Y-106235700D01*
X165739706Y-104776929D01*
X166011915Y-104776929D01*
X166011915Y-105091910D01*
X166123198Y-105091910D01*
X166132801Y-105073836D01*
X166189576Y-104988864D01*
X166248460Y-104934691D01*
X166281300Y-104915830D01*
X166316986Y-104902236D01*
X166359686Y-104893273D01*
X166406764Y-104890318D01*
X166490402Y-104899624D01*
X166532422Y-104912363D01*
X166571828Y-104930383D01*
X166609068Y-104954007D01*
X166643334Y-104982876D01*
X166675492Y-105018131D01*
X166704170Y-105058764D01*
X166730203Y-105106736D01*
X166752112Y-105160295D01*
X166770372Y-105221921D01*
X166783769Y-105289320D01*
X166792307Y-105365049D01*
X166795202Y-105446642D01*
X166795163Y-105456380D01*
X166783143Y-105608747D01*
X166752352Y-105734861D01*
X166706499Y-105835417D01*
X166648539Y-105912045D01*
X166580199Y-105966530D01*
X166542264Y-105985847D01*
X166501868Y-105999848D01*
X166458550Y-106008484D01*
X166412992Y-106011393D01*
X166385718Y-106010514D01*
X166302292Y-105994492D01*
X166232665Y-105958719D01*
X166201348Y-105932225D01*
X166173268Y-105900272D01*
X166146401Y-105859394D01*
X166123198Y-105811999D01*
X166011915Y-105811999D01*
X166011915Y-106139529D01*
X166036915Y-106156756D01*
X166143392Y-106213010D01*
X166200275Y-106232965D01*
X166259092Y-106247209D01*
X166323278Y-106256189D01*
X166389911Y-106259147D01*
X166517016Y-106250170D01*
X166642199Y-106220531D01*
X166752104Y-106171607D01*
X166801694Y-106140071D01*
X166847660Y-106103908D01*
X166890356Y-106062735D01*
X166929184Y-106017000D01*
X166964770Y-105965654D01*
X166996144Y-105909722D01*
X167023941Y-105847467D01*
X167047085Y-105780545D01*
X167066002Y-105706640D01*
X167079749Y-105627969D01*
X167088405Y-105541838D01*
X167091316Y-105450856D01*
X167084671Y-105322462D01*
X167057191Y-105170318D01*
X167010615Y-105036764D01*
X166947251Y-104922432D01*
X166869167Y-104827693D01*
X166778062Y-104752817D01*
X166675241Y-104698197D01*
X166619707Y-104678675D01*
X166561695Y-104664547D01*
X166501052Y-104655914D01*
X166438272Y-104653006D01*
X166374212Y-104655985D01*
X166309933Y-104664892D01*
X166240435Y-104680991D01*
X166170129Y-104703802D01*
X166091868Y-104736415D01*
X166011915Y-104776929D01*
X165739706Y-104776929D01*
X165739706Y-104682315D01*
X165447897Y-104682315D01*
X165447897Y-105992159D01*
X164893497Y-105992159D01*
X164627510Y-105992159D01*
X164654700Y-105940580D01*
X164681331Y-105876226D01*
X164703533Y-105806023D01*
X164722096Y-105725629D01*
X164735603Y-105638762D01*
X164744307Y-105540016D01*
X164747226Y-105434094D01*
X164743315Y-105323500D01*
X164720714Y-105161137D01*
X164680610Y-105025033D01*
X164625337Y-104912656D01*
X164556262Y-104821637D01*
X164473666Y-104750222D01*
X164426897Y-104721484D01*
X164376801Y-104697693D01*
X164322154Y-104678520D01*
X164264185Y-104664645D01*
X164200792Y-104655926D01*
X164134023Y-104653006D01*
X164069586Y-104655827D01*
X163952721Y-104677394D01*
X163849620Y-104719040D01*
X163802803Y-104747308D01*
X163759262Y-104780463D01*
X163718525Y-104819042D01*
X163681354Y-104862533D01*
X163646994Y-104912245D01*
X163616600Y-104967010D01*
X163589442Y-105028913D01*
X163566756Y-105096081D01*
X163548075Y-105171237D01*
X163534460Y-105251899D01*
X163525835Y-105341183D01*
X163522928Y-105436201D01*
X163359504Y-105436201D01*
X163353618Y-105322462D01*
X163326137Y-105170318D01*
X163279561Y-105036764D01*
X163216198Y-104922432D01*
X163138114Y-104827693D01*
X163047009Y-104752817D01*
X162944187Y-104698197D01*
X162888653Y-104678675D01*
X162830641Y-104664547D01*
X162769999Y-104655914D01*
X162707218Y-104653006D01*
X162643158Y-104655985D01*
X162578879Y-104664892D01*
X162509381Y-104680991D01*
X162439075Y-104703802D01*
X162360814Y-104736415D01*
X162280861Y-104776929D01*
X162008653Y-104776929D01*
X162008653Y-104682315D01*
X161716844Y-104682315D01*
X161716844Y-105191745D01*
X161721093Y-105296736D01*
X161733114Y-105397660D01*
X161752473Y-105499948D01*
X161720965Y-105508283D01*
X161691807Y-105436084D01*
X161661483Y-105374711D01*
X161603911Y-105277955D01*
X161597134Y-105267216D01*
X161229579Y-104682315D01*
X160916704Y-104682315D01*
X161238006Y-105172877D01*
X161311794Y-105272471D01*
X161405984Y-105384635D01*
X161338730Y-105468242D01*
X161254767Y-105590074D01*
X160870542Y-106235700D01*
X160005703Y-106235700D01*
X160027140Y-106232414D01*
X160101090Y-106212390D01*
X160176740Y-106185691D01*
X160176740Y-105913024D01*
X160063350Y-105913024D01*
X160046751Y-105936706D01*
X160021544Y-105959936D01*
X159989555Y-105980210D01*
X159949594Y-105997748D01*
X159903932Y-106010926D01*
X159800850Y-106021926D01*
X159782040Y-106021490D01*
X159736501Y-106016524D01*
X159694931Y-106006336D01*
X159657627Y-105991378D01*
X159624643Y-105972021D01*
X159596104Y-105948600D01*
X159572282Y-105921553D01*
X159553239Y-105891037D01*
X159539368Y-105857649D01*
X159530807Y-105821445D01*
X159527909Y-105783148D01*
X159529020Y-105756062D01*
X159545375Y-105685329D01*
X159560739Y-105655482D01*
X159580922Y-105629066D01*
X159607504Y-105604847D01*
X159639489Y-105584408D01*
X159681236Y-105566147D01*
X159729634Y-105552455D01*
X159792470Y-105542421D01*
X159863865Y-105538142D01*
X159863865Y-105311362D01*
X159849957Y-105310417D01*
X159732613Y-105292269D01*
X159652352Y-105261773D01*
X159599150Y-105221099D01*
X159580470Y-105196457D01*
X159566927Y-105168842D01*
X159558134Y-105136034D01*
X159555203Y-105099787D01*
X159559543Y-105059348D01*
X159569508Y-105028102D01*
X159584812Y-104999616D01*
X159605491Y-104973836D01*
X159630870Y-104951771D01*
X159660739Y-104933738D01*
X159694504Y-104920340D01*
X159731484Y-104912046D01*
X159771449Y-104909186D01*
X159796934Y-104910107D01*
X159881072Y-104927740D01*
X159922113Y-104945751D01*
X159961603Y-104969882D01*
X160002740Y-105002941D01*
X160042376Y-105043275D01*
X160145232Y-105043275D01*
X160145232Y-104770517D01*
X160026240Y-104728283D01*
X159881664Y-104693538D01*
X159746262Y-104682315D01*
X159647238Y-104688170D01*
X159531521Y-104713319D01*
X159437857Y-104755262D01*
X159365023Y-104811524D01*
X159312071Y-104880803D01*
X159292949Y-104920392D01*
X159279073Y-104962853D01*
X159270425Y-105009079D01*
X159267515Y-105057930D01*
X159267802Y-105072540D01*
X159282261Y-105157910D01*
X159317437Y-105231704D01*
X159342694Y-105264205D01*
X159372847Y-105293292D01*
X159408518Y-105319201D01*
X159449026Y-105341071D01*
X159495491Y-105359059D01*
X159546776Y-105372271D01*
X159546776Y-105420631D01*
X159452996Y-105443213D01*
X159371489Y-105482206D01*
X159338253Y-105507219D01*
X159309464Y-105536127D01*
X159275182Y-105584446D01*
X159256905Y-105624217D01*
X159243647Y-105668540D01*
X159234742Y-105722963D01*
X159231795Y-105783148D01*
X159065128Y-105783148D01*
X159065128Y-104486339D01*
X167257983Y-104486339D01*
X167257983Y-106425814D01*
G37*
G36*
X164172005Y-92222357D02*
G01*
X164242698Y-92243685D01*
X164275572Y-92263078D01*
X164305998Y-92288158D01*
X164335273Y-92320701D01*
X164361542Y-92359476D01*
X164386051Y-92407583D01*
X164406804Y-92462661D01*
X164424531Y-92528716D01*
X164437611Y-92602513D01*
X164446115Y-92688339D01*
X164449005Y-92782575D01*
X164444168Y-92903878D01*
X164421649Y-93049703D01*
X164384852Y-93160090D01*
X164337221Y-93240494D01*
X164280437Y-93295851D01*
X164248439Y-93315292D01*
X164214107Y-93329308D01*
X164176251Y-93338078D01*
X164136130Y-93341006D01*
X164100429Y-93338750D01*
X164028750Y-93318110D01*
X163995820Y-93299329D01*
X163965452Y-93274994D01*
X163936342Y-93243377D01*
X163910294Y-93205637D01*
X163885936Y-93158485D01*
X163865354Y-93104368D01*
X163847653Y-93038707D01*
X163834615Y-92965116D01*
X163826060Y-92878285D01*
X163823163Y-92782575D01*
X163828217Y-92659475D01*
X163851175Y-92513406D01*
X163888527Y-92402199D01*
X163936674Y-92321008D01*
X163993673Y-92265187D01*
X164025516Y-92245674D01*
X164059586Y-92231607D01*
X164096806Y-92222856D01*
X164136130Y-92219931D01*
X164172005Y-92222357D01*
G37*
G36*
X167257983Y-93751214D02*
G01*
X159042047Y-93751214D01*
X159042047Y-93294478D01*
X159208714Y-93294478D01*
X159208714Y-93561100D01*
X160199912Y-93561100D01*
X160870542Y-93561100D01*
X161240112Y-93561100D01*
X161611789Y-92842110D01*
X161716844Y-92959529D01*
X161716844Y-93561100D01*
X162008653Y-93561100D01*
X162008653Y-92102329D01*
X162280861Y-92102329D01*
X162280861Y-92417310D01*
X162392145Y-92417310D01*
X162401748Y-92399236D01*
X162458522Y-92314264D01*
X162517407Y-92260091D01*
X162550246Y-92241230D01*
X162585932Y-92227636D01*
X162628632Y-92218673D01*
X162675710Y-92215718D01*
X162759348Y-92225024D01*
X162801368Y-92237763D01*
X162840774Y-92255783D01*
X162878014Y-92279407D01*
X162912280Y-92308276D01*
X162944438Y-92343531D01*
X162973116Y-92384164D01*
X162999149Y-92432136D01*
X163021058Y-92485695D01*
X163039318Y-92547321D01*
X163052715Y-92614720D01*
X163061254Y-92690449D01*
X163064148Y-92772042D01*
X163064109Y-92781780D01*
X163052089Y-92934147D01*
X163021299Y-93060261D01*
X162975445Y-93160817D01*
X162917486Y-93237445D01*
X162849146Y-93291930D01*
X162811210Y-93311247D01*
X162770814Y-93325248D01*
X162727496Y-93333884D01*
X162681939Y-93336793D01*
X162654664Y-93335914D01*
X162571238Y-93319892D01*
X162501611Y-93284119D01*
X162470295Y-93257625D01*
X162442215Y-93225672D01*
X162415347Y-93184794D01*
X162392145Y-93137399D01*
X162280861Y-93137399D01*
X162280861Y-93464929D01*
X162305861Y-93482156D01*
X162412338Y-93538410D01*
X162469222Y-93558365D01*
X162528038Y-93572609D01*
X162592224Y-93581589D01*
X162658858Y-93584547D01*
X162785962Y-93575570D01*
X162911145Y-93545931D01*
X163021050Y-93497007D01*
X163070640Y-93465471D01*
X163116606Y-93429308D01*
X163159302Y-93388135D01*
X163198131Y-93342400D01*
X163233717Y-93291054D01*
X163265090Y-93235122D01*
X163292887Y-93172867D01*
X163316032Y-93105945D01*
X163334948Y-93032040D01*
X163348695Y-92953369D01*
X163357351Y-92867238D01*
X163360262Y-92776256D01*
X163359504Y-92761601D01*
X163522928Y-92761601D01*
X163523716Y-92782575D01*
X163528154Y-92900757D01*
X163552079Y-93071140D01*
X163592529Y-93211306D01*
X163647189Y-93325260D01*
X163714862Y-93416502D01*
X163795621Y-93487618D01*
X163841531Y-93516223D01*
X163890776Y-93539859D01*
X163944980Y-93559009D01*
X164002620Y-93572848D01*
X164066505Y-93581619D01*
X164134023Y-93584547D01*
X164211270Y-93580761D01*
X164327923Y-93558046D01*
X164428956Y-93516054D01*
X164474430Y-93487811D01*
X164516552Y-93454734D01*
X164555988Y-93416065D01*
X164591858Y-93372401D01*
X164625242Y-93321862D01*
X164627510Y-93317559D01*
X164893497Y-93317559D01*
X164893497Y-93561100D01*
X165739706Y-93561100D01*
X165739706Y-92102329D01*
X166011915Y-92102329D01*
X166011915Y-92417310D01*
X166123198Y-92417310D01*
X166132801Y-92399236D01*
X166189576Y-92314264D01*
X166248460Y-92260091D01*
X166281300Y-92241230D01*
X166316986Y-92227636D01*
X166359686Y-92218673D01*
X166406764Y-92215718D01*
X166490402Y-92225024D01*
X166532422Y-92237763D01*
X166571828Y-92255783D01*
X166609068Y-92279407D01*
X166643334Y-92308276D01*
X166675492Y-92343531D01*
X166704170Y-92384164D01*
X166730203Y-92432136D01*
X166752112Y-92485695D01*
X166770372Y-92547321D01*
X166783769Y-92614720D01*
X166792307Y-92690449D01*
X166795202Y-92772042D01*
X166795163Y-92781780D01*
X166783143Y-92934147D01*
X166752352Y-93060261D01*
X166706499Y-93160817D01*
X166648539Y-93237445D01*
X166580199Y-93291930D01*
X166542264Y-93311247D01*
X166501868Y-93325248D01*
X166458550Y-93333884D01*
X166412992Y-93336793D01*
X166385718Y-93335914D01*
X166302292Y-93319892D01*
X166232665Y-93284119D01*
X166201348Y-93257625D01*
X166173268Y-93225672D01*
X166146401Y-93184794D01*
X166123198Y-93137399D01*
X166011915Y-93137399D01*
X166011915Y-93464929D01*
X166036915Y-93482156D01*
X166143392Y-93538410D01*
X166200275Y-93558365D01*
X166259092Y-93572609D01*
X166323278Y-93581589D01*
X166389911Y-93584547D01*
X166517016Y-93575570D01*
X166642199Y-93545931D01*
X166752104Y-93497007D01*
X166801694Y-93465471D01*
X166847660Y-93429308D01*
X166890356Y-93388135D01*
X166929184Y-93342400D01*
X166964770Y-93291054D01*
X166996144Y-93235122D01*
X167023941Y-93172867D01*
X167047085Y-93105945D01*
X167066002Y-93032040D01*
X167079749Y-92953369D01*
X167088405Y-92867238D01*
X167091316Y-92776256D01*
X167084671Y-92647862D01*
X167057191Y-92495718D01*
X167010615Y-92362164D01*
X166947251Y-92247832D01*
X166869167Y-92153093D01*
X166778062Y-92078217D01*
X166675241Y-92023597D01*
X166619707Y-92004075D01*
X166561695Y-91989947D01*
X166501052Y-91981314D01*
X166438272Y-91978406D01*
X166374212Y-91981385D01*
X166309933Y-91990292D01*
X166240435Y-92006391D01*
X166170129Y-92029202D01*
X166091868Y-92061815D01*
X166011915Y-92102329D01*
X165739706Y-92102329D01*
X165739706Y-92007715D01*
X165447897Y-92007715D01*
X165447897Y-93317559D01*
X164893497Y-93317559D01*
X164627510Y-93317559D01*
X164654700Y-93265980D01*
X164681331Y-93201626D01*
X164703533Y-93131423D01*
X164722096Y-93051029D01*
X164735603Y-92964162D01*
X164744307Y-92865416D01*
X164747226Y-92759494D01*
X164743315Y-92648900D01*
X164720714Y-92486537D01*
X164680610Y-92350433D01*
X164625337Y-92238056D01*
X164556262Y-92147037D01*
X164473666Y-92075622D01*
X164426897Y-92046884D01*
X164376801Y-92023093D01*
X164322154Y-92003920D01*
X164264185Y-91990045D01*
X164200792Y-91981326D01*
X164134023Y-91978406D01*
X164069586Y-91981227D01*
X163952721Y-92002794D01*
X163849620Y-92044440D01*
X163802803Y-92072708D01*
X163759262Y-92105863D01*
X163718525Y-92144442D01*
X163681354Y-92187933D01*
X163646994Y-92237645D01*
X163616600Y-92292410D01*
X163589442Y-92354313D01*
X163566756Y-92421481D01*
X163548075Y-92496637D01*
X163534460Y-92577299D01*
X163525835Y-92666583D01*
X163522928Y-92761601D01*
X163359504Y-92761601D01*
X163353618Y-92647862D01*
X163326137Y-92495718D01*
X163279561Y-92362164D01*
X163216198Y-92247832D01*
X163138114Y-92153093D01*
X163047009Y-92078217D01*
X162944187Y-92023597D01*
X162888653Y-92004075D01*
X162830641Y-91989947D01*
X162769999Y-91981314D01*
X162707218Y-91978406D01*
X162643158Y-91981385D01*
X162578879Y-91990292D01*
X162509381Y-92006391D01*
X162439075Y-92029202D01*
X162360814Y-92061815D01*
X162280861Y-92102329D01*
X162008653Y-92102329D01*
X162008653Y-92007715D01*
X161716844Y-92007715D01*
X161716844Y-92517145D01*
X161721093Y-92622136D01*
X161733114Y-92723060D01*
X161752473Y-92825348D01*
X161720965Y-92833683D01*
X161691807Y-92761484D01*
X161661483Y-92700111D01*
X161603911Y-92603355D01*
X161597134Y-92592616D01*
X161229579Y-92007715D01*
X160916704Y-92007715D01*
X161238006Y-92498277D01*
X161311794Y-92597871D01*
X161405984Y-92710035D01*
X161338730Y-92793642D01*
X161254767Y-92915474D01*
X160870542Y-93561100D01*
X160199912Y-93561100D01*
X160199912Y-93447710D01*
X160193985Y-93372060D01*
X160176792Y-93303774D01*
X160149214Y-93241145D01*
X160112133Y-93182469D01*
X160066431Y-93126039D01*
X160012988Y-93070151D01*
X159886408Y-92953177D01*
X159828144Y-92900636D01*
X159741234Y-92818223D01*
X159641574Y-92709766D01*
X159581320Y-92619970D01*
X159547571Y-92535023D01*
X159539125Y-92491586D01*
X159536243Y-92446161D01*
X159540865Y-92392636D01*
X159563467Y-92327138D01*
X159602548Y-92279024D01*
X159628340Y-92261203D01*
X159658028Y-92248044D01*
X159692861Y-92239577D01*
X159731607Y-92236693D01*
X159775335Y-92241476D01*
X159828063Y-92265318D01*
X159850995Y-92286067D01*
X159870473Y-92312437D01*
X159888276Y-92348833D01*
X159901740Y-92392348D01*
X159911884Y-92451185D01*
X159916346Y-92519434D01*
X160199912Y-92519434D01*
X160199055Y-92477784D01*
X160183420Y-92349706D01*
X160150517Y-92247033D01*
X160101946Y-92164979D01*
X160071605Y-92130462D01*
X160037187Y-92100199D01*
X159997531Y-92073513D01*
X159953568Y-92051345D01*
X159902484Y-92032854D01*
X159846609Y-92019421D01*
X159781328Y-92010644D01*
X159710541Y-92007715D01*
X159597352Y-92017801D01*
X159543341Y-92030799D01*
X159493294Y-92048725D01*
X159447183Y-92071373D01*
X159405295Y-92098400D01*
X159367415Y-92129824D01*
X159334075Y-92165113D01*
X159305032Y-92204529D01*
X159280903Y-92247297D01*
X159261566Y-92293816D01*
X159247551Y-92343139D01*
X159238916Y-92395610D01*
X159236008Y-92450283D01*
X159239073Y-92509188D01*
X159247893Y-92563993D01*
X159262356Y-92616507D01*
X159283848Y-92670322D01*
X159311477Y-92722336D01*
X159350153Y-92779785D01*
X159396374Y-92836047D01*
X159465831Y-92906929D01*
X159546776Y-92978122D01*
X159768014Y-93153114D01*
X160006655Y-93342746D01*
X159975148Y-93378467D01*
X159961183Y-93369938D01*
X159868749Y-93327961D01*
X159772606Y-93305376D01*
X159670836Y-93296207D01*
X159561523Y-93294478D01*
X159208714Y-93294478D01*
X159042047Y-93294478D01*
X159042047Y-91811739D01*
X167257983Y-91811739D01*
X167257983Y-93751214D01*
G37*
G36*
X134616520Y-87431757D02*
G01*
X134687214Y-87453085D01*
X134720088Y-87472478D01*
X134750514Y-87497558D01*
X134779789Y-87530101D01*
X134806058Y-87568876D01*
X134830566Y-87616983D01*
X134851320Y-87672061D01*
X134869047Y-87738116D01*
X134882127Y-87811913D01*
X134890631Y-87897739D01*
X134893521Y-87991975D01*
X134888683Y-88113278D01*
X134866165Y-88259103D01*
X134829368Y-88369490D01*
X134781736Y-88449894D01*
X134724953Y-88505251D01*
X134692954Y-88524692D01*
X134658623Y-88538708D01*
X134620767Y-88547478D01*
X134580646Y-88550406D01*
X134544945Y-88548150D01*
X134473266Y-88527510D01*
X134440336Y-88508729D01*
X134409967Y-88484394D01*
X134380858Y-88452777D01*
X134354810Y-88415037D01*
X134330452Y-88367885D01*
X134309869Y-88313768D01*
X134292169Y-88248107D01*
X134279130Y-88174516D01*
X134270576Y-88087685D01*
X134267679Y-87991975D01*
X134272733Y-87868875D01*
X134295691Y-87722806D01*
X134333043Y-87611599D01*
X134381190Y-87530408D01*
X134438189Y-87474587D01*
X134470032Y-87455074D01*
X134504101Y-87441007D01*
X134541322Y-87432256D01*
X134580646Y-87429331D01*
X134616520Y-87431757D01*
G37*
G36*
X139190670Y-91480614D02*
G01*
X133800777Y-91480614D01*
X133800777Y-91290500D01*
X134666558Y-91290500D01*
X135036128Y-91290500D01*
X135407804Y-90571510D01*
X135512859Y-90688929D01*
X135512859Y-91290500D01*
X135804668Y-91290500D01*
X135804668Y-91046959D01*
X136007726Y-91046959D01*
X136007726Y-91290500D01*
X136853935Y-91290500D01*
X136853935Y-89831729D01*
X137126144Y-89831729D01*
X137126144Y-90146710D01*
X137237427Y-90146710D01*
X137247030Y-90128636D01*
X137303805Y-90043664D01*
X137362689Y-89989491D01*
X137395529Y-89970630D01*
X137431215Y-89957036D01*
X137473915Y-89948073D01*
X137520993Y-89945118D01*
X137604631Y-89954424D01*
X137646651Y-89967163D01*
X137686057Y-89985183D01*
X137723297Y-90008807D01*
X137757563Y-90037676D01*
X137789721Y-90072931D01*
X137818399Y-90113564D01*
X137844432Y-90161536D01*
X137866341Y-90215095D01*
X137884601Y-90276721D01*
X137897998Y-90344120D01*
X137906536Y-90419849D01*
X137909431Y-90501442D01*
X137909392Y-90511180D01*
X137897372Y-90663547D01*
X137866581Y-90789661D01*
X137820728Y-90890217D01*
X137762768Y-90966845D01*
X137694428Y-91021330D01*
X137656493Y-91040647D01*
X137616097Y-91054648D01*
X137572779Y-91063284D01*
X137527221Y-91066193D01*
X137499947Y-91065314D01*
X137416521Y-91049292D01*
X137346894Y-91013519D01*
X137315577Y-90987025D01*
X137287497Y-90955072D01*
X137260630Y-90914194D01*
X137237427Y-90866799D01*
X137126144Y-90866799D01*
X137126144Y-91194329D01*
X137151144Y-91211556D01*
X137257621Y-91267810D01*
X137314504Y-91287765D01*
X137373321Y-91302009D01*
X137437507Y-91310989D01*
X137504140Y-91313947D01*
X137631245Y-91304970D01*
X137756428Y-91275331D01*
X137866333Y-91226407D01*
X137915923Y-91194871D01*
X137961889Y-91158708D01*
X138004585Y-91117535D01*
X138043413Y-91071800D01*
X138078999Y-91020454D01*
X138110373Y-90964522D01*
X138138170Y-90902267D01*
X138161314Y-90835345D01*
X138180231Y-90761440D01*
X138193978Y-90682769D01*
X138202634Y-90596638D01*
X138205545Y-90505656D01*
X138198900Y-90377262D01*
X138171420Y-90225118D01*
X138124844Y-90091564D01*
X138061480Y-89977232D01*
X137983396Y-89882493D01*
X137892291Y-89807617D01*
X137789470Y-89752997D01*
X137733936Y-89733475D01*
X137675924Y-89719347D01*
X137615281Y-89710714D01*
X137552501Y-89707806D01*
X137488441Y-89710785D01*
X137424162Y-89719692D01*
X137354664Y-89735791D01*
X137284358Y-89758602D01*
X137206097Y-89791215D01*
X137126144Y-89831729D01*
X136853935Y-89831729D01*
X136853935Y-89737115D01*
X136562126Y-89737115D01*
X136562126Y-91046959D01*
X136007726Y-91046959D01*
X135804668Y-91046959D01*
X135804668Y-89737115D01*
X135512859Y-89737115D01*
X135512859Y-90246545D01*
X135517109Y-90351536D01*
X135529130Y-90452460D01*
X135548488Y-90554748D01*
X135516981Y-90563083D01*
X135487823Y-90490884D01*
X135457499Y-90429511D01*
X135399926Y-90332755D01*
X135393150Y-90322016D01*
X135025595Y-89737115D01*
X134712720Y-89737115D01*
X135034021Y-90227677D01*
X135107809Y-90327271D01*
X135201999Y-90439435D01*
X135134746Y-90523042D01*
X135050782Y-90644874D01*
X134666558Y-91290500D01*
X133800777Y-91290500D01*
X133800777Y-87971001D01*
X133967444Y-87971001D01*
X133968232Y-87991975D01*
X133972669Y-88110157D01*
X133996594Y-88280540D01*
X134037045Y-88420706D01*
X134091704Y-88534660D01*
X134159378Y-88625902D01*
X134240137Y-88697018D01*
X134286047Y-88725623D01*
X134335291Y-88749259D01*
X134389496Y-88768409D01*
X134447136Y-88782248D01*
X134511020Y-88791019D01*
X134578539Y-88793947D01*
X134655785Y-88790161D01*
X134756755Y-88770500D01*
X135323266Y-88770500D01*
X135621487Y-88770500D01*
X135816759Y-88320146D01*
X135834525Y-88277983D01*
X135871748Y-88176917D01*
X135902854Y-88072942D01*
X135947001Y-88072942D01*
X135961252Y-88131304D01*
X135989123Y-88225600D01*
X136022564Y-88318040D01*
X136203181Y-88770500D01*
X136488762Y-88770500D01*
X136117086Y-87984831D01*
X136441110Y-87311729D01*
X136660129Y-87311729D01*
X136660129Y-87626710D01*
X136771412Y-87626710D01*
X136781015Y-87608636D01*
X136837790Y-87523664D01*
X136896675Y-87469491D01*
X136929514Y-87450630D01*
X136965200Y-87437036D01*
X137007900Y-87428073D01*
X137054978Y-87425118D01*
X137138616Y-87434424D01*
X137180636Y-87447163D01*
X137220042Y-87465183D01*
X137257282Y-87488807D01*
X137291548Y-87517676D01*
X137323706Y-87552931D01*
X137352384Y-87593564D01*
X137378417Y-87641536D01*
X137400326Y-87695095D01*
X137418586Y-87756721D01*
X137431983Y-87824120D01*
X137440522Y-87899849D01*
X137443416Y-87981442D01*
X137443377Y-87991180D01*
X137431357Y-88143547D01*
X137400566Y-88269661D01*
X137354713Y-88370217D01*
X137296754Y-88446845D01*
X137228413Y-88501330D01*
X137190478Y-88520647D01*
X137150082Y-88534648D01*
X137106764Y-88543284D01*
X137061207Y-88546193D01*
X137033932Y-88545314D01*
X136950506Y-88529292D01*
X136880879Y-88493519D01*
X136849562Y-88467025D01*
X136821482Y-88435072D01*
X136794615Y-88394194D01*
X136771412Y-88346799D01*
X136660129Y-88346799D01*
X136660129Y-88674329D01*
X136685129Y-88691556D01*
X136791606Y-88747810D01*
X136848490Y-88767765D01*
X136907306Y-88782009D01*
X136971492Y-88790989D01*
X137038126Y-88793947D01*
X137165230Y-88784970D01*
X137290413Y-88755331D01*
X137400318Y-88706407D01*
X137449908Y-88674871D01*
X137495874Y-88638708D01*
X137538570Y-88597535D01*
X137577399Y-88551800D01*
X137612985Y-88500454D01*
X137644358Y-88444522D01*
X137672155Y-88382267D01*
X137695300Y-88315345D01*
X137714216Y-88241440D01*
X137727963Y-88162769D01*
X137736619Y-88076638D01*
X137739530Y-87985656D01*
X137732886Y-87857262D01*
X137705405Y-87705118D01*
X137658829Y-87571564D01*
X137595466Y-87457232D01*
X137517381Y-87362493D01*
X137426277Y-87287617D01*
X137323455Y-87232997D01*
X137278276Y-87217115D01*
X137858507Y-87217115D01*
X138318386Y-88782223D01*
X138589312Y-88782223D01*
X139024003Y-87217115D01*
X138748864Y-87217115D01*
X138507430Y-88211977D01*
X138478632Y-88367628D01*
X138467496Y-88540789D01*
X138423441Y-88540789D01*
X138417303Y-88410359D01*
X138403805Y-88309847D01*
X138383507Y-88211977D01*
X138141981Y-87217115D01*
X137858507Y-87217115D01*
X137278276Y-87217115D01*
X137267921Y-87213475D01*
X137209909Y-87199347D01*
X137149267Y-87190714D01*
X137086486Y-87187806D01*
X137022426Y-87190785D01*
X136958147Y-87199692D01*
X136888649Y-87215791D01*
X136818343Y-87238602D01*
X136740082Y-87271215D01*
X136660129Y-87311729D01*
X136441110Y-87311729D01*
X136486656Y-87217115D01*
X136184222Y-87217115D01*
X136001590Y-87663805D01*
X135973121Y-87739771D01*
X135930149Y-87892416D01*
X135883987Y-87892416D01*
X135844437Y-87750491D01*
X135807659Y-87652500D01*
X135806317Y-87649150D01*
X135640354Y-87217115D01*
X135344240Y-87217115D01*
X135705476Y-87984831D01*
X135323266Y-88770500D01*
X134756755Y-88770500D01*
X134772439Y-88767446D01*
X134873471Y-88725454D01*
X134918946Y-88697211D01*
X134961068Y-88664134D01*
X135000504Y-88625465D01*
X135036374Y-88581801D01*
X135069758Y-88531262D01*
X135099215Y-88475380D01*
X135125846Y-88411026D01*
X135148048Y-88340823D01*
X135166611Y-88260429D01*
X135180118Y-88173562D01*
X135188823Y-88074816D01*
X135191741Y-87968894D01*
X135187830Y-87858300D01*
X135165230Y-87695937D01*
X135125126Y-87559833D01*
X135069852Y-87447456D01*
X135000778Y-87356437D01*
X134918181Y-87285022D01*
X134871413Y-87256284D01*
X134821317Y-87232493D01*
X134766670Y-87213320D01*
X134708701Y-87199445D01*
X134645307Y-87190726D01*
X134578539Y-87187806D01*
X134514101Y-87190627D01*
X134397237Y-87212194D01*
X134294135Y-87253840D01*
X134247318Y-87282108D01*
X134203778Y-87315263D01*
X134163041Y-87353842D01*
X134125869Y-87397333D01*
X134091509Y-87447045D01*
X134061115Y-87501810D01*
X134033957Y-87563713D01*
X134011272Y-87630881D01*
X133992591Y-87706037D01*
X133978976Y-87786699D01*
X133970351Y-87875983D01*
X133967444Y-87971001D01*
X133800777Y-87971001D01*
X133800777Y-87021139D01*
X139190670Y-87021139D01*
X139190670Y-91480614D01*
G37*
G36*
X152792805Y-110942157D02*
G01*
X152863498Y-110963485D01*
X152896372Y-110982878D01*
X152926798Y-111007958D01*
X152956073Y-111040501D01*
X152982342Y-111079276D01*
X153006851Y-111127383D01*
X153027604Y-111182461D01*
X153045331Y-111248516D01*
X153058411Y-111322313D01*
X153066915Y-111408139D01*
X153069805Y-111502375D01*
X153064968Y-111623678D01*
X153042449Y-111769503D01*
X153005652Y-111879890D01*
X152958021Y-111960294D01*
X152901237Y-112015651D01*
X152869239Y-112035092D01*
X152834907Y-112049108D01*
X152797051Y-112057878D01*
X152756930Y-112060806D01*
X152721229Y-112058550D01*
X152649550Y-112037910D01*
X152616620Y-112019129D01*
X152586252Y-111994794D01*
X152557142Y-111963177D01*
X152531094Y-111925437D01*
X152506736Y-111878285D01*
X152486154Y-111824168D01*
X152468453Y-111758507D01*
X152455415Y-111684916D01*
X152446860Y-111598085D01*
X152443963Y-111502375D01*
X152449017Y-111379275D01*
X152471975Y-111233206D01*
X152509327Y-111121999D01*
X152557474Y-111040808D01*
X152614473Y-110984987D01*
X152646316Y-110965474D01*
X152680386Y-110951407D01*
X152717606Y-110942656D01*
X152756930Y-110939731D01*
X152792805Y-110942157D01*
G37*
G36*
X155878783Y-112471014D02*
G01*
X147709009Y-112471014D01*
X147709009Y-112075186D01*
X147875676Y-112075186D01*
X147875676Y-112280900D01*
X148751378Y-112280900D01*
X149491342Y-112280900D01*
X149860912Y-112280900D01*
X150232589Y-111561910D01*
X150337644Y-111679329D01*
X150337644Y-112280900D01*
X150629453Y-112280900D01*
X150629453Y-110822129D01*
X150901661Y-110822129D01*
X150901661Y-111137110D01*
X151012945Y-111137110D01*
X151022548Y-111119036D01*
X151079322Y-111034064D01*
X151138207Y-110979891D01*
X151171046Y-110961030D01*
X151206732Y-110947436D01*
X151249432Y-110938473D01*
X151296510Y-110935518D01*
X151380148Y-110944824D01*
X151422168Y-110957563D01*
X151461574Y-110975583D01*
X151498814Y-110999207D01*
X151533080Y-111028076D01*
X151565238Y-111063331D01*
X151593916Y-111103964D01*
X151619949Y-111151936D01*
X151641858Y-111205495D01*
X151660118Y-111267121D01*
X151673515Y-111334520D01*
X151682054Y-111410249D01*
X151684948Y-111491842D01*
X151684909Y-111501580D01*
X151672889Y-111653947D01*
X151642099Y-111780061D01*
X151596245Y-111880617D01*
X151538286Y-111957245D01*
X151469946Y-112011730D01*
X151432010Y-112031047D01*
X151391614Y-112045048D01*
X151348296Y-112053684D01*
X151302739Y-112056593D01*
X151275464Y-112055714D01*
X151192038Y-112039692D01*
X151122411Y-112003919D01*
X151091095Y-111977425D01*
X151063015Y-111945472D01*
X151036147Y-111904594D01*
X151012945Y-111857199D01*
X150901661Y-111857199D01*
X150901661Y-112184729D01*
X150926661Y-112201956D01*
X151033138Y-112258210D01*
X151090022Y-112278165D01*
X151148838Y-112292409D01*
X151213024Y-112301389D01*
X151279658Y-112304347D01*
X151406762Y-112295370D01*
X151531945Y-112265731D01*
X151641850Y-112216807D01*
X151691440Y-112185271D01*
X151737406Y-112149108D01*
X151780102Y-112107935D01*
X151818931Y-112062200D01*
X151854517Y-112010854D01*
X151885890Y-111954922D01*
X151913687Y-111892667D01*
X151936832Y-111825745D01*
X151955748Y-111751840D01*
X151969495Y-111673169D01*
X151978151Y-111587038D01*
X151981062Y-111496056D01*
X151980304Y-111481401D01*
X152143728Y-111481401D01*
X152144516Y-111502375D01*
X152148954Y-111620557D01*
X152172879Y-111790940D01*
X152213329Y-111931106D01*
X152267989Y-112045060D01*
X152335662Y-112136302D01*
X152416421Y-112207418D01*
X152462331Y-112236023D01*
X152511576Y-112259659D01*
X152565780Y-112278809D01*
X152623420Y-112292648D01*
X152687305Y-112301419D01*
X152754823Y-112304347D01*
X152832070Y-112300561D01*
X152948723Y-112277846D01*
X153049756Y-112235854D01*
X153095230Y-112207611D01*
X153137352Y-112174534D01*
X153176788Y-112135865D01*
X153212658Y-112092201D01*
X153246042Y-112041662D01*
X153248310Y-112037359D01*
X153514297Y-112037359D01*
X153514297Y-112280900D01*
X154360506Y-112280900D01*
X154360506Y-110822129D01*
X154632715Y-110822129D01*
X154632715Y-111137110D01*
X154743998Y-111137110D01*
X154753601Y-111119036D01*
X154810376Y-111034064D01*
X154869260Y-110979891D01*
X154902100Y-110961030D01*
X154937786Y-110947436D01*
X154980486Y-110938473D01*
X155027564Y-110935518D01*
X155111202Y-110944824D01*
X155153222Y-110957563D01*
X155192628Y-110975583D01*
X155229868Y-110999207D01*
X155264134Y-111028076D01*
X155296292Y-111063331D01*
X155324970Y-111103964D01*
X155351003Y-111151936D01*
X155372912Y-111205495D01*
X155391172Y-111267121D01*
X155404569Y-111334520D01*
X155413107Y-111410249D01*
X155416002Y-111491842D01*
X155415963Y-111501580D01*
X155403943Y-111653947D01*
X155373152Y-111780061D01*
X155327299Y-111880617D01*
X155269339Y-111957245D01*
X155200999Y-112011730D01*
X155163064Y-112031047D01*
X155122668Y-112045048D01*
X155079350Y-112053684D01*
X155033792Y-112056593D01*
X155006518Y-112055714D01*
X154923092Y-112039692D01*
X154853465Y-112003919D01*
X154822148Y-111977425D01*
X154794068Y-111945472D01*
X154767201Y-111904594D01*
X154743998Y-111857199D01*
X154632715Y-111857199D01*
X154632715Y-112184729D01*
X154657715Y-112201956D01*
X154764192Y-112258210D01*
X154821075Y-112278165D01*
X154879892Y-112292409D01*
X154944078Y-112301389D01*
X155010711Y-112304347D01*
X155137816Y-112295370D01*
X155262999Y-112265731D01*
X155372904Y-112216807D01*
X155422494Y-112185271D01*
X155468460Y-112149108D01*
X155511156Y-112107935D01*
X155549984Y-112062200D01*
X155585570Y-112010854D01*
X155616944Y-111954922D01*
X155644741Y-111892667D01*
X155667885Y-111825745D01*
X155686802Y-111751840D01*
X155700549Y-111673169D01*
X155709205Y-111587038D01*
X155712116Y-111496056D01*
X155705471Y-111367662D01*
X155677991Y-111215518D01*
X155631415Y-111081964D01*
X155568051Y-110967632D01*
X155489967Y-110872893D01*
X155398862Y-110798017D01*
X155296041Y-110743397D01*
X155240507Y-110723875D01*
X155182495Y-110709747D01*
X155121852Y-110701114D01*
X155059072Y-110698206D01*
X154995012Y-110701185D01*
X154930733Y-110710092D01*
X154861235Y-110726191D01*
X154790929Y-110749002D01*
X154712668Y-110781615D01*
X154632715Y-110822129D01*
X154360506Y-110822129D01*
X154360506Y-110727515D01*
X154068697Y-110727515D01*
X154068697Y-112037359D01*
X153514297Y-112037359D01*
X153248310Y-112037359D01*
X153275500Y-111985780D01*
X153302131Y-111921426D01*
X153324333Y-111851223D01*
X153342896Y-111770829D01*
X153356403Y-111683962D01*
X153365107Y-111585216D01*
X153368026Y-111479294D01*
X153364115Y-111368700D01*
X153341514Y-111206337D01*
X153301410Y-111070233D01*
X153246137Y-110957856D01*
X153177062Y-110866837D01*
X153094466Y-110795422D01*
X153047697Y-110766684D01*
X152997601Y-110742893D01*
X152942954Y-110723720D01*
X152884985Y-110709845D01*
X152821592Y-110701126D01*
X152754823Y-110698206D01*
X152690386Y-110701027D01*
X152573521Y-110722594D01*
X152470420Y-110764240D01*
X152423603Y-110792508D01*
X152380062Y-110825663D01*
X152339325Y-110864242D01*
X152302154Y-110907733D01*
X152267794Y-110957445D01*
X152237400Y-111012210D01*
X152210242Y-111074113D01*
X152187556Y-111141281D01*
X152168875Y-111216437D01*
X152155260Y-111297099D01*
X152146635Y-111386383D01*
X152143728Y-111481401D01*
X151980304Y-111481401D01*
X151974418Y-111367662D01*
X151946937Y-111215518D01*
X151900361Y-111081964D01*
X151836998Y-110967632D01*
X151758914Y-110872893D01*
X151667809Y-110798017D01*
X151564987Y-110743397D01*
X151509453Y-110723875D01*
X151451441Y-110709747D01*
X151390799Y-110701114D01*
X151328018Y-110698206D01*
X151263958Y-110701185D01*
X151199679Y-110710092D01*
X151130181Y-110726191D01*
X151059875Y-110749002D01*
X150981614Y-110781615D01*
X150901661Y-110822129D01*
X150629453Y-110822129D01*
X150629453Y-110727515D01*
X150337644Y-110727515D01*
X150337644Y-111236945D01*
X150341893Y-111341936D01*
X150353914Y-111442860D01*
X150373273Y-111545148D01*
X150341765Y-111553483D01*
X150312607Y-111481284D01*
X150282283Y-111419911D01*
X150224711Y-111323155D01*
X150217934Y-111312416D01*
X149850379Y-110727515D01*
X149537504Y-110727515D01*
X149858806Y-111218077D01*
X149932594Y-111317671D01*
X150026784Y-111429835D01*
X149959530Y-111513442D01*
X149875567Y-111635274D01*
X149491342Y-112280900D01*
X148751378Y-112280900D01*
X148751378Y-112075186D01*
X148618892Y-112076936D01*
X148499737Y-112085710D01*
X148459477Y-112096160D01*
X148442716Y-112075186D01*
X148452406Y-112040075D01*
X148457382Y-111988220D01*
X148459477Y-111757823D01*
X148459477Y-111154787D01*
X148454448Y-111002753D01*
X148442716Y-110950906D01*
X148459477Y-110932038D01*
X148526648Y-110947757D01*
X148619029Y-110950906D01*
X148751378Y-110950906D01*
X148751378Y-110745100D01*
X148163363Y-110745100D01*
X148163363Y-111883944D01*
X148165363Y-111969515D01*
X148178109Y-112075186D01*
X148163363Y-112096160D01*
X148113389Y-112084035D01*
X148032915Y-112077808D01*
X147875676Y-112075186D01*
X147709009Y-112075186D01*
X147709009Y-110531539D01*
X155878783Y-110531539D01*
X155878783Y-112471014D01*
G37*
D11*
%TO.C,G\u002A\u002A\u002A*%
G36*
X151405961Y-94923182D02*
G01*
X151497161Y-95035800D01*
X151635832Y-95202210D01*
X151758806Y-95342083D01*
X151870095Y-95459114D01*
X151973710Y-95556997D01*
X152073663Y-95639426D01*
X152173966Y-95710097D01*
X152278631Y-95772703D01*
X152391668Y-95830938D01*
X152441962Y-95854344D01*
X152697280Y-95947841D01*
X152962267Y-96005482D01*
X153232710Y-96027682D01*
X153504396Y-96014855D01*
X153773112Y-95967416D01*
X154034647Y-95885780D01*
X154284786Y-95770360D01*
X154519317Y-95621573D01*
X154544385Y-95602587D01*
X154649604Y-95513243D01*
X154767218Y-95400792D01*
X154889898Y-95272800D01*
X155010313Y-95136831D01*
X155121135Y-95000450D01*
X155128281Y-94991200D01*
X155189421Y-94912078D01*
X155243471Y-94842146D01*
X155284799Y-94788690D01*
X155307777Y-94758993D01*
X155312079Y-94754395D01*
X155320426Y-94750752D01*
X155332670Y-94752827D01*
X155350776Y-94762476D01*
X155376707Y-94781555D01*
X155412429Y-94811923D01*
X155459906Y-94855436D01*
X155521103Y-94913952D01*
X155597984Y-94989327D01*
X155692514Y-95083418D01*
X155806657Y-95198084D01*
X155942379Y-95335180D01*
X156101643Y-95496564D01*
X156286414Y-95684093D01*
X157235320Y-96647560D01*
X157155114Y-96726973D01*
X157121270Y-96761617D01*
X157009070Y-96889797D01*
X156890126Y-97043033D01*
X156770331Y-97212727D01*
X156655576Y-97390280D01*
X156551751Y-97567094D01*
X156464750Y-97734569D01*
X156345710Y-98009631D01*
X156225943Y-98370806D01*
X156143699Y-98737728D01*
X156098683Y-99108252D01*
X156090600Y-99480235D01*
X156119156Y-99851532D01*
X156184056Y-100219998D01*
X156285006Y-100583491D01*
X156421710Y-100939865D01*
X156593874Y-101286977D01*
X156801203Y-101622683D01*
X157043403Y-101944837D01*
X157206321Y-102142360D01*
X157049410Y-102331126D01*
X156944389Y-102461965D01*
X156708838Y-102795147D01*
X156509930Y-103138528D01*
X156347946Y-103490748D01*
X156223169Y-103850449D01*
X156135879Y-104216270D01*
X156086357Y-104586854D01*
X156074886Y-104960840D01*
X156101745Y-105336870D01*
X156167217Y-105713584D01*
X156271583Y-106089623D01*
X156279915Y-106114527D01*
X156411371Y-106446163D01*
X156580008Y-106776486D01*
X156783980Y-107102220D01*
X157021441Y-107420089D01*
X157193671Y-107632564D01*
X156265279Y-108567502D01*
X156183141Y-108650196D01*
X156029379Y-108804862D01*
X155884942Y-108949974D01*
X155752116Y-109083244D01*
X155633190Y-109202384D01*
X155530449Y-109305107D01*
X155446181Y-109389125D01*
X155382673Y-109452151D01*
X155342210Y-109491895D01*
X155327081Y-109506072D01*
X155325643Y-109505609D01*
X155306269Y-109485959D01*
X155269167Y-109441777D01*
X155218984Y-109378735D01*
X155160363Y-109302505D01*
X155083501Y-109204130D01*
X154861619Y-108953386D01*
X154631106Y-108740739D01*
X154391731Y-108566009D01*
X154143259Y-108429019D01*
X153885459Y-108329593D01*
X153831306Y-108313314D01*
X153726048Y-108285102D01*
X153630158Y-108266068D01*
X153531509Y-108254579D01*
X153417974Y-108249002D01*
X153277428Y-108247703D01*
X153149759Y-108249038D01*
X153049264Y-108253246D01*
X152966194Y-108261400D01*
X152889627Y-108274575D01*
X152808638Y-108293846D01*
X152655348Y-108339637D01*
X152409061Y-108440242D01*
X152176298Y-108571637D01*
X151954918Y-108735489D01*
X151742777Y-108933465D01*
X151537733Y-109167233D01*
X151337643Y-109438461D01*
X151261178Y-109550468D01*
X151224601Y-109515802D01*
X150966802Y-109271474D01*
X150800309Y-109113629D01*
X150556730Y-108882504D01*
X150331279Y-108668331D01*
X150124997Y-108472104D01*
X149938925Y-108294821D01*
X149774106Y-108137476D01*
X149631581Y-108001067D01*
X149512390Y-107886588D01*
X149417576Y-107795036D01*
X149348181Y-107727406D01*
X149305244Y-107684694D01*
X149289809Y-107667897D01*
X149298319Y-107649980D01*
X149327639Y-107606035D01*
X149374194Y-107541461D01*
X149434262Y-107461414D01*
X149504122Y-107371049D01*
X149576817Y-107277357D01*
X149704924Y-107105865D01*
X149813130Y-106950433D01*
X149906572Y-106803162D01*
X149990388Y-106656155D01*
X150069714Y-106501514D01*
X150133077Y-106364805D01*
X150264869Y-106016538D01*
X150360118Y-105658523D01*
X150418880Y-105293836D01*
X150441211Y-104925549D01*
X150427166Y-104556738D01*
X150376802Y-104190477D01*
X150290176Y-103829839D01*
X150167342Y-103477899D01*
X150008357Y-103137731D01*
X149965456Y-103060170D01*
X149873244Y-102907965D01*
X149768782Y-102750233D01*
X149657985Y-102595118D01*
X149546769Y-102450765D01*
X149441049Y-102325317D01*
X149346742Y-102226918D01*
X149332106Y-102212420D01*
X149299183Y-102173855D01*
X149286081Y-102148463D01*
X149288790Y-102141704D01*
X149298143Y-102127615D01*
X149507553Y-102127615D01*
X149643721Y-102294333D01*
X149830982Y-102539973D01*
X150036102Y-102853630D01*
X150213746Y-103178286D01*
X150360339Y-103507297D01*
X150472307Y-103834024D01*
X150531646Y-104074483D01*
X150585270Y-104416018D01*
X150608175Y-104769678D01*
X150600292Y-105128319D01*
X150561550Y-105484795D01*
X150491880Y-105831964D01*
X150416045Y-106093220D01*
X150279422Y-106448290D01*
X150106624Y-106796691D01*
X149899411Y-107134981D01*
X149659545Y-107459714D01*
X149609297Y-107523498D01*
X149564145Y-107584162D01*
X149534569Y-107627954D01*
X149525310Y-107648217D01*
X149537209Y-107661467D01*
X149574649Y-107699166D01*
X149634403Y-107757911D01*
X149713211Y-107834532D01*
X149807809Y-107925859D01*
X149914935Y-108028723D01*
X150031328Y-108139953D01*
X150076870Y-108183377D01*
X150217523Y-108317504D01*
X150364615Y-108457790D01*
X150511180Y-108597591D01*
X150650250Y-108730262D01*
X150774859Y-108849156D01*
X150878042Y-108947628D01*
X151224601Y-109278427D01*
X151279739Y-109204102D01*
X151316471Y-109155151D01*
X151512708Y-108913618D01*
X151708686Y-108707876D01*
X151908182Y-108535267D01*
X152114975Y-108393135D01*
X152332843Y-108278821D01*
X152565564Y-108189670D01*
X152816916Y-108123023D01*
X152822639Y-108121800D01*
X153120761Y-108076754D01*
X153410782Y-108070087D01*
X153692716Y-108101802D01*
X153966576Y-108171903D01*
X154232375Y-108280393D01*
X154490126Y-108427274D01*
X154739842Y-108612552D01*
X154794325Y-108661489D01*
X154874372Y-108740085D01*
X154968220Y-108837280D01*
X155069984Y-108946839D01*
X155173781Y-109062532D01*
X155273728Y-109178125D01*
X155347865Y-109265695D01*
X156035045Y-108579898D01*
X156035971Y-108578975D01*
X156176299Y-108438635D01*
X156311873Y-108302499D01*
X156439398Y-108173914D01*
X156555574Y-108056230D01*
X156657106Y-107952794D01*
X156740696Y-107866956D01*
X156803048Y-107802064D01*
X156840864Y-107761467D01*
X156959501Y-107628832D01*
X156792078Y-107408417D01*
X156556396Y-107072571D01*
X156352452Y-106724087D01*
X156186712Y-106370722D01*
X156058686Y-106011095D01*
X155967884Y-105643828D01*
X155913819Y-105267539D01*
X155896000Y-104880850D01*
X155902709Y-104636379D01*
X155931908Y-104335701D01*
X155986006Y-104044292D01*
X156066901Y-103754339D01*
X156176488Y-103458025D01*
X156316665Y-103147538D01*
X156397988Y-102988326D01*
X156540564Y-102738979D01*
X156691352Y-102508344D01*
X156844000Y-102306549D01*
X156866245Y-102279042D01*
X156911711Y-102219315D01*
X156943238Y-102172817D01*
X156955035Y-102147829D01*
X156944656Y-102125189D01*
X156914680Y-102078012D01*
X156869836Y-102013753D01*
X156814871Y-101939473D01*
X156706450Y-101791760D01*
X156490954Y-101460013D01*
X156311117Y-101122345D01*
X156164509Y-100773287D01*
X156048696Y-100407369D01*
X155961249Y-100019121D01*
X155953590Y-99974019D01*
X155942976Y-99891360D01*
X155935313Y-99796586D01*
X155930236Y-99682926D01*
X155927379Y-99543608D01*
X155926378Y-99371862D01*
X155926637Y-99273768D01*
X155930161Y-99088154D01*
X155938961Y-98927596D01*
X155954527Y-98782522D01*
X155978351Y-98643359D01*
X156011925Y-98500535D01*
X156056739Y-98344475D01*
X156114284Y-98165607D01*
X156222407Y-97874004D01*
X156394734Y-97503950D01*
X156598634Y-97156788D01*
X156833746Y-96833186D01*
X156885135Y-96768418D01*
X156931577Y-96707999D01*
X156963059Y-96664809D01*
X156974649Y-96645422D01*
X156970324Y-96639600D01*
X156942748Y-96609128D01*
X156892234Y-96555457D01*
X156821726Y-96481601D01*
X156734173Y-96390577D01*
X156632520Y-96285400D01*
X156519714Y-96169084D01*
X156398703Y-96044646D01*
X156272432Y-95915100D01*
X156143849Y-95783462D01*
X156015899Y-95652747D01*
X155891531Y-95525970D01*
X155773690Y-95406148D01*
X155665323Y-95296294D01*
X155569377Y-95199425D01*
X155488798Y-95118556D01*
X155426533Y-95056702D01*
X155385530Y-95016878D01*
X155368734Y-95002100D01*
X155365804Y-95002793D01*
X155342115Y-95023442D01*
X155300882Y-95068171D01*
X155246966Y-95131525D01*
X155185231Y-95208046D01*
X155113090Y-95296264D01*
X155027048Y-95395407D01*
X154942655Y-95487348D01*
X154870770Y-95559936D01*
X154824215Y-95602967D01*
X154594983Y-95785011D01*
X154349747Y-95934791D01*
X154091894Y-96052039D01*
X153824811Y-96136491D01*
X153551883Y-96187879D01*
X153276498Y-96205938D01*
X153002041Y-96190402D01*
X152731900Y-96141004D01*
X152469460Y-96057479D01*
X152218109Y-95939560D01*
X151981231Y-95786982D01*
X151895062Y-95717896D01*
X151767753Y-95602165D01*
X151632263Y-95465696D01*
X151495675Y-95315705D01*
X151365073Y-95159405D01*
X151324899Y-95109676D01*
X151277238Y-95052597D01*
X151242611Y-95013467D01*
X151226596Y-94998753D01*
X151225413Y-94999405D01*
X151203653Y-95018310D01*
X151156821Y-95061553D01*
X151087444Y-95126716D01*
X150998048Y-95211380D01*
X150891161Y-95313123D01*
X150769308Y-95429527D01*
X150635017Y-95558172D01*
X150490814Y-95696639D01*
X150339226Y-95842507D01*
X150182779Y-95993356D01*
X150023999Y-96146768D01*
X149865414Y-96300323D01*
X149709550Y-96451600D01*
X149515262Y-96640414D01*
X149690646Y-96873435D01*
X149735602Y-96933905D01*
X149969455Y-97277333D01*
X150165199Y-97619472D01*
X150323625Y-97962509D01*
X150445525Y-98308628D01*
X150531689Y-98660017D01*
X150582907Y-99018860D01*
X150599970Y-99387345D01*
X150595555Y-99579926D01*
X150558183Y-99967082D01*
X150482725Y-100344956D01*
X150369161Y-100713605D01*
X150217472Y-101073083D01*
X150027640Y-101423449D01*
X149799646Y-101764758D01*
X149786846Y-101782093D01*
X149722615Y-101866662D01*
X149656036Y-101951203D01*
X149599640Y-102019738D01*
X149507553Y-102127615D01*
X149298143Y-102127615D01*
X149311131Y-102108052D01*
X149352382Y-102053022D01*
X149408117Y-101982422D01*
X149473911Y-101902055D01*
X149700248Y-101611012D01*
X149911358Y-101292214D01*
X150085104Y-100971450D01*
X150222447Y-100646928D01*
X150324348Y-100316860D01*
X150345557Y-100228824D01*
X150378639Y-100062548D01*
X150401565Y-99895283D01*
X150415195Y-99717615D01*
X150420393Y-99520128D01*
X150418018Y-99293406D01*
X150409276Y-99073585D01*
X150389202Y-98837906D01*
X150356441Y-98622742D01*
X150308658Y-98418399D01*
X150243519Y-98215180D01*
X150158685Y-98003388D01*
X150051823Y-97773329D01*
X150010720Y-97691764D01*
X149843996Y-97397547D01*
X149649989Y-97103876D01*
X149436017Y-96822055D01*
X149418629Y-96800691D01*
X149359560Y-96728083D01*
X149311634Y-96669115D01*
X149279393Y-96629381D01*
X149267380Y-96614472D01*
X149270758Y-96611022D01*
X149297346Y-96585137D01*
X149348011Y-96536210D01*
X149419908Y-96466967D01*
X149510195Y-96380135D01*
X149616029Y-96278441D01*
X149734567Y-96164611D01*
X149862966Y-96041372D01*
X149998382Y-95911449D01*
X150137973Y-95777570D01*
X150278895Y-95642462D01*
X150418305Y-95508849D01*
X150553361Y-95379460D01*
X150681219Y-95257020D01*
X150799037Y-95144256D01*
X150903970Y-95043895D01*
X150993177Y-94958663D01*
X151063814Y-94891286D01*
X151113037Y-94844491D01*
X151243473Y-94720911D01*
X151405961Y-94923182D01*
G37*
G36*
X155946392Y-96080577D02*
G01*
X155987675Y-96121431D01*
X156106814Y-96239914D01*
X156215773Y-96349128D01*
X156311583Y-96446038D01*
X156391272Y-96527612D01*
X156451871Y-96590816D01*
X156490409Y-96632615D01*
X156503915Y-96649976D01*
X156499074Y-96661901D01*
X156475511Y-96701214D01*
X156436805Y-96759316D01*
X156387928Y-96828553D01*
X156225843Y-97065538D01*
X156016216Y-97423535D01*
X155845198Y-97787050D01*
X155712572Y-98156724D01*
X155618119Y-98533200D01*
X155561620Y-98917119D01*
X155542858Y-99309121D01*
X155550014Y-99588299D01*
X155584415Y-99961477D01*
X155648502Y-100320266D01*
X155743646Y-100668739D01*
X155871219Y-101010974D01*
X156032593Y-101351046D01*
X156229139Y-101693029D01*
X156462228Y-102041000D01*
X156526490Y-102130910D01*
X156416501Y-102284213D01*
X156181656Y-102640428D01*
X155978892Y-103012560D01*
X155814634Y-103391564D01*
X155688931Y-103777261D01*
X155601830Y-104169475D01*
X155553379Y-104568029D01*
X155543628Y-104972745D01*
X155572624Y-105383447D01*
X155595152Y-105546819D01*
X155660243Y-105867382D01*
X155753989Y-106187336D01*
X155878387Y-106513013D01*
X156035436Y-106850750D01*
X156046641Y-106872843D01*
X156105583Y-106984615D01*
X156170934Y-107102596D01*
X156238613Y-107219948D01*
X156304535Y-107329835D01*
X156364618Y-107425423D01*
X156414778Y-107499874D01*
X156450932Y-107546354D01*
X156491889Y-107590884D01*
X155931747Y-108152017D01*
X155371606Y-108713150D01*
X155158108Y-108498767D01*
X154932881Y-108294733D01*
X154672437Y-108107181D01*
X154396370Y-107955524D01*
X154105385Y-107840035D01*
X153800182Y-107760990D01*
X153481466Y-107718664D01*
X153228394Y-107714594D01*
X153149938Y-107713332D01*
X152907710Y-107732437D01*
X152639536Y-107779990D01*
X152386412Y-107856471D01*
X152144036Y-107963834D01*
X151908109Y-108104030D01*
X151674331Y-108279014D01*
X151438401Y-108490739D01*
X151186693Y-108734327D01*
X151084647Y-108636751D01*
X151040389Y-108594876D01*
X150971868Y-108530688D01*
X150887529Y-108452099D01*
X150794073Y-108365353D01*
X150698201Y-108276692D01*
X150622386Y-108206370D01*
X150510278Y-108101384D01*
X150398150Y-107995386D01*
X150295670Y-107897527D01*
X150212502Y-107816956D01*
X150183775Y-107788477D01*
X150116831Y-107719262D01*
X150064045Y-107660555D01*
X150030199Y-107617835D01*
X150020078Y-107596581D01*
X150031230Y-107576370D01*
X150060497Y-107527845D01*
X150104160Y-107457269D01*
X150158675Y-107370364D01*
X150220499Y-107272855D01*
X150289067Y-107163163D01*
X150477053Y-106834808D01*
X150631658Y-106516101D01*
X150754511Y-106201786D01*
X150814537Y-105997767D01*
X151914262Y-105997767D01*
X151914262Y-106212242D01*
X152433510Y-106454948D01*
X152470467Y-106472259D01*
X152599453Y-106533274D01*
X152714928Y-106588811D01*
X152812470Y-106636678D01*
X152887657Y-106674686D01*
X152936067Y-106700645D01*
X152953278Y-106712364D01*
X152935311Y-106716206D01*
X152883129Y-106719734D01*
X152801815Y-106722729D01*
X152696465Y-106725047D01*
X152572172Y-106726543D01*
X152434031Y-106727074D01*
X151914262Y-106727074D01*
X151914262Y-106933020D01*
X151914262Y-107138966D01*
X153228394Y-107138966D01*
X154542525Y-107138966D01*
X154542525Y-106933020D01*
X154542525Y-106727074D01*
X154058062Y-106727074D01*
X153972856Y-106726847D01*
X153841397Y-106725437D01*
X153733753Y-106722862D01*
X153653776Y-106719268D01*
X153605318Y-106714798D01*
X153592232Y-106709597D01*
X153606294Y-106700551D01*
X153651618Y-106674745D01*
X153722972Y-106635523D01*
X153815421Y-106585566D01*
X153924029Y-106527557D01*
X154043863Y-106464176D01*
X154135146Y-106415969D01*
X154248790Y-106355505D01*
X154348297Y-106302054D01*
X154428510Y-106258407D01*
X154484273Y-106227354D01*
X154510430Y-106211687D01*
X154520022Y-106203038D01*
X154531865Y-106180723D01*
X154538221Y-106142618D01*
X154540062Y-106080939D01*
X154538359Y-105987901D01*
X154532718Y-105788661D01*
X153899770Y-106081612D01*
X153266821Y-106374562D01*
X152605252Y-106087721D01*
X152601147Y-106085942D01*
X152450340Y-106020488D01*
X152310970Y-105959877D01*
X152187132Y-105905897D01*
X152082919Y-105860338D01*
X152002426Y-105824990D01*
X151949746Y-105801643D01*
X151928973Y-105792086D01*
X151924771Y-105800661D01*
X151923842Y-105802557D01*
X151918878Y-105844877D01*
X151915506Y-105912451D01*
X151914262Y-105997767D01*
X150814537Y-105997767D01*
X150847241Y-105886610D01*
X150911475Y-105565318D01*
X150948842Y-105232655D01*
X150960971Y-104883368D01*
X150955266Y-104630190D01*
X150926927Y-104299946D01*
X151914262Y-104299946D01*
X151914262Y-104466049D01*
X152340865Y-104617994D01*
X152362151Y-104625575D01*
X152506489Y-104677049D01*
X152617927Y-104717197D01*
X152700044Y-104747680D01*
X152756414Y-104770158D01*
X152790616Y-104786293D01*
X152806226Y-104797744D01*
X152806821Y-104806173D01*
X152795978Y-104813239D01*
X152777274Y-104820605D01*
X152761829Y-104826374D01*
X152709692Y-104845726D01*
X152632608Y-104874260D01*
X152538185Y-104909161D01*
X152434031Y-104947614D01*
X152385123Y-104965672D01*
X152274491Y-105006597D01*
X152171437Y-105044816D01*
X152085706Y-105076712D01*
X152027042Y-105098669D01*
X151914262Y-105141167D01*
X151914262Y-105316283D01*
X151914515Y-105354431D01*
X151916532Y-105424666D01*
X151920126Y-105473251D01*
X151924771Y-105491399D01*
X151924917Y-105491385D01*
X151946580Y-105484120D01*
X152000622Y-105464583D01*
X152082917Y-105434305D01*
X152189335Y-105394818D01*
X152315749Y-105347653D01*
X152458029Y-105294343D01*
X152612049Y-105236418D01*
X152615368Y-105235167D01*
X152770330Y-105177135D01*
X152914508Y-105123785D01*
X153043591Y-105076666D01*
X153153266Y-105037324D01*
X153239220Y-105007307D01*
X153297142Y-104988163D01*
X153322719Y-104981437D01*
X153331371Y-104982930D01*
X153374318Y-104994595D01*
X153447308Y-105016576D01*
X153545571Y-105047371D01*
X153664338Y-105085472D01*
X153798837Y-105129376D01*
X153944301Y-105177576D01*
X154019546Y-105202646D01*
X154158503Y-105248704D01*
X154283216Y-105289731D01*
X154389096Y-105324237D01*
X154471555Y-105350731D01*
X154526004Y-105367721D01*
X154547854Y-105373715D01*
X154550342Y-105371600D01*
X154556108Y-105342529D01*
X154558862Y-105286477D01*
X154558029Y-105212583D01*
X154552332Y-105051450D01*
X154218896Y-104921971D01*
X154117594Y-104881742D01*
X154024866Y-104843089D01*
X153951634Y-104810576D01*
X153903640Y-104786757D01*
X153886624Y-104774184D01*
X153903787Y-104762235D01*
X153952174Y-104739241D01*
X154025999Y-104707787D01*
X154119475Y-104670339D01*
X154226815Y-104629359D01*
X154565841Y-104502841D01*
X154559087Y-104341678D01*
X154557952Y-104317325D01*
X154553164Y-104245632D01*
X154547470Y-104193224D01*
X154541871Y-104170064D01*
X154535928Y-104170471D01*
X154498829Y-104180961D01*
X154431803Y-104203006D01*
X154339332Y-104235040D01*
X154225899Y-104275497D01*
X154095984Y-104322811D01*
X153954072Y-104375416D01*
X153376733Y-104591217D01*
X152723814Y-104387969D01*
X152670015Y-104371222D01*
X152652073Y-104365636D01*
X152493347Y-104316193D01*
X152346442Y-104270380D01*
X152215630Y-104229533D01*
X152105185Y-104194989D01*
X152019380Y-104168083D01*
X151962487Y-104150153D01*
X151938780Y-104142535D01*
X151930490Y-104143358D01*
X151920958Y-104164715D01*
X151915807Y-104215253D01*
X151914262Y-104299946D01*
X150926927Y-104299946D01*
X150924447Y-104271049D01*
X150865471Y-103930326D01*
X150776713Y-103601163D01*
X150672281Y-103319179D01*
X151914262Y-103319179D01*
X151914262Y-103495341D01*
X151914432Y-103540711D01*
X151916302Y-103607839D01*
X151921265Y-103645603D01*
X151930579Y-103660622D01*
X151945505Y-103659514D01*
X151987941Y-103645357D01*
X152047618Y-103636566D01*
X152114110Y-103643522D01*
X152201792Y-103666623D01*
X152218228Y-103671542D01*
X152250310Y-103680303D01*
X152283698Y-103687491D01*
X152322185Y-103693233D01*
X152369562Y-103697656D01*
X152429622Y-103700888D01*
X152506155Y-103703055D01*
X152602956Y-103704285D01*
X152723814Y-103704704D01*
X152872524Y-103704439D01*
X153052875Y-103703618D01*
X153268662Y-103702367D01*
X154199282Y-103696727D01*
X154310632Y-103644528D01*
X154334992Y-103632547D01*
X154417396Y-103578036D01*
X154477350Y-103508711D01*
X154480741Y-103503572D01*
X154501913Y-103469011D01*
X154516659Y-103435602D01*
X154526387Y-103395270D01*
X154532506Y-103339941D01*
X154536423Y-103261539D01*
X154539546Y-103151989D01*
X154539899Y-103137782D01*
X154542127Y-103033758D01*
X154542341Y-102962532D01*
X154539896Y-102918351D01*
X154534143Y-102895465D01*
X154524435Y-102888119D01*
X154510125Y-102890563D01*
X154489545Y-102897736D01*
X154436140Y-102917255D01*
X154362384Y-102944730D01*
X154277737Y-102976657D01*
X154251337Y-102986706D01*
X154172751Y-103017738D01*
X154122636Y-103041098D01*
X154094302Y-103061182D01*
X154081060Y-103082388D01*
X154076220Y-103109112D01*
X154075738Y-103114215D01*
X154063675Y-103196918D01*
X154043957Y-103253206D01*
X154012451Y-103295141D01*
X154002141Y-103304389D01*
X153986298Y-103313654D01*
X153962867Y-103320715D01*
X153927328Y-103325852D01*
X153875162Y-103329346D01*
X153801848Y-103331476D01*
X153702867Y-103332522D01*
X153573698Y-103332765D01*
X153409822Y-103332484D01*
X153383378Y-103332419D01*
X153225903Y-103331941D01*
X153103499Y-103331214D01*
X153012543Y-103329969D01*
X152949413Y-103327941D01*
X152910487Y-103324862D01*
X152892143Y-103320465D01*
X152890758Y-103314482D01*
X152902711Y-103306648D01*
X152924378Y-103296694D01*
X152936929Y-103291467D01*
X152988092Y-103271271D01*
X153069634Y-103239797D01*
X153177254Y-103198678D01*
X153306651Y-103149550D01*
X153453522Y-103094048D01*
X153613568Y-103033807D01*
X153782486Y-102970463D01*
X154562139Y-102678638D01*
X154562139Y-102567393D01*
X154561345Y-102523304D01*
X154557096Y-102450928D01*
X154550404Y-102397471D01*
X154538668Y-102338795D01*
X154443039Y-102375131D01*
X154391659Y-102393150D01*
X154346612Y-102401374D01*
X154298538Y-102397297D01*
X154230166Y-102381430D01*
X154204543Y-102375690D01*
X154165782Y-102369595D01*
X154116495Y-102364703D01*
X154053093Y-102360930D01*
X153971990Y-102358195D01*
X153869598Y-102356414D01*
X153742331Y-102355505D01*
X153586602Y-102355386D01*
X153398823Y-102355974D01*
X153175406Y-102357188D01*
X152659591Y-102360376D01*
X152237892Y-102362982D01*
X152139822Y-102413402D01*
X152139443Y-102413597D01*
X152052278Y-102473016D01*
X151982911Y-102547401D01*
X151962073Y-102578119D01*
X151943942Y-102611750D01*
X151932183Y-102649410D01*
X151925039Y-102699897D01*
X151920753Y-102772010D01*
X151917566Y-102874548D01*
X151917326Y-102883935D01*
X151916200Y-102975226D01*
X151917396Y-103049648D01*
X151920665Y-103099759D01*
X151925756Y-103118117D01*
X151925852Y-103118115D01*
X151949445Y-103111419D01*
X152001913Y-103093550D01*
X152075568Y-103067200D01*
X152162723Y-103035065D01*
X152163973Y-103034598D01*
X152256931Y-102999546D01*
X152319305Y-102974097D01*
X152357197Y-102954187D01*
X152376708Y-102935754D01*
X152383941Y-102914736D01*
X152384996Y-102887070D01*
X152392010Y-102840372D01*
X152433139Y-102773982D01*
X152481282Y-102725839D01*
X152977425Y-102726435D01*
X153064141Y-102726744D01*
X153200682Y-102728261D01*
X153309874Y-102730915D01*
X153388748Y-102734591D01*
X153434336Y-102739173D01*
X153443670Y-102744546D01*
X153426666Y-102752122D01*
X153374517Y-102772970D01*
X153291240Y-102805209D01*
X153180037Y-102847634D01*
X153044105Y-102899040D01*
X152886644Y-102958221D01*
X152710853Y-103023973D01*
X152519932Y-103095089D01*
X152317081Y-103170366D01*
X152105498Y-103248598D01*
X151914262Y-103319179D01*
X150672281Y-103319179D01*
X150656551Y-103276704D01*
X150503361Y-102950090D01*
X150502968Y-102949328D01*
X150437635Y-102828597D01*
X150360107Y-102694540D01*
X150276388Y-102556812D01*
X150192483Y-102425066D01*
X150114395Y-102308956D01*
X150048129Y-102218136D01*
X150023539Y-102175299D01*
X150011714Y-102128754D01*
X150011736Y-102127969D01*
X150023643Y-102094964D01*
X150054320Y-102038570D01*
X150099250Y-101966484D01*
X150153915Y-101886407D01*
X150263057Y-101726975D01*
X150464531Y-101390429D01*
X150563789Y-101184804D01*
X151896904Y-101184804D01*
X151897402Y-101227347D01*
X151902336Y-101376601D01*
X151913714Y-101493988D01*
X151933890Y-101585282D01*
X151965217Y-101656258D01*
X152010047Y-101712688D01*
X152070734Y-101760348D01*
X152149629Y-101805012D01*
X152153915Y-101807164D01*
X152205766Y-101828653D01*
X152265148Y-101843164D01*
X152342621Y-101852596D01*
X152448741Y-101858851D01*
X152659591Y-101867866D01*
X152659591Y-101671714D01*
X152659591Y-101475563D01*
X152581773Y-101463119D01*
X152526355Y-101452404D01*
X152453146Y-101426638D01*
X152404780Y-101386540D01*
X152377668Y-101326242D01*
X152368221Y-101239879D01*
X152372850Y-101121582D01*
X152373599Y-101112205D01*
X152383897Y-101023546D01*
X152397523Y-100958274D01*
X152412869Y-100924309D01*
X152422799Y-100916487D01*
X152474917Y-100896695D01*
X152545284Y-100886764D01*
X152618492Y-100888002D01*
X152679133Y-100901717D01*
X152692142Y-100907844D01*
X152740018Y-100941661D01*
X152795883Y-100998056D01*
X152862270Y-101080083D01*
X152941709Y-101190797D01*
X153036730Y-101333252D01*
X153149850Y-101494112D01*
X153270395Y-101635795D01*
X153386834Y-101741025D01*
X153498070Y-101808670D01*
X153553667Y-101829188D01*
X153619169Y-101843421D01*
X153704192Y-101852816D01*
X153818571Y-101858914D01*
X153900784Y-101860454D01*
X154071292Y-101850583D01*
X154211032Y-101820863D01*
X154322763Y-101770211D01*
X154409242Y-101697544D01*
X154473227Y-101601778D01*
X154487615Y-101571898D01*
X154501850Y-101536064D01*
X154511618Y-101497285D01*
X154517741Y-101448303D01*
X154521044Y-101381864D01*
X154522350Y-101290710D01*
X154522480Y-101167586D01*
X154521402Y-101044559D01*
X154516786Y-100925366D01*
X154507074Y-100833939D01*
X154490705Y-100764018D01*
X154466117Y-100709346D01*
X154431748Y-100663663D01*
X154386037Y-100620710D01*
X154340709Y-100585663D01*
X154307158Y-100566482D01*
X154272336Y-100546575D01*
X154194025Y-100520336D01*
X154096083Y-100504018D01*
X153968818Y-100494695D01*
X153757969Y-100484815D01*
X153757969Y-100680891D01*
X153757969Y-100876967D01*
X153839630Y-100887920D01*
X153852312Y-100889964D01*
X153918745Y-100909240D01*
X153972024Y-100936692D01*
X153977814Y-100941075D01*
X153998906Y-100960548D01*
X154012506Y-100985268D01*
X154020617Y-101023729D01*
X154025238Y-101084425D01*
X154028372Y-101175851D01*
X154029400Y-101229106D01*
X154026689Y-101329848D01*
X154014980Y-101399180D01*
X153992086Y-101442285D01*
X153955819Y-101464347D01*
X153903991Y-101470549D01*
X153876154Y-101469499D01*
X153800036Y-101454175D01*
X153725317Y-101418220D01*
X153648505Y-101358602D01*
X153566110Y-101272290D01*
X153474638Y-101156252D01*
X153370598Y-101007456D01*
X153336934Y-100958110D01*
X153223674Y-100806076D01*
X153118074Y-100688004D01*
X153017378Y-100601060D01*
X152918832Y-100542405D01*
X152910996Y-100538839D01*
X152867155Y-100521774D01*
X152820320Y-100510460D01*
X152761440Y-100503792D01*
X152681460Y-100500665D01*
X152571328Y-100499973D01*
X152493542Y-100500312D01*
X152407933Y-100502305D01*
X152345263Y-100507347D01*
X152295909Y-100516859D01*
X152250250Y-100532261D01*
X152198664Y-100554973D01*
X152150314Y-100579043D01*
X152042818Y-100650455D01*
X151968580Y-100733152D01*
X151923532Y-100831219D01*
X151921741Y-100837492D01*
X151906794Y-100919714D01*
X151898593Y-101034450D01*
X151896904Y-101184804D01*
X150563789Y-101184804D01*
X150630363Y-101046887D01*
X150762670Y-100691025D01*
X150863567Y-100317520D01*
X150935171Y-99921051D01*
X150943839Y-99843261D01*
X150952743Y-99706064D01*
X150957672Y-99546937D01*
X150958709Y-99375917D01*
X150955937Y-99203040D01*
X150954860Y-99175723D01*
X151914262Y-99175723D01*
X151914262Y-99362055D01*
X151914262Y-99548387D01*
X152993027Y-99548387D01*
X154071791Y-99548387D01*
X154071791Y-99803368D01*
X154071791Y-100058348D01*
X154307158Y-100058348D01*
X154542525Y-100058348D01*
X154542525Y-99362055D01*
X154542525Y-98665762D01*
X154307158Y-98665762D01*
X154071791Y-98665762D01*
X154071791Y-98920742D01*
X154071791Y-99175723D01*
X152993027Y-99175723D01*
X151914262Y-99175723D01*
X150954860Y-99175723D01*
X150949441Y-99038343D01*
X150939304Y-98891864D01*
X150925610Y-98773638D01*
X150908947Y-98671753D01*
X150831043Y-98309500D01*
X150725400Y-97964155D01*
X150589435Y-97629127D01*
X150512975Y-97479121D01*
X151914262Y-97479121D01*
X151914262Y-98175414D01*
X152684108Y-98175376D01*
X152818704Y-98175192D01*
X153028610Y-98174327D01*
X153245517Y-98172834D01*
X153460179Y-98170806D01*
X153663350Y-98168332D01*
X153845786Y-98165505D01*
X153998239Y-98162415D01*
X154542525Y-98149492D01*
X154542525Y-97966314D01*
X154542525Y-97783136D01*
X153463760Y-97783136D01*
X152384996Y-97783136D01*
X152384996Y-97282982D01*
X152384996Y-96782827D01*
X152149629Y-96782827D01*
X151914262Y-96782827D01*
X151914262Y-97479121D01*
X150512975Y-97479121D01*
X150420565Y-97297825D01*
X150216206Y-96963659D01*
X150169107Y-96891175D01*
X150114255Y-96803511D01*
X150070650Y-96729998D01*
X150041883Y-96676738D01*
X150031546Y-96649836D01*
X150043756Y-96632873D01*
X150081072Y-96592151D01*
X150139848Y-96531540D01*
X150216390Y-96454608D01*
X150307006Y-96364924D01*
X150408001Y-96266056D01*
X150515682Y-96161572D01*
X150626357Y-96055040D01*
X150736331Y-95950029D01*
X150841912Y-95850108D01*
X150939406Y-95758844D01*
X151025120Y-95679805D01*
X151095360Y-95616561D01*
X151146434Y-95572679D01*
X151199023Y-95529558D01*
X151424973Y-95749204D01*
X151429530Y-95753629D01*
X151627093Y-95934063D01*
X151818534Y-96084812D01*
X152012660Y-96212241D01*
X152218278Y-96322719D01*
X152316267Y-96368918D01*
X152507851Y-96448684D01*
X152686708Y-96505957D01*
X152863928Y-96543364D01*
X153050600Y-96563534D01*
X153257815Y-96569095D01*
X153464000Y-96562769D01*
X153666033Y-96542108D01*
X153857964Y-96505018D01*
X154053947Y-96449370D01*
X154251081Y-96377067D01*
X154494380Y-96260951D01*
X154727666Y-96116725D01*
X154956477Y-95940870D01*
X155186353Y-95729867D01*
X155388869Y-95529535D01*
X155946392Y-96080577D01*
G37*
G36*
X131893349Y-99324179D02*
G01*
X131893349Y-99522535D01*
X131705784Y-99525395D01*
X131651351Y-99525995D01*
X131596028Y-99526084D01*
X131550712Y-99525590D01*
X131519024Y-99524556D01*
X131504586Y-99523024D01*
X131501305Y-99520067D01*
X131497311Y-99507842D01*
X131494692Y-99484287D01*
X131493317Y-99447018D01*
X131493061Y-99393651D01*
X131493796Y-99321808D01*
X131496637Y-99125823D01*
X131694993Y-99125823D01*
X131893349Y-99125823D01*
X131893349Y-99324179D01*
G37*
G36*
X131896184Y-97588565D02*
G01*
X131893349Y-97789529D01*
X131705784Y-97792390D01*
X131651328Y-97792994D01*
X131596050Y-97793096D01*
X131550794Y-97792621D01*
X131519177Y-97791611D01*
X131504818Y-97790108D01*
X131502302Y-97788049D01*
X131497996Y-97776185D01*
X131494900Y-97752285D01*
X131492868Y-97714141D01*
X131491756Y-97659542D01*
X131491417Y-97586281D01*
X131491417Y-97387599D01*
X131695218Y-97387599D01*
X131899019Y-97387599D01*
X131896184Y-97588565D01*
G37*
G36*
X131896185Y-98167973D02*
G01*
X131899019Y-98368939D01*
X131702178Y-98368939D01*
X131700576Y-98368938D01*
X131638597Y-98368557D01*
X131583988Y-98367528D01*
X131540126Y-98365973D01*
X131510389Y-98364009D01*
X131498154Y-98361756D01*
X131496056Y-98349812D01*
X131494478Y-98320318D01*
X131493527Y-98276715D01*
X131493278Y-98222403D01*
X131493804Y-98160790D01*
X131496637Y-97967007D01*
X131694993Y-97967008D01*
X131893348Y-97967007D01*
X131896185Y-98167973D01*
G37*
G36*
X132040282Y-96396245D02*
G01*
X132066388Y-96400189D01*
X132076045Y-96407470D01*
X132072862Y-96416669D01*
X132060070Y-96439158D01*
X132040827Y-96467499D01*
X132026690Y-96487969D01*
X132008483Y-96517893D01*
X131998364Y-96539366D01*
X131990933Y-96555462D01*
X131978925Y-96562183D01*
X131968121Y-96549806D01*
X131966447Y-96544102D01*
X131963227Y-96517163D01*
X131962362Y-96481460D01*
X131963875Y-96445881D01*
X131967787Y-96419309D01*
X131969017Y-96415169D01*
X131976923Y-96402775D01*
X131993601Y-96397147D01*
X132025064Y-96395818D01*
X132040282Y-96396245D01*
G37*
G36*
X132997628Y-99120686D02*
G01*
X133098062Y-99121004D01*
X133182555Y-99121667D01*
X133252570Y-99122801D01*
X133309574Y-99124526D01*
X133355031Y-99126967D01*
X133390406Y-99130245D01*
X133417164Y-99134484D01*
X133436770Y-99139806D01*
X133450689Y-99146335D01*
X133460385Y-99154193D01*
X133467324Y-99163503D01*
X133472970Y-99174387D01*
X133478788Y-99186970D01*
X133489305Y-99216375D01*
X133495466Y-99276786D01*
X133485819Y-99343661D01*
X133461078Y-99413290D01*
X133421960Y-99481964D01*
X133390455Y-99527755D01*
X132681051Y-99527755D01*
X131971647Y-99527755D01*
X131971647Y-99324179D01*
X131971647Y-99120603D01*
X132687291Y-99120603D01*
X132743077Y-99120600D01*
X132879788Y-99120592D01*
X132997628Y-99120686D01*
G37*
G36*
X131792580Y-98536497D02*
G01*
X131836967Y-98538205D01*
X131869436Y-98540935D01*
X131885756Y-98544727D01*
X131888040Y-98547101D01*
X131892244Y-98559715D01*
X131895047Y-98584120D01*
X131896563Y-98622584D01*
X131896908Y-98677373D01*
X131896196Y-98750753D01*
X131893349Y-98948347D01*
X131705784Y-98951208D01*
X131651328Y-98951811D01*
X131596050Y-98951912D01*
X131550794Y-98951437D01*
X131519177Y-98950428D01*
X131504818Y-98948924D01*
X131503315Y-98947501D01*
X131498696Y-98930450D01*
X131495094Y-98897675D01*
X131492517Y-98853167D01*
X131490976Y-98800920D01*
X131490478Y-98744925D01*
X131491032Y-98689178D01*
X131492647Y-98637669D01*
X131495331Y-98594392D01*
X131499095Y-98563339D01*
X131503945Y-98548503D01*
X131512865Y-98545362D01*
X131539927Y-98541818D01*
X131580453Y-98539046D01*
X131630211Y-98537085D01*
X131684973Y-98535979D01*
X131740505Y-98535769D01*
X131792580Y-98536497D01*
G37*
G36*
X133849842Y-94007278D02*
G01*
X133918667Y-94010328D01*
X133921404Y-94404871D01*
X133924139Y-94799414D01*
X133843105Y-94796363D01*
X133762070Y-94793312D01*
X133759174Y-94644545D01*
X133756277Y-94495778D01*
X132871270Y-94495779D01*
X132709276Y-94495718D01*
X132565480Y-94495524D01*
X132440368Y-94495181D01*
X132332837Y-94494673D01*
X132241785Y-94493983D01*
X132166109Y-94493095D01*
X132104708Y-94491995D01*
X132056476Y-94490664D01*
X132020312Y-94489089D01*
X131995114Y-94487251D01*
X131979779Y-94485137D01*
X131973205Y-94482728D01*
X131966860Y-94471816D01*
X131965754Y-94448799D01*
X131967651Y-94438563D01*
X131970374Y-94408864D01*
X131971505Y-94373169D01*
X131971647Y-94318419D01*
X132861639Y-94315750D01*
X133751631Y-94313082D01*
X133754557Y-94172833D01*
X133756399Y-94118334D01*
X133759717Y-94069217D01*
X133764097Y-94034895D01*
X133769250Y-94018407D01*
X133778687Y-94012103D01*
X133805425Y-94007223D01*
X133849842Y-94007278D01*
G37*
G36*
X132713383Y-96397641D02*
G01*
X132763362Y-96398403D01*
X132798929Y-96399862D01*
X132821984Y-96402083D01*
X132834424Y-96405131D01*
X132838149Y-96409072D01*
X132837966Y-96410707D01*
X132832891Y-96428791D01*
X132821901Y-96461375D01*
X132806402Y-96504412D01*
X132787800Y-96553860D01*
X132781778Y-96569569D01*
X132754860Y-96638773D01*
X132731597Y-96692351D01*
X132708922Y-96732303D01*
X132683769Y-96760626D01*
X132653072Y-96779319D01*
X132613763Y-96790380D01*
X132562778Y-96795807D01*
X132497048Y-96797598D01*
X132413508Y-96797751D01*
X132394539Y-96797746D01*
X132327187Y-96797541D01*
X132276893Y-96796831D01*
X132240575Y-96795338D01*
X132215148Y-96792777D01*
X132197533Y-96788869D01*
X132184642Y-96783336D01*
X132173393Y-96775893D01*
X132173035Y-96775626D01*
X132148551Y-96749781D01*
X132130812Y-96718474D01*
X132122254Y-96681987D01*
X132122877Y-96620287D01*
X132138338Y-96551468D01*
X132168043Y-96479357D01*
X132207621Y-96401039D01*
X132522885Y-96398276D01*
X132562596Y-96397953D01*
X132647095Y-96397514D01*
X132713383Y-96397641D01*
G37*
G36*
X133148299Y-100114074D02*
G01*
X133227340Y-100115776D01*
X133295171Y-100118701D01*
X133347458Y-100123475D01*
X133386969Y-100130844D01*
X133416473Y-100141550D01*
X133438737Y-100156336D01*
X133456532Y-100175945D01*
X133472624Y-100201121D01*
X133477858Y-100210604D01*
X133487470Y-100232835D01*
X133492676Y-100257513D01*
X133494407Y-100290763D01*
X133493596Y-100338708D01*
X133491473Y-100380275D01*
X133484960Y-100425316D01*
X133472234Y-100458917D01*
X133450955Y-100486546D01*
X133418787Y-100513670D01*
X133413671Y-100517306D01*
X133402271Y-100523542D01*
X133387414Y-100528242D01*
X133366196Y-100531682D01*
X133335712Y-100534140D01*
X133293061Y-100535890D01*
X133235337Y-100537211D01*
X133159638Y-100538379D01*
X133130485Y-100538738D01*
X133064994Y-100539199D01*
X133007479Y-100539136D01*
X132961165Y-100538578D01*
X132929275Y-100537555D01*
X132915038Y-100536098D01*
X132912446Y-100533138D01*
X132907378Y-100513145D01*
X132903543Y-100477969D01*
X132900928Y-100431554D01*
X132899522Y-100377842D01*
X132899320Y-100320778D01*
X132900310Y-100264304D01*
X132902485Y-100212365D01*
X132905832Y-100168902D01*
X132910345Y-100137861D01*
X132916014Y-100123183D01*
X132918225Y-100121767D01*
X132933768Y-100117627D01*
X132962675Y-100114861D01*
X133006817Y-100113396D01*
X133068068Y-100113159D01*
X133148299Y-100114074D01*
G37*
G36*
X132781622Y-97960606D02*
G01*
X132886203Y-97961130D01*
X132987067Y-97961956D01*
X133082142Y-97963080D01*
X133169363Y-97964502D01*
X133246662Y-97966218D01*
X133311969Y-97968228D01*
X133363223Y-97970531D01*
X133398350Y-97973124D01*
X133415283Y-97976006D01*
X133436116Y-97986135D01*
X133467370Y-98011583D01*
X133485589Y-98047201D01*
X133493853Y-98097762D01*
X133491612Y-98163757D01*
X133471498Y-98239036D01*
X133431978Y-98317141D01*
X133400107Y-98368939D01*
X132687617Y-98368939D01*
X132615895Y-98368917D01*
X132499359Y-98368784D01*
X132390057Y-98368540D01*
X132289695Y-98368196D01*
X132199978Y-98367762D01*
X132122613Y-98367247D01*
X132059304Y-98366663D01*
X132011758Y-98366020D01*
X131981681Y-98365328D01*
X131970777Y-98364597D01*
X131970480Y-98363915D01*
X131969295Y-98349017D01*
X131968693Y-98318043D01*
X131968609Y-98275022D01*
X131968978Y-98223980D01*
X131969735Y-98168945D01*
X131970813Y-98113945D01*
X131972152Y-98063006D01*
X131973683Y-98020157D01*
X131975341Y-97989426D01*
X131977063Y-97974837D01*
X131986106Y-97972259D01*
X132014165Y-97969686D01*
X132059180Y-97967430D01*
X132119084Y-97965490D01*
X132191809Y-97963864D01*
X132275289Y-97962550D01*
X132367453Y-97961546D01*
X132466236Y-97960852D01*
X132569571Y-97960465D01*
X132675389Y-97960383D01*
X132781622Y-97960606D01*
G37*
G36*
X132693003Y-97387164D02*
G01*
X132800374Y-97387348D01*
X132925071Y-97387613D01*
X133031569Y-97387947D01*
X133121396Y-97388390D01*
X133196079Y-97388989D01*
X133257143Y-97389786D01*
X133306116Y-97390826D01*
X133344524Y-97392153D01*
X133373894Y-97393809D01*
X133395752Y-97395840D01*
X133411625Y-97398288D01*
X133423041Y-97401198D01*
X133431523Y-97404615D01*
X133438602Y-97408580D01*
X133451535Y-97417498D01*
X133477461Y-97446357D01*
X133491583Y-97485589D01*
X133495856Y-97539674D01*
X133491562Y-97583241D01*
X133475151Y-97645536D01*
X133449334Y-97707195D01*
X133417179Y-97759636D01*
X133390395Y-97794750D01*
X132688329Y-97794750D01*
X132580347Y-97794667D01*
X132448364Y-97794302D01*
X132330618Y-97793662D01*
X132228060Y-97792758D01*
X132141636Y-97791604D01*
X132072296Y-97790215D01*
X132020990Y-97788600D01*
X131988665Y-97786777D01*
X131976269Y-97784757D01*
X131975625Y-97783591D01*
X131973043Y-97766799D01*
X131970984Y-97734132D01*
X131969463Y-97689673D01*
X131968493Y-97637505D01*
X131968085Y-97581710D01*
X131968255Y-97526370D01*
X131969016Y-97475570D01*
X131970381Y-97433391D01*
X131972364Y-97403916D01*
X131974977Y-97391228D01*
X131979122Y-97390708D01*
X132001749Y-97389892D01*
X132042535Y-97389158D01*
X132099772Y-97388516D01*
X132171751Y-97387979D01*
X132256764Y-97387553D01*
X132353104Y-97387249D01*
X132459064Y-97387076D01*
X132572932Y-97387045D01*
X132693003Y-97387164D01*
G37*
G36*
X132733416Y-98536371D02*
G01*
X132864182Y-98536429D01*
X132976158Y-98536573D01*
X133070924Y-98536850D01*
X133150061Y-98537301D01*
X133215147Y-98537968D01*
X133267758Y-98538895D01*
X133309478Y-98540125D01*
X133341883Y-98541702D01*
X133366554Y-98543665D01*
X133385070Y-98546060D01*
X133399009Y-98548930D01*
X133409951Y-98552317D01*
X133419475Y-98556264D01*
X133424775Y-98558751D01*
X133460677Y-98582644D01*
X133483005Y-98614741D01*
X133493408Y-98658646D01*
X133493537Y-98717962D01*
X133483951Y-98782752D01*
X133458679Y-98851504D01*
X133415834Y-98919637D01*
X133390395Y-98953567D01*
X132688329Y-98953567D01*
X132649298Y-98953558D01*
X132492972Y-98953327D01*
X132357416Y-98952778D01*
X132242546Y-98951910D01*
X132148273Y-98950723D01*
X132074513Y-98949214D01*
X132021178Y-98947382D01*
X131988183Y-98945225D01*
X131975440Y-98942744D01*
X131974528Y-98941340D01*
X131971082Y-98923415D01*
X131968947Y-98889812D01*
X131968015Y-98844592D01*
X131968176Y-98791816D01*
X131969324Y-98735548D01*
X131971350Y-98679848D01*
X131974146Y-98628777D01*
X131977603Y-98586398D01*
X131981613Y-98556776D01*
X131986069Y-98543965D01*
X131988763Y-98543404D01*
X132009228Y-98542119D01*
X132048072Y-98540915D01*
X132103535Y-98539812D01*
X132173857Y-98538828D01*
X132257278Y-98537981D01*
X132352040Y-98537294D01*
X132456383Y-98536781D01*
X132568547Y-98536466D01*
X132686772Y-98536364D01*
X132733416Y-98536371D01*
G37*
G36*
X131902651Y-94895499D02*
G01*
X131917525Y-94914824D01*
X131934582Y-94949397D01*
X131956888Y-95001172D01*
X131963499Y-95016699D01*
X131979654Y-95053638D01*
X131990495Y-95074751D01*
X131998136Y-95082626D01*
X132004690Y-95079857D01*
X132012272Y-95069030D01*
X132051982Y-95018776D01*
X132113760Y-94969312D01*
X132186492Y-94935693D01*
X132192802Y-94933673D01*
X132206643Y-94929456D01*
X132220691Y-94925849D01*
X132236538Y-94922812D01*
X132255772Y-94920305D01*
X132279987Y-94918288D01*
X132310768Y-94916720D01*
X132349710Y-94915562D01*
X132398399Y-94914773D01*
X132458428Y-94914313D01*
X132531385Y-94914141D01*
X132618863Y-94914219D01*
X132722447Y-94914505D01*
X132843732Y-94914959D01*
X132984306Y-94915541D01*
X133709870Y-94918589D01*
X133763192Y-94942724D01*
X133817697Y-94974921D01*
X133873848Y-95028937D01*
X133915542Y-95096066D01*
X133915958Y-95096972D01*
X133925131Y-95118846D01*
X133931577Y-95140570D01*
X133935768Y-95166351D01*
X133938176Y-95200393D01*
X133939270Y-95246901D01*
X133939523Y-95310081D01*
X133939520Y-95317866D01*
X133939194Y-95378888D01*
X133937990Y-95423762D01*
X133935416Y-95456755D01*
X133930983Y-95482132D01*
X133924201Y-95504157D01*
X133914579Y-95527100D01*
X133904798Y-95546373D01*
X133862211Y-95603534D01*
X133806396Y-95650688D01*
X133742971Y-95682740D01*
X133737865Y-95684450D01*
X133725701Y-95687855D01*
X133711056Y-95690778D01*
X133692398Y-95693257D01*
X133668194Y-95695327D01*
X133636910Y-95697025D01*
X133597012Y-95698388D01*
X133546969Y-95699451D01*
X133485244Y-95700251D01*
X133410309Y-95700824D01*
X133320626Y-95701206D01*
X133214664Y-95701434D01*
X133090889Y-95701544D01*
X132947767Y-95701573D01*
X132832785Y-95701582D01*
X132699139Y-95701553D01*
X132590329Y-95701366D01*
X132583706Y-95701355D01*
X132484975Y-95700855D01*
X132401432Y-95699922D01*
X132331565Y-95698422D01*
X132273860Y-95696223D01*
X132226806Y-95693192D01*
X132188888Y-95689198D01*
X132158595Y-95684106D01*
X132134414Y-95677785D01*
X132114831Y-95670103D01*
X132098334Y-95660927D01*
X132083410Y-95650123D01*
X132068546Y-95637560D01*
X132052230Y-95623105D01*
X132014766Y-95583221D01*
X131983020Y-95528452D01*
X131962906Y-95461617D01*
X131953029Y-95379291D01*
X131952642Y-95372513D01*
X131951212Y-95350744D01*
X132121812Y-95350744D01*
X132127755Y-95408007D01*
X132141350Y-95450485D01*
X132163509Y-95480923D01*
X132195147Y-95502064D01*
X132203524Y-95505361D01*
X132214934Y-95508246D01*
X132230741Y-95510680D01*
X132252441Y-95512692D01*
X132281533Y-95514311D01*
X132319517Y-95515564D01*
X132367889Y-95516480D01*
X132428150Y-95517087D01*
X132501798Y-95517413D01*
X132590330Y-95517486D01*
X132695246Y-95517336D01*
X132818044Y-95516989D01*
X132960222Y-95516475D01*
X132973514Y-95516423D01*
X133112759Y-95515867D01*
X133232756Y-95515323D01*
X133335006Y-95514747D01*
X133421006Y-95514090D01*
X133492258Y-95513306D01*
X133550259Y-95512348D01*
X133596510Y-95511168D01*
X133632509Y-95509721D01*
X133659758Y-95507958D01*
X133679754Y-95505833D01*
X133693997Y-95503300D01*
X133703987Y-95500311D01*
X133711223Y-95496819D01*
X133717204Y-95492777D01*
X133730501Y-95481685D01*
X133750687Y-95455686D01*
X133763615Y-95421073D01*
X133770487Y-95373866D01*
X133772510Y-95310081D01*
X133771328Y-95259062D01*
X133765512Y-95207629D01*
X133753599Y-95169853D01*
X133734228Y-95141827D01*
X133706033Y-95119647D01*
X133668112Y-95096066D01*
X132960349Y-95093174D01*
X132861524Y-95092778D01*
X132736113Y-95092329D01*
X132628934Y-95092049D01*
X132538426Y-95091975D01*
X132463029Y-95092144D01*
X132401180Y-95092593D01*
X132351319Y-95093356D01*
X132311884Y-95094470D01*
X132281315Y-95095970D01*
X132258051Y-95097893D01*
X132240530Y-95100274D01*
X132227191Y-95103150D01*
X132216473Y-95106556D01*
X132206815Y-95110529D01*
X132172319Y-95130949D01*
X132143368Y-95164960D01*
X132136444Y-95182608D01*
X132127217Y-95226630D01*
X132122288Y-95283323D01*
X132121812Y-95350744D01*
X131951212Y-95350744D01*
X131950799Y-95344461D01*
X131947993Y-95320445D01*
X131942981Y-95297735D01*
X131934525Y-95273596D01*
X131921385Y-95245299D01*
X131902321Y-95210110D01*
X131876094Y-95165297D01*
X131841462Y-95108130D01*
X131797187Y-95035876D01*
X131782131Y-95010093D01*
X131768621Y-94983851D01*
X131763258Y-94968934D01*
X131763291Y-94968419D01*
X131772568Y-94956696D01*
X131795130Y-94938672D01*
X131826412Y-94918029D01*
X131840494Y-94909497D01*
X131867200Y-94894788D01*
X131886897Y-94889472D01*
X131902651Y-94895499D01*
G37*
G36*
X133929030Y-101336448D02*
G01*
X133929510Y-101345423D01*
X133930910Y-101387628D01*
X133932012Y-101446806D01*
X133932796Y-101519958D01*
X133933246Y-101604088D01*
X133933343Y-101696198D01*
X133933068Y-101793290D01*
X133932404Y-101892366D01*
X133931686Y-101968657D01*
X133930512Y-102067912D01*
X133929174Y-102149271D01*
X133927597Y-102214527D01*
X133925710Y-102265480D01*
X133923443Y-102303923D01*
X133920722Y-102331652D01*
X133917476Y-102350466D01*
X133913634Y-102362157D01*
X133886893Y-102410797D01*
X133840096Y-102468925D01*
X133781862Y-102513534D01*
X133721124Y-102550074D01*
X132948173Y-102550074D01*
X132175223Y-102550074D01*
X132131131Y-102526513D01*
X132124012Y-102522559D01*
X132073544Y-102486663D01*
X132028320Y-102442061D01*
X131995770Y-102395921D01*
X131986157Y-102369317D01*
X131977185Y-102324221D01*
X131971176Y-102268200D01*
X131969911Y-102250185D01*
X131966857Y-102206922D01*
X131964371Y-102171976D01*
X131962896Y-102151605D01*
X131964044Y-102127397D01*
X131971155Y-102105087D01*
X131981938Y-102095942D01*
X131982092Y-102095948D01*
X131991385Y-102104894D01*
X132002352Y-102125781D01*
X132016050Y-102150355D01*
X132051648Y-102190023D01*
X132098869Y-102225229D01*
X132152125Y-102251290D01*
X132170453Y-102257567D01*
X132196564Y-102264405D01*
X132226142Y-102268984D01*
X132263538Y-102271729D01*
X132313104Y-102273067D01*
X132379190Y-102273419D01*
X132545835Y-102273419D01*
X132545835Y-102195120D01*
X132545835Y-102116822D01*
X132396671Y-102116822D01*
X132351118Y-102116674D01*
X132302997Y-102115725D01*
X132268264Y-102113438D01*
X132242573Y-102109291D01*
X132221575Y-102102763D01*
X132200925Y-102093332D01*
X132189390Y-102087218D01*
X132161199Y-102067509D01*
X132142079Y-102043009D01*
X132130418Y-102009739D01*
X132124604Y-101963717D01*
X132123024Y-101900962D01*
X132123174Y-101871543D01*
X132124570Y-101830104D01*
X132128085Y-101801889D01*
X132134513Y-101781926D01*
X132144646Y-101765245D01*
X132161876Y-101744526D01*
X132185483Y-101725475D01*
X132215252Y-101712456D01*
X132254842Y-101704435D01*
X132307910Y-101700376D01*
X132378113Y-101699247D01*
X132434448Y-101699478D01*
X132482096Y-101701377D01*
X132521522Y-101706737D01*
X132555113Y-101717352D01*
X132585265Y-101735013D01*
X132614363Y-101761518D01*
X132644800Y-101798657D01*
X132678966Y-101848223D01*
X132719250Y-101912011D01*
X132768044Y-101991816D01*
X132815777Y-102066791D01*
X132863491Y-102132886D01*
X132907620Y-102183267D01*
X132949994Y-102220001D01*
X132992441Y-102245153D01*
X133006104Y-102251180D01*
X133025085Y-102257767D01*
X133046916Y-102262394D01*
X133075205Y-102265404D01*
X133113554Y-102267136D01*
X133165571Y-102267935D01*
X133234862Y-102268141D01*
X133293648Y-102268049D01*
X133348077Y-102267444D01*
X133388310Y-102265964D01*
X133417993Y-102263250D01*
X133440771Y-102258948D01*
X133460290Y-102252700D01*
X133480196Y-102244149D01*
X133535129Y-102212918D01*
X133581427Y-102169758D01*
X133619207Y-102111602D01*
X133619228Y-102111560D01*
X133630210Y-102089386D01*
X133637806Y-102068871D01*
X133642647Y-102045507D01*
X133645362Y-102014786D01*
X133646585Y-101972200D01*
X133646943Y-101913246D01*
X133646873Y-101866062D01*
X133645947Y-101819030D01*
X133643529Y-101784582D01*
X133639031Y-101758011D01*
X133631862Y-101734609D01*
X133621435Y-101709670D01*
X133621340Y-101709461D01*
X133581657Y-101645477D01*
X133527499Y-101595603D01*
X133461230Y-101562014D01*
X133435891Y-101554682D01*
X133404544Y-101549147D01*
X133364626Y-101545589D01*
X133312040Y-101543651D01*
X133242691Y-101542974D01*
X133078264Y-101542634D01*
X133078264Y-101619816D01*
X133078264Y-101696999D01*
X133237471Y-101700725D01*
X133248055Y-101700976D01*
X133307007Y-101702663D01*
X133349473Y-101704790D01*
X133379265Y-101707910D01*
X133400203Y-101712576D01*
X133416097Y-101719343D01*
X133430765Y-101728763D01*
X133440548Y-101736102D01*
X133469050Y-101764868D01*
X133487274Y-101800018D01*
X133497013Y-101846193D01*
X133500060Y-101908026D01*
X133500065Y-101912840D01*
X133495795Y-101979615D01*
X133481896Y-102030413D01*
X133456289Y-102067269D01*
X133416882Y-102092216D01*
X133361591Y-102107290D01*
X133288330Y-102114525D01*
X133248584Y-102115824D01*
X133172324Y-102113370D01*
X133111558Y-102102967D01*
X133063404Y-102083969D01*
X133024974Y-102055733D01*
X133007771Y-102035840D01*
X132981823Y-102000935D01*
X132950164Y-101955144D01*
X132915296Y-101902086D01*
X132879719Y-101845387D01*
X132848216Y-101794586D01*
X132804163Y-101726792D01*
X132766280Y-101673743D01*
X132732525Y-101633065D01*
X132700854Y-101602383D01*
X132669229Y-101579323D01*
X132635605Y-101561510D01*
X132618812Y-101554298D01*
X132599152Y-101547645D01*
X132576938Y-101543006D01*
X132548504Y-101540022D01*
X132510186Y-101538335D01*
X132458319Y-101537584D01*
X132389239Y-101537415D01*
X132376493Y-101537415D01*
X132311216Y-101537591D01*
X132262517Y-101538339D01*
X132226711Y-101540066D01*
X132200111Y-101543173D01*
X132179031Y-101548059D01*
X132159784Y-101555132D01*
X132138683Y-101564793D01*
X132134346Y-101566897D01*
X132076498Y-101602339D01*
X132030559Y-101644543D01*
X132000994Y-101689466D01*
X131988040Y-101713237D01*
X131977252Y-101718625D01*
X131967979Y-101704726D01*
X131965779Y-101689151D01*
X131964054Y-101656696D01*
X131962844Y-101611262D01*
X131962132Y-101556613D01*
X131961904Y-101496509D01*
X131962146Y-101434711D01*
X131962842Y-101374982D01*
X131963978Y-101321083D01*
X131965538Y-101276775D01*
X131967506Y-101245820D01*
X131969868Y-101231980D01*
X131970309Y-101231482D01*
X131977386Y-101228960D01*
X131993204Y-101226814D01*
X132018979Y-101225024D01*
X132055920Y-101223574D01*
X132105244Y-101222447D01*
X132168165Y-101221627D01*
X132245896Y-101221096D01*
X132339649Y-101220839D01*
X132450641Y-101220839D01*
X132580083Y-101221078D01*
X132729191Y-101221539D01*
X133480196Y-101224220D01*
X133485416Y-101312958D01*
X133490636Y-101401696D01*
X133542143Y-101404957D01*
X133559256Y-101405987D01*
X133598829Y-101406578D01*
X133623224Y-101400606D01*
X133636108Y-101384494D01*
X133641148Y-101354664D01*
X133642013Y-101307538D01*
X133642013Y-101219000D01*
X133781920Y-101219000D01*
X133921827Y-101218999D01*
X133929030Y-101336448D01*
G37*
G36*
X133715786Y-95957349D02*
G01*
X133765027Y-95982515D01*
X133797776Y-96001906D01*
X133857441Y-96054991D01*
X133904492Y-96124384D01*
X133929107Y-96171364D01*
X133931869Y-98597940D01*
X133931956Y-98678179D01*
X133932156Y-98911027D01*
X133932272Y-99136222D01*
X133932309Y-99352937D01*
X133932264Y-99560346D01*
X133932144Y-99757622D01*
X133931948Y-99943938D01*
X133931681Y-100118469D01*
X133931342Y-100280386D01*
X133930935Y-100428864D01*
X133930463Y-100563075D01*
X133929926Y-100682194D01*
X133929327Y-100785393D01*
X133928669Y-100871845D01*
X133927953Y-100940726D01*
X133927183Y-100991207D01*
X133926359Y-101022461D01*
X133925484Y-101033663D01*
X133921397Y-101035336D01*
X133899907Y-101038382D01*
X133864890Y-101040826D01*
X133821257Y-101042584D01*
X133773919Y-101043576D01*
X133727785Y-101043721D01*
X133687766Y-101042939D01*
X133658773Y-101041148D01*
X133645717Y-101038268D01*
X133644744Y-101036244D01*
X133641866Y-101018077D01*
X133639542Y-100986056D01*
X133638205Y-100945498D01*
X133636793Y-100858828D01*
X133561518Y-100855769D01*
X133486242Y-100852710D01*
X133483219Y-100944507D01*
X133480196Y-101036304D01*
X132733750Y-101041524D01*
X132654971Y-101042064D01*
X132520639Y-101042907D01*
X132405059Y-101043497D01*
X132306835Y-101043816D01*
X132224579Y-101043846D01*
X132156893Y-101043568D01*
X132102386Y-101042964D01*
X132059663Y-101042014D01*
X132027334Y-101040702D01*
X132004003Y-101039008D01*
X131988279Y-101036912D01*
X131978766Y-101034398D01*
X131974072Y-101031447D01*
X131969794Y-101021581D01*
X131966501Y-101000908D01*
X131964321Y-100967603D01*
X131963172Y-100919609D01*
X131962970Y-100854866D01*
X131963634Y-100771317D01*
X131964564Y-100706814D01*
X131966401Y-100634563D01*
X131969078Y-100581034D01*
X131972815Y-100544976D01*
X131977834Y-100525140D01*
X131984357Y-100520276D01*
X131992606Y-100529132D01*
X132002803Y-100550460D01*
X132003550Y-100552226D01*
X132032988Y-100597467D01*
X132079312Y-100639514D01*
X132138683Y-100674851D01*
X132196103Y-100702231D01*
X132801609Y-100702231D01*
X132843308Y-100702221D01*
X132975303Y-100702036D01*
X133088108Y-100701593D01*
X133183033Y-100700865D01*
X133261390Y-100699827D01*
X133324490Y-100698451D01*
X133373643Y-100696710D01*
X133410160Y-100694578D01*
X133435354Y-100692029D01*
X133450534Y-100689035D01*
X133457343Y-100686830D01*
X133516002Y-100656324D01*
X133568858Y-100608287D01*
X133612622Y-100545634D01*
X133647233Y-100482995D01*
X133647233Y-100331618D01*
X133647226Y-100315741D01*
X133646883Y-100260104D01*
X133645564Y-100219752D01*
X133642643Y-100190160D01*
X133637491Y-100166802D01*
X133629483Y-100145154D01*
X133617990Y-100120692D01*
X133583624Y-100065555D01*
X133529848Y-100013433D01*
X133463109Y-99977581D01*
X133383807Y-99958275D01*
X133358160Y-99956382D01*
X133314610Y-99954854D01*
X133256984Y-99953787D01*
X133188724Y-99953224D01*
X133113268Y-99953210D01*
X133034059Y-99953789D01*
X132744519Y-99957011D01*
X132741745Y-100246103D01*
X132738971Y-100535194D01*
X132483196Y-100535194D01*
X132448637Y-100535189D01*
X132376639Y-100535050D01*
X132321632Y-100534547D01*
X132280846Y-100533448D01*
X132251514Y-100531521D01*
X132230865Y-100528533D01*
X132216133Y-100524252D01*
X132204546Y-100518445D01*
X132193335Y-100510882D01*
X132190005Y-100508414D01*
X132162770Y-100482452D01*
X132142603Y-100454380D01*
X132139079Y-100446970D01*
X132125985Y-100402276D01*
X132120229Y-100349193D01*
X132121414Y-100293439D01*
X132129140Y-100240727D01*
X132143009Y-100196770D01*
X132162623Y-100167283D01*
X132171148Y-100159751D01*
X132195672Y-100141681D01*
X132222487Y-100129181D01*
X132256240Y-100120979D01*
X132301575Y-100115804D01*
X132363139Y-100112383D01*
X132488417Y-100107163D01*
X132488417Y-100028865D01*
X132488417Y-99950566D01*
X132357919Y-99951018D01*
X132330528Y-99951414D01*
X132236680Y-99958682D01*
X132159643Y-99975586D01*
X132097721Y-100002815D01*
X132049219Y-100041054D01*
X132012440Y-100090991D01*
X132004260Y-100104339D01*
X131988558Y-100123911D01*
X131977445Y-100129985D01*
X131976800Y-100129407D01*
X131973438Y-100114984D01*
X131970308Y-100084288D01*
X131967515Y-100041196D01*
X131965164Y-99989588D01*
X131963361Y-99933344D01*
X131962211Y-99876343D01*
X131961819Y-99822464D01*
X131962292Y-99775583D01*
X131963735Y-99739584D01*
X131966253Y-99718343D01*
X131972014Y-99694916D01*
X132803749Y-99692243D01*
X133635485Y-99689571D01*
X133639298Y-99617449D01*
X133640394Y-99588424D01*
X133638235Y-99556044D01*
X133628782Y-99537845D01*
X133609226Y-99529809D01*
X133576764Y-99527915D01*
X133566352Y-99527619D01*
X133545199Y-99522983D01*
X133539058Y-99510777D01*
X133547737Y-99488495D01*
X133571043Y-99453633D01*
X133610632Y-99389339D01*
X133641565Y-99307702D01*
X133652147Y-99225001D01*
X133652120Y-99215044D01*
X133648283Y-99154693D01*
X133636353Y-99107068D01*
X133613944Y-99065643D01*
X133578673Y-99023892D01*
X133576689Y-99021827D01*
X133551668Y-98994722D01*
X133533920Y-98973554D01*
X133527175Y-98962753D01*
X133527181Y-98962608D01*
X133532828Y-98950127D01*
X133547027Y-98925630D01*
X133566793Y-98894276D01*
X133568400Y-98891808D01*
X133602393Y-98836579D01*
X133625164Y-98790472D01*
X133638813Y-98746863D01*
X133645436Y-98699127D01*
X133647134Y-98640641D01*
X133644727Y-98578916D01*
X133635427Y-98528267D01*
X133616553Y-98486776D01*
X133585424Y-98448667D01*
X133539362Y-98408160D01*
X133516666Y-98389963D01*
X133552015Y-98340302D01*
X133580123Y-98298590D01*
X133616674Y-98231795D01*
X133639102Y-98168245D01*
X133649543Y-98102740D01*
X133650171Y-98093796D01*
X133650278Y-98021346D01*
X133639237Y-97962149D01*
X133615618Y-97911415D01*
X133577977Y-97864353D01*
X133576712Y-97863038D01*
X133551708Y-97835773D01*
X133533938Y-97814063D01*
X133527175Y-97802502D01*
X133527653Y-97800092D01*
X133536252Y-97783430D01*
X133552226Y-97760124D01*
X133568762Y-97735568D01*
X133590724Y-97698922D01*
X133612255Y-97659674D01*
X133613163Y-97657926D01*
X133629008Y-97625904D01*
X133638995Y-97599453D01*
X133644467Y-97571963D01*
X133646765Y-97536821D01*
X133647233Y-97487417D01*
X133646918Y-97446107D01*
X133645064Y-97408784D01*
X133640594Y-97381792D01*
X133632442Y-97359280D01*
X133619544Y-97335400D01*
X133600853Y-97307428D01*
X133554848Y-97262231D01*
X133496908Y-97232801D01*
X133489062Y-97231063D01*
X133466714Y-97228700D01*
X133430994Y-97226671D01*
X133380964Y-97224961D01*
X133315685Y-97223554D01*
X133234219Y-97222437D01*
X133135628Y-97221594D01*
X133018973Y-97221011D01*
X132883316Y-97220672D01*
X132727719Y-97220562D01*
X132714029Y-97220562D01*
X132573456Y-97220522D01*
X132452180Y-97220390D01*
X132348752Y-97220135D01*
X132261720Y-97219721D01*
X132189635Y-97219117D01*
X132131043Y-97218290D01*
X132084496Y-97217205D01*
X132048544Y-97215831D01*
X132021734Y-97214135D01*
X132002617Y-97212082D01*
X131989742Y-97209640D01*
X131981658Y-97206777D01*
X131976914Y-97203458D01*
X131971648Y-97196671D01*
X131966733Y-97183739D01*
X131963673Y-97163041D01*
X131962215Y-97131300D01*
X131962113Y-97085246D01*
X131963119Y-97021603D01*
X131963272Y-97014202D01*
X131965323Y-96945165D01*
X131968298Y-96895420D01*
X131972484Y-96863523D01*
X131978168Y-96848029D01*
X131985637Y-96847496D01*
X131995180Y-96860476D01*
X132022612Y-96895997D01*
X132068847Y-96931198D01*
X132124506Y-96955228D01*
X132133138Y-96957574D01*
X132157350Y-96962481D01*
X132187194Y-96965959D01*
X132225715Y-96968142D01*
X132275963Y-96969160D01*
X132340982Y-96969147D01*
X132423820Y-96968236D01*
X132433736Y-96968093D01*
X132509065Y-96966924D01*
X132566924Y-96965644D01*
X132610370Y-96963938D01*
X132642462Y-96961494D01*
X132666254Y-96957999D01*
X132684805Y-96953141D01*
X132701172Y-96946606D01*
X132718411Y-96938081D01*
X132731223Y-96931203D01*
X132759310Y-96913178D01*
X132784301Y-96891378D01*
X132807547Y-96863502D01*
X132830400Y-96827248D01*
X132854210Y-96780312D01*
X132880333Y-96720397D01*
X132910117Y-96645198D01*
X132944914Y-96552416D01*
X133000758Y-96401039D01*
X133188278Y-96398319D01*
X133200390Y-96398153D01*
X133274771Y-96397804D01*
X133331899Y-96399415D01*
X133374923Y-96403696D01*
X133406993Y-96411361D01*
X133431258Y-96423120D01*
X133450867Y-96439687D01*
X133468969Y-96461772D01*
X133474628Y-96471085D01*
X133487346Y-96508886D01*
X133494522Y-96557582D01*
X133495845Y-96610243D01*
X133491001Y-96659934D01*
X133479680Y-96699718D01*
X133463705Y-96729207D01*
X133442219Y-96753207D01*
X133413215Y-96770074D01*
X133373375Y-96781116D01*
X133319380Y-96787637D01*
X133247911Y-96790945D01*
X133109584Y-96794579D01*
X133109584Y-96871853D01*
X133109583Y-96949128D01*
X133251118Y-96949128D01*
X133258251Y-96949114D01*
X133314843Y-96948077D01*
X133367262Y-96945636D01*
X133409941Y-96942125D01*
X133437311Y-96937882D01*
X133469607Y-96926742D01*
X133526636Y-96892807D01*
X133577112Y-96844982D01*
X133615728Y-96787729D01*
X133617668Y-96783928D01*
X133629794Y-96758950D01*
X133638042Y-96737054D01*
X133643149Y-96713449D01*
X133645852Y-96683342D01*
X133646889Y-96641940D01*
X133646994Y-96584452D01*
X133646700Y-96530530D01*
X133645526Y-96487682D01*
X133642805Y-96456762D01*
X133637861Y-96433106D01*
X133630015Y-96412053D01*
X133618591Y-96388938D01*
X133611778Y-96376842D01*
X133571362Y-96324502D01*
X133519867Y-96279570D01*
X133464537Y-96248643D01*
X133462870Y-96248034D01*
X133450634Y-96245160D01*
X133431094Y-96242618D01*
X133402886Y-96240373D01*
X133364657Y-96238389D01*
X133315050Y-96236631D01*
X133252704Y-96235065D01*
X133176266Y-96233654D01*
X133084377Y-96232363D01*
X132975679Y-96231159D01*
X132848817Y-96230004D01*
X132702432Y-96228864D01*
X131976867Y-96223562D01*
X131977844Y-96186822D01*
X131978034Y-96182216D01*
X131991159Y-96125205D01*
X132022548Y-96070773D01*
X132069799Y-96022136D01*
X132130507Y-95982510D01*
X132179749Y-95957348D01*
X132947767Y-95957348D01*
X133715786Y-95957349D01*
G37*
%TD*%
M02*
