%TF.GenerationSoftware,KiCad,Pcbnew,10.0.0*%
%TF.CreationDate,2026-09-03T10:59:32-04:00*%
%TF.ProjectId,ClockGen_Si5351X_QFN16,436c6f63-6b47-4656-9e5f-536935333531,rev?*%
%TF.SameCoordinates,PX7654f80PY738b970*%
%TF.FileFunction,Soldermask,Bot*%
%TF.FilePolarity,Negative*%
%FSLAX46Y46*%
G04 Gerber Fmt 4.6, Leading zero omitted, Abs format (unit mm)*
G04 Created by KiCad (PCBNEW 10.0.0) date 2026-09-03 10:59:32*
%MOMM*%
%LPD*%
G01*
G04 APERTURE LIST*
G04 Aperture macros list*
%AMRoundRect*
0 Rectangle with rounded corners*
0 $1 Rounding radius*
0 $2 $3 $4 $5 $6 $7 $8 $9 X,Y pos of 4 corners*
0 Add a 4 corners polygon primitive as box body*
4,1,4,$2,$3,$4,$5,$6,$7,$8,$9,$2,$3,0*
0 Add four circle primitives for the rounded corners*
1,1,$1+$1,$2,$3*
1,1,$1+$1,$4,$5*
1,1,$1+$1,$6,$7*
1,1,$1+$1,$8,$9*
0 Add four rect primitives between the rounded corners*
20,1,$1+$1,$2,$3,$4,$5,0*
20,1,$1+$1,$4,$5,$6,$7,0*
20,1,$1+$1,$6,$7,$8,$9,0*
20,1,$1+$1,$8,$9,$2,$3,0*%
G04 Aperture macros list end*
%ADD10C,2.950379*%
%ADD11C,1.497231*%
%ADD12C,2.000000*%
%ADD13C,4.500000*%
%ADD14C,1.100000*%
%ADD15RoundRect,0.249999X-0.850001X0.850001X-0.850001X-0.850001X0.850001X-0.850001X0.850001X0.850001X0*%
%ADD16C,2.200000*%
%ADD17O,1.500000X2.500000*%
%ADD18O,2.200000X3.500000*%
%ADD19C,1.700000*%
%ADD20C,2.100000*%
%ADD21C,3.700000*%
G04 APERTURE END LIST*
D10*
X20905189Y31750000D02*
G75*
G02*
X17954811Y31750000I-1475189J0D01*
G01*
X17954811Y31750000D02*
G75*
G02*
X20905189Y31750000I1475189J0D01*
G01*
X20905189Y6350000D02*
G75*
G02*
X17954811Y6350000I-1475189J0D01*
G01*
X17954811Y6350000D02*
G75*
G02*
X20905189Y6350000I1475189J0D01*
G01*
D11*
X30338615Y31750000D02*
G75*
G02*
X28841385Y31750000I-748615J0D01*
G01*
X28841385Y31750000D02*
G75*
G02*
X30338615Y31750000I748615J0D01*
G01*
X30338615Y6350000D02*
G75*
G02*
X28841385Y6350000I-748615J0D01*
G01*
X28841385Y6350000D02*
G75*
G02*
X30338615Y6350000I748615J0D01*
G01*
X37949678Y6351045D02*
G75*
G02*
X36452448Y6351045I-748615J0D01*
G01*
X36452448Y6351045D02*
G75*
G02*
X37949678Y6351045I748615J0D01*
G01*
X37958615Y31750000D02*
G75*
G02*
X36461385Y31750000I-748615J0D01*
G01*
X36461385Y31750000D02*
G75*
G02*
X37958615Y31750000I748615J0D01*
G01*
X37958615Y19050000D02*
G75*
G02*
X36461385Y19050000I-748615J0D01*
G01*
X36461385Y19050000D02*
G75*
G02*
X37958615Y19050000I748615J0D01*
G01*
D10*
X48845189Y31750000D02*
G75*
G02*
X45894811Y31750000I-1475189J0D01*
G01*
X45894811Y31750000D02*
G75*
G02*
X48845189Y31750000I1475189J0D01*
G01*
X48845189Y19050000D02*
G75*
G02*
X45894811Y19050000I-1475189J0D01*
G01*
X45894811Y19050000D02*
G75*
G02*
X48845189Y19050000I1475189J0D01*
G01*
X48845189Y6350000D02*
G75*
G02*
X45894811Y6350000I-1475189J0D01*
G01*
X45894811Y6350000D02*
G75*
G02*
X48845189Y6350000I1475189J0D01*
G01*
D12*
X19430000Y6350000D03*
X16890000Y3810000D03*
X21970000Y3810000D03*
X16890000Y8890000D03*
X21970000Y8890000D03*
X47370000Y31750000D03*
X49910000Y34290000D03*
X44830000Y34290000D03*
X49910000Y29210000D03*
X44830000Y29210000D03*
D13*
X63752000Y3048000D03*
D12*
X19430000Y31750000D03*
X16890000Y29210000D03*
X21970000Y29210000D03*
X16890000Y34290000D03*
X21970000Y34290000D03*
D13*
X63752000Y35052000D03*
D12*
X47370000Y19050000D03*
X49910000Y21590000D03*
X44830000Y21590000D03*
X49910000Y16510000D03*
X44830000Y16510000D03*
D13*
X3048000Y3048000D03*
D14*
X7923800Y16524529D03*
X7923800Y13984529D03*
D15*
X10463800Y16524529D03*
D16*
X10463800Y13984529D03*
D12*
X47370000Y6350000D03*
X49910000Y8890000D03*
X44830000Y8890000D03*
X49910000Y3810000D03*
X44830000Y3810000D03*
D13*
X3048000Y35052000D03*
D17*
X31400000Y35897500D03*
X33400000Y35897500D03*
X35400000Y35897500D03*
D18*
X29300000Y35897500D03*
X37500000Y35897500D03*
D19*
X42290000Y19050000D03*
X39750000Y19050000D03*
X37210001Y19050000D03*
X42290000Y31750000D03*
X39750000Y31750000D03*
X37210001Y31750000D03*
D20*
X12826000Y5080000D03*
X10286000Y5080000D03*
X12826000Y2540000D03*
X10286000Y2540000D03*
D19*
X42290000Y6350000D03*
X39750000Y6350000D03*
X37210001Y6350000D03*
X24510000Y6350000D03*
X27050000Y6350000D03*
X29589999Y6350000D03*
X24510000Y31750000D03*
X27050000Y31750000D03*
X29589999Y31750000D03*
D20*
X56514000Y35565000D03*
X53974000Y35565000D03*
X56514000Y33025000D03*
X53974000Y33025000D03*
D21*
X29590000Y6350000D02*
X19430000Y6350000D01*
X29589999Y31750000D02*
X19430000Y31750000D01*
X47370000Y31750000D02*
X37210001Y31750000D01*
X47369999Y19050000D02*
X37210000Y19050000D01*
X47369999Y6350000D02*
X37210000Y6350000D01*
M02*
