%TF.GenerationSoftware,KiCad,Pcbnew,10.0.0*%
%TF.CreationDate,2026-09-03T10:59:32-04:00*%
%TF.ProjectId,ClockGen_Si5351X_QFN16,436c6f63-6b47-4656-9e5f-536935333531,rev?*%
%TF.SameCoordinates,PX7654f80PY738b970*%
%TF.FileFunction,Soldermask,Top*%
%TF.FilePolarity,Negative*%
%FSLAX46Y46*%
G04 Gerber Fmt 4.6, Leading zero omitted, Abs format (unit mm)*
G04 Created by KiCad (PCBNEW 10.0.0) date 2026-09-03 10:59:32*
%MOMM*%
%LPD*%
G01*
G04 APERTURE LIST*
G04 Aperture macros list*
%AMRoundRect*
0 Rectangle with rounded corners*
0 $1 Rounding radius*
0 $2 $3 $4 $5 $6 $7 $8 $9 X,Y pos of 4 corners*
0 Add a 4 corners polygon primitive as box body*
4,1,4,$2,$3,$4,$5,$6,$7,$8,$9,$2,$3,0*
0 Add four circle primitives for the rounded corners*
1,1,$1+$1,$2,$3*
1,1,$1+$1,$4,$5*
1,1,$1+$1,$6,$7*
1,1,$1+$1,$8,$9*
0 Add four rect primitives between the rounded corners*
20,1,$1+$1,$2,$3,$4,$5,0*
20,1,$1+$1,$4,$5,$6,$7,0*
20,1,$1+$1,$6,$7,$8,$9,0*
20,1,$1+$1,$8,$9,$2,$3,0*%
%AMRotRect*
0 Rectangle, with rotation*
0 The origin of the aperture is its center*
0 $1 length*
0 $2 width*
0 $3 Rotation angle, in degrees counterclockwise*
0 Add horizontal line*
21,1,$1,$2,0,0,$3*%
%AMFreePoly0*
4,1,10,0.249999,0.749999,0.250000,0.750000,0.750001,0.000000,0.250001,-0.750000,0.220001,-0.750000,0.220001,-0.749998,-0.500000,-0.750000,-0.500000,0.750000,0.249999,0.750000,0.249999,0.749999,0.249999,0.749999,$1*%
%AMFreePoly1*
4,1,16,0.090354,0.750354,0.090500,0.750000,0.090500,-0.750000,0.090354,-0.750354,0.090000,-0.750500,-0.810000,-0.750500,-0.810354,-0.750354,-0.810500,-0.750000,-0.810416,-0.749723,-0.310594,0.000000,-0.810416,0.749723,-0.810490,0.750098,-0.810277,0.750416,-0.810000,0.750500,0.090000,0.750500,0.090354,0.750354,0.090354,0.750354,$1*%
%AMFreePoly2*
4,1,6,0.750000,0.000000,0.250000,-0.750000,-0.500000,-0.750000,-0.500000,0.750000,0.249999,0.750000,0.750000,0.000000,0.750000,0.000000,$1*%
G04 Aperture macros list end*
%ADD10C,0.100000*%
%ADD11C,0.000000*%
%ADD12C,2.600000*%
%ADD13C,2.950000*%
%ADD14RoundRect,0.250000X-0.262500X-0.450000X0.262500X-0.450000X0.262500X0.450000X-0.262500X0.450000X0*%
%ADD15RoundRect,0.250000X0.250000X0.500000X-0.250000X0.500000X-0.250000X-0.500000X0.250000X-0.500000X0*%
%ADD16RoundRect,0.200000X-0.200000X-0.300000X0.200000X-0.300000X0.200000X0.300000X-0.200000X0.300000X0*%
%ADD17C,2.000000*%
%ADD18RoundRect,0.087500X0.087500X-0.250000X0.087500X0.250000X-0.087500X0.250000X-0.087500X-0.250000X0*%
%ADD19RoundRect,0.150000X-0.150000X-0.200000X0.150000X-0.200000X0.150000X0.200000X-0.150000X0.200000X0*%
%ADD20RoundRect,0.050000X-0.300000X0.150000X-0.300000X-0.150000X0.300000X-0.150000X0.300000X0.150000X0*%
%ADD21RoundRect,0.150000X0.150000X0.200000X-0.150000X0.200000X-0.150000X-0.200000X0.150000X-0.200000X0*%
%ADD22RoundRect,0.200000X-0.300000X0.200000X-0.300000X-0.200000X0.300000X-0.200000X0.300000X0.200000X0*%
%ADD23RoundRect,0.150000X-0.200000X0.150000X-0.200000X-0.150000X0.200000X-0.150000X0.200000X0.150000X0*%
%ADD24R,1.000000X0.200000*%
%ADD25RoundRect,0.050000X0.285000X0.100000X-0.285000X0.100000X-0.285000X-0.100000X0.285000X-0.100000X0*%
%ADD26RoundRect,0.200000X0.300000X-0.200000X0.300000X0.200000X-0.300000X0.200000X-0.300000X-0.200000X0*%
%ADD27RoundRect,0.150000X0.200000X-0.150000X0.200000X0.150000X-0.200000X0.150000X-0.200000X-0.150000X0*%
%ADD28C,4.500000*%
%ADD29RoundRect,0.150000X-0.512500X-0.150000X0.512500X-0.150000X0.512500X0.150000X-0.512500X0.150000X0*%
%ADD30RoundRect,0.062500X-0.238649X0.150260X0.150260X-0.238649X0.238649X-0.150260X-0.150260X0.238649X0*%
%ADD31RoundRect,0.062500X-0.238649X-0.150260X-0.150260X-0.238649X0.238649X0.150260X0.150260X0.238649X0*%
%ADD32RotRect,1.900000X1.900000X315.000000*%
%ADD33RoundRect,0.150000X0.035355X-0.247487X0.247487X-0.035355X-0.035355X0.247487X-0.247487X0.035355X0*%
%ADD34R,0.200000X1.000000*%
%ADD35R,0.500000X0.700000*%
%ADD36RoundRect,0.152500X-0.152500X0.297500X-0.152500X-0.297500X0.152500X-0.297500X0.152500X0.297500X0*%
%ADD37RoundRect,0.132500X-0.132500X0.317500X-0.132500X-0.317500X0.132500X-0.317500X0.132500X0.317500X0*%
%ADD38RoundRect,0.062500X-0.062500X-0.112500X0.062500X-0.112500X0.062500X0.112500X-0.062500X0.112500X0*%
%ADD39RoundRect,0.062500X0.035355X-0.123744X0.123744X-0.035355X-0.035355X0.123744X-0.123744X0.035355X0*%
%ADD40RoundRect,0.150000X-0.035355X0.247487X-0.247487X0.035355X0.035355X-0.247487X0.247487X-0.035355X0*%
%ADD41RoundRect,0.250000X-0.530330X-0.176777X-0.176777X-0.530330X0.530330X0.176777X0.176777X0.530330X0*%
%ADD42FreePoly0,0.000000*%
%ADD43FreePoly1,0.000000*%
%ADD44FreePoly1,180.000000*%
%ADD45FreePoly2,180.000000*%
%ADD46R,1.400000X1.200000*%
%ADD47RoundRect,0.062500X0.112500X-0.062500X0.112500X0.062500X-0.112500X0.062500X-0.112500X-0.062500X0*%
%ADD48RoundRect,0.150000X-0.247487X-0.035355X-0.035355X-0.247487X0.247487X0.035355X0.035355X0.247487X0*%
%ADD49RoundRect,0.087500X-0.250000X-0.087500X0.250000X-0.087500X0.250000X0.087500X-0.250000X0.087500X0*%
%ADD50RoundRect,0.625000X-0.625000X-0.725000X0.625000X-0.725000X0.625000X0.725000X-0.625000X0.725000X0*%
%ADD51FreePoly0,180.000000*%
%ADD52FreePoly2,0.000000*%
%ADD53RoundRect,0.062500X-0.112500X0.062500X-0.112500X-0.062500X0.112500X-0.062500X0.112500X0.062500X0*%
%ADD54RoundRect,0.062500X-0.035355X0.123744X-0.123744X0.035355X0.035355X-0.123744X0.123744X-0.035355X0*%
%ADD55C,1.100000*%
%ADD56RoundRect,0.249999X-0.850001X0.850001X-0.850001X-0.850001X0.850001X-0.850001X0.850001X0.850001X0*%
%ADD57C,2.200000*%
%ADD58RoundRect,0.062500X-0.123744X-0.035355X-0.035355X-0.123744X0.123744X0.035355X0.035355X0.123744X0*%
%ADD59RoundRect,0.150000X-0.625000X0.150000X-0.625000X-0.150000X0.625000X-0.150000X0.625000X0.150000X0*%
%ADD60RoundRect,0.250000X-0.595000X0.350000X-0.595000X-0.350000X0.595000X-0.350000X0.595000X0.350000X0*%
%ADD61RoundRect,0.200000X0.200000X0.300000X-0.200000X0.300000X-0.200000X-0.300000X0.200000X-0.300000X0*%
%ADD62O,1.500000X2.500000*%
%ADD63O,2.200000X3.500000*%
%ADD64R,0.600000X0.800000*%
%ADD65C,1.700000*%
%ADD66C,2.100000*%
%ADD67C,0.700000*%
%ADD68C,2.048700*%
%ADD69C,1.948700*%
G04 APERTURE END LIST*
D10*
X44702964Y27024840D02*
X44702884Y26784796D01*
X43085820Y26785532D01*
X43040098Y26831920D01*
X43040232Y27026346D01*
X44702964Y27024840D01*
G36*
X44702964Y27024840D02*
G01*
X44702884Y26784796D01*
X43085820Y26785532D01*
X43040098Y26831920D01*
X43040232Y27026346D01*
X44702964Y27024840D01*
G37*
D11*
G36*
X48400798Y28420542D02*
G01*
X46347104Y28418212D01*
X46346622Y31750000D01*
X48396307Y31752762D01*
X48400798Y28420542D01*
G37*
G36*
X49910000Y18034000D02*
G01*
X46578212Y18033518D01*
X46575450Y20083203D01*
X49907669Y20087694D01*
X49910000Y18034000D01*
G37*
G36*
X33831800Y13411200D02*
G01*
X33831800Y5181600D01*
X32968200Y5181600D01*
X32968200Y11861800D01*
X28294600Y16535400D01*
X30707600Y16535400D01*
X33831800Y13411200D01*
G37*
G36*
X32106637Y17499657D02*
G01*
X34416000Y15163800D01*
X35559000Y12293600D01*
X35574735Y4986154D01*
X35762200Y4986558D01*
X35762200Y4192632D01*
X35433672Y4192650D01*
X35027697Y3786717D01*
X34491217Y3788124D01*
X34493190Y4495012D01*
X33628496Y4495934D01*
X33627004Y13207803D01*
X30707436Y16130747D01*
X30707815Y16536837D01*
X31675134Y17500088D01*
X32106637Y17499657D01*
G37*
G36*
X27558004Y17525996D02*
G01*
X32770631Y12313369D01*
X33171401Y11345828D01*
X33171403Y4493822D01*
X32895974Y4493990D01*
X34517847Y4492852D01*
X34517340Y3792860D01*
X31776828Y3785888D01*
X31363515Y4194392D01*
X31212260Y4194383D01*
X31063200Y4986752D01*
X31212570Y4986762D01*
X31215012Y11100157D01*
X26160988Y16141961D01*
X26161014Y16541784D01*
X27157131Y17526004D01*
X27558004Y17525996D01*
G37*
G36*
X48395292Y30241328D02*
G01*
X48400798Y28420542D01*
X46347104Y28418212D01*
X46346622Y30241678D01*
X47370957Y30241503D01*
X47545106Y30250053D01*
X47724253Y30279308D01*
X47949093Y30351747D01*
X48033929Y30395070D01*
X48116956Y30437698D01*
X48161486Y30460544D01*
X48219159Y30501291D01*
X48258652Y30530754D01*
X48297519Y30559590D01*
X48352057Y30597830D01*
X48394058Y30640458D01*
X48395292Y30241328D01*
G37*
G36*
X50217028Y20073825D02*
G01*
X50215786Y18025549D01*
X48478823Y18026153D01*
X48518943Y18063766D01*
X48564914Y18127707D01*
X48613393Y18194574D01*
X48660618Y18258933D01*
X48697486Y18332950D01*
X48743039Y18421548D01*
X48766025Y18465848D01*
X48786085Y18526028D01*
X48804891Y18586208D01*
X48821190Y18635104D01*
X48842086Y18697374D01*
X48852952Y18767167D01*
X48863400Y18834869D01*
X48869251Y18874989D01*
X48879698Y18934334D01*
X48880116Y18992006D01*
X48879698Y19063888D01*
X48879698Y19168786D01*
X48870086Y19228548D01*
X48857131Y19312132D01*
X48840832Y19400730D01*
X48809070Y19502284D01*
X48779816Y19592555D01*
X48768950Y19628914D01*
X48740114Y19682825D01*
X48707934Y19744677D01*
X48690382Y19782421D01*
X48672411Y19819198D01*
X48658620Y19842184D01*
X48614320Y19902782D01*
X48565842Y19970902D01*
X48525722Y20025650D01*
X48512348Y20042366D01*
X48479333Y20074546D01*
X50217028Y20073825D01*
G37*
G36*
X34521098Y19383329D02*
G01*
X34619134Y19267564D01*
X34699439Y19169528D01*
X34731620Y19136042D01*
X34764496Y19091186D01*
X34792636Y19060260D01*
X34826348Y19023483D01*
X34879006Y18967760D01*
X34922469Y18924576D01*
X34961196Y18885849D01*
X35027227Y18819539D01*
X35101338Y18746264D01*
X35161240Y18685805D01*
X35237301Y18610301D01*
X35299988Y18547335D01*
X33349200Y17602200D01*
X33183658Y17788429D01*
X33134135Y17854251D01*
X33058909Y17953298D01*
X33011894Y18019120D01*
X32959236Y18101867D01*
X32900310Y18202168D01*
X32864578Y18260467D01*
X32822577Y18343215D01*
X32787472Y18418440D01*
X32744844Y18508084D01*
X32709739Y18592085D01*
X32689679Y18652892D01*
X32665231Y18718088D01*
X32641409Y18784537D01*
X32623857Y18835941D01*
X32609439Y18892360D01*
X32593140Y18958182D01*
X32577468Y19024004D01*
X32564303Y19081050D01*
X32550512Y19138095D01*
X32530452Y19211440D01*
X32517914Y19282277D01*
X32511000Y19405600D01*
X32822087Y19716832D01*
X34223912Y19717474D01*
X34521098Y19383329D01*
G37*
G36*
X46581255Y26064073D02*
G01*
X47289412Y25937486D01*
X47160183Y25819530D01*
X47065211Y25739603D01*
X46990589Y25683815D01*
X46897812Y25617366D01*
X46845990Y25576828D01*
X46789153Y25542976D01*
X46736495Y25511632D01*
X46685927Y25480706D01*
X46612791Y25436825D01*
X46534641Y25392944D01*
X46459833Y25359092D01*
X46365802Y25312703D01*
X46254636Y25265061D01*
X46105857Y25209896D01*
X45972541Y25166432D01*
X45812060Y25123804D01*
X45669132Y25089953D01*
X45564653Y25074490D01*
X45465188Y25060281D01*
X45381187Y25048161D01*
X45300111Y25041057D01*
X45203990Y25036042D01*
X45113301Y25032280D01*
X45036404Y25030609D01*
X44968702Y25030609D01*
X44834783Y25031027D01*
X44771244Y25030284D01*
X44720328Y25032659D01*
X44720338Y25032652D01*
X44714336Y25032950D01*
X44702861Y26737021D01*
X44588034Y26737321D01*
X44557735Y26741975D01*
X44547377Y26745401D01*
X44543626Y26746624D01*
X44538800Y26748189D01*
X44534397Y26749592D01*
X44529983Y26752350D01*
X44521300Y26757658D01*
X44511712Y26763504D01*
X44503269Y26768665D01*
X44494969Y26773786D01*
X44489151Y26779608D01*
X44471124Y26797715D01*
X44460942Y26807897D01*
X44452684Y26815852D01*
X44447236Y26819196D01*
X44414050Y26839380D01*
X44366393Y26868556D01*
X44305098Y26905612D01*
X44226065Y26929918D01*
X44139964Y26956499D01*
X44070183Y26962564D01*
X43982977Y26962773D01*
X43214095Y26963362D01*
X43090848Y26963510D01*
X43032729Y26982415D01*
X42997072Y27031874D01*
X42992470Y27062469D01*
X42992510Y27078640D01*
X44499800Y27076381D01*
X44626800Y27076191D01*
X44943785Y27078800D01*
X45164488Y27086360D01*
X45287358Y27106613D01*
X45411579Y27137668D01*
X45558753Y27191677D01*
X45664070Y27248387D01*
X45778839Y27332100D01*
X45861203Y27406362D01*
X45950317Y27494127D01*
X46044833Y27596744D01*
X46581255Y26064073D01*
G37*
D12*
X20730000Y31750000D02*
G75*
G02*
X18130000Y31750000I-1300000J0D01*
G01*
X18130000Y31750000D02*
G75*
G02*
X20730000Y31750000I1300000J0D01*
G01*
D13*
X20905000Y31750000D02*
G75*
G02*
X17955000Y31750000I-1475000J0D01*
G01*
X17955000Y31750000D02*
G75*
G02*
X20905000Y31750000I1475000J0D01*
G01*
D12*
X20730000Y6350000D02*
G75*
G02*
X18130000Y6350000I-1300000J0D01*
G01*
X18130000Y6350000D02*
G75*
G02*
X20730000Y6350000I1300000J0D01*
G01*
D13*
X20905000Y6350000D02*
G75*
G02*
X17955000Y6350000I-1475000J0D01*
G01*
X17955000Y6350000D02*
G75*
G02*
X20905000Y6350000I1475000J0D01*
G01*
D10*
X36575000Y14648866D02*
X52475400Y14648866D01*
X52475400Y12395201D01*
X36575000Y12395201D01*
X36575000Y14648866D01*
G36*
X36575000Y14648866D02*
G01*
X52475400Y14648866D01*
X52475400Y12395201D01*
X36575000Y12395201D01*
X36575000Y14648866D01*
G37*
X36575184Y12598876D02*
X36989851Y12598876D01*
X36989851Y12065476D01*
X36575184Y12065476D01*
X36575184Y12598876D01*
G36*
X36575184Y12598876D02*
G01*
X36989851Y12598876D01*
X36989851Y12065476D01*
X36575184Y12065476D01*
X36575184Y12598876D01*
G37*
D13*
X48845000Y31750000D02*
G75*
G02*
X45895000Y31750000I-1475000J0D01*
G01*
X45895000Y31750000D02*
G75*
G02*
X48845000Y31750000I1475000J0D01*
G01*
X48845000Y19050000D02*
G75*
G02*
X45895000Y19050000I-1475000J0D01*
G01*
X45895000Y19050000D02*
G75*
G02*
X48845000Y19050000I1475000J0D01*
G01*
D12*
X48670000Y6350000D02*
G75*
G02*
X46070000Y6350000I-1300000J0D01*
G01*
X46070000Y6350000D02*
G75*
G02*
X48670000Y6350000I1300000J0D01*
G01*
D13*
X48845000Y6350000D02*
G75*
G02*
X45895000Y6350000I-1475000J0D01*
G01*
X45895000Y6350000D02*
G75*
G02*
X48845000Y6350000I1475000J0D01*
G01*
D10*
X50595800Y13335000D02*
X50595800Y13335000D01*
G75*
G02*
X50722800Y13462000I127000J0D01*
G01*
X52602400Y13462000D01*
G75*
G02*
X52729400Y13335000I0J-127000D01*
G01*
X52729400Y12183537D01*
G75*
G02*
X52602400Y12056537I-127000J-37D01*
G01*
X50722800Y12056537D01*
G75*
G02*
X50595800Y12183537I0J126963D01*
G01*
X50595800Y13335000D01*
G36*
X50595800Y13335000D02*
G01*
X50595800Y13335000D01*
G75*
G02*
X50722800Y13462000I127000J0D01*
G01*
X52602400Y13462000D01*
G75*
G02*
X52729400Y13335000I0J-127000D01*
G01*
X52729400Y12183537D01*
G75*
G02*
X52602400Y12056537I-127000J-37D01*
G01*
X50722800Y12056537D01*
G75*
G02*
X50595800Y12183537I0J126963D01*
G01*
X50595800Y13335000D01*
G37*
D14*
X9297300Y18923000D03*
X11122300Y18923000D03*
D15*
X14233199Y18923000D03*
X12333201Y18923000D03*
D16*
X35698000Y25954372D03*
X37198000Y25954372D03*
D17*
X19430000Y6350000D03*
X16890000Y3810000D03*
X21970000Y3810000D03*
X16890000Y8890000D03*
X21970000Y8890000D03*
D18*
X15749025Y22693483D03*
X16249025Y22693483D03*
X16749025Y22693483D03*
X16749025Y21268483D03*
X16249025Y21268483D03*
X15749025Y21268483D03*
D19*
X31477600Y31242000D03*
X32477600Y31242000D03*
D20*
X24840200Y34160814D03*
X24840200Y33460816D03*
D17*
X47370000Y31750000D03*
X49910000Y34290000D03*
X44830000Y34290000D03*
X49910000Y29210000D03*
X44830000Y29210000D03*
D21*
X16755000Y16730600D03*
X15755000Y16730600D03*
D22*
X45780600Y13450000D03*
D23*
X45778921Y13200001D03*
D24*
X45780600Y13155444D03*
X45780600Y12242954D03*
D23*
X45778921Y12200001D03*
D22*
X45780600Y11950000D03*
D25*
X24658361Y15527400D03*
X24658361Y16027400D03*
X24658361Y16527400D03*
X24658361Y17027400D03*
X23178361Y17027400D03*
X23178361Y16527400D03*
X23178361Y16027400D03*
X23178361Y15527400D03*
D26*
X26770600Y3086669D03*
D27*
X26772279Y3336668D03*
D24*
X26770600Y3381225D03*
X26770600Y4293715D03*
D27*
X26772279Y4336668D03*
D26*
X26770600Y4586669D03*
D28*
X63752000Y3048000D03*
D29*
X18571900Y17118499D03*
X18571900Y16168500D03*
X18571900Y15218501D03*
X20846900Y15218501D03*
X20846900Y17118499D03*
D20*
X13510076Y21254199D03*
X13510076Y20554201D03*
D30*
X27958631Y23399169D03*
X27605078Y23045616D03*
X27251524Y22692062D03*
X26897971Y22338509D03*
D31*
X26897971Y21260171D03*
X27251524Y20906618D03*
X27605078Y20553064D03*
X27958631Y20199511D03*
D30*
X29036969Y20199511D03*
X29390522Y20553064D03*
X29744076Y20906618D03*
X30097629Y21260171D03*
D31*
X30097629Y22338509D03*
X29744076Y22692062D03*
X29390522Y23045616D03*
X29036969Y23399169D03*
D32*
X28497800Y21799340D03*
D26*
X30768850Y3086669D03*
D27*
X30770529Y3336668D03*
D24*
X30768850Y3381225D03*
X30768850Y4293715D03*
D27*
X30770529Y4336668D03*
D26*
X30768850Y4586669D03*
D33*
X32536408Y24459826D03*
X33243514Y25166932D03*
D16*
X35948619Y1882595D03*
D19*
X36198618Y1880916D03*
D34*
X36243175Y1882595D03*
X37155665Y1882595D03*
D19*
X37198618Y1880916D03*
D16*
X37448619Y1882595D03*
D35*
X18708600Y11540001D03*
X19658600Y11540000D03*
X20608600Y11540001D03*
X20608600Y13859999D03*
X19658600Y13860000D03*
X18708600Y13859999D03*
D20*
X41959800Y34160814D03*
X41959800Y33460816D03*
D17*
X19430000Y31750000D03*
X16890000Y29210000D03*
X21970000Y29210000D03*
X16890000Y34290000D03*
X21970000Y34290000D03*
D36*
X17241000Y26513600D03*
D37*
X16401000Y26513600D03*
X15601000Y26513600D03*
D36*
X14761000Y26513600D03*
X14761000Y24743600D03*
D37*
X15601000Y24743600D03*
X16401000Y24743600D03*
D36*
X17241000Y24743600D03*
D22*
X40969200Y4593655D03*
X40969200Y3093655D03*
D26*
X39175199Y11950000D03*
X39175199Y13450000D03*
D38*
X16335600Y18821400D03*
X16885600Y18821400D03*
D35*
X17027200Y13859999D03*
X16077200Y13860000D03*
X15127200Y13859999D03*
X15127200Y11540001D03*
X16077200Y11540000D03*
X17027200Y11540001D03*
D22*
X48422200Y13450290D03*
D23*
X48420521Y13200291D03*
D24*
X48422200Y13155734D03*
X48422200Y12243244D03*
D23*
X48420521Y12200291D03*
D22*
X48422200Y11950290D03*
D39*
X29674657Y24464995D03*
X30063565Y24853903D03*
D40*
X13001753Y11631153D03*
X12294647Y10924047D03*
D26*
X42391600Y24554372D03*
D27*
X42393279Y24804371D03*
D24*
X42391600Y24848928D03*
X42391600Y25761418D03*
D27*
X42393279Y25804371D03*
D26*
X42391600Y26054372D03*
D16*
X35698000Y24658972D03*
D19*
X35947999Y24657293D03*
D34*
X35992556Y24658972D03*
X36905046Y24658972D03*
D19*
X36947999Y24657293D03*
D16*
X37198000Y24658972D03*
D40*
X31467553Y18158953D03*
X30760447Y17451847D03*
D22*
X36041600Y4586669D03*
X36041600Y3086669D03*
D41*
X27038196Y12867746D03*
X28381698Y11524244D03*
D42*
X20697599Y20805220D03*
D43*
X22307599Y20805220D03*
D44*
X23087601Y20805220D03*
D45*
X24697601Y20805220D03*
D22*
X43139000Y13450000D03*
D23*
X43137321Y13200001D03*
D24*
X43139000Y13155444D03*
X43139000Y12242954D03*
D23*
X43137321Y12200001D03*
D22*
X43139000Y11950000D03*
D20*
X41959800Y21457399D03*
X41959800Y20757401D03*
D46*
X26458800Y25918701D03*
X28758800Y25918701D03*
X28758800Y27768701D03*
X26458800Y27768701D03*
D23*
X33519800Y21313702D03*
X33519800Y20313702D03*
D22*
X40497400Y13450000D03*
D23*
X40495721Y13200001D03*
D24*
X40497400Y13155444D03*
X40497400Y12242954D03*
D23*
X40495721Y12200001D03*
D22*
X40497400Y11950000D03*
D26*
X47101400Y11950290D03*
X47101400Y13450290D03*
D47*
X24205200Y27893600D03*
X24205200Y28443600D03*
D48*
X25525445Y18158953D03*
X26232551Y17451847D03*
D26*
X43712400Y24554372D03*
D27*
X43714079Y24804371D03*
D24*
X43712400Y24848928D03*
X43712400Y25761418D03*
D27*
X43714079Y25804371D03*
D26*
X43712400Y26054372D03*
D49*
X15364700Y15909800D03*
X15364699Y15409800D03*
X15364700Y14909800D03*
X16789700Y14909800D03*
X16789701Y15409800D03*
X16789700Y15909800D03*
D16*
X50960366Y13349947D03*
D19*
X51210365Y13348268D03*
D34*
X51254922Y13349947D03*
X52167412Y13349947D03*
D19*
X52210365Y13348268D03*
D50*
X52460366Y13349947D03*
D51*
X24697601Y22798590D03*
D44*
X23087600Y22798590D03*
D43*
X22307600Y22798590D03*
D52*
X20697599Y22798590D03*
D22*
X38429200Y26054372D03*
D23*
X38427521Y25804373D03*
D24*
X38429200Y25759816D03*
X38429200Y24847326D03*
D23*
X38427521Y24804373D03*
D22*
X38429200Y24554372D03*
X39750000Y26054372D03*
D23*
X39748321Y25804373D03*
D24*
X39750000Y25759816D03*
X39750000Y24847326D03*
D23*
X39748321Y24804373D03*
D22*
X39750000Y24554372D03*
D28*
X63752000Y35052000D03*
D22*
X34466800Y26057372D03*
D23*
X34465121Y25807373D03*
D24*
X34466800Y25762816D03*
X34466800Y24850326D03*
D23*
X34465121Y24807373D03*
D22*
X34466800Y24557372D03*
D26*
X44459800Y11950000D03*
X44459800Y13450000D03*
D39*
X31122746Y19791247D03*
X31511654Y20180155D03*
D23*
X30275800Y27470701D03*
X30275800Y26470701D03*
D53*
X22167813Y15085122D03*
X22167813Y14535122D03*
D17*
X47370000Y19050000D03*
X49910000Y21590000D03*
X44830000Y21590000D03*
X49910000Y16510000D03*
X44830000Y16510000D03*
D33*
X31139408Y23062826D03*
X31846514Y23769932D03*
D38*
X17427800Y18821400D03*
X17977800Y18821400D03*
D28*
X3048000Y3048000D03*
D20*
X13510076Y22955999D03*
X13510076Y22256001D03*
D48*
X30050197Y19588234D03*
X30757303Y18881128D03*
D26*
X42298052Y3110554D03*
D27*
X42299731Y3360553D03*
D24*
X42298052Y3405110D03*
X42298052Y4317600D03*
D27*
X42299731Y4360553D03*
D26*
X42298052Y4610554D03*
D54*
X27837400Y19350399D03*
X27448492Y18961491D03*
D22*
X34717419Y3386384D03*
D23*
X34715740Y3136385D03*
D24*
X34717419Y3091828D03*
X34717419Y2179338D03*
D23*
X34715740Y2136385D03*
D22*
X34717419Y1886384D03*
D55*
X7923800Y16524529D03*
X7923800Y13984529D03*
D56*
X10463800Y16524529D03*
D57*
X10463800Y13984529D03*
D58*
X29158200Y19350399D03*
X29547108Y18961491D03*
D26*
X24510000Y3085154D03*
D27*
X24511679Y3335153D03*
D24*
X24510000Y3379710D03*
X24510000Y4292200D03*
D27*
X24511679Y4335153D03*
D26*
X24510000Y4585154D03*
D17*
X47370000Y6350000D03*
X49910000Y8890000D03*
X44830000Y8890000D03*
X49910000Y3810000D03*
X44830000Y3810000D03*
D28*
X3048000Y35052000D03*
D16*
X37030272Y23149979D03*
X38530272Y23149979D03*
D26*
X33396619Y3396180D03*
D27*
X33398298Y3646179D03*
D24*
X33396619Y3690736D03*
X33396619Y4603226D03*
D27*
X33398298Y4646179D03*
D26*
X33396619Y4896180D03*
D19*
X31477600Y29692600D03*
X32477600Y29692600D03*
D21*
X20591677Y26568400D03*
X19591679Y26568400D03*
D22*
X32075819Y3392869D03*
X32075819Y1892869D03*
D21*
X32477399Y28676600D03*
X31477399Y28676600D03*
X18153711Y18033917D03*
X16753711Y18033917D03*
D27*
X24941799Y25662000D03*
X24941799Y26662000D03*
D22*
X38403800Y4586669D03*
X38403800Y3086669D03*
D40*
X26951676Y19588234D03*
X26244570Y18881128D03*
D22*
X37855800Y13450000D03*
D23*
X37854121Y13200001D03*
D24*
X37855800Y13155444D03*
X37855800Y12242954D03*
D23*
X37854121Y12200001D03*
D22*
X37855800Y11950000D03*
D39*
X30084638Y24048792D03*
X30473546Y24437700D03*
D59*
X11778000Y24360000D03*
X11778000Y23360000D03*
X11778000Y22360000D03*
X11778000Y21360000D03*
D60*
X7903000Y25660000D03*
X7903000Y20060000D03*
D47*
X24764000Y27893600D03*
X24764000Y28443600D03*
D16*
X41193019Y1882595D03*
D19*
X41443018Y1880916D03*
D34*
X41487575Y1882595D03*
X42400065Y1882595D03*
D19*
X42443018Y1880916D03*
D16*
X42693019Y1882595D03*
D19*
X31487799Y21313701D03*
X32487799Y21313701D03*
D61*
X35865051Y23149979D03*
X34365051Y23149979D03*
D26*
X28367419Y3086669D03*
D27*
X28369098Y3336668D03*
D24*
X28367419Y3381225D03*
X28367419Y4293715D03*
D27*
X28369098Y4336668D03*
D26*
X28367419Y4586669D03*
D62*
X31400000Y35897500D03*
X33400000Y35897500D03*
X35400000Y35897500D03*
D63*
X29300000Y35897500D03*
X37500000Y35897500D03*
D61*
X28272927Y1880869D03*
X26772927Y1880869D03*
D22*
X41070800Y26054372D03*
X41070800Y24554372D03*
D64*
X24190216Y13837500D03*
X23240217Y13837500D03*
X22290218Y13837500D03*
X22290218Y11562500D03*
X24190216Y11562500D03*
D16*
X38564819Y1882595D03*
D19*
X38814818Y1880916D03*
D34*
X38859375Y1882595D03*
X39771865Y1882595D03*
D19*
X39814818Y1880916D03*
D16*
X40064819Y1882595D03*
D20*
X24840200Y8751798D03*
X24840200Y8051800D03*
D23*
X28497800Y18762600D03*
X28497800Y17762600D03*
D16*
X40891600Y27478372D03*
X42391600Y27478372D03*
D20*
X41959800Y8751798D03*
X41959800Y8051800D03*
D27*
X25526000Y13738160D03*
X25526000Y14738160D03*
D38*
X24158800Y10337800D03*
X24708800Y10337800D03*
D61*
X30870019Y1880869D03*
X29370019Y1880869D03*
D26*
X41818200Y11950000D03*
X41818200Y13450000D03*
X49743000Y11950290D03*
X49743000Y13450290D03*
D19*
X22359000Y26543000D03*
X23359000Y26543000D03*
D47*
X23519400Y9783400D03*
X23519400Y10333400D03*
D23*
X22071600Y16806800D03*
X22071600Y15806800D03*
D65*
X42290000Y19050000D03*
X39750000Y19050000D03*
X37210001Y19050000D03*
X42290000Y31750000D03*
X39750000Y31750000D03*
X37210001Y31750000D03*
D66*
X12826000Y5080000D03*
X10286000Y5080000D03*
X12826000Y2540000D03*
X10286000Y2540000D03*
D65*
X42290000Y6350000D03*
X39750000Y6350000D03*
X37210001Y6350000D03*
X24510000Y6350000D03*
X27050000Y6350000D03*
X29589999Y6350000D03*
X24510000Y31750000D03*
X27050000Y31750000D03*
X29589999Y31750000D03*
D66*
X56514000Y35565000D03*
X53974000Y35565000D03*
X56514000Y33025000D03*
X53974000Y33025000D03*
D67*
X24840680Y7852924D02*
X24840680Y6772784D01*
X24840200Y6705600D02*
X24840200Y7899400D01*
X24840200Y33299400D02*
X24840200Y31750000D01*
D68*
X46603523Y26698737D02*
X46725635Y26820849D01*
D67*
X41959800Y33261940D02*
X41959800Y32181800D01*
D68*
X46725635Y26820849D02*
G75*
G03*
X47370011Y28376484I-1555635J1555651D01*
G01*
X34105587Y18293613D02*
X36945997Y15453203D01*
X36945997Y15453203D02*
G75*
G02*
X37531781Y14038990I-1414197J-1414203D01*
G01*
D69*
X33711739Y14500555D02*
G75*
G02*
X34590438Y12379234I-2121339J-2121355D01*
G01*
D67*
X41959800Y20574000D02*
X41959800Y19481800D01*
D68*
X51874579Y18203021D02*
X51613386Y18464214D01*
X52460366Y13349947D02*
X52460366Y16788807D01*
D67*
X41961876Y20557078D02*
X41961876Y19476938D01*
D68*
X51613386Y18464214D02*
G75*
G03*
X50199173Y19049981I-1414186J-1414214D01*
G01*
X52460366Y16788807D02*
G75*
G03*
X51874569Y18203011I-1999966J-7D01*
G01*
D69*
X31324139Y12360259D02*
G75*
G02*
X32202841Y10238938I-2121339J-2121359D01*
G01*
D67*
X41960280Y7855482D02*
X41960280Y6775342D01*
X41959800Y6781800D02*
X41959800Y7848600D01*
M02*
