M48
; DRILL file KiCad 10.0.0 date 2026-09-03T10:59:36
; FORMAT={-:-/ absolute / metric / decimal}
; #@! TF.CreationDate,2026-09-03T10:59:36-04:00
; #@! TF.GenerationSoftware,Kicad,Pcbnew,10.0.0
; #@! TF.FileFunction,Plated,1,4,PTH
FMAT,2
METRIC
; #@! TA.AperFunction,Plated,PTH,ViaDrill
T1C0.300
; #@! TA.AperFunction,Plated,PTH,ComponentDrill
T2C0.300
; #@! TA.AperFunction,Plated,PTH,ComponentDrill
T3C0.800
; #@! TA.AperFunction,Plated,PTH,ComponentDrill
T4C1.000
; #@! TA.AperFunction,Plated,PTH,ComponentDrill
T5C1.100
; #@! TA.AperFunction,Plated,PTH,ComponentDrill
T6C1.350
; #@! TA.AperFunction,Plated,PTH,ComponentDrill
T7C1.500
; #@! TA.AperFunction,Plated,PTH,ComponentDrill
T8C2.700
%
G90
G05
T1
X10.515Y24.359
X12.191Y20.447
X12.927Y13.995
X12.928Y13.195
X12.928Y12.394
X13.436Y15.418
X13.728Y12.396
X13.728Y13.997
X13.73Y13.194
X14.227Y22.96
X14.756Y23.749
X14.756Y20.726
X14.909Y16.731
X15.595Y27.403
X15.645Y18.821
X15.874Y19.939
X16.077Y13.157
X16.235Y23.739
X16.9Y23.749
X17.169Y19.406
X17.347Y20.208
X17.827Y11.691
X17.83Y13.462
X17.83Y12.576
X18.795Y18.034
X19.544Y18.034
X19.659Y13.081
X19.659Y12.294
X19.709Y16.753
X19.709Y15.787
X19.735Y20.015
X20.294Y18.034
X20.383Y16.168
X20.421Y24.587
X21.043Y18.034
X21.259Y16.168
X21.284Y14.529
X21.31Y25.73
X21.792Y18.034
X22.605Y17.45
X23.239Y12.76
X23.239Y11.858
X23.239Y10.957
X23.926Y34.27
X23.926Y29.667
X23.927Y8.759
X24.154Y25.603
X24.172Y26.662
X24.841Y9.464
X24.842Y35.001
X24.942Y17.551
X24.993Y18.847
X25.299Y10.934
X25.369Y27.76
X25.704Y29.667
X25.704Y23.063
X25.742Y4.347
X25.755Y34.259
X25.777Y11.412
X25.932Y15.621
X25.958Y8.433
X26.11Y22.246
X26.11Y21.332
X26.254Y11.89
X26.289Y9.944
X26.442Y24.889
X26.642Y28.909
X26.766Y10.422
X26.974Y18.466
X27.244Y10.9
X27.28Y8.957
X27.482Y29.667
X27.566Y33.833
X27.606Y27.771
X27.683Y28.909
X27.71Y8.433
X27.758Y9.434
X27.799Y14.177
X27.868Y18.263
X28.236Y9.91
X28.441Y24.355
X28.497Y19.401
X28.498Y21.799
X28.75Y28.914
X28.751Y10.418
X28.76Y13.225
X29.139Y18.243
X29.26Y29.667
X29.28Y24.861
X29.368Y16.028
X29.483Y11.148
X29.561Y4.263
X29.565Y33.807
X29.565Y3.15
X29.59Y8.433
X29.928Y29.126
X30.022Y18.466
X30.073Y25.371
X30.174Y11.811
X30.377Y23.542
X30.499Y20.304
X30.513Y15.994
X30.606Y28.677
X30.781Y14.639
X30.86Y21.895
X30.98Y9.783
X30.98Y7.783
X31.063Y33.223
X31.114Y24.202
X31.114Y20.595
X31.19Y26.463
X31.237Y30.469
X31.673Y32.029
X31.9Y19.563
X31.927Y14.58
X32.195Y13.225
X32.504Y18.243
X32.511Y27.807
X33.121Y26.619
X33.172Y16.755
X33.341Y13.165
X33.375Y23.927
X33.4Y11.766
X33.4Y9.766
X33.4Y7.766
X33.4Y5.766
X33.4Y2.134
X33.403Y1.376
X33.781Y22.174
X34.238Y16.383
X34.586Y15.34
X35.034Y27.203
X35.102Y19.101
X35.127Y31.75
X35.61Y13.693
X35.711Y14.91
X35.729Y33.203
X35.737Y30.293
X35.813Y11.768
X35.813Y9.768
X35.813Y7.768
X35.864Y22.174
X36.101Y20.803
X36.296Y12.802
X37.029Y22.174
X37.125Y27.203
X37.185Y33.833
X37.185Y29.667
X37.185Y16.967
X37.21Y4.262
X37.21Y3.15
X37.854Y10.973
X38.074Y16.027
X38.192Y21.133
X38.658Y14.935
X39.174Y10.974
X39.217Y27.203
X39.276Y33.833
X39.276Y29.667
X39.276Y16.967
X39.394Y23.393
X39.699Y4.262
X39.699Y3.152
X40.283Y21.133
X40.749Y14.935
X40.893Y28.423
X41.045Y34.172
X41.045Y8.763
X41.045Y21.463
X41.151Y10.817
X41.367Y29.667
X41.367Y16.967
X41.486Y23.393
X41.96Y9.494
X41.96Y22.194
X41.961Y34.903
X42.84Y14.935
X42.874Y21.457
X42.874Y8.757
X42.876Y34.166
X43.138Y10.974
X43.306Y27.305
X43.467Y29.667
X43.467Y16.967
X43.577Y23.393
X44.459Y10.974
X44.855Y23.927
X45.397Y27.381
X45.871Y24.892
X46.43Y10.817
X47.023Y14.935
X47.497Y25.705
X48.421Y10.974
X48.437Y27.155
X49.114Y14.935
X49.742Y10.974
X51.205Y14.935
X51.457Y20.047
X52.5Y11.784
X52.907Y18.93
X53.72Y17.304
X53.72Y15.297
X53.923Y13.36
T2
X27.508Y21.799
X28.498Y22.789
X28.498Y20.809
X29.488Y21.799
T3
X31.4Y35.898
X33.4Y35.898
X35.4Y35.898
T4
X24.51Y31.75
X24.51Y6.35
X27.05Y31.75
X27.05Y6.35
X29.59Y31.75
X29.59Y6.35
X37.21Y31.75
X37.21Y19.05
X37.21Y6.35
X39.75Y31.75
X39.75Y19.05
X39.75Y6.35
X42.29Y31.75
X42.29Y19.05
X42.29Y6.35
T5
X10.464Y16.525
X10.464Y13.985
T6
X10.286Y5.08
X10.286Y2.54
X12.826Y5.08
X12.826Y2.54
X53.974Y35.565
X53.974Y33.025
X56.514Y35.565
X56.514Y33.025
T7
X16.89Y34.29
X16.89Y29.21
X16.89Y8.89
X16.89Y3.81
X19.43Y31.75
X19.43Y6.35
X21.97Y34.29
X21.97Y29.21
X21.97Y8.89
X21.97Y3.81
X29.3Y35.898
X37.5Y35.898
X44.83Y34.29
X44.83Y29.21
X44.83Y21.59
X44.83Y16.51
X44.83Y8.89
X44.83Y3.81
X47.37Y31.75
X47.37Y19.05
X47.37Y6.35
X49.91Y34.29
X49.91Y29.21
X49.91Y21.59
X49.91Y16.51
X49.91Y8.89
X49.91Y3.81
T8
X3.048Y35.052
X3.048Y3.048
X63.752Y35.052
X63.752Y3.048
M30
