%TF.GenerationSoftware,KiCad,Pcbnew,10.0.0*%
%TF.CreationDate,2026-08-26T10:59:02-04:00*%
%TF.ProjectId,ClockGen_Si5351X_QFN16,436c6f63-6b47-4656-9e5f-536935333531,rev?*%
%TF.SameCoordinates,Original*%
%TF.FileFunction,Soldermask,Bot*%
%TF.FilePolarity,Negative*%
%FSLAX46Y46*%
G04 Gerber Fmt 4.6, Leading zero omitted, Abs format (unit mm)*
G04 Created by KiCad (PCBNEW 10.0.0) date 2026-08-26 10:59:02*
%MOMM*%
%LPD*%
G01*
G04 APERTURE LIST*
G04 Aperture macros list*
%AMRoundRect*
0 Rectangle with rounded corners*
0 $1 Rounding radius*
0 $2 $3 $4 $5 $6 $7 $8 $9 X,Y pos of 4 corners*
0 Add a 4 corners polygon primitive as box body*
4,1,4,$2,$3,$4,$5,$6,$7,$8,$9,$2,$3,0*
0 Add four circle primitives for the rounded corners*
1,1,$1+$1,$2,$3*
1,1,$1+$1,$4,$5*
1,1,$1+$1,$6,$7*
1,1,$1+$1,$8,$9*
0 Add four rect primitives between the rounded corners*
20,1,$1+$1,$2,$3,$4,$5,0*
20,1,$1+$1,$4,$5,$6,$7,0*
20,1,$1+$1,$6,$7,$8,$9,0*
20,1,$1+$1,$8,$9,$2,$3,0*%
G04 Aperture macros list end*
%ADD10C,2.950379*%
%ADD11C,1.497231*%
%ADD12C,1.700000*%
%ADD13C,2.000000*%
%ADD14C,4.500000*%
%ADD15C,1.100000*%
%ADD16RoundRect,0.249999X-0.850001X0.850001X-0.850001X-0.850001X0.850001X-0.850001X0.850001X0.850001X0*%
%ADD17C,2.200000*%
%ADD18O,1.500000X2.500000*%
%ADD19O,2.200000X3.500000*%
%ADD20C,2.100000*%
%ADD21C,3.700000*%
G04 APERTURE END LIST*
D10*
X144985189Y-89408000D02*
G75*
G02*
X142034811Y-89408000I-1475189J0D01*
G01*
X142034811Y-89408000D02*
G75*
G02*
X144985189Y-89408000I1475189J0D01*
G01*
X144985189Y-114808000D02*
G75*
G02*
X142034811Y-114808000I-1475189J0D01*
G01*
X142034811Y-114808000D02*
G75*
G02*
X144985189Y-114808000I1475189J0D01*
G01*
D11*
X154418615Y-89408000D02*
G75*
G02*
X152921385Y-89408000I-748615J0D01*
G01*
X152921385Y-89408000D02*
G75*
G02*
X154418615Y-89408000I748615J0D01*
G01*
X154418615Y-114808000D02*
G75*
G02*
X152921385Y-114808000I-748615J0D01*
G01*
X152921385Y-114808000D02*
G75*
G02*
X154418615Y-114808000I748615J0D01*
G01*
X162029678Y-114806955D02*
G75*
G02*
X160532448Y-114806955I-748615J0D01*
G01*
X160532448Y-114806955D02*
G75*
G02*
X162029678Y-114806955I748615J0D01*
G01*
X162038615Y-89408000D02*
G75*
G02*
X160541385Y-89408000I-748615J0D01*
G01*
X160541385Y-89408000D02*
G75*
G02*
X162038615Y-89408000I748615J0D01*
G01*
X162038615Y-102108000D02*
G75*
G02*
X160541385Y-102108000I-748615J0D01*
G01*
X160541385Y-102108000D02*
G75*
G02*
X162038615Y-102108000I748615J0D01*
G01*
D10*
X172925189Y-89408000D02*
G75*
G02*
X169974811Y-89408000I-1475189J0D01*
G01*
X169974811Y-89408000D02*
G75*
G02*
X172925189Y-89408000I1475189J0D01*
G01*
X172925189Y-102108000D02*
G75*
G02*
X169974811Y-102108000I-1475189J0D01*
G01*
X169974811Y-102108000D02*
G75*
G02*
X172925189Y-102108000I1475189J0D01*
G01*
X172925189Y-114808000D02*
G75*
G02*
X169974811Y-114808000I-1475189J0D01*
G01*
X169974811Y-114808000D02*
G75*
G02*
X172925189Y-114808000I1475189J0D01*
G01*
D12*
%TO.C,J14*%
X148590000Y-89408000D03*
X151130000Y-89408000D03*
X153669999Y-89408000D03*
%TD*%
D13*
%TO.C,J7*%
X143510000Y-114808000D03*
X140970000Y-117348000D03*
X146050000Y-117348000D03*
X140970000Y-112268000D03*
X146050000Y-112268000D03*
%TD*%
%TO.C,J8*%
X171450000Y-89408000D03*
X173990000Y-86868000D03*
X168910000Y-86868000D03*
X173990000Y-91948000D03*
X168910000Y-91948000D03*
%TD*%
D14*
%TO.C,H3*%
X187832000Y-118110000D03*
%TD*%
D13*
%TO.C,J3*%
X143510000Y-89408000D03*
X140970000Y-91948000D03*
X146050000Y-91948000D03*
X140970000Y-86868000D03*
X146050000Y-86868000D03*
%TD*%
D14*
%TO.C,H2*%
X187832000Y-86106000D03*
%TD*%
D13*
%TO.C,J9*%
X171450000Y-102108000D03*
X173990000Y-99568000D03*
X168910000Y-99568000D03*
X173990000Y-104648000D03*
X168910000Y-104648000D03*
%TD*%
D14*
%TO.C,H4*%
X127128000Y-118110000D03*
%TD*%
D15*
%TO.C,J1*%
X132003800Y-104633471D03*
X132003800Y-107173471D03*
D16*
X134543800Y-104633471D03*
D17*
X134543800Y-107173471D03*
%TD*%
D13*
%TO.C,J6*%
X171450000Y-114808000D03*
X173990000Y-112268000D03*
X168910000Y-112268000D03*
X173990000Y-117348000D03*
X168910000Y-117348000D03*
%TD*%
D14*
%TO.C,H1*%
X127128000Y-86106000D03*
%TD*%
D18*
%TO.C,SW1*%
X155480000Y-85260500D03*
X157480000Y-85260500D03*
X159480000Y-85260500D03*
D19*
X153380000Y-85260500D03*
X161580000Y-85260500D03*
%TD*%
D12*
%TO.C,J13*%
X166370000Y-102108000D03*
X163830000Y-102108000D03*
X161290001Y-102108000D03*
%TD*%
%TO.C,J12*%
X166370000Y-89408000D03*
X163830000Y-89408000D03*
X161290001Y-89408000D03*
%TD*%
D20*
%TO.C,J5*%
X136906000Y-116078000D03*
X134366000Y-116078000D03*
X136906000Y-118618000D03*
X134366000Y-118618000D03*
%TD*%
D12*
%TO.C,J10*%
X166370000Y-114808000D03*
X163830000Y-114808000D03*
X161290001Y-114808000D03*
%TD*%
%TO.C,J11*%
X148590000Y-114808000D03*
X151130000Y-114808000D03*
X153669999Y-114808000D03*
%TD*%
D20*
%TO.C,J4*%
X180594000Y-85593000D03*
X178054000Y-85593000D03*
X180594000Y-88133000D03*
X178054000Y-88133000D03*
%TD*%
D21*
X153670000Y-114808000D02*
X143510000Y-114808000D01*
X153669999Y-89408000D02*
X143510000Y-89408000D01*
X171450000Y-89408000D02*
X161290001Y-89408000D01*
X171449999Y-102108000D02*
X161290000Y-102108000D01*
X171449999Y-114808000D02*
X161290000Y-114808000D01*
M02*
