%TF.GenerationSoftware,KiCad,Pcbnew,10.0.0*%
%TF.CreationDate,2026-08-26T10:59:02-04:00*%
%TF.ProjectId,ClockGen_Si5351X_QFN16,436c6f63-6b47-4656-9e5f-536935333531,rev?*%
%TF.SameCoordinates,Original*%
%TF.FileFunction,Paste,Top*%
%TF.FilePolarity,Positive*%
%FSLAX46Y46*%
G04 Gerber Fmt 4.6, Leading zero omitted, Abs format (unit mm)*
G04 Created by KiCad (PCBNEW 10.0.0) date 2026-08-26 10:59:02*
%MOMM*%
%LPD*%
G01*
G04 APERTURE LIST*
G04 Aperture macros list*
%AMRoundRect*
0 Rectangle with rounded corners*
0 $1 Rounding radius*
0 $2 $3 $4 $5 $6 $7 $8 $9 X,Y pos of 4 corners*
0 Add a 4 corners polygon primitive as box body*
4,1,4,$2,$3,$4,$5,$6,$7,$8,$9,$2,$3,0*
0 Add four circle primitives for the rounded corners*
1,1,$1+$1,$2,$3*
1,1,$1+$1,$4,$5*
1,1,$1+$1,$6,$7*
1,1,$1+$1,$8,$9*
0 Add four rect primitives between the rounded corners*
20,1,$1+$1,$2,$3,$4,$5,0*
20,1,$1+$1,$4,$5,$6,$7,0*
20,1,$1+$1,$6,$7,$8,$9,0*
20,1,$1+$1,$8,$9,$2,$3,0*%
%AMFreePoly0*
4,1,16,0.090354,0.750354,0.090500,0.750000,0.090500,-0.750000,0.090354,-0.750354,0.090000,-0.750500,-0.810000,-0.750500,-0.810354,-0.750354,-0.810500,-0.750000,-0.810416,-0.749723,-0.310594,0.000000,-0.810416,0.749723,-0.810490,0.750098,-0.810277,0.750416,-0.810000,0.750500,0.090000,0.750500,0.090354,0.750354,0.090354,0.750354,$1*%
G04 Aperture macros list end*
%ADD10RoundRect,0.087500X0.087500X-0.250000X0.087500X0.250000X-0.087500X0.250000X-0.087500X-0.250000X0*%
%ADD11RoundRect,0.200000X-0.200000X-0.300000X0.200000X-0.300000X0.200000X0.300000X-0.200000X0.300000X0*%
%ADD12RoundRect,0.150000X-0.150000X-0.200000X0.150000X-0.200000X0.150000X0.200000X-0.150000X0.200000X0*%
%ADD13RoundRect,0.050000X-0.250000X0.100000X-0.250000X-0.100000X0.250000X-0.100000X0.250000X0.100000X0*%
%ADD14RoundRect,0.150000X0.150000X0.200000X-0.150000X0.200000X-0.150000X-0.200000X0.150000X-0.200000X0*%
%ADD15RoundRect,0.200000X-0.300000X0.200000X-0.300000X-0.200000X0.300000X-0.200000X0.300000X0.200000X0*%
%ADD16RoundRect,0.150000X-0.200000X0.150000X-0.200000X-0.150000X0.200000X-0.150000X0.200000X0.150000X0*%
%ADD17R,1.000000X0.200000*%
%ADD18RoundRect,0.050000X0.285000X0.100000X-0.285000X0.100000X-0.285000X-0.100000X0.285000X-0.100000X0*%
%ADD19RoundRect,0.200000X0.300000X-0.200000X0.300000X0.200000X-0.300000X0.200000X-0.300000X-0.200000X0*%
%ADD20RoundRect,0.150000X0.200000X-0.150000X0.200000X0.150000X-0.200000X0.150000X-0.200000X-0.150000X0*%
%ADD21RoundRect,0.150000X-0.512500X-0.150000X0.512500X-0.150000X0.512500X0.150000X-0.512500X0.150000X0*%
%ADD22RoundRect,0.205000X-0.289914X0.000000X0.000000X-0.289914X0.289914X0.000000X0.000000X0.289914X0*%
%ADD23RoundRect,0.062500X-0.238649X0.150260X0.150260X-0.238649X0.238649X-0.150260X-0.150260X0.238649X0*%
%ADD24RoundRect,0.062500X-0.238649X-0.150260X-0.150260X-0.238649X0.238649X0.150260X0.150260X0.238649X0*%
%ADD25RoundRect,0.150000X0.035355X-0.247487X0.247487X-0.035355X-0.035355X0.247487X-0.247487X0.035355X0*%
%ADD26R,0.200000X1.000000*%
%ADD27R,0.500000X0.700000*%
%ADD28RoundRect,0.152500X-0.152500X0.297500X-0.152500X-0.297500X0.152500X-0.297500X0.152500X0.297500X0*%
%ADD29RoundRect,0.132500X-0.132500X0.317500X-0.132500X-0.317500X0.132500X-0.317500X0.132500X0.317500X0*%
%ADD30RoundRect,0.062500X-0.062500X-0.112500X0.062500X-0.112500X0.062500X0.112500X-0.062500X0.112500X0*%
%ADD31RoundRect,0.062500X0.035355X-0.123744X0.123744X-0.035355X-0.035355X0.123744X-0.123744X0.035355X0*%
%ADD32RoundRect,0.150000X-0.035355X0.247487X-0.247487X0.035355X0.035355X-0.247487X0.247487X-0.035355X0*%
%ADD33RoundRect,0.250000X-0.530330X-0.176777X-0.176777X-0.530330X0.530330X0.176777X0.176777X0.530330X0*%
%ADD34FreePoly0,0.000000*%
%ADD35FreePoly0,180.000000*%
%ADD36R,1.400000X1.200000*%
%ADD37RoundRect,0.062500X0.112500X-0.062500X0.112500X0.062500X-0.112500X0.062500X-0.112500X-0.062500X0*%
%ADD38RoundRect,0.150000X-0.247487X-0.035355X-0.035355X-0.247487X0.247487X0.035355X0.035355X0.247487X0*%
%ADD39RoundRect,0.087500X-0.250000X-0.087500X0.250000X-0.087500X0.250000X0.087500X-0.250000X0.087500X0*%
%ADD40RoundRect,0.062500X-0.112500X0.062500X-0.112500X-0.062500X0.112500X-0.062500X0.112500X0.062500X0*%
%ADD41RoundRect,0.062500X-0.035355X0.123744X-0.123744X0.035355X0.035355X-0.123744X0.123744X-0.035355X0*%
%ADD42RoundRect,0.062500X-0.123744X-0.035355X-0.035355X-0.123744X0.123744X0.035355X0.035355X0.123744X0*%
%ADD43R,1.000000X0.800000*%
%ADD44RoundRect,0.150000X-0.625000X0.150000X-0.625000X-0.150000X0.625000X-0.150000X0.625000X0.150000X0*%
%ADD45RoundRect,0.250000X-0.595000X0.350000X-0.595000X-0.350000X0.595000X-0.350000X0.595000X0.350000X0*%
%ADD46RoundRect,0.200000X0.200000X0.300000X-0.200000X0.300000X-0.200000X-0.300000X0.200000X-0.300000X0*%
%ADD47R,0.600000X0.800000*%
G04 APERTURE END LIST*
D10*
%TO.C,Q2*%
X139829025Y-99889517D03*
X140329025Y-99889517D03*
X140829025Y-99889517D03*
X140829025Y-98464517D03*
X140329025Y-98464517D03*
X139829025Y-98464517D03*
%TD*%
D11*
%TO.C,L4*%
X159778000Y-95203628D03*
X161278000Y-95203628D03*
%TD*%
D12*
%TO.C,R1*%
X155557600Y-89916000D03*
X156557600Y-89916000D03*
%TD*%
D13*
%TO.C,D1*%
X148920200Y-86899003D03*
X148920200Y-87599001D03*
%TD*%
D14*
%TO.C,C2*%
X140834999Y-104427400D03*
X139835001Y-104427400D03*
%TD*%
D15*
%TO.C,C31*%
X169860600Y-107708000D03*
D16*
X169858921Y-107957999D03*
D17*
X169860600Y-108002555D03*
X169860600Y-108915046D03*
D16*
X169858921Y-108957999D03*
D15*
X169860600Y-109208000D03*
%TD*%
D18*
%TO.C,U6*%
X148738361Y-105630600D03*
X148738361Y-105130600D03*
X148738361Y-104630600D03*
X148738361Y-104130600D03*
X147258361Y-104130600D03*
X147258361Y-104630600D03*
X147258361Y-105130600D03*
X147258361Y-105630600D03*
%TD*%
D19*
%TO.C,C32*%
X150850600Y-118071331D03*
D20*
X150852279Y-117821332D03*
D17*
X150850600Y-117776776D03*
X150850600Y-116864285D03*
D20*
X150852279Y-116821332D03*
D19*
X150850600Y-116571331D03*
%TD*%
D21*
%TO.C,U3*%
X142651900Y-104039501D03*
X142651900Y-104989500D03*
X142651900Y-105939499D03*
X144926900Y-105939499D03*
X144926900Y-104039501D03*
%TD*%
D13*
%TO.C,D2*%
X137590076Y-99903801D03*
X137590076Y-100603799D03*
%TD*%
D22*
%TO.C,U4*%
X152577800Y-98686909D03*
X151906049Y-99358660D03*
X153249551Y-99358660D03*
X152577800Y-100030411D03*
D23*
X152038631Y-97758831D03*
X151685078Y-98112384D03*
X151331524Y-98465938D03*
X150977971Y-98819491D03*
D24*
X150977971Y-99897829D03*
X151331524Y-100251382D03*
X151685078Y-100604936D03*
X152038631Y-100958489D03*
D23*
X153116969Y-100958489D03*
X153470522Y-100604936D03*
X153824076Y-100251382D03*
X154177629Y-99897829D03*
D24*
X154177629Y-98819491D03*
X153824076Y-98465938D03*
X153470522Y-98112384D03*
X153116969Y-97758831D03*
%TD*%
D19*
%TO.C,C23*%
X154848850Y-118071331D03*
D20*
X154850529Y-117821332D03*
D17*
X154848850Y-117776776D03*
X154848850Y-116864285D03*
D20*
X154850529Y-116821332D03*
D19*
X154848850Y-116571331D03*
%TD*%
D25*
%TO.C,C12*%
X156616408Y-96698174D03*
X157323514Y-95991068D03*
%TD*%
D11*
%TO.C,C25*%
X160028619Y-119275405D03*
D12*
X160278618Y-119277084D03*
D26*
X160323175Y-119275405D03*
X161235665Y-119275405D03*
D12*
X161278618Y-119277084D03*
D11*
X161528619Y-119275405D03*
%TD*%
D27*
%TO.C,U2*%
X144688600Y-107298001D03*
X143738600Y-107298000D03*
X142788600Y-107298001D03*
X142788600Y-109617999D03*
X143738600Y-109618000D03*
X144688600Y-109617999D03*
%TD*%
D13*
%TO.C,D9*%
X166039800Y-86997186D03*
X166039800Y-87697184D03*
%TD*%
D28*
%TO.C,RN1*%
X141321000Y-94644400D03*
D29*
X140481000Y-94644400D03*
X139681000Y-94644400D03*
D28*
X138841000Y-94644400D03*
X138841000Y-96414400D03*
D29*
X139681000Y-96414400D03*
X140481000Y-96414400D03*
D28*
X141321000Y-96414400D03*
%TD*%
D15*
%TO.C,L14*%
X165049200Y-116564345D03*
X165049200Y-118064345D03*
%TD*%
D19*
%TO.C,L2*%
X163255199Y-109208000D03*
X163255199Y-107708000D03*
%TD*%
D30*
%TO.C,R5*%
X140415601Y-102336600D03*
X140965599Y-102336600D03*
%TD*%
D27*
%TO.C,U1*%
X141107200Y-107298001D03*
X140157200Y-107298000D03*
X139207200Y-107298001D03*
X139207200Y-109617999D03*
X140157200Y-109618000D03*
X141107200Y-109617999D03*
%TD*%
D15*
%TO.C,C34*%
X172502200Y-107707710D03*
D16*
X172500521Y-107957709D03*
D17*
X172502200Y-108002265D03*
X172502200Y-108914756D03*
D16*
X172500521Y-108957709D03*
D15*
X172502200Y-109207710D03*
%TD*%
D31*
%TO.C,C6*%
X153754657Y-96693005D03*
X154143565Y-96304097D03*
%TD*%
D32*
%TO.C,C1*%
X137183353Y-109628447D03*
X136476247Y-110335553D03*
%TD*%
D19*
%TO.C,C29*%
X166471600Y-96603628D03*
D20*
X166473279Y-96353629D03*
D17*
X166471600Y-96309073D03*
X166471600Y-95396582D03*
D20*
X166473279Y-95353629D03*
D19*
X166471600Y-95103628D03*
%TD*%
D11*
%TO.C,C21*%
X159778000Y-96499028D03*
D12*
X160027999Y-96500707D03*
D26*
X160072556Y-96499028D03*
X160985046Y-96499028D03*
D12*
X161027999Y-96500707D03*
D11*
X161278000Y-96499028D03*
%TD*%
D32*
%TO.C,C10*%
X155547553Y-102999047D03*
X154840447Y-103706153D03*
%TD*%
D15*
%TO.C,L5*%
X160121600Y-116571331D03*
X160121600Y-118071331D03*
%TD*%
D33*
%TO.C,C14*%
X151118196Y-108290254D03*
X152461698Y-109633756D03*
%TD*%
D34*
%TO.C,JP2*%
X146387599Y-100352780D03*
D35*
X147167601Y-100352780D03*
%TD*%
D15*
%TO.C,C27*%
X167219000Y-107708000D03*
D16*
X167217321Y-107957999D03*
D17*
X167219000Y-108002555D03*
X167219000Y-108915046D03*
D16*
X167217321Y-108957999D03*
D15*
X167219000Y-109208000D03*
%TD*%
D13*
%TO.C,D10*%
X166039800Y-99700601D03*
X166039800Y-100400599D03*
%TD*%
D36*
%TO.C,Y1*%
X150538800Y-95239299D03*
X152838800Y-95239299D03*
X152838800Y-93389299D03*
X150538800Y-93389299D03*
%TD*%
D16*
%TO.C,C13*%
X157599800Y-99844299D03*
X157599800Y-100844297D03*
%TD*%
D15*
%TO.C,C22*%
X164577400Y-107708000D03*
D16*
X164575721Y-107957999D03*
D17*
X164577400Y-108002555D03*
X164577400Y-108915046D03*
D16*
X164575721Y-108957999D03*
D15*
X164577400Y-109208000D03*
%TD*%
D19*
%TO.C,L15*%
X171181400Y-109207710D03*
X171181400Y-107707710D03*
%TD*%
D37*
%TO.C,R13*%
X148285200Y-93264399D03*
X148285200Y-92714401D03*
%TD*%
D38*
%TO.C,C11*%
X149605445Y-102999047D03*
X150312551Y-103706153D03*
%TD*%
D19*
%TO.C,C37*%
X167792400Y-96603628D03*
D20*
X167794079Y-96353629D03*
D17*
X167792400Y-96309073D03*
X167792400Y-95396582D03*
D20*
X167794079Y-95353629D03*
D19*
X167792400Y-95103628D03*
%TD*%
D39*
%TO.C,Q1*%
X139444700Y-105248200D03*
X139444699Y-105748200D03*
X139444700Y-106248200D03*
X140869700Y-106248200D03*
X140869701Y-105748200D03*
X140869700Y-105248200D03*
%TD*%
D11*
%TO.C,C38*%
X175040366Y-107808053D03*
D12*
X175290365Y-107809732D03*
D26*
X175334921Y-107808053D03*
X176247412Y-107808053D03*
D12*
X176290365Y-107809732D03*
D11*
X176540366Y-107808053D03*
%TD*%
D35*
%TO.C,JP1*%
X147167600Y-98359410D03*
D34*
X146387600Y-98359410D03*
%TD*%
D15*
%TO.C,C24*%
X162509200Y-95103628D03*
D16*
X162507521Y-95353627D03*
D17*
X162509200Y-95398183D03*
X162509200Y-96310674D03*
D16*
X162507521Y-96353627D03*
D15*
X162509200Y-96603628D03*
%TD*%
%TO.C,C26*%
X163830000Y-95103628D03*
D16*
X163828321Y-95353627D03*
D17*
X163830000Y-95398183D03*
X163830000Y-96310674D03*
D16*
X163828321Y-96353627D03*
D15*
X163830000Y-96603628D03*
%TD*%
%TO.C,C19*%
X158546800Y-95100628D03*
D16*
X158545121Y-95350627D03*
D17*
X158546800Y-95395183D03*
X158546800Y-96307674D03*
D16*
X158545121Y-96350627D03*
D15*
X158546800Y-96600628D03*
%TD*%
D19*
%TO.C,L12*%
X168539800Y-109208000D03*
X168539800Y-107708000D03*
%TD*%
D31*
%TO.C,C15*%
X155202746Y-101366753D03*
X155591654Y-100977845D03*
%TD*%
D16*
%TO.C,C3*%
X154355800Y-93687300D03*
X154355800Y-94687298D03*
%TD*%
D40*
%TO.C,R14*%
X146247813Y-106004883D03*
X146247813Y-106554881D03*
%TD*%
D25*
%TO.C,R10*%
X155219408Y-98095174D03*
X155926514Y-97388068D03*
%TD*%
D30*
%TO.C,R4*%
X141507801Y-102336600D03*
X142057799Y-102336600D03*
%TD*%
D13*
%TO.C,D3*%
X137590076Y-98202001D03*
X137590076Y-98901999D03*
%TD*%
D38*
%TO.C,R8*%
X154130197Y-101569766D03*
X154837303Y-102276872D03*
%TD*%
D19*
%TO.C,C35*%
X166378052Y-118047446D03*
D20*
X166379731Y-117797447D03*
D17*
X166378052Y-117752891D03*
X166378052Y-116840400D03*
D20*
X166379731Y-116797447D03*
D19*
X166378052Y-116547446D03*
%TD*%
D41*
%TO.C,C8*%
X151917400Y-101807601D03*
X151528492Y-102196509D03*
%TD*%
D15*
%TO.C,C20*%
X158797419Y-117771616D03*
D16*
X158795740Y-118021615D03*
D17*
X158797419Y-118066171D03*
X158797419Y-118978662D03*
D16*
X158795740Y-119021615D03*
D15*
X158797419Y-119271616D03*
%TD*%
D42*
%TO.C,C7*%
X153238200Y-101807601D03*
X153627108Y-102196509D03*
%TD*%
D19*
%TO.C,C36*%
X148590000Y-118072846D03*
D20*
X148591679Y-117822847D03*
D17*
X148590000Y-117778291D03*
X148590000Y-116865800D03*
D20*
X148591679Y-116822847D03*
D19*
X148590000Y-116572846D03*
%TD*%
D11*
%TO.C,L6*%
X161110272Y-98008021D03*
X162610272Y-98008021D03*
%TD*%
D19*
%TO.C,C18*%
X157476619Y-117761820D03*
D20*
X157478298Y-117511821D03*
D17*
X157476619Y-117467265D03*
X157476619Y-116554774D03*
D20*
X157478298Y-116511821D03*
D43*
X157476619Y-116261820D03*
%TD*%
D12*
%TO.C,R3*%
X155557600Y-91465400D03*
X156557600Y-91465400D03*
%TD*%
D14*
%TO.C,D11*%
X144671677Y-94589600D03*
X143671679Y-94589600D03*
%TD*%
D15*
%TO.C,L3*%
X156155819Y-117765131D03*
X156155819Y-119265131D03*
%TD*%
D14*
%TO.C,R2*%
X156557398Y-92481400D03*
X155557400Y-92481400D03*
%TD*%
%TO.C,D12*%
X140833711Y-103124083D03*
X142233711Y-103124083D03*
%TD*%
D20*
%TO.C,C4*%
X149021799Y-95495999D03*
X149021799Y-94496001D03*
%TD*%
D15*
%TO.C,L10*%
X162483800Y-116571331D03*
X162483800Y-118071331D03*
%TD*%
D32*
%TO.C,R9*%
X151031676Y-101569766D03*
X150324570Y-102276872D03*
%TD*%
D15*
%TO.C,C17*%
X161935800Y-107708000D03*
D16*
X161934121Y-107957999D03*
D17*
X161935800Y-108002555D03*
X161935800Y-108915046D03*
D16*
X161934121Y-108957999D03*
D15*
X161935800Y-109208000D03*
%TD*%
D31*
%TO.C,C9*%
X154164638Y-97109208D03*
X154553546Y-96720300D03*
%TD*%
D44*
%TO.C,J2*%
X135858000Y-96798000D03*
X135858000Y-97798000D03*
X135858000Y-98798000D03*
X135858000Y-99798000D03*
D45*
X131983000Y-95498000D03*
X131983000Y-101098000D03*
%TD*%
D37*
%TO.C,R12*%
X148844000Y-93264399D03*
X148844000Y-92714401D03*
%TD*%
D11*
%TO.C,C33*%
X165273019Y-119275405D03*
D12*
X165523018Y-119277084D03*
D26*
X165567575Y-119275405D03*
X166480065Y-119275405D03*
D12*
X166523018Y-119277084D03*
D11*
X166773019Y-119275405D03*
%TD*%
D12*
%TO.C,R11*%
X155567800Y-99844299D03*
X156567798Y-99844299D03*
%TD*%
D46*
%TO.C,L1*%
X159945051Y-98008021D03*
X158445051Y-98008021D03*
%TD*%
D19*
%TO.C,C28*%
X152447419Y-118071331D03*
D20*
X152449098Y-117821332D03*
D17*
X152447419Y-117776776D03*
X152447419Y-116864285D03*
D20*
X152449098Y-116821332D03*
D19*
X152447419Y-116571331D03*
%TD*%
D46*
%TO.C,L13*%
X152352927Y-119277131D03*
X150852927Y-119277131D03*
%TD*%
D15*
%TO.C,L9*%
X165150800Y-95103628D03*
X165150800Y-96603628D03*
%TD*%
D47*
%TO.C,U5*%
X148270216Y-107320500D03*
X147320217Y-107320500D03*
X146370218Y-107320500D03*
X146370218Y-109595500D03*
X148270216Y-109595500D03*
%TD*%
D11*
%TO.C,C30*%
X162644819Y-119275405D03*
D12*
X162894818Y-119277084D03*
D26*
X162939375Y-119275405D03*
X163851865Y-119275405D03*
D12*
X163894818Y-119277084D03*
D11*
X164144819Y-119275405D03*
%TD*%
D13*
%TO.C,D8*%
X148920200Y-112406202D03*
X148920200Y-113106200D03*
%TD*%
D16*
%TO.C,C16*%
X152577800Y-102395401D03*
X152577800Y-103395399D03*
%TD*%
D11*
%TO.C,L11*%
X164971600Y-93679628D03*
X166471600Y-93679628D03*
%TD*%
D13*
%TO.C,D7*%
X166039800Y-112406202D03*
X166039800Y-113106200D03*
%TD*%
D20*
%TO.C,C5*%
X149606000Y-107419839D03*
X149606000Y-106419841D03*
%TD*%
D30*
%TO.C,R6*%
X148238801Y-110820200D03*
X148788799Y-110820200D03*
%TD*%
D46*
%TO.C,L8*%
X154950019Y-119277131D03*
X153450019Y-119277131D03*
%TD*%
D19*
%TO.C,L7*%
X165898200Y-109208000D03*
X165898200Y-107708000D03*
%TD*%
%TO.C,L16*%
X173823000Y-109207710D03*
X173823000Y-107707710D03*
%TD*%
D12*
%TO.C,D6*%
X146439000Y-94615000D03*
X147439000Y-94615000D03*
%TD*%
D37*
%TO.C,R7*%
X147599400Y-111374599D03*
X147599400Y-110824601D03*
%TD*%
D16*
%TO.C,C39*%
X146151600Y-104351201D03*
X146151600Y-105351199D03*
%TD*%
M02*
