M48
; DRILL file KiCad 10.0.0 date 2026-08-26T10:59:21
; FORMAT={-:-/ absolute / metric / decimal}
; #@! TF.CreationDate,2026-08-26T10:59:21-04:00
; #@! TF.GenerationSoftware,Kicad,Pcbnew,10.0.0
; #@! TF.FileFunction,Plated,1,4,PTH
FMAT,2
METRIC
; #@! TA.AperFunction,Plated,PTH,ViaDrill
T1C0.300
; #@! TA.AperFunction,Plated,PTH,ComponentDrill
T2C0.300
; #@! TA.AperFunction,Plated,PTH,ComponentDrill
T3C0.800
; #@! TA.AperFunction,Plated,PTH,ComponentDrill
T4C1.000
; #@! TA.AperFunction,Plated,PTH,ComponentDrill
T5C1.100
; #@! TA.AperFunction,Plated,PTH,ComponentDrill
T6C1.350
; #@! TA.AperFunction,Plated,PTH,ComponentDrill
T7C1.500
; #@! TA.AperFunction,Plated,PTH,ComponentDrill
T8C2.700
%
G90
G05
T1
X134.595Y-96.799
X136.271Y-100.711
X137.007Y-107.163
X137.008Y-107.963
X137.008Y-108.764
X137.211Y-106.172
X137.808Y-108.762
X137.808Y-107.161
X137.81Y-107.964
X138.307Y-98.198
X138.707Y-108.834
X138.707Y-108.134
X138.836Y-97.409
X138.836Y-100.432
X138.989Y-104.427
X139.507Y-108.134
X139.508Y-108.834
X139.675Y-93.755
X139.725Y-102.337
X140.308Y-108.134
X140.309Y-108.84
X140.315Y-97.419
X140.315Y-100.924
X140.98Y-97.409
X141.249Y-101.752
X141.351Y-100.95
X142.136Y-108.836
X142.136Y-108.136
X142.799Y-110.515
X142.875Y-103.124
X142.936Y-108.136
X142.937Y-108.835
X143.612Y-100.813
X143.624Y-103.124
X143.739Y-108.128
X143.739Y-108.841
X143.789Y-104.405
X143.789Y-105.574
X144.374Y-103.124
X144.463Y-104.989
X144.501Y-96.571
X144.547Y-110.515
X145.123Y-103.124
X145.339Y-104.989
X145.364Y-106.629
X145.39Y-95.428
X145.872Y-103.124
X146.685Y-103.708
X147.319Y-108.398
X147.319Y-109.3
X147.319Y-110.201
X148.006Y-86.888
X148.006Y-91.491
X148.007Y-112.399
X148.234Y-95.555
X148.252Y-94.496
X148.921Y-111.694
X148.922Y-86.157
X149.022Y-103.607
X149.073Y-102.311
X149.379Y-110.224
X149.449Y-93.398
X149.784Y-91.491
X149.784Y-98.095
X149.822Y-116.811
X149.835Y-86.899
X149.857Y-109.746
X150.012Y-105.537
X150.038Y-112.725
X150.19Y-98.912
X150.19Y-99.826
X150.334Y-109.268
X150.369Y-111.214
X150.522Y-96.269
X150.722Y-92.249
X150.846Y-110.736
X151.054Y-102.692
X151.324Y-110.258
X151.36Y-112.201
X151.562Y-91.491
X151.646Y-87.325
X151.686Y-93.387
X151.763Y-92.249
X151.79Y-112.725
X151.838Y-111.724
X151.879Y-106.981
X151.948Y-102.895
X152.316Y-111.248
X152.521Y-96.803
X152.577Y-101.757
X152.578Y-99.359
X152.83Y-92.244
X152.831Y-110.74
X152.84Y-107.933
X153.219Y-102.915
X153.34Y-91.491
X153.36Y-96.297
X153.448Y-105.13
X153.563Y-110.01
X153.641Y-116.895
X153.645Y-87.351
X153.645Y-118.008
X153.67Y-112.725
X154.008Y-92.032
X154.102Y-102.692
X154.153Y-95.787
X154.254Y-109.347
X154.457Y-97.616
X154.579Y-100.854
X154.593Y-105.164
X154.686Y-92.481
X154.861Y-106.519
X154.94Y-99.263
X155.06Y-111.375
X155.06Y-113.375
X155.143Y-87.935
X155.194Y-96.956
X155.194Y-100.563
X155.27Y-94.695
X155.317Y-90.689
X155.753Y-89.408
X155.98Y-101.595
X156.007Y-106.578
X156.275Y-107.933
X156.584Y-102.915
X156.591Y-93.351
X157.201Y-94.539
X157.252Y-104.403
X157.421Y-107.993
X157.455Y-97.231
X157.48Y-109.392
X157.48Y-111.392
X157.48Y-113.392
X157.48Y-115.392
X157.48Y-119.024
X157.483Y-119.782
X157.861Y-98.984
X158.318Y-104.775
X158.666Y-105.818
X159.114Y-93.955
X159.182Y-102.057
X159.207Y-89.408
X159.69Y-107.465
X159.791Y-106.248
X159.809Y-87.955
X159.817Y-90.865
X159.893Y-109.39
X159.893Y-111.39
X159.893Y-113.39
X159.944Y-98.984
X160.181Y-100.355
X160.376Y-108.356
X161.109Y-98.984
X161.205Y-93.955
X161.265Y-87.325
X161.265Y-91.491
X161.265Y-104.191
X161.29Y-116.896
X161.29Y-118.008
X161.934Y-110.185
X162.154Y-105.131
X162.272Y-100.025
X162.738Y-106.223
X163.254Y-110.184
X163.297Y-93.955
X163.356Y-87.325
X163.356Y-91.491
X163.356Y-104.191
X163.474Y-97.765
X163.779Y-116.896
X163.779Y-118.006
X164.363Y-100.025
X164.829Y-106.223
X164.973Y-92.735
X165.125Y-86.986
X165.125Y-112.395
X165.125Y-99.695
X165.231Y-110.341
X165.447Y-91.491
X165.447Y-104.191
X165.566Y-97.765
X166.04Y-111.664
X166.04Y-98.964
X166.041Y-86.255
X166.92Y-106.223
X166.954Y-99.701
X166.954Y-112.401
X166.956Y-86.992
X167.218Y-110.184
X167.386Y-93.853
X167.547Y-91.491
X167.547Y-104.191
X167.657Y-97.765
X168.539Y-110.184
X168.935Y-97.231
X169.477Y-93.777
X169.951Y-96.266
X170.51Y-110.341
X171.103Y-106.223
X171.577Y-95.453
X172.501Y-110.184
X172.517Y-94.003
X173.194Y-106.223
X173.822Y-110.184
X175.285Y-106.223
X175.537Y-101.111
X176.58Y-109.374
X176.987Y-102.228
X177.8Y-103.854
X177.8Y-105.861
X178.003Y-107.798
T2
X151.588Y-99.359
X152.578Y-98.369
X152.578Y-100.349
X153.568Y-99.359
T3
X155.48Y-85.26
X157.48Y-85.26
X159.48Y-85.26
T4
X148.59Y-89.408
X148.59Y-114.808
X151.13Y-89.408
X151.13Y-114.808
X153.67Y-89.408
X153.67Y-114.808
X161.29Y-89.408
X161.29Y-102.108
X161.29Y-114.808
X163.83Y-89.408
X163.83Y-102.108
X163.83Y-114.808
X166.37Y-89.408
X166.37Y-102.108
X166.37Y-114.808
T5
X134.544Y-104.633
X134.544Y-107.173
T6
X134.366Y-116.078
X134.366Y-118.618
X136.906Y-116.078
X136.906Y-118.618
X178.054Y-85.593
X178.054Y-88.133
X180.594Y-85.593
X180.594Y-88.133
T7
X140.97Y-86.868
X140.97Y-91.948
X140.97Y-112.268
X140.97Y-117.348
X143.51Y-89.408
X143.51Y-114.808
X146.05Y-86.868
X146.05Y-91.948
X146.05Y-112.268
X146.05Y-117.348
X153.38Y-85.26
X161.58Y-85.26
X168.91Y-86.868
X168.91Y-91.948
X168.91Y-99.568
X168.91Y-104.648
X168.91Y-112.268
X168.91Y-117.348
X171.45Y-89.408
X171.45Y-102.108
X171.45Y-114.808
X173.99Y-86.868
X173.99Y-91.948
X173.99Y-99.568
X173.99Y-104.648
X173.99Y-112.268
X173.99Y-117.348
T8
X127.128Y-86.106
X127.128Y-118.11
X187.832Y-86.106
X187.832Y-118.11
M30
