%TF.GenerationSoftware,KiCad,Pcbnew,10.0.0*%
%TF.CreationDate,2026-09-03T10:59:32-04:00*%
%TF.ProjectId,ClockGen_Si5351X_QFN16,436c6f63-6b47-4656-9e5f-536935333531,rev?*%
%TF.SameCoordinates,PX7654f80PY738b970*%
%TF.FileFunction,Paste,Top*%
%TF.FilePolarity,Positive*%
%FSLAX46Y46*%
G04 Gerber Fmt 4.6, Leading zero omitted, Abs format (unit mm)*
G04 Created by KiCad (PCBNEW 10.0.0) date 2026-09-03 10:59:32*
%MOMM*%
%LPD*%
G01*
G04 APERTURE LIST*
G04 Aperture macros list*
%AMRoundRect*
0 Rectangle with rounded corners*
0 $1 Rounding radius*
0 $2 $3 $4 $5 $6 $7 $8 $9 X,Y pos of 4 corners*
0 Add a 4 corners polygon primitive as box body*
4,1,4,$2,$3,$4,$5,$6,$7,$8,$9,$2,$3,0*
0 Add four circle primitives for the rounded corners*
1,1,$1+$1,$2,$3*
1,1,$1+$1,$4,$5*
1,1,$1+$1,$6,$7*
1,1,$1+$1,$8,$9*
0 Add four rect primitives between the rounded corners*
20,1,$1+$1,$2,$3,$4,$5,0*
20,1,$1+$1,$4,$5,$6,$7,0*
20,1,$1+$1,$6,$7,$8,$9,0*
20,1,$1+$1,$8,$9,$2,$3,0*%
%AMFreePoly0*
4,1,16,0.090354,0.750354,0.090500,0.750000,0.090500,-0.750000,0.090354,-0.750354,0.090000,-0.750500,-0.810000,-0.750500,-0.810354,-0.750354,-0.810500,-0.750000,-0.810416,-0.749723,-0.310594,0.000000,-0.810416,0.749723,-0.810490,0.750098,-0.810277,0.750416,-0.810000,0.750500,0.090000,0.750500,0.090354,0.750354,0.090354,0.750354,$1*%
G04 Aperture macros list end*
%ADD10RoundRect,0.250000X-0.262500X-0.450000X0.262500X-0.450000X0.262500X0.450000X-0.262500X0.450000X0*%
%ADD11RoundRect,0.250000X0.250000X0.500000X-0.250000X0.500000X-0.250000X-0.500000X0.250000X-0.500000X0*%
%ADD12RoundRect,0.200000X-0.200000X-0.300000X0.200000X-0.300000X0.200000X0.300000X-0.200000X0.300000X0*%
%ADD13RoundRect,0.087500X0.087500X-0.250000X0.087500X0.250000X-0.087500X0.250000X-0.087500X-0.250000X0*%
%ADD14RoundRect,0.150000X-0.150000X-0.200000X0.150000X-0.200000X0.150000X0.200000X-0.150000X0.200000X0*%
%ADD15RoundRect,0.050000X-0.250000X0.100000X-0.250000X-0.100000X0.250000X-0.100000X0.250000X0.100000X0*%
%ADD16RoundRect,0.150000X0.150000X0.200000X-0.150000X0.200000X-0.150000X-0.200000X0.150000X-0.200000X0*%
%ADD17RoundRect,0.200000X-0.300000X0.200000X-0.300000X-0.200000X0.300000X-0.200000X0.300000X0.200000X0*%
%ADD18RoundRect,0.150000X-0.200000X0.150000X-0.200000X-0.150000X0.200000X-0.150000X0.200000X0.150000X0*%
%ADD19R,1.000000X0.200000*%
%ADD20RoundRect,0.050000X0.285000X0.100000X-0.285000X0.100000X-0.285000X-0.100000X0.285000X-0.100000X0*%
%ADD21RoundRect,0.200000X0.300000X-0.200000X0.300000X0.200000X-0.300000X0.200000X-0.300000X-0.200000X0*%
%ADD22RoundRect,0.150000X0.200000X-0.150000X0.200000X0.150000X-0.200000X0.150000X-0.200000X-0.150000X0*%
%ADD23RoundRect,0.150000X-0.512500X-0.150000X0.512500X-0.150000X0.512500X0.150000X-0.512500X0.150000X0*%
%ADD24RoundRect,0.205000X-0.289914X0.000000X0.000000X-0.289914X0.289914X0.000000X0.000000X0.289914X0*%
%ADD25RoundRect,0.062500X-0.238649X0.150260X0.150260X-0.238649X0.238649X-0.150260X-0.150260X0.238649X0*%
%ADD26RoundRect,0.062500X-0.238649X-0.150260X-0.150260X-0.238649X0.238649X0.150260X0.150260X0.238649X0*%
%ADD27RoundRect,0.150000X0.035355X-0.247487X0.247487X-0.035355X-0.035355X0.247487X-0.247487X0.035355X0*%
%ADD28R,0.200000X1.000000*%
%ADD29R,0.500000X0.700000*%
%ADD30RoundRect,0.152500X-0.152500X0.297500X-0.152500X-0.297500X0.152500X-0.297500X0.152500X0.297500X0*%
%ADD31RoundRect,0.132500X-0.132500X0.317500X-0.132500X-0.317500X0.132500X-0.317500X0.132500X0.317500X0*%
%ADD32RoundRect,0.062500X-0.062500X-0.112500X0.062500X-0.112500X0.062500X0.112500X-0.062500X0.112500X0*%
%ADD33RoundRect,0.062500X0.035355X-0.123744X0.123744X-0.035355X-0.035355X0.123744X-0.123744X0.035355X0*%
%ADD34RoundRect,0.150000X-0.035355X0.247487X-0.247487X0.035355X0.035355X-0.247487X0.247487X-0.035355X0*%
%ADD35RoundRect,0.250000X-0.530330X-0.176777X-0.176777X-0.530330X0.530330X0.176777X0.176777X0.530330X0*%
%ADD36FreePoly0,0.000000*%
%ADD37FreePoly0,180.000000*%
%ADD38R,1.400000X1.200000*%
%ADD39RoundRect,0.062500X0.112500X-0.062500X0.112500X0.062500X-0.112500X0.062500X-0.112500X-0.062500X0*%
%ADD40RoundRect,0.150000X-0.247487X-0.035355X-0.035355X-0.247487X0.247487X0.035355X0.035355X0.247487X0*%
%ADD41RoundRect,0.087500X-0.250000X-0.087500X0.250000X-0.087500X0.250000X0.087500X-0.250000X0.087500X0*%
%ADD42RoundRect,0.062500X-0.112500X0.062500X-0.112500X-0.062500X0.112500X-0.062500X0.112500X0.062500X0*%
%ADD43RoundRect,0.062500X-0.035355X0.123744X-0.123744X0.035355X0.035355X-0.123744X0.123744X-0.035355X0*%
%ADD44RoundRect,0.062500X-0.123744X-0.035355X-0.035355X-0.123744X0.123744X0.035355X0.035355X0.123744X0*%
%ADD45RoundRect,0.150000X-0.625000X0.150000X-0.625000X-0.150000X0.625000X-0.150000X0.625000X0.150000X0*%
%ADD46RoundRect,0.250000X-0.595000X0.350000X-0.595000X-0.350000X0.595000X-0.350000X0.595000X0.350000X0*%
%ADD47RoundRect,0.200000X0.200000X0.300000X-0.200000X0.300000X-0.200000X-0.300000X0.200000X-0.300000X0*%
%ADD48R,0.600000X0.800000*%
G04 APERTURE END LIST*
D10*
X9297300Y18923000D03*
X11122300Y18923000D03*
D11*
X14233199Y18923000D03*
X12333201Y18923000D03*
D12*
X35698000Y25954372D03*
X37198000Y25954372D03*
D13*
X15749025Y22693483D03*
X16249025Y22693483D03*
X16749025Y22693483D03*
X16749025Y21268483D03*
X16249025Y21268483D03*
X15749025Y21268483D03*
D14*
X31477600Y31242000D03*
X32477600Y31242000D03*
D15*
X24840200Y34160814D03*
X24840200Y33460816D03*
D16*
X16755000Y16730600D03*
X15755000Y16730600D03*
D17*
X45780600Y13450000D03*
D18*
X45778921Y13200001D03*
D19*
X45780600Y13155444D03*
X45780600Y12242954D03*
D18*
X45778921Y12200001D03*
D17*
X45780600Y11950000D03*
D20*
X24658361Y15527400D03*
X24658361Y16027400D03*
X24658361Y16527400D03*
X24658361Y17027400D03*
X23178361Y17027400D03*
X23178361Y16527400D03*
X23178361Y16027400D03*
X23178361Y15527400D03*
D21*
X26770600Y3086669D03*
D22*
X26772279Y3336668D03*
D19*
X26770600Y3381225D03*
X26770600Y4293715D03*
D22*
X26772279Y4336668D03*
D21*
X26770600Y4586669D03*
D23*
X18571900Y17118499D03*
X18571900Y16168500D03*
X18571900Y15218501D03*
X20846900Y15218501D03*
X20846900Y17118499D03*
D15*
X13510076Y21254199D03*
X13510076Y20554201D03*
D24*
X28497800Y22471091D03*
X27826049Y21799340D03*
X29169551Y21799340D03*
X28497800Y21127589D03*
D25*
X27958631Y23399169D03*
X27605078Y23045616D03*
X27251524Y22692062D03*
X26897971Y22338509D03*
D26*
X26897971Y21260171D03*
X27251524Y20906618D03*
X27605078Y20553064D03*
X27958631Y20199511D03*
D25*
X29036969Y20199511D03*
X29390522Y20553064D03*
X29744076Y20906618D03*
X30097629Y21260171D03*
D26*
X30097629Y22338509D03*
X29744076Y22692062D03*
X29390522Y23045616D03*
X29036969Y23399169D03*
D21*
X30768850Y3086669D03*
D22*
X30770529Y3336668D03*
D19*
X30768850Y3381225D03*
X30768850Y4293715D03*
D22*
X30770529Y4336668D03*
D21*
X30768850Y4586669D03*
D27*
X32536408Y24459826D03*
X33243514Y25166932D03*
D12*
X35948619Y1882595D03*
D14*
X36198618Y1880916D03*
D28*
X36243175Y1882595D03*
X37155665Y1882595D03*
D14*
X37198618Y1880916D03*
D12*
X37448619Y1882595D03*
D29*
X18708600Y11540001D03*
X19658600Y11540000D03*
X20608600Y11540001D03*
X20608600Y13859999D03*
X19658600Y13860000D03*
X18708600Y13859999D03*
D15*
X41959800Y34160814D03*
X41959800Y33460816D03*
D30*
X17241000Y26513600D03*
D31*
X16401000Y26513600D03*
X15601000Y26513600D03*
D30*
X14761000Y26513600D03*
X14761000Y24743600D03*
D31*
X15601000Y24743600D03*
X16401000Y24743600D03*
D30*
X17241000Y24743600D03*
D17*
X40969200Y4593655D03*
X40969200Y3093655D03*
D21*
X39175199Y11950000D03*
X39175199Y13450000D03*
D32*
X16335600Y18821400D03*
X16885600Y18821400D03*
D29*
X17027200Y13859999D03*
X16077200Y13860000D03*
X15127200Y13859999D03*
X15127200Y11540001D03*
X16077200Y11540000D03*
X17027200Y11540001D03*
D17*
X48422200Y13450290D03*
D18*
X48420521Y13200291D03*
D19*
X48422200Y13155734D03*
X48422200Y12243244D03*
D18*
X48420521Y12200291D03*
D17*
X48422200Y11950290D03*
D33*
X29674657Y24464995D03*
X30063565Y24853903D03*
D34*
X13001753Y11631153D03*
X12294647Y10924047D03*
D21*
X42391600Y24554372D03*
D22*
X42393279Y24804371D03*
D19*
X42391600Y24848928D03*
X42391600Y25761418D03*
D22*
X42393279Y25804371D03*
D21*
X42391600Y26054372D03*
D12*
X35698000Y24658972D03*
D14*
X35947999Y24657293D03*
D28*
X35992556Y24658972D03*
X36905046Y24658972D03*
D14*
X36947999Y24657293D03*
D12*
X37198000Y24658972D03*
D34*
X31467553Y18158953D03*
X30760447Y17451847D03*
D17*
X36041600Y4586669D03*
X36041600Y3086669D03*
D35*
X27038196Y12867746D03*
X28381698Y11524244D03*
D36*
X22307599Y20805220D03*
D37*
X23087601Y20805220D03*
D17*
X43139000Y13450000D03*
D18*
X43137321Y13200001D03*
D19*
X43139000Y13155444D03*
X43139000Y12242954D03*
D18*
X43137321Y12200001D03*
D17*
X43139000Y11950000D03*
D15*
X41959800Y21457399D03*
X41959800Y20757401D03*
D38*
X26458800Y25918701D03*
X28758800Y25918701D03*
X28758800Y27768701D03*
X26458800Y27768701D03*
D18*
X33519800Y21313702D03*
X33519800Y20313702D03*
D17*
X40497400Y13450000D03*
D18*
X40495721Y13200001D03*
D19*
X40497400Y13155444D03*
X40497400Y12242954D03*
D18*
X40495721Y12200001D03*
D17*
X40497400Y11950000D03*
D21*
X47101400Y11950290D03*
X47101400Y13450290D03*
D39*
X24205200Y27893600D03*
X24205200Y28443600D03*
D40*
X25525445Y18158953D03*
X26232551Y17451847D03*
D21*
X43712400Y24554372D03*
D22*
X43714079Y24804371D03*
D19*
X43712400Y24848928D03*
X43712400Y25761418D03*
D22*
X43714079Y25804371D03*
D21*
X43712400Y26054372D03*
D41*
X15364700Y15909800D03*
X15364699Y15409800D03*
X15364700Y14909800D03*
X16789700Y14909800D03*
X16789701Y15409800D03*
X16789700Y15909800D03*
D12*
X50960366Y13349947D03*
D14*
X51210365Y13348268D03*
D28*
X51254922Y13349947D03*
X52167412Y13349947D03*
D14*
X52210365Y13348268D03*
D12*
X52460366Y13349947D03*
D37*
X23087600Y22798590D03*
D36*
X22307600Y22798590D03*
D17*
X38429200Y26054372D03*
D18*
X38427521Y25804373D03*
D19*
X38429200Y25759816D03*
X38429200Y24847326D03*
D18*
X38427521Y24804373D03*
D17*
X38429200Y24554372D03*
X39750000Y26054372D03*
D18*
X39748321Y25804373D03*
D19*
X39750000Y25759816D03*
X39750000Y24847326D03*
D18*
X39748321Y24804373D03*
D17*
X39750000Y24554372D03*
X34466800Y26057372D03*
D18*
X34465121Y25807373D03*
D19*
X34466800Y25762816D03*
X34466800Y24850326D03*
D18*
X34465121Y24807373D03*
D17*
X34466800Y24557372D03*
D21*
X44459800Y11950000D03*
X44459800Y13450000D03*
D33*
X31122746Y19791247D03*
X31511654Y20180155D03*
D18*
X30275800Y27470701D03*
X30275800Y26470701D03*
D42*
X22167813Y15085122D03*
X22167813Y14535122D03*
D27*
X31139408Y23062826D03*
X31846514Y23769932D03*
D32*
X17427800Y18821400D03*
X17977800Y18821400D03*
D15*
X13510076Y22955999D03*
X13510076Y22256001D03*
D40*
X30050197Y19588234D03*
X30757303Y18881128D03*
D21*
X42298052Y3110554D03*
D22*
X42299731Y3360553D03*
D19*
X42298052Y3405110D03*
X42298052Y4317600D03*
D22*
X42299731Y4360553D03*
D21*
X42298052Y4610554D03*
D43*
X27837400Y19350399D03*
X27448492Y18961491D03*
D17*
X34717419Y3386384D03*
D18*
X34715740Y3136385D03*
D19*
X34717419Y3091828D03*
X34717419Y2179338D03*
D18*
X34715740Y2136385D03*
D17*
X34717419Y1886384D03*
D44*
X29158200Y19350399D03*
X29547108Y18961491D03*
D21*
X24510000Y3085154D03*
D22*
X24511679Y3335153D03*
D19*
X24510000Y3379710D03*
X24510000Y4292200D03*
D22*
X24511679Y4335153D03*
D21*
X24510000Y4585154D03*
D12*
X37030272Y23149979D03*
X38530272Y23149979D03*
D21*
X33396619Y3396180D03*
D22*
X33398298Y3646179D03*
D19*
X33396619Y3690736D03*
X33396619Y4603226D03*
D22*
X33398298Y4646179D03*
D21*
X33396619Y4896180D03*
D14*
X31477600Y29692600D03*
X32477600Y29692600D03*
D16*
X20591677Y26568400D03*
X19591679Y26568400D03*
D17*
X32075819Y3392869D03*
X32075819Y1892869D03*
D16*
X32477399Y28676600D03*
X31477399Y28676600D03*
X18153711Y18033917D03*
X16753711Y18033917D03*
D22*
X24941799Y25662000D03*
X24941799Y26662000D03*
D17*
X38403800Y4586669D03*
X38403800Y3086669D03*
D34*
X26951676Y19588234D03*
X26244570Y18881128D03*
D17*
X37855800Y13450000D03*
D18*
X37854121Y13200001D03*
D19*
X37855800Y13155444D03*
X37855800Y12242954D03*
D18*
X37854121Y12200001D03*
D17*
X37855800Y11950000D03*
D33*
X30084638Y24048792D03*
X30473546Y24437700D03*
D45*
X11778000Y24360000D03*
X11778000Y23360000D03*
X11778000Y22360000D03*
X11778000Y21360000D03*
D46*
X7903000Y25660000D03*
X7903000Y20060000D03*
D39*
X24764000Y27893600D03*
X24764000Y28443600D03*
D12*
X41193019Y1882595D03*
D14*
X41443018Y1880916D03*
D28*
X41487575Y1882595D03*
X42400065Y1882595D03*
D14*
X42443018Y1880916D03*
D12*
X42693019Y1882595D03*
D14*
X31487799Y21313701D03*
X32487799Y21313701D03*
D47*
X35865051Y23149979D03*
X34365051Y23149979D03*
D21*
X28367419Y3086669D03*
D22*
X28369098Y3336668D03*
D19*
X28367419Y3381225D03*
X28367419Y4293715D03*
D22*
X28369098Y4336668D03*
D21*
X28367419Y4586669D03*
D47*
X28272927Y1880869D03*
X26772927Y1880869D03*
D17*
X41070800Y26054372D03*
X41070800Y24554372D03*
D48*
X24190216Y13837500D03*
X23240217Y13837500D03*
X22290218Y13837500D03*
X22290218Y11562500D03*
X24190216Y11562500D03*
D12*
X38564819Y1882595D03*
D14*
X38814818Y1880916D03*
D28*
X38859375Y1882595D03*
X39771865Y1882595D03*
D14*
X39814818Y1880916D03*
D12*
X40064819Y1882595D03*
D15*
X24840200Y8751798D03*
X24840200Y8051800D03*
D18*
X28497800Y18762600D03*
X28497800Y17762600D03*
D12*
X40891600Y27478372D03*
X42391600Y27478372D03*
D15*
X41959800Y8751798D03*
X41959800Y8051800D03*
D22*
X25526000Y13738160D03*
X25526000Y14738160D03*
D32*
X24158800Y10337800D03*
X24708800Y10337800D03*
D47*
X30870019Y1880869D03*
X29370019Y1880869D03*
D21*
X41818200Y11950000D03*
X41818200Y13450000D03*
X49743000Y11950290D03*
X49743000Y13450290D03*
D14*
X22359000Y26543000D03*
X23359000Y26543000D03*
D39*
X23519400Y9783400D03*
X23519400Y10333400D03*
D18*
X22071600Y16806800D03*
X22071600Y15806800D03*
M02*
